G04 #@! TF.GenerationSoftware,KiCad,Pcbnew,9.0.2*
G04 #@! TF.CreationDate,2025-09-19T14:38:59-04:00*
G04 #@! TF.ProjectId,Trackball,54726163-6b62-4616-9c6c-2e6b69636164,rev?*
G04 #@! TF.SameCoordinates,Original*
G04 #@! TF.FileFunction,Legend,Bot*
G04 #@! TF.FilePolarity,Positive*
%FSLAX46Y46*%
G04 Gerber Fmt 4.6, Leading zero omitted, Abs format (unit mm)*
G04 Created by KiCad (PCBNEW 9.0.2) date 2025-09-19 14:38:59*
%MOMM*%
%LPD*%
G01*
G04 APERTURE LIST*
%ADD10C,0.300000*%
%ADD11C,0.150000*%
%ADD12C,0.254000*%
%ADD13C,0.120000*%
%ADD14C,0.100000*%
G04 APERTURE END LIST*
D10*
X150343919Y-106457142D02*
X151843919Y-106457142D01*
X151843919Y-106457142D02*
X151843919Y-105885713D01*
X151843919Y-105885713D02*
X151772490Y-105742856D01*
X151772490Y-105742856D02*
X151701062Y-105671427D01*
X151701062Y-105671427D02*
X151558205Y-105599999D01*
X151558205Y-105599999D02*
X151343919Y-105599999D01*
X151343919Y-105599999D02*
X151201062Y-105671427D01*
X151201062Y-105671427D02*
X151129633Y-105742856D01*
X151129633Y-105742856D02*
X151058205Y-105885713D01*
X151058205Y-105885713D02*
X151058205Y-106457142D01*
X150343919Y-104957142D02*
X151343919Y-104957142D01*
X151058205Y-104957142D02*
X151201062Y-104885713D01*
X151201062Y-104885713D02*
X151272490Y-104814285D01*
X151272490Y-104814285D02*
X151343919Y-104671427D01*
X151343919Y-104671427D02*
X151343919Y-104528570D01*
X150343919Y-103814285D02*
X150415348Y-103957142D01*
X150415348Y-103957142D02*
X150486776Y-104028571D01*
X150486776Y-104028571D02*
X150629633Y-104099999D01*
X150629633Y-104099999D02*
X151058205Y-104099999D01*
X151058205Y-104099999D02*
X151201062Y-104028571D01*
X151201062Y-104028571D02*
X151272490Y-103957142D01*
X151272490Y-103957142D02*
X151343919Y-103814285D01*
X151343919Y-103814285D02*
X151343919Y-103599999D01*
X151343919Y-103599999D02*
X151272490Y-103457142D01*
X151272490Y-103457142D02*
X151201062Y-103385714D01*
X151201062Y-103385714D02*
X151058205Y-103314285D01*
X151058205Y-103314285D02*
X150629633Y-103314285D01*
X150629633Y-103314285D02*
X150486776Y-103385714D01*
X150486776Y-103385714D02*
X150415348Y-103457142D01*
X150415348Y-103457142D02*
X150343919Y-103599999D01*
X150343919Y-103599999D02*
X150343919Y-103814285D01*
X150343919Y-102671428D02*
X151843919Y-102671428D01*
X151843919Y-102671428D02*
X150772490Y-102171428D01*
X150772490Y-102171428D02*
X151843919Y-101671428D01*
X151843919Y-101671428D02*
X150343919Y-101671428D01*
X150343919Y-100957142D02*
X151343919Y-100957142D01*
X151843919Y-100957142D02*
X151772490Y-101028570D01*
X151772490Y-101028570D02*
X151701062Y-100957142D01*
X151701062Y-100957142D02*
X151772490Y-100885713D01*
X151772490Y-100885713D02*
X151843919Y-100957142D01*
X151843919Y-100957142D02*
X151701062Y-100957142D01*
X150415348Y-99599999D02*
X150343919Y-99742856D01*
X150343919Y-99742856D02*
X150343919Y-100028570D01*
X150343919Y-100028570D02*
X150415348Y-100171427D01*
X150415348Y-100171427D02*
X150486776Y-100242856D01*
X150486776Y-100242856D02*
X150629633Y-100314284D01*
X150629633Y-100314284D02*
X151058205Y-100314284D01*
X151058205Y-100314284D02*
X151201062Y-100242856D01*
X151201062Y-100242856D02*
X151272490Y-100171427D01*
X151272490Y-100171427D02*
X151343919Y-100028570D01*
X151343919Y-100028570D02*
X151343919Y-99742856D01*
X151343919Y-99742856D02*
X151272490Y-99599999D01*
X150343919Y-98957142D02*
X151343919Y-98957142D01*
X151058205Y-98957142D02*
X151201062Y-98885713D01*
X151201062Y-98885713D02*
X151272490Y-98814285D01*
X151272490Y-98814285D02*
X151343919Y-98671427D01*
X151343919Y-98671427D02*
X151343919Y-98528570D01*
X150343919Y-97814285D02*
X150415348Y-97957142D01*
X150415348Y-97957142D02*
X150486776Y-98028571D01*
X150486776Y-98028571D02*
X150629633Y-98099999D01*
X150629633Y-98099999D02*
X151058205Y-98099999D01*
X151058205Y-98099999D02*
X151201062Y-98028571D01*
X151201062Y-98028571D02*
X151272490Y-97957142D01*
X151272490Y-97957142D02*
X151343919Y-97814285D01*
X151343919Y-97814285D02*
X151343919Y-97599999D01*
X151343919Y-97599999D02*
X151272490Y-97457142D01*
X151272490Y-97457142D02*
X151201062Y-97385714D01*
X151201062Y-97385714D02*
X151058205Y-97314285D01*
X151058205Y-97314285D02*
X150629633Y-97314285D01*
X150629633Y-97314285D02*
X150486776Y-97385714D01*
X150486776Y-97385714D02*
X150415348Y-97457142D01*
X150415348Y-97457142D02*
X150343919Y-97599999D01*
X150343919Y-97599999D02*
X150343919Y-97814285D01*
X147929003Y-103421428D02*
X149429003Y-103421428D01*
X147929003Y-102778571D02*
X148714717Y-102778571D01*
X148714717Y-102778571D02*
X148857574Y-102849999D01*
X148857574Y-102849999D02*
X148929003Y-102992856D01*
X148929003Y-102992856D02*
X148929003Y-103207142D01*
X148929003Y-103207142D02*
X148857574Y-103349999D01*
X148857574Y-103349999D02*
X148786146Y-103421428D01*
X148000432Y-101492856D02*
X147929003Y-101635713D01*
X147929003Y-101635713D02*
X147929003Y-101921428D01*
X147929003Y-101921428D02*
X148000432Y-102064285D01*
X148000432Y-102064285D02*
X148143289Y-102135713D01*
X148143289Y-102135713D02*
X148714717Y-102135713D01*
X148714717Y-102135713D02*
X148857574Y-102064285D01*
X148857574Y-102064285D02*
X148929003Y-101921428D01*
X148929003Y-101921428D02*
X148929003Y-101635713D01*
X148929003Y-101635713D02*
X148857574Y-101492856D01*
X148857574Y-101492856D02*
X148714717Y-101421428D01*
X148714717Y-101421428D02*
X148571860Y-101421428D01*
X148571860Y-101421428D02*
X148429003Y-102135713D01*
X147929003Y-100778571D02*
X148929003Y-100778571D01*
X148643289Y-100778571D02*
X148786146Y-100707142D01*
X148786146Y-100707142D02*
X148857574Y-100635714D01*
X148857574Y-100635714D02*
X148929003Y-100492856D01*
X148929003Y-100492856D02*
X148929003Y-100349999D01*
X148000432Y-99278571D02*
X147929003Y-99421428D01*
X147929003Y-99421428D02*
X147929003Y-99707143D01*
X147929003Y-99707143D02*
X148000432Y-99850000D01*
X148000432Y-99850000D02*
X148143289Y-99921428D01*
X148143289Y-99921428D02*
X148714717Y-99921428D01*
X148714717Y-99921428D02*
X148857574Y-99850000D01*
X148857574Y-99850000D02*
X148929003Y-99707143D01*
X148929003Y-99707143D02*
X148929003Y-99421428D01*
X148929003Y-99421428D02*
X148857574Y-99278571D01*
X148857574Y-99278571D02*
X148714717Y-99207143D01*
X148714717Y-99207143D02*
X148571860Y-99207143D01*
X148571860Y-99207143D02*
X148429003Y-99921428D01*
X146299801Y-103778571D02*
X146299801Y-104278571D01*
X145514087Y-104278571D02*
X147014087Y-104278571D01*
X147014087Y-104278571D02*
X147014087Y-103564285D01*
X145942658Y-103064285D02*
X145942658Y-102350000D01*
X145514087Y-103207142D02*
X147014087Y-102707142D01*
X147014087Y-102707142D02*
X145514087Y-102207142D01*
X145656944Y-100850000D02*
X145585516Y-100921428D01*
X145585516Y-100921428D02*
X145514087Y-101135714D01*
X145514087Y-101135714D02*
X145514087Y-101278571D01*
X145514087Y-101278571D02*
X145585516Y-101492857D01*
X145585516Y-101492857D02*
X145728373Y-101635714D01*
X145728373Y-101635714D02*
X145871230Y-101707143D01*
X145871230Y-101707143D02*
X146156944Y-101778571D01*
X146156944Y-101778571D02*
X146371230Y-101778571D01*
X146371230Y-101778571D02*
X146656944Y-101707143D01*
X146656944Y-101707143D02*
X146799801Y-101635714D01*
X146799801Y-101635714D02*
X146942658Y-101492857D01*
X146942658Y-101492857D02*
X147014087Y-101278571D01*
X147014087Y-101278571D02*
X147014087Y-101135714D01*
X147014087Y-101135714D02*
X146942658Y-100921428D01*
X146942658Y-100921428D02*
X146871230Y-100850000D01*
X146299801Y-100207143D02*
X146299801Y-99707143D01*
X145514087Y-99492857D02*
X145514087Y-100207143D01*
X145514087Y-100207143D02*
X147014087Y-100207143D01*
X147014087Y-100207143D02*
X147014087Y-99492857D01*
X143099171Y-104171429D02*
X144599171Y-104171429D01*
X144599171Y-104171429D02*
X144599171Y-103814286D01*
X144599171Y-103814286D02*
X144527742Y-103600000D01*
X144527742Y-103600000D02*
X144384885Y-103457143D01*
X144384885Y-103457143D02*
X144242028Y-103385714D01*
X144242028Y-103385714D02*
X143956314Y-103314286D01*
X143956314Y-103314286D02*
X143742028Y-103314286D01*
X143742028Y-103314286D02*
X143456314Y-103385714D01*
X143456314Y-103385714D02*
X143313457Y-103457143D01*
X143313457Y-103457143D02*
X143170600Y-103600000D01*
X143170600Y-103600000D02*
X143099171Y-103814286D01*
X143099171Y-103814286D02*
X143099171Y-104171429D01*
X144599171Y-102385714D02*
X144599171Y-102100000D01*
X144599171Y-102100000D02*
X144527742Y-101957143D01*
X144527742Y-101957143D02*
X144384885Y-101814286D01*
X144384885Y-101814286D02*
X144099171Y-101742857D01*
X144099171Y-101742857D02*
X143599171Y-101742857D01*
X143599171Y-101742857D02*
X143313457Y-101814286D01*
X143313457Y-101814286D02*
X143170600Y-101957143D01*
X143170600Y-101957143D02*
X143099171Y-102100000D01*
X143099171Y-102100000D02*
X143099171Y-102385714D01*
X143099171Y-102385714D02*
X143170600Y-102528572D01*
X143170600Y-102528572D02*
X143313457Y-102671429D01*
X143313457Y-102671429D02*
X143599171Y-102742857D01*
X143599171Y-102742857D02*
X144099171Y-102742857D01*
X144099171Y-102742857D02*
X144384885Y-102671429D01*
X144384885Y-102671429D02*
X144527742Y-102528572D01*
X144527742Y-102528572D02*
X144599171Y-102385714D01*
X144599171Y-101242857D02*
X143099171Y-100885714D01*
X143099171Y-100885714D02*
X144170600Y-100600000D01*
X144170600Y-100600000D02*
X143099171Y-100314285D01*
X143099171Y-100314285D02*
X144599171Y-99957143D01*
X143099171Y-99385714D02*
X144599171Y-99385714D01*
X144599171Y-99385714D02*
X143099171Y-98528571D01*
X143099171Y-98528571D02*
X144599171Y-98528571D01*
D11*
X167559875Y-83385714D02*
X167559875Y-82909524D01*
X167559875Y-82909524D02*
X166559875Y-82909524D01*
X167036065Y-83719048D02*
X167036065Y-84052381D01*
X167559875Y-84195238D02*
X167559875Y-83719048D01*
X167559875Y-83719048D02*
X166559875Y-83719048D01*
X166559875Y-83719048D02*
X166559875Y-84195238D01*
X167036065Y-84957143D02*
X167036065Y-84623810D01*
X167559875Y-84623810D02*
X166559875Y-84623810D01*
X166559875Y-84623810D02*
X166559875Y-85100000D01*
X166559875Y-85338096D02*
X166559875Y-85909524D01*
X167559875Y-85623810D02*
X166559875Y-85623810D01*
X167178922Y-86242858D02*
X167178922Y-87004763D01*
X167559875Y-88052381D02*
X167083684Y-87719048D01*
X167559875Y-87480953D02*
X166559875Y-87480953D01*
X166559875Y-87480953D02*
X166559875Y-87861905D01*
X166559875Y-87861905D02*
X166607494Y-87957143D01*
X166607494Y-87957143D02*
X166655113Y-88004762D01*
X166655113Y-88004762D02*
X166750351Y-88052381D01*
X166750351Y-88052381D02*
X166893208Y-88052381D01*
X166893208Y-88052381D02*
X166988446Y-88004762D01*
X166988446Y-88004762D02*
X167036065Y-87957143D01*
X167036065Y-87957143D02*
X167083684Y-87861905D01*
X167083684Y-87861905D02*
X167083684Y-87480953D01*
X167559875Y-88480953D02*
X166559875Y-88480953D01*
X166607494Y-89480952D02*
X166559875Y-89385714D01*
X166559875Y-89385714D02*
X166559875Y-89242857D01*
X166559875Y-89242857D02*
X166607494Y-89100000D01*
X166607494Y-89100000D02*
X166702732Y-89004762D01*
X166702732Y-89004762D02*
X166797970Y-88957143D01*
X166797970Y-88957143D02*
X166988446Y-88909524D01*
X166988446Y-88909524D02*
X167131303Y-88909524D01*
X167131303Y-88909524D02*
X167321779Y-88957143D01*
X167321779Y-88957143D02*
X167417017Y-89004762D01*
X167417017Y-89004762D02*
X167512256Y-89100000D01*
X167512256Y-89100000D02*
X167559875Y-89242857D01*
X167559875Y-89242857D02*
X167559875Y-89338095D01*
X167559875Y-89338095D02*
X167512256Y-89480952D01*
X167512256Y-89480952D02*
X167464636Y-89528571D01*
X167464636Y-89528571D02*
X167131303Y-89528571D01*
X167131303Y-89528571D02*
X167131303Y-89338095D01*
X167559875Y-89957143D02*
X166559875Y-89957143D01*
X167036065Y-89957143D02*
X167036065Y-90528571D01*
X167559875Y-90528571D02*
X166559875Y-90528571D01*
X166559875Y-90861905D02*
X166559875Y-91433333D01*
X167559875Y-91147619D02*
X166559875Y-91147619D01*
X169169819Y-85361905D02*
X168169819Y-85361905D01*
X168646009Y-85361905D02*
X168646009Y-85933333D01*
X169169819Y-85933333D02*
X168169819Y-85933333D01*
X168884104Y-86361905D02*
X168884104Y-86838095D01*
X169169819Y-86266667D02*
X168169819Y-86600000D01*
X168169819Y-86600000D02*
X169169819Y-86933333D01*
X169169819Y-87266667D02*
X168169819Y-87266667D01*
X168169819Y-87266667D02*
X169169819Y-87838095D01*
X169169819Y-87838095D02*
X168169819Y-87838095D01*
X169169819Y-88314286D02*
X168169819Y-88314286D01*
X168169819Y-88314286D02*
X168169819Y-88552381D01*
X168169819Y-88552381D02*
X168217438Y-88695238D01*
X168217438Y-88695238D02*
X168312676Y-88790476D01*
X168312676Y-88790476D02*
X168407914Y-88838095D01*
X168407914Y-88838095D02*
X168598390Y-88885714D01*
X168598390Y-88885714D02*
X168741247Y-88885714D01*
X168741247Y-88885714D02*
X168931723Y-88838095D01*
X168931723Y-88838095D02*
X169026961Y-88790476D01*
X169026961Y-88790476D02*
X169122200Y-88695238D01*
X169122200Y-88695238D02*
X169169819Y-88552381D01*
X169169819Y-88552381D02*
X169169819Y-88314286D01*
X133521077Y-109013220D02*
X133521077Y-108251316D01*
X133140124Y-108632268D02*
X133902029Y-108632268D01*
X133663934Y-107441792D02*
X133616315Y-107298935D01*
X133616315Y-107298935D02*
X133568696Y-107251316D01*
X133568696Y-107251316D02*
X133473458Y-107203697D01*
X133473458Y-107203697D02*
X133330601Y-107203697D01*
X133330601Y-107203697D02*
X133235363Y-107251316D01*
X133235363Y-107251316D02*
X133187744Y-107298935D01*
X133187744Y-107298935D02*
X133140124Y-107394173D01*
X133140124Y-107394173D02*
X133140124Y-107775125D01*
X133140124Y-107775125D02*
X134140124Y-107775125D01*
X134140124Y-107775125D02*
X134140124Y-107441792D01*
X134140124Y-107441792D02*
X134092505Y-107346554D01*
X134092505Y-107346554D02*
X134044886Y-107298935D01*
X134044886Y-107298935D02*
X133949648Y-107251316D01*
X133949648Y-107251316D02*
X133854410Y-107251316D01*
X133854410Y-107251316D02*
X133759172Y-107298935D01*
X133759172Y-107298935D02*
X133711553Y-107346554D01*
X133711553Y-107346554D02*
X133663934Y-107441792D01*
X133663934Y-107441792D02*
X133663934Y-107775125D01*
X133140124Y-106346554D02*
X133663934Y-106346554D01*
X133663934Y-106346554D02*
X133759172Y-106394173D01*
X133759172Y-106394173D02*
X133806791Y-106489411D01*
X133806791Y-106489411D02*
X133806791Y-106679887D01*
X133806791Y-106679887D02*
X133759172Y-106775125D01*
X133187744Y-106346554D02*
X133140124Y-106441792D01*
X133140124Y-106441792D02*
X133140124Y-106679887D01*
X133140124Y-106679887D02*
X133187744Y-106775125D01*
X133187744Y-106775125D02*
X133282982Y-106822744D01*
X133282982Y-106822744D02*
X133378220Y-106822744D01*
X133378220Y-106822744D02*
X133473458Y-106775125D01*
X133473458Y-106775125D02*
X133521077Y-106679887D01*
X133521077Y-106679887D02*
X133521077Y-106441792D01*
X133521077Y-106441792D02*
X133568696Y-106346554D01*
X133806791Y-106013220D02*
X133806791Y-105632268D01*
X134140124Y-105870363D02*
X133282982Y-105870363D01*
X133282982Y-105870363D02*
X133187744Y-105822744D01*
X133187744Y-105822744D02*
X133140124Y-105727506D01*
X133140124Y-105727506D02*
X133140124Y-105632268D01*
X133806791Y-105441791D02*
X133806791Y-105060839D01*
X134140124Y-105298934D02*
X133282982Y-105298934D01*
X133282982Y-105298934D02*
X133187744Y-105251315D01*
X133187744Y-105251315D02*
X133140124Y-105156077D01*
X133140124Y-105156077D02*
X133140124Y-105060839D01*
X133187744Y-104346553D02*
X133140124Y-104441791D01*
X133140124Y-104441791D02*
X133140124Y-104632267D01*
X133140124Y-104632267D02*
X133187744Y-104727505D01*
X133187744Y-104727505D02*
X133282982Y-104775124D01*
X133282982Y-104775124D02*
X133663934Y-104775124D01*
X133663934Y-104775124D02*
X133759172Y-104727505D01*
X133759172Y-104727505D02*
X133806791Y-104632267D01*
X133806791Y-104632267D02*
X133806791Y-104441791D01*
X133806791Y-104441791D02*
X133759172Y-104346553D01*
X133759172Y-104346553D02*
X133663934Y-104298934D01*
X133663934Y-104298934D02*
X133568696Y-104298934D01*
X133568696Y-104298934D02*
X133473458Y-104775124D01*
X133140124Y-103870362D02*
X133806791Y-103870362D01*
X133616315Y-103870362D02*
X133711553Y-103822743D01*
X133711553Y-103822743D02*
X133759172Y-103775124D01*
X133759172Y-103775124D02*
X133806791Y-103679886D01*
X133806791Y-103679886D02*
X133806791Y-103584648D01*
X133806791Y-103346552D02*
X133140124Y-103108457D01*
X133806791Y-102870362D02*
X133140124Y-103108457D01*
X133140124Y-103108457D02*
X132902029Y-103203695D01*
X132902029Y-103203695D02*
X132854410Y-103251314D01*
X132854410Y-103251314D02*
X132806791Y-103346552D01*
X131149228Y-107965601D02*
X131196847Y-108013220D01*
X131196847Y-108013220D02*
X131339704Y-108108458D01*
X131339704Y-108108458D02*
X131434942Y-108156077D01*
X131434942Y-108156077D02*
X131577800Y-108203696D01*
X131577800Y-108203696D02*
X131815895Y-108251315D01*
X131815895Y-108251315D02*
X132006371Y-108251315D01*
X132006371Y-108251315D02*
X132244466Y-108203696D01*
X132244466Y-108203696D02*
X132387323Y-108156077D01*
X132387323Y-108156077D02*
X132482561Y-108108458D01*
X132482561Y-108108458D02*
X132625419Y-108013220D01*
X132625419Y-108013220D02*
X132673038Y-107965601D01*
X131530180Y-107013220D02*
X132006371Y-107346553D01*
X131530180Y-107584648D02*
X132530180Y-107584648D01*
X132530180Y-107584648D02*
X132530180Y-107203696D01*
X132530180Y-107203696D02*
X132482561Y-107108458D01*
X132482561Y-107108458D02*
X132434942Y-107060839D01*
X132434942Y-107060839D02*
X132339704Y-107013220D01*
X132339704Y-107013220D02*
X132196847Y-107013220D01*
X132196847Y-107013220D02*
X132101609Y-107060839D01*
X132101609Y-107060839D02*
X132053990Y-107108458D01*
X132053990Y-107108458D02*
X132006371Y-107203696D01*
X132006371Y-107203696D02*
X132006371Y-107584648D01*
X131577800Y-106203696D02*
X131530180Y-106298934D01*
X131530180Y-106298934D02*
X131530180Y-106489410D01*
X131530180Y-106489410D02*
X131577800Y-106584648D01*
X131577800Y-106584648D02*
X131673038Y-106632267D01*
X131673038Y-106632267D02*
X132053990Y-106632267D01*
X132053990Y-106632267D02*
X132149228Y-106584648D01*
X132149228Y-106584648D02*
X132196847Y-106489410D01*
X132196847Y-106489410D02*
X132196847Y-106298934D01*
X132196847Y-106298934D02*
X132149228Y-106203696D01*
X132149228Y-106203696D02*
X132053990Y-106156077D01*
X132053990Y-106156077D02*
X131958752Y-106156077D01*
X131958752Y-106156077D02*
X131863514Y-106632267D01*
X131530180Y-105298934D02*
X132530180Y-105298934D01*
X131577800Y-105298934D02*
X131530180Y-105394172D01*
X131530180Y-105394172D02*
X131530180Y-105584648D01*
X131530180Y-105584648D02*
X131577800Y-105679886D01*
X131577800Y-105679886D02*
X131625419Y-105727505D01*
X131625419Y-105727505D02*
X131720657Y-105775124D01*
X131720657Y-105775124D02*
X132006371Y-105775124D01*
X132006371Y-105775124D02*
X132101609Y-105727505D01*
X132101609Y-105727505D02*
X132149228Y-105679886D01*
X132149228Y-105679886D02*
X132196847Y-105584648D01*
X132196847Y-105584648D02*
X132196847Y-105394172D01*
X132196847Y-105394172D02*
X132149228Y-105298934D01*
X131149228Y-104917981D02*
X131196847Y-104870362D01*
X131196847Y-104870362D02*
X131339704Y-104775124D01*
X131339704Y-104775124D02*
X131434942Y-104727505D01*
X131434942Y-104727505D02*
X131577800Y-104679886D01*
X131577800Y-104679886D02*
X131815895Y-104632267D01*
X131815895Y-104632267D02*
X132006371Y-104632267D01*
X132006371Y-104632267D02*
X132244466Y-104679886D01*
X132244466Y-104679886D02*
X132387323Y-104727505D01*
X132387323Y-104727505D02*
X132482561Y-104775124D01*
X132482561Y-104775124D02*
X132625419Y-104870362D01*
X132625419Y-104870362D02*
X132673038Y-104917981D01*
D10*
X143681203Y-126389828D02*
X144181203Y-125675542D01*
X144538346Y-126389828D02*
X144538346Y-124889828D01*
X144538346Y-124889828D02*
X143966917Y-124889828D01*
X143966917Y-124889828D02*
X143824060Y-124961257D01*
X143824060Y-124961257D02*
X143752631Y-125032685D01*
X143752631Y-125032685D02*
X143681203Y-125175542D01*
X143681203Y-125175542D02*
X143681203Y-125389828D01*
X143681203Y-125389828D02*
X143752631Y-125532685D01*
X143752631Y-125532685D02*
X143824060Y-125604114D01*
X143824060Y-125604114D02*
X143966917Y-125675542D01*
X143966917Y-125675542D02*
X144538346Y-125675542D01*
X143038346Y-125604114D02*
X142538346Y-125604114D01*
X142324060Y-126389828D02*
X143038346Y-126389828D01*
X143038346Y-126389828D02*
X143038346Y-124889828D01*
X143038346Y-124889828D02*
X142324060Y-124889828D01*
X141752631Y-126318400D02*
X141538346Y-126389828D01*
X141538346Y-126389828D02*
X141181203Y-126389828D01*
X141181203Y-126389828D02*
X141038346Y-126318400D01*
X141038346Y-126318400D02*
X140966917Y-126246971D01*
X140966917Y-126246971D02*
X140895488Y-126104114D01*
X140895488Y-126104114D02*
X140895488Y-125961257D01*
X140895488Y-125961257D02*
X140966917Y-125818400D01*
X140966917Y-125818400D02*
X141038346Y-125746971D01*
X141038346Y-125746971D02*
X141181203Y-125675542D01*
X141181203Y-125675542D02*
X141466917Y-125604114D01*
X141466917Y-125604114D02*
X141609774Y-125532685D01*
X141609774Y-125532685D02*
X141681203Y-125461257D01*
X141681203Y-125461257D02*
X141752631Y-125318400D01*
X141752631Y-125318400D02*
X141752631Y-125175542D01*
X141752631Y-125175542D02*
X141681203Y-125032685D01*
X141681203Y-125032685D02*
X141609774Y-124961257D01*
X141609774Y-124961257D02*
X141466917Y-124889828D01*
X141466917Y-124889828D02*
X141109774Y-124889828D01*
X141109774Y-124889828D02*
X140895488Y-124961257D01*
X140252632Y-125604114D02*
X139752632Y-125604114D01*
X139538346Y-126389828D02*
X140252632Y-126389828D01*
X140252632Y-126389828D02*
X140252632Y-124889828D01*
X140252632Y-124889828D02*
X139538346Y-124889828D01*
X139109774Y-124889828D02*
X138252632Y-124889828D01*
X138681203Y-126389828D02*
X138681203Y-124889828D01*
D11*
X128510839Y-82172200D02*
X128367982Y-82219819D01*
X128367982Y-82219819D02*
X128129887Y-82219819D01*
X128129887Y-82219819D02*
X128034649Y-82172200D01*
X128034649Y-82172200D02*
X127987030Y-82124580D01*
X127987030Y-82124580D02*
X127939411Y-82029342D01*
X127939411Y-82029342D02*
X127939411Y-81934104D01*
X127939411Y-81934104D02*
X127987030Y-81838866D01*
X127987030Y-81838866D02*
X128034649Y-81791247D01*
X128034649Y-81791247D02*
X128129887Y-81743628D01*
X128129887Y-81743628D02*
X128320363Y-81696009D01*
X128320363Y-81696009D02*
X128415601Y-81648390D01*
X128415601Y-81648390D02*
X128463220Y-81600771D01*
X128463220Y-81600771D02*
X128510839Y-81505533D01*
X128510839Y-81505533D02*
X128510839Y-81410295D01*
X128510839Y-81410295D02*
X128463220Y-81315057D01*
X128463220Y-81315057D02*
X128415601Y-81267438D01*
X128415601Y-81267438D02*
X128320363Y-81219819D01*
X128320363Y-81219819D02*
X128082268Y-81219819D01*
X128082268Y-81219819D02*
X127939411Y-81267438D01*
X126939411Y-82124580D02*
X126987030Y-82172200D01*
X126987030Y-82172200D02*
X127129887Y-82219819D01*
X127129887Y-82219819D02*
X127225125Y-82219819D01*
X127225125Y-82219819D02*
X127367982Y-82172200D01*
X127367982Y-82172200D02*
X127463220Y-82076961D01*
X127463220Y-82076961D02*
X127510839Y-81981723D01*
X127510839Y-81981723D02*
X127558458Y-81791247D01*
X127558458Y-81791247D02*
X127558458Y-81648390D01*
X127558458Y-81648390D02*
X127510839Y-81457914D01*
X127510839Y-81457914D02*
X127463220Y-81362676D01*
X127463220Y-81362676D02*
X127367982Y-81267438D01*
X127367982Y-81267438D02*
X127225125Y-81219819D01*
X127225125Y-81219819D02*
X127129887Y-81219819D01*
X127129887Y-81219819D02*
X126987030Y-81267438D01*
X126987030Y-81267438D02*
X126939411Y-81315057D01*
X126034649Y-82219819D02*
X126510839Y-82219819D01*
X126510839Y-82219819D02*
X126510839Y-81219819D01*
X125701315Y-82219819D02*
X125701315Y-81219819D01*
X125129887Y-82219819D02*
X125558458Y-81648390D01*
X125129887Y-81219819D02*
X125701315Y-81791247D01*
X166559875Y-110183334D02*
X166559875Y-110754762D01*
X167559875Y-110469048D02*
X166559875Y-110469048D01*
X167559875Y-111088096D02*
X166559875Y-111088096D01*
X167036065Y-111088096D02*
X167036065Y-111659524D01*
X167559875Y-111659524D02*
X166559875Y-111659524D01*
X166559875Y-112135715D02*
X167369398Y-112135715D01*
X167369398Y-112135715D02*
X167464636Y-112183334D01*
X167464636Y-112183334D02*
X167512256Y-112230953D01*
X167512256Y-112230953D02*
X167559875Y-112326191D01*
X167559875Y-112326191D02*
X167559875Y-112516667D01*
X167559875Y-112516667D02*
X167512256Y-112611905D01*
X167512256Y-112611905D02*
X167464636Y-112659524D01*
X167464636Y-112659524D02*
X167369398Y-112707143D01*
X167369398Y-112707143D02*
X166559875Y-112707143D01*
X167559875Y-113183334D02*
X166559875Y-113183334D01*
X166559875Y-113183334D02*
X167274160Y-113516667D01*
X167274160Y-113516667D02*
X166559875Y-113850000D01*
X166559875Y-113850000D02*
X167559875Y-113850000D01*
X167036065Y-114659524D02*
X167083684Y-114802381D01*
X167083684Y-114802381D02*
X167131303Y-114850000D01*
X167131303Y-114850000D02*
X167226541Y-114897619D01*
X167226541Y-114897619D02*
X167369398Y-114897619D01*
X167369398Y-114897619D02*
X167464636Y-114850000D01*
X167464636Y-114850000D02*
X167512256Y-114802381D01*
X167512256Y-114802381D02*
X167559875Y-114707143D01*
X167559875Y-114707143D02*
X167559875Y-114326191D01*
X167559875Y-114326191D02*
X166559875Y-114326191D01*
X166559875Y-114326191D02*
X166559875Y-114659524D01*
X166559875Y-114659524D02*
X166607494Y-114754762D01*
X166607494Y-114754762D02*
X166655113Y-114802381D01*
X166655113Y-114802381D02*
X166750351Y-114850000D01*
X166750351Y-114850000D02*
X166845589Y-114850000D01*
X166845589Y-114850000D02*
X166940827Y-114802381D01*
X166940827Y-114802381D02*
X166988446Y-114754762D01*
X166988446Y-114754762D02*
X167036065Y-114659524D01*
X167036065Y-114659524D02*
X167036065Y-114326191D01*
X167178922Y-115326191D02*
X167178922Y-116088096D01*
X167036065Y-116897619D02*
X167036065Y-116564286D01*
X167559875Y-116564286D02*
X166559875Y-116564286D01*
X166559875Y-116564286D02*
X166559875Y-117040476D01*
X167559875Y-117421429D02*
X166559875Y-117421429D01*
X167559875Y-117897619D02*
X166559875Y-117897619D01*
X166559875Y-117897619D02*
X167559875Y-118469047D01*
X167559875Y-118469047D02*
X166559875Y-118469047D01*
X166607494Y-119469047D02*
X166559875Y-119373809D01*
X166559875Y-119373809D02*
X166559875Y-119230952D01*
X166559875Y-119230952D02*
X166607494Y-119088095D01*
X166607494Y-119088095D02*
X166702732Y-118992857D01*
X166702732Y-118992857D02*
X166797970Y-118945238D01*
X166797970Y-118945238D02*
X166988446Y-118897619D01*
X166988446Y-118897619D02*
X167131303Y-118897619D01*
X167131303Y-118897619D02*
X167321779Y-118945238D01*
X167321779Y-118945238D02*
X167417017Y-118992857D01*
X167417017Y-118992857D02*
X167512256Y-119088095D01*
X167512256Y-119088095D02*
X167559875Y-119230952D01*
X167559875Y-119230952D02*
X167559875Y-119326190D01*
X167559875Y-119326190D02*
X167512256Y-119469047D01*
X167512256Y-119469047D02*
X167464636Y-119516666D01*
X167464636Y-119516666D02*
X167131303Y-119516666D01*
X167131303Y-119516666D02*
X167131303Y-119326190D01*
X167036065Y-119945238D02*
X167036065Y-120278571D01*
X167559875Y-120421428D02*
X167559875Y-119945238D01*
X167559875Y-119945238D02*
X166559875Y-119945238D01*
X166559875Y-119945238D02*
X166559875Y-120421428D01*
X167559875Y-121421428D02*
X167083684Y-121088095D01*
X167559875Y-120850000D02*
X166559875Y-120850000D01*
X166559875Y-120850000D02*
X166559875Y-121230952D01*
X166559875Y-121230952D02*
X166607494Y-121326190D01*
X166607494Y-121326190D02*
X166655113Y-121373809D01*
X166655113Y-121373809D02*
X166750351Y-121421428D01*
X166750351Y-121421428D02*
X166893208Y-121421428D01*
X166893208Y-121421428D02*
X166988446Y-121373809D01*
X166988446Y-121373809D02*
X167036065Y-121326190D01*
X167036065Y-121326190D02*
X167083684Y-121230952D01*
X167083684Y-121230952D02*
X167083684Y-120850000D01*
X169074580Y-113302380D02*
X169122200Y-113254761D01*
X169122200Y-113254761D02*
X169169819Y-113111904D01*
X169169819Y-113111904D02*
X169169819Y-113016666D01*
X169169819Y-113016666D02*
X169122200Y-112873809D01*
X169122200Y-112873809D02*
X169026961Y-112778571D01*
X169026961Y-112778571D02*
X168931723Y-112730952D01*
X168931723Y-112730952D02*
X168741247Y-112683333D01*
X168741247Y-112683333D02*
X168598390Y-112683333D01*
X168598390Y-112683333D02*
X168407914Y-112730952D01*
X168407914Y-112730952D02*
X168312676Y-112778571D01*
X168312676Y-112778571D02*
X168217438Y-112873809D01*
X168217438Y-112873809D02*
X168169819Y-113016666D01*
X168169819Y-113016666D02*
X168169819Y-113111904D01*
X168169819Y-113111904D02*
X168217438Y-113254761D01*
X168217438Y-113254761D02*
X168265057Y-113302380D01*
X168169819Y-113921428D02*
X168169819Y-114111904D01*
X168169819Y-114111904D02*
X168217438Y-114207142D01*
X168217438Y-114207142D02*
X168312676Y-114302380D01*
X168312676Y-114302380D02*
X168503152Y-114349999D01*
X168503152Y-114349999D02*
X168836485Y-114349999D01*
X168836485Y-114349999D02*
X169026961Y-114302380D01*
X169026961Y-114302380D02*
X169122200Y-114207142D01*
X169122200Y-114207142D02*
X169169819Y-114111904D01*
X169169819Y-114111904D02*
X169169819Y-113921428D01*
X169169819Y-113921428D02*
X169122200Y-113826190D01*
X169122200Y-113826190D02*
X169026961Y-113730952D01*
X169026961Y-113730952D02*
X168836485Y-113683333D01*
X168836485Y-113683333D02*
X168503152Y-113683333D01*
X168503152Y-113683333D02*
X168312676Y-113730952D01*
X168312676Y-113730952D02*
X168217438Y-113826190D01*
X168217438Y-113826190D02*
X168169819Y-113921428D01*
X169169819Y-114778571D02*
X168169819Y-114778571D01*
X168169819Y-114778571D02*
X169169819Y-115349999D01*
X169169819Y-115349999D02*
X168169819Y-115349999D01*
X168169819Y-115683333D02*
X168169819Y-116254761D01*
X169169819Y-115969047D02*
X168169819Y-115969047D01*
X169169819Y-117159523D02*
X168693628Y-116826190D01*
X169169819Y-116588095D02*
X168169819Y-116588095D01*
X168169819Y-116588095D02*
X168169819Y-116969047D01*
X168169819Y-116969047D02*
X168217438Y-117064285D01*
X168217438Y-117064285D02*
X168265057Y-117111904D01*
X168265057Y-117111904D02*
X168360295Y-117159523D01*
X168360295Y-117159523D02*
X168503152Y-117159523D01*
X168503152Y-117159523D02*
X168598390Y-117111904D01*
X168598390Y-117111904D02*
X168646009Y-117064285D01*
X168646009Y-117064285D02*
X168693628Y-116969047D01*
X168693628Y-116969047D02*
X168693628Y-116588095D01*
X168169819Y-117778571D02*
X168169819Y-117969047D01*
X168169819Y-117969047D02*
X168217438Y-118064285D01*
X168217438Y-118064285D02*
X168312676Y-118159523D01*
X168312676Y-118159523D02*
X168503152Y-118207142D01*
X168503152Y-118207142D02*
X168836485Y-118207142D01*
X168836485Y-118207142D02*
X169026961Y-118159523D01*
X169026961Y-118159523D02*
X169122200Y-118064285D01*
X169122200Y-118064285D02*
X169169819Y-117969047D01*
X169169819Y-117969047D02*
X169169819Y-117778571D01*
X169169819Y-117778571D02*
X169122200Y-117683333D01*
X169122200Y-117683333D02*
X169026961Y-117588095D01*
X169026961Y-117588095D02*
X168836485Y-117540476D01*
X168836485Y-117540476D02*
X168503152Y-117540476D01*
X168503152Y-117540476D02*
X168312676Y-117588095D01*
X168312676Y-117588095D02*
X168217438Y-117683333D01*
X168217438Y-117683333D02*
X168169819Y-117778571D01*
X169169819Y-119111904D02*
X169169819Y-118635714D01*
X169169819Y-118635714D02*
X168169819Y-118635714D01*
X127639411Y-121367438D02*
X127734649Y-121319819D01*
X127734649Y-121319819D02*
X127877506Y-121319819D01*
X127877506Y-121319819D02*
X128020363Y-121367438D01*
X128020363Y-121367438D02*
X128115601Y-121462676D01*
X128115601Y-121462676D02*
X128163220Y-121557914D01*
X128163220Y-121557914D02*
X128210839Y-121748390D01*
X128210839Y-121748390D02*
X128210839Y-121891247D01*
X128210839Y-121891247D02*
X128163220Y-122081723D01*
X128163220Y-122081723D02*
X128115601Y-122176961D01*
X128115601Y-122176961D02*
X128020363Y-122272200D01*
X128020363Y-122272200D02*
X127877506Y-122319819D01*
X127877506Y-122319819D02*
X127782268Y-122319819D01*
X127782268Y-122319819D02*
X127639411Y-122272200D01*
X127639411Y-122272200D02*
X127591792Y-122224580D01*
X127591792Y-122224580D02*
X127591792Y-121891247D01*
X127591792Y-121891247D02*
X127782268Y-121891247D01*
X127163220Y-122319819D02*
X127163220Y-121319819D01*
X127163220Y-121319819D02*
X126591792Y-122319819D01*
X126591792Y-122319819D02*
X126591792Y-121319819D01*
X126115601Y-122319819D02*
X126115601Y-121319819D01*
X126115601Y-121319819D02*
X125877506Y-121319819D01*
X125877506Y-121319819D02*
X125734649Y-121367438D01*
X125734649Y-121367438D02*
X125639411Y-121462676D01*
X125639411Y-121462676D02*
X125591792Y-121557914D01*
X125591792Y-121557914D02*
X125544173Y-121748390D01*
X125544173Y-121748390D02*
X125544173Y-121891247D01*
X125544173Y-121891247D02*
X125591792Y-122081723D01*
X125591792Y-122081723D02*
X125639411Y-122176961D01*
X125639411Y-122176961D02*
X125734649Y-122272200D01*
X125734649Y-122272200D02*
X125877506Y-122319819D01*
X125877506Y-122319819D02*
X126115601Y-122319819D01*
D10*
X166802633Y-122474912D02*
X165802633Y-122474912D01*
X165802633Y-122474912D02*
X166802633Y-123974912D01*
X166802633Y-123974912D02*
X165802633Y-123974912D01*
X165231205Y-123974912D02*
X165231205Y-122474912D01*
X165231205Y-122474912D02*
X164731205Y-123546341D01*
X164731205Y-123546341D02*
X164231205Y-122474912D01*
X164231205Y-122474912D02*
X164231205Y-123974912D01*
X163516919Y-123974912D02*
X163516919Y-122474912D01*
X162659776Y-123974912D02*
X163302633Y-123117769D01*
X162659776Y-122474912D02*
X163516919Y-123332055D01*
X162016919Y-123832055D02*
X161945490Y-123903484D01*
X161945490Y-123903484D02*
X162016919Y-123974912D01*
X162016919Y-123974912D02*
X162088347Y-123903484D01*
X162088347Y-123903484D02*
X162016919Y-123832055D01*
X162016919Y-123832055D02*
X162016919Y-123974912D01*
X161374061Y-123903484D02*
X161159776Y-123974912D01*
X161159776Y-123974912D02*
X160802633Y-123974912D01*
X160802633Y-123974912D02*
X160659776Y-123903484D01*
X160659776Y-123903484D02*
X160588347Y-123832055D01*
X160588347Y-123832055D02*
X160516918Y-123689198D01*
X160516918Y-123689198D02*
X160516918Y-123546341D01*
X160516918Y-123546341D02*
X160588347Y-123403484D01*
X160588347Y-123403484D02*
X160659776Y-123332055D01*
X160659776Y-123332055D02*
X160802633Y-123260626D01*
X160802633Y-123260626D02*
X161088347Y-123189198D01*
X161088347Y-123189198D02*
X161231204Y-123117769D01*
X161231204Y-123117769D02*
X161302633Y-123046341D01*
X161302633Y-123046341D02*
X161374061Y-122903484D01*
X161374061Y-122903484D02*
X161374061Y-122760626D01*
X161374061Y-122760626D02*
X161302633Y-122617769D01*
X161302633Y-122617769D02*
X161231204Y-122546341D01*
X161231204Y-122546341D02*
X161088347Y-122474912D01*
X161088347Y-122474912D02*
X160731204Y-122474912D01*
X160731204Y-122474912D02*
X160516918Y-122546341D01*
X160088347Y-122474912D02*
X159231205Y-122474912D01*
X159659776Y-123974912D02*
X159659776Y-122474912D01*
X158731205Y-122474912D02*
X158731205Y-123689198D01*
X158731205Y-123689198D02*
X158659776Y-123832055D01*
X158659776Y-123832055D02*
X158588348Y-123903484D01*
X158588348Y-123903484D02*
X158445490Y-123974912D01*
X158445490Y-123974912D02*
X158159776Y-123974912D01*
X158159776Y-123974912D02*
X158016919Y-123903484D01*
X158016919Y-123903484D02*
X157945490Y-123832055D01*
X157945490Y-123832055D02*
X157874062Y-123689198D01*
X157874062Y-123689198D02*
X157874062Y-122474912D01*
X157159776Y-123974912D02*
X157159776Y-122474912D01*
X157159776Y-122474912D02*
X156802633Y-122474912D01*
X156802633Y-122474912D02*
X156588347Y-122546341D01*
X156588347Y-122546341D02*
X156445490Y-122689198D01*
X156445490Y-122689198D02*
X156374061Y-122832055D01*
X156374061Y-122832055D02*
X156302633Y-123117769D01*
X156302633Y-123117769D02*
X156302633Y-123332055D01*
X156302633Y-123332055D02*
X156374061Y-123617769D01*
X156374061Y-123617769D02*
X156445490Y-123760626D01*
X156445490Y-123760626D02*
X156588347Y-123903484D01*
X156588347Y-123903484D02*
X156802633Y-123974912D01*
X156802633Y-123974912D02*
X157159776Y-123974912D01*
X155659776Y-123974912D02*
X155659776Y-122474912D01*
X154659775Y-122474912D02*
X154374061Y-122474912D01*
X154374061Y-122474912D02*
X154231204Y-122546341D01*
X154231204Y-122546341D02*
X154088347Y-122689198D01*
X154088347Y-122689198D02*
X154016918Y-122974912D01*
X154016918Y-122974912D02*
X154016918Y-123474912D01*
X154016918Y-123474912D02*
X154088347Y-123760626D01*
X154088347Y-123760626D02*
X154231204Y-123903484D01*
X154231204Y-123903484D02*
X154374061Y-123974912D01*
X154374061Y-123974912D02*
X154659775Y-123974912D01*
X154659775Y-123974912D02*
X154802633Y-123903484D01*
X154802633Y-123903484D02*
X154945490Y-123760626D01*
X154945490Y-123760626D02*
X155016918Y-123474912D01*
X155016918Y-123474912D02*
X155016918Y-122974912D01*
X155016918Y-122974912D02*
X154945490Y-122689198D01*
X154945490Y-122689198D02*
X154802633Y-122546341D01*
X154802633Y-122546341D02*
X154659775Y-122474912D01*
X166659776Y-124889828D02*
X166659776Y-126104114D01*
X166659776Y-126104114D02*
X166588347Y-126246971D01*
X166588347Y-126246971D02*
X166516919Y-126318400D01*
X166516919Y-126318400D02*
X166374061Y-126389828D01*
X166374061Y-126389828D02*
X166088347Y-126389828D01*
X166088347Y-126389828D02*
X165945490Y-126318400D01*
X165945490Y-126318400D02*
X165874061Y-126246971D01*
X165874061Y-126246971D02*
X165802633Y-126104114D01*
X165802633Y-126104114D02*
X165802633Y-124889828D01*
X165088347Y-126389828D02*
X165088347Y-124889828D01*
X165088347Y-124889828D02*
X164231204Y-126389828D01*
X164231204Y-126389828D02*
X164231204Y-124889828D01*
X162802632Y-126389828D02*
X163516918Y-126389828D01*
X163516918Y-126389828D02*
X163516918Y-124889828D01*
X162016917Y-124889828D02*
X161731203Y-124889828D01*
X161731203Y-124889828D02*
X161588346Y-124961257D01*
X161588346Y-124961257D02*
X161445489Y-125104114D01*
X161445489Y-125104114D02*
X161374060Y-125389828D01*
X161374060Y-125389828D02*
X161374060Y-125889828D01*
X161374060Y-125889828D02*
X161445489Y-126175542D01*
X161445489Y-126175542D02*
X161588346Y-126318400D01*
X161588346Y-126318400D02*
X161731203Y-126389828D01*
X161731203Y-126389828D02*
X162016917Y-126389828D01*
X162016917Y-126389828D02*
X162159775Y-126318400D01*
X162159775Y-126318400D02*
X162302632Y-126175542D01*
X162302632Y-126175542D02*
X162374060Y-125889828D01*
X162374060Y-125889828D02*
X162374060Y-125389828D01*
X162374060Y-125389828D02*
X162302632Y-125104114D01*
X162302632Y-125104114D02*
X162159775Y-124961257D01*
X162159775Y-124961257D02*
X162016917Y-124889828D01*
X159874060Y-126246971D02*
X159945488Y-126318400D01*
X159945488Y-126318400D02*
X160159774Y-126389828D01*
X160159774Y-126389828D02*
X160302631Y-126389828D01*
X160302631Y-126389828D02*
X160516917Y-126318400D01*
X160516917Y-126318400D02*
X160659774Y-126175542D01*
X160659774Y-126175542D02*
X160731203Y-126032685D01*
X160731203Y-126032685D02*
X160802631Y-125746971D01*
X160802631Y-125746971D02*
X160802631Y-125532685D01*
X160802631Y-125532685D02*
X160731203Y-125246971D01*
X160731203Y-125246971D02*
X160659774Y-125104114D01*
X160659774Y-125104114D02*
X160516917Y-124961257D01*
X160516917Y-124961257D02*
X160302631Y-124889828D01*
X160302631Y-124889828D02*
X160159774Y-124889828D01*
X160159774Y-124889828D02*
X159945488Y-124961257D01*
X159945488Y-124961257D02*
X159874060Y-125032685D01*
X159231203Y-126389828D02*
X159231203Y-124889828D01*
X158374060Y-126389828D02*
X159016917Y-125532685D01*
X158374060Y-124889828D02*
X159231203Y-125746971D01*
X156452632Y-115485912D02*
X156452632Y-116485912D01*
X157095489Y-115485912D02*
X157095489Y-116271626D01*
X157095489Y-116271626D02*
X157024060Y-116414484D01*
X157024060Y-116414484D02*
X156881203Y-116485912D01*
X156881203Y-116485912D02*
X156666917Y-116485912D01*
X156666917Y-116485912D02*
X156524060Y-116414484D01*
X156524060Y-116414484D02*
X156452632Y-116343055D01*
X154666917Y-114914484D02*
X155952631Y-116843055D01*
X153524060Y-116485912D02*
X153524060Y-115700198D01*
X153524060Y-115700198D02*
X153595488Y-115557341D01*
X153595488Y-115557341D02*
X153738345Y-115485912D01*
X153738345Y-115485912D02*
X154024060Y-115485912D01*
X154024060Y-115485912D02*
X154166917Y-115557341D01*
X153524060Y-116414484D02*
X153666917Y-116485912D01*
X153666917Y-116485912D02*
X154024060Y-116485912D01*
X154024060Y-116485912D02*
X154166917Y-116414484D01*
X154166917Y-116414484D02*
X154238345Y-116271626D01*
X154238345Y-116271626D02*
X154238345Y-116128769D01*
X154238345Y-116128769D02*
X154166917Y-115985912D01*
X154166917Y-115985912D02*
X154024060Y-115914484D01*
X154024060Y-115914484D02*
X153666917Y-115914484D01*
X153666917Y-115914484D02*
X153524060Y-115843055D01*
X152809774Y-116485912D02*
X152809774Y-114985912D01*
X152666917Y-115914484D02*
X152238345Y-116485912D01*
X152238345Y-115485912D02*
X152809774Y-116057341D01*
X150952631Y-114985912D02*
X151238345Y-114985912D01*
X151238345Y-114985912D02*
X151381202Y-115057341D01*
X151381202Y-115057341D02*
X151452631Y-115128769D01*
X151452631Y-115128769D02*
X151595488Y-115343055D01*
X151595488Y-115343055D02*
X151666916Y-115628769D01*
X151666916Y-115628769D02*
X151666916Y-116200198D01*
X151666916Y-116200198D02*
X151595488Y-116343055D01*
X151595488Y-116343055D02*
X151524059Y-116414484D01*
X151524059Y-116414484D02*
X151381202Y-116485912D01*
X151381202Y-116485912D02*
X151095488Y-116485912D01*
X151095488Y-116485912D02*
X150952631Y-116414484D01*
X150952631Y-116414484D02*
X150881202Y-116343055D01*
X150881202Y-116343055D02*
X150809773Y-116200198D01*
X150809773Y-116200198D02*
X150809773Y-115843055D01*
X150809773Y-115843055D02*
X150881202Y-115700198D01*
X150881202Y-115700198D02*
X150952631Y-115628769D01*
X150952631Y-115628769D02*
X151095488Y-115557341D01*
X151095488Y-115557341D02*
X151381202Y-115557341D01*
X151381202Y-115557341D02*
X151524059Y-115628769D01*
X151524059Y-115628769D02*
X151595488Y-115700198D01*
X151595488Y-115700198D02*
X151666916Y-115843055D01*
X149524060Y-114985912D02*
X149809774Y-114985912D01*
X149809774Y-114985912D02*
X149952631Y-115057341D01*
X149952631Y-115057341D02*
X150024060Y-115128769D01*
X150024060Y-115128769D02*
X150166917Y-115343055D01*
X150166917Y-115343055D02*
X150238345Y-115628769D01*
X150238345Y-115628769D02*
X150238345Y-116200198D01*
X150238345Y-116200198D02*
X150166917Y-116343055D01*
X150166917Y-116343055D02*
X150095488Y-116414484D01*
X150095488Y-116414484D02*
X149952631Y-116485912D01*
X149952631Y-116485912D02*
X149666917Y-116485912D01*
X149666917Y-116485912D02*
X149524060Y-116414484D01*
X149524060Y-116414484D02*
X149452631Y-116343055D01*
X149452631Y-116343055D02*
X149381202Y-116200198D01*
X149381202Y-116200198D02*
X149381202Y-115843055D01*
X149381202Y-115843055D02*
X149452631Y-115700198D01*
X149452631Y-115700198D02*
X149524060Y-115628769D01*
X149524060Y-115628769D02*
X149666917Y-115557341D01*
X149666917Y-115557341D02*
X149952631Y-115557341D01*
X149952631Y-115557341D02*
X150095488Y-115628769D01*
X150095488Y-115628769D02*
X150166917Y-115700198D01*
X150166917Y-115700198D02*
X150238345Y-115843055D01*
X148095489Y-114985912D02*
X148381203Y-114985912D01*
X148381203Y-114985912D02*
X148524060Y-115057341D01*
X148524060Y-115057341D02*
X148595489Y-115128769D01*
X148595489Y-115128769D02*
X148738346Y-115343055D01*
X148738346Y-115343055D02*
X148809774Y-115628769D01*
X148809774Y-115628769D02*
X148809774Y-116200198D01*
X148809774Y-116200198D02*
X148738346Y-116343055D01*
X148738346Y-116343055D02*
X148666917Y-116414484D01*
X148666917Y-116414484D02*
X148524060Y-116485912D01*
X148524060Y-116485912D02*
X148238346Y-116485912D01*
X148238346Y-116485912D02*
X148095489Y-116414484D01*
X148095489Y-116414484D02*
X148024060Y-116343055D01*
X148024060Y-116343055D02*
X147952631Y-116200198D01*
X147952631Y-116200198D02*
X147952631Y-115843055D01*
X147952631Y-115843055D02*
X148024060Y-115700198D01*
X148024060Y-115700198D02*
X148095489Y-115628769D01*
X148095489Y-115628769D02*
X148238346Y-115557341D01*
X148238346Y-115557341D02*
X148524060Y-115557341D01*
X148524060Y-115557341D02*
X148666917Y-115628769D01*
X148666917Y-115628769D02*
X148738346Y-115700198D01*
X148738346Y-115700198D02*
X148809774Y-115843055D01*
X146666918Y-114985912D02*
X146952632Y-114985912D01*
X146952632Y-114985912D02*
X147095489Y-115057341D01*
X147095489Y-115057341D02*
X147166918Y-115128769D01*
X147166918Y-115128769D02*
X147309775Y-115343055D01*
X147309775Y-115343055D02*
X147381203Y-115628769D01*
X147381203Y-115628769D02*
X147381203Y-116200198D01*
X147381203Y-116200198D02*
X147309775Y-116343055D01*
X147309775Y-116343055D02*
X147238346Y-116414484D01*
X147238346Y-116414484D02*
X147095489Y-116485912D01*
X147095489Y-116485912D02*
X146809775Y-116485912D01*
X146809775Y-116485912D02*
X146666918Y-116414484D01*
X146666918Y-116414484D02*
X146595489Y-116343055D01*
X146595489Y-116343055D02*
X146524060Y-116200198D01*
X146524060Y-116200198D02*
X146524060Y-115843055D01*
X146524060Y-115843055D02*
X146595489Y-115700198D01*
X146595489Y-115700198D02*
X146666918Y-115628769D01*
X146666918Y-115628769D02*
X146809775Y-115557341D01*
X146809775Y-115557341D02*
X147095489Y-115557341D01*
X147095489Y-115557341D02*
X147238346Y-115628769D01*
X147238346Y-115628769D02*
X147309775Y-115700198D01*
X147309775Y-115700198D02*
X147381203Y-115843055D01*
X145238347Y-114985912D02*
X145524061Y-114985912D01*
X145524061Y-114985912D02*
X145666918Y-115057341D01*
X145666918Y-115057341D02*
X145738347Y-115128769D01*
X145738347Y-115128769D02*
X145881204Y-115343055D01*
X145881204Y-115343055D02*
X145952632Y-115628769D01*
X145952632Y-115628769D02*
X145952632Y-116200198D01*
X145952632Y-116200198D02*
X145881204Y-116343055D01*
X145881204Y-116343055D02*
X145809775Y-116414484D01*
X145809775Y-116414484D02*
X145666918Y-116485912D01*
X145666918Y-116485912D02*
X145381204Y-116485912D01*
X145381204Y-116485912D02*
X145238347Y-116414484D01*
X145238347Y-116414484D02*
X145166918Y-116343055D01*
X145166918Y-116343055D02*
X145095489Y-116200198D01*
X145095489Y-116200198D02*
X145095489Y-115843055D01*
X145095489Y-115843055D02*
X145166918Y-115700198D01*
X145166918Y-115700198D02*
X145238347Y-115628769D01*
X145238347Y-115628769D02*
X145381204Y-115557341D01*
X145381204Y-115557341D02*
X145666918Y-115557341D01*
X145666918Y-115557341D02*
X145809775Y-115628769D01*
X145809775Y-115628769D02*
X145881204Y-115700198D01*
X145881204Y-115700198D02*
X145952632Y-115843055D01*
X157166917Y-117543685D02*
X157095489Y-117472257D01*
X157095489Y-117472257D02*
X156952632Y-117400828D01*
X156952632Y-117400828D02*
X156595489Y-117400828D01*
X156595489Y-117400828D02*
X156452632Y-117472257D01*
X156452632Y-117472257D02*
X156381203Y-117543685D01*
X156381203Y-117543685D02*
X156309774Y-117686542D01*
X156309774Y-117686542D02*
X156309774Y-117829400D01*
X156309774Y-117829400D02*
X156381203Y-118043685D01*
X156381203Y-118043685D02*
X157238346Y-118900828D01*
X157238346Y-118900828D02*
X156309774Y-118900828D01*
X155381203Y-117400828D02*
X155238346Y-117400828D01*
X155238346Y-117400828D02*
X155095489Y-117472257D01*
X155095489Y-117472257D02*
X155024061Y-117543685D01*
X155024061Y-117543685D02*
X154952632Y-117686542D01*
X154952632Y-117686542D02*
X154881203Y-117972257D01*
X154881203Y-117972257D02*
X154881203Y-118329400D01*
X154881203Y-118329400D02*
X154952632Y-118615114D01*
X154952632Y-118615114D02*
X155024061Y-118757971D01*
X155024061Y-118757971D02*
X155095489Y-118829400D01*
X155095489Y-118829400D02*
X155238346Y-118900828D01*
X155238346Y-118900828D02*
X155381203Y-118900828D01*
X155381203Y-118900828D02*
X155524061Y-118829400D01*
X155524061Y-118829400D02*
X155595489Y-118757971D01*
X155595489Y-118757971D02*
X155666918Y-118615114D01*
X155666918Y-118615114D02*
X155738346Y-118329400D01*
X155738346Y-118329400D02*
X155738346Y-117972257D01*
X155738346Y-117972257D02*
X155666918Y-117686542D01*
X155666918Y-117686542D02*
X155595489Y-117543685D01*
X155595489Y-117543685D02*
X155524061Y-117472257D01*
X155524061Y-117472257D02*
X155381203Y-117400828D01*
X154309775Y-117543685D02*
X154238347Y-117472257D01*
X154238347Y-117472257D02*
X154095490Y-117400828D01*
X154095490Y-117400828D02*
X153738347Y-117400828D01*
X153738347Y-117400828D02*
X153595490Y-117472257D01*
X153595490Y-117472257D02*
X153524061Y-117543685D01*
X153524061Y-117543685D02*
X153452632Y-117686542D01*
X153452632Y-117686542D02*
X153452632Y-117829400D01*
X153452632Y-117829400D02*
X153524061Y-118043685D01*
X153524061Y-118043685D02*
X154381204Y-118900828D01*
X154381204Y-118900828D02*
X153452632Y-118900828D01*
X152095490Y-117400828D02*
X152809776Y-117400828D01*
X152809776Y-117400828D02*
X152881204Y-118115114D01*
X152881204Y-118115114D02*
X152809776Y-118043685D01*
X152809776Y-118043685D02*
X152666919Y-117972257D01*
X152666919Y-117972257D02*
X152309776Y-117972257D01*
X152309776Y-117972257D02*
X152166919Y-118043685D01*
X152166919Y-118043685D02*
X152095490Y-118115114D01*
X152095490Y-118115114D02*
X152024061Y-118257971D01*
X152024061Y-118257971D02*
X152024061Y-118615114D01*
X152024061Y-118615114D02*
X152095490Y-118757971D01*
X152095490Y-118757971D02*
X152166919Y-118829400D01*
X152166919Y-118829400D02*
X152309776Y-118900828D01*
X152309776Y-118900828D02*
X152666919Y-118900828D01*
X152666919Y-118900828D02*
X152809776Y-118829400D01*
X152809776Y-118829400D02*
X152881204Y-118757971D01*
X151381205Y-118329400D02*
X150238348Y-118329400D01*
X149238347Y-117400828D02*
X149095490Y-117400828D01*
X149095490Y-117400828D02*
X148952633Y-117472257D01*
X148952633Y-117472257D02*
X148881205Y-117543685D01*
X148881205Y-117543685D02*
X148809776Y-117686542D01*
X148809776Y-117686542D02*
X148738347Y-117972257D01*
X148738347Y-117972257D02*
X148738347Y-118329400D01*
X148738347Y-118329400D02*
X148809776Y-118615114D01*
X148809776Y-118615114D02*
X148881205Y-118757971D01*
X148881205Y-118757971D02*
X148952633Y-118829400D01*
X148952633Y-118829400D02*
X149095490Y-118900828D01*
X149095490Y-118900828D02*
X149238347Y-118900828D01*
X149238347Y-118900828D02*
X149381205Y-118829400D01*
X149381205Y-118829400D02*
X149452633Y-118757971D01*
X149452633Y-118757971D02*
X149524062Y-118615114D01*
X149524062Y-118615114D02*
X149595490Y-118329400D01*
X149595490Y-118329400D02*
X149595490Y-117972257D01*
X149595490Y-117972257D02*
X149524062Y-117686542D01*
X149524062Y-117686542D02*
X149452633Y-117543685D01*
X149452633Y-117543685D02*
X149381205Y-117472257D01*
X149381205Y-117472257D02*
X149238347Y-117400828D01*
X148024062Y-118900828D02*
X147738348Y-118900828D01*
X147738348Y-118900828D02*
X147595491Y-118829400D01*
X147595491Y-118829400D02*
X147524062Y-118757971D01*
X147524062Y-118757971D02*
X147381205Y-118543685D01*
X147381205Y-118543685D02*
X147309776Y-118257971D01*
X147309776Y-118257971D02*
X147309776Y-117686542D01*
X147309776Y-117686542D02*
X147381205Y-117543685D01*
X147381205Y-117543685D02*
X147452634Y-117472257D01*
X147452634Y-117472257D02*
X147595491Y-117400828D01*
X147595491Y-117400828D02*
X147881205Y-117400828D01*
X147881205Y-117400828D02*
X148024062Y-117472257D01*
X148024062Y-117472257D02*
X148095491Y-117543685D01*
X148095491Y-117543685D02*
X148166919Y-117686542D01*
X148166919Y-117686542D02*
X148166919Y-118043685D01*
X148166919Y-118043685D02*
X148095491Y-118186542D01*
X148095491Y-118186542D02*
X148024062Y-118257971D01*
X148024062Y-118257971D02*
X147881205Y-118329400D01*
X147881205Y-118329400D02*
X147595491Y-118329400D01*
X147595491Y-118329400D02*
X147452634Y-118257971D01*
X147452634Y-118257971D02*
X147381205Y-118186542D01*
X147381205Y-118186542D02*
X147309776Y-118043685D01*
X146666920Y-118329400D02*
X145524063Y-118329400D01*
X144024062Y-118900828D02*
X144881205Y-118900828D01*
X144452634Y-118900828D02*
X144452634Y-117400828D01*
X144452634Y-117400828D02*
X144595491Y-117615114D01*
X144595491Y-117615114D02*
X144738348Y-117757971D01*
X144738348Y-117757971D02*
X144881205Y-117829400D01*
X143309777Y-118900828D02*
X143024063Y-118900828D01*
X143024063Y-118900828D02*
X142881206Y-118829400D01*
X142881206Y-118829400D02*
X142809777Y-118757971D01*
X142809777Y-118757971D02*
X142666920Y-118543685D01*
X142666920Y-118543685D02*
X142595491Y-118257971D01*
X142595491Y-118257971D02*
X142595491Y-117686542D01*
X142595491Y-117686542D02*
X142666920Y-117543685D01*
X142666920Y-117543685D02*
X142738349Y-117472257D01*
X142738349Y-117472257D02*
X142881206Y-117400828D01*
X142881206Y-117400828D02*
X143166920Y-117400828D01*
X143166920Y-117400828D02*
X143309777Y-117472257D01*
X143309777Y-117472257D02*
X143381206Y-117543685D01*
X143381206Y-117543685D02*
X143452634Y-117686542D01*
X143452634Y-117686542D02*
X143452634Y-118043685D01*
X143452634Y-118043685D02*
X143381206Y-118186542D01*
X143381206Y-118186542D02*
X143309777Y-118257971D01*
X143309777Y-118257971D02*
X143166920Y-118329400D01*
X143166920Y-118329400D02*
X142881206Y-118329400D01*
X142881206Y-118329400D02*
X142738349Y-118257971D01*
X142738349Y-118257971D02*
X142666920Y-118186542D01*
X142666920Y-118186542D02*
X142595491Y-118043685D01*
D11*
X128558458Y-85719819D02*
X127939411Y-85719819D01*
X127939411Y-85719819D02*
X128272744Y-86100771D01*
X128272744Y-86100771D02*
X128129887Y-86100771D01*
X128129887Y-86100771D02*
X128034649Y-86148390D01*
X128034649Y-86148390D02*
X127987030Y-86196009D01*
X127987030Y-86196009D02*
X127939411Y-86291247D01*
X127939411Y-86291247D02*
X127939411Y-86529342D01*
X127939411Y-86529342D02*
X127987030Y-86624580D01*
X127987030Y-86624580D02*
X128034649Y-86672200D01*
X128034649Y-86672200D02*
X128129887Y-86719819D01*
X128129887Y-86719819D02*
X128415601Y-86719819D01*
X128415601Y-86719819D02*
X128510839Y-86672200D01*
X128510839Y-86672200D02*
X128558458Y-86624580D01*
X127510839Y-86624580D02*
X127463220Y-86672200D01*
X127463220Y-86672200D02*
X127510839Y-86719819D01*
X127510839Y-86719819D02*
X127558458Y-86672200D01*
X127558458Y-86672200D02*
X127510839Y-86624580D01*
X127510839Y-86624580D02*
X127510839Y-86719819D01*
X127129887Y-85719819D02*
X126510840Y-85719819D01*
X126510840Y-85719819D02*
X126844173Y-86100771D01*
X126844173Y-86100771D02*
X126701316Y-86100771D01*
X126701316Y-86100771D02*
X126606078Y-86148390D01*
X126606078Y-86148390D02*
X126558459Y-86196009D01*
X126558459Y-86196009D02*
X126510840Y-86291247D01*
X126510840Y-86291247D02*
X126510840Y-86529342D01*
X126510840Y-86529342D02*
X126558459Y-86624580D01*
X126558459Y-86624580D02*
X126606078Y-86672200D01*
X126606078Y-86672200D02*
X126701316Y-86719819D01*
X126701316Y-86719819D02*
X126987030Y-86719819D01*
X126987030Y-86719819D02*
X127082268Y-86672200D01*
X127082268Y-86672200D02*
X127129887Y-86624580D01*
X126225125Y-85719819D02*
X125891792Y-86719819D01*
X125891792Y-86719819D02*
X125558459Y-85719819D01*
X128163220Y-117319819D02*
X128163220Y-116319819D01*
X128163220Y-116319819D02*
X127829887Y-117034104D01*
X127829887Y-117034104D02*
X127496554Y-116319819D01*
X127496554Y-116319819D02*
X127496554Y-117319819D01*
X126829887Y-116319819D02*
X126639411Y-116319819D01*
X126639411Y-116319819D02*
X126544173Y-116367438D01*
X126544173Y-116367438D02*
X126448935Y-116462676D01*
X126448935Y-116462676D02*
X126401316Y-116653152D01*
X126401316Y-116653152D02*
X126401316Y-116986485D01*
X126401316Y-116986485D02*
X126448935Y-117176961D01*
X126448935Y-117176961D02*
X126544173Y-117272200D01*
X126544173Y-117272200D02*
X126639411Y-117319819D01*
X126639411Y-117319819D02*
X126829887Y-117319819D01*
X126829887Y-117319819D02*
X126925125Y-117272200D01*
X126925125Y-117272200D02*
X127020363Y-117176961D01*
X127020363Y-117176961D02*
X127067982Y-116986485D01*
X127067982Y-116986485D02*
X127067982Y-116653152D01*
X127067982Y-116653152D02*
X127020363Y-116462676D01*
X127020363Y-116462676D02*
X126925125Y-116367438D01*
X126925125Y-116367438D02*
X126829887Y-116319819D01*
X126115601Y-116319819D02*
X125544173Y-116319819D01*
X125829887Y-117319819D02*
X125829887Y-116319819D01*
D10*
X161985714Y-79228801D02*
X162200000Y-79157373D01*
X162200000Y-79157373D02*
X162271429Y-79085944D01*
X162271429Y-79085944D02*
X162342857Y-78943087D01*
X162342857Y-78943087D02*
X162342857Y-78728801D01*
X162342857Y-78728801D02*
X162271429Y-78585944D01*
X162271429Y-78585944D02*
X162200000Y-78514516D01*
X162200000Y-78514516D02*
X162057143Y-78443087D01*
X162057143Y-78443087D02*
X161485714Y-78443087D01*
X161485714Y-78443087D02*
X161485714Y-79943087D01*
X161485714Y-79943087D02*
X161985714Y-79943087D01*
X161985714Y-79943087D02*
X162128572Y-79871658D01*
X162128572Y-79871658D02*
X162200000Y-79800230D01*
X162200000Y-79800230D02*
X162271429Y-79657373D01*
X162271429Y-79657373D02*
X162271429Y-79514516D01*
X162271429Y-79514516D02*
X162200000Y-79371658D01*
X162200000Y-79371658D02*
X162128572Y-79300230D01*
X162128572Y-79300230D02*
X161985714Y-79228801D01*
X161985714Y-79228801D02*
X161485714Y-79228801D01*
X162771429Y-79943087D02*
X163628572Y-79943087D01*
X163200000Y-78443087D02*
X163200000Y-79943087D01*
X158735714Y-76099600D02*
X158950000Y-76028171D01*
X158950000Y-76028171D02*
X159307142Y-76028171D01*
X159307142Y-76028171D02*
X159450000Y-76099600D01*
X159450000Y-76099600D02*
X159521428Y-76171028D01*
X159521428Y-76171028D02*
X159592857Y-76313885D01*
X159592857Y-76313885D02*
X159592857Y-76456742D01*
X159592857Y-76456742D02*
X159521428Y-76599600D01*
X159521428Y-76599600D02*
X159450000Y-76671028D01*
X159450000Y-76671028D02*
X159307142Y-76742457D01*
X159307142Y-76742457D02*
X159021428Y-76813885D01*
X159021428Y-76813885D02*
X158878571Y-76885314D01*
X158878571Y-76885314D02*
X158807142Y-76956742D01*
X158807142Y-76956742D02*
X158735714Y-77099600D01*
X158735714Y-77099600D02*
X158735714Y-77242457D01*
X158735714Y-77242457D02*
X158807142Y-77385314D01*
X158807142Y-77385314D02*
X158878571Y-77456742D01*
X158878571Y-77456742D02*
X159021428Y-77528171D01*
X159021428Y-77528171D02*
X159378571Y-77528171D01*
X159378571Y-77528171D02*
X159592857Y-77456742D01*
X160235713Y-76813885D02*
X160735713Y-76813885D01*
X160949999Y-76028171D02*
X160235713Y-76028171D01*
X160235713Y-76028171D02*
X160235713Y-77528171D01*
X160235713Y-77528171D02*
X160949999Y-77528171D01*
X162307142Y-76028171D02*
X161592856Y-76028171D01*
X161592856Y-76028171D02*
X161592856Y-77528171D01*
X162807142Y-76813885D02*
X163307142Y-76813885D01*
X163521428Y-76028171D02*
X162807142Y-76028171D01*
X162807142Y-76028171D02*
X162807142Y-77528171D01*
X162807142Y-77528171D02*
X163521428Y-77528171D01*
X165021428Y-76171028D02*
X164950000Y-76099600D01*
X164950000Y-76099600D02*
X164735714Y-76028171D01*
X164735714Y-76028171D02*
X164592857Y-76028171D01*
X164592857Y-76028171D02*
X164378571Y-76099600D01*
X164378571Y-76099600D02*
X164235714Y-76242457D01*
X164235714Y-76242457D02*
X164164285Y-76385314D01*
X164164285Y-76385314D02*
X164092857Y-76671028D01*
X164092857Y-76671028D02*
X164092857Y-76885314D01*
X164092857Y-76885314D02*
X164164285Y-77171028D01*
X164164285Y-77171028D02*
X164235714Y-77313885D01*
X164235714Y-77313885D02*
X164378571Y-77456742D01*
X164378571Y-77456742D02*
X164592857Y-77528171D01*
X164592857Y-77528171D02*
X164735714Y-77528171D01*
X164735714Y-77528171D02*
X164950000Y-77456742D01*
X164950000Y-77456742D02*
X165021428Y-77385314D01*
X165450000Y-77528171D02*
X166307143Y-77528171D01*
X165878571Y-76028171D02*
X165878571Y-77528171D01*
D11*
X128510839Y-84172200D02*
X128367982Y-84219819D01*
X128367982Y-84219819D02*
X128129887Y-84219819D01*
X128129887Y-84219819D02*
X128034649Y-84172200D01*
X128034649Y-84172200D02*
X127987030Y-84124580D01*
X127987030Y-84124580D02*
X127939411Y-84029342D01*
X127939411Y-84029342D02*
X127939411Y-83934104D01*
X127939411Y-83934104D02*
X127987030Y-83838866D01*
X127987030Y-83838866D02*
X128034649Y-83791247D01*
X128034649Y-83791247D02*
X128129887Y-83743628D01*
X128129887Y-83743628D02*
X128320363Y-83696009D01*
X128320363Y-83696009D02*
X128415601Y-83648390D01*
X128415601Y-83648390D02*
X128463220Y-83600771D01*
X128463220Y-83600771D02*
X128510839Y-83505533D01*
X128510839Y-83505533D02*
X128510839Y-83410295D01*
X128510839Y-83410295D02*
X128463220Y-83315057D01*
X128463220Y-83315057D02*
X128415601Y-83267438D01*
X128415601Y-83267438D02*
X128320363Y-83219819D01*
X128320363Y-83219819D02*
X128082268Y-83219819D01*
X128082268Y-83219819D02*
X127939411Y-83267438D01*
X127510839Y-84219819D02*
X127510839Y-83219819D01*
X127510839Y-83219819D02*
X127272744Y-83219819D01*
X127272744Y-83219819D02*
X127129887Y-83267438D01*
X127129887Y-83267438D02*
X127034649Y-83362676D01*
X127034649Y-83362676D02*
X126987030Y-83457914D01*
X126987030Y-83457914D02*
X126939411Y-83648390D01*
X126939411Y-83648390D02*
X126939411Y-83791247D01*
X126939411Y-83791247D02*
X126987030Y-83981723D01*
X126987030Y-83981723D02*
X127034649Y-84076961D01*
X127034649Y-84076961D02*
X127129887Y-84172200D01*
X127129887Y-84172200D02*
X127272744Y-84219819D01*
X127272744Y-84219819D02*
X127510839Y-84219819D01*
X126510839Y-84219819D02*
X126510839Y-83219819D01*
X125844173Y-83219819D02*
X125653697Y-83219819D01*
X125653697Y-83219819D02*
X125558459Y-83267438D01*
X125558459Y-83267438D02*
X125463221Y-83362676D01*
X125463221Y-83362676D02*
X125415602Y-83553152D01*
X125415602Y-83553152D02*
X125415602Y-83886485D01*
X125415602Y-83886485D02*
X125463221Y-84076961D01*
X125463221Y-84076961D02*
X125558459Y-84172200D01*
X125558459Y-84172200D02*
X125653697Y-84219819D01*
X125653697Y-84219819D02*
X125844173Y-84219819D01*
X125844173Y-84219819D02*
X125939411Y-84172200D01*
X125939411Y-84172200D02*
X126034649Y-84076961D01*
X126034649Y-84076961D02*
X126082268Y-83886485D01*
X126082268Y-83886485D02*
X126082268Y-83553152D01*
X126082268Y-83553152D02*
X126034649Y-83362676D01*
X126034649Y-83362676D02*
X125939411Y-83267438D01*
X125939411Y-83267438D02*
X125844173Y-83219819D01*
D10*
X140935714Y-79228801D02*
X141150000Y-79157373D01*
X141150000Y-79157373D02*
X141221429Y-79085944D01*
X141221429Y-79085944D02*
X141292857Y-78943087D01*
X141292857Y-78943087D02*
X141292857Y-78728801D01*
X141292857Y-78728801D02*
X141221429Y-78585944D01*
X141221429Y-78585944D02*
X141150000Y-78514516D01*
X141150000Y-78514516D02*
X141007143Y-78443087D01*
X141007143Y-78443087D02*
X140435714Y-78443087D01*
X140435714Y-78443087D02*
X140435714Y-79943087D01*
X140435714Y-79943087D02*
X140935714Y-79943087D01*
X140935714Y-79943087D02*
X141078572Y-79871658D01*
X141078572Y-79871658D02*
X141150000Y-79800230D01*
X141150000Y-79800230D02*
X141221429Y-79657373D01*
X141221429Y-79657373D02*
X141221429Y-79514516D01*
X141221429Y-79514516D02*
X141150000Y-79371658D01*
X141150000Y-79371658D02*
X141078572Y-79300230D01*
X141078572Y-79300230D02*
X140935714Y-79228801D01*
X140935714Y-79228801D02*
X140435714Y-79228801D01*
X141721429Y-79943087D02*
X142578572Y-79943087D01*
X142150000Y-78443087D02*
X142150000Y-79943087D01*
X139221428Y-76028171D02*
X138721428Y-76742457D01*
X138364285Y-76028171D02*
X138364285Y-77528171D01*
X138364285Y-77528171D02*
X138935714Y-77528171D01*
X138935714Y-77528171D02*
X139078571Y-77456742D01*
X139078571Y-77456742D02*
X139150000Y-77385314D01*
X139150000Y-77385314D02*
X139221428Y-77242457D01*
X139221428Y-77242457D02*
X139221428Y-77028171D01*
X139221428Y-77028171D02*
X139150000Y-76885314D01*
X139150000Y-76885314D02*
X139078571Y-76813885D01*
X139078571Y-76813885D02*
X138935714Y-76742457D01*
X138935714Y-76742457D02*
X138364285Y-76742457D01*
X139864285Y-76813885D02*
X140364285Y-76813885D01*
X140578571Y-76028171D02*
X139864285Y-76028171D01*
X139864285Y-76028171D02*
X139864285Y-77528171D01*
X139864285Y-77528171D02*
X140578571Y-77528171D01*
X141150000Y-76099600D02*
X141364286Y-76028171D01*
X141364286Y-76028171D02*
X141721428Y-76028171D01*
X141721428Y-76028171D02*
X141864286Y-76099600D01*
X141864286Y-76099600D02*
X141935714Y-76171028D01*
X141935714Y-76171028D02*
X142007143Y-76313885D01*
X142007143Y-76313885D02*
X142007143Y-76456742D01*
X142007143Y-76456742D02*
X141935714Y-76599600D01*
X141935714Y-76599600D02*
X141864286Y-76671028D01*
X141864286Y-76671028D02*
X141721428Y-76742457D01*
X141721428Y-76742457D02*
X141435714Y-76813885D01*
X141435714Y-76813885D02*
X141292857Y-76885314D01*
X141292857Y-76885314D02*
X141221428Y-76956742D01*
X141221428Y-76956742D02*
X141150000Y-77099600D01*
X141150000Y-77099600D02*
X141150000Y-77242457D01*
X141150000Y-77242457D02*
X141221428Y-77385314D01*
X141221428Y-77385314D02*
X141292857Y-77456742D01*
X141292857Y-77456742D02*
X141435714Y-77528171D01*
X141435714Y-77528171D02*
X141792857Y-77528171D01*
X141792857Y-77528171D02*
X142007143Y-77456742D01*
X142649999Y-76813885D02*
X143149999Y-76813885D01*
X143364285Y-76028171D02*
X142649999Y-76028171D01*
X142649999Y-76028171D02*
X142649999Y-77528171D01*
X142649999Y-77528171D02*
X143364285Y-77528171D01*
X143792857Y-77528171D02*
X144650000Y-77528171D01*
X144221428Y-76028171D02*
X144221428Y-77528171D01*
D11*
X168386065Y-98969047D02*
X168433684Y-99111904D01*
X168433684Y-99111904D02*
X168481303Y-99159523D01*
X168481303Y-99159523D02*
X168576541Y-99207142D01*
X168576541Y-99207142D02*
X168719398Y-99207142D01*
X168719398Y-99207142D02*
X168814636Y-99159523D01*
X168814636Y-99159523D02*
X168862256Y-99111904D01*
X168862256Y-99111904D02*
X168909875Y-99016666D01*
X168909875Y-99016666D02*
X168909875Y-98635714D01*
X168909875Y-98635714D02*
X167909875Y-98635714D01*
X167909875Y-98635714D02*
X167909875Y-98969047D01*
X167909875Y-98969047D02*
X167957494Y-99064285D01*
X167957494Y-99064285D02*
X168005113Y-99111904D01*
X168005113Y-99111904D02*
X168100351Y-99159523D01*
X168100351Y-99159523D02*
X168195589Y-99159523D01*
X168195589Y-99159523D02*
X168290827Y-99111904D01*
X168290827Y-99111904D02*
X168338446Y-99064285D01*
X168338446Y-99064285D02*
X168386065Y-98969047D01*
X168386065Y-98969047D02*
X168386065Y-98635714D01*
X168624160Y-99588095D02*
X168624160Y-100064285D01*
X168909875Y-99492857D02*
X167909875Y-99826190D01*
X167909875Y-99826190D02*
X168909875Y-100159523D01*
X167909875Y-100350000D02*
X167909875Y-100921428D01*
X168909875Y-100635714D02*
X167909875Y-100635714D01*
X167909875Y-101111905D02*
X167909875Y-101683333D01*
X168909875Y-101397619D02*
X167909875Y-101397619D01*
X168386065Y-102016667D02*
X168386065Y-102350000D01*
X168909875Y-102492857D02*
X168909875Y-102016667D01*
X168909875Y-102016667D02*
X167909875Y-102016667D01*
X167909875Y-102016667D02*
X167909875Y-102492857D01*
X168909875Y-103492857D02*
X168433684Y-103159524D01*
X168909875Y-102921429D02*
X167909875Y-102921429D01*
X167909875Y-102921429D02*
X167909875Y-103302381D01*
X167909875Y-103302381D02*
X167957494Y-103397619D01*
X167957494Y-103397619D02*
X168005113Y-103445238D01*
X168005113Y-103445238D02*
X168100351Y-103492857D01*
X168100351Y-103492857D02*
X168243208Y-103492857D01*
X168243208Y-103492857D02*
X168338446Y-103445238D01*
X168338446Y-103445238D02*
X168386065Y-103397619D01*
X168386065Y-103397619D02*
X168433684Y-103302381D01*
X168433684Y-103302381D02*
X168433684Y-102921429D01*
X168433684Y-104111905D02*
X168909875Y-104111905D01*
X167909875Y-103778572D02*
X168433684Y-104111905D01*
X168433684Y-104111905D02*
X167909875Y-104445238D01*
X169519819Y-98469047D02*
X169519819Y-98659523D01*
X169519819Y-98659523D02*
X169567438Y-98754761D01*
X169567438Y-98754761D02*
X169662676Y-98849999D01*
X169662676Y-98849999D02*
X169853152Y-98897618D01*
X169853152Y-98897618D02*
X170186485Y-98897618D01*
X170186485Y-98897618D02*
X170376961Y-98849999D01*
X170376961Y-98849999D02*
X170472200Y-98754761D01*
X170472200Y-98754761D02*
X170519819Y-98659523D01*
X170519819Y-98659523D02*
X170519819Y-98469047D01*
X170519819Y-98469047D02*
X170472200Y-98373809D01*
X170472200Y-98373809D02*
X170376961Y-98278571D01*
X170376961Y-98278571D02*
X170186485Y-98230952D01*
X170186485Y-98230952D02*
X169853152Y-98230952D01*
X169853152Y-98230952D02*
X169662676Y-98278571D01*
X169662676Y-98278571D02*
X169567438Y-98373809D01*
X169567438Y-98373809D02*
X169519819Y-98469047D01*
X169996009Y-99659523D02*
X169996009Y-99326190D01*
X170519819Y-99326190D02*
X169519819Y-99326190D01*
X169519819Y-99326190D02*
X169519819Y-99802380D01*
X169996009Y-100516666D02*
X169996009Y-100183333D01*
X170519819Y-100183333D02*
X169519819Y-100183333D01*
X169519819Y-100183333D02*
X169519819Y-100659523D01*
X170138866Y-101802381D02*
X170138866Y-102564286D01*
X169519819Y-103992857D02*
X169519819Y-104183333D01*
X169519819Y-104183333D02*
X169567438Y-104278571D01*
X169567438Y-104278571D02*
X169662676Y-104373809D01*
X169662676Y-104373809D02*
X169853152Y-104421428D01*
X169853152Y-104421428D02*
X170186485Y-104421428D01*
X170186485Y-104421428D02*
X170376961Y-104373809D01*
X170376961Y-104373809D02*
X170472200Y-104278571D01*
X170472200Y-104278571D02*
X170519819Y-104183333D01*
X170519819Y-104183333D02*
X170519819Y-103992857D01*
X170519819Y-103992857D02*
X170472200Y-103897619D01*
X170472200Y-103897619D02*
X170376961Y-103802381D01*
X170376961Y-103802381D02*
X170186485Y-103754762D01*
X170186485Y-103754762D02*
X169853152Y-103754762D01*
X169853152Y-103754762D02*
X169662676Y-103802381D01*
X169662676Y-103802381D02*
X169567438Y-103897619D01*
X169567438Y-103897619D02*
X169519819Y-103992857D01*
X170519819Y-104850000D02*
X169519819Y-104850000D01*
X169519819Y-104850000D02*
X170519819Y-105421428D01*
X170519819Y-105421428D02*
X169519819Y-105421428D01*
X128163220Y-119819819D02*
X128163220Y-118819819D01*
X128163220Y-118819819D02*
X127591792Y-119819819D01*
X127591792Y-119819819D02*
X127591792Y-118819819D01*
X126544173Y-119724580D02*
X126591792Y-119772200D01*
X126591792Y-119772200D02*
X126734649Y-119819819D01*
X126734649Y-119819819D02*
X126829887Y-119819819D01*
X126829887Y-119819819D02*
X126972744Y-119772200D01*
X126972744Y-119772200D02*
X127067982Y-119676961D01*
X127067982Y-119676961D02*
X127115601Y-119581723D01*
X127115601Y-119581723D02*
X127163220Y-119391247D01*
X127163220Y-119391247D02*
X127163220Y-119248390D01*
X127163220Y-119248390D02*
X127115601Y-119057914D01*
X127115601Y-119057914D02*
X127067982Y-118962676D01*
X127067982Y-118962676D02*
X126972744Y-118867438D01*
X126972744Y-118867438D02*
X126829887Y-118819819D01*
X126829887Y-118819819D02*
X126734649Y-118819819D01*
X126734649Y-118819819D02*
X126591792Y-118867438D01*
X126591792Y-118867438D02*
X126544173Y-118915057D01*
X126163220Y-119772200D02*
X126020363Y-119819819D01*
X126020363Y-119819819D02*
X125782268Y-119819819D01*
X125782268Y-119819819D02*
X125687030Y-119772200D01*
X125687030Y-119772200D02*
X125639411Y-119724580D01*
X125639411Y-119724580D02*
X125591792Y-119629342D01*
X125591792Y-119629342D02*
X125591792Y-119534104D01*
X125591792Y-119534104D02*
X125639411Y-119438866D01*
X125639411Y-119438866D02*
X125687030Y-119391247D01*
X125687030Y-119391247D02*
X125782268Y-119343628D01*
X125782268Y-119343628D02*
X125972744Y-119296009D01*
X125972744Y-119296009D02*
X126067982Y-119248390D01*
X126067982Y-119248390D02*
X126115601Y-119200771D01*
X126115601Y-119200771D02*
X126163220Y-119105533D01*
X126163220Y-119105533D02*
X126163220Y-119010295D01*
X126163220Y-119010295D02*
X126115601Y-118915057D01*
X126115601Y-118915057D02*
X126067982Y-118867438D01*
X126067982Y-118867438D02*
X125972744Y-118819819D01*
X125972744Y-118819819D02*
X125734649Y-118819819D01*
X125734649Y-118819819D02*
X125591792Y-118867438D01*
D10*
X144990225Y-88129003D02*
X145847368Y-88129003D01*
X145418796Y-86629003D02*
X145418796Y-88129003D01*
X146347367Y-86629003D02*
X146347367Y-88129003D01*
X146990225Y-86629003D02*
X146990225Y-87414717D01*
X146990225Y-87414717D02*
X146918796Y-87557574D01*
X146918796Y-87557574D02*
X146775939Y-87629003D01*
X146775939Y-87629003D02*
X146561653Y-87629003D01*
X146561653Y-87629003D02*
X146418796Y-87557574D01*
X146418796Y-87557574D02*
X146347367Y-87486146D01*
X148347368Y-87629003D02*
X148347368Y-86629003D01*
X147704510Y-87629003D02*
X147704510Y-86843289D01*
X147704510Y-86843289D02*
X147775939Y-86700432D01*
X147775939Y-86700432D02*
X147918796Y-86629003D01*
X147918796Y-86629003D02*
X148133082Y-86629003D01*
X148133082Y-86629003D02*
X148275939Y-86700432D01*
X148275939Y-86700432D02*
X148347368Y-86771860D01*
X149061653Y-86629003D02*
X149061653Y-87629003D01*
X149061653Y-87486146D02*
X149133082Y-87557574D01*
X149133082Y-87557574D02*
X149275939Y-87629003D01*
X149275939Y-87629003D02*
X149490225Y-87629003D01*
X149490225Y-87629003D02*
X149633082Y-87557574D01*
X149633082Y-87557574D02*
X149704511Y-87414717D01*
X149704511Y-87414717D02*
X149704511Y-86629003D01*
X149704511Y-87414717D02*
X149775939Y-87557574D01*
X149775939Y-87557574D02*
X149918796Y-87629003D01*
X149918796Y-87629003D02*
X150133082Y-87629003D01*
X150133082Y-87629003D02*
X150275939Y-87557574D01*
X150275939Y-87557574D02*
X150347368Y-87414717D01*
X150347368Y-87414717D02*
X150347368Y-86629003D01*
X151061653Y-86629003D02*
X151061653Y-88129003D01*
X151061653Y-87557574D02*
X151204511Y-87629003D01*
X151204511Y-87629003D02*
X151490225Y-87629003D01*
X151490225Y-87629003D02*
X151633082Y-87557574D01*
X151633082Y-87557574D02*
X151704511Y-87486146D01*
X151704511Y-87486146D02*
X151775939Y-87343289D01*
X151775939Y-87343289D02*
X151775939Y-86914717D01*
X151775939Y-86914717D02*
X151704511Y-86771860D01*
X151704511Y-86771860D02*
X151633082Y-86700432D01*
X151633082Y-86700432D02*
X151490225Y-86629003D01*
X151490225Y-86629003D02*
X151204511Y-86629003D01*
X151204511Y-86629003D02*
X151061653Y-86700432D01*
X152347368Y-86700432D02*
X152490225Y-86629003D01*
X152490225Y-86629003D02*
X152775939Y-86629003D01*
X152775939Y-86629003D02*
X152918796Y-86700432D01*
X152918796Y-86700432D02*
X152990225Y-86843289D01*
X152990225Y-86843289D02*
X152990225Y-86914717D01*
X152990225Y-86914717D02*
X152918796Y-87057574D01*
X152918796Y-87057574D02*
X152775939Y-87129003D01*
X152775939Y-87129003D02*
X152561654Y-87129003D01*
X152561654Y-87129003D02*
X152418796Y-87200432D01*
X152418796Y-87200432D02*
X152347368Y-87343289D01*
X152347368Y-87343289D02*
X152347368Y-87414717D01*
X152347368Y-87414717D02*
X152418796Y-87557574D01*
X152418796Y-87557574D02*
X152561654Y-87629003D01*
X152561654Y-87629003D02*
X152775939Y-87629003D01*
X152775939Y-87629003D02*
X152918796Y-87557574D01*
X153633082Y-88129003D02*
X153633082Y-86914717D01*
X153633082Y-86914717D02*
X153704511Y-86771860D01*
X153704511Y-86771860D02*
X153775940Y-86700432D01*
X153775940Y-86700432D02*
X153918797Y-86629003D01*
X153918797Y-86629003D02*
X154204511Y-86629003D01*
X154204511Y-86629003D02*
X154347368Y-86700432D01*
X154347368Y-86700432D02*
X154418797Y-86771860D01*
X154418797Y-86771860D02*
X154490225Y-86914717D01*
X154490225Y-86914717D02*
X154490225Y-88129003D01*
X155204511Y-87629003D02*
X155204511Y-86129003D01*
X155204511Y-87557574D02*
X155347369Y-87629003D01*
X155347369Y-87629003D02*
X155633083Y-87629003D01*
X155633083Y-87629003D02*
X155775940Y-87557574D01*
X155775940Y-87557574D02*
X155847369Y-87486146D01*
X155847369Y-87486146D02*
X155918797Y-87343289D01*
X155918797Y-87343289D02*
X155918797Y-86914717D01*
X155918797Y-86914717D02*
X155847369Y-86771860D01*
X155847369Y-86771860D02*
X155775940Y-86700432D01*
X155775940Y-86700432D02*
X155633083Y-86629003D01*
X155633083Y-86629003D02*
X155347369Y-86629003D01*
X155347369Y-86629003D02*
X155204511Y-86700432D01*
X156561654Y-86771860D02*
X156633083Y-86700432D01*
X156633083Y-86700432D02*
X156561654Y-86629003D01*
X156561654Y-86629003D02*
X156490226Y-86700432D01*
X156490226Y-86700432D02*
X156561654Y-86771860D01*
X156561654Y-86771860D02*
X156561654Y-86629003D01*
X156561654Y-87200432D02*
X156490226Y-88057574D01*
X156490226Y-88057574D02*
X156561654Y-88129003D01*
X156561654Y-88129003D02*
X156633083Y-88057574D01*
X156633083Y-88057574D02*
X156561654Y-87200432D01*
X156561654Y-87200432D02*
X156561654Y-88129003D01*
X144990225Y-85714087D02*
X145847368Y-85714087D01*
X145418796Y-84214087D02*
X145418796Y-85714087D01*
X146347367Y-84214087D02*
X146347367Y-85214087D01*
X146347367Y-84928373D02*
X146418796Y-85071230D01*
X146418796Y-85071230D02*
X146490225Y-85142658D01*
X146490225Y-85142658D02*
X146633082Y-85214087D01*
X146633082Y-85214087D02*
X146775939Y-85214087D01*
X147918796Y-84214087D02*
X147918796Y-84999801D01*
X147918796Y-84999801D02*
X147847367Y-85142658D01*
X147847367Y-85142658D02*
X147704510Y-85214087D01*
X147704510Y-85214087D02*
X147418796Y-85214087D01*
X147418796Y-85214087D02*
X147275938Y-85142658D01*
X147918796Y-84285516D02*
X147775938Y-84214087D01*
X147775938Y-84214087D02*
X147418796Y-84214087D01*
X147418796Y-84214087D02*
X147275938Y-84285516D01*
X147275938Y-84285516D02*
X147204510Y-84428373D01*
X147204510Y-84428373D02*
X147204510Y-84571230D01*
X147204510Y-84571230D02*
X147275938Y-84714087D01*
X147275938Y-84714087D02*
X147418796Y-84785516D01*
X147418796Y-84785516D02*
X147775938Y-84785516D01*
X147775938Y-84785516D02*
X147918796Y-84856944D01*
X149275939Y-84285516D02*
X149133081Y-84214087D01*
X149133081Y-84214087D02*
X148847367Y-84214087D01*
X148847367Y-84214087D02*
X148704510Y-84285516D01*
X148704510Y-84285516D02*
X148633081Y-84356944D01*
X148633081Y-84356944D02*
X148561653Y-84499801D01*
X148561653Y-84499801D02*
X148561653Y-84928373D01*
X148561653Y-84928373D02*
X148633081Y-85071230D01*
X148633081Y-85071230D02*
X148704510Y-85142658D01*
X148704510Y-85142658D02*
X148847367Y-85214087D01*
X148847367Y-85214087D02*
X149133081Y-85214087D01*
X149133081Y-85214087D02*
X149275939Y-85142658D01*
X149918795Y-84214087D02*
X149918795Y-85714087D01*
X150061653Y-84785516D02*
X150490224Y-84214087D01*
X150490224Y-85214087D02*
X149918795Y-84642658D01*
X151133081Y-84214087D02*
X151133081Y-85714087D01*
X151133081Y-85142658D02*
X151275939Y-85214087D01*
X151275939Y-85214087D02*
X151561653Y-85214087D01*
X151561653Y-85214087D02*
X151704510Y-85142658D01*
X151704510Y-85142658D02*
X151775939Y-85071230D01*
X151775939Y-85071230D02*
X151847367Y-84928373D01*
X151847367Y-84928373D02*
X151847367Y-84499801D01*
X151847367Y-84499801D02*
X151775939Y-84356944D01*
X151775939Y-84356944D02*
X151704510Y-84285516D01*
X151704510Y-84285516D02*
X151561653Y-84214087D01*
X151561653Y-84214087D02*
X151275939Y-84214087D01*
X151275939Y-84214087D02*
X151133081Y-84285516D01*
X153133082Y-84214087D02*
X153133082Y-84999801D01*
X153133082Y-84999801D02*
X153061653Y-85142658D01*
X153061653Y-85142658D02*
X152918796Y-85214087D01*
X152918796Y-85214087D02*
X152633082Y-85214087D01*
X152633082Y-85214087D02*
X152490224Y-85142658D01*
X153133082Y-84285516D02*
X152990224Y-84214087D01*
X152990224Y-84214087D02*
X152633082Y-84214087D01*
X152633082Y-84214087D02*
X152490224Y-84285516D01*
X152490224Y-84285516D02*
X152418796Y-84428373D01*
X152418796Y-84428373D02*
X152418796Y-84571230D01*
X152418796Y-84571230D02*
X152490224Y-84714087D01*
X152490224Y-84714087D02*
X152633082Y-84785516D01*
X152633082Y-84785516D02*
X152990224Y-84785516D01*
X152990224Y-84785516D02*
X153133082Y-84856944D01*
X154061653Y-84214087D02*
X153918796Y-84285516D01*
X153918796Y-84285516D02*
X153847367Y-84428373D01*
X153847367Y-84428373D02*
X153847367Y-85714087D01*
X154847367Y-84214087D02*
X154704510Y-84285516D01*
X154704510Y-84285516D02*
X154633081Y-84428373D01*
X154633081Y-84428373D02*
X154633081Y-85714087D01*
X156418795Y-85214087D02*
X156775938Y-84214087D01*
X156775938Y-84214087D02*
X157133081Y-85214087D01*
X157561652Y-85714087D02*
X158490224Y-85714087D01*
X158490224Y-85714087D02*
X157990224Y-85142658D01*
X157990224Y-85142658D02*
X158204509Y-85142658D01*
X158204509Y-85142658D02*
X158347367Y-85071230D01*
X158347367Y-85071230D02*
X158418795Y-84999801D01*
X158418795Y-84999801D02*
X158490224Y-84856944D01*
X158490224Y-84856944D02*
X158490224Y-84499801D01*
X158490224Y-84499801D02*
X158418795Y-84356944D01*
X158418795Y-84356944D02*
X158347367Y-84285516D01*
X158347367Y-84285516D02*
X158204509Y-84214087D01*
X158204509Y-84214087D02*
X157775938Y-84214087D01*
X157775938Y-84214087D02*
X157633081Y-84285516D01*
X157633081Y-84285516D02*
X157561652Y-84356944D01*
X145204510Y-81799171D02*
X145204510Y-82799171D01*
X145204510Y-82513457D02*
X145275939Y-82656314D01*
X145275939Y-82656314D02*
X145347368Y-82727742D01*
X145347368Y-82727742D02*
X145490225Y-82799171D01*
X145490225Y-82799171D02*
X145633082Y-82799171D01*
X146704510Y-81870600D02*
X146561653Y-81799171D01*
X146561653Y-81799171D02*
X146275939Y-81799171D01*
X146275939Y-81799171D02*
X146133081Y-81870600D01*
X146133081Y-81870600D02*
X146061653Y-82013457D01*
X146061653Y-82013457D02*
X146061653Y-82584885D01*
X146061653Y-82584885D02*
X146133081Y-82727742D01*
X146133081Y-82727742D02*
X146275939Y-82799171D01*
X146275939Y-82799171D02*
X146561653Y-82799171D01*
X146561653Y-82799171D02*
X146704510Y-82727742D01*
X146704510Y-82727742D02*
X146775939Y-82584885D01*
X146775939Y-82584885D02*
X146775939Y-82442028D01*
X146775939Y-82442028D02*
X146061653Y-82299171D01*
X147275938Y-82799171D02*
X147633081Y-81799171D01*
X147633081Y-81799171D02*
X147990224Y-82799171D01*
X148561652Y-81942028D02*
X148633081Y-81870600D01*
X148633081Y-81870600D02*
X148561652Y-81799171D01*
X148561652Y-81799171D02*
X148490224Y-81870600D01*
X148490224Y-81870600D02*
X148561652Y-81942028D01*
X148561652Y-81942028D02*
X148561652Y-81799171D01*
X150061653Y-81799171D02*
X149204510Y-81799171D01*
X149633081Y-81799171D02*
X149633081Y-83299171D01*
X149633081Y-83299171D02*
X149490224Y-83084885D01*
X149490224Y-83084885D02*
X149347367Y-82942028D01*
X149347367Y-82942028D02*
X149204510Y-82870600D01*
D11*
X118935713Y-132804819D02*
X118935713Y-131804819D01*
X118935713Y-131804819D02*
X118602380Y-132519104D01*
X118602380Y-132519104D02*
X118269047Y-131804819D01*
X118269047Y-131804819D02*
X118269047Y-132804819D01*
X117888094Y-131804819D02*
X117221428Y-132804819D01*
X117221428Y-131804819D02*
X117888094Y-132804819D01*
X116411904Y-132138152D02*
X116411904Y-132804819D01*
X116649999Y-131757200D02*
X116888094Y-132471485D01*
X116888094Y-132471485D02*
X116269047Y-132471485D01*
X118435713Y-61054819D02*
X118435713Y-60054819D01*
X118435713Y-60054819D02*
X118102380Y-60769104D01*
X118102380Y-60769104D02*
X117769047Y-60054819D01*
X117769047Y-60054819D02*
X117769047Y-61054819D01*
X117388094Y-60054819D02*
X116721428Y-61054819D01*
X116721428Y-60054819D02*
X117388094Y-61054819D01*
X115816666Y-61054819D02*
X116388094Y-61054819D01*
X116102380Y-61054819D02*
X116102380Y-60054819D01*
X116102380Y-60054819D02*
X116197618Y-60197676D01*
X116197618Y-60197676D02*
X116292856Y-60292914D01*
X116292856Y-60292914D02*
X116388094Y-60340533D01*
X153854819Y-125766666D02*
X154569104Y-125766666D01*
X154569104Y-125766666D02*
X154711961Y-125719047D01*
X154711961Y-125719047D02*
X154807200Y-125623809D01*
X154807200Y-125623809D02*
X154854819Y-125480952D01*
X154854819Y-125480952D02*
X154854819Y-125385714D01*
X153854819Y-126719047D02*
X153854819Y-126242857D01*
X153854819Y-126242857D02*
X154331009Y-126195238D01*
X154331009Y-126195238D02*
X154283390Y-126242857D01*
X154283390Y-126242857D02*
X154235771Y-126338095D01*
X154235771Y-126338095D02*
X154235771Y-126576190D01*
X154235771Y-126576190D02*
X154283390Y-126671428D01*
X154283390Y-126671428D02*
X154331009Y-126719047D01*
X154331009Y-126719047D02*
X154426247Y-126766666D01*
X154426247Y-126766666D02*
X154664342Y-126766666D01*
X154664342Y-126766666D02*
X154759580Y-126719047D01*
X154759580Y-126719047D02*
X154807200Y-126671428D01*
X154807200Y-126671428D02*
X154854819Y-126576190D01*
X154854819Y-126576190D02*
X154854819Y-126338095D01*
X154854819Y-126338095D02*
X154807200Y-126242857D01*
X154807200Y-126242857D02*
X154759580Y-126195238D01*
X154104819Y-77016666D02*
X154819104Y-77016666D01*
X154819104Y-77016666D02*
X154961961Y-76969047D01*
X154961961Y-76969047D02*
X155057200Y-76873809D01*
X155057200Y-76873809D02*
X155104819Y-76730952D01*
X155104819Y-76730952D02*
X155104819Y-76635714D01*
X154438152Y-77921428D02*
X155104819Y-77921428D01*
X154057200Y-77683333D02*
X154771485Y-77445238D01*
X154771485Y-77445238D02*
X154771485Y-78064285D01*
X111444498Y-126750954D02*
X110939422Y-127256030D01*
X110939422Y-127256030D02*
X110872078Y-127390717D01*
X110872078Y-127390717D02*
X110872078Y-127525404D01*
X110872078Y-127525404D02*
X110939422Y-127660091D01*
X110939422Y-127660091D02*
X111006765Y-127727435D01*
X111175124Y-126481580D02*
X110737391Y-126043847D01*
X110737391Y-126043847D02*
X110703719Y-126548923D01*
X110703719Y-126548923D02*
X110602704Y-126447908D01*
X110602704Y-126447908D02*
X110501689Y-126414236D01*
X110501689Y-126414236D02*
X110434345Y-126414236D01*
X110434345Y-126414236D02*
X110333330Y-126447908D01*
X110333330Y-126447908D02*
X110164971Y-126616267D01*
X110164971Y-126616267D02*
X110131300Y-126717282D01*
X110131300Y-126717282D02*
X110131300Y-126784625D01*
X110131300Y-126784625D02*
X110164971Y-126885641D01*
X110164971Y-126885641D02*
X110367002Y-127087671D01*
X110367002Y-127087671D02*
X110468017Y-127121343D01*
X110468017Y-127121343D02*
X110535361Y-127121343D01*
D12*
X160413842Y-99906666D02*
X160474318Y-100088095D01*
X160474318Y-100088095D02*
X160474318Y-100390476D01*
X160474318Y-100390476D02*
X160413842Y-100511428D01*
X160413842Y-100511428D02*
X160353365Y-100571904D01*
X160353365Y-100571904D02*
X160232413Y-100632381D01*
X160232413Y-100632381D02*
X160111461Y-100632381D01*
X160111461Y-100632381D02*
X159990508Y-100571904D01*
X159990508Y-100571904D02*
X159930032Y-100511428D01*
X159930032Y-100511428D02*
X159869556Y-100390476D01*
X159869556Y-100390476D02*
X159809080Y-100148571D01*
X159809080Y-100148571D02*
X159748603Y-100027619D01*
X159748603Y-100027619D02*
X159688127Y-99967142D01*
X159688127Y-99967142D02*
X159567175Y-99906666D01*
X159567175Y-99906666D02*
X159446222Y-99906666D01*
X159446222Y-99906666D02*
X159325270Y-99967142D01*
X159325270Y-99967142D02*
X159264794Y-100027619D01*
X159264794Y-100027619D02*
X159204318Y-100148571D01*
X159204318Y-100148571D02*
X159204318Y-100450952D01*
X159204318Y-100450952D02*
X159264794Y-100632381D01*
X159204318Y-101055714D02*
X160474318Y-101358095D01*
X160474318Y-101358095D02*
X159567175Y-101600000D01*
X159567175Y-101600000D02*
X160474318Y-101841905D01*
X160474318Y-101841905D02*
X159204318Y-102144286D01*
X160474318Y-103293334D02*
X160474318Y-102567619D01*
X160474318Y-102930476D02*
X159204318Y-102930476D01*
X159204318Y-102930476D02*
X159385746Y-102809524D01*
X159385746Y-102809524D02*
X159506699Y-102688572D01*
X159506699Y-102688572D02*
X159567175Y-102567619D01*
D11*
X110774300Y-75942895D02*
X111279376Y-76447971D01*
X111279376Y-76447971D02*
X111414063Y-76515315D01*
X111414063Y-76515315D02*
X111548750Y-76515315D01*
X111548750Y-76515315D02*
X111683437Y-76447971D01*
X111683437Y-76447971D02*
X111750781Y-76380628D01*
X110538597Y-76313284D02*
X110471254Y-76313284D01*
X110471254Y-76313284D02*
X110370239Y-76346956D01*
X110370239Y-76346956D02*
X110201880Y-76515315D01*
X110201880Y-76515315D02*
X110168208Y-76616330D01*
X110168208Y-76616330D02*
X110168208Y-76683674D01*
X110168208Y-76683674D02*
X110201880Y-76784689D01*
X110201880Y-76784689D02*
X110269223Y-76852032D01*
X110269223Y-76852032D02*
X110403910Y-76919376D01*
X110403910Y-76919376D02*
X111212032Y-76919376D01*
X111212032Y-76919376D02*
X110774300Y-77357109D01*
D12*
X161913842Y-84656666D02*
X161974318Y-84838095D01*
X161974318Y-84838095D02*
X161974318Y-85140476D01*
X161974318Y-85140476D02*
X161913842Y-85261428D01*
X161913842Y-85261428D02*
X161853365Y-85321904D01*
X161853365Y-85321904D02*
X161732413Y-85382381D01*
X161732413Y-85382381D02*
X161611461Y-85382381D01*
X161611461Y-85382381D02*
X161490508Y-85321904D01*
X161490508Y-85321904D02*
X161430032Y-85261428D01*
X161430032Y-85261428D02*
X161369556Y-85140476D01*
X161369556Y-85140476D02*
X161309080Y-84898571D01*
X161309080Y-84898571D02*
X161248603Y-84777619D01*
X161248603Y-84777619D02*
X161188127Y-84717142D01*
X161188127Y-84717142D02*
X161067175Y-84656666D01*
X161067175Y-84656666D02*
X160946222Y-84656666D01*
X160946222Y-84656666D02*
X160825270Y-84717142D01*
X160825270Y-84717142D02*
X160764794Y-84777619D01*
X160764794Y-84777619D02*
X160704318Y-84898571D01*
X160704318Y-84898571D02*
X160704318Y-85200952D01*
X160704318Y-85200952D02*
X160764794Y-85382381D01*
X160704318Y-85805714D02*
X161974318Y-86108095D01*
X161974318Y-86108095D02*
X161067175Y-86350000D01*
X161067175Y-86350000D02*
X161974318Y-86591905D01*
X161974318Y-86591905D02*
X160704318Y-86894286D01*
X160704318Y-87257143D02*
X160704318Y-88043334D01*
X160704318Y-88043334D02*
X161188127Y-87620000D01*
X161188127Y-87620000D02*
X161188127Y-87801429D01*
X161188127Y-87801429D02*
X161248603Y-87922381D01*
X161248603Y-87922381D02*
X161309080Y-87982857D01*
X161309080Y-87982857D02*
X161430032Y-88043334D01*
X161430032Y-88043334D02*
X161732413Y-88043334D01*
X161732413Y-88043334D02*
X161853365Y-87982857D01*
X161853365Y-87982857D02*
X161913842Y-87922381D01*
X161913842Y-87922381D02*
X161974318Y-87801429D01*
X161974318Y-87801429D02*
X161974318Y-87438572D01*
X161974318Y-87438572D02*
X161913842Y-87317619D01*
X161913842Y-87317619D02*
X161853365Y-87257143D01*
D11*
X132983333Y-98814870D02*
X132983333Y-99529155D01*
X132983333Y-99529155D02*
X133030952Y-99672012D01*
X133030952Y-99672012D02*
X133126190Y-99767251D01*
X133126190Y-99767251D02*
X133269047Y-99814870D01*
X133269047Y-99814870D02*
X133364285Y-99814870D01*
X131983333Y-99814870D02*
X132554761Y-99814870D01*
X132269047Y-99814870D02*
X132269047Y-98814870D01*
X132269047Y-98814870D02*
X132364285Y-98957727D01*
X132364285Y-98957727D02*
X132459523Y-99052965D01*
X132459523Y-99052965D02*
X132554761Y-99100584D01*
D12*
X161913842Y-115656666D02*
X161974318Y-115838095D01*
X161974318Y-115838095D02*
X161974318Y-116140476D01*
X161974318Y-116140476D02*
X161913842Y-116261428D01*
X161913842Y-116261428D02*
X161853365Y-116321904D01*
X161853365Y-116321904D02*
X161732413Y-116382381D01*
X161732413Y-116382381D02*
X161611461Y-116382381D01*
X161611461Y-116382381D02*
X161490508Y-116321904D01*
X161490508Y-116321904D02*
X161430032Y-116261428D01*
X161430032Y-116261428D02*
X161369556Y-116140476D01*
X161369556Y-116140476D02*
X161309080Y-115898571D01*
X161309080Y-115898571D02*
X161248603Y-115777619D01*
X161248603Y-115777619D02*
X161188127Y-115717142D01*
X161188127Y-115717142D02*
X161067175Y-115656666D01*
X161067175Y-115656666D02*
X160946222Y-115656666D01*
X160946222Y-115656666D02*
X160825270Y-115717142D01*
X160825270Y-115717142D02*
X160764794Y-115777619D01*
X160764794Y-115777619D02*
X160704318Y-115898571D01*
X160704318Y-115898571D02*
X160704318Y-116200952D01*
X160704318Y-116200952D02*
X160764794Y-116382381D01*
X160704318Y-116805714D02*
X161974318Y-117108095D01*
X161974318Y-117108095D02*
X161067175Y-117350000D01*
X161067175Y-117350000D02*
X161974318Y-117591905D01*
X161974318Y-117591905D02*
X160704318Y-117894286D01*
X160825270Y-118317619D02*
X160764794Y-118378095D01*
X160764794Y-118378095D02*
X160704318Y-118499048D01*
X160704318Y-118499048D02*
X160704318Y-118801429D01*
X160704318Y-118801429D02*
X160764794Y-118922381D01*
X160764794Y-118922381D02*
X160825270Y-118982857D01*
X160825270Y-118982857D02*
X160946222Y-119043334D01*
X160946222Y-119043334D02*
X161067175Y-119043334D01*
X161067175Y-119043334D02*
X161248603Y-118982857D01*
X161248603Y-118982857D02*
X161974318Y-118257143D01*
X161974318Y-118257143D02*
X161974318Y-119043334D01*
D11*
X112747000Y-129682000D02*
X113247000Y-129182000D01*
X112747000Y-133182000D02*
X113247000Y-133682000D01*
X113247000Y-129182000D02*
X116247000Y-129182000D01*
X113247000Y-133682000D02*
X115747000Y-133682000D01*
X116247000Y-129182000D02*
X116747000Y-129682000D01*
X116747000Y-130682000D02*
X116747000Y-129682000D01*
X117247000Y-135182000D02*
X117247000Y-135882000D01*
X117247000Y-135882000D02*
X121747000Y-135882000D01*
X121747000Y-131182000D02*
X117247000Y-131182000D01*
X121747000Y-131782000D02*
X121747000Y-131182000D01*
X121747000Y-135882000D02*
X121747000Y-135382000D01*
X115747000Y-133682000D02*
G75*
G02*
X117247000Y-135182000I-1J-1500001D01*
G01*
X117247000Y-131182000D02*
G75*
G02*
X116747000Y-130682000I1J500001D01*
G01*
X134450000Y-92690000D02*
X164930000Y-92690000D01*
X134450000Y-110470000D02*
X134450000Y-92690000D01*
X164930000Y-110470000D02*
X134450000Y-110470000D01*
X112800000Y-58150000D02*
X113300000Y-57650000D01*
X112800000Y-61650000D02*
X113300000Y-62150000D01*
X113300000Y-57650000D02*
X116300000Y-57650000D01*
X113300000Y-62150000D02*
X115800000Y-62150000D01*
X116300000Y-57650000D02*
X116800000Y-58150000D01*
X116800000Y-59150000D02*
X116800000Y-58150000D01*
X117300000Y-63650000D02*
X117300000Y-64350000D01*
X117300000Y-64350000D02*
X121800000Y-64350000D01*
X121800000Y-59650000D02*
X117300000Y-59650000D01*
X121800000Y-60250000D02*
X121800000Y-59650000D01*
X121800000Y-64350000D02*
X121800000Y-63850000D01*
X115800000Y-62150000D02*
G75*
G02*
X117300000Y-63650000I-1J-1500001D01*
G01*
X117300000Y-59650000D02*
G75*
G02*
X116800000Y-59150000I1J500001D01*
G01*
D13*
X146768000Y-127364000D02*
X146768000Y-124604000D01*
X154498000Y-124604000D02*
X146768000Y-124604000D01*
X154498000Y-127364000D02*
X146768000Y-127364000D01*
X154498000Y-127364000D02*
X154498000Y-124604000D01*
X155768000Y-127364000D02*
X157148000Y-127364000D01*
X157148000Y-127364000D02*
X157148000Y-125984000D01*
X146768000Y-78596000D02*
X146768000Y-75836000D01*
X154498000Y-75836000D02*
X146768000Y-75836000D01*
X154498000Y-78596000D02*
X146768000Y-78596000D01*
X154498000Y-78596000D02*
X154498000Y-75836000D01*
X155768000Y-78596000D02*
X157148000Y-78596000D01*
X157148000Y-78596000D02*
X157148000Y-77216000D01*
X107822334Y-127786051D02*
X108798142Y-128761858D01*
X108798142Y-126810244D02*
X107822334Y-127786051D01*
X109696167Y-125912218D02*
X111647782Y-127863833D01*
X109696167Y-125912218D02*
X115162103Y-120446283D01*
X111647782Y-127863833D02*
X117113717Y-122397897D01*
X115162103Y-120446283D02*
X117113717Y-122397897D01*
D14*
X157750000Y-97300000D02*
X158900000Y-97300000D01*
X157750000Y-105900000D02*
X157750000Y-97300000D01*
X158900000Y-105900000D02*
X157750000Y-105900000D01*
X160900000Y-105900000D02*
X162050000Y-105900000D01*
X162050000Y-97300000D02*
X160900000Y-97300000D01*
X162050000Y-105900000D02*
X162050000Y-97300000D01*
D13*
X109702218Y-77293833D02*
X115168154Y-82759768D01*
X109780000Y-73468385D02*
X108804193Y-74444193D01*
X110755807Y-74444193D02*
X109780000Y-73468385D01*
X111653833Y-75342218D02*
X109702218Y-77293833D01*
X111653833Y-75342218D02*
X117119768Y-80808154D01*
X117119768Y-80808154D02*
X115168154Y-82759768D01*
D14*
X159250000Y-82050000D02*
X160400000Y-82050000D01*
X159250000Y-90650000D02*
X159250000Y-82050000D01*
X160400000Y-90650000D02*
X159250000Y-90650000D01*
X162400000Y-90650000D02*
X163550000Y-90650000D01*
X163550000Y-82050000D02*
X162400000Y-82050000D01*
X163550000Y-90650000D02*
X163550000Y-82050000D01*
D13*
X131270000Y-96430000D02*
X134030000Y-96430000D01*
X131270000Y-99080000D02*
X131270000Y-96430000D01*
X131270000Y-99080000D02*
X134030000Y-99079999D01*
X131270000Y-101730000D02*
X132650000Y-101729999D01*
X131270001Y-100350000D02*
X131270000Y-101730000D01*
X134030000Y-99079999D02*
X134030000Y-96430000D01*
D14*
X159250000Y-113050000D02*
X160400000Y-113050000D01*
X159250000Y-121650000D02*
X159250000Y-113050000D01*
X160400000Y-121650000D02*
X159250000Y-121650000D01*
X162400000Y-121650000D02*
X163550000Y-121650000D01*
X163550000Y-113050000D02*
X162400000Y-113050000D01*
X163550000Y-121650000D02*
X163550000Y-113050000D01*
M02*
