G04 #@! TF.GenerationSoftware,KiCad,Pcbnew,9.0.2*
G04 #@! TF.CreationDate,2025-09-19T14:38:59-04:00*
G04 #@! TF.ProjectId,Trackball,54726163-6b62-4616-9c6c-2e6b69636164,rev?*
G04 #@! TF.SameCoordinates,Original*
G04 #@! TF.FileFunction,Soldermask,Top*
G04 #@! TF.FilePolarity,Negative*
%FSLAX46Y46*%
G04 Gerber Fmt 4.6, Leading zero omitted, Abs format (unit mm)*
G04 Created by KiCad (PCBNEW 9.0.2) date 2025-09-19 14:38:59*
%MOMM*%
%LPD*%
G01*
G04 APERTURE LIST*
G04 APERTURE END LIST*
G36*
X115091432Y-135650424D02*
G01*
X115314501Y-135710195D01*
X115527861Y-135798571D01*
X115727859Y-135914040D01*
X115911075Y-136054627D01*
X116074373Y-136217925D01*
X116214960Y-136401141D01*
X116330429Y-136601139D01*
X116418805Y-136814499D01*
X116478576Y-137037568D01*
X116508720Y-137266531D01*
X116508720Y-137497469D01*
X116478576Y-137726432D01*
X116418805Y-137949501D01*
X116330429Y-138162861D01*
X116214960Y-138362859D01*
X116074373Y-138546075D01*
X115911075Y-138709373D01*
X115727859Y-138849960D01*
X115527861Y-138965429D01*
X115314501Y-139053805D01*
X115091432Y-139113576D01*
X114862469Y-139143720D01*
X114631531Y-139143720D01*
X114402568Y-139113576D01*
X114179499Y-139053805D01*
X113966139Y-138965429D01*
X113766141Y-138849960D01*
X113582925Y-138709373D01*
X113419627Y-138546075D01*
X113279040Y-138362859D01*
X113163571Y-138162861D01*
X113075195Y-137949501D01*
X113015424Y-137726432D01*
X112985280Y-137497469D01*
X112985280Y-137266531D01*
X113015424Y-137037568D01*
X113075195Y-136814499D01*
X113163571Y-136601139D01*
X113279040Y-136401141D01*
X113419627Y-136217925D01*
X113582925Y-136054627D01*
X113766141Y-135914040D01*
X113966139Y-135798571D01*
X114179499Y-135710195D01*
X114402568Y-135650424D01*
X114631531Y-135620280D01*
X114862469Y-135620280D01*
X115091432Y-135650424D01*
G37*
G36*
X109508808Y-136518936D02*
G01*
X109672153Y-136586595D01*
X109819159Y-136684822D01*
X109944178Y-136809841D01*
X110042405Y-136956847D01*
X110110064Y-137120192D01*
X110144557Y-137293598D01*
X110144557Y-137470402D01*
X110110064Y-137643808D01*
X110042405Y-137807153D01*
X109944178Y-137954159D01*
X109819159Y-138079178D01*
X109672153Y-138177405D01*
X109508808Y-138245064D01*
X109335402Y-138279557D01*
X109158598Y-138279557D01*
X108985192Y-138245064D01*
X108821847Y-138177405D01*
X108674841Y-138079178D01*
X108549822Y-137954159D01*
X108451595Y-137807153D01*
X108383936Y-137643808D01*
X108349443Y-137470402D01*
X108349443Y-137293598D01*
X108383936Y-137120192D01*
X108451595Y-136956847D01*
X108549822Y-136809841D01*
X108674841Y-136684822D01*
X108821847Y-136586595D01*
X108985192Y-136518936D01*
X109158598Y-136484443D01*
X109335402Y-136484443D01*
X109508808Y-136518936D01*
G37*
G36*
X120508808Y-136518936D02*
G01*
X120672153Y-136586595D01*
X120819159Y-136684822D01*
X120944178Y-136809841D01*
X121042405Y-136956847D01*
X121110064Y-137120192D01*
X121144557Y-137293598D01*
X121144557Y-137470402D01*
X121110064Y-137643808D01*
X121042405Y-137807153D01*
X120944178Y-137954159D01*
X120819159Y-138079178D01*
X120672153Y-138177405D01*
X120508808Y-138245064D01*
X120335402Y-138279557D01*
X120158598Y-138279557D01*
X119985192Y-138245064D01*
X119821847Y-138177405D01*
X119674841Y-138079178D01*
X119549822Y-137954159D01*
X119451595Y-137807153D01*
X119383936Y-137643808D01*
X119349443Y-137470402D01*
X119349443Y-137293598D01*
X119383936Y-137120192D01*
X119451595Y-136956847D01*
X119549822Y-136809841D01*
X119674841Y-136684822D01*
X119821847Y-136586595D01*
X119985192Y-136518936D01*
X120158598Y-136484443D01*
X120335402Y-136484443D01*
X120508808Y-136518936D01*
G37*
G36*
X119857482Y-132085781D02*
G01*
X119868690Y-132085781D01*
X119923888Y-132094523D01*
X120049534Y-132111065D01*
X120080189Y-132119279D01*
X120109074Y-132123854D01*
X120164620Y-132141902D01*
X120245467Y-132163565D01*
X120297050Y-132184931D01*
X120340542Y-132199063D01*
X120381286Y-132219823D01*
X120432870Y-132241190D01*
X120505353Y-132283038D01*
X120557395Y-132309555D01*
X120581055Y-132326745D01*
X120608539Y-132342613D01*
X120709074Y-132419756D01*
X120754294Y-132452610D01*
X120762219Y-132460535D01*
X120769466Y-132466096D01*
X120912903Y-132609533D01*
X120918463Y-132616779D01*
X120926390Y-132624706D01*
X120959247Y-132669930D01*
X121036386Y-132770460D01*
X121052252Y-132797941D01*
X121069445Y-132821605D01*
X121095964Y-132873652D01*
X121137809Y-132946129D01*
X121159173Y-132997706D01*
X121179937Y-133038458D01*
X121194070Y-133081955D01*
X121215434Y-133133532D01*
X121237093Y-133214366D01*
X121255146Y-133269926D01*
X121259721Y-133298816D01*
X121267934Y-133329465D01*
X121284474Y-133455099D01*
X121293219Y-133510310D01*
X121293219Y-133521518D01*
X121294412Y-133530580D01*
X121294412Y-133733419D01*
X121293219Y-133742480D01*
X121293219Y-133753690D01*
X121284473Y-133808905D01*
X121267934Y-133934534D01*
X121259722Y-133965180D01*
X121255146Y-133994074D01*
X121237091Y-134049638D01*
X121215434Y-134130467D01*
X121194071Y-134182039D01*
X121179937Y-134225542D01*
X121159171Y-134266297D01*
X121137809Y-134317870D01*
X121095968Y-134390338D01*
X121069445Y-134442395D01*
X121052249Y-134466062D01*
X121036386Y-134493539D01*
X120959261Y-134594050D01*
X120926390Y-134639294D01*
X120918459Y-134647224D01*
X120912903Y-134654466D01*
X120769466Y-134797903D01*
X120762224Y-134803459D01*
X120754294Y-134811390D01*
X120709050Y-134844261D01*
X120608539Y-134921386D01*
X120581062Y-134937249D01*
X120557395Y-134954445D01*
X120505338Y-134980968D01*
X120432870Y-135022809D01*
X120381297Y-135044171D01*
X120340542Y-135064937D01*
X120297039Y-135079071D01*
X120245467Y-135100434D01*
X120164638Y-135122091D01*
X120109074Y-135140146D01*
X120080180Y-135144722D01*
X120049534Y-135152934D01*
X119923902Y-135169474D01*
X119868690Y-135178219D01*
X119857481Y-135178219D01*
X119848420Y-135179412D01*
X119645580Y-135179412D01*
X119636519Y-135178219D01*
X119625310Y-135178219D01*
X119570099Y-135169474D01*
X119444465Y-135152934D01*
X119413816Y-135144721D01*
X119384926Y-135140146D01*
X119329366Y-135122093D01*
X119248532Y-135100434D01*
X119196955Y-135079070D01*
X119153458Y-135064937D01*
X119112706Y-135044173D01*
X119061129Y-135022809D01*
X118988652Y-134980964D01*
X118936605Y-134954445D01*
X118912941Y-134937252D01*
X118885460Y-134921386D01*
X118784930Y-134844247D01*
X118739706Y-134811390D01*
X118731779Y-134803463D01*
X118724533Y-134797903D01*
X118581096Y-134654466D01*
X118575535Y-134647219D01*
X118567610Y-134639294D01*
X118534756Y-134594074D01*
X118457613Y-134493539D01*
X118441745Y-134466055D01*
X118424555Y-134442395D01*
X118398038Y-134390353D01*
X118356190Y-134317870D01*
X118334823Y-134266286D01*
X118314063Y-134225542D01*
X118299931Y-134182050D01*
X118278565Y-134130467D01*
X118256902Y-134049620D01*
X118238854Y-133994074D01*
X118234279Y-133965189D01*
X118226065Y-133934534D01*
X118209524Y-133808891D01*
X118200781Y-133753690D01*
X118200781Y-133742480D01*
X118199588Y-133733419D01*
X118199588Y-133530580D01*
X118200781Y-133521518D01*
X118200781Y-133510310D01*
X118209523Y-133455113D01*
X118226065Y-133329465D01*
X118234279Y-133298807D01*
X118238854Y-133269926D01*
X118256900Y-133214383D01*
X118278565Y-133133532D01*
X118299933Y-133081944D01*
X118314063Y-133038458D01*
X118334821Y-132997717D01*
X118356190Y-132946129D01*
X118398042Y-132873637D01*
X118424555Y-132821605D01*
X118441742Y-132797948D01*
X118457613Y-132770460D01*
X118534770Y-132669906D01*
X118567610Y-132624706D01*
X118575532Y-132616783D01*
X118581096Y-132609533D01*
X118724533Y-132466096D01*
X118731783Y-132460532D01*
X118739706Y-132452610D01*
X118784906Y-132419770D01*
X118885460Y-132342613D01*
X118912948Y-132326742D01*
X118936605Y-132309555D01*
X118988637Y-132283042D01*
X119061129Y-132241190D01*
X119112717Y-132219821D01*
X119153458Y-132199063D01*
X119196944Y-132184933D01*
X119248532Y-132163565D01*
X119329383Y-132141900D01*
X119384926Y-132123854D01*
X119413807Y-132119279D01*
X119444465Y-132111065D01*
X119570113Y-132094523D01*
X119625310Y-132085781D01*
X119636518Y-132085781D01*
X119645580Y-132084588D01*
X119848420Y-132084588D01*
X119857482Y-132085781D01*
G37*
G36*
X114857482Y-129885781D02*
G01*
X114868690Y-129885781D01*
X114923888Y-129894523D01*
X115049534Y-129911065D01*
X115080189Y-129919279D01*
X115109074Y-129923854D01*
X115164620Y-129941902D01*
X115245467Y-129963565D01*
X115297050Y-129984931D01*
X115340542Y-129999063D01*
X115381286Y-130019823D01*
X115432870Y-130041190D01*
X115505353Y-130083038D01*
X115557395Y-130109555D01*
X115581055Y-130126745D01*
X115608539Y-130142613D01*
X115709074Y-130219756D01*
X115754294Y-130252610D01*
X115762219Y-130260535D01*
X115769466Y-130266096D01*
X115912903Y-130409533D01*
X115918463Y-130416779D01*
X115926390Y-130424706D01*
X115959247Y-130469930D01*
X116036386Y-130570460D01*
X116052252Y-130597941D01*
X116069445Y-130621605D01*
X116095964Y-130673652D01*
X116137809Y-130746129D01*
X116159173Y-130797706D01*
X116179937Y-130838458D01*
X116194070Y-130881955D01*
X116215434Y-130933532D01*
X116237093Y-131014366D01*
X116255146Y-131069926D01*
X116259721Y-131098816D01*
X116267934Y-131129465D01*
X116284474Y-131255099D01*
X116293219Y-131310310D01*
X116293219Y-131321518D01*
X116294412Y-131330580D01*
X116294412Y-131533419D01*
X116293219Y-131542480D01*
X116293219Y-131553690D01*
X116284473Y-131608905D01*
X116267934Y-131734534D01*
X116259722Y-131765180D01*
X116255146Y-131794074D01*
X116237091Y-131849638D01*
X116215434Y-131930467D01*
X116194071Y-131982039D01*
X116179937Y-132025542D01*
X116159171Y-132066297D01*
X116137809Y-132117870D01*
X116095968Y-132190338D01*
X116069445Y-132242395D01*
X116052249Y-132266062D01*
X116036386Y-132293539D01*
X115959261Y-132394050D01*
X115926390Y-132439294D01*
X115918459Y-132447224D01*
X115912903Y-132454466D01*
X115769466Y-132597903D01*
X115762224Y-132603459D01*
X115754294Y-132611390D01*
X115709050Y-132644261D01*
X115608539Y-132721386D01*
X115581062Y-132737249D01*
X115557395Y-132754445D01*
X115505338Y-132780968D01*
X115432870Y-132822809D01*
X115381297Y-132844171D01*
X115340542Y-132864937D01*
X115297039Y-132879071D01*
X115245467Y-132900434D01*
X115164638Y-132922091D01*
X115109074Y-132940146D01*
X115080180Y-132944722D01*
X115049534Y-132952934D01*
X114923902Y-132969474D01*
X114868690Y-132978219D01*
X114857481Y-132978219D01*
X114848420Y-132979412D01*
X114645580Y-132979412D01*
X114636519Y-132978219D01*
X114625310Y-132978219D01*
X114570099Y-132969474D01*
X114444465Y-132952934D01*
X114413816Y-132944721D01*
X114384926Y-132940146D01*
X114329366Y-132922093D01*
X114248532Y-132900434D01*
X114196955Y-132879070D01*
X114153458Y-132864937D01*
X114112706Y-132844173D01*
X114061129Y-132822809D01*
X113988652Y-132780964D01*
X113936605Y-132754445D01*
X113912941Y-132737252D01*
X113885460Y-132721386D01*
X113784930Y-132644247D01*
X113739706Y-132611390D01*
X113731779Y-132603463D01*
X113724533Y-132597903D01*
X113581096Y-132454466D01*
X113575535Y-132447219D01*
X113567610Y-132439294D01*
X113534756Y-132394074D01*
X113457613Y-132293539D01*
X113441745Y-132266055D01*
X113424555Y-132242395D01*
X113398038Y-132190353D01*
X113356190Y-132117870D01*
X113334823Y-132066286D01*
X113314063Y-132025542D01*
X113299931Y-131982050D01*
X113278565Y-131930467D01*
X113256902Y-131849620D01*
X113238854Y-131794074D01*
X113234279Y-131765189D01*
X113226065Y-131734534D01*
X113209524Y-131608891D01*
X113200781Y-131553690D01*
X113200781Y-131542480D01*
X113199588Y-131533419D01*
X113199588Y-131330580D01*
X113200781Y-131321518D01*
X113200781Y-131310310D01*
X113209523Y-131255113D01*
X113226065Y-131129465D01*
X113234279Y-131098807D01*
X113238854Y-131069926D01*
X113256900Y-131014383D01*
X113278565Y-130933532D01*
X113299933Y-130881944D01*
X113314063Y-130838458D01*
X113334821Y-130797717D01*
X113356190Y-130746129D01*
X113398042Y-130673637D01*
X113424555Y-130621605D01*
X113441742Y-130597948D01*
X113457613Y-130570460D01*
X113534770Y-130469906D01*
X113567610Y-130424706D01*
X113575532Y-130416783D01*
X113581096Y-130409533D01*
X113724533Y-130266096D01*
X113731783Y-130260532D01*
X113739706Y-130252610D01*
X113784906Y-130219770D01*
X113885460Y-130142613D01*
X113912948Y-130126742D01*
X113936605Y-130109555D01*
X113988637Y-130083042D01*
X114061129Y-130041190D01*
X114112717Y-130019821D01*
X114153458Y-129999063D01*
X114196944Y-129984933D01*
X114248532Y-129963565D01*
X114329383Y-129941900D01*
X114384926Y-129923854D01*
X114413807Y-129919279D01*
X114444465Y-129911065D01*
X114570113Y-129894523D01*
X114625310Y-129885781D01*
X114636518Y-129885781D01*
X114645580Y-129884588D01*
X114848420Y-129884588D01*
X114857482Y-129885781D01*
G37*
G36*
X109793466Y-126536851D02*
G01*
X109810011Y-126547907D01*
X111012093Y-127749989D01*
X111023149Y-127766534D01*
X111027030Y-127786051D01*
X111023149Y-127805568D01*
X111012093Y-127822113D01*
X109810011Y-129024195D01*
X109793466Y-129035251D01*
X109773949Y-129039132D01*
X109754432Y-129035251D01*
X109737887Y-129024195D01*
X108535805Y-127822113D01*
X108524749Y-127805568D01*
X108520868Y-127786051D01*
X108524749Y-127766534D01*
X108535805Y-127749989D01*
X109432277Y-126853517D01*
X109729182Y-126556611D01*
X109729185Y-126556608D01*
X109737887Y-126547907D01*
X109754432Y-126536851D01*
X109773949Y-126532970D01*
X109793466Y-126536851D01*
G37*
G36*
X111831546Y-125127797D02*
G01*
X111994728Y-125195389D01*
X112141588Y-125293518D01*
X112266482Y-125418412D01*
X112364611Y-125565272D01*
X112432203Y-125728454D01*
X112466661Y-125901687D01*
X112466661Y-126078313D01*
X112432203Y-126251546D01*
X112364611Y-126414728D01*
X112266482Y-126561588D01*
X112141588Y-126686482D01*
X111994728Y-126784611D01*
X111831546Y-126852203D01*
X111658313Y-126886661D01*
X111481687Y-126886661D01*
X111308454Y-126852203D01*
X111145272Y-126784611D01*
X110998412Y-126686482D01*
X110873518Y-126561588D01*
X110775389Y-126414728D01*
X110707797Y-126251546D01*
X110673339Y-126078313D01*
X110673339Y-125901687D01*
X110707797Y-125728454D01*
X110775389Y-125565272D01*
X110873518Y-125418412D01*
X110998412Y-125293518D01*
X111145272Y-125195389D01*
X111308454Y-125127797D01*
X111481687Y-125093339D01*
X111658313Y-125093339D01*
X111831546Y-125127797D01*
G37*
G36*
X121077517Y-125086882D02*
G01*
X121094062Y-125097938D01*
X121105118Y-125114483D01*
X121109000Y-125134000D01*
X121109000Y-126834000D01*
X121105118Y-126853517D01*
X121094062Y-126870062D01*
X121077517Y-126881118D01*
X121058000Y-126885000D01*
X119358000Y-126885000D01*
X119338483Y-126881118D01*
X119321938Y-126870062D01*
X119310882Y-126853517D01*
X119307000Y-126834000D01*
X119307000Y-125134000D01*
X119310882Y-125114483D01*
X119321938Y-125097938D01*
X119338483Y-125086882D01*
X119358000Y-125083000D01*
X121058000Y-125083000D01*
X121077517Y-125086882D01*
G37*
G36*
X156637517Y-125086882D02*
G01*
X156654062Y-125097938D01*
X156665118Y-125114483D01*
X156669000Y-125134000D01*
X156669000Y-126834000D01*
X156665118Y-126853517D01*
X156654062Y-126870062D01*
X156637517Y-126881118D01*
X156618000Y-126885000D01*
X154918000Y-126885000D01*
X154898483Y-126881118D01*
X154881938Y-126870062D01*
X154870882Y-126853517D01*
X154867000Y-126834000D01*
X154867000Y-125134000D01*
X154870882Y-125114483D01*
X154881938Y-125097938D01*
X154898483Y-125086882D01*
X154918000Y-125083000D01*
X156618000Y-125083000D01*
X156637517Y-125086882D01*
G37*
G36*
X123009546Y-125121797D02*
G01*
X123172728Y-125189389D01*
X123319588Y-125287518D01*
X123444482Y-125412412D01*
X123542611Y-125559272D01*
X123610203Y-125722454D01*
X123644661Y-125895687D01*
X123644661Y-126072313D01*
X123610203Y-126245546D01*
X123542611Y-126408728D01*
X123444482Y-126555588D01*
X123319588Y-126680482D01*
X123172728Y-126778611D01*
X123009546Y-126846203D01*
X122836313Y-126880661D01*
X122659687Y-126880661D01*
X122486454Y-126846203D01*
X122323272Y-126778611D01*
X122176412Y-126680482D01*
X122051518Y-126555588D01*
X121953389Y-126408728D01*
X121885797Y-126245546D01*
X121851339Y-126072313D01*
X121851339Y-125895687D01*
X121885797Y-125722454D01*
X121953389Y-125559272D01*
X122051518Y-125412412D01*
X122176412Y-125287518D01*
X122323272Y-125189389D01*
X122486454Y-125121797D01*
X122659687Y-125087339D01*
X122836313Y-125087339D01*
X123009546Y-125121797D01*
G37*
G36*
X125549546Y-125121797D02*
G01*
X125712728Y-125189389D01*
X125859588Y-125287518D01*
X125984482Y-125412412D01*
X126082611Y-125559272D01*
X126150203Y-125722454D01*
X126184661Y-125895687D01*
X126184661Y-126072313D01*
X126150203Y-126245546D01*
X126082611Y-126408728D01*
X125984482Y-126555588D01*
X125859588Y-126680482D01*
X125712728Y-126778611D01*
X125549546Y-126846203D01*
X125376313Y-126880661D01*
X125199687Y-126880661D01*
X125026454Y-126846203D01*
X124863272Y-126778611D01*
X124716412Y-126680482D01*
X124591518Y-126555588D01*
X124493389Y-126408728D01*
X124425797Y-126245546D01*
X124391339Y-126072313D01*
X124391339Y-125895687D01*
X124425797Y-125722454D01*
X124493389Y-125559272D01*
X124591518Y-125412412D01*
X124716412Y-125287518D01*
X124863272Y-125189389D01*
X125026454Y-125121797D01*
X125199687Y-125087339D01*
X125376313Y-125087339D01*
X125549546Y-125121797D01*
G37*
G36*
X128089546Y-125121797D02*
G01*
X128252728Y-125189389D01*
X128399588Y-125287518D01*
X128524482Y-125412412D01*
X128622611Y-125559272D01*
X128690203Y-125722454D01*
X128724661Y-125895687D01*
X128724661Y-126072313D01*
X128690203Y-126245546D01*
X128622611Y-126408728D01*
X128524482Y-126555588D01*
X128399588Y-126680482D01*
X128252728Y-126778611D01*
X128089546Y-126846203D01*
X127916313Y-126880661D01*
X127739687Y-126880661D01*
X127566454Y-126846203D01*
X127403272Y-126778611D01*
X127256412Y-126680482D01*
X127131518Y-126555588D01*
X127033389Y-126408728D01*
X126965797Y-126245546D01*
X126931339Y-126072313D01*
X126931339Y-125895687D01*
X126965797Y-125722454D01*
X127033389Y-125559272D01*
X127131518Y-125412412D01*
X127256412Y-125287518D01*
X127403272Y-125189389D01*
X127566454Y-125121797D01*
X127739687Y-125087339D01*
X127916313Y-125087339D01*
X128089546Y-125121797D01*
G37*
G36*
X148409546Y-125121797D02*
G01*
X148572728Y-125189389D01*
X148719588Y-125287518D01*
X148844482Y-125412412D01*
X148942611Y-125559272D01*
X149010203Y-125722454D01*
X149044661Y-125895687D01*
X149044661Y-126072313D01*
X149010203Y-126245546D01*
X148942611Y-126408728D01*
X148844482Y-126555588D01*
X148719588Y-126680482D01*
X148572728Y-126778611D01*
X148409546Y-126846203D01*
X148236313Y-126880661D01*
X148059687Y-126880661D01*
X147886454Y-126846203D01*
X147723272Y-126778611D01*
X147576412Y-126680482D01*
X147451518Y-126555588D01*
X147353389Y-126408728D01*
X147285797Y-126245546D01*
X147251339Y-126072313D01*
X147251339Y-125895687D01*
X147285797Y-125722454D01*
X147353389Y-125559272D01*
X147451518Y-125412412D01*
X147576412Y-125287518D01*
X147723272Y-125189389D01*
X147886454Y-125121797D01*
X148059687Y-125087339D01*
X148236313Y-125087339D01*
X148409546Y-125121797D01*
G37*
G36*
X150949546Y-125121797D02*
G01*
X151112728Y-125189389D01*
X151259588Y-125287518D01*
X151384482Y-125412412D01*
X151482611Y-125559272D01*
X151550203Y-125722454D01*
X151584661Y-125895687D01*
X151584661Y-126072313D01*
X151550203Y-126245546D01*
X151482611Y-126408728D01*
X151384482Y-126555588D01*
X151259588Y-126680482D01*
X151112728Y-126778611D01*
X150949546Y-126846203D01*
X150776313Y-126880661D01*
X150599687Y-126880661D01*
X150426454Y-126846203D01*
X150263272Y-126778611D01*
X150116412Y-126680482D01*
X149991518Y-126555588D01*
X149893389Y-126408728D01*
X149825797Y-126245546D01*
X149791339Y-126072313D01*
X149791339Y-125895687D01*
X149825797Y-125722454D01*
X149893389Y-125559272D01*
X149991518Y-125412412D01*
X150116412Y-125287518D01*
X150263272Y-125189389D01*
X150426454Y-125121797D01*
X150599687Y-125087339D01*
X150776313Y-125087339D01*
X150949546Y-125121797D01*
G37*
G36*
X153489546Y-125121797D02*
G01*
X153652728Y-125189389D01*
X153799588Y-125287518D01*
X153924482Y-125412412D01*
X154022611Y-125559272D01*
X154090203Y-125722454D01*
X154124661Y-125895687D01*
X154124661Y-126072313D01*
X154090203Y-126245546D01*
X154022611Y-126408728D01*
X153924482Y-126555588D01*
X153799588Y-126680482D01*
X153652728Y-126778611D01*
X153489546Y-126846203D01*
X153316313Y-126880661D01*
X153139687Y-126880661D01*
X152966454Y-126846203D01*
X152803272Y-126778611D01*
X152656412Y-126680482D01*
X152531518Y-126555588D01*
X152433389Y-126408728D01*
X152365797Y-126245546D01*
X152331339Y-126072313D01*
X152331339Y-125895687D01*
X152365797Y-125722454D01*
X152433389Y-125559272D01*
X152531518Y-125412412D01*
X152656412Y-125287518D01*
X152803272Y-125189389D01*
X152966454Y-125121797D01*
X153139687Y-125087339D01*
X153316313Y-125087339D01*
X153489546Y-125121797D01*
G37*
G36*
X113627597Y-123331746D02*
G01*
X113790779Y-123399338D01*
X113937639Y-123497467D01*
X114062533Y-123622361D01*
X114160662Y-123769221D01*
X114228254Y-123932403D01*
X114262712Y-124105636D01*
X114262712Y-124282262D01*
X114228254Y-124455495D01*
X114160662Y-124618677D01*
X114062533Y-124765537D01*
X113937639Y-124890431D01*
X113790779Y-124988560D01*
X113627597Y-125056152D01*
X113454364Y-125090610D01*
X113277738Y-125090610D01*
X113104505Y-125056152D01*
X112941323Y-124988560D01*
X112794463Y-124890431D01*
X112669569Y-124765537D01*
X112571440Y-124618677D01*
X112503848Y-124455495D01*
X112469390Y-124282262D01*
X112469390Y-124105636D01*
X112503848Y-123932403D01*
X112571440Y-123769221D01*
X112669569Y-123622361D01*
X112794463Y-123497467D01*
X112941323Y-123399338D01*
X113104505Y-123331746D01*
X113277738Y-123297288D01*
X113454364Y-123297288D01*
X113627597Y-123331746D01*
G37*
G36*
X115423649Y-121535694D02*
G01*
X115586831Y-121603286D01*
X115733691Y-121701415D01*
X115858585Y-121826309D01*
X115956714Y-121973169D01*
X116024306Y-122136351D01*
X116058764Y-122309584D01*
X116058764Y-122486210D01*
X116024306Y-122659443D01*
X115956714Y-122822625D01*
X115858585Y-122969485D01*
X115733691Y-123094379D01*
X115586831Y-123192508D01*
X115423649Y-123260100D01*
X115250416Y-123294558D01*
X115073790Y-123294558D01*
X114900557Y-123260100D01*
X114737375Y-123192508D01*
X114590515Y-123094379D01*
X114465621Y-122969485D01*
X114367492Y-122822625D01*
X114299900Y-122659443D01*
X114265442Y-122486210D01*
X114265442Y-122309584D01*
X114299900Y-122136351D01*
X114367492Y-121973169D01*
X114465621Y-121826309D01*
X114590515Y-121701415D01*
X114737375Y-121603286D01*
X114900557Y-121535694D01*
X115073790Y-121501236D01*
X115250416Y-121501236D01*
X115423649Y-121535694D01*
G37*
G36*
X145919517Y-120027882D02*
G01*
X145936062Y-120038938D01*
X145947118Y-120055483D01*
X145951000Y-120075000D01*
X145951000Y-122875000D01*
X145947118Y-122894517D01*
X145936062Y-122911062D01*
X145919517Y-122922118D01*
X145900000Y-122926000D01*
X144900000Y-122926000D01*
X144880483Y-122922118D01*
X144863938Y-122911062D01*
X144852882Y-122894517D01*
X144849000Y-122875000D01*
X144849000Y-120075000D01*
X144852882Y-120055483D01*
X144863938Y-120038938D01*
X144880483Y-120027882D01*
X144900000Y-120024000D01*
X145900000Y-120024000D01*
X145919517Y-120027882D01*
G37*
G36*
X149919517Y-120027882D02*
G01*
X149936062Y-120038938D01*
X149947118Y-120055483D01*
X149951000Y-120075000D01*
X149951000Y-122875000D01*
X149947118Y-122894517D01*
X149936062Y-122911062D01*
X149919517Y-122922118D01*
X149900000Y-122926000D01*
X148900000Y-122926000D01*
X148880483Y-122922118D01*
X148863938Y-122911062D01*
X148852882Y-122894517D01*
X148849000Y-122875000D01*
X148849000Y-120075000D01*
X148852882Y-120055483D01*
X148863938Y-120038938D01*
X148880483Y-120027882D01*
X148900000Y-120024000D01*
X149900000Y-120024000D01*
X149919517Y-120027882D01*
G37*
G36*
X152919517Y-120027882D02*
G01*
X152936062Y-120038938D01*
X152947118Y-120055483D01*
X152951000Y-120075000D01*
X152951000Y-122875000D01*
X152947118Y-122894517D01*
X152936062Y-122911062D01*
X152919517Y-122922118D01*
X152900000Y-122926000D01*
X151900000Y-122926000D01*
X151880483Y-122922118D01*
X151863938Y-122911062D01*
X151852882Y-122894517D01*
X151849000Y-122875000D01*
X151849000Y-120075000D01*
X151852882Y-120055483D01*
X151863938Y-120038938D01*
X151880483Y-120027882D01*
X151900000Y-120024000D01*
X152900000Y-120024000D01*
X152919517Y-120027882D01*
G37*
G36*
X156919517Y-120027882D02*
G01*
X156936062Y-120038938D01*
X156947118Y-120055483D01*
X156951000Y-120075000D01*
X156951000Y-122875000D01*
X156947118Y-122894517D01*
X156936062Y-122911062D01*
X156919517Y-122922118D01*
X156900000Y-122926000D01*
X155900000Y-122926000D01*
X155880483Y-122922118D01*
X155863938Y-122911062D01*
X155852882Y-122894517D01*
X155849000Y-122875000D01*
X155849000Y-120075000D01*
X155852882Y-120055483D01*
X155863938Y-120038938D01*
X155880483Y-120027882D01*
X155900000Y-120024000D01*
X156900000Y-120024000D01*
X156919517Y-120027882D01*
G37*
G36*
X131269517Y-120702882D02*
G01*
X131286062Y-120713938D01*
X131297118Y-120730483D01*
X131301000Y-120750000D01*
X131301000Y-122450000D01*
X131297118Y-122469517D01*
X131286062Y-122486062D01*
X131269517Y-122497118D01*
X131250000Y-122501000D01*
X129550000Y-122501000D01*
X129530483Y-122497118D01*
X129513938Y-122486062D01*
X129502882Y-122469517D01*
X129499000Y-122450000D01*
X129499000Y-120750000D01*
X129502882Y-120730483D01*
X129513938Y-120713938D01*
X129530483Y-120702882D01*
X129550000Y-120699000D01*
X131250000Y-120699000D01*
X131269517Y-120702882D01*
G37*
G36*
X161632518Y-120583491D02*
G01*
X161777589Y-120643581D01*
X161908149Y-120730819D01*
X162019181Y-120841851D01*
X162106419Y-120972411D01*
X162166509Y-121117482D01*
X162197143Y-121271488D01*
X162197143Y-121428512D01*
X162166509Y-121582518D01*
X162106419Y-121727589D01*
X162019181Y-121858149D01*
X161908149Y-121969181D01*
X161777589Y-122056419D01*
X161632518Y-122116509D01*
X161478512Y-122147143D01*
X161321488Y-122147143D01*
X161167482Y-122116509D01*
X161022411Y-122056419D01*
X160891851Y-121969181D01*
X160780819Y-121858149D01*
X160693581Y-121727589D01*
X160633491Y-121582518D01*
X160602857Y-121428512D01*
X160602857Y-121271488D01*
X160633491Y-121117482D01*
X160693581Y-120972411D01*
X160780819Y-120841851D01*
X160891851Y-120730819D01*
X161022411Y-120643581D01*
X161167482Y-120583491D01*
X161321488Y-120552857D01*
X161478512Y-120552857D01*
X161632518Y-120583491D01*
G37*
G36*
X161603490Y-118679185D02*
G01*
X161730449Y-118731773D01*
X161844710Y-118808120D01*
X161941880Y-118905290D01*
X162018227Y-119019551D01*
X162070815Y-119146510D01*
X162097624Y-119281290D01*
X162097624Y-119418710D01*
X162070815Y-119553490D01*
X162018227Y-119680449D01*
X161941880Y-119794710D01*
X161844710Y-119891880D01*
X161730449Y-119968227D01*
X161603490Y-120020815D01*
X161468710Y-120047624D01*
X161331290Y-120047624D01*
X161196510Y-120020815D01*
X161069551Y-119968227D01*
X160955290Y-119891880D01*
X160858120Y-119794710D01*
X160781773Y-119680449D01*
X160729185Y-119553490D01*
X160702376Y-119418710D01*
X160702376Y-119281290D01*
X160729185Y-119146510D01*
X160781773Y-119019551D01*
X160858120Y-118905290D01*
X160955290Y-118808120D01*
X161069551Y-118731773D01*
X161196510Y-118679185D01*
X161331290Y-118652376D01*
X161468710Y-118652376D01*
X161603490Y-118679185D01*
G37*
G36*
X130661546Y-118197797D02*
G01*
X130824728Y-118265389D01*
X130971588Y-118363518D01*
X131096482Y-118488412D01*
X131194611Y-118635272D01*
X131262203Y-118798454D01*
X131296661Y-118971687D01*
X131296661Y-119148313D01*
X131262203Y-119321546D01*
X131194611Y-119484728D01*
X131096482Y-119631588D01*
X130971588Y-119756482D01*
X130824728Y-119854611D01*
X130661546Y-119922203D01*
X130488313Y-119956661D01*
X130311687Y-119956661D01*
X130138454Y-119922203D01*
X129975272Y-119854611D01*
X129828412Y-119756482D01*
X129703518Y-119631588D01*
X129605389Y-119484728D01*
X129537797Y-119321546D01*
X129503339Y-119148313D01*
X129503339Y-118971687D01*
X129537797Y-118798454D01*
X129605389Y-118635272D01*
X129703518Y-118488412D01*
X129828412Y-118363518D01*
X129975272Y-118265389D01*
X130138454Y-118197797D01*
X130311687Y-118163339D01*
X130488313Y-118163339D01*
X130661546Y-118197797D01*
G37*
G36*
X115067308Y-114505043D02*
G01*
X115346207Y-114568700D01*
X115616225Y-114663183D01*
X115873967Y-114787305D01*
X116116190Y-114939504D01*
X116339850Y-115117867D01*
X116542133Y-115320150D01*
X116720496Y-115543810D01*
X116872695Y-115786033D01*
X116996817Y-116043775D01*
X117091300Y-116313793D01*
X117154957Y-116592692D01*
X117186987Y-116876964D01*
X117186987Y-117163036D01*
X117154957Y-117447308D01*
X117091300Y-117726207D01*
X116996817Y-117996225D01*
X116872695Y-118253967D01*
X116720496Y-118496190D01*
X116542133Y-118719850D01*
X116339850Y-118922133D01*
X116116190Y-119100496D01*
X115873967Y-119252695D01*
X115616225Y-119376817D01*
X115346207Y-119471300D01*
X115067308Y-119534957D01*
X114783036Y-119566987D01*
X114496964Y-119566987D01*
X114212692Y-119534957D01*
X113933793Y-119471300D01*
X113663775Y-119376817D01*
X113406033Y-119252695D01*
X113163810Y-119100496D01*
X112940150Y-118922133D01*
X112737867Y-118719850D01*
X112559504Y-118496190D01*
X112407305Y-118253967D01*
X112283183Y-117996225D01*
X112188700Y-117726207D01*
X112125043Y-117447308D01*
X112093013Y-117163036D01*
X112093013Y-116876964D01*
X112125043Y-116592692D01*
X112188700Y-116313793D01*
X112283183Y-116043775D01*
X112407305Y-115786033D01*
X112559504Y-115543810D01*
X112737867Y-115320150D01*
X112940150Y-115117867D01*
X113163810Y-114939504D01*
X113406033Y-114787305D01*
X113663775Y-114663183D01*
X113933793Y-114568700D01*
X114212692Y-114505043D01*
X114496964Y-114473013D01*
X114783036Y-114473013D01*
X115067308Y-114505043D01*
G37*
G36*
X161603490Y-116679185D02*
G01*
X161730449Y-116731773D01*
X161844710Y-116808120D01*
X161941880Y-116905290D01*
X162018227Y-117019551D01*
X162070815Y-117146510D01*
X162097624Y-117281290D01*
X162097624Y-117418710D01*
X162070815Y-117553490D01*
X162018227Y-117680449D01*
X161941880Y-117794710D01*
X161844710Y-117891880D01*
X161730449Y-117968227D01*
X161603490Y-118020815D01*
X161468710Y-118047624D01*
X161331290Y-118047624D01*
X161196510Y-118020815D01*
X161069551Y-117968227D01*
X160955290Y-117891880D01*
X160858120Y-117794710D01*
X160781773Y-117680449D01*
X160729185Y-117553490D01*
X160702376Y-117418710D01*
X160702376Y-117281290D01*
X160729185Y-117146510D01*
X160781773Y-117019551D01*
X160858120Y-116905290D01*
X160955290Y-116808120D01*
X161069551Y-116731773D01*
X161196510Y-116679185D01*
X161331290Y-116652376D01*
X161468710Y-116652376D01*
X161603490Y-116679185D01*
G37*
G36*
X130661546Y-115657797D02*
G01*
X130824728Y-115725389D01*
X130971588Y-115823518D01*
X131096482Y-115948412D01*
X131194611Y-116095272D01*
X131262203Y-116258454D01*
X131296661Y-116431687D01*
X131296661Y-116608313D01*
X131262203Y-116781546D01*
X131194611Y-116944728D01*
X131096482Y-117091588D01*
X130971588Y-117216482D01*
X130824728Y-117314611D01*
X130661546Y-117382203D01*
X130488313Y-117416661D01*
X130311687Y-117416661D01*
X130138454Y-117382203D01*
X129975272Y-117314611D01*
X129828412Y-117216482D01*
X129703518Y-117091588D01*
X129605389Y-116944728D01*
X129537797Y-116781546D01*
X129503339Y-116608313D01*
X129503339Y-116431687D01*
X129537797Y-116258454D01*
X129605389Y-116095272D01*
X129703518Y-115948412D01*
X129828412Y-115823518D01*
X129975272Y-115725389D01*
X130138454Y-115657797D01*
X130311687Y-115623339D01*
X130488313Y-115623339D01*
X130661546Y-115657797D01*
G37*
G36*
X145919517Y-114227882D02*
G01*
X145936062Y-114238938D01*
X145947118Y-114255483D01*
X145951000Y-114275000D01*
X145951000Y-117075000D01*
X145947118Y-117094517D01*
X145936062Y-117111062D01*
X145919517Y-117122118D01*
X145900000Y-117126000D01*
X144900000Y-117126000D01*
X144880483Y-117122118D01*
X144863938Y-117111062D01*
X144852882Y-117094517D01*
X144849000Y-117075000D01*
X144849000Y-114275000D01*
X144852882Y-114255483D01*
X144863938Y-114238938D01*
X144880483Y-114227882D01*
X144900000Y-114224000D01*
X145900000Y-114224000D01*
X145919517Y-114227882D01*
G37*
G36*
X149919517Y-114227882D02*
G01*
X149936062Y-114238938D01*
X149947118Y-114255483D01*
X149951000Y-114275000D01*
X149951000Y-117075000D01*
X149947118Y-117094517D01*
X149936062Y-117111062D01*
X149919517Y-117122118D01*
X149900000Y-117126000D01*
X148900000Y-117126000D01*
X148880483Y-117122118D01*
X148863938Y-117111062D01*
X148852882Y-117094517D01*
X148849000Y-117075000D01*
X148849000Y-114275000D01*
X148852882Y-114255483D01*
X148863938Y-114238938D01*
X148880483Y-114227882D01*
X148900000Y-114224000D01*
X149900000Y-114224000D01*
X149919517Y-114227882D01*
G37*
G36*
X152919517Y-114227882D02*
G01*
X152936062Y-114238938D01*
X152947118Y-114255483D01*
X152951000Y-114275000D01*
X152951000Y-117075000D01*
X152947118Y-117094517D01*
X152936062Y-117111062D01*
X152919517Y-117122118D01*
X152900000Y-117126000D01*
X151900000Y-117126000D01*
X151880483Y-117122118D01*
X151863938Y-117111062D01*
X151852882Y-117094517D01*
X151849000Y-117075000D01*
X151849000Y-114275000D01*
X151852882Y-114255483D01*
X151863938Y-114238938D01*
X151880483Y-114227882D01*
X151900000Y-114224000D01*
X152900000Y-114224000D01*
X152919517Y-114227882D01*
G37*
G36*
X156919517Y-114227882D02*
G01*
X156936062Y-114238938D01*
X156947118Y-114255483D01*
X156951000Y-114275000D01*
X156951000Y-117075000D01*
X156947118Y-117094517D01*
X156936062Y-117111062D01*
X156919517Y-117122118D01*
X156900000Y-117126000D01*
X155900000Y-117126000D01*
X155880483Y-117122118D01*
X155863938Y-117111062D01*
X155852882Y-117094517D01*
X155849000Y-117075000D01*
X155849000Y-114275000D01*
X155852882Y-114255483D01*
X155863938Y-114238938D01*
X155880483Y-114227882D01*
X155900000Y-114224000D01*
X156900000Y-114224000D01*
X156919517Y-114227882D01*
G37*
G36*
X161588975Y-114727032D02*
G01*
X161706879Y-114775869D01*
X161812990Y-114846770D01*
X161903230Y-114937010D01*
X161974131Y-115043121D01*
X162022968Y-115161025D01*
X162047865Y-115286191D01*
X162047865Y-115413809D01*
X162022968Y-115538975D01*
X161974131Y-115656879D01*
X161903230Y-115762990D01*
X161812990Y-115853230D01*
X161706879Y-115924131D01*
X161588975Y-115972968D01*
X161463809Y-115997865D01*
X161336191Y-115997865D01*
X161211025Y-115972968D01*
X161093121Y-115924131D01*
X160987010Y-115853230D01*
X160896770Y-115762990D01*
X160825869Y-115656879D01*
X160777032Y-115538975D01*
X160752135Y-115413809D01*
X160752135Y-115286191D01*
X160777032Y-115161025D01*
X160825869Y-115043121D01*
X160896770Y-114937010D01*
X160987010Y-114846770D01*
X161093121Y-114775869D01*
X161211025Y-114727032D01*
X161336191Y-114702135D01*
X161463809Y-114702135D01*
X161588975Y-114727032D01*
G37*
G36*
X161632518Y-112583491D02*
G01*
X161777589Y-112643581D01*
X161908149Y-112730819D01*
X162019181Y-112841851D01*
X162106419Y-112972411D01*
X162166509Y-113117482D01*
X162197143Y-113271488D01*
X162197143Y-113428512D01*
X162166509Y-113582518D01*
X162106419Y-113727589D01*
X162019181Y-113858149D01*
X161908149Y-113969181D01*
X161777589Y-114056419D01*
X161632518Y-114116509D01*
X161478512Y-114147143D01*
X161321488Y-114147143D01*
X161167482Y-114116509D01*
X161022411Y-114056419D01*
X160891851Y-113969181D01*
X160780819Y-113858149D01*
X160693581Y-113727589D01*
X160633491Y-113582518D01*
X160602857Y-113428512D01*
X160602857Y-113271488D01*
X160633491Y-113117482D01*
X160693581Y-112972411D01*
X160780819Y-112841851D01*
X160891851Y-112730819D01*
X161022411Y-112643581D01*
X161167482Y-112583491D01*
X161321488Y-112552857D01*
X161478512Y-112552857D01*
X161632518Y-112583491D01*
G37*
G36*
X135967032Y-108385644D02*
G01*
X136121159Y-108449485D01*
X136259869Y-108542168D01*
X136377832Y-108660131D01*
X136470515Y-108798841D01*
X136534356Y-108952968D01*
X136566902Y-109116587D01*
X136566902Y-109283413D01*
X136534356Y-109447032D01*
X136470515Y-109601159D01*
X136377832Y-109739869D01*
X136259869Y-109857832D01*
X136121159Y-109950515D01*
X135967032Y-110014356D01*
X135803413Y-110046902D01*
X135636587Y-110046902D01*
X135472968Y-110014356D01*
X135318841Y-109950515D01*
X135180131Y-109857832D01*
X135062168Y-109739869D01*
X134969485Y-109601159D01*
X134905644Y-109447032D01*
X134873098Y-109283413D01*
X134873098Y-109116587D01*
X134905644Y-108952968D01*
X134969485Y-108798841D01*
X135062168Y-108660131D01*
X135180131Y-108542168D01*
X135318841Y-108449485D01*
X135472968Y-108385644D01*
X135636587Y-108353098D01*
X135803413Y-108353098D01*
X135967032Y-108385644D01*
G37*
G36*
X138507032Y-108385644D02*
G01*
X138661159Y-108449485D01*
X138799869Y-108542168D01*
X138917832Y-108660131D01*
X139010515Y-108798841D01*
X139074356Y-108952968D01*
X139106902Y-109116587D01*
X139106902Y-109283413D01*
X139074356Y-109447032D01*
X139010515Y-109601159D01*
X138917832Y-109739869D01*
X138799869Y-109857832D01*
X138661159Y-109950515D01*
X138507032Y-110014356D01*
X138343413Y-110046902D01*
X138176587Y-110046902D01*
X138012968Y-110014356D01*
X137858841Y-109950515D01*
X137720131Y-109857832D01*
X137602168Y-109739869D01*
X137509485Y-109601159D01*
X137445644Y-109447032D01*
X137413098Y-109283413D01*
X137413098Y-109116587D01*
X137445644Y-108952968D01*
X137509485Y-108798841D01*
X137602168Y-108660131D01*
X137720131Y-108542168D01*
X137858841Y-108449485D01*
X138012968Y-108385644D01*
X138176587Y-108353098D01*
X138343413Y-108353098D01*
X138507032Y-108385644D01*
G37*
G36*
X141047032Y-108385644D02*
G01*
X141201159Y-108449485D01*
X141339869Y-108542168D01*
X141457832Y-108660131D01*
X141550515Y-108798841D01*
X141614356Y-108952968D01*
X141646902Y-109116587D01*
X141646902Y-109283413D01*
X141614356Y-109447032D01*
X141550515Y-109601159D01*
X141457832Y-109739869D01*
X141339869Y-109857832D01*
X141201159Y-109950515D01*
X141047032Y-110014356D01*
X140883413Y-110046902D01*
X140716587Y-110046902D01*
X140552968Y-110014356D01*
X140398841Y-109950515D01*
X140260131Y-109857832D01*
X140142168Y-109739869D01*
X140049485Y-109601159D01*
X139985644Y-109447032D01*
X139953098Y-109283413D01*
X139953098Y-109116587D01*
X139985644Y-108952968D01*
X140049485Y-108798841D01*
X140142168Y-108660131D01*
X140260131Y-108542168D01*
X140398841Y-108449485D01*
X140552968Y-108385644D01*
X140716587Y-108353098D01*
X140883413Y-108353098D01*
X141047032Y-108385644D01*
G37*
G36*
X143587032Y-108385644D02*
G01*
X143741159Y-108449485D01*
X143879869Y-108542168D01*
X143997832Y-108660131D01*
X144090515Y-108798841D01*
X144154356Y-108952968D01*
X144186902Y-109116587D01*
X144186902Y-109283413D01*
X144154356Y-109447032D01*
X144090515Y-109601159D01*
X143997832Y-109739869D01*
X143879869Y-109857832D01*
X143741159Y-109950515D01*
X143587032Y-110014356D01*
X143423413Y-110046902D01*
X143256587Y-110046902D01*
X143092968Y-110014356D01*
X142938841Y-109950515D01*
X142800131Y-109857832D01*
X142682168Y-109739869D01*
X142589485Y-109601159D01*
X142525644Y-109447032D01*
X142493098Y-109283413D01*
X142493098Y-109116587D01*
X142525644Y-108952968D01*
X142589485Y-108798841D01*
X142682168Y-108660131D01*
X142800131Y-108542168D01*
X142938841Y-108449485D01*
X143092968Y-108385644D01*
X143256587Y-108353098D01*
X143423413Y-108353098D01*
X143587032Y-108385644D01*
G37*
G36*
X146127032Y-108385644D02*
G01*
X146281159Y-108449485D01*
X146419869Y-108542168D01*
X146537832Y-108660131D01*
X146630515Y-108798841D01*
X146694356Y-108952968D01*
X146726902Y-109116587D01*
X146726902Y-109283413D01*
X146694356Y-109447032D01*
X146630515Y-109601159D01*
X146537832Y-109739869D01*
X146419869Y-109857832D01*
X146281159Y-109950515D01*
X146127032Y-110014356D01*
X145963413Y-110046902D01*
X145796587Y-110046902D01*
X145632968Y-110014356D01*
X145478841Y-109950515D01*
X145340131Y-109857832D01*
X145222168Y-109739869D01*
X145129485Y-109601159D01*
X145065644Y-109447032D01*
X145033098Y-109283413D01*
X145033098Y-109116587D01*
X145065644Y-108952968D01*
X145129485Y-108798841D01*
X145222168Y-108660131D01*
X145340131Y-108542168D01*
X145478841Y-108449485D01*
X145632968Y-108385644D01*
X145796587Y-108353098D01*
X145963413Y-108353098D01*
X146127032Y-108385644D01*
G37*
G36*
X148667032Y-108385644D02*
G01*
X148821159Y-108449485D01*
X148959869Y-108542168D01*
X149077832Y-108660131D01*
X149170515Y-108798841D01*
X149234356Y-108952968D01*
X149266902Y-109116587D01*
X149266902Y-109283413D01*
X149234356Y-109447032D01*
X149170515Y-109601159D01*
X149077832Y-109739869D01*
X148959869Y-109857832D01*
X148821159Y-109950515D01*
X148667032Y-110014356D01*
X148503413Y-110046902D01*
X148336587Y-110046902D01*
X148172968Y-110014356D01*
X148018841Y-109950515D01*
X147880131Y-109857832D01*
X147762168Y-109739869D01*
X147669485Y-109601159D01*
X147605644Y-109447032D01*
X147573098Y-109283413D01*
X147573098Y-109116587D01*
X147605644Y-108952968D01*
X147669485Y-108798841D01*
X147762168Y-108660131D01*
X147880131Y-108542168D01*
X148018841Y-108449485D01*
X148172968Y-108385644D01*
X148336587Y-108353098D01*
X148503413Y-108353098D01*
X148667032Y-108385644D01*
G37*
G36*
X151207032Y-108385644D02*
G01*
X151361159Y-108449485D01*
X151499869Y-108542168D01*
X151617832Y-108660131D01*
X151710515Y-108798841D01*
X151774356Y-108952968D01*
X151806902Y-109116587D01*
X151806902Y-109283413D01*
X151774356Y-109447032D01*
X151710515Y-109601159D01*
X151617832Y-109739869D01*
X151499869Y-109857832D01*
X151361159Y-109950515D01*
X151207032Y-110014356D01*
X151043413Y-110046902D01*
X150876587Y-110046902D01*
X150712968Y-110014356D01*
X150558841Y-109950515D01*
X150420131Y-109857832D01*
X150302168Y-109739869D01*
X150209485Y-109601159D01*
X150145644Y-109447032D01*
X150113098Y-109283413D01*
X150113098Y-109116587D01*
X150145644Y-108952968D01*
X150209485Y-108798841D01*
X150302168Y-108660131D01*
X150420131Y-108542168D01*
X150558841Y-108449485D01*
X150712968Y-108385644D01*
X150876587Y-108353098D01*
X151043413Y-108353098D01*
X151207032Y-108385644D01*
G37*
G36*
X153747032Y-108385644D02*
G01*
X153901159Y-108449485D01*
X154039869Y-108542168D01*
X154157832Y-108660131D01*
X154250515Y-108798841D01*
X154314356Y-108952968D01*
X154346902Y-109116587D01*
X154346902Y-109283413D01*
X154314356Y-109447032D01*
X154250515Y-109601159D01*
X154157832Y-109739869D01*
X154039869Y-109857832D01*
X153901159Y-109950515D01*
X153747032Y-110014356D01*
X153583413Y-110046902D01*
X153416587Y-110046902D01*
X153252968Y-110014356D01*
X153098841Y-109950515D01*
X152960131Y-109857832D01*
X152842168Y-109739869D01*
X152749485Y-109601159D01*
X152685644Y-109447032D01*
X152653098Y-109283413D01*
X152653098Y-109116587D01*
X152685644Y-108952968D01*
X152749485Y-108798841D01*
X152842168Y-108660131D01*
X152960131Y-108542168D01*
X153098841Y-108449485D01*
X153252968Y-108385644D01*
X153416587Y-108353098D01*
X153583413Y-108353098D01*
X153747032Y-108385644D01*
G37*
G36*
X156287032Y-108385644D02*
G01*
X156441159Y-108449485D01*
X156579869Y-108542168D01*
X156697832Y-108660131D01*
X156790515Y-108798841D01*
X156854356Y-108952968D01*
X156886902Y-109116587D01*
X156886902Y-109283413D01*
X156854356Y-109447032D01*
X156790515Y-109601159D01*
X156697832Y-109739869D01*
X156579869Y-109857832D01*
X156441159Y-109950515D01*
X156287032Y-110014356D01*
X156123413Y-110046902D01*
X155956587Y-110046902D01*
X155792968Y-110014356D01*
X155638841Y-109950515D01*
X155500131Y-109857832D01*
X155382168Y-109739869D01*
X155289485Y-109601159D01*
X155225644Y-109447032D01*
X155193098Y-109283413D01*
X155193098Y-109116587D01*
X155225644Y-108952968D01*
X155289485Y-108798841D01*
X155382168Y-108660131D01*
X155500131Y-108542168D01*
X155638841Y-108449485D01*
X155792968Y-108385644D01*
X155956587Y-108353098D01*
X156123413Y-108353098D01*
X156287032Y-108385644D01*
G37*
G36*
X158827032Y-108385644D02*
G01*
X158981159Y-108449485D01*
X159119869Y-108542168D01*
X159237832Y-108660131D01*
X159330515Y-108798841D01*
X159394356Y-108952968D01*
X159426902Y-109116587D01*
X159426902Y-109283413D01*
X159394356Y-109447032D01*
X159330515Y-109601159D01*
X159237832Y-109739869D01*
X159119869Y-109857832D01*
X158981159Y-109950515D01*
X158827032Y-110014356D01*
X158663413Y-110046902D01*
X158496587Y-110046902D01*
X158332968Y-110014356D01*
X158178841Y-109950515D01*
X158040131Y-109857832D01*
X157922168Y-109739869D01*
X157829485Y-109601159D01*
X157765644Y-109447032D01*
X157733098Y-109283413D01*
X157733098Y-109116587D01*
X157765644Y-108952968D01*
X157829485Y-108798841D01*
X157922168Y-108660131D01*
X158040131Y-108542168D01*
X158178841Y-108449485D01*
X158332968Y-108385644D01*
X158496587Y-108353098D01*
X158663413Y-108353098D01*
X158827032Y-108385644D01*
G37*
G36*
X161367032Y-108385644D02*
G01*
X161521159Y-108449485D01*
X161659869Y-108542168D01*
X161777832Y-108660131D01*
X161870515Y-108798841D01*
X161934356Y-108952968D01*
X161966902Y-109116587D01*
X161966902Y-109283413D01*
X161934356Y-109447032D01*
X161870515Y-109601159D01*
X161777832Y-109739869D01*
X161659869Y-109857832D01*
X161521159Y-109950515D01*
X161367032Y-110014356D01*
X161203413Y-110046902D01*
X161036587Y-110046902D01*
X160872968Y-110014356D01*
X160718841Y-109950515D01*
X160580131Y-109857832D01*
X160462168Y-109739869D01*
X160369485Y-109601159D01*
X160305644Y-109447032D01*
X160273098Y-109283413D01*
X160273098Y-109116587D01*
X160305644Y-108952968D01*
X160369485Y-108798841D01*
X160462168Y-108660131D01*
X160580131Y-108542168D01*
X160718841Y-108449485D01*
X160872968Y-108385644D01*
X161036587Y-108353098D01*
X161203413Y-108353098D01*
X161367032Y-108385644D01*
G37*
G36*
X163907032Y-108385644D02*
G01*
X164061159Y-108449485D01*
X164199869Y-108542168D01*
X164317832Y-108660131D01*
X164410515Y-108798841D01*
X164474356Y-108952968D01*
X164506902Y-109116587D01*
X164506902Y-109283413D01*
X164474356Y-109447032D01*
X164410515Y-109601159D01*
X164317832Y-109739869D01*
X164199869Y-109857832D01*
X164061159Y-109950515D01*
X163907032Y-110014356D01*
X163743413Y-110046902D01*
X163576587Y-110046902D01*
X163412968Y-110014356D01*
X163258841Y-109950515D01*
X163120131Y-109857832D01*
X163002168Y-109739869D01*
X162909485Y-109601159D01*
X162845644Y-109447032D01*
X162813098Y-109283413D01*
X162813098Y-109116587D01*
X162845644Y-108952968D01*
X162909485Y-108798841D01*
X163002168Y-108660131D01*
X163120131Y-108542168D01*
X163258841Y-108449485D01*
X163412968Y-108385644D01*
X163576587Y-108353098D01*
X163743413Y-108353098D01*
X163907032Y-108385644D01*
G37*
G36*
X160132518Y-104833491D02*
G01*
X160277589Y-104893581D01*
X160408149Y-104980819D01*
X160519181Y-105091851D01*
X160606419Y-105222411D01*
X160666509Y-105367482D01*
X160697143Y-105521488D01*
X160697143Y-105678512D01*
X160666509Y-105832518D01*
X160606419Y-105977589D01*
X160519181Y-106108149D01*
X160408149Y-106219181D01*
X160277589Y-106306419D01*
X160132518Y-106366509D01*
X159978512Y-106397143D01*
X159821488Y-106397143D01*
X159667482Y-106366509D01*
X159522411Y-106306419D01*
X159391851Y-106219181D01*
X159280819Y-106108149D01*
X159193581Y-105977589D01*
X159133491Y-105832518D01*
X159102857Y-105678512D01*
X159102857Y-105521488D01*
X159133491Y-105367482D01*
X159193581Y-105222411D01*
X159280819Y-105091851D01*
X159391851Y-104980819D01*
X159522411Y-104893581D01*
X159667482Y-104833491D01*
X159821488Y-104802857D01*
X159978512Y-104802857D01*
X160132518Y-104833491D01*
G37*
G36*
X156162546Y-104547797D02*
G01*
X156325728Y-104615389D01*
X156472588Y-104713518D01*
X156597482Y-104838412D01*
X156695611Y-104985272D01*
X156763203Y-105148454D01*
X156797661Y-105321687D01*
X156797661Y-105498313D01*
X156763203Y-105671546D01*
X156695611Y-105834728D01*
X156597482Y-105981588D01*
X156472588Y-106106482D01*
X156325728Y-106204611D01*
X156162546Y-106272203D01*
X155989313Y-106306661D01*
X155812687Y-106306661D01*
X155639454Y-106272203D01*
X155476272Y-106204611D01*
X155329412Y-106106482D01*
X155204518Y-105981588D01*
X155106389Y-105834728D01*
X155038797Y-105671546D01*
X155004339Y-105498313D01*
X155004339Y-105321687D01*
X155038797Y-105148454D01*
X155106389Y-104985272D01*
X155204518Y-104838412D01*
X155329412Y-104713518D01*
X155476272Y-104615389D01*
X155639454Y-104547797D01*
X155812687Y-104513339D01*
X155989313Y-104513339D01*
X156162546Y-104547797D01*
G37*
G36*
X160103490Y-102929185D02*
G01*
X160230449Y-102981773D01*
X160344710Y-103058120D01*
X160441880Y-103155290D01*
X160518227Y-103269551D01*
X160570815Y-103396510D01*
X160597624Y-103531290D01*
X160597624Y-103668710D01*
X160570815Y-103803490D01*
X160518227Y-103930449D01*
X160441880Y-104044710D01*
X160344710Y-104141880D01*
X160230449Y-104218227D01*
X160103490Y-104270815D01*
X159968710Y-104297624D01*
X159831290Y-104297624D01*
X159696510Y-104270815D01*
X159569551Y-104218227D01*
X159455290Y-104141880D01*
X159358120Y-104044710D01*
X159281773Y-103930449D01*
X159229185Y-103803490D01*
X159202376Y-103668710D01*
X159202376Y-103531290D01*
X159229185Y-103396510D01*
X159281773Y-103269551D01*
X159358120Y-103155290D01*
X159455290Y-103058120D01*
X159569551Y-102981773D01*
X159696510Y-102929185D01*
X159831290Y-102902376D01*
X159968710Y-102902376D01*
X160103490Y-102929185D01*
G37*
G36*
X156162546Y-102007797D02*
G01*
X156325728Y-102075389D01*
X156472588Y-102173518D01*
X156597482Y-102298412D01*
X156695611Y-102445272D01*
X156763203Y-102608454D01*
X156797661Y-102781687D01*
X156797661Y-102958313D01*
X156763203Y-103131546D01*
X156695611Y-103294728D01*
X156597482Y-103441588D01*
X156472588Y-103566482D01*
X156325728Y-103664611D01*
X156162546Y-103732203D01*
X155989313Y-103766661D01*
X155812687Y-103766661D01*
X155639454Y-103732203D01*
X155476272Y-103664611D01*
X155329412Y-103566482D01*
X155204518Y-103441588D01*
X155106389Y-103294728D01*
X155038797Y-103131546D01*
X155004339Y-102958313D01*
X155004339Y-102781687D01*
X155038797Y-102608454D01*
X155106389Y-102445272D01*
X155204518Y-102298412D01*
X155329412Y-102173518D01*
X155476272Y-102075389D01*
X155639454Y-102007797D01*
X155812687Y-101973339D01*
X155989313Y-101973339D01*
X156162546Y-102007797D01*
G37*
G36*
X160103490Y-100929185D02*
G01*
X160230449Y-100981773D01*
X160344710Y-101058120D01*
X160441880Y-101155290D01*
X160518227Y-101269551D01*
X160570815Y-101396510D01*
X160597624Y-101531290D01*
X160597624Y-101668710D01*
X160570815Y-101803490D01*
X160518227Y-101930449D01*
X160441880Y-102044710D01*
X160344710Y-102141880D01*
X160230449Y-102218227D01*
X160103490Y-102270815D01*
X159968710Y-102297624D01*
X159831290Y-102297624D01*
X159696510Y-102270815D01*
X159569551Y-102218227D01*
X159455290Y-102141880D01*
X159358120Y-102044710D01*
X159281773Y-101930449D01*
X159229185Y-101803490D01*
X159202376Y-101668710D01*
X159202376Y-101531290D01*
X159229185Y-101396510D01*
X159281773Y-101269551D01*
X159358120Y-101155290D01*
X159455290Y-101058120D01*
X159569551Y-100981773D01*
X159696510Y-100929185D01*
X159831290Y-100902376D01*
X159968710Y-100902376D01*
X160103490Y-100929185D01*
G37*
G36*
X133519517Y-99452882D02*
G01*
X133536062Y-99463938D01*
X133547118Y-99480483D01*
X133551000Y-99500000D01*
X133551000Y-101200000D01*
X133547118Y-101219517D01*
X133536062Y-101236062D01*
X133519517Y-101247118D01*
X133500000Y-101251000D01*
X131800000Y-101251000D01*
X131780483Y-101247118D01*
X131763938Y-101236062D01*
X131752882Y-101219517D01*
X131749000Y-101200000D01*
X131749000Y-99500000D01*
X131752882Y-99480483D01*
X131763938Y-99463938D01*
X131780483Y-99452882D01*
X131800000Y-99449000D01*
X133500000Y-99449000D01*
X133519517Y-99452882D01*
G37*
G36*
X156162546Y-99467797D02*
G01*
X156325728Y-99535389D01*
X156472588Y-99633518D01*
X156597482Y-99758412D01*
X156695611Y-99905272D01*
X156763203Y-100068454D01*
X156797661Y-100241687D01*
X156797661Y-100418313D01*
X156763203Y-100591546D01*
X156695611Y-100754728D01*
X156597482Y-100901588D01*
X156472588Y-101026482D01*
X156325728Y-101124611D01*
X156162546Y-101192203D01*
X155989313Y-101226661D01*
X155812687Y-101226661D01*
X155639454Y-101192203D01*
X155476272Y-101124611D01*
X155329412Y-101026482D01*
X155204518Y-100901588D01*
X155106389Y-100754728D01*
X155038797Y-100591546D01*
X155004339Y-100418313D01*
X155004339Y-100241687D01*
X155038797Y-100068454D01*
X155106389Y-99905272D01*
X155204518Y-99758412D01*
X155329412Y-99633518D01*
X155476272Y-99535389D01*
X155639454Y-99467797D01*
X155812687Y-99433339D01*
X155989313Y-99433339D01*
X156162546Y-99467797D01*
G37*
G36*
X160088975Y-98977032D02*
G01*
X160206879Y-99025869D01*
X160312990Y-99096770D01*
X160403230Y-99187010D01*
X160474131Y-99293121D01*
X160522968Y-99411025D01*
X160547865Y-99536191D01*
X160547865Y-99663809D01*
X160522968Y-99788975D01*
X160474131Y-99906879D01*
X160403230Y-100012990D01*
X160312990Y-100103230D01*
X160206879Y-100174131D01*
X160088975Y-100222968D01*
X159963809Y-100247865D01*
X159836191Y-100247865D01*
X159711025Y-100222968D01*
X159593121Y-100174131D01*
X159487010Y-100103230D01*
X159396770Y-100012990D01*
X159325869Y-99906879D01*
X159277032Y-99788975D01*
X159252135Y-99663809D01*
X159252135Y-99536191D01*
X159277032Y-99411025D01*
X159325869Y-99293121D01*
X159396770Y-99187010D01*
X159487010Y-99096770D01*
X159593121Y-99025869D01*
X159711025Y-98977032D01*
X159836191Y-98952135D01*
X159963809Y-98952135D01*
X160088975Y-98977032D01*
G37*
G36*
X132911546Y-96947797D02*
G01*
X133074728Y-97015389D01*
X133221588Y-97113518D01*
X133346482Y-97238412D01*
X133444611Y-97385272D01*
X133512203Y-97548454D01*
X133546661Y-97721687D01*
X133546661Y-97898313D01*
X133512203Y-98071546D01*
X133444611Y-98234728D01*
X133346482Y-98381588D01*
X133221588Y-98506482D01*
X133074728Y-98604611D01*
X132911546Y-98672203D01*
X132738313Y-98706661D01*
X132561687Y-98706661D01*
X132388454Y-98672203D01*
X132225272Y-98604611D01*
X132078412Y-98506482D01*
X131953518Y-98381588D01*
X131855389Y-98234728D01*
X131787797Y-98071546D01*
X131753339Y-97898313D01*
X131753339Y-97721687D01*
X131787797Y-97548454D01*
X131855389Y-97385272D01*
X131953518Y-97238412D01*
X132078412Y-97113518D01*
X132225272Y-97015389D01*
X132388454Y-96947797D01*
X132561687Y-96913339D01*
X132738313Y-96913339D01*
X132911546Y-96947797D01*
G37*
G36*
X156770517Y-96892882D02*
G01*
X156787062Y-96903938D01*
X156798118Y-96920483D01*
X156802000Y-96940000D01*
X156802000Y-98640000D01*
X156798118Y-98659517D01*
X156787062Y-98676062D01*
X156770517Y-98687118D01*
X156751000Y-98691000D01*
X155051000Y-98691000D01*
X155031483Y-98687118D01*
X155014938Y-98676062D01*
X155003882Y-98659517D01*
X155000000Y-98640000D01*
X155000000Y-96940000D01*
X155003882Y-96920483D01*
X155014938Y-96903938D01*
X155031483Y-96892882D01*
X155051000Y-96889000D01*
X156751000Y-96889000D01*
X156770517Y-96892882D01*
G37*
G36*
X160132518Y-96833491D02*
G01*
X160277589Y-96893581D01*
X160408149Y-96980819D01*
X160519181Y-97091851D01*
X160606419Y-97222411D01*
X160666509Y-97367482D01*
X160697143Y-97521488D01*
X160697143Y-97678512D01*
X160666509Y-97832518D01*
X160606419Y-97977589D01*
X160519181Y-98108149D01*
X160408149Y-98219181D01*
X160277589Y-98306419D01*
X160132518Y-98366509D01*
X159978512Y-98397143D01*
X159821488Y-98397143D01*
X159667482Y-98366509D01*
X159522411Y-98306419D01*
X159391851Y-98219181D01*
X159280819Y-98108149D01*
X159193581Y-97977589D01*
X159133491Y-97832518D01*
X159102857Y-97678512D01*
X159102857Y-97521488D01*
X159133491Y-97367482D01*
X159193581Y-97222411D01*
X159280819Y-97091851D01*
X159391851Y-96980819D01*
X159522411Y-96893581D01*
X159667482Y-96833491D01*
X159821488Y-96802857D01*
X159978512Y-96802857D01*
X160132518Y-96833491D01*
G37*
G36*
X164479517Y-93112882D02*
G01*
X164496062Y-93123938D01*
X164507118Y-93140483D01*
X164511000Y-93160000D01*
X164511000Y-94760000D01*
X164507118Y-94779517D01*
X164496062Y-94796062D01*
X164479517Y-94807118D01*
X164460000Y-94811000D01*
X162860000Y-94811000D01*
X162840483Y-94807118D01*
X162823938Y-94796062D01*
X162812882Y-94779517D01*
X162809000Y-94760000D01*
X162809000Y-93160000D01*
X162812882Y-93140483D01*
X162823938Y-93123938D01*
X162840483Y-93112882D01*
X162860000Y-93109000D01*
X164460000Y-93109000D01*
X164479517Y-93112882D01*
G37*
G36*
X135967032Y-93145644D02*
G01*
X136121159Y-93209485D01*
X136259869Y-93302168D01*
X136377832Y-93420131D01*
X136470515Y-93558841D01*
X136534356Y-93712968D01*
X136566902Y-93876587D01*
X136566902Y-94043413D01*
X136534356Y-94207032D01*
X136470515Y-94361159D01*
X136377832Y-94499869D01*
X136259869Y-94617832D01*
X136121159Y-94710515D01*
X135967032Y-94774356D01*
X135803413Y-94806902D01*
X135636587Y-94806902D01*
X135472968Y-94774356D01*
X135318841Y-94710515D01*
X135180131Y-94617832D01*
X135062168Y-94499869D01*
X134969485Y-94361159D01*
X134905644Y-94207032D01*
X134873098Y-94043413D01*
X134873098Y-93876587D01*
X134905644Y-93712968D01*
X134969485Y-93558841D01*
X135062168Y-93420131D01*
X135180131Y-93302168D01*
X135318841Y-93209485D01*
X135472968Y-93145644D01*
X135636587Y-93113098D01*
X135803413Y-93113098D01*
X135967032Y-93145644D01*
G37*
G36*
X138507032Y-93145644D02*
G01*
X138661159Y-93209485D01*
X138799869Y-93302168D01*
X138917832Y-93420131D01*
X139010515Y-93558841D01*
X139074356Y-93712968D01*
X139106902Y-93876587D01*
X139106902Y-94043413D01*
X139074356Y-94207032D01*
X139010515Y-94361159D01*
X138917832Y-94499869D01*
X138799869Y-94617832D01*
X138661159Y-94710515D01*
X138507032Y-94774356D01*
X138343413Y-94806902D01*
X138176587Y-94806902D01*
X138012968Y-94774356D01*
X137858841Y-94710515D01*
X137720131Y-94617832D01*
X137602168Y-94499869D01*
X137509485Y-94361159D01*
X137445644Y-94207032D01*
X137413098Y-94043413D01*
X137413098Y-93876587D01*
X137445644Y-93712968D01*
X137509485Y-93558841D01*
X137602168Y-93420131D01*
X137720131Y-93302168D01*
X137858841Y-93209485D01*
X138012968Y-93145644D01*
X138176587Y-93113098D01*
X138343413Y-93113098D01*
X138507032Y-93145644D01*
G37*
G36*
X141047032Y-93145644D02*
G01*
X141201159Y-93209485D01*
X141339869Y-93302168D01*
X141457832Y-93420131D01*
X141550515Y-93558841D01*
X141614356Y-93712968D01*
X141646902Y-93876587D01*
X141646902Y-94043413D01*
X141614356Y-94207032D01*
X141550515Y-94361159D01*
X141457832Y-94499869D01*
X141339869Y-94617832D01*
X141201159Y-94710515D01*
X141047032Y-94774356D01*
X140883413Y-94806902D01*
X140716587Y-94806902D01*
X140552968Y-94774356D01*
X140398841Y-94710515D01*
X140260131Y-94617832D01*
X140142168Y-94499869D01*
X140049485Y-94361159D01*
X139985644Y-94207032D01*
X139953098Y-94043413D01*
X139953098Y-93876587D01*
X139985644Y-93712968D01*
X140049485Y-93558841D01*
X140142168Y-93420131D01*
X140260131Y-93302168D01*
X140398841Y-93209485D01*
X140552968Y-93145644D01*
X140716587Y-93113098D01*
X140883413Y-93113098D01*
X141047032Y-93145644D01*
G37*
G36*
X143587032Y-93145644D02*
G01*
X143741159Y-93209485D01*
X143879869Y-93302168D01*
X143997832Y-93420131D01*
X144090515Y-93558841D01*
X144154356Y-93712968D01*
X144186902Y-93876587D01*
X144186902Y-94043413D01*
X144154356Y-94207032D01*
X144090515Y-94361159D01*
X143997832Y-94499869D01*
X143879869Y-94617832D01*
X143741159Y-94710515D01*
X143587032Y-94774356D01*
X143423413Y-94806902D01*
X143256587Y-94806902D01*
X143092968Y-94774356D01*
X142938841Y-94710515D01*
X142800131Y-94617832D01*
X142682168Y-94499869D01*
X142589485Y-94361159D01*
X142525644Y-94207032D01*
X142493098Y-94043413D01*
X142493098Y-93876587D01*
X142525644Y-93712968D01*
X142589485Y-93558841D01*
X142682168Y-93420131D01*
X142800131Y-93302168D01*
X142938841Y-93209485D01*
X143092968Y-93145644D01*
X143256587Y-93113098D01*
X143423413Y-93113098D01*
X143587032Y-93145644D01*
G37*
G36*
X146127032Y-93145644D02*
G01*
X146281159Y-93209485D01*
X146419869Y-93302168D01*
X146537832Y-93420131D01*
X146630515Y-93558841D01*
X146694356Y-93712968D01*
X146726902Y-93876587D01*
X146726902Y-94043413D01*
X146694356Y-94207032D01*
X146630515Y-94361159D01*
X146537832Y-94499869D01*
X146419869Y-94617832D01*
X146281159Y-94710515D01*
X146127032Y-94774356D01*
X145963413Y-94806902D01*
X145796587Y-94806902D01*
X145632968Y-94774356D01*
X145478841Y-94710515D01*
X145340131Y-94617832D01*
X145222168Y-94499869D01*
X145129485Y-94361159D01*
X145065644Y-94207032D01*
X145033098Y-94043413D01*
X145033098Y-93876587D01*
X145065644Y-93712968D01*
X145129485Y-93558841D01*
X145222168Y-93420131D01*
X145340131Y-93302168D01*
X145478841Y-93209485D01*
X145632968Y-93145644D01*
X145796587Y-93113098D01*
X145963413Y-93113098D01*
X146127032Y-93145644D01*
G37*
G36*
X148667032Y-93145644D02*
G01*
X148821159Y-93209485D01*
X148959869Y-93302168D01*
X149077832Y-93420131D01*
X149170515Y-93558841D01*
X149234356Y-93712968D01*
X149266902Y-93876587D01*
X149266902Y-94043413D01*
X149234356Y-94207032D01*
X149170515Y-94361159D01*
X149077832Y-94499869D01*
X148959869Y-94617832D01*
X148821159Y-94710515D01*
X148667032Y-94774356D01*
X148503413Y-94806902D01*
X148336587Y-94806902D01*
X148172968Y-94774356D01*
X148018841Y-94710515D01*
X147880131Y-94617832D01*
X147762168Y-94499869D01*
X147669485Y-94361159D01*
X147605644Y-94207032D01*
X147573098Y-94043413D01*
X147573098Y-93876587D01*
X147605644Y-93712968D01*
X147669485Y-93558841D01*
X147762168Y-93420131D01*
X147880131Y-93302168D01*
X148018841Y-93209485D01*
X148172968Y-93145644D01*
X148336587Y-93113098D01*
X148503413Y-93113098D01*
X148667032Y-93145644D01*
G37*
G36*
X151207032Y-93145644D02*
G01*
X151361159Y-93209485D01*
X151499869Y-93302168D01*
X151617832Y-93420131D01*
X151710515Y-93558841D01*
X151774356Y-93712968D01*
X151806902Y-93876587D01*
X151806902Y-94043413D01*
X151774356Y-94207032D01*
X151710515Y-94361159D01*
X151617832Y-94499869D01*
X151499869Y-94617832D01*
X151361159Y-94710515D01*
X151207032Y-94774356D01*
X151043413Y-94806902D01*
X150876587Y-94806902D01*
X150712968Y-94774356D01*
X150558841Y-94710515D01*
X150420131Y-94617832D01*
X150302168Y-94499869D01*
X150209485Y-94361159D01*
X150145644Y-94207032D01*
X150113098Y-94043413D01*
X150113098Y-93876587D01*
X150145644Y-93712968D01*
X150209485Y-93558841D01*
X150302168Y-93420131D01*
X150420131Y-93302168D01*
X150558841Y-93209485D01*
X150712968Y-93145644D01*
X150876587Y-93113098D01*
X151043413Y-93113098D01*
X151207032Y-93145644D01*
G37*
G36*
X153747032Y-93145644D02*
G01*
X153901159Y-93209485D01*
X154039869Y-93302168D01*
X154157832Y-93420131D01*
X154250515Y-93558841D01*
X154314356Y-93712968D01*
X154346902Y-93876587D01*
X154346902Y-94043413D01*
X154314356Y-94207032D01*
X154250515Y-94361159D01*
X154157832Y-94499869D01*
X154039869Y-94617832D01*
X153901159Y-94710515D01*
X153747032Y-94774356D01*
X153583413Y-94806902D01*
X153416587Y-94806902D01*
X153252968Y-94774356D01*
X153098841Y-94710515D01*
X152960131Y-94617832D01*
X152842168Y-94499869D01*
X152749485Y-94361159D01*
X152685644Y-94207032D01*
X152653098Y-94043413D01*
X152653098Y-93876587D01*
X152685644Y-93712968D01*
X152749485Y-93558841D01*
X152842168Y-93420131D01*
X152960131Y-93302168D01*
X153098841Y-93209485D01*
X153252968Y-93145644D01*
X153416587Y-93113098D01*
X153583413Y-93113098D01*
X153747032Y-93145644D01*
G37*
G36*
X156287032Y-93145644D02*
G01*
X156441159Y-93209485D01*
X156579869Y-93302168D01*
X156697832Y-93420131D01*
X156790515Y-93558841D01*
X156854356Y-93712968D01*
X156886902Y-93876587D01*
X156886902Y-94043413D01*
X156854356Y-94207032D01*
X156790515Y-94361159D01*
X156697832Y-94499869D01*
X156579869Y-94617832D01*
X156441159Y-94710515D01*
X156287032Y-94774356D01*
X156123413Y-94806902D01*
X155956587Y-94806902D01*
X155792968Y-94774356D01*
X155638841Y-94710515D01*
X155500131Y-94617832D01*
X155382168Y-94499869D01*
X155289485Y-94361159D01*
X155225644Y-94207032D01*
X155193098Y-94043413D01*
X155193098Y-93876587D01*
X155225644Y-93712968D01*
X155289485Y-93558841D01*
X155382168Y-93420131D01*
X155500131Y-93302168D01*
X155638841Y-93209485D01*
X155792968Y-93145644D01*
X155956587Y-93113098D01*
X156123413Y-93113098D01*
X156287032Y-93145644D01*
G37*
G36*
X158827032Y-93145644D02*
G01*
X158981159Y-93209485D01*
X159119869Y-93302168D01*
X159237832Y-93420131D01*
X159330515Y-93558841D01*
X159394356Y-93712968D01*
X159426902Y-93876587D01*
X159426902Y-94043413D01*
X159394356Y-94207032D01*
X159330515Y-94361159D01*
X159237832Y-94499869D01*
X159119869Y-94617832D01*
X158981159Y-94710515D01*
X158827032Y-94774356D01*
X158663413Y-94806902D01*
X158496587Y-94806902D01*
X158332968Y-94774356D01*
X158178841Y-94710515D01*
X158040131Y-94617832D01*
X157922168Y-94499869D01*
X157829485Y-94361159D01*
X157765644Y-94207032D01*
X157733098Y-94043413D01*
X157733098Y-93876587D01*
X157765644Y-93712968D01*
X157829485Y-93558841D01*
X157922168Y-93420131D01*
X158040131Y-93302168D01*
X158178841Y-93209485D01*
X158332968Y-93145644D01*
X158496587Y-93113098D01*
X158663413Y-93113098D01*
X158827032Y-93145644D01*
G37*
G36*
X161367032Y-93145644D02*
G01*
X161521159Y-93209485D01*
X161659869Y-93302168D01*
X161777832Y-93420131D01*
X161870515Y-93558841D01*
X161934356Y-93712968D01*
X161966902Y-93876587D01*
X161966902Y-94043413D01*
X161934356Y-94207032D01*
X161870515Y-94361159D01*
X161777832Y-94499869D01*
X161659869Y-94617832D01*
X161521159Y-94710515D01*
X161367032Y-94774356D01*
X161203413Y-94806902D01*
X161036587Y-94806902D01*
X160872968Y-94774356D01*
X160718841Y-94710515D01*
X160580131Y-94617832D01*
X160462168Y-94499869D01*
X160369485Y-94361159D01*
X160305644Y-94207032D01*
X160273098Y-94043413D01*
X160273098Y-93876587D01*
X160305644Y-93712968D01*
X160369485Y-93558841D01*
X160462168Y-93420131D01*
X160580131Y-93302168D01*
X160718841Y-93209485D01*
X160872968Y-93145644D01*
X161036587Y-93113098D01*
X161203413Y-93113098D01*
X161367032Y-93145644D01*
G37*
G36*
X161632518Y-89583491D02*
G01*
X161777589Y-89643581D01*
X161908149Y-89730819D01*
X162019181Y-89841851D01*
X162106419Y-89972411D01*
X162166509Y-90117482D01*
X162197143Y-90271488D01*
X162197143Y-90428512D01*
X162166509Y-90582518D01*
X162106419Y-90727589D01*
X162019181Y-90858149D01*
X161908149Y-90969181D01*
X161777589Y-91056419D01*
X161632518Y-91116509D01*
X161478512Y-91147143D01*
X161321488Y-91147143D01*
X161167482Y-91116509D01*
X161022411Y-91056419D01*
X160891851Y-90969181D01*
X160780819Y-90858149D01*
X160693581Y-90727589D01*
X160633491Y-90582518D01*
X160602857Y-90428512D01*
X160602857Y-90271488D01*
X160633491Y-90117482D01*
X160693581Y-89972411D01*
X160780819Y-89841851D01*
X160891851Y-89730819D01*
X161022411Y-89643581D01*
X161167482Y-89583491D01*
X161321488Y-89552857D01*
X161478512Y-89552857D01*
X161632518Y-89583491D01*
G37*
G36*
X145919517Y-86577882D02*
G01*
X145936062Y-86588938D01*
X145947118Y-86605483D01*
X145951000Y-86625000D01*
X145951000Y-89425000D01*
X145947118Y-89444517D01*
X145936062Y-89461062D01*
X145919517Y-89472118D01*
X145900000Y-89476000D01*
X144900000Y-89476000D01*
X144880483Y-89472118D01*
X144863938Y-89461062D01*
X144852882Y-89444517D01*
X144849000Y-89425000D01*
X144849000Y-86625000D01*
X144852882Y-86605483D01*
X144863938Y-86588938D01*
X144880483Y-86577882D01*
X144900000Y-86574000D01*
X145900000Y-86574000D01*
X145919517Y-86577882D01*
G37*
G36*
X149919517Y-86577882D02*
G01*
X149936062Y-86588938D01*
X149947118Y-86605483D01*
X149951000Y-86625000D01*
X149951000Y-89425000D01*
X149947118Y-89444517D01*
X149936062Y-89461062D01*
X149919517Y-89472118D01*
X149900000Y-89476000D01*
X148900000Y-89476000D01*
X148880483Y-89472118D01*
X148863938Y-89461062D01*
X148852882Y-89444517D01*
X148849000Y-89425000D01*
X148849000Y-86625000D01*
X148852882Y-86605483D01*
X148863938Y-86588938D01*
X148880483Y-86577882D01*
X148900000Y-86574000D01*
X149900000Y-86574000D01*
X149919517Y-86577882D01*
G37*
G36*
X152919517Y-86577882D02*
G01*
X152936062Y-86588938D01*
X152947118Y-86605483D01*
X152951000Y-86625000D01*
X152951000Y-89425000D01*
X152947118Y-89444517D01*
X152936062Y-89461062D01*
X152919517Y-89472118D01*
X152900000Y-89476000D01*
X151900000Y-89476000D01*
X151880483Y-89472118D01*
X151863938Y-89461062D01*
X151852882Y-89444517D01*
X151849000Y-89425000D01*
X151849000Y-86625000D01*
X151852882Y-86605483D01*
X151863938Y-86588938D01*
X151880483Y-86577882D01*
X151900000Y-86574000D01*
X152900000Y-86574000D01*
X152919517Y-86577882D01*
G37*
G36*
X156919517Y-86577882D02*
G01*
X156936062Y-86588938D01*
X156947118Y-86605483D01*
X156951000Y-86625000D01*
X156951000Y-89425000D01*
X156947118Y-89444517D01*
X156936062Y-89461062D01*
X156919517Y-89472118D01*
X156900000Y-89476000D01*
X155900000Y-89476000D01*
X155880483Y-89472118D01*
X155863938Y-89461062D01*
X155852882Y-89444517D01*
X155849000Y-89425000D01*
X155849000Y-86625000D01*
X155852882Y-86605483D01*
X155863938Y-86588938D01*
X155880483Y-86577882D01*
X155900000Y-86574000D01*
X156900000Y-86574000D01*
X156919517Y-86577882D01*
G37*
G36*
X161603490Y-87679185D02*
G01*
X161730449Y-87731773D01*
X161844710Y-87808120D01*
X161941880Y-87905290D01*
X162018227Y-88019551D01*
X162070815Y-88146510D01*
X162097624Y-88281290D01*
X162097624Y-88418710D01*
X162070815Y-88553490D01*
X162018227Y-88680449D01*
X161941880Y-88794710D01*
X161844710Y-88891880D01*
X161730449Y-88968227D01*
X161603490Y-89020815D01*
X161468710Y-89047624D01*
X161331290Y-89047624D01*
X161196510Y-89020815D01*
X161069551Y-88968227D01*
X160955290Y-88891880D01*
X160858120Y-88794710D01*
X160781773Y-88680449D01*
X160729185Y-88553490D01*
X160702376Y-88418710D01*
X160702376Y-88281290D01*
X160729185Y-88146510D01*
X160781773Y-88019551D01*
X160858120Y-87905290D01*
X160955290Y-87808120D01*
X161069551Y-87731773D01*
X161196510Y-87679185D01*
X161331290Y-87652376D01*
X161468710Y-87652376D01*
X161603490Y-87679185D01*
G37*
G36*
X115087308Y-83645043D02*
G01*
X115366207Y-83708700D01*
X115636225Y-83803183D01*
X115893967Y-83927305D01*
X116136190Y-84079504D01*
X116359850Y-84257867D01*
X116562133Y-84460150D01*
X116740496Y-84683810D01*
X116892695Y-84926033D01*
X117016817Y-85183775D01*
X117111300Y-85453793D01*
X117174957Y-85732692D01*
X117206987Y-86016964D01*
X117206987Y-86303036D01*
X117174957Y-86587308D01*
X117111300Y-86866207D01*
X117016817Y-87136225D01*
X116892695Y-87393967D01*
X116740496Y-87636190D01*
X116562133Y-87859850D01*
X116359850Y-88062133D01*
X116136190Y-88240496D01*
X115893967Y-88392695D01*
X115636225Y-88516817D01*
X115366207Y-88611300D01*
X115087308Y-88674957D01*
X114803036Y-88706987D01*
X114516964Y-88706987D01*
X114232692Y-88674957D01*
X113953793Y-88611300D01*
X113683775Y-88516817D01*
X113426033Y-88392695D01*
X113183810Y-88240496D01*
X112960150Y-88062133D01*
X112757867Y-87859850D01*
X112579504Y-87636190D01*
X112427305Y-87393967D01*
X112303183Y-87136225D01*
X112208700Y-86866207D01*
X112145043Y-86587308D01*
X112113013Y-86303036D01*
X112113013Y-86016964D01*
X112145043Y-85732692D01*
X112208700Y-85453793D01*
X112303183Y-85183775D01*
X112427305Y-84926033D01*
X112579504Y-84683810D01*
X112757867Y-84460150D01*
X112960150Y-84257867D01*
X113183810Y-84079504D01*
X113426033Y-83927305D01*
X113683775Y-83803183D01*
X113953793Y-83708700D01*
X114232692Y-83645043D01*
X114516964Y-83613013D01*
X114803036Y-83613013D01*
X115087308Y-83645043D01*
G37*
G36*
X130661546Y-85817797D02*
G01*
X130824728Y-85885389D01*
X130971588Y-85983518D01*
X131096482Y-86108412D01*
X131194611Y-86255272D01*
X131262203Y-86418454D01*
X131296661Y-86591687D01*
X131296661Y-86768313D01*
X131262203Y-86941546D01*
X131194611Y-87104728D01*
X131096482Y-87251588D01*
X130971588Y-87376482D01*
X130824728Y-87474611D01*
X130661546Y-87542203D01*
X130488313Y-87576661D01*
X130311687Y-87576661D01*
X130138454Y-87542203D01*
X129975272Y-87474611D01*
X129828412Y-87376482D01*
X129703518Y-87251588D01*
X129605389Y-87104728D01*
X129537797Y-86941546D01*
X129503339Y-86768313D01*
X129503339Y-86591687D01*
X129537797Y-86418454D01*
X129605389Y-86255272D01*
X129703518Y-86108412D01*
X129828412Y-85983518D01*
X129975272Y-85885389D01*
X130138454Y-85817797D01*
X130311687Y-85783339D01*
X130488313Y-85783339D01*
X130661546Y-85817797D01*
G37*
G36*
X161603490Y-85679185D02*
G01*
X161730449Y-85731773D01*
X161844710Y-85808120D01*
X161941880Y-85905290D01*
X162018227Y-86019551D01*
X162070815Y-86146510D01*
X162097624Y-86281290D01*
X162097624Y-86418710D01*
X162070815Y-86553490D01*
X162018227Y-86680449D01*
X161941880Y-86794710D01*
X161844710Y-86891880D01*
X161730449Y-86968227D01*
X161603490Y-87020815D01*
X161468710Y-87047624D01*
X161331290Y-87047624D01*
X161196510Y-87020815D01*
X161069551Y-86968227D01*
X160955290Y-86891880D01*
X160858120Y-86794710D01*
X160781773Y-86680449D01*
X160729185Y-86553490D01*
X160702376Y-86418710D01*
X160702376Y-86281290D01*
X160729185Y-86146510D01*
X160781773Y-86019551D01*
X160858120Y-85905290D01*
X160955290Y-85808120D01*
X161069551Y-85731773D01*
X161196510Y-85679185D01*
X161331290Y-85652376D01*
X161468710Y-85652376D01*
X161603490Y-85679185D01*
G37*
G36*
X130661546Y-83277797D02*
G01*
X130824728Y-83345389D01*
X130971588Y-83443518D01*
X131096482Y-83568412D01*
X131194611Y-83715272D01*
X131262203Y-83878454D01*
X131296661Y-84051687D01*
X131296661Y-84228313D01*
X131262203Y-84401546D01*
X131194611Y-84564728D01*
X131096482Y-84711588D01*
X130971588Y-84836482D01*
X130824728Y-84934611D01*
X130661546Y-85002203D01*
X130488313Y-85036661D01*
X130311687Y-85036661D01*
X130138454Y-85002203D01*
X129975272Y-84934611D01*
X129828412Y-84836482D01*
X129703518Y-84711588D01*
X129605389Y-84564728D01*
X129537797Y-84401546D01*
X129503339Y-84228313D01*
X129503339Y-84051687D01*
X129537797Y-83878454D01*
X129605389Y-83715272D01*
X129703518Y-83568412D01*
X129828412Y-83443518D01*
X129975272Y-83345389D01*
X130138454Y-83277797D01*
X130311687Y-83243339D01*
X130488313Y-83243339D01*
X130661546Y-83277797D01*
G37*
G36*
X161588975Y-83727032D02*
G01*
X161706879Y-83775869D01*
X161812990Y-83846770D01*
X161903230Y-83937010D01*
X161974131Y-84043121D01*
X162022968Y-84161025D01*
X162047865Y-84286191D01*
X162047865Y-84413809D01*
X162022968Y-84538975D01*
X161974131Y-84656879D01*
X161903230Y-84762990D01*
X161812990Y-84853230D01*
X161706879Y-84924131D01*
X161588975Y-84972968D01*
X161463809Y-84997865D01*
X161336191Y-84997865D01*
X161211025Y-84972968D01*
X161093121Y-84924131D01*
X160987010Y-84853230D01*
X160896770Y-84762990D01*
X160825869Y-84656879D01*
X160777032Y-84538975D01*
X160752135Y-84413809D01*
X160752135Y-84286191D01*
X160777032Y-84161025D01*
X160825869Y-84043121D01*
X160896770Y-83937010D01*
X160987010Y-83846770D01*
X161093121Y-83775869D01*
X161211025Y-83727032D01*
X161336191Y-83702135D01*
X161463809Y-83702135D01*
X161588975Y-83727032D01*
G37*
G36*
X145919517Y-80777882D02*
G01*
X145936062Y-80788938D01*
X145947118Y-80805483D01*
X145951000Y-80825000D01*
X145951000Y-83625000D01*
X145947118Y-83644517D01*
X145936062Y-83661062D01*
X145919517Y-83672118D01*
X145900000Y-83676000D01*
X144900000Y-83676000D01*
X144880483Y-83672118D01*
X144863938Y-83661062D01*
X144852882Y-83644517D01*
X144849000Y-83625000D01*
X144849000Y-80825000D01*
X144852882Y-80805483D01*
X144863938Y-80788938D01*
X144880483Y-80777882D01*
X144900000Y-80774000D01*
X145900000Y-80774000D01*
X145919517Y-80777882D01*
G37*
G36*
X149919517Y-80777882D02*
G01*
X149936062Y-80788938D01*
X149947118Y-80805483D01*
X149951000Y-80825000D01*
X149951000Y-83625000D01*
X149947118Y-83644517D01*
X149936062Y-83661062D01*
X149919517Y-83672118D01*
X149900000Y-83676000D01*
X148900000Y-83676000D01*
X148880483Y-83672118D01*
X148863938Y-83661062D01*
X148852882Y-83644517D01*
X148849000Y-83625000D01*
X148849000Y-80825000D01*
X148852882Y-80805483D01*
X148863938Y-80788938D01*
X148880483Y-80777882D01*
X148900000Y-80774000D01*
X149900000Y-80774000D01*
X149919517Y-80777882D01*
G37*
G36*
X152919517Y-80777882D02*
G01*
X152936062Y-80788938D01*
X152947118Y-80805483D01*
X152951000Y-80825000D01*
X152951000Y-83625000D01*
X152947118Y-83644517D01*
X152936062Y-83661062D01*
X152919517Y-83672118D01*
X152900000Y-83676000D01*
X151900000Y-83676000D01*
X151880483Y-83672118D01*
X151863938Y-83661062D01*
X151852882Y-83644517D01*
X151849000Y-83625000D01*
X151849000Y-80825000D01*
X151852882Y-80805483D01*
X151863938Y-80788938D01*
X151880483Y-80777882D01*
X151900000Y-80774000D01*
X152900000Y-80774000D01*
X152919517Y-80777882D01*
G37*
G36*
X156919517Y-80777882D02*
G01*
X156936062Y-80788938D01*
X156947118Y-80805483D01*
X156951000Y-80825000D01*
X156951000Y-83625000D01*
X156947118Y-83644517D01*
X156936062Y-83661062D01*
X156919517Y-83672118D01*
X156900000Y-83676000D01*
X155900000Y-83676000D01*
X155880483Y-83672118D01*
X155863938Y-83661062D01*
X155852882Y-83644517D01*
X155849000Y-83625000D01*
X155849000Y-80825000D01*
X155852882Y-80805483D01*
X155863938Y-80788938D01*
X155880483Y-80777882D01*
X155900000Y-80774000D01*
X156900000Y-80774000D01*
X156919517Y-80777882D01*
G37*
G36*
X161632518Y-81583491D02*
G01*
X161777589Y-81643581D01*
X161908149Y-81730819D01*
X162019181Y-81841851D01*
X162106419Y-81972411D01*
X162166509Y-82117482D01*
X162197143Y-82271488D01*
X162197143Y-82428512D01*
X162166509Y-82582518D01*
X162106419Y-82727589D01*
X162019181Y-82858149D01*
X161908149Y-82969181D01*
X161777589Y-83056419D01*
X161632518Y-83116509D01*
X161478512Y-83147143D01*
X161321488Y-83147143D01*
X161167482Y-83116509D01*
X161022411Y-83056419D01*
X160891851Y-82969181D01*
X160780819Y-82858149D01*
X160693581Y-82727589D01*
X160633491Y-82582518D01*
X160602857Y-82428512D01*
X160602857Y-82271488D01*
X160633491Y-82117482D01*
X160693581Y-81972411D01*
X160780819Y-81841851D01*
X160891851Y-81730819D01*
X161022411Y-81643581D01*
X161167482Y-81583491D01*
X161321488Y-81552857D01*
X161478512Y-81552857D01*
X161632518Y-81583491D01*
G37*
G36*
X131269517Y-80702882D02*
G01*
X131286062Y-80713938D01*
X131297118Y-80730483D01*
X131301000Y-80750000D01*
X131301000Y-82450000D01*
X131297118Y-82469517D01*
X131286062Y-82486062D01*
X131269517Y-82497118D01*
X131250000Y-82501000D01*
X129550000Y-82501000D01*
X129530483Y-82497118D01*
X129513938Y-82486062D01*
X129502882Y-82469517D01*
X129499000Y-82450000D01*
X129499000Y-80750000D01*
X129502882Y-80730483D01*
X129513938Y-80713938D01*
X129530483Y-80702882D01*
X129550000Y-80699000D01*
X131250000Y-80699000D01*
X131269517Y-80702882D01*
G37*
G36*
X115429700Y-79945951D02*
G01*
X115592882Y-80013543D01*
X115739742Y-80111672D01*
X115864636Y-80236566D01*
X115962765Y-80383426D01*
X116030357Y-80546608D01*
X116064815Y-80719841D01*
X116064815Y-80896467D01*
X116030357Y-81069700D01*
X115962765Y-81232882D01*
X115864636Y-81379742D01*
X115739742Y-81504636D01*
X115592882Y-81602765D01*
X115429700Y-81670357D01*
X115256467Y-81704815D01*
X115079841Y-81704815D01*
X114906608Y-81670357D01*
X114743426Y-81602765D01*
X114596566Y-81504636D01*
X114471672Y-81379742D01*
X114373543Y-81232882D01*
X114305951Y-81069700D01*
X114271493Y-80896467D01*
X114271493Y-80719841D01*
X114305951Y-80546608D01*
X114373543Y-80383426D01*
X114471672Y-80236566D01*
X114596566Y-80111672D01*
X114743426Y-80013543D01*
X114906608Y-79945951D01*
X115079841Y-79911493D01*
X115256467Y-79911493D01*
X115429700Y-79945951D01*
G37*
G36*
X113633648Y-78149899D02*
G01*
X113796830Y-78217491D01*
X113943690Y-78315620D01*
X114068584Y-78440514D01*
X114166713Y-78587374D01*
X114234305Y-78750556D01*
X114268763Y-78923789D01*
X114268763Y-79100415D01*
X114234305Y-79273648D01*
X114166713Y-79436830D01*
X114068584Y-79583690D01*
X113943690Y-79708584D01*
X113796830Y-79806713D01*
X113633648Y-79874305D01*
X113460415Y-79908763D01*
X113283789Y-79908763D01*
X113110556Y-79874305D01*
X112947374Y-79806713D01*
X112800514Y-79708584D01*
X112675620Y-79583690D01*
X112577491Y-79436830D01*
X112509899Y-79273648D01*
X112475441Y-79100415D01*
X112475441Y-78923789D01*
X112509899Y-78750556D01*
X112577491Y-78587374D01*
X112675620Y-78440514D01*
X112800514Y-78315620D01*
X112947374Y-78217491D01*
X113110556Y-78149899D01*
X113283789Y-78115441D01*
X113460415Y-78115441D01*
X113633648Y-78149899D01*
G37*
G36*
X121077517Y-76318882D02*
G01*
X121094062Y-76329938D01*
X121105118Y-76346483D01*
X121109000Y-76366000D01*
X121109000Y-78066000D01*
X121105118Y-78085517D01*
X121094062Y-78102062D01*
X121077517Y-78113118D01*
X121058000Y-78117000D01*
X119358000Y-78117000D01*
X119338483Y-78113118D01*
X119321938Y-78102062D01*
X119310882Y-78085517D01*
X119307000Y-78066000D01*
X119307000Y-76366000D01*
X119310882Y-76346483D01*
X119321938Y-76329938D01*
X119338483Y-76318882D01*
X119358000Y-76315000D01*
X121058000Y-76315000D01*
X121077517Y-76318882D01*
G37*
G36*
X156637517Y-76318882D02*
G01*
X156654062Y-76329938D01*
X156665118Y-76346483D01*
X156669000Y-76366000D01*
X156669000Y-78066000D01*
X156665118Y-78085517D01*
X156654062Y-78102062D01*
X156637517Y-78113118D01*
X156618000Y-78117000D01*
X154918000Y-78117000D01*
X154898483Y-78113118D01*
X154881938Y-78102062D01*
X154870882Y-78085517D01*
X154867000Y-78066000D01*
X154867000Y-76366000D01*
X154870882Y-76346483D01*
X154881938Y-76329938D01*
X154898483Y-76318882D01*
X154918000Y-76315000D01*
X156618000Y-76315000D01*
X156637517Y-76318882D01*
G37*
G36*
X111837597Y-76353848D02*
G01*
X112000779Y-76421440D01*
X112147639Y-76519569D01*
X112272533Y-76644463D01*
X112370662Y-76791323D01*
X112438254Y-76954505D01*
X112472712Y-77127738D01*
X112472712Y-77304364D01*
X112438254Y-77477597D01*
X112370662Y-77640779D01*
X112272533Y-77787639D01*
X112147639Y-77912533D01*
X112000779Y-78010662D01*
X111837597Y-78078254D01*
X111664364Y-78112712D01*
X111487738Y-78112712D01*
X111314505Y-78078254D01*
X111151323Y-78010662D01*
X111004463Y-77912533D01*
X110879569Y-77787639D01*
X110781440Y-77640779D01*
X110713848Y-77477597D01*
X110679390Y-77304364D01*
X110679390Y-77127738D01*
X110713848Y-76954505D01*
X110781440Y-76791323D01*
X110879569Y-76644463D01*
X111004463Y-76519569D01*
X111151323Y-76421440D01*
X111314505Y-76353848D01*
X111487738Y-76319390D01*
X111664364Y-76319390D01*
X111837597Y-76353848D01*
G37*
G36*
X123009546Y-76353797D02*
G01*
X123172728Y-76421389D01*
X123319588Y-76519518D01*
X123444482Y-76644412D01*
X123542611Y-76791272D01*
X123610203Y-76954454D01*
X123644661Y-77127687D01*
X123644661Y-77304313D01*
X123610203Y-77477546D01*
X123542611Y-77640728D01*
X123444482Y-77787588D01*
X123319588Y-77912482D01*
X123172728Y-78010611D01*
X123009546Y-78078203D01*
X122836313Y-78112661D01*
X122659687Y-78112661D01*
X122486454Y-78078203D01*
X122323272Y-78010611D01*
X122176412Y-77912482D01*
X122051518Y-77787588D01*
X121953389Y-77640728D01*
X121885797Y-77477546D01*
X121851339Y-77304313D01*
X121851339Y-77127687D01*
X121885797Y-76954454D01*
X121953389Y-76791272D01*
X122051518Y-76644412D01*
X122176412Y-76519518D01*
X122323272Y-76421389D01*
X122486454Y-76353797D01*
X122659687Y-76319339D01*
X122836313Y-76319339D01*
X123009546Y-76353797D01*
G37*
G36*
X125549546Y-76353797D02*
G01*
X125712728Y-76421389D01*
X125859588Y-76519518D01*
X125984482Y-76644412D01*
X126082611Y-76791272D01*
X126150203Y-76954454D01*
X126184661Y-77127687D01*
X126184661Y-77304313D01*
X126150203Y-77477546D01*
X126082611Y-77640728D01*
X125984482Y-77787588D01*
X125859588Y-77912482D01*
X125712728Y-78010611D01*
X125549546Y-78078203D01*
X125376313Y-78112661D01*
X125199687Y-78112661D01*
X125026454Y-78078203D01*
X124863272Y-78010611D01*
X124716412Y-77912482D01*
X124591518Y-77787588D01*
X124493389Y-77640728D01*
X124425797Y-77477546D01*
X124391339Y-77304313D01*
X124391339Y-77127687D01*
X124425797Y-76954454D01*
X124493389Y-76791272D01*
X124591518Y-76644412D01*
X124716412Y-76519518D01*
X124863272Y-76421389D01*
X125026454Y-76353797D01*
X125199687Y-76319339D01*
X125376313Y-76319339D01*
X125549546Y-76353797D01*
G37*
G36*
X128089546Y-76353797D02*
G01*
X128252728Y-76421389D01*
X128399588Y-76519518D01*
X128524482Y-76644412D01*
X128622611Y-76791272D01*
X128690203Y-76954454D01*
X128724661Y-77127687D01*
X128724661Y-77304313D01*
X128690203Y-77477546D01*
X128622611Y-77640728D01*
X128524482Y-77787588D01*
X128399588Y-77912482D01*
X128252728Y-78010611D01*
X128089546Y-78078203D01*
X127916313Y-78112661D01*
X127739687Y-78112661D01*
X127566454Y-78078203D01*
X127403272Y-78010611D01*
X127256412Y-77912482D01*
X127131518Y-77787588D01*
X127033389Y-77640728D01*
X126965797Y-77477546D01*
X126931339Y-77304313D01*
X126931339Y-77127687D01*
X126965797Y-76954454D01*
X127033389Y-76791272D01*
X127131518Y-76644412D01*
X127256412Y-76519518D01*
X127403272Y-76421389D01*
X127566454Y-76353797D01*
X127739687Y-76319339D01*
X127916313Y-76319339D01*
X128089546Y-76353797D01*
G37*
G36*
X148409546Y-76353797D02*
G01*
X148572728Y-76421389D01*
X148719588Y-76519518D01*
X148844482Y-76644412D01*
X148942611Y-76791272D01*
X149010203Y-76954454D01*
X149044661Y-77127687D01*
X149044661Y-77304313D01*
X149010203Y-77477546D01*
X148942611Y-77640728D01*
X148844482Y-77787588D01*
X148719588Y-77912482D01*
X148572728Y-78010611D01*
X148409546Y-78078203D01*
X148236313Y-78112661D01*
X148059687Y-78112661D01*
X147886454Y-78078203D01*
X147723272Y-78010611D01*
X147576412Y-77912482D01*
X147451518Y-77787588D01*
X147353389Y-77640728D01*
X147285797Y-77477546D01*
X147251339Y-77304313D01*
X147251339Y-77127687D01*
X147285797Y-76954454D01*
X147353389Y-76791272D01*
X147451518Y-76644412D01*
X147576412Y-76519518D01*
X147723272Y-76421389D01*
X147886454Y-76353797D01*
X148059687Y-76319339D01*
X148236313Y-76319339D01*
X148409546Y-76353797D01*
G37*
G36*
X150949546Y-76353797D02*
G01*
X151112728Y-76421389D01*
X151259588Y-76519518D01*
X151384482Y-76644412D01*
X151482611Y-76791272D01*
X151550203Y-76954454D01*
X151584661Y-77127687D01*
X151584661Y-77304313D01*
X151550203Y-77477546D01*
X151482611Y-77640728D01*
X151384482Y-77787588D01*
X151259588Y-77912482D01*
X151112728Y-78010611D01*
X150949546Y-78078203D01*
X150776313Y-78112661D01*
X150599687Y-78112661D01*
X150426454Y-78078203D01*
X150263272Y-78010611D01*
X150116412Y-77912482D01*
X149991518Y-77787588D01*
X149893389Y-77640728D01*
X149825797Y-77477546D01*
X149791339Y-77304313D01*
X149791339Y-77127687D01*
X149825797Y-76954454D01*
X149893389Y-76791272D01*
X149991518Y-76644412D01*
X150116412Y-76519518D01*
X150263272Y-76421389D01*
X150426454Y-76353797D01*
X150599687Y-76319339D01*
X150776313Y-76319339D01*
X150949546Y-76353797D01*
G37*
G36*
X153489546Y-76353797D02*
G01*
X153652728Y-76421389D01*
X153799588Y-76519518D01*
X153924482Y-76644412D01*
X154022611Y-76791272D01*
X154090203Y-76954454D01*
X154124661Y-77127687D01*
X154124661Y-77304313D01*
X154090203Y-77477546D01*
X154022611Y-77640728D01*
X153924482Y-77787588D01*
X153799588Y-77912482D01*
X153652728Y-78010611D01*
X153489546Y-78078203D01*
X153316313Y-78112661D01*
X153139687Y-78112661D01*
X152966454Y-78078203D01*
X152803272Y-78010611D01*
X152656412Y-77912482D01*
X152531518Y-77787588D01*
X152433389Y-77640728D01*
X152365797Y-77477546D01*
X152331339Y-77304313D01*
X152331339Y-77127687D01*
X152365797Y-76954454D01*
X152433389Y-76791272D01*
X152531518Y-76644412D01*
X152656412Y-76519518D01*
X152803272Y-76421389D01*
X152966454Y-76353797D01*
X153139687Y-76319339D01*
X153316313Y-76319339D01*
X153489546Y-76353797D01*
G37*
G36*
X109799517Y-74170800D02*
G01*
X109816062Y-74181856D01*
X111018144Y-75383938D01*
X111029200Y-75400483D01*
X111033081Y-75420000D01*
X111029200Y-75439517D01*
X111018144Y-75456062D01*
X109816062Y-76658144D01*
X109799517Y-76669200D01*
X109780000Y-76673081D01*
X109760483Y-76669200D01*
X109743938Y-76658144D01*
X108541856Y-75456062D01*
X108530800Y-75439517D01*
X108526919Y-75420000D01*
X108530800Y-75400483D01*
X108541856Y-75383938D01*
X109142897Y-74782897D01*
X109735233Y-74190560D01*
X109735236Y-74190557D01*
X109743938Y-74181856D01*
X109760483Y-74170800D01*
X109780000Y-74166919D01*
X109799517Y-74170800D01*
G37*
G36*
X115144432Y-64118424D02*
G01*
X115367501Y-64178195D01*
X115580861Y-64266571D01*
X115780859Y-64382040D01*
X115964075Y-64522627D01*
X116127373Y-64685925D01*
X116267960Y-64869141D01*
X116383429Y-65069139D01*
X116471805Y-65282499D01*
X116531576Y-65505568D01*
X116561720Y-65734531D01*
X116561720Y-65965469D01*
X116531576Y-66194432D01*
X116471805Y-66417501D01*
X116383429Y-66630861D01*
X116267960Y-66830859D01*
X116127373Y-67014075D01*
X115964075Y-67177373D01*
X115780859Y-67317960D01*
X115580861Y-67433429D01*
X115367501Y-67521805D01*
X115144432Y-67581576D01*
X114915469Y-67611720D01*
X114684531Y-67611720D01*
X114455568Y-67581576D01*
X114232499Y-67521805D01*
X114019139Y-67433429D01*
X113819141Y-67317960D01*
X113635925Y-67177373D01*
X113472627Y-67014075D01*
X113332040Y-66830859D01*
X113216571Y-66630861D01*
X113128195Y-66417501D01*
X113068424Y-66194432D01*
X113038280Y-65965469D01*
X113038280Y-65734531D01*
X113068424Y-65505568D01*
X113128195Y-65282499D01*
X113216571Y-65069139D01*
X113332040Y-64869141D01*
X113472627Y-64685925D01*
X113635925Y-64522627D01*
X113819141Y-64382040D01*
X114019139Y-64266571D01*
X114232499Y-64178195D01*
X114455568Y-64118424D01*
X114684531Y-64088280D01*
X114915469Y-64088280D01*
X115144432Y-64118424D01*
G37*
G36*
X109561808Y-64986936D02*
G01*
X109725153Y-65054595D01*
X109872159Y-65152822D01*
X109997178Y-65277841D01*
X110095405Y-65424847D01*
X110163064Y-65588192D01*
X110197557Y-65761598D01*
X110197557Y-65938402D01*
X110163064Y-66111808D01*
X110095405Y-66275153D01*
X109997178Y-66422159D01*
X109872159Y-66547178D01*
X109725153Y-66645405D01*
X109561808Y-66713064D01*
X109388402Y-66747557D01*
X109211598Y-66747557D01*
X109038192Y-66713064D01*
X108874847Y-66645405D01*
X108727841Y-66547178D01*
X108602822Y-66422159D01*
X108504595Y-66275153D01*
X108436936Y-66111808D01*
X108402443Y-65938402D01*
X108402443Y-65761598D01*
X108436936Y-65588192D01*
X108504595Y-65424847D01*
X108602822Y-65277841D01*
X108727841Y-65152822D01*
X108874847Y-65054595D01*
X109038192Y-64986936D01*
X109211598Y-64952443D01*
X109388402Y-64952443D01*
X109561808Y-64986936D01*
G37*
G36*
X120561808Y-64986936D02*
G01*
X120725153Y-65054595D01*
X120872159Y-65152822D01*
X120997178Y-65277841D01*
X121095405Y-65424847D01*
X121163064Y-65588192D01*
X121197557Y-65761598D01*
X121197557Y-65938402D01*
X121163064Y-66111808D01*
X121095405Y-66275153D01*
X120997178Y-66422159D01*
X120872159Y-66547178D01*
X120725153Y-66645405D01*
X120561808Y-66713064D01*
X120388402Y-66747557D01*
X120211598Y-66747557D01*
X120038192Y-66713064D01*
X119874847Y-66645405D01*
X119727841Y-66547178D01*
X119602822Y-66422159D01*
X119504595Y-66275153D01*
X119436936Y-66111808D01*
X119402443Y-65938402D01*
X119402443Y-65761598D01*
X119436936Y-65588192D01*
X119504595Y-65424847D01*
X119602822Y-65277841D01*
X119727841Y-65152822D01*
X119874847Y-65054595D01*
X120038192Y-64986936D01*
X120211598Y-64952443D01*
X120388402Y-64952443D01*
X120561808Y-64986936D01*
G37*
G36*
X119910482Y-60553781D02*
G01*
X119921690Y-60553781D01*
X119976888Y-60562523D01*
X120102534Y-60579065D01*
X120133189Y-60587279D01*
X120162074Y-60591854D01*
X120217620Y-60609902D01*
X120298467Y-60631565D01*
X120350050Y-60652931D01*
X120393542Y-60667063D01*
X120434286Y-60687823D01*
X120485870Y-60709190D01*
X120558353Y-60751038D01*
X120610395Y-60777555D01*
X120634055Y-60794745D01*
X120661539Y-60810613D01*
X120762074Y-60887756D01*
X120807294Y-60920610D01*
X120815219Y-60928535D01*
X120822466Y-60934096D01*
X120965903Y-61077533D01*
X120971463Y-61084779D01*
X120979390Y-61092706D01*
X121012247Y-61137930D01*
X121089386Y-61238460D01*
X121105252Y-61265941D01*
X121122445Y-61289605D01*
X121148964Y-61341652D01*
X121190809Y-61414129D01*
X121212173Y-61465706D01*
X121232937Y-61506458D01*
X121247070Y-61549955D01*
X121268434Y-61601532D01*
X121290093Y-61682366D01*
X121308146Y-61737926D01*
X121312721Y-61766816D01*
X121320934Y-61797465D01*
X121337474Y-61923099D01*
X121346219Y-61978310D01*
X121346219Y-61989518D01*
X121347412Y-61998580D01*
X121347412Y-62201419D01*
X121346219Y-62210480D01*
X121346219Y-62221690D01*
X121337473Y-62276905D01*
X121320934Y-62402534D01*
X121312722Y-62433180D01*
X121308146Y-62462074D01*
X121290091Y-62517638D01*
X121268434Y-62598467D01*
X121247071Y-62650039D01*
X121232937Y-62693542D01*
X121212171Y-62734297D01*
X121190809Y-62785870D01*
X121148968Y-62858338D01*
X121122445Y-62910395D01*
X121105249Y-62934062D01*
X121089386Y-62961539D01*
X121012261Y-63062050D01*
X120979390Y-63107294D01*
X120971459Y-63115224D01*
X120965903Y-63122466D01*
X120822466Y-63265903D01*
X120815224Y-63271459D01*
X120807294Y-63279390D01*
X120762050Y-63312261D01*
X120661539Y-63389386D01*
X120634062Y-63405249D01*
X120610395Y-63422445D01*
X120558338Y-63448968D01*
X120485870Y-63490809D01*
X120434297Y-63512171D01*
X120393542Y-63532937D01*
X120350039Y-63547071D01*
X120298467Y-63568434D01*
X120217638Y-63590091D01*
X120162074Y-63608146D01*
X120133180Y-63612722D01*
X120102534Y-63620934D01*
X119976902Y-63637474D01*
X119921690Y-63646219D01*
X119910481Y-63646219D01*
X119901420Y-63647412D01*
X119698580Y-63647412D01*
X119689519Y-63646219D01*
X119678310Y-63646219D01*
X119623099Y-63637474D01*
X119497465Y-63620934D01*
X119466816Y-63612721D01*
X119437926Y-63608146D01*
X119382366Y-63590093D01*
X119301532Y-63568434D01*
X119249955Y-63547070D01*
X119206458Y-63532937D01*
X119165706Y-63512173D01*
X119114129Y-63490809D01*
X119041652Y-63448964D01*
X118989605Y-63422445D01*
X118965941Y-63405252D01*
X118938460Y-63389386D01*
X118837930Y-63312247D01*
X118792706Y-63279390D01*
X118784779Y-63271463D01*
X118777533Y-63265903D01*
X118634096Y-63122466D01*
X118628535Y-63115219D01*
X118620610Y-63107294D01*
X118587756Y-63062074D01*
X118510613Y-62961539D01*
X118494745Y-62934055D01*
X118477555Y-62910395D01*
X118451038Y-62858353D01*
X118409190Y-62785870D01*
X118387823Y-62734286D01*
X118367063Y-62693542D01*
X118352931Y-62650050D01*
X118331565Y-62598467D01*
X118309902Y-62517620D01*
X118291854Y-62462074D01*
X118287279Y-62433189D01*
X118279065Y-62402534D01*
X118262524Y-62276891D01*
X118253781Y-62221690D01*
X118253781Y-62210480D01*
X118252588Y-62201419D01*
X118252588Y-61998580D01*
X118253781Y-61989518D01*
X118253781Y-61978310D01*
X118262523Y-61923113D01*
X118279065Y-61797465D01*
X118287279Y-61766807D01*
X118291854Y-61737926D01*
X118309900Y-61682383D01*
X118331565Y-61601532D01*
X118352933Y-61549944D01*
X118367063Y-61506458D01*
X118387821Y-61465717D01*
X118409190Y-61414129D01*
X118451042Y-61341637D01*
X118477555Y-61289605D01*
X118494742Y-61265948D01*
X118510613Y-61238460D01*
X118587770Y-61137906D01*
X118620610Y-61092706D01*
X118628532Y-61084783D01*
X118634096Y-61077533D01*
X118777533Y-60934096D01*
X118784783Y-60928532D01*
X118792706Y-60920610D01*
X118837906Y-60887770D01*
X118938460Y-60810613D01*
X118965948Y-60794742D01*
X118989605Y-60777555D01*
X119041637Y-60751042D01*
X119114129Y-60709190D01*
X119165717Y-60687821D01*
X119206458Y-60667063D01*
X119249944Y-60652933D01*
X119301532Y-60631565D01*
X119382383Y-60609900D01*
X119437926Y-60591854D01*
X119466807Y-60587279D01*
X119497465Y-60579065D01*
X119623113Y-60562523D01*
X119678310Y-60553781D01*
X119689518Y-60553781D01*
X119698580Y-60552588D01*
X119901420Y-60552588D01*
X119910482Y-60553781D01*
G37*
G36*
X114910482Y-58353781D02*
G01*
X114921690Y-58353781D01*
X114976888Y-58362523D01*
X115102534Y-58379065D01*
X115133189Y-58387279D01*
X115162074Y-58391854D01*
X115217620Y-58409902D01*
X115298467Y-58431565D01*
X115350050Y-58452931D01*
X115393542Y-58467063D01*
X115434286Y-58487823D01*
X115485870Y-58509190D01*
X115558353Y-58551038D01*
X115610395Y-58577555D01*
X115634055Y-58594745D01*
X115661539Y-58610613D01*
X115762074Y-58687756D01*
X115807294Y-58720610D01*
X115815219Y-58728535D01*
X115822466Y-58734096D01*
X115965903Y-58877533D01*
X115971463Y-58884779D01*
X115979390Y-58892706D01*
X116012247Y-58937930D01*
X116089386Y-59038460D01*
X116105252Y-59065941D01*
X116122445Y-59089605D01*
X116148964Y-59141652D01*
X116190809Y-59214129D01*
X116212173Y-59265706D01*
X116232937Y-59306458D01*
X116247070Y-59349955D01*
X116268434Y-59401532D01*
X116290093Y-59482366D01*
X116308146Y-59537926D01*
X116312721Y-59566816D01*
X116320934Y-59597465D01*
X116337474Y-59723099D01*
X116346219Y-59778310D01*
X116346219Y-59789518D01*
X116347412Y-59798580D01*
X116347412Y-60001419D01*
X116346219Y-60010480D01*
X116346219Y-60021690D01*
X116337473Y-60076905D01*
X116320934Y-60202534D01*
X116312722Y-60233180D01*
X116308146Y-60262074D01*
X116290091Y-60317638D01*
X116268434Y-60398467D01*
X116247071Y-60450039D01*
X116232937Y-60493542D01*
X116212171Y-60534297D01*
X116190809Y-60585870D01*
X116148968Y-60658338D01*
X116122445Y-60710395D01*
X116105249Y-60734062D01*
X116089386Y-60761539D01*
X116012261Y-60862050D01*
X115979390Y-60907294D01*
X115971459Y-60915224D01*
X115965903Y-60922466D01*
X115822466Y-61065903D01*
X115815224Y-61071459D01*
X115807294Y-61079390D01*
X115762050Y-61112261D01*
X115661539Y-61189386D01*
X115634062Y-61205249D01*
X115610395Y-61222445D01*
X115558338Y-61248968D01*
X115485870Y-61290809D01*
X115434297Y-61312171D01*
X115393542Y-61332937D01*
X115350039Y-61347071D01*
X115298467Y-61368434D01*
X115217638Y-61390091D01*
X115162074Y-61408146D01*
X115133180Y-61412722D01*
X115102534Y-61420934D01*
X114976902Y-61437474D01*
X114921690Y-61446219D01*
X114910481Y-61446219D01*
X114901420Y-61447412D01*
X114698580Y-61447412D01*
X114689519Y-61446219D01*
X114678310Y-61446219D01*
X114623099Y-61437474D01*
X114497465Y-61420934D01*
X114466816Y-61412721D01*
X114437926Y-61408146D01*
X114382366Y-61390093D01*
X114301532Y-61368434D01*
X114249955Y-61347070D01*
X114206458Y-61332937D01*
X114165706Y-61312173D01*
X114114129Y-61290809D01*
X114041652Y-61248964D01*
X113989605Y-61222445D01*
X113965941Y-61205252D01*
X113938460Y-61189386D01*
X113837930Y-61112247D01*
X113792706Y-61079390D01*
X113784779Y-61071463D01*
X113777533Y-61065903D01*
X113634096Y-60922466D01*
X113628535Y-60915219D01*
X113620610Y-60907294D01*
X113587756Y-60862074D01*
X113510613Y-60761539D01*
X113494745Y-60734055D01*
X113477555Y-60710395D01*
X113451038Y-60658353D01*
X113409190Y-60585870D01*
X113387823Y-60534286D01*
X113367063Y-60493542D01*
X113352931Y-60450050D01*
X113331565Y-60398467D01*
X113309902Y-60317620D01*
X113291854Y-60262074D01*
X113287279Y-60233189D01*
X113279065Y-60202534D01*
X113262524Y-60076891D01*
X113253781Y-60021690D01*
X113253781Y-60010480D01*
X113252588Y-60001419D01*
X113252588Y-59798580D01*
X113253781Y-59789518D01*
X113253781Y-59778310D01*
X113262523Y-59723113D01*
X113279065Y-59597465D01*
X113287279Y-59566807D01*
X113291854Y-59537926D01*
X113309900Y-59482383D01*
X113331565Y-59401532D01*
X113352933Y-59349944D01*
X113367063Y-59306458D01*
X113387821Y-59265717D01*
X113409190Y-59214129D01*
X113451042Y-59141637D01*
X113477555Y-59089605D01*
X113494742Y-59065948D01*
X113510613Y-59038460D01*
X113587770Y-58937906D01*
X113620610Y-58892706D01*
X113628532Y-58884783D01*
X113634096Y-58877533D01*
X113777533Y-58734096D01*
X113784783Y-58728532D01*
X113792706Y-58720610D01*
X113837906Y-58687770D01*
X113938460Y-58610613D01*
X113965948Y-58594742D01*
X113989605Y-58577555D01*
X114041637Y-58551042D01*
X114114129Y-58509190D01*
X114165717Y-58487821D01*
X114206458Y-58467063D01*
X114249944Y-58452933D01*
X114301532Y-58431565D01*
X114382383Y-58409900D01*
X114437926Y-58391854D01*
X114466807Y-58387279D01*
X114497465Y-58379065D01*
X114623113Y-58362523D01*
X114678310Y-58353781D01*
X114689518Y-58353781D01*
X114698580Y-58352588D01*
X114901420Y-58352588D01*
X114910482Y-58353781D01*
G37*
M02*
