G04 #@! TF.GenerationSoftware,KiCad,Pcbnew,9.0.2*
G04 #@! TF.CreationDate,2025-09-19T14:38:59-04:00*
G04 #@! TF.ProjectId,Trackball,54726163-6b62-4616-9c6c-2e6b69636164,rev?*
G04 #@! TF.SameCoordinates,Original*
G04 #@! TF.FileFunction,Copper,L1,Top*
G04 #@! TF.FilePolarity,Positive*
%FSLAX46Y46*%
G04 Gerber Fmt 4.6, Leading zero omitted, Abs format (unit mm)*
G04 Created by KiCad (PCBNEW 9.0.2) date 2025-09-19 14:38:59*
%MOMM*%
%LPD*%
G01*
G04 APERTURE LIST*
G04 Aperture macros list*
%AMRotRect*
0 Rectangle, with rotation*
0 The origin of the aperture is its center*
0 $1 length*
0 $2 width*
0 $3 Rotation angle, in degrees counterclockwise*
0 Add horizontal line*
21,1,$1,$2,0,0,$3*%
G04 Aperture macros list end*
G04 #@! TA.AperFunction,ComponentPad*
%ADD10R,1.700000X1.700000*%
G04 #@! TD*
G04 #@! TA.AperFunction,ComponentPad*
%ADD11C,1.700000*%
G04 #@! TD*
G04 #@! TA.AperFunction,SMDPad,CuDef*
%ADD12R,1.000000X2.800000*%
G04 #@! TD*
G04 #@! TA.AperFunction,ComponentPad*
%ADD13R,1.600000X1.600000*%
G04 #@! TD*
G04 #@! TA.AperFunction,ComponentPad*
%ADD14C,1.600000*%
G04 #@! TD*
G04 #@! TA.AperFunction,ComponentPad*
%ADD15C,5.000000*%
G04 #@! TD*
G04 #@! TA.AperFunction,ComponentPad*
%ADD16RotRect,1.700000X1.700000X315.000000*%
G04 #@! TD*
G04 #@! TA.AperFunction,ComponentPad*
%ADD17C,1.300000*%
G04 #@! TD*
G04 #@! TA.AperFunction,ComponentPad*
%ADD18C,1.200000*%
G04 #@! TD*
G04 #@! TA.AperFunction,ComponentPad*
%ADD19C,1.500000*%
G04 #@! TD*
G04 #@! TA.AperFunction,ComponentPad*
%ADD20RotRect,1.700000X1.700000X225.000000*%
G04 #@! TD*
G04 #@! TA.AperFunction,ViaPad*
%ADD21C,0.800000*%
G04 #@! TD*
G04 #@! TA.AperFunction,Conductor*
%ADD22C,0.500000*%
G04 #@! TD*
G04 #@! TA.AperFunction,Conductor*
%ADD23C,0.250000*%
G04 #@! TD*
G04 APERTURE END LIST*
D10*
X120208000Y-77216000D03*
D11*
X122748000Y-77216000D03*
X125288000Y-77216000D03*
X127828000Y-77216000D03*
D10*
X120208000Y-125984000D03*
D11*
X122748000Y-125984000D03*
X125288000Y-125984000D03*
X127828000Y-125984000D03*
D10*
X155901000Y-97790000D03*
D11*
X155901000Y-100330000D03*
X155901000Y-102870000D03*
X155901000Y-105410000D03*
D12*
X152400000Y-88025000D03*
X152400000Y-82225000D03*
X156400000Y-88025000D03*
X156400000Y-82225000D03*
D10*
X130400000Y-121600000D03*
D11*
X130400000Y-119060000D03*
X130400000Y-116520000D03*
D13*
X163660000Y-93960000D03*
D14*
X161120000Y-93960000D03*
X158580000Y-93960000D03*
X156040000Y-93960000D03*
X153500000Y-93960000D03*
X150960000Y-93960000D03*
X148420000Y-93960000D03*
X145880000Y-93960000D03*
X143340000Y-93960000D03*
X140800000Y-93960000D03*
X138260000Y-93960000D03*
X135720000Y-93960000D03*
X135720000Y-109200000D03*
X138260000Y-109200000D03*
X140800000Y-109200000D03*
X143340000Y-109200000D03*
X145880000Y-109200000D03*
X148420000Y-109200000D03*
X150960000Y-109200000D03*
X153500000Y-109200000D03*
X156040000Y-109200000D03*
X158580000Y-109200000D03*
X161120000Y-109200000D03*
X163660000Y-109200000D03*
D15*
X114660000Y-86160000D03*
D12*
X149400000Y-115675000D03*
X149400000Y-121475000D03*
X145400000Y-115675000D03*
X145400000Y-121475000D03*
D10*
X130400000Y-81600000D03*
D11*
X130400000Y-84140000D03*
X130400000Y-86680000D03*
D12*
X149400000Y-82225000D03*
X149400000Y-88025000D03*
X145400000Y-82225000D03*
X145400000Y-88025000D03*
D15*
X114640000Y-117020000D03*
D12*
X152400000Y-121475000D03*
X152400000Y-115675000D03*
X156400000Y-121475000D03*
X156400000Y-115675000D03*
D10*
X155768000Y-125984000D03*
D11*
X153228000Y-125984000D03*
X150688000Y-125984000D03*
X148148000Y-125984000D03*
D10*
X155768000Y-77216000D03*
D11*
X153228000Y-77216000D03*
X150688000Y-77216000D03*
X148148000Y-77216000D03*
D16*
X109773949Y-127786051D03*
D11*
X111570000Y-125990000D03*
X113366051Y-124193949D03*
X115162103Y-122397897D03*
D17*
X159900000Y-103600000D03*
X159900000Y-101600000D03*
D18*
X159900000Y-99600000D03*
D19*
X159900000Y-105600000D03*
X159900000Y-97600000D03*
D20*
X109780000Y-75420000D03*
D11*
X111576051Y-77216051D03*
X113372102Y-79012102D03*
X115168154Y-80808154D03*
D17*
X161400000Y-88350000D03*
X161400000Y-86350000D03*
D18*
X161400000Y-84350000D03*
D19*
X161400000Y-90350000D03*
X161400000Y-82350000D03*
D10*
X132650000Y-100350000D03*
D11*
X132650000Y-97810000D03*
D17*
X161400000Y-119350000D03*
X161400000Y-117350000D03*
D18*
X161400000Y-115350000D03*
D19*
X161400000Y-121350000D03*
X161400000Y-113350000D03*
D21*
X142400000Y-126600000D03*
X137400000Y-126600000D03*
X150900000Y-96350000D03*
X122400000Y-136600000D03*
X142400000Y-76600000D03*
X167400000Y-81600000D03*
X139900000Y-101350000D03*
X167400000Y-86600000D03*
X117400000Y-141600000D03*
X122400000Y-141600000D03*
X143400000Y-97100000D03*
X169900000Y-94100000D03*
X167400000Y-116600000D03*
X137400000Y-76600000D03*
X137400000Y-96600000D03*
X146150000Y-97100000D03*
X167400000Y-91600000D03*
X169900000Y-99100000D03*
X167400000Y-121600000D03*
X132400000Y-126600000D03*
X167400000Y-111600000D03*
X132400000Y-76600000D03*
X124150000Y-116600000D03*
X169900000Y-104100000D03*
X148650000Y-97100000D03*
X128150000Y-121850000D03*
X169900000Y-109100000D03*
X124650000Y-86350000D03*
X112400000Y-141600000D03*
X122400000Y-71600000D03*
X135650000Y-105600000D03*
X153900000Y-105600000D03*
X150900000Y-112850000D03*
X165150000Y-79850000D03*
X164900000Y-111600000D03*
X122650000Y-131350000D03*
X144597264Y-119499802D03*
X146900000Y-118600000D03*
X135900000Y-85350000D03*
X135405504Y-82770496D03*
X134400000Y-106350000D03*
X134945000Y-107701000D03*
X148400000Y-112850000D03*
X158650000Y-123850000D03*
X134566801Y-92799717D03*
X133900000Y-91350000D03*
X144400000Y-91825000D03*
X144589493Y-113385509D03*
X154150000Y-118100000D03*
X153400000Y-85850000D03*
D22*
X135650000Y-105600000D02*
X153900000Y-105600000D01*
D23*
X147336396Y-111150000D02*
X148286396Y-112100000D01*
X150150000Y-112100000D02*
X150900000Y-112850000D01*
X136463604Y-111150000D02*
X147336396Y-111150000D01*
X133200000Y-116260000D02*
X133200000Y-114413604D01*
X148286396Y-112100000D02*
X150150000Y-112100000D01*
X130400000Y-119060000D02*
X133200000Y-116260000D01*
X133200000Y-114413604D02*
X136463604Y-111150000D01*
X132150000Y-79850000D02*
X165150000Y-79850000D01*
X130400000Y-81600000D02*
X132150000Y-79850000D01*
X164900000Y-111600000D02*
X148422792Y-111600000D01*
X136220000Y-110700000D02*
X130400000Y-116520000D01*
X147522792Y-110700000D02*
X136220000Y-110700000D01*
X148422792Y-111600000D02*
X147522792Y-110700000D01*
X122650000Y-131350000D02*
X124125116Y-131350000D01*
X135875116Y-119600000D02*
X144497066Y-119600000D01*
X144497066Y-119600000D02*
X144597264Y-119499802D01*
X124125116Y-131350000D02*
X135875116Y-119600000D01*
X111900000Y-126100000D02*
X114900000Y-126100000D01*
X117650000Y-123350000D02*
X131488720Y-123350000D01*
X131488720Y-123350000D02*
X136238720Y-118600000D01*
X114900000Y-126100000D02*
X117650000Y-123350000D01*
X136238720Y-118600000D02*
X146900000Y-118600000D01*
X123900000Y-79350000D02*
X129900000Y-85350000D01*
X113710000Y-79350000D02*
X123900000Y-79350000D01*
X113372102Y-79012102D02*
X113710000Y-79350000D01*
X129900000Y-85350000D02*
X135900000Y-85350000D01*
X115562102Y-78850000D02*
X124036396Y-78850000D01*
X124036396Y-78850000D02*
X127962396Y-82776000D01*
X127962396Y-82776000D02*
X135400000Y-82776000D01*
X135400000Y-82776000D02*
X135405504Y-82770496D01*
X113928153Y-77216051D02*
X115562102Y-78850000D01*
X111576051Y-77216051D02*
X113928153Y-77216051D01*
D22*
X158150000Y-103600000D02*
X159900000Y-103600000D01*
X157449000Y-106801000D02*
X158150000Y-106100000D01*
X158150000Y-106100000D02*
X158150000Y-103600000D01*
X134851000Y-106801000D02*
X157449000Y-106801000D01*
X134400000Y-106350000D02*
X134851000Y-106801000D01*
X162161000Y-107701000D02*
X134945000Y-107701000D01*
X163660000Y-109200000D02*
X162161000Y-107701000D01*
D23*
X113366051Y-124193949D02*
X113460000Y-124100000D01*
X148099586Y-112551000D02*
X148101000Y-112551000D01*
X113460000Y-124100000D02*
X116150000Y-124100000D01*
X136649000Y-111601000D02*
X147149586Y-111601000D01*
X133650000Y-114600000D02*
X136649000Y-111601000D01*
X117400000Y-122850000D02*
X125150000Y-122850000D01*
X133650000Y-118600000D02*
X133650000Y-114600000D01*
X147149586Y-111601000D02*
X148099586Y-112551000D01*
X125150000Y-122850000D02*
X127764000Y-120236000D01*
X127764000Y-120236000D02*
X132014000Y-120236000D01*
X132014000Y-120236000D02*
X133650000Y-118600000D01*
X148101000Y-112551000D02*
X148400000Y-112850000D01*
X116150000Y-124100000D02*
X117400000Y-122850000D01*
X149400000Y-115675000D02*
X149400000Y-121475000D01*
X149400000Y-121475000D02*
X149400000Y-122375000D01*
X150875000Y-123850000D02*
X158650000Y-123850000D01*
X149400000Y-115100000D02*
X149400000Y-115675000D01*
X149400000Y-122375000D02*
X150875000Y-123850000D01*
X134766518Y-92600000D02*
X134566801Y-92799717D01*
X153500000Y-93960000D02*
X152140000Y-92600000D01*
X152140000Y-92600000D02*
X134766518Y-92600000D01*
X144078984Y-91050000D02*
X143278984Y-91850000D01*
X149400000Y-82225000D02*
X149400000Y-88025000D01*
X149400000Y-88925000D02*
X147275000Y-91050000D01*
X134400000Y-91850000D02*
X133900000Y-91350000D01*
X147275000Y-91050000D02*
X144078984Y-91050000D01*
X149400000Y-88025000D02*
X149400000Y-88925000D01*
X143278984Y-91850000D02*
X134400000Y-91850000D01*
X152400000Y-88925000D02*
X149500000Y-91825000D01*
X149500000Y-91825000D02*
X144400000Y-91825000D01*
X152400000Y-82225000D02*
X152400000Y-88025000D01*
X152400000Y-88025000D02*
X152400000Y-88925000D01*
X152400000Y-121475000D02*
X152400000Y-115675000D01*
X150575000Y-113850000D02*
X145150000Y-113850000D01*
X144685509Y-113385509D02*
X144589493Y-113385509D01*
X145150000Y-113850000D02*
X144685509Y-113385509D01*
X152400000Y-115675000D02*
X150575000Y-113850000D01*
X160650000Y-118100000D02*
X161400000Y-117350000D01*
X154150000Y-118100000D02*
X160650000Y-118100000D01*
X160900000Y-85850000D02*
X153400000Y-85850000D01*
X161400000Y-86350000D02*
X160900000Y-85850000D01*
G04 #@! TA.AperFunction,Conductor*
G36*
X113970406Y-58145502D02*
G01*
X114016899Y-58199158D01*
X114027003Y-58269432D01*
X113997509Y-58334012D01*
X113965285Y-58360619D01*
X113825391Y-58441386D01*
X113825384Y-58441391D01*
X113643347Y-58581073D01*
X113643326Y-58581092D01*
X113481092Y-58743326D01*
X113481073Y-58743347D01*
X113341391Y-58925384D01*
X113341386Y-58925391D01*
X113226662Y-59124099D01*
X113226657Y-59124110D01*
X113138842Y-59336113D01*
X113079450Y-59557768D01*
X113049500Y-59785263D01*
X113049500Y-60014736D01*
X113079450Y-60242231D01*
X113079452Y-60242238D01*
X113138842Y-60463887D01*
X113226656Y-60675888D01*
X113226657Y-60675889D01*
X113226662Y-60675900D01*
X113341386Y-60874608D01*
X113341391Y-60874615D01*
X113481073Y-61056652D01*
X113481092Y-61056673D01*
X113643326Y-61218907D01*
X113643347Y-61218926D01*
X113825384Y-61358608D01*
X113825391Y-61358613D01*
X114024099Y-61473337D01*
X114024103Y-61473338D01*
X114024112Y-61473344D01*
X114236113Y-61561158D01*
X114457762Y-61620548D01*
X114457766Y-61620548D01*
X114457768Y-61620549D01*
X114516398Y-61628267D01*
X114685266Y-61650500D01*
X114685273Y-61650500D01*
X114914727Y-61650500D01*
X114914734Y-61650500D01*
X115120345Y-61623430D01*
X115142231Y-61620549D01*
X115142231Y-61620548D01*
X115142238Y-61620548D01*
X115363887Y-61561158D01*
X115575888Y-61473344D01*
X115774612Y-61358611D01*
X115956661Y-61218919D01*
X116118919Y-61056661D01*
X116258611Y-60874612D01*
X116373344Y-60675888D01*
X116461158Y-60463887D01*
X116520548Y-60242238D01*
X116550500Y-60014734D01*
X116550500Y-59785266D01*
X116520548Y-59557762D01*
X116461158Y-59336113D01*
X116373344Y-59124112D01*
X116373338Y-59124103D01*
X116373337Y-59124099D01*
X116258613Y-58925391D01*
X116258608Y-58925384D01*
X116118926Y-58743347D01*
X116118907Y-58743326D01*
X115956673Y-58581092D01*
X115956652Y-58581073D01*
X115774615Y-58441391D01*
X115774608Y-58441386D01*
X115634715Y-58360619D01*
X115585722Y-58309236D01*
X115572286Y-58239523D01*
X115598672Y-58173612D01*
X115656505Y-58132430D01*
X115697715Y-58125500D01*
X121666715Y-58125500D01*
X121670878Y-58125500D01*
X121679118Y-58125770D01*
X121707134Y-58127606D01*
X121924492Y-58141852D01*
X121940810Y-58144000D01*
X122177945Y-58191169D01*
X122193850Y-58195430D01*
X122422799Y-58273149D01*
X122438005Y-58279448D01*
X122654851Y-58386384D01*
X122669108Y-58394615D01*
X122870135Y-58528937D01*
X122883204Y-58538966D01*
X123064972Y-58698372D01*
X123076627Y-58710027D01*
X123236033Y-58891795D01*
X123246063Y-58904867D01*
X123291106Y-58972278D01*
X123380379Y-59105883D01*
X123388620Y-59120157D01*
X123495547Y-59336984D01*
X123501854Y-59352210D01*
X123579566Y-59581141D01*
X123583832Y-59597062D01*
X123630997Y-59834177D01*
X123633148Y-59850517D01*
X123649230Y-60095880D01*
X123649500Y-60104121D01*
X123649500Y-64902940D01*
X123686082Y-65507721D01*
X123759110Y-66109159D01*
X123759111Y-66109166D01*
X123865571Y-66690099D01*
X123868325Y-66705123D01*
X123977585Y-67148409D01*
X124013322Y-67293399D01*
X124193571Y-67871840D01*
X124408418Y-68438345D01*
X124657079Y-68990846D01*
X124657080Y-68990848D01*
X124938643Y-69527321D01*
X124938648Y-69527332D01*
X125252071Y-70045797D01*
X125252089Y-70045825D01*
X125596255Y-70544436D01*
X125596264Y-70544447D01*
X125969920Y-71021383D01*
X125969924Y-71021388D01*
X125969926Y-71021390D01*
X125969927Y-71021391D01*
X126371684Y-71474882D01*
X126371705Y-71474904D01*
X126800095Y-71903294D01*
X126800117Y-71903315D01*
X127236581Y-72289988D01*
X127253617Y-72305080D01*
X127468700Y-72473587D01*
X127730563Y-72678744D01*
X128229174Y-73022910D01*
X128229202Y-73022928D01*
X128747667Y-73336351D01*
X128747675Y-73336354D01*
X128747679Y-73336357D01*
X129284157Y-73617922D01*
X129836656Y-73866582D01*
X130403161Y-74081429D01*
X130981605Y-74261679D01*
X131569877Y-74406675D01*
X132165830Y-74515888D01*
X132400152Y-74544339D01*
X132767278Y-74588917D01*
X132767283Y-74588917D01*
X132767289Y-74588918D01*
X133279471Y-74619899D01*
X133372060Y-74625500D01*
X133372061Y-74625500D01*
X133664438Y-74625500D01*
X165399485Y-74625500D01*
X165404839Y-74625500D01*
X165410693Y-74625635D01*
X165770935Y-74642393D01*
X165782575Y-74643478D01*
X166136802Y-74693201D01*
X166148310Y-74695365D01*
X166496399Y-74777765D01*
X166507630Y-74780982D01*
X166846566Y-74895343D01*
X166857454Y-74899590D01*
X167184296Y-75044922D01*
X167194763Y-75050172D01*
X167506702Y-75225221D01*
X167516628Y-75231414D01*
X167810965Y-75434669D01*
X167820277Y-75441760D01*
X168094469Y-75671463D01*
X168103078Y-75679384D01*
X168354769Y-75933561D01*
X168362600Y-75942242D01*
X168412277Y-76002738D01*
X168589600Y-76218683D01*
X168596603Y-76228070D01*
X168796950Y-76524385D01*
X168803052Y-76534381D01*
X168975020Y-76848014D01*
X168980167Y-76858532D01*
X169123205Y-77188926D01*
X169125397Y-77194332D01*
X169126725Y-77197838D01*
X169126725Y-77197840D01*
X169126726Y-77197840D01*
X169243201Y-77505346D01*
X169245091Y-77510334D01*
X169246793Y-77515120D01*
X169309589Y-77703541D01*
X169764312Y-79067955D01*
X169765167Y-79070616D01*
X170248556Y-80635991D01*
X170249351Y-80638671D01*
X170691341Y-82191365D01*
X170697887Y-82214359D01*
X170698618Y-82217043D01*
X170809558Y-82642389D01*
X171112077Y-83802253D01*
X171112753Y-83804966D01*
X171490956Y-85399009D01*
X171491571Y-85401736D01*
X171834315Y-87003759D01*
X171834869Y-87006498D01*
X172141982Y-88615695D01*
X172142476Y-88618447D01*
X172413825Y-90234124D01*
X172414257Y-90236886D01*
X172649689Y-91858127D01*
X172650060Y-91860897D01*
X172849468Y-93486964D01*
X172849778Y-93489742D01*
X173013073Y-95119915D01*
X173013320Y-95122700D01*
X173140402Y-96755993D01*
X173140588Y-96758782D01*
X173231408Y-98394537D01*
X173231532Y-98397330D01*
X173286042Y-100034692D01*
X173286104Y-100037486D01*
X173304277Y-101675655D01*
X173304277Y-101678451D01*
X173286104Y-103316620D01*
X173286042Y-103319414D01*
X173231532Y-104956776D01*
X173231408Y-104959569D01*
X173140588Y-106595324D01*
X173140402Y-106598113D01*
X173013319Y-108231406D01*
X173013072Y-108234191D01*
X172849777Y-109864363D01*
X172849467Y-109867141D01*
X172650059Y-111493208D01*
X172649688Y-111495978D01*
X172414256Y-113117220D01*
X172413824Y-113119982D01*
X172142475Y-114735658D01*
X172141981Y-114738410D01*
X171834868Y-116347608D01*
X171834314Y-116350347D01*
X171491570Y-117952370D01*
X171490955Y-117955097D01*
X171112752Y-119549140D01*
X171112076Y-119551853D01*
X170698620Y-121137049D01*
X170697885Y-121139746D01*
X170249349Y-122715435D01*
X170248554Y-122718115D01*
X169765164Y-124283489D01*
X169764309Y-124286150D01*
X169246454Y-125839990D01*
X169245332Y-125843211D01*
X169204512Y-125955467D01*
X169202358Y-125960984D01*
X169061800Y-126297393D01*
X169056727Y-126308091D01*
X168886616Y-126627190D01*
X168880562Y-126637365D01*
X168681238Y-126939105D01*
X168674255Y-126948666D01*
X168447498Y-127230355D01*
X168439648Y-127239219D01*
X168187456Y-127498375D01*
X168178809Y-127506463D01*
X167903395Y-127740811D01*
X167894028Y-127748052D01*
X167597828Y-127955518D01*
X167587822Y-127961847D01*
X167273471Y-128140586D01*
X167262914Y-128145948D01*
X166933174Y-128294391D01*
X166922162Y-128298739D01*
X166579932Y-128415582D01*
X166568559Y-128418877D01*
X166216881Y-128503077D01*
X166205250Y-128505290D01*
X165847214Y-128556111D01*
X165835427Y-128557222D01*
X165527084Y-128571724D01*
X165471029Y-128574361D01*
X165465114Y-128574500D01*
X133372060Y-128574500D01*
X132767278Y-128611082D01*
X132165840Y-128684110D01*
X132165833Y-128684111D01*
X131569885Y-128793323D01*
X130981600Y-128938322D01*
X130403159Y-129118571D01*
X129836654Y-129333418D01*
X129284153Y-129582079D01*
X129284151Y-129582080D01*
X128747678Y-129863643D01*
X128747667Y-129863648D01*
X128229202Y-130177071D01*
X128229174Y-130177089D01*
X127730563Y-130521255D01*
X127253609Y-130894926D01*
X127253608Y-130894927D01*
X126800117Y-131296684D01*
X126800095Y-131296705D01*
X126371705Y-131725095D01*
X126371684Y-131725117D01*
X125969927Y-132178608D01*
X125969926Y-132178609D01*
X125596255Y-132655563D01*
X125252089Y-133154174D01*
X125252071Y-133154202D01*
X124938648Y-133672667D01*
X124938643Y-133672678D01*
X124657080Y-134209151D01*
X124657079Y-134209153D01*
X124408418Y-134761654D01*
X124193571Y-135328159D01*
X124013322Y-135906600D01*
X123868323Y-136494885D01*
X123759111Y-137090833D01*
X123759110Y-137090840D01*
X123686082Y-137692278D01*
X123649500Y-138297059D01*
X123649500Y-143095878D01*
X123649230Y-143104118D01*
X123649230Y-143104119D01*
X123633148Y-143349482D01*
X123630997Y-143365822D01*
X123583832Y-143602937D01*
X123579566Y-143618858D01*
X123501854Y-143847789D01*
X123495547Y-143863015D01*
X123388620Y-144079842D01*
X123380379Y-144094116D01*
X123246066Y-144295129D01*
X123236033Y-144308204D01*
X123076627Y-144489972D01*
X123064972Y-144501627D01*
X122883204Y-144661033D01*
X122870129Y-144671066D01*
X122669116Y-144805379D01*
X122654842Y-144813620D01*
X122438015Y-144920547D01*
X122422789Y-144926854D01*
X122193858Y-145004566D01*
X122177937Y-145008832D01*
X121940822Y-145055997D01*
X121924482Y-145058148D01*
X121679119Y-145074230D01*
X121670878Y-145074500D01*
X108904122Y-145074500D01*
X108895881Y-145074230D01*
X108650517Y-145058148D01*
X108634177Y-145055997D01*
X108397062Y-145008832D01*
X108381141Y-145004566D01*
X108152210Y-144926854D01*
X108136984Y-144920547D01*
X107920153Y-144813618D01*
X107905887Y-144805381D01*
X107704867Y-144671063D01*
X107691795Y-144661033D01*
X107510027Y-144501627D01*
X107498372Y-144489972D01*
X107338966Y-144308204D01*
X107328937Y-144295135D01*
X107194615Y-144094108D01*
X107186384Y-144079851D01*
X107079448Y-143863005D01*
X107073149Y-143847799D01*
X106995430Y-143618850D01*
X106991169Y-143602945D01*
X106944000Y-143365810D01*
X106941852Y-143349492D01*
X106925770Y-143104118D01*
X106925500Y-143095878D01*
X106925500Y-141510518D01*
X111491500Y-141510518D01*
X111491500Y-141510521D01*
X111491500Y-141689479D01*
X111526413Y-141865000D01*
X111594898Y-142030336D01*
X111694322Y-142179135D01*
X111820865Y-142305678D01*
X111969664Y-142405102D01*
X112135000Y-142473587D01*
X112310521Y-142508500D01*
X112310522Y-142508500D01*
X112489478Y-142508500D01*
X112489479Y-142508500D01*
X112665000Y-142473587D01*
X112830336Y-142405102D01*
X112979135Y-142305678D01*
X113105678Y-142179135D01*
X113205102Y-142030336D01*
X113273587Y-141865000D01*
X113308500Y-141689479D01*
X113308500Y-141510521D01*
X113308499Y-141510518D01*
X116491500Y-141510518D01*
X116491500Y-141510521D01*
X116491500Y-141689479D01*
X116526413Y-141865000D01*
X116594898Y-142030336D01*
X116694322Y-142179135D01*
X116820865Y-142305678D01*
X116969664Y-142405102D01*
X117135000Y-142473587D01*
X117310521Y-142508500D01*
X117310522Y-142508500D01*
X117489478Y-142508500D01*
X117489479Y-142508500D01*
X117665000Y-142473587D01*
X117830336Y-142405102D01*
X117979135Y-142305678D01*
X118105678Y-142179135D01*
X118205102Y-142030336D01*
X118273587Y-141865000D01*
X118308500Y-141689479D01*
X118308500Y-141510521D01*
X118308499Y-141510518D01*
X121491500Y-141510518D01*
X121491500Y-141510521D01*
X121491500Y-141689479D01*
X121526413Y-141865000D01*
X121594898Y-142030336D01*
X121694322Y-142179135D01*
X121820865Y-142305678D01*
X121969664Y-142405102D01*
X122135000Y-142473587D01*
X122310521Y-142508500D01*
X122310522Y-142508500D01*
X122489478Y-142508500D01*
X122489479Y-142508500D01*
X122665000Y-142473587D01*
X122830336Y-142405102D01*
X122979135Y-142305678D01*
X123105678Y-142179135D01*
X123205102Y-142030336D01*
X123273587Y-141865000D01*
X123308500Y-141689479D01*
X123308500Y-141510521D01*
X123273587Y-141335000D01*
X123205102Y-141169664D01*
X123105678Y-141020865D01*
X122979135Y-140894322D01*
X122830336Y-140794898D01*
X122713429Y-140746473D01*
X122665003Y-140726414D01*
X122665001Y-140726413D01*
X122665000Y-140726413D01*
X122576645Y-140708838D01*
X122489481Y-140691500D01*
X122489479Y-140691500D01*
X122310521Y-140691500D01*
X122310518Y-140691500D01*
X122179771Y-140717507D01*
X122135000Y-140726413D01*
X122134999Y-140726413D01*
X122134996Y-140726414D01*
X121969662Y-140794899D01*
X121820869Y-140894319D01*
X121820862Y-140894324D01*
X121694324Y-141020862D01*
X121694319Y-141020869D01*
X121594899Y-141169662D01*
X121526414Y-141334996D01*
X121491500Y-141510518D01*
X118308499Y-141510518D01*
X118273587Y-141335000D01*
X118205102Y-141169664D01*
X118105678Y-141020865D01*
X117979135Y-140894322D01*
X117830336Y-140794898D01*
X117713429Y-140746473D01*
X117665003Y-140726414D01*
X117665001Y-140726413D01*
X117665000Y-140726413D01*
X117576645Y-140708838D01*
X117489481Y-140691500D01*
X117489479Y-140691500D01*
X117310521Y-140691500D01*
X117310518Y-140691500D01*
X117179771Y-140717507D01*
X117135000Y-140726413D01*
X117134999Y-140726413D01*
X117134996Y-140726414D01*
X116969662Y-140794899D01*
X116820869Y-140894319D01*
X116820862Y-140894324D01*
X116694324Y-141020862D01*
X116694319Y-141020869D01*
X116594899Y-141169662D01*
X116526414Y-141334996D01*
X116491500Y-141510518D01*
X113308499Y-141510518D01*
X113273587Y-141335000D01*
X113205102Y-141169664D01*
X113105678Y-141020865D01*
X112979135Y-140894322D01*
X112830336Y-140794898D01*
X112713429Y-140746473D01*
X112665003Y-140726414D01*
X112665001Y-140726413D01*
X112665000Y-140726413D01*
X112576645Y-140708838D01*
X112489481Y-140691500D01*
X112489479Y-140691500D01*
X112310521Y-140691500D01*
X112310518Y-140691500D01*
X112179771Y-140717507D01*
X112135000Y-140726413D01*
X112134999Y-140726413D01*
X112134996Y-140726414D01*
X111969662Y-140794899D01*
X111820869Y-140894319D01*
X111820862Y-140894324D01*
X111694324Y-141020862D01*
X111694319Y-141020869D01*
X111594899Y-141169662D01*
X111526414Y-141334996D01*
X111491500Y-141510518D01*
X106925500Y-141510518D01*
X106925500Y-137295318D01*
X108145600Y-137295318D01*
X108145600Y-137468682D01*
X108172720Y-137639912D01*
X108172721Y-137639917D01*
X108189738Y-137692289D01*
X108226292Y-137804791D01*
X108226293Y-137804792D01*
X108305000Y-137959263D01*
X108406900Y-138099516D01*
X108529483Y-138222099D01*
X108529486Y-138222101D01*
X108669740Y-138324002D01*
X108824209Y-138402708D01*
X108989082Y-138456278D01*
X108989083Y-138456278D01*
X108989088Y-138456280D01*
X109160318Y-138483400D01*
X109160321Y-138483400D01*
X109333679Y-138483400D01*
X109333682Y-138483400D01*
X109504912Y-138456280D01*
X109669791Y-138402708D01*
X109824260Y-138324002D01*
X109964514Y-138222101D01*
X110087101Y-138099514D01*
X110189002Y-137959260D01*
X110267708Y-137804791D01*
X110321280Y-137639912D01*
X110348400Y-137468682D01*
X110348400Y-137295318D01*
X110341730Y-137253204D01*
X112782000Y-137253204D01*
X112782000Y-137510795D01*
X112815620Y-137766167D01*
X112815621Y-137766173D01*
X112815622Y-137766175D01*
X112882290Y-138014984D01*
X112980864Y-138252962D01*
X112980865Y-138252963D01*
X112980870Y-138252974D01*
X113109659Y-138476043D01*
X113266460Y-138680388D01*
X113266479Y-138680409D01*
X113448590Y-138862520D01*
X113448600Y-138862529D01*
X113448606Y-138862535D01*
X113448609Y-138862537D01*
X113448611Y-138862539D01*
X113652956Y-139019340D01*
X113876025Y-139148129D01*
X113876029Y-139148130D01*
X113876038Y-139148136D01*
X114114016Y-139246710D01*
X114362825Y-139313378D01*
X114362831Y-139313378D01*
X114362832Y-139313379D01*
X114392134Y-139317236D01*
X114618207Y-139347000D01*
X114618214Y-139347000D01*
X114875786Y-139347000D01*
X114875793Y-139347000D01*
X115131175Y-139313378D01*
X115379984Y-139246710D01*
X115617962Y-139148136D01*
X115841038Y-139019343D01*
X115841038Y-139019342D01*
X115841043Y-139019340D01*
X115959717Y-138928277D01*
X116045394Y-138862535D01*
X116227535Y-138680394D01*
X116297328Y-138589438D01*
X116384340Y-138476043D01*
X116426680Y-138402709D01*
X116513136Y-138252962D01*
X116611710Y-138014984D01*
X116678378Y-137766175D01*
X116712000Y-137510793D01*
X116712000Y-137295318D01*
X119145600Y-137295318D01*
X119145600Y-137468682D01*
X119172720Y-137639912D01*
X119172721Y-137639917D01*
X119189738Y-137692289D01*
X119226292Y-137804791D01*
X119226293Y-137804792D01*
X119305000Y-137959263D01*
X119406900Y-138099516D01*
X119529483Y-138222099D01*
X119529486Y-138222101D01*
X119669740Y-138324002D01*
X119824209Y-138402708D01*
X119989082Y-138456278D01*
X119989083Y-138456278D01*
X119989088Y-138456280D01*
X120160318Y-138483400D01*
X120160321Y-138483400D01*
X120333679Y-138483400D01*
X120333682Y-138483400D01*
X120504912Y-138456280D01*
X120669791Y-138402708D01*
X120824260Y-138324002D01*
X120964514Y-138222101D01*
X121087101Y-138099514D01*
X121189002Y-137959260D01*
X121267708Y-137804791D01*
X121321280Y-137639912D01*
X121348400Y-137468682D01*
X121348400Y-137295318D01*
X121321280Y-137124088D01*
X121267708Y-136959209D01*
X121189002Y-136804740D01*
X121087101Y-136664486D01*
X121087099Y-136664483D01*
X120964516Y-136541900D01*
X120921322Y-136510518D01*
X121491500Y-136510518D01*
X121491500Y-136689481D01*
X121508838Y-136776645D01*
X121526413Y-136865000D01*
X121594898Y-137030336D01*
X121694322Y-137179135D01*
X121820865Y-137305678D01*
X121969664Y-137405102D01*
X122135000Y-137473587D01*
X122310521Y-137508500D01*
X122310522Y-137508500D01*
X122489478Y-137508500D01*
X122489479Y-137508500D01*
X122665000Y-137473587D01*
X122830336Y-137405102D01*
X122979135Y-137305678D01*
X123105678Y-137179135D01*
X123205102Y-137030336D01*
X123273587Y-136865000D01*
X123308500Y-136689479D01*
X123308500Y-136510521D01*
X123273587Y-136335000D01*
X123205102Y-136169664D01*
X123105678Y-136020865D01*
X122979135Y-135894322D01*
X122830336Y-135794898D01*
X122709045Y-135744657D01*
X122665003Y-135726414D01*
X122665001Y-135726413D01*
X122665000Y-135726413D01*
X122576645Y-135708838D01*
X122489481Y-135691500D01*
X122489479Y-135691500D01*
X122310521Y-135691500D01*
X122310518Y-135691500D01*
X122179771Y-135717507D01*
X122135000Y-135726413D01*
X122134999Y-135726413D01*
X122134996Y-135726414D01*
X121969662Y-135794899D01*
X121820869Y-135894319D01*
X121820862Y-135894324D01*
X121694324Y-136020862D01*
X121694319Y-136020869D01*
X121594899Y-136169662D01*
X121526414Y-136334996D01*
X121491500Y-136510518D01*
X120921322Y-136510518D01*
X120824263Y-136440000D01*
X120824262Y-136439999D01*
X120824260Y-136439998D01*
X120669791Y-136361292D01*
X120669788Y-136361291D01*
X120669786Y-136361290D01*
X120504915Y-136307721D01*
X120504919Y-136307721D01*
X120473041Y-136302672D01*
X120333682Y-136280600D01*
X120160318Y-136280600D01*
X119989088Y-136307720D01*
X119989082Y-136307721D01*
X119824213Y-136361290D01*
X119824207Y-136361293D01*
X119669736Y-136440000D01*
X119529483Y-136541900D01*
X119406900Y-136664483D01*
X119305000Y-136804736D01*
X119226293Y-136959207D01*
X119226290Y-136959213D01*
X119172721Y-137124082D01*
X119172720Y-137124087D01*
X119172720Y-137124088D01*
X119145600Y-137295318D01*
X116712000Y-137295318D01*
X116712000Y-137253207D01*
X116678378Y-136997825D01*
X116611710Y-136749016D01*
X116513136Y-136511038D01*
X116513130Y-136511029D01*
X116513129Y-136511025D01*
X116384340Y-136287956D01*
X116227539Y-136083611D01*
X116227537Y-136083609D01*
X116227535Y-136083606D01*
X116227529Y-136083600D01*
X116227520Y-136083590D01*
X116045409Y-135901479D01*
X116045388Y-135901460D01*
X115841043Y-135744659D01*
X115617974Y-135615870D01*
X115617966Y-135615866D01*
X115617962Y-135615864D01*
X115379984Y-135517290D01*
X115131175Y-135450622D01*
X115131173Y-135450621D01*
X115131167Y-135450620D01*
X114875795Y-135417000D01*
X114875793Y-135417000D01*
X114618207Y-135417000D01*
X114618204Y-135417000D01*
X114362832Y-135450620D01*
X114114016Y-135517290D01*
X113876036Y-135615865D01*
X113876025Y-135615870D01*
X113652956Y-135744659D01*
X113448611Y-135901460D01*
X113448590Y-135901479D01*
X113266479Y-136083590D01*
X113266460Y-136083611D01*
X113109659Y-136287956D01*
X112980870Y-136511025D01*
X112980865Y-136511036D01*
X112882290Y-136749016D01*
X112815620Y-136997832D01*
X112782000Y-137253204D01*
X110341730Y-137253204D01*
X110321280Y-137124088D01*
X110267708Y-136959209D01*
X110189002Y-136804740D01*
X110087101Y-136664486D01*
X110087099Y-136664483D01*
X109964516Y-136541900D01*
X109824263Y-136440000D01*
X109824262Y-136439999D01*
X109824260Y-136439998D01*
X109669791Y-136361292D01*
X109669788Y-136361291D01*
X109669786Y-136361290D01*
X109504915Y-136307721D01*
X109504919Y-136307721D01*
X109473041Y-136302672D01*
X109333682Y-136280600D01*
X109160318Y-136280600D01*
X108989088Y-136307720D01*
X108989082Y-136307721D01*
X108824213Y-136361290D01*
X108824207Y-136361293D01*
X108669736Y-136440000D01*
X108529483Y-136541900D01*
X108406900Y-136664483D01*
X108305000Y-136804736D01*
X108226293Y-136959207D01*
X108226290Y-136959213D01*
X108172721Y-137124082D01*
X108172720Y-137124087D01*
X108172720Y-137124088D01*
X108145600Y-137295318D01*
X106925500Y-137295318D01*
X106925500Y-134761654D01*
X106925500Y-133517263D01*
X117996500Y-133517263D01*
X117996500Y-133746736D01*
X118026450Y-133974231D01*
X118026452Y-133974238D01*
X118085842Y-134195887D01*
X118173656Y-134407888D01*
X118173657Y-134407889D01*
X118173662Y-134407900D01*
X118288386Y-134606608D01*
X118288391Y-134606615D01*
X118428073Y-134788652D01*
X118428092Y-134788673D01*
X118590326Y-134950907D01*
X118590347Y-134950926D01*
X118772384Y-135090608D01*
X118772391Y-135090613D01*
X118971099Y-135205337D01*
X118971103Y-135205338D01*
X118971112Y-135205344D01*
X119183113Y-135293158D01*
X119404762Y-135352548D01*
X119404766Y-135352548D01*
X119404768Y-135352549D01*
X119463398Y-135360267D01*
X119632266Y-135382500D01*
X119632273Y-135382500D01*
X119861727Y-135382500D01*
X119861734Y-135382500D01*
X120067345Y-135355430D01*
X120089231Y-135352549D01*
X120089231Y-135352548D01*
X120089238Y-135352548D01*
X120310887Y-135293158D01*
X120522888Y-135205344D01*
X120721612Y-135090611D01*
X120903661Y-134950919D01*
X121065919Y-134788661D01*
X121205611Y-134606612D01*
X121320344Y-134407888D01*
X121408158Y-134195887D01*
X121467548Y-133974238D01*
X121497500Y-133746734D01*
X121497500Y-133517266D01*
X121467548Y-133289762D01*
X121408158Y-133068113D01*
X121320344Y-132856112D01*
X121320338Y-132856103D01*
X121320337Y-132856099D01*
X121205613Y-132657391D01*
X121205608Y-132657384D01*
X121065926Y-132475347D01*
X121065907Y-132475326D01*
X120903673Y-132313092D01*
X120903652Y-132313073D01*
X120721615Y-132173391D01*
X120721608Y-132173386D01*
X120522900Y-132058662D01*
X120522892Y-132058658D01*
X120522888Y-132058656D01*
X120310887Y-131970842D01*
X120089238Y-131911452D01*
X120089231Y-131911450D01*
X119861736Y-131881500D01*
X119861734Y-131881500D01*
X119632266Y-131881500D01*
X119632263Y-131881500D01*
X119404768Y-131911450D01*
X119183113Y-131970842D01*
X118971110Y-132058657D01*
X118971099Y-132058662D01*
X118772391Y-132173386D01*
X118772384Y-132173391D01*
X118590347Y-132313073D01*
X118590326Y-132313092D01*
X118428092Y-132475326D01*
X118428073Y-132475347D01*
X118288391Y-132657384D01*
X118288386Y-132657391D01*
X118173662Y-132856099D01*
X118173657Y-132856110D01*
X118085842Y-133068113D01*
X118026450Y-133289768D01*
X117996500Y-133517263D01*
X106925500Y-133517263D01*
X106925500Y-131317263D01*
X112996500Y-131317263D01*
X112996500Y-131546736D01*
X113026450Y-131774231D01*
X113026452Y-131774238D01*
X113085842Y-131995887D01*
X113173656Y-132207888D01*
X113173657Y-132207889D01*
X113173662Y-132207900D01*
X113288386Y-132406608D01*
X113288391Y-132406615D01*
X113428073Y-132588652D01*
X113428092Y-132588673D01*
X113590326Y-132750907D01*
X113590347Y-132750926D01*
X113772384Y-132890608D01*
X113772391Y-132890613D01*
X113971099Y-133005337D01*
X113971103Y-133005338D01*
X113971112Y-133005344D01*
X114183113Y-133093158D01*
X114404762Y-133152548D01*
X114404766Y-133152548D01*
X114404768Y-133152549D01*
X114463398Y-133160267D01*
X114632266Y-133182500D01*
X114632273Y-133182500D01*
X114861727Y-133182500D01*
X114861734Y-133182500D01*
X115076888Y-133154174D01*
X115089231Y-133152549D01*
X115089231Y-133152548D01*
X115089238Y-133152548D01*
X115310887Y-133093158D01*
X115522888Y-133005344D01*
X115721612Y-132890611D01*
X115903661Y-132750919D01*
X116065919Y-132588661D01*
X116205611Y-132406612D01*
X116320344Y-132207888D01*
X116408158Y-131995887D01*
X116467548Y-131774238D01*
X116497500Y-131546734D01*
X116497500Y-131317266D01*
X116467548Y-131089762D01*
X116408158Y-130868113D01*
X116320344Y-130656112D01*
X116320338Y-130656103D01*
X116320337Y-130656099D01*
X116205613Y-130457391D01*
X116205608Y-130457384D01*
X116065926Y-130275347D01*
X116065907Y-130275326D01*
X115903673Y-130113092D01*
X115903652Y-130113073D01*
X115721615Y-129973391D01*
X115721608Y-129973386D01*
X115522900Y-129858662D01*
X115522892Y-129858658D01*
X115522888Y-129858656D01*
X115310887Y-129770842D01*
X115089238Y-129711452D01*
X115089231Y-129711450D01*
X114861736Y-129681500D01*
X114861734Y-129681500D01*
X114632266Y-129681500D01*
X114632263Y-129681500D01*
X114404768Y-129711450D01*
X114183113Y-129770842D01*
X113971110Y-129858657D01*
X113971099Y-129858662D01*
X113772391Y-129973386D01*
X113772384Y-129973391D01*
X113590347Y-130113073D01*
X113590326Y-130113092D01*
X113428092Y-130275326D01*
X113428073Y-130275347D01*
X113288391Y-130457384D01*
X113288386Y-130457391D01*
X113173662Y-130656099D01*
X113173657Y-130656110D01*
X113085842Y-130868113D01*
X113026450Y-131089768D01*
X112996500Y-131317263D01*
X106925500Y-131317263D01*
X106925500Y-127786051D01*
X108058139Y-127786051D01*
X108078948Y-127930785D01*
X108139691Y-128063794D01*
X108177911Y-128111223D01*
X108177916Y-128111228D01*
X108177925Y-128111238D01*
X109448761Y-129382074D01*
X109448770Y-129382082D01*
X109448777Y-129382089D01*
X109496206Y-129420309D01*
X109629215Y-129481052D01*
X109773949Y-129501861D01*
X109918683Y-129481052D01*
X110051692Y-129420309D01*
X110099121Y-129382089D01*
X111369987Y-128111223D01*
X111408207Y-128063794D01*
X111468950Y-127930785D01*
X111489759Y-127786051D01*
X111468950Y-127641317D01*
X111416670Y-127526841D01*
X111406568Y-127456568D01*
X111436061Y-127391987D01*
X111495787Y-127353604D01*
X111531285Y-127348500D01*
X111676913Y-127348500D01*
X111676916Y-127348500D01*
X111888116Y-127315049D01*
X112091483Y-127248972D01*
X112282009Y-127151894D01*
X112455004Y-127026206D01*
X112606206Y-126875004D01*
X112671278Y-126785438D01*
X112727500Y-126742085D01*
X112773214Y-126733500D01*
X114962393Y-126733500D01*
X114962394Y-126733500D01*
X115084785Y-126709155D01*
X115200075Y-126661400D01*
X115303833Y-126592071D01*
X116810554Y-125085350D01*
X118849500Y-125085350D01*
X118849500Y-126882649D01*
X118856009Y-126943196D01*
X118856011Y-126943204D01*
X118907110Y-127080202D01*
X118907112Y-127080207D01*
X118994738Y-127197261D01*
X119111792Y-127284887D01*
X119111794Y-127284888D01*
X119111796Y-127284889D01*
X119167525Y-127305675D01*
X119248795Y-127335988D01*
X119248803Y-127335990D01*
X119309350Y-127342499D01*
X119309355Y-127342499D01*
X119309362Y-127342500D01*
X119309368Y-127342500D01*
X121106632Y-127342500D01*
X121106638Y-127342500D01*
X121106645Y-127342499D01*
X121106649Y-127342499D01*
X121167196Y-127335990D01*
X121167199Y-127335989D01*
X121167201Y-127335989D01*
X121304204Y-127284889D01*
X121352184Y-127248972D01*
X121421261Y-127197261D01*
X121508887Y-127080207D01*
X121508887Y-127080206D01*
X121508889Y-127080204D01*
X121552869Y-126962288D01*
X121595414Y-126905456D01*
X121661934Y-126880645D01*
X121731308Y-126895736D01*
X121760018Y-126917229D01*
X121862990Y-127020201D01*
X121862993Y-127020203D01*
X121862996Y-127020206D01*
X122035991Y-127145894D01*
X122226517Y-127242972D01*
X122429878Y-127309047D01*
X122429879Y-127309047D01*
X122429884Y-127309049D01*
X122641084Y-127342500D01*
X122641087Y-127342500D01*
X122854913Y-127342500D01*
X122854916Y-127342500D01*
X123066116Y-127309049D01*
X123269483Y-127242972D01*
X123460009Y-127145894D01*
X123633004Y-127020206D01*
X123784206Y-126869004D01*
X123909894Y-126696009D01*
X123909899Y-126695997D01*
X123910561Y-126694920D01*
X123910924Y-126694591D01*
X123912804Y-126692004D01*
X123913347Y-126692398D01*
X123963204Y-126647283D01*
X124033244Y-126635670D01*
X124098445Y-126663766D01*
X124123021Y-126692130D01*
X124123196Y-126692004D01*
X124124668Y-126694030D01*
X124125439Y-126694920D01*
X124126105Y-126696007D01*
X124126106Y-126696009D01*
X124251794Y-126869004D01*
X124251796Y-126869006D01*
X124251798Y-126869009D01*
X124402990Y-127020201D01*
X124402993Y-127020203D01*
X124402996Y-127020206D01*
X124575991Y-127145894D01*
X124766517Y-127242972D01*
X124969878Y-127309047D01*
X124969879Y-127309047D01*
X124969884Y-127309049D01*
X125181084Y-127342500D01*
X125181087Y-127342500D01*
X125394913Y-127342500D01*
X125394916Y-127342500D01*
X125606116Y-127309049D01*
X125809483Y-127242972D01*
X126000009Y-127145894D01*
X126173004Y-127020206D01*
X126324206Y-126869004D01*
X126449894Y-126696009D01*
X126449899Y-126695997D01*
X126450561Y-126694920D01*
X126450924Y-126694591D01*
X126452804Y-126692004D01*
X126453347Y-126692398D01*
X126503204Y-126647283D01*
X126573244Y-126635670D01*
X126638445Y-126663766D01*
X126663021Y-126692130D01*
X126663196Y-126692004D01*
X126664668Y-126694030D01*
X126665439Y-126694920D01*
X126666105Y-126696007D01*
X126666106Y-126696009D01*
X126791794Y-126869004D01*
X126791796Y-126869006D01*
X126791798Y-126869009D01*
X126942990Y-127020201D01*
X126942993Y-127020203D01*
X126942996Y-127020206D01*
X127115991Y-127145894D01*
X127306517Y-127242972D01*
X127509878Y-127309047D01*
X127509879Y-127309047D01*
X127509884Y-127309049D01*
X127721084Y-127342500D01*
X127721087Y-127342500D01*
X127934913Y-127342500D01*
X127934916Y-127342500D01*
X128146116Y-127309049D01*
X128349483Y-127242972D01*
X128540009Y-127145894D01*
X128713004Y-127020206D01*
X128864206Y-126869004D01*
X128989894Y-126696009D01*
X129084407Y-126510518D01*
X131491500Y-126510518D01*
X131491500Y-126689481D01*
X131500256Y-126733499D01*
X131510587Y-126785439D01*
X131526414Y-126865003D01*
X131533953Y-126883204D01*
X131594898Y-127030336D01*
X131694322Y-127179135D01*
X131820865Y-127305678D01*
X131969664Y-127405102D01*
X132135000Y-127473587D01*
X132310521Y-127508500D01*
X132310522Y-127508500D01*
X132489478Y-127508500D01*
X132489479Y-127508500D01*
X132665000Y-127473587D01*
X132830336Y-127405102D01*
X132979135Y-127305678D01*
X133105678Y-127179135D01*
X133205102Y-127030336D01*
X133273587Y-126865000D01*
X133308500Y-126689479D01*
X133308500Y-126510521D01*
X133308499Y-126510518D01*
X136491500Y-126510518D01*
X136491500Y-126689481D01*
X136500256Y-126733499D01*
X136510587Y-126785439D01*
X136526414Y-126865003D01*
X136533953Y-126883204D01*
X136594898Y-127030336D01*
X136694322Y-127179135D01*
X136820865Y-127305678D01*
X136969664Y-127405102D01*
X137135000Y-127473587D01*
X137310521Y-127508500D01*
X137310522Y-127508500D01*
X137489478Y-127508500D01*
X137489479Y-127508500D01*
X137665000Y-127473587D01*
X137830336Y-127405102D01*
X137979135Y-127305678D01*
X138105678Y-127179135D01*
X138205102Y-127030336D01*
X138273587Y-126865000D01*
X138308500Y-126689479D01*
X138308500Y-126510521D01*
X138308499Y-126510518D01*
X141491500Y-126510518D01*
X141491500Y-126689481D01*
X141500256Y-126733499D01*
X141510587Y-126785439D01*
X141526414Y-126865003D01*
X141533953Y-126883204D01*
X141594898Y-127030336D01*
X141694322Y-127179135D01*
X141820865Y-127305678D01*
X141969664Y-127405102D01*
X142135000Y-127473587D01*
X142310521Y-127508500D01*
X142310522Y-127508500D01*
X142489478Y-127508500D01*
X142489479Y-127508500D01*
X142665000Y-127473587D01*
X142830336Y-127405102D01*
X142979135Y-127305678D01*
X143105678Y-127179135D01*
X143205102Y-127030336D01*
X143273587Y-126865000D01*
X143308500Y-126689479D01*
X143308500Y-126510521D01*
X143273587Y-126335000D01*
X143205102Y-126169664D01*
X143105678Y-126020865D01*
X142979135Y-125894322D01*
X142830336Y-125794898D01*
X142713429Y-125746473D01*
X142665003Y-125726414D01*
X142665001Y-125726413D01*
X142665000Y-125726413D01*
X142576645Y-125708838D01*
X142489481Y-125691500D01*
X142489479Y-125691500D01*
X142310521Y-125691500D01*
X142310518Y-125691500D01*
X142179771Y-125717507D01*
X142135000Y-125726413D01*
X142134999Y-125726413D01*
X142134996Y-125726414D01*
X141969662Y-125794899D01*
X141820869Y-125894319D01*
X141820862Y-125894324D01*
X141694324Y-126020862D01*
X141694319Y-126020869D01*
X141594899Y-126169662D01*
X141526414Y-126334996D01*
X141491500Y-126510518D01*
X138308499Y-126510518D01*
X138273587Y-126335000D01*
X138205102Y-126169664D01*
X138105678Y-126020865D01*
X137979135Y-125894322D01*
X137830336Y-125794898D01*
X137713429Y-125746473D01*
X137665003Y-125726414D01*
X137665001Y-125726413D01*
X137665000Y-125726413D01*
X137576645Y-125708838D01*
X137489481Y-125691500D01*
X137489479Y-125691500D01*
X137310521Y-125691500D01*
X137310518Y-125691500D01*
X137179771Y-125717507D01*
X137135000Y-125726413D01*
X137134999Y-125726413D01*
X137134996Y-125726414D01*
X136969662Y-125794899D01*
X136820869Y-125894319D01*
X136820862Y-125894324D01*
X136694324Y-126020862D01*
X136694319Y-126020869D01*
X136594899Y-126169662D01*
X136526414Y-126334996D01*
X136491500Y-126510518D01*
X133308499Y-126510518D01*
X133273587Y-126335000D01*
X133205102Y-126169664D01*
X133105678Y-126020865D01*
X132979135Y-125894322D01*
X132830336Y-125794898D01*
X132713429Y-125746473D01*
X132665003Y-125726414D01*
X132665001Y-125726413D01*
X132665000Y-125726413D01*
X132576645Y-125708838D01*
X132489481Y-125691500D01*
X132489479Y-125691500D01*
X132310521Y-125691500D01*
X132310518Y-125691500D01*
X132179771Y-125717507D01*
X132135000Y-125726413D01*
X132134999Y-125726413D01*
X132134996Y-125726414D01*
X131969662Y-125794899D01*
X131820869Y-125894319D01*
X131820862Y-125894324D01*
X131694324Y-126020862D01*
X131694319Y-126020869D01*
X131594899Y-126169662D01*
X131526414Y-126334996D01*
X131491500Y-126510518D01*
X129084407Y-126510518D01*
X129086972Y-126505483D01*
X129153049Y-126302116D01*
X129186500Y-126090916D01*
X129186500Y-125877084D01*
X129153049Y-125665884D01*
X129086972Y-125462517D01*
X128989894Y-125271991D01*
X128864206Y-125098996D01*
X128864203Y-125098993D01*
X128864201Y-125098990D01*
X128713009Y-124947798D01*
X128713006Y-124947796D01*
X128713004Y-124947794D01*
X128548270Y-124828108D01*
X128540012Y-124822108D01*
X128540011Y-124822107D01*
X128540009Y-124822106D01*
X128349483Y-124725028D01*
X128349480Y-124725027D01*
X128349478Y-124725026D01*
X128146120Y-124658952D01*
X128146123Y-124658952D01*
X128106801Y-124652724D01*
X127934916Y-124625500D01*
X127721084Y-124625500D01*
X127509884Y-124658951D01*
X127509878Y-124658952D01*
X127306521Y-124725026D01*
X127306515Y-124725029D01*
X127115987Y-124822108D01*
X126942993Y-124947796D01*
X126942990Y-124947798D01*
X126791798Y-125098990D01*
X126791796Y-125098993D01*
X126666108Y-125271987D01*
X126665434Y-125273088D01*
X126665068Y-125273418D01*
X126663196Y-125275996D01*
X126662654Y-125275602D01*
X126612787Y-125320721D01*
X126542745Y-125332328D01*
X126477547Y-125304226D01*
X126452976Y-125275870D01*
X126452804Y-125275996D01*
X126451341Y-125273982D01*
X126450566Y-125273088D01*
X126449896Y-125271996D01*
X126449894Y-125271991D01*
X126324206Y-125098996D01*
X126324203Y-125098993D01*
X126324201Y-125098990D01*
X126173009Y-124947798D01*
X126173006Y-124947796D01*
X126173004Y-124947794D01*
X126008270Y-124828108D01*
X126000012Y-124822108D01*
X126000011Y-124822107D01*
X126000009Y-124822106D01*
X125809483Y-124725028D01*
X125809480Y-124725027D01*
X125809478Y-124725026D01*
X125606120Y-124658952D01*
X125606123Y-124658952D01*
X125566801Y-124652724D01*
X125394916Y-124625500D01*
X125181084Y-124625500D01*
X124969884Y-124658951D01*
X124969878Y-124658952D01*
X124766521Y-124725026D01*
X124766515Y-124725029D01*
X124575987Y-124822108D01*
X124402993Y-124947796D01*
X124402990Y-124947798D01*
X124251798Y-125098990D01*
X124251796Y-125098993D01*
X124126108Y-125271987D01*
X124125434Y-125273088D01*
X124125068Y-125273418D01*
X124123196Y-125275996D01*
X124122654Y-125275602D01*
X124072787Y-125320721D01*
X124002745Y-125332328D01*
X123937547Y-125304226D01*
X123912976Y-125275870D01*
X123912804Y-125275996D01*
X123911341Y-125273982D01*
X123910566Y-125273088D01*
X123909896Y-125271996D01*
X123909894Y-125271991D01*
X123784206Y-125098996D01*
X123784203Y-125098993D01*
X123784201Y-125098990D01*
X123633009Y-124947798D01*
X123633006Y-124947796D01*
X123633004Y-124947794D01*
X123468270Y-124828108D01*
X123460012Y-124822108D01*
X123460011Y-124822107D01*
X123460009Y-124822106D01*
X123269483Y-124725028D01*
X123269480Y-124725027D01*
X123269478Y-124725026D01*
X123066120Y-124658952D01*
X123066123Y-124658952D01*
X123026801Y-124652724D01*
X122854916Y-124625500D01*
X122641084Y-124625500D01*
X122429884Y-124658951D01*
X122429878Y-124658952D01*
X122226521Y-124725026D01*
X122226515Y-124725029D01*
X122035987Y-124822108D01*
X121862995Y-124947794D01*
X121760018Y-125050771D01*
X121697706Y-125084796D01*
X121626890Y-125079730D01*
X121570054Y-125037184D01*
X121552871Y-125005715D01*
X121508889Y-124887796D01*
X121508886Y-124887792D01*
X121508886Y-124887791D01*
X121421261Y-124770738D01*
X121304207Y-124683112D01*
X121304202Y-124683110D01*
X121167204Y-124632011D01*
X121167196Y-124632009D01*
X121106649Y-124625500D01*
X121106638Y-124625500D01*
X119309362Y-124625500D01*
X119309350Y-124625500D01*
X119248803Y-124632009D01*
X119248795Y-124632011D01*
X119111797Y-124683110D01*
X119111792Y-124683112D01*
X118994738Y-124770738D01*
X118907112Y-124887792D01*
X118907110Y-124887797D01*
X118856011Y-125024795D01*
X118856009Y-125024803D01*
X118849500Y-125085350D01*
X116810554Y-125085350D01*
X117875499Y-124020405D01*
X117937811Y-123986379D01*
X117964594Y-123983500D01*
X131551113Y-123983500D01*
X131551114Y-123983500D01*
X131673505Y-123959155D01*
X131788795Y-123911400D01*
X131892553Y-123842071D01*
X135708274Y-120026350D01*
X144391500Y-120026350D01*
X144391500Y-122923649D01*
X144398009Y-122984196D01*
X144398011Y-122984204D01*
X144449110Y-123121202D01*
X144449112Y-123121207D01*
X144536738Y-123238261D01*
X144653792Y-123325887D01*
X144653794Y-123325888D01*
X144653796Y-123325889D01*
X144712875Y-123347924D01*
X144790795Y-123376988D01*
X144790803Y-123376990D01*
X144851350Y-123383499D01*
X144851355Y-123383499D01*
X144851362Y-123383500D01*
X144851368Y-123383500D01*
X145948632Y-123383500D01*
X145948638Y-123383500D01*
X145948645Y-123383499D01*
X145948649Y-123383499D01*
X146009196Y-123376990D01*
X146009199Y-123376989D01*
X146009201Y-123376989D01*
X146146204Y-123325889D01*
X146168839Y-123308945D01*
X146263261Y-123238261D01*
X146350887Y-123121207D01*
X146350887Y-123121206D01*
X146350889Y-123121204D01*
X146401989Y-122984201D01*
X146402827Y-122976414D01*
X146408499Y-122923649D01*
X146408500Y-122923632D01*
X146408500Y-120026367D01*
X146408499Y-120026350D01*
X146401990Y-119965803D01*
X146401988Y-119965795D01*
X146350889Y-119828797D01*
X146350887Y-119828792D01*
X146263261Y-119711738D01*
X146146207Y-119624112D01*
X146146202Y-119624110D01*
X146009204Y-119573011D01*
X146009196Y-119573009D01*
X145948649Y-119566500D01*
X145948638Y-119566500D01*
X144851362Y-119566500D01*
X144851350Y-119566500D01*
X144790803Y-119573009D01*
X144790795Y-119573011D01*
X144653797Y-119624110D01*
X144653792Y-119624112D01*
X144536738Y-119711738D01*
X144449112Y-119828792D01*
X144449110Y-119828797D01*
X144398011Y-119965795D01*
X144398009Y-119965803D01*
X144391500Y-120026350D01*
X135708274Y-120026350D01*
X136464219Y-119270405D01*
X136526531Y-119236379D01*
X136553314Y-119233500D01*
X146196497Y-119233500D01*
X146264618Y-119253502D01*
X146285592Y-119270405D01*
X146320865Y-119305678D01*
X146469664Y-119405102D01*
X146635000Y-119473587D01*
X146810521Y-119508500D01*
X146810522Y-119508500D01*
X146989478Y-119508500D01*
X146989479Y-119508500D01*
X147165000Y-119473587D01*
X147330336Y-119405102D01*
X147479135Y-119305678D01*
X147605678Y-119179135D01*
X147705102Y-119030336D01*
X147773587Y-118865000D01*
X147808500Y-118689479D01*
X147808500Y-118510521D01*
X147773587Y-118335000D01*
X147705102Y-118169664D01*
X147605678Y-118020865D01*
X147479135Y-117894322D01*
X147330336Y-117794898D01*
X147187061Y-117735551D01*
X147165003Y-117726414D01*
X147165001Y-117726413D01*
X147165000Y-117726413D01*
X147076645Y-117708838D01*
X146989481Y-117691500D01*
X146989479Y-117691500D01*
X146810521Y-117691500D01*
X146810518Y-117691500D01*
X146679771Y-117717507D01*
X146635000Y-117726413D01*
X146634999Y-117726413D01*
X146634996Y-117726414D01*
X146508112Y-117778972D01*
X146484408Y-117788791D01*
X146469662Y-117794899D01*
X146320869Y-117894319D01*
X146320862Y-117894324D01*
X146285592Y-117929595D01*
X146223280Y-117963621D01*
X146196497Y-117966500D01*
X136176323Y-117966500D01*
X136103288Y-117981028D01*
X136053935Y-117990845D01*
X136053933Y-117990845D01*
X136053932Y-117990846D01*
X135938643Y-118038601D01*
X135834891Y-118107926D01*
X135834884Y-118107931D01*
X131973595Y-121969221D01*
X131911283Y-122003247D01*
X131840468Y-121998182D01*
X131783632Y-121955635D01*
X131758821Y-121889115D01*
X131758500Y-121880126D01*
X131758500Y-120995500D01*
X131778502Y-120927379D01*
X131832158Y-120880886D01*
X131884500Y-120869500D01*
X132076393Y-120869500D01*
X132076394Y-120869500D01*
X132198785Y-120845155D01*
X132314075Y-120797400D01*
X132417833Y-120728071D01*
X134142071Y-119003833D01*
X134211400Y-118900075D01*
X134259155Y-118784785D01*
X134283500Y-118662394D01*
X134283500Y-118537607D01*
X134283500Y-118537606D01*
X134283500Y-114914594D01*
X134303502Y-114846473D01*
X134320405Y-114825499D01*
X134666225Y-114479679D01*
X138871170Y-114479679D01*
X138871170Y-114484051D01*
X138871170Y-114720321D01*
X138908815Y-114958002D01*
X138908816Y-114958007D01*
X138983176Y-115186863D01*
X138983177Y-115186866D01*
X138983178Y-115186867D01*
X139092428Y-115401281D01*
X139233874Y-115595966D01*
X139233876Y-115595968D01*
X139233878Y-115595971D01*
X139404028Y-115766121D01*
X139404031Y-115766123D01*
X139404034Y-115766126D01*
X139598719Y-115907572D01*
X139813133Y-116016822D01*
X140041998Y-116091185D01*
X140279679Y-116128830D01*
X140279682Y-116128830D01*
X140520318Y-116128830D01*
X140520321Y-116128830D01*
X140758002Y-116091185D01*
X140986867Y-116016822D01*
X141201281Y-115907572D01*
X141395966Y-115766126D01*
X141566126Y-115595966D01*
X141707572Y-115401281D01*
X141816822Y-115186867D01*
X141891185Y-114958002D01*
X141928830Y-114720321D01*
X141928830Y-114479679D01*
X141891185Y-114241998D01*
X141816822Y-114013133D01*
X141707572Y-113798719D01*
X141566126Y-113604034D01*
X141566123Y-113604031D01*
X141566121Y-113604028D01*
X141395971Y-113433878D01*
X141395968Y-113433876D01*
X141395966Y-113433874D01*
X141201281Y-113292428D01*
X140986867Y-113183178D01*
X140986866Y-113183177D01*
X140986863Y-113183176D01*
X140758007Y-113108816D01*
X140758003Y-113108815D01*
X140758002Y-113108815D01*
X140520321Y-113071170D01*
X140279679Y-113071170D01*
X140067146Y-113104832D01*
X140041992Y-113108816D01*
X139813136Y-113183176D01*
X139598715Y-113292430D01*
X139404031Y-113433876D01*
X139404028Y-113433878D01*
X139233878Y-113604028D01*
X139233876Y-113604031D01*
X139092430Y-113798715D01*
X138983176Y-114013136D01*
X138908816Y-114241992D01*
X138908815Y-114241997D01*
X138908815Y-114241998D01*
X138871170Y-114479679D01*
X134666225Y-114479679D01*
X136874499Y-112271405D01*
X136936811Y-112237379D01*
X136963594Y-112234500D01*
X144439888Y-112234500D01*
X144508009Y-112254502D01*
X144554502Y-112308158D01*
X144564606Y-112378432D01*
X144535112Y-112443012D01*
X144475386Y-112481396D01*
X144464468Y-112484079D01*
X144324493Y-112511922D01*
X144324492Y-112511922D01*
X144324489Y-112511923D01*
X144159155Y-112580408D01*
X144010362Y-112679828D01*
X144010355Y-112679833D01*
X143883817Y-112806371D01*
X143883812Y-112806378D01*
X143784392Y-112955171D01*
X143715907Y-113120505D01*
X143715907Y-113120506D01*
X143715906Y-113120509D01*
X143707000Y-113165280D01*
X143680993Y-113296027D01*
X143680993Y-113474990D01*
X143697043Y-113555678D01*
X143714751Y-113644703D01*
X143715907Y-113650512D01*
X143735966Y-113698938D01*
X143784391Y-113815845D01*
X143883815Y-113964644D01*
X144010358Y-114091187D01*
X144159157Y-114190611D01*
X144313720Y-114254633D01*
X144368999Y-114299180D01*
X144391420Y-114366544D01*
X144391500Y-114371041D01*
X144391500Y-117123649D01*
X144398009Y-117184196D01*
X144398011Y-117184204D01*
X144449110Y-117321202D01*
X144449112Y-117321207D01*
X144536738Y-117438261D01*
X144653792Y-117525887D01*
X144653794Y-117525888D01*
X144653796Y-117525889D01*
X144684532Y-117537353D01*
X144790795Y-117576988D01*
X144790803Y-117576990D01*
X144851350Y-117583499D01*
X144851355Y-117583499D01*
X144851362Y-117583500D01*
X144851368Y-117583500D01*
X145948632Y-117583500D01*
X145948638Y-117583500D01*
X145948645Y-117583499D01*
X145948649Y-117583499D01*
X146009196Y-117576990D01*
X146009199Y-117576989D01*
X146009201Y-117576989D01*
X146146204Y-117525889D01*
X146146675Y-117525537D01*
X146263261Y-117438261D01*
X146350887Y-117321207D01*
X146350887Y-117321206D01*
X146350889Y-117321204D01*
X146401989Y-117184201D01*
X146402534Y-117179137D01*
X146408499Y-117123649D01*
X146408500Y-117123632D01*
X146408500Y-114609500D01*
X146428502Y-114541379D01*
X146482158Y-114494886D01*
X146534500Y-114483500D01*
X148265500Y-114483500D01*
X148333621Y-114503502D01*
X148380114Y-114557158D01*
X148391500Y-114609500D01*
X148391500Y-117123649D01*
X148398009Y-117184196D01*
X148398011Y-117184204D01*
X148449110Y-117321202D01*
X148449112Y-117321207D01*
X148536738Y-117438261D01*
X148653796Y-117525889D01*
X148684531Y-117537353D01*
X148741368Y-117579899D01*
X148766179Y-117646419D01*
X148766500Y-117655409D01*
X148766500Y-119494591D01*
X148746498Y-119562712D01*
X148692842Y-119609205D01*
X148684534Y-119612646D01*
X148653795Y-119624111D01*
X148653792Y-119624112D01*
X148536738Y-119711738D01*
X148449112Y-119828792D01*
X148449110Y-119828797D01*
X148398011Y-119965795D01*
X148398009Y-119965803D01*
X148391500Y-120026350D01*
X148391500Y-122923649D01*
X148398009Y-122984196D01*
X148398011Y-122984204D01*
X148449110Y-123121202D01*
X148449112Y-123121207D01*
X148536738Y-123238261D01*
X148653792Y-123325887D01*
X148653794Y-123325888D01*
X148653796Y-123325889D01*
X148712875Y-123347924D01*
X148790795Y-123376988D01*
X148790803Y-123376990D01*
X148851350Y-123383499D01*
X148851355Y-123383499D01*
X148851362Y-123383500D01*
X149460406Y-123383500D01*
X149528527Y-123403502D01*
X149549501Y-123420405D01*
X150471167Y-124342071D01*
X150567457Y-124406410D01*
X150612985Y-124460887D01*
X150621833Y-124531330D01*
X150591192Y-124595374D01*
X150530790Y-124632685D01*
X150517171Y-124635622D01*
X150369884Y-124658951D01*
X150369878Y-124658952D01*
X150166521Y-124725026D01*
X150166515Y-124725029D01*
X149975987Y-124822108D01*
X149802993Y-124947796D01*
X149802990Y-124947798D01*
X149651798Y-125098990D01*
X149651796Y-125098993D01*
X149526108Y-125271987D01*
X149525434Y-125273088D01*
X149525068Y-125273418D01*
X149523196Y-125275996D01*
X149522654Y-125275602D01*
X149472787Y-125320721D01*
X149402745Y-125332328D01*
X149337547Y-125304226D01*
X149312976Y-125275870D01*
X149312804Y-125275996D01*
X149311341Y-125273982D01*
X149310566Y-125273088D01*
X149309896Y-125271996D01*
X149309894Y-125271991D01*
X149184206Y-125098996D01*
X149184203Y-125098993D01*
X149184201Y-125098990D01*
X149033009Y-124947798D01*
X149033006Y-124947796D01*
X149033004Y-124947794D01*
X148868270Y-124828108D01*
X148860012Y-124822108D01*
X148860011Y-124822107D01*
X148860009Y-124822106D01*
X148669483Y-124725028D01*
X148669480Y-124725027D01*
X148669478Y-124725026D01*
X148466120Y-124658952D01*
X148466123Y-124658952D01*
X148426801Y-124652724D01*
X148254916Y-124625500D01*
X148041084Y-124625500D01*
X147829884Y-124658951D01*
X147829878Y-124658952D01*
X147626521Y-124725026D01*
X147626515Y-124725029D01*
X147435987Y-124822108D01*
X147262993Y-124947796D01*
X147262990Y-124947798D01*
X147111798Y-125098990D01*
X147111796Y-125098993D01*
X146986108Y-125271987D01*
X146889029Y-125462515D01*
X146889026Y-125462521D01*
X146822952Y-125665878D01*
X146822951Y-125665883D01*
X146822951Y-125665884D01*
X146789500Y-125877084D01*
X146789500Y-126090916D01*
X146801973Y-126169664D01*
X146822952Y-126302121D01*
X146885876Y-126495782D01*
X146889028Y-126505483D01*
X146986106Y-126696009D01*
X147111794Y-126869004D01*
X147111796Y-126869006D01*
X147111798Y-126869009D01*
X147262990Y-127020201D01*
X147262993Y-127020203D01*
X147262996Y-127020206D01*
X147435991Y-127145894D01*
X147626517Y-127242972D01*
X147829878Y-127309047D01*
X147829879Y-127309047D01*
X147829884Y-127309049D01*
X148041084Y-127342500D01*
X148041087Y-127342500D01*
X148254913Y-127342500D01*
X148254916Y-127342500D01*
X148466116Y-127309049D01*
X148669483Y-127242972D01*
X148860009Y-127145894D01*
X149033004Y-127020206D01*
X149184206Y-126869004D01*
X149309894Y-126696009D01*
X149309899Y-126695997D01*
X149310561Y-126694920D01*
X149310924Y-126694591D01*
X149312804Y-126692004D01*
X149313347Y-126692398D01*
X149363204Y-126647283D01*
X149433244Y-126635670D01*
X149498445Y-126663766D01*
X149523021Y-126692130D01*
X149523196Y-126692004D01*
X149524668Y-126694030D01*
X149525439Y-126694920D01*
X149526105Y-126696007D01*
X149526106Y-126696009D01*
X149651794Y-126869004D01*
X149651796Y-126869006D01*
X149651798Y-126869009D01*
X149802990Y-127020201D01*
X149802993Y-127020203D01*
X149802996Y-127020206D01*
X149975991Y-127145894D01*
X150166517Y-127242972D01*
X150369878Y-127309047D01*
X150369879Y-127309047D01*
X150369884Y-127309049D01*
X150581084Y-127342500D01*
X150581087Y-127342500D01*
X150794913Y-127342500D01*
X150794916Y-127342500D01*
X151006116Y-127309049D01*
X151209483Y-127242972D01*
X151400009Y-127145894D01*
X151573004Y-127020206D01*
X151724206Y-126869004D01*
X151849894Y-126696009D01*
X151849899Y-126695997D01*
X151850561Y-126694920D01*
X151850924Y-126694591D01*
X151852804Y-126692004D01*
X151853347Y-126692398D01*
X151903204Y-126647283D01*
X151973244Y-126635670D01*
X152038445Y-126663766D01*
X152063021Y-126692130D01*
X152063196Y-126692004D01*
X152064668Y-126694030D01*
X152065439Y-126694920D01*
X152066105Y-126696007D01*
X152066106Y-126696009D01*
X152191794Y-126869004D01*
X152191796Y-126869006D01*
X152191798Y-126869009D01*
X152342990Y-127020201D01*
X152342993Y-127020203D01*
X152342996Y-127020206D01*
X152515991Y-127145894D01*
X152706517Y-127242972D01*
X152909878Y-127309047D01*
X152909879Y-127309047D01*
X152909884Y-127309049D01*
X153121084Y-127342500D01*
X153121087Y-127342500D01*
X153334913Y-127342500D01*
X153334916Y-127342500D01*
X153546116Y-127309049D01*
X153749483Y-127242972D01*
X153940009Y-127145894D01*
X154113004Y-127020206D01*
X154215982Y-126917227D01*
X154278292Y-126883204D01*
X154349108Y-126888268D01*
X154405944Y-126930815D01*
X154423131Y-126962291D01*
X154467110Y-127080203D01*
X154467112Y-127080207D01*
X154554738Y-127197261D01*
X154671792Y-127284887D01*
X154671794Y-127284888D01*
X154671796Y-127284889D01*
X154727525Y-127305675D01*
X154808795Y-127335988D01*
X154808803Y-127335990D01*
X154869350Y-127342499D01*
X154869355Y-127342499D01*
X154869362Y-127342500D01*
X154869368Y-127342500D01*
X156666632Y-127342500D01*
X156666638Y-127342500D01*
X156666645Y-127342499D01*
X156666649Y-127342499D01*
X156727196Y-127335990D01*
X156727199Y-127335989D01*
X156727201Y-127335989D01*
X156864204Y-127284889D01*
X156912184Y-127248972D01*
X156981261Y-127197261D01*
X157068887Y-127080207D01*
X157068887Y-127080206D01*
X157068889Y-127080204D01*
X157117951Y-126948666D01*
X157119988Y-126943204D01*
X157119990Y-126943196D01*
X157126499Y-126882649D01*
X157126500Y-126882632D01*
X157126500Y-125085367D01*
X157126499Y-125085350D01*
X157119990Y-125024803D01*
X157119988Y-125024795D01*
X157090541Y-124945846D01*
X157068889Y-124887796D01*
X157068888Y-124887794D01*
X157068887Y-124887792D01*
X156981261Y-124770738D01*
X156900616Y-124710368D01*
X156858069Y-124653532D01*
X156853005Y-124582716D01*
X156887030Y-124520404D01*
X156949342Y-124486379D01*
X156976125Y-124483500D01*
X157946497Y-124483500D01*
X158014618Y-124503502D01*
X158035591Y-124520404D01*
X158070865Y-124555678D01*
X158219664Y-124655102D01*
X158385000Y-124723587D01*
X158560521Y-124758500D01*
X158560522Y-124758500D01*
X158739478Y-124758500D01*
X158739479Y-124758500D01*
X158915000Y-124723587D01*
X159080336Y-124655102D01*
X159229135Y-124555678D01*
X159355678Y-124429135D01*
X159455102Y-124280336D01*
X159523587Y-124115000D01*
X159558500Y-123939479D01*
X159558500Y-123760521D01*
X159523587Y-123585000D01*
X159455102Y-123419664D01*
X159355678Y-123270865D01*
X159229135Y-123144322D01*
X159080336Y-123044898D01*
X158933790Y-122984196D01*
X158915003Y-122976414D01*
X158915001Y-122976413D01*
X158915000Y-122976413D01*
X158826645Y-122958838D01*
X158739481Y-122941500D01*
X158739479Y-122941500D01*
X158560521Y-122941500D01*
X158560518Y-122941500D01*
X158429771Y-122967507D01*
X158385000Y-122976413D01*
X158384999Y-122976413D01*
X158384996Y-122976414D01*
X158253902Y-123030716D01*
X158250670Y-123032055D01*
X158219662Y-123044899D01*
X158070869Y-123144319D01*
X158070862Y-123144324D01*
X158035592Y-123179595D01*
X157973280Y-123213621D01*
X157946497Y-123216500D01*
X157496820Y-123216500D01*
X157428699Y-123196498D01*
X157382206Y-123142842D01*
X157372102Y-123072568D01*
X157378765Y-123046467D01*
X157401988Y-122984204D01*
X157401990Y-122984196D01*
X157408499Y-122923649D01*
X157408500Y-122923632D01*
X157408500Y-120026367D01*
X157408499Y-120026350D01*
X157401990Y-119965803D01*
X157401988Y-119965795D01*
X157350889Y-119828797D01*
X157350887Y-119828792D01*
X157263261Y-119711738D01*
X157146207Y-119624112D01*
X157146202Y-119624110D01*
X157009204Y-119573011D01*
X157009196Y-119573009D01*
X156948649Y-119566500D01*
X156948638Y-119566500D01*
X155851362Y-119566500D01*
X155851350Y-119566500D01*
X155790803Y-119573009D01*
X155790795Y-119573011D01*
X155653797Y-119624110D01*
X155653792Y-119624112D01*
X155536738Y-119711738D01*
X155449112Y-119828792D01*
X155449110Y-119828797D01*
X155398011Y-119965795D01*
X155398009Y-119965803D01*
X155391500Y-120026350D01*
X155391500Y-122923649D01*
X155398009Y-122984196D01*
X155398011Y-122984204D01*
X155421235Y-123046467D01*
X155426301Y-123117282D01*
X155392276Y-123179595D01*
X155329964Y-123213620D01*
X155303180Y-123216500D01*
X153496820Y-123216500D01*
X153428699Y-123196498D01*
X153382206Y-123142842D01*
X153372102Y-123072568D01*
X153378765Y-123046467D01*
X153401988Y-122984204D01*
X153401990Y-122984196D01*
X153408499Y-122923649D01*
X153408500Y-122923632D01*
X153408500Y-120026367D01*
X153408499Y-120026350D01*
X153401990Y-119965803D01*
X153401988Y-119965795D01*
X153350889Y-119828797D01*
X153350887Y-119828792D01*
X153263261Y-119711738D01*
X153146207Y-119624112D01*
X153146204Y-119624111D01*
X153115466Y-119612646D01*
X153058631Y-119570099D01*
X153033821Y-119503578D01*
X153033500Y-119494591D01*
X153033500Y-118412002D01*
X153053502Y-118343881D01*
X153107158Y-118297388D01*
X153177432Y-118287284D01*
X153242012Y-118316778D01*
X153275909Y-118363783D01*
X153276412Y-118364999D01*
X153276413Y-118365000D01*
X153344898Y-118530336D01*
X153444322Y-118679135D01*
X153570865Y-118805678D01*
X153719664Y-118905102D01*
X153885000Y-118973587D01*
X154060521Y-119008500D01*
X154060522Y-119008500D01*
X154239478Y-119008500D01*
X154239479Y-119008500D01*
X154415000Y-118973587D01*
X154580336Y-118905102D01*
X154729135Y-118805678D01*
X154764408Y-118770405D01*
X154826720Y-118736379D01*
X154853503Y-118733500D01*
X160208962Y-118733500D01*
X160277083Y-118753502D01*
X160323576Y-118807158D01*
X160333680Y-118877432D01*
X160327373Y-118900408D01*
X160327906Y-118900581D01*
X160270027Y-119078711D01*
X160270026Y-119078716D01*
X160270026Y-119078717D01*
X160241500Y-119258824D01*
X160241500Y-119441176D01*
X160263816Y-119582074D01*
X160270027Y-119621288D01*
X160326374Y-119794706D01*
X160409164Y-119957189D01*
X160431589Y-119988054D01*
X160516346Y-120104712D01*
X160516348Y-120104714D01*
X160516350Y-120104717D01*
X160604151Y-120192518D01*
X160638177Y-120254830D01*
X160633112Y-120325645D01*
X160590565Y-120382481D01*
X160589119Y-120383547D01*
X160580144Y-120390067D01*
X160580136Y-120390074D01*
X160440071Y-120530139D01*
X160323636Y-120690398D01*
X160233703Y-120866901D01*
X160233702Y-120866903D01*
X160183677Y-121020865D01*
X160172488Y-121055300D01*
X160141500Y-121250954D01*
X160141500Y-121449046D01*
X160172488Y-121644700D01*
X160233702Y-121833097D01*
X160320398Y-122003247D01*
X160323636Y-122009601D01*
X160440071Y-122169860D01*
X160580139Y-122309928D01*
X160580142Y-122309930D01*
X160740402Y-122426366D01*
X160916903Y-122516298D01*
X161105300Y-122577512D01*
X161300954Y-122608500D01*
X161300957Y-122608500D01*
X161499043Y-122608500D01*
X161499046Y-122608500D01*
X161694700Y-122577512D01*
X161883097Y-122516298D01*
X162059598Y-122426366D01*
X162219858Y-122309930D01*
X162359930Y-122169858D01*
X162476366Y-122009598D01*
X162566298Y-121833097D01*
X162627512Y-121644700D01*
X162648764Y-121510518D01*
X166491500Y-121510518D01*
X166491500Y-121510521D01*
X166491500Y-121689479D01*
X166520067Y-121833098D01*
X166526414Y-121865003D01*
X166536402Y-121889115D01*
X166594898Y-122030336D01*
X166694322Y-122179135D01*
X166820865Y-122305678D01*
X166969664Y-122405102D01*
X167135000Y-122473587D01*
X167310521Y-122508500D01*
X167310522Y-122508500D01*
X167489478Y-122508500D01*
X167489479Y-122508500D01*
X167665000Y-122473587D01*
X167830336Y-122405102D01*
X167979135Y-122305678D01*
X168105678Y-122179135D01*
X168205102Y-122030336D01*
X168273587Y-121865000D01*
X168308500Y-121689479D01*
X168308500Y-121510521D01*
X168273587Y-121335000D01*
X168205102Y-121169664D01*
X168105678Y-121020865D01*
X167979135Y-120894322D01*
X167830336Y-120794898D01*
X167669003Y-120728071D01*
X167665003Y-120726414D01*
X167665001Y-120726413D01*
X167665000Y-120726413D01*
X167576645Y-120708838D01*
X167489481Y-120691500D01*
X167489479Y-120691500D01*
X167310521Y-120691500D01*
X167310518Y-120691500D01*
X167179771Y-120717507D01*
X167135000Y-120726413D01*
X167134999Y-120726413D01*
X167134996Y-120726414D01*
X166969662Y-120794899D01*
X166820869Y-120894319D01*
X166820862Y-120894324D01*
X166694324Y-121020862D01*
X166694319Y-121020869D01*
X166594899Y-121169662D01*
X166526414Y-121334996D01*
X166526413Y-121334999D01*
X166526413Y-121335000D01*
X166521103Y-121361695D01*
X166491500Y-121510518D01*
X162648764Y-121510518D01*
X162658500Y-121449046D01*
X162658500Y-121250954D01*
X162627512Y-121055300D01*
X162566298Y-120866903D01*
X162476366Y-120690402D01*
X162406179Y-120593798D01*
X162359928Y-120530139D01*
X162219863Y-120390074D01*
X162219859Y-120390071D01*
X162219858Y-120390070D01*
X162210881Y-120383548D01*
X162167529Y-120327328D01*
X162161452Y-120256592D01*
X162194583Y-120193800D01*
X162195777Y-120192588D01*
X162283654Y-120104712D01*
X162390838Y-119957186D01*
X162473624Y-119794710D01*
X162529974Y-119621283D01*
X162558500Y-119441176D01*
X162558500Y-119258824D01*
X162529974Y-119078717D01*
X162473624Y-118905290D01*
X162390838Y-118742814D01*
X162283654Y-118595288D01*
X162283651Y-118595285D01*
X162283649Y-118595282D01*
X162154717Y-118466350D01*
X162154714Y-118466348D01*
X162154712Y-118466346D01*
X162134877Y-118451935D01*
X162091524Y-118395714D01*
X162085449Y-118324978D01*
X162118580Y-118262186D01*
X162134878Y-118248064D01*
X162154712Y-118233654D01*
X162283654Y-118104712D01*
X162390838Y-117957186D01*
X162473624Y-117794710D01*
X162529974Y-117621283D01*
X162558500Y-117441176D01*
X162558500Y-117258824D01*
X162529974Y-117078717D01*
X162473624Y-116905290D01*
X162390838Y-116742814D01*
X162283654Y-116595288D01*
X162283651Y-116595285D01*
X162283649Y-116595282D01*
X162198885Y-116510518D01*
X166491500Y-116510518D01*
X166491500Y-116510521D01*
X166491500Y-116689479D01*
X166526413Y-116865000D01*
X166594898Y-117030336D01*
X166694322Y-117179135D01*
X166820865Y-117305678D01*
X166969664Y-117405102D01*
X167135000Y-117473587D01*
X167310521Y-117508500D01*
X167310522Y-117508500D01*
X167489478Y-117508500D01*
X167489479Y-117508500D01*
X167665000Y-117473587D01*
X167830336Y-117405102D01*
X167979135Y-117305678D01*
X168105678Y-117179135D01*
X168205102Y-117030336D01*
X168273587Y-116865000D01*
X168308500Y-116689479D01*
X168308500Y-116510521D01*
X168273587Y-116335000D01*
X168205102Y-116169664D01*
X168105678Y-116020865D01*
X167979135Y-115894322D01*
X167830336Y-115794898D01*
X167713429Y-115746473D01*
X167665003Y-115726414D01*
X167665001Y-115726413D01*
X167665000Y-115726413D01*
X167576645Y-115708838D01*
X167489481Y-115691500D01*
X167489479Y-115691500D01*
X167310521Y-115691500D01*
X167310518Y-115691500D01*
X167179771Y-115717507D01*
X167135000Y-115726413D01*
X167134999Y-115726413D01*
X167134996Y-115726414D01*
X166969662Y-115794899D01*
X166820869Y-115894319D01*
X166820862Y-115894324D01*
X166694324Y-116020862D01*
X166694319Y-116020869D01*
X166647336Y-116091185D01*
X166594898Y-116169664D01*
X166584189Y-116195517D01*
X166526414Y-116334996D01*
X166526413Y-116334999D01*
X166526413Y-116335000D01*
X166523360Y-116350347D01*
X166491500Y-116510518D01*
X162198885Y-116510518D01*
X162154718Y-116466351D01*
X162154714Y-116466348D01*
X162154712Y-116466346D01*
X162092344Y-116421033D01*
X162048992Y-116364811D01*
X162042917Y-116294075D01*
X162076049Y-116231283D01*
X162092339Y-116217167D01*
X162122139Y-116195517D01*
X162245517Y-116072139D01*
X162348074Y-115930981D01*
X162427288Y-115775516D01*
X162481205Y-115609574D01*
X162508500Y-115437241D01*
X162508500Y-115262759D01*
X162481205Y-115090426D01*
X162427288Y-114924484D01*
X162348074Y-114769019D01*
X162245517Y-114627861D01*
X162245514Y-114627858D01*
X162245512Y-114627855D01*
X162154894Y-114537237D01*
X162120868Y-114474925D01*
X162125933Y-114404110D01*
X162168480Y-114347274D01*
X162169928Y-114346206D01*
X162219858Y-114309930D01*
X162359930Y-114169858D01*
X162476366Y-114009598D01*
X162566298Y-113833097D01*
X162627512Y-113644700D01*
X162658500Y-113449046D01*
X162658500Y-113250954D01*
X162627512Y-113055300D01*
X162566298Y-112866903D01*
X162476366Y-112690402D01*
X162399784Y-112584996D01*
X162359928Y-112530139D01*
X162278384Y-112448595D01*
X162244358Y-112386283D01*
X162249423Y-112315468D01*
X162291970Y-112258632D01*
X162358490Y-112233821D01*
X162367479Y-112233500D01*
X164196497Y-112233500D01*
X164264618Y-112253502D01*
X164285592Y-112270405D01*
X164320865Y-112305678D01*
X164469664Y-112405102D01*
X164635000Y-112473587D01*
X164810521Y-112508500D01*
X164810522Y-112508500D01*
X164989478Y-112508500D01*
X164989479Y-112508500D01*
X165165000Y-112473587D01*
X165330336Y-112405102D01*
X165479135Y-112305678D01*
X165605678Y-112179135D01*
X165705102Y-112030336D01*
X165773587Y-111865000D01*
X165808500Y-111689479D01*
X165808500Y-111510521D01*
X165808499Y-111510518D01*
X166491500Y-111510518D01*
X166491500Y-111510521D01*
X166491500Y-111689479D01*
X166526413Y-111865000D01*
X166594898Y-112030336D01*
X166694322Y-112179135D01*
X166820865Y-112305678D01*
X166969664Y-112405102D01*
X167135000Y-112473587D01*
X167310521Y-112508500D01*
X167310522Y-112508500D01*
X167489478Y-112508500D01*
X167489479Y-112508500D01*
X167665000Y-112473587D01*
X167830336Y-112405102D01*
X167979135Y-112305678D01*
X168105678Y-112179135D01*
X168205102Y-112030336D01*
X168273587Y-111865000D01*
X168308500Y-111689479D01*
X168308500Y-111510521D01*
X168273587Y-111335000D01*
X168205102Y-111169664D01*
X168105678Y-111020865D01*
X167979135Y-110894322D01*
X167830336Y-110794898D01*
X167713429Y-110746473D01*
X167665003Y-110726414D01*
X167665001Y-110726413D01*
X167665000Y-110726413D01*
X167576645Y-110708838D01*
X167489481Y-110691500D01*
X167489479Y-110691500D01*
X167310521Y-110691500D01*
X167310518Y-110691500D01*
X167179771Y-110717507D01*
X167135000Y-110726413D01*
X167134999Y-110726413D01*
X167134996Y-110726414D01*
X166969662Y-110794899D01*
X166820869Y-110894319D01*
X166820862Y-110894324D01*
X166694324Y-111020862D01*
X166694319Y-111020869D01*
X166594899Y-111169662D01*
X166526414Y-111334996D01*
X166491500Y-111510518D01*
X165808499Y-111510518D01*
X165773587Y-111335000D01*
X165705102Y-111169664D01*
X165605678Y-111020865D01*
X165479135Y-110894322D01*
X165330336Y-110794898D01*
X165213429Y-110746473D01*
X165165003Y-110726414D01*
X165165001Y-110726413D01*
X165165000Y-110726413D01*
X165076645Y-110708838D01*
X164989481Y-110691500D01*
X164989479Y-110691500D01*
X164810521Y-110691500D01*
X164810518Y-110691500D01*
X164679771Y-110717507D01*
X164635000Y-110726413D01*
X164634999Y-110726413D01*
X164634996Y-110726414D01*
X164469662Y-110794899D01*
X164320869Y-110894319D01*
X164320862Y-110894324D01*
X164285592Y-110929595D01*
X164223280Y-110963621D01*
X164196497Y-110966500D01*
X148737386Y-110966500D01*
X148669265Y-110946498D01*
X148648291Y-110929595D01*
X148442038Y-110723342D01*
X148408012Y-110661030D01*
X148413077Y-110590215D01*
X148455624Y-110533379D01*
X148518174Y-110509798D01*
X148518091Y-110509274D01*
X148520633Y-110508871D01*
X148521263Y-110508634D01*
X148522962Y-110508500D01*
X148522981Y-110508500D01*
X148726408Y-110476280D01*
X148922290Y-110412634D01*
X149105803Y-110319129D01*
X149272430Y-110198068D01*
X149418068Y-110052430D01*
X149539129Y-109885803D01*
X149577734Y-109810034D01*
X149626481Y-109758422D01*
X149695396Y-109741356D01*
X149762598Y-109764257D01*
X149802264Y-109810034D01*
X149840871Y-109885803D01*
X149961932Y-110052430D01*
X149961934Y-110052432D01*
X149961936Y-110052435D01*
X150107564Y-110198063D01*
X150107567Y-110198065D01*
X150107570Y-110198068D01*
X150274197Y-110319129D01*
X150457710Y-110412634D01*
X150653592Y-110476280D01*
X150857019Y-110508500D01*
X150857022Y-110508500D01*
X151062978Y-110508500D01*
X151062981Y-110508500D01*
X151266408Y-110476280D01*
X151462290Y-110412634D01*
X151645803Y-110319129D01*
X151812430Y-110198068D01*
X151958068Y-110052430D01*
X152079129Y-109885803D01*
X152117734Y-109810034D01*
X152166481Y-109758422D01*
X152235396Y-109741356D01*
X152302598Y-109764257D01*
X152342264Y-109810034D01*
X152380871Y-109885803D01*
X152501932Y-110052430D01*
X152501934Y-110052432D01*
X152501936Y-110052435D01*
X152647564Y-110198063D01*
X152647567Y-110198065D01*
X152647570Y-110198068D01*
X152814197Y-110319129D01*
X152997710Y-110412634D01*
X153193592Y-110476280D01*
X153397019Y-110508500D01*
X153397022Y-110508500D01*
X153602978Y-110508500D01*
X153602981Y-110508500D01*
X153806408Y-110476280D01*
X154002290Y-110412634D01*
X154185803Y-110319129D01*
X154352430Y-110198068D01*
X154498068Y-110052430D01*
X154619129Y-109885803D01*
X154657734Y-109810034D01*
X154706481Y-109758422D01*
X154775396Y-109741356D01*
X154842598Y-109764257D01*
X154882264Y-109810034D01*
X154920871Y-109885803D01*
X155041932Y-110052430D01*
X155041934Y-110052432D01*
X155041936Y-110052435D01*
X155187564Y-110198063D01*
X155187567Y-110198065D01*
X155187570Y-110198068D01*
X155354197Y-110319129D01*
X155537710Y-110412634D01*
X155733592Y-110476280D01*
X155937019Y-110508500D01*
X155937022Y-110508500D01*
X156142978Y-110508500D01*
X156142981Y-110508500D01*
X156346408Y-110476280D01*
X156542290Y-110412634D01*
X156725803Y-110319129D01*
X156892430Y-110198068D01*
X157038068Y-110052430D01*
X157159129Y-109885803D01*
X157197734Y-109810034D01*
X157246481Y-109758422D01*
X157315396Y-109741356D01*
X157382598Y-109764257D01*
X157422264Y-109810034D01*
X157460871Y-109885803D01*
X157581932Y-110052430D01*
X157581934Y-110052432D01*
X157581936Y-110052435D01*
X157727564Y-110198063D01*
X157727567Y-110198065D01*
X157727570Y-110198068D01*
X157894197Y-110319129D01*
X158077710Y-110412634D01*
X158273592Y-110476280D01*
X158477019Y-110508500D01*
X158477022Y-110508500D01*
X158682978Y-110508500D01*
X158682981Y-110508500D01*
X158886408Y-110476280D01*
X159082290Y-110412634D01*
X159265803Y-110319129D01*
X159432430Y-110198068D01*
X159578068Y-110052430D01*
X159699129Y-109885803D01*
X159737734Y-109810034D01*
X159786481Y-109758422D01*
X159855396Y-109741356D01*
X159922598Y-109764257D01*
X159962264Y-109810034D01*
X160000871Y-109885803D01*
X160121932Y-110052430D01*
X160121934Y-110052432D01*
X160121936Y-110052435D01*
X160267564Y-110198063D01*
X160267567Y-110198065D01*
X160267570Y-110198068D01*
X160434197Y-110319129D01*
X160617710Y-110412634D01*
X160813592Y-110476280D01*
X161017019Y-110508500D01*
X161017022Y-110508500D01*
X161222978Y-110508500D01*
X161222981Y-110508500D01*
X161426408Y-110476280D01*
X161622290Y-110412634D01*
X161805803Y-110319129D01*
X161972430Y-110198068D01*
X162118068Y-110052430D01*
X162239129Y-109885803D01*
X162277734Y-109810034D01*
X162326481Y-109758422D01*
X162395396Y-109741356D01*
X162462598Y-109764257D01*
X162502264Y-109810034D01*
X162540871Y-109885803D01*
X162661932Y-110052430D01*
X162661934Y-110052432D01*
X162661936Y-110052435D01*
X162807564Y-110198063D01*
X162807567Y-110198065D01*
X162807570Y-110198068D01*
X162974197Y-110319129D01*
X163157710Y-110412634D01*
X163353592Y-110476280D01*
X163557019Y-110508500D01*
X163557022Y-110508500D01*
X163762978Y-110508500D01*
X163762981Y-110508500D01*
X163966408Y-110476280D01*
X164162290Y-110412634D01*
X164345803Y-110319129D01*
X164512430Y-110198068D01*
X164658068Y-110052430D01*
X164779129Y-109885803D01*
X164872634Y-109702290D01*
X164936280Y-109506408D01*
X164968500Y-109302981D01*
X164968500Y-109097019D01*
X164954799Y-109010518D01*
X168991500Y-109010518D01*
X168991500Y-109010521D01*
X168991500Y-109189479D01*
X169026413Y-109365000D01*
X169094898Y-109530336D01*
X169194322Y-109679135D01*
X169320865Y-109805678D01*
X169469664Y-109905102D01*
X169635000Y-109973587D01*
X169810521Y-110008500D01*
X169810522Y-110008500D01*
X169989478Y-110008500D01*
X169989479Y-110008500D01*
X170165000Y-109973587D01*
X170330336Y-109905102D01*
X170479135Y-109805678D01*
X170605678Y-109679135D01*
X170705102Y-109530336D01*
X170773587Y-109365000D01*
X170808500Y-109189479D01*
X170808500Y-109010521D01*
X170773587Y-108835000D01*
X170705102Y-108669664D01*
X170605678Y-108520865D01*
X170479135Y-108394322D01*
X170330336Y-108294898D01*
X170183778Y-108234191D01*
X170165003Y-108226414D01*
X170165001Y-108226413D01*
X170165000Y-108226413D01*
X170076645Y-108208838D01*
X169989481Y-108191500D01*
X169989479Y-108191500D01*
X169810521Y-108191500D01*
X169810518Y-108191500D01*
X169679771Y-108217507D01*
X169635000Y-108226413D01*
X169634999Y-108226413D01*
X169634996Y-108226414D01*
X169469662Y-108294899D01*
X169320869Y-108394319D01*
X169320862Y-108394324D01*
X169194324Y-108520862D01*
X169194319Y-108520869D01*
X169094899Y-108669662D01*
X169026414Y-108834996D01*
X168991500Y-109010518D01*
X164954799Y-109010518D01*
X164936280Y-108893592D01*
X164872634Y-108697710D01*
X164779129Y-108514197D01*
X164658068Y-108347570D01*
X164658065Y-108347567D01*
X164658063Y-108347564D01*
X164512435Y-108201936D01*
X164512432Y-108201934D01*
X164512430Y-108201932D01*
X164345803Y-108080871D01*
X164162290Y-107987366D01*
X164162287Y-107987365D01*
X164162285Y-107987364D01*
X163966412Y-107923721D01*
X163966410Y-107923720D01*
X163966408Y-107923720D01*
X163762981Y-107891500D01*
X163557019Y-107891500D01*
X163557018Y-107891500D01*
X163505748Y-107899619D01*
X163435338Y-107890518D01*
X163396946Y-107864265D01*
X162644519Y-107111838D01*
X162644515Y-107111834D01*
X162520284Y-107028826D01*
X162382247Y-106971649D01*
X162308976Y-106957074D01*
X162308975Y-106957073D01*
X162235711Y-106942500D01*
X162235706Y-106942500D01*
X160562108Y-106942500D01*
X160493987Y-106922498D01*
X160447494Y-106868842D01*
X160437390Y-106798568D01*
X160466884Y-106733988D01*
X160504902Y-106704234D01*
X160559598Y-106676366D01*
X160719858Y-106559930D01*
X160859930Y-106419858D01*
X160976366Y-106259598D01*
X161066298Y-106083097D01*
X161127512Y-105894700D01*
X161158500Y-105699046D01*
X161158500Y-105500954D01*
X161127512Y-105305300D01*
X161066298Y-105116903D01*
X160976366Y-104940402D01*
X160887500Y-104818089D01*
X160859928Y-104780139D01*
X160719863Y-104640074D01*
X160719859Y-104640071D01*
X160719858Y-104640070D01*
X160710881Y-104633548D01*
X160667529Y-104577328D01*
X160661452Y-104506592D01*
X160694583Y-104443800D01*
X160695777Y-104442588D01*
X160783654Y-104354712D01*
X160890838Y-104207186D01*
X160973624Y-104044710D01*
X160984734Y-104010518D01*
X168991500Y-104010518D01*
X168991500Y-104189481D01*
X169026414Y-104365003D01*
X169030056Y-104373796D01*
X169094898Y-104530336D01*
X169194322Y-104679135D01*
X169320865Y-104805678D01*
X169469664Y-104905102D01*
X169635000Y-104973587D01*
X169810521Y-105008500D01*
X169810522Y-105008500D01*
X169989478Y-105008500D01*
X169989479Y-105008500D01*
X170165000Y-104973587D01*
X170330336Y-104905102D01*
X170479135Y-104805678D01*
X170605678Y-104679135D01*
X170705102Y-104530336D01*
X170773587Y-104365000D01*
X170808500Y-104189479D01*
X170808500Y-104010521D01*
X170773587Y-103835000D01*
X170705102Y-103669664D01*
X170605678Y-103520865D01*
X170479135Y-103394322D01*
X170330336Y-103294898D01*
X170199530Y-103240716D01*
X170165003Y-103226414D01*
X170165001Y-103226413D01*
X170165000Y-103226413D01*
X170076645Y-103208838D01*
X169989481Y-103191500D01*
X169989479Y-103191500D01*
X169810521Y-103191500D01*
X169810518Y-103191500D01*
X169679771Y-103217507D01*
X169635000Y-103226413D01*
X169634999Y-103226413D01*
X169634996Y-103226414D01*
X169469662Y-103294899D01*
X169320869Y-103394319D01*
X169320862Y-103394324D01*
X169194324Y-103520862D01*
X169194319Y-103520869D01*
X169094899Y-103669662D01*
X169026414Y-103834996D01*
X168991500Y-104010518D01*
X160984734Y-104010518D01*
X161029974Y-103871283D01*
X161058500Y-103691176D01*
X161058500Y-103508824D01*
X161029974Y-103328717D01*
X160973624Y-103155290D01*
X160890838Y-102992814D01*
X160783654Y-102845288D01*
X160783651Y-102845285D01*
X160783649Y-102845282D01*
X160654717Y-102716350D01*
X160654714Y-102716348D01*
X160654712Y-102716346D01*
X160634877Y-102701935D01*
X160591524Y-102645714D01*
X160585449Y-102574978D01*
X160618580Y-102512186D01*
X160634878Y-102498064D01*
X160654712Y-102483654D01*
X160783654Y-102354712D01*
X160890838Y-102207186D01*
X160973624Y-102044710D01*
X161029974Y-101871283D01*
X161058500Y-101691176D01*
X161058500Y-101508824D01*
X161029974Y-101328717D01*
X160973624Y-101155290D01*
X160890838Y-100992814D01*
X160783654Y-100845288D01*
X160783651Y-100845285D01*
X160783649Y-100845282D01*
X160654718Y-100716351D01*
X160654714Y-100716348D01*
X160654712Y-100716346D01*
X160592344Y-100671033D01*
X160548992Y-100614811D01*
X160542917Y-100544075D01*
X160576049Y-100481283D01*
X160592339Y-100467167D01*
X160622139Y-100445517D01*
X160745517Y-100322139D01*
X160848074Y-100180981D01*
X160927288Y-100025516D01*
X160981205Y-99859574D01*
X161008500Y-99687241D01*
X161008500Y-99512759D01*
X160981205Y-99340426D01*
X160927288Y-99174484D01*
X160848074Y-99019019D01*
X160841898Y-99010518D01*
X168991500Y-99010518D01*
X168991500Y-99189481D01*
X169008838Y-99276645D01*
X169026413Y-99365000D01*
X169094898Y-99530336D01*
X169194322Y-99679135D01*
X169320865Y-99805678D01*
X169469664Y-99905102D01*
X169635000Y-99973587D01*
X169810521Y-100008500D01*
X169810522Y-100008500D01*
X169989478Y-100008500D01*
X169989479Y-100008500D01*
X170165000Y-99973587D01*
X170330336Y-99905102D01*
X170479135Y-99805678D01*
X170605678Y-99679135D01*
X170705102Y-99530336D01*
X170773587Y-99365000D01*
X170808500Y-99189479D01*
X170808500Y-99010521D01*
X170773587Y-98835000D01*
X170705102Y-98669664D01*
X170605678Y-98520865D01*
X170479135Y-98394322D01*
X170330336Y-98294898D01*
X170213429Y-98246473D01*
X170165003Y-98226414D01*
X170165001Y-98226413D01*
X170165000Y-98226413D01*
X170076645Y-98208838D01*
X169989481Y-98191500D01*
X169989479Y-98191500D01*
X169810521Y-98191500D01*
X169810518Y-98191500D01*
X169679771Y-98217507D01*
X169635000Y-98226413D01*
X169634999Y-98226413D01*
X169634996Y-98226414D01*
X169469662Y-98294899D01*
X169320869Y-98394319D01*
X169320862Y-98394324D01*
X169194324Y-98520862D01*
X169194319Y-98520869D01*
X169094899Y-98669662D01*
X169026414Y-98834996D01*
X168991500Y-99010518D01*
X160841898Y-99010518D01*
X160745517Y-98877861D01*
X160745514Y-98877858D01*
X160745512Y-98877855D01*
X160654894Y-98787237D01*
X160620868Y-98724925D01*
X160625933Y-98654110D01*
X160668480Y-98597274D01*
X160669928Y-98596206D01*
X160719858Y-98559930D01*
X160859930Y-98419858D01*
X160976366Y-98259598D01*
X161066298Y-98083097D01*
X161127512Y-97894700D01*
X161158500Y-97699046D01*
X161158500Y-97500954D01*
X161127512Y-97305300D01*
X161066298Y-97116903D01*
X160976366Y-96940402D01*
X160899784Y-96834996D01*
X160859928Y-96780139D01*
X160719860Y-96640071D01*
X160559601Y-96523636D01*
X160559600Y-96523635D01*
X160559598Y-96523634D01*
X160383097Y-96433702D01*
X160194700Y-96372488D01*
X159999046Y-96341500D01*
X159800954Y-96341500D01*
X159605300Y-96372488D01*
X159605297Y-96372488D01*
X159605296Y-96372489D01*
X159416903Y-96433702D01*
X159416901Y-96433703D01*
X159240398Y-96523636D01*
X159080139Y-96640071D01*
X158940071Y-96780139D01*
X158823636Y-96940398D01*
X158733703Y-97116901D01*
X158733702Y-97116903D01*
X158687695Y-97258499D01*
X158672488Y-97305300D01*
X158641500Y-97500954D01*
X158641500Y-97699046D01*
X158672488Y-97894700D01*
X158733702Y-98083097D01*
X158806726Y-98226414D01*
X158823636Y-98259601D01*
X158940071Y-98419860D01*
X159080135Y-98559924D01*
X159080138Y-98559926D01*
X159080142Y-98559930D01*
X159130072Y-98596206D01*
X159173425Y-98652429D01*
X159179500Y-98723165D01*
X159146368Y-98785957D01*
X159145106Y-98787237D01*
X159054483Y-98877860D01*
X158951928Y-99019015D01*
X158872713Y-99174482D01*
X158872710Y-99174488D01*
X158833946Y-99293794D01*
X158818795Y-99340426D01*
X158791500Y-99512759D01*
X158791500Y-99687241D01*
X158818795Y-99859574D01*
X158818796Y-99859577D01*
X158868282Y-100011884D01*
X158872712Y-100025516D01*
X158951926Y-100180981D01*
X159054483Y-100322139D01*
X159054485Y-100322141D01*
X159054487Y-100322144D01*
X159177855Y-100445512D01*
X159177858Y-100445514D01*
X159177861Y-100445517D01*
X159207653Y-100467162D01*
X159251007Y-100523384D01*
X159257082Y-100594120D01*
X159223951Y-100656912D01*
X159207654Y-100671033D01*
X159145288Y-100716345D01*
X159145282Y-100716350D01*
X159016350Y-100845282D01*
X159016348Y-100845285D01*
X158909164Y-100992810D01*
X158826374Y-101155293D01*
X158770027Y-101328711D01*
X158770026Y-101328716D01*
X158770026Y-101328717D01*
X158741500Y-101508824D01*
X158741500Y-101691176D01*
X158764089Y-101833796D01*
X158770027Y-101871288D01*
X158826374Y-102044706D01*
X158826375Y-102044709D01*
X158826376Y-102044710D01*
X158831964Y-102055678D01*
X158909164Y-102207189D01*
X158921078Y-102223587D01*
X159016346Y-102354712D01*
X159016348Y-102354714D01*
X159016350Y-102354717D01*
X159145282Y-102483649D01*
X159145285Y-102483651D01*
X159145288Y-102483654D01*
X159164602Y-102497686D01*
X159165123Y-102498065D01*
X159177919Y-102514660D01*
X159194286Y-102527747D01*
X159199159Y-102542205D01*
X159208476Y-102554288D01*
X159210268Y-102575166D01*
X159216962Y-102595025D01*
X159213244Y-102609823D01*
X159214550Y-102625025D01*
X159204770Y-102643558D01*
X159199665Y-102663883D01*
X159186244Y-102678667D01*
X159181417Y-102687816D01*
X159177268Y-102691892D01*
X159171506Y-102697297D01*
X159145288Y-102716346D01*
X159055606Y-102806027D01*
X159054152Y-102807392D01*
X159024193Y-102822530D01*
X158994728Y-102838620D01*
X158991711Y-102838944D01*
X158990786Y-102839412D01*
X158989042Y-102839231D01*
X158967944Y-102841500D01*
X158075290Y-102841500D01*
X157928753Y-102870649D01*
X157928750Y-102870650D01*
X157790715Y-102927826D01*
X157666488Y-103010832D01*
X157666481Y-103010837D01*
X157560837Y-103116481D01*
X157560832Y-103116488D01*
X157477825Y-103240716D01*
X157477825Y-103240717D01*
X157459737Y-103284383D01*
X157459731Y-103284400D01*
X157420649Y-103378754D01*
X157407347Y-103445624D01*
X157407346Y-103445629D01*
X157391500Y-103525290D01*
X157391500Y-104818089D01*
X157371498Y-104886210D01*
X157317842Y-104932703D01*
X157247568Y-104942807D01*
X157182988Y-104913313D01*
X157153234Y-104875293D01*
X157062894Y-104697991D01*
X156937206Y-104524996D01*
X156937203Y-104524993D01*
X156937201Y-104524990D01*
X156786009Y-104373798D01*
X156786006Y-104373796D01*
X156786004Y-104373794D01*
X156613009Y-104248106D01*
X156613007Y-104248105D01*
X156611920Y-104247439D01*
X156611591Y-104247075D01*
X156609004Y-104245196D01*
X156609398Y-104244652D01*
X156564283Y-104194796D01*
X156552670Y-104124756D01*
X156580766Y-104059555D01*
X156609130Y-104034978D01*
X156609004Y-104034804D01*
X156611030Y-104033331D01*
X156611920Y-104032561D01*
X156612997Y-104031899D01*
X156613009Y-104031894D01*
X156786004Y-103906206D01*
X156937206Y-103755004D01*
X157062894Y-103582009D01*
X157159972Y-103391483D01*
X157226049Y-103188116D01*
X157259500Y-102976916D01*
X157259500Y-102763084D01*
X157226049Y-102551884D01*
X157159972Y-102348517D01*
X157062894Y-102157991D01*
X156937206Y-101984996D01*
X156937203Y-101984993D01*
X156937201Y-101984990D01*
X156786009Y-101833798D01*
X156786006Y-101833796D01*
X156786004Y-101833794D01*
X156655781Y-101739182D01*
X156613012Y-101708108D01*
X156611920Y-101707439D01*
X156611591Y-101707075D01*
X156609004Y-101705196D01*
X156609398Y-101704652D01*
X156564283Y-101654796D01*
X156552670Y-101584756D01*
X156580766Y-101519555D01*
X156609130Y-101494978D01*
X156609004Y-101494804D01*
X156611030Y-101493331D01*
X156611920Y-101492561D01*
X156612997Y-101491899D01*
X156613009Y-101491894D01*
X156786004Y-101366206D01*
X156937206Y-101215004D01*
X157062894Y-101042009D01*
X157159972Y-100851483D01*
X157226049Y-100648116D01*
X157259500Y-100436916D01*
X157259500Y-100223084D01*
X157226049Y-100011884D01*
X157159972Y-99808517D01*
X157062894Y-99617991D01*
X156937206Y-99444996D01*
X156937203Y-99444993D01*
X156937201Y-99444990D01*
X156834229Y-99342018D01*
X156800203Y-99279706D01*
X156805268Y-99208891D01*
X156847815Y-99152055D01*
X156879284Y-99134871D01*
X156997204Y-99090889D01*
X157053012Y-99049112D01*
X157114261Y-99003261D01*
X157201887Y-98886207D01*
X157201887Y-98886206D01*
X157201889Y-98886204D01*
X157252989Y-98749201D01*
X157258816Y-98695006D01*
X157259499Y-98688649D01*
X157259500Y-98688632D01*
X157259500Y-96891367D01*
X157259499Y-96891350D01*
X157252990Y-96830803D01*
X157252988Y-96830795D01*
X157201889Y-96693797D01*
X157201887Y-96693792D01*
X157114261Y-96576738D01*
X156997207Y-96489112D01*
X156997202Y-96489110D01*
X156860204Y-96438011D01*
X156860196Y-96438009D01*
X156799649Y-96431500D01*
X156799638Y-96431500D01*
X155002362Y-96431500D01*
X155002350Y-96431500D01*
X154941803Y-96438009D01*
X154941795Y-96438011D01*
X154804797Y-96489110D01*
X154804792Y-96489112D01*
X154687738Y-96576738D01*
X154600112Y-96693792D01*
X154600110Y-96693797D01*
X154549011Y-96830795D01*
X154549009Y-96830803D01*
X154542500Y-96891350D01*
X154542500Y-98688649D01*
X154549009Y-98749196D01*
X154549011Y-98749204D01*
X154600110Y-98886202D01*
X154600112Y-98886207D01*
X154687738Y-99003261D01*
X154804791Y-99090886D01*
X154804792Y-99090886D01*
X154804796Y-99090889D01*
X154922711Y-99134869D01*
X154979543Y-99177414D01*
X155004354Y-99243934D01*
X154989263Y-99313308D01*
X154967771Y-99342018D01*
X154864794Y-99444995D01*
X154739108Y-99617987D01*
X154642029Y-99808515D01*
X154642026Y-99808521D01*
X154575952Y-100011878D01*
X154575951Y-100011883D01*
X154575951Y-100011884D01*
X154542500Y-100223084D01*
X154542500Y-100436916D01*
X154575951Y-100648116D01*
X154575952Y-100648121D01*
X154615833Y-100770862D01*
X154642028Y-100851483D01*
X154739106Y-101042009D01*
X154864794Y-101215004D01*
X154864796Y-101215006D01*
X154864798Y-101215009D01*
X155015990Y-101366201D01*
X155015993Y-101366203D01*
X155015996Y-101366206D01*
X155188991Y-101491894D01*
X155188996Y-101491896D01*
X155190088Y-101492566D01*
X155190418Y-101492931D01*
X155192996Y-101494804D01*
X155192602Y-101495345D01*
X155237721Y-101545213D01*
X155249328Y-101615255D01*
X155221226Y-101680453D01*
X155192870Y-101705023D01*
X155192996Y-101705196D01*
X155190982Y-101706658D01*
X155190088Y-101707434D01*
X155188987Y-101708108D01*
X155015993Y-101833796D01*
X155015990Y-101833798D01*
X154864798Y-101984990D01*
X154864796Y-101984993D01*
X154739108Y-102157987D01*
X154642029Y-102348515D01*
X154642026Y-102348521D01*
X154575952Y-102551878D01*
X154575951Y-102551883D01*
X154575951Y-102551884D01*
X154542500Y-102763084D01*
X154542500Y-102976916D01*
X154575951Y-103188116D01*
X154575952Y-103188121D01*
X154636617Y-103374830D01*
X154642028Y-103391483D01*
X154739106Y-103582009D01*
X154864794Y-103755004D01*
X154864796Y-103755006D01*
X154864798Y-103755009D01*
X155015990Y-103906201D01*
X155015993Y-103906203D01*
X155015996Y-103906206D01*
X155188991Y-104031894D01*
X155188996Y-104031896D01*
X155190088Y-104032566D01*
X155190418Y-104032931D01*
X155192996Y-104034804D01*
X155192602Y-104035345D01*
X155237721Y-104085213D01*
X155249328Y-104155255D01*
X155221226Y-104220453D01*
X155192870Y-104245023D01*
X155192996Y-104245196D01*
X155190982Y-104246658D01*
X155190088Y-104247434D01*
X155188987Y-104248108D01*
X155015993Y-104373796D01*
X155015990Y-104373798D01*
X154864798Y-104524990D01*
X154864796Y-104524993D01*
X154739108Y-104697987D01*
X154739106Y-104697991D01*
X154665985Y-104841500D01*
X154662822Y-104847707D01*
X154614073Y-104899322D01*
X154545159Y-104916388D01*
X154480554Y-104895269D01*
X154330340Y-104794900D01*
X154330339Y-104794899D01*
X154165003Y-104726414D01*
X154165001Y-104726413D01*
X154165000Y-104726413D01*
X154076645Y-104708838D01*
X153989481Y-104691500D01*
X153989479Y-104691500D01*
X153810521Y-104691500D01*
X153810518Y-104691500D01*
X153679771Y-104717507D01*
X153635000Y-104726413D01*
X153634999Y-104726413D01*
X153634996Y-104726414D01*
X153469662Y-104794899D01*
X153450529Y-104807683D01*
X153434957Y-104818089D01*
X153431700Y-104820265D01*
X153363947Y-104841480D01*
X153361698Y-104841500D01*
X136188302Y-104841500D01*
X136120181Y-104821498D01*
X136118300Y-104820265D01*
X136080336Y-104794898D01*
X135963429Y-104746473D01*
X135915003Y-104726414D01*
X135915001Y-104726413D01*
X135915000Y-104726413D01*
X135826645Y-104708838D01*
X135739481Y-104691500D01*
X135739479Y-104691500D01*
X135560521Y-104691500D01*
X135560518Y-104691500D01*
X135429771Y-104717507D01*
X135385000Y-104726413D01*
X135384999Y-104726413D01*
X135384996Y-104726414D01*
X135219662Y-104794899D01*
X135070869Y-104894319D01*
X135070862Y-104894324D01*
X134944324Y-105020862D01*
X134944319Y-105020869D01*
X134844898Y-105169663D01*
X134776413Y-105335000D01*
X134776411Y-105335006D01*
X134769694Y-105368773D01*
X134736785Y-105431681D01*
X134675089Y-105466812D01*
X134621535Y-105467767D01*
X134489484Y-105441500D01*
X134489479Y-105441500D01*
X134310521Y-105441500D01*
X134310518Y-105441500D01*
X134183268Y-105466812D01*
X134135000Y-105476413D01*
X134134999Y-105476413D01*
X134134996Y-105476414D01*
X133969662Y-105544899D01*
X133820869Y-105644319D01*
X133820862Y-105644324D01*
X133694324Y-105770862D01*
X133694319Y-105770869D01*
X133594899Y-105919662D01*
X133526414Y-106084996D01*
X133491500Y-106260518D01*
X133491500Y-106439481D01*
X133498275Y-106473539D01*
X133526413Y-106615000D01*
X133594898Y-106780336D01*
X133694322Y-106929135D01*
X133820865Y-107055678D01*
X133969664Y-107155102D01*
X134039417Y-107183994D01*
X134094696Y-107228543D01*
X134117117Y-107295906D01*
X134107606Y-107348621D01*
X134071414Y-107435994D01*
X134036500Y-107611518D01*
X134036500Y-107790481D01*
X134071414Y-107966003D01*
X134091473Y-108014429D01*
X134139898Y-108131336D01*
X134239322Y-108280135D01*
X134365865Y-108406678D01*
X134488956Y-108488924D01*
X134534483Y-108543400D01*
X134543332Y-108613843D01*
X134531221Y-108650891D01*
X134507369Y-108697702D01*
X134507364Y-108697714D01*
X134443721Y-108893587D01*
X134443720Y-108893590D01*
X134443720Y-108893592D01*
X134411500Y-109097019D01*
X134411500Y-109302981D01*
X134443720Y-109506408D01*
X134443721Y-109506412D01*
X134499840Y-109679130D01*
X134507366Y-109702290D01*
X134600871Y-109885803D01*
X134721932Y-110052430D01*
X134721934Y-110052432D01*
X134721936Y-110052435D01*
X134867564Y-110198063D01*
X134867567Y-110198065D01*
X134867570Y-110198068D01*
X135034197Y-110319129D01*
X135217710Y-110412634D01*
X135319350Y-110445659D01*
X135377955Y-110485731D01*
X135405592Y-110551128D01*
X135393485Y-110621085D01*
X135369508Y-110654586D01*
X130856513Y-115167581D01*
X130794201Y-115201607D01*
X130728481Y-115198319D01*
X130718116Y-115194951D01*
X130506916Y-115161500D01*
X130293084Y-115161500D01*
X130081884Y-115194951D01*
X130081878Y-115194952D01*
X129878521Y-115261026D01*
X129878515Y-115261029D01*
X129687987Y-115358108D01*
X129514993Y-115483796D01*
X129514990Y-115483798D01*
X129363798Y-115634990D01*
X129363796Y-115634993D01*
X129238108Y-115807987D01*
X129141029Y-115998515D01*
X129141026Y-115998521D01*
X129074952Y-116201878D01*
X129074951Y-116201883D01*
X129074951Y-116201884D01*
X129041500Y-116413084D01*
X129041500Y-116626916D01*
X129059856Y-116742810D01*
X129074952Y-116838121D01*
X129137406Y-117030336D01*
X129141028Y-117041483D01*
X129238106Y-117232009D01*
X129363794Y-117405004D01*
X129363796Y-117405006D01*
X129363798Y-117405009D01*
X129514990Y-117556201D01*
X129514993Y-117556203D01*
X129514996Y-117556206D01*
X129687991Y-117681894D01*
X129687996Y-117681896D01*
X129689088Y-117682566D01*
X129689418Y-117682931D01*
X129691996Y-117684804D01*
X129691602Y-117685345D01*
X129736721Y-117735213D01*
X129748328Y-117805255D01*
X129720226Y-117870453D01*
X129691870Y-117895023D01*
X129691996Y-117895196D01*
X129689982Y-117896658D01*
X129689088Y-117897434D01*
X129687987Y-117898108D01*
X129514993Y-118023796D01*
X129514990Y-118023798D01*
X129363798Y-118174990D01*
X129363796Y-118174993D01*
X129238108Y-118347987D01*
X129141029Y-118538515D01*
X129141026Y-118538521D01*
X129074952Y-118741878D01*
X129074952Y-118741881D01*
X129074951Y-118741884D01*
X129041500Y-118953084D01*
X129041500Y-119166916D01*
X129063478Y-119305678D01*
X129074952Y-119378123D01*
X129074953Y-119378124D01*
X129094266Y-119437565D01*
X129096293Y-119508532D01*
X129059630Y-119569330D01*
X128995918Y-119600655D01*
X128974433Y-119602500D01*
X127701603Y-119602500D01*
X127650598Y-119612646D01*
X127579215Y-119626845D01*
X127579213Y-119626845D01*
X127579212Y-119626846D01*
X127463923Y-119674601D01*
X127360171Y-119743926D01*
X127360164Y-119743931D01*
X124924501Y-122179595D01*
X124862189Y-122213621D01*
X124835406Y-122216500D01*
X117337603Y-122216500D01*
X117264568Y-122231028D01*
X117215215Y-122240845D01*
X117215213Y-122240845D01*
X117215212Y-122240846D01*
X117099923Y-122288601D01*
X116996171Y-122357926D01*
X116996169Y-122357927D01*
X116732955Y-122621140D01*
X116670643Y-122655165D01*
X116599827Y-122650100D01*
X116542992Y-122607553D01*
X116518181Y-122541032D01*
X116519411Y-122512333D01*
X116520603Y-122504813D01*
X116520603Y-122290981D01*
X116487152Y-122079781D01*
X116421075Y-121876414D01*
X116323997Y-121685888D01*
X116198309Y-121512893D01*
X116198306Y-121512890D01*
X116198304Y-121512887D01*
X116047112Y-121361695D01*
X116047109Y-121361693D01*
X116047107Y-121361691D01*
X115916884Y-121267079D01*
X115874115Y-121236005D01*
X115874114Y-121236004D01*
X115874112Y-121236003D01*
X115683586Y-121138925D01*
X115683583Y-121138924D01*
X115683581Y-121138923D01*
X115480223Y-121072849D01*
X115480226Y-121072849D01*
X115440904Y-121066621D01*
X115269019Y-121039397D01*
X115055187Y-121039397D01*
X114862253Y-121069955D01*
X114843981Y-121072849D01*
X114640624Y-121138923D01*
X114640618Y-121138926D01*
X114450090Y-121236005D01*
X114277096Y-121361693D01*
X114277093Y-121361695D01*
X114125901Y-121512887D01*
X114125899Y-121512890D01*
X114000211Y-121685884D01*
X113903132Y-121876412D01*
X113903129Y-121876418D01*
X113837055Y-122079775D01*
X113837054Y-122079780D01*
X113837054Y-122079781D01*
X113803603Y-122290981D01*
X113803603Y-122504813D01*
X113837054Y-122716013D01*
X113837057Y-122716031D01*
X113837359Y-122717288D01*
X113837334Y-122717779D01*
X113837829Y-122720902D01*
X113837172Y-122721005D01*
X113833801Y-122788195D01*
X113792472Y-122845922D01*
X113726494Y-122872141D01*
X113689089Y-122869465D01*
X113689056Y-122869675D01*
X113686620Y-122869289D01*
X113685442Y-122869205D01*
X113684185Y-122868903D01*
X113684167Y-122868900D01*
X113472967Y-122835449D01*
X113259135Y-122835449D01*
X113047935Y-122868900D01*
X113047929Y-122868901D01*
X112844572Y-122934975D01*
X112844566Y-122934978D01*
X112654038Y-123032057D01*
X112481044Y-123157745D01*
X112481041Y-123157747D01*
X112329849Y-123308939D01*
X112329847Y-123308942D01*
X112204159Y-123481936D01*
X112107080Y-123672464D01*
X112107077Y-123672470D01*
X112041003Y-123875827D01*
X112041002Y-123875832D01*
X112041002Y-123875833D01*
X112007551Y-124087033D01*
X112007551Y-124300865D01*
X112032457Y-124458117D01*
X112041004Y-124512079D01*
X112041306Y-124513334D01*
X112041281Y-124513824D01*
X112041777Y-124516954D01*
X112041119Y-124517058D01*
X112037751Y-124584242D01*
X111996424Y-124641970D01*
X111930447Y-124668192D01*
X111893038Y-124665516D01*
X111893005Y-124665726D01*
X111890563Y-124665339D01*
X111889385Y-124665255D01*
X111888130Y-124664953D01*
X111816020Y-124653532D01*
X111676916Y-124631500D01*
X111463084Y-124631500D01*
X111251884Y-124664951D01*
X111251878Y-124664952D01*
X111048521Y-124731026D01*
X111048515Y-124731029D01*
X110857987Y-124828108D01*
X110684993Y-124953796D01*
X110684990Y-124953798D01*
X110533798Y-125104990D01*
X110533796Y-125104993D01*
X110408108Y-125277987D01*
X110311029Y-125468515D01*
X110311026Y-125468521D01*
X110244952Y-125671878D01*
X110244951Y-125671883D01*
X110244951Y-125671884D01*
X110212451Y-125877084D01*
X110211500Y-125883087D01*
X110211500Y-126028715D01*
X110191498Y-126096836D01*
X110137842Y-126143329D01*
X110067568Y-126153433D01*
X110033158Y-126143329D01*
X109918683Y-126091050D01*
X109773949Y-126070241D01*
X109629214Y-126091050D01*
X109496205Y-126151793D01*
X109448780Y-126190010D01*
X109448761Y-126190027D01*
X108177925Y-127460863D01*
X108177908Y-127460882D01*
X108139691Y-127508307D01*
X108131227Y-127526842D01*
X108078948Y-127641317D01*
X108058139Y-127786051D01*
X106925500Y-127786051D01*
X106925500Y-126146730D01*
X106925556Y-126143056D01*
X106943601Y-125546154D01*
X106944058Y-125538614D01*
X106997951Y-124945819D01*
X106998862Y-124938314D01*
X107088468Y-124349846D01*
X107089828Y-124342428D01*
X107214819Y-123760440D01*
X107216627Y-123753110D01*
X107376543Y-123179745D01*
X107378797Y-123172515D01*
X107573045Y-122609893D01*
X107575731Y-122602810D01*
X107803627Y-122052911D01*
X107806731Y-122046019D01*
X108067418Y-121510909D01*
X108070930Y-121504221D01*
X108363483Y-120985804D01*
X108367382Y-120979359D01*
X108690711Y-120479570D01*
X108695006Y-120473353D01*
X109047917Y-119994033D01*
X109052594Y-119988066D01*
X109433822Y-119530933D01*
X109438828Y-119525286D01*
X109846979Y-119092009D01*
X109852345Y-119086648D01*
X109860783Y-119078711D01*
X110285919Y-118678822D01*
X110291569Y-118673821D01*
X110748970Y-118292945D01*
X110754961Y-118288256D01*
X111234534Y-117935706D01*
X111240766Y-117931409D01*
X111544009Y-117735550D01*
X111612081Y-117715394D01*
X111680247Y-117735241D01*
X111726862Y-117788791D01*
X111735209Y-117813355D01*
X111744527Y-117854180D01*
X111856122Y-118173099D01*
X111856133Y-118173126D01*
X112002739Y-118477556D01*
X112002744Y-118477565D01*
X112182519Y-118763675D01*
X112393203Y-119027865D01*
X112632134Y-119266796D01*
X112632138Y-119266799D01*
X112896325Y-119477481D01*
X113182439Y-119657258D01*
X113486883Y-119803871D01*
X113486899Y-119803876D01*
X113486900Y-119803877D01*
X113805821Y-119915473D01*
X113805824Y-119915473D01*
X113805828Y-119915475D01*
X114135264Y-119990666D01*
X114373363Y-120017493D01*
X114471044Y-120028500D01*
X114471046Y-120028500D01*
X114808956Y-120028500D01*
X114894232Y-120018891D01*
X115144736Y-119990666D01*
X115474172Y-119915475D01*
X115793117Y-119803871D01*
X116097561Y-119657258D01*
X116379760Y-119479941D01*
X119874500Y-119479941D01*
X119874500Y-119484312D01*
X119874500Y-119720059D01*
X119912058Y-119957189D01*
X119912064Y-119957227D01*
X119959985Y-120104712D01*
X119986264Y-120185589D01*
X120095276Y-120399536D01*
X120236414Y-120593796D01*
X120236416Y-120593798D01*
X120236418Y-120593801D01*
X120406198Y-120763581D01*
X120406201Y-120763583D01*
X120406204Y-120763586D01*
X120600464Y-120904724D01*
X120814411Y-121013736D01*
X121042778Y-121087937D01*
X121279941Y-121125500D01*
X121279944Y-121125500D01*
X121520056Y-121125500D01*
X121520059Y-121125500D01*
X121757222Y-121087937D01*
X121985589Y-121013736D01*
X122199536Y-120904724D01*
X122393796Y-120763586D01*
X122563586Y-120593796D01*
X122704724Y-120399536D01*
X122813736Y-120185589D01*
X122887937Y-119957222D01*
X122925500Y-119720059D01*
X122925500Y-119479941D01*
X122887937Y-119242778D01*
X122813736Y-119014411D01*
X122704724Y-118800464D01*
X122563586Y-118606204D01*
X122563583Y-118606201D01*
X122563581Y-118606198D01*
X122393801Y-118436418D01*
X122393798Y-118436416D01*
X122393796Y-118436414D01*
X122199536Y-118295276D01*
X121985589Y-118186264D01*
X121985586Y-118186263D01*
X121985584Y-118186262D01*
X121757227Y-118112064D01*
X121757223Y-118112063D01*
X121757222Y-118112063D01*
X121520059Y-118074500D01*
X121279941Y-118074500D01*
X121042778Y-118112063D01*
X121042772Y-118112064D01*
X120814415Y-118186262D01*
X120814409Y-118186265D01*
X120600460Y-118295278D01*
X120406201Y-118436416D01*
X120406198Y-118436418D01*
X120236418Y-118606198D01*
X120236416Y-118606201D01*
X120095278Y-118800460D01*
X119986265Y-119014409D01*
X119986262Y-119014415D01*
X119912064Y-119242772D01*
X119912063Y-119242777D01*
X119912063Y-119242778D01*
X119874500Y-119479941D01*
X116379760Y-119479941D01*
X116383675Y-119477481D01*
X116451632Y-119423286D01*
X116510323Y-119376483D01*
X116510328Y-119376479D01*
X116578696Y-119321957D01*
X116647862Y-119266799D01*
X116886799Y-119027862D01*
X117097481Y-118763675D01*
X117277258Y-118477561D01*
X117423871Y-118173117D01*
X117520337Y-117897434D01*
X117535473Y-117854178D01*
X117535473Y-117854177D01*
X117535475Y-117854172D01*
X117610666Y-117524736D01*
X117648500Y-117188954D01*
X117648500Y-116851046D01*
X117648500Y-116851044D01*
X117611024Y-116518439D01*
X117611024Y-116518438D01*
X117610666Y-116515263D01*
X117609583Y-116510518D01*
X123241500Y-116510518D01*
X123241500Y-116510521D01*
X123241500Y-116689479D01*
X123276413Y-116865000D01*
X123344898Y-117030336D01*
X123444322Y-117179135D01*
X123570865Y-117305678D01*
X123719664Y-117405102D01*
X123885000Y-117473587D01*
X124060521Y-117508500D01*
X124060522Y-117508500D01*
X124239478Y-117508500D01*
X124239479Y-117508500D01*
X124415000Y-117473587D01*
X124580336Y-117405102D01*
X124729135Y-117305678D01*
X124855678Y-117179135D01*
X124955102Y-117030336D01*
X125023587Y-116865000D01*
X125058500Y-116689479D01*
X125058500Y-116510521D01*
X125023587Y-116335000D01*
X124955102Y-116169664D01*
X124855678Y-116020865D01*
X124729135Y-115894322D01*
X124580336Y-115794898D01*
X124463429Y-115746473D01*
X124415003Y-115726414D01*
X124415001Y-115726413D01*
X124415000Y-115726413D01*
X124326645Y-115708838D01*
X124239481Y-115691500D01*
X124239479Y-115691500D01*
X124060521Y-115691500D01*
X124060518Y-115691500D01*
X123929771Y-115717507D01*
X123885000Y-115726413D01*
X123884999Y-115726413D01*
X123884996Y-115726414D01*
X123719662Y-115794899D01*
X123570869Y-115894319D01*
X123570862Y-115894324D01*
X123444324Y-116020862D01*
X123444319Y-116020869D01*
X123397336Y-116091185D01*
X123344898Y-116169664D01*
X123334189Y-116195517D01*
X123276414Y-116334996D01*
X123276413Y-116334999D01*
X123276413Y-116335000D01*
X123273360Y-116350347D01*
X123241500Y-116510518D01*
X117609583Y-116510518D01*
X117589159Y-116421034D01*
X117535475Y-116185828D01*
X117529818Y-116169662D01*
X117423877Y-115866900D01*
X117423876Y-115866899D01*
X117423871Y-115866883D01*
X117277258Y-115562439D01*
X117275583Y-115559774D01*
X117198591Y-115437241D01*
X117097481Y-115276325D01*
X116971852Y-115118791D01*
X116968719Y-115111117D01*
X116962602Y-115105527D01*
X116955497Y-115078729D01*
X116945018Y-115053061D01*
X116946531Y-115044912D01*
X116944407Y-115036901D01*
X116952918Y-115010513D01*
X116957980Y-114983257D01*
X116963657Y-114977220D01*
X116966202Y-114969333D01*
X116987629Y-114951735D01*
X117006623Y-114931543D01*
X117016074Y-114928375D01*
X117021068Y-114924274D01*
X117055727Y-114915084D01*
X117261514Y-114891027D01*
X117271246Y-114890271D01*
X117649219Y-114875594D01*
X117654108Y-114875499D01*
X129366650Y-114875499D01*
X129366654Y-114875500D01*
X129391715Y-114875500D01*
X129489718Y-114875500D01*
X129489720Y-114875500D01*
X129666433Y-114844340D01*
X129666438Y-114844338D01*
X129666439Y-114844338D01*
X129666440Y-114844338D01*
X129835043Y-114782972D01*
X129835045Y-114782970D01*
X129835050Y-114782969D01*
X129990449Y-114693249D01*
X130127908Y-114577908D01*
X130243249Y-114440449D01*
X130332969Y-114285050D01*
X130332972Y-114285043D01*
X130394338Y-114116440D01*
X130394338Y-114116439D01*
X130394338Y-114116438D01*
X130394340Y-114116433D01*
X130425500Y-113939720D01*
X130425500Y-113850000D01*
X130425500Y-113841715D01*
X130425500Y-97703084D01*
X131291500Y-97703084D01*
X131291500Y-97916916D01*
X131317821Y-98083097D01*
X131324952Y-98128121D01*
X131367671Y-98259598D01*
X131391028Y-98331483D01*
X131488106Y-98522009D01*
X131613794Y-98695004D01*
X131613796Y-98695006D01*
X131613798Y-98695009D01*
X131716770Y-98797981D01*
X131750796Y-98860293D01*
X131745731Y-98931108D01*
X131703184Y-98987944D01*
X131671708Y-99005131D01*
X131553797Y-99049110D01*
X131553792Y-99049112D01*
X131436738Y-99136738D01*
X131349112Y-99253792D01*
X131349110Y-99253797D01*
X131298011Y-99390795D01*
X131298009Y-99390803D01*
X131291500Y-99451350D01*
X131291500Y-101248649D01*
X131298009Y-101309196D01*
X131298011Y-101309204D01*
X131349110Y-101446202D01*
X131349112Y-101446207D01*
X131436738Y-101563261D01*
X131553792Y-101650887D01*
X131553794Y-101650888D01*
X131553796Y-101650889D01*
X131612875Y-101672924D01*
X131690795Y-101701988D01*
X131690803Y-101701990D01*
X131751350Y-101708499D01*
X131751355Y-101708499D01*
X131751362Y-101708500D01*
X131751368Y-101708500D01*
X133548632Y-101708500D01*
X133548638Y-101708500D01*
X133548645Y-101708499D01*
X133548649Y-101708499D01*
X133609196Y-101701990D01*
X133609199Y-101701989D01*
X133609201Y-101701989D01*
X133746204Y-101650889D01*
X133793806Y-101615255D01*
X133863261Y-101563261D01*
X133950887Y-101446207D01*
X133950887Y-101446206D01*
X133950889Y-101446204D01*
X134001989Y-101309201D01*
X134007223Y-101260522D01*
X134007223Y-101260518D01*
X138991500Y-101260518D01*
X138991500Y-101439481D01*
X139002132Y-101492931D01*
X139023429Y-101600000D01*
X139026414Y-101615003D01*
X139041278Y-101650887D01*
X139094898Y-101780336D01*
X139194322Y-101929135D01*
X139320865Y-102055678D01*
X139469664Y-102155102D01*
X139635000Y-102223587D01*
X139810521Y-102258500D01*
X139810522Y-102258500D01*
X139989478Y-102258500D01*
X139989479Y-102258500D01*
X140165000Y-102223587D01*
X140330336Y-102155102D01*
X140479135Y-102055678D01*
X140605678Y-101929135D01*
X140705102Y-101780336D01*
X140773587Y-101615000D01*
X140808500Y-101439479D01*
X140808500Y-101260521D01*
X140773587Y-101085000D01*
X140705102Y-100919664D01*
X140605678Y-100770865D01*
X140479135Y-100644322D01*
X140330336Y-100544898D01*
X140213429Y-100496473D01*
X140165003Y-100476414D01*
X140165001Y-100476413D01*
X140165000Y-100476413D01*
X140076645Y-100458838D01*
X139989481Y-100441500D01*
X139989479Y-100441500D01*
X139810521Y-100441500D01*
X139810518Y-100441500D01*
X139681513Y-100467161D01*
X139635000Y-100476413D01*
X139634999Y-100476413D01*
X139634996Y-100476414D01*
X139469662Y-100544899D01*
X139320869Y-100644319D01*
X139320862Y-100644324D01*
X139194324Y-100770862D01*
X139194319Y-100770869D01*
X139094899Y-100919662D01*
X139026414Y-101084996D01*
X138991500Y-101260518D01*
X134007223Y-101260518D01*
X134008500Y-101248641D01*
X134008500Y-99451367D01*
X134008499Y-99451350D01*
X134001990Y-99390803D01*
X134001988Y-99390795D01*
X133950889Y-99253797D01*
X133950887Y-99253792D01*
X133863261Y-99136738D01*
X133746207Y-99049112D01*
X133746203Y-99049110D01*
X133628291Y-99005131D01*
X133571455Y-98962585D01*
X133546645Y-98896064D01*
X133561737Y-98826690D01*
X133583226Y-98797983D01*
X133686206Y-98695004D01*
X133811894Y-98522009D01*
X133908972Y-98331483D01*
X133975049Y-98128116D01*
X134008500Y-97916916D01*
X134008500Y-97703084D01*
X133975049Y-97491884D01*
X133908972Y-97288517D01*
X133811894Y-97097991D01*
X133686206Y-96924996D01*
X133686203Y-96924993D01*
X133686201Y-96924990D01*
X133535009Y-96773798D01*
X133535006Y-96773796D01*
X133535004Y-96773794D01*
X133362009Y-96648106D01*
X133171483Y-96551028D01*
X133171480Y-96551027D01*
X133171478Y-96551026D01*
X133046805Y-96510518D01*
X136491500Y-96510518D01*
X136491500Y-96689481D01*
X136492359Y-96693797D01*
X136519609Y-96830795D01*
X136526414Y-96865003D01*
X136537335Y-96891367D01*
X136594898Y-97030336D01*
X136694322Y-97179135D01*
X136820865Y-97305678D01*
X136969664Y-97405102D01*
X137135000Y-97473587D01*
X137310521Y-97508500D01*
X137310522Y-97508500D01*
X137489478Y-97508500D01*
X137489479Y-97508500D01*
X137665000Y-97473587D01*
X137830336Y-97405102D01*
X137979135Y-97305678D01*
X138105678Y-97179135D01*
X138205102Y-97030336D01*
X138213311Y-97010518D01*
X142491500Y-97010518D01*
X142491500Y-97010521D01*
X142491500Y-97189479D01*
X142526413Y-97365000D01*
X142594898Y-97530336D01*
X142694322Y-97679135D01*
X142820865Y-97805678D01*
X142969664Y-97905102D01*
X143135000Y-97973587D01*
X143310521Y-98008500D01*
X143310522Y-98008500D01*
X143489478Y-98008500D01*
X143489479Y-98008500D01*
X143665000Y-97973587D01*
X143830336Y-97905102D01*
X143979135Y-97805678D01*
X144105678Y-97679135D01*
X144205102Y-97530336D01*
X144273587Y-97365000D01*
X144308500Y-97189479D01*
X144308500Y-97010521D01*
X144308499Y-97010518D01*
X145241500Y-97010518D01*
X145241500Y-97010521D01*
X145241500Y-97189479D01*
X145276413Y-97365000D01*
X145344898Y-97530336D01*
X145444322Y-97679135D01*
X145570865Y-97805678D01*
X145719664Y-97905102D01*
X145885000Y-97973587D01*
X146060521Y-98008500D01*
X146060522Y-98008500D01*
X146239478Y-98008500D01*
X146239479Y-98008500D01*
X146415000Y-97973587D01*
X146580336Y-97905102D01*
X146729135Y-97805678D01*
X146855678Y-97679135D01*
X146955102Y-97530336D01*
X147023587Y-97365000D01*
X147058500Y-97189479D01*
X147058500Y-97010521D01*
X147058499Y-97010518D01*
X147741500Y-97010518D01*
X147741500Y-97010521D01*
X147741500Y-97189479D01*
X147776413Y-97365000D01*
X147844898Y-97530336D01*
X147944322Y-97679135D01*
X148070865Y-97805678D01*
X148219664Y-97905102D01*
X148385000Y-97973587D01*
X148560521Y-98008500D01*
X148560522Y-98008500D01*
X148739478Y-98008500D01*
X148739479Y-98008500D01*
X148915000Y-97973587D01*
X149080336Y-97905102D01*
X149229135Y-97805678D01*
X149355678Y-97679135D01*
X149455102Y-97530336D01*
X149523587Y-97365000D01*
X149558500Y-97189479D01*
X149558500Y-97010521D01*
X149523587Y-96835000D01*
X149455102Y-96669664D01*
X149355678Y-96520865D01*
X149229135Y-96394322D01*
X149080336Y-96294898D01*
X148963429Y-96246473D01*
X148915003Y-96226414D01*
X148915001Y-96226413D01*
X148915000Y-96226413D01*
X148826645Y-96208838D01*
X148739481Y-96191500D01*
X148739479Y-96191500D01*
X148560521Y-96191500D01*
X148560518Y-96191500D01*
X148429771Y-96217507D01*
X148385000Y-96226413D01*
X148384999Y-96226413D01*
X148384996Y-96226414D01*
X148219662Y-96294899D01*
X148070869Y-96394319D01*
X148070862Y-96394324D01*
X147944324Y-96520862D01*
X147944319Y-96520869D01*
X147859303Y-96648106D01*
X147844898Y-96669664D01*
X147834904Y-96693792D01*
X147776414Y-96834996D01*
X147741500Y-97010518D01*
X147058499Y-97010518D01*
X147023587Y-96835000D01*
X146955102Y-96669664D01*
X146855678Y-96520865D01*
X146729135Y-96394322D01*
X146580336Y-96294898D01*
X146463429Y-96246473D01*
X146415003Y-96226414D01*
X146415001Y-96226413D01*
X146415000Y-96226413D01*
X146326645Y-96208838D01*
X146239481Y-96191500D01*
X146239479Y-96191500D01*
X146060521Y-96191500D01*
X146060518Y-96191500D01*
X145929771Y-96217507D01*
X145885000Y-96226413D01*
X145884999Y-96226413D01*
X145884996Y-96226414D01*
X145719662Y-96294899D01*
X145570869Y-96394319D01*
X145570862Y-96394324D01*
X145444324Y-96520862D01*
X145444319Y-96520869D01*
X145359303Y-96648106D01*
X145344898Y-96669664D01*
X145334904Y-96693792D01*
X145276414Y-96834996D01*
X145241500Y-97010518D01*
X144308499Y-97010518D01*
X144273587Y-96835000D01*
X144205102Y-96669664D01*
X144105678Y-96520865D01*
X143979135Y-96394322D01*
X143830336Y-96294898D01*
X143713429Y-96246473D01*
X143665003Y-96226414D01*
X143665001Y-96226413D01*
X143665000Y-96226413D01*
X143576645Y-96208838D01*
X143489481Y-96191500D01*
X143489479Y-96191500D01*
X143310521Y-96191500D01*
X143310518Y-96191500D01*
X143179771Y-96217507D01*
X143135000Y-96226413D01*
X143134999Y-96226413D01*
X143134996Y-96226414D01*
X142969662Y-96294899D01*
X142820869Y-96394319D01*
X142820862Y-96394324D01*
X142694324Y-96520862D01*
X142694319Y-96520869D01*
X142609303Y-96648106D01*
X142594898Y-96669664D01*
X142584904Y-96693792D01*
X142526414Y-96834996D01*
X142491500Y-97010518D01*
X138213311Y-97010518D01*
X138235845Y-96956117D01*
X138235847Y-96956113D01*
X138273585Y-96865005D01*
X138273585Y-96865004D01*
X138273587Y-96865000D01*
X138308500Y-96689479D01*
X138308500Y-96510521D01*
X138273587Y-96335000D01*
X138205102Y-96169664D01*
X138105678Y-96020865D01*
X137979135Y-95894322D01*
X137830336Y-95794898D01*
X137713429Y-95746473D01*
X137665003Y-95726414D01*
X137665001Y-95726413D01*
X137665000Y-95726413D01*
X137576645Y-95708838D01*
X137489481Y-95691500D01*
X137489479Y-95691500D01*
X137310521Y-95691500D01*
X137310518Y-95691500D01*
X137179771Y-95717507D01*
X137135000Y-95726413D01*
X137134999Y-95726413D01*
X137134996Y-95726414D01*
X136969662Y-95794899D01*
X136820869Y-95894319D01*
X136820862Y-95894324D01*
X136694324Y-96020862D01*
X136694319Y-96020869D01*
X136594899Y-96169662D01*
X136526414Y-96334996D01*
X136491500Y-96510518D01*
X133046805Y-96510518D01*
X132968120Y-96484952D01*
X132968123Y-96484952D01*
X132928801Y-96478724D01*
X132756916Y-96451500D01*
X132543084Y-96451500D01*
X132331884Y-96484951D01*
X132331878Y-96484952D01*
X132128521Y-96551026D01*
X132128515Y-96551029D01*
X131937987Y-96648108D01*
X131764993Y-96773796D01*
X131764990Y-96773798D01*
X131613798Y-96924990D01*
X131613796Y-96924993D01*
X131488108Y-97097987D01*
X131391029Y-97288515D01*
X131391026Y-97288521D01*
X131324952Y-97491878D01*
X131324951Y-97491883D01*
X131324951Y-97491884D01*
X131291500Y-97703084D01*
X130425500Y-97703084D01*
X130425500Y-89339438D01*
X130425500Y-89260280D01*
X130394340Y-89083567D01*
X130394338Y-89083562D01*
X130394338Y-89083560D01*
X130394338Y-89083559D01*
X130332972Y-88914956D01*
X130332966Y-88914945D01*
X130243251Y-88759553D01*
X130243249Y-88759551D01*
X130127908Y-88622092D01*
X130067316Y-88571250D01*
X129990448Y-88506750D01*
X129990446Y-88506748D01*
X129943561Y-88479679D01*
X138871170Y-88479679D01*
X138871170Y-88484051D01*
X138871170Y-88720321D01*
X138901997Y-88914956D01*
X138908816Y-88958007D01*
X138983176Y-89186863D01*
X138983177Y-89186866D01*
X138983178Y-89186867D01*
X139092428Y-89401281D01*
X139233874Y-89595966D01*
X139233876Y-89595968D01*
X139233878Y-89595971D01*
X139404028Y-89766121D01*
X139404031Y-89766123D01*
X139404034Y-89766126D01*
X139598719Y-89907572D01*
X139813133Y-90016822D01*
X140041998Y-90091185D01*
X140279679Y-90128830D01*
X140279682Y-90128830D01*
X140520318Y-90128830D01*
X140520321Y-90128830D01*
X140758002Y-90091185D01*
X140986867Y-90016822D01*
X141201281Y-89907572D01*
X141395966Y-89766126D01*
X141566126Y-89595966D01*
X141707572Y-89401281D01*
X141816822Y-89186867D01*
X141891185Y-88958002D01*
X141928830Y-88720321D01*
X141928830Y-88479679D01*
X141891185Y-88241998D01*
X141816822Y-88013133D01*
X141707572Y-87798719D01*
X141566126Y-87604034D01*
X141566123Y-87604031D01*
X141566121Y-87604028D01*
X141395971Y-87433878D01*
X141395968Y-87433876D01*
X141395966Y-87433874D01*
X141201281Y-87292428D01*
X140986867Y-87183178D01*
X140986866Y-87183177D01*
X140986863Y-87183176D01*
X140758007Y-87108816D01*
X140758003Y-87108815D01*
X140758002Y-87108815D01*
X140520321Y-87071170D01*
X140279679Y-87071170D01*
X140067891Y-87104714D01*
X140041992Y-87108816D01*
X139813136Y-87183176D01*
X139598715Y-87292430D01*
X139404031Y-87433876D01*
X139404028Y-87433878D01*
X139233878Y-87604028D01*
X139233876Y-87604031D01*
X139092430Y-87798715D01*
X138983176Y-88013136D01*
X138908816Y-88241992D01*
X138908815Y-88241997D01*
X138908815Y-88241998D01*
X138871170Y-88479679D01*
X129943561Y-88479679D01*
X129835054Y-88417033D01*
X129835043Y-88417027D01*
X129666439Y-88355661D01*
X129607521Y-88345272D01*
X129489720Y-88324500D01*
X129489718Y-88324500D01*
X117654282Y-88324500D01*
X117649397Y-88324405D01*
X117624180Y-88323426D01*
X117271246Y-88309728D01*
X117261505Y-88308971D01*
X117059437Y-88285352D01*
X116994099Y-88257577D01*
X116954150Y-88198886D01*
X116952273Y-88127914D01*
X116975554Y-88081645D01*
X117117481Y-87903675D01*
X117297258Y-87617561D01*
X117443871Y-87313117D01*
X117555475Y-86994172D01*
X117630666Y-86664736D01*
X117668500Y-86328954D01*
X117668500Y-86260518D01*
X123741500Y-86260518D01*
X123741500Y-86439481D01*
X123750256Y-86483500D01*
X123768728Y-86576367D01*
X123776414Y-86615003D01*
X123793023Y-86655100D01*
X123844898Y-86780336D01*
X123944322Y-86929135D01*
X124070865Y-87055678D01*
X124219664Y-87155102D01*
X124385000Y-87223587D01*
X124560521Y-87258500D01*
X124560522Y-87258500D01*
X124739478Y-87258500D01*
X124739479Y-87258500D01*
X124915000Y-87223587D01*
X125080336Y-87155102D01*
X125229135Y-87055678D01*
X125355678Y-86929135D01*
X125455102Y-86780336D01*
X125523587Y-86615000D01*
X125558500Y-86439479D01*
X125558500Y-86260521D01*
X125523587Y-86085000D01*
X125455102Y-85919664D01*
X125355678Y-85770865D01*
X125229135Y-85644322D01*
X125080336Y-85544898D01*
X124963429Y-85496473D01*
X124915003Y-85476414D01*
X124915001Y-85476413D01*
X124915000Y-85476413D01*
X124818836Y-85457285D01*
X124739481Y-85441500D01*
X124739479Y-85441500D01*
X124560521Y-85441500D01*
X124560518Y-85441500D01*
X124429771Y-85467507D01*
X124385000Y-85476413D01*
X124384999Y-85476413D01*
X124384996Y-85476414D01*
X124219662Y-85544899D01*
X124070869Y-85644319D01*
X124070862Y-85644324D01*
X123944324Y-85770862D01*
X123944319Y-85770869D01*
X123844899Y-85919662D01*
X123776414Y-86084996D01*
X123741500Y-86260518D01*
X117668500Y-86260518D01*
X117668500Y-85991046D01*
X117668090Y-85987411D01*
X117650653Y-85832653D01*
X117630666Y-85655264D01*
X117555475Y-85325828D01*
X117545763Y-85298074D01*
X117443877Y-85006900D01*
X117443876Y-85006899D01*
X117443871Y-85006883D01*
X117326705Y-84763586D01*
X117297260Y-84702443D01*
X117297255Y-84702434D01*
X117198269Y-84544899D01*
X117117481Y-84416325D01*
X116906799Y-84152138D01*
X116906796Y-84152134D01*
X116667865Y-83913203D01*
X116403675Y-83702519D01*
X116211356Y-83581677D01*
X116117565Y-83522744D01*
X116117556Y-83522739D01*
X116028685Y-83479941D01*
X119874500Y-83479941D01*
X119874500Y-83484312D01*
X119874500Y-83720059D01*
X119908161Y-83932586D01*
X119912064Y-83957227D01*
X119975395Y-84152138D01*
X119986264Y-84185589D01*
X120095276Y-84399536D01*
X120236414Y-84593796D01*
X120236416Y-84593798D01*
X120236418Y-84593801D01*
X120406198Y-84763581D01*
X120406201Y-84763583D01*
X120406204Y-84763586D01*
X120600464Y-84904724D01*
X120814411Y-85013736D01*
X121042778Y-85087937D01*
X121279941Y-85125500D01*
X121279944Y-85125500D01*
X121520056Y-85125500D01*
X121520059Y-85125500D01*
X121757222Y-85087937D01*
X121985589Y-85013736D01*
X122199536Y-84904724D01*
X122393796Y-84763586D01*
X122563586Y-84593796D01*
X122704724Y-84399536D01*
X122813736Y-84185589D01*
X122887937Y-83957222D01*
X122925500Y-83720059D01*
X122925500Y-83479941D01*
X122887937Y-83242778D01*
X122813736Y-83014411D01*
X122704724Y-82800464D01*
X122563586Y-82606204D01*
X122563583Y-82606201D01*
X122563581Y-82606198D01*
X122393801Y-82436418D01*
X122393798Y-82436416D01*
X122393796Y-82436414D01*
X122199536Y-82295276D01*
X121985589Y-82186264D01*
X121985586Y-82186263D01*
X121985584Y-82186262D01*
X121757227Y-82112064D01*
X121757223Y-82112063D01*
X121757222Y-82112063D01*
X121520059Y-82074500D01*
X121279941Y-82074500D01*
X121042778Y-82112063D01*
X121042772Y-82112064D01*
X120814415Y-82186262D01*
X120814409Y-82186265D01*
X120600460Y-82295278D01*
X120406201Y-82436416D01*
X120406198Y-82436418D01*
X120236418Y-82606198D01*
X120236416Y-82606201D01*
X120095278Y-82800460D01*
X119986265Y-83014409D01*
X119986262Y-83014415D01*
X119912064Y-83242772D01*
X119912063Y-83242777D01*
X119912063Y-83242778D01*
X119874500Y-83479941D01*
X116028685Y-83479941D01*
X115813126Y-83376133D01*
X115813121Y-83376131D01*
X115813117Y-83376129D01*
X115813111Y-83376126D01*
X115813099Y-83376122D01*
X115494178Y-83264526D01*
X115164739Y-83189334D01*
X114828956Y-83151500D01*
X114828954Y-83151500D01*
X114491046Y-83151500D01*
X114491044Y-83151500D01*
X114155260Y-83189334D01*
X113825821Y-83264526D01*
X113506900Y-83376122D01*
X113506873Y-83376133D01*
X113202443Y-83522739D01*
X113202434Y-83522744D01*
X112916324Y-83702519D01*
X112652134Y-83913203D01*
X112413203Y-84152134D01*
X112202519Y-84416324D01*
X112022744Y-84702434D01*
X112022739Y-84702443D01*
X111876133Y-85006873D01*
X111876122Y-85006900D01*
X111764527Y-85325819D01*
X111748663Y-85395324D01*
X111714003Y-85457285D01*
X111651347Y-85490673D01*
X111580587Y-85484885D01*
X111557460Y-85473128D01*
X111240789Y-85268597D01*
X111234520Y-85264274D01*
X110754965Y-84911737D01*
X110748969Y-84907043D01*
X110391732Y-84609574D01*
X110291593Y-84526189D01*
X110285899Y-84521149D01*
X110201221Y-84441500D01*
X110011196Y-84262759D01*
X109852350Y-84113346D01*
X109846964Y-84107964D01*
X109830443Y-84090426D01*
X109438848Y-83674724D01*
X109433813Y-83669044D01*
X109052611Y-83211941D01*
X109047913Y-83205948D01*
X108793180Y-82859973D01*
X108695023Y-82726657D01*
X108690701Y-82720400D01*
X108367398Y-82220651D01*
X108363481Y-82214176D01*
X108070943Y-81695788D01*
X108067417Y-81689072D01*
X107806743Y-81153989D01*
X107803628Y-81147073D01*
X107575743Y-80597197D01*
X107573045Y-80590084D01*
X107543254Y-80503796D01*
X107378807Y-80027492D01*
X107376544Y-80020232D01*
X107368178Y-79990235D01*
X107216636Y-79446894D01*
X107214825Y-79439549D01*
X107089836Y-78857576D01*
X107088474Y-78850146D01*
X106998870Y-78261688D01*
X106997957Y-78254175D01*
X106944065Y-77661386D01*
X106943608Y-77653842D01*
X106931697Y-77259827D01*
X106925559Y-77056764D01*
X106925501Y-77052961D01*
X106925500Y-77021745D01*
X106925500Y-75420000D01*
X108064190Y-75420000D01*
X108084999Y-75564734D01*
X108145742Y-75697743D01*
X108183962Y-75745172D01*
X108183967Y-75745177D01*
X108183976Y-75745187D01*
X109454812Y-77016023D01*
X109454821Y-77016031D01*
X109454828Y-77016038D01*
X109502257Y-77054258D01*
X109635266Y-77115001D01*
X109780000Y-77135810D01*
X109924734Y-77115001D01*
X110039210Y-77062721D01*
X110109482Y-77052617D01*
X110174063Y-77082110D01*
X110212447Y-77141836D01*
X110217551Y-77177335D01*
X110217551Y-77322967D01*
X110250994Y-77534116D01*
X110251003Y-77534172D01*
X110317077Y-77737529D01*
X110317079Y-77737534D01*
X110414157Y-77928060D01*
X110539845Y-78101055D01*
X110539847Y-78101057D01*
X110539849Y-78101060D01*
X110691041Y-78252252D01*
X110691044Y-78252254D01*
X110691047Y-78252257D01*
X110864042Y-78377945D01*
X111054568Y-78475023D01*
X111257929Y-78541098D01*
X111257930Y-78541098D01*
X111257935Y-78541100D01*
X111469135Y-78574551D01*
X111469138Y-78574551D01*
X111682964Y-78574551D01*
X111682967Y-78574551D01*
X111894167Y-78541100D01*
X111894187Y-78541093D01*
X111895417Y-78540799D01*
X111895908Y-78540823D01*
X111899056Y-78540325D01*
X111899160Y-78540986D01*
X111966325Y-78544344D01*
X112024060Y-78585662D01*
X112050292Y-78651635D01*
X112047618Y-78689063D01*
X112047828Y-78689097D01*
X112047442Y-78691533D01*
X112047358Y-78692711D01*
X112047056Y-78693967D01*
X112047053Y-78693986D01*
X112013602Y-78905186D01*
X112013602Y-79119018D01*
X112047053Y-79330218D01*
X112047054Y-79330223D01*
X112113128Y-79533580D01*
X112113130Y-79533585D01*
X112210208Y-79724111D01*
X112335896Y-79897106D01*
X112335898Y-79897108D01*
X112335900Y-79897111D01*
X112487092Y-80048303D01*
X112487095Y-80048305D01*
X112487098Y-80048308D01*
X112660093Y-80173996D01*
X112850619Y-80271074D01*
X113053980Y-80337149D01*
X113053981Y-80337149D01*
X113053986Y-80337151D01*
X113265186Y-80370602D01*
X113265189Y-80370602D01*
X113479015Y-80370602D01*
X113479018Y-80370602D01*
X113690218Y-80337151D01*
X113690235Y-80337145D01*
X113691474Y-80336849D01*
X113691965Y-80336873D01*
X113695107Y-80336376D01*
X113695211Y-80337036D01*
X113762382Y-80340397D01*
X113820115Y-80381716D01*
X113846345Y-80447690D01*
X113843671Y-80485115D01*
X113843880Y-80485149D01*
X113843495Y-80487577D01*
X113843411Y-80488758D01*
X113843108Y-80490017D01*
X113840926Y-80503796D01*
X113809654Y-80701238D01*
X113809654Y-80915070D01*
X113842506Y-81122488D01*
X113843106Y-81126275D01*
X113890986Y-81273636D01*
X113909182Y-81329637D01*
X114006260Y-81520163D01*
X114131948Y-81693158D01*
X114131950Y-81693160D01*
X114131952Y-81693163D01*
X114283144Y-81844355D01*
X114283147Y-81844357D01*
X114283150Y-81844360D01*
X114456145Y-81970048D01*
X114646671Y-82067126D01*
X114850032Y-82133201D01*
X114850033Y-82133201D01*
X114850038Y-82133203D01*
X115061238Y-82166654D01*
X115061241Y-82166654D01*
X115275067Y-82166654D01*
X115275070Y-82166654D01*
X115486270Y-82133203D01*
X115689637Y-82067126D01*
X115880163Y-81970048D01*
X116053158Y-81844360D01*
X116204360Y-81693158D01*
X116330048Y-81520163D01*
X116427126Y-81329637D01*
X116493203Y-81126270D01*
X116526654Y-80915070D01*
X116526654Y-80701238D01*
X116493203Y-80490038D01*
X116427126Y-80286671D01*
X116365998Y-80166702D01*
X116352895Y-80096926D01*
X116379595Y-80031141D01*
X116437623Y-79990235D01*
X116478266Y-79983500D01*
X123585406Y-79983500D01*
X123653527Y-80003502D01*
X123674501Y-80020405D01*
X129323593Y-85669497D01*
X129357619Y-85731809D01*
X129352554Y-85802624D01*
X129336434Y-85832653D01*
X129238108Y-85967987D01*
X129141029Y-86158515D01*
X129141026Y-86158521D01*
X129074952Y-86361878D01*
X129074951Y-86361883D01*
X129074951Y-86361884D01*
X129041500Y-86573084D01*
X129041500Y-86786916D01*
X129074327Y-86994178D01*
X129074952Y-86998121D01*
X129135080Y-87183178D01*
X129141028Y-87201483D01*
X129238106Y-87392009D01*
X129238108Y-87392012D01*
X129268523Y-87433874D01*
X129363794Y-87565004D01*
X129363796Y-87565006D01*
X129363798Y-87565009D01*
X129514990Y-87716201D01*
X129514993Y-87716203D01*
X129514996Y-87716206D01*
X129687991Y-87841894D01*
X129878517Y-87938972D01*
X130081878Y-88005047D01*
X130081879Y-88005047D01*
X130081884Y-88005049D01*
X130293084Y-88038500D01*
X130293087Y-88038500D01*
X130506913Y-88038500D01*
X130506916Y-88038500D01*
X130718116Y-88005049D01*
X130921483Y-87938972D01*
X131112009Y-87841894D01*
X131285004Y-87716206D01*
X131436206Y-87565004D01*
X131561894Y-87392009D01*
X131658972Y-87201483D01*
X131725049Y-86998116D01*
X131758500Y-86786916D01*
X131758500Y-86576350D01*
X144391500Y-86576350D01*
X144391500Y-89473649D01*
X144398009Y-89534196D01*
X144398011Y-89534204D01*
X144449110Y-89671202D01*
X144449112Y-89671207D01*
X144536738Y-89788261D01*
X144653792Y-89875887D01*
X144653794Y-89875888D01*
X144653796Y-89875889D01*
X144712875Y-89897924D01*
X144790795Y-89926988D01*
X144790803Y-89926990D01*
X144851350Y-89933499D01*
X144851355Y-89933499D01*
X144851362Y-89933500D01*
X144851368Y-89933500D01*
X145948632Y-89933500D01*
X145948638Y-89933500D01*
X145948645Y-89933499D01*
X145948649Y-89933499D01*
X146009196Y-89926990D01*
X146009199Y-89926989D01*
X146009201Y-89926989D01*
X146146204Y-89875889D01*
X146263261Y-89788261D01*
X146350889Y-89671204D01*
X146401989Y-89534201D01*
X146402426Y-89530142D01*
X146408499Y-89473649D01*
X146408500Y-89473632D01*
X146408500Y-86576367D01*
X146408499Y-86576350D01*
X146401990Y-86515803D01*
X146401988Y-86515795D01*
X146350889Y-86378797D01*
X146350887Y-86378792D01*
X146263261Y-86261738D01*
X146146207Y-86174112D01*
X146146202Y-86174110D01*
X146009204Y-86123011D01*
X146009196Y-86123009D01*
X145948649Y-86116500D01*
X145948638Y-86116500D01*
X144851362Y-86116500D01*
X144851350Y-86116500D01*
X144790803Y-86123009D01*
X144790795Y-86123011D01*
X144653797Y-86174110D01*
X144653792Y-86174112D01*
X144536738Y-86261738D01*
X144449112Y-86378792D01*
X144449110Y-86378797D01*
X144398011Y-86515795D01*
X144398009Y-86515803D01*
X144391500Y-86576350D01*
X131758500Y-86576350D01*
X131758500Y-86573084D01*
X131725049Y-86361884D01*
X131658972Y-86158517D01*
X131658970Y-86158513D01*
X131658637Y-86157708D01*
X131658601Y-86157377D01*
X131657442Y-86153809D01*
X131658191Y-86153565D01*
X131651054Y-86087117D01*
X131682839Y-86023633D01*
X131743900Y-85987411D01*
X131775050Y-85983500D01*
X135196497Y-85983500D01*
X135264618Y-86003502D01*
X135285592Y-86020405D01*
X135320865Y-86055678D01*
X135469664Y-86155102D01*
X135635000Y-86223587D01*
X135810521Y-86258500D01*
X135810522Y-86258500D01*
X135989478Y-86258500D01*
X135989479Y-86258500D01*
X136165000Y-86223587D01*
X136330336Y-86155102D01*
X136479135Y-86055678D01*
X136605678Y-85929135D01*
X136705102Y-85780336D01*
X136773587Y-85615000D01*
X136808500Y-85439479D01*
X136808500Y-85260521D01*
X136773587Y-85085000D01*
X136705102Y-84919664D01*
X136605678Y-84770865D01*
X136479135Y-84644322D01*
X136330336Y-84544898D01*
X136213429Y-84496473D01*
X136165003Y-84476414D01*
X136165001Y-84476413D01*
X136165000Y-84476413D01*
X136073014Y-84458116D01*
X135989481Y-84441500D01*
X135989479Y-84441500D01*
X135810521Y-84441500D01*
X135810518Y-84441500D01*
X135679771Y-84467507D01*
X135635000Y-84476413D01*
X135634999Y-84476413D01*
X135634996Y-84476414D01*
X135469662Y-84544899D01*
X135320869Y-84644319D01*
X135320862Y-84644324D01*
X135285592Y-84679595D01*
X135223280Y-84713621D01*
X135196497Y-84716500D01*
X131814519Y-84716500D01*
X131746398Y-84696498D01*
X131699905Y-84642842D01*
X131689801Y-84572568D01*
X131694686Y-84551564D01*
X131696852Y-84544898D01*
X131725049Y-84458116D01*
X131758500Y-84246916D01*
X131758500Y-84033084D01*
X131725049Y-83821884D01*
X131658972Y-83618517D01*
X131645819Y-83592702D01*
X131632715Y-83522925D01*
X131659416Y-83457140D01*
X131717444Y-83416235D01*
X131758086Y-83409500D01*
X134707505Y-83409500D01*
X134775626Y-83429502D01*
X134796600Y-83446405D01*
X134826369Y-83476174D01*
X134975168Y-83575598D01*
X135140504Y-83644083D01*
X135316025Y-83678996D01*
X135316026Y-83678996D01*
X135494982Y-83678996D01*
X135494983Y-83678996D01*
X135670504Y-83644083D01*
X135835840Y-83575598D01*
X135984639Y-83476174D01*
X136111182Y-83349631D01*
X136210606Y-83200832D01*
X136279091Y-83035496D01*
X136314004Y-82859975D01*
X136314004Y-82681017D01*
X136279091Y-82505496D01*
X136210606Y-82340160D01*
X136111182Y-82191361D01*
X135984639Y-82064818D01*
X135835840Y-81965394D01*
X135718933Y-81916969D01*
X135670507Y-81896910D01*
X135670505Y-81896909D01*
X135670504Y-81896909D01*
X135582149Y-81879334D01*
X135494985Y-81861996D01*
X135494983Y-81861996D01*
X135316025Y-81861996D01*
X135316022Y-81861996D01*
X135185275Y-81888003D01*
X135140504Y-81896909D01*
X135140503Y-81896909D01*
X135140500Y-81896910D01*
X134975166Y-81965395D01*
X134826373Y-82064815D01*
X134826366Y-82064820D01*
X134785592Y-82105595D01*
X134723280Y-82139621D01*
X134696497Y-82142500D01*
X131884500Y-82142500D01*
X131816379Y-82122498D01*
X131769886Y-82068842D01*
X131758500Y-82016500D01*
X131758500Y-81189595D01*
X131778502Y-81121474D01*
X131795405Y-81100499D01*
X132375501Y-80520404D01*
X132437813Y-80486379D01*
X132464596Y-80483500D01*
X144303180Y-80483500D01*
X144371301Y-80503502D01*
X144417794Y-80557158D01*
X144427898Y-80627432D01*
X144421235Y-80653533D01*
X144398011Y-80715795D01*
X144398009Y-80715803D01*
X144391500Y-80776350D01*
X144391500Y-83673649D01*
X144398009Y-83734196D01*
X144398011Y-83734204D01*
X144449110Y-83871202D01*
X144449112Y-83871207D01*
X144536738Y-83988261D01*
X144653792Y-84075887D01*
X144653794Y-84075888D01*
X144653796Y-84075889D01*
X144684532Y-84087353D01*
X144790795Y-84126988D01*
X144790803Y-84126990D01*
X144851350Y-84133499D01*
X144851355Y-84133499D01*
X144851362Y-84133500D01*
X144851368Y-84133500D01*
X145948632Y-84133500D01*
X145948638Y-84133500D01*
X145948645Y-84133499D01*
X145948649Y-84133499D01*
X146009196Y-84126990D01*
X146009199Y-84126989D01*
X146009201Y-84126989D01*
X146146204Y-84075889D01*
X146263261Y-83988261D01*
X146311004Y-83924484D01*
X146350887Y-83871207D01*
X146350887Y-83871206D01*
X146350889Y-83871204D01*
X146401989Y-83734201D01*
X146403510Y-83720059D01*
X146408499Y-83673649D01*
X146408500Y-83673632D01*
X146408500Y-80776367D01*
X146408499Y-80776350D01*
X146401990Y-80715803D01*
X146401988Y-80715795D01*
X146378765Y-80653533D01*
X146373699Y-80582718D01*
X146407724Y-80520405D01*
X146470036Y-80486380D01*
X146496820Y-80483500D01*
X148303180Y-80483500D01*
X148371301Y-80503502D01*
X148417794Y-80557158D01*
X148427898Y-80627432D01*
X148421235Y-80653533D01*
X148398011Y-80715795D01*
X148398009Y-80715803D01*
X148391500Y-80776350D01*
X148391500Y-83673649D01*
X148398009Y-83734196D01*
X148398011Y-83734204D01*
X148449110Y-83871202D01*
X148449112Y-83871207D01*
X148536738Y-83988261D01*
X148653796Y-84075889D01*
X148684531Y-84087353D01*
X148741368Y-84129899D01*
X148766179Y-84196419D01*
X148766500Y-84205409D01*
X148766500Y-86044591D01*
X148746498Y-86112712D01*
X148692842Y-86159205D01*
X148684534Y-86162646D01*
X148653795Y-86174111D01*
X148653792Y-86174112D01*
X148536738Y-86261738D01*
X148449112Y-86378792D01*
X148449110Y-86378797D01*
X148398011Y-86515795D01*
X148398009Y-86515803D01*
X148391500Y-86576350D01*
X148391500Y-88985406D01*
X148371498Y-89053527D01*
X148354595Y-89074501D01*
X147049501Y-90379595D01*
X146987189Y-90413621D01*
X146960406Y-90416500D01*
X144016587Y-90416500D01*
X143943552Y-90431028D01*
X143894199Y-90440845D01*
X143894197Y-90440845D01*
X143894196Y-90440846D01*
X143874400Y-90449046D01*
X143808329Y-90476414D01*
X143778907Y-90488601D01*
X143675155Y-90557926D01*
X143675148Y-90557931D01*
X143053485Y-91179595D01*
X142991173Y-91213621D01*
X142964390Y-91216500D01*
X134903149Y-91216500D01*
X134835028Y-91196498D01*
X134788535Y-91142842D01*
X134779570Y-91115080D01*
X134773587Y-91085001D01*
X134773587Y-91085000D01*
X134705102Y-90919664D01*
X134605678Y-90770865D01*
X134479135Y-90644322D01*
X134330336Y-90544898D01*
X134194422Y-90488600D01*
X134165003Y-90476414D01*
X134165001Y-90476413D01*
X134165000Y-90476413D01*
X134076645Y-90458838D01*
X133989481Y-90441500D01*
X133989479Y-90441500D01*
X133810521Y-90441500D01*
X133810518Y-90441500D01*
X133679771Y-90467507D01*
X133635000Y-90476413D01*
X133634999Y-90476413D01*
X133634996Y-90476414D01*
X133469662Y-90544899D01*
X133320869Y-90644319D01*
X133320862Y-90644324D01*
X133194324Y-90770862D01*
X133194319Y-90770869D01*
X133094899Y-90919662D01*
X133026414Y-91084996D01*
X132991500Y-91260518D01*
X132991500Y-91260521D01*
X132991500Y-91439479D01*
X133026413Y-91615000D01*
X133094898Y-91780336D01*
X133194322Y-91929135D01*
X133320865Y-92055678D01*
X133469664Y-92155102D01*
X133635000Y-92223587D01*
X133657265Y-92228015D01*
X133720174Y-92260921D01*
X133755306Y-92322616D01*
X133751507Y-92393511D01*
X133749093Y-92399812D01*
X133693215Y-92534711D01*
X133658301Y-92710235D01*
X133658301Y-92710238D01*
X133658301Y-92889196D01*
X133693214Y-93064717D01*
X133761699Y-93230053D01*
X133861123Y-93378852D01*
X133987666Y-93505395D01*
X134136465Y-93604819D01*
X134301801Y-93673304D01*
X134301802Y-93673304D01*
X134301804Y-93673305D01*
X134312938Y-93675519D01*
X134317533Y-93676433D01*
X134380445Y-93709337D01*
X134415579Y-93771031D01*
X134417407Y-93819722D01*
X134411500Y-93857019D01*
X134411500Y-94062981D01*
X134431536Y-94189479D01*
X134443721Y-94266412D01*
X134488499Y-94404226D01*
X134507366Y-94462290D01*
X134600871Y-94645803D01*
X134721932Y-94812430D01*
X134721934Y-94812432D01*
X134721936Y-94812435D01*
X134867564Y-94958063D01*
X134867567Y-94958065D01*
X134867570Y-94958068D01*
X135034197Y-95079129D01*
X135217710Y-95172634D01*
X135413592Y-95236280D01*
X135617019Y-95268500D01*
X135617022Y-95268500D01*
X135822978Y-95268500D01*
X135822981Y-95268500D01*
X136026408Y-95236280D01*
X136222290Y-95172634D01*
X136405803Y-95079129D01*
X136572430Y-94958068D01*
X136718068Y-94812430D01*
X136839129Y-94645803D01*
X136877734Y-94570034D01*
X136926481Y-94518422D01*
X136995396Y-94501356D01*
X137062598Y-94524257D01*
X137102264Y-94570034D01*
X137140871Y-94645803D01*
X137261932Y-94812430D01*
X137261934Y-94812432D01*
X137261936Y-94812435D01*
X137407564Y-94958063D01*
X137407567Y-94958065D01*
X137407570Y-94958068D01*
X137574197Y-95079129D01*
X137757710Y-95172634D01*
X137953592Y-95236280D01*
X138157019Y-95268500D01*
X138157022Y-95268500D01*
X138362978Y-95268500D01*
X138362981Y-95268500D01*
X138566408Y-95236280D01*
X138762290Y-95172634D01*
X138945803Y-95079129D01*
X139112430Y-94958068D01*
X139258068Y-94812430D01*
X139379129Y-94645803D01*
X139417734Y-94570034D01*
X139466481Y-94518422D01*
X139535396Y-94501356D01*
X139602598Y-94524257D01*
X139642264Y-94570034D01*
X139680871Y-94645803D01*
X139801932Y-94812430D01*
X139801934Y-94812432D01*
X139801936Y-94812435D01*
X139947564Y-94958063D01*
X139947567Y-94958065D01*
X139947570Y-94958068D01*
X140114197Y-95079129D01*
X140297710Y-95172634D01*
X140493592Y-95236280D01*
X140697019Y-95268500D01*
X140697022Y-95268500D01*
X140902978Y-95268500D01*
X140902981Y-95268500D01*
X141106408Y-95236280D01*
X141302290Y-95172634D01*
X141485803Y-95079129D01*
X141652430Y-94958068D01*
X141652435Y-94958063D01*
X141700033Y-94910466D01*
X141798063Y-94812435D01*
X141798068Y-94812430D01*
X141919129Y-94645803D01*
X141958014Y-94569486D01*
X142006759Y-94517874D01*
X142075674Y-94500807D01*
X142142876Y-94523707D01*
X142182545Y-94569487D01*
X142221294Y-94645535D01*
X142221298Y-94645541D01*
X142252416Y-94688372D01*
X142252417Y-94688372D01*
X142815017Y-94125772D01*
X142827482Y-94172292D01*
X142899890Y-94297708D01*
X143002292Y-94400110D01*
X143127708Y-94472518D01*
X143174226Y-94484982D01*
X142611626Y-95047582D01*
X142611626Y-95047583D01*
X142654454Y-95078699D01*
X142837900Y-95172170D01*
X142837906Y-95172173D01*
X143033705Y-95235791D01*
X143033701Y-95235791D01*
X143237061Y-95268000D01*
X143442939Y-95268000D01*
X143646296Y-95235791D01*
X143842093Y-95172173D01*
X143842099Y-95172170D01*
X144025541Y-95078701D01*
X144068372Y-95047582D01*
X144068372Y-95047581D01*
X143505773Y-94484982D01*
X143552292Y-94472518D01*
X143677708Y-94400110D01*
X143780110Y-94297708D01*
X143852518Y-94172292D01*
X143864983Y-94125772D01*
X144427582Y-94688372D01*
X144458701Y-94645541D01*
X144497453Y-94569488D01*
X144546201Y-94517873D01*
X144615116Y-94500807D01*
X144682318Y-94523708D01*
X144721985Y-94569486D01*
X144760871Y-94645803D01*
X144881932Y-94812430D01*
X144881934Y-94812432D01*
X144881936Y-94812435D01*
X145027564Y-94958063D01*
X145027567Y-94958065D01*
X145027570Y-94958068D01*
X145194197Y-95079129D01*
X145377710Y-95172634D01*
X145573592Y-95236280D01*
X145777019Y-95268500D01*
X145777022Y-95268500D01*
X145982978Y-95268500D01*
X145982981Y-95268500D01*
X146186408Y-95236280D01*
X146382290Y-95172634D01*
X146565803Y-95079129D01*
X146732430Y-94958068D01*
X146878068Y-94812430D01*
X146999129Y-94645803D01*
X147037734Y-94570034D01*
X147086481Y-94518422D01*
X147155396Y-94501356D01*
X147222598Y-94524257D01*
X147262264Y-94570034D01*
X147300871Y-94645803D01*
X147421932Y-94812430D01*
X147421934Y-94812432D01*
X147421936Y-94812435D01*
X147567564Y-94958063D01*
X147567567Y-94958065D01*
X147567570Y-94958068D01*
X147734197Y-95079129D01*
X147917710Y-95172634D01*
X148113592Y-95236280D01*
X148317019Y-95268500D01*
X148317022Y-95268500D01*
X148522978Y-95268500D01*
X148522981Y-95268500D01*
X148726408Y-95236280D01*
X148922290Y-95172634D01*
X149105803Y-95079129D01*
X149272430Y-94958068D01*
X149418068Y-94812430D01*
X149539129Y-94645803D01*
X149577734Y-94570034D01*
X149626481Y-94518422D01*
X149695396Y-94501356D01*
X149762598Y-94524257D01*
X149802264Y-94570034D01*
X149840871Y-94645803D01*
X149961932Y-94812430D01*
X149961934Y-94812432D01*
X149961936Y-94812435D01*
X150107564Y-94958063D01*
X150107567Y-94958065D01*
X150107570Y-94958068D01*
X150274197Y-95079129D01*
X150457710Y-95172634D01*
X150645723Y-95233723D01*
X150704329Y-95273797D01*
X150731966Y-95339193D01*
X150719859Y-95409150D01*
X150671853Y-95461456D01*
X150640595Y-95473567D01*
X150640914Y-95474619D01*
X150635004Y-95476411D01*
X150524776Y-95522069D01*
X150469667Y-95544897D01*
X150469662Y-95544899D01*
X150320869Y-95644319D01*
X150320862Y-95644324D01*
X150194324Y-95770862D01*
X150194319Y-95770869D01*
X150094899Y-95919662D01*
X150026414Y-96084996D01*
X149991500Y-96260518D01*
X149991500Y-96439481D01*
X150005630Y-96510518D01*
X150026413Y-96615000D01*
X150094898Y-96780336D01*
X150194322Y-96929135D01*
X150320865Y-97055678D01*
X150469664Y-97155102D01*
X150635000Y-97223587D01*
X150810521Y-97258500D01*
X150810522Y-97258500D01*
X150989478Y-97258500D01*
X150989479Y-97258500D01*
X151165000Y-97223587D01*
X151330336Y-97155102D01*
X151479135Y-97055678D01*
X151605678Y-96929135D01*
X151705102Y-96780336D01*
X151773587Y-96615000D01*
X151808500Y-96439479D01*
X151808500Y-96260521D01*
X151773587Y-96085000D01*
X151705102Y-95919664D01*
X151605678Y-95770865D01*
X151479135Y-95644322D01*
X151403730Y-95593938D01*
X151330335Y-95544897D01*
X151330331Y-95544895D01*
X151186429Y-95485288D01*
X151131148Y-95440740D01*
X151108728Y-95373376D01*
X151126287Y-95304585D01*
X151178249Y-95256207D01*
X151214933Y-95244432D01*
X151266408Y-95236280D01*
X151462290Y-95172634D01*
X151645803Y-95079129D01*
X151812430Y-94958068D01*
X151958068Y-94812430D01*
X152079129Y-94645803D01*
X152117734Y-94570034D01*
X152166481Y-94518422D01*
X152235396Y-94501356D01*
X152302598Y-94524257D01*
X152342264Y-94570034D01*
X152380871Y-94645803D01*
X152501932Y-94812430D01*
X152501934Y-94812432D01*
X152501936Y-94812435D01*
X152647564Y-94958063D01*
X152647567Y-94958065D01*
X152647570Y-94958068D01*
X152814197Y-95079129D01*
X152997710Y-95172634D01*
X153193592Y-95236280D01*
X153397019Y-95268500D01*
X153397022Y-95268500D01*
X153602978Y-95268500D01*
X153602981Y-95268500D01*
X153806408Y-95236280D01*
X154002290Y-95172634D01*
X154185803Y-95079129D01*
X154352430Y-94958068D01*
X154498068Y-94812430D01*
X154619129Y-94645803D01*
X154657734Y-94570034D01*
X154706481Y-94518422D01*
X154775396Y-94501356D01*
X154842598Y-94524257D01*
X154882264Y-94570034D01*
X154920871Y-94645803D01*
X155041932Y-94812430D01*
X155041934Y-94812432D01*
X155041936Y-94812435D01*
X155187564Y-94958063D01*
X155187567Y-94958065D01*
X155187570Y-94958068D01*
X155354197Y-95079129D01*
X155537710Y-95172634D01*
X155733592Y-95236280D01*
X155937019Y-95268500D01*
X155937022Y-95268500D01*
X156142978Y-95268500D01*
X156142981Y-95268500D01*
X156346408Y-95236280D01*
X156542290Y-95172634D01*
X156725803Y-95079129D01*
X156892430Y-94958068D01*
X157038068Y-94812430D01*
X157159129Y-94645803D01*
X157197734Y-94570034D01*
X157246481Y-94518422D01*
X157315396Y-94501356D01*
X157382598Y-94524257D01*
X157422264Y-94570034D01*
X157460871Y-94645803D01*
X157581932Y-94812430D01*
X157581934Y-94812432D01*
X157581936Y-94812435D01*
X157727564Y-94958063D01*
X157727567Y-94958065D01*
X157727570Y-94958068D01*
X157894197Y-95079129D01*
X158077710Y-95172634D01*
X158273592Y-95236280D01*
X158477019Y-95268500D01*
X158477022Y-95268500D01*
X158682978Y-95268500D01*
X158682981Y-95268500D01*
X158886408Y-95236280D01*
X159082290Y-95172634D01*
X159265803Y-95079129D01*
X159432430Y-94958068D01*
X159578068Y-94812430D01*
X159699129Y-94645803D01*
X159737734Y-94570034D01*
X159786481Y-94518422D01*
X159855396Y-94501356D01*
X159922598Y-94524257D01*
X159962264Y-94570034D01*
X160000871Y-94645803D01*
X160121932Y-94812430D01*
X160121934Y-94812432D01*
X160121936Y-94812435D01*
X160267564Y-94958063D01*
X160267567Y-94958065D01*
X160267570Y-94958068D01*
X160434197Y-95079129D01*
X160617710Y-95172634D01*
X160813592Y-95236280D01*
X161017019Y-95268500D01*
X161017022Y-95268500D01*
X161222978Y-95268500D01*
X161222981Y-95268500D01*
X161426408Y-95236280D01*
X161622290Y-95172634D01*
X161805803Y-95079129D01*
X161972430Y-94958068D01*
X162118068Y-94812430D01*
X162129512Y-94796677D01*
X162185732Y-94753323D01*
X162256468Y-94747246D01*
X162319261Y-94780376D01*
X162354174Y-94842195D01*
X162356727Y-94857265D01*
X162358010Y-94869197D01*
X162358011Y-94869204D01*
X162409110Y-95006202D01*
X162409112Y-95006207D01*
X162496738Y-95123261D01*
X162613792Y-95210887D01*
X162613794Y-95210888D01*
X162613796Y-95210889D01*
X162672875Y-95232924D01*
X162750795Y-95261988D01*
X162750803Y-95261990D01*
X162811350Y-95268499D01*
X162811355Y-95268499D01*
X162811362Y-95268500D01*
X162811368Y-95268500D01*
X164508632Y-95268500D01*
X164508638Y-95268500D01*
X164508645Y-95268499D01*
X164508649Y-95268499D01*
X164569196Y-95261990D01*
X164569199Y-95261989D01*
X164569201Y-95261989D01*
X164706204Y-95210889D01*
X164757923Y-95172173D01*
X164823261Y-95123261D01*
X164910887Y-95006207D01*
X164910887Y-95006206D01*
X164910889Y-95006204D01*
X164961989Y-94869201D01*
X164961989Y-94869199D01*
X164961990Y-94869196D01*
X164968499Y-94808649D01*
X164968500Y-94808632D01*
X164968500Y-94010518D01*
X168991500Y-94010518D01*
X168991500Y-94010521D01*
X168991500Y-94189479D01*
X169026413Y-94365000D01*
X169094898Y-94530336D01*
X169194322Y-94679135D01*
X169320865Y-94805678D01*
X169469664Y-94905102D01*
X169635000Y-94973587D01*
X169810521Y-95008500D01*
X169810522Y-95008500D01*
X169989478Y-95008500D01*
X169989479Y-95008500D01*
X170165000Y-94973587D01*
X170330336Y-94905102D01*
X170479135Y-94805678D01*
X170605678Y-94679135D01*
X170705102Y-94530336D01*
X170773587Y-94365000D01*
X170808500Y-94189479D01*
X170808500Y-94010521D01*
X170773587Y-93835000D01*
X170705102Y-93669664D01*
X170605678Y-93520865D01*
X170479135Y-93394322D01*
X170330336Y-93294898D01*
X170213429Y-93246473D01*
X170165003Y-93226414D01*
X170165001Y-93226413D01*
X170165000Y-93226413D01*
X170076645Y-93208838D01*
X169989481Y-93191500D01*
X169989479Y-93191500D01*
X169810521Y-93191500D01*
X169810518Y-93191500D01*
X169679771Y-93217507D01*
X169635000Y-93226413D01*
X169634999Y-93226413D01*
X169634996Y-93226414D01*
X169469662Y-93294899D01*
X169320869Y-93394319D01*
X169320862Y-93394324D01*
X169194324Y-93520862D01*
X169194319Y-93520869D01*
X169094899Y-93669662D01*
X169026414Y-93834996D01*
X168991500Y-94010518D01*
X164968500Y-94010518D01*
X164968500Y-93111367D01*
X164968499Y-93111350D01*
X164961990Y-93050803D01*
X164961988Y-93050795D01*
X164910889Y-92913797D01*
X164910887Y-92913792D01*
X164823261Y-92796738D01*
X164706207Y-92709112D01*
X164706202Y-92709110D01*
X164569204Y-92658011D01*
X164569196Y-92658009D01*
X164508649Y-92651500D01*
X164508638Y-92651500D01*
X162811362Y-92651500D01*
X162811350Y-92651500D01*
X162750803Y-92658009D01*
X162750795Y-92658011D01*
X162613797Y-92709110D01*
X162613792Y-92709112D01*
X162496738Y-92796738D01*
X162409112Y-92913792D01*
X162409110Y-92913797D01*
X162358011Y-93050795D01*
X162358010Y-93050801D01*
X162356727Y-93062735D01*
X162329555Y-93128326D01*
X162271236Y-93168815D01*
X162200285Y-93171347D01*
X162139228Y-93135118D01*
X162129513Y-93123323D01*
X162118068Y-93107570D01*
X162118065Y-93107567D01*
X162118063Y-93107564D01*
X161972435Y-92961936D01*
X161972432Y-92961934D01*
X161972430Y-92961932D01*
X161805803Y-92840871D01*
X161622290Y-92747366D01*
X161622287Y-92747365D01*
X161622285Y-92747364D01*
X161426412Y-92683721D01*
X161426410Y-92683720D01*
X161426408Y-92683720D01*
X161222981Y-92651500D01*
X161017019Y-92651500D01*
X160813592Y-92683720D01*
X160813590Y-92683720D01*
X160813587Y-92683721D01*
X160617714Y-92747364D01*
X160617708Y-92747367D01*
X160434193Y-92840873D01*
X160267567Y-92961934D01*
X160267564Y-92961936D01*
X160121936Y-93107564D01*
X160121934Y-93107567D01*
X160000873Y-93274193D01*
X159962267Y-93349962D01*
X159913518Y-93401577D01*
X159844603Y-93418643D01*
X159777402Y-93395742D01*
X159737733Y-93349962D01*
X159699129Y-93274197D01*
X159578068Y-93107570D01*
X159578065Y-93107567D01*
X159578063Y-93107564D01*
X159432435Y-92961936D01*
X159432432Y-92961934D01*
X159432430Y-92961932D01*
X159265803Y-92840871D01*
X159082290Y-92747366D01*
X159082287Y-92747365D01*
X159082285Y-92747364D01*
X158886412Y-92683721D01*
X158886410Y-92683720D01*
X158886408Y-92683720D01*
X158682981Y-92651500D01*
X158477019Y-92651500D01*
X158273592Y-92683720D01*
X158273590Y-92683720D01*
X158273587Y-92683721D01*
X158077714Y-92747364D01*
X158077708Y-92747367D01*
X157894193Y-92840873D01*
X157727567Y-92961934D01*
X157727564Y-92961936D01*
X157581936Y-93107564D01*
X157581934Y-93107567D01*
X157460873Y-93274193D01*
X157422267Y-93349962D01*
X157373518Y-93401577D01*
X157304603Y-93418643D01*
X157237402Y-93395742D01*
X157197733Y-93349962D01*
X157159129Y-93274197D01*
X157038068Y-93107570D01*
X157038065Y-93107567D01*
X157038063Y-93107564D01*
X156892435Y-92961936D01*
X156892432Y-92961934D01*
X156892430Y-92961932D01*
X156725803Y-92840871D01*
X156542290Y-92747366D01*
X156542287Y-92747365D01*
X156542285Y-92747364D01*
X156346412Y-92683721D01*
X156346410Y-92683720D01*
X156346408Y-92683720D01*
X156142981Y-92651500D01*
X155937019Y-92651500D01*
X155733592Y-92683720D01*
X155733590Y-92683720D01*
X155733587Y-92683721D01*
X155537714Y-92747364D01*
X155537708Y-92747367D01*
X155354193Y-92840873D01*
X155187567Y-92961934D01*
X155187564Y-92961936D01*
X155041936Y-93107564D01*
X155041934Y-93107567D01*
X154920873Y-93274193D01*
X154882267Y-93349962D01*
X154833518Y-93401577D01*
X154764603Y-93418643D01*
X154697402Y-93395742D01*
X154657733Y-93349962D01*
X154619129Y-93274197D01*
X154498068Y-93107570D01*
X154498065Y-93107567D01*
X154498063Y-93107564D01*
X154352435Y-92961936D01*
X154352432Y-92961934D01*
X154352430Y-92961932D01*
X154185803Y-92840871D01*
X154002290Y-92747366D01*
X154002287Y-92747365D01*
X154002285Y-92747364D01*
X153806412Y-92683721D01*
X153806410Y-92683720D01*
X153806408Y-92683720D01*
X153602981Y-92651500D01*
X153397019Y-92651500D01*
X153193592Y-92683720D01*
X153193588Y-92683721D01*
X153193147Y-92683791D01*
X153122736Y-92674691D01*
X153084341Y-92648437D01*
X152543835Y-92107931D01*
X152543833Y-92107929D01*
X152440075Y-92038600D01*
X152324785Y-91990845D01*
X152251086Y-91976185D01*
X152202396Y-91966500D01*
X152202394Y-91966500D01*
X150558594Y-91966500D01*
X150490473Y-91946498D01*
X150443980Y-91892842D01*
X150433876Y-91822568D01*
X150463370Y-91757988D01*
X150469499Y-91751405D01*
X152250499Y-89970405D01*
X152312811Y-89936379D01*
X152339594Y-89933500D01*
X152948632Y-89933500D01*
X152948638Y-89933500D01*
X152948645Y-89933499D01*
X152948649Y-89933499D01*
X153009196Y-89926990D01*
X153009199Y-89926989D01*
X153009201Y-89926989D01*
X153146204Y-89875889D01*
X153263261Y-89788261D01*
X153350889Y-89671204D01*
X153401989Y-89534201D01*
X153402426Y-89530142D01*
X153408499Y-89473649D01*
X153408500Y-89473632D01*
X153408500Y-86878013D01*
X153428502Y-86809892D01*
X153482158Y-86763399D01*
X153509916Y-86754434D01*
X153665000Y-86723587D01*
X153830336Y-86655102D01*
X153979135Y-86555678D01*
X154014408Y-86520405D01*
X154076720Y-86486379D01*
X154103503Y-86483500D01*
X155265500Y-86483500D01*
X155333621Y-86503502D01*
X155380114Y-86557158D01*
X155391500Y-86609500D01*
X155391500Y-89473649D01*
X155398009Y-89534196D01*
X155398011Y-89534204D01*
X155449110Y-89671202D01*
X155449112Y-89671207D01*
X155536738Y-89788261D01*
X155653792Y-89875887D01*
X155653794Y-89875888D01*
X155653796Y-89875889D01*
X155712875Y-89897924D01*
X155790795Y-89926988D01*
X155790803Y-89926990D01*
X155851350Y-89933499D01*
X155851355Y-89933499D01*
X155851362Y-89933500D01*
X155851368Y-89933500D01*
X156948632Y-89933500D01*
X156948638Y-89933500D01*
X156948645Y-89933499D01*
X156948649Y-89933499D01*
X157009196Y-89926990D01*
X157009199Y-89926989D01*
X157009201Y-89926989D01*
X157146204Y-89875889D01*
X157263261Y-89788261D01*
X157350889Y-89671204D01*
X157401989Y-89534201D01*
X157402426Y-89530142D01*
X157408499Y-89473649D01*
X157408500Y-89473632D01*
X157408500Y-86609500D01*
X157428502Y-86541379D01*
X157482158Y-86494886D01*
X157534500Y-86483500D01*
X160140589Y-86483500D01*
X160208710Y-86503502D01*
X160255203Y-86557158D01*
X160265037Y-86589785D01*
X160270026Y-86621283D01*
X160270027Y-86621288D01*
X160326374Y-86794706D01*
X160326375Y-86794709D01*
X160326376Y-86794710D01*
X160409162Y-86957186D01*
X160516346Y-87104712D01*
X160516348Y-87104714D01*
X160516350Y-87104717D01*
X160645282Y-87233649D01*
X160645285Y-87233651D01*
X160645288Y-87233654D01*
X160664602Y-87247686D01*
X160665123Y-87248065D01*
X160708476Y-87304288D01*
X160714550Y-87375025D01*
X160681417Y-87437816D01*
X160665123Y-87451935D01*
X160645282Y-87466350D01*
X160516350Y-87595282D01*
X160516348Y-87595285D01*
X160409164Y-87742810D01*
X160326374Y-87905293D01*
X160270027Y-88078711D01*
X160270026Y-88078716D01*
X160270026Y-88078717D01*
X160241500Y-88258824D01*
X160241500Y-88441176D01*
X160251886Y-88506748D01*
X160270027Y-88621288D01*
X160326374Y-88794706D01*
X160326375Y-88794709D01*
X160326376Y-88794710D01*
X160409162Y-88957186D01*
X160516346Y-89104712D01*
X160516348Y-89104714D01*
X160516350Y-89104717D01*
X160604151Y-89192518D01*
X160638177Y-89254830D01*
X160633112Y-89325645D01*
X160590565Y-89382481D01*
X160589119Y-89383547D01*
X160580144Y-89390067D01*
X160580136Y-89390074D01*
X160440071Y-89530139D01*
X160323636Y-89690398D01*
X160233703Y-89866901D01*
X160233702Y-89866903D01*
X160214179Y-89926990D01*
X160172488Y-90055300D01*
X160141500Y-90250954D01*
X160141500Y-90449046D01*
X160172488Y-90644700D01*
X160233702Y-90833097D01*
X160323634Y-91009598D01*
X160323636Y-91009601D01*
X160440071Y-91169860D01*
X160580139Y-91309928D01*
X160580142Y-91309930D01*
X160740402Y-91426366D01*
X160916903Y-91516298D01*
X161105300Y-91577512D01*
X161300954Y-91608500D01*
X161300957Y-91608500D01*
X161499043Y-91608500D01*
X161499046Y-91608500D01*
X161694700Y-91577512D01*
X161883097Y-91516298D01*
X161894441Y-91510518D01*
X166491500Y-91510518D01*
X166491500Y-91510521D01*
X166491500Y-91689479D01*
X166526413Y-91865000D01*
X166594898Y-92030336D01*
X166694322Y-92179135D01*
X166820865Y-92305678D01*
X166969664Y-92405102D01*
X167135000Y-92473587D01*
X167310521Y-92508500D01*
X167310522Y-92508500D01*
X167489478Y-92508500D01*
X167489479Y-92508500D01*
X167665000Y-92473587D01*
X167830336Y-92405102D01*
X167979135Y-92305678D01*
X168105678Y-92179135D01*
X168205102Y-92030336D01*
X168273587Y-91865000D01*
X168308500Y-91689479D01*
X168308500Y-91510521D01*
X168273587Y-91335000D01*
X168205102Y-91169664D01*
X168105678Y-91020865D01*
X167979135Y-90894322D01*
X167830336Y-90794898D01*
X167713429Y-90746473D01*
X167665003Y-90726414D01*
X167665001Y-90726413D01*
X167665000Y-90726413D01*
X167576645Y-90708838D01*
X167489481Y-90691500D01*
X167489479Y-90691500D01*
X167310521Y-90691500D01*
X167310518Y-90691500D01*
X167179771Y-90717507D01*
X167135000Y-90726413D01*
X167134999Y-90726413D01*
X167134996Y-90726414D01*
X166969662Y-90794899D01*
X166820869Y-90894319D01*
X166820862Y-90894324D01*
X166694324Y-91020862D01*
X166694319Y-91020869D01*
X166604967Y-91154595D01*
X166594898Y-91169664D01*
X166587046Y-91188621D01*
X166526414Y-91334996D01*
X166491500Y-91510518D01*
X161894441Y-91510518D01*
X162059598Y-91426366D01*
X162219858Y-91309930D01*
X162359930Y-91169858D01*
X162476366Y-91009598D01*
X162566298Y-90833097D01*
X162627512Y-90644700D01*
X162658500Y-90449046D01*
X162658500Y-90250954D01*
X162627512Y-90055300D01*
X162566298Y-89866903D01*
X162476366Y-89690402D01*
X162362879Y-89534201D01*
X162359928Y-89530139D01*
X162219863Y-89390074D01*
X162219859Y-89390071D01*
X162219858Y-89390070D01*
X162210881Y-89383548D01*
X162167529Y-89327328D01*
X162161452Y-89256592D01*
X162194583Y-89193800D01*
X162195777Y-89192588D01*
X162283654Y-89104712D01*
X162390838Y-88957186D01*
X162473624Y-88794710D01*
X162529974Y-88621283D01*
X162558500Y-88441176D01*
X162558500Y-88258824D01*
X162529974Y-88078717D01*
X162473624Y-87905290D01*
X162390838Y-87742814D01*
X162283654Y-87595288D01*
X162283651Y-87595285D01*
X162283649Y-87595282D01*
X162154717Y-87466350D01*
X162154714Y-87466348D01*
X162154712Y-87466346D01*
X162134877Y-87451935D01*
X162091524Y-87395714D01*
X162085449Y-87324978D01*
X162118580Y-87262186D01*
X162134878Y-87248064D01*
X162154712Y-87233654D01*
X162283654Y-87104712D01*
X162390838Y-86957186D01*
X162473624Y-86794710D01*
X162529974Y-86621283D01*
X162547517Y-86510518D01*
X166491500Y-86510518D01*
X166491500Y-86510521D01*
X166491500Y-86689479D01*
X166526413Y-86865000D01*
X166594898Y-87030336D01*
X166694322Y-87179135D01*
X166820865Y-87305678D01*
X166969664Y-87405102D01*
X167135000Y-87473587D01*
X167310521Y-87508500D01*
X167310522Y-87508500D01*
X167489478Y-87508500D01*
X167489479Y-87508500D01*
X167665000Y-87473587D01*
X167830336Y-87405102D01*
X167979135Y-87305678D01*
X168105678Y-87179135D01*
X168205102Y-87030336D01*
X168273587Y-86865000D01*
X168308500Y-86689479D01*
X168308500Y-86510521D01*
X168273587Y-86335000D01*
X168205102Y-86169664D01*
X168105678Y-86020865D01*
X167979135Y-85894322D01*
X167830336Y-85794898D01*
X167678027Y-85731809D01*
X167665003Y-85726414D01*
X167665001Y-85726413D01*
X167665000Y-85726413D01*
X167576645Y-85708838D01*
X167489481Y-85691500D01*
X167489479Y-85691500D01*
X167310521Y-85691500D01*
X167310518Y-85691500D01*
X167179771Y-85717507D01*
X167135000Y-85726413D01*
X167134999Y-85726413D01*
X167134996Y-85726414D01*
X166969662Y-85794899D01*
X166820869Y-85894319D01*
X166820862Y-85894324D01*
X166694324Y-86020862D01*
X166694319Y-86020869D01*
X166602348Y-86158515D01*
X166594898Y-86169664D01*
X166593056Y-86174111D01*
X166526414Y-86334996D01*
X166526413Y-86334999D01*
X166526413Y-86335000D01*
X166517702Y-86378792D01*
X166491500Y-86510518D01*
X162547517Y-86510518D01*
X162558500Y-86441176D01*
X162558500Y-86258824D01*
X162529974Y-86078717D01*
X162473624Y-85905290D01*
X162390838Y-85742814D01*
X162283654Y-85595288D01*
X162283651Y-85595285D01*
X162283649Y-85595282D01*
X162154718Y-85466351D01*
X162154714Y-85466348D01*
X162154712Y-85466346D01*
X162092344Y-85421033D01*
X162048992Y-85364811D01*
X162042917Y-85294075D01*
X162076049Y-85231283D01*
X162092339Y-85217167D01*
X162122139Y-85195517D01*
X162245517Y-85072139D01*
X162348074Y-84930981D01*
X162427288Y-84775516D01*
X162481205Y-84609574D01*
X162508500Y-84437241D01*
X162508500Y-84262759D01*
X162481205Y-84090426D01*
X162427288Y-83924484D01*
X162348074Y-83769019D01*
X162245517Y-83627861D01*
X162245514Y-83627858D01*
X162245512Y-83627855D01*
X162154894Y-83537237D01*
X162120868Y-83474925D01*
X162125933Y-83404110D01*
X162168480Y-83347274D01*
X162169928Y-83346206D01*
X162219858Y-83309930D01*
X162359930Y-83169858D01*
X162476366Y-83009598D01*
X162566298Y-82833097D01*
X162627512Y-82644700D01*
X162658500Y-82449046D01*
X162658500Y-82250954D01*
X162627512Y-82055300D01*
X162566298Y-81866903D01*
X162476366Y-81690402D01*
X162359930Y-81530142D01*
X162359926Y-81530138D01*
X162359924Y-81530135D01*
X162340307Y-81510518D01*
X166491500Y-81510518D01*
X166491500Y-81689481D01*
X166492757Y-81695800D01*
X166526413Y-81865000D01*
X166594898Y-82030336D01*
X166694322Y-82179135D01*
X166820865Y-82305678D01*
X166969664Y-82405102D01*
X167135000Y-82473587D01*
X167310521Y-82508500D01*
X167310522Y-82508500D01*
X167489478Y-82508500D01*
X167489479Y-82508500D01*
X167665000Y-82473587D01*
X167830336Y-82405102D01*
X167979135Y-82305678D01*
X168105678Y-82179135D01*
X168205102Y-82030336D01*
X168273587Y-81865000D01*
X168308500Y-81689479D01*
X168308500Y-81510521D01*
X168273587Y-81335000D01*
X168205102Y-81169664D01*
X168105678Y-81020865D01*
X167979135Y-80894322D01*
X167830336Y-80794898D01*
X167713429Y-80746473D01*
X167665003Y-80726414D01*
X167665001Y-80726413D01*
X167665000Y-80726413D01*
X167576645Y-80708838D01*
X167489481Y-80691500D01*
X167489479Y-80691500D01*
X167310521Y-80691500D01*
X167310518Y-80691500D01*
X167179771Y-80717507D01*
X167135000Y-80726413D01*
X167134999Y-80726413D01*
X167134996Y-80726414D01*
X166969662Y-80794899D01*
X166820869Y-80894319D01*
X166820862Y-80894324D01*
X166694324Y-81020862D01*
X166694319Y-81020869D01*
X166594899Y-81169662D01*
X166526414Y-81334996D01*
X166491500Y-81510518D01*
X162340307Y-81510518D01*
X162219860Y-81390071D01*
X162059601Y-81273636D01*
X162059600Y-81273635D01*
X162059598Y-81273634D01*
X161883097Y-81183702D01*
X161694700Y-81122488D01*
X161499046Y-81091500D01*
X161300954Y-81091500D01*
X161105300Y-81122488D01*
X161105297Y-81122488D01*
X161105296Y-81122489D01*
X160916903Y-81183702D01*
X160916901Y-81183703D01*
X160740398Y-81273636D01*
X160580139Y-81390071D01*
X160440071Y-81530139D01*
X160323636Y-81690398D01*
X160323634Y-81690402D01*
X160233702Y-81866903D01*
X160172488Y-82055300D01*
X160141500Y-82250954D01*
X160141500Y-82449046D01*
X160172488Y-82644700D01*
X160233702Y-82833097D01*
X160315933Y-82994484D01*
X160323636Y-83009601D01*
X160440071Y-83169860D01*
X160580135Y-83309924D01*
X160580138Y-83309926D01*
X160580142Y-83309930D01*
X160630072Y-83346206D01*
X160673425Y-83402429D01*
X160679500Y-83473165D01*
X160646368Y-83535957D01*
X160645106Y-83537237D01*
X160554483Y-83627860D01*
X160451928Y-83769015D01*
X160372713Y-83924482D01*
X160372710Y-83924488D01*
X160337426Y-84033084D01*
X160318795Y-84090426D01*
X160291500Y-84262759D01*
X160291500Y-84437241D01*
X160318795Y-84609574D01*
X160318796Y-84609577D01*
X160371200Y-84770865D01*
X160372712Y-84775516D01*
X160451926Y-84930981D01*
X160512049Y-85013734D01*
X160514015Y-85016439D01*
X160537873Y-85083307D01*
X160521793Y-85152458D01*
X160470879Y-85201938D01*
X160412079Y-85216500D01*
X154103503Y-85216500D01*
X154035382Y-85196498D01*
X154014408Y-85179595D01*
X153979137Y-85144324D01*
X153979135Y-85144322D01*
X153830336Y-85044898D01*
X153713429Y-84996473D01*
X153665003Y-84976414D01*
X153665001Y-84976413D01*
X153665000Y-84976413D01*
X153576645Y-84958838D01*
X153489481Y-84941500D01*
X153489479Y-84941500D01*
X153310521Y-84941500D01*
X153310515Y-84941500D01*
X153184081Y-84966650D01*
X153113367Y-84960322D01*
X153057300Y-84916768D01*
X153033681Y-84849815D01*
X153033500Y-84843071D01*
X153033500Y-84205409D01*
X153053502Y-84137288D01*
X153107158Y-84090795D01*
X153115469Y-84087353D01*
X153133808Y-84080512D01*
X153146204Y-84075889D01*
X153263261Y-83988261D01*
X153311004Y-83924484D01*
X153350887Y-83871207D01*
X153350887Y-83871206D01*
X153350889Y-83871204D01*
X153401989Y-83734201D01*
X153403510Y-83720059D01*
X153408499Y-83673649D01*
X153408500Y-83673632D01*
X153408500Y-80776367D01*
X153408499Y-80776350D01*
X153401990Y-80715803D01*
X153401988Y-80715795D01*
X153378765Y-80653533D01*
X153373699Y-80582718D01*
X153407724Y-80520405D01*
X153470036Y-80486380D01*
X153496820Y-80483500D01*
X155303180Y-80483500D01*
X155371301Y-80503502D01*
X155417794Y-80557158D01*
X155427898Y-80627432D01*
X155421235Y-80653533D01*
X155398011Y-80715795D01*
X155398009Y-80715803D01*
X155391500Y-80776350D01*
X155391500Y-83673649D01*
X155398009Y-83734196D01*
X155398011Y-83734204D01*
X155449110Y-83871202D01*
X155449112Y-83871207D01*
X155536738Y-83988261D01*
X155653792Y-84075887D01*
X155653794Y-84075888D01*
X155653796Y-84075889D01*
X155684532Y-84087353D01*
X155790795Y-84126988D01*
X155790803Y-84126990D01*
X155851350Y-84133499D01*
X155851355Y-84133499D01*
X155851362Y-84133500D01*
X155851368Y-84133500D01*
X156948632Y-84133500D01*
X156948638Y-84133500D01*
X156948645Y-84133499D01*
X156948649Y-84133499D01*
X157009196Y-84126990D01*
X157009199Y-84126989D01*
X157009201Y-84126989D01*
X157146204Y-84075889D01*
X157263261Y-83988261D01*
X157311004Y-83924484D01*
X157350887Y-83871207D01*
X157350887Y-83871206D01*
X157350889Y-83871204D01*
X157401989Y-83734201D01*
X157403510Y-83720059D01*
X157408499Y-83673649D01*
X157408500Y-83673632D01*
X157408500Y-80776367D01*
X157408499Y-80776350D01*
X157401990Y-80715803D01*
X157401988Y-80715795D01*
X157378765Y-80653533D01*
X157373699Y-80582718D01*
X157407724Y-80520405D01*
X157470036Y-80486380D01*
X157496820Y-80483500D01*
X164446497Y-80483500D01*
X164514618Y-80503502D01*
X164535591Y-80520404D01*
X164570865Y-80555678D01*
X164719664Y-80655102D01*
X164885000Y-80723587D01*
X165060521Y-80758500D01*
X165060522Y-80758500D01*
X165239478Y-80758500D01*
X165239479Y-80758500D01*
X165415000Y-80723587D01*
X165580336Y-80655102D01*
X165729135Y-80555678D01*
X165855678Y-80429135D01*
X165955102Y-80280336D01*
X166023587Y-80115000D01*
X166058500Y-79939479D01*
X166058500Y-79760521D01*
X166023587Y-79585000D01*
X165955102Y-79419664D01*
X165855678Y-79270865D01*
X165729135Y-79144322D01*
X165580336Y-79044898D01*
X165463429Y-78996473D01*
X165415003Y-78976414D01*
X165415001Y-78976413D01*
X165415000Y-78976413D01*
X165326645Y-78958838D01*
X165239481Y-78941500D01*
X165239479Y-78941500D01*
X165060521Y-78941500D01*
X165060518Y-78941500D01*
X164929771Y-78967507D01*
X164885000Y-78976413D01*
X164884999Y-78976413D01*
X164884996Y-78976414D01*
X164719662Y-79044899D01*
X164570869Y-79144319D01*
X164570862Y-79144324D01*
X164535592Y-79179595D01*
X164473280Y-79213621D01*
X164446497Y-79216500D01*
X132087603Y-79216500D01*
X131965214Y-79240845D01*
X131965209Y-79240847D01*
X131933859Y-79253833D01*
X131892740Y-79270865D01*
X131849923Y-79288600D01*
X131746171Y-79357925D01*
X131746164Y-79357930D01*
X130899500Y-80204595D01*
X130837188Y-80238621D01*
X130810405Y-80241500D01*
X129501350Y-80241500D01*
X129440803Y-80248009D01*
X129440795Y-80248011D01*
X129303797Y-80299110D01*
X129303792Y-80299112D01*
X129186738Y-80386738D01*
X129099112Y-80503792D01*
X129099110Y-80503797D01*
X129048011Y-80640795D01*
X129048009Y-80640803D01*
X129041500Y-80701350D01*
X129041500Y-82016500D01*
X129021498Y-82084621D01*
X128967842Y-82131114D01*
X128915500Y-82142500D01*
X128276990Y-82142500D01*
X128208869Y-82122498D01*
X128187895Y-82105595D01*
X124827668Y-78745368D01*
X124793642Y-78683056D01*
X124798707Y-78612241D01*
X124841254Y-78555405D01*
X124907774Y-78530594D01*
X124955697Y-78536439D01*
X124969884Y-78541049D01*
X125181084Y-78574500D01*
X125181087Y-78574500D01*
X125394913Y-78574500D01*
X125394916Y-78574500D01*
X125606116Y-78541049D01*
X125809483Y-78474972D01*
X126000009Y-78377894D01*
X126173004Y-78252206D01*
X126324206Y-78101004D01*
X126449894Y-77928009D01*
X126449899Y-77927997D01*
X126450561Y-77926920D01*
X126450924Y-77926591D01*
X126452804Y-77924004D01*
X126453347Y-77924398D01*
X126503204Y-77879283D01*
X126573244Y-77867670D01*
X126638445Y-77895766D01*
X126663021Y-77924130D01*
X126663196Y-77924004D01*
X126664668Y-77926030D01*
X126665439Y-77926920D01*
X126666108Y-77928012D01*
X126697182Y-77970781D01*
X126791794Y-78101004D01*
X126791796Y-78101006D01*
X126791798Y-78101009D01*
X126942990Y-78252201D01*
X126942993Y-78252203D01*
X126942996Y-78252206D01*
X127115991Y-78377894D01*
X127306517Y-78474972D01*
X127509878Y-78541047D01*
X127509879Y-78541047D01*
X127509884Y-78541049D01*
X127721084Y-78574500D01*
X127721087Y-78574500D01*
X127934913Y-78574500D01*
X127934916Y-78574500D01*
X128146116Y-78541049D01*
X128349483Y-78474972D01*
X128540009Y-78377894D01*
X128713004Y-78252206D01*
X128864206Y-78101004D01*
X128989894Y-77928009D01*
X129086972Y-77737483D01*
X129153049Y-77534116D01*
X129186500Y-77322916D01*
X129186500Y-77109084D01*
X129153049Y-76897884D01*
X129086972Y-76694517D01*
X128993220Y-76510518D01*
X131491500Y-76510518D01*
X131491500Y-76689481D01*
X131498363Y-76723982D01*
X131526413Y-76865000D01*
X131594898Y-77030336D01*
X131694322Y-77179135D01*
X131820865Y-77305678D01*
X131969664Y-77405102D01*
X132135000Y-77473587D01*
X132310521Y-77508500D01*
X132310522Y-77508500D01*
X132489478Y-77508500D01*
X132489479Y-77508500D01*
X132665000Y-77473587D01*
X132830336Y-77405102D01*
X132979135Y-77305678D01*
X133105678Y-77179135D01*
X133205102Y-77030336D01*
X133273587Y-76865000D01*
X133308500Y-76689479D01*
X133308500Y-76510521D01*
X133308499Y-76510518D01*
X136491500Y-76510518D01*
X136491500Y-76689481D01*
X136498363Y-76723982D01*
X136526413Y-76865000D01*
X136594898Y-77030336D01*
X136694322Y-77179135D01*
X136820865Y-77305678D01*
X136969664Y-77405102D01*
X137135000Y-77473587D01*
X137310521Y-77508500D01*
X137310522Y-77508500D01*
X137489478Y-77508500D01*
X137489479Y-77508500D01*
X137665000Y-77473587D01*
X137830336Y-77405102D01*
X137979135Y-77305678D01*
X138105678Y-77179135D01*
X138205102Y-77030336D01*
X138273587Y-76865000D01*
X138308500Y-76689479D01*
X138308500Y-76510521D01*
X138308499Y-76510518D01*
X141491500Y-76510518D01*
X141491500Y-76689481D01*
X141498363Y-76723982D01*
X141526413Y-76865000D01*
X141594898Y-77030336D01*
X141694322Y-77179135D01*
X141820865Y-77305678D01*
X141969664Y-77405102D01*
X142135000Y-77473587D01*
X142310521Y-77508500D01*
X142310522Y-77508500D01*
X142489478Y-77508500D01*
X142489479Y-77508500D01*
X142665000Y-77473587D01*
X142830336Y-77405102D01*
X142979135Y-77305678D01*
X143105678Y-77179135D01*
X143152484Y-77109084D01*
X146789500Y-77109084D01*
X146789500Y-77322916D01*
X146822951Y-77534116D01*
X146822952Y-77534121D01*
X146889026Y-77737478D01*
X146889028Y-77737483D01*
X146986106Y-77928009D01*
X146986108Y-77928012D01*
X147017182Y-77970781D01*
X147111794Y-78101004D01*
X147111796Y-78101006D01*
X147111798Y-78101009D01*
X147262990Y-78252201D01*
X147262993Y-78252203D01*
X147262996Y-78252206D01*
X147435991Y-78377894D01*
X147626517Y-78474972D01*
X147829878Y-78541047D01*
X147829879Y-78541047D01*
X147829884Y-78541049D01*
X148041084Y-78574500D01*
X148041087Y-78574500D01*
X148254913Y-78574500D01*
X148254916Y-78574500D01*
X148466116Y-78541049D01*
X148669483Y-78474972D01*
X148860009Y-78377894D01*
X149033004Y-78252206D01*
X149184206Y-78101004D01*
X149309894Y-77928009D01*
X149309899Y-77927997D01*
X149310561Y-77926920D01*
X149310924Y-77926591D01*
X149312804Y-77924004D01*
X149313347Y-77924398D01*
X149363204Y-77879283D01*
X149433244Y-77867670D01*
X149498445Y-77895766D01*
X149523021Y-77924130D01*
X149523196Y-77924004D01*
X149524668Y-77926030D01*
X149525439Y-77926920D01*
X149526108Y-77928012D01*
X149557182Y-77970781D01*
X149651794Y-78101004D01*
X149651796Y-78101006D01*
X149651798Y-78101009D01*
X149802990Y-78252201D01*
X149802993Y-78252203D01*
X149802996Y-78252206D01*
X149975991Y-78377894D01*
X150166517Y-78474972D01*
X150369878Y-78541047D01*
X150369879Y-78541047D01*
X150369884Y-78541049D01*
X150581084Y-78574500D01*
X150581087Y-78574500D01*
X150794913Y-78574500D01*
X150794916Y-78574500D01*
X151006116Y-78541049D01*
X151209483Y-78474972D01*
X151400009Y-78377894D01*
X151573004Y-78252206D01*
X151724206Y-78101004D01*
X151849894Y-77928009D01*
X151849899Y-77927997D01*
X151850561Y-77926920D01*
X151850924Y-77926591D01*
X151852804Y-77924004D01*
X151853347Y-77924398D01*
X151903204Y-77879283D01*
X151973244Y-77867670D01*
X152038445Y-77895766D01*
X152063021Y-77924130D01*
X152063196Y-77924004D01*
X152064668Y-77926030D01*
X152065439Y-77926920D01*
X152066108Y-77928012D01*
X152097182Y-77970781D01*
X152191794Y-78101004D01*
X152191796Y-78101006D01*
X152191798Y-78101009D01*
X152342990Y-78252201D01*
X152342993Y-78252203D01*
X152342996Y-78252206D01*
X152515991Y-78377894D01*
X152706517Y-78474972D01*
X152909878Y-78541047D01*
X152909879Y-78541047D01*
X152909884Y-78541049D01*
X153121084Y-78574500D01*
X153121087Y-78574500D01*
X153334913Y-78574500D01*
X153334916Y-78574500D01*
X153546116Y-78541049D01*
X153749483Y-78474972D01*
X153940009Y-78377894D01*
X154113004Y-78252206D01*
X154215982Y-78149227D01*
X154278292Y-78115204D01*
X154349108Y-78120268D01*
X154405944Y-78162815D01*
X154423131Y-78194291D01*
X154467110Y-78312203D01*
X154467112Y-78312207D01*
X154554738Y-78429261D01*
X154671792Y-78516887D01*
X154671794Y-78516888D01*
X154671796Y-78516889D01*
X154724214Y-78536440D01*
X154808795Y-78567988D01*
X154808803Y-78567990D01*
X154869350Y-78574499D01*
X154869355Y-78574499D01*
X154869362Y-78574500D01*
X154869368Y-78574500D01*
X156666632Y-78574500D01*
X156666638Y-78574500D01*
X156666645Y-78574499D01*
X156666649Y-78574499D01*
X156727196Y-78567990D01*
X156727199Y-78567989D01*
X156727201Y-78567989D01*
X156864204Y-78516889D01*
X156920199Y-78474972D01*
X156981261Y-78429261D01*
X157068887Y-78312207D01*
X157068887Y-78312206D01*
X157068889Y-78312204D01*
X157119989Y-78175201D01*
X157121772Y-78158621D01*
X157126499Y-78114649D01*
X157126500Y-78114632D01*
X157126500Y-76317367D01*
X157126499Y-76317350D01*
X157119990Y-76256803D01*
X157119988Y-76256795D01*
X157068889Y-76119797D01*
X157068887Y-76119792D01*
X156981261Y-76002738D01*
X156864207Y-75915112D01*
X156864202Y-75915110D01*
X156727204Y-75864011D01*
X156727196Y-75864009D01*
X156666649Y-75857500D01*
X156666638Y-75857500D01*
X154869362Y-75857500D01*
X154869350Y-75857500D01*
X154808803Y-75864009D01*
X154808795Y-75864011D01*
X154671797Y-75915110D01*
X154671792Y-75915112D01*
X154554738Y-76002738D01*
X154467112Y-76119792D01*
X154467110Y-76119797D01*
X154423131Y-76237708D01*
X154380584Y-76294544D01*
X154314064Y-76319354D01*
X154244690Y-76304262D01*
X154215981Y-76282770D01*
X154113009Y-76179798D01*
X154113006Y-76179796D01*
X154113004Y-76179794D01*
X153940009Y-76054106D01*
X153749483Y-75957028D01*
X153749480Y-75957027D01*
X153749478Y-75957026D01*
X153546120Y-75890952D01*
X153546123Y-75890952D01*
X153506801Y-75884724D01*
X153334916Y-75857500D01*
X153121084Y-75857500D01*
X152909884Y-75890951D01*
X152909878Y-75890952D01*
X152706521Y-75957026D01*
X152706515Y-75957029D01*
X152515987Y-76054108D01*
X152342993Y-76179796D01*
X152342990Y-76179798D01*
X152191798Y-76330990D01*
X152191796Y-76330993D01*
X152066108Y-76503987D01*
X152065434Y-76505088D01*
X152065068Y-76505418D01*
X152063196Y-76507996D01*
X152062654Y-76507602D01*
X152012787Y-76552721D01*
X151942745Y-76564328D01*
X151877547Y-76536226D01*
X151852976Y-76507870D01*
X151852804Y-76507996D01*
X151851341Y-76505982D01*
X151850566Y-76505088D01*
X151849896Y-76503996D01*
X151849894Y-76503991D01*
X151724206Y-76330996D01*
X151724203Y-76330993D01*
X151724201Y-76330990D01*
X151573009Y-76179798D01*
X151573006Y-76179796D01*
X151573004Y-76179794D01*
X151400009Y-76054106D01*
X151209483Y-75957028D01*
X151209480Y-75957027D01*
X151209478Y-75957026D01*
X151006120Y-75890952D01*
X151006123Y-75890952D01*
X150966801Y-75884724D01*
X150794916Y-75857500D01*
X150581084Y-75857500D01*
X150369884Y-75890951D01*
X150369878Y-75890952D01*
X150166521Y-75957026D01*
X150166515Y-75957029D01*
X149975987Y-76054108D01*
X149802993Y-76179796D01*
X149802990Y-76179798D01*
X149651798Y-76330990D01*
X149651796Y-76330993D01*
X149526108Y-76503987D01*
X149525434Y-76505088D01*
X149525068Y-76505418D01*
X149523196Y-76507996D01*
X149522654Y-76507602D01*
X149472787Y-76552721D01*
X149402745Y-76564328D01*
X149337547Y-76536226D01*
X149312976Y-76507870D01*
X149312804Y-76507996D01*
X149311341Y-76505982D01*
X149310566Y-76505088D01*
X149309896Y-76503996D01*
X149309894Y-76503991D01*
X149184206Y-76330996D01*
X149184203Y-76330993D01*
X149184201Y-76330990D01*
X149033009Y-76179798D01*
X149033006Y-76179796D01*
X149033004Y-76179794D01*
X148860009Y-76054106D01*
X148669483Y-75957028D01*
X148669480Y-75957027D01*
X148669478Y-75957026D01*
X148466120Y-75890952D01*
X148466123Y-75890952D01*
X148426801Y-75884724D01*
X148254916Y-75857500D01*
X148041084Y-75857500D01*
X147829884Y-75890951D01*
X147829878Y-75890952D01*
X147626521Y-75957026D01*
X147626515Y-75957029D01*
X147435987Y-76054108D01*
X147262993Y-76179796D01*
X147262990Y-76179798D01*
X147111798Y-76330990D01*
X147111796Y-76330993D01*
X146986108Y-76503987D01*
X146889029Y-76694515D01*
X146889026Y-76694521D01*
X146822952Y-76897878D01*
X146822951Y-76897883D01*
X146822951Y-76897884D01*
X146789500Y-77109084D01*
X143152484Y-77109084D01*
X143205102Y-77030336D01*
X143273587Y-76865000D01*
X143308500Y-76689479D01*
X143308500Y-76510521D01*
X143273587Y-76335000D01*
X143205102Y-76169664D01*
X143105678Y-76020865D01*
X142979135Y-75894322D01*
X142830336Y-75794898D01*
X142710278Y-75745168D01*
X142665003Y-75726414D01*
X142665001Y-75726413D01*
X142665000Y-75726413D01*
X142576645Y-75708838D01*
X142489481Y-75691500D01*
X142489479Y-75691500D01*
X142310521Y-75691500D01*
X142310518Y-75691500D01*
X142199320Y-75713619D01*
X142135000Y-75726413D01*
X142134999Y-75726413D01*
X142134996Y-75726414D01*
X141969662Y-75794899D01*
X141820869Y-75894319D01*
X141820862Y-75894324D01*
X141694324Y-76020862D01*
X141694319Y-76020869D01*
X141594899Y-76169662D01*
X141526414Y-76334996D01*
X141526413Y-76334999D01*
X141526413Y-76335000D01*
X141517507Y-76379771D01*
X141491500Y-76510518D01*
X138308499Y-76510518D01*
X138273587Y-76335000D01*
X138205102Y-76169664D01*
X138105678Y-76020865D01*
X137979135Y-75894322D01*
X137830336Y-75794898D01*
X137710278Y-75745168D01*
X137665003Y-75726414D01*
X137665001Y-75726413D01*
X137665000Y-75726413D01*
X137576645Y-75708838D01*
X137489481Y-75691500D01*
X137489479Y-75691500D01*
X137310521Y-75691500D01*
X137310518Y-75691500D01*
X137199320Y-75713619D01*
X137135000Y-75726413D01*
X137134999Y-75726413D01*
X137134996Y-75726414D01*
X136969662Y-75794899D01*
X136820869Y-75894319D01*
X136820862Y-75894324D01*
X136694324Y-76020862D01*
X136694319Y-76020869D01*
X136594899Y-76169662D01*
X136526414Y-76334996D01*
X136526413Y-76334999D01*
X136526413Y-76335000D01*
X136517507Y-76379771D01*
X136491500Y-76510518D01*
X133308499Y-76510518D01*
X133273587Y-76335000D01*
X133205102Y-76169664D01*
X133105678Y-76020865D01*
X132979135Y-75894322D01*
X132830336Y-75794898D01*
X132710278Y-75745168D01*
X132665003Y-75726414D01*
X132665001Y-75726413D01*
X132665000Y-75726413D01*
X132576645Y-75708838D01*
X132489481Y-75691500D01*
X132489479Y-75691500D01*
X132310521Y-75691500D01*
X132310518Y-75691500D01*
X132199320Y-75713619D01*
X132135000Y-75726413D01*
X132134999Y-75726413D01*
X132134996Y-75726414D01*
X131969662Y-75794899D01*
X131820869Y-75894319D01*
X131820862Y-75894324D01*
X131694324Y-76020862D01*
X131694319Y-76020869D01*
X131594899Y-76169662D01*
X131526414Y-76334996D01*
X131526413Y-76334999D01*
X131526413Y-76335000D01*
X131517507Y-76379771D01*
X131491500Y-76510518D01*
X128993220Y-76510518D01*
X128989894Y-76503991D01*
X128864206Y-76330996D01*
X128864203Y-76330993D01*
X128864201Y-76330990D01*
X128713009Y-76179798D01*
X128713006Y-76179796D01*
X128713004Y-76179794D01*
X128540009Y-76054106D01*
X128349483Y-75957028D01*
X128349480Y-75957027D01*
X128349478Y-75957026D01*
X128146120Y-75890952D01*
X128146123Y-75890952D01*
X128106801Y-75884724D01*
X127934916Y-75857500D01*
X127721084Y-75857500D01*
X127509884Y-75890951D01*
X127509878Y-75890952D01*
X127306521Y-75957026D01*
X127306515Y-75957029D01*
X127115987Y-76054108D01*
X126942993Y-76179796D01*
X126942990Y-76179798D01*
X126791798Y-76330990D01*
X126791796Y-76330993D01*
X126666108Y-76503987D01*
X126665434Y-76505088D01*
X126665068Y-76505418D01*
X126663196Y-76507996D01*
X126662654Y-76507602D01*
X126612787Y-76552721D01*
X126542745Y-76564328D01*
X126477547Y-76536226D01*
X126452976Y-76507870D01*
X126452804Y-76507996D01*
X126451341Y-76505982D01*
X126450566Y-76505088D01*
X126449896Y-76503996D01*
X126449894Y-76503991D01*
X126324206Y-76330996D01*
X126324203Y-76330993D01*
X126324201Y-76330990D01*
X126173009Y-76179798D01*
X126173006Y-76179796D01*
X126173004Y-76179794D01*
X126000009Y-76054106D01*
X125809483Y-75957028D01*
X125809480Y-75957027D01*
X125809478Y-75957026D01*
X125606120Y-75890952D01*
X125606123Y-75890952D01*
X125566801Y-75884724D01*
X125394916Y-75857500D01*
X125181084Y-75857500D01*
X124969884Y-75890951D01*
X124969878Y-75890952D01*
X124766521Y-75957026D01*
X124766515Y-75957029D01*
X124575987Y-76054108D01*
X124402993Y-76179796D01*
X124402990Y-76179798D01*
X124251798Y-76330990D01*
X124251796Y-76330993D01*
X124126108Y-76503987D01*
X124125434Y-76505088D01*
X124125068Y-76505418D01*
X124123196Y-76507996D01*
X124122654Y-76507602D01*
X124072787Y-76552721D01*
X124002745Y-76564328D01*
X123937547Y-76536226D01*
X123912976Y-76507870D01*
X123912804Y-76507996D01*
X123911341Y-76505982D01*
X123910566Y-76505088D01*
X123909896Y-76503996D01*
X123909894Y-76503991D01*
X123784206Y-76330996D01*
X123784203Y-76330993D01*
X123784201Y-76330990D01*
X123633009Y-76179798D01*
X123633006Y-76179796D01*
X123633004Y-76179794D01*
X123460009Y-76054106D01*
X123269483Y-75957028D01*
X123269480Y-75957027D01*
X123269478Y-75957026D01*
X123066120Y-75890952D01*
X123066123Y-75890952D01*
X123026801Y-75884724D01*
X122854916Y-75857500D01*
X122641084Y-75857500D01*
X122429884Y-75890951D01*
X122429878Y-75890952D01*
X122226521Y-75957026D01*
X122226515Y-75957029D01*
X122035987Y-76054108D01*
X121862995Y-76179794D01*
X121760018Y-76282771D01*
X121697706Y-76316796D01*
X121626890Y-76311730D01*
X121570054Y-76269184D01*
X121552871Y-76237715D01*
X121508889Y-76119796D01*
X121508886Y-76119792D01*
X121508886Y-76119791D01*
X121421261Y-76002738D01*
X121304207Y-75915112D01*
X121304202Y-75915110D01*
X121167204Y-75864011D01*
X121167196Y-75864009D01*
X121106649Y-75857500D01*
X121106638Y-75857500D01*
X119309362Y-75857500D01*
X119309350Y-75857500D01*
X119248803Y-75864009D01*
X119248795Y-75864011D01*
X119111797Y-75915110D01*
X119111792Y-75915112D01*
X118994738Y-76002738D01*
X118907112Y-76119792D01*
X118907110Y-76119797D01*
X118856011Y-76256795D01*
X118856009Y-76256803D01*
X118849500Y-76317350D01*
X118849500Y-78090500D01*
X118829498Y-78158621D01*
X118775842Y-78205114D01*
X118723500Y-78216500D01*
X115876696Y-78216500D01*
X115808575Y-78196498D01*
X115787601Y-78179595D01*
X114331988Y-76723982D01*
X114331986Y-76723980D01*
X114228228Y-76654651D01*
X114112938Y-76606896D01*
X114039239Y-76592236D01*
X113990549Y-76582551D01*
X113990547Y-76582551D01*
X112855160Y-76582551D01*
X112787039Y-76562549D01*
X112742895Y-76513757D01*
X112741246Y-76510521D01*
X112737945Y-76504042D01*
X112612257Y-76331047D01*
X112612254Y-76331044D01*
X112612252Y-76331041D01*
X112461060Y-76179849D01*
X112461057Y-76179847D01*
X112461055Y-76179845D01*
X112288060Y-76054157D01*
X112097534Y-75957079D01*
X112097531Y-75957078D01*
X112097529Y-75957077D01*
X111894171Y-75891003D01*
X111894174Y-75891003D01*
X111854852Y-75884775D01*
X111682967Y-75857551D01*
X111537336Y-75857551D01*
X111469215Y-75837549D01*
X111422722Y-75783893D01*
X111412618Y-75713619D01*
X111422722Y-75679209D01*
X111424541Y-75675226D01*
X111475001Y-75564734D01*
X111495810Y-75420000D01*
X111475001Y-75275266D01*
X111414258Y-75142257D01*
X111376038Y-75094828D01*
X111376031Y-75094821D01*
X111376023Y-75094812D01*
X110105187Y-73823976D01*
X110105177Y-73823967D01*
X110105172Y-73823962D01*
X110057743Y-73785742D01*
X109924734Y-73724999D01*
X109780000Y-73704190D01*
X109635265Y-73724999D01*
X109502256Y-73785742D01*
X109454831Y-73823959D01*
X109454812Y-73823976D01*
X108183976Y-75094812D01*
X108183959Y-75094831D01*
X108145742Y-75142256D01*
X108106545Y-75228087D01*
X108084999Y-75275266D01*
X108064190Y-75420000D01*
X106925500Y-75420000D01*
X106925500Y-71510518D01*
X121491500Y-71510518D01*
X121491500Y-71510521D01*
X121491500Y-71689479D01*
X121526413Y-71865000D01*
X121594898Y-72030336D01*
X121694322Y-72179135D01*
X121820865Y-72305678D01*
X121969664Y-72405102D01*
X122135000Y-72473587D01*
X122310521Y-72508500D01*
X122310522Y-72508500D01*
X122489478Y-72508500D01*
X122489479Y-72508500D01*
X122665000Y-72473587D01*
X122830336Y-72405102D01*
X122979135Y-72305678D01*
X123105678Y-72179135D01*
X123205102Y-72030336D01*
X123273587Y-71865000D01*
X123308500Y-71689479D01*
X123308500Y-71510521D01*
X123273587Y-71335000D01*
X123205102Y-71169664D01*
X123105678Y-71020865D01*
X122979135Y-70894322D01*
X122830336Y-70794898D01*
X122713429Y-70746473D01*
X122665003Y-70726414D01*
X122665001Y-70726413D01*
X122665000Y-70726413D01*
X122576645Y-70708838D01*
X122489481Y-70691500D01*
X122489479Y-70691500D01*
X122310521Y-70691500D01*
X122310518Y-70691500D01*
X122179771Y-70717507D01*
X122135000Y-70726413D01*
X122134999Y-70726413D01*
X122134996Y-70726414D01*
X121969662Y-70794899D01*
X121820869Y-70894319D01*
X121820862Y-70894324D01*
X121694324Y-71020862D01*
X121694319Y-71020869D01*
X121594899Y-71169662D01*
X121526414Y-71334996D01*
X121491500Y-71510518D01*
X106925500Y-71510518D01*
X106925500Y-65763318D01*
X108198600Y-65763318D01*
X108198600Y-65936682D01*
X108225720Y-66107912D01*
X108225721Y-66107917D01*
X108266742Y-66234167D01*
X108279292Y-66272791D01*
X108279293Y-66272792D01*
X108358000Y-66427263D01*
X108459900Y-66567516D01*
X108582483Y-66690099D01*
X108603162Y-66705123D01*
X108722740Y-66792002D01*
X108877209Y-66870708D01*
X109042082Y-66924278D01*
X109042083Y-66924278D01*
X109042088Y-66924280D01*
X109213318Y-66951400D01*
X109213321Y-66951400D01*
X109386679Y-66951400D01*
X109386682Y-66951400D01*
X109557912Y-66924280D01*
X109722791Y-66870708D01*
X109877260Y-66792002D01*
X110017514Y-66690101D01*
X110140101Y-66567514D01*
X110242002Y-66427260D01*
X110320708Y-66272791D01*
X110374280Y-66107912D01*
X110401400Y-65936682D01*
X110401400Y-65763318D01*
X110394730Y-65721204D01*
X112835000Y-65721204D01*
X112835000Y-65978795D01*
X112868620Y-66234167D01*
X112868621Y-66234173D01*
X112868622Y-66234175D01*
X112935290Y-66482984D01*
X113033864Y-66720962D01*
X113033865Y-66720963D01*
X113033870Y-66720974D01*
X113162659Y-66944043D01*
X113319460Y-67148388D01*
X113319479Y-67148409D01*
X113501590Y-67330520D01*
X113501600Y-67330529D01*
X113501606Y-67330535D01*
X113501609Y-67330537D01*
X113501611Y-67330539D01*
X113705956Y-67487340D01*
X113929025Y-67616129D01*
X113929029Y-67616130D01*
X113929038Y-67616136D01*
X114167016Y-67714710D01*
X114415825Y-67781378D01*
X114415831Y-67781378D01*
X114415832Y-67781379D01*
X114445134Y-67785236D01*
X114671207Y-67815000D01*
X114671214Y-67815000D01*
X114928786Y-67815000D01*
X114928793Y-67815000D01*
X115184175Y-67781378D01*
X115432984Y-67714710D01*
X115670962Y-67616136D01*
X115894038Y-67487343D01*
X115894038Y-67487342D01*
X115894043Y-67487340D01*
X116012717Y-67396277D01*
X116098394Y-67330535D01*
X116280535Y-67148394D01*
X116404336Y-66987054D01*
X116437340Y-66944043D01*
X116479680Y-66870709D01*
X116566136Y-66720962D01*
X116664710Y-66482984D01*
X116731378Y-66234175D01*
X116765000Y-65978793D01*
X116765000Y-65763318D01*
X119198600Y-65763318D01*
X119198600Y-65936682D01*
X119225720Y-66107912D01*
X119225721Y-66107917D01*
X119266742Y-66234167D01*
X119279292Y-66272791D01*
X119279293Y-66272792D01*
X119358000Y-66427263D01*
X119459900Y-66567516D01*
X119582483Y-66690099D01*
X119603162Y-66705123D01*
X119722740Y-66792002D01*
X119877209Y-66870708D01*
X120042082Y-66924278D01*
X120042083Y-66924278D01*
X120042088Y-66924280D01*
X120213318Y-66951400D01*
X120213321Y-66951400D01*
X120386679Y-66951400D01*
X120386682Y-66951400D01*
X120557912Y-66924280D01*
X120722791Y-66870708D01*
X120877260Y-66792002D01*
X121017514Y-66690101D01*
X121140101Y-66567514D01*
X121242002Y-66427260D01*
X121320708Y-66272791D01*
X121374280Y-66107912D01*
X121401400Y-65936682D01*
X121401400Y-65763318D01*
X121374280Y-65592088D01*
X121320708Y-65427209D01*
X121242002Y-65272740D01*
X121140101Y-65132486D01*
X121140099Y-65132483D01*
X121017516Y-65009900D01*
X120877263Y-64908000D01*
X120877262Y-64907999D01*
X120877260Y-64907998D01*
X120722791Y-64829292D01*
X120722788Y-64829291D01*
X120722786Y-64829290D01*
X120557915Y-64775721D01*
X120557919Y-64775721D01*
X120526041Y-64770672D01*
X120386682Y-64748600D01*
X120213318Y-64748600D01*
X120042088Y-64775720D01*
X120042082Y-64775721D01*
X119877213Y-64829290D01*
X119877207Y-64829293D01*
X119722736Y-64908000D01*
X119582483Y-65009900D01*
X119459900Y-65132483D01*
X119358000Y-65272736D01*
X119279293Y-65427207D01*
X119279290Y-65427213D01*
X119225721Y-65592082D01*
X119225720Y-65592087D01*
X119225720Y-65592088D01*
X119198600Y-65763318D01*
X116765000Y-65763318D01*
X116765000Y-65721207D01*
X116731378Y-65465825D01*
X116664710Y-65217016D01*
X116566136Y-64979038D01*
X116566130Y-64979029D01*
X116566129Y-64979025D01*
X116437340Y-64755956D01*
X116280539Y-64551611D01*
X116280537Y-64551609D01*
X116280535Y-64551606D01*
X116280529Y-64551600D01*
X116280520Y-64551590D01*
X116098409Y-64369479D01*
X116098388Y-64369460D01*
X115894043Y-64212659D01*
X115670974Y-64083870D01*
X115670966Y-64083866D01*
X115670962Y-64083864D01*
X115432984Y-63985290D01*
X115184175Y-63918622D01*
X115184173Y-63918621D01*
X115184167Y-63918620D01*
X114928795Y-63885000D01*
X114928793Y-63885000D01*
X114671207Y-63885000D01*
X114671204Y-63885000D01*
X114415832Y-63918620D01*
X114167016Y-63985290D01*
X113929036Y-64083865D01*
X113929025Y-64083870D01*
X113705956Y-64212659D01*
X113501611Y-64369460D01*
X113501590Y-64369479D01*
X113319479Y-64551590D01*
X113319460Y-64551611D01*
X113162659Y-64755956D01*
X113033870Y-64979025D01*
X113033865Y-64979036D01*
X112935290Y-65217016D01*
X112868620Y-65465832D01*
X112835000Y-65721204D01*
X110394730Y-65721204D01*
X110374280Y-65592088D01*
X110320708Y-65427209D01*
X110242002Y-65272740D01*
X110140101Y-65132486D01*
X110140099Y-65132483D01*
X110017516Y-65009900D01*
X109877263Y-64908000D01*
X109877262Y-64907999D01*
X109877260Y-64907998D01*
X109722791Y-64829292D01*
X109722788Y-64829291D01*
X109722786Y-64829290D01*
X109557915Y-64775721D01*
X109557919Y-64775721D01*
X109526041Y-64770672D01*
X109386682Y-64748600D01*
X109213318Y-64748600D01*
X109042088Y-64775720D01*
X109042082Y-64775721D01*
X108877213Y-64829290D01*
X108877207Y-64829293D01*
X108722736Y-64908000D01*
X108582483Y-65009900D01*
X108459900Y-65132483D01*
X108358000Y-65272736D01*
X108279293Y-65427207D01*
X108279290Y-65427213D01*
X108225721Y-65592082D01*
X108225720Y-65592087D01*
X108225720Y-65592088D01*
X108198600Y-65763318D01*
X106925500Y-65763318D01*
X106925500Y-61985263D01*
X118049500Y-61985263D01*
X118049500Y-62214736D01*
X118079450Y-62442231D01*
X118079452Y-62442238D01*
X118138842Y-62663887D01*
X118226656Y-62875888D01*
X118226657Y-62875889D01*
X118226662Y-62875900D01*
X118341386Y-63074608D01*
X118341391Y-63074615D01*
X118481073Y-63256652D01*
X118481092Y-63256673D01*
X118643326Y-63418907D01*
X118643347Y-63418926D01*
X118825384Y-63558608D01*
X118825391Y-63558613D01*
X119024099Y-63673337D01*
X119024103Y-63673338D01*
X119024112Y-63673344D01*
X119236113Y-63761158D01*
X119457762Y-63820548D01*
X119457766Y-63820548D01*
X119457768Y-63820549D01*
X119516398Y-63828267D01*
X119685266Y-63850500D01*
X119685273Y-63850500D01*
X119914727Y-63850500D01*
X119914734Y-63850500D01*
X120120345Y-63823430D01*
X120142231Y-63820549D01*
X120142231Y-63820548D01*
X120142238Y-63820548D01*
X120363887Y-63761158D01*
X120575888Y-63673344D01*
X120774612Y-63558611D01*
X120956661Y-63418919D01*
X121118919Y-63256661D01*
X121258611Y-63074612D01*
X121373344Y-62875888D01*
X121461158Y-62663887D01*
X121520548Y-62442238D01*
X121550500Y-62214734D01*
X121550500Y-61985266D01*
X121520548Y-61757762D01*
X121461158Y-61536113D01*
X121373344Y-61324112D01*
X121373338Y-61324103D01*
X121373337Y-61324099D01*
X121258613Y-61125391D01*
X121258608Y-61125384D01*
X121118926Y-60943347D01*
X121118907Y-60943326D01*
X120956673Y-60781092D01*
X120956652Y-60781073D01*
X120774615Y-60641391D01*
X120774608Y-60641386D01*
X120575900Y-60526662D01*
X120575892Y-60526658D01*
X120575888Y-60526656D01*
X120363887Y-60438842D01*
X120142238Y-60379452D01*
X120142231Y-60379450D01*
X119914736Y-60349500D01*
X119914734Y-60349500D01*
X119685266Y-60349500D01*
X119685263Y-60349500D01*
X119457768Y-60379450D01*
X119236113Y-60438842D01*
X119024110Y-60526657D01*
X119024099Y-60526662D01*
X118825391Y-60641386D01*
X118825384Y-60641391D01*
X118643347Y-60781073D01*
X118643326Y-60781092D01*
X118481092Y-60943326D01*
X118481073Y-60943347D01*
X118341391Y-61125384D01*
X118341386Y-61125391D01*
X118226662Y-61324099D01*
X118226657Y-61324110D01*
X118138842Y-61536113D01*
X118079450Y-61757768D01*
X118049500Y-61985263D01*
X106925500Y-61985263D01*
X106925500Y-60104120D01*
X106925770Y-60095880D01*
X106931088Y-60014736D01*
X106941852Y-59850504D01*
X106944000Y-59834191D01*
X106991170Y-59597050D01*
X106995429Y-59581153D01*
X107073151Y-59352194D01*
X107079445Y-59336999D01*
X107186387Y-59120141D01*
X107194611Y-59105898D01*
X107328942Y-58904857D01*
X107338962Y-58891799D01*
X107498378Y-58710020D01*
X107510020Y-58698378D01*
X107691799Y-58538962D01*
X107704857Y-58528942D01*
X107905898Y-58394611D01*
X107920141Y-58386387D01*
X108136999Y-58279445D01*
X108152194Y-58273151D01*
X108381153Y-58195429D01*
X108397050Y-58191170D01*
X108634191Y-58144000D01*
X108650505Y-58141852D01*
X108869931Y-58127470D01*
X108895882Y-58125770D01*
X108904122Y-58125500D01*
X108908285Y-58125500D01*
X113902285Y-58125500D01*
X113970406Y-58145502D01*
G37*
G04 #@! TD.AperFunction*
M02*
