M48
; DRILL file {KiCad 9.0.2} date 2025-09-19T14:39:02-0400
; FORMAT={-:-/ absolute / metric / decimal}
; #@! TF.CreationDate,2025-09-19T14:39:02-04:00
; #@! TF.GenerationSoftware,Kicad,Pcbnew,9.0.2
; #@! TF.FileFunction,Plated,1,2,PTH
FMAT,2
METRIC
; #@! TA.AperFunction,Plated,PTH,ViaDrill
T1C0.400
; #@! TA.AperFunction,Plated,PTH,ComponentDrill
T2C0.750
; #@! TA.AperFunction,Plated,PTH,ComponentDrill
T3C0.800
; #@! TA.AperFunction,Plated,PTH,ComponentDrill
T4C1.000
; #@! TA.AperFunction,Plated,PTH,ComponentDrill
T5C1.100
; #@! TA.AperFunction,Plated,PTH,ComponentDrill
T6C2.500
%
G90
G05
T1
X112.4Y-141.6
X117.4Y-141.6
X122.4Y-71.6
X122.4Y-136.6
X122.4Y-141.6
X122.65Y-131.35
X124.15Y-116.6
X124.65Y-86.35
X128.15Y-121.85
X132.4Y-76.6
X132.4Y-126.6
X133.9Y-91.35
X134.4Y-106.35
X134.567Y-92.8
X134.945Y-107.701
X135.406Y-82.77
X135.65Y-105.6
X135.9Y-85.35
X137.4Y-76.6
X137.4Y-96.6
X137.4Y-126.6
X139.9Y-101.35
X142.4Y-76.6
X142.4Y-126.6
X143.4Y-97.1
X144.4Y-91.825
X144.589Y-113.386
X144.597Y-119.5
X146.15Y-97.1
X146.9Y-118.6
X148.4Y-112.85
X148.65Y-97.1
X150.9Y-96.35
X150.9Y-112.85
X153.4Y-85.85
X153.9Y-105.6
X154.15Y-118.1
X158.65Y-123.85
X164.9Y-111.6
X165.15Y-79.85
X167.4Y-81.6
X167.4Y-86.6
X167.4Y-91.6
X167.4Y-111.6
X167.4Y-116.6
X167.4Y-121.6
X169.9Y-94.1
X169.9Y-99.1
X169.9Y-104.1
X169.9Y-109.1
T2
X159.9Y-99.6
X161.4Y-84.35
X161.4Y-115.35
T3
X159.9Y-101.6
X159.9Y-103.6
X161.4Y-86.35
X161.4Y-88.35
X161.4Y-117.35
X161.4Y-119.35
T4
X109.774Y-127.786
X109.78Y-75.42
X111.57Y-125.99
X111.576Y-77.216
X113.366Y-124.194
X113.372Y-79.012
X115.162Y-122.398
X115.168Y-80.808
X120.208Y-77.216
X120.208Y-125.984
X122.748Y-77.216
X122.748Y-125.984
X125.288Y-77.216
X125.288Y-125.984
X127.828Y-77.216
X127.828Y-125.984
X130.4Y-81.6
X130.4Y-84.14
X130.4Y-86.68
X130.4Y-116.52
X130.4Y-119.06
X130.4Y-121.6
X132.65Y-97.81
X132.65Y-100.35
X148.148Y-77.216
X148.148Y-125.984
X150.688Y-77.216
X150.688Y-125.984
X153.228Y-77.216
X153.228Y-125.984
X155.768Y-77.216
X155.768Y-125.984
X155.901Y-97.79
X155.901Y-100.33
X155.901Y-102.87
X155.901Y-105.41
X159.9Y-97.6
X159.9Y-105.6
X161.4Y-82.35
X161.4Y-90.35
X161.4Y-113.35
X161.4Y-121.35
T5
X135.72Y-93.96
X135.72Y-109.2
X138.26Y-93.96
X138.26Y-109.2
X140.8Y-93.96
X140.8Y-109.2
X143.34Y-93.96
X143.34Y-109.2
X145.88Y-93.96
X145.88Y-109.2
X148.42Y-93.96
X148.42Y-109.2
X150.96Y-93.96
X150.96Y-109.2
X153.5Y-93.96
X153.5Y-109.2
X156.04Y-93.96
X156.04Y-109.2
X158.58Y-93.96
X158.58Y-109.2
X161.12Y-93.96
X161.12Y-109.2
X163.66Y-93.96
X163.66Y-109.2
T6
X114.64Y-117.02
X114.66Y-86.16
M30
