G04 #@! TF.GenerationSoftware,KiCad,Pcbnew,9.0.2*
G04 #@! TF.CreationDate,2025-09-26T14:41:35-04:00*
G04 #@! TF.ProjectId,Trackball,54726163-6b62-4616-9c6c-2e6b69636164,rev?*
G04 #@! TF.SameCoordinates,Original*
G04 #@! TF.FileFunction,Legend,Bot*
G04 #@! TF.FilePolarity,Positive*
%FSLAX46Y46*%
G04 Gerber Fmt 4.6, Leading zero omitted, Abs format (unit mm)*
G04 Created by KiCad (PCBNEW 9.0.2) date 2025-09-26 14:41:35*
%MOMM*%
%LPD*%
G01*
G04 APERTURE LIST*
%ADD10C,0.300000*%
%ADD11C,0.150000*%
%ADD12C,0.254000*%
%ADD13C,0.120000*%
%ADD14C,0.100000*%
G04 APERTURE END LIST*
D10*
X134896228Y-90769511D02*
X135956888Y-91830171D01*
X135956888Y-91830171D02*
X136360949Y-91426110D01*
X136360949Y-91426110D02*
X136411457Y-91274587D01*
X136411457Y-91274587D02*
X136411457Y-91173572D01*
X136411457Y-91173572D02*
X136360949Y-91022049D01*
X136360949Y-91022049D02*
X136209426Y-90870526D01*
X136209426Y-90870526D02*
X136057904Y-90820018D01*
X136057904Y-90820018D02*
X135956888Y-90820018D01*
X135956888Y-90820018D02*
X135805365Y-90870526D01*
X135805365Y-90870526D02*
X135401304Y-91274587D01*
X135956888Y-89708851D02*
X136663995Y-90415957D01*
X136461965Y-90213927D02*
X136613487Y-90264435D01*
X136613487Y-90264435D02*
X136714503Y-90264435D01*
X136714503Y-90264435D02*
X136866026Y-90213927D01*
X136866026Y-90213927D02*
X136967041Y-90112912D01*
X136765010Y-88900729D02*
X136714502Y-89052252D01*
X136714502Y-89052252D02*
X136714502Y-89153267D01*
X136714502Y-89153267D02*
X136765010Y-89304790D01*
X136765010Y-89304790D02*
X137068056Y-89607836D01*
X137068056Y-89607836D02*
X137219579Y-89658343D01*
X137219579Y-89658343D02*
X137320594Y-89658343D01*
X137320594Y-89658343D02*
X137472117Y-89607836D01*
X137472117Y-89607836D02*
X137623640Y-89456313D01*
X137623640Y-89456313D02*
X137674147Y-89304790D01*
X137674147Y-89304790D02*
X137674147Y-89203775D01*
X137674147Y-89203775D02*
X137623640Y-89052252D01*
X137623640Y-89052252D02*
X137320594Y-88749206D01*
X137320594Y-88749206D02*
X137169071Y-88698698D01*
X137169071Y-88698698D02*
X137068056Y-88698698D01*
X137068056Y-88698698D02*
X136916533Y-88749206D01*
X136916533Y-88749206D02*
X136765010Y-88900729D01*
X137573132Y-88092607D02*
X138633792Y-89153267D01*
X138633792Y-89153267D02*
X138229731Y-88042099D01*
X138229731Y-88042099D02*
X139340899Y-88446160D01*
X139340899Y-88446160D02*
X138280239Y-87385500D01*
X138785315Y-86880424D02*
X139492422Y-87587530D01*
X139845976Y-87941084D02*
X139744960Y-87941084D01*
X139744960Y-87941084D02*
X139744960Y-87840068D01*
X139744960Y-87840068D02*
X139845976Y-87840068D01*
X139845976Y-87840068D02*
X139845976Y-87941084D01*
X139845976Y-87941084D02*
X139744960Y-87840068D01*
X139795468Y-85971286D02*
X139643945Y-86021794D01*
X139643945Y-86021794D02*
X139441915Y-86223824D01*
X139441915Y-86223824D02*
X139391407Y-86375347D01*
X139391407Y-86375347D02*
X139391407Y-86476362D01*
X139391407Y-86476362D02*
X139441915Y-86627885D01*
X139441915Y-86627885D02*
X139744961Y-86930931D01*
X139744961Y-86930931D02*
X139896483Y-86981439D01*
X139896483Y-86981439D02*
X139997499Y-86981439D01*
X139997499Y-86981439D02*
X140149022Y-86930931D01*
X140149022Y-86930931D02*
X140351052Y-86728900D01*
X140351052Y-86728900D02*
X140401560Y-86577378D01*
X140199529Y-85466210D02*
X140906636Y-86173317D01*
X140704605Y-85971286D02*
X140856128Y-86021794D01*
X140856128Y-86021794D02*
X140957143Y-86021794D01*
X140957143Y-86021794D02*
X141108666Y-85971286D01*
X141108666Y-85971286D02*
X141209682Y-85870271D01*
X141007651Y-84658088D02*
X140957143Y-84809611D01*
X140957143Y-84809611D02*
X140957143Y-84910626D01*
X140957143Y-84910626D02*
X141007651Y-85062149D01*
X141007651Y-85062149D02*
X141310696Y-85365195D01*
X141310696Y-85365195D02*
X141462219Y-85415703D01*
X141462219Y-85415703D02*
X141563235Y-85415703D01*
X141563235Y-85415703D02*
X141714757Y-85365195D01*
X141714757Y-85365195D02*
X141866280Y-85213672D01*
X141866280Y-85213672D02*
X141916788Y-85062149D01*
X141916788Y-85062149D02*
X141916788Y-84961134D01*
X141916788Y-84961134D02*
X141866280Y-84809611D01*
X141866280Y-84809611D02*
X141563235Y-84506565D01*
X141563235Y-84506565D02*
X141411712Y-84456058D01*
X141411712Y-84456058D02*
X141310696Y-84456058D01*
X141310696Y-84456058D02*
X141159174Y-84506565D01*
X141159174Y-84506565D02*
X141007651Y-84658088D01*
X135335199Y-86915334D02*
X136395859Y-87975994D01*
X135789768Y-86460765D02*
X136345352Y-87016349D01*
X136345352Y-87016349D02*
X136395859Y-87167872D01*
X136395859Y-87167872D02*
X136345352Y-87319395D01*
X136345352Y-87319395D02*
X136193829Y-87470918D01*
X136193829Y-87470918D02*
X136042306Y-87521425D01*
X136042306Y-87521425D02*
X135941291Y-87521425D01*
X136749413Y-85602135D02*
X136597890Y-85652643D01*
X136597890Y-85652643D02*
X136395859Y-85854674D01*
X136395859Y-85854674D02*
X136345352Y-86006196D01*
X136345352Y-86006196D02*
X136395859Y-86157719D01*
X136395859Y-86157719D02*
X136799920Y-86561780D01*
X136799920Y-86561780D02*
X136951443Y-86612288D01*
X136951443Y-86612288D02*
X137102966Y-86561780D01*
X137102966Y-86561780D02*
X137304997Y-86359750D01*
X137304997Y-86359750D02*
X137355504Y-86208227D01*
X137355504Y-86208227D02*
X137304997Y-86056704D01*
X137304997Y-86056704D02*
X137203981Y-85955689D01*
X137203981Y-85955689D02*
X136597890Y-86359750D01*
X137203981Y-85046552D02*
X137911088Y-85753659D01*
X137709057Y-85551628D02*
X137860580Y-85602136D01*
X137860580Y-85602136D02*
X137961596Y-85602136D01*
X137961596Y-85602136D02*
X138113118Y-85551628D01*
X138113118Y-85551628D02*
X138214134Y-85450613D01*
X138315149Y-84036400D02*
X138163626Y-84086907D01*
X138163626Y-84086907D02*
X137961595Y-84288938D01*
X137961595Y-84288938D02*
X137911088Y-84440461D01*
X137911088Y-84440461D02*
X137961595Y-84591983D01*
X137961595Y-84591983D02*
X138365656Y-84996044D01*
X138365656Y-84996044D02*
X138517179Y-85046552D01*
X138517179Y-85046552D02*
X138668702Y-84996044D01*
X138668702Y-84996044D02*
X138870733Y-84794014D01*
X138870733Y-84794014D02*
X138921240Y-84642491D01*
X138921240Y-84642491D02*
X138870733Y-84490968D01*
X138870733Y-84490968D02*
X138769717Y-84389953D01*
X138769717Y-84389953D02*
X138163626Y-84794014D01*
X133930642Y-86015853D02*
X133577088Y-86369406D01*
X133021504Y-85813822D02*
X134082165Y-86874483D01*
X134082165Y-86874483D02*
X134587241Y-86369406D01*
X134183180Y-85258239D02*
X134688256Y-84753163D01*
X133779119Y-85056208D02*
X135193332Y-85763315D01*
X135193332Y-85763315D02*
X134486225Y-84349101D01*
X135546885Y-83490472D02*
X135445870Y-83490472D01*
X135445870Y-83490472D02*
X135243840Y-83591487D01*
X135243840Y-83591487D02*
X135142824Y-83692503D01*
X135142824Y-83692503D02*
X135041809Y-83894533D01*
X135041809Y-83894533D02*
X135041809Y-84096564D01*
X135041809Y-84096564D02*
X135092317Y-84248086D01*
X135092317Y-84248086D02*
X135243840Y-84500625D01*
X135243840Y-84500625D02*
X135395363Y-84652147D01*
X135395363Y-84652147D02*
X135647901Y-84803670D01*
X135647901Y-84803670D02*
X135799424Y-84854178D01*
X135799424Y-84854178D02*
X136001454Y-84854178D01*
X136001454Y-84854178D02*
X136203485Y-84753163D01*
X136203485Y-84753163D02*
X136304500Y-84652147D01*
X136304500Y-84652147D02*
X136405515Y-84450117D01*
X136405515Y-84450117D02*
X136405515Y-84349102D01*
X136456023Y-83490472D02*
X136809576Y-83136919D01*
X136405515Y-82429812D02*
X135900439Y-82934888D01*
X135900439Y-82934888D02*
X136961099Y-83995548D01*
X136961099Y-83995548D02*
X137466175Y-83490472D01*
X131389662Y-84030459D02*
X132450322Y-85091119D01*
X132450322Y-85091119D02*
X132702861Y-84838581D01*
X132702861Y-84838581D02*
X132803876Y-84636550D01*
X132803876Y-84636550D02*
X132803876Y-84434520D01*
X132803876Y-84434520D02*
X132753368Y-84282997D01*
X132753368Y-84282997D02*
X132601845Y-84030459D01*
X132601845Y-84030459D02*
X132450322Y-83878936D01*
X132450322Y-83878936D02*
X132197784Y-83727413D01*
X132197784Y-83727413D02*
X132046261Y-83676905D01*
X132046261Y-83676905D02*
X131844231Y-83676905D01*
X131844231Y-83676905D02*
X131642200Y-83777921D01*
X131642200Y-83777921D02*
X131389662Y-84030459D01*
X133713013Y-83828428D02*
X133915044Y-83626398D01*
X133915044Y-83626398D02*
X133965551Y-83474875D01*
X133965551Y-83474875D02*
X133965551Y-83272844D01*
X133965551Y-83272844D02*
X133814028Y-83020306D01*
X133814028Y-83020306D02*
X133460475Y-82666753D01*
X133460475Y-82666753D02*
X133207937Y-82515230D01*
X133207937Y-82515230D02*
X133005906Y-82515230D01*
X133005906Y-82515230D02*
X132854383Y-82565737D01*
X132854383Y-82565737D02*
X132652353Y-82767768D01*
X132652353Y-82767768D02*
X132601845Y-82919291D01*
X132601845Y-82919291D02*
X132601845Y-83121321D01*
X132601845Y-83121321D02*
X132753368Y-83373859D01*
X132753368Y-83373859D02*
X133106922Y-83727413D01*
X133106922Y-83727413D02*
X133359460Y-83878936D01*
X133359460Y-83878936D02*
X133561490Y-83878936D01*
X133561490Y-83878936D02*
X133713013Y-83828428D01*
X134521135Y-83020306D02*
X133713013Y-81707107D01*
X133713013Y-81707107D02*
X134672658Y-82262691D01*
X134672658Y-82262691D02*
X134117074Y-81303046D01*
X134117074Y-81303046D02*
X135430273Y-82111169D01*
X134773674Y-80646447D02*
X135834334Y-81707107D01*
X135834334Y-81707107D02*
X135379765Y-80040356D01*
X135379765Y-80040356D02*
X136440426Y-81101016D01*
X161982859Y-86793950D02*
X160922198Y-85733290D01*
X161427275Y-86238367D02*
X160821183Y-86844458D01*
X161376767Y-87400042D02*
X160316107Y-86339382D01*
X160619152Y-87551565D02*
X160114076Y-88056641D01*
X161023213Y-87753596D02*
X159609000Y-87046489D01*
X159609000Y-87046489D02*
X160316107Y-88460702D01*
X159962553Y-88814256D02*
X158901893Y-87753595D01*
X158901893Y-87753595D02*
X159356462Y-89420347D01*
X159356462Y-89420347D02*
X158295802Y-88359687D01*
X158851385Y-89925424D02*
X157790725Y-88864764D01*
X157790725Y-88864764D02*
X157538187Y-89117302D01*
X157538187Y-89117302D02*
X157437172Y-89319332D01*
X157437172Y-89319332D02*
X157437172Y-89521363D01*
X157437172Y-89521363D02*
X157487679Y-89672886D01*
X157487679Y-89672886D02*
X157639202Y-89925424D01*
X157639202Y-89925424D02*
X157790725Y-90076947D01*
X157790725Y-90076947D02*
X158043263Y-90228469D01*
X158043263Y-90228469D02*
X158194786Y-90278977D01*
X158194786Y-90278977D02*
X158396817Y-90278977D01*
X158396817Y-90278977D02*
X158598847Y-90177962D01*
X158598847Y-90177962D02*
X158851385Y-89925424D01*
X165786528Y-86405487D02*
X166291604Y-85900411D01*
X166291604Y-85900411D02*
X165230944Y-84839751D01*
X164877390Y-86203457D02*
X164523837Y-86557010D01*
X164927898Y-87264117D02*
X165432974Y-86759041D01*
X165432974Y-86759041D02*
X164372314Y-85698381D01*
X164372314Y-85698381D02*
X163867238Y-86203457D01*
X163564192Y-87516655D02*
X163917745Y-87163102D01*
X164473329Y-87718686D02*
X163412669Y-86658026D01*
X163412669Y-86658026D02*
X162907593Y-87163102D01*
X162655055Y-87415640D02*
X162048963Y-88021731D01*
X163412669Y-88779346D02*
X162352009Y-87718686D01*
X162352009Y-89031884D02*
X161543887Y-89840006D01*
X160836780Y-91355235D02*
X160685257Y-90496605D01*
X161442872Y-90749143D02*
X160382212Y-89688483D01*
X160382212Y-89688483D02*
X159978151Y-90092544D01*
X159978151Y-90092544D02*
X159927643Y-90244067D01*
X159927643Y-90244067D02*
X159927643Y-90345082D01*
X159927643Y-90345082D02*
X159978151Y-90496605D01*
X159978151Y-90496605D02*
X160129674Y-90648128D01*
X160129674Y-90648128D02*
X160281196Y-90698636D01*
X160281196Y-90698636D02*
X160382212Y-90698636D01*
X160382212Y-90698636D02*
X160533735Y-90648128D01*
X160533735Y-90648128D02*
X160937796Y-90244067D01*
X160382212Y-91809803D02*
X159321551Y-90749143D01*
X158311399Y-91860311D02*
X158361906Y-91708788D01*
X158361906Y-91708788D02*
X158513429Y-91557265D01*
X158513429Y-91557265D02*
X158715460Y-91456250D01*
X158715460Y-91456250D02*
X158917490Y-91456250D01*
X158917490Y-91456250D02*
X159069013Y-91506758D01*
X159069013Y-91506758D02*
X159321551Y-91658281D01*
X159321551Y-91658281D02*
X159473074Y-91809804D01*
X159473074Y-91809804D02*
X159624597Y-92062342D01*
X159624597Y-92062342D02*
X159675105Y-92213865D01*
X159675105Y-92213865D02*
X159675105Y-92415895D01*
X159675105Y-92415895D02*
X159574089Y-92617926D01*
X159574089Y-92617926D02*
X159473074Y-92718941D01*
X159473074Y-92718941D02*
X159271044Y-92819956D01*
X159271044Y-92819956D02*
X159170028Y-92819956D01*
X159170028Y-92819956D02*
X158816475Y-92466403D01*
X158816475Y-92466403D02*
X159018506Y-92264372D01*
X158816475Y-93375540D02*
X157755815Y-92314880D01*
X158260891Y-92819956D02*
X157654800Y-93426048D01*
X158210383Y-93981632D02*
X157149723Y-92920971D01*
X156796170Y-93274525D02*
X156190078Y-93880617D01*
X157553784Y-94638231D02*
X156493124Y-93577571D01*
D11*
X121193262Y-80681385D02*
X121732010Y-80142637D01*
X121193262Y-80142637D02*
X121732010Y-80681385D01*
X122405445Y-79671233D02*
X122472789Y-79536546D01*
X122472789Y-79536546D02*
X122472789Y-79469203D01*
X122472789Y-79469203D02*
X122439117Y-79368187D01*
X122439117Y-79368187D02*
X122338102Y-79267172D01*
X122338102Y-79267172D02*
X122237086Y-79233500D01*
X122237086Y-79233500D02*
X122169743Y-79233500D01*
X122169743Y-79233500D02*
X122068728Y-79267172D01*
X122068728Y-79267172D02*
X121799354Y-79536546D01*
X121799354Y-79536546D02*
X122506460Y-80243653D01*
X122506460Y-80243653D02*
X122742163Y-80007951D01*
X122742163Y-80007951D02*
X122775834Y-79906935D01*
X122775834Y-79906935D02*
X122775834Y-79839592D01*
X122775834Y-79839592D02*
X122742163Y-79738577D01*
X122742163Y-79738577D02*
X122674819Y-79671233D01*
X122674819Y-79671233D02*
X122573804Y-79637561D01*
X122573804Y-79637561D02*
X122506460Y-79637561D01*
X122506460Y-79637561D02*
X122405445Y-79671233D01*
X122405445Y-79671233D02*
X122169743Y-79906935D01*
X122809506Y-78526394D02*
X123179895Y-78896783D01*
X123179895Y-78896783D02*
X123213567Y-78997798D01*
X123213567Y-78997798D02*
X123179895Y-79098813D01*
X123179895Y-79098813D02*
X123045208Y-79233500D01*
X123045208Y-79233500D02*
X122944193Y-79267172D01*
X122843178Y-78560065D02*
X122742163Y-78593737D01*
X122742163Y-78593737D02*
X122573804Y-78762096D01*
X122573804Y-78762096D02*
X122540132Y-78863111D01*
X122540132Y-78863111D02*
X122573804Y-78964126D01*
X122573804Y-78964126D02*
X122641147Y-79031470D01*
X122641147Y-79031470D02*
X122742163Y-79065142D01*
X122742163Y-79065142D02*
X122843178Y-79031470D01*
X122843178Y-79031470D02*
X123011537Y-78863111D01*
X123011537Y-78863111D02*
X123112552Y-78829439D01*
X123516613Y-78762096D02*
X123785987Y-78492722D01*
X123853330Y-78896783D02*
X123247239Y-78290691D01*
X123247239Y-78290691D02*
X123213567Y-78189676D01*
X123213567Y-78189676D02*
X123247239Y-78088661D01*
X123247239Y-78088661D02*
X123314582Y-78021317D01*
X123920674Y-78358034D02*
X124190048Y-78088660D01*
X124257392Y-78492721D02*
X123651300Y-77886630D01*
X123651300Y-77886630D02*
X123617629Y-77785615D01*
X123617629Y-77785615D02*
X123651300Y-77684599D01*
X123651300Y-77684599D02*
X123718644Y-77617256D01*
X124257392Y-77145851D02*
X124156377Y-77179523D01*
X124156377Y-77179523D02*
X124021690Y-77314210D01*
X124021690Y-77314210D02*
X123988018Y-77415225D01*
X123988018Y-77415225D02*
X124021690Y-77516240D01*
X124021690Y-77516240D02*
X124291064Y-77785614D01*
X124291064Y-77785614D02*
X124392079Y-77819286D01*
X124392079Y-77819286D02*
X124493094Y-77785614D01*
X124493094Y-77785614D02*
X124627781Y-77650927D01*
X124627781Y-77650927D02*
X124661453Y-77549912D01*
X124661453Y-77549912D02*
X124627781Y-77448897D01*
X124627781Y-77448897D02*
X124560438Y-77381553D01*
X124560438Y-77381553D02*
X124156377Y-77650927D01*
X124560438Y-76775462D02*
X125031843Y-77246866D01*
X124897155Y-77112179D02*
X124998171Y-77145851D01*
X124998171Y-77145851D02*
X125065514Y-77145851D01*
X125065514Y-77145851D02*
X125166530Y-77112179D01*
X125166530Y-77112179D02*
X125233873Y-77044836D01*
X125402232Y-76876477D02*
X125099186Y-76236713D01*
X125738950Y-76539759D02*
X125099186Y-76236713D01*
X125099186Y-76236713D02*
X124863484Y-76135698D01*
X124863484Y-76135698D02*
X124796141Y-76135698D01*
X124796141Y-76135698D02*
X124695125Y-76169370D01*
X120256891Y-78263457D02*
X120256891Y-78330800D01*
X120256891Y-78330800D02*
X120290563Y-78499159D01*
X120290563Y-78499159D02*
X120324234Y-78600174D01*
X120324234Y-78600174D02*
X120391578Y-78734861D01*
X120391578Y-78734861D02*
X120526265Y-78936892D01*
X120526265Y-78936892D02*
X120660952Y-79071579D01*
X120660952Y-79071579D02*
X120862982Y-79206266D01*
X120862982Y-79206266D02*
X120997669Y-79273609D01*
X120997669Y-79273609D02*
X121098685Y-79307281D01*
X121098685Y-79307281D02*
X121267043Y-79340953D01*
X121267043Y-79340953D02*
X121334387Y-79340953D01*
X121199700Y-77859395D02*
X121300715Y-78431815D01*
X120795639Y-78263457D02*
X121502746Y-78970563D01*
X121502746Y-78970563D02*
X121772120Y-78701189D01*
X121772120Y-78701189D02*
X121805792Y-78600174D01*
X121805792Y-78600174D02*
X121805792Y-78532831D01*
X121805792Y-78532831D02*
X121772120Y-78431815D01*
X121772120Y-78431815D02*
X121671105Y-78330800D01*
X121671105Y-78330800D02*
X121570089Y-78297128D01*
X121570089Y-78297128D02*
X121502746Y-78297128D01*
X121502746Y-78297128D02*
X121401731Y-78330800D01*
X121401731Y-78330800D02*
X121132357Y-78600174D01*
X121805792Y-77320647D02*
X121704776Y-77354319D01*
X121704776Y-77354319D02*
X121570089Y-77489006D01*
X121570089Y-77489006D02*
X121536418Y-77590021D01*
X121536418Y-77590021D02*
X121570089Y-77691037D01*
X121570089Y-77691037D02*
X121839463Y-77960411D01*
X121839463Y-77960411D02*
X121940479Y-77994082D01*
X121940479Y-77994082D02*
X122041494Y-77960411D01*
X122041494Y-77960411D02*
X122176181Y-77825724D01*
X122176181Y-77825724D02*
X122209853Y-77724708D01*
X122209853Y-77724708D02*
X122176181Y-77623693D01*
X122176181Y-77623693D02*
X122108837Y-77556350D01*
X122108837Y-77556350D02*
X121704776Y-77825724D01*
X122411883Y-76647212D02*
X123118990Y-77354319D01*
X122445555Y-76680884D02*
X122344540Y-76714556D01*
X122344540Y-76714556D02*
X122209853Y-76849243D01*
X122209853Y-76849243D02*
X122176181Y-76950258D01*
X122176181Y-76950258D02*
X122176181Y-77017602D01*
X122176181Y-77017602D02*
X122209853Y-77118617D01*
X122209853Y-77118617D02*
X122411883Y-77320647D01*
X122411883Y-77320647D02*
X122512899Y-77354319D01*
X122512899Y-77354319D02*
X122580242Y-77354319D01*
X122580242Y-77354319D02*
X122681257Y-77320647D01*
X122681257Y-77320647D02*
X122815944Y-77185960D01*
X122815944Y-77185960D02*
X122849616Y-77084945D01*
X122411883Y-76108464D02*
X122479227Y-76108464D01*
X122479227Y-76108464D02*
X122647586Y-76142136D01*
X122647586Y-76142136D02*
X122748601Y-76175808D01*
X122748601Y-76175808D02*
X122883288Y-76243151D01*
X122883288Y-76243151D02*
X123085318Y-76377838D01*
X123085318Y-76377838D02*
X123220005Y-76512525D01*
X123220005Y-76512525D02*
X123354692Y-76714556D01*
X123354692Y-76714556D02*
X123422036Y-76849243D01*
X123422036Y-76849243D02*
X123455708Y-76950258D01*
X123455708Y-76950258D02*
X123489379Y-77118617D01*
X123489379Y-77118617D02*
X123489379Y-77185960D01*
D10*
X116090439Y-100152797D02*
X116949069Y-100001274D01*
X116696531Y-100758889D02*
X117757191Y-99698228D01*
X117757191Y-99698228D02*
X117353130Y-99294167D01*
X117353130Y-99294167D02*
X117201607Y-99243660D01*
X117201607Y-99243660D02*
X117100592Y-99243660D01*
X117100592Y-99243660D02*
X116949069Y-99294167D01*
X116949069Y-99294167D02*
X116797546Y-99445690D01*
X116797546Y-99445690D02*
X116747038Y-99597213D01*
X116747038Y-99597213D02*
X116747038Y-99698228D01*
X116747038Y-99698228D02*
X116797546Y-99849751D01*
X116797546Y-99849751D02*
X117201607Y-100253812D01*
X116191454Y-99142645D02*
X115837901Y-98789091D01*
X115130794Y-99193152D02*
X115635870Y-99698228D01*
X115635870Y-99698228D02*
X116696531Y-98637568D01*
X116696531Y-98637568D02*
X116191454Y-98132492D01*
X114777241Y-98738583D02*
X114575210Y-98637568D01*
X114575210Y-98637568D02*
X114322672Y-98385030D01*
X114322672Y-98385030D02*
X114272164Y-98233507D01*
X114272164Y-98233507D02*
X114272164Y-98132492D01*
X114272164Y-98132492D02*
X114322672Y-97980969D01*
X114322672Y-97980969D02*
X114423687Y-97879954D01*
X114423687Y-97879954D02*
X114575210Y-97829446D01*
X114575210Y-97829446D02*
X114676225Y-97829446D01*
X114676225Y-97829446D02*
X114827748Y-97879954D01*
X114827748Y-97879954D02*
X115080286Y-98031477D01*
X115080286Y-98031477D02*
X115231809Y-98081984D01*
X115231809Y-98081984D02*
X115332825Y-98081984D01*
X115332825Y-98081984D02*
X115484347Y-98031477D01*
X115484347Y-98031477D02*
X115585363Y-97930461D01*
X115585363Y-97930461D02*
X115635870Y-97778939D01*
X115635870Y-97778939D02*
X115635870Y-97677923D01*
X115635870Y-97677923D02*
X115585363Y-97526400D01*
X115585363Y-97526400D02*
X115332825Y-97273862D01*
X115332825Y-97273862D02*
X115130794Y-97172847D01*
X114221657Y-97172847D02*
X113868104Y-96819294D01*
X113160997Y-97223355D02*
X113666073Y-97728431D01*
X113666073Y-97728431D02*
X114726733Y-96667771D01*
X114726733Y-96667771D02*
X114221657Y-96162695D01*
X113918611Y-95859649D02*
X113312520Y-95253557D01*
X112554905Y-96617263D02*
X113615565Y-95556603D01*
D11*
X136629957Y-58159145D02*
X136495270Y-58091801D01*
X136495270Y-58091801D02*
X136326911Y-57923443D01*
X136326911Y-57923443D02*
X136293239Y-57822427D01*
X136293239Y-57822427D02*
X136293239Y-57755084D01*
X136293239Y-57755084D02*
X136326911Y-57654069D01*
X136326911Y-57654069D02*
X136394255Y-57586725D01*
X136394255Y-57586725D02*
X136495270Y-57553053D01*
X136495270Y-57553053D02*
X136562613Y-57553053D01*
X136562613Y-57553053D02*
X136663629Y-57586725D01*
X136663629Y-57586725D02*
X136831987Y-57687740D01*
X136831987Y-57687740D02*
X136933003Y-57721412D01*
X136933003Y-57721412D02*
X137000346Y-57721412D01*
X137000346Y-57721412D02*
X137101361Y-57687740D01*
X137101361Y-57687740D02*
X137168705Y-57620397D01*
X137168705Y-57620397D02*
X137202377Y-57519382D01*
X137202377Y-57519382D02*
X137202377Y-57452038D01*
X137202377Y-57452038D02*
X137168705Y-57351023D01*
X137168705Y-57351023D02*
X137000346Y-57182664D01*
X137000346Y-57182664D02*
X136865659Y-57115320D01*
X135552461Y-57014305D02*
X135552461Y-57081649D01*
X135552461Y-57081649D02*
X135619804Y-57216336D01*
X135619804Y-57216336D02*
X135687148Y-57283679D01*
X135687148Y-57283679D02*
X135821835Y-57351023D01*
X135821835Y-57351023D02*
X135956522Y-57351023D01*
X135956522Y-57351023D02*
X136057537Y-57317351D01*
X136057537Y-57317351D02*
X136225896Y-57216336D01*
X136225896Y-57216336D02*
X136326911Y-57115320D01*
X136326911Y-57115320D02*
X136427926Y-56946962D01*
X136427926Y-56946962D02*
X136461598Y-56845946D01*
X136461598Y-56845946D02*
X136461598Y-56711259D01*
X136461598Y-56711259D02*
X136394255Y-56576572D01*
X136394255Y-56576572D02*
X136326911Y-56509229D01*
X136326911Y-56509229D02*
X136192224Y-56441885D01*
X136192224Y-56441885D02*
X136124881Y-56441885D01*
X134845354Y-56441885D02*
X135182072Y-56778603D01*
X135182072Y-56778603D02*
X135889178Y-56071496D01*
X134609652Y-56206183D02*
X135316758Y-55499076D01*
X134205591Y-55802122D02*
X134912697Y-55701107D01*
X134912697Y-55095015D02*
X134912697Y-55903137D01*
D10*
X142764706Y-105810072D02*
X142865722Y-105810072D01*
X142865722Y-105810072D02*
X143067752Y-105709057D01*
X143067752Y-105709057D02*
X143168767Y-105608042D01*
X143168767Y-105608042D02*
X143269783Y-105406011D01*
X143269783Y-105406011D02*
X143269783Y-105203981D01*
X143269783Y-105203981D02*
X143219275Y-105052458D01*
X143219275Y-105052458D02*
X143067752Y-104799920D01*
X143067752Y-104799920D02*
X142916229Y-104648397D01*
X142916229Y-104648397D02*
X142663691Y-104496874D01*
X142663691Y-104496874D02*
X142512168Y-104446366D01*
X142512168Y-104446366D02*
X142310138Y-104446366D01*
X142310138Y-104446366D02*
X142108107Y-104547382D01*
X142108107Y-104547382D02*
X142007092Y-104648397D01*
X142007092Y-104648397D02*
X141906077Y-104850427D01*
X141906077Y-104850427D02*
X141906077Y-104951443D01*
X141148462Y-105507026D02*
X140946432Y-105709057D01*
X140946432Y-105709057D02*
X140895924Y-105860580D01*
X140895924Y-105860580D02*
X140895924Y-106062610D01*
X140895924Y-106062610D02*
X141047447Y-106315148D01*
X141047447Y-106315148D02*
X141401000Y-106668702D01*
X141401000Y-106668702D02*
X141653539Y-106820225D01*
X141653539Y-106820225D02*
X141855569Y-106820225D01*
X141855569Y-106820225D02*
X142007092Y-106769717D01*
X142007092Y-106769717D02*
X142209122Y-106567687D01*
X142209122Y-106567687D02*
X142259630Y-106416164D01*
X142259630Y-106416164D02*
X142259630Y-106214133D01*
X142259630Y-106214133D02*
X142108107Y-105961595D01*
X142108107Y-105961595D02*
X141754554Y-105608042D01*
X141754554Y-105608042D02*
X141502016Y-105456519D01*
X141502016Y-105456519D02*
X141299985Y-105456519D01*
X141299985Y-105456519D02*
X141148462Y-105507026D01*
X141299985Y-107476824D02*
X140239325Y-106416164D01*
X140239325Y-106416164D02*
X140693893Y-108082916D01*
X140693893Y-108082916D02*
X139633233Y-107022256D01*
X139279679Y-107375809D02*
X138673588Y-107981901D01*
X140037294Y-108739515D02*
X138976634Y-107678855D01*
X138774603Y-110002206D02*
X138623080Y-109143576D01*
X139380695Y-109396114D02*
X138320035Y-108335454D01*
X138320035Y-108335454D02*
X137915974Y-108739515D01*
X137915974Y-108739515D02*
X137865466Y-108891038D01*
X137865466Y-108891038D02*
X137865466Y-108992053D01*
X137865466Y-108992053D02*
X137915974Y-109143576D01*
X137915974Y-109143576D02*
X138067497Y-109295099D01*
X138067497Y-109295099D02*
X138219019Y-109345607D01*
X138219019Y-109345607D02*
X138320035Y-109345607D01*
X138320035Y-109345607D02*
X138471558Y-109295099D01*
X138471558Y-109295099D02*
X138875619Y-108891038D01*
X137057344Y-109598145D02*
X136855313Y-109800175D01*
X136855313Y-109800175D02*
X136804806Y-109951698D01*
X136804806Y-109951698D02*
X136804806Y-110153729D01*
X136804806Y-110153729D02*
X136956329Y-110406267D01*
X136956329Y-110406267D02*
X137309882Y-110759820D01*
X137309882Y-110759820D02*
X137562420Y-110911343D01*
X137562420Y-110911343D02*
X137764451Y-110911343D01*
X137764451Y-110911343D02*
X137915974Y-110860835D01*
X137915974Y-110860835D02*
X138118004Y-110658805D01*
X138118004Y-110658805D02*
X138168512Y-110507282D01*
X138168512Y-110507282D02*
X138168512Y-110305252D01*
X138168512Y-110305252D02*
X138016989Y-110052713D01*
X138016989Y-110052713D02*
X137663435Y-109699160D01*
X137663435Y-109699160D02*
X137410897Y-109547637D01*
X137410897Y-109547637D02*
X137208867Y-109547637D01*
X137208867Y-109547637D02*
X137057344Y-109598145D01*
X136703790Y-112073019D02*
X137208867Y-111567943D01*
X137208867Y-111567943D02*
X136148206Y-110507282D01*
X146820914Y-103249781D02*
X146214823Y-103855872D01*
X147578529Y-104613487D02*
X146517868Y-103552826D01*
X146921929Y-105270086D02*
X145861269Y-104209425D01*
X146366346Y-104714502D02*
X145760254Y-105320593D01*
X146315838Y-105876177D02*
X145255178Y-104815517D01*
X144750101Y-105320594D02*
X145608731Y-106179223D01*
X145608731Y-106179223D02*
X145659238Y-106330746D01*
X145659238Y-106330746D02*
X145659238Y-106431761D01*
X145659238Y-106431761D02*
X145608731Y-106583284D01*
X145608731Y-106583284D02*
X145406700Y-106785315D01*
X145406700Y-106785315D02*
X145255177Y-106835822D01*
X145255177Y-106835822D02*
X145154162Y-106835822D01*
X145154162Y-106835822D02*
X145002639Y-106785315D01*
X145002639Y-106785315D02*
X144144010Y-105926685D01*
X144699593Y-107492422D02*
X143638933Y-106431762D01*
X143638933Y-106431762D02*
X144042994Y-107542929D01*
X144042994Y-107542929D02*
X142931826Y-107138868D01*
X142931826Y-107138868D02*
X143992486Y-108199529D01*
X142578273Y-108502575D02*
X142477257Y-108704605D01*
X142477257Y-108704605D02*
X142477257Y-108805620D01*
X142477257Y-108805620D02*
X142527765Y-108957143D01*
X142527765Y-108957143D02*
X142679288Y-109108666D01*
X142679288Y-109108666D02*
X142830811Y-109159174D01*
X142830811Y-109159174D02*
X142931826Y-109159174D01*
X142931826Y-109159174D02*
X143083349Y-109108666D01*
X143083349Y-109108666D02*
X143487410Y-108704605D01*
X143487410Y-108704605D02*
X142426750Y-107643945D01*
X142426750Y-107643945D02*
X142073196Y-107997498D01*
X142073196Y-107997498D02*
X142022689Y-108149021D01*
X142022689Y-108149021D02*
X142022689Y-108250036D01*
X142022689Y-108250036D02*
X142073196Y-108401559D01*
X142073196Y-108401559D02*
X142174212Y-108502575D01*
X142174212Y-108502575D02*
X142325735Y-108553082D01*
X142325735Y-108553082D02*
X142426750Y-108553082D01*
X142426750Y-108553082D02*
X142578273Y-108502575D01*
X142578273Y-108502575D02*
X142931826Y-108149021D01*
X142022689Y-109361204D02*
X141214567Y-110169326D01*
X140204414Y-110876433D02*
X140557968Y-110522880D01*
X141113551Y-111078464D02*
X140052891Y-110017803D01*
X140052891Y-110017803D02*
X139547815Y-110522880D01*
X140204414Y-111987601D02*
X139143754Y-110926941D01*
X139699338Y-112492677D02*
X138638678Y-111432017D01*
X138638678Y-111432017D02*
X139093246Y-113098769D01*
X139093246Y-113098769D02*
X138032586Y-112038109D01*
X137022433Y-113149277D02*
X137072941Y-112997754D01*
X137072941Y-112997754D02*
X137224464Y-112846231D01*
X137224464Y-112846231D02*
X137426494Y-112745216D01*
X137426494Y-112745216D02*
X137628525Y-112745216D01*
X137628525Y-112745216D02*
X137780048Y-112795723D01*
X137780048Y-112795723D02*
X138032586Y-112947246D01*
X138032586Y-112947246D02*
X138184109Y-113098769D01*
X138184109Y-113098769D02*
X138335632Y-113351307D01*
X138335632Y-113351307D02*
X138386139Y-113502830D01*
X138386139Y-113502830D02*
X138386139Y-113704861D01*
X138386139Y-113704861D02*
X138285124Y-113906891D01*
X138285124Y-113906891D02*
X138184109Y-114007906D01*
X138184109Y-114007906D02*
X137982078Y-114108922D01*
X137982078Y-114108922D02*
X137881063Y-114108922D01*
X137881063Y-114108922D02*
X137527510Y-113755368D01*
X137527510Y-113755368D02*
X137729540Y-113553338D01*
X136971926Y-114108922D02*
X136618372Y-114462475D01*
X137022433Y-115169582D02*
X137527510Y-114664505D01*
X137527510Y-114664505D02*
X136466849Y-113603845D01*
X136466849Y-113603845D02*
X135961773Y-114108922D01*
X135961773Y-116230242D02*
X135810250Y-115371612D01*
X136567865Y-115624150D02*
X135507204Y-114563490D01*
X135507204Y-114563490D02*
X135103143Y-114967551D01*
X135103143Y-114967551D02*
X135052636Y-115119074D01*
X135052636Y-115119074D02*
X135052636Y-115220089D01*
X135052636Y-115220089D02*
X135103143Y-115371612D01*
X135103143Y-115371612D02*
X135254666Y-115523135D01*
X135254666Y-115523135D02*
X135406189Y-115573643D01*
X135406189Y-115573643D02*
X135507204Y-115573643D01*
X135507204Y-115573643D02*
X135658727Y-115523135D01*
X135658727Y-115523135D02*
X136062788Y-115119074D01*
D11*
X108298545Y-85258170D02*
X108399560Y-85291842D01*
X108399560Y-85291842D02*
X108500576Y-85392857D01*
X108500576Y-85392857D02*
X108567919Y-85527544D01*
X108567919Y-85527544D02*
X108567919Y-85662232D01*
X108567919Y-85662232D02*
X108534247Y-85763247D01*
X108534247Y-85763247D02*
X108433232Y-85931606D01*
X108433232Y-85931606D02*
X108332217Y-86032621D01*
X108332217Y-86032621D02*
X108163858Y-86133636D01*
X108163858Y-86133636D02*
X108062843Y-86167308D01*
X108062843Y-86167308D02*
X107928156Y-86167308D01*
X107928156Y-86167308D02*
X107793469Y-86099964D01*
X107793469Y-86099964D02*
X107726125Y-86032621D01*
X107726125Y-86032621D02*
X107658782Y-85897934D01*
X107658782Y-85897934D02*
X107658782Y-85830590D01*
X107658782Y-85830590D02*
X107894484Y-85594888D01*
X107894484Y-85594888D02*
X108029171Y-85729575D01*
X107288393Y-85594888D02*
X107995499Y-84887781D01*
X107995499Y-84887781D02*
X106884332Y-85190827D01*
X106884332Y-85190827D02*
X107591438Y-84483720D01*
X106547614Y-84854110D02*
X107254721Y-84147003D01*
X107254721Y-84147003D02*
X107086362Y-83978644D01*
X107086362Y-83978644D02*
X106951675Y-83911300D01*
X106951675Y-83911300D02*
X106816988Y-83911300D01*
X106816988Y-83911300D02*
X106715973Y-83944972D01*
X106715973Y-83944972D02*
X106547614Y-84045987D01*
X106547614Y-84045987D02*
X106446599Y-84147003D01*
X106446599Y-84147003D02*
X106345584Y-84315361D01*
X106345584Y-84315361D02*
X106311912Y-84416377D01*
X106311912Y-84416377D02*
X106311912Y-84551064D01*
X106311912Y-84551064D02*
X106379255Y-84685751D01*
X106379255Y-84685751D02*
X106547614Y-84854110D01*
D10*
X135208022Y-113733854D02*
X134500915Y-113026747D01*
X134500915Y-113026747D02*
X134147362Y-114794514D01*
X134147362Y-114794514D02*
X133440255Y-114087407D01*
X133036194Y-113683346D02*
X134096855Y-112622686D01*
X134096855Y-112622686D02*
X132985687Y-113026747D01*
X132985687Y-113026747D02*
X133389748Y-111915579D01*
X133389748Y-111915579D02*
X132329088Y-112976240D01*
X131824011Y-112471163D02*
X132884671Y-111410503D01*
X131217920Y-111865072D02*
X132278580Y-111713549D01*
X132278580Y-110804411D02*
X132278580Y-112016595D01*
X130864366Y-111309488D02*
X130763351Y-111309488D01*
X130763351Y-111309488D02*
X130763351Y-111410503D01*
X130763351Y-111410503D02*
X130864366Y-111410503D01*
X130864366Y-111410503D02*
X130864366Y-111309488D01*
X130864366Y-111309488D02*
X130763351Y-111410503D01*
X130359290Y-110905427D02*
X130157259Y-110804411D01*
X130157259Y-110804411D02*
X129904721Y-110551873D01*
X129904721Y-110551873D02*
X129854213Y-110400350D01*
X129854213Y-110400350D02*
X129854213Y-110299335D01*
X129854213Y-110299335D02*
X129904721Y-110147812D01*
X129904721Y-110147812D02*
X130005736Y-110046797D01*
X130005736Y-110046797D02*
X130157259Y-109996289D01*
X130157259Y-109996289D02*
X130258274Y-109996289D01*
X130258274Y-109996289D02*
X130409797Y-110046797D01*
X130409797Y-110046797D02*
X130662335Y-110198320D01*
X130662335Y-110198320D02*
X130813858Y-110248827D01*
X130813858Y-110248827D02*
X130914874Y-110248827D01*
X130914874Y-110248827D02*
X131066396Y-110198320D01*
X131066396Y-110198320D02*
X131167412Y-110097304D01*
X131167412Y-110097304D02*
X131217919Y-109945782D01*
X131217919Y-109945782D02*
X131217919Y-109844766D01*
X131217919Y-109844766D02*
X131167412Y-109693243D01*
X131167412Y-109693243D02*
X130914874Y-109440705D01*
X130914874Y-109440705D02*
X130712843Y-109339690D01*
X130460305Y-108986137D02*
X129854214Y-108380045D01*
X129096599Y-109743751D02*
X130157259Y-108683091D01*
X129500660Y-108026492D02*
X128642031Y-108885122D01*
X128642031Y-108885122D02*
X128490508Y-108935629D01*
X128490508Y-108935629D02*
X128389493Y-108935629D01*
X128389493Y-108935629D02*
X128237970Y-108885122D01*
X128237970Y-108885122D02*
X128035939Y-108683091D01*
X128035939Y-108683091D02*
X127985432Y-108531568D01*
X127985432Y-108531568D02*
X127985432Y-108430553D01*
X127985432Y-108430553D02*
X128035939Y-108279030D01*
X128035939Y-108279030D02*
X128894569Y-107420401D01*
X127328832Y-107975984D02*
X128389492Y-106915324D01*
X128389492Y-106915324D02*
X128136954Y-106662786D01*
X128136954Y-106662786D02*
X127934924Y-106561771D01*
X127934924Y-106561771D02*
X127732893Y-106561771D01*
X127732893Y-106561771D02*
X127581370Y-106612278D01*
X127581370Y-106612278D02*
X127328832Y-106763801D01*
X127328832Y-106763801D02*
X127177309Y-106915324D01*
X127177309Y-106915324D02*
X127025786Y-107167862D01*
X127025786Y-107167862D02*
X126975279Y-107319385D01*
X126975279Y-107319385D02*
X126975279Y-107521416D01*
X126975279Y-107521416D02*
X127076294Y-107723446D01*
X127076294Y-107723446D02*
X127328832Y-107975984D01*
X126268172Y-106915324D02*
X127328832Y-105854664D01*
X126621725Y-105147557D02*
X126419695Y-104945526D01*
X126419695Y-104945526D02*
X126268172Y-104895019D01*
X126268172Y-104895019D02*
X126066141Y-104895019D01*
X126066141Y-104895019D02*
X125813603Y-105046542D01*
X125813603Y-105046542D02*
X125460050Y-105400095D01*
X125460050Y-105400095D02*
X125308527Y-105652633D01*
X125308527Y-105652633D02*
X125308527Y-105854664D01*
X125308527Y-105854664D02*
X125359034Y-106006187D01*
X125359034Y-106006187D02*
X125561065Y-106208217D01*
X125561065Y-106208217D02*
X125712588Y-106258725D01*
X125712588Y-106258725D02*
X125914618Y-106258725D01*
X125914618Y-106258725D02*
X126167157Y-106107202D01*
X126167157Y-106107202D02*
X126520710Y-105753648D01*
X126520710Y-105753648D02*
X126672233Y-105501110D01*
X126672233Y-105501110D02*
X126672233Y-105299080D01*
X126672233Y-105299080D02*
X126621725Y-105147557D01*
X133399404Y-115340441D02*
X132540774Y-116199071D01*
X132540774Y-116199071D02*
X132389251Y-116249579D01*
X132389251Y-116249579D02*
X132288236Y-116249579D01*
X132288236Y-116249579D02*
X132136713Y-116199071D01*
X132136713Y-116199071D02*
X131934683Y-115997041D01*
X131934683Y-115997041D02*
X131884175Y-115845518D01*
X131884175Y-115845518D02*
X131884175Y-115744502D01*
X131884175Y-115744502D02*
X131934683Y-115592980D01*
X131934683Y-115592980D02*
X132793312Y-114734350D01*
X131227575Y-115289934D02*
X132288236Y-114229273D01*
X132288236Y-114229273D02*
X130621484Y-114683842D01*
X130621484Y-114683842D02*
X131682144Y-113623182D01*
X129611331Y-113673689D02*
X130116407Y-114178765D01*
X130116407Y-114178765D02*
X131177068Y-113118105D01*
X130116407Y-112057445D02*
X129914377Y-111855414D01*
X129914377Y-111855414D02*
X129762854Y-111804907D01*
X129762854Y-111804907D02*
X129560823Y-111804907D01*
X129560823Y-111804907D02*
X129308285Y-111956430D01*
X129308285Y-111956430D02*
X128954732Y-112309983D01*
X128954732Y-112309983D02*
X128803209Y-112562521D01*
X128803209Y-112562521D02*
X128803209Y-112764552D01*
X128803209Y-112764552D02*
X128853716Y-112916075D01*
X128853716Y-112916075D02*
X129055747Y-113118105D01*
X129055747Y-113118105D02*
X129207270Y-113168613D01*
X129207270Y-113168613D02*
X129409300Y-113168613D01*
X129409300Y-113168613D02*
X129661839Y-113017090D01*
X129661839Y-113017090D02*
X130015392Y-112663536D01*
X130015392Y-112663536D02*
X130166915Y-112410998D01*
X130166915Y-112410998D02*
X130166915Y-112208968D01*
X130166915Y-112208968D02*
X130116407Y-112057445D01*
X127641533Y-111501861D02*
X127641533Y-111602876D01*
X127641533Y-111602876D02*
X127742548Y-111804906D01*
X127742548Y-111804906D02*
X127843564Y-111905922D01*
X127843564Y-111905922D02*
X128045594Y-112006937D01*
X128045594Y-112006937D02*
X128247625Y-112006937D01*
X128247625Y-112006937D02*
X128399148Y-111956429D01*
X128399148Y-111956429D02*
X128651686Y-111804906D01*
X128651686Y-111804906D02*
X128803209Y-111653384D01*
X128803209Y-111653384D02*
X128954731Y-111400845D01*
X128954731Y-111400845D02*
X129005239Y-111249323D01*
X129005239Y-111249323D02*
X129005239Y-111047292D01*
X129005239Y-111047292D02*
X128904224Y-110845262D01*
X128904224Y-110845262D02*
X128803209Y-110744246D01*
X128803209Y-110744246D02*
X128601178Y-110643231D01*
X128601178Y-110643231D02*
X128500163Y-110643231D01*
X127085949Y-111148307D02*
X128146609Y-110087647D01*
X126479858Y-110542216D02*
X127540518Y-110390693D01*
X127540518Y-109481556D02*
X127540518Y-110693739D01*
X133715319Y-102357212D02*
X133008212Y-103064319D01*
X134169887Y-102811781D02*
X133614303Y-103367365D01*
X133614303Y-103367365D02*
X133462781Y-103417872D01*
X133462781Y-103417872D02*
X133311258Y-103367365D01*
X133311258Y-103367365D02*
X133159735Y-103215842D01*
X133159735Y-103215842D02*
X133109227Y-103064319D01*
X133109227Y-103064319D02*
X133109227Y-102963304D01*
X132856689Y-100690460D02*
X132402120Y-102963304D01*
X130937399Y-100993506D02*
X131492983Y-100437922D01*
X131492983Y-100437922D02*
X131644506Y-100387414D01*
X131644506Y-100387414D02*
X131796028Y-100437922D01*
X131796028Y-100437922D02*
X131998059Y-100639952D01*
X131998059Y-100639952D02*
X132048567Y-100791475D01*
X130987906Y-100942998D02*
X131038414Y-101094521D01*
X131038414Y-101094521D02*
X131290952Y-101347059D01*
X131290952Y-101347059D02*
X131442475Y-101397567D01*
X131442475Y-101397567D02*
X131593998Y-101347059D01*
X131593998Y-101347059D02*
X131695013Y-101246044D01*
X131695013Y-101246044D02*
X131745521Y-101094521D01*
X131745521Y-101094521D02*
X131695013Y-100942998D01*
X131695013Y-100942998D02*
X131442475Y-100690460D01*
X131442475Y-100690460D02*
X131391967Y-100538937D01*
X130432322Y-100488430D02*
X131492983Y-99427769D01*
X130735368Y-99983353D02*
X130028261Y-100084368D01*
X130735368Y-99377262D02*
X130735368Y-100185384D01*
X130179784Y-98114571D02*
X130381815Y-98316601D01*
X130381815Y-98316601D02*
X130432322Y-98468124D01*
X130432322Y-98468124D02*
X130432322Y-98569139D01*
X130432322Y-98569139D02*
X130381815Y-98821678D01*
X130381815Y-98821678D02*
X130230292Y-99074216D01*
X130230292Y-99074216D02*
X129826231Y-99478277D01*
X129826231Y-99478277D02*
X129674708Y-99528784D01*
X129674708Y-99528784D02*
X129573693Y-99528784D01*
X129573693Y-99528784D02*
X129422170Y-99478277D01*
X129422170Y-99478277D02*
X129220139Y-99276246D01*
X129220139Y-99276246D02*
X129169632Y-99124723D01*
X129169632Y-99124723D02*
X129169632Y-99023708D01*
X129169632Y-99023708D02*
X129220139Y-98872185D01*
X129220139Y-98872185D02*
X129472677Y-98619647D01*
X129472677Y-98619647D02*
X129624200Y-98569139D01*
X129624200Y-98569139D02*
X129725215Y-98569139D01*
X129725215Y-98569139D02*
X129876738Y-98619647D01*
X129876738Y-98619647D02*
X130078769Y-98821678D01*
X130078769Y-98821678D02*
X130129276Y-98973200D01*
X130129276Y-98973200D02*
X130129276Y-99074216D01*
X130129276Y-99074216D02*
X130078769Y-99225739D01*
X129169632Y-97104419D02*
X129371662Y-97306449D01*
X129371662Y-97306449D02*
X129422170Y-97457972D01*
X129422170Y-97457972D02*
X129422170Y-97558987D01*
X129422170Y-97558987D02*
X129371662Y-97811525D01*
X129371662Y-97811525D02*
X129220139Y-98064064D01*
X129220139Y-98064064D02*
X128816078Y-98468125D01*
X128816078Y-98468125D02*
X128664556Y-98518632D01*
X128664556Y-98518632D02*
X128563540Y-98518632D01*
X128563540Y-98518632D02*
X128412017Y-98468125D01*
X128412017Y-98468125D02*
X128209987Y-98266094D01*
X128209987Y-98266094D02*
X128159479Y-98114571D01*
X128159479Y-98114571D02*
X128159479Y-98013556D01*
X128159479Y-98013556D02*
X128209987Y-97862033D01*
X128209987Y-97862033D02*
X128462525Y-97609495D01*
X128462525Y-97609495D02*
X128614048Y-97558987D01*
X128614048Y-97558987D02*
X128715063Y-97558987D01*
X128715063Y-97558987D02*
X128866586Y-97609495D01*
X128866586Y-97609495D02*
X129068617Y-97811525D01*
X129068617Y-97811525D02*
X129119124Y-97963048D01*
X129119124Y-97963048D02*
X129119124Y-98064064D01*
X129119124Y-98064064D02*
X129068617Y-98215586D01*
X128159480Y-96094266D02*
X128361510Y-96296297D01*
X128361510Y-96296297D02*
X128412018Y-96447820D01*
X128412018Y-96447820D02*
X128412018Y-96548835D01*
X128412018Y-96548835D02*
X128361510Y-96801373D01*
X128361510Y-96801373D02*
X128209987Y-97053911D01*
X128209987Y-97053911D02*
X127805926Y-97457972D01*
X127805926Y-97457972D02*
X127654403Y-97508480D01*
X127654403Y-97508480D02*
X127553388Y-97508480D01*
X127553388Y-97508480D02*
X127401865Y-97457972D01*
X127401865Y-97457972D02*
X127199835Y-97255942D01*
X127199835Y-97255942D02*
X127149327Y-97104419D01*
X127149327Y-97104419D02*
X127149327Y-97003404D01*
X127149327Y-97003404D02*
X127199835Y-96851881D01*
X127199835Y-96851881D02*
X127452373Y-96599343D01*
X127452373Y-96599343D02*
X127603896Y-96548835D01*
X127603896Y-96548835D02*
X127704911Y-96548835D01*
X127704911Y-96548835D02*
X127856434Y-96599343D01*
X127856434Y-96599343D02*
X128058464Y-96801373D01*
X128058464Y-96801373D02*
X128108972Y-96952896D01*
X128108972Y-96952896D02*
X128108972Y-97053911D01*
X128108972Y-97053911D02*
X128058464Y-97205434D01*
X127149327Y-95084114D02*
X127351358Y-95286145D01*
X127351358Y-95286145D02*
X127401866Y-95437667D01*
X127401866Y-95437667D02*
X127401866Y-95538683D01*
X127401866Y-95538683D02*
X127351358Y-95791221D01*
X127351358Y-95791221D02*
X127199835Y-96043759D01*
X127199835Y-96043759D02*
X126795774Y-96447820D01*
X126795774Y-96447820D02*
X126644251Y-96498328D01*
X126644251Y-96498328D02*
X126543236Y-96498328D01*
X126543236Y-96498328D02*
X126391713Y-96447820D01*
X126391713Y-96447820D02*
X126189682Y-96245790D01*
X126189682Y-96245790D02*
X126139175Y-96094267D01*
X126139175Y-96094267D02*
X126139175Y-95993251D01*
X126139175Y-95993251D02*
X126189682Y-95841729D01*
X126189682Y-95841729D02*
X126442221Y-95589190D01*
X126442221Y-95589190D02*
X126593743Y-95538683D01*
X126593743Y-95538683D02*
X126694759Y-95538683D01*
X126694759Y-95538683D02*
X126846282Y-95589190D01*
X126846282Y-95589190D02*
X127048312Y-95791221D01*
X127048312Y-95791221D02*
X127098820Y-95942744D01*
X127098820Y-95942744D02*
X127098820Y-96043759D01*
X127098820Y-96043759D02*
X127048312Y-96195282D01*
X126139175Y-94073962D02*
X126341206Y-94275992D01*
X126341206Y-94275992D02*
X126391713Y-94427515D01*
X126391713Y-94427515D02*
X126391713Y-94528531D01*
X126391713Y-94528531D02*
X126341206Y-94781069D01*
X126341206Y-94781069D02*
X126189683Y-95033607D01*
X126189683Y-95033607D02*
X125785622Y-95437668D01*
X125785622Y-95437668D02*
X125634099Y-95488175D01*
X125634099Y-95488175D02*
X125533084Y-95488175D01*
X125533084Y-95488175D02*
X125381561Y-95437668D01*
X125381561Y-95437668D02*
X125179530Y-95235637D01*
X125179530Y-95235637D02*
X125129023Y-95084114D01*
X125129023Y-95084114D02*
X125129023Y-94983099D01*
X125129023Y-94983099D02*
X125179530Y-94831576D01*
X125179530Y-94831576D02*
X125432068Y-94579038D01*
X125432068Y-94579038D02*
X125583591Y-94528531D01*
X125583591Y-94528531D02*
X125684606Y-94528531D01*
X125684606Y-94528531D02*
X125836129Y-94579038D01*
X125836129Y-94579038D02*
X126038160Y-94781069D01*
X126038160Y-94781069D02*
X126088668Y-94932592D01*
X126088668Y-94932592D02*
X126088668Y-95033607D01*
X126088668Y-95033607D02*
X126038160Y-95185130D01*
X132765330Y-104317353D02*
X132765330Y-104216338D01*
X132765330Y-104216338D02*
X132714822Y-104064815D01*
X132714822Y-104064815D02*
X132462284Y-103812277D01*
X132462284Y-103812277D02*
X132310761Y-103761769D01*
X132310761Y-103761769D02*
X132209746Y-103761769D01*
X132209746Y-103761769D02*
X132058223Y-103812277D01*
X132058223Y-103812277D02*
X131957208Y-103913292D01*
X131957208Y-103913292D02*
X131856193Y-104115323D01*
X131856193Y-104115323D02*
X131856193Y-105327506D01*
X131856193Y-105327506D02*
X131199594Y-104670907D01*
X131603655Y-102953648D02*
X131502640Y-102852632D01*
X131502640Y-102852632D02*
X131351117Y-102802125D01*
X131351117Y-102802125D02*
X131250102Y-102802125D01*
X131250102Y-102802125D02*
X131098579Y-102852632D01*
X131098579Y-102852632D02*
X130846041Y-103004155D01*
X130846041Y-103004155D02*
X130593502Y-103256693D01*
X130593502Y-103256693D02*
X130441980Y-103509232D01*
X130441980Y-103509232D02*
X130391472Y-103660755D01*
X130391472Y-103660755D02*
X130391472Y-103761770D01*
X130391472Y-103761770D02*
X130441980Y-103913293D01*
X130441980Y-103913293D02*
X130542995Y-104014308D01*
X130542995Y-104014308D02*
X130694518Y-104064816D01*
X130694518Y-104064816D02*
X130795533Y-104064816D01*
X130795533Y-104064816D02*
X130947056Y-104014308D01*
X130947056Y-104014308D02*
X131199594Y-103862785D01*
X131199594Y-103862785D02*
X131452132Y-103610247D01*
X131452132Y-103610247D02*
X131603655Y-103357709D01*
X131603655Y-103357709D02*
X131654163Y-103206186D01*
X131654163Y-103206186D02*
X131654163Y-103105171D01*
X131654163Y-103105171D02*
X131603655Y-102953648D01*
X130745026Y-102297049D02*
X130745026Y-102196034D01*
X130745026Y-102196034D02*
X130694518Y-102044511D01*
X130694518Y-102044511D02*
X130441980Y-101791973D01*
X130441980Y-101791973D02*
X130290457Y-101741465D01*
X130290457Y-101741465D02*
X130189442Y-101741465D01*
X130189442Y-101741465D02*
X130037919Y-101791973D01*
X130037919Y-101791973D02*
X129936904Y-101892988D01*
X129936904Y-101892988D02*
X129835888Y-102095018D01*
X129835888Y-102095018D02*
X129835888Y-103307201D01*
X129835888Y-103307201D02*
X129179289Y-102650602D01*
X129280305Y-100630297D02*
X129785381Y-101135374D01*
X129785381Y-101135374D02*
X129330812Y-101690958D01*
X129330812Y-101690958D02*
X129330812Y-101589942D01*
X129330812Y-101589942D02*
X129280305Y-101438420D01*
X129280305Y-101438420D02*
X129027767Y-101185881D01*
X129027767Y-101185881D02*
X128876244Y-101135374D01*
X128876244Y-101135374D02*
X128775228Y-101135374D01*
X128775228Y-101135374D02*
X128623706Y-101185881D01*
X128623706Y-101185881D02*
X128371167Y-101438420D01*
X128371167Y-101438420D02*
X128320660Y-101589942D01*
X128320660Y-101589942D02*
X128320660Y-101690958D01*
X128320660Y-101690958D02*
X128371167Y-101842481D01*
X128371167Y-101842481D02*
X128623706Y-102095019D01*
X128623706Y-102095019D02*
X128775228Y-102145526D01*
X128775228Y-102145526D02*
X128876244Y-102145526D01*
X128118630Y-100781821D02*
X127310508Y-99973699D01*
X127260000Y-98609993D02*
X127158985Y-98508977D01*
X127158985Y-98508977D02*
X127007462Y-98458470D01*
X127007462Y-98458470D02*
X126906446Y-98458470D01*
X126906446Y-98458470D02*
X126754924Y-98508977D01*
X126754924Y-98508977D02*
X126502385Y-98660500D01*
X126502385Y-98660500D02*
X126249847Y-98913038D01*
X126249847Y-98913038D02*
X126098324Y-99165576D01*
X126098324Y-99165576D02*
X126047817Y-99317099D01*
X126047817Y-99317099D02*
X126047817Y-99418115D01*
X126047817Y-99418115D02*
X126098324Y-99569638D01*
X126098324Y-99569638D02*
X126199340Y-99670653D01*
X126199340Y-99670653D02*
X126350863Y-99721160D01*
X126350863Y-99721160D02*
X126451878Y-99721160D01*
X126451878Y-99721160D02*
X126603401Y-99670653D01*
X126603401Y-99670653D02*
X126855939Y-99519130D01*
X126855939Y-99519130D02*
X127108477Y-99266592D01*
X127108477Y-99266592D02*
X127260000Y-99014054D01*
X127260000Y-99014054D02*
X127310507Y-98862531D01*
X127310507Y-98862531D02*
X127310507Y-98761515D01*
X127310507Y-98761515D02*
X127260000Y-98609993D01*
X125340710Y-98812023D02*
X125138680Y-98609993D01*
X125138680Y-98609993D02*
X125088172Y-98458470D01*
X125088172Y-98458470D02*
X125088172Y-98357455D01*
X125088172Y-98357455D02*
X125138680Y-98104917D01*
X125138680Y-98104917D02*
X125290203Y-97852378D01*
X125290203Y-97852378D02*
X125694264Y-97448317D01*
X125694264Y-97448317D02*
X125845787Y-97397810D01*
X125845787Y-97397810D02*
X125946802Y-97397810D01*
X125946802Y-97397810D02*
X126098325Y-97448317D01*
X126098325Y-97448317D02*
X126300355Y-97650348D01*
X126300355Y-97650348D02*
X126350863Y-97801871D01*
X126350863Y-97801871D02*
X126350863Y-97902886D01*
X126350863Y-97902886D02*
X126300355Y-98054409D01*
X126300355Y-98054409D02*
X126047817Y-98306947D01*
X126047817Y-98306947D02*
X125896294Y-98357455D01*
X125896294Y-98357455D02*
X125795279Y-98357455D01*
X125795279Y-98357455D02*
X125643756Y-98306947D01*
X125643756Y-98306947D02*
X125441726Y-98104917D01*
X125441726Y-98104917D02*
X125391218Y-97953394D01*
X125391218Y-97953394D02*
X125391218Y-97852378D01*
X125391218Y-97852378D02*
X125441726Y-97700856D01*
X124785127Y-97448318D02*
X123977005Y-96640196D01*
X124078020Y-95630043D02*
X124078020Y-95529028D01*
X124078020Y-95529028D02*
X124027512Y-95377505D01*
X124027512Y-95377505D02*
X123774974Y-95124967D01*
X123774974Y-95124967D02*
X123623451Y-95074459D01*
X123623451Y-95074459D02*
X123522436Y-95074459D01*
X123522436Y-95074459D02*
X123370913Y-95124967D01*
X123370913Y-95124967D02*
X123269898Y-95225982D01*
X123269898Y-95225982D02*
X123168883Y-95428013D01*
X123168883Y-95428013D02*
X123168883Y-96640196D01*
X123168883Y-96640196D02*
X122512283Y-95983596D01*
X122663807Y-94013799D02*
X122865837Y-94215830D01*
X122865837Y-94215830D02*
X122916345Y-94367353D01*
X122916345Y-94367353D02*
X122916345Y-94468368D01*
X122916345Y-94468368D02*
X122865837Y-94720906D01*
X122865837Y-94720906D02*
X122714314Y-94973444D01*
X122714314Y-94973444D02*
X122310253Y-95377505D01*
X122310253Y-95377505D02*
X122158730Y-95428013D01*
X122158730Y-95428013D02*
X122057715Y-95428013D01*
X122057715Y-95428013D02*
X121906192Y-95377505D01*
X121906192Y-95377505D02*
X121704162Y-95175475D01*
X121704162Y-95175475D02*
X121653654Y-95023952D01*
X121653654Y-95023952D02*
X121653654Y-94922937D01*
X121653654Y-94922937D02*
X121704162Y-94771414D01*
X121704162Y-94771414D02*
X121956700Y-94518876D01*
X121956700Y-94518876D02*
X122108223Y-94468368D01*
X122108223Y-94468368D02*
X122209238Y-94468368D01*
X122209238Y-94468368D02*
X122360761Y-94518876D01*
X122360761Y-94518876D02*
X122562791Y-94720906D01*
X122562791Y-94720906D02*
X122613299Y-94872429D01*
X122613299Y-94872429D02*
X122613299Y-94973444D01*
X122613299Y-94973444D02*
X122562791Y-95124967D01*
D11*
X134155084Y-60701363D02*
X133717351Y-60263630D01*
X133717351Y-60263630D02*
X133683679Y-60768706D01*
X133683679Y-60768706D02*
X133582664Y-60667691D01*
X133582664Y-60667691D02*
X133481649Y-60634019D01*
X133481649Y-60634019D02*
X133414305Y-60634019D01*
X133414305Y-60634019D02*
X133313290Y-60667691D01*
X133313290Y-60667691D02*
X133144931Y-60836050D01*
X133144931Y-60836050D02*
X133111259Y-60937065D01*
X133111259Y-60937065D02*
X133111259Y-61004408D01*
X133111259Y-61004408D02*
X133144931Y-61105424D01*
X133144931Y-61105424D02*
X133346962Y-61307454D01*
X133346962Y-61307454D02*
X133447977Y-61341126D01*
X133447977Y-61341126D02*
X133515320Y-61341126D01*
X132774542Y-60600347D02*
X132707198Y-60600347D01*
X132707198Y-60600347D02*
X132707198Y-60667691D01*
X132707198Y-60667691D02*
X132774542Y-60667691D01*
X132774542Y-60667691D02*
X132774542Y-60600347D01*
X132774542Y-60600347D02*
X132707198Y-60667691D01*
X133144931Y-59691210D02*
X132707199Y-59253477D01*
X132707199Y-59253477D02*
X132673527Y-59758554D01*
X132673527Y-59758554D02*
X132572512Y-59657539D01*
X132572512Y-59657539D02*
X132471496Y-59623867D01*
X132471496Y-59623867D02*
X132404153Y-59623867D01*
X132404153Y-59623867D02*
X132303138Y-59657539D01*
X132303138Y-59657539D02*
X132134779Y-59825897D01*
X132134779Y-59825897D02*
X132101107Y-59926913D01*
X132101107Y-59926913D02*
X132101107Y-59994256D01*
X132101107Y-59994256D02*
X132134779Y-60095271D01*
X132134779Y-60095271D02*
X132336809Y-60297302D01*
X132336809Y-60297302D02*
X132437825Y-60330974D01*
X132437825Y-60330974D02*
X132505168Y-60330974D01*
X132505168Y-59051447D02*
X131562359Y-59522851D01*
X131562359Y-59522851D02*
X132033764Y-58580042D01*
X111531033Y-82766461D02*
X112238140Y-82059354D01*
X112238140Y-82059354D02*
X111497362Y-82328728D01*
X111497362Y-82328728D02*
X111766736Y-81587949D01*
X111766736Y-81587949D02*
X111059629Y-82295056D01*
X111295331Y-81116545D02*
X111160644Y-80981858D01*
X111160644Y-80981858D02*
X111059629Y-80948186D01*
X111059629Y-80948186D02*
X110924942Y-80948186D01*
X110924942Y-80948186D02*
X110756583Y-81049202D01*
X110756583Y-81049202D02*
X110520881Y-81284904D01*
X110520881Y-81284904D02*
X110419866Y-81453263D01*
X110419866Y-81453263D02*
X110419866Y-81587950D01*
X110419866Y-81587950D02*
X110453538Y-81688965D01*
X110453538Y-81688965D02*
X110588225Y-81823652D01*
X110588225Y-81823652D02*
X110689240Y-81857324D01*
X110689240Y-81857324D02*
X110823927Y-81857324D01*
X110823927Y-81857324D02*
X110992286Y-81756308D01*
X110992286Y-81756308D02*
X111227988Y-81520606D01*
X111227988Y-81520606D02*
X111329003Y-81352247D01*
X111329003Y-81352247D02*
X111329003Y-81217560D01*
X111329003Y-81217560D02*
X111295331Y-81116545D01*
X110790255Y-80611469D02*
X110386194Y-80207408D01*
X109881118Y-81116545D02*
X110588225Y-80409438D01*
D10*
X162381566Y-79748159D02*
X162583596Y-79849174D01*
X162583596Y-79849174D02*
X162684612Y-79849174D01*
X162684612Y-79849174D02*
X162836135Y-79798666D01*
X162836135Y-79798666D02*
X162987657Y-79647143D01*
X162987657Y-79647143D02*
X163038165Y-79495621D01*
X163038165Y-79495621D02*
X163038165Y-79394605D01*
X163038165Y-79394605D02*
X162987657Y-79243082D01*
X162987657Y-79243082D02*
X162583596Y-78839021D01*
X162583596Y-78839021D02*
X161522936Y-79899682D01*
X161522936Y-79899682D02*
X161876490Y-80253235D01*
X161876490Y-80253235D02*
X162028013Y-80303743D01*
X162028013Y-80303743D02*
X162129028Y-80303743D01*
X162129028Y-80303743D02*
X162280551Y-80253235D01*
X162280551Y-80253235D02*
X162381566Y-80152220D01*
X162381566Y-80152220D02*
X162432074Y-80000697D01*
X162432074Y-80000697D02*
X162432074Y-79899682D01*
X162432074Y-79899682D02*
X162381566Y-79748159D01*
X162381566Y-79748159D02*
X162028013Y-79394605D01*
X162432074Y-80808819D02*
X163038165Y-81414910D01*
X163795780Y-80051204D02*
X162735119Y-81111865D01*
X162296148Y-75237382D02*
X162498178Y-75338397D01*
X162498178Y-75338397D02*
X162750716Y-75590935D01*
X162750716Y-75590935D02*
X162801224Y-75742458D01*
X162801224Y-75742458D02*
X162801224Y-75843474D01*
X162801224Y-75843474D02*
X162750716Y-75994996D01*
X162750716Y-75994996D02*
X162649701Y-76096012D01*
X162649701Y-76096012D02*
X162498178Y-76146519D01*
X162498178Y-76146519D02*
X162397163Y-76146519D01*
X162397163Y-76146519D02*
X162245640Y-76096012D01*
X162245640Y-76096012D02*
X161993102Y-75944489D01*
X161993102Y-75944489D02*
X161841579Y-75893981D01*
X161841579Y-75893981D02*
X161740564Y-75893981D01*
X161740564Y-75893981D02*
X161589041Y-75944489D01*
X161589041Y-75944489D02*
X161488026Y-76045504D01*
X161488026Y-76045504D02*
X161437518Y-76197027D01*
X161437518Y-76197027D02*
X161437518Y-76298042D01*
X161437518Y-76298042D02*
X161488026Y-76449565D01*
X161488026Y-76449565D02*
X161740564Y-76702103D01*
X161740564Y-76702103D02*
X161942594Y-76803118D01*
X162851731Y-76803118D02*
X163205285Y-77156672D01*
X163912392Y-76752610D02*
X163407315Y-76247534D01*
X163407315Y-76247534D02*
X162346655Y-77308194D01*
X162346655Y-77308194D02*
X162851731Y-77813271D01*
X164872037Y-77712256D02*
X164366960Y-77207179D01*
X164366960Y-77207179D02*
X163306300Y-78267839D01*
X164670006Y-78621393D02*
X165023560Y-78974946D01*
X165730666Y-78570885D02*
X165225590Y-78065809D01*
X165225590Y-78065809D02*
X164164930Y-79126469D01*
X164164930Y-79126469D02*
X164670006Y-79631546D01*
X166690311Y-79732561D02*
X166690311Y-79631546D01*
X166690311Y-79631546D02*
X166589296Y-79429515D01*
X166589296Y-79429515D02*
X166488281Y-79328500D01*
X166488281Y-79328500D02*
X166286250Y-79227485D01*
X166286250Y-79227485D02*
X166084220Y-79227485D01*
X166084220Y-79227485D02*
X165932697Y-79277992D01*
X165932697Y-79277992D02*
X165680159Y-79429515D01*
X165680159Y-79429515D02*
X165528636Y-79581038D01*
X165528636Y-79581038D02*
X165377113Y-79833576D01*
X165377113Y-79833576D02*
X165326606Y-79985099D01*
X165326606Y-79985099D02*
X165326606Y-80187130D01*
X165326606Y-80187130D02*
X165427621Y-80389160D01*
X165427621Y-80389160D02*
X165528636Y-80490175D01*
X165528636Y-80490175D02*
X165730667Y-80591191D01*
X165730667Y-80591191D02*
X165831682Y-80591191D01*
X166033712Y-80995252D02*
X166639804Y-81601343D01*
X167397418Y-80237637D02*
X166336758Y-81298297D01*
D11*
X135215744Y-59573359D02*
X135081057Y-59506015D01*
X135081057Y-59506015D02*
X134912698Y-59337657D01*
X134912698Y-59337657D02*
X134879026Y-59236641D01*
X134879026Y-59236641D02*
X134879026Y-59169298D01*
X134879026Y-59169298D02*
X134912698Y-59068283D01*
X134912698Y-59068283D02*
X134980042Y-59000939D01*
X134980042Y-59000939D02*
X135081057Y-58967267D01*
X135081057Y-58967267D02*
X135148400Y-58967267D01*
X135148400Y-58967267D02*
X135249416Y-59000939D01*
X135249416Y-59000939D02*
X135417774Y-59101954D01*
X135417774Y-59101954D02*
X135518790Y-59135626D01*
X135518790Y-59135626D02*
X135586133Y-59135626D01*
X135586133Y-59135626D02*
X135687148Y-59101954D01*
X135687148Y-59101954D02*
X135754492Y-59034611D01*
X135754492Y-59034611D02*
X135788164Y-58933596D01*
X135788164Y-58933596D02*
X135788164Y-58866252D01*
X135788164Y-58866252D02*
X135754492Y-58765237D01*
X135754492Y-58765237D02*
X135586133Y-58596878D01*
X135586133Y-58596878D02*
X135451446Y-58529534D01*
X134474965Y-58899924D02*
X135182072Y-58192817D01*
X135182072Y-58192817D02*
X135013713Y-58024458D01*
X135013713Y-58024458D02*
X134879026Y-57957115D01*
X134879026Y-57957115D02*
X134744339Y-57957115D01*
X134744339Y-57957115D02*
X134643324Y-57990786D01*
X134643324Y-57990786D02*
X134474965Y-58091802D01*
X134474965Y-58091802D02*
X134373950Y-58192817D01*
X134373950Y-58192817D02*
X134272935Y-58361176D01*
X134272935Y-58361176D02*
X134239263Y-58462191D01*
X134239263Y-58462191D02*
X134239263Y-58596878D01*
X134239263Y-58596878D02*
X134306607Y-58731565D01*
X134306607Y-58731565D02*
X134474965Y-58899924D01*
X133767859Y-58192817D02*
X134474965Y-57485710D01*
X134003561Y-57014306D02*
X133868874Y-56879619D01*
X133868874Y-56879619D02*
X133767859Y-56845947D01*
X133767859Y-56845947D02*
X133633172Y-56845947D01*
X133633172Y-56845947D02*
X133464813Y-56946962D01*
X133464813Y-56946962D02*
X133229111Y-57182665D01*
X133229111Y-57182665D02*
X133128096Y-57351023D01*
X133128096Y-57351023D02*
X133128096Y-57485710D01*
X133128096Y-57485710D02*
X133161767Y-57586726D01*
X133161767Y-57586726D02*
X133296454Y-57721413D01*
X133296454Y-57721413D02*
X133397470Y-57755085D01*
X133397470Y-57755085D02*
X133532157Y-57755085D01*
X133532157Y-57755085D02*
X133700515Y-57654069D01*
X133700515Y-57654069D02*
X133936218Y-57418367D01*
X133936218Y-57418367D02*
X134037233Y-57250008D01*
X134037233Y-57250008D02*
X134037233Y-57115321D01*
X134037233Y-57115321D02*
X134003561Y-57014306D01*
D10*
X147496968Y-64863561D02*
X147698998Y-64964576D01*
X147698998Y-64964576D02*
X147800014Y-64964576D01*
X147800014Y-64964576D02*
X147951537Y-64914068D01*
X147951537Y-64914068D02*
X148103059Y-64762545D01*
X148103059Y-64762545D02*
X148153567Y-64611023D01*
X148153567Y-64611023D02*
X148153567Y-64510007D01*
X148153567Y-64510007D02*
X148103059Y-64358484D01*
X148103059Y-64358484D02*
X147698998Y-63954423D01*
X147698998Y-63954423D02*
X146638338Y-65015084D01*
X146638338Y-65015084D02*
X146991892Y-65368637D01*
X146991892Y-65368637D02*
X147143415Y-65419145D01*
X147143415Y-65419145D02*
X147244430Y-65419145D01*
X147244430Y-65419145D02*
X147395953Y-65368637D01*
X147395953Y-65368637D02*
X147496968Y-65267622D01*
X147496968Y-65267622D02*
X147547476Y-65116099D01*
X147547476Y-65116099D02*
X147547476Y-65015084D01*
X147547476Y-65015084D02*
X147496968Y-64863561D01*
X147496968Y-64863561D02*
X147143415Y-64510007D01*
X147547476Y-65924221D02*
X148153567Y-66530312D01*
X148911182Y-65166606D02*
X147850521Y-66227267D01*
X148421703Y-61463952D02*
X148421703Y-61362937D01*
X148421703Y-61362937D02*
X148320687Y-61160906D01*
X148320687Y-61160906D02*
X148219672Y-61059891D01*
X148219672Y-61059891D02*
X148017642Y-60958876D01*
X148017642Y-60958876D02*
X147815611Y-60958876D01*
X147815611Y-60958876D02*
X147664088Y-61009383D01*
X147664088Y-61009383D02*
X147411550Y-61160906D01*
X147411550Y-61160906D02*
X147260027Y-61312429D01*
X147260027Y-61312429D02*
X147108504Y-61564967D01*
X147108504Y-61564967D02*
X147057997Y-61716490D01*
X147057997Y-61716490D02*
X147057997Y-61918521D01*
X147057997Y-61918521D02*
X147159012Y-62120551D01*
X147159012Y-62120551D02*
X147260027Y-62221566D01*
X147260027Y-62221566D02*
X147462058Y-62322582D01*
X147462058Y-62322582D02*
X147563073Y-62322582D01*
X149482363Y-62322582D02*
X148977287Y-61817505D01*
X148977287Y-61817505D02*
X147916626Y-62878166D01*
X149280333Y-63231719D02*
X149633886Y-63585273D01*
X150340993Y-63181212D02*
X149835916Y-62676135D01*
X149835916Y-62676135D02*
X148775256Y-63736796D01*
X148775256Y-63736796D02*
X149280333Y-64241872D01*
X150442008Y-63888318D02*
X150947084Y-64393395D01*
X150644039Y-63484257D02*
X149936932Y-64898471D01*
X149936932Y-64898471D02*
X151351145Y-64191364D01*
X152310790Y-65151009D02*
X151452160Y-65302532D01*
X151704699Y-64544917D02*
X150644038Y-65605578D01*
X150644038Y-65605578D02*
X151048099Y-66009639D01*
X151048099Y-66009639D02*
X151199622Y-66060146D01*
X151199622Y-66060146D02*
X151300637Y-66060146D01*
X151300637Y-66060146D02*
X151452160Y-66009639D01*
X151452160Y-66009639D02*
X151603683Y-65858116D01*
X151603683Y-65858116D02*
X151654191Y-65706593D01*
X151654191Y-65706593D02*
X151654191Y-65605578D01*
X151654191Y-65605578D02*
X151603683Y-65454055D01*
X151603683Y-65454055D02*
X151199622Y-65049994D01*
G36*
X151142273Y-103338600D02*
G01*
X151469711Y-103666038D01*
X151590357Y-103867114D01*
X151590357Y-104003255D01*
X151558744Y-104098093D01*
X151406791Y-104250046D01*
X151311956Y-104281659D01*
X151175812Y-104281659D01*
X150974736Y-104161013D01*
X150647298Y-103833575D01*
X150526651Y-103632497D01*
X150526651Y-103496354D01*
X150558263Y-103401518D01*
X150710216Y-103249565D01*
X150805055Y-103217953D01*
X150941195Y-103217953D01*
X151142273Y-103338600D01*
G37*
G36*
X150401459Y-100830020D02*
G01*
X150128502Y-101102976D01*
X150033667Y-101134589D01*
X149981335Y-101134589D01*
X149886496Y-101102976D01*
X149785050Y-101001530D01*
X149753438Y-100906694D01*
X149753438Y-100854360D01*
X149785050Y-100759524D01*
X150058007Y-100486568D01*
X150401459Y-100830020D01*
G37*
G36*
X157001157Y-97479715D02*
G01*
X157328595Y-97807153D01*
X157449241Y-98008230D01*
X157449241Y-98144370D01*
X157417628Y-98239209D01*
X157265676Y-98391161D01*
X157170837Y-98422774D01*
X157034697Y-98422774D01*
X156833620Y-98302128D01*
X156506182Y-97974690D01*
X156385535Y-97773612D01*
X156385535Y-97637470D01*
X156417147Y-97542634D01*
X156569101Y-97390680D01*
X156663936Y-97359068D01*
X156800079Y-97359068D01*
X157001157Y-97479715D01*
G37*
G36*
X154097930Y-97537609D02*
G01*
X153887171Y-97748368D01*
X153676412Y-97326850D01*
X154097930Y-97537609D01*
G37*
G36*
X155452221Y-96789410D02*
G01*
X155179264Y-97062366D01*
X155084429Y-97093979D01*
X155032097Y-97093979D01*
X154937258Y-97062366D01*
X154835813Y-96960921D01*
X154804201Y-96866082D01*
X154804201Y-96824820D01*
X154878494Y-96676233D01*
X155108769Y-96445958D01*
X155452221Y-96789410D01*
G37*
G36*
X154896637Y-96233826D02*
G01*
X154674189Y-96456274D01*
X154579350Y-96487887D01*
X154527021Y-96487887D01*
X154432181Y-96456274D01*
X154381244Y-96405336D01*
X154349632Y-96310500D01*
X154349632Y-96258166D01*
X154381244Y-96163330D01*
X154603693Y-95940882D01*
X154896637Y-96233826D01*
G37*
G36*
X158249107Y-98067698D02*
G01*
X150174620Y-106142185D01*
X148636862Y-104604427D01*
X148966842Y-104604427D01*
X148966842Y-104662953D01*
X148989239Y-104717025D01*
X149007894Y-104739756D01*
X150068554Y-105800416D01*
X150074400Y-105805214D01*
X150076222Y-105807566D01*
X150079660Y-105809530D01*
X150091285Y-105819071D01*
X150109717Y-105826705D01*
X150127036Y-105836602D01*
X150136520Y-105837807D01*
X150145357Y-105841468D01*
X150165307Y-105841468D01*
X150185096Y-105843984D01*
X150194321Y-105841468D01*
X150203883Y-105841468D01*
X150222316Y-105833832D01*
X150241562Y-105828584D01*
X150249119Y-105822730D01*
X150257956Y-105819071D01*
X150272067Y-105804959D01*
X150287836Y-105792748D01*
X150292578Y-105784448D01*
X150299341Y-105777686D01*
X150306977Y-105759248D01*
X150316872Y-105741933D01*
X150318077Y-105732450D01*
X150321738Y-105723613D01*
X150321738Y-105703661D01*
X150324254Y-105683873D01*
X150321738Y-105669044D01*
X150321738Y-105665087D01*
X150320600Y-105662341D01*
X150319335Y-105654882D01*
X150013384Y-104533062D01*
X150674646Y-105194324D01*
X150697376Y-105212979D01*
X150751449Y-105235375D01*
X150809975Y-105235375D01*
X150864047Y-105212979D01*
X150905433Y-105171593D01*
X150927829Y-105117521D01*
X150927829Y-105058995D01*
X150905433Y-105004922D01*
X150886778Y-104982192D01*
X149826117Y-103921532D01*
X149820270Y-103916733D01*
X149818449Y-103914382D01*
X149815010Y-103912417D01*
X149803386Y-103902877D01*
X149784957Y-103895243D01*
X149767635Y-103885345D01*
X149758147Y-103884138D01*
X149749314Y-103880480D01*
X149729366Y-103880480D01*
X149709575Y-103877964D01*
X149700350Y-103880480D01*
X149690788Y-103880480D01*
X149672355Y-103888114D01*
X149653109Y-103893364D01*
X149645550Y-103899217D01*
X149636716Y-103902877D01*
X149622608Y-103916984D01*
X149606835Y-103929200D01*
X149602090Y-103937502D01*
X149595330Y-103944263D01*
X149587696Y-103962691D01*
X149577798Y-103980014D01*
X149576591Y-103989501D01*
X149572933Y-103998335D01*
X149572933Y-104018282D01*
X149570417Y-104038074D01*
X149572933Y-104052903D01*
X149572933Y-104056861D01*
X149574070Y-104059607D01*
X149575336Y-104067066D01*
X149881286Y-105188884D01*
X149220026Y-104527624D01*
X149197295Y-104508969D01*
X149143223Y-104486572D01*
X149084697Y-104486572D01*
X149030625Y-104508969D01*
X148989239Y-104550355D01*
X148966842Y-104604427D01*
X148636862Y-104604427D01*
X147504449Y-103472014D01*
X150226651Y-103472014D01*
X150226651Y-103674045D01*
X150229533Y-103703309D01*
X150233800Y-103713611D01*
X150235442Y-103724643D01*
X150248027Y-103751219D01*
X150399550Y-104003757D01*
X150402606Y-104007874D01*
X150403453Y-104009918D01*
X150410474Y-104018473D01*
X150417077Y-104027368D01*
X150418855Y-104028685D01*
X150422108Y-104032649D01*
X150775661Y-104386202D01*
X150779626Y-104389456D01*
X150780942Y-104391232D01*
X150789821Y-104397823D01*
X150798391Y-104404857D01*
X150800436Y-104405704D01*
X150804553Y-104408760D01*
X151057090Y-104560283D01*
X151083667Y-104572868D01*
X151094697Y-104574509D01*
X151105001Y-104578777D01*
X151134265Y-104581659D01*
X151336296Y-104581659D01*
X151351107Y-104580200D01*
X151355057Y-104580481D01*
X151360251Y-104579299D01*
X151365560Y-104578777D01*
X151369222Y-104577259D01*
X151383730Y-104573961D01*
X151535253Y-104523454D01*
X151562104Y-104511465D01*
X151566174Y-104507934D01*
X151571154Y-104505872D01*
X151593885Y-104487217D01*
X151795915Y-104285187D01*
X151814570Y-104262456D01*
X151816632Y-104257476D01*
X151820163Y-104253406D01*
X151832151Y-104226555D01*
X151882659Y-104075033D01*
X151885958Y-104060523D01*
X151887475Y-104056862D01*
X151887997Y-104051553D01*
X151889179Y-104046359D01*
X151888898Y-104042409D01*
X151890357Y-104027598D01*
X151890357Y-103825567D01*
X151887475Y-103796303D01*
X151883207Y-103785999D01*
X151881566Y-103774969D01*
X151868981Y-103748392D01*
X151717458Y-103495855D01*
X151714402Y-103491738D01*
X151713555Y-103489693D01*
X151706521Y-103481123D01*
X151699930Y-103472244D01*
X151698154Y-103470928D01*
X151694900Y-103466963D01*
X151341347Y-103113410D01*
X151337383Y-103110157D01*
X151336066Y-103108379D01*
X151327171Y-103101776D01*
X151318616Y-103094755D01*
X151316572Y-103093908D01*
X151312455Y-103090852D01*
X151059916Y-102939329D01*
X151033340Y-102926744D01*
X151022308Y-102925102D01*
X151012006Y-102920835D01*
X150982742Y-102917953D01*
X150780712Y-102917953D01*
X150765900Y-102919411D01*
X150761951Y-102919131D01*
X150756756Y-102920312D01*
X150751448Y-102920835D01*
X150747786Y-102922351D01*
X150733277Y-102925651D01*
X150581755Y-102976159D01*
X150554904Y-102988147D01*
X150550833Y-102991677D01*
X150545854Y-102993740D01*
X150523123Y-103012395D01*
X150321093Y-103214425D01*
X150302438Y-103237156D01*
X150300375Y-103242135D01*
X150296845Y-103246206D01*
X150284856Y-103273057D01*
X150234349Y-103424580D01*
X150231050Y-103439087D01*
X150229533Y-103442750D01*
X150229010Y-103448058D01*
X150227829Y-103453253D01*
X150228109Y-103457202D01*
X150226651Y-103472014D01*
X147504449Y-103472014D01*
X146958522Y-102926087D01*
X147997276Y-101887333D01*
X148291800Y-101887333D01*
X148301935Y-101944976D01*
X148333356Y-101994352D01*
X148381281Y-102027946D01*
X148409223Y-102037108D01*
X149275720Y-102229663D01*
X149749910Y-102703853D01*
X149772640Y-102722508D01*
X149826713Y-102744905D01*
X149885239Y-102744905D01*
X149939311Y-102722508D01*
X149980697Y-102681122D01*
X150003094Y-102627050D01*
X150003094Y-102568524D01*
X149980697Y-102514451D01*
X149962042Y-102491721D01*
X149700889Y-102230568D01*
X152653899Y-102230568D01*
X152653899Y-102289094D01*
X152676296Y-102343166D01*
X152717682Y-102384552D01*
X152771754Y-102406949D01*
X152830280Y-102406949D01*
X152884352Y-102384552D01*
X152907083Y-102365897D01*
X153715205Y-101557775D01*
X153733860Y-101535044D01*
X153756257Y-101480972D01*
X153756257Y-101422446D01*
X153733860Y-101368374D01*
X153692474Y-101326988D01*
X153638402Y-101304591D01*
X153579876Y-101304591D01*
X153525804Y-101326988D01*
X153503073Y-101345643D01*
X152694951Y-102153765D01*
X152676296Y-102176496D01*
X152653899Y-102230568D01*
X149700889Y-102230568D01*
X149487852Y-102017531D01*
X149295297Y-101151033D01*
X149286135Y-101123091D01*
X149252541Y-101075166D01*
X149203165Y-101043745D01*
X149145522Y-101033610D01*
X149088387Y-101046307D01*
X149040462Y-101079901D01*
X149009041Y-101129277D01*
X148998906Y-101186920D01*
X149002441Y-101216113D01*
X149153338Y-101895149D01*
X148474303Y-101744252D01*
X148445110Y-101740717D01*
X148387467Y-101750852D01*
X148338091Y-101782273D01*
X148304497Y-101830198D01*
X148291800Y-101887333D01*
X147997276Y-101887333D01*
X149054589Y-100830020D01*
X149453438Y-100830020D01*
X149453438Y-100931035D01*
X149454896Y-100945846D01*
X149454616Y-100949796D01*
X149455797Y-100954990D01*
X149456320Y-100960299D01*
X149457837Y-100963961D01*
X149461136Y-100978469D01*
X149511643Y-101129992D01*
X149523632Y-101156843D01*
X149527162Y-101160913D01*
X149529225Y-101165893D01*
X149547880Y-101188624D01*
X149699403Y-101340147D01*
X149722134Y-101358802D01*
X149727113Y-101360864D01*
X149731184Y-101364395D01*
X149758035Y-101376383D01*
X149909557Y-101426891D01*
X149924066Y-101430190D01*
X149927728Y-101431707D01*
X149933036Y-101432229D01*
X149938231Y-101433411D01*
X149942180Y-101433130D01*
X149956992Y-101434589D01*
X150058007Y-101434589D01*
X150072818Y-101433130D01*
X150076768Y-101433411D01*
X150081962Y-101432229D01*
X150087271Y-101431707D01*
X150090933Y-101430189D01*
X150105441Y-101426891D01*
X150256964Y-101376384D01*
X150260321Y-101374884D01*
X150364857Y-101967256D01*
X150372781Y-101995573D01*
X150404235Y-102044930D01*
X150452181Y-102078493D01*
X150509323Y-102091153D01*
X150566961Y-102080982D01*
X150616317Y-102049528D01*
X150649880Y-102001582D01*
X150662540Y-101944440D01*
X150660293Y-101915120D01*
X150522343Y-101133399D01*
X150613591Y-101042152D01*
X151012601Y-101441162D01*
X151035332Y-101459817D01*
X151089404Y-101482214D01*
X151147930Y-101482214D01*
X151202003Y-101459817D01*
X151243388Y-101418432D01*
X151265785Y-101364359D01*
X151265785Y-101305833D01*
X151243388Y-101251761D01*
X151224733Y-101229030D01*
X150164073Y-100168370D01*
X150141347Y-100149719D01*
X150141343Y-100149715D01*
X150087270Y-100127318D01*
X150028744Y-100127318D01*
X149974672Y-100149715D01*
X149951941Y-100168370D01*
X149547880Y-100572431D01*
X149529225Y-100595162D01*
X149527162Y-100600141D01*
X149523632Y-100604212D01*
X149511643Y-100631063D01*
X149461136Y-100782586D01*
X149457837Y-100797093D01*
X149456320Y-100800756D01*
X149455797Y-100806064D01*
X149454616Y-100811259D01*
X149454896Y-100815208D01*
X149453438Y-100830020D01*
X149054589Y-100830020D01*
X150094005Y-99790604D01*
X150365458Y-99790604D01*
X150365458Y-99849130D01*
X150387855Y-99903202D01*
X150429241Y-99944588D01*
X150483313Y-99966985D01*
X150541839Y-99966985D01*
X150595911Y-99944588D01*
X150618642Y-99925933D01*
X151017652Y-99526923D01*
X151310596Y-99819867D01*
X151063109Y-100067355D01*
X151044454Y-100090086D01*
X151022057Y-100144158D01*
X151022057Y-100202684D01*
X151044454Y-100256757D01*
X151085840Y-100298142D01*
X151139912Y-100320539D01*
X151198438Y-100320539D01*
X151252511Y-100298142D01*
X151275241Y-100279487D01*
X151522728Y-100031999D01*
X151866180Y-100375451D01*
X151467170Y-100774461D01*
X151448515Y-100797192D01*
X151426118Y-100851264D01*
X151426118Y-100909790D01*
X151448515Y-100963862D01*
X151489901Y-101005248D01*
X151543973Y-101027645D01*
X151602499Y-101027645D01*
X151656571Y-101005248D01*
X151679302Y-100986593D01*
X152184378Y-100481517D01*
X152203033Y-100458787D01*
X152225430Y-100404714D01*
X152225430Y-100346188D01*
X152203033Y-100292116D01*
X152184378Y-100269385D01*
X151123718Y-99208725D01*
X151100987Y-99190070D01*
X151046915Y-99167673D01*
X150988389Y-99167673D01*
X150934316Y-99190070D01*
X150911586Y-99208725D01*
X150406510Y-99713801D01*
X150387855Y-99736532D01*
X150365458Y-99790604D01*
X150094005Y-99790604D01*
X150952634Y-98931975D01*
X151224087Y-98931975D01*
X151224087Y-98990501D01*
X151246484Y-99044573D01*
X151287870Y-99085959D01*
X151341942Y-99108356D01*
X151400468Y-99108356D01*
X151454540Y-99085959D01*
X151477271Y-99067304D01*
X151674251Y-98870324D01*
X152628845Y-99824918D01*
X152651576Y-99843573D01*
X152705648Y-99865970D01*
X152764174Y-99865970D01*
X152818247Y-99843573D01*
X152859632Y-99802188D01*
X152882029Y-99748115D01*
X152882029Y-99689589D01*
X152859632Y-99635517D01*
X152840977Y-99612786D01*
X152781855Y-99553664D01*
X154017605Y-99553664D01*
X154017605Y-99612190D01*
X154040002Y-99666262D01*
X154081388Y-99707648D01*
X154135460Y-99730045D01*
X154193986Y-99730045D01*
X154248058Y-99707648D01*
X154270789Y-99688993D01*
X154669799Y-99289983D01*
X154962743Y-99582927D01*
X154715256Y-99830414D01*
X154696601Y-99853145D01*
X154674204Y-99907217D01*
X154674204Y-99965743D01*
X154696601Y-100019815D01*
X154737987Y-100061201D01*
X154792059Y-100083598D01*
X154850585Y-100083598D01*
X154904657Y-100061201D01*
X154927388Y-100042546D01*
X155174875Y-99795059D01*
X155624393Y-100244577D01*
X155647124Y-100263232D01*
X155701196Y-100285629D01*
X155759722Y-100285629D01*
X155813795Y-100263232D01*
X155855180Y-100221847D01*
X155877577Y-100167774D01*
X155877577Y-100109248D01*
X155855180Y-100055176D01*
X155836525Y-100032445D01*
X154775865Y-98971785D01*
X154753134Y-98953130D01*
X154699062Y-98930733D01*
X154640536Y-98930733D01*
X154586463Y-98953130D01*
X154563733Y-98971785D01*
X154058657Y-99476861D01*
X154040002Y-99499592D01*
X154017605Y-99553664D01*
X152781855Y-99553664D01*
X151886383Y-98658192D01*
X152083363Y-98461212D01*
X152102018Y-98438481D01*
X152124415Y-98384409D01*
X152124415Y-98325883D01*
X152106279Y-98282098D01*
X152150064Y-98300234D01*
X152208590Y-98300234D01*
X152262662Y-98277837D01*
X152285393Y-98259182D01*
X152482373Y-98062202D01*
X153436967Y-99016796D01*
X153459698Y-99035451D01*
X153513770Y-99057848D01*
X153572296Y-99057848D01*
X153626369Y-99035451D01*
X153667754Y-98994066D01*
X153690151Y-98939993D01*
X153690151Y-98881467D01*
X153667754Y-98827395D01*
X153649099Y-98804664D01*
X153488962Y-98644527D01*
X154926742Y-98644527D01*
X154926742Y-98703053D01*
X154949139Y-98757125D01*
X154990525Y-98798511D01*
X155044597Y-98820908D01*
X155103123Y-98820908D01*
X155157195Y-98798511D01*
X155179926Y-98779856D01*
X155578936Y-98380846D01*
X155871880Y-98673790D01*
X155624393Y-98921277D01*
X155605738Y-98944008D01*
X155583341Y-98998080D01*
X155583341Y-99056606D01*
X155605738Y-99110678D01*
X155647124Y-99152064D01*
X155701196Y-99174461D01*
X155759722Y-99174461D01*
X155813794Y-99152064D01*
X155836525Y-99133409D01*
X156084012Y-98885922D01*
X156533530Y-99335440D01*
X156556261Y-99354095D01*
X156610333Y-99376492D01*
X156668859Y-99376492D01*
X156722932Y-99354095D01*
X156764317Y-99312710D01*
X156786714Y-99258637D01*
X156786714Y-99200111D01*
X156764317Y-99146039D01*
X156745662Y-99123308D01*
X155685002Y-98062648D01*
X155662271Y-98043993D01*
X155608199Y-98021596D01*
X155549673Y-98021596D01*
X155495600Y-98043993D01*
X155472870Y-98062648D01*
X154967794Y-98567724D01*
X154949139Y-98590455D01*
X154926742Y-98644527D01*
X153488962Y-98644527D01*
X152694505Y-97850070D01*
X152891485Y-97653090D01*
X152910140Y-97630359D01*
X152932537Y-97576287D01*
X152932537Y-97517761D01*
X152910140Y-97463688D01*
X152868755Y-97422303D01*
X152814682Y-97399906D01*
X152756156Y-97399906D01*
X152702084Y-97422303D01*
X152679353Y-97440958D01*
X152073261Y-98047050D01*
X152054606Y-98069781D01*
X152032209Y-98123853D01*
X152032209Y-98182379D01*
X152050344Y-98226163D01*
X152006560Y-98208028D01*
X151948034Y-98208028D01*
X151893962Y-98230425D01*
X151871231Y-98249080D01*
X151265139Y-98855172D01*
X151246484Y-98877903D01*
X151224087Y-98931975D01*
X150952634Y-98931975D01*
X152911929Y-96972680D01*
X153192180Y-96972680D01*
X153193513Y-96991441D01*
X153192180Y-97010203D01*
X153195568Y-97020367D01*
X153196328Y-97031060D01*
X153206838Y-97058523D01*
X153913945Y-98472736D01*
X153929610Y-98497621D01*
X153973825Y-98535968D01*
X154029347Y-98554476D01*
X154087728Y-98550327D01*
X154140077Y-98524153D01*
X154178423Y-98479938D01*
X154196931Y-98424415D01*
X154192782Y-98366035D01*
X154182273Y-98338572D01*
X154028592Y-98031211D01*
X154380773Y-97679030D01*
X154688134Y-97832711D01*
X154715598Y-97843221D01*
X154773978Y-97847369D01*
X154829500Y-97828861D01*
X154873715Y-97790515D01*
X154899890Y-97738166D01*
X154904038Y-97679785D01*
X154885531Y-97624263D01*
X154875876Y-97613130D01*
X156085535Y-97613130D01*
X156085535Y-97815160D01*
X156088417Y-97844424D01*
X156092684Y-97854726D01*
X156094326Y-97865758D01*
X156106911Y-97892334D01*
X156258434Y-98144872D01*
X156261490Y-98148989D01*
X156262337Y-98151033D01*
X156269358Y-98159588D01*
X156275961Y-98168483D01*
X156277739Y-98169800D01*
X156280992Y-98173764D01*
X156634546Y-98527318D01*
X156638509Y-98530570D01*
X156639827Y-98532349D01*
X156648721Y-98538951D01*
X156657277Y-98545973D01*
X156659320Y-98546819D01*
X156663438Y-98549876D01*
X156915976Y-98701398D01*
X156942552Y-98713983D01*
X156953583Y-98715624D01*
X156963886Y-98719892D01*
X156993150Y-98722774D01*
X157195180Y-98722774D01*
X157209985Y-98721315D01*
X157213940Y-98721597D01*
X157219141Y-98720414D01*
X157224444Y-98719892D01*
X157228101Y-98718376D01*
X157242614Y-98715077D01*
X157394137Y-98664570D01*
X157420987Y-98652582D01*
X157425058Y-98649050D01*
X157430038Y-98646988D01*
X157452769Y-98628333D01*
X157654800Y-98426302D01*
X157673455Y-98403571D01*
X157675516Y-98398593D01*
X157679049Y-98394521D01*
X157691037Y-98367670D01*
X157741544Y-98216147D01*
X157744843Y-98201634D01*
X157746359Y-98197977D01*
X157746881Y-98192674D01*
X157748064Y-98187473D01*
X157747782Y-98183518D01*
X157749241Y-98168713D01*
X157749241Y-97966683D01*
X157746359Y-97937419D01*
X157742091Y-97927116D01*
X157740450Y-97916085D01*
X157727865Y-97889509D01*
X157576343Y-97636971D01*
X157573286Y-97632853D01*
X157572440Y-97630810D01*
X157565418Y-97622254D01*
X157558816Y-97613360D01*
X157557037Y-97612042D01*
X157553785Y-97608079D01*
X157200231Y-97254525D01*
X157196267Y-97251272D01*
X157194950Y-97249494D01*
X157186055Y-97242891D01*
X157177500Y-97235870D01*
X157175456Y-97235023D01*
X157171339Y-97231967D01*
X156918801Y-97080444D01*
X156892225Y-97067859D01*
X156881193Y-97066217D01*
X156870891Y-97061950D01*
X156841627Y-97059068D01*
X156639596Y-97059068D01*
X156624784Y-97060526D01*
X156620834Y-97060246D01*
X156615638Y-97061427D01*
X156610332Y-97061950D01*
X156606670Y-97063466D01*
X156592161Y-97066766D01*
X156440639Y-97117274D01*
X156413788Y-97129262D01*
X156409716Y-97132793D01*
X156404739Y-97134855D01*
X156382008Y-97153510D01*
X156179977Y-97355541D01*
X156161322Y-97378272D01*
X156159259Y-97383251D01*
X156155729Y-97387322D01*
X156143740Y-97414173D01*
X156093233Y-97565696D01*
X156089934Y-97580203D01*
X156088417Y-97583866D01*
X156087894Y-97589174D01*
X156086713Y-97594369D01*
X156086993Y-97598318D01*
X156085535Y-97613130D01*
X154875876Y-97613130D01*
X154847184Y-97580048D01*
X154822298Y-97564383D01*
X153408084Y-96857277D01*
X153380621Y-96846767D01*
X153369927Y-96846007D01*
X153359763Y-96842619D01*
X153341001Y-96843952D01*
X153322240Y-96842619D01*
X153312075Y-96846007D01*
X153301383Y-96846767D01*
X153284555Y-96855181D01*
X153266718Y-96861127D01*
X153258623Y-96868147D01*
X153249034Y-96872942D01*
X153236711Y-96887150D01*
X153222503Y-96899473D01*
X153217708Y-96909062D01*
X153210688Y-96917157D01*
X153204742Y-96934993D01*
X153196328Y-96951822D01*
X153195568Y-96962515D01*
X153192180Y-96972680D01*
X152911929Y-96972680D01*
X153650783Y-96233826D01*
X154049632Y-96233826D01*
X154049632Y-96334841D01*
X154051090Y-96349652D01*
X154050810Y-96353602D01*
X154051991Y-96358796D01*
X154052514Y-96364105D01*
X154054031Y-96367767D01*
X154057330Y-96382275D01*
X154107837Y-96533798D01*
X154119826Y-96560649D01*
X154123356Y-96564719D01*
X154125419Y-96569699D01*
X154144073Y-96592429D01*
X154245088Y-96693445D01*
X154267819Y-96712100D01*
X154272795Y-96714161D01*
X154276870Y-96717695D01*
X154303721Y-96729683D01*
X154455244Y-96780190D01*
X154469756Y-96783489D01*
X154473414Y-96785005D01*
X154478716Y-96785527D01*
X154483918Y-96786710D01*
X154487872Y-96786428D01*
X154502678Y-96787887D01*
X154504351Y-96787887D01*
X154504201Y-96789410D01*
X154504201Y-96890425D01*
X154505659Y-96905230D01*
X154505378Y-96909185D01*
X154506560Y-96914386D01*
X154507083Y-96919689D01*
X154508598Y-96923346D01*
X154511898Y-96937859D01*
X154562405Y-97089382D01*
X154574393Y-97116232D01*
X154577924Y-97120303D01*
X154579987Y-97125283D01*
X154598642Y-97148014D01*
X154750165Y-97299537D01*
X154772896Y-97318192D01*
X154777875Y-97320254D01*
X154781946Y-97323785D01*
X154808797Y-97335773D01*
X154960319Y-97386281D01*
X154974828Y-97389580D01*
X154978490Y-97391097D01*
X154983798Y-97391619D01*
X154988993Y-97392801D01*
X154992942Y-97392520D01*
X155007754Y-97393979D01*
X155108769Y-97393979D01*
X155123580Y-97392520D01*
X155127530Y-97392801D01*
X155132724Y-97391619D01*
X155138033Y-97391097D01*
X155141695Y-97389579D01*
X155156203Y-97386281D01*
X155307726Y-97335774D01*
X155334577Y-97323785D01*
X155338647Y-97320254D01*
X155343627Y-97318192D01*
X155366358Y-97299537D01*
X155770419Y-96895476D01*
X155789069Y-96872750D01*
X155789074Y-96872746D01*
X155811471Y-96818673D01*
X155811471Y-96760147D01*
X155809913Y-96756386D01*
X155789074Y-96706074D01*
X155789069Y-96706069D01*
X155770419Y-96683344D01*
X154709759Y-95622684D01*
X154687028Y-95604029D01*
X154632956Y-95581632D01*
X154574430Y-95581632D01*
X154536194Y-95597469D01*
X154520357Y-95604029D01*
X154497627Y-95622684D01*
X154144074Y-95976237D01*
X154125419Y-95998968D01*
X154123356Y-96003947D01*
X154119826Y-96008018D01*
X154107837Y-96034869D01*
X154057330Y-96186392D01*
X154054031Y-96200899D01*
X154052514Y-96204562D01*
X154051991Y-96209870D01*
X154050810Y-96215065D01*
X154051090Y-96219014D01*
X154049632Y-96233826D01*
X153650783Y-96233826D01*
X155033009Y-94851600D01*
X158249107Y-98067698D01*
G37*
D11*
X109763266Y-84534228D02*
X110470373Y-83827121D01*
X110470373Y-83827121D02*
X109359205Y-84130167D01*
X109359205Y-84130167D02*
X110066312Y-83423060D01*
X108685770Y-83322045D02*
X108685770Y-83389388D01*
X108685770Y-83389388D02*
X108753114Y-83524075D01*
X108753114Y-83524075D02*
X108820457Y-83591419D01*
X108820457Y-83591419D02*
X108955144Y-83658762D01*
X108955144Y-83658762D02*
X109089831Y-83658762D01*
X109089831Y-83658762D02*
X109190847Y-83625091D01*
X109190847Y-83625091D02*
X109359205Y-83524075D01*
X109359205Y-83524075D02*
X109460221Y-83423060D01*
X109460221Y-83423060D02*
X109561236Y-83254701D01*
X109561236Y-83254701D02*
X109594908Y-83153686D01*
X109594908Y-83153686D02*
X109594908Y-83018999D01*
X109594908Y-83018999D02*
X109527564Y-82884312D01*
X109527564Y-82884312D02*
X109460221Y-82816968D01*
X109460221Y-82816968D02*
X109325534Y-82749625D01*
X109325534Y-82749625D02*
X109258190Y-82749625D01*
X108382725Y-83086343D02*
X108248038Y-83018999D01*
X108248038Y-83018999D02*
X108079679Y-82850640D01*
X108079679Y-82850640D02*
X108046007Y-82749625D01*
X108046007Y-82749625D02*
X108046007Y-82682281D01*
X108046007Y-82682281D02*
X108079679Y-82581266D01*
X108079679Y-82581266D02*
X108147022Y-82513923D01*
X108147022Y-82513923D02*
X108248038Y-82480251D01*
X108248038Y-82480251D02*
X108315381Y-82480251D01*
X108315381Y-82480251D02*
X108416396Y-82513923D01*
X108416396Y-82513923D02*
X108584755Y-82614938D01*
X108584755Y-82614938D02*
X108685770Y-82648610D01*
X108685770Y-82648610D02*
X108753114Y-82648610D01*
X108753114Y-82648610D02*
X108854129Y-82614938D01*
X108854129Y-82614938D02*
X108921473Y-82547594D01*
X108921473Y-82547594D02*
X108955144Y-82446579D01*
X108955144Y-82446579D02*
X108955144Y-82379236D01*
X108955144Y-82379236D02*
X108921473Y-82278220D01*
X108921473Y-82278220D02*
X108753114Y-82109862D01*
X108753114Y-82109862D02*
X108618427Y-82042518D01*
D10*
X145778150Y-72316323D02*
X146384242Y-72922414D01*
X147141856Y-71558708D02*
X146081196Y-72619368D01*
X147798455Y-72215307D02*
X146737795Y-73275967D01*
X148253024Y-72669876D02*
X147697440Y-73225460D01*
X147697440Y-73225460D02*
X147545917Y-73275967D01*
X147545917Y-73275967D02*
X147394394Y-73225460D01*
X147394394Y-73225460D02*
X147242871Y-73073937D01*
X147242871Y-73073937D02*
X147192364Y-72922414D01*
X147192364Y-72922414D02*
X147192364Y-72821399D01*
X148505562Y-74336628D02*
X149212669Y-73629521D01*
X148050994Y-73882059D02*
X148606577Y-73326475D01*
X148606577Y-73326475D02*
X148758100Y-73275968D01*
X148758100Y-73275968D02*
X148909623Y-73326475D01*
X148909623Y-73326475D02*
X149061146Y-73477998D01*
X149061146Y-73477998D02*
X149111654Y-73629521D01*
X149111654Y-73629521D02*
X149111654Y-73730536D01*
X149717745Y-74134597D02*
X149010639Y-74841704D01*
X149111654Y-74740689D02*
X149111654Y-74841704D01*
X149111654Y-74841704D02*
X149162161Y-74993227D01*
X149162161Y-74993227D02*
X149313684Y-75144750D01*
X149313684Y-75144750D02*
X149465207Y-75195257D01*
X149465207Y-75195257D02*
X149616730Y-75144750D01*
X149616730Y-75144750D02*
X150172314Y-74589166D01*
X149616730Y-75144750D02*
X149566223Y-75296273D01*
X149566223Y-75296273D02*
X149616730Y-75447796D01*
X149616730Y-75447796D02*
X149768253Y-75599319D01*
X149768253Y-75599319D02*
X149919776Y-75649826D01*
X149919776Y-75649826D02*
X150071299Y-75599319D01*
X150071299Y-75599319D02*
X150626883Y-75043735D01*
X151131959Y-75548811D02*
X150071299Y-76609471D01*
X150475360Y-76205410D02*
X150525867Y-76356933D01*
X150525867Y-76356933D02*
X150727898Y-76558963D01*
X150727898Y-76558963D02*
X150879421Y-76609471D01*
X150879421Y-76609471D02*
X150980436Y-76609471D01*
X150980436Y-76609471D02*
X151131959Y-76558963D01*
X151131959Y-76558963D02*
X151435005Y-76255918D01*
X151435005Y-76255918D02*
X151485512Y-76104395D01*
X151485512Y-76104395D02*
X151485512Y-76003380D01*
X151485512Y-76003380D02*
X151435005Y-75851857D01*
X151435005Y-75851857D02*
X151232974Y-75649826D01*
X151232974Y-75649826D02*
X151081451Y-75599319D01*
X151990589Y-76508456D02*
X152142112Y-76558964D01*
X152142112Y-76558964D02*
X152344142Y-76760994D01*
X152344142Y-76760994D02*
X152394650Y-76912517D01*
X152394650Y-76912517D02*
X152344142Y-77064040D01*
X152344142Y-77064040D02*
X152293634Y-77114547D01*
X152293634Y-77114547D02*
X152142112Y-77165055D01*
X152142112Y-77165055D02*
X151990589Y-77114547D01*
X151990589Y-77114547D02*
X151839066Y-76963025D01*
X151839066Y-76963025D02*
X151687543Y-76912517D01*
X151687543Y-76912517D02*
X151536020Y-76963025D01*
X151536020Y-76963025D02*
X151485512Y-77013532D01*
X151485512Y-77013532D02*
X151435005Y-77165055D01*
X151435005Y-77165055D02*
X151485512Y-77316578D01*
X151485512Y-77316578D02*
X151637035Y-77468101D01*
X151637035Y-77468101D02*
X151788558Y-77518608D01*
X151889574Y-78427746D02*
X152748203Y-77569116D01*
X152748203Y-77569116D02*
X152899726Y-77518609D01*
X152899726Y-77518609D02*
X153000741Y-77518609D01*
X153000741Y-77518609D02*
X153152264Y-77569116D01*
X153152264Y-77569116D02*
X153354295Y-77771147D01*
X153354295Y-77771147D02*
X153404802Y-77922670D01*
X153404802Y-77922670D02*
X153404802Y-78023685D01*
X153404802Y-78023685D02*
X153354295Y-78175208D01*
X153354295Y-78175208D02*
X152495665Y-79033837D01*
X153354295Y-79185361D02*
X154414955Y-78124700D01*
X153404803Y-79134853D02*
X153455310Y-79286376D01*
X153455310Y-79286376D02*
X153657341Y-79488406D01*
X153657341Y-79488406D02*
X153808864Y-79538914D01*
X153808864Y-79538914D02*
X153909879Y-79538914D01*
X153909879Y-79538914D02*
X154061402Y-79488406D01*
X154061402Y-79488406D02*
X154364448Y-79185361D01*
X154364448Y-79185361D02*
X154414955Y-79033838D01*
X154414955Y-79033838D02*
X154414955Y-78932823D01*
X154414955Y-78932823D02*
X154364448Y-78781300D01*
X154364448Y-78781300D02*
X154162417Y-78579269D01*
X154162417Y-78579269D02*
X154010894Y-78528762D01*
X154920032Y-79538914D02*
X155021047Y-79538914D01*
X155021047Y-79538914D02*
X155021047Y-79437899D01*
X155021047Y-79437899D02*
X154920032Y-79437899D01*
X154920032Y-79437899D02*
X154920032Y-79538914D01*
X154920032Y-79538914D02*
X155021047Y-79437899D01*
X154616986Y-79841960D02*
X153960387Y-80397544D01*
X153960387Y-80397544D02*
X153960387Y-80498559D01*
X153960387Y-80498559D02*
X154061402Y-80498559D01*
X154061402Y-80498559D02*
X154616986Y-79841960D01*
X154616986Y-79841960D02*
X153960387Y-80498559D01*
X147485753Y-70608720D02*
X148091845Y-71214811D01*
X148849459Y-69851105D02*
X147788799Y-70911765D01*
X149506058Y-70507704D02*
X148798952Y-71214811D01*
X149000982Y-71012781D02*
X148950474Y-71164303D01*
X148950474Y-71164303D02*
X148950474Y-71265319D01*
X148950474Y-71265319D02*
X149000982Y-71416842D01*
X149000982Y-71416842D02*
X149101997Y-71517857D01*
X150617226Y-71618872D02*
X150061642Y-72174456D01*
X150061642Y-72174456D02*
X149910119Y-72224963D01*
X149910119Y-72224963D02*
X149758596Y-72174456D01*
X149758596Y-72174456D02*
X149556566Y-71972425D01*
X149556566Y-71972425D02*
X149506058Y-71820902D01*
X150566718Y-71669379D02*
X150516211Y-71517857D01*
X150516211Y-71517857D02*
X150263672Y-71265318D01*
X150263672Y-71265318D02*
X150112150Y-71214811D01*
X150112150Y-71214811D02*
X149960627Y-71265318D01*
X149960627Y-71265318D02*
X149859611Y-71366334D01*
X149859611Y-71366334D02*
X149809104Y-71517857D01*
X149809104Y-71517857D02*
X149859611Y-71669379D01*
X149859611Y-71669379D02*
X150112150Y-71921918D01*
X150112150Y-71921918D02*
X150162657Y-72073440D01*
X151526363Y-72629024D02*
X151475856Y-72477502D01*
X151475856Y-72477502D02*
X151273825Y-72275471D01*
X151273825Y-72275471D02*
X151122302Y-72224963D01*
X151122302Y-72224963D02*
X151021287Y-72224963D01*
X151021287Y-72224963D02*
X150869764Y-72275471D01*
X150869764Y-72275471D02*
X150566718Y-72578517D01*
X150566718Y-72578517D02*
X150516211Y-72730040D01*
X150516211Y-72730040D02*
X150516211Y-72831055D01*
X150516211Y-72831055D02*
X150566718Y-72982578D01*
X150566718Y-72982578D02*
X150768749Y-73184608D01*
X150768749Y-73184608D02*
X150920272Y-73235116D01*
X152031439Y-73033085D02*
X150970779Y-74093745D01*
X151728394Y-73538162D02*
X152435500Y-73437146D01*
X151728394Y-74144253D02*
X151728394Y-73336131D01*
X152890069Y-73891715D02*
X151829409Y-74952375D01*
X152233470Y-74548314D02*
X152283978Y-74699837D01*
X152283978Y-74699837D02*
X152486008Y-74901868D01*
X152486008Y-74901868D02*
X152637531Y-74952375D01*
X152637531Y-74952375D02*
X152738546Y-74952375D01*
X152738546Y-74952375D02*
X152890069Y-74901868D01*
X152890069Y-74901868D02*
X153193115Y-74598822D01*
X153193115Y-74598822D02*
X153243623Y-74447299D01*
X153243623Y-74447299D02*
X153243623Y-74346284D01*
X153243623Y-74346284D02*
X153193115Y-74194761D01*
X153193115Y-74194761D02*
X152991084Y-73992730D01*
X152991084Y-73992730D02*
X152839562Y-73942223D01*
X154304283Y-75305929D02*
X153748699Y-75861513D01*
X153748699Y-75861513D02*
X153597176Y-75912020D01*
X153597176Y-75912020D02*
X153445653Y-75861513D01*
X153445653Y-75861513D02*
X153243623Y-75659482D01*
X153243623Y-75659482D02*
X153193115Y-75507959D01*
X154253775Y-75356436D02*
X154203268Y-75204914D01*
X154203268Y-75204914D02*
X153950729Y-74952375D01*
X153950729Y-74952375D02*
X153799207Y-74901868D01*
X153799207Y-74901868D02*
X153647684Y-74952375D01*
X153647684Y-74952375D02*
X153546668Y-75053391D01*
X153546668Y-75053391D02*
X153496161Y-75204914D01*
X153496161Y-75204914D02*
X153546668Y-75356436D01*
X153546668Y-75356436D02*
X153799207Y-75608975D01*
X153799207Y-75608975D02*
X153849714Y-75760497D01*
X154960882Y-75962528D02*
X154809359Y-75912020D01*
X154809359Y-75912020D02*
X154657836Y-75962528D01*
X154657836Y-75962528D02*
X153748699Y-76871665D01*
X155516466Y-76518112D02*
X155364943Y-76467604D01*
X155364943Y-76467604D02*
X155213420Y-76518112D01*
X155213420Y-76518112D02*
X154304283Y-77427249D01*
X155920527Y-78336386D02*
X156880171Y-77881817D01*
X156880171Y-77881817D02*
X156425603Y-78841462D01*
X156981187Y-80104153D02*
X156476110Y-79599077D01*
X156476110Y-79599077D02*
X156930679Y-79043493D01*
X156930679Y-79043493D02*
X156930679Y-79144508D01*
X156930679Y-79144508D02*
X156981187Y-79296031D01*
X156981187Y-79296031D02*
X157233725Y-79548569D01*
X157233725Y-79548569D02*
X157385248Y-79599077D01*
X157385248Y-79599077D02*
X157486263Y-79599077D01*
X157486263Y-79599077D02*
X157637786Y-79548569D01*
X157637786Y-79548569D02*
X157890324Y-79296031D01*
X157890324Y-79296031D02*
X157940831Y-79144508D01*
X157940831Y-79144508D02*
X157940831Y-79043493D01*
X157940831Y-79043493D02*
X157890324Y-78891970D01*
X157890324Y-78891970D02*
X157637786Y-78639432D01*
X157637786Y-78639432D02*
X157486263Y-78588924D01*
X157486263Y-78588924D02*
X157385248Y-78588924D01*
D11*
X123724915Y-106905987D02*
X124229991Y-107411063D01*
X124229991Y-107411063D02*
X124364678Y-107478407D01*
X124364678Y-107478407D02*
X124499365Y-107478407D01*
X124499365Y-107478407D02*
X124634052Y-107411063D01*
X124634052Y-107411063D02*
X124701396Y-107343720D01*
X123051480Y-107579422D02*
X123388197Y-107242705D01*
X123388197Y-107242705D02*
X123758586Y-107545750D01*
X123758586Y-107545750D02*
X123691243Y-107545750D01*
X123691243Y-107545750D02*
X123590228Y-107579422D01*
X123590228Y-107579422D02*
X123421869Y-107747781D01*
X123421869Y-107747781D02*
X123388197Y-107848796D01*
X123388197Y-107848796D02*
X123388197Y-107916140D01*
X123388197Y-107916140D02*
X123421869Y-108017155D01*
X123421869Y-108017155D02*
X123590228Y-108185514D01*
X123590228Y-108185514D02*
X123691243Y-108219185D01*
X123691243Y-108219185D02*
X123758586Y-108219185D01*
X123758586Y-108219185D02*
X123859602Y-108185514D01*
X123859602Y-108185514D02*
X124027960Y-108017155D01*
X124027960Y-108017155D02*
X124061632Y-107916140D01*
X124061632Y-107916140D02*
X124061632Y-107848796D01*
X158373146Y-72611309D02*
X158878222Y-73116385D01*
X158878222Y-73116385D02*
X159012909Y-73183729D01*
X159012909Y-73183729D02*
X159147596Y-73183729D01*
X159147596Y-73183729D02*
X159282283Y-73116385D01*
X159282283Y-73116385D02*
X159349627Y-73049042D01*
X157969085Y-73486775D02*
X158440489Y-73958179D01*
X157868069Y-73049042D02*
X158541504Y-73385759D01*
X158541504Y-73385759D02*
X158103772Y-73823492D01*
X91949931Y-76946691D02*
X92664216Y-76946691D01*
X92664216Y-76946691D02*
X92807073Y-76899072D01*
X92807073Y-76899072D02*
X92902312Y-76803834D01*
X92902312Y-76803834D02*
X92949931Y-76660977D01*
X92949931Y-76660977D02*
X92949931Y-76565739D01*
X91949931Y-77327644D02*
X91949931Y-77946691D01*
X91949931Y-77946691D02*
X92330883Y-77613358D01*
X92330883Y-77613358D02*
X92330883Y-77756215D01*
X92330883Y-77756215D02*
X92378502Y-77851453D01*
X92378502Y-77851453D02*
X92426121Y-77899072D01*
X92426121Y-77899072D02*
X92521359Y-77946691D01*
X92521359Y-77946691D02*
X92759454Y-77946691D01*
X92759454Y-77946691D02*
X92854692Y-77899072D01*
X92854692Y-77899072D02*
X92902312Y-77851453D01*
X92902312Y-77851453D02*
X92949931Y-77756215D01*
X92949931Y-77756215D02*
X92949931Y-77470501D01*
X92949931Y-77470501D02*
X92902312Y-77375263D01*
X92902312Y-77375263D02*
X92854692Y-77327644D01*
D12*
X146648625Y-93258135D02*
X146563099Y-93429188D01*
X146563099Y-93429188D02*
X146349283Y-93643003D01*
X146349283Y-93643003D02*
X146220994Y-93685766D01*
X146220994Y-93685766D02*
X146135468Y-93685766D01*
X146135468Y-93685766D02*
X146007178Y-93643003D01*
X146007178Y-93643003D02*
X145921652Y-93557477D01*
X145921652Y-93557477D02*
X145878889Y-93429188D01*
X145878889Y-93429188D02*
X145878889Y-93343661D01*
X145878889Y-93343661D02*
X145921652Y-93215372D01*
X145921652Y-93215372D02*
X146049941Y-93001557D01*
X146049941Y-93001557D02*
X146092704Y-92873267D01*
X146092704Y-92873267D02*
X146092704Y-92787741D01*
X146092704Y-92787741D02*
X146049941Y-92659452D01*
X146049941Y-92659452D02*
X145964415Y-92573925D01*
X145964415Y-92573925D02*
X145836126Y-92531162D01*
X145836126Y-92531162D02*
X145750599Y-92531162D01*
X145750599Y-92531162D02*
X145622310Y-92573925D01*
X145622310Y-92573925D02*
X145408494Y-92787741D01*
X145408494Y-92787741D02*
X145322968Y-92958793D01*
X144980863Y-93215372D02*
X145665073Y-94327213D01*
X145665073Y-94327213D02*
X144852574Y-93856819D01*
X144852574Y-93856819D02*
X145322968Y-94669318D01*
X145322968Y-94669318D02*
X144211127Y-93985108D01*
X144296653Y-95695634D02*
X144809810Y-95182476D01*
X144553232Y-95439055D02*
X143655206Y-94541029D01*
X143655206Y-94541029D02*
X143869022Y-94583793D01*
X143869022Y-94583793D02*
X144040074Y-94583793D01*
X144040074Y-94583793D02*
X144168363Y-94541029D01*
D11*
X128493113Y-41212734D02*
X128493113Y-41927019D01*
X128493113Y-41927019D02*
X128540732Y-42069876D01*
X128540732Y-42069876D02*
X128635970Y-42165115D01*
X128635970Y-42165115D02*
X128778827Y-42212734D01*
X128778827Y-42212734D02*
X128874065Y-42212734D01*
X128064541Y-41307972D02*
X128016922Y-41260353D01*
X128016922Y-41260353D02*
X127921684Y-41212734D01*
X127921684Y-41212734D02*
X127683589Y-41212734D01*
X127683589Y-41212734D02*
X127588351Y-41260353D01*
X127588351Y-41260353D02*
X127540732Y-41307972D01*
X127540732Y-41307972D02*
X127493113Y-41403210D01*
X127493113Y-41403210D02*
X127493113Y-41498448D01*
X127493113Y-41498448D02*
X127540732Y-41641305D01*
X127540732Y-41641305D02*
X128112160Y-42212734D01*
X128112160Y-42212734D02*
X127493113Y-42212734D01*
X141837454Y-34749276D02*
X142342530Y-35254352D01*
X142342530Y-35254352D02*
X142477217Y-35321695D01*
X142477217Y-35321695D02*
X142611904Y-35321695D01*
X142611904Y-35321695D02*
X142746591Y-35254352D01*
X142746591Y-35254352D02*
X142813935Y-35187008D01*
X142207843Y-35793100D02*
X141500736Y-35085993D01*
X141500736Y-35085993D02*
X141231362Y-35355367D01*
X141231362Y-35355367D02*
X141197691Y-35456383D01*
X141197691Y-35456383D02*
X141197691Y-35523726D01*
X141197691Y-35523726D02*
X141231362Y-35624741D01*
X141231362Y-35624741D02*
X141332378Y-35725757D01*
X141332378Y-35725757D02*
X141433393Y-35759428D01*
X141433393Y-35759428D02*
X141500736Y-35759428D01*
X141500736Y-35759428D02*
X141601752Y-35725757D01*
X141601752Y-35725757D02*
X141871126Y-35456383D01*
X141130347Y-36870596D02*
X141534408Y-36466535D01*
X141332378Y-36668566D02*
X140625271Y-35961459D01*
X140625271Y-35961459D02*
X140793630Y-35995131D01*
X140793630Y-35995131D02*
X140928317Y-35995131D01*
X140928317Y-35995131D02*
X141029332Y-35961459D01*
X86637163Y-89546516D02*
X87142239Y-90051592D01*
X87142239Y-90051592D02*
X87276926Y-90118935D01*
X87276926Y-90118935D02*
X87411613Y-90118935D01*
X87411613Y-90118935D02*
X87546300Y-90051592D01*
X87546300Y-90051592D02*
X87613644Y-89984248D01*
X87007552Y-90590340D02*
X86300445Y-89883233D01*
X86300445Y-89883233D02*
X86031071Y-90152607D01*
X86031071Y-90152607D02*
X85997400Y-90253623D01*
X85997400Y-90253623D02*
X85997400Y-90320966D01*
X85997400Y-90320966D02*
X86031071Y-90421981D01*
X86031071Y-90421981D02*
X86132087Y-90522997D01*
X86132087Y-90522997D02*
X86233102Y-90556668D01*
X86233102Y-90556668D02*
X86300445Y-90556668D01*
X86300445Y-90556668D02*
X86401461Y-90522997D01*
X86401461Y-90522997D02*
X86670835Y-90253623D01*
X85525995Y-91129088D02*
X85997400Y-91600493D01*
X85424980Y-90691355D02*
X86098415Y-91028073D01*
X86098415Y-91028073D02*
X85660682Y-91465806D01*
D12*
X158492664Y-83535417D02*
X158407138Y-83706470D01*
X158407138Y-83706470D02*
X158193322Y-83920285D01*
X158193322Y-83920285D02*
X158065033Y-83963048D01*
X158065033Y-83963048D02*
X157979507Y-83963048D01*
X157979507Y-83963048D02*
X157851217Y-83920285D01*
X157851217Y-83920285D02*
X157765691Y-83834759D01*
X157765691Y-83834759D02*
X157722928Y-83706470D01*
X157722928Y-83706470D02*
X157722928Y-83620943D01*
X157722928Y-83620943D02*
X157765691Y-83492654D01*
X157765691Y-83492654D02*
X157893980Y-83278839D01*
X157893980Y-83278839D02*
X157936743Y-83150549D01*
X157936743Y-83150549D02*
X157936743Y-83065023D01*
X157936743Y-83065023D02*
X157893980Y-82936734D01*
X157893980Y-82936734D02*
X157808454Y-82851207D01*
X157808454Y-82851207D02*
X157680165Y-82808444D01*
X157680165Y-82808444D02*
X157594638Y-82808444D01*
X157594638Y-82808444D02*
X157466349Y-82851207D01*
X157466349Y-82851207D02*
X157252533Y-83065023D01*
X157252533Y-83065023D02*
X157167007Y-83236075D01*
X156824902Y-83492654D02*
X157509112Y-84604495D01*
X157509112Y-84604495D02*
X156696613Y-84134101D01*
X156696613Y-84134101D02*
X157167007Y-84946600D01*
X157167007Y-84946600D02*
X156055166Y-84262390D01*
X155798587Y-84518970D02*
X155242666Y-85074890D01*
X155242666Y-85074890D02*
X155884113Y-85117653D01*
X155884113Y-85117653D02*
X155755824Y-85245943D01*
X155755824Y-85245943D02*
X155713061Y-85374232D01*
X155713061Y-85374232D02*
X155713061Y-85459758D01*
X155713061Y-85459758D02*
X155755824Y-85588048D01*
X155755824Y-85588048D02*
X155969639Y-85801863D01*
X155969639Y-85801863D02*
X156097929Y-85844626D01*
X156097929Y-85844626D02*
X156183455Y-85844626D01*
X156183455Y-85844626D02*
X156311744Y-85801863D01*
X156311744Y-85801863D02*
X156568323Y-85545285D01*
X156568323Y-85545285D02*
X156611086Y-85416995D01*
X156611086Y-85416995D02*
X156611086Y-85331469D01*
D11*
X128024343Y-73089820D02*
X127519267Y-73594896D01*
X127519267Y-73594896D02*
X127451923Y-73729583D01*
X127451923Y-73729583D02*
X127451923Y-73864270D01*
X127451923Y-73864270D02*
X127519267Y-73998957D01*
X127519267Y-73998957D02*
X127586610Y-74066301D01*
X126610129Y-73089820D02*
X127014190Y-73493881D01*
X126812160Y-73291850D02*
X127519267Y-72584743D01*
X127519267Y-72584743D02*
X127485595Y-72753102D01*
X127485595Y-72753102D02*
X127485595Y-72887789D01*
X127485595Y-72887789D02*
X127519267Y-72988804D01*
D12*
X136572353Y-105455727D02*
X136486827Y-105626780D01*
X136486827Y-105626780D02*
X136273011Y-105840595D01*
X136273011Y-105840595D02*
X136144722Y-105883358D01*
X136144722Y-105883358D02*
X136059196Y-105883358D01*
X136059196Y-105883358D02*
X135930906Y-105840595D01*
X135930906Y-105840595D02*
X135845380Y-105755069D01*
X135845380Y-105755069D02*
X135802617Y-105626780D01*
X135802617Y-105626780D02*
X135802617Y-105541253D01*
X135802617Y-105541253D02*
X135845380Y-105412964D01*
X135845380Y-105412964D02*
X135973669Y-105199149D01*
X135973669Y-105199149D02*
X136016432Y-105070859D01*
X136016432Y-105070859D02*
X136016432Y-104985333D01*
X136016432Y-104985333D02*
X135973669Y-104857044D01*
X135973669Y-104857044D02*
X135888143Y-104771517D01*
X135888143Y-104771517D02*
X135759854Y-104728754D01*
X135759854Y-104728754D02*
X135674327Y-104728754D01*
X135674327Y-104728754D02*
X135546038Y-104771517D01*
X135546038Y-104771517D02*
X135332222Y-104985333D01*
X135332222Y-104985333D02*
X135246696Y-105156385D01*
X134904591Y-105412964D02*
X135588801Y-106524805D01*
X135588801Y-106524805D02*
X134776302Y-106054411D01*
X134776302Y-106054411D02*
X135246696Y-106866910D01*
X135246696Y-106866910D02*
X134134855Y-106182700D01*
X133921039Y-106567569D02*
X133835513Y-106567569D01*
X133835513Y-106567569D02*
X133707223Y-106610332D01*
X133707223Y-106610332D02*
X133493408Y-106824148D01*
X133493408Y-106824148D02*
X133450645Y-106952437D01*
X133450645Y-106952437D02*
X133450645Y-107037963D01*
X133450645Y-107037963D02*
X133493408Y-107166253D01*
X133493408Y-107166253D02*
X133578934Y-107251779D01*
X133578934Y-107251779D02*
X133749986Y-107337305D01*
X133749986Y-107337305D02*
X134776301Y-107337305D01*
X134776301Y-107337305D02*
X134220381Y-107893226D01*
D11*
X133392370Y-69795973D02*
X154944985Y-91348588D01*
X120820011Y-82368332D02*
X133392370Y-69795973D01*
X142372626Y-103920947D02*
X120820011Y-82368332D01*
D13*
X117584292Y-103024335D02*
X119535906Y-101072721D01*
X125001842Y-106538656D02*
X119535906Y-101072721D01*
X123050227Y-108490271D02*
X117584292Y-103024335D01*
X123050227Y-108490271D02*
X125001842Y-106538656D01*
X123948253Y-109388296D02*
X124924060Y-110364104D01*
X124924060Y-110364104D02*
X125899867Y-109388296D01*
X152068475Y-68540152D02*
X154020089Y-66588538D01*
X159486025Y-72054473D02*
X154020089Y-66588538D01*
X157534410Y-74006088D02*
X152068475Y-68540152D01*
X157534410Y-74006088D02*
X159486025Y-72054473D01*
X158432436Y-74904113D02*
X159408243Y-75879921D01*
X159408243Y-75879921D02*
X160384050Y-74904113D01*
X89747112Y-75784026D02*
X89747113Y-77164026D01*
X91127112Y-75784027D02*
X89747112Y-75784026D01*
X92397112Y-75784026D02*
X92397112Y-78544026D01*
X92397112Y-75784026D02*
X100127112Y-75784027D01*
X92397112Y-78544026D02*
X100127112Y-78544025D01*
X100127112Y-75784027D02*
X100127112Y-78544025D01*
D14*
X146608196Y-89531324D02*
X147421369Y-90344496D01*
X140527078Y-95612442D02*
X146608196Y-89531324D01*
X141340251Y-96425615D02*
X140527078Y-95612442D01*
X142754464Y-97839828D02*
X143567637Y-98653001D01*
X149648755Y-92571883D02*
X148835583Y-91758710D01*
X143567637Y-98653001D02*
X149648755Y-92571883D01*
D13*
X126779780Y-41409915D02*
X126779781Y-49139915D01*
X129539780Y-38759915D02*
X128159780Y-38759916D01*
X129539779Y-40139915D02*
X129539780Y-38759915D01*
X129539780Y-41409915D02*
X126779780Y-41409915D01*
X129539780Y-41409915D02*
X129539779Y-49139915D01*
X129539779Y-49139915D02*
X126779781Y-49139915D01*
X139512380Y-35724033D02*
X139936644Y-35299769D01*
X139936644Y-35724033D02*
X139936644Y-35299769D01*
X139936644Y-35724033D02*
X139512380Y-35724033D01*
X141916543Y-34026977D02*
X139936644Y-36006876D01*
X139971999Y-36961470D02*
X140396263Y-37385734D01*
X143295401Y-34486596D02*
X142871137Y-34062332D01*
X141350857Y-37421089D02*
X143330756Y-35441190D01*
X141881187Y-34062332D02*
G75*
G02*
X142871137Y-34062332I494975J-494975D01*
G01*
X139971999Y-36961470D02*
G75*
G02*
X139971999Y-35971520I494973J494975D01*
G01*
X143295401Y-34486596D02*
G75*
G02*
X143295401Y-35476546I-494975J-494975D01*
G01*
X141386213Y-37385734D02*
G75*
G02*
X140396263Y-37385734I-494975J494973D01*
G01*
X86716252Y-88824217D02*
X84736353Y-90804116D01*
X84771708Y-91758710D02*
X85195972Y-92182974D01*
X88095110Y-89283836D02*
X87670846Y-88859572D01*
X86150566Y-92218329D02*
X88130465Y-90238430D01*
X88130465Y-90521273D02*
X88554729Y-90521273D01*
X88130465Y-90521273D02*
X88130465Y-90945537D01*
X88554729Y-90521273D02*
X88130465Y-90945537D01*
X86680896Y-88859572D02*
G75*
G02*
X87670846Y-88859572I494975J-494973D01*
G01*
X84771708Y-91758710D02*
G75*
G02*
X84771708Y-90768760I494975J494975D01*
G01*
X88095110Y-89283836D02*
G75*
G02*
X88095110Y-90273786I-494973J-494975D01*
G01*
X86185922Y-92182974D02*
G75*
G02*
X85195972Y-92182974I-494975J494975D01*
G01*
D14*
X158452235Y-79808606D02*
X159265408Y-80621778D01*
X152371117Y-85889724D02*
X158452235Y-79808606D01*
X153184290Y-86702897D02*
X152371117Y-85889724D01*
X154598503Y-88117110D02*
X155411676Y-88930283D01*
X161492794Y-82849165D02*
X160679622Y-82035992D01*
X155411676Y-88930283D02*
X161492794Y-82849165D01*
D13*
X128499191Y-70191953D02*
X130450806Y-72143568D01*
X126625358Y-72065786D02*
X128499191Y-70191953D01*
X126625358Y-72065786D02*
X128576974Y-74017400D01*
X124751525Y-73939619D02*
X125727333Y-74915426D01*
X125727333Y-72963812D02*
X124751525Y-73939619D01*
X128576974Y-74017400D02*
X130450806Y-72143568D01*
D14*
X136531924Y-101728916D02*
X137345097Y-102542088D01*
X130450806Y-107810034D02*
X136531924Y-101728916D01*
X131263979Y-108623207D02*
X130450806Y-107810034D01*
X132678192Y-110037420D02*
X133491365Y-110850593D01*
X139572483Y-104769475D02*
X138759311Y-103956302D01*
X133491365Y-110850593D02*
X139572483Y-104769475D01*
M02*
