G04 #@! TF.GenerationSoftware,KiCad,Pcbnew,9.0.2*
G04 #@! TF.CreationDate,2025-09-26T15:09:02-04:00*
G04 #@! TF.ProjectId,Trackball,54726163-6b62-4616-9c6c-2e6b69636164,rev?*
G04 #@! TF.SameCoordinates,Original*
G04 #@! TF.FileFunction,Soldermask,Top*
G04 #@! TF.FilePolarity,Negative*
%FSLAX46Y46*%
G04 Gerber Fmt 4.6, Leading zero omitted, Abs format (unit mm)*
G04 Created by KiCad (PCBNEW 9.0.2) date 2025-09-26 15:09:02*
%MOMM*%
%LPD*%
G01*
G04 APERTURE LIST*
G04 APERTURE END LIST*
G36*
X115547204Y-82234215D02*
G01*
X115710386Y-82301807D01*
X115857246Y-82399936D01*
X115982140Y-82524830D01*
X116080269Y-82671690D01*
X116147861Y-82834872D01*
X116182319Y-83008105D01*
X116182319Y-83184731D01*
X116147861Y-83357964D01*
X116080269Y-83521146D01*
X115982140Y-83668006D01*
X115857246Y-83792900D01*
X115710386Y-83891029D01*
X115547204Y-83958621D01*
X115373971Y-83993079D01*
X115370891Y-83993079D01*
X115296617Y-84007853D01*
X115255033Y-84155301D01*
X115278568Y-84177056D01*
X115279234Y-84177540D01*
X115354248Y-84246882D01*
X115355975Y-84248609D01*
X116027795Y-84920428D01*
X116171185Y-84876931D01*
X116185049Y-84807231D01*
X116185049Y-84804157D01*
X116219507Y-84630924D01*
X116287099Y-84467742D01*
X116385228Y-84320882D01*
X116510122Y-84195988D01*
X116656982Y-84097859D01*
X116820164Y-84030267D01*
X116993397Y-83995809D01*
X117170023Y-83995809D01*
X117343256Y-84030267D01*
X117506438Y-84097859D01*
X117653298Y-84195988D01*
X117778192Y-84320882D01*
X117876321Y-84467742D01*
X117943913Y-84630924D01*
X117978371Y-84804157D01*
X117978371Y-84980783D01*
X117943913Y-85154016D01*
X117876321Y-85317198D01*
X117778192Y-85464058D01*
X117653298Y-85588952D01*
X117506438Y-85687081D01*
X117343256Y-85754673D01*
X117170023Y-85789131D01*
X117166937Y-85789131D01*
X117097248Y-85802993D01*
X117053751Y-85946384D01*
X120631166Y-89523800D01*
X124193082Y-93085716D01*
X124262424Y-93160730D01*
X124382420Y-93325891D01*
X124475103Y-93507791D01*
X124538190Y-93701950D01*
X124570125Y-93903587D01*
X124570125Y-94107737D01*
X124538190Y-94309374D01*
X124475103Y-94503533D01*
X124382420Y-94685433D01*
X124262424Y-94850594D01*
X124118068Y-94994950D01*
X123952907Y-95114946D01*
X123771007Y-95207629D01*
X123683331Y-95236117D01*
X123650753Y-95371813D01*
X124369859Y-96090919D01*
X124376912Y-96098549D01*
X124437789Y-96163546D01*
X124441670Y-96168604D01*
X124452526Y-96180348D01*
X124485383Y-96225573D01*
X124562522Y-96326102D01*
X124578389Y-96353584D01*
X124595581Y-96377247D01*
X124622095Y-96429285D01*
X124656221Y-96488391D01*
X124679493Y-96511664D01*
X124738601Y-96545790D01*
X124790639Y-96572305D01*
X124814299Y-96589495D01*
X124841783Y-96605363D01*
X124942318Y-96682506D01*
X124987538Y-96715360D01*
X124999279Y-96726213D01*
X125004339Y-96730096D01*
X125069341Y-96790978D01*
X125076967Y-96798027D01*
X125796070Y-97517130D01*
X125931769Y-97484554D01*
X125960257Y-97396879D01*
X126052940Y-97214979D01*
X126172936Y-97049818D01*
X126317292Y-96905462D01*
X126482453Y-96785466D01*
X126664353Y-96692783D01*
X126858512Y-96629696D01*
X127060149Y-96597761D01*
X127264299Y-96597761D01*
X127465936Y-96629696D01*
X127660095Y-96692783D01*
X127841995Y-96785466D01*
X128007156Y-96905462D01*
X128082170Y-96974804D01*
X128083897Y-96976531D01*
X130396204Y-99288837D01*
X130539594Y-99245340D01*
X130553458Y-99175640D01*
X130553458Y-99172566D01*
X130587916Y-98999333D01*
X130655508Y-98836151D01*
X130753637Y-98689291D01*
X130878531Y-98564397D01*
X131025391Y-98466268D01*
X131188573Y-98398676D01*
X131361806Y-98364218D01*
X131538432Y-98364218D01*
X131711665Y-98398676D01*
X131874847Y-98466268D01*
X132021707Y-98564397D01*
X132146601Y-98689291D01*
X132244730Y-98836151D01*
X132312322Y-98999333D01*
X132346780Y-99172566D01*
X132346780Y-99349192D01*
X132312322Y-99522425D01*
X132244730Y-99685607D01*
X132146601Y-99832467D01*
X132021707Y-99957361D01*
X131874847Y-100055490D01*
X131711665Y-100123082D01*
X131538432Y-100157540D01*
X131535346Y-100157540D01*
X131465657Y-100171402D01*
X131422160Y-100314793D01*
X132192256Y-101084889D01*
X132335646Y-101041392D01*
X132349510Y-100971692D01*
X132349510Y-100968618D01*
X132383968Y-100795385D01*
X132451560Y-100632203D01*
X132549689Y-100485343D01*
X132674583Y-100360449D01*
X132821443Y-100262320D01*
X132984625Y-100194728D01*
X133157858Y-100160270D01*
X133334484Y-100160270D01*
X133507717Y-100194728D01*
X133670899Y-100262320D01*
X133817759Y-100360449D01*
X133942653Y-100485343D01*
X134040782Y-100632203D01*
X134108374Y-100795385D01*
X134142832Y-100968618D01*
X134142832Y-101145244D01*
X134108374Y-101318477D01*
X134040782Y-101481659D01*
X133942653Y-101628519D01*
X133817759Y-101753413D01*
X133670899Y-101851542D01*
X133507717Y-101919134D01*
X133334484Y-101953592D01*
X133331398Y-101953592D01*
X133261709Y-101967454D01*
X133218212Y-102110845D01*
X133988307Y-102880940D01*
X134131697Y-102837443D01*
X134145561Y-102767743D01*
X134145561Y-102764669D01*
X134180019Y-102591436D01*
X134247611Y-102428254D01*
X134345740Y-102281394D01*
X134470634Y-102156500D01*
X134617494Y-102058371D01*
X134780676Y-101990779D01*
X134953909Y-101956321D01*
X135130535Y-101956321D01*
X135303768Y-101990779D01*
X135466950Y-102058371D01*
X135613810Y-102156500D01*
X135738704Y-102281394D01*
X135836833Y-102428254D01*
X135904425Y-102591436D01*
X135938883Y-102764669D01*
X135938883Y-102941295D01*
X135904425Y-103114528D01*
X135836833Y-103277710D01*
X135738704Y-103424570D01*
X135613810Y-103549464D01*
X135466950Y-103647593D01*
X135303768Y-103715185D01*
X135130535Y-103749643D01*
X135127449Y-103749643D01*
X135057760Y-103763505D01*
X135014263Y-103906896D01*
X135608457Y-104501090D01*
X135712009Y-104501090D01*
X136793506Y-103419593D01*
X136793509Y-103419590D01*
X136802211Y-103410889D01*
X136818756Y-103399833D01*
X136838273Y-103395952D01*
X136857790Y-103399833D01*
X136874335Y-103410889D01*
X138076417Y-104612971D01*
X138087473Y-104629516D01*
X138091354Y-104649033D01*
X138087473Y-104668550D01*
X138076417Y-104685095D01*
X136983512Y-105777999D01*
X136976277Y-105869944D01*
X136988118Y-105886242D01*
X136990346Y-105888652D01*
X137110342Y-106053813D01*
X137203025Y-106235713D01*
X137266112Y-106429872D01*
X137298047Y-106631509D01*
X137298047Y-106835659D01*
X137266112Y-107037296D01*
X137203025Y-107231455D01*
X137110342Y-107413355D01*
X136990346Y-107578516D01*
X136845990Y-107722872D01*
X136680829Y-107842868D01*
X136498929Y-107935551D01*
X136411253Y-107964039D01*
X136378675Y-108099735D01*
X137097781Y-108818841D01*
X137104834Y-108826471D01*
X137165711Y-108891468D01*
X137169592Y-108896526D01*
X137180448Y-108908270D01*
X137213305Y-108953495D01*
X137290444Y-109054024D01*
X137306310Y-109081506D01*
X137323503Y-109105169D01*
X137350020Y-109157211D01*
X137391867Y-109229692D01*
X137413233Y-109281275D01*
X137433995Y-109322022D01*
X137448126Y-109365514D01*
X137469492Y-109417095D01*
X137491152Y-109497933D01*
X137509204Y-109553490D01*
X137513779Y-109582380D01*
X137521992Y-109613029D01*
X137538532Y-109738663D01*
X137547277Y-109793874D01*
X137547277Y-109805082D01*
X137548470Y-109814144D01*
X137548470Y-110016983D01*
X137547277Y-110026044D01*
X137547277Y-110037254D01*
X137538531Y-110092469D01*
X137521992Y-110218098D01*
X137513780Y-110248745D01*
X137509204Y-110277638D01*
X137491150Y-110333199D01*
X137469492Y-110414032D01*
X137448128Y-110465608D01*
X137433995Y-110509106D01*
X137413231Y-110549857D01*
X137391867Y-110601435D01*
X137350024Y-110673907D01*
X137323503Y-110725959D01*
X137306308Y-110749625D01*
X137290444Y-110777103D01*
X137213319Y-110877614D01*
X137180448Y-110922858D01*
X137172517Y-110930788D01*
X137166961Y-110938030D01*
X137023524Y-111081467D01*
X137016282Y-111087023D01*
X137008352Y-111094954D01*
X136963108Y-111127825D01*
X136862597Y-111204950D01*
X136835119Y-111220814D01*
X136811453Y-111238009D01*
X136759401Y-111264530D01*
X136686929Y-111306373D01*
X136635351Y-111327737D01*
X136594600Y-111348501D01*
X136551102Y-111362634D01*
X136499526Y-111383998D01*
X136418693Y-111405656D01*
X136363132Y-111423710D01*
X136334239Y-111428286D01*
X136303592Y-111436498D01*
X136177960Y-111453038D01*
X136122748Y-111461783D01*
X136111539Y-111461783D01*
X136102478Y-111462976D01*
X135899638Y-111462976D01*
X135890577Y-111461783D01*
X135879368Y-111461783D01*
X135824157Y-111453038D01*
X135698523Y-111436498D01*
X135667874Y-111428285D01*
X135638984Y-111423710D01*
X135583427Y-111405658D01*
X135502589Y-111383998D01*
X135451008Y-111362632D01*
X135407516Y-111348501D01*
X135366769Y-111327739D01*
X135315186Y-111306373D01*
X135242705Y-111264526D01*
X135190663Y-111238009D01*
X135167000Y-111220816D01*
X135139518Y-111204950D01*
X135038989Y-111127811D01*
X134993764Y-111094954D01*
X134982020Y-111084098D01*
X134976962Y-111080217D01*
X134911965Y-111019340D01*
X134904335Y-111012287D01*
X134185229Y-110293181D01*
X134049533Y-110325759D01*
X134021045Y-110413435D01*
X133928362Y-110595335D01*
X133808366Y-110760496D01*
X133664010Y-110904852D01*
X133498849Y-111024848D01*
X133316949Y-111117531D01*
X133122790Y-111180618D01*
X132921153Y-111212553D01*
X132717003Y-111212553D01*
X132515366Y-111180618D01*
X132321207Y-111117531D01*
X132139307Y-111024848D01*
X131974146Y-110904852D01*
X131899132Y-110835510D01*
X124850145Y-103786523D01*
X128529929Y-103786523D01*
X130109284Y-105365877D01*
X130247418Y-105328863D01*
X130250272Y-105310850D01*
X130268318Y-105255307D01*
X130289983Y-105174455D01*
X130311352Y-105122863D01*
X130325481Y-105079382D01*
X130346237Y-105038645D01*
X130367608Y-104987052D01*
X130409463Y-104914556D01*
X130435973Y-104862529D01*
X130453160Y-104838872D01*
X130469031Y-104811384D01*
X130546188Y-104710830D01*
X130579028Y-104665630D01*
X130586950Y-104657707D01*
X130592514Y-104650457D01*
X130735951Y-104507020D01*
X130743201Y-104501456D01*
X130751124Y-104493534D01*
X130796324Y-104460694D01*
X130896878Y-104383537D01*
X130924366Y-104367666D01*
X130948023Y-104350479D01*
X131000050Y-104323969D01*
X131072546Y-104282114D01*
X131124139Y-104260743D01*
X131164876Y-104239987D01*
X131208357Y-104225858D01*
X131259949Y-104204489D01*
X131340801Y-104182824D01*
X131396344Y-104164778D01*
X131414357Y-104161924D01*
X131451371Y-104023790D01*
X129872017Y-102444435D01*
X129733883Y-102481449D01*
X129731030Y-102499464D01*
X129712971Y-102555040D01*
X129691319Y-102635856D01*
X129669953Y-102687435D01*
X129655821Y-102730932D01*
X129635057Y-102771682D01*
X129613693Y-102823261D01*
X129571850Y-102895733D01*
X129545329Y-102947785D01*
X129528134Y-102971451D01*
X129512270Y-102998929D01*
X129435145Y-103099440D01*
X129402274Y-103144684D01*
X129394343Y-103152614D01*
X129388787Y-103159856D01*
X129245350Y-103303293D01*
X129238108Y-103308849D01*
X129230178Y-103316780D01*
X129184934Y-103349651D01*
X129084423Y-103426776D01*
X129056945Y-103442640D01*
X129033279Y-103459835D01*
X128981227Y-103486356D01*
X128908755Y-103528199D01*
X128857176Y-103549563D01*
X128816426Y-103570327D01*
X128772929Y-103584459D01*
X128721350Y-103605825D01*
X128640534Y-103627477D01*
X128584958Y-103645536D01*
X128566943Y-103648389D01*
X128529929Y-103786523D01*
X124850145Y-103786523D01*
X123060298Y-101996676D01*
X122990956Y-101921662D01*
X122870960Y-101756501D01*
X122778277Y-101574601D01*
X122715190Y-101380442D01*
X122683255Y-101178805D01*
X122683255Y-100974655D01*
X122715190Y-100773018D01*
X122778277Y-100578859D01*
X122870960Y-100396959D01*
X122990956Y-100231798D01*
X123135312Y-100087442D01*
X123300473Y-99967446D01*
X123482373Y-99874763D01*
X123570048Y-99846275D01*
X123602624Y-99710576D01*
X122883521Y-98991473D01*
X122876472Y-98983847D01*
X122815590Y-98918845D01*
X122811707Y-98913785D01*
X122800854Y-98902044D01*
X122768000Y-98856824D01*
X122690857Y-98756289D01*
X122674989Y-98728805D01*
X122657799Y-98705145D01*
X122631284Y-98653107D01*
X122597158Y-98593999D01*
X122573885Y-98570727D01*
X122514779Y-98536601D01*
X122462741Y-98510087D01*
X122439078Y-98492895D01*
X122411596Y-98477028D01*
X122311067Y-98399889D01*
X122265842Y-98367032D01*
X122254098Y-98356176D01*
X122249040Y-98352295D01*
X122184043Y-98291418D01*
X122176413Y-98284365D01*
X121457307Y-97565259D01*
X121321611Y-97597837D01*
X121293123Y-97685513D01*
X121200440Y-97867413D01*
X121080444Y-98032574D01*
X120936088Y-98176930D01*
X120770927Y-98296926D01*
X120589027Y-98389609D01*
X120394868Y-98452696D01*
X120193231Y-98484631D01*
X119989081Y-98484631D01*
X119787444Y-98452696D01*
X119593285Y-98389609D01*
X119411385Y-98296926D01*
X119246224Y-98176930D01*
X119171210Y-98107588D01*
X112122223Y-91058601D01*
X115802007Y-91058601D01*
X117381362Y-92637955D01*
X117519496Y-92600941D01*
X117522350Y-92582928D01*
X117540396Y-92527385D01*
X117562061Y-92446533D01*
X117583430Y-92394941D01*
X117597559Y-92351460D01*
X117618315Y-92310723D01*
X117639686Y-92259130D01*
X117681541Y-92186634D01*
X117708051Y-92134607D01*
X117725238Y-92110950D01*
X117741109Y-92083462D01*
X117818266Y-91982908D01*
X117851106Y-91937708D01*
X117859028Y-91929785D01*
X117864592Y-91922535D01*
X118008029Y-91779098D01*
X118015279Y-91773534D01*
X118023202Y-91765612D01*
X118068402Y-91732772D01*
X118168956Y-91655615D01*
X118196444Y-91639744D01*
X118220101Y-91622557D01*
X118272128Y-91596047D01*
X118344624Y-91554192D01*
X118396217Y-91532821D01*
X118436954Y-91512065D01*
X118480435Y-91497936D01*
X118532027Y-91476567D01*
X118612879Y-91454902D01*
X118668422Y-91436856D01*
X118686435Y-91434002D01*
X118723449Y-91295868D01*
X117144095Y-89716513D01*
X117005961Y-89753527D01*
X117003108Y-89771542D01*
X116985049Y-89827118D01*
X116963397Y-89907934D01*
X116942031Y-89959513D01*
X116927899Y-90003010D01*
X116907135Y-90043760D01*
X116885771Y-90095339D01*
X116843928Y-90167811D01*
X116817407Y-90219863D01*
X116800212Y-90243529D01*
X116784348Y-90271007D01*
X116707223Y-90371518D01*
X116674352Y-90416762D01*
X116666421Y-90424692D01*
X116660865Y-90431934D01*
X116517428Y-90575371D01*
X116510186Y-90580927D01*
X116502256Y-90588858D01*
X116457012Y-90621729D01*
X116356501Y-90698854D01*
X116329023Y-90714718D01*
X116305357Y-90731913D01*
X116253305Y-90758434D01*
X116180833Y-90800277D01*
X116129254Y-90821641D01*
X116088504Y-90842405D01*
X116045007Y-90856537D01*
X115993428Y-90877903D01*
X115912612Y-90899555D01*
X115857036Y-90917614D01*
X115839021Y-90920467D01*
X115802007Y-91058601D01*
X112122223Y-91058601D01*
X110332376Y-89268754D01*
X110263034Y-89193740D01*
X110143038Y-89028579D01*
X110050355Y-88846679D01*
X109987268Y-88652520D01*
X109955333Y-88450883D01*
X109955333Y-88246733D01*
X109987268Y-88045096D01*
X110050355Y-87850937D01*
X110143038Y-87669037D01*
X110263034Y-87503876D01*
X110407390Y-87359520D01*
X110572551Y-87239524D01*
X110754451Y-87146841D01*
X110842126Y-87118353D01*
X110874702Y-86982654D01*
X110155599Y-86263551D01*
X110148550Y-86255925D01*
X110087668Y-86190923D01*
X110083785Y-86185863D01*
X110072932Y-86174122D01*
X110040078Y-86128902D01*
X109962935Y-86028367D01*
X109947066Y-86000883D01*
X109929877Y-85977223D01*
X109903363Y-85925186D01*
X109861512Y-85852699D01*
X109840143Y-85801110D01*
X109819385Y-85760370D01*
X109805255Y-85716883D01*
X109783887Y-85665296D01*
X109762223Y-85584445D01*
X109744176Y-85528902D01*
X109739601Y-85500018D01*
X109731387Y-85469362D01*
X109714846Y-85343719D01*
X109706103Y-85288518D01*
X109706103Y-85277308D01*
X109704910Y-85268247D01*
X109704910Y-85065408D01*
X109706103Y-85056346D01*
X109706103Y-85045138D01*
X109714845Y-84989941D01*
X109731387Y-84864293D01*
X109739601Y-84833635D01*
X109744176Y-84804754D01*
X109762221Y-84749214D01*
X109783887Y-84668359D01*
X109805256Y-84616767D01*
X109819385Y-84573286D01*
X109840141Y-84532549D01*
X109861512Y-84480956D01*
X109903367Y-84408460D01*
X109929877Y-84356433D01*
X109947064Y-84332776D01*
X109962935Y-84305288D01*
X110040092Y-84204734D01*
X110072932Y-84159534D01*
X110080854Y-84151611D01*
X110086418Y-84144361D01*
X110229855Y-84000924D01*
X110237105Y-83995360D01*
X110245028Y-83987438D01*
X110290228Y-83954598D01*
X110390782Y-83877441D01*
X110418270Y-83861570D01*
X110441927Y-83844383D01*
X110493954Y-83817873D01*
X110566450Y-83776018D01*
X110618043Y-83754647D01*
X110658780Y-83733891D01*
X110702261Y-83719762D01*
X110753853Y-83698393D01*
X110834708Y-83676727D01*
X110890248Y-83658682D01*
X110919129Y-83654107D01*
X110949787Y-83645893D01*
X111075435Y-83629351D01*
X111130632Y-83620609D01*
X111141840Y-83620609D01*
X111150902Y-83619416D01*
X111353742Y-83619416D01*
X111362804Y-83620609D01*
X111374012Y-83620609D01*
X111429210Y-83629351D01*
X111554856Y-83645893D01*
X111585512Y-83654107D01*
X111614396Y-83658682D01*
X111669939Y-83676729D01*
X111750790Y-83698393D01*
X111802377Y-83719761D01*
X111845864Y-83733891D01*
X111886604Y-83754649D01*
X111938193Y-83776018D01*
X112010680Y-83817869D01*
X112062717Y-83844383D01*
X112086377Y-83861572D01*
X112113861Y-83877441D01*
X112214396Y-83954584D01*
X112259616Y-83987438D01*
X112271357Y-83998291D01*
X112276417Y-84002174D01*
X112341419Y-84063056D01*
X112349045Y-84070105D01*
X113068148Y-84789208D01*
X113203847Y-84756632D01*
X113232335Y-84668957D01*
X113325018Y-84487057D01*
X113445014Y-84321896D01*
X113589370Y-84177540D01*
X113754531Y-84057544D01*
X113936431Y-83964861D01*
X114130590Y-83901774D01*
X114332227Y-83869839D01*
X114536377Y-83869839D01*
X114538808Y-83870224D01*
X114566081Y-83870224D01*
X114636717Y-83738074D01*
X114591355Y-83670185D01*
X114589176Y-83668006D01*
X114491047Y-83521146D01*
X114423455Y-83357964D01*
X114388997Y-83184731D01*
X114388997Y-83008105D01*
X114423455Y-82834872D01*
X114491047Y-82671690D01*
X114589176Y-82524830D01*
X114714070Y-82399936D01*
X114860930Y-82301807D01*
X115024112Y-82234215D01*
X115197345Y-82199757D01*
X115373971Y-82199757D01*
X115547204Y-82234215D01*
G37*
G36*
X144329949Y-104588217D02*
G01*
X144475020Y-104648307D01*
X144605580Y-104735545D01*
X144716612Y-104846577D01*
X144803850Y-104977137D01*
X144863940Y-105122208D01*
X144894574Y-105276214D01*
X144894574Y-105433238D01*
X144863940Y-105587244D01*
X144803850Y-105732315D01*
X144716612Y-105862875D01*
X144605580Y-105973907D01*
X144475020Y-106061145D01*
X144329949Y-106121235D01*
X144175943Y-106151869D01*
X144018919Y-106151869D01*
X143864913Y-106121235D01*
X143719842Y-106061145D01*
X143589282Y-105973907D01*
X143478250Y-105862875D01*
X143391012Y-105732315D01*
X143330922Y-105587244D01*
X143300288Y-105433238D01*
X143300288Y-105276214D01*
X143330922Y-105122208D01*
X143391012Y-104977137D01*
X143478250Y-104846577D01*
X143589282Y-104735545D01*
X143719842Y-104648307D01*
X143864913Y-104588217D01*
X144018919Y-104557583D01*
X144175943Y-104557583D01*
X144329949Y-104588217D01*
G37*
G36*
X145715135Y-103269697D02*
G01*
X145842094Y-103322285D01*
X145956355Y-103398632D01*
X146053525Y-103495802D01*
X146129872Y-103610063D01*
X146182460Y-103737022D01*
X146209269Y-103871802D01*
X146209269Y-104009222D01*
X146182460Y-104144002D01*
X146129872Y-104270961D01*
X146053525Y-104385222D01*
X145956355Y-104482392D01*
X145842094Y-104558739D01*
X145715135Y-104611327D01*
X145580355Y-104638136D01*
X145442935Y-104638136D01*
X145308155Y-104611327D01*
X145181196Y-104558739D01*
X145066935Y-104482392D01*
X144969765Y-104385222D01*
X144893418Y-104270961D01*
X144840830Y-104144002D01*
X144814021Y-104009222D01*
X144814021Y-103871802D01*
X144840830Y-103737022D01*
X144893418Y-103610063D01*
X144969765Y-103495802D01*
X145066935Y-103398632D01*
X145181196Y-103322285D01*
X145308155Y-103269697D01*
X145442935Y-103242888D01*
X145580355Y-103242888D01*
X145715135Y-103269697D01*
G37*
G36*
X141129422Y-100516959D02*
G01*
X141145968Y-100528015D01*
X141853074Y-101235121D01*
X141864130Y-101251667D01*
X141868011Y-101271184D01*
X141864130Y-101290701D01*
X141853074Y-101307246D01*
X139873175Y-103287145D01*
X139856630Y-103298201D01*
X139837113Y-103302082D01*
X139817596Y-103298201D01*
X139801050Y-103287145D01*
X139093944Y-102580039D01*
X139082888Y-102563493D01*
X139079007Y-102543976D01*
X139082888Y-102524459D01*
X139093944Y-102507914D01*
X140077168Y-101524690D01*
X141065138Y-100536719D01*
X141065141Y-100536716D01*
X141073843Y-100528015D01*
X141090388Y-100516959D01*
X141109905Y-100513078D01*
X141129422Y-100516959D01*
G37*
G36*
X147129349Y-101855483D02*
G01*
X147256308Y-101908071D01*
X147370569Y-101984418D01*
X147467739Y-102081588D01*
X147544086Y-102195849D01*
X147596674Y-102322808D01*
X147623483Y-102457588D01*
X147623483Y-102595008D01*
X147596674Y-102729788D01*
X147544086Y-102856747D01*
X147467739Y-102971008D01*
X147370569Y-103068178D01*
X147256308Y-103144525D01*
X147129349Y-103197113D01*
X146994569Y-103223922D01*
X146857149Y-103223922D01*
X146722369Y-103197113D01*
X146595410Y-103144525D01*
X146481149Y-103068178D01*
X146383979Y-102971008D01*
X146307632Y-102856747D01*
X146255044Y-102729788D01*
X146228235Y-102595008D01*
X146228235Y-102457588D01*
X146255044Y-102322808D01*
X146307632Y-102195849D01*
X146383979Y-102081588D01*
X146481149Y-101984418D01*
X146595410Y-101908071D01*
X146722369Y-101855483D01*
X146857149Y-101828674D01*
X146994569Y-101828674D01*
X147129349Y-101855483D01*
G37*
G36*
X148529047Y-100489117D02*
G01*
X148646951Y-100537954D01*
X148753062Y-100608855D01*
X148843302Y-100699095D01*
X148914203Y-100805206D01*
X148963040Y-100923110D01*
X148987937Y-101048276D01*
X148987937Y-101175894D01*
X148963040Y-101301060D01*
X148914203Y-101418964D01*
X148843302Y-101525075D01*
X148753062Y-101615315D01*
X148646951Y-101686216D01*
X148529047Y-101735053D01*
X148403881Y-101759950D01*
X148276263Y-101759950D01*
X148151097Y-101735053D01*
X148033193Y-101686216D01*
X147927082Y-101615315D01*
X147836842Y-101525075D01*
X147765941Y-101418964D01*
X147717104Y-101301060D01*
X147692207Y-101175894D01*
X147692207Y-101048276D01*
X147717104Y-100923110D01*
X147765941Y-100805206D01*
X147836842Y-100699095D01*
X147927082Y-100608855D01*
X148033193Y-100537954D01*
X148151097Y-100489117D01*
X148276263Y-100464220D01*
X148403881Y-100464220D01*
X148529047Y-100489117D01*
G37*
G36*
X160720507Y-98552364D02*
G01*
X161047945Y-98879803D01*
X161168592Y-99080880D01*
X161168592Y-99217020D01*
X161136979Y-99311859D01*
X160985027Y-99463811D01*
X160890188Y-99495424D01*
X160754048Y-99495424D01*
X160552971Y-99374778D01*
X160225533Y-99047340D01*
X160104886Y-98846262D01*
X160104886Y-98710120D01*
X160136498Y-98615284D01*
X160288451Y-98463331D01*
X160383290Y-98431719D01*
X160519431Y-98431719D01*
X160720507Y-98552364D01*
G37*
G36*
X158898617Y-97690118D02*
G01*
X159000062Y-97791563D01*
X159031675Y-97886401D01*
X159031675Y-97938731D01*
X159000062Y-98033569D01*
X158727106Y-98306526D01*
X158383654Y-97963074D01*
X158613929Y-97732799D01*
X158762516Y-97658506D01*
X158803778Y-97658506D01*
X158898617Y-97690118D01*
G37*
G36*
X158343032Y-97235549D02*
G01*
X158393970Y-97286486D01*
X158425583Y-97381325D01*
X158425583Y-97433655D01*
X158393970Y-97528494D01*
X158171522Y-97750942D01*
X157878578Y-97457998D01*
X158101026Y-97235549D01*
X158195865Y-97203937D01*
X158248197Y-97203937D01*
X158343032Y-97235549D01*
G37*
G36*
X159686064Y-96741476D02*
G01*
X159475305Y-96952235D01*
X159264546Y-96530717D01*
X159686064Y-96741476D01*
G37*
G36*
X164256043Y-95016831D02*
G01*
X164583481Y-95344269D01*
X164704127Y-95545345D01*
X164704127Y-95681486D01*
X164672514Y-95776324D01*
X164520561Y-95928277D01*
X164425726Y-95959890D01*
X164289582Y-95959890D01*
X164088506Y-95839244D01*
X163761068Y-95511806D01*
X163640421Y-95310727D01*
X163640421Y-95174585D01*
X163672033Y-95079749D01*
X163823986Y-94927796D01*
X163918825Y-94896184D01*
X164054965Y-94896184D01*
X164256043Y-95016831D01*
G37*
G36*
X162939226Y-92639355D02*
G01*
X163040672Y-92740801D01*
X163072285Y-92835639D01*
X163072285Y-92887969D01*
X163040672Y-92982807D01*
X162767716Y-93255764D01*
X162424264Y-92912312D01*
X162697220Y-92639355D01*
X162792059Y-92607743D01*
X162844391Y-92607743D01*
X162939226Y-92639355D01*
G37*
G36*
X167370737Y-93738069D02*
G01*
X160434710Y-100674096D01*
X158446393Y-98685780D01*
X159804886Y-98685780D01*
X159804886Y-98887810D01*
X159807768Y-98917074D01*
X159812035Y-98927376D01*
X159813677Y-98938408D01*
X159826262Y-98964984D01*
X159977785Y-99217522D01*
X159980841Y-99221639D01*
X159981688Y-99223683D01*
X159988709Y-99232238D01*
X159995312Y-99241133D01*
X159997090Y-99242450D01*
X160000343Y-99246414D01*
X160353897Y-99599968D01*
X160357860Y-99603220D01*
X160359178Y-99604999D01*
X160368072Y-99611601D01*
X160376628Y-99618623D01*
X160378671Y-99619469D01*
X160382789Y-99622526D01*
X160635327Y-99774048D01*
X160661903Y-99786633D01*
X160672934Y-99788274D01*
X160683237Y-99792542D01*
X160712501Y-99795424D01*
X160914531Y-99795424D01*
X160929336Y-99793965D01*
X160933291Y-99794247D01*
X160938492Y-99793064D01*
X160943795Y-99792542D01*
X160947452Y-99791026D01*
X160961965Y-99787727D01*
X161113488Y-99737220D01*
X161140338Y-99725232D01*
X161144409Y-99721700D01*
X161149389Y-99719638D01*
X161172120Y-99700983D01*
X161374151Y-99498952D01*
X161392806Y-99476221D01*
X161394867Y-99471243D01*
X161398400Y-99467171D01*
X161410388Y-99440320D01*
X161460895Y-99288797D01*
X161464194Y-99274284D01*
X161465710Y-99270627D01*
X161466232Y-99265324D01*
X161467415Y-99260123D01*
X161467133Y-99256168D01*
X161468592Y-99241363D01*
X161468592Y-99039333D01*
X161465710Y-99010069D01*
X161461442Y-98999765D01*
X161459801Y-98988735D01*
X161447216Y-98962158D01*
X161295693Y-98709621D01*
X161292636Y-98705503D01*
X161291790Y-98703460D01*
X161284761Y-98694896D01*
X161278165Y-98686010D01*
X161276389Y-98684694D01*
X161273135Y-98680729D01*
X160919582Y-98327175D01*
X160915618Y-98323921D01*
X160914301Y-98322144D01*
X160905413Y-98315546D01*
X160896852Y-98308520D01*
X160894806Y-98307672D01*
X160890690Y-98304617D01*
X160638152Y-98153095D01*
X160611576Y-98140510D01*
X160600544Y-98138868D01*
X160590242Y-98134601D01*
X160560978Y-98131719D01*
X160358947Y-98131719D01*
X160344135Y-98133177D01*
X160340187Y-98132897D01*
X160334991Y-98134078D01*
X160329683Y-98134601D01*
X160326022Y-98136117D01*
X160311513Y-98139416D01*
X160159991Y-98189923D01*
X160133140Y-98201912D01*
X160129069Y-98205442D01*
X160124090Y-98207505D01*
X160101359Y-98226160D01*
X159899328Y-98428191D01*
X159880673Y-98450922D01*
X159878610Y-98455901D01*
X159875080Y-98459972D01*
X159863091Y-98486823D01*
X159812584Y-98638346D01*
X159809285Y-98652853D01*
X159807768Y-98656516D01*
X159807245Y-98661824D01*
X159806064Y-98667019D01*
X159806344Y-98670968D01*
X159804886Y-98685780D01*
X158446393Y-98685780D01*
X157218611Y-97457998D01*
X157247874Y-97428735D01*
X157519328Y-97428735D01*
X157519328Y-97487261D01*
X157541725Y-97541333D01*
X157560380Y-97564064D01*
X158621040Y-98624724D01*
X158643771Y-98643379D01*
X158697843Y-98665776D01*
X158756369Y-98665776D01*
X158810442Y-98643379D01*
X158810446Y-98643374D01*
X158833172Y-98624724D01*
X159237233Y-98220663D01*
X159255888Y-98197932D01*
X159257950Y-98192952D01*
X159261481Y-98188882D01*
X159273469Y-98162031D01*
X159323977Y-98010509D01*
X159327276Y-97995999D01*
X159328793Y-97992338D01*
X159329315Y-97987029D01*
X159330497Y-97981835D01*
X159330216Y-97977885D01*
X159331675Y-97963074D01*
X159331675Y-97862059D01*
X159330216Y-97847247D01*
X159330497Y-97843298D01*
X159329315Y-97838103D01*
X159328793Y-97832795D01*
X159327276Y-97829133D01*
X159323977Y-97814624D01*
X159273469Y-97663102D01*
X159261481Y-97636251D01*
X159257950Y-97632180D01*
X159255888Y-97627201D01*
X159237233Y-97604470D01*
X159085710Y-97452947D01*
X159062979Y-97434292D01*
X159057999Y-97432229D01*
X159053928Y-97428698D01*
X159027078Y-97416710D01*
X158875555Y-97366203D01*
X158861042Y-97362903D01*
X158857385Y-97361388D01*
X158852082Y-97360865D01*
X158846881Y-97359683D01*
X158842926Y-97359964D01*
X158828121Y-97358506D01*
X158727106Y-97358506D01*
X158725583Y-97358655D01*
X158725583Y-97356983D01*
X158724124Y-97342177D01*
X158724406Y-97338223D01*
X158723223Y-97333021D01*
X158722701Y-97327719D01*
X158721185Y-97324061D01*
X158717886Y-97309549D01*
X158667379Y-97158026D01*
X158655391Y-97131175D01*
X158651857Y-97127100D01*
X158649796Y-97122124D01*
X158631141Y-97099393D01*
X158530125Y-96998378D01*
X158507395Y-96979724D01*
X158502415Y-96977661D01*
X158498345Y-96974131D01*
X158471494Y-96962142D01*
X158319971Y-96911635D01*
X158305463Y-96908336D01*
X158301801Y-96906819D01*
X158296492Y-96906296D01*
X158291298Y-96905115D01*
X158287348Y-96905395D01*
X158272537Y-96903937D01*
X158171522Y-96903937D01*
X158156710Y-96905395D01*
X158152761Y-96905115D01*
X158147566Y-96906296D01*
X158142258Y-96906819D01*
X158138596Y-96908335D01*
X158124087Y-96911635D01*
X157972565Y-96962143D01*
X157945714Y-96974131D01*
X157941643Y-96977660D01*
X157936663Y-96979724D01*
X157913933Y-96998379D01*
X157560380Y-97351932D01*
X157541725Y-97374663D01*
X157519328Y-97428735D01*
X157247874Y-97428735D01*
X158500064Y-96176545D01*
X158780315Y-96176545D01*
X158781648Y-96195306D01*
X158780315Y-96214068D01*
X158783703Y-96224232D01*
X158784463Y-96234926D01*
X158794973Y-96262389D01*
X159502079Y-97676603D01*
X159517744Y-97701489D01*
X159561959Y-97739836D01*
X159617481Y-97758343D01*
X159675862Y-97754195D01*
X159728211Y-97728020D01*
X159766557Y-97683805D01*
X159785065Y-97628283D01*
X159784096Y-97614642D01*
X160764898Y-97614642D01*
X160767414Y-97634433D01*
X160767414Y-97654382D01*
X160771072Y-97663215D01*
X160772279Y-97672703D01*
X160782177Y-97690025D01*
X160789811Y-97708454D01*
X160799351Y-97720078D01*
X160801316Y-97723517D01*
X160803667Y-97725338D01*
X160808466Y-97731185D01*
X161869126Y-98791845D01*
X161891857Y-98810500D01*
X161945929Y-98832897D01*
X162004455Y-98832897D01*
X162058528Y-98810500D01*
X162099913Y-98769115D01*
X162122310Y-98715042D01*
X162122310Y-98656516D01*
X162099913Y-98602444D01*
X162081258Y-98579713D01*
X161419997Y-97918452D01*
X162541815Y-98224403D01*
X162549274Y-98225668D01*
X162552020Y-98226806D01*
X162555978Y-98226806D01*
X162570806Y-98229322D01*
X162590595Y-98226806D01*
X162610546Y-98226806D01*
X162619383Y-98223145D01*
X162628866Y-98221940D01*
X162646181Y-98212045D01*
X162664619Y-98204409D01*
X162671381Y-98197646D01*
X162679681Y-98192904D01*
X162691892Y-98177135D01*
X162706004Y-98163024D01*
X162709663Y-98154187D01*
X162715517Y-98146630D01*
X162720765Y-98127384D01*
X162728401Y-98108951D01*
X162728401Y-98099389D01*
X162730917Y-98090164D01*
X162728401Y-98070375D01*
X162728401Y-98050425D01*
X162724740Y-98041588D01*
X162723535Y-98032104D01*
X162713638Y-98014785D01*
X162706004Y-97996353D01*
X162696463Y-97984728D01*
X162694499Y-97981290D01*
X162692147Y-97979468D01*
X162687349Y-97973622D01*
X161855014Y-97141287D01*
X162535181Y-97141287D01*
X162535181Y-97199813D01*
X162557578Y-97253885D01*
X162598964Y-97295271D01*
X162653036Y-97317668D01*
X162711562Y-97317668D01*
X162765634Y-97295271D01*
X162788365Y-97276616D01*
X163596487Y-96468494D01*
X163615142Y-96445763D01*
X163637539Y-96391691D01*
X163637539Y-96333165D01*
X163615142Y-96279093D01*
X163573756Y-96237707D01*
X163519684Y-96215310D01*
X163461158Y-96215310D01*
X163407086Y-96237707D01*
X163384355Y-96256362D01*
X162576233Y-97064484D01*
X162557578Y-97087215D01*
X162535181Y-97141287D01*
X161855014Y-97141287D01*
X161626689Y-96912962D01*
X161603958Y-96894307D01*
X161549886Y-96871910D01*
X161491360Y-96871910D01*
X161437288Y-96894307D01*
X161395902Y-96935693D01*
X161373505Y-96989765D01*
X161373505Y-97048291D01*
X161395902Y-97102363D01*
X161414557Y-97125094D01*
X162075817Y-97786354D01*
X160954000Y-97480404D01*
X160946540Y-97479138D01*
X160943795Y-97478001D01*
X160939837Y-97478001D01*
X160925009Y-97475485D01*
X160905217Y-97478001D01*
X160885269Y-97478001D01*
X160876435Y-97481659D01*
X160866948Y-97482866D01*
X160849625Y-97492764D01*
X160831197Y-97500398D01*
X160824436Y-97507158D01*
X160816134Y-97511903D01*
X160803918Y-97527676D01*
X160789811Y-97541784D01*
X160786151Y-97550618D01*
X160780298Y-97558177D01*
X160775048Y-97577423D01*
X160767414Y-97595856D01*
X160767414Y-97605416D01*
X160764898Y-97614642D01*
X159784096Y-97614642D01*
X159780917Y-97569903D01*
X159770407Y-97542439D01*
X159616726Y-97235078D01*
X159968907Y-96882897D01*
X160276268Y-97036578D01*
X160303731Y-97047087D01*
X160362111Y-97051236D01*
X160417634Y-97032728D01*
X160461849Y-96994382D01*
X160488023Y-96942033D01*
X160492172Y-96883652D01*
X160473664Y-96828130D01*
X160435317Y-96783915D01*
X160410432Y-96768250D01*
X158996219Y-96061143D01*
X158968756Y-96050633D01*
X158958063Y-96049873D01*
X158947899Y-96046485D01*
X158929137Y-96047818D01*
X158910376Y-96046485D01*
X158900211Y-96049873D01*
X158889518Y-96050633D01*
X158872689Y-96059047D01*
X158854853Y-96064993D01*
X158846758Y-96072013D01*
X158837169Y-96076808D01*
X158824846Y-96091016D01*
X158810638Y-96103339D01*
X158805843Y-96112928D01*
X158798823Y-96121023D01*
X158792877Y-96138860D01*
X158784463Y-96155688D01*
X158783703Y-96166380D01*
X158780315Y-96176545D01*
X158500064Y-96176545D01*
X159066148Y-95610461D01*
X159337602Y-95610461D01*
X159337602Y-95668987D01*
X159359999Y-95723059D01*
X159401385Y-95764445D01*
X159455457Y-95786842D01*
X159513983Y-95786842D01*
X159568055Y-95764445D01*
X159590786Y-95745790D01*
X159787766Y-95548810D01*
X160742360Y-96503404D01*
X160765091Y-96522059D01*
X160819163Y-96544456D01*
X160877689Y-96544456D01*
X160931762Y-96522059D01*
X160973147Y-96480674D01*
X160995544Y-96426601D01*
X160995544Y-96368075D01*
X160973147Y-96314003D01*
X160954492Y-96291272D01*
X159999898Y-95336678D01*
X160196878Y-95139698D01*
X160215533Y-95116967D01*
X160237930Y-95062895D01*
X160237930Y-95004369D01*
X160219794Y-94960584D01*
X160263579Y-94978720D01*
X160322105Y-94978720D01*
X160376177Y-94956323D01*
X160398908Y-94937668D01*
X160595888Y-94740688D01*
X161550482Y-95695282D01*
X161573213Y-95713937D01*
X161627285Y-95736334D01*
X161685811Y-95736334D01*
X161739884Y-95713937D01*
X161781269Y-95672552D01*
X161803666Y-95618479D01*
X161803666Y-95559953D01*
X161781269Y-95505881D01*
X161762614Y-95483150D01*
X161429709Y-95150245D01*
X163340421Y-95150245D01*
X163340421Y-95352275D01*
X163343303Y-95381539D01*
X163347570Y-95391841D01*
X163349212Y-95402873D01*
X163361797Y-95429449D01*
X163513320Y-95681988D01*
X163516376Y-95686105D01*
X163517223Y-95688149D01*
X163524244Y-95696704D01*
X163530847Y-95705599D01*
X163532625Y-95706916D01*
X163535878Y-95710880D01*
X163889431Y-96064433D01*
X163893396Y-96067687D01*
X163894712Y-96069463D01*
X163903591Y-96076054D01*
X163912161Y-96083088D01*
X163914206Y-96083935D01*
X163918323Y-96086991D01*
X164170860Y-96238514D01*
X164197437Y-96251099D01*
X164208467Y-96252740D01*
X164218771Y-96257008D01*
X164248035Y-96259890D01*
X164450066Y-96259890D01*
X164464877Y-96258431D01*
X164468827Y-96258712D01*
X164474021Y-96257530D01*
X164479330Y-96257008D01*
X164482992Y-96255490D01*
X164497500Y-96252192D01*
X164649023Y-96201685D01*
X164675874Y-96189696D01*
X164679944Y-96186165D01*
X164684924Y-96184103D01*
X164707655Y-96165448D01*
X164909685Y-95963418D01*
X164928340Y-95940687D01*
X164930402Y-95935707D01*
X164933933Y-95931637D01*
X164945921Y-95904786D01*
X164996429Y-95753264D01*
X164999728Y-95738754D01*
X165001245Y-95735093D01*
X165001767Y-95729784D01*
X165002949Y-95724590D01*
X165002668Y-95720640D01*
X165004127Y-95705829D01*
X165004127Y-95503798D01*
X165001245Y-95474534D01*
X164996977Y-95464230D01*
X164995336Y-95453200D01*
X164982751Y-95426623D01*
X164831228Y-95174086D01*
X164828172Y-95169969D01*
X164827325Y-95167924D01*
X164820291Y-95159354D01*
X164813700Y-95150475D01*
X164811924Y-95149159D01*
X164808670Y-95145194D01*
X164455117Y-94791641D01*
X164451153Y-94788388D01*
X164449836Y-94786610D01*
X164440941Y-94780007D01*
X164432386Y-94772986D01*
X164430342Y-94772139D01*
X164426225Y-94769083D01*
X164173687Y-94617560D01*
X164147111Y-94604975D01*
X164136079Y-94603333D01*
X164125777Y-94599066D01*
X164096513Y-94596184D01*
X163894482Y-94596184D01*
X163879670Y-94597642D01*
X163875721Y-94597362D01*
X163870526Y-94598543D01*
X163865218Y-94599066D01*
X163861556Y-94600582D01*
X163847047Y-94603882D01*
X163695525Y-94654390D01*
X163668674Y-94666378D01*
X163664603Y-94669908D01*
X163659624Y-94671971D01*
X163636893Y-94690626D01*
X163434863Y-94892656D01*
X163416208Y-94915387D01*
X163414145Y-94920366D01*
X163410615Y-94924437D01*
X163398626Y-94951288D01*
X163348119Y-95102811D01*
X163344820Y-95117318D01*
X163343303Y-95120981D01*
X163342780Y-95126289D01*
X163341599Y-95131484D01*
X163341879Y-95135433D01*
X163340421Y-95150245D01*
X161429709Y-95150245D01*
X160808020Y-94528556D01*
X161005000Y-94331576D01*
X161023655Y-94308845D01*
X161046052Y-94254773D01*
X161046052Y-94196247D01*
X161023655Y-94142174D01*
X160982270Y-94100789D01*
X160928197Y-94078392D01*
X160869671Y-94078392D01*
X160815599Y-94100789D01*
X160792868Y-94119444D01*
X160186776Y-94725536D01*
X160168121Y-94748267D01*
X160145724Y-94802339D01*
X160145724Y-94860865D01*
X160163859Y-94904649D01*
X160120075Y-94886514D01*
X160061549Y-94886514D01*
X160007477Y-94908911D01*
X159984746Y-94927566D01*
X159378654Y-95533658D01*
X159359999Y-95556389D01*
X159337602Y-95610461D01*
X159066148Y-95610461D01*
X160686625Y-93989984D01*
X160833915Y-93842694D01*
X161105369Y-93842694D01*
X161105369Y-93901220D01*
X161127766Y-93955292D01*
X161146421Y-93978023D01*
X162207081Y-95038683D01*
X162229812Y-95057338D01*
X162283884Y-95079735D01*
X162342410Y-95079735D01*
X162396483Y-95057338D01*
X162396487Y-95057333D01*
X162419213Y-95038683D01*
X162924289Y-94533607D01*
X162942944Y-94510877D01*
X162965341Y-94456804D01*
X162965341Y-94398278D01*
X162942944Y-94344206D01*
X162901558Y-94302820D01*
X162847486Y-94280423D01*
X162788960Y-94280423D01*
X162734887Y-94302820D01*
X162712157Y-94321475D01*
X162313147Y-94720485D01*
X161969695Y-94377033D01*
X162217183Y-94129546D01*
X162235838Y-94106816D01*
X162258235Y-94052743D01*
X162258235Y-93994217D01*
X162235838Y-93940145D01*
X162194452Y-93898759D01*
X162140380Y-93876362D01*
X162081854Y-93876362D01*
X162027782Y-93898759D01*
X162005051Y-93917414D01*
X161757563Y-94164901D01*
X161464619Y-93871957D01*
X161863629Y-93472947D01*
X161882284Y-93450217D01*
X161904681Y-93396144D01*
X161904681Y-93337618D01*
X161882284Y-93283546D01*
X161840898Y-93242160D01*
X161786826Y-93219763D01*
X161728300Y-93219763D01*
X161674227Y-93242160D01*
X161651497Y-93260815D01*
X161146421Y-93765891D01*
X161127766Y-93788622D01*
X161105369Y-93842694D01*
X160833915Y-93842694D01*
X161793560Y-92883049D01*
X162065014Y-92883049D01*
X162065014Y-92941575D01*
X162087411Y-92995647D01*
X162106066Y-93018378D01*
X163166726Y-94079038D01*
X163189457Y-94097693D01*
X163243529Y-94120090D01*
X163302055Y-94120090D01*
X163356128Y-94097693D01*
X163393500Y-94060321D01*
X164302948Y-94060321D01*
X164302948Y-94118847D01*
X164325345Y-94172919D01*
X164344000Y-94195650D01*
X165404660Y-95256311D01*
X165427390Y-95274966D01*
X165481463Y-95297362D01*
X165539989Y-95297362D01*
X165594061Y-95274966D01*
X165635447Y-95233580D01*
X165657843Y-95179508D01*
X165657843Y-95120982D01*
X165635447Y-95066909D01*
X165616792Y-95044179D01*
X165167274Y-94594661D01*
X165414762Y-94347173D01*
X165433417Y-94324442D01*
X165455814Y-94270370D01*
X165455814Y-94211844D01*
X165433417Y-94157772D01*
X165392031Y-94116386D01*
X165337959Y-94093989D01*
X165279433Y-94093989D01*
X165225360Y-94116386D01*
X165202630Y-94135041D01*
X164955142Y-94382529D01*
X164662198Y-94089584D01*
X165061209Y-93690574D01*
X165079864Y-93667844D01*
X165102261Y-93613771D01*
X165102261Y-93555245D01*
X165079864Y-93501173D01*
X165038478Y-93459787D01*
X164984406Y-93437390D01*
X164925880Y-93437390D01*
X164871808Y-93459787D01*
X164849077Y-93478442D01*
X164344000Y-93983518D01*
X164325345Y-94006249D01*
X164302948Y-94060321D01*
X163393500Y-94060321D01*
X163397513Y-94056308D01*
X163419910Y-94002235D01*
X163419910Y-93943709D01*
X163397513Y-93889637D01*
X163378858Y-93866906D01*
X162979848Y-93467896D01*
X163071095Y-93376648D01*
X163852816Y-93514598D01*
X163882136Y-93516845D01*
X163939278Y-93504185D01*
X163987224Y-93470622D01*
X164018678Y-93421266D01*
X164028849Y-93363628D01*
X164016189Y-93306486D01*
X163982626Y-93258540D01*
X163933269Y-93227086D01*
X163904952Y-93219162D01*
X163519742Y-93151184D01*
X165212085Y-93151184D01*
X165212085Y-93209710D01*
X165234482Y-93263782D01*
X165253137Y-93286513D01*
X166313798Y-94347174D01*
X166336529Y-94365829D01*
X166390601Y-94388226D01*
X166449127Y-94388226D01*
X166503199Y-94365829D01*
X166544585Y-94324443D01*
X166566982Y-94270371D01*
X166566982Y-94211845D01*
X166544585Y-94157773D01*
X166525930Y-94135042D01*
X166076411Y-93685523D01*
X166323899Y-93438036D01*
X166342554Y-93415305D01*
X166364951Y-93361233D01*
X166364951Y-93302707D01*
X166342554Y-93248635D01*
X166301168Y-93207249D01*
X166247096Y-93184852D01*
X166188570Y-93184852D01*
X166134497Y-93207249D01*
X166111767Y-93225904D01*
X165864279Y-93473391D01*
X165571335Y-93180447D01*
X165970346Y-92781437D01*
X165989001Y-92758707D01*
X166011398Y-92704634D01*
X166011398Y-92646108D01*
X165989001Y-92592036D01*
X165947615Y-92550650D01*
X165893543Y-92528253D01*
X165835017Y-92528253D01*
X165780945Y-92550650D01*
X165758214Y-92569305D01*
X165253137Y-93074381D01*
X165234482Y-93097112D01*
X165212085Y-93151184D01*
X163519742Y-93151184D01*
X163312580Y-93114626D01*
X163314079Y-93111269D01*
X163364587Y-92959747D01*
X163367886Y-92945237D01*
X163369403Y-92941576D01*
X163369925Y-92936267D01*
X163371107Y-92931073D01*
X163370826Y-92927123D01*
X163372285Y-92912312D01*
X163372285Y-92811297D01*
X163370826Y-92796485D01*
X163371107Y-92792536D01*
X163369925Y-92787341D01*
X163369403Y-92782033D01*
X163367886Y-92778371D01*
X163364587Y-92763862D01*
X163314079Y-92612340D01*
X163302091Y-92585489D01*
X163298560Y-92581418D01*
X163296498Y-92576439D01*
X163277843Y-92553708D01*
X163126320Y-92402185D01*
X163103589Y-92383530D01*
X163098609Y-92381467D01*
X163094539Y-92377937D01*
X163067688Y-92365948D01*
X162916165Y-92315441D01*
X162901657Y-92312142D01*
X162897995Y-92310625D01*
X162892686Y-92310102D01*
X162887492Y-92308921D01*
X162883542Y-92309201D01*
X162868731Y-92307743D01*
X162767716Y-92307743D01*
X162752904Y-92309201D01*
X162748955Y-92308921D01*
X162743760Y-92310102D01*
X162738452Y-92310625D01*
X162734790Y-92312141D01*
X162720281Y-92315441D01*
X162568759Y-92365949D01*
X162541908Y-92377937D01*
X162537837Y-92381467D01*
X162532858Y-92383530D01*
X162510127Y-92402185D01*
X162106066Y-92806246D01*
X162087411Y-92828977D01*
X162065014Y-92883049D01*
X161793560Y-92883049D01*
X162676782Y-91999827D01*
X162971306Y-91999827D01*
X162981441Y-92057470D01*
X163012862Y-92106846D01*
X163060787Y-92140440D01*
X163088729Y-92149602D01*
X163955227Y-92342157D01*
X164429417Y-92816347D01*
X164452147Y-92835002D01*
X164506220Y-92857399D01*
X164564746Y-92857399D01*
X164618818Y-92835002D01*
X164660204Y-92793616D01*
X164682601Y-92739544D01*
X164682601Y-92681018D01*
X164660204Y-92626945D01*
X164641549Y-92604215D01*
X164167359Y-92130025D01*
X163974804Y-91263528D01*
X163965642Y-91235586D01*
X163932048Y-91187661D01*
X163882672Y-91156240D01*
X163825029Y-91146105D01*
X163767894Y-91158802D01*
X163719969Y-91192396D01*
X163688548Y-91241772D01*
X163678413Y-91299415D01*
X163681948Y-91328608D01*
X163832845Y-92007643D01*
X163153809Y-91856746D01*
X163124616Y-91853211D01*
X163066973Y-91863346D01*
X163017597Y-91894767D01*
X162984003Y-91942692D01*
X162971306Y-91999827D01*
X162676782Y-91999827D01*
X164154638Y-90521971D01*
X164154639Y-90521971D01*
X167370737Y-93738069D01*
G37*
G36*
X149986804Y-98931362D02*
G01*
X150131875Y-98991452D01*
X150262435Y-99078690D01*
X150373467Y-99189722D01*
X150460705Y-99320282D01*
X150520795Y-99465353D01*
X150551429Y-99619359D01*
X150551429Y-99776383D01*
X150520795Y-99930389D01*
X150460705Y-100075460D01*
X150373467Y-100206020D01*
X150262435Y-100317052D01*
X150131875Y-100404290D01*
X149986804Y-100464380D01*
X149832798Y-100495014D01*
X149675774Y-100495014D01*
X149521768Y-100464380D01*
X149376697Y-100404290D01*
X149246137Y-100317052D01*
X149135105Y-100206020D01*
X149047867Y-100075460D01*
X148987777Y-99930389D01*
X148957143Y-99776383D01*
X148957143Y-99619359D01*
X148987777Y-99465353D01*
X149047867Y-99320282D01*
X149135105Y-99189722D01*
X149246137Y-99078690D01*
X149376697Y-98991452D01*
X149521768Y-98931362D01*
X149675774Y-98900728D01*
X149832798Y-98900728D01*
X149986804Y-98931362D01*
G37*
G36*
X138300995Y-97688532D02*
G01*
X138317541Y-97699588D01*
X139024647Y-98406694D01*
X139035703Y-98423240D01*
X139039584Y-98442757D01*
X139035703Y-98462274D01*
X139024647Y-98478819D01*
X137044748Y-100458718D01*
X137028203Y-100469774D01*
X137008686Y-100473655D01*
X136989169Y-100469774D01*
X136972623Y-100458718D01*
X136265517Y-99751612D01*
X136254461Y-99735066D01*
X136250580Y-99715549D01*
X136254461Y-99696032D01*
X136265517Y-99679487D01*
X137255329Y-98689675D01*
X138236711Y-97708292D01*
X138236714Y-97708289D01*
X138245416Y-97699588D01*
X138261961Y-97688532D01*
X138281478Y-97684651D01*
X138300995Y-97688532D01*
G37*
G36*
X154533872Y-97547083D02*
G01*
X154687999Y-97610924D01*
X154826709Y-97703607D01*
X154944672Y-97821570D01*
X155037355Y-97960280D01*
X155101196Y-98114407D01*
X155133742Y-98278026D01*
X155133742Y-98444852D01*
X155101196Y-98608471D01*
X155037355Y-98762598D01*
X154944672Y-98901308D01*
X154826709Y-99019271D01*
X154687999Y-99111954D01*
X154533872Y-99175795D01*
X154370253Y-99208341D01*
X154203427Y-99208341D01*
X154039808Y-99175795D01*
X153885681Y-99111954D01*
X153746971Y-99019271D01*
X153629008Y-98901308D01*
X153536325Y-98762598D01*
X153472484Y-98608471D01*
X153439938Y-98444852D01*
X153439938Y-98278026D01*
X153472484Y-98114407D01*
X153536325Y-97960280D01*
X153629008Y-97821570D01*
X153746971Y-97703607D01*
X153885681Y-97610924D01*
X154039808Y-97547083D01*
X154203427Y-97514537D01*
X154370253Y-97514537D01*
X154533872Y-97547083D01*
G37*
G36*
X145230641Y-96415740D02*
G01*
X145247187Y-96426796D01*
X145954293Y-97133902D01*
X145965349Y-97150448D01*
X145969230Y-97169965D01*
X145965349Y-97189482D01*
X145954293Y-97206027D01*
X143974394Y-99185926D01*
X143957849Y-99196982D01*
X143938332Y-99200863D01*
X143918815Y-99196982D01*
X143902269Y-99185926D01*
X143195163Y-98478820D01*
X143184107Y-98462274D01*
X143180226Y-98442757D01*
X143184107Y-98423240D01*
X143195163Y-98406695D01*
X144176224Y-97425634D01*
X145166357Y-96435500D01*
X145166360Y-96435497D01*
X145175062Y-96426796D01*
X145191607Y-96415740D01*
X145211124Y-96411859D01*
X145230641Y-96415740D01*
G37*
G36*
X136356451Y-95743988D02*
G01*
X136372997Y-95755044D01*
X137080103Y-96462150D01*
X137091159Y-96478696D01*
X137095040Y-96498213D01*
X137091159Y-96517730D01*
X137080103Y-96534275D01*
X135100204Y-98514174D01*
X135083659Y-98525230D01*
X135064142Y-98529111D01*
X135044625Y-98525230D01*
X135028079Y-98514174D01*
X134320973Y-97807068D01*
X134309917Y-97790522D01*
X134306036Y-97771005D01*
X134309917Y-97751488D01*
X134320973Y-97734943D01*
X135309005Y-96746911D01*
X136292167Y-95763748D01*
X136292170Y-95763745D01*
X136300872Y-95755044D01*
X136317417Y-95743988D01*
X136336934Y-95740107D01*
X136356451Y-95743988D01*
G37*
G36*
X152737821Y-95751032D02*
G01*
X152891948Y-95814873D01*
X153030658Y-95907556D01*
X153148621Y-96025519D01*
X153241304Y-96164229D01*
X153305145Y-96318356D01*
X153337691Y-96481975D01*
X153337691Y-96648801D01*
X153305145Y-96812420D01*
X153241304Y-96966547D01*
X153148621Y-97105257D01*
X153030658Y-97223220D01*
X152891948Y-97315903D01*
X152737821Y-97379744D01*
X152574202Y-97412290D01*
X152407376Y-97412290D01*
X152243757Y-97379744D01*
X152089630Y-97315903D01*
X151950920Y-97223220D01*
X151832957Y-97105257D01*
X151740274Y-96966547D01*
X151676433Y-96812420D01*
X151643887Y-96648801D01*
X151643887Y-96481975D01*
X151676433Y-96318356D01*
X151740274Y-96164229D01*
X151832957Y-96025519D01*
X151950920Y-95907556D01*
X152089630Y-95814873D01*
X152243757Y-95751032D01*
X152407376Y-95718486D01*
X152574202Y-95718486D01*
X152737821Y-95751032D01*
G37*
G36*
X142402214Y-93587313D02*
G01*
X142418760Y-93598369D01*
X143125866Y-94305475D01*
X143136922Y-94322021D01*
X143140803Y-94341538D01*
X143136922Y-94361055D01*
X143125866Y-94377600D01*
X141145967Y-96357499D01*
X141129422Y-96368555D01*
X141109905Y-96372436D01*
X141090388Y-96368555D01*
X141073842Y-96357499D01*
X140366736Y-95650393D01*
X140355680Y-95633847D01*
X140351799Y-95614330D01*
X140355680Y-95594813D01*
X140366736Y-95578268D01*
X141350344Y-94594660D01*
X142337930Y-93607073D01*
X142337933Y-93607070D01*
X142346635Y-93598369D01*
X142363180Y-93587313D01*
X142382697Y-93583432D01*
X142402214Y-93587313D01*
G37*
G36*
X133528024Y-92915561D02*
G01*
X133544570Y-92926617D01*
X134251676Y-93633723D01*
X134262732Y-93650269D01*
X134266613Y-93669786D01*
X134262732Y-93689303D01*
X134251676Y-93705848D01*
X132271777Y-95685747D01*
X132255232Y-95696803D01*
X132235715Y-95700684D01*
X132216198Y-95696803D01*
X132199652Y-95685747D01*
X131492546Y-94978641D01*
X131481490Y-94962095D01*
X131477609Y-94942578D01*
X131481490Y-94923061D01*
X131492546Y-94906516D01*
X132481648Y-93917414D01*
X133463740Y-92935321D01*
X133463743Y-92935318D01*
X133472445Y-92926617D01*
X133488990Y-92915561D01*
X133508507Y-92911680D01*
X133528024Y-92915561D01*
G37*
G36*
X150941770Y-93954981D02*
G01*
X151095897Y-94018822D01*
X151234607Y-94111505D01*
X151352570Y-94229468D01*
X151445253Y-94368178D01*
X151509094Y-94522305D01*
X151541640Y-94685924D01*
X151541640Y-94852750D01*
X151509094Y-95016369D01*
X151445253Y-95170496D01*
X151352570Y-95309206D01*
X151234607Y-95427169D01*
X151095897Y-95519852D01*
X150941770Y-95583693D01*
X150778151Y-95616239D01*
X150611325Y-95616239D01*
X150447706Y-95583693D01*
X150293579Y-95519852D01*
X150154869Y-95427169D01*
X150036906Y-95309206D01*
X149944223Y-95170496D01*
X149880382Y-95016369D01*
X149847836Y-94852750D01*
X149847836Y-94685924D01*
X149880382Y-94522305D01*
X149944223Y-94368178D01*
X150036906Y-94229468D01*
X150154869Y-94111505D01*
X150293579Y-94018822D01*
X150447706Y-93954981D01*
X150611325Y-93922435D01*
X150778151Y-93922435D01*
X150941770Y-93954981D01*
G37*
G36*
X140457670Y-91642769D02*
G01*
X140474216Y-91653825D01*
X141181322Y-92360931D01*
X141192378Y-92377477D01*
X141196259Y-92396994D01*
X141192378Y-92416511D01*
X141181322Y-92433056D01*
X139201423Y-94412955D01*
X139184878Y-94424011D01*
X139165361Y-94427892D01*
X139145844Y-94424011D01*
X139129298Y-94412955D01*
X138422192Y-93705849D01*
X138411136Y-93689303D01*
X138407255Y-93669786D01*
X138411136Y-93650269D01*
X138422192Y-93633724D01*
X139411358Y-92644558D01*
X140393386Y-91662529D01*
X140393389Y-91662526D01*
X140402091Y-91653825D01*
X140418636Y-91642769D01*
X140438153Y-91638888D01*
X140457670Y-91642769D01*
G37*
G36*
X154406221Y-92390625D02*
G01*
X154551292Y-92450715D01*
X154681852Y-92537953D01*
X154792884Y-92648985D01*
X154880122Y-92779545D01*
X154940212Y-92924616D01*
X154970846Y-93078622D01*
X154970846Y-93235646D01*
X154940212Y-93389652D01*
X154880122Y-93534723D01*
X154792884Y-93665283D01*
X154681852Y-93776315D01*
X154551292Y-93863553D01*
X154406221Y-93923643D01*
X154252215Y-93954277D01*
X154095191Y-93954277D01*
X153941185Y-93923643D01*
X153796114Y-93863553D01*
X153665554Y-93776315D01*
X153554522Y-93665283D01*
X153467284Y-93534723D01*
X153407194Y-93389652D01*
X153376560Y-93235646D01*
X153376560Y-93078622D01*
X153407194Y-92924616D01*
X153467284Y-92779545D01*
X153554522Y-92648985D01*
X153665554Y-92537953D01*
X153796114Y-92450715D01*
X153941185Y-92390625D01*
X154095191Y-92359991D01*
X154252215Y-92359991D01*
X154406221Y-92390625D01*
G37*
G36*
X149145718Y-92158930D02*
G01*
X149299845Y-92222771D01*
X149438555Y-92315454D01*
X149556518Y-92433417D01*
X149649201Y-92572127D01*
X149713042Y-92726254D01*
X149745588Y-92889873D01*
X149745588Y-93056699D01*
X149713042Y-93220318D01*
X149649201Y-93374445D01*
X149556518Y-93513155D01*
X149438555Y-93631118D01*
X149299845Y-93723801D01*
X149145718Y-93787642D01*
X148982099Y-93820188D01*
X148815273Y-93820188D01*
X148651654Y-93787642D01*
X148497527Y-93723801D01*
X148358817Y-93631118D01*
X148240854Y-93513155D01*
X148148171Y-93374445D01*
X148084330Y-93220318D01*
X148051784Y-93056699D01*
X148051784Y-92889873D01*
X148084330Y-92726254D01*
X148148171Y-92572127D01*
X148240854Y-92433417D01*
X148358817Y-92315454D01*
X148497527Y-92222771D01*
X148651654Y-92158930D01*
X148815273Y-92126384D01*
X148982099Y-92126384D01*
X149145718Y-92158930D01*
G37*
G36*
X155791407Y-91072105D02*
G01*
X155918366Y-91124693D01*
X156032627Y-91201040D01*
X156129797Y-91298210D01*
X156206144Y-91412471D01*
X156258732Y-91539430D01*
X156285541Y-91674210D01*
X156285541Y-91811630D01*
X156258732Y-91946410D01*
X156206144Y-92073369D01*
X156129797Y-92187630D01*
X156032627Y-92284800D01*
X155918366Y-92361147D01*
X155791407Y-92413735D01*
X155656627Y-92440544D01*
X155519207Y-92440544D01*
X155384427Y-92413735D01*
X155257468Y-92361147D01*
X155143207Y-92284800D01*
X155046037Y-92187630D01*
X154969690Y-92073369D01*
X154917102Y-91946410D01*
X154890293Y-91811630D01*
X154890293Y-91674210D01*
X154917102Y-91539430D01*
X154969690Y-91412471D01*
X155046037Y-91298210D01*
X155143207Y-91201040D01*
X155257468Y-91124693D01*
X155384427Y-91072105D01*
X155519207Y-91045296D01*
X155656627Y-91045296D01*
X155791407Y-91072105D01*
G37*
G36*
X147349667Y-90362879D02*
G01*
X147503794Y-90426720D01*
X147642504Y-90519403D01*
X147760467Y-90637366D01*
X147853150Y-90776076D01*
X147916991Y-90930203D01*
X147949537Y-91093822D01*
X147949537Y-91260648D01*
X147916991Y-91424267D01*
X147853150Y-91578394D01*
X147760467Y-91717104D01*
X147642504Y-91835067D01*
X147503794Y-91927750D01*
X147349667Y-91991591D01*
X147186048Y-92024137D01*
X147019222Y-92024137D01*
X146855603Y-91991591D01*
X146701476Y-91927750D01*
X146562766Y-91835067D01*
X146444803Y-91717104D01*
X146352120Y-91578394D01*
X146288279Y-91424267D01*
X146255733Y-91260648D01*
X146255733Y-91093822D01*
X146288279Y-90930203D01*
X146352120Y-90776076D01*
X146444803Y-90637366D01*
X146562766Y-90519403D01*
X146701476Y-90426720D01*
X146855603Y-90362879D01*
X147019222Y-90330333D01*
X147186048Y-90330333D01*
X147349667Y-90362879D01*
G37*
G36*
X137629243Y-88814342D02*
G01*
X137645789Y-88825398D01*
X138352895Y-89532504D01*
X138363951Y-89549050D01*
X138367832Y-89568567D01*
X138363951Y-89588084D01*
X138352895Y-89604629D01*
X136372996Y-91584528D01*
X136356451Y-91595584D01*
X136336934Y-91599465D01*
X136317417Y-91595584D01*
X136300871Y-91584528D01*
X135593765Y-90877422D01*
X135582709Y-90860876D01*
X135578828Y-90841359D01*
X135582709Y-90821842D01*
X135593765Y-90805297D01*
X136515066Y-89883996D01*
X137564959Y-88834102D01*
X137564962Y-88834099D01*
X137573664Y-88825398D01*
X137590209Y-88814342D01*
X137609726Y-88810461D01*
X137629243Y-88814342D01*
G37*
G36*
X151741879Y-89332861D02*
G01*
X151905061Y-89400453D01*
X152051921Y-89498582D01*
X152176815Y-89623476D01*
X152274944Y-89770336D01*
X152342536Y-89933518D01*
X152376994Y-90106751D01*
X152376994Y-90283377D01*
X152342536Y-90456610D01*
X152274944Y-90619792D01*
X152176815Y-90766652D01*
X152051921Y-90891546D01*
X151905061Y-90989675D01*
X151741879Y-91057267D01*
X151568646Y-91091725D01*
X151392020Y-91091725D01*
X151218787Y-91057267D01*
X151055605Y-90989675D01*
X150908745Y-90891546D01*
X150783851Y-90766652D01*
X150685722Y-90619792D01*
X150618130Y-90456610D01*
X150583672Y-90283377D01*
X150583672Y-90106751D01*
X150618130Y-89933518D01*
X150685722Y-89770336D01*
X150783851Y-89623476D01*
X150908745Y-89498582D01*
X151055605Y-89400453D01*
X151218787Y-89332861D01*
X151392020Y-89298403D01*
X151568646Y-89298403D01*
X151741879Y-89332861D01*
G37*
G36*
X157205621Y-89657891D02*
G01*
X157332580Y-89710479D01*
X157446841Y-89786826D01*
X157544011Y-89883996D01*
X157620358Y-89998257D01*
X157672946Y-90125216D01*
X157699755Y-90259996D01*
X157699755Y-90397416D01*
X157672946Y-90532196D01*
X157620358Y-90659155D01*
X157544011Y-90773416D01*
X157446841Y-90870586D01*
X157332580Y-90946933D01*
X157205621Y-90999521D01*
X157070841Y-91026330D01*
X156933421Y-91026330D01*
X156798641Y-90999521D01*
X156671682Y-90946933D01*
X156557421Y-90870586D01*
X156460251Y-90773416D01*
X156383904Y-90659155D01*
X156331316Y-90532196D01*
X156304507Y-90397416D01*
X156304507Y-90259996D01*
X156331316Y-90125216D01*
X156383904Y-89998257D01*
X156460251Y-89883996D01*
X156557421Y-89786826D01*
X156671682Y-89710479D01*
X156798641Y-89657891D01*
X156933421Y-89631082D01*
X157070841Y-89631082D01*
X157205621Y-89657891D01*
G37*
G36*
X145553616Y-88566827D02*
G01*
X145707743Y-88630668D01*
X145846453Y-88723351D01*
X145964416Y-88841314D01*
X146057099Y-88980024D01*
X146120940Y-89134151D01*
X146153486Y-89297770D01*
X146153486Y-89464596D01*
X146120940Y-89628215D01*
X146057099Y-89782342D01*
X145964416Y-89921052D01*
X145846453Y-90039015D01*
X145707743Y-90131698D01*
X145553616Y-90195539D01*
X145389997Y-90228085D01*
X145223171Y-90228085D01*
X145059552Y-90195539D01*
X144905425Y-90131698D01*
X144766715Y-90039015D01*
X144648752Y-89921052D01*
X144556069Y-89782342D01*
X144492228Y-89628215D01*
X144459682Y-89464596D01*
X144459682Y-89297770D01*
X144492228Y-89134151D01*
X144556069Y-88980024D01*
X144648752Y-88841314D01*
X144766715Y-88723351D01*
X144905425Y-88630668D01*
X145059552Y-88566827D01*
X145223171Y-88534281D01*
X145389997Y-88534281D01*
X145553616Y-88566827D01*
G37*
G36*
X158605319Y-88291525D02*
G01*
X158723223Y-88340362D01*
X158829334Y-88411263D01*
X158919574Y-88501503D01*
X158990475Y-88607614D01*
X159039312Y-88725518D01*
X159064209Y-88850684D01*
X159064209Y-88978302D01*
X159039312Y-89103468D01*
X158990475Y-89221372D01*
X158919574Y-89327483D01*
X158829334Y-89417723D01*
X158723223Y-89488624D01*
X158605319Y-89537461D01*
X158480153Y-89562358D01*
X158352535Y-89562358D01*
X158227369Y-89537461D01*
X158109465Y-89488624D01*
X158003354Y-89417723D01*
X157913114Y-89327483D01*
X157842213Y-89221372D01*
X157793376Y-89103468D01*
X157768479Y-88978302D01*
X157768479Y-88850684D01*
X157793376Y-88725518D01*
X157842213Y-88607614D01*
X157913114Y-88501503D01*
X158003354Y-88411263D01*
X158109465Y-88340362D01*
X158227369Y-88291525D01*
X158352535Y-88266628D01*
X158480153Y-88266628D01*
X158605319Y-88291525D01*
G37*
G36*
X153537931Y-87536809D02*
G01*
X153701113Y-87604401D01*
X153847973Y-87702530D01*
X153972867Y-87827424D01*
X154070996Y-87974284D01*
X154138588Y-88137466D01*
X154173046Y-88310699D01*
X154173046Y-88487325D01*
X154138588Y-88660558D01*
X154070996Y-88823740D01*
X153972867Y-88970600D01*
X153847973Y-89095494D01*
X153701113Y-89193623D01*
X153537931Y-89261215D01*
X153364698Y-89295673D01*
X153188072Y-89295673D01*
X153014839Y-89261215D01*
X152851657Y-89193623D01*
X152704797Y-89095494D01*
X152579903Y-88970600D01*
X152481774Y-88823740D01*
X152414182Y-88660558D01*
X152379724Y-88487325D01*
X152379724Y-88310699D01*
X152414182Y-88137466D01*
X152481774Y-87974284D01*
X152579903Y-87827424D01*
X152704797Y-87702530D01*
X152851657Y-87604401D01*
X153014839Y-87536809D01*
X153188072Y-87502351D01*
X153364698Y-87502351D01*
X153537931Y-87536809D01*
G37*
G36*
X134542200Y-82219947D02*
G01*
X134883983Y-82287932D01*
X135217456Y-82389090D01*
X135539408Y-82522447D01*
X135846739Y-82686719D01*
X136136488Y-82880323D01*
X136405866Y-83101396D01*
X136652277Y-83347807D01*
X136873350Y-83617185D01*
X137066954Y-83906934D01*
X137231226Y-84214265D01*
X137364583Y-84536217D01*
X137465741Y-84869690D01*
X137533726Y-85211473D01*
X137567883Y-85558274D01*
X137567883Y-85906752D01*
X137533726Y-86253553D01*
X137465741Y-86595336D01*
X137364583Y-86928809D01*
X137231226Y-87250761D01*
X137066954Y-87558092D01*
X136873350Y-87847841D01*
X136652277Y-88117219D01*
X136405866Y-88363630D01*
X136136488Y-88584703D01*
X135846739Y-88778307D01*
X135539408Y-88942579D01*
X135217456Y-89075936D01*
X134883983Y-89177094D01*
X134542200Y-89245079D01*
X134195399Y-89279236D01*
X133846921Y-89279236D01*
X133500120Y-89245079D01*
X133158337Y-89177094D01*
X132824864Y-89075936D01*
X132502912Y-88942579D01*
X132195581Y-88778307D01*
X131905832Y-88584703D01*
X131636454Y-88363630D01*
X131390043Y-88117219D01*
X131168970Y-87847841D01*
X130975366Y-87558092D01*
X130811094Y-87250761D01*
X130677737Y-86928809D01*
X130576579Y-86595336D01*
X130508594Y-86253553D01*
X130474437Y-85906752D01*
X130474437Y-85558274D01*
X130508594Y-85211473D01*
X130576579Y-84869690D01*
X130677737Y-84536217D01*
X130811094Y-84214265D01*
X130975366Y-83906934D01*
X131168970Y-83617185D01*
X131390043Y-83347807D01*
X131636454Y-83101396D01*
X131905832Y-82880323D01*
X132195581Y-82686719D01*
X132502912Y-82522447D01*
X132824864Y-82389090D01*
X133158337Y-82287932D01*
X133500120Y-82219947D01*
X133846921Y-82185790D01*
X134195399Y-82185790D01*
X134542200Y-82219947D01*
G37*
G36*
X92850046Y-87195123D02*
G01*
X93013391Y-87262782D01*
X93160397Y-87361009D01*
X93285416Y-87486028D01*
X93383643Y-87633034D01*
X93451302Y-87796379D01*
X93485795Y-87969785D01*
X93485795Y-88146589D01*
X93451302Y-88319995D01*
X93383643Y-88483340D01*
X93285416Y-88630346D01*
X93160397Y-88755365D01*
X93013391Y-88853592D01*
X92850046Y-88921251D01*
X92676640Y-88955744D01*
X92499836Y-88955744D01*
X92326430Y-88921251D01*
X92163085Y-88853592D01*
X92016079Y-88755365D01*
X91891060Y-88630346D01*
X91792833Y-88483340D01*
X91725174Y-88319995D01*
X91690681Y-88146589D01*
X91690681Y-87969785D01*
X91725174Y-87796379D01*
X91792833Y-87633034D01*
X91891060Y-87486028D01*
X92016079Y-87361009D01*
X92163085Y-87262782D01*
X92326430Y-87195123D01*
X92499836Y-87160630D01*
X92676640Y-87160630D01*
X92850046Y-87195123D01*
G37*
G36*
X165082664Y-86406643D02*
G01*
X165099209Y-86417699D01*
X166230580Y-87549070D01*
X166241636Y-87565615D01*
X166245517Y-87585132D01*
X166241636Y-87604649D01*
X166230580Y-87621194D01*
X165099209Y-88752565D01*
X165082664Y-88763621D01*
X165063147Y-88767502D01*
X165043630Y-88763621D01*
X165027085Y-88752565D01*
X163895714Y-87621194D01*
X163884658Y-87604649D01*
X163880777Y-87585132D01*
X163884658Y-87565615D01*
X163895714Y-87549070D01*
X164452654Y-86992130D01*
X165018380Y-86426403D01*
X165018383Y-86426400D01*
X165027085Y-86417699D01*
X165043630Y-86406643D01*
X165063147Y-86402762D01*
X165082664Y-86406643D01*
G37*
G36*
X143757565Y-86770776D02*
G01*
X143911692Y-86834617D01*
X144050402Y-86927300D01*
X144168365Y-87045263D01*
X144261048Y-87183973D01*
X144324889Y-87338100D01*
X144357435Y-87501719D01*
X144357435Y-87668545D01*
X144324889Y-87832164D01*
X144261048Y-87986291D01*
X144168365Y-88125001D01*
X144050402Y-88242964D01*
X143911692Y-88335647D01*
X143757565Y-88399488D01*
X143593946Y-88432034D01*
X143427120Y-88432034D01*
X143263501Y-88399488D01*
X143109374Y-88335647D01*
X142970664Y-88242964D01*
X142852701Y-88125001D01*
X142760018Y-87986291D01*
X142696177Y-87832164D01*
X142663631Y-87668545D01*
X142663631Y-87501719D01*
X142696177Y-87338100D01*
X142760018Y-87183973D01*
X142852701Y-87045263D01*
X142970664Y-86927300D01*
X143109374Y-86834617D01*
X143263501Y-86770776D01*
X143427120Y-86738230D01*
X143593946Y-86738230D01*
X143757565Y-86770776D01*
G37*
G36*
X160063076Y-86733770D02*
G01*
X160208147Y-86793860D01*
X160338707Y-86881098D01*
X160449739Y-86992130D01*
X160536977Y-87122690D01*
X160597067Y-87267761D01*
X160627701Y-87421767D01*
X160627701Y-87578791D01*
X160597067Y-87732797D01*
X160536977Y-87877868D01*
X160449739Y-88008428D01*
X160338707Y-88119460D01*
X160208147Y-88206698D01*
X160063076Y-88266788D01*
X159909070Y-88297422D01*
X159752046Y-88297422D01*
X159598040Y-88266788D01*
X159452969Y-88206698D01*
X159322409Y-88119460D01*
X159211377Y-88008428D01*
X159124139Y-87877868D01*
X159064049Y-87732797D01*
X159033415Y-87578791D01*
X159033415Y-87421767D01*
X159064049Y-87267761D01*
X159124139Y-87122690D01*
X159211377Y-86992130D01*
X159322409Y-86881098D01*
X159452969Y-86793860D01*
X159598040Y-86733770D01*
X159752046Y-86703136D01*
X159909070Y-86703136D01*
X160063076Y-86733770D01*
G37*
G36*
X155333982Y-85740758D02*
G01*
X155497164Y-85808350D01*
X155644024Y-85906479D01*
X155768918Y-86031373D01*
X155867047Y-86178233D01*
X155934639Y-86341415D01*
X155969097Y-86514648D01*
X155969097Y-86691274D01*
X155934639Y-86864507D01*
X155867047Y-87027689D01*
X155768918Y-87174549D01*
X155644024Y-87299443D01*
X155497164Y-87397572D01*
X155333982Y-87465164D01*
X155160749Y-87499622D01*
X154984123Y-87499622D01*
X154810890Y-87465164D01*
X154647708Y-87397572D01*
X154500848Y-87299443D01*
X154375954Y-87174549D01*
X154277825Y-87027689D01*
X154210233Y-86864507D01*
X154175775Y-86691274D01*
X154175775Y-86514648D01*
X154210233Y-86341415D01*
X154277825Y-86178233D01*
X154375954Y-86031373D01*
X154500848Y-85906479D01*
X154647708Y-85808350D01*
X154810890Y-85740758D01*
X154984123Y-85706300D01*
X155160749Y-85706300D01*
X155333982Y-85740758D01*
G37*
G36*
X141961513Y-84974725D02*
G01*
X142115640Y-85038566D01*
X142254350Y-85131249D01*
X142372313Y-85249212D01*
X142464996Y-85387922D01*
X142528837Y-85542049D01*
X142561383Y-85705668D01*
X142561383Y-85872494D01*
X142528837Y-86036113D01*
X142464996Y-86190240D01*
X142372313Y-86328950D01*
X142254350Y-86446913D01*
X142115640Y-86539596D01*
X141961513Y-86603437D01*
X141797894Y-86635983D01*
X141631068Y-86635983D01*
X141467449Y-86603437D01*
X141313322Y-86539596D01*
X141174612Y-86446913D01*
X141056649Y-86328950D01*
X140963966Y-86190240D01*
X140900125Y-86036113D01*
X140867579Y-85872494D01*
X140867579Y-85705668D01*
X140900125Y-85542049D01*
X140963966Y-85387922D01*
X141056649Y-85249212D01*
X141174612Y-85131249D01*
X141313322Y-85038566D01*
X141467449Y-84974725D01*
X141631068Y-84942179D01*
X141797894Y-84942179D01*
X141961513Y-84974725D01*
G37*
G36*
X163514128Y-84974725D02*
G01*
X163668255Y-85038566D01*
X163806965Y-85131249D01*
X163924928Y-85249212D01*
X164017611Y-85387922D01*
X164081452Y-85542049D01*
X164113998Y-85705668D01*
X164113998Y-85872494D01*
X164081452Y-86036113D01*
X164017611Y-86190240D01*
X163924928Y-86328950D01*
X163806965Y-86446913D01*
X163668255Y-86539596D01*
X163514128Y-86603437D01*
X163350509Y-86635983D01*
X163183683Y-86635983D01*
X163020064Y-86603437D01*
X162865937Y-86539596D01*
X162727227Y-86446913D01*
X162609264Y-86328950D01*
X162516581Y-86190240D01*
X162452740Y-86036113D01*
X162420194Y-85872494D01*
X162420194Y-85705668D01*
X162452740Y-85542049D01*
X162516581Y-85387922D01*
X162609264Y-85249212D01*
X162727227Y-85131249D01*
X162865937Y-85038566D01*
X163020064Y-84974725D01*
X163183683Y-84942179D01*
X163350509Y-84942179D01*
X163514128Y-84974725D01*
G37*
G36*
X156888004Y-83557710D02*
G01*
X156904549Y-83568766D01*
X158106631Y-84770848D01*
X158117687Y-84787393D01*
X158121568Y-84806910D01*
X158117687Y-84826427D01*
X158106631Y-84842972D01*
X156904549Y-86045054D01*
X156888004Y-86056110D01*
X156868487Y-86059991D01*
X156848970Y-86056110D01*
X156832425Y-86045054D01*
X155630343Y-84842972D01*
X155619287Y-84826427D01*
X155615406Y-84806910D01*
X155619287Y-84787393D01*
X155630343Y-84770848D01*
X156523750Y-83877441D01*
X156823720Y-83577470D01*
X156823723Y-83577467D01*
X156832425Y-83568766D01*
X156848970Y-83557710D01*
X156868487Y-83553829D01*
X156888004Y-83557710D01*
G37*
G36*
X96442149Y-83603020D02*
G01*
X96605494Y-83670679D01*
X96752500Y-83768906D01*
X96877519Y-83893925D01*
X96975746Y-84040931D01*
X97043405Y-84204276D01*
X97077898Y-84377682D01*
X97077898Y-84554486D01*
X97043405Y-84727892D01*
X96975746Y-84891237D01*
X96877519Y-85038243D01*
X96752500Y-85163262D01*
X96605494Y-85261489D01*
X96442149Y-85329148D01*
X96268743Y-85363641D01*
X96091939Y-85363641D01*
X95918533Y-85329148D01*
X95755188Y-85261489D01*
X95608182Y-85163262D01*
X95483163Y-85038243D01*
X95384936Y-84891237D01*
X95317277Y-84727892D01*
X95282784Y-84554486D01*
X95282784Y-84377682D01*
X95317277Y-84204276D01*
X95384936Y-84040931D01*
X95483163Y-83893925D01*
X95608182Y-83768906D01*
X95755188Y-83670679D01*
X95918533Y-83603020D01*
X96091939Y-83568527D01*
X96268743Y-83568527D01*
X96442149Y-83603020D01*
G37*
G36*
X122019861Y-82361992D02*
G01*
X122036406Y-82373048D01*
X123238488Y-83575130D01*
X123249544Y-83591675D01*
X123253425Y-83611192D01*
X123249544Y-83630709D01*
X123238488Y-83647254D01*
X122036406Y-84849336D01*
X122019861Y-84860392D01*
X122000344Y-84864273D01*
X121980827Y-84860392D01*
X121964282Y-84849336D01*
X120762200Y-83647254D01*
X120751144Y-83630709D01*
X120747263Y-83611192D01*
X120751144Y-83591675D01*
X120762200Y-83575130D01*
X121650611Y-82686719D01*
X121955577Y-82381752D01*
X121955580Y-82381749D01*
X121964282Y-82373048D01*
X121980827Y-82361992D01*
X122000344Y-82358111D01*
X122019861Y-82361992D01*
G37*
G36*
X140165462Y-83178674D02*
G01*
X140319589Y-83242515D01*
X140458299Y-83335198D01*
X140576262Y-83453161D01*
X140668945Y-83591871D01*
X140732786Y-83745998D01*
X140765332Y-83909617D01*
X140765332Y-84076443D01*
X140732786Y-84240062D01*
X140668945Y-84394189D01*
X140576262Y-84532899D01*
X140458299Y-84650862D01*
X140319589Y-84743545D01*
X140165462Y-84807386D01*
X140001843Y-84839932D01*
X139835017Y-84839932D01*
X139671398Y-84807386D01*
X139517271Y-84743545D01*
X139378561Y-84650862D01*
X139260598Y-84532899D01*
X139167915Y-84394189D01*
X139104074Y-84240062D01*
X139071528Y-84076443D01*
X139071528Y-83909617D01*
X139104074Y-83745998D01*
X139167915Y-83591871D01*
X139260598Y-83453161D01*
X139378561Y-83335198D01*
X139517271Y-83242515D01*
X139671398Y-83178674D01*
X139835017Y-83146128D01*
X140001843Y-83146128D01*
X140165462Y-83178674D01*
G37*
G36*
X161718077Y-83178674D02*
G01*
X161872204Y-83242515D01*
X162010914Y-83335198D01*
X162128877Y-83453161D01*
X162221560Y-83591871D01*
X162285401Y-83745998D01*
X162317947Y-83909617D01*
X162317947Y-84076443D01*
X162285401Y-84240062D01*
X162221560Y-84394189D01*
X162128877Y-84532899D01*
X162010914Y-84650862D01*
X161872204Y-84743545D01*
X161718077Y-84807386D01*
X161554458Y-84839932D01*
X161387632Y-84839932D01*
X161224013Y-84807386D01*
X161069886Y-84743545D01*
X160931176Y-84650862D01*
X160813213Y-84532899D01*
X160720530Y-84394189D01*
X160656689Y-84240062D01*
X160624143Y-84076443D01*
X160624143Y-83909617D01*
X160656689Y-83745998D01*
X160720530Y-83591871D01*
X160813213Y-83453161D01*
X160931176Y-83335198D01*
X161069886Y-83242515D01*
X161224013Y-83178674D01*
X161387632Y-83146128D01*
X161554458Y-83146128D01*
X161718077Y-83178674D01*
G37*
G36*
X166250259Y-82667907D02*
G01*
X166395330Y-82727997D01*
X166525890Y-82815235D01*
X166636922Y-82926267D01*
X166724160Y-83056827D01*
X166784250Y-83201898D01*
X166814884Y-83355904D01*
X166814884Y-83512928D01*
X166784250Y-83666934D01*
X166724160Y-83812005D01*
X166636922Y-83942565D01*
X166525890Y-84053597D01*
X166395330Y-84140835D01*
X166250259Y-84200925D01*
X166096253Y-84231559D01*
X165939229Y-84231559D01*
X165785223Y-84200925D01*
X165640152Y-84140835D01*
X165509592Y-84053597D01*
X165398560Y-83942565D01*
X165311322Y-83812005D01*
X165251232Y-83666934D01*
X165220598Y-83512928D01*
X165220598Y-83355904D01*
X165251232Y-83201898D01*
X165311322Y-83056827D01*
X165398560Y-82926267D01*
X165509592Y-82815235D01*
X165640152Y-82727997D01*
X165785223Y-82667907D01*
X165939229Y-82637273D01*
X166096253Y-82637273D01*
X166250259Y-82667907D01*
G37*
G36*
X138369411Y-81382622D02*
G01*
X138523538Y-81446463D01*
X138662248Y-81539146D01*
X138780211Y-81657109D01*
X138872894Y-81795819D01*
X138936735Y-81949946D01*
X138969281Y-82113565D01*
X138969281Y-82280391D01*
X138936735Y-82444010D01*
X138872894Y-82598137D01*
X138780211Y-82736847D01*
X138662248Y-82854810D01*
X138523538Y-82947493D01*
X138369411Y-83011334D01*
X138205792Y-83043880D01*
X138038966Y-83043880D01*
X137875347Y-83011334D01*
X137721220Y-82947493D01*
X137582510Y-82854810D01*
X137464547Y-82736847D01*
X137371864Y-82598137D01*
X137308023Y-82444010D01*
X137275477Y-82280391D01*
X137275477Y-82113565D01*
X137308023Y-81949946D01*
X137371864Y-81795819D01*
X137464547Y-81657109D01*
X137582510Y-81539146D01*
X137721220Y-81446463D01*
X137875347Y-81382622D01*
X138038966Y-81350076D01*
X138205792Y-81350076D01*
X138369411Y-81382622D01*
G37*
G36*
X159922026Y-81382622D02*
G01*
X160076153Y-81446463D01*
X160214863Y-81539146D01*
X160332826Y-81657109D01*
X160425509Y-81795819D01*
X160489350Y-81949946D01*
X160521896Y-82113565D01*
X160521896Y-82280391D01*
X160489350Y-82444010D01*
X160425509Y-82598137D01*
X160332826Y-82736847D01*
X160214863Y-82854810D01*
X160076153Y-82947493D01*
X159922026Y-83011334D01*
X159758407Y-83043880D01*
X159591581Y-83043880D01*
X159427962Y-83011334D01*
X159273835Y-82947493D01*
X159135125Y-82854810D01*
X159017162Y-82736847D01*
X158924479Y-82598137D01*
X158860638Y-82444010D01*
X158828092Y-82280391D01*
X158828092Y-82113565D01*
X158860638Y-81949946D01*
X158924479Y-81795819D01*
X159017162Y-81657109D01*
X159135125Y-81539146D01*
X159273835Y-81446463D01*
X159427962Y-81382622D01*
X159591581Y-81350076D01*
X159758407Y-81350076D01*
X159922026Y-81382622D01*
G37*
G36*
X167635445Y-81349387D02*
G01*
X167762404Y-81401975D01*
X167876665Y-81478322D01*
X167973835Y-81575492D01*
X168050182Y-81689753D01*
X168102770Y-81816712D01*
X168129579Y-81951492D01*
X168129579Y-82088912D01*
X168102770Y-82223692D01*
X168050182Y-82350651D01*
X167973835Y-82464912D01*
X167876665Y-82562082D01*
X167762404Y-82638429D01*
X167635445Y-82691017D01*
X167500665Y-82717826D01*
X167363245Y-82717826D01*
X167228465Y-82691017D01*
X167101506Y-82638429D01*
X166987245Y-82562082D01*
X166890075Y-82464912D01*
X166813728Y-82350651D01*
X166761140Y-82223692D01*
X166734331Y-82088912D01*
X166734331Y-81951492D01*
X166761140Y-81816712D01*
X166813728Y-81689753D01*
X166890075Y-81575492D01*
X166987245Y-81478322D01*
X167101506Y-81401975D01*
X167228465Y-81349387D01*
X167363245Y-81322578D01*
X167500665Y-81322578D01*
X167635445Y-81349387D01*
G37*
G36*
X124057941Y-80952938D02*
G01*
X124221123Y-81020530D01*
X124367983Y-81118659D01*
X124492877Y-81243553D01*
X124591006Y-81390413D01*
X124658598Y-81553595D01*
X124693056Y-81726828D01*
X124693056Y-81903454D01*
X124658598Y-82076687D01*
X124591006Y-82239869D01*
X124492877Y-82386729D01*
X124367983Y-82511623D01*
X124221123Y-82609752D01*
X124057941Y-82677344D01*
X123884708Y-82711802D01*
X123708082Y-82711802D01*
X123534849Y-82677344D01*
X123371667Y-82609752D01*
X123224807Y-82511623D01*
X123099913Y-82386729D01*
X123001784Y-82239869D01*
X122934192Y-82076687D01*
X122899734Y-81903454D01*
X122899734Y-81726828D01*
X122934192Y-81553595D01*
X123001784Y-81390413D01*
X123099913Y-81243553D01*
X123224807Y-81118659D01*
X123371667Y-81020530D01*
X123534849Y-80952938D01*
X123708082Y-80918480D01*
X123884708Y-80918480D01*
X124057941Y-80952938D01*
G37*
G36*
X113751153Y-80438164D02*
G01*
X113914335Y-80505756D01*
X114061195Y-80603885D01*
X114186089Y-80728779D01*
X114284218Y-80875639D01*
X114351810Y-81038821D01*
X114386268Y-81212054D01*
X114386268Y-81388680D01*
X114351810Y-81561913D01*
X114284218Y-81725095D01*
X114186089Y-81871955D01*
X114061195Y-81996849D01*
X113914335Y-82094978D01*
X113751153Y-82162570D01*
X113577920Y-82197028D01*
X113401294Y-82197028D01*
X113228061Y-82162570D01*
X113064879Y-82094978D01*
X112918019Y-81996849D01*
X112793125Y-81871955D01*
X112694996Y-81725095D01*
X112627404Y-81561913D01*
X112592946Y-81388680D01*
X112592946Y-81212054D01*
X112627404Y-81038821D01*
X112694996Y-80875639D01*
X112793125Y-80728779D01*
X112918019Y-80603885D01*
X113064879Y-80505756D01*
X113228061Y-80438164D01*
X113401294Y-80403706D01*
X113577920Y-80403706D01*
X113751153Y-80438164D01*
G37*
G36*
X99791960Y-79623510D02*
G01*
X99808505Y-79634565D01*
X101011860Y-80837920D01*
X101022915Y-80854465D01*
X101026797Y-80873982D01*
X101022915Y-80893499D01*
X101011860Y-80910044D01*
X99808505Y-82113399D01*
X99791960Y-82124454D01*
X99772443Y-82128336D01*
X99752926Y-82124454D01*
X99736381Y-82113399D01*
X98533026Y-80910044D01*
X98521971Y-80893499D01*
X98518089Y-80873982D01*
X98521971Y-80854465D01*
X98533026Y-80837920D01*
X99736381Y-79634565D01*
X99752926Y-79623510D01*
X99772443Y-79619628D01*
X99791960Y-79623510D01*
G37*
G36*
X169049659Y-79935173D02*
G01*
X169176618Y-79987761D01*
X169290879Y-80064108D01*
X169388049Y-80161278D01*
X169464396Y-80275539D01*
X169516984Y-80402498D01*
X169543793Y-80537278D01*
X169543793Y-80674698D01*
X169516984Y-80809478D01*
X169464396Y-80936437D01*
X169388049Y-81050698D01*
X169290879Y-81147868D01*
X169176618Y-81224215D01*
X169049659Y-81276803D01*
X168914879Y-81303612D01*
X168777459Y-81303612D01*
X168642679Y-81276803D01*
X168515720Y-81224215D01*
X168401459Y-81147868D01*
X168304289Y-81050698D01*
X168227942Y-80936437D01*
X168175354Y-80809478D01*
X168148545Y-80674698D01*
X168148545Y-80537278D01*
X168175354Y-80402498D01*
X168227942Y-80275539D01*
X168304289Y-80161278D01*
X168401459Y-80064108D01*
X168515720Y-79987761D01*
X168642679Y-79935173D01*
X168777459Y-79908364D01*
X168914879Y-79908364D01*
X169049659Y-79935173D01*
G37*
G36*
X136573360Y-79586571D02*
G01*
X136727487Y-79650412D01*
X136866197Y-79743095D01*
X136984160Y-79861058D01*
X137076843Y-79999768D01*
X137140684Y-80153895D01*
X137173230Y-80317514D01*
X137173230Y-80484340D01*
X137140684Y-80647959D01*
X137076843Y-80802086D01*
X136984160Y-80940796D01*
X136866197Y-81058759D01*
X136727487Y-81151442D01*
X136573360Y-81215283D01*
X136409741Y-81247829D01*
X136242915Y-81247829D01*
X136079296Y-81215283D01*
X135925169Y-81151442D01*
X135786459Y-81058759D01*
X135668496Y-80940796D01*
X135575813Y-80802086D01*
X135511972Y-80647959D01*
X135479426Y-80484340D01*
X135479426Y-80317514D01*
X135511972Y-80153895D01*
X135575813Y-79999768D01*
X135668496Y-79861058D01*
X135786459Y-79743095D01*
X135925169Y-79650412D01*
X136079296Y-79586571D01*
X136242915Y-79554025D01*
X136409741Y-79554025D01*
X136573360Y-79586571D01*
G37*
G36*
X158125975Y-79586571D02*
G01*
X158280102Y-79650412D01*
X158418812Y-79743095D01*
X158536775Y-79861058D01*
X158629458Y-79999768D01*
X158693299Y-80153895D01*
X158725845Y-80317514D01*
X158725845Y-80484340D01*
X158693299Y-80647959D01*
X158629458Y-80802086D01*
X158536775Y-80940796D01*
X158418812Y-81058759D01*
X158280102Y-81151442D01*
X158125975Y-81215283D01*
X157962356Y-81247829D01*
X157795530Y-81247829D01*
X157631911Y-81215283D01*
X157477784Y-81151442D01*
X157339074Y-81058759D01*
X157221111Y-80940796D01*
X157128428Y-80802086D01*
X157064587Y-80647959D01*
X157032041Y-80484340D01*
X157032041Y-80317514D01*
X157064587Y-80153895D01*
X157128428Y-79999768D01*
X157221111Y-79861058D01*
X157339074Y-79743095D01*
X157477784Y-79650412D01*
X157631911Y-79586571D01*
X157795530Y-79554025D01*
X157962356Y-79554025D01*
X158125975Y-79586571D01*
G37*
G36*
X125853992Y-79156887D02*
G01*
X126017174Y-79224479D01*
X126164034Y-79322608D01*
X126288928Y-79447502D01*
X126387057Y-79594362D01*
X126454649Y-79757544D01*
X126489107Y-79930777D01*
X126489107Y-80107403D01*
X126454649Y-80280636D01*
X126387057Y-80443818D01*
X126288928Y-80590678D01*
X126164034Y-80715572D01*
X126017174Y-80813701D01*
X125853992Y-80881293D01*
X125680759Y-80915751D01*
X125504133Y-80915751D01*
X125330900Y-80881293D01*
X125167718Y-80813701D01*
X125020858Y-80715572D01*
X124895964Y-80590678D01*
X124797835Y-80443818D01*
X124730243Y-80280636D01*
X124695785Y-80107403D01*
X124695785Y-79930777D01*
X124730243Y-79757544D01*
X124797835Y-79594362D01*
X124895964Y-79447502D01*
X125020858Y-79322608D01*
X125167718Y-79224479D01*
X125330900Y-79156887D01*
X125504133Y-79122429D01*
X125680759Y-79122429D01*
X125853992Y-79156887D01*
G37*
G36*
X111713073Y-78255116D02*
G01*
X111729618Y-78266172D01*
X112931700Y-79468254D01*
X112942756Y-79484799D01*
X112946637Y-79504316D01*
X112942756Y-79523833D01*
X112931700Y-79540378D01*
X111729618Y-80742460D01*
X111713073Y-80753516D01*
X111693556Y-80757397D01*
X111674039Y-80753516D01*
X111657494Y-80742460D01*
X110455412Y-79540378D01*
X110444356Y-79523833D01*
X110440475Y-79504316D01*
X110444356Y-79484799D01*
X110455412Y-79468254D01*
X111349564Y-78574102D01*
X111648789Y-78274876D01*
X111648792Y-78274873D01*
X111657494Y-78266172D01*
X111674039Y-78255116D01*
X111693556Y-78251235D01*
X111713073Y-78255116D01*
G37*
G36*
X170449357Y-78568807D02*
G01*
X170567261Y-78617644D01*
X170673372Y-78688545D01*
X170763612Y-78778785D01*
X170834513Y-78884896D01*
X170883350Y-79002800D01*
X170908247Y-79127966D01*
X170908247Y-79255584D01*
X170883350Y-79380750D01*
X170834513Y-79498654D01*
X170763612Y-79604765D01*
X170673372Y-79695005D01*
X170567261Y-79765906D01*
X170449357Y-79814743D01*
X170324191Y-79839640D01*
X170196573Y-79839640D01*
X170071407Y-79814743D01*
X169953503Y-79765906D01*
X169847392Y-79695005D01*
X169757152Y-79604765D01*
X169686251Y-79498654D01*
X169637414Y-79380750D01*
X169612517Y-79255584D01*
X169612517Y-79127966D01*
X169637414Y-79002800D01*
X169686251Y-78884896D01*
X169757152Y-78778785D01*
X169847392Y-78688545D01*
X169953503Y-78617644D01*
X170071407Y-78568807D01*
X170196573Y-78543910D01*
X170324191Y-78543910D01*
X170449357Y-78568807D01*
G37*
G36*
X164782144Y-76864237D02*
G01*
X164798690Y-76875293D01*
X165505796Y-77582399D01*
X165516852Y-77598945D01*
X165520733Y-77618462D01*
X165516852Y-77637979D01*
X165505796Y-77654524D01*
X163525897Y-79634423D01*
X163509352Y-79645479D01*
X163489835Y-79649360D01*
X163470318Y-79645479D01*
X163453772Y-79634423D01*
X162746666Y-78927317D01*
X162735610Y-78910771D01*
X162731729Y-78891254D01*
X162735610Y-78871737D01*
X162746666Y-78855192D01*
X163654814Y-77947044D01*
X164717860Y-76883997D01*
X164717863Y-76883994D01*
X164726565Y-76875293D01*
X164743110Y-76864237D01*
X164762627Y-76860356D01*
X164782144Y-76864237D01*
G37*
G36*
X134777309Y-77790520D02*
G01*
X134931436Y-77854361D01*
X135070146Y-77947044D01*
X135188109Y-78065007D01*
X135280792Y-78203717D01*
X135344633Y-78357844D01*
X135377179Y-78521463D01*
X135377179Y-78688289D01*
X135344633Y-78851908D01*
X135280792Y-79006035D01*
X135188109Y-79144745D01*
X135070146Y-79262708D01*
X134931436Y-79355391D01*
X134777309Y-79419232D01*
X134613690Y-79451778D01*
X134446864Y-79451778D01*
X134283245Y-79419232D01*
X134129118Y-79355391D01*
X133990408Y-79262708D01*
X133872445Y-79144745D01*
X133779762Y-79006035D01*
X133715921Y-78851908D01*
X133683375Y-78688289D01*
X133683375Y-78521463D01*
X133715921Y-78357844D01*
X133779762Y-78203717D01*
X133872445Y-78065007D01*
X133990408Y-77947044D01*
X134129118Y-77854361D01*
X134283245Y-77790520D01*
X134446864Y-77757974D01*
X134613690Y-77757974D01*
X134777309Y-77790520D01*
G37*
G36*
X156329923Y-77790520D02*
G01*
X156484050Y-77854361D01*
X156622760Y-77947044D01*
X156740723Y-78065007D01*
X156833406Y-78203717D01*
X156897247Y-78357844D01*
X156929793Y-78521463D01*
X156929793Y-78688289D01*
X156897247Y-78851908D01*
X156833406Y-79006035D01*
X156740723Y-79144745D01*
X156622760Y-79262708D01*
X156484050Y-79355391D01*
X156329923Y-79419232D01*
X156166304Y-79451778D01*
X155999478Y-79451778D01*
X155835859Y-79419232D01*
X155681732Y-79355391D01*
X155543022Y-79262708D01*
X155425059Y-79144745D01*
X155332376Y-79006035D01*
X155268535Y-78851908D01*
X155235989Y-78688289D01*
X155235989Y-78521463D01*
X155268535Y-78357844D01*
X155332376Y-78203717D01*
X155425059Y-78065007D01*
X155543022Y-77947044D01*
X155681732Y-77854361D01*
X155835859Y-77790520D01*
X155999478Y-77757974D01*
X156166304Y-77757974D01*
X156329923Y-77790520D01*
G37*
G36*
X117571637Y-72320452D02*
G01*
X117913420Y-72388437D01*
X118246893Y-72489595D01*
X118568845Y-72622952D01*
X118876176Y-72787224D01*
X119165925Y-72980828D01*
X119435303Y-73201901D01*
X119681714Y-73448312D01*
X119902787Y-73717690D01*
X120096391Y-74007439D01*
X120260663Y-74314770D01*
X120394020Y-74636722D01*
X120495178Y-74970195D01*
X120563163Y-75311978D01*
X120597320Y-75658779D01*
X120597320Y-76007257D01*
X120563163Y-76354058D01*
X120495178Y-76695841D01*
X120394020Y-77029314D01*
X120260663Y-77351266D01*
X120096391Y-77658597D01*
X119902787Y-77948346D01*
X119681714Y-78217724D01*
X119435303Y-78464135D01*
X119165925Y-78685208D01*
X118876176Y-78878812D01*
X118568845Y-79043084D01*
X118246893Y-79176441D01*
X117913420Y-79277599D01*
X117571637Y-79345584D01*
X117224836Y-79379741D01*
X116876358Y-79379741D01*
X116529557Y-79345584D01*
X116187774Y-79277599D01*
X115854301Y-79176441D01*
X115532349Y-79043084D01*
X115225018Y-78878812D01*
X114935269Y-78685208D01*
X114665891Y-78464135D01*
X114419480Y-78217724D01*
X114198407Y-77948346D01*
X114004803Y-77658597D01*
X113840531Y-77351266D01*
X113707174Y-77029314D01*
X113606016Y-76695841D01*
X113538031Y-76354058D01*
X113503874Y-76007257D01*
X113503874Y-75658779D01*
X113538031Y-75311978D01*
X113606016Y-74970195D01*
X113707174Y-74636722D01*
X113840531Y-74314770D01*
X114004803Y-74007439D01*
X114198407Y-73717690D01*
X114419480Y-73448312D01*
X114665891Y-73201901D01*
X114935269Y-72980828D01*
X115225018Y-72787224D01*
X115532349Y-72622952D01*
X115854301Y-72489595D01*
X116187774Y-72388437D01*
X116529557Y-72320452D01*
X116876358Y-72286295D01*
X117224836Y-72286295D01*
X117571637Y-72320452D01*
G37*
G36*
X171907114Y-77011052D02*
G01*
X172052185Y-77071142D01*
X172182745Y-77158380D01*
X172293777Y-77269412D01*
X172381015Y-77399972D01*
X172441105Y-77545043D01*
X172471739Y-77699049D01*
X172471739Y-77856073D01*
X172441105Y-78010079D01*
X172381015Y-78155150D01*
X172293777Y-78285710D01*
X172182745Y-78396742D01*
X172052185Y-78483980D01*
X171907114Y-78544070D01*
X171753108Y-78574704D01*
X171596084Y-78574704D01*
X171442078Y-78544070D01*
X171297007Y-78483980D01*
X171166447Y-78396742D01*
X171055415Y-78285710D01*
X170968177Y-78155150D01*
X170908087Y-78010079D01*
X170877453Y-77856073D01*
X170877453Y-77699049D01*
X170908087Y-77545043D01*
X170968177Y-77399972D01*
X171055415Y-77269412D01*
X171166447Y-77158380D01*
X171297007Y-77071142D01*
X171442078Y-77011052D01*
X171596084Y-76980418D01*
X171753108Y-76980418D01*
X171907114Y-77011052D01*
G37*
G36*
X154533872Y-75994469D02*
G01*
X154687999Y-76058310D01*
X154826709Y-76150993D01*
X154944672Y-76268956D01*
X155037355Y-76407666D01*
X155101196Y-76561793D01*
X155133742Y-76725412D01*
X155133742Y-76892238D01*
X155101196Y-77055857D01*
X155037355Y-77209984D01*
X154944672Y-77348694D01*
X154826709Y-77466657D01*
X154687999Y-77559340D01*
X154533872Y-77623181D01*
X154370253Y-77655727D01*
X154203427Y-77655727D01*
X154039808Y-77623181D01*
X153885681Y-77559340D01*
X153746971Y-77466657D01*
X153629008Y-77348694D01*
X153536325Y-77209984D01*
X153472484Y-77055857D01*
X153439938Y-76892238D01*
X153439938Y-76725412D01*
X153472484Y-76561793D01*
X153536325Y-76407666D01*
X153629008Y-76268956D01*
X153746971Y-76150993D01*
X153885681Y-76058310D01*
X154039808Y-75994469D01*
X154203427Y-75961923D01*
X154370253Y-75961923D01*
X154533872Y-75994469D01*
G37*
G36*
X161953717Y-74035810D02*
G01*
X161970263Y-74046866D01*
X162677369Y-74753972D01*
X162688425Y-74770518D01*
X162692306Y-74790035D01*
X162688425Y-74809552D01*
X162677369Y-74826097D01*
X160697470Y-76805996D01*
X160680925Y-76817052D01*
X160661408Y-76820933D01*
X160641891Y-76817052D01*
X160625345Y-76805996D01*
X159918239Y-76098890D01*
X159907183Y-76082344D01*
X159903302Y-76062827D01*
X159907183Y-76043310D01*
X159918239Y-76026765D01*
X160848877Y-75096127D01*
X161889433Y-74055570D01*
X161889436Y-74055567D01*
X161898138Y-74046866D01*
X161914683Y-74035810D01*
X161934200Y-74031929D01*
X161953717Y-74035810D01*
G37*
G36*
X152737821Y-74198417D02*
G01*
X152891948Y-74262258D01*
X153030658Y-74354941D01*
X153148621Y-74472904D01*
X153241304Y-74611614D01*
X153305145Y-74765741D01*
X153337691Y-74929360D01*
X153337691Y-75096186D01*
X153305145Y-75259805D01*
X153241304Y-75413932D01*
X153148621Y-75552642D01*
X153030658Y-75670605D01*
X152891948Y-75763288D01*
X152737821Y-75827129D01*
X152574202Y-75859675D01*
X152407376Y-75859675D01*
X152243757Y-75827129D01*
X152089630Y-75763288D01*
X151950920Y-75670605D01*
X151832957Y-75552642D01*
X151740274Y-75413932D01*
X151676433Y-75259805D01*
X151643887Y-75096186D01*
X151643887Y-74929360D01*
X151676433Y-74765741D01*
X151740274Y-74611614D01*
X151832957Y-74472904D01*
X151950920Y-74354941D01*
X152089630Y-74262258D01*
X152243757Y-74198417D01*
X152407376Y-74165871D01*
X152574202Y-74165871D01*
X152737821Y-74198417D01*
G37*
G36*
X168883363Y-72763018D02*
G01*
X168899909Y-72774074D01*
X169607015Y-73481180D01*
X169618071Y-73497726D01*
X169621952Y-73517243D01*
X169618071Y-73536760D01*
X169607015Y-73553305D01*
X167627116Y-75533204D01*
X167610571Y-75544260D01*
X167591054Y-75548141D01*
X167571537Y-75544260D01*
X167554991Y-75533204D01*
X166847885Y-74826098D01*
X166836829Y-74809552D01*
X166832948Y-74790035D01*
X166836829Y-74770518D01*
X166847885Y-74753973D01*
X167776846Y-73825012D01*
X168819079Y-72782778D01*
X168819082Y-72782775D01*
X168827784Y-72774074D01*
X168844329Y-72763018D01*
X168863846Y-72759137D01*
X168883363Y-72763018D01*
G37*
G36*
X160009173Y-72091266D02*
G01*
X160025719Y-72102322D01*
X160732825Y-72809428D01*
X160743881Y-72825974D01*
X160747762Y-72845491D01*
X160743881Y-72865008D01*
X160732825Y-72881553D01*
X158752926Y-74861452D01*
X158736381Y-74872508D01*
X158716864Y-74876389D01*
X158697347Y-74872508D01*
X158680801Y-74861452D01*
X157973695Y-74154346D01*
X157962639Y-74137800D01*
X157958758Y-74118283D01*
X157962639Y-74098766D01*
X157973695Y-74082221D01*
X158922607Y-73133309D01*
X159944889Y-72111026D01*
X159944892Y-72111023D01*
X159953594Y-72102322D01*
X159970139Y-72091266D01*
X159989656Y-72087385D01*
X160009173Y-72091266D01*
G37*
G36*
X103910842Y-72503452D02*
G01*
X103927387Y-72514508D01*
X103938443Y-72531053D01*
X103942325Y-72550570D01*
X103942325Y-74250570D01*
X103938443Y-74270087D01*
X103927387Y-74286632D01*
X103910842Y-74297688D01*
X103891325Y-74301570D01*
X102191325Y-74301570D01*
X102171808Y-74297688D01*
X102155263Y-74286632D01*
X102144207Y-74270087D01*
X102140325Y-74250570D01*
X102140325Y-72550570D01*
X102144207Y-72531053D01*
X102155263Y-72514508D01*
X102171808Y-72503452D01*
X102191325Y-72499570D01*
X103891325Y-72499570D01*
X103910842Y-72503452D01*
G37*
G36*
X105842871Y-72538367D02*
G01*
X106006053Y-72605959D01*
X106152913Y-72704088D01*
X106277807Y-72828982D01*
X106375936Y-72975842D01*
X106443528Y-73139024D01*
X106477986Y-73312257D01*
X106477986Y-73488883D01*
X106443528Y-73662116D01*
X106375936Y-73825298D01*
X106277807Y-73972158D01*
X106152913Y-74097052D01*
X106006053Y-74195181D01*
X105842871Y-74262773D01*
X105669638Y-74297231D01*
X105493012Y-74297231D01*
X105319779Y-74262773D01*
X105156597Y-74195181D01*
X105009737Y-74097052D01*
X104884843Y-73972158D01*
X104786714Y-73825298D01*
X104719122Y-73662116D01*
X104684664Y-73488883D01*
X104684664Y-73312257D01*
X104719122Y-73139024D01*
X104786714Y-72975842D01*
X104884843Y-72828982D01*
X105009737Y-72704088D01*
X105156597Y-72605959D01*
X105319779Y-72538367D01*
X105493012Y-72503909D01*
X105669638Y-72503909D01*
X105842871Y-72538367D01*
G37*
G36*
X108382870Y-72538367D02*
G01*
X108546052Y-72605959D01*
X108692912Y-72704088D01*
X108817806Y-72828982D01*
X108915935Y-72975842D01*
X108983527Y-73139024D01*
X109017985Y-73312257D01*
X109017985Y-73488883D01*
X108983527Y-73662116D01*
X108915935Y-73825298D01*
X108817806Y-73972158D01*
X108692912Y-74097052D01*
X108546052Y-74195181D01*
X108382870Y-74262773D01*
X108209637Y-74297231D01*
X108033011Y-74297231D01*
X107859778Y-74262773D01*
X107696596Y-74195181D01*
X107549736Y-74097052D01*
X107424842Y-73972158D01*
X107326713Y-73825298D01*
X107259121Y-73662116D01*
X107224663Y-73488883D01*
X107224663Y-73312257D01*
X107259121Y-73139024D01*
X107326713Y-72975842D01*
X107424842Y-72828982D01*
X107549736Y-72704088D01*
X107696596Y-72605959D01*
X107859778Y-72538367D01*
X108033011Y-72503909D01*
X108209637Y-72503909D01*
X108382870Y-72538367D01*
G37*
G36*
X110922871Y-72538367D02*
G01*
X111086053Y-72605959D01*
X111232913Y-72704088D01*
X111357807Y-72828982D01*
X111455936Y-72975842D01*
X111523528Y-73139024D01*
X111557986Y-73312257D01*
X111557986Y-73488883D01*
X111523528Y-73662116D01*
X111455936Y-73825298D01*
X111357807Y-73972158D01*
X111232913Y-74097052D01*
X111086053Y-74195181D01*
X110922871Y-74262773D01*
X110749638Y-74297231D01*
X110573012Y-74297231D01*
X110399779Y-74262773D01*
X110236597Y-74195181D01*
X110089737Y-74097052D01*
X109964843Y-73972158D01*
X109866714Y-73825298D01*
X109799122Y-73662116D01*
X109764664Y-73488883D01*
X109764664Y-73312257D01*
X109799122Y-73139024D01*
X109866714Y-72975842D01*
X109964843Y-72828982D01*
X110089737Y-72704088D01*
X110236597Y-72605959D01*
X110399779Y-72538367D01*
X110573012Y-72503909D01*
X110749638Y-72503909D01*
X110922871Y-72538367D01*
G37*
G36*
X150941770Y-72402366D02*
G01*
X151095897Y-72466207D01*
X151234607Y-72558890D01*
X151352570Y-72676853D01*
X151445253Y-72815563D01*
X151509094Y-72969690D01*
X151541640Y-73133309D01*
X151541640Y-73300135D01*
X151509094Y-73463754D01*
X151445253Y-73617881D01*
X151352570Y-73756591D01*
X151234607Y-73874554D01*
X151095897Y-73967237D01*
X150941770Y-74031078D01*
X150778151Y-74063624D01*
X150611325Y-74063624D01*
X150447706Y-74031078D01*
X150293579Y-73967237D01*
X150154869Y-73874554D01*
X150036906Y-73756591D01*
X149944223Y-73617881D01*
X149880382Y-73463754D01*
X149847836Y-73300135D01*
X149847836Y-73133309D01*
X149880382Y-72969690D01*
X149944223Y-72815563D01*
X150036906Y-72676853D01*
X150154869Y-72558890D01*
X150293579Y-72466207D01*
X150447706Y-72402366D01*
X150611325Y-72369820D01*
X150778151Y-72369820D01*
X150941770Y-72402366D01*
G37*
G36*
X166054936Y-69934591D02*
G01*
X166071482Y-69945647D01*
X166778588Y-70652753D01*
X166789644Y-70669299D01*
X166793525Y-70688816D01*
X166789644Y-70708333D01*
X166778588Y-70724878D01*
X164798689Y-72704777D01*
X164782144Y-72715833D01*
X164762627Y-72719714D01*
X164743110Y-72715833D01*
X164726564Y-72704777D01*
X164019458Y-71997671D01*
X164008402Y-71981125D01*
X164004521Y-71961608D01*
X164008402Y-71942091D01*
X164019458Y-71925546D01*
X165000440Y-70944564D01*
X165990652Y-69954351D01*
X165990655Y-69954348D01*
X165999357Y-69945647D01*
X166015902Y-69934591D01*
X166035419Y-69930710D01*
X166054936Y-69934591D01*
G37*
G36*
X149145718Y-70606315D02*
G01*
X149299845Y-70670156D01*
X149438555Y-70762839D01*
X149556518Y-70880802D01*
X149649201Y-71019512D01*
X149713042Y-71173639D01*
X149745588Y-71337258D01*
X149745588Y-71504084D01*
X149713042Y-71667703D01*
X149649201Y-71821830D01*
X149556518Y-71960540D01*
X149438555Y-72078503D01*
X149299845Y-72171186D01*
X149145718Y-72235027D01*
X148982099Y-72267573D01*
X148815273Y-72267573D01*
X148651654Y-72235027D01*
X148497527Y-72171186D01*
X148358817Y-72078503D01*
X148240854Y-71960540D01*
X148148171Y-71821830D01*
X148084330Y-71667703D01*
X148051784Y-71504084D01*
X148051784Y-71337258D01*
X148084330Y-71173639D01*
X148148171Y-71019512D01*
X148240854Y-70880802D01*
X148358817Y-70762839D01*
X148497527Y-70670156D01*
X148651654Y-70606315D01*
X148815273Y-70573769D01*
X148982099Y-70573769D01*
X149145718Y-70606315D01*
G37*
G36*
X157180746Y-69262839D02*
G01*
X157197292Y-69273895D01*
X157904398Y-69981001D01*
X157915454Y-69997547D01*
X157919335Y-70017064D01*
X157915454Y-70036581D01*
X157904398Y-70053126D01*
X155924499Y-72033025D01*
X155907954Y-72044081D01*
X155888437Y-72047962D01*
X155868920Y-72044081D01*
X155852374Y-72033025D01*
X155145268Y-71325919D01*
X155134212Y-71309373D01*
X155130331Y-71289856D01*
X155134212Y-71270339D01*
X155145268Y-71253794D01*
X156117078Y-70281984D01*
X157116462Y-69282599D01*
X157116465Y-69282596D01*
X157125167Y-69273895D01*
X157141712Y-69262839D01*
X157161229Y-69258958D01*
X157180746Y-69262839D01*
G37*
G36*
X114522199Y-66713683D02*
G01*
X114801098Y-66777340D01*
X115071116Y-66871823D01*
X115328858Y-66995945D01*
X115571081Y-67148144D01*
X115794741Y-67326507D01*
X115997024Y-67528790D01*
X116175387Y-67752450D01*
X116327586Y-67994673D01*
X116451708Y-68252415D01*
X116546191Y-68522433D01*
X116609848Y-68801332D01*
X116641878Y-69085604D01*
X116641878Y-69371676D01*
X116609848Y-69655948D01*
X116546191Y-69934847D01*
X116451708Y-70204865D01*
X116327586Y-70462607D01*
X116175387Y-70704830D01*
X115997024Y-70928490D01*
X115794741Y-71130773D01*
X115571081Y-71309136D01*
X115328858Y-71461335D01*
X115071116Y-71585457D01*
X114801098Y-71679940D01*
X114522199Y-71743597D01*
X114237927Y-71775627D01*
X113951855Y-71775627D01*
X113667583Y-71743597D01*
X113388684Y-71679940D01*
X113118666Y-71585457D01*
X112860924Y-71461335D01*
X112618701Y-71309136D01*
X112395041Y-71130773D01*
X112192758Y-70928490D01*
X112014395Y-70704830D01*
X111862196Y-70462607D01*
X111738074Y-70204865D01*
X111643591Y-69934847D01*
X111579934Y-69655948D01*
X111547904Y-69371676D01*
X111547904Y-69085604D01*
X111579934Y-68801332D01*
X111643591Y-68522433D01*
X111738074Y-68252415D01*
X111862196Y-67994673D01*
X112014395Y-67752450D01*
X112192758Y-67528790D01*
X112395041Y-67326507D01*
X112618701Y-67148144D01*
X112860924Y-66995945D01*
X113118666Y-66871823D01*
X113388684Y-66777340D01*
X113667583Y-66713683D01*
X113951855Y-66681653D01*
X114237927Y-66681653D01*
X114522199Y-66713683D01*
G37*
G36*
X138636871Y-68926963D02*
G01*
X138653416Y-68938019D01*
X139855498Y-70140101D01*
X139866554Y-70156646D01*
X139870435Y-70176163D01*
X139866554Y-70195680D01*
X139855498Y-70212225D01*
X138653416Y-71414307D01*
X138636871Y-71425363D01*
X138617354Y-71429244D01*
X138597837Y-71425363D01*
X138581292Y-71414307D01*
X137379210Y-70212225D01*
X137368154Y-70195680D01*
X137364273Y-70176163D01*
X137368154Y-70156646D01*
X137379210Y-70140101D01*
X138260353Y-69258958D01*
X138572587Y-68946723D01*
X138572590Y-68946720D01*
X138581292Y-68938019D01*
X138597837Y-68926963D01*
X138617354Y-68923082D01*
X138636871Y-68926963D01*
G37*
G36*
X151950733Y-43032680D02*
G01*
X151961941Y-43032680D01*
X152017139Y-43041422D01*
X152142785Y-43057964D01*
X152173441Y-43066178D01*
X152202325Y-43070753D01*
X152257868Y-43088800D01*
X152338719Y-43110464D01*
X152390306Y-43131832D01*
X152433793Y-43145962D01*
X152474533Y-43166720D01*
X152526122Y-43188089D01*
X152598609Y-43229940D01*
X152650646Y-43256454D01*
X152674306Y-43273643D01*
X152701790Y-43289512D01*
X152802325Y-43366655D01*
X152847545Y-43399509D01*
X152859286Y-43410362D01*
X152864346Y-43414245D01*
X152929348Y-43475127D01*
X152936974Y-43482176D01*
X153656077Y-44201279D01*
X153791776Y-44168703D01*
X153820264Y-44081028D01*
X153912947Y-43899128D01*
X154032943Y-43733967D01*
X154177299Y-43589611D01*
X154342460Y-43469615D01*
X154524360Y-43376932D01*
X154718519Y-43313845D01*
X154920156Y-43281910D01*
X155124306Y-43281910D01*
X155325943Y-43313845D01*
X155520102Y-43376932D01*
X155702002Y-43469615D01*
X155867163Y-43589611D01*
X155942177Y-43658953D01*
X164781011Y-52497787D01*
X164850353Y-52572801D01*
X164970349Y-52737962D01*
X165063032Y-52919862D01*
X165126119Y-53114021D01*
X165158054Y-53315658D01*
X165158054Y-53519808D01*
X165126119Y-53721445D01*
X165063032Y-53915604D01*
X164970349Y-54097504D01*
X164850353Y-54262665D01*
X164705997Y-54407021D01*
X164540836Y-54527017D01*
X164358936Y-54619700D01*
X164271260Y-54648188D01*
X164238682Y-54783884D01*
X164957788Y-55502990D01*
X164964841Y-55510620D01*
X165025718Y-55575617D01*
X165029599Y-55580675D01*
X165040455Y-55592419D01*
X165073312Y-55637644D01*
X165150451Y-55738173D01*
X165166317Y-55765654D01*
X165183510Y-55789318D01*
X165210030Y-55841367D01*
X165251872Y-55913839D01*
X165262920Y-55940509D01*
X165298079Y-55975669D01*
X165324751Y-55986719D01*
X165397239Y-56028570D01*
X165449279Y-56055086D01*
X165472939Y-56072276D01*
X165500423Y-56088144D01*
X165600958Y-56165287D01*
X165646178Y-56198141D01*
X165657919Y-56208994D01*
X165662979Y-56212877D01*
X165727981Y-56273759D01*
X165735607Y-56280808D01*
X166454710Y-56999911D01*
X166590409Y-56967335D01*
X166618897Y-56879660D01*
X166711580Y-56697760D01*
X166831576Y-56532599D01*
X166975932Y-56388243D01*
X167141093Y-56268247D01*
X167322993Y-56175564D01*
X167517152Y-56112477D01*
X167718789Y-56080542D01*
X167922939Y-56080542D01*
X168124576Y-56112477D01*
X168318735Y-56175564D01*
X168500635Y-56268247D01*
X168665796Y-56388243D01*
X168740810Y-56457585D01*
X177579644Y-65296419D01*
X177648986Y-65371433D01*
X177768982Y-65536594D01*
X177861665Y-65718494D01*
X177924752Y-65912653D01*
X177956687Y-66114290D01*
X177956687Y-66318440D01*
X177924752Y-66520077D01*
X177861665Y-66714236D01*
X177768982Y-66896136D01*
X177648986Y-67061297D01*
X177504630Y-67205653D01*
X177339469Y-67325649D01*
X177157569Y-67418332D01*
X177069893Y-67446820D01*
X177037315Y-67582516D01*
X177756421Y-68301622D01*
X177763474Y-68309252D01*
X177824351Y-68374249D01*
X177828232Y-68379307D01*
X177839088Y-68391051D01*
X177871945Y-68436276D01*
X177949084Y-68536805D01*
X177964950Y-68564287D01*
X177982143Y-68587950D01*
X178008660Y-68639992D01*
X178050507Y-68712473D01*
X178071873Y-68764056D01*
X178092635Y-68804803D01*
X178106766Y-68848295D01*
X178128132Y-68899876D01*
X178149792Y-68980714D01*
X178167844Y-69036271D01*
X178172419Y-69065161D01*
X178180632Y-69095810D01*
X178197172Y-69221444D01*
X178205917Y-69276655D01*
X178205917Y-69287863D01*
X178207110Y-69296925D01*
X178207110Y-69499764D01*
X178205917Y-69508825D01*
X178205917Y-69520035D01*
X178197171Y-69575250D01*
X178180632Y-69700879D01*
X178172420Y-69731526D01*
X178167844Y-69760419D01*
X178149790Y-69815980D01*
X178128132Y-69896813D01*
X178106768Y-69948389D01*
X178092635Y-69991887D01*
X178071871Y-70032638D01*
X178050507Y-70084216D01*
X178008664Y-70156688D01*
X177982143Y-70208740D01*
X177964948Y-70232406D01*
X177949084Y-70259884D01*
X177871959Y-70360395D01*
X177839088Y-70405639D01*
X177831157Y-70413569D01*
X177825601Y-70420811D01*
X177682164Y-70564248D01*
X177674922Y-70569804D01*
X177666992Y-70577735D01*
X177621748Y-70610606D01*
X177521237Y-70687731D01*
X177493759Y-70703595D01*
X177470093Y-70720790D01*
X177418041Y-70747311D01*
X177345569Y-70789154D01*
X177293991Y-70810518D01*
X177253240Y-70831282D01*
X177209742Y-70845415D01*
X177158166Y-70866779D01*
X177077333Y-70888437D01*
X177021772Y-70906491D01*
X176992879Y-70911067D01*
X176962232Y-70919279D01*
X176836600Y-70935819D01*
X176781388Y-70944564D01*
X176770179Y-70944564D01*
X176761118Y-70945757D01*
X176558278Y-70945757D01*
X176549217Y-70944564D01*
X176538008Y-70944564D01*
X176482797Y-70935819D01*
X176357163Y-70919279D01*
X176326514Y-70911066D01*
X176297624Y-70906491D01*
X176242067Y-70888439D01*
X176161229Y-70866779D01*
X176109648Y-70845413D01*
X176066156Y-70831282D01*
X176025409Y-70810520D01*
X175973826Y-70789154D01*
X175901345Y-70747307D01*
X175849303Y-70720790D01*
X175825640Y-70703597D01*
X175798158Y-70687731D01*
X175697629Y-70610592D01*
X175652404Y-70577735D01*
X175640660Y-70566879D01*
X175635602Y-70562998D01*
X175570605Y-70502121D01*
X175562975Y-70495068D01*
X174843869Y-69775962D01*
X174708173Y-69808540D01*
X174679685Y-69896216D01*
X174587002Y-70078116D01*
X174467006Y-70243277D01*
X174322650Y-70387633D01*
X174157489Y-70507629D01*
X173975589Y-70600312D01*
X173781430Y-70663399D01*
X173579793Y-70695334D01*
X173375643Y-70695334D01*
X173174006Y-70663399D01*
X172979847Y-70600312D01*
X172797947Y-70507629D01*
X172632786Y-70387633D01*
X172557772Y-70318291D01*
X172556050Y-70316569D01*
X172549597Y-70310604D01*
X172448931Y-70312581D01*
X171358519Y-71402994D01*
X171341974Y-71414050D01*
X171322457Y-71417931D01*
X171302940Y-71414050D01*
X171286395Y-71402994D01*
X170084313Y-70200912D01*
X170073257Y-70184367D01*
X170069376Y-70164850D01*
X170073257Y-70145333D01*
X170084313Y-70128788D01*
X170841436Y-69371665D01*
X171174514Y-69038586D01*
X171174514Y-68935034D01*
X170580320Y-68340840D01*
X170436929Y-68384337D01*
X170423067Y-68454026D01*
X170423067Y-68457112D01*
X170388609Y-68630345D01*
X170321017Y-68793527D01*
X170222888Y-68940387D01*
X170097994Y-69065281D01*
X169951134Y-69163410D01*
X169787952Y-69231002D01*
X169614719Y-69265460D01*
X169438093Y-69265460D01*
X169264860Y-69231002D01*
X169101678Y-69163410D01*
X168954818Y-69065281D01*
X168829924Y-68940387D01*
X168731795Y-68793527D01*
X168664203Y-68630345D01*
X168629745Y-68457112D01*
X168629745Y-68280486D01*
X168664203Y-68107253D01*
X168731795Y-67944071D01*
X168829924Y-67797211D01*
X168954818Y-67672317D01*
X169101678Y-67574188D01*
X169264860Y-67506596D01*
X169438093Y-67472138D01*
X169441168Y-67472138D01*
X169510867Y-67458274D01*
X169554364Y-67314884D01*
X168784269Y-66544789D01*
X168640878Y-66588286D01*
X168627016Y-66657975D01*
X168627016Y-66661061D01*
X168592558Y-66834294D01*
X168524966Y-66997476D01*
X168426837Y-67144336D01*
X168301943Y-67269230D01*
X168155083Y-67367359D01*
X167991901Y-67434951D01*
X167818668Y-67469409D01*
X167642042Y-67469409D01*
X167468809Y-67434951D01*
X167305627Y-67367359D01*
X167158767Y-67269230D01*
X167033873Y-67144336D01*
X166935744Y-66997476D01*
X166868152Y-66834294D01*
X166833694Y-66661061D01*
X166833694Y-66484435D01*
X166868152Y-66311202D01*
X166935744Y-66148020D01*
X167033873Y-66001160D01*
X167158767Y-65876266D01*
X167305627Y-65778137D01*
X167468809Y-65710545D01*
X167642042Y-65676087D01*
X167645117Y-65676087D01*
X167714816Y-65662223D01*
X167758313Y-65518833D01*
X166988217Y-64748737D01*
X166844826Y-64792234D01*
X166830964Y-64861923D01*
X166830964Y-64865009D01*
X166796506Y-65038242D01*
X166728914Y-65201424D01*
X166630785Y-65348284D01*
X166505891Y-65473178D01*
X166359031Y-65571307D01*
X166195849Y-65638899D01*
X166022616Y-65673357D01*
X165845990Y-65673357D01*
X165672757Y-65638899D01*
X165509575Y-65571307D01*
X165362715Y-65473178D01*
X165237821Y-65348284D01*
X165139692Y-65201424D01*
X165072100Y-65038242D01*
X165037642Y-64865009D01*
X165037642Y-64688383D01*
X165072100Y-64515150D01*
X165139692Y-64351968D01*
X165237821Y-64205108D01*
X165362715Y-64080214D01*
X165509575Y-63982085D01*
X165672757Y-63914493D01*
X165845990Y-63880035D01*
X165849065Y-63880035D01*
X165918764Y-63866171D01*
X165962261Y-63722781D01*
X165508784Y-63269304D01*
X169188569Y-63269304D01*
X170767924Y-64848658D01*
X170906058Y-64811644D01*
X170908912Y-64793631D01*
X170926958Y-64738088D01*
X170948623Y-64657236D01*
X170969992Y-64605644D01*
X170984121Y-64562163D01*
X171004877Y-64521426D01*
X171026248Y-64469833D01*
X171068103Y-64397337D01*
X171094613Y-64345310D01*
X171111800Y-64321653D01*
X171127671Y-64294165D01*
X171204828Y-64193611D01*
X171237668Y-64148411D01*
X171245590Y-64140488D01*
X171251154Y-64133238D01*
X171394591Y-63989801D01*
X171401841Y-63984237D01*
X171409764Y-63976315D01*
X171454964Y-63943475D01*
X171555518Y-63866318D01*
X171583006Y-63850447D01*
X171606663Y-63833260D01*
X171658690Y-63806750D01*
X171731186Y-63764895D01*
X171782779Y-63743524D01*
X171823516Y-63722768D01*
X171866997Y-63708639D01*
X171918589Y-63687270D01*
X171999441Y-63665605D01*
X172054984Y-63647559D01*
X172072997Y-63644705D01*
X172110011Y-63506571D01*
X170530657Y-61927216D01*
X170392523Y-61964230D01*
X170389670Y-61982245D01*
X170371611Y-62037821D01*
X170349959Y-62118637D01*
X170328593Y-62170216D01*
X170314461Y-62213713D01*
X170293697Y-62254463D01*
X170272333Y-62306042D01*
X170230490Y-62378514D01*
X170203969Y-62430566D01*
X170186774Y-62454232D01*
X170170910Y-62481710D01*
X170093785Y-62582221D01*
X170060914Y-62627465D01*
X170052983Y-62635395D01*
X170047427Y-62642637D01*
X169903990Y-62786074D01*
X169896748Y-62791630D01*
X169888818Y-62799561D01*
X169843574Y-62832432D01*
X169743063Y-62909557D01*
X169715585Y-62925421D01*
X169691919Y-62942616D01*
X169639867Y-62969137D01*
X169567395Y-63010980D01*
X169515816Y-63032344D01*
X169475066Y-63053108D01*
X169431569Y-63067240D01*
X169379990Y-63088606D01*
X169299174Y-63110258D01*
X169243598Y-63128317D01*
X169225583Y-63131170D01*
X169188569Y-63269304D01*
X165508784Y-63269304D01*
X163720665Y-61481184D01*
X163718938Y-61479457D01*
X163649596Y-61404443D01*
X163529600Y-61239282D01*
X163436917Y-61057382D01*
X163373830Y-60863223D01*
X163341895Y-60661586D01*
X163341895Y-60457436D01*
X163373830Y-60255799D01*
X163436917Y-60061640D01*
X163529600Y-59879740D01*
X163649596Y-59714579D01*
X163793952Y-59570223D01*
X163959113Y-59450227D01*
X164141013Y-59357544D01*
X164228688Y-59329056D01*
X164261264Y-59193357D01*
X163542161Y-58474254D01*
X163535112Y-58466628D01*
X163474230Y-58401626D01*
X163470347Y-58396566D01*
X163459494Y-58384825D01*
X163426640Y-58339605D01*
X163349497Y-58239070D01*
X163333628Y-58211585D01*
X163316439Y-58187926D01*
X163289927Y-58135893D01*
X163248073Y-58063401D01*
X163237024Y-58036730D01*
X163201864Y-58001570D01*
X163175194Y-57990523D01*
X163102709Y-57948673D01*
X163050670Y-57922158D01*
X163027007Y-57904966D01*
X162999525Y-57889099D01*
X162898996Y-57811960D01*
X162853771Y-57779103D01*
X162842027Y-57768247D01*
X162836969Y-57764366D01*
X162771972Y-57703489D01*
X162764342Y-57696436D01*
X162045236Y-56977330D01*
X161909540Y-57009908D01*
X161881052Y-57097584D01*
X161788369Y-57279484D01*
X161668373Y-57444645D01*
X161524017Y-57589001D01*
X161358856Y-57708997D01*
X161176956Y-57801680D01*
X160982797Y-57864767D01*
X160781160Y-57896702D01*
X160577010Y-57896702D01*
X160375373Y-57864767D01*
X160181214Y-57801680D01*
X159999314Y-57708997D01*
X159834153Y-57589001D01*
X159759139Y-57519659D01*
X156313320Y-54073840D01*
X152710151Y-50470672D01*
X156389936Y-50470672D01*
X157969291Y-52050026D01*
X158107425Y-52013012D01*
X158110279Y-51994999D01*
X158128325Y-51939456D01*
X158149990Y-51858604D01*
X158171359Y-51807012D01*
X158185488Y-51763531D01*
X158206244Y-51722794D01*
X158227615Y-51671201D01*
X158269470Y-51598705D01*
X158295980Y-51546678D01*
X158313167Y-51523021D01*
X158329038Y-51495533D01*
X158406195Y-51394979D01*
X158439035Y-51349779D01*
X158446957Y-51341856D01*
X158452521Y-51334606D01*
X158595958Y-51191169D01*
X158603208Y-51185605D01*
X158611131Y-51177683D01*
X158656331Y-51144843D01*
X158756885Y-51067686D01*
X158784373Y-51051815D01*
X158808030Y-51034628D01*
X158860057Y-51008118D01*
X158932553Y-50966263D01*
X158984146Y-50944892D01*
X159024883Y-50924136D01*
X159068364Y-50910007D01*
X159119956Y-50888638D01*
X159200808Y-50866973D01*
X159256351Y-50848927D01*
X159274364Y-50846073D01*
X159311378Y-50707939D01*
X157732024Y-49128584D01*
X157593890Y-49165598D01*
X157591037Y-49183613D01*
X157572978Y-49239189D01*
X157551326Y-49320005D01*
X157529960Y-49371584D01*
X157515828Y-49415081D01*
X157495064Y-49455831D01*
X157473700Y-49507410D01*
X157431857Y-49579882D01*
X157405336Y-49631934D01*
X157388141Y-49655600D01*
X157372277Y-49683078D01*
X157295152Y-49783589D01*
X157262281Y-49828833D01*
X157254350Y-49836763D01*
X157248794Y-49844005D01*
X157105357Y-49987442D01*
X157098115Y-49992998D01*
X157090185Y-50000929D01*
X157044941Y-50033800D01*
X156944430Y-50110925D01*
X156916952Y-50126789D01*
X156893286Y-50143984D01*
X156841234Y-50170505D01*
X156768762Y-50212348D01*
X156717183Y-50233712D01*
X156676433Y-50254476D01*
X156632936Y-50268608D01*
X156581357Y-50289974D01*
X156500541Y-50311626D01*
X156444965Y-50329685D01*
X156426950Y-50332538D01*
X156389936Y-50470672D01*
X152710151Y-50470672D01*
X152619808Y-50380329D01*
X152476417Y-50423826D01*
X152462555Y-50493514D01*
X152462555Y-50496600D01*
X152428097Y-50669833D01*
X152360505Y-50833015D01*
X152262376Y-50979875D01*
X152137482Y-51104769D01*
X151990622Y-51202898D01*
X151827440Y-51270490D01*
X151654207Y-51304948D01*
X151477581Y-51304948D01*
X151304348Y-51270490D01*
X151141166Y-51202898D01*
X150994306Y-51104769D01*
X150869412Y-50979875D01*
X150771283Y-50833015D01*
X150703691Y-50669833D01*
X150669233Y-50496600D01*
X150669233Y-50319974D01*
X150703691Y-50146741D01*
X150771283Y-49983559D01*
X150869412Y-49836699D01*
X150994306Y-49711805D01*
X151141166Y-49613676D01*
X151304348Y-49546084D01*
X151477581Y-49511626D01*
X151480657Y-49511626D01*
X151550354Y-49497762D01*
X151593851Y-49354372D01*
X150922030Y-48682550D01*
X150920305Y-48680825D01*
X150850963Y-48605811D01*
X150850487Y-48605156D01*
X150828722Y-48581611D01*
X150681275Y-48623196D01*
X150666503Y-48697460D01*
X150666503Y-48700548D01*
X150632045Y-48873781D01*
X150564453Y-49036963D01*
X150466324Y-49183823D01*
X150341430Y-49308717D01*
X150194570Y-49406846D01*
X150031388Y-49474438D01*
X149858155Y-49508896D01*
X149681529Y-49508896D01*
X149508296Y-49474438D01*
X149345114Y-49406846D01*
X149198254Y-49308717D01*
X149073360Y-49183823D01*
X148975231Y-49036963D01*
X148907639Y-48873781D01*
X148873181Y-48700548D01*
X148873181Y-48523922D01*
X148907639Y-48350689D01*
X148975231Y-48187507D01*
X149073360Y-48040647D01*
X149198254Y-47915753D01*
X149345114Y-47817624D01*
X149508296Y-47750032D01*
X149681529Y-47715574D01*
X149858155Y-47715574D01*
X150031388Y-47750032D01*
X150194570Y-47817624D01*
X150341430Y-47915753D01*
X150343606Y-47917929D01*
X150411498Y-47963293D01*
X150543647Y-47892657D01*
X150543647Y-47865384D01*
X150543262Y-47862954D01*
X150543262Y-47658804D01*
X150575197Y-47457167D01*
X150638284Y-47263008D01*
X150730967Y-47081108D01*
X150850963Y-46915947D01*
X150995319Y-46771591D01*
X151160480Y-46651595D01*
X151342380Y-46558912D01*
X151430055Y-46530424D01*
X151462631Y-46394725D01*
X150743528Y-45675622D01*
X150736479Y-45667996D01*
X150675597Y-45602994D01*
X150671714Y-45597934D01*
X150660861Y-45586193D01*
X150628007Y-45540973D01*
X150550864Y-45440438D01*
X150534995Y-45412954D01*
X150517806Y-45389294D01*
X150491292Y-45337257D01*
X150449441Y-45264770D01*
X150428072Y-45213181D01*
X150407314Y-45172441D01*
X150393184Y-45128954D01*
X150371816Y-45077367D01*
X150350152Y-44996516D01*
X150332105Y-44940973D01*
X150327530Y-44912089D01*
X150319316Y-44881433D01*
X150302775Y-44755790D01*
X150294032Y-44700589D01*
X150294032Y-44689379D01*
X150292839Y-44680318D01*
X150292839Y-44477479D01*
X150294032Y-44468417D01*
X150294032Y-44457209D01*
X150302774Y-44402012D01*
X150319316Y-44276364D01*
X150327530Y-44245706D01*
X150332105Y-44216825D01*
X150350150Y-44161285D01*
X150371816Y-44080430D01*
X150393185Y-44028838D01*
X150407314Y-43985357D01*
X150428070Y-43944620D01*
X150449441Y-43893027D01*
X150491296Y-43820531D01*
X150517806Y-43768504D01*
X150534993Y-43744847D01*
X150550864Y-43717359D01*
X150628021Y-43616805D01*
X150660861Y-43571605D01*
X150668783Y-43563682D01*
X150674347Y-43556432D01*
X150817784Y-43412995D01*
X150825034Y-43407431D01*
X150832957Y-43399509D01*
X150878157Y-43366669D01*
X150978711Y-43289512D01*
X151006199Y-43273641D01*
X151029856Y-43256454D01*
X151081883Y-43229944D01*
X151154379Y-43188089D01*
X151205972Y-43166718D01*
X151246709Y-43145962D01*
X151290190Y-43131833D01*
X151341782Y-43110464D01*
X151422637Y-43088798D01*
X151478177Y-43070753D01*
X151507058Y-43066178D01*
X151537716Y-43057964D01*
X151663364Y-43041422D01*
X151718561Y-43032680D01*
X151729769Y-43032680D01*
X151738831Y-43031487D01*
X151941671Y-43031487D01*
X151950733Y-43032680D01*
G37*
G36*
X152926976Y-63835170D02*
G01*
X153268759Y-63903155D01*
X153602232Y-64004313D01*
X153924184Y-64137670D01*
X154231515Y-64301942D01*
X154521264Y-64495546D01*
X154790642Y-64716619D01*
X155037053Y-64963030D01*
X155258126Y-65232408D01*
X155451730Y-65522157D01*
X155616002Y-65829488D01*
X155749359Y-66151440D01*
X155850517Y-66484913D01*
X155918502Y-66826696D01*
X155952659Y-67173497D01*
X155952659Y-67521975D01*
X155918502Y-67868776D01*
X155850517Y-68210559D01*
X155749359Y-68544032D01*
X155616002Y-68865984D01*
X155451730Y-69173315D01*
X155258126Y-69463064D01*
X155037053Y-69732442D01*
X154790642Y-69978853D01*
X154521264Y-70199926D01*
X154231515Y-70393530D01*
X153924184Y-70557802D01*
X153602232Y-70691159D01*
X153268759Y-70792317D01*
X152926976Y-70860302D01*
X152580175Y-70894459D01*
X152231697Y-70894459D01*
X151884896Y-70860302D01*
X151543113Y-70792317D01*
X151209640Y-70691159D01*
X150887688Y-70557802D01*
X150580357Y-70393530D01*
X150290608Y-70199926D01*
X150021230Y-69978853D01*
X149774819Y-69732442D01*
X149553746Y-69463064D01*
X149360142Y-69173315D01*
X149195870Y-68865984D01*
X149062513Y-68544032D01*
X148961355Y-68210559D01*
X148893370Y-67868776D01*
X148859213Y-67521975D01*
X148859213Y-67173497D01*
X148893370Y-66826696D01*
X148961355Y-66484913D01*
X149062513Y-66151440D01*
X149195870Y-65829488D01*
X149360142Y-65522157D01*
X149553746Y-65232408D01*
X149774819Y-64963030D01*
X150021230Y-64716619D01*
X150290608Y-64495546D01*
X150580357Y-64301942D01*
X150887688Y-64137670D01*
X151209640Y-64004313D01*
X151543113Y-63903155D01*
X151884896Y-63835170D01*
X152231697Y-63801013D01*
X152580175Y-63801013D01*
X152926976Y-63835170D01*
G37*
G36*
X164110392Y-67990047D02*
G01*
X164126938Y-68001103D01*
X164834044Y-68708209D01*
X164845100Y-68724755D01*
X164848981Y-68744272D01*
X164845100Y-68763789D01*
X164834044Y-68780334D01*
X162854145Y-70760233D01*
X162837600Y-70771289D01*
X162818083Y-70775170D01*
X162798566Y-70771289D01*
X162782020Y-70760233D01*
X162074914Y-70053127D01*
X162063858Y-70036581D01*
X162059977Y-70017064D01*
X162063858Y-69997547D01*
X162074914Y-69981002D01*
X163019645Y-69036271D01*
X164046108Y-68009807D01*
X164046111Y-68009804D01*
X164054813Y-68001103D01*
X164071358Y-67990047D01*
X164090875Y-67986166D01*
X164110392Y-67990047D01*
G37*
G36*
X147349667Y-68810264D02*
G01*
X147503794Y-68874105D01*
X147642504Y-68966788D01*
X147760467Y-69084751D01*
X147853150Y-69223461D01*
X147916991Y-69377588D01*
X147949537Y-69541207D01*
X147949537Y-69708033D01*
X147916991Y-69871652D01*
X147853150Y-70025779D01*
X147760467Y-70164489D01*
X147642504Y-70282452D01*
X147503794Y-70375135D01*
X147349667Y-70438976D01*
X147186048Y-70471522D01*
X147019222Y-70471522D01*
X146855603Y-70438976D01*
X146701476Y-70375135D01*
X146562766Y-70282452D01*
X146444803Y-70164489D01*
X146352120Y-70025779D01*
X146288279Y-69871652D01*
X146255733Y-69708033D01*
X146255733Y-69541207D01*
X146288279Y-69377588D01*
X146352120Y-69223461D01*
X146444803Y-69084751D01*
X146562766Y-68966788D01*
X146701476Y-68874105D01*
X146855603Y-68810264D01*
X147019222Y-68777718D01*
X147186048Y-68777718D01*
X147349667Y-68810264D01*
G37*
G36*
X140674951Y-67517909D02*
G01*
X140838133Y-67585501D01*
X140984993Y-67683630D01*
X141109887Y-67808524D01*
X141208016Y-67955384D01*
X141275608Y-68118566D01*
X141310066Y-68291799D01*
X141310066Y-68468425D01*
X141275608Y-68641658D01*
X141208016Y-68804840D01*
X141109887Y-68951700D01*
X140984993Y-69076594D01*
X140838133Y-69174723D01*
X140674951Y-69242315D01*
X140501718Y-69276773D01*
X140325092Y-69276773D01*
X140151859Y-69242315D01*
X139988677Y-69174723D01*
X139841817Y-69076594D01*
X139716923Y-68951700D01*
X139618794Y-68804840D01*
X139551202Y-68641658D01*
X139516744Y-68468425D01*
X139516744Y-68291799D01*
X139551202Y-68118566D01*
X139618794Y-67955384D01*
X139716923Y-67808524D01*
X139841817Y-67683630D01*
X139988677Y-67585501D01*
X140151859Y-67517909D01*
X140325092Y-67483451D01*
X140501718Y-67483451D01*
X140674951Y-67517909D01*
G37*
G36*
X145553616Y-67014213D02*
G01*
X145707743Y-67078054D01*
X145846453Y-67170737D01*
X145964416Y-67288700D01*
X146057099Y-67427410D01*
X146120940Y-67581537D01*
X146153486Y-67745156D01*
X146153486Y-67911982D01*
X146120940Y-68075601D01*
X146057099Y-68229728D01*
X145964416Y-68368438D01*
X145846453Y-68486401D01*
X145707743Y-68579084D01*
X145553616Y-68642925D01*
X145389997Y-68675471D01*
X145223171Y-68675471D01*
X145059552Y-68642925D01*
X144905425Y-68579084D01*
X144766715Y-68486401D01*
X144648752Y-68368438D01*
X144556069Y-68229728D01*
X144492228Y-68075601D01*
X144459682Y-67911982D01*
X144459682Y-67745156D01*
X144492228Y-67581537D01*
X144556069Y-67427410D01*
X144648752Y-67288700D01*
X144766715Y-67170737D01*
X144905425Y-67078054D01*
X145059552Y-67014213D01*
X145223171Y-66981667D01*
X145389997Y-66981667D01*
X145553616Y-67014213D01*
G37*
G36*
X161281965Y-65161620D02*
G01*
X161298511Y-65172676D01*
X162005617Y-65879782D01*
X162016673Y-65896328D01*
X162020554Y-65915845D01*
X162016673Y-65935362D01*
X162005617Y-65951907D01*
X160025718Y-67931806D01*
X160009173Y-67942862D01*
X159989656Y-67946743D01*
X159970139Y-67942862D01*
X159953593Y-67931806D01*
X159246487Y-67224700D01*
X159235431Y-67208154D01*
X159231550Y-67188637D01*
X159235431Y-67169120D01*
X159246487Y-67152575D01*
X160236063Y-66162999D01*
X161217681Y-65181380D01*
X161217684Y-65181377D01*
X161226386Y-65172676D01*
X161242931Y-65161620D01*
X161262448Y-65157739D01*
X161281965Y-65161620D01*
G37*
G36*
X146954060Y-58056820D02*
G01*
X147117242Y-58124412D01*
X147264102Y-58222541D01*
X147388996Y-58347435D01*
X147487125Y-58494295D01*
X147554717Y-58657477D01*
X147589175Y-58830710D01*
X147589175Y-59007336D01*
X147554717Y-59180569D01*
X147487125Y-59343751D01*
X147388996Y-59490611D01*
X147264102Y-59615505D01*
X147117242Y-59713634D01*
X146954060Y-59781226D01*
X146780827Y-59815684D01*
X146604201Y-59815684D01*
X146430968Y-59781226D01*
X146267786Y-59713634D01*
X146120926Y-59615505D01*
X145996032Y-59490611D01*
X145897903Y-59343751D01*
X145830311Y-59180569D01*
X145795853Y-59007336D01*
X145795853Y-58830710D01*
X145830311Y-58657477D01*
X145897903Y-58494295D01*
X145996032Y-58347435D01*
X146120926Y-58222541D01*
X146267786Y-58124412D01*
X146430968Y-58056820D01*
X146604201Y-58022362D01*
X146780827Y-58022362D01*
X146954060Y-58056820D01*
G37*
G36*
X148750111Y-56260769D02*
G01*
X148913293Y-56328361D01*
X149060153Y-56426490D01*
X149185047Y-56551384D01*
X149283176Y-56698244D01*
X149350768Y-56861426D01*
X149385226Y-57034659D01*
X149385226Y-57211285D01*
X149350768Y-57384518D01*
X149283176Y-57547700D01*
X149185047Y-57694560D01*
X149060153Y-57819454D01*
X148913293Y-57917583D01*
X148750111Y-57985175D01*
X148576878Y-58019633D01*
X148400252Y-58019633D01*
X148227019Y-57985175D01*
X148063837Y-57917583D01*
X147916977Y-57819454D01*
X147792083Y-57694560D01*
X147693954Y-57547700D01*
X147626362Y-57384518D01*
X147591904Y-57211285D01*
X147591904Y-57034659D01*
X147626362Y-56861426D01*
X147693954Y-56698244D01*
X147792083Y-56551384D01*
X147916977Y-56426490D01*
X148063837Y-56328361D01*
X148227019Y-56260769D01*
X148400252Y-56226311D01*
X148576878Y-56226311D01*
X148750111Y-56260769D01*
G37*
G36*
X150304133Y-54077721D02*
G01*
X150320678Y-54088777D01*
X151522760Y-55290859D01*
X151533816Y-55307404D01*
X151537697Y-55326921D01*
X151533816Y-55346438D01*
X151522760Y-55362983D01*
X150320678Y-56565065D01*
X150304133Y-56576121D01*
X150284616Y-56580002D01*
X150265099Y-56576121D01*
X150248554Y-56565065D01*
X149046472Y-55362983D01*
X149035416Y-55346438D01*
X149031535Y-55326921D01*
X149035416Y-55307404D01*
X149046472Y-55290859D01*
X149930602Y-54406729D01*
X150239849Y-54097481D01*
X150239852Y-54097478D01*
X150248554Y-54088777D01*
X150265099Y-54077721D01*
X150284616Y-54073840D01*
X150304133Y-54077721D01*
G37*
G36*
X143027481Y-46864608D02*
G01*
X143369264Y-46932593D01*
X143702737Y-47033751D01*
X144024689Y-47167108D01*
X144332020Y-47331380D01*
X144621769Y-47524984D01*
X144891147Y-47746057D01*
X145137558Y-47992468D01*
X145358631Y-48261846D01*
X145552235Y-48551595D01*
X145716507Y-48858926D01*
X145849864Y-49180878D01*
X145951022Y-49514351D01*
X146019007Y-49856134D01*
X146053164Y-50202935D01*
X146053164Y-50551413D01*
X146019007Y-50898214D01*
X145951022Y-51239997D01*
X145849864Y-51573470D01*
X145716507Y-51895422D01*
X145552235Y-52202753D01*
X145358631Y-52492502D01*
X145137558Y-52761880D01*
X144891147Y-53008291D01*
X144621769Y-53229364D01*
X144332020Y-53422968D01*
X144024689Y-53587240D01*
X143702737Y-53720597D01*
X143369264Y-53821755D01*
X143027481Y-53889740D01*
X142680680Y-53923897D01*
X142332202Y-53923897D01*
X141985401Y-53889740D01*
X141643618Y-53821755D01*
X141310145Y-53720597D01*
X140988193Y-53587240D01*
X140680862Y-53422968D01*
X140391113Y-53229364D01*
X140121735Y-53008291D01*
X139875324Y-52761880D01*
X139654251Y-52492502D01*
X139460647Y-52202753D01*
X139296375Y-51895422D01*
X139163018Y-51573470D01*
X139061860Y-51239997D01*
X138993875Y-50898214D01*
X138959718Y-50551413D01*
X138959718Y-50202935D01*
X138993875Y-49856134D01*
X139061860Y-49514351D01*
X139163018Y-49180878D01*
X139296375Y-48858926D01*
X139460647Y-48551595D01*
X139654251Y-48261846D01*
X139875324Y-47992468D01*
X140121735Y-47746057D01*
X140391113Y-47524984D01*
X140680862Y-47331380D01*
X140988193Y-47167108D01*
X141310145Y-47033751D01*
X141643618Y-46932593D01*
X141985401Y-46864608D01*
X142332202Y-46830451D01*
X142680680Y-46830451D01*
X143027481Y-46864608D01*
G37*
G36*
X136357656Y-44906510D02*
G01*
X136636555Y-44970167D01*
X136906573Y-45064650D01*
X137164315Y-45188772D01*
X137406538Y-45340971D01*
X137630198Y-45519334D01*
X137832481Y-45721617D01*
X138010844Y-45945277D01*
X138163043Y-46187500D01*
X138287165Y-46445242D01*
X138381648Y-46715260D01*
X138445305Y-46994159D01*
X138477335Y-47278431D01*
X138477335Y-47564503D01*
X138445305Y-47848775D01*
X138381648Y-48127674D01*
X138287165Y-48397692D01*
X138163043Y-48655434D01*
X138010844Y-48897657D01*
X137832481Y-49121317D01*
X137630198Y-49323600D01*
X137406538Y-49501963D01*
X137164315Y-49654162D01*
X136906573Y-49778284D01*
X136636555Y-49872767D01*
X136357656Y-49936424D01*
X136073384Y-49968454D01*
X135787312Y-49968454D01*
X135503040Y-49936424D01*
X135224141Y-49872767D01*
X134954123Y-49778284D01*
X134696381Y-49654162D01*
X134454158Y-49501963D01*
X134230498Y-49323600D01*
X134028215Y-49121317D01*
X133849852Y-48897657D01*
X133697653Y-48655434D01*
X133573531Y-48397692D01*
X133479048Y-48127674D01*
X133415391Y-47848775D01*
X133383361Y-47564503D01*
X133383361Y-47278431D01*
X133415391Y-46994159D01*
X133479048Y-46715260D01*
X133573531Y-46445242D01*
X133697653Y-46187500D01*
X133849852Y-45945277D01*
X134028215Y-45721617D01*
X134230498Y-45519334D01*
X134454158Y-45340971D01*
X134696381Y-45188772D01*
X134954123Y-45064650D01*
X135224141Y-44970167D01*
X135503040Y-44906510D01*
X135787312Y-44874480D01*
X136073384Y-44874480D01*
X136357656Y-44906510D01*
G37*
G36*
X148235337Y-45953981D02*
G01*
X148398519Y-46021573D01*
X148545379Y-46119702D01*
X148670273Y-46244596D01*
X148768402Y-46391456D01*
X148835994Y-46554638D01*
X148870452Y-46727871D01*
X148870452Y-46904497D01*
X148835994Y-47077730D01*
X148768402Y-47240912D01*
X148670273Y-47387772D01*
X148545379Y-47512666D01*
X148398519Y-47610795D01*
X148235337Y-47678387D01*
X148062104Y-47712845D01*
X147885478Y-47712845D01*
X147712245Y-47678387D01*
X147549063Y-47610795D01*
X147402203Y-47512666D01*
X147277309Y-47387772D01*
X147179180Y-47240912D01*
X147111588Y-47077730D01*
X147077130Y-46904497D01*
X147077130Y-46727871D01*
X147111588Y-46554638D01*
X147179180Y-46391456D01*
X147277309Y-46244596D01*
X147402203Y-46119702D01*
X147549063Y-46021573D01*
X147712245Y-45953981D01*
X147885478Y-45919523D01*
X148062104Y-45919523D01*
X148235337Y-45953981D01*
G37*
G36*
X146197257Y-43770933D02*
G01*
X146213802Y-43781989D01*
X147415884Y-44984071D01*
X147426940Y-45000616D01*
X147430821Y-45020133D01*
X147426940Y-45039650D01*
X147415884Y-45056195D01*
X146213802Y-46258277D01*
X146197257Y-46269333D01*
X146177740Y-46273214D01*
X146158223Y-46269333D01*
X146141678Y-46258277D01*
X144939596Y-45056195D01*
X144928540Y-45039650D01*
X144924659Y-45020133D01*
X144928540Y-45000616D01*
X144939596Y-44984071D01*
X145755068Y-44168599D01*
X146132973Y-43790693D01*
X146132976Y-43790690D01*
X146141678Y-43781989D01*
X146158223Y-43770933D01*
X146177740Y-43767052D01*
X146197257Y-43770933D01*
G37*
G36*
X140335540Y-43134256D02*
G01*
X140498722Y-43201848D01*
X140645582Y-43299977D01*
X140770476Y-43424871D01*
X140868605Y-43571731D01*
X140936197Y-43734913D01*
X140970655Y-43908146D01*
X140970655Y-44084772D01*
X140936197Y-44258005D01*
X140868605Y-44421187D01*
X140770476Y-44568047D01*
X140645582Y-44692941D01*
X140498722Y-44791070D01*
X140335540Y-44858662D01*
X140162307Y-44893120D01*
X139985681Y-44893120D01*
X139812448Y-44858662D01*
X139649266Y-44791070D01*
X139502406Y-44692941D01*
X139377512Y-44568047D01*
X139279383Y-44421187D01*
X139211791Y-44258005D01*
X139177333Y-44084772D01*
X139177333Y-43908146D01*
X139211791Y-43734913D01*
X139279383Y-43571731D01*
X139377512Y-43424871D01*
X139502406Y-43299977D01*
X139649266Y-43201848D01*
X139812448Y-43134256D01*
X139985681Y-43099798D01*
X140162307Y-43099798D01*
X140335540Y-43134256D01*
G37*
G36*
X140335540Y-40594255D02*
G01*
X140498722Y-40661847D01*
X140645582Y-40759976D01*
X140770476Y-40884870D01*
X140868605Y-41031730D01*
X140936197Y-41194912D01*
X140970655Y-41368145D01*
X140970655Y-41544771D01*
X140936197Y-41718004D01*
X140868605Y-41881186D01*
X140770476Y-42028046D01*
X140645582Y-42152940D01*
X140498722Y-42251069D01*
X140335540Y-42318661D01*
X140162307Y-42353119D01*
X139985681Y-42353119D01*
X139812448Y-42318661D01*
X139649266Y-42251069D01*
X139502406Y-42152940D01*
X139377512Y-42028046D01*
X139279383Y-41881186D01*
X139211791Y-41718004D01*
X139177333Y-41544771D01*
X139177333Y-41368145D01*
X139211791Y-41194912D01*
X139279383Y-41031730D01*
X139377512Y-40884870D01*
X139502406Y-40759976D01*
X139649266Y-40661847D01*
X139812448Y-40594255D01*
X139985681Y-40559797D01*
X140162307Y-40559797D01*
X140335540Y-40594255D01*
G37*
G36*
X140335540Y-38054256D02*
G01*
X140498722Y-38121848D01*
X140645582Y-38219977D01*
X140770476Y-38344871D01*
X140868605Y-38491731D01*
X140936197Y-38654913D01*
X140970655Y-38828146D01*
X140970655Y-39004772D01*
X140936197Y-39178005D01*
X140868605Y-39341187D01*
X140770476Y-39488047D01*
X140645582Y-39612941D01*
X140498722Y-39711070D01*
X140335540Y-39778662D01*
X140162307Y-39813120D01*
X139985681Y-39813120D01*
X139812448Y-39778662D01*
X139649266Y-39711070D01*
X139502406Y-39612941D01*
X139377512Y-39488047D01*
X139279383Y-39341187D01*
X139211791Y-39178005D01*
X139177333Y-39004772D01*
X139177333Y-38828146D01*
X139211791Y-38654913D01*
X139279383Y-38491731D01*
X139377512Y-38344871D01*
X139502406Y-38219977D01*
X139649266Y-38121848D01*
X139812448Y-38054256D01*
X139985681Y-38019798D01*
X140162307Y-38019798D01*
X140335540Y-38054256D01*
G37*
G36*
X140943511Y-35479341D02*
G01*
X140960056Y-35490397D01*
X140971112Y-35506942D01*
X140974994Y-35526459D01*
X140974994Y-37226459D01*
X140971112Y-37245976D01*
X140960056Y-37262521D01*
X140943511Y-37273577D01*
X140923994Y-37277459D01*
X139223994Y-37277459D01*
X139204477Y-37273577D01*
X139187932Y-37262521D01*
X139176876Y-37245976D01*
X139172994Y-37226459D01*
X139172994Y-35526459D01*
X139176876Y-35506942D01*
X139187932Y-35490397D01*
X139204477Y-35479341D01*
X139223994Y-35475459D01*
X140923994Y-35475459D01*
X140943511Y-35479341D01*
G37*
G36*
X147544295Y-31871175D02*
G01*
X147560840Y-31882230D01*
X148764195Y-33085585D01*
X148775250Y-33102130D01*
X148779132Y-33121647D01*
X148775250Y-33141164D01*
X148764195Y-33157709D01*
X147560840Y-34361064D01*
X147544295Y-34372119D01*
X147524778Y-34376001D01*
X147505261Y-34372119D01*
X147488716Y-34361064D01*
X146285361Y-33157709D01*
X146274306Y-33141164D01*
X146270424Y-33121647D01*
X146274306Y-33102130D01*
X146285361Y-33085585D01*
X147488716Y-31882230D01*
X147505261Y-31871175D01*
X147524778Y-31867293D01*
X147544295Y-31871175D01*
G37*
G36*
X151378688Y-28666481D02*
G01*
X151542033Y-28734140D01*
X151689039Y-28832367D01*
X151814058Y-28957386D01*
X151912285Y-29104392D01*
X151979944Y-29267737D01*
X152014437Y-29441143D01*
X152014437Y-29617947D01*
X151979944Y-29791353D01*
X151912285Y-29954698D01*
X151814058Y-30101704D01*
X151689039Y-30226723D01*
X151542033Y-30324950D01*
X151378688Y-30392609D01*
X151205282Y-30427102D01*
X151028478Y-30427102D01*
X150855072Y-30392609D01*
X150691727Y-30324950D01*
X150544721Y-30226723D01*
X150419702Y-30101704D01*
X150321475Y-29954698D01*
X150253816Y-29791353D01*
X150219323Y-29617947D01*
X150219323Y-29441143D01*
X150253816Y-29267737D01*
X150321475Y-29104392D01*
X150419702Y-28957386D01*
X150544721Y-28832367D01*
X150691727Y-28734140D01*
X150855072Y-28666481D01*
X151028478Y-28631988D01*
X151205282Y-28631988D01*
X151378688Y-28666481D01*
G37*
G36*
X154970791Y-25074378D02*
G01*
X155134136Y-25142037D01*
X155281142Y-25240264D01*
X155406161Y-25365283D01*
X155504388Y-25512289D01*
X155572047Y-25675634D01*
X155606540Y-25849040D01*
X155606540Y-26025844D01*
X155572047Y-26199250D01*
X155504388Y-26362595D01*
X155406161Y-26509601D01*
X155281142Y-26634620D01*
X155134136Y-26732847D01*
X154970791Y-26800506D01*
X154797385Y-26834999D01*
X154620581Y-26834999D01*
X154447175Y-26800506D01*
X154283830Y-26732847D01*
X154136824Y-26634620D01*
X154011805Y-26509601D01*
X153913578Y-26362595D01*
X153845919Y-26199250D01*
X153811426Y-26025844D01*
X153811426Y-25849040D01*
X153845919Y-25675634D01*
X153913578Y-25512289D01*
X154011805Y-25365283D01*
X154136824Y-25240264D01*
X154283830Y-25142037D01*
X154447175Y-25074378D01*
X154620581Y-25039885D01*
X154797385Y-25039885D01*
X154970791Y-25074378D01*
G37*
M02*
