G04 #@! TF.GenerationSoftware,KiCad,Pcbnew,9.0.2*
G04 #@! TF.CreationDate,2025-09-26T14:41:35-04:00*
G04 #@! TF.ProjectId,Trackball,54726163-6b62-4616-9c6c-2e6b69636164,rev?*
G04 #@! TF.SameCoordinates,Original*
G04 #@! TF.FileFunction,Soldermask,Bot*
G04 #@! TF.FilePolarity,Negative*
%FSLAX46Y46*%
G04 Gerber Fmt 4.6, Leading zero omitted, Abs format (unit mm)*
G04 Created by KiCad (PCBNEW 9.0.2) date 2025-09-26 14:41:35*
%MOMM*%
%LPD*%
G01*
G04 APERTURE LIST*
G04 APERTURE END LIST*
G36*
X103632990Y-85997671D02*
G01*
X103796172Y-86065263D01*
X103943032Y-86163392D01*
X104067926Y-86288286D01*
X104166055Y-86435146D01*
X104233647Y-86598328D01*
X104268105Y-86771561D01*
X104268105Y-86948187D01*
X104233647Y-87121420D01*
X104166055Y-87284602D01*
X104067926Y-87431462D01*
X103943032Y-87556356D01*
X103796172Y-87654485D01*
X103632990Y-87722077D01*
X103459757Y-87756535D01*
X103456677Y-87756535D01*
X103382403Y-87771309D01*
X103340819Y-87918757D01*
X103364354Y-87940512D01*
X103365020Y-87940996D01*
X103440034Y-88010338D01*
X103441761Y-88012065D01*
X104113581Y-88683884D01*
X104256971Y-88640387D01*
X104270835Y-88570687D01*
X104270835Y-88567613D01*
X104305293Y-88394380D01*
X104372885Y-88231198D01*
X104471014Y-88084338D01*
X104595908Y-87959444D01*
X104742768Y-87861315D01*
X104905950Y-87793723D01*
X105079183Y-87759265D01*
X105255809Y-87759265D01*
X105429042Y-87793723D01*
X105592224Y-87861315D01*
X105739084Y-87959444D01*
X105863978Y-88084338D01*
X105962107Y-88231198D01*
X106029699Y-88394380D01*
X106064157Y-88567613D01*
X106064157Y-88744239D01*
X106029699Y-88917472D01*
X105962107Y-89080654D01*
X105863978Y-89227514D01*
X105739084Y-89352408D01*
X105592224Y-89450537D01*
X105429042Y-89518129D01*
X105255809Y-89552587D01*
X105252723Y-89552587D01*
X105183034Y-89566449D01*
X105139537Y-89709840D01*
X108724310Y-93294614D01*
X112278868Y-96849172D01*
X112348210Y-96924186D01*
X112468206Y-97089347D01*
X112560889Y-97271247D01*
X112623976Y-97465406D01*
X112655911Y-97667043D01*
X112655911Y-97871193D01*
X112623976Y-98072830D01*
X112560889Y-98266989D01*
X112468206Y-98448889D01*
X112348210Y-98614050D01*
X112203854Y-98758406D01*
X112038693Y-98878402D01*
X111856793Y-98971085D01*
X111769117Y-98999573D01*
X111736539Y-99135269D01*
X112455645Y-99854375D01*
X112462698Y-99862005D01*
X112523575Y-99927002D01*
X112527456Y-99932060D01*
X112538312Y-99943804D01*
X112571169Y-99989029D01*
X112648308Y-100089558D01*
X112664174Y-100117040D01*
X112681367Y-100140703D01*
X112707883Y-100192745D01*
X112742006Y-100251846D01*
X112765278Y-100275119D01*
X112824386Y-100309245D01*
X112876426Y-100335761D01*
X112900086Y-100352951D01*
X112927570Y-100368819D01*
X113028105Y-100445962D01*
X113073325Y-100478816D01*
X113085066Y-100489669D01*
X113090126Y-100493552D01*
X113155128Y-100554434D01*
X113162754Y-100561483D01*
X113881857Y-101280586D01*
X114017556Y-101248010D01*
X114046044Y-101160335D01*
X114138727Y-100978435D01*
X114258723Y-100813274D01*
X114403079Y-100668918D01*
X114568240Y-100548922D01*
X114750140Y-100456239D01*
X114944299Y-100393152D01*
X115145936Y-100361217D01*
X115350086Y-100361217D01*
X115551723Y-100393152D01*
X115745882Y-100456239D01*
X115927782Y-100548922D01*
X116092943Y-100668918D01*
X116167957Y-100738260D01*
X116169684Y-100739987D01*
X118481991Y-103052293D01*
X118625381Y-103008796D01*
X118639245Y-102939096D01*
X118639245Y-102936022D01*
X118673703Y-102762789D01*
X118741295Y-102599607D01*
X118839424Y-102452747D01*
X118964318Y-102327853D01*
X119111178Y-102229724D01*
X119274360Y-102162132D01*
X119447593Y-102127674D01*
X119624219Y-102127674D01*
X119797452Y-102162132D01*
X119960634Y-102229724D01*
X120107494Y-102327853D01*
X120232388Y-102452747D01*
X120330517Y-102599607D01*
X120398109Y-102762789D01*
X120432567Y-102936022D01*
X120432567Y-103112648D01*
X120398109Y-103285881D01*
X120330517Y-103449063D01*
X120232388Y-103595923D01*
X120107494Y-103720817D01*
X119960634Y-103818946D01*
X119797452Y-103886538D01*
X119624219Y-103920996D01*
X119621133Y-103920996D01*
X119551444Y-103934858D01*
X119507947Y-104078249D01*
X120278043Y-104848345D01*
X120421433Y-104804848D01*
X120435297Y-104735148D01*
X120435297Y-104732074D01*
X120469755Y-104558841D01*
X120537347Y-104395659D01*
X120635476Y-104248799D01*
X120760370Y-104123905D01*
X120907230Y-104025776D01*
X121070412Y-103958184D01*
X121243645Y-103923726D01*
X121420271Y-103923726D01*
X121593504Y-103958184D01*
X121756686Y-104025776D01*
X121903546Y-104123905D01*
X122028440Y-104248799D01*
X122126569Y-104395659D01*
X122194161Y-104558841D01*
X122228619Y-104732074D01*
X122228619Y-104908700D01*
X122194161Y-105081933D01*
X122126569Y-105245115D01*
X122028440Y-105391975D01*
X121903546Y-105516869D01*
X121756686Y-105614998D01*
X121593504Y-105682590D01*
X121420271Y-105717048D01*
X121417185Y-105717048D01*
X121347496Y-105730910D01*
X121303999Y-105874301D01*
X122074094Y-106644396D01*
X122217484Y-106600899D01*
X122231348Y-106531199D01*
X122231348Y-106528125D01*
X122265806Y-106354892D01*
X122333398Y-106191710D01*
X122431527Y-106044850D01*
X122556421Y-105919956D01*
X122703281Y-105821827D01*
X122866463Y-105754235D01*
X123039696Y-105719777D01*
X123216322Y-105719777D01*
X123389555Y-105754235D01*
X123552737Y-105821827D01*
X123699597Y-105919956D01*
X123824491Y-106044850D01*
X123922620Y-106191710D01*
X123990212Y-106354892D01*
X124024670Y-106528125D01*
X124024670Y-106704751D01*
X123990212Y-106877984D01*
X123922620Y-107041166D01*
X123824491Y-107188026D01*
X123699597Y-107312920D01*
X123552737Y-107411049D01*
X123389555Y-107478641D01*
X123216322Y-107513099D01*
X123213236Y-107513099D01*
X123143547Y-107526961D01*
X123100050Y-107670352D01*
X123694244Y-108264546D01*
X123797796Y-108264546D01*
X124879293Y-107183049D01*
X124879296Y-107183046D01*
X124887998Y-107174345D01*
X124904543Y-107163289D01*
X124924060Y-107159408D01*
X124943577Y-107163289D01*
X124960122Y-107174345D01*
X126162204Y-108376427D01*
X126173260Y-108392972D01*
X126177141Y-108412489D01*
X126173260Y-108432006D01*
X126162204Y-108448551D01*
X125069299Y-109541455D01*
X125062064Y-109633400D01*
X125073905Y-109649698D01*
X125076133Y-109652108D01*
X125196129Y-109817269D01*
X125288812Y-109999169D01*
X125351899Y-110193328D01*
X125383834Y-110394965D01*
X125383834Y-110599115D01*
X125351899Y-110800752D01*
X125288812Y-110994911D01*
X125196129Y-111176811D01*
X125076133Y-111341972D01*
X124931777Y-111486328D01*
X124766616Y-111606324D01*
X124584716Y-111699007D01*
X124497040Y-111727495D01*
X124464462Y-111863191D01*
X125183568Y-112582297D01*
X125190621Y-112589927D01*
X125251498Y-112654924D01*
X125255379Y-112659982D01*
X125266235Y-112671726D01*
X125299092Y-112716951D01*
X125376231Y-112817480D01*
X125392097Y-112844962D01*
X125409290Y-112868625D01*
X125435807Y-112920667D01*
X125477654Y-112993148D01*
X125499020Y-113044731D01*
X125519782Y-113085478D01*
X125533913Y-113128970D01*
X125555279Y-113180551D01*
X125576939Y-113261389D01*
X125594991Y-113316946D01*
X125599566Y-113345836D01*
X125607779Y-113376485D01*
X125624319Y-113502119D01*
X125633064Y-113557330D01*
X125633064Y-113568538D01*
X125634257Y-113577600D01*
X125634257Y-113780439D01*
X125633064Y-113789500D01*
X125633064Y-113800710D01*
X125624318Y-113855925D01*
X125607779Y-113981554D01*
X125599567Y-114012201D01*
X125594991Y-114041094D01*
X125576937Y-114096655D01*
X125555279Y-114177488D01*
X125533915Y-114229064D01*
X125519782Y-114272562D01*
X125499018Y-114313313D01*
X125477654Y-114364891D01*
X125435811Y-114437363D01*
X125409290Y-114489415D01*
X125392095Y-114513081D01*
X125376231Y-114540559D01*
X125299106Y-114641070D01*
X125266235Y-114686314D01*
X125258304Y-114694244D01*
X125252748Y-114701486D01*
X125109311Y-114844923D01*
X125102069Y-114850479D01*
X125094139Y-114858410D01*
X125048895Y-114891281D01*
X124948384Y-114968406D01*
X124920906Y-114984270D01*
X124897240Y-115001465D01*
X124845188Y-115027986D01*
X124772716Y-115069829D01*
X124721138Y-115091193D01*
X124680387Y-115111957D01*
X124636889Y-115126090D01*
X124585313Y-115147454D01*
X124504480Y-115169112D01*
X124448919Y-115187166D01*
X124420026Y-115191742D01*
X124389379Y-115199954D01*
X124263747Y-115216494D01*
X124208535Y-115225239D01*
X124197326Y-115225239D01*
X124188265Y-115226432D01*
X123985425Y-115226432D01*
X123976364Y-115225239D01*
X123965155Y-115225239D01*
X123909944Y-115216494D01*
X123784310Y-115199954D01*
X123753661Y-115191741D01*
X123724771Y-115187166D01*
X123669214Y-115169114D01*
X123588376Y-115147454D01*
X123536795Y-115126088D01*
X123493303Y-115111957D01*
X123452556Y-115091195D01*
X123400973Y-115069829D01*
X123328492Y-115027982D01*
X123276450Y-115001465D01*
X123252787Y-114984272D01*
X123225305Y-114968406D01*
X123124776Y-114891267D01*
X123079551Y-114858410D01*
X123067807Y-114847554D01*
X123062749Y-114843673D01*
X122997752Y-114782796D01*
X122990122Y-114775743D01*
X122271016Y-114056637D01*
X122135320Y-114089215D01*
X122106832Y-114176891D01*
X122014149Y-114358791D01*
X121894153Y-114523952D01*
X121749797Y-114668308D01*
X121584636Y-114788304D01*
X121402736Y-114880987D01*
X121208577Y-114944074D01*
X121006940Y-114976009D01*
X120802790Y-114976009D01*
X120601153Y-114944074D01*
X120406994Y-114880987D01*
X120225094Y-114788304D01*
X120059933Y-114668308D01*
X119984919Y-114598966D01*
X112935932Y-107549979D01*
X116615716Y-107549979D01*
X118195071Y-109129333D01*
X118333205Y-109092319D01*
X118336059Y-109074306D01*
X118354105Y-109018763D01*
X118375770Y-108937911D01*
X118397139Y-108886319D01*
X118411268Y-108842838D01*
X118432024Y-108802101D01*
X118453395Y-108750508D01*
X118495250Y-108678012D01*
X118521760Y-108625985D01*
X118538947Y-108602328D01*
X118554818Y-108574840D01*
X118631975Y-108474286D01*
X118664815Y-108429086D01*
X118672737Y-108421163D01*
X118678301Y-108413913D01*
X118821738Y-108270476D01*
X118828988Y-108264912D01*
X118836911Y-108256990D01*
X118882111Y-108224150D01*
X118982665Y-108146993D01*
X119010153Y-108131122D01*
X119033810Y-108113935D01*
X119085837Y-108087425D01*
X119158333Y-108045570D01*
X119209926Y-108024199D01*
X119250663Y-108003443D01*
X119294144Y-107989314D01*
X119345736Y-107967945D01*
X119426588Y-107946280D01*
X119482131Y-107928234D01*
X119500144Y-107925380D01*
X119537158Y-107787246D01*
X117957804Y-106207891D01*
X117819670Y-106244905D01*
X117816817Y-106262920D01*
X117798758Y-106318496D01*
X117777106Y-106399312D01*
X117755740Y-106450891D01*
X117741608Y-106494388D01*
X117720844Y-106535138D01*
X117699480Y-106586717D01*
X117657637Y-106659189D01*
X117631116Y-106711241D01*
X117613921Y-106734907D01*
X117598057Y-106762385D01*
X117520932Y-106862896D01*
X117488061Y-106908140D01*
X117480130Y-106916070D01*
X117474574Y-106923312D01*
X117331137Y-107066749D01*
X117323895Y-107072305D01*
X117315965Y-107080236D01*
X117270721Y-107113107D01*
X117170210Y-107190232D01*
X117142732Y-107206096D01*
X117119066Y-107223291D01*
X117067014Y-107249812D01*
X116994542Y-107291655D01*
X116942963Y-107313019D01*
X116902213Y-107333783D01*
X116858716Y-107347915D01*
X116807137Y-107369281D01*
X116726321Y-107390933D01*
X116670745Y-107408992D01*
X116652730Y-107411845D01*
X116615716Y-107549979D01*
X112935932Y-107549979D01*
X111146085Y-105760132D01*
X111076743Y-105685118D01*
X110956747Y-105519957D01*
X110864064Y-105338057D01*
X110800977Y-105143898D01*
X110769042Y-104942261D01*
X110769042Y-104738111D01*
X110800977Y-104536474D01*
X110864064Y-104342315D01*
X110956747Y-104160415D01*
X111076743Y-103995254D01*
X111221099Y-103850898D01*
X111386260Y-103730902D01*
X111568160Y-103638219D01*
X111655835Y-103609731D01*
X111688411Y-103474032D01*
X110969308Y-102754929D01*
X110962259Y-102747303D01*
X110901377Y-102682301D01*
X110897494Y-102677241D01*
X110886641Y-102665500D01*
X110853787Y-102620280D01*
X110776644Y-102519745D01*
X110760775Y-102492261D01*
X110743586Y-102468601D01*
X110717072Y-102416564D01*
X110682946Y-102357457D01*
X110659673Y-102334184D01*
X110600566Y-102300058D01*
X110548527Y-102273543D01*
X110524864Y-102256351D01*
X110497382Y-102240484D01*
X110396853Y-102163345D01*
X110351628Y-102130488D01*
X110339884Y-102119632D01*
X110334826Y-102115751D01*
X110269829Y-102054874D01*
X110262199Y-102047821D01*
X109543093Y-101328715D01*
X109407397Y-101361293D01*
X109378909Y-101448969D01*
X109286226Y-101630869D01*
X109166230Y-101796030D01*
X109021874Y-101940386D01*
X108856713Y-102060382D01*
X108674813Y-102153065D01*
X108480654Y-102216152D01*
X108279017Y-102248087D01*
X108074867Y-102248087D01*
X107873230Y-102216152D01*
X107679071Y-102153065D01*
X107497171Y-102060382D01*
X107332010Y-101940386D01*
X107256996Y-101871044D01*
X100208009Y-94822057D01*
X103887793Y-94822057D01*
X105467148Y-96401411D01*
X105605282Y-96364397D01*
X105608136Y-96346384D01*
X105626182Y-96290841D01*
X105647847Y-96209989D01*
X105669216Y-96158397D01*
X105683345Y-96114916D01*
X105704101Y-96074179D01*
X105725472Y-96022586D01*
X105767327Y-95950090D01*
X105793837Y-95898063D01*
X105811024Y-95874406D01*
X105826895Y-95846918D01*
X105904052Y-95746364D01*
X105936892Y-95701164D01*
X105944814Y-95693241D01*
X105950378Y-95685991D01*
X106093815Y-95542554D01*
X106101065Y-95536990D01*
X106108988Y-95529068D01*
X106154188Y-95496228D01*
X106254742Y-95419071D01*
X106282230Y-95403200D01*
X106305887Y-95386013D01*
X106357914Y-95359503D01*
X106430410Y-95317648D01*
X106482003Y-95296277D01*
X106522740Y-95275521D01*
X106566221Y-95261392D01*
X106617813Y-95240023D01*
X106698665Y-95218358D01*
X106754208Y-95200312D01*
X106772221Y-95197458D01*
X106809235Y-95059324D01*
X105229881Y-93479969D01*
X105091747Y-93516983D01*
X105088894Y-93534998D01*
X105070835Y-93590574D01*
X105049183Y-93671390D01*
X105027817Y-93722969D01*
X105013685Y-93766466D01*
X104992921Y-93807216D01*
X104971557Y-93858795D01*
X104929714Y-93931267D01*
X104903193Y-93983319D01*
X104885998Y-94006985D01*
X104870134Y-94034463D01*
X104793009Y-94134974D01*
X104760138Y-94180218D01*
X104752207Y-94188148D01*
X104746651Y-94195390D01*
X104603214Y-94338827D01*
X104595972Y-94344383D01*
X104588042Y-94352314D01*
X104542798Y-94385185D01*
X104442287Y-94462310D01*
X104414809Y-94478174D01*
X104391143Y-94495369D01*
X104339091Y-94521890D01*
X104266619Y-94563733D01*
X104215040Y-94585097D01*
X104174290Y-94605861D01*
X104130793Y-94619993D01*
X104079214Y-94641359D01*
X103998398Y-94663011D01*
X103942822Y-94681070D01*
X103924807Y-94683923D01*
X103887793Y-94822057D01*
X100208009Y-94822057D01*
X98418162Y-93032210D01*
X98348820Y-92957196D01*
X98228824Y-92792035D01*
X98136141Y-92610135D01*
X98073054Y-92415976D01*
X98041119Y-92214339D01*
X98041119Y-92010189D01*
X98073054Y-91808552D01*
X98136141Y-91614393D01*
X98228824Y-91432493D01*
X98348820Y-91267332D01*
X98493176Y-91122976D01*
X98658337Y-91002980D01*
X98840237Y-90910297D01*
X98927912Y-90881809D01*
X98960488Y-90746110D01*
X98241385Y-90027007D01*
X98234336Y-90019381D01*
X98173454Y-89954379D01*
X98169571Y-89949319D01*
X98158718Y-89937578D01*
X98125864Y-89892358D01*
X98048721Y-89791823D01*
X98032852Y-89764339D01*
X98015663Y-89740679D01*
X97989149Y-89688642D01*
X97947298Y-89616155D01*
X97925929Y-89564566D01*
X97905171Y-89523826D01*
X97891041Y-89480339D01*
X97869673Y-89428752D01*
X97848009Y-89347901D01*
X97829962Y-89292358D01*
X97825387Y-89263474D01*
X97817173Y-89232818D01*
X97800632Y-89107175D01*
X97791889Y-89051974D01*
X97791889Y-89040764D01*
X97790696Y-89031703D01*
X97790696Y-88828864D01*
X97791889Y-88819802D01*
X97791889Y-88808594D01*
X97800631Y-88753397D01*
X97817173Y-88627749D01*
X97825387Y-88597091D01*
X97829962Y-88568210D01*
X97848007Y-88512670D01*
X97869673Y-88431815D01*
X97891042Y-88380223D01*
X97905171Y-88336742D01*
X97925927Y-88296005D01*
X97947298Y-88244412D01*
X97989153Y-88171916D01*
X98015663Y-88119889D01*
X98032850Y-88096232D01*
X98048721Y-88068744D01*
X98125878Y-87968190D01*
X98158718Y-87922990D01*
X98166640Y-87915067D01*
X98172204Y-87907817D01*
X98315641Y-87764380D01*
X98322891Y-87758816D01*
X98330814Y-87750894D01*
X98376014Y-87718054D01*
X98476568Y-87640897D01*
X98504056Y-87625026D01*
X98527713Y-87607839D01*
X98579740Y-87581329D01*
X98652236Y-87539474D01*
X98703829Y-87518103D01*
X98744566Y-87497347D01*
X98788047Y-87483218D01*
X98839639Y-87461849D01*
X98920494Y-87440183D01*
X98976034Y-87422138D01*
X99004915Y-87417563D01*
X99035573Y-87409349D01*
X99161221Y-87392807D01*
X99216418Y-87384065D01*
X99227626Y-87384065D01*
X99236688Y-87382872D01*
X99439528Y-87382872D01*
X99448590Y-87384065D01*
X99459798Y-87384065D01*
X99514996Y-87392807D01*
X99640642Y-87409349D01*
X99671298Y-87417563D01*
X99700182Y-87422138D01*
X99755725Y-87440185D01*
X99836576Y-87461849D01*
X99888163Y-87483217D01*
X99931650Y-87497347D01*
X99972390Y-87518105D01*
X100023979Y-87539474D01*
X100096466Y-87581325D01*
X100148503Y-87607839D01*
X100172163Y-87625028D01*
X100199647Y-87640897D01*
X100300182Y-87718040D01*
X100345402Y-87750894D01*
X100357143Y-87761747D01*
X100362203Y-87765630D01*
X100427205Y-87826512D01*
X100434831Y-87833561D01*
X101153934Y-88552664D01*
X101289633Y-88520088D01*
X101318121Y-88432413D01*
X101410804Y-88250513D01*
X101530800Y-88085352D01*
X101675156Y-87940996D01*
X101840317Y-87821000D01*
X102022217Y-87728317D01*
X102216376Y-87665230D01*
X102418013Y-87633295D01*
X102622163Y-87633295D01*
X102624594Y-87633680D01*
X102651867Y-87633680D01*
X102722503Y-87501530D01*
X102677141Y-87433641D01*
X102674962Y-87431462D01*
X102576833Y-87284602D01*
X102509241Y-87121420D01*
X102474783Y-86948187D01*
X102474783Y-86771561D01*
X102509241Y-86598328D01*
X102576833Y-86435146D01*
X102674962Y-86288286D01*
X102799856Y-86163392D01*
X102946716Y-86065263D01*
X103109898Y-85997671D01*
X103283131Y-85963213D01*
X103459757Y-85963213D01*
X103632990Y-85997671D01*
G37*
G36*
X132415735Y-108351673D02*
G01*
X132560806Y-108411763D01*
X132691366Y-108499001D01*
X132802398Y-108610033D01*
X132889636Y-108740593D01*
X132949726Y-108885664D01*
X132980360Y-109039670D01*
X132980360Y-109196694D01*
X132949726Y-109350700D01*
X132889636Y-109495771D01*
X132802398Y-109626331D01*
X132691366Y-109737363D01*
X132560806Y-109824601D01*
X132415735Y-109884691D01*
X132261729Y-109915325D01*
X132104705Y-109915325D01*
X131950699Y-109884691D01*
X131805628Y-109824601D01*
X131675068Y-109737363D01*
X131564036Y-109626331D01*
X131476798Y-109495771D01*
X131416708Y-109350700D01*
X131386074Y-109196694D01*
X131386074Y-109039670D01*
X131416708Y-108885664D01*
X131476798Y-108740593D01*
X131564036Y-108610033D01*
X131675068Y-108499001D01*
X131805628Y-108411763D01*
X131950699Y-108351673D01*
X132104705Y-108321039D01*
X132261729Y-108321039D01*
X132415735Y-108351673D01*
G37*
G36*
X133800921Y-107033153D02*
G01*
X133927880Y-107085741D01*
X134042141Y-107162088D01*
X134139311Y-107259258D01*
X134215658Y-107373519D01*
X134268246Y-107500478D01*
X134295055Y-107635258D01*
X134295055Y-107772678D01*
X134268246Y-107907458D01*
X134215658Y-108034417D01*
X134139311Y-108148678D01*
X134042141Y-108245848D01*
X133927880Y-108322195D01*
X133800921Y-108374783D01*
X133666141Y-108401592D01*
X133528721Y-108401592D01*
X133393941Y-108374783D01*
X133266982Y-108322195D01*
X133152721Y-108245848D01*
X133055551Y-108148678D01*
X132979204Y-108034417D01*
X132926616Y-107907458D01*
X132899807Y-107772678D01*
X132899807Y-107635258D01*
X132926616Y-107500478D01*
X132979204Y-107373519D01*
X133055551Y-107259258D01*
X133152721Y-107162088D01*
X133266982Y-107085741D01*
X133393941Y-107033153D01*
X133528721Y-107006344D01*
X133666141Y-107006344D01*
X133800921Y-107033153D01*
G37*
G36*
X135215135Y-105618939D02*
G01*
X135342094Y-105671527D01*
X135456355Y-105747874D01*
X135553525Y-105845044D01*
X135629872Y-105959305D01*
X135682460Y-106086264D01*
X135709269Y-106221044D01*
X135709269Y-106358464D01*
X135682460Y-106493244D01*
X135629872Y-106620203D01*
X135553525Y-106734464D01*
X135456355Y-106831634D01*
X135342094Y-106907981D01*
X135215135Y-106960569D01*
X135080355Y-106987378D01*
X134942935Y-106987378D01*
X134808155Y-106960569D01*
X134681196Y-106907981D01*
X134566935Y-106831634D01*
X134469765Y-106734464D01*
X134393418Y-106620203D01*
X134340830Y-106493244D01*
X134314021Y-106358464D01*
X134314021Y-106221044D01*
X134340830Y-106086264D01*
X134393418Y-105959305D01*
X134469765Y-105845044D01*
X134566935Y-105747874D01*
X134681196Y-105671527D01*
X134808155Y-105618939D01*
X134942935Y-105592130D01*
X135080355Y-105592130D01*
X135215135Y-105618939D01*
G37*
G36*
X136614833Y-104252573D02*
G01*
X136732737Y-104301410D01*
X136838848Y-104372311D01*
X136929088Y-104462551D01*
X136999989Y-104568662D01*
X137048826Y-104686566D01*
X137073723Y-104811732D01*
X137073723Y-104939350D01*
X137048826Y-105064516D01*
X136999989Y-105182420D01*
X136929088Y-105288531D01*
X136838848Y-105378771D01*
X136732737Y-105449672D01*
X136614833Y-105498509D01*
X136489667Y-105523406D01*
X136362049Y-105523406D01*
X136236883Y-105498509D01*
X136118979Y-105449672D01*
X136012868Y-105378771D01*
X135922628Y-105288531D01*
X135851727Y-105182420D01*
X135802890Y-105064516D01*
X135777993Y-104939350D01*
X135777993Y-104811732D01*
X135802890Y-104686566D01*
X135851727Y-104568662D01*
X135922628Y-104462551D01*
X136012868Y-104372311D01*
X136118979Y-104301410D01*
X136236883Y-104252573D01*
X136362049Y-104227676D01*
X136489667Y-104227676D01*
X136614833Y-104252573D01*
G37*
G36*
X138072590Y-102694818D02*
G01*
X138217661Y-102754908D01*
X138348221Y-102842146D01*
X138459253Y-102953178D01*
X138546491Y-103083738D01*
X138606581Y-103228809D01*
X138637215Y-103382815D01*
X138637215Y-103539839D01*
X138606581Y-103693845D01*
X138546491Y-103838916D01*
X138459253Y-103969476D01*
X138348221Y-104080508D01*
X138217661Y-104167746D01*
X138072590Y-104227836D01*
X137918584Y-104258470D01*
X137761560Y-104258470D01*
X137607554Y-104227836D01*
X137462483Y-104167746D01*
X137331923Y-104080508D01*
X137220891Y-103969476D01*
X137133653Y-103838916D01*
X137073563Y-103693845D01*
X137042929Y-103539839D01*
X137042929Y-103382815D01*
X137073563Y-103228809D01*
X137133653Y-103083738D01*
X137220891Y-102953178D01*
X137331923Y-102842146D01*
X137462483Y-102754908D01*
X137607554Y-102694818D01*
X137761560Y-102664184D01*
X137918584Y-102664184D01*
X138072590Y-102694818D01*
G37*
G36*
X142619658Y-101310539D02*
G01*
X142773785Y-101374380D01*
X142912495Y-101467063D01*
X143030458Y-101585026D01*
X143123141Y-101723736D01*
X143186982Y-101877863D01*
X143219528Y-102041482D01*
X143219528Y-102208308D01*
X143186982Y-102371927D01*
X143123141Y-102526054D01*
X143030458Y-102664764D01*
X142912495Y-102782727D01*
X142773785Y-102875410D01*
X142619658Y-102939251D01*
X142456039Y-102971797D01*
X142289213Y-102971797D01*
X142125594Y-102939251D01*
X141971467Y-102875410D01*
X141832757Y-102782727D01*
X141714794Y-102664764D01*
X141622111Y-102526054D01*
X141558270Y-102371927D01*
X141525724Y-102208308D01*
X141525724Y-102041482D01*
X141558270Y-101877863D01*
X141622111Y-101723736D01*
X141714794Y-101585026D01*
X141832757Y-101467063D01*
X141971467Y-101374380D01*
X142125594Y-101310539D01*
X142289213Y-101277993D01*
X142456039Y-101277993D01*
X142619658Y-101310539D01*
G37*
G36*
X140823607Y-99514488D02*
G01*
X140977734Y-99578329D01*
X141116444Y-99671012D01*
X141234407Y-99788975D01*
X141327090Y-99927685D01*
X141390931Y-100081812D01*
X141423477Y-100245431D01*
X141423477Y-100412257D01*
X141390931Y-100575876D01*
X141327090Y-100730003D01*
X141234407Y-100868713D01*
X141116444Y-100986676D01*
X140977734Y-101079359D01*
X140823607Y-101143200D01*
X140659988Y-101175746D01*
X140493162Y-101175746D01*
X140329543Y-101143200D01*
X140175416Y-101079359D01*
X140036706Y-100986676D01*
X139918743Y-100868713D01*
X139826060Y-100730003D01*
X139762219Y-100575876D01*
X139729673Y-100412257D01*
X139729673Y-100245431D01*
X139762219Y-100081812D01*
X139826060Y-99927685D01*
X139918743Y-99788975D01*
X140036706Y-99671012D01*
X140175416Y-99578329D01*
X140329543Y-99514488D01*
X140493162Y-99481942D01*
X140659988Y-99481942D01*
X140823607Y-99514488D01*
G37*
G36*
X139027556Y-97718437D02*
G01*
X139181683Y-97782278D01*
X139320393Y-97874961D01*
X139438356Y-97992924D01*
X139531039Y-98131634D01*
X139594880Y-98285761D01*
X139627426Y-98449380D01*
X139627426Y-98616206D01*
X139594880Y-98779825D01*
X139531039Y-98933952D01*
X139438356Y-99072662D01*
X139320393Y-99190625D01*
X139181683Y-99283308D01*
X139027556Y-99347149D01*
X138863937Y-99379695D01*
X138697111Y-99379695D01*
X138533492Y-99347149D01*
X138379365Y-99283308D01*
X138240655Y-99190625D01*
X138122692Y-99072662D01*
X138030009Y-98933952D01*
X137966168Y-98779825D01*
X137933622Y-98616206D01*
X137933622Y-98449380D01*
X137966168Y-98285761D01*
X138030009Y-98131634D01*
X138122692Y-97992924D01*
X138240655Y-97874961D01*
X138379365Y-97782278D01*
X138533492Y-97718437D01*
X138697111Y-97685891D01*
X138863937Y-97685891D01*
X139027556Y-97718437D01*
G37*
G36*
X142492007Y-96154081D02*
G01*
X142637078Y-96214171D01*
X142767638Y-96301409D01*
X142878670Y-96412441D01*
X142965908Y-96543001D01*
X143025998Y-96688072D01*
X143056632Y-96842078D01*
X143056632Y-96999102D01*
X143025998Y-97153108D01*
X142965908Y-97298179D01*
X142878670Y-97428739D01*
X142767638Y-97539771D01*
X142637078Y-97627009D01*
X142492007Y-97687099D01*
X142338001Y-97717733D01*
X142180977Y-97717733D01*
X142026971Y-97687099D01*
X141881900Y-97627009D01*
X141751340Y-97539771D01*
X141640308Y-97428739D01*
X141553070Y-97298179D01*
X141492980Y-97153108D01*
X141462346Y-96999102D01*
X141462346Y-96842078D01*
X141492980Y-96688072D01*
X141553070Y-96543001D01*
X141640308Y-96412441D01*
X141751340Y-96301409D01*
X141881900Y-96214171D01*
X142026971Y-96154081D01*
X142180977Y-96123447D01*
X142338001Y-96123447D01*
X142492007Y-96154081D01*
G37*
G36*
X137231504Y-95922386D02*
G01*
X137385631Y-95986227D01*
X137524341Y-96078910D01*
X137642304Y-96196873D01*
X137734987Y-96335583D01*
X137798828Y-96489710D01*
X137831374Y-96653329D01*
X137831374Y-96820155D01*
X137798828Y-96983774D01*
X137734987Y-97137901D01*
X137642304Y-97276611D01*
X137524341Y-97394574D01*
X137385631Y-97487257D01*
X137231504Y-97551098D01*
X137067885Y-97583644D01*
X136901059Y-97583644D01*
X136737440Y-97551098D01*
X136583313Y-97487257D01*
X136444603Y-97394574D01*
X136326640Y-97276611D01*
X136233957Y-97137901D01*
X136170116Y-96983774D01*
X136137570Y-96820155D01*
X136137570Y-96653329D01*
X136170116Y-96489710D01*
X136233957Y-96335583D01*
X136326640Y-96196873D01*
X136444603Y-96078910D01*
X136583313Y-95986227D01*
X136737440Y-95922386D01*
X136901059Y-95889840D01*
X137067885Y-95889840D01*
X137231504Y-95922386D01*
G37*
G36*
X143877193Y-94835561D02*
G01*
X144004152Y-94888149D01*
X144118413Y-94964496D01*
X144215583Y-95061666D01*
X144291930Y-95175927D01*
X144344518Y-95302886D01*
X144371327Y-95437666D01*
X144371327Y-95575086D01*
X144344518Y-95709866D01*
X144291930Y-95836825D01*
X144215583Y-95951086D01*
X144118413Y-96048256D01*
X144004152Y-96124603D01*
X143877193Y-96177191D01*
X143742413Y-96204000D01*
X143604993Y-96204000D01*
X143470213Y-96177191D01*
X143343254Y-96124603D01*
X143228993Y-96048256D01*
X143131823Y-95951086D01*
X143055476Y-95836825D01*
X143002888Y-95709866D01*
X142976079Y-95575086D01*
X142976079Y-95437666D01*
X143002888Y-95302886D01*
X143055476Y-95175927D01*
X143131823Y-95061666D01*
X143228993Y-94964496D01*
X143343254Y-94888149D01*
X143470213Y-94835561D01*
X143604993Y-94808752D01*
X143742413Y-94808752D01*
X143877193Y-94835561D01*
G37*
G36*
X135435453Y-94126335D02*
G01*
X135589580Y-94190176D01*
X135728290Y-94282859D01*
X135846253Y-94400822D01*
X135938936Y-94539532D01*
X136002777Y-94693659D01*
X136035323Y-94857278D01*
X136035323Y-95024104D01*
X136002777Y-95187723D01*
X135938936Y-95341850D01*
X135846253Y-95480560D01*
X135728290Y-95598523D01*
X135589580Y-95691206D01*
X135435453Y-95755047D01*
X135271834Y-95787593D01*
X135105008Y-95787593D01*
X134941389Y-95755047D01*
X134787262Y-95691206D01*
X134648552Y-95598523D01*
X134530589Y-95480560D01*
X134437906Y-95341850D01*
X134374065Y-95187723D01*
X134341519Y-95024104D01*
X134341519Y-94857278D01*
X134374065Y-94693659D01*
X134437906Y-94539532D01*
X134530589Y-94400822D01*
X134648552Y-94282859D01*
X134787262Y-94190176D01*
X134941389Y-94126335D01*
X135105008Y-94093789D01*
X135271834Y-94093789D01*
X135435453Y-94126335D01*
G37*
G36*
X139827665Y-93096317D02*
G01*
X139990847Y-93163909D01*
X140137707Y-93262038D01*
X140262601Y-93386932D01*
X140360730Y-93533792D01*
X140428322Y-93696974D01*
X140462780Y-93870207D01*
X140462780Y-94046833D01*
X140428322Y-94220066D01*
X140360730Y-94383248D01*
X140262601Y-94530108D01*
X140137707Y-94655002D01*
X139990847Y-94753131D01*
X139827665Y-94820723D01*
X139654432Y-94855181D01*
X139477806Y-94855181D01*
X139304573Y-94820723D01*
X139141391Y-94753131D01*
X138994531Y-94655002D01*
X138869637Y-94530108D01*
X138771508Y-94383248D01*
X138703916Y-94220066D01*
X138669458Y-94046833D01*
X138669458Y-93870207D01*
X138703916Y-93696974D01*
X138771508Y-93533792D01*
X138869637Y-93386932D01*
X138994531Y-93262038D01*
X139141391Y-93163909D01*
X139304573Y-93096317D01*
X139477806Y-93061859D01*
X139654432Y-93061859D01*
X139827665Y-93096317D01*
G37*
G36*
X145291407Y-93421347D02*
G01*
X145418366Y-93473935D01*
X145532627Y-93550282D01*
X145629797Y-93647452D01*
X145706144Y-93761713D01*
X145758732Y-93888672D01*
X145785541Y-94023452D01*
X145785541Y-94160872D01*
X145758732Y-94295652D01*
X145706144Y-94422611D01*
X145629797Y-94536872D01*
X145532627Y-94634042D01*
X145418366Y-94710389D01*
X145291407Y-94762977D01*
X145156627Y-94789786D01*
X145019207Y-94789786D01*
X144884427Y-94762977D01*
X144757468Y-94710389D01*
X144643207Y-94634042D01*
X144546037Y-94536872D01*
X144469690Y-94422611D01*
X144417102Y-94295652D01*
X144390293Y-94160872D01*
X144390293Y-94023452D01*
X144417102Y-93888672D01*
X144469690Y-93761713D01*
X144546037Y-93647452D01*
X144643207Y-93550282D01*
X144757468Y-93473935D01*
X144884427Y-93421347D01*
X145019207Y-93394538D01*
X145156627Y-93394538D01*
X145291407Y-93421347D01*
G37*
G36*
X133639402Y-92330283D02*
G01*
X133793529Y-92394124D01*
X133932239Y-92486807D01*
X134050202Y-92604770D01*
X134142885Y-92743480D01*
X134206726Y-92897607D01*
X134239272Y-93061226D01*
X134239272Y-93228052D01*
X134206726Y-93391671D01*
X134142885Y-93545798D01*
X134050202Y-93684508D01*
X133932239Y-93802471D01*
X133793529Y-93895154D01*
X133639402Y-93958995D01*
X133475783Y-93991541D01*
X133308957Y-93991541D01*
X133145338Y-93958995D01*
X132991211Y-93895154D01*
X132852501Y-93802471D01*
X132734538Y-93684508D01*
X132641855Y-93545798D01*
X132578014Y-93391671D01*
X132545468Y-93228052D01*
X132545468Y-93061226D01*
X132578014Y-92897607D01*
X132641855Y-92743480D01*
X132734538Y-92604770D01*
X132852501Y-92486807D01*
X132991211Y-92394124D01*
X133145338Y-92330283D01*
X133308957Y-92297737D01*
X133475783Y-92297737D01*
X133639402Y-92330283D01*
G37*
G36*
X146691105Y-92054981D02*
G01*
X146809009Y-92103818D01*
X146915120Y-92174719D01*
X147005360Y-92264959D01*
X147076261Y-92371070D01*
X147125098Y-92488974D01*
X147149995Y-92614140D01*
X147149995Y-92741758D01*
X147125098Y-92866924D01*
X147076261Y-92984828D01*
X147005360Y-93090939D01*
X146915120Y-93181179D01*
X146809009Y-93252080D01*
X146691105Y-93300917D01*
X146565939Y-93325814D01*
X146438321Y-93325814D01*
X146313155Y-93300917D01*
X146195251Y-93252080D01*
X146089140Y-93181179D01*
X145998900Y-93090939D01*
X145927999Y-92984828D01*
X145879162Y-92866924D01*
X145854265Y-92741758D01*
X145854265Y-92614140D01*
X145879162Y-92488974D01*
X145927999Y-92371070D01*
X145998900Y-92264959D01*
X146089140Y-92174719D01*
X146195251Y-92103818D01*
X146313155Y-92054981D01*
X146438321Y-92030084D01*
X146565939Y-92030084D01*
X146691105Y-92054981D01*
G37*
G36*
X141623717Y-91300265D02*
G01*
X141786899Y-91367857D01*
X141933759Y-91465986D01*
X142058653Y-91590880D01*
X142156782Y-91737740D01*
X142224374Y-91900922D01*
X142258832Y-92074155D01*
X142258832Y-92250781D01*
X142224374Y-92424014D01*
X142156782Y-92587196D01*
X142058653Y-92734056D01*
X141933759Y-92858950D01*
X141786899Y-92957079D01*
X141623717Y-93024671D01*
X141450484Y-93059129D01*
X141273858Y-93059129D01*
X141100625Y-93024671D01*
X140937443Y-92957079D01*
X140790583Y-92858950D01*
X140665689Y-92734056D01*
X140567560Y-92587196D01*
X140499968Y-92424014D01*
X140465510Y-92250781D01*
X140465510Y-92074155D01*
X140499968Y-91900922D01*
X140567560Y-91737740D01*
X140665689Y-91590880D01*
X140790583Y-91465986D01*
X140937443Y-91367857D01*
X141100625Y-91300265D01*
X141273858Y-91265807D01*
X141450484Y-91265807D01*
X141623717Y-91300265D01*
G37*
G36*
X122627986Y-85983403D02*
G01*
X122969769Y-86051388D01*
X123303242Y-86152546D01*
X123625194Y-86285903D01*
X123932525Y-86450175D01*
X124222274Y-86643779D01*
X124491652Y-86864852D01*
X124738063Y-87111263D01*
X124959136Y-87380641D01*
X125152740Y-87670390D01*
X125317012Y-87977721D01*
X125450369Y-88299673D01*
X125551527Y-88633146D01*
X125619512Y-88974929D01*
X125653669Y-89321730D01*
X125653669Y-89670208D01*
X125619512Y-90017009D01*
X125551527Y-90358792D01*
X125450369Y-90692265D01*
X125317012Y-91014217D01*
X125152740Y-91321548D01*
X124959136Y-91611297D01*
X124738063Y-91880675D01*
X124491652Y-92127086D01*
X124222274Y-92348159D01*
X123932525Y-92541763D01*
X123625194Y-92706035D01*
X123303242Y-92839392D01*
X122969769Y-92940550D01*
X122627986Y-93008535D01*
X122281185Y-93042692D01*
X121932707Y-93042692D01*
X121585906Y-93008535D01*
X121244123Y-92940550D01*
X120910650Y-92839392D01*
X120588698Y-92706035D01*
X120281367Y-92541763D01*
X119991618Y-92348159D01*
X119722240Y-92127086D01*
X119475829Y-91880675D01*
X119254756Y-91611297D01*
X119061152Y-91321548D01*
X118896880Y-91014217D01*
X118763523Y-90692265D01*
X118662365Y-90358792D01*
X118594380Y-90017009D01*
X118560223Y-89670208D01*
X118560223Y-89321730D01*
X118594380Y-88974929D01*
X118662365Y-88633146D01*
X118763523Y-88299673D01*
X118896880Y-87977721D01*
X119061152Y-87670390D01*
X119254756Y-87380641D01*
X119475829Y-87111263D01*
X119722240Y-86864852D01*
X119991618Y-86643779D01*
X120281367Y-86450175D01*
X120588698Y-86285903D01*
X120910650Y-86152546D01*
X121244123Y-86051388D01*
X121585906Y-85983403D01*
X121932707Y-85949246D01*
X122281185Y-85949246D01*
X122627986Y-85983403D01*
G37*
G36*
X80935832Y-90958579D02*
G01*
X81099177Y-91026238D01*
X81246183Y-91124465D01*
X81371202Y-91249484D01*
X81469429Y-91396490D01*
X81537088Y-91559835D01*
X81571581Y-91733241D01*
X81571581Y-91910045D01*
X81537088Y-92083451D01*
X81469429Y-92246796D01*
X81371202Y-92393802D01*
X81246183Y-92518821D01*
X81099177Y-92617048D01*
X80935832Y-92684707D01*
X80762426Y-92719200D01*
X80585622Y-92719200D01*
X80412216Y-92684707D01*
X80248871Y-92617048D01*
X80101865Y-92518821D01*
X79976846Y-92393802D01*
X79878619Y-92246796D01*
X79810960Y-92083451D01*
X79776467Y-91910045D01*
X79776467Y-91733241D01*
X79810960Y-91559835D01*
X79878619Y-91396490D01*
X79976846Y-91249484D01*
X80101865Y-91124465D01*
X80248871Y-91026238D01*
X80412216Y-90958579D01*
X80585622Y-90924086D01*
X80762426Y-90924086D01*
X80935832Y-90958579D01*
G37*
G36*
X153168450Y-90170099D02*
G01*
X153184995Y-90181155D01*
X154316366Y-91312526D01*
X154327422Y-91329071D01*
X154331303Y-91348588D01*
X154327422Y-91368105D01*
X154316366Y-91384650D01*
X153184995Y-92516021D01*
X153168450Y-92527077D01*
X153148933Y-92530958D01*
X153129416Y-92527077D01*
X153112871Y-92516021D01*
X151981500Y-91384650D01*
X151970444Y-91368105D01*
X151966563Y-91348588D01*
X151970444Y-91329071D01*
X151981500Y-91312526D01*
X152538440Y-90755586D01*
X153104166Y-90189859D01*
X153104169Y-90189856D01*
X153112871Y-90181155D01*
X153129416Y-90170099D01*
X153148933Y-90166218D01*
X153168450Y-90170099D01*
G37*
G36*
X131843351Y-90534232D02*
G01*
X131997478Y-90598073D01*
X132136188Y-90690756D01*
X132254151Y-90808719D01*
X132346834Y-90947429D01*
X132410675Y-91101556D01*
X132443221Y-91265175D01*
X132443221Y-91432001D01*
X132410675Y-91595620D01*
X132346834Y-91749747D01*
X132254151Y-91888457D01*
X132136188Y-92006420D01*
X131997478Y-92099103D01*
X131843351Y-92162944D01*
X131679732Y-92195490D01*
X131512906Y-92195490D01*
X131349287Y-92162944D01*
X131195160Y-92099103D01*
X131056450Y-92006420D01*
X130938487Y-91888457D01*
X130845804Y-91749747D01*
X130781963Y-91595620D01*
X130749417Y-91432001D01*
X130749417Y-91265175D01*
X130781963Y-91101556D01*
X130845804Y-90947429D01*
X130938487Y-90808719D01*
X131056450Y-90690756D01*
X131195160Y-90598073D01*
X131349287Y-90534232D01*
X131512906Y-90501686D01*
X131679732Y-90501686D01*
X131843351Y-90534232D01*
G37*
G36*
X87255628Y-88875442D02*
G01*
X87263537Y-88877561D01*
X87263542Y-88877562D01*
X87373794Y-88907104D01*
X87373798Y-88907105D01*
X87381707Y-88909225D01*
X87395213Y-88914820D01*
X87402304Y-88918914D01*
X87402306Y-88918915D01*
X87501155Y-88975986D01*
X87501157Y-88975987D01*
X87508252Y-88980084D01*
X87519850Y-88988983D01*
X87525643Y-88994776D01*
X87553089Y-89022221D01*
X87564988Y-89030434D01*
X87569023Y-89032106D01*
X87922576Y-89385659D01*
X87926852Y-89395984D01*
X87948650Y-89417783D01*
X87965699Y-89434832D01*
X87974598Y-89446430D01*
X88039862Y-89559469D01*
X88045457Y-89572975D01*
X88079240Y-89699054D01*
X88081148Y-89713548D01*
X88081148Y-89844074D01*
X88079240Y-89858568D01*
X88045457Y-89984646D01*
X88039862Y-89998152D01*
X87974598Y-90111191D01*
X87965699Y-90122789D01*
X87959903Y-90128584D01*
X87959903Y-90128585D01*
X87932459Y-90156029D01*
X87924246Y-90167927D01*
X87922576Y-90171962D01*
X87533667Y-90560871D01*
X87511359Y-90570111D01*
X87509616Y-90571165D01*
X87508678Y-90571221D01*
X87494069Y-90577273D01*
X87483183Y-90572764D01*
X87471945Y-90573444D01*
X87430165Y-90592246D01*
X87389843Y-90632569D01*
X87372361Y-90665276D01*
X87367067Y-90691890D01*
X87368292Y-90698050D01*
X87364411Y-90717567D01*
X87353355Y-90734112D01*
X86646248Y-91441219D01*
X86629703Y-91452275D01*
X86610186Y-91456156D01*
X86604027Y-91454931D01*
X86577412Y-91460225D01*
X86544705Y-91477707D01*
X86502551Y-91519860D01*
X86483980Y-91568827D01*
X86489409Y-91581933D01*
X86473007Y-91621531D01*
X86084098Y-92010440D01*
X86073771Y-92014716D01*
X86040721Y-92047767D01*
X86034925Y-92053563D01*
X86023327Y-92062462D01*
X85910288Y-92127726D01*
X85896782Y-92133321D01*
X85770704Y-92167104D01*
X85756210Y-92169012D01*
X85748020Y-92169012D01*
X85633879Y-92169012D01*
X85625684Y-92169012D01*
X85611190Y-92167104D01*
X85485111Y-92133321D01*
X85471605Y-92127726D01*
X85358566Y-92062462D01*
X85346968Y-92053563D01*
X85341172Y-92047767D01*
X85313727Y-92020323D01*
X85301829Y-92012110D01*
X85297795Y-92010440D01*
X84944242Y-91656887D01*
X84939964Y-91646560D01*
X84906912Y-91613507D01*
X84901119Y-91607714D01*
X84892220Y-91596116D01*
X84877164Y-91570040D01*
X84831051Y-91490170D01*
X84831050Y-91490168D01*
X84826956Y-91483077D01*
X84821361Y-91469571D01*
X84819241Y-91461662D01*
X84819240Y-91461658D01*
X84789698Y-91351406D01*
X84789697Y-91351401D01*
X84787578Y-91343492D01*
X84785670Y-91328998D01*
X84785670Y-91198472D01*
X84787578Y-91183978D01*
X84821361Y-91057900D01*
X84826956Y-91044394D01*
X84831050Y-91037302D01*
X84831053Y-91037296D01*
X84888122Y-90938451D01*
X84888126Y-90938445D01*
X84892220Y-90931355D01*
X84901119Y-90919757D01*
X84906905Y-90913970D01*
X84906915Y-90913958D01*
X84934357Y-90886517D01*
X84942571Y-90874617D01*
X84944242Y-90870584D01*
X84947470Y-90867355D01*
X84947471Y-90867354D01*
X85322419Y-90492406D01*
X85322421Y-90492404D01*
X85333151Y-90481675D01*
X85355448Y-90472439D01*
X85357202Y-90471379D01*
X85358145Y-90471321D01*
X85372749Y-90465273D01*
X85383631Y-90469780D01*
X85394875Y-90469101D01*
X85436652Y-90450298D01*
X85476974Y-90409976D01*
X85494455Y-90377271D01*
X85499749Y-90350649D01*
X85498526Y-90344496D01*
X85502407Y-90324979D01*
X85513463Y-90308434D01*
X86030074Y-89791823D01*
X86211865Y-89610031D01*
X86211868Y-89610028D01*
X86220570Y-89601327D01*
X86237115Y-89590271D01*
X86256632Y-89586390D01*
X86262786Y-89587613D01*
X86289407Y-89582319D01*
X86322112Y-89564838D01*
X86364265Y-89522686D01*
X86382836Y-89473717D01*
X86377409Y-89460613D01*
X86393811Y-89421015D01*
X86397041Y-89417784D01*
X86397042Y-89417783D01*
X86771990Y-89042835D01*
X86771992Y-89042833D01*
X86782720Y-89032106D01*
X86793045Y-89027828D01*
X86826094Y-88994779D01*
X86826106Y-88994769D01*
X86831893Y-88988983D01*
X86843491Y-88980084D01*
X86850581Y-88975990D01*
X86850587Y-88975986D01*
X86949432Y-88918917D01*
X86949438Y-88918914D01*
X86956530Y-88914820D01*
X86970036Y-88909225D01*
X87096114Y-88875442D01*
X87110608Y-88873534D01*
X87241134Y-88873534D01*
X87255628Y-88875442D01*
G37*
G36*
X148148862Y-90497226D02*
G01*
X148293933Y-90557316D01*
X148424493Y-90644554D01*
X148535525Y-90755586D01*
X148622763Y-90886146D01*
X148682853Y-91031217D01*
X148713487Y-91185223D01*
X148713487Y-91342247D01*
X148682853Y-91496253D01*
X148622763Y-91641324D01*
X148535525Y-91771884D01*
X148424493Y-91882916D01*
X148293933Y-91970154D01*
X148148862Y-92030244D01*
X147994856Y-92060878D01*
X147837832Y-92060878D01*
X147683826Y-92030244D01*
X147538755Y-91970154D01*
X147408195Y-91882916D01*
X147297163Y-91771884D01*
X147209925Y-91641324D01*
X147149835Y-91496253D01*
X147119201Y-91342247D01*
X147119201Y-91185223D01*
X147149835Y-91031217D01*
X147209925Y-90886146D01*
X147297163Y-90755586D01*
X147408195Y-90644554D01*
X147538755Y-90557316D01*
X147683826Y-90497226D01*
X147837832Y-90466592D01*
X147994856Y-90466592D01*
X148148862Y-90497226D01*
G37*
G36*
X143419768Y-89504214D02*
G01*
X143582950Y-89571806D01*
X143729810Y-89669935D01*
X143854704Y-89794829D01*
X143952833Y-89941689D01*
X144020425Y-90104871D01*
X144054883Y-90278104D01*
X144054883Y-90454730D01*
X144020425Y-90627963D01*
X143952833Y-90791145D01*
X143854704Y-90938005D01*
X143729810Y-91062899D01*
X143582950Y-91161028D01*
X143419768Y-91228620D01*
X143246535Y-91263078D01*
X143069909Y-91263078D01*
X142896676Y-91228620D01*
X142733494Y-91161028D01*
X142586634Y-91062899D01*
X142461740Y-90938005D01*
X142363611Y-90791145D01*
X142296019Y-90627963D01*
X142261561Y-90454730D01*
X142261561Y-90278104D01*
X142296019Y-90104871D01*
X142363611Y-89941689D01*
X142461740Y-89794829D01*
X142586634Y-89669935D01*
X142733494Y-89571806D01*
X142896676Y-89504214D01*
X143069909Y-89469756D01*
X143246535Y-89469756D01*
X143419768Y-89504214D01*
G37*
G36*
X130047299Y-88738181D02*
G01*
X130201426Y-88802022D01*
X130340136Y-88894705D01*
X130458099Y-89012668D01*
X130550782Y-89151378D01*
X130614623Y-89305505D01*
X130647169Y-89469124D01*
X130647169Y-89635950D01*
X130614623Y-89799569D01*
X130550782Y-89953696D01*
X130458099Y-90092406D01*
X130340136Y-90210369D01*
X130201426Y-90303052D01*
X130047299Y-90366893D01*
X129883680Y-90399439D01*
X129716854Y-90399439D01*
X129553235Y-90366893D01*
X129399108Y-90303052D01*
X129260398Y-90210369D01*
X129142435Y-90092406D01*
X129049752Y-89953696D01*
X128985911Y-89799569D01*
X128953365Y-89635950D01*
X128953365Y-89469124D01*
X128985911Y-89305505D01*
X129049752Y-89151378D01*
X129142435Y-89012668D01*
X129260398Y-88894705D01*
X129399108Y-88802022D01*
X129553235Y-88738181D01*
X129716854Y-88705635D01*
X129883680Y-88705635D01*
X130047299Y-88738181D01*
G37*
G36*
X151599914Y-88738181D02*
G01*
X151754041Y-88802022D01*
X151892751Y-88894705D01*
X152010714Y-89012668D01*
X152103397Y-89151378D01*
X152167238Y-89305505D01*
X152199784Y-89469124D01*
X152199784Y-89635950D01*
X152167238Y-89799569D01*
X152103397Y-89953696D01*
X152010714Y-90092406D01*
X151892751Y-90210369D01*
X151754041Y-90303052D01*
X151599914Y-90366893D01*
X151436295Y-90399439D01*
X151269469Y-90399439D01*
X151105850Y-90366893D01*
X150951723Y-90303052D01*
X150813013Y-90210369D01*
X150695050Y-90092406D01*
X150602367Y-89953696D01*
X150538526Y-89799569D01*
X150505980Y-89635950D01*
X150505980Y-89469124D01*
X150538526Y-89305505D01*
X150602367Y-89151378D01*
X150695050Y-89012668D01*
X150813013Y-88894705D01*
X150951723Y-88802022D01*
X151105850Y-88738181D01*
X151269469Y-88705635D01*
X151436295Y-88705635D01*
X151599914Y-88738181D01*
G37*
G36*
X144973790Y-87321166D02*
G01*
X144990335Y-87332222D01*
X146192417Y-88534304D01*
X146203473Y-88550849D01*
X146207354Y-88570366D01*
X146203473Y-88589883D01*
X146192417Y-88606428D01*
X144990335Y-89808510D01*
X144973790Y-89819566D01*
X144954273Y-89823447D01*
X144934756Y-89819566D01*
X144918211Y-89808510D01*
X143716129Y-88606428D01*
X143705073Y-88589883D01*
X143701192Y-88570366D01*
X143705073Y-88550849D01*
X143716129Y-88534304D01*
X144609536Y-87640897D01*
X144909506Y-87340926D01*
X144909509Y-87340923D01*
X144918211Y-87332222D01*
X144934756Y-87321166D01*
X144954273Y-87317285D01*
X144973790Y-87321166D01*
G37*
G36*
X84527935Y-87366476D02*
G01*
X84691280Y-87434135D01*
X84838286Y-87532362D01*
X84963305Y-87657381D01*
X85061532Y-87804387D01*
X85129191Y-87967732D01*
X85163684Y-88141138D01*
X85163684Y-88317942D01*
X85129191Y-88491348D01*
X85061532Y-88654693D01*
X84963305Y-88801699D01*
X84838286Y-88926718D01*
X84691280Y-89024945D01*
X84527935Y-89092604D01*
X84354529Y-89127097D01*
X84177725Y-89127097D01*
X84004319Y-89092604D01*
X83840974Y-89024945D01*
X83693968Y-88926718D01*
X83568949Y-88801699D01*
X83470722Y-88654693D01*
X83403063Y-88491348D01*
X83368570Y-88317942D01*
X83368570Y-88141138D01*
X83403063Y-87967732D01*
X83470722Y-87804387D01*
X83568949Y-87657381D01*
X83693968Y-87532362D01*
X83840974Y-87434135D01*
X84004319Y-87366476D01*
X84177725Y-87331983D01*
X84354529Y-87331983D01*
X84527935Y-87366476D01*
G37*
G36*
X110105648Y-86125448D02*
G01*
X110122193Y-86136504D01*
X111324275Y-87338586D01*
X111335331Y-87355131D01*
X111339212Y-87374648D01*
X111335331Y-87394165D01*
X111324275Y-87410710D01*
X110122193Y-88612792D01*
X110105648Y-88623848D01*
X110086131Y-88627729D01*
X110066614Y-88623848D01*
X110050069Y-88612792D01*
X108847987Y-87410710D01*
X108836931Y-87394165D01*
X108833050Y-87374648D01*
X108836931Y-87355131D01*
X108847987Y-87338586D01*
X109736398Y-86450175D01*
X110041364Y-86145208D01*
X110041367Y-86145205D01*
X110050069Y-86136504D01*
X110066614Y-86125448D01*
X110086131Y-86121567D01*
X110105648Y-86125448D01*
G37*
G36*
X128251248Y-86942130D02*
G01*
X128405375Y-87005971D01*
X128544085Y-87098654D01*
X128662048Y-87216617D01*
X128754731Y-87355327D01*
X128818572Y-87509454D01*
X128851118Y-87673073D01*
X128851118Y-87839899D01*
X128818572Y-88003518D01*
X128754731Y-88157645D01*
X128662048Y-88296355D01*
X128544085Y-88414318D01*
X128405375Y-88507001D01*
X128251248Y-88570842D01*
X128087629Y-88603388D01*
X127920803Y-88603388D01*
X127757184Y-88570842D01*
X127603057Y-88507001D01*
X127464347Y-88414318D01*
X127346384Y-88296355D01*
X127253701Y-88157645D01*
X127189860Y-88003518D01*
X127157314Y-87839899D01*
X127157314Y-87673073D01*
X127189860Y-87509454D01*
X127253701Y-87355327D01*
X127346384Y-87216617D01*
X127464347Y-87098654D01*
X127603057Y-87005971D01*
X127757184Y-86942130D01*
X127920803Y-86909584D01*
X128087629Y-86909584D01*
X128251248Y-86942130D01*
G37*
G36*
X149803863Y-86942130D02*
G01*
X149957990Y-87005971D01*
X150096700Y-87098654D01*
X150214663Y-87216617D01*
X150307346Y-87355327D01*
X150371187Y-87509454D01*
X150403733Y-87673073D01*
X150403733Y-87839899D01*
X150371187Y-88003518D01*
X150307346Y-88157645D01*
X150214663Y-88296355D01*
X150096700Y-88414318D01*
X149957990Y-88507001D01*
X149803863Y-88570842D01*
X149640244Y-88603388D01*
X149473418Y-88603388D01*
X149309799Y-88570842D01*
X149155672Y-88507001D01*
X149016962Y-88414318D01*
X148898999Y-88296355D01*
X148806316Y-88157645D01*
X148742475Y-88003518D01*
X148709929Y-87839899D01*
X148709929Y-87673073D01*
X148742475Y-87509454D01*
X148806316Y-87355327D01*
X148898999Y-87216617D01*
X149016962Y-87098654D01*
X149155672Y-87005971D01*
X149309799Y-86942130D01*
X149473418Y-86909584D01*
X149640244Y-86909584D01*
X149803863Y-86942130D01*
G37*
G36*
X154336046Y-86431363D02*
G01*
X154481117Y-86491453D01*
X154611677Y-86578691D01*
X154722709Y-86689723D01*
X154809947Y-86820283D01*
X154870037Y-86965354D01*
X154900671Y-87119360D01*
X154900671Y-87276384D01*
X154870037Y-87430390D01*
X154809947Y-87575461D01*
X154722709Y-87706021D01*
X154611677Y-87817053D01*
X154481117Y-87904291D01*
X154336046Y-87964381D01*
X154182040Y-87995015D01*
X154025016Y-87995015D01*
X153871010Y-87964381D01*
X153725939Y-87904291D01*
X153595379Y-87817053D01*
X153484347Y-87706021D01*
X153397109Y-87575461D01*
X153337019Y-87430390D01*
X153306385Y-87276384D01*
X153306385Y-87119360D01*
X153337019Y-86965354D01*
X153397109Y-86820283D01*
X153484347Y-86689723D01*
X153595379Y-86578691D01*
X153725939Y-86491453D01*
X153871010Y-86431363D01*
X154025016Y-86400729D01*
X154182040Y-86400729D01*
X154336046Y-86431363D01*
G37*
G36*
X126455197Y-85146078D02*
G01*
X126609324Y-85209919D01*
X126748034Y-85302602D01*
X126865997Y-85420565D01*
X126958680Y-85559275D01*
X127022521Y-85713402D01*
X127055067Y-85877021D01*
X127055067Y-86043847D01*
X127022521Y-86207466D01*
X126958680Y-86361593D01*
X126865997Y-86500303D01*
X126748034Y-86618266D01*
X126609324Y-86710949D01*
X126455197Y-86774790D01*
X126291578Y-86807336D01*
X126124752Y-86807336D01*
X125961133Y-86774790D01*
X125807006Y-86710949D01*
X125668296Y-86618266D01*
X125550333Y-86500303D01*
X125457650Y-86361593D01*
X125393809Y-86207466D01*
X125361263Y-86043847D01*
X125361263Y-85877021D01*
X125393809Y-85713402D01*
X125457650Y-85559275D01*
X125550333Y-85420565D01*
X125668296Y-85302602D01*
X125807006Y-85209919D01*
X125961133Y-85146078D01*
X126124752Y-85113532D01*
X126291578Y-85113532D01*
X126455197Y-85146078D01*
G37*
G36*
X148007812Y-85146078D02*
G01*
X148161939Y-85209919D01*
X148300649Y-85302602D01*
X148418612Y-85420565D01*
X148511295Y-85559275D01*
X148575136Y-85713402D01*
X148607682Y-85877021D01*
X148607682Y-86043847D01*
X148575136Y-86207466D01*
X148511295Y-86361593D01*
X148418612Y-86500303D01*
X148300649Y-86618266D01*
X148161939Y-86710949D01*
X148007812Y-86774790D01*
X147844193Y-86807336D01*
X147677367Y-86807336D01*
X147513748Y-86774790D01*
X147359621Y-86710949D01*
X147220911Y-86618266D01*
X147102948Y-86500303D01*
X147010265Y-86361593D01*
X146946424Y-86207466D01*
X146913878Y-86043847D01*
X146913878Y-85877021D01*
X146946424Y-85713402D01*
X147010265Y-85559275D01*
X147102948Y-85420565D01*
X147220911Y-85302602D01*
X147359621Y-85209919D01*
X147513748Y-85146078D01*
X147677367Y-85113532D01*
X147844193Y-85113532D01*
X148007812Y-85146078D01*
G37*
G36*
X155721232Y-85112843D02*
G01*
X155848191Y-85165431D01*
X155962452Y-85241778D01*
X156059622Y-85338948D01*
X156135969Y-85453209D01*
X156188557Y-85580168D01*
X156215366Y-85714948D01*
X156215366Y-85852368D01*
X156188557Y-85987148D01*
X156135969Y-86114107D01*
X156059622Y-86228368D01*
X155962452Y-86325538D01*
X155848191Y-86401885D01*
X155721232Y-86454473D01*
X155586452Y-86481282D01*
X155449032Y-86481282D01*
X155314252Y-86454473D01*
X155187293Y-86401885D01*
X155073032Y-86325538D01*
X154975862Y-86228368D01*
X154899515Y-86114107D01*
X154846927Y-85987148D01*
X154820118Y-85852368D01*
X154820118Y-85714948D01*
X154846927Y-85580168D01*
X154899515Y-85453209D01*
X154975862Y-85338948D01*
X155073032Y-85241778D01*
X155187293Y-85165431D01*
X155314252Y-85112843D01*
X155449032Y-85086034D01*
X155586452Y-85086034D01*
X155721232Y-85112843D01*
G37*
G36*
X112143728Y-84716394D02*
G01*
X112306910Y-84783986D01*
X112453770Y-84882115D01*
X112578664Y-85007009D01*
X112676793Y-85153869D01*
X112744385Y-85317051D01*
X112778843Y-85490284D01*
X112778843Y-85666910D01*
X112744385Y-85840143D01*
X112676793Y-86003325D01*
X112578664Y-86150185D01*
X112453770Y-86275079D01*
X112306910Y-86373208D01*
X112143728Y-86440800D01*
X111970495Y-86475258D01*
X111793869Y-86475258D01*
X111620636Y-86440800D01*
X111457454Y-86373208D01*
X111310594Y-86275079D01*
X111185700Y-86150185D01*
X111087571Y-86003325D01*
X111019979Y-85840143D01*
X110985521Y-85666910D01*
X110985521Y-85490284D01*
X111019979Y-85317051D01*
X111087571Y-85153869D01*
X111185700Y-85007009D01*
X111310594Y-84882115D01*
X111457454Y-84783986D01*
X111620636Y-84716394D01*
X111793869Y-84681936D01*
X111970495Y-84681936D01*
X112143728Y-84716394D01*
G37*
G36*
X101836939Y-84201620D02*
G01*
X102000121Y-84269212D01*
X102146981Y-84367341D01*
X102271875Y-84492235D01*
X102370004Y-84639095D01*
X102437596Y-84802277D01*
X102472054Y-84975510D01*
X102472054Y-85152136D01*
X102437596Y-85325369D01*
X102370004Y-85488551D01*
X102271875Y-85635411D01*
X102146981Y-85760305D01*
X102000121Y-85858434D01*
X101836939Y-85926026D01*
X101663706Y-85960484D01*
X101487080Y-85960484D01*
X101313847Y-85926026D01*
X101150665Y-85858434D01*
X101003805Y-85760305D01*
X100878911Y-85635411D01*
X100780782Y-85488551D01*
X100713190Y-85325369D01*
X100678732Y-85152136D01*
X100678732Y-84975510D01*
X100713190Y-84802277D01*
X100780782Y-84639095D01*
X100878911Y-84492235D01*
X101003805Y-84367341D01*
X101150665Y-84269212D01*
X101313847Y-84201620D01*
X101487080Y-84167162D01*
X101663706Y-84167162D01*
X101836939Y-84201620D01*
G37*
G36*
X87877746Y-83386966D02*
G01*
X87894291Y-83398021D01*
X89097646Y-84601376D01*
X89108701Y-84617921D01*
X89112583Y-84637438D01*
X89108701Y-84656955D01*
X89097646Y-84673500D01*
X87894291Y-85876855D01*
X87877746Y-85887910D01*
X87858229Y-85891792D01*
X87838712Y-85887910D01*
X87822167Y-85876855D01*
X86618812Y-84673500D01*
X86607757Y-84656955D01*
X86603875Y-84637438D01*
X86607757Y-84617921D01*
X86618812Y-84601376D01*
X87822167Y-83398021D01*
X87838712Y-83386966D01*
X87858229Y-83383084D01*
X87877746Y-83386966D01*
G37*
G36*
X157135446Y-83698629D02*
G01*
X157262405Y-83751217D01*
X157376666Y-83827564D01*
X157473836Y-83924734D01*
X157550183Y-84038995D01*
X157602771Y-84165954D01*
X157629580Y-84300734D01*
X157629580Y-84438154D01*
X157602771Y-84572934D01*
X157550183Y-84699893D01*
X157473836Y-84814154D01*
X157376666Y-84911324D01*
X157262405Y-84987671D01*
X157135446Y-85040259D01*
X157000666Y-85067068D01*
X156863246Y-85067068D01*
X156728466Y-85040259D01*
X156601507Y-84987671D01*
X156487246Y-84911324D01*
X156390076Y-84814154D01*
X156313729Y-84699893D01*
X156261141Y-84572934D01*
X156234332Y-84438154D01*
X156234332Y-84300734D01*
X156261141Y-84165954D01*
X156313729Y-84038995D01*
X156390076Y-83924734D01*
X156487246Y-83827564D01*
X156601507Y-83751217D01*
X156728466Y-83698629D01*
X156863246Y-83671820D01*
X157000666Y-83671820D01*
X157135446Y-83698629D01*
G37*
G36*
X124659146Y-83350027D02*
G01*
X124813273Y-83413868D01*
X124951983Y-83506551D01*
X125069946Y-83624514D01*
X125162629Y-83763224D01*
X125226470Y-83917351D01*
X125259016Y-84080970D01*
X125259016Y-84247796D01*
X125226470Y-84411415D01*
X125162629Y-84565542D01*
X125069946Y-84704252D01*
X124951983Y-84822215D01*
X124813273Y-84914898D01*
X124659146Y-84978739D01*
X124495527Y-85011285D01*
X124328701Y-85011285D01*
X124165082Y-84978739D01*
X124010955Y-84914898D01*
X123872245Y-84822215D01*
X123754282Y-84704252D01*
X123661599Y-84565542D01*
X123597758Y-84411415D01*
X123565212Y-84247796D01*
X123565212Y-84080970D01*
X123597758Y-83917351D01*
X123661599Y-83763224D01*
X123754282Y-83624514D01*
X123872245Y-83506551D01*
X124010955Y-83413868D01*
X124165082Y-83350027D01*
X124328701Y-83317481D01*
X124495527Y-83317481D01*
X124659146Y-83350027D01*
G37*
G36*
X146211761Y-83350027D02*
G01*
X146365888Y-83413868D01*
X146504598Y-83506551D01*
X146622561Y-83624514D01*
X146715244Y-83763224D01*
X146779085Y-83917351D01*
X146811631Y-84080970D01*
X146811631Y-84247796D01*
X146779085Y-84411415D01*
X146715244Y-84565542D01*
X146622561Y-84704252D01*
X146504598Y-84822215D01*
X146365888Y-84914898D01*
X146211761Y-84978739D01*
X146048142Y-85011285D01*
X145881316Y-85011285D01*
X145717697Y-84978739D01*
X145563570Y-84914898D01*
X145424860Y-84822215D01*
X145306897Y-84704252D01*
X145214214Y-84565542D01*
X145150373Y-84411415D01*
X145117827Y-84247796D01*
X145117827Y-84080970D01*
X145150373Y-83917351D01*
X145214214Y-83763224D01*
X145306897Y-83624514D01*
X145424860Y-83506551D01*
X145563570Y-83413868D01*
X145717697Y-83350027D01*
X145881316Y-83317481D01*
X146048142Y-83317481D01*
X146211761Y-83350027D01*
G37*
G36*
X113939779Y-82920343D02*
G01*
X114102961Y-82987935D01*
X114249821Y-83086064D01*
X114374715Y-83210958D01*
X114472844Y-83357818D01*
X114540436Y-83521000D01*
X114574894Y-83694233D01*
X114574894Y-83870859D01*
X114540436Y-84044092D01*
X114472844Y-84207274D01*
X114374715Y-84354134D01*
X114249821Y-84479028D01*
X114102961Y-84577157D01*
X113939779Y-84644749D01*
X113766546Y-84679207D01*
X113589920Y-84679207D01*
X113416687Y-84644749D01*
X113253505Y-84577157D01*
X113106645Y-84479028D01*
X112981751Y-84354134D01*
X112883622Y-84207274D01*
X112816030Y-84044092D01*
X112781572Y-83870859D01*
X112781572Y-83694233D01*
X112816030Y-83521000D01*
X112883622Y-83357818D01*
X112981751Y-83210958D01*
X113106645Y-83086064D01*
X113253505Y-82987935D01*
X113416687Y-82920343D01*
X113589920Y-82885885D01*
X113766546Y-82885885D01*
X113939779Y-82920343D01*
G37*
G36*
X99798859Y-82018572D02*
G01*
X99815404Y-82029628D01*
X101017486Y-83231710D01*
X101028542Y-83248255D01*
X101032423Y-83267772D01*
X101028542Y-83287289D01*
X101017486Y-83303834D01*
X99815404Y-84505916D01*
X99798859Y-84516972D01*
X99779342Y-84520853D01*
X99759825Y-84516972D01*
X99743280Y-84505916D01*
X98541198Y-83303834D01*
X98530142Y-83287289D01*
X98526261Y-83267772D01*
X98530142Y-83248255D01*
X98541198Y-83231710D01*
X99435350Y-82337558D01*
X99734575Y-82038332D01*
X99734578Y-82038329D01*
X99743280Y-82029628D01*
X99759825Y-82018572D01*
X99779342Y-82014691D01*
X99798859Y-82018572D01*
G37*
G36*
X158535144Y-82332263D02*
G01*
X158653048Y-82381100D01*
X158759159Y-82452001D01*
X158849399Y-82542241D01*
X158920300Y-82648352D01*
X158969137Y-82766256D01*
X158994034Y-82891422D01*
X158994034Y-83019040D01*
X158969137Y-83144206D01*
X158920300Y-83262110D01*
X158849399Y-83368221D01*
X158759159Y-83458461D01*
X158653048Y-83529362D01*
X158535144Y-83578199D01*
X158409978Y-83603096D01*
X158282360Y-83603096D01*
X158157194Y-83578199D01*
X158039290Y-83529362D01*
X157933179Y-83458461D01*
X157842939Y-83368221D01*
X157772038Y-83262110D01*
X157723201Y-83144206D01*
X157698304Y-83019040D01*
X157698304Y-82891422D01*
X157723201Y-82766256D01*
X157772038Y-82648352D01*
X157842939Y-82542241D01*
X157933179Y-82452001D01*
X158039290Y-82381100D01*
X158157194Y-82332263D01*
X158282360Y-82307366D01*
X158409978Y-82307366D01*
X158535144Y-82332263D01*
G37*
G36*
X122863095Y-81553976D02*
G01*
X123017222Y-81617817D01*
X123155932Y-81710500D01*
X123273895Y-81828463D01*
X123366578Y-81967173D01*
X123430419Y-82121300D01*
X123462965Y-82284919D01*
X123462965Y-82451745D01*
X123430419Y-82615364D01*
X123366578Y-82769491D01*
X123273895Y-82908201D01*
X123155932Y-83026164D01*
X123017222Y-83118847D01*
X122863095Y-83182688D01*
X122699476Y-83215234D01*
X122532650Y-83215234D01*
X122369031Y-83182688D01*
X122214904Y-83118847D01*
X122076194Y-83026164D01*
X121958231Y-82908201D01*
X121865548Y-82769491D01*
X121801707Y-82615364D01*
X121769161Y-82451745D01*
X121769161Y-82284919D01*
X121801707Y-82121300D01*
X121865548Y-81967173D01*
X121958231Y-81828463D01*
X122076194Y-81710500D01*
X122214904Y-81617817D01*
X122369031Y-81553976D01*
X122532650Y-81521430D01*
X122699476Y-81521430D01*
X122863095Y-81553976D01*
G37*
G36*
X144415709Y-81553976D02*
G01*
X144569836Y-81617817D01*
X144708546Y-81710500D01*
X144826509Y-81828463D01*
X144919192Y-81967173D01*
X144983033Y-82121300D01*
X145015579Y-82284919D01*
X145015579Y-82451745D01*
X144983033Y-82615364D01*
X144919192Y-82769491D01*
X144826509Y-82908201D01*
X144708546Y-83026164D01*
X144569836Y-83118847D01*
X144415709Y-83182688D01*
X144252090Y-83215234D01*
X144085264Y-83215234D01*
X143921645Y-83182688D01*
X143767518Y-83118847D01*
X143628808Y-83026164D01*
X143510845Y-82908201D01*
X143418162Y-82769491D01*
X143354321Y-82615364D01*
X143321775Y-82451745D01*
X143321775Y-82284919D01*
X143354321Y-82121300D01*
X143418162Y-81967173D01*
X143510845Y-81828463D01*
X143628808Y-81710500D01*
X143767518Y-81617817D01*
X143921645Y-81553976D01*
X144085264Y-81521430D01*
X144252090Y-81521430D01*
X144415709Y-81553976D01*
G37*
G36*
X105657423Y-76083908D02*
G01*
X105999206Y-76151893D01*
X106332679Y-76253051D01*
X106654631Y-76386408D01*
X106961962Y-76550680D01*
X107251711Y-76744284D01*
X107521089Y-76965357D01*
X107767500Y-77211768D01*
X107988573Y-77481146D01*
X108182177Y-77770895D01*
X108346449Y-78078226D01*
X108479806Y-78400178D01*
X108580964Y-78733651D01*
X108648949Y-79075434D01*
X108683106Y-79422235D01*
X108683106Y-79770713D01*
X108648949Y-80117514D01*
X108580964Y-80459297D01*
X108479806Y-80792770D01*
X108346449Y-81114722D01*
X108182177Y-81422053D01*
X107988573Y-81711802D01*
X107767500Y-81981180D01*
X107521089Y-82227591D01*
X107251711Y-82448664D01*
X106961962Y-82642268D01*
X106654631Y-82806540D01*
X106332679Y-82939897D01*
X105999206Y-83041055D01*
X105657423Y-83109040D01*
X105310622Y-83143197D01*
X104962144Y-83143197D01*
X104615343Y-83109040D01*
X104273560Y-83041055D01*
X103940087Y-82939897D01*
X103618135Y-82806540D01*
X103310804Y-82642268D01*
X103021055Y-82448664D01*
X102751677Y-82227591D01*
X102505266Y-81981180D01*
X102284193Y-81711802D01*
X102090589Y-81422053D01*
X101926317Y-81114722D01*
X101792960Y-80792770D01*
X101691802Y-80459297D01*
X101623817Y-80117514D01*
X101589660Y-79770713D01*
X101589660Y-79422235D01*
X101623817Y-79075434D01*
X101691802Y-78733651D01*
X101792960Y-78400178D01*
X101926317Y-78078226D01*
X102090589Y-77770895D01*
X102284193Y-77481146D01*
X102505266Y-77211768D01*
X102751677Y-76965357D01*
X103021055Y-76744284D01*
X103310804Y-76550680D01*
X103618135Y-76386408D01*
X103940087Y-76253051D01*
X104273560Y-76151893D01*
X104615343Y-76083908D01*
X104962144Y-76049751D01*
X105310622Y-76049751D01*
X105657423Y-76083908D01*
G37*
G36*
X159992901Y-80774508D02*
G01*
X160137972Y-80834598D01*
X160268532Y-80921836D01*
X160379564Y-81032868D01*
X160466802Y-81163428D01*
X160526892Y-81308499D01*
X160557526Y-81462505D01*
X160557526Y-81619529D01*
X160526892Y-81773535D01*
X160466802Y-81918606D01*
X160379564Y-82049166D01*
X160268532Y-82160198D01*
X160137972Y-82247436D01*
X159992901Y-82307526D01*
X159838895Y-82338160D01*
X159681871Y-82338160D01*
X159527865Y-82307526D01*
X159382794Y-82247436D01*
X159252234Y-82160198D01*
X159141202Y-82049166D01*
X159053964Y-81918606D01*
X158993874Y-81773535D01*
X158963240Y-81619529D01*
X158963240Y-81462505D01*
X158993874Y-81308499D01*
X159053964Y-81163428D01*
X159141202Y-81032868D01*
X159252234Y-80921836D01*
X159382794Y-80834598D01*
X159527865Y-80774508D01*
X159681871Y-80743874D01*
X159838895Y-80743874D01*
X159992901Y-80774508D01*
G37*
G36*
X142619658Y-79757925D02*
G01*
X142773785Y-79821766D01*
X142912495Y-79914449D01*
X143030458Y-80032412D01*
X143123141Y-80171122D01*
X143186982Y-80325249D01*
X143219528Y-80488868D01*
X143219528Y-80655694D01*
X143186982Y-80819313D01*
X143123141Y-80973440D01*
X143030458Y-81112150D01*
X142912495Y-81230113D01*
X142773785Y-81322796D01*
X142619658Y-81386637D01*
X142456039Y-81419183D01*
X142289213Y-81419183D01*
X142125594Y-81386637D01*
X141971467Y-81322796D01*
X141832757Y-81230113D01*
X141714794Y-81112150D01*
X141622111Y-80973440D01*
X141558270Y-80819313D01*
X141525724Y-80655694D01*
X141525724Y-80488868D01*
X141558270Y-80325249D01*
X141622111Y-80171122D01*
X141714794Y-80032412D01*
X141832757Y-79914449D01*
X141971467Y-79821766D01*
X142125594Y-79757925D01*
X142289213Y-79725379D01*
X142456039Y-79725379D01*
X142619658Y-79757925D01*
G37*
G36*
X140823607Y-77961873D02*
G01*
X140977734Y-78025714D01*
X141116444Y-78118397D01*
X141234407Y-78236360D01*
X141327090Y-78375070D01*
X141390931Y-78529197D01*
X141423477Y-78692816D01*
X141423477Y-78859642D01*
X141390931Y-79023261D01*
X141327090Y-79177388D01*
X141234407Y-79316098D01*
X141116444Y-79434061D01*
X140977734Y-79526744D01*
X140823607Y-79590585D01*
X140659988Y-79623131D01*
X140493162Y-79623131D01*
X140329543Y-79590585D01*
X140175416Y-79526744D01*
X140036706Y-79434061D01*
X139918743Y-79316098D01*
X139826060Y-79177388D01*
X139762219Y-79023261D01*
X139729673Y-78859642D01*
X139729673Y-78692816D01*
X139762219Y-78529197D01*
X139826060Y-78375070D01*
X139918743Y-78236360D01*
X140036706Y-78118397D01*
X140175416Y-78025714D01*
X140329543Y-77961873D01*
X140493162Y-77929327D01*
X140659988Y-77929327D01*
X140823607Y-77961873D01*
G37*
G36*
X91996629Y-76266908D02*
G01*
X92013174Y-76277964D01*
X92024230Y-76294509D01*
X92028112Y-76314026D01*
X92028112Y-78014026D01*
X92024230Y-78033543D01*
X92013174Y-78050088D01*
X91996629Y-78061144D01*
X91977112Y-78065026D01*
X90277112Y-78065026D01*
X90257595Y-78061144D01*
X90241050Y-78050088D01*
X90229994Y-78033543D01*
X90226112Y-78014026D01*
X90226112Y-76314026D01*
X90229994Y-76294509D01*
X90241050Y-76277964D01*
X90257595Y-76266908D01*
X90277112Y-76263026D01*
X91977112Y-76263026D01*
X91996629Y-76266908D01*
G37*
G36*
X93928658Y-76301823D02*
G01*
X94091840Y-76369415D01*
X94238700Y-76467544D01*
X94363594Y-76592438D01*
X94461723Y-76739298D01*
X94529315Y-76902480D01*
X94563773Y-77075713D01*
X94563773Y-77252339D01*
X94529315Y-77425572D01*
X94461723Y-77588754D01*
X94363594Y-77735614D01*
X94238700Y-77860508D01*
X94091840Y-77958637D01*
X93928658Y-78026229D01*
X93755425Y-78060687D01*
X93578799Y-78060687D01*
X93405566Y-78026229D01*
X93242384Y-77958637D01*
X93095524Y-77860508D01*
X92970630Y-77735614D01*
X92872501Y-77588754D01*
X92804909Y-77425572D01*
X92770451Y-77252339D01*
X92770451Y-77075713D01*
X92804909Y-76902480D01*
X92872501Y-76739298D01*
X92970630Y-76592438D01*
X93095524Y-76467544D01*
X93242384Y-76369415D01*
X93405566Y-76301823D01*
X93578799Y-76267365D01*
X93755425Y-76267365D01*
X93928658Y-76301823D01*
G37*
G36*
X96468657Y-76301823D02*
G01*
X96631839Y-76369415D01*
X96778699Y-76467544D01*
X96903593Y-76592438D01*
X97001722Y-76739298D01*
X97069314Y-76902480D01*
X97103772Y-77075713D01*
X97103772Y-77252339D01*
X97069314Y-77425572D01*
X97001722Y-77588754D01*
X96903593Y-77735614D01*
X96778699Y-77860508D01*
X96631839Y-77958637D01*
X96468657Y-78026229D01*
X96295424Y-78060687D01*
X96118798Y-78060687D01*
X95945565Y-78026229D01*
X95782383Y-77958637D01*
X95635523Y-77860508D01*
X95510629Y-77735614D01*
X95412500Y-77588754D01*
X95344908Y-77425572D01*
X95310450Y-77252339D01*
X95310450Y-77075713D01*
X95344908Y-76902480D01*
X95412500Y-76739298D01*
X95510629Y-76592438D01*
X95635523Y-76467544D01*
X95782383Y-76369415D01*
X95945565Y-76301823D01*
X96118798Y-76267365D01*
X96295424Y-76267365D01*
X96468657Y-76301823D01*
G37*
G36*
X99008658Y-76301823D02*
G01*
X99171840Y-76369415D01*
X99318700Y-76467544D01*
X99443594Y-76592438D01*
X99541723Y-76739298D01*
X99609315Y-76902480D01*
X99643773Y-77075713D01*
X99643773Y-77252339D01*
X99609315Y-77425572D01*
X99541723Y-77588754D01*
X99443594Y-77735614D01*
X99318700Y-77860508D01*
X99171840Y-77958637D01*
X99008658Y-78026229D01*
X98835425Y-78060687D01*
X98658799Y-78060687D01*
X98485566Y-78026229D01*
X98322384Y-77958637D01*
X98175524Y-77860508D01*
X98050630Y-77735614D01*
X97952501Y-77588754D01*
X97884909Y-77425572D01*
X97850451Y-77252339D01*
X97850451Y-77075713D01*
X97884909Y-76902480D01*
X97952501Y-76739298D01*
X98050630Y-76592438D01*
X98175524Y-76467544D01*
X98322384Y-76369415D01*
X98485566Y-76301823D01*
X98658799Y-76267365D01*
X98835425Y-76267365D01*
X99008658Y-76301823D01*
G37*
G36*
X139027556Y-76165822D02*
G01*
X139181683Y-76229663D01*
X139320393Y-76322346D01*
X139438356Y-76440309D01*
X139531039Y-76579019D01*
X139594880Y-76733146D01*
X139627426Y-76896765D01*
X139627426Y-77063591D01*
X139594880Y-77227210D01*
X139531039Y-77381337D01*
X139438356Y-77520047D01*
X139320393Y-77638010D01*
X139181683Y-77730693D01*
X139027556Y-77794534D01*
X138863937Y-77827080D01*
X138697111Y-77827080D01*
X138533492Y-77794534D01*
X138379365Y-77730693D01*
X138240655Y-77638010D01*
X138122692Y-77520047D01*
X138030009Y-77381337D01*
X137966168Y-77227210D01*
X137933622Y-77063591D01*
X137933622Y-76896765D01*
X137966168Y-76733146D01*
X138030009Y-76579019D01*
X138122692Y-76440309D01*
X138240655Y-76322346D01*
X138379365Y-76229663D01*
X138533492Y-76165822D01*
X138697111Y-76133276D01*
X138863937Y-76133276D01*
X139027556Y-76165822D01*
G37*
G36*
X137231504Y-74369771D02*
G01*
X137385631Y-74433612D01*
X137524341Y-74526295D01*
X137642304Y-74644258D01*
X137734987Y-74782968D01*
X137798828Y-74937095D01*
X137831374Y-75100714D01*
X137831374Y-75267540D01*
X137798828Y-75431159D01*
X137734987Y-75585286D01*
X137642304Y-75723996D01*
X137524341Y-75841959D01*
X137385631Y-75934642D01*
X137231504Y-75998483D01*
X137067885Y-76031029D01*
X136901059Y-76031029D01*
X136737440Y-75998483D01*
X136583313Y-75934642D01*
X136444603Y-75841959D01*
X136326640Y-75723996D01*
X136233957Y-75585286D01*
X136170116Y-75431159D01*
X136137570Y-75267540D01*
X136137570Y-75100714D01*
X136170116Y-74937095D01*
X136233957Y-74782968D01*
X136326640Y-74644258D01*
X136444603Y-74526295D01*
X136583313Y-74433612D01*
X136737440Y-74369771D01*
X136901059Y-74337225D01*
X137067885Y-74337225D01*
X137231504Y-74369771D01*
G37*
G36*
X102607985Y-70477139D02*
G01*
X102886884Y-70540796D01*
X103156902Y-70635279D01*
X103414644Y-70759401D01*
X103656867Y-70911600D01*
X103880527Y-71089963D01*
X104082810Y-71292246D01*
X104261173Y-71515906D01*
X104413372Y-71758129D01*
X104537494Y-72015871D01*
X104631977Y-72285889D01*
X104695634Y-72564788D01*
X104727664Y-72849060D01*
X104727664Y-73135132D01*
X104695634Y-73419404D01*
X104631977Y-73698303D01*
X104537494Y-73968321D01*
X104413372Y-74226063D01*
X104261173Y-74468286D01*
X104082810Y-74691946D01*
X103880527Y-74894229D01*
X103656867Y-75072592D01*
X103414644Y-75224791D01*
X103156902Y-75348913D01*
X102886884Y-75443396D01*
X102607985Y-75507053D01*
X102323713Y-75539083D01*
X102037641Y-75539083D01*
X101753369Y-75507053D01*
X101474470Y-75443396D01*
X101204452Y-75348913D01*
X100946710Y-75224791D01*
X100704487Y-75072592D01*
X100480827Y-74894229D01*
X100278544Y-74691946D01*
X100100181Y-74468286D01*
X99947982Y-74226063D01*
X99823860Y-73968321D01*
X99729377Y-73698303D01*
X99665720Y-73419404D01*
X99633690Y-73135132D01*
X99633690Y-72849060D01*
X99665720Y-72564788D01*
X99729377Y-72285889D01*
X99823860Y-72015871D01*
X99947982Y-71758129D01*
X100100181Y-71515906D01*
X100278544Y-71292246D01*
X100480827Y-71089963D01*
X100704487Y-70911600D01*
X100946710Y-70759401D01*
X101204452Y-70635279D01*
X101474470Y-70540796D01*
X101753369Y-70477139D01*
X102037641Y-70445109D01*
X102323713Y-70445109D01*
X102607985Y-70477139D01*
G37*
G36*
X126722657Y-72690419D02*
G01*
X126739202Y-72701475D01*
X127941284Y-73903557D01*
X127952340Y-73920102D01*
X127956221Y-73939619D01*
X127952340Y-73959136D01*
X127941284Y-73975681D01*
X126739202Y-75177763D01*
X126722657Y-75188819D01*
X126703140Y-75192700D01*
X126683623Y-75188819D01*
X126667078Y-75177763D01*
X125464996Y-73975681D01*
X125453940Y-73959136D01*
X125450059Y-73939619D01*
X125453940Y-73920102D01*
X125464996Y-73903557D01*
X126340238Y-73028315D01*
X126658373Y-72710179D01*
X126658376Y-72710176D01*
X126667078Y-72701475D01*
X126683623Y-72690419D01*
X126703140Y-72686538D01*
X126722657Y-72690419D01*
G37*
G36*
X140036520Y-46796136D02*
G01*
X140047728Y-46796136D01*
X140102926Y-46804878D01*
X140228572Y-46821420D01*
X140259228Y-46829634D01*
X140288112Y-46834209D01*
X140343655Y-46852256D01*
X140424506Y-46873920D01*
X140476093Y-46895288D01*
X140519580Y-46909418D01*
X140560320Y-46930176D01*
X140611909Y-46951545D01*
X140684396Y-46993396D01*
X140736433Y-47019910D01*
X140760093Y-47037099D01*
X140787577Y-47052968D01*
X140888112Y-47130111D01*
X140933332Y-47162965D01*
X140945073Y-47173818D01*
X140950133Y-47177701D01*
X141015135Y-47238583D01*
X141022761Y-47245632D01*
X141741864Y-47964735D01*
X141877563Y-47932159D01*
X141906051Y-47844484D01*
X141998734Y-47662584D01*
X142118730Y-47497423D01*
X142263086Y-47353067D01*
X142428247Y-47233071D01*
X142610147Y-47140388D01*
X142804306Y-47077301D01*
X143005943Y-47045366D01*
X143210093Y-47045366D01*
X143411730Y-47077301D01*
X143605889Y-47140388D01*
X143787789Y-47233071D01*
X143952950Y-47353067D01*
X144027964Y-47422409D01*
X152866798Y-56261243D01*
X152936140Y-56336257D01*
X153056136Y-56501418D01*
X153148819Y-56683318D01*
X153211906Y-56877477D01*
X153243841Y-57079114D01*
X153243841Y-57283264D01*
X153211906Y-57484901D01*
X153148819Y-57679060D01*
X153056136Y-57860960D01*
X152936140Y-58026121D01*
X152791784Y-58170477D01*
X152626623Y-58290473D01*
X152444723Y-58383156D01*
X152357047Y-58411644D01*
X152324469Y-58547340D01*
X153043575Y-59266446D01*
X153050628Y-59274076D01*
X153111505Y-59339073D01*
X153115386Y-59344131D01*
X153126242Y-59355875D01*
X153159099Y-59401100D01*
X153236238Y-59501629D01*
X153252104Y-59529110D01*
X153269297Y-59552774D01*
X153295815Y-59604820D01*
X153337660Y-59677296D01*
X153348706Y-59703965D01*
X153383869Y-59739129D01*
X153410539Y-59750176D01*
X153483027Y-59792027D01*
X153535065Y-59818542D01*
X153558725Y-59835732D01*
X153586209Y-59851600D01*
X153686744Y-59928743D01*
X153731964Y-59961597D01*
X153743705Y-59972450D01*
X153748765Y-59976333D01*
X153813767Y-60037215D01*
X153821393Y-60044264D01*
X154540496Y-60763367D01*
X154676195Y-60730791D01*
X154704683Y-60643116D01*
X154797366Y-60461216D01*
X154917362Y-60296055D01*
X155061718Y-60151699D01*
X155226879Y-60031703D01*
X155408779Y-59939020D01*
X155602938Y-59875933D01*
X155804575Y-59843998D01*
X156008725Y-59843998D01*
X156210362Y-59875933D01*
X156404521Y-59939020D01*
X156586421Y-60031703D01*
X156751582Y-60151699D01*
X156826596Y-60221041D01*
X165665430Y-69059875D01*
X165734772Y-69134889D01*
X165854768Y-69300050D01*
X165947451Y-69481950D01*
X166010538Y-69676109D01*
X166042473Y-69877746D01*
X166042473Y-70081896D01*
X166010538Y-70283533D01*
X165947451Y-70477692D01*
X165854768Y-70659592D01*
X165734772Y-70824753D01*
X165590416Y-70969109D01*
X165425255Y-71089105D01*
X165243355Y-71181788D01*
X165155679Y-71210276D01*
X165123101Y-71345972D01*
X165842207Y-72065078D01*
X165849260Y-72072708D01*
X165910137Y-72137705D01*
X165914018Y-72142763D01*
X165924874Y-72154507D01*
X165957731Y-72199732D01*
X166034870Y-72300261D01*
X166050736Y-72327743D01*
X166067929Y-72351406D01*
X166094446Y-72403448D01*
X166136293Y-72475929D01*
X166157659Y-72527512D01*
X166178421Y-72568259D01*
X166192552Y-72611751D01*
X166213918Y-72663332D01*
X166235578Y-72744170D01*
X166253630Y-72799727D01*
X166258205Y-72828617D01*
X166266418Y-72859266D01*
X166282958Y-72984900D01*
X166291703Y-73040111D01*
X166291703Y-73051319D01*
X166292896Y-73060381D01*
X166292896Y-73263220D01*
X166291703Y-73272281D01*
X166291703Y-73283491D01*
X166282957Y-73338706D01*
X166266418Y-73464335D01*
X166258206Y-73494982D01*
X166253630Y-73523875D01*
X166235576Y-73579436D01*
X166213918Y-73660269D01*
X166192554Y-73711845D01*
X166178421Y-73755343D01*
X166157657Y-73796094D01*
X166136293Y-73847672D01*
X166094450Y-73920144D01*
X166067929Y-73972196D01*
X166050734Y-73995862D01*
X166034870Y-74023340D01*
X165957745Y-74123851D01*
X165924874Y-74169095D01*
X165916943Y-74177025D01*
X165911387Y-74184267D01*
X165767950Y-74327704D01*
X165760708Y-74333260D01*
X165752778Y-74341191D01*
X165707534Y-74374062D01*
X165607023Y-74451187D01*
X165579545Y-74467051D01*
X165555879Y-74484246D01*
X165503827Y-74510767D01*
X165431355Y-74552610D01*
X165379777Y-74573974D01*
X165339026Y-74594738D01*
X165295528Y-74608871D01*
X165243952Y-74630235D01*
X165163119Y-74651893D01*
X165107558Y-74669947D01*
X165078665Y-74674523D01*
X165048018Y-74682735D01*
X164922386Y-74699275D01*
X164867174Y-74708020D01*
X164855965Y-74708020D01*
X164846904Y-74709213D01*
X164644064Y-74709213D01*
X164635003Y-74708020D01*
X164623794Y-74708020D01*
X164568583Y-74699275D01*
X164442949Y-74682735D01*
X164412300Y-74674522D01*
X164383410Y-74669947D01*
X164327853Y-74651895D01*
X164247015Y-74630235D01*
X164195434Y-74608869D01*
X164151942Y-74594738D01*
X164111195Y-74573976D01*
X164059612Y-74552610D01*
X163987131Y-74510763D01*
X163935089Y-74484246D01*
X163911426Y-74467053D01*
X163883944Y-74451187D01*
X163783415Y-74374048D01*
X163738190Y-74341191D01*
X163726446Y-74330335D01*
X163721388Y-74326454D01*
X163656391Y-74265577D01*
X163648761Y-74258524D01*
X162929655Y-73539418D01*
X162793959Y-73571996D01*
X162765471Y-73659672D01*
X162672788Y-73841572D01*
X162552792Y-74006733D01*
X162408436Y-74151089D01*
X162243275Y-74271085D01*
X162061375Y-74363768D01*
X161867216Y-74426855D01*
X161665579Y-74458790D01*
X161461429Y-74458790D01*
X161259792Y-74426855D01*
X161065633Y-74363768D01*
X160883733Y-74271085D01*
X160718572Y-74151089D01*
X160643558Y-74081747D01*
X160641836Y-74080025D01*
X160635383Y-74074060D01*
X160534717Y-74076037D01*
X159444305Y-75166450D01*
X159427760Y-75177506D01*
X159408243Y-75181387D01*
X159388726Y-75177506D01*
X159372181Y-75166450D01*
X158170099Y-73964368D01*
X158159043Y-73947823D01*
X158155162Y-73928306D01*
X158159043Y-73908789D01*
X158170099Y-73892244D01*
X158927222Y-73135121D01*
X159260300Y-72802042D01*
X159260300Y-72698490D01*
X158666106Y-72104296D01*
X158522715Y-72147793D01*
X158508853Y-72217482D01*
X158508853Y-72220568D01*
X158474395Y-72393801D01*
X158406803Y-72556983D01*
X158308674Y-72703843D01*
X158183780Y-72828737D01*
X158036920Y-72926866D01*
X157873738Y-72994458D01*
X157700505Y-73028916D01*
X157523879Y-73028916D01*
X157350646Y-72994458D01*
X157187464Y-72926866D01*
X157040604Y-72828737D01*
X156915710Y-72703843D01*
X156817581Y-72556983D01*
X156749989Y-72393801D01*
X156715531Y-72220568D01*
X156715531Y-72043942D01*
X156749989Y-71870709D01*
X156817581Y-71707527D01*
X156915710Y-71560667D01*
X157040604Y-71435773D01*
X157187464Y-71337644D01*
X157350646Y-71270052D01*
X157523879Y-71235594D01*
X157526954Y-71235594D01*
X157596653Y-71221730D01*
X157640150Y-71078340D01*
X156870055Y-70308245D01*
X156726664Y-70351742D01*
X156712802Y-70421431D01*
X156712802Y-70424517D01*
X156678344Y-70597750D01*
X156610752Y-70760932D01*
X156512623Y-70907792D01*
X156387729Y-71032686D01*
X156240869Y-71130815D01*
X156077687Y-71198407D01*
X155904454Y-71232865D01*
X155727828Y-71232865D01*
X155554595Y-71198407D01*
X155391413Y-71130815D01*
X155244553Y-71032686D01*
X155119659Y-70907792D01*
X155021530Y-70760932D01*
X154953938Y-70597750D01*
X154919480Y-70424517D01*
X154919480Y-70247891D01*
X154953938Y-70074658D01*
X155021530Y-69911476D01*
X155119659Y-69764616D01*
X155244553Y-69639722D01*
X155391413Y-69541593D01*
X155554595Y-69474001D01*
X155727828Y-69439543D01*
X155730903Y-69439543D01*
X155800602Y-69425679D01*
X155844099Y-69282289D01*
X155074003Y-68512193D01*
X154930612Y-68555690D01*
X154916750Y-68625379D01*
X154916750Y-68628465D01*
X154882292Y-68801698D01*
X154814700Y-68964880D01*
X154716571Y-69111740D01*
X154591677Y-69236634D01*
X154444817Y-69334763D01*
X154281635Y-69402355D01*
X154108402Y-69436813D01*
X153931776Y-69436813D01*
X153758543Y-69402355D01*
X153595361Y-69334763D01*
X153448501Y-69236634D01*
X153323607Y-69111740D01*
X153225478Y-68964880D01*
X153157886Y-68801698D01*
X153123428Y-68628465D01*
X153123428Y-68451839D01*
X153157886Y-68278606D01*
X153225478Y-68115424D01*
X153323607Y-67968564D01*
X153448501Y-67843670D01*
X153595361Y-67745541D01*
X153758543Y-67677949D01*
X153931776Y-67643491D01*
X153934851Y-67643491D01*
X154004550Y-67629627D01*
X154048047Y-67486237D01*
X153594570Y-67032760D01*
X157274355Y-67032760D01*
X158853710Y-68612114D01*
X158991844Y-68575100D01*
X158994698Y-68557087D01*
X159012744Y-68501544D01*
X159034409Y-68420692D01*
X159055778Y-68369100D01*
X159069907Y-68325619D01*
X159090663Y-68284882D01*
X159112034Y-68233289D01*
X159153889Y-68160793D01*
X159180399Y-68108766D01*
X159197586Y-68085109D01*
X159213457Y-68057621D01*
X159290614Y-67957067D01*
X159323454Y-67911867D01*
X159331376Y-67903944D01*
X159336940Y-67896694D01*
X159480377Y-67753257D01*
X159487627Y-67747693D01*
X159495550Y-67739771D01*
X159540750Y-67706931D01*
X159641304Y-67629774D01*
X159668792Y-67613903D01*
X159692449Y-67596716D01*
X159744476Y-67570206D01*
X159816972Y-67528351D01*
X159868565Y-67506980D01*
X159909302Y-67486224D01*
X159952783Y-67472095D01*
X160004375Y-67450726D01*
X160085227Y-67429061D01*
X160140770Y-67411015D01*
X160158783Y-67408161D01*
X160195797Y-67270027D01*
X158616443Y-65690672D01*
X158478309Y-65727686D01*
X158475456Y-65745701D01*
X158457397Y-65801277D01*
X158435745Y-65882093D01*
X158414379Y-65933672D01*
X158400247Y-65977169D01*
X158379483Y-66017919D01*
X158358119Y-66069498D01*
X158316276Y-66141970D01*
X158289755Y-66194022D01*
X158272560Y-66217688D01*
X158256696Y-66245166D01*
X158179571Y-66345677D01*
X158146700Y-66390921D01*
X158138769Y-66398851D01*
X158133213Y-66406093D01*
X157989776Y-66549530D01*
X157982534Y-66555086D01*
X157974604Y-66563017D01*
X157929360Y-66595888D01*
X157828849Y-66673013D01*
X157801371Y-66688877D01*
X157777705Y-66706072D01*
X157725653Y-66732593D01*
X157653181Y-66774436D01*
X157601602Y-66795800D01*
X157560852Y-66816564D01*
X157517355Y-66830696D01*
X157465776Y-66852062D01*
X157384960Y-66873714D01*
X157329384Y-66891773D01*
X157311369Y-66894626D01*
X157274355Y-67032760D01*
X153594570Y-67032760D01*
X151806451Y-65244640D01*
X151804724Y-65242913D01*
X151735382Y-65167899D01*
X151615386Y-65002738D01*
X151522703Y-64820838D01*
X151459616Y-64626679D01*
X151427681Y-64425042D01*
X151427681Y-64220892D01*
X151459616Y-64019255D01*
X151522703Y-63825096D01*
X151615386Y-63643196D01*
X151735382Y-63478035D01*
X151879738Y-63333679D01*
X152044899Y-63213683D01*
X152226799Y-63121000D01*
X152314474Y-63092512D01*
X152347050Y-62956813D01*
X151627947Y-62237710D01*
X151620898Y-62230084D01*
X151560016Y-62165082D01*
X151556133Y-62160022D01*
X151545280Y-62148281D01*
X151512426Y-62103061D01*
X151435283Y-62002526D01*
X151419415Y-61975042D01*
X151402225Y-61951382D01*
X151375710Y-61899344D01*
X151333859Y-61826856D01*
X151322812Y-61800186D01*
X151287648Y-61765023D01*
X151260979Y-61753977D01*
X151188503Y-61712132D01*
X151136457Y-61685614D01*
X151112793Y-61668421D01*
X151085312Y-61652555D01*
X150984783Y-61575416D01*
X150939558Y-61542559D01*
X150927814Y-61531703D01*
X150922756Y-61527822D01*
X150857759Y-61466945D01*
X150850129Y-61459892D01*
X150131023Y-60740786D01*
X149995327Y-60773364D01*
X149966839Y-60861040D01*
X149874156Y-61042940D01*
X149754160Y-61208101D01*
X149609804Y-61352457D01*
X149444643Y-61472453D01*
X149262743Y-61565136D01*
X149068584Y-61628223D01*
X148866947Y-61660158D01*
X148662797Y-61660158D01*
X148461160Y-61628223D01*
X148267001Y-61565136D01*
X148085101Y-61472453D01*
X147919940Y-61352457D01*
X147844926Y-61283115D01*
X144399107Y-57837296D01*
X140795938Y-54234128D01*
X144475723Y-54234128D01*
X146055078Y-55813482D01*
X146193212Y-55776468D01*
X146196066Y-55758455D01*
X146214112Y-55702912D01*
X146235777Y-55622060D01*
X146257146Y-55570468D01*
X146271275Y-55526987D01*
X146292031Y-55486250D01*
X146313402Y-55434657D01*
X146355257Y-55362161D01*
X146381767Y-55310134D01*
X146398954Y-55286477D01*
X146414825Y-55258989D01*
X146491982Y-55158435D01*
X146524822Y-55113235D01*
X146532744Y-55105312D01*
X146538308Y-55098062D01*
X146681745Y-54954625D01*
X146688995Y-54949061D01*
X146696918Y-54941139D01*
X146742118Y-54908299D01*
X146842672Y-54831142D01*
X146870160Y-54815271D01*
X146893817Y-54798084D01*
X146945844Y-54771574D01*
X147018340Y-54729719D01*
X147069933Y-54708348D01*
X147110670Y-54687592D01*
X147154151Y-54673463D01*
X147205743Y-54652094D01*
X147286595Y-54630429D01*
X147342138Y-54612383D01*
X147360151Y-54609529D01*
X147397165Y-54471395D01*
X145817811Y-52892040D01*
X145679677Y-52929054D01*
X145676824Y-52947069D01*
X145658765Y-53002645D01*
X145637113Y-53083461D01*
X145615747Y-53135040D01*
X145601615Y-53178537D01*
X145580851Y-53219287D01*
X145559487Y-53270866D01*
X145517644Y-53343338D01*
X145491123Y-53395390D01*
X145473928Y-53419056D01*
X145458064Y-53446534D01*
X145380939Y-53547045D01*
X145348068Y-53592289D01*
X145340137Y-53600219D01*
X145334581Y-53607461D01*
X145191144Y-53750898D01*
X145183902Y-53756454D01*
X145175972Y-53764385D01*
X145130728Y-53797256D01*
X145030217Y-53874381D01*
X145002739Y-53890245D01*
X144979073Y-53907440D01*
X144927021Y-53933961D01*
X144854549Y-53975804D01*
X144802970Y-53997168D01*
X144762220Y-54017932D01*
X144718723Y-54032064D01*
X144667144Y-54053430D01*
X144586328Y-54075082D01*
X144530752Y-54093141D01*
X144512737Y-54095994D01*
X144475723Y-54234128D01*
X140795938Y-54234128D01*
X140705594Y-54143784D01*
X140562203Y-54187281D01*
X140548341Y-54256970D01*
X140548341Y-54260056D01*
X140513883Y-54433289D01*
X140446291Y-54596471D01*
X140348162Y-54743331D01*
X140223268Y-54868225D01*
X140076408Y-54966354D01*
X139913226Y-55033946D01*
X139739993Y-55068404D01*
X139563367Y-55068404D01*
X139390134Y-55033946D01*
X139226952Y-54966354D01*
X139080092Y-54868225D01*
X138955198Y-54743331D01*
X138857069Y-54596471D01*
X138789477Y-54433289D01*
X138755019Y-54260056D01*
X138755019Y-54083430D01*
X138789477Y-53910197D01*
X138857069Y-53747015D01*
X138955198Y-53600155D01*
X139080092Y-53475261D01*
X139226952Y-53377132D01*
X139390134Y-53309540D01*
X139563367Y-53275082D01*
X139566442Y-53275082D01*
X139636141Y-53261218D01*
X139679638Y-53117828D01*
X139007819Y-52446008D01*
X139006092Y-52444281D01*
X138936750Y-52369267D01*
X138936266Y-52368601D01*
X138914511Y-52345066D01*
X138767063Y-52386650D01*
X138752289Y-52460923D01*
X138752289Y-52464004D01*
X138717831Y-52637237D01*
X138650239Y-52800419D01*
X138552110Y-52947279D01*
X138427216Y-53072173D01*
X138280356Y-53170302D01*
X138117174Y-53237894D01*
X137943941Y-53272352D01*
X137767315Y-53272352D01*
X137594082Y-53237894D01*
X137430900Y-53170302D01*
X137284040Y-53072173D01*
X137159146Y-52947279D01*
X137061017Y-52800419D01*
X136993425Y-52637237D01*
X136958967Y-52464004D01*
X136958967Y-52287378D01*
X136993425Y-52114145D01*
X137061017Y-51950963D01*
X137159146Y-51804103D01*
X137284040Y-51679209D01*
X137430900Y-51581080D01*
X137594082Y-51513488D01*
X137767315Y-51479030D01*
X137943941Y-51479030D01*
X138117174Y-51513488D01*
X138280356Y-51581080D01*
X138427216Y-51679209D01*
X138429395Y-51681388D01*
X138497284Y-51726750D01*
X138629434Y-51656114D01*
X138629434Y-51628840D01*
X138629049Y-51626410D01*
X138629049Y-51422260D01*
X138660984Y-51220623D01*
X138724071Y-51026464D01*
X138816754Y-50844564D01*
X138936750Y-50679403D01*
X139081106Y-50535047D01*
X139246267Y-50415051D01*
X139428167Y-50322368D01*
X139515842Y-50293880D01*
X139548418Y-50158181D01*
X138829315Y-49439078D01*
X138822266Y-49431452D01*
X138761384Y-49366450D01*
X138757501Y-49361390D01*
X138746648Y-49349649D01*
X138713794Y-49304429D01*
X138636651Y-49203894D01*
X138620782Y-49176410D01*
X138603593Y-49152750D01*
X138577079Y-49100713D01*
X138535228Y-49028226D01*
X138513859Y-48976637D01*
X138493101Y-48935897D01*
X138478971Y-48892410D01*
X138457603Y-48840823D01*
X138435939Y-48759972D01*
X138417892Y-48704429D01*
X138413317Y-48675545D01*
X138405103Y-48644889D01*
X138388562Y-48519246D01*
X138379819Y-48464045D01*
X138379819Y-48452835D01*
X138378626Y-48443774D01*
X138378626Y-48240935D01*
X138379819Y-48231873D01*
X138379819Y-48220665D01*
X138388561Y-48165468D01*
X138405103Y-48039820D01*
X138413317Y-48009162D01*
X138417892Y-47980281D01*
X138435937Y-47924741D01*
X138457603Y-47843886D01*
X138478972Y-47792294D01*
X138493101Y-47748813D01*
X138513857Y-47708076D01*
X138535228Y-47656483D01*
X138577083Y-47583987D01*
X138603593Y-47531960D01*
X138620780Y-47508303D01*
X138636651Y-47480815D01*
X138713808Y-47380261D01*
X138746648Y-47335061D01*
X138754570Y-47327138D01*
X138760134Y-47319888D01*
X138903571Y-47176451D01*
X138910821Y-47170887D01*
X138918744Y-47162965D01*
X138963944Y-47130125D01*
X139064498Y-47052968D01*
X139091986Y-47037097D01*
X139115643Y-47019910D01*
X139167670Y-46993400D01*
X139240166Y-46951545D01*
X139291759Y-46930174D01*
X139332496Y-46909418D01*
X139375977Y-46895289D01*
X139427569Y-46873920D01*
X139508424Y-46852254D01*
X139563964Y-46834209D01*
X139592845Y-46829634D01*
X139623503Y-46821420D01*
X139749151Y-46804878D01*
X139804348Y-46796136D01*
X139815556Y-46796136D01*
X139824618Y-46794943D01*
X140027458Y-46794943D01*
X140036520Y-46796136D01*
G37*
G36*
X141012762Y-67598626D02*
G01*
X141354545Y-67666611D01*
X141688018Y-67767769D01*
X142009970Y-67901126D01*
X142317301Y-68065398D01*
X142607050Y-68259002D01*
X142876428Y-68480075D01*
X143122839Y-68726486D01*
X143343912Y-68995864D01*
X143537516Y-69285613D01*
X143701788Y-69592944D01*
X143835145Y-69914896D01*
X143936303Y-70248369D01*
X144004288Y-70590152D01*
X144038445Y-70936953D01*
X144038445Y-71285431D01*
X144004288Y-71632232D01*
X143936303Y-71974015D01*
X143835145Y-72307488D01*
X143701788Y-72629440D01*
X143537516Y-72936771D01*
X143343912Y-73226520D01*
X143122839Y-73495898D01*
X142876428Y-73742309D01*
X142607050Y-73963382D01*
X142317301Y-74156986D01*
X142009970Y-74321258D01*
X141688018Y-74454615D01*
X141354545Y-74555773D01*
X141012762Y-74623758D01*
X140665961Y-74657915D01*
X140317483Y-74657915D01*
X139970682Y-74623758D01*
X139628899Y-74555773D01*
X139295426Y-74454615D01*
X138973474Y-74321258D01*
X138666143Y-74156986D01*
X138376394Y-73963382D01*
X138107016Y-73742309D01*
X137860605Y-73495898D01*
X137639532Y-73226520D01*
X137445928Y-72936771D01*
X137281656Y-72629440D01*
X137148299Y-72307488D01*
X137047141Y-71974015D01*
X136979156Y-71632232D01*
X136944999Y-71285431D01*
X136944999Y-70936953D01*
X136979156Y-70590152D01*
X137047141Y-70248369D01*
X137148299Y-69914896D01*
X137281656Y-69592944D01*
X137445928Y-69285613D01*
X137639532Y-68995864D01*
X137860605Y-68726486D01*
X138107016Y-68480075D01*
X138376394Y-68259002D01*
X138666143Y-68065398D01*
X138973474Y-67901126D01*
X139295426Y-67767769D01*
X139628899Y-67666611D01*
X139970682Y-67598626D01*
X140317483Y-67564469D01*
X140665961Y-67564469D01*
X141012762Y-67598626D01*
G37*
G36*
X135435453Y-72573720D02*
G01*
X135589580Y-72637561D01*
X135728290Y-72730244D01*
X135846253Y-72848207D01*
X135938936Y-72986917D01*
X136002777Y-73141044D01*
X136035323Y-73304663D01*
X136035323Y-73471489D01*
X136002777Y-73635108D01*
X135938936Y-73789235D01*
X135846253Y-73927945D01*
X135728290Y-74045908D01*
X135589580Y-74138591D01*
X135435453Y-74202432D01*
X135271834Y-74234978D01*
X135105008Y-74234978D01*
X134941389Y-74202432D01*
X134787262Y-74138591D01*
X134648552Y-74045908D01*
X134530589Y-73927945D01*
X134437906Y-73789235D01*
X134374065Y-73635108D01*
X134341519Y-73471489D01*
X134341519Y-73304663D01*
X134374065Y-73141044D01*
X134437906Y-72986917D01*
X134530589Y-72848207D01*
X134648552Y-72730244D01*
X134787262Y-72637561D01*
X134941389Y-72573720D01*
X135105008Y-72541174D01*
X135271834Y-72541174D01*
X135435453Y-72573720D01*
G37*
G36*
X128760737Y-71281365D02*
G01*
X128923919Y-71348957D01*
X129070779Y-71447086D01*
X129195673Y-71571980D01*
X129293802Y-71718840D01*
X129361394Y-71882022D01*
X129395852Y-72055255D01*
X129395852Y-72231881D01*
X129361394Y-72405114D01*
X129293802Y-72568296D01*
X129195673Y-72715156D01*
X129070779Y-72840050D01*
X128923919Y-72938179D01*
X128760737Y-73005771D01*
X128587504Y-73040229D01*
X128410878Y-73040229D01*
X128237645Y-73005771D01*
X128074463Y-72938179D01*
X127927603Y-72840050D01*
X127802709Y-72715156D01*
X127704580Y-72568296D01*
X127636988Y-72405114D01*
X127602530Y-72231881D01*
X127602530Y-72055255D01*
X127636988Y-71882022D01*
X127704580Y-71718840D01*
X127802709Y-71571980D01*
X127927603Y-71447086D01*
X128074463Y-71348957D01*
X128237645Y-71281365D01*
X128410878Y-71246907D01*
X128587504Y-71246907D01*
X128760737Y-71281365D01*
G37*
G36*
X133639402Y-70777669D02*
G01*
X133793529Y-70841510D01*
X133932239Y-70934193D01*
X134050202Y-71052156D01*
X134142885Y-71190866D01*
X134206726Y-71344993D01*
X134239272Y-71508612D01*
X134239272Y-71675438D01*
X134206726Y-71839057D01*
X134142885Y-71993184D01*
X134050202Y-72131894D01*
X133932239Y-72249857D01*
X133793529Y-72342540D01*
X133639402Y-72406381D01*
X133475783Y-72438927D01*
X133308957Y-72438927D01*
X133145338Y-72406381D01*
X132991211Y-72342540D01*
X132852501Y-72249857D01*
X132734538Y-72131894D01*
X132641855Y-71993184D01*
X132578014Y-71839057D01*
X132545468Y-71675438D01*
X132545468Y-71508612D01*
X132578014Y-71344993D01*
X132641855Y-71190866D01*
X132734538Y-71052156D01*
X132852501Y-70934193D01*
X132991211Y-70841510D01*
X133145338Y-70777669D01*
X133308957Y-70745123D01*
X133475783Y-70745123D01*
X133639402Y-70777669D01*
G37*
G36*
X135039846Y-61820276D02*
G01*
X135203028Y-61887868D01*
X135349888Y-61985997D01*
X135474782Y-62110891D01*
X135572911Y-62257751D01*
X135640503Y-62420933D01*
X135674961Y-62594166D01*
X135674961Y-62770792D01*
X135640503Y-62944025D01*
X135572911Y-63107207D01*
X135474782Y-63254067D01*
X135349888Y-63378961D01*
X135203028Y-63477090D01*
X135039846Y-63544682D01*
X134866613Y-63579140D01*
X134689987Y-63579140D01*
X134516754Y-63544682D01*
X134353572Y-63477090D01*
X134206712Y-63378961D01*
X134081818Y-63254067D01*
X133983689Y-63107207D01*
X133916097Y-62944025D01*
X133881639Y-62770792D01*
X133881639Y-62594166D01*
X133916097Y-62420933D01*
X133983689Y-62257751D01*
X134081818Y-62110891D01*
X134206712Y-61985997D01*
X134353572Y-61887868D01*
X134516754Y-61820276D01*
X134689987Y-61785818D01*
X134866613Y-61785818D01*
X135039846Y-61820276D01*
G37*
G36*
X136835897Y-60024225D02*
G01*
X136999079Y-60091817D01*
X137145939Y-60189946D01*
X137270833Y-60314840D01*
X137368962Y-60461700D01*
X137436554Y-60624882D01*
X137471012Y-60798115D01*
X137471012Y-60974741D01*
X137436554Y-61147974D01*
X137368962Y-61311156D01*
X137270833Y-61458016D01*
X137145939Y-61582910D01*
X136999079Y-61681039D01*
X136835897Y-61748631D01*
X136662664Y-61783089D01*
X136486038Y-61783089D01*
X136312805Y-61748631D01*
X136149623Y-61681039D01*
X136002763Y-61582910D01*
X135877869Y-61458016D01*
X135779740Y-61311156D01*
X135712148Y-61147974D01*
X135677690Y-60974741D01*
X135677690Y-60798115D01*
X135712148Y-60624882D01*
X135779740Y-60461700D01*
X135877869Y-60314840D01*
X136002763Y-60189946D01*
X136149623Y-60091817D01*
X136312805Y-60024225D01*
X136486038Y-59989767D01*
X136662664Y-59989767D01*
X136835897Y-60024225D01*
G37*
G36*
X138389919Y-57841177D02*
G01*
X138406464Y-57852233D01*
X139608546Y-59054315D01*
X139619602Y-59070860D01*
X139623483Y-59090377D01*
X139619602Y-59109894D01*
X139608546Y-59126439D01*
X138406464Y-60328521D01*
X138389919Y-60339577D01*
X138370402Y-60343458D01*
X138350885Y-60339577D01*
X138334340Y-60328521D01*
X137132258Y-59126439D01*
X137121202Y-59109894D01*
X137117321Y-59090377D01*
X137121202Y-59070860D01*
X137132258Y-59054315D01*
X138016388Y-58170185D01*
X138325635Y-57860937D01*
X138325638Y-57860934D01*
X138334340Y-57852233D01*
X138350885Y-57841177D01*
X138370402Y-57837296D01*
X138389919Y-57841177D01*
G37*
G36*
X131113268Y-50628064D02*
G01*
X131455051Y-50696049D01*
X131788524Y-50797207D01*
X132110476Y-50930564D01*
X132417807Y-51094836D01*
X132707556Y-51288440D01*
X132976934Y-51509513D01*
X133223345Y-51755924D01*
X133444418Y-52025302D01*
X133638022Y-52315051D01*
X133802294Y-52622382D01*
X133935651Y-52944334D01*
X134036809Y-53277807D01*
X134104794Y-53619590D01*
X134138951Y-53966391D01*
X134138951Y-54314869D01*
X134104794Y-54661670D01*
X134036809Y-55003453D01*
X133935651Y-55336926D01*
X133802294Y-55658878D01*
X133638022Y-55966209D01*
X133444418Y-56255958D01*
X133223345Y-56525336D01*
X132976934Y-56771747D01*
X132707556Y-56992820D01*
X132417807Y-57186424D01*
X132110476Y-57350696D01*
X131788524Y-57484053D01*
X131455051Y-57585211D01*
X131113268Y-57653196D01*
X130766467Y-57687353D01*
X130417989Y-57687353D01*
X130071188Y-57653196D01*
X129729405Y-57585211D01*
X129395932Y-57484053D01*
X129073980Y-57350696D01*
X128766649Y-57186424D01*
X128476900Y-56992820D01*
X128207522Y-56771747D01*
X127961111Y-56525336D01*
X127740038Y-56255958D01*
X127546434Y-55966209D01*
X127382162Y-55658878D01*
X127248805Y-55336926D01*
X127147647Y-55003453D01*
X127079662Y-54661670D01*
X127045505Y-54314869D01*
X127045505Y-53966391D01*
X127079662Y-53619590D01*
X127147647Y-53277807D01*
X127248805Y-52944334D01*
X127382162Y-52622382D01*
X127546434Y-52315051D01*
X127740038Y-52025302D01*
X127961111Y-51755924D01*
X128207522Y-51509513D01*
X128476900Y-51288440D01*
X128766649Y-51094836D01*
X129073980Y-50930564D01*
X129395932Y-50797207D01*
X129729405Y-50696049D01*
X130071188Y-50628064D01*
X130417989Y-50593907D01*
X130766467Y-50593907D01*
X131113268Y-50628064D01*
G37*
G36*
X124443442Y-48669966D02*
G01*
X124722341Y-48733623D01*
X124992359Y-48828106D01*
X125250101Y-48952228D01*
X125492324Y-49104427D01*
X125715984Y-49282790D01*
X125918267Y-49485073D01*
X126096630Y-49708733D01*
X126248829Y-49950956D01*
X126372951Y-50208698D01*
X126467434Y-50478716D01*
X126531091Y-50757615D01*
X126563121Y-51041887D01*
X126563121Y-51327959D01*
X126531091Y-51612231D01*
X126467434Y-51891130D01*
X126372951Y-52161148D01*
X126248829Y-52418890D01*
X126096630Y-52661113D01*
X125918267Y-52884773D01*
X125715984Y-53087056D01*
X125492324Y-53265419D01*
X125250101Y-53417618D01*
X124992359Y-53541740D01*
X124722341Y-53636223D01*
X124443442Y-53699880D01*
X124159170Y-53731910D01*
X123873098Y-53731910D01*
X123588826Y-53699880D01*
X123309927Y-53636223D01*
X123039909Y-53541740D01*
X122782167Y-53417618D01*
X122539944Y-53265419D01*
X122316284Y-53087056D01*
X122114001Y-52884773D01*
X121935638Y-52661113D01*
X121783439Y-52418890D01*
X121659317Y-52161148D01*
X121564834Y-51891130D01*
X121501177Y-51612231D01*
X121469147Y-51327959D01*
X121469147Y-51041887D01*
X121501177Y-50757615D01*
X121564834Y-50478716D01*
X121659317Y-50208698D01*
X121783439Y-49950956D01*
X121935638Y-49708733D01*
X122114001Y-49485073D01*
X122316284Y-49282790D01*
X122539944Y-49104427D01*
X122782167Y-48952228D01*
X123039909Y-48828106D01*
X123309927Y-48733623D01*
X123588826Y-48669966D01*
X123873098Y-48637936D01*
X124159170Y-48637936D01*
X124443442Y-48669966D01*
G37*
G36*
X136321123Y-49717437D02*
G01*
X136484305Y-49785029D01*
X136631165Y-49883158D01*
X136756059Y-50008052D01*
X136854188Y-50154912D01*
X136921780Y-50318094D01*
X136956238Y-50491327D01*
X136956238Y-50667953D01*
X136921780Y-50841186D01*
X136854188Y-51004368D01*
X136756059Y-51151228D01*
X136631165Y-51276122D01*
X136484305Y-51374251D01*
X136321123Y-51441843D01*
X136147890Y-51476301D01*
X135971264Y-51476301D01*
X135798031Y-51441843D01*
X135634849Y-51374251D01*
X135487989Y-51276122D01*
X135363095Y-51151228D01*
X135264966Y-51004368D01*
X135197374Y-50841186D01*
X135162916Y-50667953D01*
X135162916Y-50491327D01*
X135197374Y-50318094D01*
X135264966Y-50154912D01*
X135363095Y-50008052D01*
X135487989Y-49883158D01*
X135634849Y-49785029D01*
X135798031Y-49717437D01*
X135971264Y-49682979D01*
X136147890Y-49682979D01*
X136321123Y-49717437D01*
G37*
G36*
X134283043Y-47534389D02*
G01*
X134299588Y-47545445D01*
X135501670Y-48747527D01*
X135512726Y-48764072D01*
X135516607Y-48783589D01*
X135512726Y-48803106D01*
X135501670Y-48819651D01*
X134299588Y-50021733D01*
X134283043Y-50032789D01*
X134263526Y-50036670D01*
X134244009Y-50032789D01*
X134227464Y-50021733D01*
X133025382Y-48819651D01*
X133014326Y-48803106D01*
X133010445Y-48783589D01*
X133014326Y-48764072D01*
X133025382Y-48747527D01*
X133840854Y-47932055D01*
X134218759Y-47554149D01*
X134218762Y-47554146D01*
X134227464Y-47545445D01*
X134244009Y-47534389D01*
X134263526Y-47530508D01*
X134283043Y-47534389D01*
G37*
G36*
X128421326Y-46897712D02*
G01*
X128584508Y-46965304D01*
X128731368Y-47063433D01*
X128856262Y-47188327D01*
X128954391Y-47335187D01*
X129021983Y-47498369D01*
X129056441Y-47671602D01*
X129056441Y-47848228D01*
X129021983Y-48021461D01*
X128954391Y-48184643D01*
X128856262Y-48331503D01*
X128731368Y-48456397D01*
X128584508Y-48554526D01*
X128421326Y-48622118D01*
X128248093Y-48656576D01*
X128071467Y-48656576D01*
X127898234Y-48622118D01*
X127735052Y-48554526D01*
X127588192Y-48456397D01*
X127463298Y-48331503D01*
X127365169Y-48184643D01*
X127297577Y-48021461D01*
X127263119Y-47848228D01*
X127263119Y-47671602D01*
X127297577Y-47498369D01*
X127365169Y-47335187D01*
X127463298Y-47188327D01*
X127588192Y-47063433D01*
X127735052Y-46965304D01*
X127898234Y-46897712D01*
X128071467Y-46863254D01*
X128248093Y-46863254D01*
X128421326Y-46897712D01*
G37*
G36*
X128421326Y-44357711D02*
G01*
X128584508Y-44425303D01*
X128731368Y-44523432D01*
X128856262Y-44648326D01*
X128954391Y-44795186D01*
X129021983Y-44958368D01*
X129056441Y-45131601D01*
X129056441Y-45308227D01*
X129021983Y-45481460D01*
X128954391Y-45644642D01*
X128856262Y-45791502D01*
X128731368Y-45916396D01*
X128584508Y-46014525D01*
X128421326Y-46082117D01*
X128248093Y-46116575D01*
X128071467Y-46116575D01*
X127898234Y-46082117D01*
X127735052Y-46014525D01*
X127588192Y-45916396D01*
X127463298Y-45791502D01*
X127365169Y-45644642D01*
X127297577Y-45481460D01*
X127263119Y-45308227D01*
X127263119Y-45131601D01*
X127297577Y-44958368D01*
X127365169Y-44795186D01*
X127463298Y-44648326D01*
X127588192Y-44523432D01*
X127735052Y-44425303D01*
X127898234Y-44357711D01*
X128071467Y-44323253D01*
X128248093Y-44323253D01*
X128421326Y-44357711D01*
G37*
G36*
X128421326Y-41817712D02*
G01*
X128584508Y-41885304D01*
X128731368Y-41983433D01*
X128856262Y-42108327D01*
X128954391Y-42255187D01*
X129021983Y-42418369D01*
X129056441Y-42591602D01*
X129056441Y-42768228D01*
X129021983Y-42941461D01*
X128954391Y-43104643D01*
X128856262Y-43251503D01*
X128731368Y-43376397D01*
X128584508Y-43474526D01*
X128421326Y-43542118D01*
X128248093Y-43576576D01*
X128071467Y-43576576D01*
X127898234Y-43542118D01*
X127735052Y-43474526D01*
X127588192Y-43376397D01*
X127463298Y-43251503D01*
X127365169Y-43104643D01*
X127297577Y-42941461D01*
X127263119Y-42768228D01*
X127263119Y-42591602D01*
X127297577Y-42418369D01*
X127365169Y-42255187D01*
X127463298Y-42108327D01*
X127588192Y-41983433D01*
X127735052Y-41885304D01*
X127898234Y-41817712D01*
X128071467Y-41783254D01*
X128248093Y-41783254D01*
X128421326Y-41817712D01*
G37*
G36*
X129029297Y-39242797D02*
G01*
X129045842Y-39253853D01*
X129056898Y-39270398D01*
X129060780Y-39289915D01*
X129060780Y-40989915D01*
X129056898Y-41009432D01*
X129045842Y-41025977D01*
X129029297Y-41037033D01*
X129009780Y-41040915D01*
X127309780Y-41040915D01*
X127290263Y-41037033D01*
X127273718Y-41025977D01*
X127262662Y-41009432D01*
X127258780Y-40989915D01*
X127258780Y-39289915D01*
X127262662Y-39270398D01*
X127273718Y-39253853D01*
X127290263Y-39242797D01*
X127309780Y-39238915D01*
X129009780Y-39238915D01*
X129029297Y-39242797D01*
G37*
G36*
X135630081Y-35634631D02*
G01*
X135646626Y-35645686D01*
X136849981Y-36849041D01*
X136861036Y-36865586D01*
X136864918Y-36885103D01*
X136861036Y-36904620D01*
X136849981Y-36921165D01*
X135646626Y-38124520D01*
X135630081Y-38135575D01*
X135610564Y-38139457D01*
X135591047Y-38135575D01*
X135574502Y-38124520D01*
X134371147Y-36921165D01*
X134360092Y-36904620D01*
X134356210Y-36885103D01*
X134360092Y-36865586D01*
X134371147Y-36849041D01*
X135574502Y-35645686D01*
X135591047Y-35634631D01*
X135610564Y-35630749D01*
X135630081Y-35634631D01*
G37*
G36*
X142455919Y-34078202D02*
G01*
X142463828Y-34080321D01*
X142463833Y-34080322D01*
X142574085Y-34109864D01*
X142574089Y-34109865D01*
X142581998Y-34111985D01*
X142595504Y-34117580D01*
X142602595Y-34121674D01*
X142602597Y-34121675D01*
X142701446Y-34178746D01*
X142701448Y-34178747D01*
X142708543Y-34182844D01*
X142720141Y-34191743D01*
X142725934Y-34197536D01*
X142753380Y-34224981D01*
X142765279Y-34233194D01*
X142769314Y-34234866D01*
X143122867Y-34588419D01*
X143127143Y-34598744D01*
X143148941Y-34620543D01*
X143165990Y-34637592D01*
X143174889Y-34649190D01*
X143240153Y-34762229D01*
X143245748Y-34775735D01*
X143279531Y-34901814D01*
X143281439Y-34916308D01*
X143281439Y-35046834D01*
X143279531Y-35061328D01*
X143245748Y-35187406D01*
X143240153Y-35200912D01*
X143174889Y-35313951D01*
X143165990Y-35325549D01*
X143160194Y-35331344D01*
X143160194Y-35331345D01*
X143132750Y-35358789D01*
X143124537Y-35370687D01*
X143122867Y-35374722D01*
X142733958Y-35763631D01*
X142711650Y-35772871D01*
X142709907Y-35773925D01*
X142708969Y-35773981D01*
X142694360Y-35780033D01*
X142683474Y-35775524D01*
X142672236Y-35776204D01*
X142630456Y-35795006D01*
X142590134Y-35835329D01*
X142572652Y-35868036D01*
X142567358Y-35894650D01*
X142568583Y-35900810D01*
X142564702Y-35920327D01*
X142553646Y-35936872D01*
X141846539Y-36643979D01*
X141829994Y-36655035D01*
X141810477Y-36658916D01*
X141804318Y-36657691D01*
X141777703Y-36662985D01*
X141744996Y-36680467D01*
X141702842Y-36722620D01*
X141684271Y-36771587D01*
X141689700Y-36784693D01*
X141673298Y-36824291D01*
X141284389Y-37213200D01*
X141274062Y-37217476D01*
X141241012Y-37250527D01*
X141235216Y-37256323D01*
X141223618Y-37265222D01*
X141110579Y-37330486D01*
X141097073Y-37336081D01*
X140970995Y-37369864D01*
X140956501Y-37371772D01*
X140948311Y-37371772D01*
X140834170Y-37371772D01*
X140825975Y-37371772D01*
X140811481Y-37369864D01*
X140685402Y-37336081D01*
X140671896Y-37330486D01*
X140558857Y-37265222D01*
X140547259Y-37256323D01*
X140541463Y-37250527D01*
X140514018Y-37223083D01*
X140502120Y-37214870D01*
X140498086Y-37213200D01*
X140144533Y-36859647D01*
X140140255Y-36849320D01*
X140107203Y-36816267D01*
X140101410Y-36810474D01*
X140092511Y-36798876D01*
X140077455Y-36772800D01*
X140031342Y-36692930D01*
X140031341Y-36692928D01*
X140027247Y-36685837D01*
X140021652Y-36672331D01*
X140019532Y-36664422D01*
X140019531Y-36664418D01*
X139989989Y-36554166D01*
X139989988Y-36554161D01*
X139987869Y-36546252D01*
X139985961Y-36531758D01*
X139985961Y-36401232D01*
X139987869Y-36386738D01*
X140021652Y-36260660D01*
X140027247Y-36247154D01*
X140031341Y-36240062D01*
X140031344Y-36240056D01*
X140088413Y-36141211D01*
X140088417Y-36141205D01*
X140092511Y-36134115D01*
X140101410Y-36122517D01*
X140107196Y-36116730D01*
X140107206Y-36116718D01*
X140134648Y-36089277D01*
X140142862Y-36077377D01*
X140144533Y-36073344D01*
X140147761Y-36070115D01*
X140147762Y-36070114D01*
X140522710Y-35695166D01*
X140522712Y-35695164D01*
X140533442Y-35684435D01*
X140555739Y-35675199D01*
X140557493Y-35674139D01*
X140558436Y-35674081D01*
X140573040Y-35668033D01*
X140583922Y-35672540D01*
X140595166Y-35671861D01*
X140636943Y-35653058D01*
X140677265Y-35612736D01*
X140694746Y-35580031D01*
X140700040Y-35553409D01*
X140698817Y-35547256D01*
X140702698Y-35527739D01*
X140713754Y-35511194D01*
X141186305Y-35038643D01*
X141412156Y-34812791D01*
X141412159Y-34812788D01*
X141420861Y-34804087D01*
X141437406Y-34793031D01*
X141456923Y-34789150D01*
X141463077Y-34790373D01*
X141489698Y-34785079D01*
X141522403Y-34767598D01*
X141564556Y-34725446D01*
X141583127Y-34676477D01*
X141577700Y-34663373D01*
X141594102Y-34623775D01*
X141597332Y-34620544D01*
X141597333Y-34620543D01*
X141972281Y-34245595D01*
X141972283Y-34245593D01*
X141983011Y-34234866D01*
X141993336Y-34230588D01*
X142026385Y-34197539D01*
X142026397Y-34197529D01*
X142032184Y-34191743D01*
X142043782Y-34182844D01*
X142050872Y-34178750D01*
X142050878Y-34178746D01*
X142149723Y-34121677D01*
X142149729Y-34121674D01*
X142156821Y-34117580D01*
X142170327Y-34111985D01*
X142296405Y-34078202D01*
X142310899Y-34076294D01*
X142441425Y-34076294D01*
X142455919Y-34078202D01*
G37*
G36*
X139464474Y-32429937D02*
G01*
X139627819Y-32497596D01*
X139774825Y-32595823D01*
X139899844Y-32720842D01*
X139998071Y-32867848D01*
X140065730Y-33031193D01*
X140100223Y-33204599D01*
X140100223Y-33381403D01*
X140065730Y-33554809D01*
X139998071Y-33718154D01*
X139899844Y-33865160D01*
X139774825Y-33990179D01*
X139627819Y-34088406D01*
X139464474Y-34156065D01*
X139291068Y-34190558D01*
X139114264Y-34190558D01*
X138940858Y-34156065D01*
X138777513Y-34088406D01*
X138630507Y-33990179D01*
X138505488Y-33865160D01*
X138407261Y-33718154D01*
X138339602Y-33554809D01*
X138305109Y-33381403D01*
X138305109Y-33204599D01*
X138339602Y-33031193D01*
X138407261Y-32867848D01*
X138505488Y-32720842D01*
X138630507Y-32595823D01*
X138777513Y-32497596D01*
X138940858Y-32429937D01*
X139114264Y-32395444D01*
X139291068Y-32395444D01*
X139464474Y-32429937D01*
G37*
G36*
X143056577Y-28837834D02*
G01*
X143219922Y-28905493D01*
X143366928Y-29003720D01*
X143491947Y-29128739D01*
X143590174Y-29275745D01*
X143657833Y-29439090D01*
X143692326Y-29612496D01*
X143692326Y-29789300D01*
X143657833Y-29962706D01*
X143590174Y-30126051D01*
X143491947Y-30273057D01*
X143366928Y-30398076D01*
X143219922Y-30496303D01*
X143056577Y-30563962D01*
X142883171Y-30598455D01*
X142706367Y-30598455D01*
X142532961Y-30563962D01*
X142369616Y-30496303D01*
X142222610Y-30398076D01*
X142097591Y-30273057D01*
X141999364Y-30126051D01*
X141931705Y-29962706D01*
X141897212Y-29789300D01*
X141897212Y-29612496D01*
X141931705Y-29439090D01*
X141999364Y-29275745D01*
X142097591Y-29128739D01*
X142222610Y-29003720D01*
X142369616Y-28905493D01*
X142532961Y-28837834D01*
X142706367Y-28803341D01*
X142883171Y-28803341D01*
X143056577Y-28837834D01*
G37*
M02*
