G04 #@! TF.GenerationSoftware,KiCad,Pcbnew,9.0.2*
G04 #@! TF.CreationDate,2026-05-03T18:20:34-04:00*
G04 #@! TF.ProjectId,Trackball,54726163-6b62-4616-9c6c-2e6b69636164,rev?*
G04 #@! TF.SameCoordinates,Original*
G04 #@! TF.FileFunction,Profile,NP*
%FSLAX46Y46*%
G04 Gerber Fmt 4.6, Leading zero omitted, Abs format (unit mm)*
G04 Created by KiCad (PCBNEW 9.0.2) date 2026-05-03 18:20:34*
%MOMM*%
%LPD*%
G01*
G04 APERTURE LIST*
G04 #@! TA.AperFunction,Profile*
%ADD10C,0.050000*%
G04 #@! TD*
G04 APERTURE END LIST*
D10*
X109900000Y-128100000D02*
X116675000Y-128100000D01*
X104900001Y-110171534D02*
X104900000Y-123100000D01*
X144174999Y-51599898D02*
X143174999Y-51599898D01*
X122681712Y-53600000D02*
X126224999Y-53599898D01*
X169099941Y-106315977D02*
G75*
G02*
X164403621Y-109600020I-4696341J1715977D01*
G01*
X126224999Y-51599898D02*
G75*
G02*
X126224999Y-53599902I1J-1000002D01*
G01*
X143879017Y-113100000D02*
G75*
G02*
X143379000Y-112600000I-17J500000D01*
G01*
X121675000Y-110600000D02*
G75*
G02*
X122675000Y-109600000I1000000J0D01*
G01*
X156675000Y-51599898D02*
X157675000Y-51599898D01*
X139429018Y-111600000D02*
X140429018Y-111600000D01*
X125429017Y-112100000D02*
G75*
G02*
X125929017Y-111600017I499983J0D01*
G01*
X169269998Y-105850001D02*
X169227464Y-105966970D01*
X125224999Y-51599898D02*
G75*
G02*
X124725002Y-51099898I1J499998D01*
G01*
X157675000Y-50099898D02*
G75*
G02*
X158175002Y-50599898I0J-500002D01*
G01*
X126929017Y-109600000D02*
G75*
G02*
X126929017Y-111600000I-17J-1000000D01*
G01*
X143379017Y-112100000D02*
G75*
G02*
X143879017Y-111600017I499983J0D01*
G01*
X109900000Y-35100000D02*
X116675000Y-35100000D01*
X144879017Y-111600000D02*
X143879017Y-111600000D01*
X126929017Y-111600000D02*
X125929017Y-111600000D01*
X104900000Y-40100000D02*
G75*
G02*
X109900000Y-35100000I5000000J0D01*
G01*
X104900000Y-53028465D02*
X104900000Y-40100000D01*
X138725000Y-51599898D02*
X139725000Y-51599898D01*
X129400000Y-94850000D02*
X117651845Y-94849999D01*
X169148425Y-57183137D02*
X169010678Y-56821259D01*
X143174999Y-51599898D02*
G75*
G02*
X142675002Y-51099898I1J499998D01*
G01*
X157675000Y-50099898D02*
X143175001Y-50099898D01*
X164403621Y-109600000D02*
X157379018Y-109600000D01*
X138725000Y-53599898D02*
X144174999Y-53599898D01*
X121681712Y-52595102D02*
X121675000Y-40100000D01*
X124724999Y-50599898D02*
X124724999Y-51099897D01*
X115068348Y-67630835D02*
X112154876Y-65874206D01*
X158379018Y-113100000D02*
X143879019Y-113100000D01*
X156675000Y-53599898D02*
G75*
G02*
X156675000Y-51599902I0J999998D01*
G01*
X158879018Y-112600000D02*
G75*
G02*
X158379018Y-113100018I-500018J0D01*
G01*
X115068348Y-95569165D02*
G75*
G02*
X117651845Y-94849991I2583652J-4281335D01*
G01*
X169270000Y-57504106D02*
G75*
G02*
X169269998Y-105850001I-69935740J-24172944D01*
G01*
X140429018Y-113100000D02*
X125929019Y-113100000D01*
X143379017Y-112600000D02*
X143379017Y-112100001D01*
X122681712Y-53600000D02*
G75*
G02*
X121681700Y-52600000I-12J1000000D01*
G01*
X109900000Y-128100000D02*
G75*
G02*
X104900000Y-123100000I0J5000000D01*
G01*
X158379018Y-111600000D02*
G75*
G02*
X158879000Y-112100000I-18J-500000D01*
G01*
X140929018Y-112600000D02*
X140929018Y-112100000D01*
X139725000Y-50099898D02*
X125225001Y-50099898D01*
X129400000Y-68350000D02*
X117651845Y-68350001D01*
X142674999Y-50599898D02*
X142674999Y-51099897D01*
X140429018Y-111600000D02*
G75*
G02*
X140929000Y-112100000I-18J-500000D01*
G01*
X104900001Y-110171534D02*
G75*
G02*
X112154875Y-97325793I14999889J64D01*
G01*
X129400000Y-68350000D02*
G75*
G02*
X130400000Y-69350000I0J-1000000D01*
G01*
X126224999Y-51599898D02*
X125224999Y-51599898D01*
X122675000Y-109600000D02*
X126925000Y-109600000D01*
X157379018Y-111600000D02*
G75*
G02*
X157379018Y-109600000I-18J1000000D01*
G01*
X158175000Y-50599898D02*
X158175000Y-51099898D01*
X125929017Y-113100000D02*
G75*
G02*
X125429000Y-112600000I-17J500000D01*
G01*
X130400000Y-69350000D02*
X130400000Y-93850000D01*
X144879017Y-109600000D02*
G75*
G02*
X144879017Y-111600000I-17J-1000000D01*
G01*
X130400000Y-93850000D02*
G75*
G02*
X129400000Y-94850000I-1000000J0D01*
G01*
X158879018Y-112600000D02*
X158879018Y-112100000D01*
X158175000Y-51099898D02*
G75*
G02*
X157675000Y-51599900I-500000J-2D01*
G01*
X140929018Y-112600000D02*
G75*
G02*
X140429018Y-113100018I-500018J0D01*
G01*
X169227464Y-105966970D02*
X169099941Y-106315977D01*
X139429018Y-111600000D02*
G75*
G02*
X139429018Y-109600000I-18J1000000D01*
G01*
X164337822Y-53599988D02*
G75*
G02*
X169010716Y-56821244I-22J-5000012D01*
G01*
X169270000Y-57504106D02*
X169148425Y-57183137D01*
X144174999Y-51599898D02*
G75*
G02*
X144174999Y-53599902I1J-1000002D01*
G01*
X142674999Y-50599898D02*
G75*
G02*
X143174999Y-50099899I500001J-2D01*
G01*
X121675000Y-110600000D02*
X121675000Y-123100000D01*
X140225000Y-51099898D02*
G75*
G02*
X139725000Y-51599900I-500000J-2D01*
G01*
X115068348Y-95569165D02*
X112154876Y-97325794D01*
X117651845Y-68350001D02*
G75*
G02*
X115068340Y-67630848I55J5000301D01*
G01*
X164337822Y-53599988D02*
X156675000Y-53599898D01*
X124724999Y-50599898D02*
G75*
G02*
X125224999Y-50099899I500001J-2D01*
G01*
X112154876Y-65874206D02*
G75*
G02*
X104900030Y-53028465I7745124J12845706D01*
G01*
X139725000Y-50099898D02*
G75*
G02*
X140225002Y-50599898I0J-500002D01*
G01*
X125429017Y-112595877D02*
X125429017Y-112100000D01*
X138725000Y-53599898D02*
G75*
G02*
X138725000Y-51599902I0J999998D01*
G01*
X116675000Y-35100000D02*
G75*
G02*
X121675000Y-40100000I0J-5000000D01*
G01*
X157379018Y-111600000D02*
X158379018Y-111600000D01*
X121675000Y-123100000D02*
G75*
G02*
X116675000Y-128100000I-5000000J0D01*
G01*
X140225000Y-50599898D02*
X140225000Y-51099898D01*
X139429018Y-109600000D02*
X144879017Y-109600000D01*
M02*
