G04 #@! TF.GenerationSoftware,KiCad,Pcbnew,9.0.2*
G04 #@! TF.CreationDate,2025-10-10T20:31:06-04:00*
G04 #@! TF.ProjectId,Trackball,54726163-6b62-4616-9c6c-2e6b69636164,rev?*
G04 #@! TF.SameCoordinates,Original*
G04 #@! TF.FileFunction,Copper,L1,Top*
G04 #@! TF.FilePolarity,Positive*
%FSLAX46Y46*%
G04 Gerber Fmt 4.6, Leading zero omitted, Abs format (unit mm)*
G04 Created by KiCad (PCBNEW 9.0.2) date 2025-10-10 20:31:06*
%MOMM*%
%LPD*%
G01*
G04 APERTURE LIST*
G04 Aperture macros list*
%AMRotRect*
0 Rectangle, with rotation*
0 The origin of the aperture is its center*
0 $1 length*
0 $2 width*
0 $3 Rotation angle, in degrees counterclockwise*
0 Add horizontal line*
21,1,$1,$2,0,0,$3*%
G04 Aperture macros list end*
G04 #@! TA.AperFunction,ComponentPad*
%ADD10R,1.701800X1.701800*%
G04 #@! TD*
G04 #@! TA.AperFunction,ComponentPad*
%ADD11C,1.701800*%
G04 #@! TD*
G04 #@! TA.AperFunction,ComponentPad*
%ADD12R,1.700000X1.700000*%
G04 #@! TD*
G04 #@! TA.AperFunction,ComponentPad*
%ADD13C,1.700000*%
G04 #@! TD*
G04 #@! TA.AperFunction,ComponentPad*
%ADD14C,7.000000*%
G04 #@! TD*
G04 #@! TA.AperFunction,SMDPad,CuDef*
%ADD15R,1.000000X2.800000*%
G04 #@! TD*
G04 #@! TA.AperFunction,ComponentPad*
%ADD16R,1.600000X1.600000*%
G04 #@! TD*
G04 #@! TA.AperFunction,ComponentPad*
%ADD17C,1.600000*%
G04 #@! TD*
G04 #@! TA.AperFunction,ComponentPad*
%ADD18C,5.000000*%
G04 #@! TD*
G04 #@! TA.AperFunction,ComponentPad*
%ADD19RotRect,1.700000X1.700000X315.000000*%
G04 #@! TD*
G04 #@! TA.AperFunction,ComponentPad*
%ADD20C,1.300000*%
G04 #@! TD*
G04 #@! TA.AperFunction,ComponentPad*
%ADD21C,1.200000*%
G04 #@! TD*
G04 #@! TA.AperFunction,ComponentPad*
%ADD22C,1.500000*%
G04 #@! TD*
G04 #@! TA.AperFunction,ComponentPad*
%ADD23RotRect,1.700000X1.700000X225.000000*%
G04 #@! TD*
G04 #@! TA.AperFunction,ViaPad*
%ADD24C,0.800000*%
G04 #@! TD*
G04 #@! TA.AperFunction,Conductor*
%ADD25C,0.500000*%
G04 #@! TD*
G04 #@! TA.AperFunction,Conductor*
%ADD26C,0.250000*%
G04 #@! TD*
G04 APERTURE END LIST*
D10*
X112747000Y-115382000D03*
D11*
X112747000Y-120462000D03*
X112747000Y-125542000D03*
D12*
X117208000Y-57216000D03*
D13*
X119748000Y-57216000D03*
X122288000Y-57216000D03*
X124828000Y-57216000D03*
D12*
X117208000Y-105984000D03*
D13*
X119748000Y-105984000D03*
X122288000Y-105984000D03*
X124828000Y-105984000D03*
D12*
X155901000Y-77790000D03*
D13*
X155901000Y-80330000D03*
X155901000Y-82870000D03*
X155901000Y-85410000D03*
D14*
X121400000Y-63600000D03*
D15*
X152400000Y-68025000D03*
X152400000Y-62225000D03*
X156400000Y-68025000D03*
X156400000Y-62225000D03*
D12*
X130400000Y-101600000D03*
D13*
X130400000Y-99060000D03*
X130400000Y-96520000D03*
D16*
X163660000Y-73960000D03*
D17*
X161120000Y-73960000D03*
X158580000Y-73960000D03*
X156040000Y-73960000D03*
X153500000Y-73960000D03*
X150960000Y-73960000D03*
X148420000Y-73960000D03*
X145880000Y-73960000D03*
X143340000Y-73960000D03*
X140800000Y-73960000D03*
X138260000Y-73960000D03*
X135720000Y-73960000D03*
X135720000Y-89200000D03*
X138260000Y-89200000D03*
X140800000Y-89200000D03*
X143340000Y-89200000D03*
X145880000Y-89200000D03*
X148420000Y-89200000D03*
X150960000Y-89200000D03*
X153500000Y-89200000D03*
X156040000Y-89200000D03*
X158580000Y-89200000D03*
X161120000Y-89200000D03*
X163660000Y-89200000D03*
D18*
X114660000Y-66160000D03*
D15*
X149650000Y-95675000D03*
X149650000Y-101475000D03*
X145650000Y-95675000D03*
X145650000Y-101475000D03*
D12*
X130400000Y-61600000D03*
D13*
X130400000Y-64140000D03*
X130400000Y-66680000D03*
D14*
X140400000Y-68600000D03*
D15*
X149650000Y-62225000D03*
X149650000Y-68025000D03*
X145650000Y-62225000D03*
X145650000Y-68025000D03*
D18*
X114640000Y-97020000D03*
D14*
X140400000Y-94600000D03*
D15*
X152400000Y-101475000D03*
X152400000Y-95675000D03*
X156400000Y-101475000D03*
X156400000Y-95675000D03*
D10*
X112747000Y-47850000D03*
D11*
X112747000Y-42770000D03*
X112747000Y-37690000D03*
D14*
X121400000Y-99600000D03*
D12*
X155768000Y-105984000D03*
D13*
X153228000Y-105984000D03*
X150688000Y-105984000D03*
X148148000Y-105984000D03*
D12*
X155768000Y-57216000D03*
D13*
X153228000Y-57216000D03*
X150688000Y-57216000D03*
X148148000Y-57216000D03*
D19*
X109773949Y-107786051D03*
D13*
X111570000Y-105990000D03*
X113366051Y-104193949D03*
X115162103Y-102397897D03*
D20*
X159900000Y-83600000D03*
X159900000Y-81600000D03*
D21*
X159900000Y-79600000D03*
D22*
X159900000Y-85600000D03*
X159900000Y-77600000D03*
D23*
X109780000Y-55420000D03*
D13*
X111576051Y-57216051D03*
X113372102Y-59012102D03*
X115168154Y-60808154D03*
D20*
X161400000Y-68350000D03*
X161400000Y-66350000D03*
D21*
X161400000Y-64350000D03*
D22*
X161400000Y-70350000D03*
X161400000Y-62350000D03*
D12*
X132650000Y-80350000D03*
D13*
X132650000Y-77810000D03*
D20*
X161400000Y-99350000D03*
X161400000Y-97350000D03*
D21*
X161400000Y-95350000D03*
D22*
X161400000Y-101350000D03*
X161400000Y-93350000D03*
D24*
X146400000Y-75850000D03*
X145400000Y-91600000D03*
X149400000Y-91350000D03*
X142400000Y-56600000D03*
X120400000Y-50850000D03*
X131400000Y-93350000D03*
X126300000Y-104900000D03*
X144115000Y-75902670D03*
X167400000Y-61600000D03*
X156150000Y-91600000D03*
X136150000Y-79100000D03*
X167400000Y-66600000D03*
X131400000Y-69850000D03*
X169900000Y-74100000D03*
X167400000Y-96600000D03*
X131400000Y-73850000D03*
X116100000Y-55200000D03*
X137400000Y-56600000D03*
X167400000Y-71600000D03*
X169900000Y-79100000D03*
X139900000Y-75850000D03*
X167400000Y-101600000D03*
X116100000Y-51100000D03*
X169824666Y-91600000D03*
X131400000Y-82350000D03*
X132400000Y-56600000D03*
X139900000Y-81600000D03*
X133198008Y-63600000D03*
X169900000Y-84100000D03*
X146400000Y-81600000D03*
X143650000Y-81600000D03*
X169900000Y-89100000D03*
X150900000Y-83600000D03*
X137871303Y-85625000D03*
X153900000Y-85600000D03*
X151150000Y-81600000D03*
X133745170Y-84144966D03*
X165150000Y-59850000D03*
X133150000Y-83279935D03*
X119000000Y-108800000D03*
X135400000Y-100500000D03*
X148400000Y-98600000D03*
X135900000Y-65350000D03*
X135405504Y-62770496D03*
X136690222Y-85699630D03*
X136150000Y-86600000D03*
X149650000Y-84600000D03*
X134125000Y-85157070D03*
X134125000Y-97600000D03*
X158650000Y-103850000D03*
X133976992Y-72523008D03*
X149650000Y-77350000D03*
X149650000Y-70100000D03*
X138650000Y-77350000D03*
X145128706Y-71096294D03*
X144589493Y-93385509D03*
X154150000Y-98100000D03*
X153400000Y-65850000D03*
D25*
X116100000Y-51100000D02*
X116100000Y-55200000D01*
X137896303Y-85600000D02*
X137871303Y-85625000D01*
X153900000Y-85600000D02*
X137896303Y-85600000D01*
D26*
X133790136Y-84100000D02*
X133745170Y-84144966D01*
X148650000Y-84100000D02*
X133790136Y-84100000D01*
X151150000Y-81600000D02*
X148650000Y-84100000D01*
X144650000Y-59850000D02*
X165150000Y-59850000D01*
X142900000Y-61600000D02*
X144650000Y-59850000D01*
X130400000Y-61600000D02*
X142900000Y-61600000D01*
X152173008Y-80576992D02*
X150923008Y-80576992D01*
X148150000Y-83350000D02*
X133220065Y-83350000D01*
X163660000Y-73960000D02*
X161770000Y-75850000D01*
X153650000Y-75850000D02*
X152900000Y-76600000D01*
X152900000Y-79850000D02*
X152173008Y-80576992D01*
X130480000Y-96520000D02*
X130650000Y-96350000D01*
X133220065Y-83350000D02*
X133150000Y-83279935D01*
X161770000Y-75850000D02*
X153650000Y-75850000D01*
X150923008Y-80576992D02*
X148150000Y-83350000D01*
X152900000Y-76600000D02*
X152900000Y-79850000D01*
X130400000Y-96520000D02*
X130480000Y-96520000D01*
X135400000Y-101700000D02*
X135400000Y-100500000D01*
X119000000Y-108800000D02*
X119100000Y-108800000D01*
X128400000Y-104600000D02*
X132500000Y-104600000D01*
X125400000Y-107600000D02*
X128400000Y-104600000D01*
X132500000Y-104600000D02*
X135400000Y-101700000D01*
X119100000Y-108800000D02*
X120300000Y-107600000D01*
X120300000Y-107600000D02*
X125400000Y-107600000D01*
X134625000Y-101838604D02*
X134625000Y-100178984D01*
X132363604Y-104100000D02*
X134625000Y-101838604D01*
X147275000Y-99725000D02*
X148400000Y-98600000D01*
X135078984Y-99725000D02*
X147275000Y-99725000D01*
X134625000Y-100178984D02*
X135078984Y-99725000D01*
X114468198Y-106100000D02*
X116468198Y-104100000D01*
X116468198Y-104100000D02*
X132363604Y-104100000D01*
X111900000Y-106100000D02*
X114468198Y-106100000D01*
X123900000Y-59350000D02*
X129900000Y-65350000D01*
X113710000Y-59350000D02*
X123900000Y-59350000D01*
X113372102Y-59012102D02*
X113710000Y-59350000D01*
X129900000Y-65350000D02*
X135900000Y-65350000D01*
X115562102Y-58850000D02*
X124036396Y-58850000D01*
X124036396Y-58850000D02*
X127962396Y-62776000D01*
X127962396Y-62776000D02*
X135400000Y-62776000D01*
X135400000Y-62776000D02*
X135405504Y-62770496D01*
X113928153Y-57216051D02*
X115562102Y-58850000D01*
X111576051Y-57216051D02*
X113928153Y-57216051D01*
D25*
X158150000Y-84350000D02*
X158150000Y-86100000D01*
X158150000Y-86100000D02*
X157449000Y-86801000D01*
X159900000Y-83600000D02*
X158900000Y-83600000D01*
X137791592Y-86801000D02*
X136690222Y-85699630D01*
X157449000Y-86801000D02*
X137791592Y-86801000D01*
X158900000Y-83600000D02*
X158150000Y-84350000D01*
X163660000Y-89200000D02*
X162161000Y-87701000D01*
X162161000Y-87701000D02*
X137251000Y-87701000D01*
X137251000Y-87701000D02*
X136150000Y-86600000D01*
D26*
X132177208Y-103650000D02*
X134125000Y-101702208D01*
X116281802Y-103650000D02*
X132177208Y-103650000D01*
X115737853Y-104193949D02*
X116281802Y-103650000D01*
X134125000Y-101702208D02*
X134125000Y-97600000D01*
X113366051Y-104193949D02*
X115737853Y-104193949D01*
X149400000Y-84850000D02*
X134432070Y-84850000D01*
X134432070Y-84850000D02*
X134125000Y-85157070D01*
X149650000Y-84600000D02*
X149400000Y-84850000D01*
X149400000Y-95675000D02*
X149400000Y-101475000D01*
X149400000Y-101475000D02*
X149400000Y-102375000D01*
X150875000Y-103850000D02*
X158650000Y-103850000D01*
X149400000Y-95100000D02*
X149400000Y-95675000D01*
X149400000Y-102375000D02*
X150875000Y-103850000D01*
X145320396Y-72384000D02*
X144336396Y-71400000D01*
X151924000Y-72384000D02*
X145320396Y-72384000D01*
X134053984Y-72600000D02*
X133976992Y-72523008D01*
X143671199Y-71400000D02*
X142471199Y-72600000D01*
X142471199Y-72600000D02*
X134053984Y-72600000D01*
X153500000Y-73960000D02*
X151924000Y-72384000D01*
X144336396Y-71400000D02*
X143671199Y-71400000D01*
X149400000Y-62225000D02*
X149400000Y-68025000D01*
X149650000Y-77350000D02*
X138650000Y-77350000D01*
X149400000Y-68025000D02*
X149400000Y-68925000D01*
X149400000Y-68025000D02*
X149400000Y-69850000D01*
X149400000Y-69850000D02*
X149650000Y-70100000D01*
X152400000Y-68025000D02*
X152400000Y-68925000D01*
X152400000Y-62225000D02*
X152400000Y-68025000D01*
X145857412Y-71825000D02*
X145128706Y-71096294D01*
X152400000Y-68925000D02*
X149500000Y-71825000D01*
X149500000Y-71825000D02*
X145857412Y-71825000D01*
X152400000Y-101475000D02*
X152400000Y-95675000D01*
X150575000Y-93850000D02*
X145150000Y-93850000D01*
X144685509Y-93385509D02*
X144589493Y-93385509D01*
X145150000Y-93850000D02*
X144685509Y-93385509D01*
X152400000Y-95675000D02*
X150575000Y-93850000D01*
X160650000Y-98100000D02*
X161400000Y-97350000D01*
X154150000Y-98100000D02*
X160650000Y-98100000D01*
X160900000Y-65850000D02*
X153400000Y-65850000D01*
X161400000Y-66350000D02*
X160900000Y-65850000D01*
G04 #@! TA.AperFunction,Conductor*
G36*
X121465651Y-104753502D02*
G01*
X121512144Y-104807158D01*
X121521112Y-104857903D01*
X122163051Y-105499842D01*
X122095007Y-105518075D01*
X121980993Y-105583901D01*
X121887901Y-105676993D01*
X121822075Y-105791007D01*
X121803841Y-105859052D01*
X121164621Y-105219831D01*
X121126522Y-105272269D01*
X121125422Y-105274065D01*
X121124827Y-105274603D01*
X121123624Y-105276259D01*
X121123275Y-105276006D01*
X121072768Y-105321689D01*
X121002725Y-105333286D01*
X120937531Y-105305174D01*
X120912440Y-105276211D01*
X120912376Y-105276258D01*
X120911830Y-105275506D01*
X120910563Y-105274044D01*
X120909462Y-105272248D01*
X120871378Y-105219831D01*
X120871377Y-105219830D01*
X120232157Y-105859050D01*
X120213925Y-105791007D01*
X120148099Y-105676993D01*
X120055007Y-105583901D01*
X119940993Y-105518075D01*
X119872947Y-105499841D01*
X120515372Y-104857416D01*
X120527455Y-104799904D01*
X120577298Y-104749346D01*
X120638470Y-104733500D01*
X121397530Y-104733500D01*
X121465651Y-104753502D01*
G37*
G04 #@! TD.AperFunction*
G04 #@! TA.AperFunction,Conductor*
G36*
X124005651Y-104753502D02*
G01*
X124052144Y-104807158D01*
X124061112Y-104857903D01*
X124703051Y-105499842D01*
X124635007Y-105518075D01*
X124520993Y-105583901D01*
X124427901Y-105676993D01*
X124362075Y-105791007D01*
X124343841Y-105859052D01*
X123704621Y-105219831D01*
X123666522Y-105272269D01*
X123665422Y-105274065D01*
X123664827Y-105274603D01*
X123663624Y-105276259D01*
X123663275Y-105276006D01*
X123612768Y-105321689D01*
X123542725Y-105333286D01*
X123477531Y-105305174D01*
X123452440Y-105276211D01*
X123452376Y-105276258D01*
X123451830Y-105275506D01*
X123450563Y-105274044D01*
X123449462Y-105272248D01*
X123411378Y-105219831D01*
X123411377Y-105219830D01*
X122772157Y-105859050D01*
X122753925Y-105791007D01*
X122688099Y-105676993D01*
X122595007Y-105583901D01*
X122480993Y-105518075D01*
X122412947Y-105499841D01*
X123055372Y-104857416D01*
X123067455Y-104799904D01*
X123117298Y-104749346D01*
X123178470Y-104733500D01*
X123937530Y-104733500D01*
X124005651Y-104753502D01*
G37*
G04 #@! TD.AperFunction*
G04 #@! TA.AperFunction,Conductor*
G36*
X118925651Y-104753502D02*
G01*
X118972144Y-104807158D01*
X118981112Y-104857903D01*
X119623051Y-105499842D01*
X119555007Y-105518075D01*
X119440993Y-105583901D01*
X119347901Y-105676993D01*
X119282075Y-105791007D01*
X119263842Y-105859051D01*
X118594204Y-105189413D01*
X118560178Y-105127101D01*
X118560035Y-105126432D01*
X118509016Y-104885614D01*
X118511051Y-104859173D01*
X118509159Y-104832717D01*
X118513732Y-104824341D01*
X118514465Y-104814827D01*
X118530473Y-104793682D01*
X118543184Y-104770405D01*
X118551559Y-104765831D01*
X118557320Y-104758223D01*
X118582220Y-104749089D01*
X118605496Y-104736380D01*
X118621586Y-104734649D01*
X118623974Y-104733774D01*
X118625845Y-104734191D01*
X118632280Y-104733500D01*
X118857530Y-104733500D01*
X118925651Y-104753502D01*
G37*
G04 #@! TD.AperFunction*
G04 #@! TA.AperFunction,Conductor*
G36*
X152725606Y-104503502D02*
G01*
X152772099Y-104557158D01*
X152782203Y-104627432D01*
X152752709Y-104692012D01*
X152710657Y-104722337D01*
X152711120Y-104723245D01*
X152516253Y-104822534D01*
X152463831Y-104860621D01*
X152463831Y-104860622D01*
X153103051Y-105499842D01*
X153035007Y-105518075D01*
X152920993Y-105583901D01*
X152827901Y-105676993D01*
X152762075Y-105791007D01*
X152743842Y-105859051D01*
X152104622Y-105219831D01*
X152104621Y-105219831D01*
X152066522Y-105272269D01*
X152065422Y-105274065D01*
X152064827Y-105274603D01*
X152063624Y-105276259D01*
X152063275Y-105276006D01*
X152012768Y-105321689D01*
X151942725Y-105333286D01*
X151877531Y-105305174D01*
X151852440Y-105276211D01*
X151852376Y-105276258D01*
X151851830Y-105275506D01*
X151850563Y-105274044D01*
X151849462Y-105272248D01*
X151811378Y-105219831D01*
X151172157Y-105859051D01*
X151153925Y-105791007D01*
X151088099Y-105676993D01*
X150995007Y-105583901D01*
X150880993Y-105518075D01*
X150812947Y-105499841D01*
X151452168Y-104860621D01*
X151452167Y-104860620D01*
X151399750Y-104822536D01*
X151399748Y-104822535D01*
X151204880Y-104723245D01*
X151205494Y-104722039D01*
X151155015Y-104681359D01*
X151132595Y-104613995D01*
X151150155Y-104545204D01*
X151202118Y-104496826D01*
X151258515Y-104483500D01*
X152657485Y-104483500D01*
X152725606Y-104503502D01*
G37*
G04 #@! TD.AperFunction*
G04 #@! TA.AperFunction,Conductor*
G36*
X154628830Y-104503502D02*
G01*
X154675323Y-104557158D01*
X154685427Y-104627432D01*
X154655933Y-104692012D01*
X154636218Y-104710368D01*
X154555095Y-104771095D01*
X154467555Y-104888034D01*
X154467555Y-104888035D01*
X154416505Y-105024905D01*
X154411981Y-105066978D01*
X154415319Y-105129301D01*
X154381794Y-105189414D01*
X153712157Y-105859051D01*
X153693925Y-105791007D01*
X153628099Y-105676993D01*
X153535007Y-105583901D01*
X153420993Y-105518075D01*
X153352947Y-105499841D01*
X153992168Y-104860621D01*
X153992167Y-104860620D01*
X153939750Y-104822536D01*
X153939748Y-104822535D01*
X153744880Y-104723245D01*
X153745494Y-104722039D01*
X153695015Y-104681359D01*
X153672595Y-104613995D01*
X153690155Y-104545204D01*
X153742118Y-104496826D01*
X153798515Y-104483500D01*
X154560709Y-104483500D01*
X154628830Y-104503502D01*
G37*
G04 #@! TD.AperFunction*
G04 #@! TA.AperFunction,Conductor*
G36*
X127134526Y-104753502D02*
G01*
X127181019Y-104807158D01*
X127191123Y-104877432D01*
X127161629Y-104942012D01*
X127155512Y-104948582D01*
X126748252Y-105355843D01*
X126366460Y-105737635D01*
X126304148Y-105771660D01*
X126233332Y-105766595D01*
X126176497Y-105724048D01*
X126153974Y-105670748D01*
X126153716Y-105670811D01*
X126153340Y-105669248D01*
X126152914Y-105668238D01*
X126152558Y-105665992D01*
X126086509Y-105462713D01*
X126086506Y-105462707D01*
X125989464Y-105272251D01*
X125989463Y-105272249D01*
X125951378Y-105219831D01*
X125951377Y-105219830D01*
X125312157Y-105859050D01*
X125293925Y-105791007D01*
X125228099Y-105676993D01*
X125135007Y-105583901D01*
X125020993Y-105518075D01*
X124952947Y-105499841D01*
X125595372Y-104857416D01*
X125607455Y-104799904D01*
X125657298Y-104749346D01*
X125718470Y-104733500D01*
X127066405Y-104733500D01*
X127134526Y-104753502D01*
G37*
G04 #@! TD.AperFunction*
G04 #@! TA.AperFunction,Conductor*
G36*
X154574565Y-76503502D02*
G01*
X154621058Y-76557158D01*
X154631162Y-76627432D01*
X154607313Y-76685008D01*
X154600555Y-76694034D01*
X154600555Y-76694035D01*
X154549505Y-76830906D01*
X154543000Y-76891402D01*
X154543000Y-77536000D01*
X155470297Y-77536000D01*
X155435075Y-77597007D01*
X155401000Y-77724174D01*
X155401000Y-77855826D01*
X155435075Y-77982993D01*
X155470297Y-78044000D01*
X154543000Y-78044000D01*
X154543000Y-78688597D01*
X154549505Y-78749093D01*
X154600555Y-78885964D01*
X154600555Y-78885965D01*
X154688095Y-79002904D01*
X154805034Y-79090444D01*
X154941909Y-79141495D01*
X154983980Y-79146018D01*
X155046286Y-79142674D01*
X155106413Y-79176204D01*
X155776051Y-79845842D01*
X155708007Y-79864075D01*
X155593993Y-79929901D01*
X155500901Y-80022993D01*
X155435075Y-80137007D01*
X155416842Y-80205051D01*
X154777622Y-79565831D01*
X154777621Y-79565831D01*
X154739534Y-79618253D01*
X154642493Y-79808707D01*
X154642490Y-79808713D01*
X154576440Y-80011996D01*
X154543000Y-80223126D01*
X154543000Y-80436873D01*
X154576440Y-80648003D01*
X154642490Y-80851286D01*
X154642493Y-80851292D01*
X154739535Y-81041748D01*
X154739536Y-81041750D01*
X154777620Y-81094167D01*
X154777621Y-81094168D01*
X155416841Y-80454947D01*
X155435075Y-80522993D01*
X155500901Y-80637007D01*
X155593993Y-80730099D01*
X155708007Y-80795925D01*
X155776051Y-80814157D01*
X155136831Y-81453378D01*
X155189248Y-81491462D01*
X155191044Y-81492563D01*
X155191583Y-81493159D01*
X155193258Y-81494376D01*
X155193002Y-81494727D01*
X155238678Y-81545208D01*
X155250289Y-81615249D01*
X155222189Y-81680448D01*
X155193212Y-81705560D01*
X155193259Y-81705624D01*
X155192520Y-81706160D01*
X155191065Y-81707422D01*
X155189269Y-81708522D01*
X155136831Y-81746621D01*
X155136831Y-81746622D01*
X155776051Y-82385842D01*
X155708007Y-82404075D01*
X155593993Y-82469901D01*
X155500901Y-82562993D01*
X155435075Y-82677007D01*
X155416842Y-82745051D01*
X154777622Y-82105831D01*
X154777621Y-82105831D01*
X154739534Y-82158253D01*
X154642493Y-82348707D01*
X154642490Y-82348713D01*
X154576440Y-82551996D01*
X154543000Y-82763126D01*
X154543000Y-82976873D01*
X154576440Y-83188003D01*
X154642490Y-83391286D01*
X154642493Y-83391292D01*
X154739535Y-83581748D01*
X154739536Y-83581750D01*
X154777620Y-83634167D01*
X154777621Y-83634168D01*
X155416841Y-82994947D01*
X155435075Y-83062993D01*
X155500901Y-83177007D01*
X155593993Y-83270099D01*
X155708007Y-83335925D01*
X155776051Y-83354157D01*
X155165799Y-83964409D01*
X155232826Y-84074456D01*
X155234453Y-84080539D01*
X155238678Y-84085208D01*
X155243521Y-84114426D01*
X155251178Y-84143039D01*
X155249258Y-84149035D01*
X155250289Y-84155249D01*
X155238563Y-84182454D01*
X155229538Y-84210657D01*
X155224681Y-84214663D01*
X155222189Y-84220448D01*
X155193212Y-84245560D01*
X155193259Y-84245624D01*
X155192520Y-84246160D01*
X155191065Y-84247422D01*
X155189269Y-84248522D01*
X155136831Y-84286621D01*
X155136831Y-84286622D01*
X155776051Y-84925842D01*
X155708007Y-84944075D01*
X155593993Y-85009901D01*
X155500901Y-85102993D01*
X155435075Y-85217007D01*
X155416841Y-85285052D01*
X154777621Y-84645831D01*
X154739534Y-84698253D01*
X154663241Y-84847987D01*
X154614493Y-84899602D01*
X154545578Y-84916668D01*
X154480973Y-84895549D01*
X154330340Y-84794900D01*
X154330339Y-84794899D01*
X154165003Y-84726414D01*
X154165001Y-84726413D01*
X154165000Y-84726413D01*
X154076645Y-84708838D01*
X153989481Y-84691500D01*
X153989479Y-84691500D01*
X153810521Y-84691500D01*
X153810518Y-84691500D01*
X153679771Y-84717507D01*
X153635000Y-84726413D01*
X153634999Y-84726413D01*
X153634996Y-84726414D01*
X153469662Y-84794899D01*
X153431700Y-84820265D01*
X153363947Y-84841480D01*
X153361698Y-84841500D01*
X150681793Y-84841500D01*
X150613672Y-84821498D01*
X150567179Y-84767842D01*
X150557075Y-84697568D01*
X150558214Y-84690919D01*
X150558499Y-84689484D01*
X150558500Y-84689477D01*
X150558500Y-84510522D01*
X150558499Y-84510518D01*
X150557718Y-84506592D01*
X150523587Y-84335000D01*
X150455102Y-84169664D01*
X150355678Y-84020865D01*
X150229135Y-83894322D01*
X150080336Y-83794898D01*
X150080335Y-83794897D01*
X150075189Y-83791459D01*
X150075908Y-83790382D01*
X150030062Y-83745336D01*
X150014360Y-83676098D01*
X150038584Y-83609362D01*
X150051005Y-83594897D01*
X151100499Y-82545405D01*
X151162811Y-82511379D01*
X151189594Y-82508500D01*
X151239478Y-82508500D01*
X151239479Y-82508500D01*
X151415000Y-82473587D01*
X151580336Y-82405102D01*
X151729135Y-82305678D01*
X151855678Y-82179135D01*
X151955102Y-82030336D01*
X152023587Y-81865000D01*
X152058500Y-81689479D01*
X152058500Y-81510521D01*
X152028773Y-81361072D01*
X152035101Y-81290360D01*
X152078655Y-81234292D01*
X152145608Y-81210673D01*
X152152352Y-81210492D01*
X152235401Y-81210492D01*
X152235402Y-81210492D01*
X152357793Y-81186147D01*
X152473083Y-81138392D01*
X152576841Y-81069063D01*
X153392071Y-80253833D01*
X153461400Y-80150075D01*
X153509155Y-80034785D01*
X153533500Y-79912394D01*
X153533500Y-79787606D01*
X153533500Y-76914594D01*
X153553502Y-76846473D01*
X153570405Y-76825499D01*
X153875499Y-76520405D01*
X153937811Y-76486379D01*
X153964594Y-76483500D01*
X154506444Y-76483500D01*
X154574565Y-76503502D01*
G37*
G04 #@! TD.AperFunction*
G04 #@! TA.AperFunction,Conductor*
G36*
X159000642Y-76503502D02*
G01*
X159047135Y-76557158D01*
X159057239Y-76627432D01*
X159027745Y-76692012D01*
X159021616Y-76698595D01*
X158940074Y-76780136D01*
X158940071Y-76780139D01*
X158823636Y-76940398D01*
X158733703Y-77116901D01*
X158733702Y-77116903D01*
X158676398Y-77293267D01*
X158672488Y-77305300D01*
X158641500Y-77500954D01*
X158641500Y-77699046D01*
X158672488Y-77894700D01*
X158733702Y-78083097D01*
X158823075Y-78258500D01*
X158823636Y-78259601D01*
X158940071Y-78419860D01*
X159080135Y-78559924D01*
X159080138Y-78559926D01*
X159080142Y-78559930D01*
X159130072Y-78596206D01*
X159173425Y-78652429D01*
X159179500Y-78723165D01*
X159146368Y-78785957D01*
X159145106Y-78787237D01*
X159054483Y-78877860D01*
X158951928Y-79019015D01*
X158872713Y-79174482D01*
X158872710Y-79174488D01*
X158846942Y-79253796D01*
X158818795Y-79340426D01*
X158791500Y-79512759D01*
X158791500Y-79687241D01*
X158818795Y-79859574D01*
X158818796Y-79859577D01*
X158858515Y-79981823D01*
X158872712Y-80025516D01*
X158951926Y-80180981D01*
X159054483Y-80322139D01*
X159054485Y-80322141D01*
X159054487Y-80322144D01*
X159177858Y-80445515D01*
X159229431Y-80482985D01*
X159272785Y-80539208D01*
X159280981Y-80594810D01*
X159279013Y-80619804D01*
X159859209Y-81200000D01*
X159847339Y-81200000D01*
X159745606Y-81227259D01*
X159654394Y-81279920D01*
X159579920Y-81354394D01*
X159527259Y-81445606D01*
X159500000Y-81547339D01*
X159500000Y-81559209D01*
X158919804Y-80979013D01*
X158919803Y-80979014D01*
X158909591Y-80993072D01*
X158826840Y-81155480D01*
X158826837Y-81155486D01*
X158770515Y-81328828D01*
X158742000Y-81508866D01*
X158742000Y-81691133D01*
X158770515Y-81871171D01*
X158826837Y-82044513D01*
X158826840Y-82044519D01*
X158909588Y-82206923D01*
X158919803Y-82220984D01*
X159500000Y-81640788D01*
X159500000Y-81652661D01*
X159527259Y-81754394D01*
X159579920Y-81845606D01*
X159654394Y-81920080D01*
X159745606Y-81972741D01*
X159847339Y-82000000D01*
X159859210Y-82000000D01*
X159266780Y-82592428D01*
X159261784Y-82616213D01*
X159257883Y-82621095D01*
X159256864Y-82624587D01*
X159245301Y-82636847D01*
X159233418Y-82651724D01*
X159229265Y-82655332D01*
X159145288Y-82716346D01*
X159053915Y-82807718D01*
X159050594Y-82810605D01*
X159022171Y-82823634D01*
X158994728Y-82838620D01*
X158987875Y-82839356D01*
X158986056Y-82840191D01*
X158983500Y-82839827D01*
X158967944Y-82841500D01*
X158825288Y-82841500D01*
X158752024Y-82856073D01*
X158752024Y-82856074D01*
X158715388Y-82863361D01*
X158678752Y-82870649D01*
X158678748Y-82870650D01*
X158621601Y-82894321D01*
X158621602Y-82894322D01*
X158540714Y-82927827D01*
X158416488Y-83010832D01*
X158416481Y-83010837D01*
X157560838Y-83866480D01*
X157560833Y-83866486D01*
X157481236Y-83985613D01*
X157477826Y-83990716D01*
X157420649Y-84128753D01*
X157412511Y-84169664D01*
X157412511Y-84169665D01*
X157391500Y-84275288D01*
X157391500Y-84819191D01*
X157371498Y-84887312D01*
X157317842Y-84933805D01*
X157247568Y-84943909D01*
X157182988Y-84914415D01*
X157153233Y-84876394D01*
X157062464Y-84698251D01*
X157062463Y-84698249D01*
X157024378Y-84645831D01*
X157024377Y-84645830D01*
X156385157Y-85285050D01*
X156366925Y-85217007D01*
X156301099Y-85102993D01*
X156208007Y-85009901D01*
X156093993Y-84944075D01*
X156025947Y-84925841D01*
X156665168Y-84286621D01*
X156665167Y-84286620D01*
X156612749Y-84248535D01*
X156610950Y-84247433D01*
X156610409Y-84246835D01*
X156608742Y-84245624D01*
X156608996Y-84245273D01*
X156563318Y-84194786D01*
X156551711Y-84124745D01*
X156579814Y-84059547D01*
X156608788Y-84034442D01*
X156608741Y-84034377D01*
X156609498Y-84033826D01*
X156610958Y-84032562D01*
X156612750Y-84031463D01*
X156665167Y-83993378D01*
X156665167Y-83993376D01*
X156025948Y-83354157D01*
X156093993Y-83335925D01*
X156208007Y-83270099D01*
X156301099Y-83177007D01*
X156366925Y-83062993D01*
X156385157Y-82994948D01*
X157024376Y-83634167D01*
X157024378Y-83634167D01*
X157062463Y-83581750D01*
X157159506Y-83391292D01*
X157159509Y-83391286D01*
X157225559Y-83188003D01*
X157259000Y-82976873D01*
X157259000Y-82763126D01*
X157225559Y-82551996D01*
X157159509Y-82348713D01*
X157159506Y-82348707D01*
X157062464Y-82158251D01*
X157062463Y-82158249D01*
X157024378Y-82105831D01*
X156385157Y-82745051D01*
X156366925Y-82677007D01*
X156301099Y-82562993D01*
X156208007Y-82469901D01*
X156093993Y-82404075D01*
X156025947Y-82385841D01*
X156665168Y-81746621D01*
X156665167Y-81746620D01*
X156612749Y-81708535D01*
X156610950Y-81707433D01*
X156610409Y-81706835D01*
X156608742Y-81705624D01*
X156608996Y-81705273D01*
X156563318Y-81654786D01*
X156551711Y-81584745D01*
X156579814Y-81519547D01*
X156594231Y-81504810D01*
X156659766Y-81447975D01*
X156025948Y-80814157D01*
X156093993Y-80795925D01*
X156208007Y-80730099D01*
X156301099Y-80637007D01*
X156366925Y-80522993D01*
X156385157Y-80454948D01*
X157024376Y-81094167D01*
X157024378Y-81094167D01*
X157062463Y-81041750D01*
X157159506Y-80851292D01*
X157159509Y-80851286D01*
X157225559Y-80648003D01*
X157259000Y-80436873D01*
X157259000Y-80223126D01*
X157225559Y-80011996D01*
X157159509Y-79808713D01*
X157159506Y-79808707D01*
X157062464Y-79618251D01*
X157062463Y-79618249D01*
X157024378Y-79565831D01*
X156385157Y-80205051D01*
X156366925Y-80137007D01*
X156301099Y-80022993D01*
X156208007Y-79929901D01*
X156093993Y-79864075D01*
X156025947Y-79845841D01*
X156695583Y-79176205D01*
X156757896Y-79142180D01*
X156818470Y-79145969D01*
X156860087Y-79141496D01*
X156860094Y-79141494D01*
X156996964Y-79090444D01*
X156996965Y-79090444D01*
X157113904Y-79002904D01*
X157201444Y-78885965D01*
X157201444Y-78885964D01*
X157252494Y-78749093D01*
X157258999Y-78688597D01*
X157259000Y-78688585D01*
X157259000Y-78044000D01*
X156331703Y-78044000D01*
X156366925Y-77982993D01*
X156401000Y-77855826D01*
X156401000Y-77724174D01*
X156366925Y-77597007D01*
X156331703Y-77536000D01*
X157259000Y-77536000D01*
X157259000Y-76891414D01*
X157258999Y-76891402D01*
X157252494Y-76830906D01*
X157201444Y-76694035D01*
X157201444Y-76694034D01*
X157194687Y-76685008D01*
X157169877Y-76618487D01*
X157184969Y-76549113D01*
X157235172Y-76498912D01*
X157295556Y-76483500D01*
X158932521Y-76483500D01*
X159000642Y-76503502D01*
G37*
G04 #@! TD.AperFunction*
G04 #@! TA.AperFunction,Conductor*
G36*
X155527482Y-74172292D02*
G01*
X155599890Y-74297708D01*
X155702292Y-74400110D01*
X155827708Y-74472518D01*
X155874226Y-74484982D01*
X155311626Y-75047582D01*
X155314226Y-75080614D01*
X155299630Y-75150094D01*
X155249787Y-75200654D01*
X155188614Y-75216500D01*
X154384517Y-75216500D01*
X154316396Y-75196498D01*
X154269903Y-75142842D01*
X154259799Y-75072568D01*
X154289293Y-75007988D01*
X154310456Y-74988564D01*
X154323822Y-74978852D01*
X154352430Y-74958068D01*
X154498068Y-74812430D01*
X154619129Y-74645803D01*
X154658014Y-74569486D01*
X154706759Y-74517874D01*
X154775674Y-74500807D01*
X154842876Y-74523707D01*
X154882545Y-74569487D01*
X154921294Y-74645535D01*
X154921298Y-74645541D01*
X154952416Y-74688372D01*
X155515016Y-74125771D01*
X155527482Y-74172292D01*
G37*
G04 #@! TD.AperFunction*
G04 #@! TA.AperFunction,Conductor*
G36*
X158067482Y-74172292D02*
G01*
X158139890Y-74297708D01*
X158242292Y-74400110D01*
X158367708Y-74472518D01*
X158414226Y-74484982D01*
X157851626Y-75047582D01*
X157854226Y-75080614D01*
X157839630Y-75150094D01*
X157789787Y-75200654D01*
X157728614Y-75216500D01*
X156891385Y-75216500D01*
X156823264Y-75196498D01*
X156776771Y-75142842D01*
X156765773Y-75080614D01*
X156768372Y-75047581D01*
X156205773Y-74484982D01*
X156252292Y-74472518D01*
X156377708Y-74400110D01*
X156480110Y-74297708D01*
X156552518Y-74172292D01*
X156564982Y-74125773D01*
X157127581Y-74688372D01*
X157127582Y-74688372D01*
X157158701Y-74645541D01*
X157197733Y-74568938D01*
X157246481Y-74517323D01*
X157315396Y-74500257D01*
X157382598Y-74523158D01*
X157422267Y-74568938D01*
X157461297Y-74645540D01*
X157461298Y-74645541D01*
X157492416Y-74688372D01*
X158055016Y-74125771D01*
X158067482Y-74172292D01*
G37*
G04 #@! TD.AperFunction*
G04 #@! TA.AperFunction,Conductor*
G36*
X159667581Y-74688372D02*
G01*
X159667582Y-74688372D01*
X159698701Y-74645541D01*
X159737453Y-74569488D01*
X159786201Y-74517873D01*
X159855116Y-74500807D01*
X159922318Y-74523708D01*
X159961985Y-74569486D01*
X160000871Y-74645803D01*
X160121932Y-74812430D01*
X160121934Y-74812432D01*
X160121936Y-74812435D01*
X160267567Y-74958066D01*
X160309544Y-74988564D01*
X160352898Y-75044787D01*
X160358973Y-75115523D01*
X160325841Y-75178315D01*
X160264021Y-75213226D01*
X160235483Y-75216500D01*
X159431385Y-75216500D01*
X159363264Y-75196498D01*
X159316771Y-75142842D01*
X159305773Y-75080614D01*
X159308372Y-75047581D01*
X158745773Y-74484982D01*
X158792292Y-74472518D01*
X158917708Y-74400110D01*
X159020110Y-74297708D01*
X159092518Y-74172292D01*
X159104982Y-74125773D01*
X159667581Y-74688372D01*
G37*
G04 #@! TD.AperFunction*
G04 #@! TA.AperFunction,Conductor*
G36*
X116677611Y-31125608D02*
G01*
X117080599Y-31142275D01*
X117090946Y-31143132D01*
X117488611Y-31192702D01*
X117498871Y-31194414D01*
X117891076Y-31276650D01*
X117901144Y-31279199D01*
X118285236Y-31393549D01*
X118295069Y-31396925D01*
X118339562Y-31414286D01*
X118668375Y-31542590D01*
X118677912Y-31546773D01*
X119037918Y-31722769D01*
X119047076Y-31727725D01*
X119391313Y-31932845D01*
X119400032Y-31938541D01*
X119726169Y-32171400D01*
X119734363Y-32177776D01*
X120040170Y-32436781D01*
X120047831Y-32443835D01*
X120331164Y-32727168D01*
X120338218Y-32734829D01*
X120597220Y-33040633D01*
X120603602Y-33048833D01*
X120695328Y-33177302D01*
X120836458Y-33374967D01*
X120842154Y-33383686D01*
X121047274Y-33727923D01*
X121052230Y-33737081D01*
X121228226Y-34097087D01*
X121232409Y-34106624D01*
X121378071Y-34479921D01*
X121381453Y-34489771D01*
X121495796Y-34873841D01*
X121498352Y-34883936D01*
X121580584Y-35276124D01*
X121582298Y-35286395D01*
X121631865Y-35684036D01*
X121632725Y-35694415D01*
X121649392Y-36097388D01*
X121649500Y-36102545D01*
X121649500Y-36108285D01*
X121649502Y-36108288D01*
X121649508Y-36125396D01*
X121649509Y-36125397D01*
X121656200Y-52566351D01*
X121656200Y-52600000D01*
X121656200Y-52689720D01*
X121687360Y-52866435D01*
X121687361Y-52866439D01*
X121748730Y-53035049D01*
X121767685Y-53067880D01*
X121838454Y-53190453D01*
X121925116Y-53293732D01*
X121953799Y-53327914D01*
X122051828Y-53410169D01*
X122091257Y-53443253D01*
X122246658Y-53532972D01*
X122415277Y-53594343D01*
X122415281Y-53594343D01*
X122415282Y-53594344D01*
X122433991Y-53597642D01*
X122591992Y-53625501D01*
X122681712Y-53625500D01*
X122689998Y-53625500D01*
X122689998Y-53625499D01*
X122717988Y-53625498D01*
X126172802Y-53625399D01*
X126172811Y-53625402D01*
X126224999Y-53625402D01*
X126320024Y-53625402D01*
X126320026Y-53625402D01*
X126506843Y-53590480D01*
X126684063Y-53521825D01*
X126845650Y-53421774D01*
X126986101Y-53293736D01*
X126986104Y-53293733D01*
X127036950Y-53226401D01*
X127100634Y-53142070D01*
X127185348Y-52971941D01*
X127237359Y-52789143D01*
X127254895Y-52599900D01*
X127237359Y-52410657D01*
X127185348Y-52227859D01*
X127100634Y-52057730D01*
X127062984Y-52007874D01*
X126986102Y-51906064D01*
X126845651Y-51778026D01*
X126684068Y-51677978D01*
X126684067Y-51677977D01*
X126684063Y-51677975D01*
X126548351Y-51625400D01*
X126506844Y-51609320D01*
X126444570Y-51597679D01*
X126320026Y-51574398D01*
X126320024Y-51574398D01*
X125233257Y-51574398D01*
X125216811Y-51573320D01*
X125118637Y-51560395D01*
X125086865Y-51551882D01*
X125003073Y-51517174D01*
X124974591Y-51500729D01*
X124902633Y-51445514D01*
X124879379Y-51422259D01*
X124847911Y-51381249D01*
X124824168Y-51350306D01*
X124807723Y-51321821D01*
X124773015Y-51238027D01*
X124764505Y-51206262D01*
X124751893Y-51110462D01*
X124751577Y-51108062D01*
X124750499Y-51091617D01*
X124750499Y-50608157D01*
X124751577Y-50591711D01*
X124753472Y-50577316D01*
X124764503Y-50493531D01*
X124773012Y-50461771D01*
X124807725Y-50377968D01*
X124824166Y-50349491D01*
X124879382Y-50277532D01*
X124902632Y-50254282D01*
X124974591Y-50199066D01*
X125003068Y-50182624D01*
X125086872Y-50147911D01*
X125118633Y-50139402D01*
X125203912Y-50128175D01*
X125216819Y-50126476D01*
X125233264Y-50125398D01*
X125233284Y-50125398D01*
X139716715Y-50125398D01*
X139716742Y-50125398D01*
X139733187Y-50126476D01*
X139759633Y-50129957D01*
X139831364Y-50139400D01*
X139863129Y-50147911D01*
X139946928Y-50182622D01*
X139975408Y-50199066D01*
X140047364Y-50254279D01*
X140070621Y-50277536D01*
X140102089Y-50318546D01*
X140125831Y-50349487D01*
X140142277Y-50377971D01*
X140176985Y-50461762D01*
X140185498Y-50493533D01*
X140198422Y-50591693D01*
X140199500Y-50608141D01*
X140199500Y-51091640D01*
X140198422Y-51108086D01*
X140185497Y-51206262D01*
X140176984Y-51238033D01*
X140142278Y-51321823D01*
X140125831Y-51350310D01*
X140070622Y-51422259D01*
X140047365Y-51445517D01*
X139975411Y-51500730D01*
X139946929Y-51517174D01*
X139946924Y-51517177D01*
X139863134Y-51551884D01*
X139831362Y-51560397D01*
X139733203Y-51573320D01*
X139716757Y-51574398D01*
X138689386Y-51574398D01*
X138689365Y-51574402D01*
X138629974Y-51574402D01*
X138443157Y-51609324D01*
X138443155Y-51609324D01*
X138443153Y-51609325D01*
X138265942Y-51677977D01*
X138265931Y-51677982D01*
X138104350Y-51778029D01*
X137963899Y-51906067D01*
X137849370Y-52057730D01*
X137764655Y-52227860D01*
X137764652Y-52227868D01*
X137712644Y-52410659D01*
X137712644Y-52410663D01*
X137695109Y-52599895D01*
X137695109Y-52599904D01*
X137712644Y-52789136D01*
X137712644Y-52789140D01*
X137734637Y-52866439D01*
X137764655Y-52971940D01*
X137849369Y-53142068D01*
X137868193Y-53166995D01*
X137963899Y-53293732D01*
X138104350Y-53421770D01*
X138265931Y-53521817D01*
X138265933Y-53521817D01*
X138265938Y-53521821D01*
X138443157Y-53590476D01*
X138629974Y-53625398D01*
X138714438Y-53625398D01*
X144122804Y-53625398D01*
X144122818Y-53625402D01*
X144174999Y-53625402D01*
X144270024Y-53625402D01*
X144270026Y-53625402D01*
X144456843Y-53590480D01*
X144634063Y-53521825D01*
X144795650Y-53421774D01*
X144936101Y-53293736D01*
X144936104Y-53293733D01*
X144986950Y-53226401D01*
X145050634Y-53142070D01*
X145135348Y-52971941D01*
X145187359Y-52789143D01*
X145204895Y-52599900D01*
X145187359Y-52410657D01*
X145135348Y-52227859D01*
X145050634Y-52057730D01*
X145012984Y-52007874D01*
X144936102Y-51906064D01*
X144795651Y-51778026D01*
X144634068Y-51677978D01*
X144634067Y-51677977D01*
X144634063Y-51677975D01*
X144498351Y-51625400D01*
X144456844Y-51609320D01*
X144394570Y-51597679D01*
X144270026Y-51574398D01*
X144270024Y-51574398D01*
X143183257Y-51574398D01*
X143166811Y-51573320D01*
X143068637Y-51560395D01*
X143036865Y-51551882D01*
X142953073Y-51517174D01*
X142924591Y-51500729D01*
X142852633Y-51445514D01*
X142829379Y-51422259D01*
X142797911Y-51381249D01*
X142774168Y-51350306D01*
X142757723Y-51321821D01*
X142723015Y-51238027D01*
X142714505Y-51206262D01*
X142701893Y-51110462D01*
X142701577Y-51108062D01*
X142700499Y-51091617D01*
X142700499Y-50608157D01*
X142701577Y-50591711D01*
X142703472Y-50577316D01*
X142714503Y-50493531D01*
X142723012Y-50461771D01*
X142757725Y-50377968D01*
X142774166Y-50349491D01*
X142829382Y-50277532D01*
X142852632Y-50254282D01*
X142924591Y-50199066D01*
X142953068Y-50182624D01*
X143036872Y-50147911D01*
X143068633Y-50139402D01*
X143153912Y-50128175D01*
X143166819Y-50126476D01*
X143183264Y-50125398D01*
X143183284Y-50125398D01*
X157666715Y-50125398D01*
X157666742Y-50125398D01*
X157683187Y-50126476D01*
X157709633Y-50129957D01*
X157781364Y-50139400D01*
X157813129Y-50147911D01*
X157896928Y-50182622D01*
X157925408Y-50199066D01*
X157997364Y-50254279D01*
X158020621Y-50277536D01*
X158052089Y-50318546D01*
X158075831Y-50349487D01*
X158092277Y-50377971D01*
X158126985Y-50461762D01*
X158135498Y-50493533D01*
X158148422Y-50591693D01*
X158149500Y-50608141D01*
X158149500Y-51091640D01*
X158148422Y-51108086D01*
X158135497Y-51206262D01*
X158126984Y-51238033D01*
X158092278Y-51321823D01*
X158075831Y-51350310D01*
X158020622Y-51422259D01*
X157997365Y-51445517D01*
X157925411Y-51500730D01*
X157896929Y-51517174D01*
X157896924Y-51517177D01*
X157813134Y-51551884D01*
X157781362Y-51560397D01*
X157683203Y-51573320D01*
X157666757Y-51574398D01*
X156639386Y-51574398D01*
X156639365Y-51574402D01*
X156579974Y-51574402D01*
X156393157Y-51609324D01*
X156393155Y-51609324D01*
X156393153Y-51609325D01*
X156215942Y-51677977D01*
X156215931Y-51677982D01*
X156054350Y-51778029D01*
X155913899Y-51906067D01*
X155799370Y-52057730D01*
X155714655Y-52227860D01*
X155714652Y-52227868D01*
X155662644Y-52410659D01*
X155662644Y-52410663D01*
X155645109Y-52599895D01*
X155645109Y-52599904D01*
X155662644Y-52789136D01*
X155662644Y-52789140D01*
X155684637Y-52866439D01*
X155714655Y-52971940D01*
X155799369Y-53142068D01*
X155818193Y-53166995D01*
X155913899Y-53293732D01*
X156054350Y-53421770D01*
X156215931Y-53521817D01*
X156215933Y-53521817D01*
X156215938Y-53521821D01*
X156393157Y-53590476D01*
X156579974Y-53625398D01*
X156579976Y-53625398D01*
X156664438Y-53625398D01*
X164317687Y-53625486D01*
X164329536Y-53625487D01*
X164329537Y-53625488D01*
X164335111Y-53625488D01*
X164340533Y-53625605D01*
X164374266Y-53627060D01*
X164760768Y-53643734D01*
X164771565Y-53644666D01*
X165186011Y-53698569D01*
X165196676Y-53700428D01*
X165604927Y-53789816D01*
X165615402Y-53792587D01*
X165949548Y-53896601D01*
X166014428Y-53916797D01*
X166024649Y-53920469D01*
X166411478Y-54078570D01*
X166421344Y-54083108D01*
X166793132Y-54273938D01*
X166802567Y-54279306D01*
X167142312Y-54492514D01*
X167156545Y-54501446D01*
X167165486Y-54507610D01*
X167499006Y-54759396D01*
X167507374Y-54766298D01*
X167818010Y-55045901D01*
X167825747Y-55053495D01*
X168111111Y-55358768D01*
X168118179Y-55367013D01*
X168376215Y-55695749D01*
X168382546Y-55704573D01*
X168611307Y-56054296D01*
X168616855Y-56063633D01*
X168814650Y-56431756D01*
X168819373Y-56441535D01*
X168985432Y-56826945D01*
X168987470Y-56831970D01*
X168988972Y-56835915D01*
X168988973Y-56835925D01*
X168988976Y-56835925D01*
X169124521Y-57192019D01*
X169243201Y-57505346D01*
X169245091Y-57510334D01*
X169246793Y-57515120D01*
X169253143Y-57534172D01*
X169764312Y-59067955D01*
X169765167Y-59070616D01*
X170248556Y-60635991D01*
X170249351Y-60638671D01*
X170696405Y-62209155D01*
X170697887Y-62214359D01*
X170698622Y-62217056D01*
X171112077Y-63802253D01*
X171112753Y-63804966D01*
X171490956Y-65399009D01*
X171491571Y-65401736D01*
X171834315Y-67003759D01*
X171834869Y-67006498D01*
X172141982Y-68615695D01*
X172142476Y-68618447D01*
X172413825Y-70234124D01*
X172414257Y-70236886D01*
X172649689Y-71858127D01*
X172650060Y-71860897D01*
X172849468Y-73486964D01*
X172849778Y-73489742D01*
X173013073Y-75119915D01*
X173013320Y-75122700D01*
X173140402Y-76755993D01*
X173140588Y-76758782D01*
X173231408Y-78394537D01*
X173231532Y-78397330D01*
X173286042Y-80034692D01*
X173286104Y-80037486D01*
X173304277Y-81675655D01*
X173304277Y-81678451D01*
X173286104Y-83316620D01*
X173286042Y-83319414D01*
X173231532Y-84956776D01*
X173231408Y-84959569D01*
X173140588Y-86595324D01*
X173140402Y-86598113D01*
X173013319Y-88231406D01*
X173013072Y-88234191D01*
X172849777Y-89864363D01*
X172849467Y-89867141D01*
X172650059Y-91493208D01*
X172649688Y-91495978D01*
X172414256Y-93117220D01*
X172413824Y-93119982D01*
X172142475Y-94735658D01*
X172141981Y-94738410D01*
X171834868Y-96347608D01*
X171834314Y-96350347D01*
X171491570Y-97952370D01*
X171490955Y-97955097D01*
X171112752Y-99549140D01*
X171112076Y-99551853D01*
X170698620Y-101137049D01*
X170697885Y-101139746D01*
X170249349Y-102715435D01*
X170248554Y-102718115D01*
X169765164Y-104283489D01*
X169764309Y-104286150D01*
X169246458Y-105839978D01*
X169245336Y-105843198D01*
X169203564Y-105958075D01*
X169203497Y-105958260D01*
X169076870Y-106304813D01*
X169075014Y-106309590D01*
X168923727Y-106676592D01*
X168919438Y-106685901D01*
X168740005Y-107037082D01*
X168734975Y-107046012D01*
X168527577Y-107381474D01*
X168521837Y-107389965D01*
X168287872Y-107707445D01*
X168281461Y-107715441D01*
X168022464Y-108012858D01*
X168015425Y-108020308D01*
X167733104Y-108295699D01*
X167725482Y-108302551D01*
X167421719Y-108554079D01*
X167413565Y-108560289D01*
X167090371Y-108786292D01*
X167081740Y-108791819D01*
X166741236Y-108990813D01*
X166732184Y-108995620D01*
X166376646Y-109166275D01*
X166367234Y-109170331D01*
X165998982Y-109311533D01*
X165989270Y-109314810D01*
X165610777Y-109425609D01*
X165600832Y-109428086D01*
X165214586Y-109507757D01*
X165204472Y-109509418D01*
X164813015Y-109557435D01*
X164802800Y-109558268D01*
X164406643Y-109574396D01*
X164401518Y-109574500D01*
X157379018Y-109574500D01*
X157283992Y-109574499D01*
X157283991Y-109574499D01*
X157228227Y-109584921D01*
X157097174Y-109609417D01*
X157097173Y-109609417D01*
X156919953Y-109678069D01*
X156919944Y-109678074D01*
X156758360Y-109778120D01*
X156617907Y-109906157D01*
X156503368Y-110057830D01*
X156418656Y-110227951D01*
X156418653Y-110227960D01*
X156366643Y-110410754D01*
X156349107Y-110600000D01*
X156366643Y-110789245D01*
X156418653Y-110972039D01*
X156418656Y-110972048D01*
X156503368Y-111142169D01*
X156503369Y-111142170D01*
X156503371Y-111142174D01*
X156614303Y-111289070D01*
X156617907Y-111293842D01*
X156758360Y-111421879D01*
X156919944Y-111521925D01*
X156919953Y-111521930D01*
X156985106Y-111547169D01*
X157097171Y-111590582D01*
X157283991Y-111625501D01*
X157379018Y-111625500D01*
X157387304Y-111625500D01*
X158370760Y-111625500D01*
X158387196Y-111626577D01*
X158485385Y-111639507D01*
X158517139Y-111648016D01*
X158600939Y-111682730D01*
X158629419Y-111699175D01*
X158647460Y-111713019D01*
X158701369Y-111754387D01*
X158724624Y-111777642D01*
X158779837Y-111849599D01*
X158796280Y-111878080D01*
X158830985Y-111961867D01*
X158839498Y-111993639D01*
X158852440Y-112091951D01*
X158853518Y-112108396D01*
X158853518Y-112591742D01*
X158852440Y-112608188D01*
X158839515Y-112706365D01*
X158831002Y-112738137D01*
X158796294Y-112821930D01*
X158779849Y-112850414D01*
X158724639Y-112922368D01*
X158701380Y-112945627D01*
X158629426Y-113000841D01*
X158600943Y-113017287D01*
X158517156Y-113051996D01*
X158485384Y-113060511D01*
X158387340Y-113073422D01*
X158370890Y-113074500D01*
X143887277Y-113074500D01*
X143870834Y-113073422D01*
X143772647Y-113060498D01*
X143740875Y-113051986D01*
X143686361Y-113029407D01*
X143657083Y-113017281D01*
X143628598Y-113000836D01*
X143593548Y-112973942D01*
X143556642Y-112945624D01*
X143533387Y-112922370D01*
X143478171Y-112850413D01*
X143461725Y-112821928D01*
X143427014Y-112738131D01*
X143418504Y-112706369D01*
X143405595Y-112608314D01*
X143404517Y-112591869D01*
X143404517Y-112108257D01*
X143405595Y-112091812D01*
X143406011Y-112088645D01*
X143418520Y-111993631D01*
X143427030Y-111961872D01*
X143461741Y-111878076D01*
X143478180Y-111849601D01*
X143533402Y-111777637D01*
X143556654Y-111754387D01*
X143628608Y-111699178D01*
X143657092Y-111682732D01*
X143740883Y-111648027D01*
X143772649Y-111639516D01*
X143870964Y-111626576D01*
X143887403Y-111625500D01*
X144941764Y-111625500D01*
X144941769Y-111625498D01*
X144974043Y-111625498D01*
X144974046Y-111625498D01*
X145160852Y-111590575D01*
X145160852Y-111590574D01*
X145160857Y-111590574D01*
X145338074Y-111521917D01*
X145499657Y-111421866D01*
X145640106Y-111293828D01*
X145754636Y-111142164D01*
X145839348Y-110972036D01*
X145891357Y-110789240D01*
X145908893Y-110600000D01*
X145907914Y-110589438D01*
X145891357Y-110410765D01*
X145891357Y-110410760D01*
X145839348Y-110227963D01*
X145755017Y-110058602D01*
X145754636Y-110057836D01*
X145640106Y-109906172D01*
X145582317Y-109853490D01*
X145499657Y-109778134D01*
X145499657Y-109778133D01*
X145338081Y-109678087D01*
X145338072Y-109678082D01*
X145250672Y-109644222D01*
X145160857Y-109609426D01*
X145160855Y-109609425D01*
X145160851Y-109609424D01*
X145160853Y-109609424D01*
X144974042Y-109574501D01*
X144974048Y-109574501D01*
X144889580Y-109574500D01*
X144889579Y-109574500D01*
X144889577Y-109574500D01*
X139429018Y-109574500D01*
X139333992Y-109574499D01*
X139333991Y-109574499D01*
X139278227Y-109584921D01*
X139147174Y-109609417D01*
X139147173Y-109609417D01*
X138969953Y-109678069D01*
X138969944Y-109678074D01*
X138808360Y-109778120D01*
X138667907Y-109906157D01*
X138553368Y-110057830D01*
X138468656Y-110227951D01*
X138468653Y-110227960D01*
X138416643Y-110410754D01*
X138399107Y-110600000D01*
X138416643Y-110789245D01*
X138468653Y-110972039D01*
X138468656Y-110972048D01*
X138553368Y-111142169D01*
X138553369Y-111142170D01*
X138553371Y-111142174D01*
X138664303Y-111289070D01*
X138667907Y-111293842D01*
X138808360Y-111421879D01*
X138969944Y-111521925D01*
X138969953Y-111521930D01*
X139035106Y-111547169D01*
X139147171Y-111590582D01*
X139333991Y-111625501D01*
X139429018Y-111625500D01*
X139437304Y-111625500D01*
X140420760Y-111625500D01*
X140437196Y-111626577D01*
X140535385Y-111639507D01*
X140567139Y-111648016D01*
X140650939Y-111682730D01*
X140679419Y-111699175D01*
X140697460Y-111713019D01*
X140751369Y-111754387D01*
X140774624Y-111777642D01*
X140829837Y-111849599D01*
X140846280Y-111878080D01*
X140880985Y-111961867D01*
X140889498Y-111993639D01*
X140902440Y-112091951D01*
X140903518Y-112108396D01*
X140903518Y-112591742D01*
X140902440Y-112608188D01*
X140889515Y-112706365D01*
X140881002Y-112738137D01*
X140846294Y-112821930D01*
X140829849Y-112850414D01*
X140774639Y-112922368D01*
X140751380Y-112945627D01*
X140679426Y-113000841D01*
X140650943Y-113017287D01*
X140567156Y-113051996D01*
X140535384Y-113060511D01*
X140437340Y-113073422D01*
X140420890Y-113074500D01*
X125937277Y-113074500D01*
X125920834Y-113073422D01*
X125822647Y-113060498D01*
X125790875Y-113051986D01*
X125736361Y-113029407D01*
X125707083Y-113017281D01*
X125678598Y-113000836D01*
X125643548Y-112973942D01*
X125606642Y-112945624D01*
X125583387Y-112922370D01*
X125528171Y-112850413D01*
X125511725Y-112821928D01*
X125477014Y-112738131D01*
X125468504Y-112706369D01*
X125455595Y-112608314D01*
X125454517Y-112591869D01*
X125454517Y-112108257D01*
X125455595Y-112091812D01*
X125456011Y-112088645D01*
X125468520Y-111993631D01*
X125477030Y-111961872D01*
X125511741Y-111878076D01*
X125528180Y-111849601D01*
X125583402Y-111777637D01*
X125606654Y-111754387D01*
X125678608Y-111699178D01*
X125707092Y-111682732D01*
X125790883Y-111648027D01*
X125822649Y-111639516D01*
X125920964Y-111626576D01*
X125937403Y-111625500D01*
X126991764Y-111625500D01*
X126991769Y-111625498D01*
X127024043Y-111625498D01*
X127024046Y-111625498D01*
X127210852Y-111590575D01*
X127210852Y-111590574D01*
X127210857Y-111590574D01*
X127388074Y-111521917D01*
X127549657Y-111421866D01*
X127690106Y-111293828D01*
X127804636Y-111142164D01*
X127889348Y-110972036D01*
X127941357Y-110789240D01*
X127958893Y-110600000D01*
X127957914Y-110589438D01*
X127941357Y-110410765D01*
X127941357Y-110410760D01*
X127889348Y-110227963D01*
X127805017Y-110058602D01*
X127804636Y-110057836D01*
X127690106Y-109906172D01*
X127632317Y-109853490D01*
X127549657Y-109778134D01*
X127549657Y-109778133D01*
X127388081Y-109678087D01*
X127388072Y-109678082D01*
X127300672Y-109644222D01*
X127210857Y-109609426D01*
X127210855Y-109609425D01*
X127210851Y-109609424D01*
X127210853Y-109609424D01*
X127024042Y-109574501D01*
X127024048Y-109574501D01*
X126935563Y-109574500D01*
X126935562Y-109574500D01*
X122683285Y-109574500D01*
X122675000Y-109574500D01*
X122585280Y-109574500D01*
X122484396Y-109592289D01*
X122408560Y-109605661D01*
X122408559Y-109605661D01*
X122239956Y-109667027D01*
X122239945Y-109667033D01*
X122084553Y-109756748D01*
X122084551Y-109756750D01*
X121947092Y-109872092D01*
X121831750Y-110009551D01*
X121831748Y-110009553D01*
X121742033Y-110164945D01*
X121742027Y-110164956D01*
X121680661Y-110333559D01*
X121680661Y-110333560D01*
X121649500Y-110510282D01*
X121649500Y-127097404D01*
X121649392Y-127102611D01*
X121632725Y-127505584D01*
X121631865Y-127515963D01*
X121582298Y-127913604D01*
X121580584Y-127923875D01*
X121498352Y-128316063D01*
X121495796Y-128326158D01*
X121381453Y-128710228D01*
X121378071Y-128720078D01*
X121232409Y-129093375D01*
X121228226Y-129102912D01*
X121052230Y-129462918D01*
X121047274Y-129472076D01*
X120842154Y-129816313D01*
X120836458Y-129825032D01*
X120603609Y-130151157D01*
X120597213Y-130159375D01*
X120338218Y-130465170D01*
X120331164Y-130472831D01*
X120047831Y-130756164D01*
X120040170Y-130763218D01*
X119734375Y-131022213D01*
X119726157Y-131028609D01*
X119400032Y-131261458D01*
X119391313Y-131267154D01*
X119047076Y-131472274D01*
X119037918Y-131477230D01*
X118677912Y-131653226D01*
X118668375Y-131657409D01*
X118295078Y-131803071D01*
X118285228Y-131806453D01*
X117901158Y-131920796D01*
X117891063Y-131923352D01*
X117498875Y-132005584D01*
X117488604Y-132007298D01*
X117090963Y-132056865D01*
X117080584Y-132057725D01*
X116677611Y-132074392D01*
X116672404Y-132074500D01*
X109902596Y-132074500D01*
X109897389Y-132074392D01*
X109494415Y-132057725D01*
X109484036Y-132056865D01*
X109086395Y-132007298D01*
X109076124Y-132005584D01*
X108683936Y-131923352D01*
X108673841Y-131920796D01*
X108289771Y-131806453D01*
X108279921Y-131803071D01*
X107906624Y-131657409D01*
X107897087Y-131653226D01*
X107537081Y-131477230D01*
X107527923Y-131472274D01*
X107183686Y-131267154D01*
X107174967Y-131261458D01*
X107036940Y-131162909D01*
X106848833Y-131028602D01*
X106840633Y-131022220D01*
X106534829Y-130763218D01*
X106527168Y-130756164D01*
X106243835Y-130472831D01*
X106236781Y-130465170D01*
X106139876Y-130350754D01*
X105977776Y-130159363D01*
X105971400Y-130151169D01*
X105738541Y-129825032D01*
X105732845Y-129816313D01*
X105527725Y-129472076D01*
X105522769Y-129462918D01*
X105346773Y-129102912D01*
X105342590Y-129093375D01*
X105196928Y-128720078D01*
X105193546Y-128710228D01*
X105141433Y-128535183D01*
X105079199Y-128326144D01*
X105076650Y-128316076D01*
X104994414Y-127923871D01*
X104992701Y-127913604D01*
X104968836Y-127722149D01*
X104943132Y-127515946D01*
X104942275Y-127505599D01*
X104925608Y-127102611D01*
X104925500Y-127097404D01*
X104925500Y-125435015D01*
X111387600Y-125435015D01*
X111387600Y-125648984D01*
X111421072Y-125860329D01*
X111465153Y-125995995D01*
X111487194Y-126063829D01*
X111584336Y-126254481D01*
X111710107Y-126427590D01*
X111710109Y-126427592D01*
X111710111Y-126427595D01*
X111861404Y-126578888D01*
X111861407Y-126578890D01*
X111861410Y-126578893D01*
X112034519Y-126704664D01*
X112225171Y-126801806D01*
X112428673Y-126867928D01*
X112640013Y-126901400D01*
X112640015Y-126901400D01*
X112853985Y-126901400D01*
X112853987Y-126901400D01*
X113065327Y-126867928D01*
X113268829Y-126801806D01*
X113459481Y-126704664D01*
X113632590Y-126578893D01*
X113783893Y-126427590D01*
X113909664Y-126254481D01*
X114006806Y-126063829D01*
X114072928Y-125860327D01*
X114106400Y-125648987D01*
X114106400Y-125435013D01*
X114072928Y-125223673D01*
X114006806Y-125020171D01*
X113909664Y-124829519D01*
X113783893Y-124656410D01*
X113783890Y-124656407D01*
X113783888Y-124656404D01*
X113632595Y-124505111D01*
X113632592Y-124505109D01*
X113632590Y-124505107D01*
X113459481Y-124379336D01*
X113268829Y-124282194D01*
X113200995Y-124260153D01*
X113065329Y-124216072D01*
X112959657Y-124199336D01*
X112853987Y-124182600D01*
X112640013Y-124182600D01*
X112555477Y-124195988D01*
X112428670Y-124216072D01*
X112225171Y-124282194D01*
X112225169Y-124282195D01*
X112034515Y-124379338D01*
X111861407Y-124505109D01*
X111861404Y-124505111D01*
X111710111Y-124656404D01*
X111710109Y-124656407D01*
X111584338Y-124829515D01*
X111487195Y-125020169D01*
X111487194Y-125020171D01*
X111421072Y-125223670D01*
X111387600Y-125435015D01*
X104925500Y-125435015D01*
X104925500Y-120355055D01*
X111388100Y-120355055D01*
X111388100Y-120568944D01*
X111421562Y-120780215D01*
X111487656Y-120983632D01*
X111487661Y-120983644D01*
X111584762Y-121174217D01*
X111622974Y-121226812D01*
X111622975Y-121226812D01*
X112183722Y-120666065D01*
X112190777Y-120692395D01*
X112269361Y-120828505D01*
X112380495Y-120939639D01*
X112516605Y-121018223D01*
X112542931Y-121025277D01*
X111982186Y-121586022D01*
X111982186Y-121586023D01*
X112034779Y-121624234D01*
X112225361Y-121721340D01*
X112225367Y-121721343D01*
X112428786Y-121787437D01*
X112428782Y-121787437D01*
X112640055Y-121820900D01*
X112853945Y-121820900D01*
X113065215Y-121787437D01*
X113268632Y-121721343D01*
X113268638Y-121721340D01*
X113459218Y-121624235D01*
X113511812Y-121586023D01*
X112951067Y-121025277D01*
X112977395Y-121018223D01*
X113113505Y-120939639D01*
X113224639Y-120828505D01*
X113303223Y-120692395D01*
X113310277Y-120666066D01*
X113871023Y-121226812D01*
X113909235Y-121174218D01*
X114006340Y-120983638D01*
X114006343Y-120983632D01*
X114072437Y-120780215D01*
X114105900Y-120568944D01*
X114105900Y-120355055D01*
X114072437Y-120143784D01*
X114006343Y-119940367D01*
X114006340Y-119940361D01*
X113909234Y-119749779D01*
X113871023Y-119697186D01*
X113871022Y-119697186D01*
X113310277Y-120257931D01*
X113303223Y-120231605D01*
X113224639Y-120095495D01*
X113113505Y-119984361D01*
X112977395Y-119905777D01*
X112951066Y-119898722D01*
X113511812Y-119337975D01*
X113511812Y-119337974D01*
X113459217Y-119299762D01*
X113268644Y-119202661D01*
X113268632Y-119202656D01*
X113065213Y-119136562D01*
X113065217Y-119136562D01*
X112853945Y-119103100D01*
X112640055Y-119103100D01*
X112428784Y-119136562D01*
X112225367Y-119202656D01*
X112225355Y-119202661D01*
X112034788Y-119299759D01*
X112034776Y-119299767D01*
X111982185Y-119337975D01*
X112542932Y-119898722D01*
X112516605Y-119905777D01*
X112380495Y-119984361D01*
X112269361Y-120095495D01*
X112190777Y-120231605D01*
X112183722Y-120257932D01*
X111622975Y-119697185D01*
X111584767Y-119749776D01*
X111584759Y-119749788D01*
X111487661Y-119940355D01*
X111487656Y-119940367D01*
X111421562Y-120143784D01*
X111388100Y-120355055D01*
X104925500Y-120355055D01*
X104925500Y-119103100D01*
X104925500Y-114482450D01*
X111387600Y-114482450D01*
X111387600Y-116281549D01*
X111394109Y-116342096D01*
X111394111Y-116342104D01*
X111445210Y-116479102D01*
X111445212Y-116479107D01*
X111532838Y-116596161D01*
X111649892Y-116683787D01*
X111649894Y-116683788D01*
X111649896Y-116683789D01*
X111708975Y-116705824D01*
X111786895Y-116734888D01*
X111786903Y-116734890D01*
X111847450Y-116741399D01*
X111847455Y-116741399D01*
X111847462Y-116741400D01*
X111847468Y-116741400D01*
X113646532Y-116741400D01*
X113646538Y-116741400D01*
X113646545Y-116741399D01*
X113646549Y-116741399D01*
X113707096Y-116734890D01*
X113707099Y-116734889D01*
X113707101Y-116734889D01*
X113844104Y-116683789D01*
X113961161Y-116596161D01*
X114048789Y-116479104D01*
X114099889Y-116342101D01*
X114106400Y-116281538D01*
X114106400Y-114482462D01*
X114106399Y-114482450D01*
X114099890Y-114421903D01*
X114099888Y-114421895D01*
X114048789Y-114284897D01*
X114048787Y-114284892D01*
X113961161Y-114167838D01*
X113844107Y-114080212D01*
X113844102Y-114080210D01*
X113707104Y-114029111D01*
X113707096Y-114029109D01*
X113646549Y-114022600D01*
X113646538Y-114022600D01*
X111847462Y-114022600D01*
X111847450Y-114022600D01*
X111786903Y-114029109D01*
X111786895Y-114029111D01*
X111649897Y-114080210D01*
X111649892Y-114080212D01*
X111532838Y-114167838D01*
X111445212Y-114284892D01*
X111445210Y-114284897D01*
X111394111Y-114421895D01*
X111394109Y-114421903D01*
X111387600Y-114482450D01*
X104925500Y-114482450D01*
X104925500Y-110172942D01*
X104925536Y-110170024D01*
X104943369Y-109441687D01*
X104943668Y-109435574D01*
X104997012Y-108710539D01*
X104997610Y-108704444D01*
X105086375Y-107982887D01*
X105087276Y-107976802D01*
X105101376Y-107895335D01*
X105120289Y-107786051D01*
X108058139Y-107786051D01*
X108078948Y-107930785D01*
X108139691Y-108063794D01*
X108177911Y-108111223D01*
X108177916Y-108111228D01*
X108177925Y-108111238D01*
X109448761Y-109382074D01*
X109448770Y-109382082D01*
X109448777Y-109382089D01*
X109496206Y-109420309D01*
X109629215Y-109481052D01*
X109773949Y-109501861D01*
X109918683Y-109481052D01*
X110051692Y-109420309D01*
X110099121Y-109382089D01*
X111369987Y-108111223D01*
X111408207Y-108063794D01*
X111468950Y-107930785D01*
X111489759Y-107786051D01*
X111468950Y-107641317D01*
X111416670Y-107526841D01*
X111406568Y-107456568D01*
X111436061Y-107391987D01*
X111495787Y-107353604D01*
X111531285Y-107348500D01*
X111676913Y-107348500D01*
X111676916Y-107348500D01*
X111888116Y-107315049D01*
X112091483Y-107248972D01*
X112282009Y-107151894D01*
X112455004Y-107026206D01*
X112606206Y-106875004D01*
X112671278Y-106785438D01*
X112727500Y-106742085D01*
X112773214Y-106733500D01*
X114530591Y-106733500D01*
X114530592Y-106733500D01*
X114652983Y-106709155D01*
X114768273Y-106661400D01*
X114872031Y-106592071D01*
X115702957Y-105761144D01*
X115765267Y-105727120D01*
X115805533Y-105730000D01*
X116777297Y-105730000D01*
X116742075Y-105791007D01*
X116708000Y-105918174D01*
X116708000Y-106049826D01*
X116742075Y-106176993D01*
X116777297Y-106238000D01*
X115850000Y-106238000D01*
X115850000Y-106882597D01*
X115856505Y-106943093D01*
X115907555Y-107079964D01*
X115907555Y-107079965D01*
X115995095Y-107196904D01*
X116112034Y-107284444D01*
X116248906Y-107335494D01*
X116309402Y-107341999D01*
X116309415Y-107342000D01*
X116954000Y-107342000D01*
X116954000Y-106414702D01*
X117015007Y-106449925D01*
X117142174Y-106484000D01*
X117273826Y-106484000D01*
X117400993Y-106449925D01*
X117462000Y-106414702D01*
X117462000Y-107342000D01*
X118106585Y-107342000D01*
X118106597Y-107341999D01*
X118167093Y-107335494D01*
X118303964Y-107284444D01*
X118303965Y-107284444D01*
X118420904Y-107196904D01*
X118508444Y-107079965D01*
X118508444Y-107079964D01*
X118559494Y-106943094D01*
X118559496Y-106943087D01*
X118564017Y-106901019D01*
X118560677Y-106838705D01*
X118594205Y-106778583D01*
X119263841Y-106108947D01*
X119282075Y-106176993D01*
X119347901Y-106291007D01*
X119440993Y-106384099D01*
X119555007Y-106449925D01*
X119623050Y-106468157D01*
X118983830Y-107107377D01*
X118983831Y-107107378D01*
X119036249Y-107145463D01*
X119036251Y-107145464D01*
X119226707Y-107242506D01*
X119226713Y-107242509D01*
X119434709Y-107310091D01*
X119433958Y-107312401D01*
X119486877Y-107342749D01*
X119519593Y-107405759D01*
X119513050Y-107476453D01*
X119485035Y-107519059D01*
X119149499Y-107854595D01*
X119087187Y-107888621D01*
X119060404Y-107891500D01*
X118910518Y-107891500D01*
X118779771Y-107917507D01*
X118735000Y-107926413D01*
X118734999Y-107926413D01*
X118734996Y-107926414D01*
X118569662Y-107994899D01*
X118420869Y-108094319D01*
X118420862Y-108094324D01*
X118294324Y-108220862D01*
X118294319Y-108220869D01*
X118194899Y-108369662D01*
X118126414Y-108534996D01*
X118091500Y-108710518D01*
X118091500Y-108710521D01*
X118091500Y-108889479D01*
X118126413Y-109065000D01*
X118194898Y-109230336D01*
X118294322Y-109379135D01*
X118420865Y-109505678D01*
X118569664Y-109605102D01*
X118735000Y-109673587D01*
X118910521Y-109708500D01*
X118910522Y-109708500D01*
X119089478Y-109708500D01*
X119089479Y-109708500D01*
X119265000Y-109673587D01*
X119430336Y-109605102D01*
X119579135Y-109505678D01*
X119705678Y-109379135D01*
X119805102Y-109230336D01*
X119873587Y-109065000D01*
X119901559Y-108924372D01*
X119934467Y-108861464D01*
X119935934Y-108859969D01*
X120525501Y-108270402D01*
X120587811Y-108236379D01*
X120614594Y-108233500D01*
X125462393Y-108233500D01*
X125462394Y-108233500D01*
X125584785Y-108209155D01*
X125700075Y-108161400D01*
X125803833Y-108092071D01*
X128625500Y-105270405D01*
X128687812Y-105236379D01*
X128714595Y-105233500D01*
X132562393Y-105233500D01*
X132562394Y-105233500D01*
X132684785Y-105209155D01*
X132800075Y-105161400D01*
X132903833Y-105092071D01*
X135072307Y-102923597D01*
X144642000Y-102923597D01*
X144648505Y-102984093D01*
X144699555Y-103120964D01*
X144699555Y-103120965D01*
X144787095Y-103237904D01*
X144904034Y-103325444D01*
X145040906Y-103376494D01*
X145101402Y-103382999D01*
X145101415Y-103383000D01*
X145396000Y-103383000D01*
X145904000Y-103383000D01*
X146198585Y-103383000D01*
X146198597Y-103382999D01*
X146259093Y-103376494D01*
X146395964Y-103325444D01*
X146395965Y-103325444D01*
X146512904Y-103237904D01*
X146600444Y-103120965D01*
X146600444Y-103120964D01*
X146651494Y-102984093D01*
X146657999Y-102923597D01*
X146658000Y-102923585D01*
X146658000Y-101729000D01*
X145904000Y-101729000D01*
X145904000Y-103383000D01*
X145396000Y-103383000D01*
X145396000Y-101729000D01*
X144642000Y-101729000D01*
X144642000Y-102923597D01*
X135072307Y-102923597D01*
X135892071Y-102103833D01*
X135961400Y-102000075D01*
X136009155Y-101884785D01*
X136033500Y-101762394D01*
X136033500Y-101637607D01*
X136033500Y-101203503D01*
X136053502Y-101135382D01*
X136070405Y-101114408D01*
X136084813Y-101100000D01*
X136105678Y-101079135D01*
X136205102Y-100930336D01*
X136273587Y-100765000D01*
X136308500Y-100589479D01*
X136308500Y-100484500D01*
X136328502Y-100416379D01*
X136382158Y-100369886D01*
X136434500Y-100358500D01*
X144516000Y-100358500D01*
X144584121Y-100378502D01*
X144630614Y-100432158D01*
X144642000Y-100484500D01*
X144642000Y-101221000D01*
X146658000Y-101221000D01*
X146658000Y-100484500D01*
X146678002Y-100416379D01*
X146731658Y-100369886D01*
X146784000Y-100358500D01*
X147337393Y-100358500D01*
X147337394Y-100358500D01*
X147459785Y-100334155D01*
X147575075Y-100286400D01*
X147678833Y-100217071D01*
X148350499Y-99545405D01*
X148370590Y-99534434D01*
X148387988Y-99519553D01*
X148404201Y-99516080D01*
X148412811Y-99511379D01*
X148422463Y-99509670D01*
X148430988Y-99508500D01*
X148489479Y-99508500D01*
X148619637Y-99482610D01*
X148623369Y-99482098D01*
X148654890Y-99486836D01*
X148686632Y-99489677D01*
X148689714Y-99492071D01*
X148693576Y-99492652D01*
X148717537Y-99513684D01*
X148742699Y-99533231D01*
X148743997Y-99536911D01*
X148746933Y-99539488D01*
X148755717Y-99570133D01*
X148766319Y-99600183D01*
X148766500Y-99606928D01*
X148766500Y-99696838D01*
X148746498Y-99764959D01*
X148741368Y-99772347D01*
X148699112Y-99828792D01*
X148699110Y-99828797D01*
X148648011Y-99965795D01*
X148648009Y-99965803D01*
X148641500Y-100026350D01*
X148641500Y-102923649D01*
X148648009Y-102984196D01*
X148648011Y-102984204D01*
X148699110Y-103121202D01*
X148699112Y-103121207D01*
X148786738Y-103238261D01*
X148903792Y-103325887D01*
X148903794Y-103325888D01*
X148903796Y-103325889D01*
X148962875Y-103347924D01*
X149040795Y-103376988D01*
X149040803Y-103376990D01*
X149101350Y-103383499D01*
X149101355Y-103383499D01*
X149101362Y-103383500D01*
X149460406Y-103383500D01*
X149528527Y-103403502D01*
X149549501Y-103420405D01*
X150471167Y-104342071D01*
X150562537Y-104403122D01*
X150568069Y-104406819D01*
X150613597Y-104461296D01*
X150622445Y-104531739D01*
X150591803Y-104595783D01*
X150531402Y-104633094D01*
X150517778Y-104636033D01*
X150369996Y-104659440D01*
X150166713Y-104725490D01*
X150166707Y-104725493D01*
X149976253Y-104822534D01*
X149923831Y-104860621D01*
X149923831Y-104860622D01*
X150563051Y-105499842D01*
X150495007Y-105518075D01*
X150380993Y-105583901D01*
X150287901Y-105676993D01*
X150222075Y-105791007D01*
X150203842Y-105859051D01*
X149564622Y-105219831D01*
X149564621Y-105219831D01*
X149526522Y-105272269D01*
X149525422Y-105274065D01*
X149524827Y-105274603D01*
X149523624Y-105276259D01*
X149523275Y-105276006D01*
X149472768Y-105321689D01*
X149402725Y-105333286D01*
X149337531Y-105305174D01*
X149312440Y-105276211D01*
X149312376Y-105276258D01*
X149311830Y-105275506D01*
X149310563Y-105274044D01*
X149309462Y-105272248D01*
X149271378Y-105219831D01*
X148632157Y-105859051D01*
X148613925Y-105791007D01*
X148548099Y-105676993D01*
X148455007Y-105583901D01*
X148340993Y-105518075D01*
X148272947Y-105499841D01*
X148912168Y-104860621D01*
X148912167Y-104860620D01*
X148859750Y-104822536D01*
X148859748Y-104822535D01*
X148669292Y-104725493D01*
X148669286Y-104725490D01*
X148466003Y-104659440D01*
X148254874Y-104626000D01*
X148041126Y-104626000D01*
X147829996Y-104659440D01*
X147626713Y-104725490D01*
X147626707Y-104725493D01*
X147436253Y-104822534D01*
X147383831Y-104860621D01*
X147383831Y-104860622D01*
X148023051Y-105499842D01*
X147955007Y-105518075D01*
X147840993Y-105583901D01*
X147747901Y-105676993D01*
X147682075Y-105791007D01*
X147663842Y-105859051D01*
X147024622Y-105219831D01*
X147024621Y-105219831D01*
X146986534Y-105272253D01*
X146889493Y-105462707D01*
X146889490Y-105462713D01*
X146823440Y-105665996D01*
X146790000Y-105877126D01*
X146790000Y-106090873D01*
X146823440Y-106302003D01*
X146889490Y-106505286D01*
X146889493Y-106505292D01*
X146986535Y-106695748D01*
X146986536Y-106695750D01*
X147024620Y-106748167D01*
X147024621Y-106748168D01*
X147663841Y-106108947D01*
X147682075Y-106176993D01*
X147747901Y-106291007D01*
X147840993Y-106384099D01*
X147955007Y-106449925D01*
X148023051Y-106468157D01*
X147383831Y-107107378D01*
X147436249Y-107145463D01*
X147436251Y-107145464D01*
X147626707Y-107242506D01*
X147626713Y-107242509D01*
X147829996Y-107308559D01*
X148041126Y-107342000D01*
X148254874Y-107342000D01*
X148466003Y-107308559D01*
X148669286Y-107242509D01*
X148669292Y-107242506D01*
X148859750Y-107145463D01*
X148912167Y-107107378D01*
X148912167Y-107107376D01*
X148272948Y-106468157D01*
X148340993Y-106449925D01*
X148455007Y-106384099D01*
X148548099Y-106291007D01*
X148613925Y-106176993D01*
X148632157Y-106108948D01*
X149271376Y-106748167D01*
X149271378Y-106748167D01*
X149309463Y-106695750D01*
X149310562Y-106693958D01*
X149311158Y-106693418D01*
X149312377Y-106691741D01*
X149312729Y-106691996D01*
X149363206Y-106646322D01*
X149433246Y-106634710D01*
X149498446Y-106662808D01*
X149523559Y-106691788D01*
X149523624Y-106691742D01*
X149524165Y-106692487D01*
X149525433Y-106693950D01*
X149526535Y-106695749D01*
X149564620Y-106748167D01*
X149564621Y-106748168D01*
X150203841Y-106108947D01*
X150222075Y-106176993D01*
X150287901Y-106291007D01*
X150380993Y-106384099D01*
X150495007Y-106449925D01*
X150563051Y-106468157D01*
X149923831Y-107107378D01*
X149976249Y-107145463D01*
X149976251Y-107145464D01*
X150166707Y-107242506D01*
X150166713Y-107242509D01*
X150369996Y-107308559D01*
X150581126Y-107342000D01*
X150794874Y-107342000D01*
X151006003Y-107308559D01*
X151209286Y-107242509D01*
X151209292Y-107242506D01*
X151399750Y-107145463D01*
X151452167Y-107107378D01*
X151452167Y-107107376D01*
X150812948Y-106468157D01*
X150880993Y-106449925D01*
X150995007Y-106384099D01*
X151088099Y-106291007D01*
X151153925Y-106176993D01*
X151172157Y-106108948D01*
X151811376Y-106748167D01*
X151811378Y-106748167D01*
X151849463Y-106695750D01*
X151850562Y-106693958D01*
X151851158Y-106693418D01*
X151852377Y-106691741D01*
X151852729Y-106691996D01*
X151903206Y-106646322D01*
X151973246Y-106634710D01*
X152038446Y-106662808D01*
X152063559Y-106691788D01*
X152063624Y-106691742D01*
X152064165Y-106692487D01*
X152065433Y-106693950D01*
X152066535Y-106695749D01*
X152104620Y-106748167D01*
X152104621Y-106748168D01*
X152743841Y-106108947D01*
X152762075Y-106176993D01*
X152827901Y-106291007D01*
X152920993Y-106384099D01*
X153035007Y-106449925D01*
X153103051Y-106468157D01*
X152463831Y-107107378D01*
X152516249Y-107145463D01*
X152516251Y-107145464D01*
X152706707Y-107242506D01*
X152706713Y-107242509D01*
X152909996Y-107308559D01*
X153121126Y-107342000D01*
X153334874Y-107342000D01*
X153546003Y-107308559D01*
X153749286Y-107242509D01*
X153749292Y-107242506D01*
X153939750Y-107145463D01*
X153992167Y-107107378D01*
X153992167Y-107107376D01*
X153352948Y-106468157D01*
X153420993Y-106449925D01*
X153535007Y-106384099D01*
X153628099Y-106291007D01*
X153693925Y-106176993D01*
X153712157Y-106108948D01*
X154381794Y-106778585D01*
X154415820Y-106840897D01*
X154412030Y-106901471D01*
X154416505Y-106943093D01*
X154467555Y-107079964D01*
X154467555Y-107079965D01*
X154555095Y-107196904D01*
X154672034Y-107284444D01*
X154808906Y-107335494D01*
X154869402Y-107341999D01*
X154869415Y-107342000D01*
X155514000Y-107342000D01*
X155514000Y-106414702D01*
X155575007Y-106449925D01*
X155702174Y-106484000D01*
X155833826Y-106484000D01*
X155960993Y-106449925D01*
X156022000Y-106414702D01*
X156022000Y-107342000D01*
X156666585Y-107342000D01*
X156666597Y-107341999D01*
X156727093Y-107335494D01*
X156863964Y-107284444D01*
X156863965Y-107284444D01*
X156980904Y-107196904D01*
X157068444Y-107079965D01*
X157068444Y-107079964D01*
X157119494Y-106943093D01*
X157125999Y-106882597D01*
X157126000Y-106882585D01*
X157126000Y-106238000D01*
X156198703Y-106238000D01*
X156233925Y-106176993D01*
X156268000Y-106049826D01*
X156268000Y-105918174D01*
X156233925Y-105791007D01*
X156198703Y-105730000D01*
X157126000Y-105730000D01*
X157126000Y-105085414D01*
X157125999Y-105085402D01*
X157119494Y-105024906D01*
X157068444Y-104888035D01*
X157068444Y-104888034D01*
X156980904Y-104771095D01*
X156899782Y-104710368D01*
X156857235Y-104653532D01*
X156852171Y-104582716D01*
X156886196Y-104520404D01*
X156948508Y-104486379D01*
X156975291Y-104483500D01*
X157946497Y-104483500D01*
X158014618Y-104503502D01*
X158035591Y-104520404D01*
X158070865Y-104555678D01*
X158219664Y-104655102D01*
X158385000Y-104723587D01*
X158560521Y-104758500D01*
X158560522Y-104758500D01*
X158739478Y-104758500D01*
X158739479Y-104758500D01*
X158915000Y-104723587D01*
X159080336Y-104655102D01*
X159229135Y-104555678D01*
X159355678Y-104429135D01*
X159455102Y-104280336D01*
X159523587Y-104115000D01*
X159558500Y-103939479D01*
X159558500Y-103760521D01*
X159523587Y-103585000D01*
X159455102Y-103419664D01*
X159355678Y-103270865D01*
X159229135Y-103144322D01*
X159080336Y-103044898D01*
X158922682Y-102979595D01*
X158915003Y-102976414D01*
X158915001Y-102976413D01*
X158915000Y-102976413D01*
X158826645Y-102958838D01*
X158739481Y-102941500D01*
X158739479Y-102941500D01*
X158560521Y-102941500D01*
X158560518Y-102941500D01*
X158429771Y-102967507D01*
X158385000Y-102976413D01*
X158384999Y-102976413D01*
X158384996Y-102976414D01*
X158288222Y-103016500D01*
X158250670Y-103032055D01*
X158219662Y-103044899D01*
X158070869Y-103144319D01*
X158070862Y-103144324D01*
X158035592Y-103179595D01*
X157973280Y-103213621D01*
X157946497Y-103216500D01*
X157496286Y-103216500D01*
X157428165Y-103196498D01*
X157381672Y-103142842D01*
X157371568Y-103072568D01*
X157378230Y-103046467D01*
X157401494Y-102984092D01*
X157407999Y-102923597D01*
X157408000Y-102923585D01*
X157408000Y-101729000D01*
X155392000Y-101729000D01*
X155392000Y-102923597D01*
X155398505Y-102984092D01*
X155421770Y-103046467D01*
X155426835Y-103117283D01*
X155392810Y-103179595D01*
X155330498Y-103213620D01*
X155303714Y-103216500D01*
X153496820Y-103216500D01*
X153428699Y-103196498D01*
X153382206Y-103142842D01*
X153372102Y-103072568D01*
X153378765Y-103046467D01*
X153401988Y-102984204D01*
X153401990Y-102984196D01*
X153408499Y-102923649D01*
X153408500Y-102923632D01*
X153408500Y-100026402D01*
X155392000Y-100026402D01*
X155392000Y-101221000D01*
X156146000Y-101221000D01*
X156654000Y-101221000D01*
X157408000Y-101221000D01*
X157408000Y-100026414D01*
X157407999Y-100026402D01*
X157401494Y-99965906D01*
X157350444Y-99829035D01*
X157350444Y-99829034D01*
X157262904Y-99712095D01*
X157145965Y-99624555D01*
X157009093Y-99573505D01*
X156948597Y-99567000D01*
X156654000Y-99567000D01*
X156654000Y-101221000D01*
X156146000Y-101221000D01*
X156146000Y-99567000D01*
X155851402Y-99567000D01*
X155790906Y-99573505D01*
X155654035Y-99624555D01*
X155654034Y-99624555D01*
X155537095Y-99712095D01*
X155449555Y-99829034D01*
X155449555Y-99829035D01*
X155398505Y-99965906D01*
X155392000Y-100026402D01*
X153408500Y-100026402D01*
X153408500Y-100026367D01*
X153408499Y-100026350D01*
X153401990Y-99965803D01*
X153401988Y-99965795D01*
X153350978Y-99829035D01*
X153350889Y-99828796D01*
X153350888Y-99828794D01*
X153350887Y-99828792D01*
X153263261Y-99711738D01*
X153146207Y-99624112D01*
X153146204Y-99624111D01*
X153115466Y-99612646D01*
X153058631Y-99570099D01*
X153033821Y-99503578D01*
X153033500Y-99494591D01*
X153033500Y-98412002D01*
X153053502Y-98343881D01*
X153107158Y-98297388D01*
X153177432Y-98287284D01*
X153242012Y-98316778D01*
X153275909Y-98363783D01*
X153276412Y-98364999D01*
X153276413Y-98365000D01*
X153344898Y-98530336D01*
X153444322Y-98679135D01*
X153570865Y-98805678D01*
X153719664Y-98905102D01*
X153885000Y-98973587D01*
X154060521Y-99008500D01*
X154060522Y-99008500D01*
X154239478Y-99008500D01*
X154239479Y-99008500D01*
X154415000Y-98973587D01*
X154580336Y-98905102D01*
X154729135Y-98805678D01*
X154764408Y-98770405D01*
X154826720Y-98736379D01*
X154853503Y-98733500D01*
X160209504Y-98733500D01*
X160277625Y-98753502D01*
X160324118Y-98807158D01*
X160334222Y-98877432D01*
X160327864Y-98900610D01*
X160328369Y-98900774D01*
X160270515Y-99078828D01*
X160242000Y-99258866D01*
X160242000Y-99441133D01*
X160270515Y-99621171D01*
X160326837Y-99794513D01*
X160326840Y-99794519D01*
X160409588Y-99956923D01*
X160419804Y-99970985D01*
X161000000Y-99390789D01*
X161000000Y-99402661D01*
X161027259Y-99504394D01*
X161079920Y-99595606D01*
X161154394Y-99670080D01*
X161245606Y-99722741D01*
X161347339Y-99750000D01*
X161359210Y-99750000D01*
X160948556Y-100160652D01*
X160916665Y-100183822D01*
X160740401Y-100273634D01*
X160580139Y-100390071D01*
X160440071Y-100530139D01*
X160323636Y-100690398D01*
X160323634Y-100690402D01*
X160233702Y-100866903D01*
X160172488Y-101055300D01*
X160141500Y-101250954D01*
X160141500Y-101449046D01*
X160172488Y-101644700D01*
X160233702Y-101833097D01*
X160318794Y-102000099D01*
X160323636Y-102009601D01*
X160440071Y-102169860D01*
X160580139Y-102309928D01*
X160580142Y-102309930D01*
X160740402Y-102426366D01*
X160916903Y-102516298D01*
X161105300Y-102577512D01*
X161300954Y-102608500D01*
X161300957Y-102608500D01*
X161499043Y-102608500D01*
X161499046Y-102608500D01*
X161694700Y-102577512D01*
X161883097Y-102516298D01*
X162059598Y-102426366D01*
X162219858Y-102309930D01*
X162359930Y-102169858D01*
X162476366Y-102009598D01*
X162566298Y-101833097D01*
X162627512Y-101644700D01*
X162658500Y-101449046D01*
X162658500Y-101250954D01*
X162627512Y-101055300D01*
X162566298Y-100866903D01*
X162476366Y-100690402D01*
X162359930Y-100530142D01*
X162359928Y-100530139D01*
X162219860Y-100390071D01*
X162059601Y-100273636D01*
X162059600Y-100273635D01*
X162059598Y-100273634D01*
X161883330Y-100183821D01*
X161851439Y-100160650D01*
X161440790Y-99750000D01*
X161452661Y-99750000D01*
X161554394Y-99722741D01*
X161645606Y-99670080D01*
X161720080Y-99595606D01*
X161772741Y-99504394D01*
X161800000Y-99402661D01*
X161800000Y-99390791D01*
X162380193Y-99970984D01*
X162380195Y-99970984D01*
X162390408Y-99956928D01*
X162473159Y-99794519D01*
X162473162Y-99794513D01*
X162529484Y-99621171D01*
X162558000Y-99441133D01*
X162558000Y-99258866D01*
X162529484Y-99078828D01*
X162473162Y-98905486D01*
X162473159Y-98905480D01*
X162390412Y-98743078D01*
X162380194Y-98729014D01*
X161800000Y-99309208D01*
X161800000Y-99297339D01*
X161772741Y-99195606D01*
X161720080Y-99104394D01*
X161645606Y-99029920D01*
X161554394Y-98977259D01*
X161452661Y-98950000D01*
X161440790Y-98950000D01*
X162033216Y-98357573D01*
X162038211Y-98333791D01*
X162075165Y-98291447D01*
X162154712Y-98233654D01*
X162283654Y-98104712D01*
X162390838Y-97957186D01*
X162473624Y-97794710D01*
X162529974Y-97621283D01*
X162558500Y-97441176D01*
X162558500Y-97258824D01*
X162529974Y-97078717D01*
X162473624Y-96905290D01*
X162390838Y-96742814D01*
X162283654Y-96595288D01*
X162283651Y-96595285D01*
X162283649Y-96595282D01*
X162154718Y-96466351D01*
X162154714Y-96466348D01*
X162154712Y-96466346D01*
X162092344Y-96421033D01*
X162048992Y-96364811D01*
X162042917Y-96294075D01*
X162076049Y-96231283D01*
X162092339Y-96217167D01*
X162122139Y-96195517D01*
X162245517Y-96072139D01*
X162348074Y-95930981D01*
X162427288Y-95775516D01*
X162481205Y-95609574D01*
X162508500Y-95437241D01*
X162508500Y-95262759D01*
X162481205Y-95090426D01*
X162427288Y-94924484D01*
X162348074Y-94769019D01*
X162245517Y-94627861D01*
X162245514Y-94627858D01*
X162245512Y-94627855D01*
X162154894Y-94537237D01*
X162120868Y-94474925D01*
X162125933Y-94404110D01*
X162168480Y-94347274D01*
X162169928Y-94346206D01*
X162219858Y-94309930D01*
X162359930Y-94169858D01*
X162476366Y-94009598D01*
X162566298Y-93833097D01*
X162627512Y-93644700D01*
X162658500Y-93449046D01*
X162658500Y-93250954D01*
X162627512Y-93055300D01*
X162566298Y-92866903D01*
X162476366Y-92690402D01*
X162436414Y-92635413D01*
X162359928Y-92530139D01*
X162219860Y-92390071D01*
X162059601Y-92273636D01*
X162059600Y-92273635D01*
X162059598Y-92273634D01*
X161883097Y-92183702D01*
X161694700Y-92122488D01*
X161499046Y-92091500D01*
X161300954Y-92091500D01*
X161105300Y-92122488D01*
X161105297Y-92122488D01*
X161105296Y-92122489D01*
X160916903Y-92183702D01*
X160916901Y-92183703D01*
X160740398Y-92273636D01*
X160580139Y-92390071D01*
X160440071Y-92530139D01*
X160323636Y-92690398D01*
X160323634Y-92690402D01*
X160233702Y-92866903D01*
X160172488Y-93055300D01*
X160141500Y-93250954D01*
X160141500Y-93449046D01*
X160172488Y-93644700D01*
X160233702Y-93833097D01*
X160300729Y-93964644D01*
X160323636Y-94009601D01*
X160440071Y-94169860D01*
X160580135Y-94309924D01*
X160580138Y-94309926D01*
X160580142Y-94309930D01*
X160630072Y-94346206D01*
X160673425Y-94402429D01*
X160679500Y-94473165D01*
X160646368Y-94535957D01*
X160645106Y-94537237D01*
X160554483Y-94627860D01*
X160451928Y-94769015D01*
X160372713Y-94924482D01*
X160372710Y-94924488D01*
X160318796Y-95090422D01*
X160318795Y-95090426D01*
X160291500Y-95262759D01*
X160291500Y-95437241D01*
X160318795Y-95609574D01*
X160372712Y-95775516D01*
X160451926Y-95930981D01*
X160554483Y-96072139D01*
X160554485Y-96072141D01*
X160554487Y-96072144D01*
X160677855Y-96195512D01*
X160677858Y-96195514D01*
X160677861Y-96195517D01*
X160707653Y-96217162D01*
X160751007Y-96273384D01*
X160757082Y-96344120D01*
X160723951Y-96406912D01*
X160707654Y-96421033D01*
X160645288Y-96466345D01*
X160645282Y-96466350D01*
X160516350Y-96595282D01*
X160516348Y-96595285D01*
X160409164Y-96742810D01*
X160326374Y-96905293D01*
X160270027Y-97078711D01*
X160270026Y-97078716D01*
X160270026Y-97078717D01*
X160246634Y-97226414D01*
X160241500Y-97258827D01*
X160241500Y-97340500D01*
X160221498Y-97408621D01*
X160167842Y-97455114D01*
X160115500Y-97466500D01*
X157477637Y-97466500D01*
X157409516Y-97446498D01*
X157363023Y-97392842D01*
X157352919Y-97322568D01*
X157359581Y-97296467D01*
X157401494Y-97184092D01*
X157407999Y-97123597D01*
X157408000Y-97123585D01*
X157408000Y-95929000D01*
X155392000Y-95929000D01*
X155392000Y-97123597D01*
X155398505Y-97184092D01*
X155440419Y-97296467D01*
X155445484Y-97367283D01*
X155411459Y-97429595D01*
X155349146Y-97463620D01*
X155322363Y-97466500D01*
X154853503Y-97466500D01*
X154785382Y-97446498D01*
X154764408Y-97429595D01*
X154729137Y-97394324D01*
X154729135Y-97394322D01*
X154580336Y-97294898D01*
X154428510Y-97232009D01*
X154415003Y-97226414D01*
X154415001Y-97226413D01*
X154415000Y-97226413D01*
X154326645Y-97208838D01*
X154239481Y-97191500D01*
X154239479Y-97191500D01*
X154060521Y-97191500D01*
X154060518Y-97191500D01*
X153929771Y-97217507D01*
X153885000Y-97226413D01*
X153884999Y-97226413D01*
X153884996Y-97226414D01*
X153719663Y-97294898D01*
X153565947Y-97397607D01*
X153498194Y-97418821D01*
X153429727Y-97400037D01*
X153382284Y-97347220D01*
X153370928Y-97277137D01*
X153377889Y-97248814D01*
X153401989Y-97184201D01*
X153408500Y-97123638D01*
X153408500Y-94226402D01*
X155392000Y-94226402D01*
X155392000Y-95421000D01*
X156146000Y-95421000D01*
X156654000Y-95421000D01*
X157408000Y-95421000D01*
X157408000Y-94226414D01*
X157407999Y-94226402D01*
X157401494Y-94165906D01*
X157350444Y-94029035D01*
X157350444Y-94029034D01*
X157262904Y-93912095D01*
X157145965Y-93824555D01*
X157009093Y-93773505D01*
X156948597Y-93767000D01*
X156654000Y-93767000D01*
X156654000Y-95421000D01*
X156146000Y-95421000D01*
X156146000Y-93767000D01*
X155851402Y-93767000D01*
X155790906Y-93773505D01*
X155654035Y-93824555D01*
X155654034Y-93824555D01*
X155537095Y-93912095D01*
X155449555Y-94029034D01*
X155449555Y-94029035D01*
X155398505Y-94165906D01*
X155392000Y-94226402D01*
X153408500Y-94226402D01*
X153408500Y-94226362D01*
X153408499Y-94226350D01*
X153401990Y-94165803D01*
X153401988Y-94165795D01*
X153350978Y-94029035D01*
X153350889Y-94028796D01*
X153350888Y-94028794D01*
X153350887Y-94028792D01*
X153263261Y-93911738D01*
X153146207Y-93824112D01*
X153146202Y-93824110D01*
X153009204Y-93773011D01*
X153009196Y-93773009D01*
X152948649Y-93766500D01*
X152948638Y-93766500D01*
X151851362Y-93766500D01*
X151851350Y-93766500D01*
X151790803Y-93773009D01*
X151790795Y-93773011D01*
X151653797Y-93824110D01*
X151653793Y-93824112D01*
X151621797Y-93848064D01*
X151555276Y-93872874D01*
X151485902Y-93857782D01*
X151457194Y-93836290D01*
X150978835Y-93357931D01*
X150978833Y-93357929D01*
X150875075Y-93288600D01*
X150759785Y-93240845D01*
X150686086Y-93226185D01*
X150637396Y-93216500D01*
X150637394Y-93216500D01*
X145585579Y-93216500D01*
X145517458Y-93196498D01*
X145470965Y-93142842D01*
X145465593Y-93126206D01*
X145464874Y-93126425D01*
X145463082Y-93120519D01*
X145463080Y-93120509D01*
X145394595Y-92955173D01*
X145295171Y-92806374D01*
X145168628Y-92679831D01*
X145019829Y-92580407D01*
X144898472Y-92530139D01*
X144854496Y-92511923D01*
X144854494Y-92511922D01*
X144854493Y-92511922D01*
X144766138Y-92494347D01*
X144678974Y-92477009D01*
X144678972Y-92477009D01*
X144500014Y-92477009D01*
X144500011Y-92477009D01*
X144369264Y-92503016D01*
X144324493Y-92511922D01*
X144324492Y-92511922D01*
X144324489Y-92511923D01*
X144159155Y-92580408D01*
X144010362Y-92679828D01*
X144010355Y-92679833D01*
X143883817Y-92806371D01*
X143883812Y-92806378D01*
X143784392Y-92955171D01*
X143715907Y-93120505D01*
X143680993Y-93296027D01*
X143680993Y-93296030D01*
X143680993Y-93474988D01*
X143715906Y-93650509D01*
X143784391Y-93815845D01*
X143883815Y-93964644D01*
X144010358Y-94091187D01*
X144159157Y-94190611D01*
X144324493Y-94259096D01*
X144500014Y-94294009D01*
X144500015Y-94294009D01*
X144516000Y-94294009D01*
X144584121Y-94314011D01*
X144630614Y-94367667D01*
X144642000Y-94420009D01*
X144642000Y-95421000D01*
X146658000Y-95421000D01*
X146658000Y-94609500D01*
X146678002Y-94541379D01*
X146731658Y-94494886D01*
X146784000Y-94483500D01*
X148515500Y-94483500D01*
X148583621Y-94503502D01*
X148630114Y-94557158D01*
X148641500Y-94609500D01*
X148641500Y-97123649D01*
X148648009Y-97184196D01*
X148648011Y-97184204D01*
X148699109Y-97321201D01*
X148699110Y-97321202D01*
X148699111Y-97321204D01*
X148719533Y-97348484D01*
X148741368Y-97377652D01*
X148749231Y-97398735D01*
X148761396Y-97417663D01*
X148764598Y-97439933D01*
X148766179Y-97444172D01*
X148766500Y-97453161D01*
X148766500Y-97593071D01*
X148746498Y-97661192D01*
X148692842Y-97707685D01*
X148622568Y-97717789D01*
X148615919Y-97716650D01*
X148489484Y-97691500D01*
X148489479Y-97691500D01*
X148310521Y-97691500D01*
X148310518Y-97691500D01*
X148184082Y-97716650D01*
X148135000Y-97726413D01*
X148134999Y-97726413D01*
X148134996Y-97726414D01*
X147969662Y-97794899D01*
X147820869Y-97894319D01*
X147820862Y-97894324D01*
X147694324Y-98020862D01*
X147694319Y-98020869D01*
X147599192Y-98163238D01*
X147594898Y-98169664D01*
X147590977Y-98179130D01*
X147526414Y-98334996D01*
X147526413Y-98334999D01*
X147526413Y-98335000D01*
X147523830Y-98347987D01*
X147491500Y-98510518D01*
X147491500Y-98560406D01*
X147471498Y-98628527D01*
X147454595Y-98649501D01*
X147049501Y-99054595D01*
X146987189Y-99088621D01*
X146960406Y-99091500D01*
X135016587Y-99091500D01*
X134952392Y-99104269D01*
X134909080Y-99112884D01*
X134838368Y-99106557D01*
X134782300Y-99063003D01*
X134758681Y-98996051D01*
X134758500Y-98989306D01*
X134758500Y-98303503D01*
X134778502Y-98235382D01*
X134795405Y-98214408D01*
X134830678Y-98179135D01*
X134930102Y-98030336D01*
X134998587Y-97865000D01*
X135033500Y-97689479D01*
X135033500Y-97510521D01*
X134998587Y-97335000D01*
X134930102Y-97169664D01*
X134899321Y-97123597D01*
X144642000Y-97123597D01*
X144648505Y-97184093D01*
X144699555Y-97320964D01*
X144699555Y-97320965D01*
X144787095Y-97437904D01*
X144904034Y-97525444D01*
X145040906Y-97576494D01*
X145101402Y-97582999D01*
X145101415Y-97583000D01*
X145396000Y-97583000D01*
X145904000Y-97583000D01*
X146198585Y-97583000D01*
X146198597Y-97582999D01*
X146259093Y-97576494D01*
X146395964Y-97525444D01*
X146395965Y-97525444D01*
X146512904Y-97437904D01*
X146600444Y-97320965D01*
X146600444Y-97320964D01*
X146651494Y-97184093D01*
X146657999Y-97123597D01*
X146658000Y-97123585D01*
X146658000Y-95929000D01*
X145904000Y-95929000D01*
X145904000Y-97583000D01*
X145396000Y-97583000D01*
X145396000Y-95929000D01*
X144642000Y-95929000D01*
X144642000Y-97123597D01*
X134899321Y-97123597D01*
X134830678Y-97020865D01*
X134704135Y-96894322D01*
X134555336Y-96794898D01*
X134429586Y-96742810D01*
X134390003Y-96726414D01*
X134390001Y-96726413D01*
X134390000Y-96726413D01*
X134301645Y-96708838D01*
X134214481Y-96691500D01*
X134214479Y-96691500D01*
X134035521Y-96691500D01*
X134035518Y-96691500D01*
X133904771Y-96717507D01*
X133860000Y-96726413D01*
X133859999Y-96726413D01*
X133859996Y-96726414D01*
X133694662Y-96794899D01*
X133545869Y-96894319D01*
X133545862Y-96894324D01*
X133419324Y-97020862D01*
X133419319Y-97020869D01*
X133319899Y-97169662D01*
X133251414Y-97334996D01*
X133251413Y-97334999D01*
X133251413Y-97335000D01*
X133248897Y-97347651D01*
X133216500Y-97510518D01*
X133216500Y-97689481D01*
X133233838Y-97776645D01*
X133247394Y-97844796D01*
X133251414Y-97865003D01*
X133263695Y-97894652D01*
X133319898Y-98030336D01*
X133419322Y-98179135D01*
X133419324Y-98179137D01*
X133454595Y-98214408D01*
X133488621Y-98276720D01*
X133491500Y-98303503D01*
X133491500Y-101387614D01*
X133471498Y-101455735D01*
X133454595Y-101476709D01*
X131951709Y-102979595D01*
X131924340Y-102994539D01*
X131898112Y-103011396D01*
X131891813Y-103012301D01*
X131889397Y-103013621D01*
X131862614Y-103016500D01*
X131712210Y-103016500D01*
X131644089Y-102996498D01*
X131597596Y-102942842D01*
X131587492Y-102872568D01*
X131611342Y-102814991D01*
X131700444Y-102695965D01*
X131700444Y-102695964D01*
X131751494Y-102559093D01*
X131757999Y-102498597D01*
X131758000Y-102498585D01*
X131758000Y-101854000D01*
X130830703Y-101854000D01*
X130865925Y-101792993D01*
X130900000Y-101665826D01*
X130900000Y-101534174D01*
X130865925Y-101407007D01*
X130830703Y-101346000D01*
X131758000Y-101346000D01*
X131758000Y-100701414D01*
X131757999Y-100701402D01*
X131751494Y-100640906D01*
X131700444Y-100504035D01*
X131700444Y-100504034D01*
X131612904Y-100387095D01*
X131495965Y-100299555D01*
X131377903Y-100255521D01*
X131321067Y-100212974D01*
X131296256Y-100146454D01*
X131311347Y-100077080D01*
X131332837Y-100048372D01*
X131436206Y-99945004D01*
X131561894Y-99772009D01*
X131658972Y-99581483D01*
X131725049Y-99378116D01*
X131758500Y-99166916D01*
X131758500Y-98953084D01*
X131725049Y-98741884D01*
X131658972Y-98538517D01*
X131561894Y-98347991D01*
X131436206Y-98174996D01*
X131436203Y-98174993D01*
X131436201Y-98174990D01*
X131285009Y-98023798D01*
X131285006Y-98023796D01*
X131285004Y-98023794D01*
X131112009Y-97898106D01*
X131112007Y-97898105D01*
X131110920Y-97897439D01*
X131110591Y-97897075D01*
X131108004Y-97895196D01*
X131108398Y-97894652D01*
X131063283Y-97844796D01*
X131051670Y-97774756D01*
X131079766Y-97709555D01*
X131108130Y-97684978D01*
X131108004Y-97684804D01*
X131110030Y-97683331D01*
X131110920Y-97682561D01*
X131111997Y-97681899D01*
X131112009Y-97681894D01*
X131285004Y-97556206D01*
X131436206Y-97405004D01*
X131561894Y-97232009D01*
X131658972Y-97041483D01*
X131725049Y-96838116D01*
X131758500Y-96626916D01*
X131758500Y-96413084D01*
X131725049Y-96201884D01*
X131658972Y-95998517D01*
X131561894Y-95807991D01*
X131436206Y-95634996D01*
X131436203Y-95634993D01*
X131436201Y-95634990D01*
X131285009Y-95483798D01*
X131285006Y-95483796D01*
X131285004Y-95483794D01*
X131112009Y-95358106D01*
X130921483Y-95261028D01*
X130921480Y-95261027D01*
X130921478Y-95261026D01*
X130718120Y-95194952D01*
X130718123Y-95194952D01*
X130678801Y-95188724D01*
X130506916Y-95161500D01*
X130293084Y-95161500D01*
X130081884Y-95194951D01*
X130081878Y-95194952D01*
X129878521Y-95261026D01*
X129878515Y-95261029D01*
X129687987Y-95358108D01*
X129514993Y-95483796D01*
X129514990Y-95483798D01*
X129363798Y-95634990D01*
X129363796Y-95634993D01*
X129238108Y-95807987D01*
X129141029Y-95998515D01*
X129141026Y-95998521D01*
X129074952Y-96201878D01*
X129074951Y-96201883D01*
X129074951Y-96201884D01*
X129041500Y-96413084D01*
X129041500Y-96626916D01*
X129057259Y-96726413D01*
X129074952Y-96838121D01*
X129134328Y-97020862D01*
X129141028Y-97041483D01*
X129238106Y-97232009D01*
X129363794Y-97405004D01*
X129363796Y-97405006D01*
X129363798Y-97405009D01*
X129514990Y-97556201D01*
X129514993Y-97556203D01*
X129514996Y-97556206D01*
X129687991Y-97681894D01*
X129687996Y-97681896D01*
X129689088Y-97682566D01*
X129689418Y-97682931D01*
X129691996Y-97684804D01*
X129691602Y-97685345D01*
X129736721Y-97735213D01*
X129748328Y-97805255D01*
X129720226Y-97870453D01*
X129691870Y-97895023D01*
X129691996Y-97895196D01*
X129689982Y-97896658D01*
X129689088Y-97897434D01*
X129687987Y-97898108D01*
X129514993Y-98023796D01*
X129514990Y-98023798D01*
X129363798Y-98174990D01*
X129363796Y-98174993D01*
X129238108Y-98347987D01*
X129141029Y-98538515D01*
X129141026Y-98538521D01*
X129074952Y-98741878D01*
X129074951Y-98741883D01*
X129074951Y-98741884D01*
X129041500Y-98953084D01*
X129041500Y-99166916D01*
X129056064Y-99258866D01*
X129074952Y-99378121D01*
X129141026Y-99581478D01*
X129141028Y-99581483D01*
X129226892Y-99750000D01*
X129238108Y-99772012D01*
X129254456Y-99794513D01*
X129363794Y-99945004D01*
X129363796Y-99945006D01*
X129363798Y-99945009D01*
X129467159Y-100048370D01*
X129501185Y-100110682D01*
X129496120Y-100181497D01*
X129453573Y-100238333D01*
X129422097Y-100255521D01*
X129304033Y-100299556D01*
X129187095Y-100387095D01*
X129099555Y-100504034D01*
X129099555Y-100504035D01*
X129048505Y-100640906D01*
X129042000Y-100701402D01*
X129042000Y-101346000D01*
X129969297Y-101346000D01*
X129934075Y-101407007D01*
X129900000Y-101534174D01*
X129900000Y-101665826D01*
X129934075Y-101792993D01*
X129969297Y-101854000D01*
X129042000Y-101854000D01*
X129042000Y-102498597D01*
X129048505Y-102559093D01*
X129099555Y-102695964D01*
X129099555Y-102695965D01*
X129188658Y-102814991D01*
X129213469Y-102881511D01*
X129198378Y-102950885D01*
X129148176Y-103001087D01*
X129087790Y-103016500D01*
X116562942Y-103016500D01*
X116494821Y-102996498D01*
X116448328Y-102942842D01*
X116438224Y-102872568D01*
X116443109Y-102851564D01*
X116444943Y-102845922D01*
X116487152Y-102716013D01*
X116520603Y-102504813D01*
X116520603Y-102290981D01*
X116487152Y-102079781D01*
X116421075Y-101876414D01*
X116323997Y-101685888D01*
X116198309Y-101512893D01*
X116198306Y-101512890D01*
X116198304Y-101512887D01*
X116047112Y-101361695D01*
X116047109Y-101361693D01*
X116047107Y-101361691D01*
X115916884Y-101267079D01*
X115874115Y-101236005D01*
X115874114Y-101236004D01*
X115874112Y-101236003D01*
X115683586Y-101138925D01*
X115683583Y-101138924D01*
X115683581Y-101138923D01*
X115480223Y-101072849D01*
X115480226Y-101072849D01*
X115440904Y-101066621D01*
X115269019Y-101039397D01*
X115055187Y-101039397D01*
X114843987Y-101072848D01*
X114843981Y-101072849D01*
X114640624Y-101138923D01*
X114640618Y-101138926D01*
X114450090Y-101236005D01*
X114277096Y-101361693D01*
X114277093Y-101361695D01*
X114125901Y-101512887D01*
X114125899Y-101512890D01*
X114000211Y-101685884D01*
X113903132Y-101876412D01*
X113903129Y-101876418D01*
X113837055Y-102079775D01*
X113837054Y-102079780D01*
X113837054Y-102079781D01*
X113803603Y-102290981D01*
X113803603Y-102504813D01*
X113837054Y-102716013D01*
X113837057Y-102716031D01*
X113837359Y-102717288D01*
X113837334Y-102717779D01*
X113837829Y-102720902D01*
X113837172Y-102721005D01*
X113833801Y-102788195D01*
X113792472Y-102845922D01*
X113726494Y-102872141D01*
X113689089Y-102869465D01*
X113689056Y-102869675D01*
X113686620Y-102869289D01*
X113685442Y-102869205D01*
X113684185Y-102868903D01*
X113684167Y-102868900D01*
X113472967Y-102835449D01*
X113259135Y-102835449D01*
X113047935Y-102868900D01*
X113047929Y-102868901D01*
X112844572Y-102934975D01*
X112844566Y-102934978D01*
X112654038Y-103032057D01*
X112481044Y-103157745D01*
X112481041Y-103157747D01*
X112329849Y-103308939D01*
X112329847Y-103308942D01*
X112204159Y-103481936D01*
X112107080Y-103672464D01*
X112107077Y-103672470D01*
X112041003Y-103875827D01*
X112041002Y-103875832D01*
X112041002Y-103875833D01*
X112007551Y-104087033D01*
X112007551Y-104300865D01*
X112031486Y-104451986D01*
X112041004Y-104512079D01*
X112041306Y-104513334D01*
X112041281Y-104513824D01*
X112041777Y-104516954D01*
X112041119Y-104517058D01*
X112037751Y-104584242D01*
X111996424Y-104641970D01*
X111930447Y-104668192D01*
X111893038Y-104665516D01*
X111893005Y-104665726D01*
X111890563Y-104665339D01*
X111889385Y-104665255D01*
X111888130Y-104664953D01*
X111816020Y-104653532D01*
X111676916Y-104631500D01*
X111463084Y-104631500D01*
X111251884Y-104664951D01*
X111251878Y-104664952D01*
X111048521Y-104731026D01*
X111048515Y-104731029D01*
X110857987Y-104828108D01*
X110684993Y-104953796D01*
X110684990Y-104953798D01*
X110533798Y-105104990D01*
X110533796Y-105104993D01*
X110408108Y-105277987D01*
X110311029Y-105468515D01*
X110311026Y-105468521D01*
X110244952Y-105671878D01*
X110244951Y-105671883D01*
X110244951Y-105671884D01*
X110214181Y-105866162D01*
X110211500Y-105883087D01*
X110211500Y-106028715D01*
X110191498Y-106096836D01*
X110137842Y-106143329D01*
X110067568Y-106153433D01*
X110033158Y-106143329D01*
X109918683Y-106091050D01*
X109773949Y-106070241D01*
X109629214Y-106091050D01*
X109496205Y-106151793D01*
X109448780Y-106190010D01*
X109448761Y-106190027D01*
X108177925Y-107460863D01*
X108177908Y-107460882D01*
X108139691Y-107508307D01*
X108078948Y-107641316D01*
X108068847Y-107711576D01*
X108058139Y-107786051D01*
X105120289Y-107786051D01*
X105211244Y-107260495D01*
X105212442Y-107254457D01*
X105371329Y-106545035D01*
X105372805Y-106539125D01*
X105566230Y-105838310D01*
X105568001Y-105832454D01*
X105795499Y-105141928D01*
X105797548Y-105136190D01*
X106058560Y-104457652D01*
X106060886Y-104452020D01*
X106354801Y-103787061D01*
X106357411Y-103781527D01*
X106683513Y-103131762D01*
X106686385Y-103126371D01*
X107043893Y-102493355D01*
X107047055Y-102488065D01*
X107159501Y-102309930D01*
X107435112Y-101873311D01*
X107438490Y-101868239D01*
X107856176Y-101273210D01*
X107859839Y-101268255D01*
X107910197Y-101203503D01*
X108306153Y-100694372D01*
X108310002Y-100689665D01*
X108783889Y-100138293D01*
X108787970Y-100133774D01*
X109288254Y-99606278D01*
X109292572Y-99601942D01*
X109818086Y-99099553D01*
X109822605Y-99095440D01*
X110372068Y-98619383D01*
X110376787Y-98615492D01*
X110948879Y-98166907D01*
X110953780Y-98163255D01*
X111547148Y-97743204D01*
X111552256Y-97739774D01*
X112166702Y-97348484D01*
X112169259Y-97346898D01*
X112175138Y-97343354D01*
X112175138Y-97343353D01*
X115071349Y-95597130D01*
X115074424Y-95595277D01*
X115074429Y-95595278D01*
X115079480Y-95592230D01*
X115083585Y-95589860D01*
X115415046Y-95406977D01*
X115423719Y-95402621D01*
X115766064Y-95247013D01*
X115775086Y-95243327D01*
X116128418Y-95114726D01*
X116137690Y-95111752D01*
X116499951Y-95010910D01*
X116509444Y-95008660D01*
X116878412Y-94936193D01*
X116888029Y-94934688D01*
X117261514Y-94891027D01*
X117271246Y-94890271D01*
X117649219Y-94875594D01*
X117654108Y-94875499D01*
X129366650Y-94875499D01*
X129366654Y-94875500D01*
X129391715Y-94875500D01*
X129489718Y-94875500D01*
X129489720Y-94875500D01*
X129666433Y-94844340D01*
X129666438Y-94844338D01*
X129666439Y-94844338D01*
X129666440Y-94844338D01*
X129835043Y-94782972D01*
X129835045Y-94782970D01*
X129835050Y-94782969D01*
X129990449Y-94693249D01*
X130127908Y-94577908D01*
X130243249Y-94440449D01*
X130332969Y-94285050D01*
X130332972Y-94285043D01*
X130394338Y-94116440D01*
X130394338Y-94116439D01*
X130394338Y-94116438D01*
X130394340Y-94116433D01*
X130425500Y-93939720D01*
X130425500Y-93850000D01*
X130425500Y-93841715D01*
X130425500Y-77703084D01*
X131291500Y-77703084D01*
X131291500Y-77916916D01*
X131317821Y-78083097D01*
X131324952Y-78128121D01*
X131391026Y-78331478D01*
X131391028Y-78331483D01*
X131488106Y-78522009D01*
X131613794Y-78695004D01*
X131613796Y-78695006D01*
X131613798Y-78695009D01*
X131716770Y-78797981D01*
X131750796Y-78860293D01*
X131745731Y-78931108D01*
X131703184Y-78987944D01*
X131671708Y-79005131D01*
X131553797Y-79049110D01*
X131553792Y-79049112D01*
X131436738Y-79136738D01*
X131349112Y-79253792D01*
X131349110Y-79253797D01*
X131298011Y-79390795D01*
X131298009Y-79390803D01*
X131291500Y-79451350D01*
X131291500Y-81248649D01*
X131298009Y-81309196D01*
X131298011Y-81309204D01*
X131349110Y-81446202D01*
X131349112Y-81446207D01*
X131436738Y-81563261D01*
X131553792Y-81650887D01*
X131553794Y-81650888D01*
X131553796Y-81650889D01*
X131612875Y-81672924D01*
X131690795Y-81701988D01*
X131690803Y-81701990D01*
X131751350Y-81708499D01*
X131751355Y-81708499D01*
X131751362Y-81708500D01*
X131751368Y-81708500D01*
X133548632Y-81708500D01*
X133548638Y-81708500D01*
X133548645Y-81708499D01*
X133548649Y-81708499D01*
X133609196Y-81701990D01*
X133609199Y-81701989D01*
X133609201Y-81701989D01*
X133746204Y-81650889D01*
X133793814Y-81615249D01*
X133863261Y-81563261D01*
X133950887Y-81446207D01*
X133950887Y-81446206D01*
X133950889Y-81446204D01*
X134001989Y-81309201D01*
X134008500Y-81248638D01*
X134008500Y-79451362D01*
X134008499Y-79451350D01*
X134001990Y-79390803D01*
X134001988Y-79390795D01*
X133950889Y-79253797D01*
X133950887Y-79253792D01*
X133863261Y-79136738D01*
X133746207Y-79049112D01*
X133746203Y-79049110D01*
X133628291Y-79005131D01*
X133571455Y-78962585D01*
X133546645Y-78896064D01*
X133561737Y-78826690D01*
X133583226Y-78797983D01*
X133686206Y-78695004D01*
X133811894Y-78522009D01*
X133908972Y-78331483D01*
X133975049Y-78128116D01*
X134008500Y-77916916D01*
X134008500Y-77703084D01*
X133975049Y-77491884D01*
X133908972Y-77288517D01*
X133894706Y-77260518D01*
X137741500Y-77260518D01*
X137741500Y-77260521D01*
X137741500Y-77439479D01*
X137776413Y-77615000D01*
X137844898Y-77780336D01*
X137944322Y-77929135D01*
X138070865Y-78055678D01*
X138219664Y-78155102D01*
X138385000Y-78223587D01*
X138560521Y-78258500D01*
X138560522Y-78258500D01*
X138739478Y-78258500D01*
X138739479Y-78258500D01*
X138915000Y-78223587D01*
X139080336Y-78155102D01*
X139229135Y-78055678D01*
X139264408Y-78020405D01*
X139326720Y-77986379D01*
X139353503Y-77983500D01*
X148946497Y-77983500D01*
X149014618Y-78003502D01*
X149035592Y-78020405D01*
X149070865Y-78055678D01*
X149219664Y-78155102D01*
X149385000Y-78223587D01*
X149560521Y-78258500D01*
X149560522Y-78258500D01*
X149739478Y-78258500D01*
X149739479Y-78258500D01*
X149915000Y-78223587D01*
X150080336Y-78155102D01*
X150229135Y-78055678D01*
X150355678Y-77929135D01*
X150455102Y-77780336D01*
X150523587Y-77615000D01*
X150558500Y-77439479D01*
X150558500Y-77260521D01*
X150523587Y-77085000D01*
X150455102Y-76919664D01*
X150355678Y-76770865D01*
X150229135Y-76644322D01*
X150080336Y-76544898D01*
X149935615Y-76484952D01*
X149915003Y-76476414D01*
X149915001Y-76476413D01*
X149915000Y-76476413D01*
X149826645Y-76458838D01*
X149739481Y-76441500D01*
X149739479Y-76441500D01*
X149560521Y-76441500D01*
X149560518Y-76441500D01*
X149429771Y-76467507D01*
X149385000Y-76476413D01*
X149384999Y-76476413D01*
X149384996Y-76476414D01*
X149219662Y-76544899D01*
X149070869Y-76644319D01*
X149070862Y-76644324D01*
X149035592Y-76679595D01*
X148973280Y-76713621D01*
X148946497Y-76716500D01*
X139353503Y-76716500D01*
X139285382Y-76696498D01*
X139264408Y-76679595D01*
X139229137Y-76644324D01*
X139229135Y-76644322D01*
X139080336Y-76544898D01*
X138935615Y-76484952D01*
X138915003Y-76476414D01*
X138915001Y-76476413D01*
X138915000Y-76476413D01*
X138826645Y-76458838D01*
X138739481Y-76441500D01*
X138739479Y-76441500D01*
X138560521Y-76441500D01*
X138560518Y-76441500D01*
X138429771Y-76467507D01*
X138385000Y-76476413D01*
X138384999Y-76476413D01*
X138384996Y-76476414D01*
X138219662Y-76544899D01*
X138070869Y-76644319D01*
X138070862Y-76644324D01*
X137944324Y-76770862D01*
X137944319Y-76770869D01*
X137848286Y-76914594D01*
X137844898Y-76919664D01*
X137836310Y-76940398D01*
X137776414Y-77084996D01*
X137741500Y-77260518D01*
X133894706Y-77260518D01*
X133811894Y-77097991D01*
X133686206Y-76924996D01*
X133686203Y-76924993D01*
X133686201Y-76924990D01*
X133535009Y-76773798D01*
X133535006Y-76773796D01*
X133535004Y-76773794D01*
X133362009Y-76648106D01*
X133171483Y-76551028D01*
X133171480Y-76551027D01*
X133171478Y-76551026D01*
X132968120Y-76484952D01*
X132968123Y-76484952D01*
X132914216Y-76476414D01*
X132756916Y-76451500D01*
X132543084Y-76451500D01*
X132331884Y-76484951D01*
X132331878Y-76484952D01*
X132128521Y-76551026D01*
X132128515Y-76551029D01*
X131937987Y-76648108D01*
X131764993Y-76773796D01*
X131764990Y-76773798D01*
X131613798Y-76924990D01*
X131613796Y-76924993D01*
X131488108Y-77097987D01*
X131391029Y-77288515D01*
X131391026Y-77288521D01*
X131324952Y-77491878D01*
X131324951Y-77491883D01*
X131324951Y-77491884D01*
X131291500Y-77703084D01*
X130425500Y-77703084D01*
X130425500Y-69473597D01*
X144642000Y-69473597D01*
X144648505Y-69534093D01*
X144699555Y-69670964D01*
X144699555Y-69670965D01*
X144787095Y-69787904D01*
X144904034Y-69875444D01*
X145040906Y-69926494D01*
X145101402Y-69932999D01*
X145101415Y-69933000D01*
X145396000Y-69933000D01*
X145904000Y-69933000D01*
X146198585Y-69933000D01*
X146198597Y-69932999D01*
X146259093Y-69926494D01*
X146395964Y-69875444D01*
X146395965Y-69875444D01*
X146512904Y-69787904D01*
X146600444Y-69670965D01*
X146600444Y-69670964D01*
X146651494Y-69534093D01*
X146657999Y-69473597D01*
X146658000Y-69473585D01*
X146658000Y-68279000D01*
X145904000Y-68279000D01*
X145904000Y-69933000D01*
X145396000Y-69933000D01*
X145396000Y-68279000D01*
X144642000Y-68279000D01*
X144642000Y-69473597D01*
X130425500Y-69473597D01*
X130425500Y-69339438D01*
X130425500Y-69260280D01*
X130394340Y-69083567D01*
X130394338Y-69083562D01*
X130394338Y-69083560D01*
X130394338Y-69083559D01*
X130332972Y-68914956D01*
X130332966Y-68914945D01*
X130243251Y-68759553D01*
X130243249Y-68759551D01*
X130168174Y-68670080D01*
X130127908Y-68622092D01*
X129990449Y-68506751D01*
X129990448Y-68506750D01*
X129990446Y-68506748D01*
X129835054Y-68417033D01*
X129835043Y-68417027D01*
X129666440Y-68355662D01*
X129666437Y-68355661D01*
X129666433Y-68355660D01*
X129639405Y-68350894D01*
X129600774Y-68344082D01*
X129489720Y-68324500D01*
X129489718Y-68324500D01*
X117654282Y-68324500D01*
X117649397Y-68324405D01*
X117624180Y-68323426D01*
X117271246Y-68309728D01*
X117261505Y-68308971D01*
X116888045Y-68265319D01*
X116878391Y-68263809D01*
X116509445Y-68191350D01*
X116499938Y-68189097D01*
X116137711Y-68088266D01*
X116128407Y-68085283D01*
X115775077Y-67956686D01*
X115766031Y-67952990D01*
X115423736Y-67797403D01*
X115415019Y-67793026D01*
X115083938Y-67610351D01*
X115079815Y-67607972D01*
X115074429Y-67604722D01*
X115074424Y-67604722D01*
X115059701Y-67595845D01*
X115059700Y-67595844D01*
X115059699Y-67595844D01*
X115008557Y-67565009D01*
X113334523Y-66555678D01*
X112171211Y-65854278D01*
X112171200Y-65854266D01*
X112171199Y-65854270D01*
X112169327Y-65853141D01*
X112166718Y-65851524D01*
X111552269Y-65460229D01*
X111547148Y-65456789D01*
X111496641Y-65421034D01*
X110953805Y-65036752D01*
X110948895Y-65033092D01*
X110545140Y-64716500D01*
X110376808Y-64584507D01*
X110372049Y-64580583D01*
X109986934Y-64246916D01*
X109822617Y-64104550D01*
X109818097Y-64100436D01*
X109292610Y-63598068D01*
X109288272Y-63593713D01*
X108788006Y-63066233D01*
X108783872Y-63061654D01*
X108310049Y-62510353D01*
X108306144Y-62505578D01*
X108081759Y-62217056D01*
X107859858Y-61931729D01*
X107856197Y-61926776D01*
X107798341Y-61844355D01*
X107532636Y-61465831D01*
X107438534Y-61331774D01*
X107435115Y-61326640D01*
X107087761Y-60776367D01*
X107047078Y-60711918D01*
X107043917Y-60706628D01*
X107005537Y-60638671D01*
X106686423Y-60073633D01*
X106683527Y-60068198D01*
X106673545Y-60048308D01*
X106357436Y-59418454D01*
X106354827Y-59412919D01*
X106060925Y-58747987D01*
X106058590Y-58742333D01*
X105797584Y-58063813D01*
X105795526Y-58058049D01*
X105568037Y-57367549D01*
X105566255Y-57361657D01*
X105561382Y-57344000D01*
X105372840Y-56660876D01*
X105371359Y-56654947D01*
X105212473Y-55945531D01*
X105211274Y-55939485D01*
X105202959Y-55891440D01*
X105121369Y-55420000D01*
X108064190Y-55420000D01*
X108084999Y-55564734D01*
X108145742Y-55697743D01*
X108183962Y-55745172D01*
X108183967Y-55745177D01*
X108183976Y-55745187D01*
X109454812Y-57016023D01*
X109454821Y-57016031D01*
X109454828Y-57016038D01*
X109502257Y-57054258D01*
X109635266Y-57115001D01*
X109780000Y-57135810D01*
X109924734Y-57115001D01*
X110039210Y-57062721D01*
X110109482Y-57052617D01*
X110174063Y-57082110D01*
X110212447Y-57141836D01*
X110217551Y-57177335D01*
X110217551Y-57322967D01*
X110250976Y-57534003D01*
X110251003Y-57534172D01*
X110310082Y-57716000D01*
X110317079Y-57737534D01*
X110414157Y-57928060D01*
X110539845Y-58101055D01*
X110539847Y-58101057D01*
X110539849Y-58101060D01*
X110691041Y-58252252D01*
X110691044Y-58252254D01*
X110691047Y-58252257D01*
X110864042Y-58377945D01*
X111054568Y-58475023D01*
X111257929Y-58541098D01*
X111257930Y-58541098D01*
X111257935Y-58541100D01*
X111469135Y-58574551D01*
X111469138Y-58574551D01*
X111682964Y-58574551D01*
X111682967Y-58574551D01*
X111894167Y-58541100D01*
X111894187Y-58541093D01*
X111895417Y-58540799D01*
X111895908Y-58540823D01*
X111899056Y-58540325D01*
X111899160Y-58540986D01*
X111966325Y-58544344D01*
X112024060Y-58585662D01*
X112050292Y-58651635D01*
X112047618Y-58689063D01*
X112047828Y-58689097D01*
X112047442Y-58691533D01*
X112047358Y-58692711D01*
X112047056Y-58693967D01*
X112047053Y-58693986D01*
X112013602Y-58905186D01*
X112013602Y-59119018D01*
X112047053Y-59330218D01*
X112047054Y-59330223D01*
X112076115Y-59419664D01*
X112113130Y-59533585D01*
X112210208Y-59724111D01*
X112335896Y-59897106D01*
X112335898Y-59897108D01*
X112335900Y-59897111D01*
X112487092Y-60048303D01*
X112487095Y-60048305D01*
X112487098Y-60048308D01*
X112660093Y-60173996D01*
X112850619Y-60271074D01*
X113053980Y-60337149D01*
X113053981Y-60337149D01*
X113053986Y-60337151D01*
X113265186Y-60370602D01*
X113265189Y-60370602D01*
X113479015Y-60370602D01*
X113479018Y-60370602D01*
X113690218Y-60337151D01*
X113690235Y-60337145D01*
X113691474Y-60336849D01*
X113691965Y-60336873D01*
X113695107Y-60336376D01*
X113695211Y-60337036D01*
X113762382Y-60340397D01*
X113820115Y-60381716D01*
X113846345Y-60447690D01*
X113843671Y-60485115D01*
X113843880Y-60485149D01*
X113843495Y-60487577D01*
X113843411Y-60488758D01*
X113843108Y-60490017D01*
X113840926Y-60503796D01*
X113809654Y-60701238D01*
X113809654Y-60915070D01*
X113831234Y-61051318D01*
X113843106Y-61126275D01*
X113909180Y-61329632D01*
X113909182Y-61329637D01*
X114006260Y-61520163D01*
X114131948Y-61693158D01*
X114131950Y-61693160D01*
X114131952Y-61693163D01*
X114283144Y-61844355D01*
X114283147Y-61844357D01*
X114283150Y-61844360D01*
X114456145Y-61970048D01*
X114646671Y-62067126D01*
X114850032Y-62133201D01*
X114850033Y-62133201D01*
X114850038Y-62133203D01*
X115061238Y-62166654D01*
X115061241Y-62166654D01*
X115275067Y-62166654D01*
X115275070Y-62166654D01*
X115486270Y-62133203D01*
X115689637Y-62067126D01*
X115880163Y-61970048D01*
X116053158Y-61844360D01*
X116204360Y-61693158D01*
X116330048Y-61520163D01*
X116427126Y-61329637D01*
X116493203Y-61126270D01*
X116526654Y-60915070D01*
X116526654Y-60701238D01*
X116493203Y-60490038D01*
X116427126Y-60286671D01*
X116365998Y-60166702D01*
X116352895Y-60096926D01*
X116379595Y-60031141D01*
X116437623Y-59990235D01*
X116478266Y-59983500D01*
X123585406Y-59983500D01*
X123653527Y-60003502D01*
X123674501Y-60020405D01*
X129323593Y-65669497D01*
X129357619Y-65731809D01*
X129352554Y-65802624D01*
X129336434Y-65832653D01*
X129238108Y-65967987D01*
X129141029Y-66158515D01*
X129141026Y-66158521D01*
X129074952Y-66361878D01*
X129074951Y-66361883D01*
X129074951Y-66361884D01*
X129041500Y-66573084D01*
X129041500Y-66786916D01*
X129068469Y-66957189D01*
X129074952Y-66998121D01*
X129109586Y-67104714D01*
X129141028Y-67201483D01*
X129238106Y-67392009D01*
X129363794Y-67565004D01*
X129363796Y-67565006D01*
X129363798Y-67565009D01*
X129514990Y-67716201D01*
X129514993Y-67716203D01*
X129514996Y-67716206D01*
X129687991Y-67841894D01*
X129878517Y-67938972D01*
X130081878Y-68005047D01*
X130081879Y-68005047D01*
X130081884Y-68005049D01*
X130293084Y-68038500D01*
X130293087Y-68038500D01*
X130506913Y-68038500D01*
X130506916Y-68038500D01*
X130718116Y-68005049D01*
X130921483Y-67938972D01*
X131112009Y-67841894D01*
X131285004Y-67716206D01*
X131436206Y-67565004D01*
X131561894Y-67392009D01*
X131658972Y-67201483D01*
X131725049Y-66998116D01*
X131758500Y-66786916D01*
X131758500Y-66576402D01*
X144642000Y-66576402D01*
X144642000Y-67771000D01*
X145396000Y-67771000D01*
X145904000Y-67771000D01*
X146658000Y-67771000D01*
X146658000Y-66576414D01*
X146657999Y-66576402D01*
X146651494Y-66515906D01*
X146600444Y-66379035D01*
X146600444Y-66379034D01*
X146512904Y-66262095D01*
X146395965Y-66174555D01*
X146259093Y-66123505D01*
X146198597Y-66117000D01*
X145904000Y-66117000D01*
X145904000Y-67771000D01*
X145396000Y-67771000D01*
X145396000Y-66117000D01*
X145101402Y-66117000D01*
X145040906Y-66123505D01*
X144904035Y-66174555D01*
X144904034Y-66174555D01*
X144787095Y-66262095D01*
X144699555Y-66379034D01*
X144699555Y-66379035D01*
X144648505Y-66515906D01*
X144642000Y-66576402D01*
X131758500Y-66576402D01*
X131758500Y-66573084D01*
X131725049Y-66361884D01*
X131658972Y-66158517D01*
X131658970Y-66158513D01*
X131658637Y-66157708D01*
X131658601Y-66157377D01*
X131657442Y-66153809D01*
X131658191Y-66153565D01*
X131651054Y-66087117D01*
X131682839Y-66023633D01*
X131743900Y-65987411D01*
X131775050Y-65983500D01*
X135196497Y-65983500D01*
X135264618Y-66003502D01*
X135285592Y-66020405D01*
X135320865Y-66055678D01*
X135469664Y-66155102D01*
X135635000Y-66223587D01*
X135810521Y-66258500D01*
X135810522Y-66258500D01*
X135989478Y-66258500D01*
X135989479Y-66258500D01*
X136165000Y-66223587D01*
X136330336Y-66155102D01*
X136479135Y-66055678D01*
X136605678Y-65929135D01*
X136705102Y-65780336D01*
X136773587Y-65615000D01*
X136808500Y-65439479D01*
X136808500Y-65260521D01*
X136773587Y-65085000D01*
X136705102Y-64919664D01*
X136605678Y-64770865D01*
X136479135Y-64644322D01*
X136330336Y-64544898D01*
X136213429Y-64496473D01*
X136165003Y-64476414D01*
X136165001Y-64476413D01*
X136165000Y-64476413D01*
X136073014Y-64458116D01*
X135989481Y-64441500D01*
X135989479Y-64441500D01*
X135810521Y-64441500D01*
X135810518Y-64441500D01*
X135679771Y-64467507D01*
X135635000Y-64476413D01*
X135634999Y-64476413D01*
X135634996Y-64476414D01*
X135469662Y-64544899D01*
X135320869Y-64644319D01*
X135320862Y-64644324D01*
X135285592Y-64679595D01*
X135223280Y-64713621D01*
X135196497Y-64716500D01*
X131814519Y-64716500D01*
X131746398Y-64696498D01*
X131699905Y-64642842D01*
X131689801Y-64572568D01*
X131694686Y-64551564D01*
X131696852Y-64544898D01*
X131725049Y-64458116D01*
X131758500Y-64246916D01*
X131758500Y-64033084D01*
X131725049Y-63821884D01*
X131658972Y-63618517D01*
X131658968Y-63618509D01*
X131645819Y-63592702D01*
X131632715Y-63522925D01*
X131659416Y-63457140D01*
X131717444Y-63416235D01*
X131758086Y-63409500D01*
X134707505Y-63409500D01*
X134775626Y-63429502D01*
X134796600Y-63446405D01*
X134826369Y-63476174D01*
X134975168Y-63575598D01*
X135140504Y-63644083D01*
X135316025Y-63678996D01*
X135316026Y-63678996D01*
X135494982Y-63678996D01*
X135494983Y-63678996D01*
X135522126Y-63673597D01*
X144642000Y-63673597D01*
X144648505Y-63734093D01*
X144699555Y-63870964D01*
X144699555Y-63870965D01*
X144787095Y-63987904D01*
X144904034Y-64075444D01*
X145040906Y-64126494D01*
X145101402Y-64132999D01*
X145101415Y-64133000D01*
X145396000Y-64133000D01*
X145904000Y-64133000D01*
X146198585Y-64133000D01*
X146198597Y-64132999D01*
X146259093Y-64126494D01*
X146395964Y-64075444D01*
X146395965Y-64075444D01*
X146512904Y-63987904D01*
X146600444Y-63870965D01*
X146600444Y-63870964D01*
X146651494Y-63734093D01*
X146657999Y-63673597D01*
X146658000Y-63673585D01*
X146658000Y-62479000D01*
X145904000Y-62479000D01*
X145904000Y-64133000D01*
X145396000Y-64133000D01*
X145396000Y-62479000D01*
X144642000Y-62479000D01*
X144642000Y-63673597D01*
X135522126Y-63673597D01*
X135670504Y-63644083D01*
X135835840Y-63575598D01*
X135984639Y-63476174D01*
X136111182Y-63349631D01*
X136210606Y-63200832D01*
X136279091Y-63035496D01*
X136314004Y-62859975D01*
X136314004Y-62681017D01*
X136279091Y-62505496D01*
X136279089Y-62505490D01*
X136266471Y-62475027D01*
X136266471Y-62475026D01*
X136238591Y-62407719D01*
X136231001Y-62337129D01*
X136262780Y-62273642D01*
X136323837Y-62237414D01*
X136354999Y-62233500D01*
X142962393Y-62233500D01*
X142962394Y-62233500D01*
X143084785Y-62209155D01*
X143200075Y-62161400D01*
X143303833Y-62092071D01*
X144426906Y-60968998D01*
X144489217Y-60934973D01*
X144560032Y-60940038D01*
X144616868Y-60982585D01*
X144641679Y-61049105D01*
X144642000Y-61058094D01*
X144642000Y-61971000D01*
X146658000Y-61971000D01*
X146658000Y-60776414D01*
X146657999Y-60776402D01*
X146651494Y-60715907D01*
X146628230Y-60653533D01*
X146623165Y-60582717D01*
X146657190Y-60520405D01*
X146719502Y-60486380D01*
X146746286Y-60483500D01*
X148553180Y-60483500D01*
X148621301Y-60503502D01*
X148667794Y-60557158D01*
X148677898Y-60627432D01*
X148671235Y-60653533D01*
X148648011Y-60715795D01*
X148648009Y-60715803D01*
X148641500Y-60776350D01*
X148641500Y-63673649D01*
X148648009Y-63734196D01*
X148648011Y-63734204D01*
X148699109Y-63871201D01*
X148699110Y-63871202D01*
X148699111Y-63871204D01*
X148715145Y-63892622D01*
X148741368Y-63927652D01*
X148766179Y-63994172D01*
X148766500Y-64003161D01*
X148766500Y-66246838D01*
X148746498Y-66314959D01*
X148741368Y-66322347D01*
X148699112Y-66378792D01*
X148699110Y-66378797D01*
X148648011Y-66515795D01*
X148648009Y-66515803D01*
X148641500Y-66576350D01*
X148641500Y-69473649D01*
X148648009Y-69534196D01*
X148648011Y-69534204D01*
X148699109Y-69671201D01*
X148699110Y-69671202D01*
X148699111Y-69671204D01*
X148713480Y-69690398D01*
X148741368Y-69727652D01*
X148749231Y-69748735D01*
X148761396Y-69767663D01*
X148764598Y-69789933D01*
X148766179Y-69794172D01*
X148766500Y-69803161D01*
X148766500Y-69872426D01*
X148764079Y-69897007D01*
X148741500Y-70010515D01*
X148741500Y-70189481D01*
X148776414Y-70365003D01*
X148787024Y-70390618D01*
X148844898Y-70530336D01*
X148944322Y-70679135D01*
X149070865Y-70805678D01*
X149219664Y-70905102D01*
X149219666Y-70905103D01*
X149260638Y-70922074D01*
X149286597Y-70942992D01*
X149313288Y-70962972D01*
X149314103Y-70965158D01*
X149315920Y-70966622D01*
X149326449Y-70998257D01*
X149338100Y-71029492D01*
X149337604Y-71031771D01*
X149338341Y-71033985D01*
X149330097Y-71066283D01*
X149323010Y-71098866D01*
X149321145Y-71101357D01*
X149320783Y-71102776D01*
X149301518Y-71127577D01*
X149274502Y-71154594D01*
X149212191Y-71188620D01*
X149185405Y-71191500D01*
X146172006Y-71191500D01*
X146103885Y-71171498D01*
X146082911Y-71154595D01*
X146074111Y-71145795D01*
X146040085Y-71083483D01*
X146037206Y-71056700D01*
X146037206Y-71006816D01*
X146037205Y-71006812D01*
X146002293Y-70831294D01*
X145933808Y-70665958D01*
X145834384Y-70517159D01*
X145707841Y-70390616D01*
X145559042Y-70291192D01*
X145421269Y-70234124D01*
X145393709Y-70222708D01*
X145393707Y-70222707D01*
X145393706Y-70222707D01*
X145305351Y-70205132D01*
X145218187Y-70187794D01*
X145218185Y-70187794D01*
X145039227Y-70187794D01*
X145039224Y-70187794D01*
X144908477Y-70213801D01*
X144863706Y-70222707D01*
X144863705Y-70222707D01*
X144863702Y-70222708D01*
X144698368Y-70291193D01*
X144549575Y-70390613D01*
X144549568Y-70390618D01*
X144423030Y-70517156D01*
X144423025Y-70517163D01*
X144323603Y-70665958D01*
X144323602Y-70665960D01*
X144314177Y-70688717D01*
X144269630Y-70743998D01*
X144202267Y-70766420D01*
X144197768Y-70766500D01*
X143608802Y-70766500D01*
X143535767Y-70781028D01*
X143486414Y-70790845D01*
X143486412Y-70790845D01*
X143486411Y-70790846D01*
X143450611Y-70805675D01*
X143384410Y-70833097D01*
X143371122Y-70838601D01*
X143267370Y-70907926D01*
X143267363Y-70907931D01*
X142245700Y-71929595D01*
X142183388Y-71963621D01*
X142156605Y-71966500D01*
X134757488Y-71966500D01*
X134689367Y-71946498D01*
X134668393Y-71929596D01*
X134630723Y-71891926D01*
X134556127Y-71817330D01*
X134407328Y-71717906D01*
X134290421Y-71669481D01*
X134241995Y-71649422D01*
X134241993Y-71649421D01*
X134241992Y-71649421D01*
X134153637Y-71631846D01*
X134066473Y-71614508D01*
X134066471Y-71614508D01*
X133887513Y-71614508D01*
X133887510Y-71614508D01*
X133756763Y-71640515D01*
X133711992Y-71649421D01*
X133711991Y-71649421D01*
X133711988Y-71649422D01*
X133546654Y-71717907D01*
X133397861Y-71817327D01*
X133397854Y-71817332D01*
X133271316Y-71943870D01*
X133271311Y-71943877D01*
X133171891Y-72092670D01*
X133103406Y-72258004D01*
X133068492Y-72433526D01*
X133068492Y-72612489D01*
X133080865Y-72674690D01*
X133103370Y-72787833D01*
X133103406Y-72788011D01*
X133123465Y-72836437D01*
X133171890Y-72953344D01*
X133271314Y-73102143D01*
X133397857Y-73228686D01*
X133546656Y-73328110D01*
X133711992Y-73396595D01*
X133887513Y-73431508D01*
X133887514Y-73431508D01*
X134066470Y-73431508D01*
X134066471Y-73431508D01*
X134241992Y-73396595D01*
X134319070Y-73364667D01*
X134389659Y-73357078D01*
X134453146Y-73388856D01*
X134489375Y-73449914D01*
X134487122Y-73520012D01*
X134443721Y-73653587D01*
X134443720Y-73653590D01*
X134443720Y-73653592D01*
X134411500Y-73857019D01*
X134411500Y-74062981D01*
X134443720Y-74266408D01*
X134443721Y-74266412D01*
X134454255Y-74298833D01*
X134507366Y-74462290D01*
X134600871Y-74645803D01*
X134721932Y-74812430D01*
X134721934Y-74812432D01*
X134721936Y-74812435D01*
X134867564Y-74958063D01*
X134867567Y-74958065D01*
X134867570Y-74958068D01*
X135034197Y-75079129D01*
X135217710Y-75172634D01*
X135413592Y-75236280D01*
X135617019Y-75268500D01*
X135617022Y-75268500D01*
X135822978Y-75268500D01*
X135822981Y-75268500D01*
X136026408Y-75236280D01*
X136222290Y-75172634D01*
X136405803Y-75079129D01*
X136572430Y-74958068D01*
X136718068Y-74812430D01*
X136839129Y-74645803D01*
X136877734Y-74570034D01*
X136926481Y-74518422D01*
X136995396Y-74501356D01*
X137062598Y-74524257D01*
X137102264Y-74570034D01*
X137140871Y-74645803D01*
X137261932Y-74812430D01*
X137261934Y-74812432D01*
X137261936Y-74812435D01*
X137407564Y-74958063D01*
X137407567Y-74958065D01*
X137407570Y-74958068D01*
X137574197Y-75079129D01*
X137757710Y-75172634D01*
X137953592Y-75236280D01*
X138157019Y-75268500D01*
X138157022Y-75268500D01*
X138362978Y-75268500D01*
X138362981Y-75268500D01*
X138566408Y-75236280D01*
X138762290Y-75172634D01*
X138945803Y-75079129D01*
X139112430Y-74958068D01*
X139258068Y-74812430D01*
X139379129Y-74645803D01*
X139417734Y-74570034D01*
X139466481Y-74518422D01*
X139535396Y-74501356D01*
X139602598Y-74524257D01*
X139642264Y-74570034D01*
X139680871Y-74645803D01*
X139801932Y-74812430D01*
X139801934Y-74812432D01*
X139801936Y-74812435D01*
X139947564Y-74958063D01*
X139947567Y-74958065D01*
X139947570Y-74958068D01*
X140114197Y-75079129D01*
X140297710Y-75172634D01*
X140493592Y-75236280D01*
X140697019Y-75268500D01*
X140697022Y-75268500D01*
X140902978Y-75268500D01*
X140902981Y-75268500D01*
X141106408Y-75236280D01*
X141302290Y-75172634D01*
X141485803Y-75079129D01*
X141652430Y-74958068D01*
X141798068Y-74812430D01*
X141919129Y-74645803D01*
X141957734Y-74570034D01*
X142006481Y-74518422D01*
X142075396Y-74501356D01*
X142142598Y-74524257D01*
X142182264Y-74570034D01*
X142220871Y-74645803D01*
X142341932Y-74812430D01*
X142341934Y-74812432D01*
X142341936Y-74812435D01*
X142487564Y-74958063D01*
X142487567Y-74958065D01*
X142487570Y-74958068D01*
X142654197Y-75079129D01*
X142837710Y-75172634D01*
X143033592Y-75236280D01*
X143237019Y-75268500D01*
X143237022Y-75268500D01*
X143442978Y-75268500D01*
X143442981Y-75268500D01*
X143646408Y-75236280D01*
X143842290Y-75172634D01*
X144025803Y-75079129D01*
X144192430Y-74958068D01*
X144338068Y-74812430D01*
X144459129Y-74645803D01*
X144497734Y-74570034D01*
X144546481Y-74518422D01*
X144615396Y-74501356D01*
X144682598Y-74524257D01*
X144722264Y-74570034D01*
X144760871Y-74645803D01*
X144881932Y-74812430D01*
X144881934Y-74812432D01*
X144881936Y-74812435D01*
X145027564Y-74958063D01*
X145027567Y-74958065D01*
X145027570Y-74958068D01*
X145194197Y-75079129D01*
X145377710Y-75172634D01*
X145573592Y-75236280D01*
X145777019Y-75268500D01*
X145777022Y-75268500D01*
X145982978Y-75268500D01*
X145982981Y-75268500D01*
X146186408Y-75236280D01*
X146382290Y-75172634D01*
X146565803Y-75079129D01*
X146732430Y-74958068D01*
X146878068Y-74812430D01*
X146999129Y-74645803D01*
X147037734Y-74570034D01*
X147086481Y-74518422D01*
X147155396Y-74501356D01*
X147222598Y-74524257D01*
X147262264Y-74570034D01*
X147300871Y-74645803D01*
X147421932Y-74812430D01*
X147421934Y-74812432D01*
X147421936Y-74812435D01*
X147567564Y-74958063D01*
X147567567Y-74958065D01*
X147567570Y-74958068D01*
X147734197Y-75079129D01*
X147917710Y-75172634D01*
X148113592Y-75236280D01*
X148317019Y-75268500D01*
X148317022Y-75268500D01*
X148522978Y-75268500D01*
X148522981Y-75268500D01*
X148726408Y-75236280D01*
X148922290Y-75172634D01*
X149105803Y-75079129D01*
X149272430Y-74958068D01*
X149418068Y-74812430D01*
X149539129Y-74645803D01*
X149577734Y-74570034D01*
X149626481Y-74518422D01*
X149695396Y-74501356D01*
X149762598Y-74524257D01*
X149802264Y-74570034D01*
X149840871Y-74645803D01*
X149961932Y-74812430D01*
X149961934Y-74812432D01*
X149961936Y-74812435D01*
X150107564Y-74958063D01*
X150107567Y-74958065D01*
X150107570Y-74958068D01*
X150274197Y-75079129D01*
X150457710Y-75172634D01*
X150653592Y-75236280D01*
X150857019Y-75268500D01*
X150857022Y-75268500D01*
X151062978Y-75268500D01*
X151062981Y-75268500D01*
X151266408Y-75236280D01*
X151462290Y-75172634D01*
X151645803Y-75079129D01*
X151812430Y-74958068D01*
X151958068Y-74812430D01*
X152079129Y-74645803D01*
X152117734Y-74570034D01*
X152166481Y-74518422D01*
X152235396Y-74501356D01*
X152302598Y-74524257D01*
X152342264Y-74570034D01*
X152380871Y-74645803D01*
X152501932Y-74812430D01*
X152501934Y-74812432D01*
X152501936Y-74812435D01*
X152647564Y-74958063D01*
X152647567Y-74958065D01*
X152647570Y-74958068D01*
X152814197Y-75079129D01*
X152997710Y-75172634D01*
X153129540Y-75215468D01*
X153188146Y-75255542D01*
X153215783Y-75320938D01*
X153203676Y-75390895D01*
X153179700Y-75424396D01*
X152496167Y-76107929D01*
X152407931Y-76196164D01*
X152407929Y-76196167D01*
X152338600Y-76299925D01*
X152290845Y-76415215D01*
X152282105Y-76459153D01*
X152266500Y-76537603D01*
X152266500Y-79535406D01*
X152246498Y-79603527D01*
X152229595Y-79624501D01*
X151947509Y-79906587D01*
X151885197Y-79940613D01*
X151858414Y-79943492D01*
X150860608Y-79943492D01*
X150738225Y-79967836D01*
X150738217Y-79967838D01*
X150704455Y-79981822D01*
X150704455Y-79981823D01*
X150631612Y-80011996D01*
X150622933Y-80015591D01*
X150519175Y-80084919D01*
X150519169Y-80084924D01*
X147924501Y-82679595D01*
X147862189Y-82713620D01*
X147835406Y-82716500D01*
X133923569Y-82716500D01*
X133855448Y-82696498D01*
X133834474Y-82679596D01*
X133791725Y-82636847D01*
X133729135Y-82574257D01*
X133580336Y-82474833D01*
X133463429Y-82426408D01*
X133415003Y-82406349D01*
X133415001Y-82406348D01*
X133415000Y-82406348D01*
X133326645Y-82388773D01*
X133239481Y-82371435D01*
X133239479Y-82371435D01*
X133060521Y-82371435D01*
X133060518Y-82371435D01*
X132929771Y-82397442D01*
X132885000Y-82406348D01*
X132884999Y-82406348D01*
X132884996Y-82406349D01*
X132719662Y-82474834D01*
X132570869Y-82574254D01*
X132570862Y-82574259D01*
X132444324Y-82700797D01*
X132444319Y-82700804D01*
X132344899Y-82849597D01*
X132276414Y-83014931D01*
X132241500Y-83190453D01*
X132241500Y-83369416D01*
X132258838Y-83456580D01*
X132276413Y-83544935D01*
X132344898Y-83710271D01*
X132444322Y-83859070D01*
X132570865Y-83985613D01*
X132643021Y-84033826D01*
X132719662Y-84085036D01*
X132719663Y-84085036D01*
X132719664Y-84085037D01*
X132758888Y-84101284D01*
X132814168Y-84145829D01*
X132836590Y-84213192D01*
X132836670Y-84217692D01*
X132836670Y-84234447D01*
X132854008Y-84321611D01*
X132871583Y-84409966D01*
X132940068Y-84575302D01*
X133039492Y-84724101D01*
X133166035Y-84850644D01*
X133178667Y-84859084D01*
X133224195Y-84913559D01*
X133233044Y-84984002D01*
X133232245Y-84988431D01*
X133216500Y-85067585D01*
X133216500Y-85067591D01*
X133216500Y-85246549D01*
X133251413Y-85422070D01*
X133319898Y-85587406D01*
X133419322Y-85736205D01*
X133545865Y-85862748D01*
X133694664Y-85962172D01*
X133860000Y-86030657D01*
X134035521Y-86065570D01*
X134035522Y-86065570D01*
X134214478Y-86065570D01*
X134214479Y-86065570D01*
X134390000Y-86030657D01*
X134555336Y-85962172D01*
X134704135Y-85862748D01*
X134830678Y-85736205D01*
X134930102Y-85587406D01*
X134940924Y-85561279D01*
X134985472Y-85506001D01*
X135052835Y-85483580D01*
X135057332Y-85483500D01*
X135655722Y-85483500D01*
X135664547Y-85486091D01*
X135673654Y-85484782D01*
X135698079Y-85495937D01*
X135723843Y-85503502D01*
X135729867Y-85510455D01*
X135738234Y-85514276D01*
X135752748Y-85536861D01*
X135770336Y-85557158D01*
X135772660Y-85567844D01*
X135776618Y-85574002D01*
X135781722Y-85609500D01*
X135781722Y-85686205D01*
X135761720Y-85754326D01*
X135723552Y-85789574D01*
X135724811Y-85791459D01*
X135570869Y-85894319D01*
X135570862Y-85894324D01*
X135444324Y-86020862D01*
X135444319Y-86020869D01*
X135344899Y-86169662D01*
X135276414Y-86334996D01*
X135241500Y-86510518D01*
X135241500Y-86689481D01*
X135249044Y-86727405D01*
X135276413Y-86865000D01*
X135344898Y-87030336D01*
X135444322Y-87179135D01*
X135570865Y-87305678D01*
X135719664Y-87405102D01*
X135885000Y-87473587D01*
X135929783Y-87482494D01*
X135992692Y-87515401D01*
X135994297Y-87516978D01*
X136210242Y-87732923D01*
X136244268Y-87795235D01*
X136239203Y-87866050D01*
X136196656Y-87922886D01*
X136130136Y-87947697D01*
X136082211Y-87941851D01*
X136026412Y-87923721D01*
X136026410Y-87923720D01*
X136026408Y-87923720D01*
X135822981Y-87891500D01*
X135617019Y-87891500D01*
X135413592Y-87923720D01*
X135413590Y-87923720D01*
X135413587Y-87923721D01*
X135217714Y-87987364D01*
X135217708Y-87987367D01*
X135034193Y-88080873D01*
X134867567Y-88201934D01*
X134867564Y-88201936D01*
X134721936Y-88347564D01*
X134721934Y-88347567D01*
X134600873Y-88514193D01*
X134507367Y-88697708D01*
X134507364Y-88697714D01*
X134443721Y-88893587D01*
X134443720Y-88893590D01*
X134443720Y-88893592D01*
X134411500Y-89097019D01*
X134411500Y-89302981D01*
X134443720Y-89506408D01*
X134443721Y-89506412D01*
X134449999Y-89525735D01*
X134507366Y-89702290D01*
X134600871Y-89885803D01*
X134721932Y-90052430D01*
X134721934Y-90052432D01*
X134721936Y-90052435D01*
X134867564Y-90198063D01*
X134867567Y-90198065D01*
X134867570Y-90198068D01*
X135034197Y-90319129D01*
X135217710Y-90412634D01*
X135413592Y-90476280D01*
X135617019Y-90508500D01*
X135617022Y-90508500D01*
X135822978Y-90508500D01*
X135822981Y-90508500D01*
X136026408Y-90476280D01*
X136222290Y-90412634D01*
X136405803Y-90319129D01*
X136572430Y-90198068D01*
X136718068Y-90052430D01*
X136839129Y-89885803D01*
X136877734Y-89810034D01*
X136926481Y-89758422D01*
X136995396Y-89741356D01*
X137062598Y-89764257D01*
X137102264Y-89810034D01*
X137140871Y-89885803D01*
X137261932Y-90052430D01*
X137261934Y-90052432D01*
X137261936Y-90052435D01*
X137407564Y-90198063D01*
X137407567Y-90198065D01*
X137407570Y-90198068D01*
X137574197Y-90319129D01*
X137757710Y-90412634D01*
X137953592Y-90476280D01*
X138157019Y-90508500D01*
X138157022Y-90508500D01*
X138362978Y-90508500D01*
X138362981Y-90508500D01*
X138566408Y-90476280D01*
X138762290Y-90412634D01*
X138945803Y-90319129D01*
X139112430Y-90198068D01*
X139258068Y-90052430D01*
X139379129Y-89885803D01*
X139417734Y-89810034D01*
X139466481Y-89758422D01*
X139535396Y-89741356D01*
X139602598Y-89764257D01*
X139642264Y-89810034D01*
X139680871Y-89885803D01*
X139801932Y-90052430D01*
X139801934Y-90052432D01*
X139801936Y-90052435D01*
X139947564Y-90198063D01*
X139947567Y-90198065D01*
X139947570Y-90198068D01*
X140114197Y-90319129D01*
X140297710Y-90412634D01*
X140493592Y-90476280D01*
X140697019Y-90508500D01*
X140697022Y-90508500D01*
X140902978Y-90508500D01*
X140902981Y-90508500D01*
X141106408Y-90476280D01*
X141302290Y-90412634D01*
X141485803Y-90319129D01*
X141652430Y-90198068D01*
X141798068Y-90052430D01*
X141919129Y-89885803D01*
X141957734Y-89810034D01*
X142006481Y-89758422D01*
X142075396Y-89741356D01*
X142142598Y-89764257D01*
X142182264Y-89810034D01*
X142220871Y-89885803D01*
X142341932Y-90052430D01*
X142341934Y-90052432D01*
X142341936Y-90052435D01*
X142487564Y-90198063D01*
X142487567Y-90198065D01*
X142487570Y-90198068D01*
X142654197Y-90319129D01*
X142837710Y-90412634D01*
X143033592Y-90476280D01*
X143237019Y-90508500D01*
X143237022Y-90508500D01*
X143442978Y-90508500D01*
X143442981Y-90508500D01*
X143646408Y-90476280D01*
X143842290Y-90412634D01*
X144025803Y-90319129D01*
X144192430Y-90198068D01*
X144338068Y-90052430D01*
X144459129Y-89885803D01*
X144497734Y-89810034D01*
X144546481Y-89758422D01*
X144615396Y-89741356D01*
X144682598Y-89764257D01*
X144722264Y-89810034D01*
X144760871Y-89885803D01*
X144881932Y-90052430D01*
X144881934Y-90052432D01*
X144881936Y-90052435D01*
X145027564Y-90198063D01*
X145027567Y-90198065D01*
X145027570Y-90198068D01*
X145194197Y-90319129D01*
X145377710Y-90412634D01*
X145573592Y-90476280D01*
X145777019Y-90508500D01*
X145777022Y-90508500D01*
X145982978Y-90508500D01*
X145982981Y-90508500D01*
X146186408Y-90476280D01*
X146382290Y-90412634D01*
X146565803Y-90319129D01*
X146732430Y-90198068D01*
X146878068Y-90052430D01*
X146999129Y-89885803D01*
X147037734Y-89810034D01*
X147086481Y-89758422D01*
X147155396Y-89741356D01*
X147222598Y-89764257D01*
X147262264Y-89810034D01*
X147300871Y-89885803D01*
X147421932Y-90052430D01*
X147421934Y-90052432D01*
X147421936Y-90052435D01*
X147567564Y-90198063D01*
X147567567Y-90198065D01*
X147567570Y-90198068D01*
X147734197Y-90319129D01*
X147917710Y-90412634D01*
X148113592Y-90476280D01*
X148317019Y-90508500D01*
X148317022Y-90508500D01*
X148522978Y-90508500D01*
X148522981Y-90508500D01*
X148726408Y-90476280D01*
X148922290Y-90412634D01*
X149105803Y-90319129D01*
X149272430Y-90198068D01*
X149418068Y-90052430D01*
X149539129Y-89885803D01*
X149577734Y-89810034D01*
X149626481Y-89758422D01*
X149695396Y-89741356D01*
X149762598Y-89764257D01*
X149802264Y-89810034D01*
X149840871Y-89885803D01*
X149961932Y-90052430D01*
X149961934Y-90052432D01*
X149961936Y-90052435D01*
X150107564Y-90198063D01*
X150107567Y-90198065D01*
X150107570Y-90198068D01*
X150274197Y-90319129D01*
X150457710Y-90412634D01*
X150653592Y-90476280D01*
X150857019Y-90508500D01*
X150857022Y-90508500D01*
X151062978Y-90508500D01*
X151062981Y-90508500D01*
X151266408Y-90476280D01*
X151462290Y-90412634D01*
X151645803Y-90319129D01*
X151812430Y-90198068D01*
X151958068Y-90052430D01*
X152079129Y-89885803D01*
X152117734Y-89810034D01*
X152166481Y-89758422D01*
X152235396Y-89741356D01*
X152302598Y-89764257D01*
X152342264Y-89810034D01*
X152380871Y-89885803D01*
X152501932Y-90052430D01*
X152501934Y-90052432D01*
X152501936Y-90052435D01*
X152647564Y-90198063D01*
X152647567Y-90198065D01*
X152647570Y-90198068D01*
X152814197Y-90319129D01*
X152997710Y-90412634D01*
X153193592Y-90476280D01*
X153397019Y-90508500D01*
X153397022Y-90508500D01*
X153602978Y-90508500D01*
X153602981Y-90508500D01*
X153806408Y-90476280D01*
X154002290Y-90412634D01*
X154185803Y-90319129D01*
X154352430Y-90198068D01*
X154498068Y-90052430D01*
X154619129Y-89885803D01*
X154657734Y-89810034D01*
X154706481Y-89758422D01*
X154775396Y-89741356D01*
X154842598Y-89764257D01*
X154882264Y-89810034D01*
X154920871Y-89885803D01*
X155041932Y-90052430D01*
X155041934Y-90052432D01*
X155041936Y-90052435D01*
X155187564Y-90198063D01*
X155187567Y-90198065D01*
X155187570Y-90198068D01*
X155354197Y-90319129D01*
X155537710Y-90412634D01*
X155733592Y-90476280D01*
X155937019Y-90508500D01*
X155937022Y-90508500D01*
X156142978Y-90508500D01*
X156142981Y-90508500D01*
X156346408Y-90476280D01*
X156542290Y-90412634D01*
X156725803Y-90319129D01*
X156892430Y-90198068D01*
X157038068Y-90052430D01*
X157159129Y-89885803D01*
X157197734Y-89810034D01*
X157246481Y-89758422D01*
X157315396Y-89741356D01*
X157382598Y-89764257D01*
X157422264Y-89810034D01*
X157460871Y-89885803D01*
X157581932Y-90052430D01*
X157581934Y-90052432D01*
X157581936Y-90052435D01*
X157727564Y-90198063D01*
X157727567Y-90198065D01*
X157727570Y-90198068D01*
X157894197Y-90319129D01*
X158077710Y-90412634D01*
X158273592Y-90476280D01*
X158477019Y-90508500D01*
X158477022Y-90508500D01*
X158682978Y-90508500D01*
X158682981Y-90508500D01*
X158886408Y-90476280D01*
X159082290Y-90412634D01*
X159265803Y-90319129D01*
X159432430Y-90198068D01*
X159432435Y-90198063D01*
X159480033Y-90150466D01*
X159578063Y-90052435D01*
X159578068Y-90052430D01*
X159699129Y-89885803D01*
X159738014Y-89809486D01*
X159786759Y-89757874D01*
X159855674Y-89740807D01*
X159922876Y-89763707D01*
X159962545Y-89809487D01*
X160001294Y-89885535D01*
X160001298Y-89885541D01*
X160032416Y-89928372D01*
X160032417Y-89928372D01*
X160595017Y-89365772D01*
X160607482Y-89412292D01*
X160679890Y-89537708D01*
X160782292Y-89640110D01*
X160907708Y-89712518D01*
X160954226Y-89724982D01*
X160391626Y-90287582D01*
X160391626Y-90287583D01*
X160434454Y-90318699D01*
X160617900Y-90412170D01*
X160617906Y-90412173D01*
X160813705Y-90475791D01*
X160813701Y-90475791D01*
X161017061Y-90508000D01*
X161222939Y-90508000D01*
X161426296Y-90475791D01*
X161622093Y-90412173D01*
X161622099Y-90412170D01*
X161805541Y-90318701D01*
X161848372Y-90287582D01*
X161848372Y-90287581D01*
X161285773Y-89724982D01*
X161332292Y-89712518D01*
X161457708Y-89640110D01*
X161560110Y-89537708D01*
X161632518Y-89412292D01*
X161644983Y-89365772D01*
X162207582Y-89928372D01*
X162238701Y-89885541D01*
X162277453Y-89809488D01*
X162326201Y-89757873D01*
X162395116Y-89740807D01*
X162462318Y-89763708D01*
X162501985Y-89809486D01*
X162540871Y-89885803D01*
X162661932Y-90052430D01*
X162661934Y-90052432D01*
X162661936Y-90052435D01*
X162807564Y-90198063D01*
X162807567Y-90198065D01*
X162807570Y-90198068D01*
X162974197Y-90319129D01*
X163157710Y-90412634D01*
X163353592Y-90476280D01*
X163557019Y-90508500D01*
X163557022Y-90508500D01*
X163762978Y-90508500D01*
X163762981Y-90508500D01*
X163966408Y-90476280D01*
X164162290Y-90412634D01*
X164345803Y-90319129D01*
X164512430Y-90198068D01*
X164658068Y-90052430D01*
X164779129Y-89885803D01*
X164872634Y-89702290D01*
X164936280Y-89506408D01*
X164968500Y-89302981D01*
X164968500Y-89097019D01*
X164936280Y-88893592D01*
X164872634Y-88697710D01*
X164779129Y-88514197D01*
X164658068Y-88347570D01*
X164658065Y-88347567D01*
X164658063Y-88347564D01*
X164512435Y-88201936D01*
X164512432Y-88201934D01*
X164512430Y-88201932D01*
X164345803Y-88080871D01*
X164162290Y-87987366D01*
X164162287Y-87987365D01*
X164162285Y-87987364D01*
X163966412Y-87923721D01*
X163966410Y-87923720D01*
X163966408Y-87923720D01*
X163762981Y-87891500D01*
X163557019Y-87891500D01*
X163557018Y-87891500D01*
X163505748Y-87899619D01*
X163435338Y-87890518D01*
X163396946Y-87864265D01*
X162644519Y-87111838D01*
X162644515Y-87111834D01*
X162520284Y-87028826D01*
X162382247Y-86971649D01*
X162308976Y-86957074D01*
X162308975Y-86957073D01*
X162235711Y-86942500D01*
X162235706Y-86942500D01*
X160562108Y-86942500D01*
X160493987Y-86922498D01*
X160447494Y-86868842D01*
X160437390Y-86798568D01*
X160466884Y-86733988D01*
X160504902Y-86704234D01*
X160559598Y-86676366D01*
X160719858Y-86559930D01*
X160859930Y-86419858D01*
X160976366Y-86259598D01*
X161066298Y-86083097D01*
X161127512Y-85894700D01*
X161158500Y-85699046D01*
X161158500Y-85500954D01*
X161127512Y-85305300D01*
X161066298Y-85116903D01*
X160976366Y-84940402D01*
X160859930Y-84780142D01*
X160859928Y-84780139D01*
X160719863Y-84640074D01*
X160719859Y-84640071D01*
X160719858Y-84640070D01*
X160710881Y-84633548D01*
X160667529Y-84577328D01*
X160661452Y-84506592D01*
X160694583Y-84443800D01*
X160695777Y-84442588D01*
X160783654Y-84354712D01*
X160890838Y-84207186D01*
X160973624Y-84044710D01*
X161029974Y-83871283D01*
X161058500Y-83691176D01*
X161058500Y-83508824D01*
X161029974Y-83328717D01*
X160973624Y-83155290D01*
X160890838Y-82992814D01*
X160783654Y-82845288D01*
X160783651Y-82845285D01*
X160783649Y-82845282D01*
X160654718Y-82716351D01*
X160654714Y-82716348D01*
X160654712Y-82716346D01*
X160575167Y-82658553D01*
X160531815Y-82602331D01*
X160529859Y-82589068D01*
X159940791Y-82000000D01*
X159952661Y-82000000D01*
X160054394Y-81972741D01*
X160145606Y-81920080D01*
X160220080Y-81845606D01*
X160272741Y-81754394D01*
X160300000Y-81652661D01*
X160300000Y-81640791D01*
X160880193Y-82220984D01*
X160880195Y-82220984D01*
X160890408Y-82206928D01*
X160973159Y-82044519D01*
X160973162Y-82044513D01*
X161029484Y-81871171D01*
X161058000Y-81691133D01*
X161058000Y-81508866D01*
X161029484Y-81328828D01*
X160973162Y-81155486D01*
X160973159Y-81155480D01*
X160890412Y-80993078D01*
X160880194Y-80979014D01*
X160300000Y-81559208D01*
X160300000Y-81547339D01*
X160272741Y-81445606D01*
X160220080Y-81354394D01*
X160145606Y-81279920D01*
X160054394Y-81227259D01*
X159952661Y-81200000D01*
X159940790Y-81200000D01*
X160520985Y-80619803D01*
X160519018Y-80594809D01*
X160533612Y-80525329D01*
X160570567Y-80482986D01*
X160622139Y-80445517D01*
X160745517Y-80322139D01*
X160848074Y-80180981D01*
X160927288Y-80025516D01*
X160981205Y-79859574D01*
X161008500Y-79687241D01*
X161008500Y-79512759D01*
X160981205Y-79340426D01*
X160927288Y-79174484D01*
X160848074Y-79019019D01*
X160745517Y-78877861D01*
X160745514Y-78877858D01*
X160745512Y-78877855D01*
X160654894Y-78787237D01*
X160620868Y-78724925D01*
X160625933Y-78654110D01*
X160668480Y-78597274D01*
X160669928Y-78596206D01*
X160719858Y-78559930D01*
X160859930Y-78419858D01*
X160976366Y-78259598D01*
X161066298Y-78083097D01*
X161127512Y-77894700D01*
X161158500Y-77699046D01*
X161158500Y-77500954D01*
X161127512Y-77305300D01*
X161066298Y-77116903D01*
X160976366Y-76940402D01*
X160859930Y-76780142D01*
X160859928Y-76780139D01*
X160778384Y-76698595D01*
X160744358Y-76636283D01*
X160749423Y-76565468D01*
X160791970Y-76508632D01*
X160858490Y-76483821D01*
X160867479Y-76483500D01*
X161832393Y-76483500D01*
X161832394Y-76483500D01*
X161954785Y-76459155D01*
X162070075Y-76411400D01*
X162173833Y-76342071D01*
X163210500Y-75305405D01*
X163272812Y-75271379D01*
X163299595Y-75268500D01*
X164508632Y-75268500D01*
X164508638Y-75268500D01*
X164508645Y-75268499D01*
X164508649Y-75268499D01*
X164569196Y-75261990D01*
X164569199Y-75261989D01*
X164569201Y-75261989D01*
X164706204Y-75210889D01*
X164719877Y-75200654D01*
X164823261Y-75123261D01*
X164910887Y-75006207D01*
X164910887Y-75006206D01*
X164910889Y-75006204D01*
X164961989Y-74869201D01*
X164968093Y-74812430D01*
X164968499Y-74808649D01*
X164968500Y-74808632D01*
X164968500Y-73111367D01*
X164968499Y-73111350D01*
X164961990Y-73050803D01*
X164961988Y-73050795D01*
X164910889Y-72913797D01*
X164910887Y-72913792D01*
X164823261Y-72796738D01*
X164706207Y-72709112D01*
X164706202Y-72709110D01*
X164569204Y-72658011D01*
X164569196Y-72658009D01*
X164508649Y-72651500D01*
X164508638Y-72651500D01*
X162811362Y-72651500D01*
X162811350Y-72651500D01*
X162750803Y-72658009D01*
X162750795Y-72658011D01*
X162613797Y-72709110D01*
X162613792Y-72709112D01*
X162496738Y-72796738D01*
X162409112Y-72913792D01*
X162409110Y-72913797D01*
X162358011Y-73050795D01*
X162358010Y-73050801D01*
X162356727Y-73062735D01*
X162329555Y-73128326D01*
X162271236Y-73168815D01*
X162200285Y-73171347D01*
X162139228Y-73135118D01*
X162129513Y-73123323D01*
X162118068Y-73107570D01*
X162118065Y-73107567D01*
X162118063Y-73107564D01*
X161972435Y-72961936D01*
X161972432Y-72961934D01*
X161972430Y-72961932D01*
X161806391Y-72841298D01*
X161805806Y-72840873D01*
X161805805Y-72840872D01*
X161805803Y-72840871D01*
X161622290Y-72747366D01*
X161622287Y-72747365D01*
X161622285Y-72747364D01*
X161426412Y-72683721D01*
X161426410Y-72683720D01*
X161426408Y-72683720D01*
X161222981Y-72651500D01*
X161017019Y-72651500D01*
X160813592Y-72683720D01*
X160813590Y-72683720D01*
X160813587Y-72683721D01*
X160617714Y-72747364D01*
X160617708Y-72747367D01*
X160434193Y-72840873D01*
X160267567Y-72961934D01*
X160267564Y-72961936D01*
X160121936Y-73107564D01*
X160121934Y-73107567D01*
X160000872Y-73274193D01*
X159961987Y-73350511D01*
X159913238Y-73402126D01*
X159844323Y-73419192D01*
X159777122Y-73396291D01*
X159737453Y-73350511D01*
X159698699Y-73274454D01*
X159667583Y-73231626D01*
X159667582Y-73231626D01*
X159104982Y-73794226D01*
X159092518Y-73747708D01*
X159020110Y-73622292D01*
X158917708Y-73519890D01*
X158792292Y-73447482D01*
X158745772Y-73435016D01*
X159308372Y-72872416D01*
X159265541Y-72841298D01*
X159265540Y-72841297D01*
X159082099Y-72747829D01*
X159082093Y-72747826D01*
X158886294Y-72684208D01*
X158886298Y-72684208D01*
X158682939Y-72652000D01*
X158477061Y-72652000D01*
X158273703Y-72684208D01*
X158077906Y-72747826D01*
X158077900Y-72747829D01*
X157894452Y-72841301D01*
X157851625Y-72872416D01*
X158414226Y-73435017D01*
X158367708Y-73447482D01*
X158242292Y-73519890D01*
X158139890Y-73622292D01*
X158067482Y-73747708D01*
X158055017Y-73794226D01*
X157492416Y-73231625D01*
X157461301Y-73274453D01*
X157461299Y-73274455D01*
X157422266Y-73351062D01*
X157373518Y-73402677D01*
X157304603Y-73419742D01*
X157237401Y-73396841D01*
X157197733Y-73351061D01*
X157158699Y-73274454D01*
X157127583Y-73231626D01*
X157127582Y-73231626D01*
X156564982Y-73794226D01*
X156552518Y-73747708D01*
X156480110Y-73622292D01*
X156377708Y-73519890D01*
X156252292Y-73447482D01*
X156205772Y-73435016D01*
X156768372Y-72872416D01*
X156725541Y-72841298D01*
X156725540Y-72841297D01*
X156542099Y-72747829D01*
X156542093Y-72747826D01*
X156346294Y-72684208D01*
X156346298Y-72684208D01*
X156142939Y-72652000D01*
X155937061Y-72652000D01*
X155733703Y-72684208D01*
X155537906Y-72747826D01*
X155537900Y-72747829D01*
X155354452Y-72841301D01*
X155311625Y-72872416D01*
X155874226Y-73435017D01*
X155827708Y-73447482D01*
X155702292Y-73519890D01*
X155599890Y-73622292D01*
X155527482Y-73747708D01*
X155515017Y-73794226D01*
X154952416Y-73231625D01*
X154921301Y-73274453D01*
X154921299Y-73274456D01*
X154882546Y-73350512D01*
X154833798Y-73402127D01*
X154764883Y-73419192D01*
X154697681Y-73396291D01*
X154658013Y-73350511D01*
X154619127Y-73274193D01*
X154542565Y-73168815D01*
X154498068Y-73107570D01*
X154498065Y-73107567D01*
X154498063Y-73107564D01*
X154352435Y-72961936D01*
X154352432Y-72961934D01*
X154352430Y-72961932D01*
X154186391Y-72841298D01*
X154185806Y-72840873D01*
X154185805Y-72840872D01*
X154185803Y-72840871D01*
X154002290Y-72747366D01*
X154002287Y-72747365D01*
X154002285Y-72747364D01*
X153806412Y-72683721D01*
X153806410Y-72683720D01*
X153806408Y-72683720D01*
X153602981Y-72651500D01*
X153397019Y-72651500D01*
X153316149Y-72664308D01*
X153193147Y-72683790D01*
X153122736Y-72674690D01*
X153084342Y-72648437D01*
X152947002Y-72511097D01*
X152327833Y-71891929D01*
X152224075Y-71822600D01*
X152108785Y-71774845D01*
X152035086Y-71760185D01*
X151986396Y-71750500D01*
X151986394Y-71750500D01*
X150774594Y-71750500D01*
X150706473Y-71730498D01*
X150659980Y-71676842D01*
X150649876Y-71606568D01*
X150679370Y-71541988D01*
X150685499Y-71535405D01*
X152250499Y-69970405D01*
X152312811Y-69936379D01*
X152339594Y-69933500D01*
X152948632Y-69933500D01*
X152948638Y-69933500D01*
X152948645Y-69933499D01*
X152948649Y-69933499D01*
X153009196Y-69926990D01*
X153009199Y-69926989D01*
X153009201Y-69926989D01*
X153146204Y-69875889D01*
X153146799Y-69875444D01*
X153263261Y-69788261D01*
X153350887Y-69671207D01*
X153350887Y-69671206D01*
X153350889Y-69671204D01*
X153401989Y-69534201D01*
X153402426Y-69530142D01*
X153408499Y-69473649D01*
X153408500Y-69473632D01*
X153408500Y-69473597D01*
X155392000Y-69473597D01*
X155398505Y-69534093D01*
X155449555Y-69670964D01*
X155449555Y-69670965D01*
X155537095Y-69787904D01*
X155654034Y-69875444D01*
X155790906Y-69926494D01*
X155851402Y-69932999D01*
X155851415Y-69933000D01*
X156146000Y-69933000D01*
X156654000Y-69933000D01*
X156948585Y-69933000D01*
X156948597Y-69932999D01*
X157009093Y-69926494D01*
X157145964Y-69875444D01*
X157145965Y-69875444D01*
X157262904Y-69787904D01*
X157350444Y-69670965D01*
X157350444Y-69670964D01*
X157401494Y-69534093D01*
X157407999Y-69473597D01*
X157408000Y-69473585D01*
X157408000Y-68279000D01*
X156654000Y-68279000D01*
X156654000Y-69933000D01*
X156146000Y-69933000D01*
X156146000Y-68279000D01*
X155392000Y-68279000D01*
X155392000Y-69473597D01*
X153408500Y-69473597D01*
X153408500Y-66878013D01*
X153428502Y-66809892D01*
X153482158Y-66763399D01*
X153509916Y-66754434D01*
X153665000Y-66723587D01*
X153830336Y-66655102D01*
X153979135Y-66555678D01*
X154014408Y-66520405D01*
X154076720Y-66486379D01*
X154103503Y-66483500D01*
X155266000Y-66483500D01*
X155334121Y-66503502D01*
X155380614Y-66557158D01*
X155392000Y-66609500D01*
X155392000Y-67771000D01*
X157408000Y-67771000D01*
X157408000Y-66609500D01*
X157428002Y-66541379D01*
X157481658Y-66494886D01*
X157534000Y-66483500D01*
X160140589Y-66483500D01*
X160208710Y-66503502D01*
X160255203Y-66557158D01*
X160265038Y-66589788D01*
X160270027Y-66621288D01*
X160326374Y-66794706D01*
X160326375Y-66794709D01*
X160326376Y-66794710D01*
X160409162Y-66957186D01*
X160516346Y-67104712D01*
X160516348Y-67104714D01*
X160516350Y-67104717D01*
X160645282Y-67233649D01*
X160645285Y-67233651D01*
X160645288Y-67233654D01*
X160724828Y-67291443D01*
X160768182Y-67347665D01*
X160770137Y-67360928D01*
X161359209Y-67950000D01*
X161347339Y-67950000D01*
X161245606Y-67977259D01*
X161154394Y-68029920D01*
X161079920Y-68104394D01*
X161027259Y-68195606D01*
X161000000Y-68297339D01*
X161000000Y-68309209D01*
X160419804Y-67729013D01*
X160419803Y-67729014D01*
X160409591Y-67743072D01*
X160326840Y-67905480D01*
X160326837Y-67905486D01*
X160270515Y-68078828D01*
X160242000Y-68258866D01*
X160242000Y-68441133D01*
X160270515Y-68621171D01*
X160326837Y-68794513D01*
X160326840Y-68794519D01*
X160409588Y-68956923D01*
X160419803Y-68970984D01*
X161000000Y-68390788D01*
X161000000Y-68402661D01*
X161027259Y-68504394D01*
X161079920Y-68595606D01*
X161154394Y-68670080D01*
X161245606Y-68722741D01*
X161347339Y-68750000D01*
X161359210Y-68750000D01*
X160948556Y-69160652D01*
X160916665Y-69183822D01*
X160740401Y-69273634D01*
X160580139Y-69390071D01*
X160440071Y-69530139D01*
X160323636Y-69690398D01*
X160233703Y-69866901D01*
X160233702Y-69866903D01*
X160187038Y-70010521D01*
X160172488Y-70055300D01*
X160141500Y-70250954D01*
X160141500Y-70449046D01*
X160172488Y-70644700D01*
X160233702Y-70833097D01*
X160323634Y-71009598D01*
X160323636Y-71009601D01*
X160440071Y-71169860D01*
X160580139Y-71309928D01*
X160580142Y-71309930D01*
X160740402Y-71426366D01*
X160916903Y-71516298D01*
X161105300Y-71577512D01*
X161300954Y-71608500D01*
X161300957Y-71608500D01*
X161499043Y-71608500D01*
X161499046Y-71608500D01*
X161694700Y-71577512D01*
X161883097Y-71516298D01*
X162059598Y-71426366D01*
X162219858Y-71309930D01*
X162359930Y-71169858D01*
X162476366Y-71009598D01*
X162566298Y-70833097D01*
X162627512Y-70644700D01*
X162658500Y-70449046D01*
X162658500Y-70250954D01*
X162627512Y-70055300D01*
X162566298Y-69866903D01*
X162476366Y-69690402D01*
X162403074Y-69589525D01*
X162359928Y-69530139D01*
X162219860Y-69390071D01*
X162059601Y-69273636D01*
X162059600Y-69273635D01*
X162059598Y-69273634D01*
X161883330Y-69183821D01*
X161851439Y-69160650D01*
X161440790Y-68750000D01*
X161452661Y-68750000D01*
X161554394Y-68722741D01*
X161645606Y-68670080D01*
X161720080Y-68595606D01*
X161772741Y-68504394D01*
X161800000Y-68402661D01*
X161800000Y-68390791D01*
X162380193Y-68970984D01*
X162380195Y-68970984D01*
X162390408Y-68956928D01*
X162473159Y-68794519D01*
X162473162Y-68794513D01*
X162529484Y-68621171D01*
X162558000Y-68441133D01*
X162558000Y-68258866D01*
X162529484Y-68078828D01*
X162473162Y-67905486D01*
X162473159Y-67905480D01*
X162390412Y-67743078D01*
X162380194Y-67729014D01*
X161800000Y-68309208D01*
X161800000Y-68297339D01*
X161772741Y-68195606D01*
X161720080Y-68104394D01*
X161645606Y-68029920D01*
X161554394Y-67977259D01*
X161452661Y-67950000D01*
X161440790Y-67950000D01*
X162033216Y-67357572D01*
X162038211Y-67333791D01*
X162075165Y-67291447D01*
X162154712Y-67233654D01*
X162283654Y-67104712D01*
X162390838Y-66957186D01*
X162473624Y-66794710D01*
X162529974Y-66621283D01*
X162558500Y-66441176D01*
X162558500Y-66258824D01*
X162529974Y-66078717D01*
X162473624Y-65905290D01*
X162390838Y-65742814D01*
X162283654Y-65595288D01*
X162283651Y-65595285D01*
X162283649Y-65595282D01*
X162154718Y-65466351D01*
X162154714Y-65466348D01*
X162154712Y-65466346D01*
X162092344Y-65421033D01*
X162048992Y-65364811D01*
X162042917Y-65294075D01*
X162076049Y-65231283D01*
X162092339Y-65217167D01*
X162122139Y-65195517D01*
X162245517Y-65072139D01*
X162348074Y-64930981D01*
X162427288Y-64775516D01*
X162481205Y-64609574D01*
X162508500Y-64437241D01*
X162508500Y-64262759D01*
X162481205Y-64090426D01*
X162427288Y-63924484D01*
X162348074Y-63769019D01*
X162245517Y-63627861D01*
X162245514Y-63627858D01*
X162245512Y-63627855D01*
X162154894Y-63537237D01*
X162120868Y-63474925D01*
X162125933Y-63404110D01*
X162168480Y-63347274D01*
X162169928Y-63346206D01*
X162219858Y-63309930D01*
X162359930Y-63169858D01*
X162476366Y-63009598D01*
X162566298Y-62833097D01*
X162627512Y-62644700D01*
X162658500Y-62449046D01*
X162658500Y-62250954D01*
X162627512Y-62055300D01*
X162566298Y-61866903D01*
X162476366Y-61690402D01*
X162359930Y-61530142D01*
X162359928Y-61530139D01*
X162219860Y-61390071D01*
X162059601Y-61273636D01*
X162059600Y-61273635D01*
X162059598Y-61273634D01*
X161883097Y-61183702D01*
X161694700Y-61122488D01*
X161499046Y-61091500D01*
X161300954Y-61091500D01*
X161105300Y-61122488D01*
X161105297Y-61122488D01*
X161105296Y-61122489D01*
X160916903Y-61183702D01*
X160916901Y-61183703D01*
X160740398Y-61273636D01*
X160580139Y-61390071D01*
X160440071Y-61530139D01*
X160323636Y-61690398D01*
X160323634Y-61690402D01*
X160233702Y-61866903D01*
X160172488Y-62055300D01*
X160141500Y-62250954D01*
X160141500Y-62449046D01*
X160172488Y-62644700D01*
X160233702Y-62833097D01*
X160315933Y-62994484D01*
X160323636Y-63009601D01*
X160440071Y-63169860D01*
X160580135Y-63309924D01*
X160580138Y-63309926D01*
X160580142Y-63309930D01*
X160630072Y-63346206D01*
X160673425Y-63402429D01*
X160679500Y-63473165D01*
X160646368Y-63535957D01*
X160645106Y-63537237D01*
X160554483Y-63627860D01*
X160451928Y-63769015D01*
X160372713Y-63924482D01*
X160372710Y-63924488D01*
X160337426Y-64033084D01*
X160318795Y-64090426D01*
X160291500Y-64262759D01*
X160291500Y-64437241D01*
X160318795Y-64609574D01*
X160318796Y-64609577D01*
X160371200Y-64770865D01*
X160372712Y-64775516D01*
X160410570Y-64849815D01*
X160451927Y-64930983D01*
X160514015Y-65016439D01*
X160537873Y-65083307D01*
X160521793Y-65152458D01*
X160470879Y-65201938D01*
X160412079Y-65216500D01*
X154103503Y-65216500D01*
X154035382Y-65196498D01*
X154014408Y-65179595D01*
X153979137Y-65144324D01*
X153979135Y-65144322D01*
X153830336Y-65044898D01*
X153713429Y-64996473D01*
X153665003Y-64976414D01*
X153665001Y-64976413D01*
X153665000Y-64976413D01*
X153576645Y-64958838D01*
X153489481Y-64941500D01*
X153489479Y-64941500D01*
X153310521Y-64941500D01*
X153310515Y-64941500D01*
X153184081Y-64966650D01*
X153113367Y-64960322D01*
X153057300Y-64916768D01*
X153033681Y-64849815D01*
X153033500Y-64843071D01*
X153033500Y-64205409D01*
X153053502Y-64137288D01*
X153107158Y-64090795D01*
X153115469Y-64087353D01*
X153133808Y-64080512D01*
X153146204Y-64075889D01*
X153263261Y-63988261D01*
X153283501Y-63961224D01*
X153350887Y-63871207D01*
X153350887Y-63871206D01*
X153350889Y-63871204D01*
X153401989Y-63734201D01*
X153408500Y-63673638D01*
X153408500Y-63673597D01*
X155392000Y-63673597D01*
X155398505Y-63734093D01*
X155449555Y-63870964D01*
X155449555Y-63870965D01*
X155537095Y-63987904D01*
X155654034Y-64075444D01*
X155790906Y-64126494D01*
X155851402Y-64132999D01*
X155851415Y-64133000D01*
X156146000Y-64133000D01*
X156654000Y-64133000D01*
X156948585Y-64133000D01*
X156948597Y-64132999D01*
X157009093Y-64126494D01*
X157145964Y-64075444D01*
X157145965Y-64075444D01*
X157262904Y-63987904D01*
X157350444Y-63870965D01*
X157350444Y-63870964D01*
X157401494Y-63734093D01*
X157407999Y-63673597D01*
X157408000Y-63673585D01*
X157408000Y-62479000D01*
X156654000Y-62479000D01*
X156654000Y-64133000D01*
X156146000Y-64133000D01*
X156146000Y-62479000D01*
X155392000Y-62479000D01*
X155392000Y-63673597D01*
X153408500Y-63673597D01*
X153408500Y-60776362D01*
X153406580Y-60758499D01*
X153401990Y-60715803D01*
X153401988Y-60715795D01*
X153378765Y-60653533D01*
X153373699Y-60582718D01*
X153407724Y-60520405D01*
X153470036Y-60486380D01*
X153496820Y-60483500D01*
X155303714Y-60483500D01*
X155371835Y-60503502D01*
X155418328Y-60557158D01*
X155428432Y-60627432D01*
X155421770Y-60653533D01*
X155398505Y-60715907D01*
X155392000Y-60776402D01*
X155392000Y-61971000D01*
X157408000Y-61971000D01*
X157408000Y-60776414D01*
X157407999Y-60776402D01*
X157401494Y-60715907D01*
X157378230Y-60653533D01*
X157373165Y-60582717D01*
X157407190Y-60520405D01*
X157469502Y-60486380D01*
X157496286Y-60483500D01*
X164446497Y-60483500D01*
X164514618Y-60503502D01*
X164535592Y-60520405D01*
X164570865Y-60555678D01*
X164719664Y-60655102D01*
X164885000Y-60723587D01*
X165060521Y-60758500D01*
X165060522Y-60758500D01*
X165239478Y-60758500D01*
X165239479Y-60758500D01*
X165415000Y-60723587D01*
X165580336Y-60655102D01*
X165729135Y-60555678D01*
X165855678Y-60429135D01*
X165955102Y-60280336D01*
X166023587Y-60115000D01*
X166058500Y-59939479D01*
X166058500Y-59760521D01*
X166023587Y-59585000D01*
X165955102Y-59419664D01*
X165855678Y-59270865D01*
X165729135Y-59144322D01*
X165580336Y-59044898D01*
X165463429Y-58996473D01*
X165415003Y-58976414D01*
X165415001Y-58976413D01*
X165415000Y-58976413D01*
X165326645Y-58958838D01*
X165239481Y-58941500D01*
X165239479Y-58941500D01*
X165060521Y-58941500D01*
X165060518Y-58941500D01*
X164929771Y-58967507D01*
X164885000Y-58976413D01*
X164884999Y-58976413D01*
X164884996Y-58976414D01*
X164719662Y-59044899D01*
X164570869Y-59144319D01*
X164570862Y-59144324D01*
X164535592Y-59179595D01*
X164473280Y-59213621D01*
X164446497Y-59216500D01*
X144587603Y-59216500D01*
X144465214Y-59240845D01*
X144465209Y-59240847D01*
X144433859Y-59253833D01*
X144392740Y-59270865D01*
X144349923Y-59288600D01*
X144246167Y-59357927D01*
X143879984Y-59724111D01*
X142674499Y-60929596D01*
X142612189Y-60963620D01*
X142585406Y-60966500D01*
X131884500Y-60966500D01*
X131816379Y-60946498D01*
X131769886Y-60892842D01*
X131758500Y-60840500D01*
X131758500Y-60701367D01*
X131758499Y-60701350D01*
X131751990Y-60640803D01*
X131751988Y-60640795D01*
X131700889Y-60503797D01*
X131700887Y-60503792D01*
X131613261Y-60386738D01*
X131496207Y-60299112D01*
X131496202Y-60299110D01*
X131359204Y-60248011D01*
X131359196Y-60248009D01*
X131298649Y-60241500D01*
X131298638Y-60241500D01*
X129501362Y-60241500D01*
X129501350Y-60241500D01*
X129440803Y-60248009D01*
X129440795Y-60248011D01*
X129303797Y-60299110D01*
X129303792Y-60299112D01*
X129186738Y-60386738D01*
X129099112Y-60503792D01*
X129099110Y-60503797D01*
X129048011Y-60640795D01*
X129048009Y-60640803D01*
X129041500Y-60701350D01*
X129041500Y-62016500D01*
X129021498Y-62084621D01*
X128967842Y-62131114D01*
X128915500Y-62142500D01*
X128276990Y-62142500D01*
X128208869Y-62122498D01*
X128187895Y-62105595D01*
X124869248Y-58786948D01*
X124835222Y-58724636D01*
X124840287Y-58653821D01*
X124882834Y-58596985D01*
X124938632Y-58573404D01*
X125146003Y-58540559D01*
X125349286Y-58474509D01*
X125349292Y-58474506D01*
X125539750Y-58377463D01*
X125592167Y-58339378D01*
X125592167Y-58339376D01*
X124952948Y-57700157D01*
X125020993Y-57681925D01*
X125135007Y-57616099D01*
X125228099Y-57523007D01*
X125293925Y-57408993D01*
X125312157Y-57340948D01*
X125951376Y-57980167D01*
X125951378Y-57980167D01*
X125989463Y-57927750D01*
X126086506Y-57737292D01*
X126086509Y-57737286D01*
X126152559Y-57534003D01*
X126186000Y-57322873D01*
X126186000Y-57109126D01*
X146790000Y-57109126D01*
X146790000Y-57322873D01*
X146823440Y-57534003D01*
X146889490Y-57737286D01*
X146889493Y-57737292D01*
X146986535Y-57927748D01*
X146986536Y-57927750D01*
X147024620Y-57980167D01*
X147024621Y-57980168D01*
X147663841Y-57340947D01*
X147682075Y-57408993D01*
X147747901Y-57523007D01*
X147840993Y-57616099D01*
X147955007Y-57681925D01*
X148023051Y-57700157D01*
X147383831Y-58339378D01*
X147436249Y-58377463D01*
X147436251Y-58377464D01*
X147626707Y-58474506D01*
X147626713Y-58474509D01*
X147829996Y-58540559D01*
X148041126Y-58574000D01*
X148254874Y-58574000D01*
X148466003Y-58540559D01*
X148669286Y-58474509D01*
X148669292Y-58474506D01*
X148859750Y-58377463D01*
X148912167Y-58339378D01*
X148912167Y-58339376D01*
X148272948Y-57700157D01*
X148340993Y-57681925D01*
X148455007Y-57616099D01*
X148548099Y-57523007D01*
X148613925Y-57408993D01*
X148632157Y-57340948D01*
X149271376Y-57980167D01*
X149271378Y-57980167D01*
X149309463Y-57927750D01*
X149310562Y-57925958D01*
X149311158Y-57925418D01*
X149312377Y-57923741D01*
X149312729Y-57923996D01*
X149363206Y-57878322D01*
X149433246Y-57866710D01*
X149498446Y-57894808D01*
X149523559Y-57923788D01*
X149523624Y-57923742D01*
X149524165Y-57924487D01*
X149525433Y-57925950D01*
X149526535Y-57927749D01*
X149564620Y-57980167D01*
X149564621Y-57980168D01*
X150203841Y-57340947D01*
X150222075Y-57408993D01*
X150287901Y-57523007D01*
X150380993Y-57616099D01*
X150495007Y-57681925D01*
X150563051Y-57700157D01*
X149923831Y-58339378D01*
X149976249Y-58377463D01*
X149976251Y-58377464D01*
X150166707Y-58474506D01*
X150166713Y-58474509D01*
X150369996Y-58540559D01*
X150581126Y-58574000D01*
X150794874Y-58574000D01*
X151006003Y-58540559D01*
X151209286Y-58474509D01*
X151209292Y-58474506D01*
X151399750Y-58377463D01*
X151452167Y-58339378D01*
X151452167Y-58339376D01*
X150812948Y-57700157D01*
X150880993Y-57681925D01*
X150995007Y-57616099D01*
X151088099Y-57523007D01*
X151153925Y-57408993D01*
X151172157Y-57340948D01*
X151811376Y-57980167D01*
X151811378Y-57980167D01*
X151849463Y-57927750D01*
X151850562Y-57925958D01*
X151851158Y-57925418D01*
X151852377Y-57923741D01*
X151852729Y-57923996D01*
X151903206Y-57878322D01*
X151973246Y-57866710D01*
X152038446Y-57894808D01*
X152063559Y-57923788D01*
X152063624Y-57923742D01*
X152064165Y-57924487D01*
X152065433Y-57925950D01*
X152066535Y-57927749D01*
X152104620Y-57980167D01*
X152104621Y-57980168D01*
X152743841Y-57340947D01*
X152762075Y-57408993D01*
X152827901Y-57523007D01*
X152920993Y-57616099D01*
X153035007Y-57681925D01*
X153103051Y-57700157D01*
X152463831Y-58339378D01*
X152516249Y-58377463D01*
X152516251Y-58377464D01*
X152706707Y-58474506D01*
X152706713Y-58474509D01*
X152909996Y-58540559D01*
X153121126Y-58574000D01*
X153334874Y-58574000D01*
X153546003Y-58540559D01*
X153749286Y-58474509D01*
X153749292Y-58474506D01*
X153939750Y-58377463D01*
X153992167Y-58339378D01*
X153992167Y-58339376D01*
X153352948Y-57700157D01*
X153420993Y-57681925D01*
X153535007Y-57616099D01*
X153628099Y-57523007D01*
X153693925Y-57408993D01*
X153712157Y-57340948D01*
X154381794Y-58010585D01*
X154415820Y-58072897D01*
X154412030Y-58133471D01*
X154416505Y-58175093D01*
X154467555Y-58311964D01*
X154467555Y-58311965D01*
X154555095Y-58428904D01*
X154672034Y-58516444D01*
X154808906Y-58567494D01*
X154869402Y-58573999D01*
X154869415Y-58574000D01*
X155514000Y-58574000D01*
X155514000Y-57646702D01*
X155575007Y-57681925D01*
X155702174Y-57716000D01*
X155833826Y-57716000D01*
X155960993Y-57681925D01*
X156022000Y-57646702D01*
X156022000Y-58574000D01*
X156666585Y-58574000D01*
X156666597Y-58573999D01*
X156727093Y-58567494D01*
X156863964Y-58516444D01*
X156863965Y-58516444D01*
X156980904Y-58428904D01*
X157068444Y-58311965D01*
X157068444Y-58311964D01*
X157119494Y-58175093D01*
X157125999Y-58114597D01*
X157126000Y-58114585D01*
X157126000Y-57470000D01*
X156198703Y-57470000D01*
X156233925Y-57408993D01*
X156268000Y-57281826D01*
X156268000Y-57150174D01*
X156233925Y-57023007D01*
X156198703Y-56962000D01*
X157126000Y-56962000D01*
X157126000Y-56317414D01*
X157125999Y-56317402D01*
X157119494Y-56256906D01*
X157068444Y-56120035D01*
X157068444Y-56120034D01*
X156980904Y-56003095D01*
X156863965Y-55915555D01*
X156727093Y-55864505D01*
X156666597Y-55858000D01*
X156022000Y-55858000D01*
X156022000Y-56785297D01*
X155960993Y-56750075D01*
X155833826Y-56716000D01*
X155702174Y-56716000D01*
X155575007Y-56750075D01*
X155514000Y-56785297D01*
X155514000Y-55858000D01*
X154869402Y-55858000D01*
X154808906Y-55864505D01*
X154672035Y-55915555D01*
X154672034Y-55915555D01*
X154555095Y-56003095D01*
X154467555Y-56120034D01*
X154467555Y-56120035D01*
X154416505Y-56256905D01*
X154411981Y-56298978D01*
X154415319Y-56361301D01*
X154381794Y-56421414D01*
X153712157Y-57091051D01*
X153693925Y-57023007D01*
X153628099Y-56908993D01*
X153535007Y-56815901D01*
X153420993Y-56750075D01*
X153352947Y-56731841D01*
X153992168Y-56092621D01*
X153992167Y-56092620D01*
X153939750Y-56054536D01*
X153939748Y-56054535D01*
X153749292Y-55957493D01*
X153749286Y-55957490D01*
X153546003Y-55891440D01*
X153334874Y-55858000D01*
X153121126Y-55858000D01*
X152909996Y-55891440D01*
X152706713Y-55957490D01*
X152706707Y-55957493D01*
X152516253Y-56054534D01*
X152463831Y-56092621D01*
X152463831Y-56092622D01*
X153103051Y-56731842D01*
X153035007Y-56750075D01*
X152920993Y-56815901D01*
X152827901Y-56908993D01*
X152762075Y-57023007D01*
X152743842Y-57091051D01*
X152104622Y-56451831D01*
X152104621Y-56451831D01*
X152066522Y-56504269D01*
X152065422Y-56506065D01*
X152064827Y-56506603D01*
X152063624Y-56508259D01*
X152063275Y-56508006D01*
X152012768Y-56553689D01*
X151942725Y-56565286D01*
X151877531Y-56537174D01*
X151852440Y-56508211D01*
X151852376Y-56508258D01*
X151851830Y-56507506D01*
X151850563Y-56506044D01*
X151849462Y-56504248D01*
X151811378Y-56451831D01*
X151172157Y-57091051D01*
X151153925Y-57023007D01*
X151088099Y-56908993D01*
X150995007Y-56815901D01*
X150880993Y-56750075D01*
X150812947Y-56731841D01*
X151452168Y-56092621D01*
X151452167Y-56092620D01*
X151399750Y-56054536D01*
X151399748Y-56054535D01*
X151209292Y-55957493D01*
X151209286Y-55957490D01*
X151006003Y-55891440D01*
X150794874Y-55858000D01*
X150581126Y-55858000D01*
X150369996Y-55891440D01*
X150166713Y-55957490D01*
X150166707Y-55957493D01*
X149976253Y-56054534D01*
X149923831Y-56092621D01*
X149923831Y-56092622D01*
X150563051Y-56731842D01*
X150495007Y-56750075D01*
X150380993Y-56815901D01*
X150287901Y-56908993D01*
X150222075Y-57023007D01*
X150203842Y-57091051D01*
X149564622Y-56451831D01*
X149564621Y-56451831D01*
X149526522Y-56504269D01*
X149525422Y-56506065D01*
X149524827Y-56506603D01*
X149523624Y-56508259D01*
X149523275Y-56508006D01*
X149472768Y-56553689D01*
X149402725Y-56565286D01*
X149337531Y-56537174D01*
X149312440Y-56508211D01*
X149312376Y-56508258D01*
X149311830Y-56507506D01*
X149310563Y-56506044D01*
X149309462Y-56504248D01*
X149271378Y-56451831D01*
X148632157Y-57091051D01*
X148613925Y-57023007D01*
X148548099Y-56908993D01*
X148455007Y-56815901D01*
X148340993Y-56750075D01*
X148272947Y-56731841D01*
X148912168Y-56092621D01*
X148912167Y-56092620D01*
X148859750Y-56054536D01*
X148859748Y-56054535D01*
X148669292Y-55957493D01*
X148669286Y-55957490D01*
X148466003Y-55891440D01*
X148254874Y-55858000D01*
X148041126Y-55858000D01*
X147829996Y-55891440D01*
X147626713Y-55957490D01*
X147626707Y-55957493D01*
X147436253Y-56054534D01*
X147383831Y-56092621D01*
X147383831Y-56092622D01*
X148023051Y-56731842D01*
X147955007Y-56750075D01*
X147840993Y-56815901D01*
X147747901Y-56908993D01*
X147682075Y-57023007D01*
X147663842Y-57091051D01*
X147024622Y-56451831D01*
X147024621Y-56451831D01*
X146986534Y-56504253D01*
X146889493Y-56694707D01*
X146889490Y-56694713D01*
X146823440Y-56897996D01*
X146790000Y-57109126D01*
X126186000Y-57109126D01*
X126152559Y-56897996D01*
X126086509Y-56694713D01*
X126086506Y-56694707D01*
X125989464Y-56504251D01*
X125989463Y-56504249D01*
X125951378Y-56451831D01*
X125312157Y-57091051D01*
X125293925Y-57023007D01*
X125228099Y-56908993D01*
X125135007Y-56815901D01*
X125020993Y-56750075D01*
X124952947Y-56731841D01*
X125592168Y-56092621D01*
X125592167Y-56092620D01*
X125539750Y-56054536D01*
X125539748Y-56054535D01*
X125349292Y-55957493D01*
X125349286Y-55957490D01*
X125146003Y-55891440D01*
X124934874Y-55858000D01*
X124721126Y-55858000D01*
X124509996Y-55891440D01*
X124306713Y-55957490D01*
X124306707Y-55957493D01*
X124116253Y-56054534D01*
X124063831Y-56092621D01*
X124063831Y-56092622D01*
X124703051Y-56731842D01*
X124635007Y-56750075D01*
X124520993Y-56815901D01*
X124427901Y-56908993D01*
X124362075Y-57023007D01*
X124343841Y-57091052D01*
X123704621Y-56451831D01*
X123666522Y-56504269D01*
X123665422Y-56506065D01*
X123664827Y-56506603D01*
X123663624Y-56508259D01*
X123663275Y-56508006D01*
X123612768Y-56553689D01*
X123542725Y-56565286D01*
X123477531Y-56537174D01*
X123452440Y-56508211D01*
X123452376Y-56508258D01*
X123451830Y-56507506D01*
X123450563Y-56506044D01*
X123449462Y-56504248D01*
X123411378Y-56451831D01*
X123411377Y-56451830D01*
X122772157Y-57091050D01*
X122753925Y-57023007D01*
X122688099Y-56908993D01*
X122595007Y-56815901D01*
X122480993Y-56750075D01*
X122412947Y-56731841D01*
X123052168Y-56092621D01*
X123052167Y-56092620D01*
X122999750Y-56054536D01*
X122999748Y-56054535D01*
X122809292Y-55957493D01*
X122809286Y-55957490D01*
X122606003Y-55891440D01*
X122394874Y-55858000D01*
X122181126Y-55858000D01*
X121969996Y-55891440D01*
X121766713Y-55957490D01*
X121766707Y-55957493D01*
X121576253Y-56054534D01*
X121523831Y-56092621D01*
X121523831Y-56092622D01*
X122163051Y-56731842D01*
X122095007Y-56750075D01*
X121980993Y-56815901D01*
X121887901Y-56908993D01*
X121822075Y-57023007D01*
X121803841Y-57091052D01*
X121164621Y-56451831D01*
X121126522Y-56504269D01*
X121125422Y-56506065D01*
X121124827Y-56506603D01*
X121123624Y-56508259D01*
X121123275Y-56508006D01*
X121072768Y-56553689D01*
X121002725Y-56565286D01*
X120937531Y-56537174D01*
X120912440Y-56508211D01*
X120912376Y-56508258D01*
X120911830Y-56507506D01*
X120910563Y-56506044D01*
X120909462Y-56504248D01*
X120871378Y-56451831D01*
X120871377Y-56451830D01*
X120232157Y-57091050D01*
X120213925Y-57023007D01*
X120148099Y-56908993D01*
X120055007Y-56815901D01*
X119940993Y-56750075D01*
X119872947Y-56731841D01*
X120512168Y-56092621D01*
X120512167Y-56092620D01*
X120459750Y-56054536D01*
X120459748Y-56054535D01*
X120269292Y-55957493D01*
X120269286Y-55957490D01*
X120066003Y-55891440D01*
X119854874Y-55858000D01*
X119641126Y-55858000D01*
X119429996Y-55891440D01*
X119226713Y-55957490D01*
X119226707Y-55957493D01*
X119036253Y-56054534D01*
X118983831Y-56092621D01*
X118983831Y-56092622D01*
X119623051Y-56731842D01*
X119555007Y-56750075D01*
X119440993Y-56815901D01*
X119347901Y-56908993D01*
X119282075Y-57023007D01*
X119263841Y-57091052D01*
X118594203Y-56421413D01*
X118560178Y-56359101D01*
X118559092Y-56353501D01*
X118528400Y-56173541D01*
X118508443Y-56120033D01*
X118420904Y-56003095D01*
X118303965Y-55915555D01*
X118167093Y-55864505D01*
X118106597Y-55858000D01*
X117462000Y-55858000D01*
X117462000Y-56785297D01*
X117400993Y-56750075D01*
X117273826Y-56716000D01*
X117142174Y-56716000D01*
X117015007Y-56750075D01*
X116954000Y-56785297D01*
X116954000Y-55858000D01*
X116309402Y-55858000D01*
X116248906Y-55864505D01*
X116112035Y-55915555D01*
X116112034Y-55915555D01*
X115995095Y-56003095D01*
X115907555Y-56120034D01*
X115907555Y-56120035D01*
X115856505Y-56256906D01*
X115850000Y-56317402D01*
X115850000Y-56962000D01*
X116777297Y-56962000D01*
X116742075Y-57023007D01*
X116708000Y-57150174D01*
X116708000Y-57281826D01*
X116742075Y-57408993D01*
X116777297Y-57470000D01*
X115850000Y-57470000D01*
X115850000Y-57937804D01*
X115829998Y-58005925D01*
X115776342Y-58052418D01*
X115706068Y-58062522D01*
X115641488Y-58033028D01*
X115634905Y-58026899D01*
X114331988Y-56723982D01*
X114331986Y-56723980D01*
X114228228Y-56654651D01*
X114112938Y-56606896D01*
X114039239Y-56592236D01*
X113990549Y-56582551D01*
X113990547Y-56582551D01*
X112855160Y-56582551D01*
X112848675Y-56580647D01*
X112842028Y-56581865D01*
X112815038Y-56570770D01*
X112787039Y-56562549D01*
X112781073Y-56556808D01*
X112776363Y-56554872D01*
X112766605Y-56542884D01*
X112751854Y-56528689D01*
X112746857Y-56521533D01*
X112737945Y-56504042D01*
X112612257Y-56331047D01*
X112612254Y-56331044D01*
X112612252Y-56331041D01*
X112461060Y-56179849D01*
X112461057Y-56179847D01*
X112461055Y-56179845D01*
X112288582Y-56054536D01*
X112288063Y-56054159D01*
X112288062Y-56054158D01*
X112288060Y-56054157D01*
X112097534Y-55957079D01*
X112097531Y-55957078D01*
X112097529Y-55957077D01*
X111894171Y-55891003D01*
X111894174Y-55891003D01*
X111854852Y-55884775D01*
X111682967Y-55857551D01*
X111537336Y-55857551D01*
X111469215Y-55837549D01*
X111422722Y-55783893D01*
X111412618Y-55713619D01*
X111422722Y-55679209D01*
X111475001Y-55564734D01*
X111495810Y-55420000D01*
X111475001Y-55275266D01*
X111414258Y-55142257D01*
X111376038Y-55094828D01*
X111376031Y-55094821D01*
X111376023Y-55094812D01*
X110105187Y-53823976D01*
X110105177Y-53823967D01*
X110105172Y-53823962D01*
X110057743Y-53785742D01*
X109924734Y-53724999D01*
X109780000Y-53704190D01*
X109635265Y-53724999D01*
X109502256Y-53785742D01*
X109454831Y-53823959D01*
X109454812Y-53823976D01*
X108183976Y-55094812D01*
X108183959Y-55094831D01*
X108145742Y-55142256D01*
X108111567Y-55217091D01*
X108084999Y-55275266D01*
X108064190Y-55420000D01*
X105121369Y-55420000D01*
X105087304Y-55223168D01*
X105086408Y-55217113D01*
X104997643Y-54495568D01*
X104997041Y-54489432D01*
X104967146Y-54083108D01*
X104943698Y-53764425D01*
X104943399Y-53758308D01*
X104929496Y-53190453D01*
X104925538Y-53028777D01*
X104925500Y-53025693D01*
X104925500Y-46950450D01*
X111387600Y-46950450D01*
X111387600Y-48749549D01*
X111394109Y-48810096D01*
X111394111Y-48810104D01*
X111445210Y-48947102D01*
X111445212Y-48947107D01*
X111532838Y-49064161D01*
X111649892Y-49151787D01*
X111649894Y-49151788D01*
X111649896Y-49151789D01*
X111708975Y-49173824D01*
X111786895Y-49202888D01*
X111786903Y-49202890D01*
X111847450Y-49209399D01*
X111847455Y-49209399D01*
X111847462Y-49209400D01*
X111847468Y-49209400D01*
X113646532Y-49209400D01*
X113646538Y-49209400D01*
X113646545Y-49209399D01*
X113646549Y-49209399D01*
X113707096Y-49202890D01*
X113707099Y-49202889D01*
X113707101Y-49202889D01*
X113844104Y-49151789D01*
X113961161Y-49064161D01*
X114048789Y-48947104D01*
X114099889Y-48810101D01*
X114106400Y-48749538D01*
X114106400Y-46950462D01*
X114106399Y-46950450D01*
X114099890Y-46889903D01*
X114099888Y-46889895D01*
X114048789Y-46752897D01*
X114048787Y-46752892D01*
X113961161Y-46635838D01*
X113844107Y-46548212D01*
X113844102Y-46548210D01*
X113707104Y-46497111D01*
X113707096Y-46497109D01*
X113646549Y-46490600D01*
X113646538Y-46490600D01*
X111847462Y-46490600D01*
X111847450Y-46490600D01*
X111786903Y-46497109D01*
X111786895Y-46497111D01*
X111649897Y-46548210D01*
X111649892Y-46548212D01*
X111532838Y-46635838D01*
X111445212Y-46752892D01*
X111445210Y-46752897D01*
X111394111Y-46889895D01*
X111394109Y-46889903D01*
X111387600Y-46950450D01*
X104925500Y-46950450D01*
X104925500Y-42663055D01*
X111388100Y-42663055D01*
X111388100Y-42876944D01*
X111421562Y-43088215D01*
X111487656Y-43291632D01*
X111487661Y-43291644D01*
X111584762Y-43482217D01*
X111622974Y-43534812D01*
X111622975Y-43534812D01*
X112183722Y-42974065D01*
X112190777Y-43000395D01*
X112269361Y-43136505D01*
X112380495Y-43247639D01*
X112516605Y-43326223D01*
X112542931Y-43333277D01*
X111982186Y-43894022D01*
X111982186Y-43894023D01*
X112034779Y-43932234D01*
X112225361Y-44029340D01*
X112225367Y-44029343D01*
X112428786Y-44095437D01*
X112428782Y-44095437D01*
X112640055Y-44128900D01*
X112853945Y-44128900D01*
X113065215Y-44095437D01*
X113268632Y-44029343D01*
X113268638Y-44029340D01*
X113459218Y-43932235D01*
X113511812Y-43894023D01*
X112951067Y-43333277D01*
X112977395Y-43326223D01*
X113113505Y-43247639D01*
X113224639Y-43136505D01*
X113303223Y-43000395D01*
X113310277Y-42974066D01*
X113871023Y-43534812D01*
X113909235Y-43482218D01*
X114006340Y-43291638D01*
X114006343Y-43291632D01*
X114072437Y-43088215D01*
X114105900Y-42876944D01*
X114105900Y-42663055D01*
X114072437Y-42451784D01*
X114006343Y-42248367D01*
X114006340Y-42248361D01*
X113909234Y-42057779D01*
X113871023Y-42005186D01*
X113871022Y-42005186D01*
X113310277Y-42565931D01*
X113303223Y-42539605D01*
X113224639Y-42403495D01*
X113113505Y-42292361D01*
X112977395Y-42213777D01*
X112951066Y-42206722D01*
X113511812Y-41645975D01*
X113511812Y-41645974D01*
X113459217Y-41607762D01*
X113268644Y-41510661D01*
X113268632Y-41510656D01*
X113065213Y-41444562D01*
X113065217Y-41444562D01*
X112853945Y-41411100D01*
X112640055Y-41411100D01*
X112428784Y-41444562D01*
X112225367Y-41510656D01*
X112225355Y-41510661D01*
X112034788Y-41607759D01*
X112034776Y-41607767D01*
X111982185Y-41645975D01*
X112542932Y-42206722D01*
X112516605Y-42213777D01*
X112380495Y-42292361D01*
X112269361Y-42403495D01*
X112190777Y-42539605D01*
X112183722Y-42565932D01*
X111622975Y-42005185D01*
X111584767Y-42057776D01*
X111584759Y-42057788D01*
X111487661Y-42248355D01*
X111487656Y-42248367D01*
X111421562Y-42451784D01*
X111388100Y-42663055D01*
X104925500Y-42663055D01*
X104925500Y-37583015D01*
X111387600Y-37583015D01*
X111387600Y-37796984D01*
X111421072Y-38008329D01*
X111465153Y-38143995D01*
X111487194Y-38211829D01*
X111584336Y-38402481D01*
X111710107Y-38575590D01*
X111710109Y-38575592D01*
X111710111Y-38575595D01*
X111861404Y-38726888D01*
X111861407Y-38726890D01*
X111861410Y-38726893D01*
X112034519Y-38852664D01*
X112225171Y-38949806D01*
X112428673Y-39015928D01*
X112640013Y-39049400D01*
X112640015Y-39049400D01*
X112853985Y-39049400D01*
X112853987Y-39049400D01*
X113065327Y-39015928D01*
X113268829Y-38949806D01*
X113459481Y-38852664D01*
X113632590Y-38726893D01*
X113783893Y-38575590D01*
X113909664Y-38402481D01*
X114006806Y-38211829D01*
X114072928Y-38008327D01*
X114106400Y-37796987D01*
X114106400Y-37583013D01*
X114072928Y-37371673D01*
X114006806Y-37168171D01*
X113909664Y-36977519D01*
X113783893Y-36804410D01*
X113783890Y-36804407D01*
X113783888Y-36804404D01*
X113632595Y-36653111D01*
X113632592Y-36653109D01*
X113632590Y-36653107D01*
X113459481Y-36527336D01*
X113268829Y-36430194D01*
X113200995Y-36408153D01*
X113065329Y-36364072D01*
X112959657Y-36347336D01*
X112853987Y-36330600D01*
X112640013Y-36330600D01*
X112555477Y-36343988D01*
X112428670Y-36364072D01*
X112225171Y-36430194D01*
X112225169Y-36430195D01*
X112034515Y-36527338D01*
X111861407Y-36653109D01*
X111861404Y-36653111D01*
X111710111Y-36804404D01*
X111710109Y-36804407D01*
X111584338Y-36977515D01*
X111487195Y-37168169D01*
X111487194Y-37168171D01*
X111421072Y-37371670D01*
X111387600Y-37583015D01*
X104925500Y-37583015D01*
X104925500Y-36102595D01*
X104925608Y-36097388D01*
X104925937Y-36089438D01*
X104942275Y-35694398D01*
X104943132Y-35684055D01*
X104992702Y-35286384D01*
X104994415Y-35276124D01*
X105038094Y-35067808D01*
X105076651Y-34883917D01*
X105079197Y-34873860D01*
X105193551Y-34489755D01*
X105196922Y-34479937D01*
X105342593Y-34106615D01*
X105346773Y-34097087D01*
X105447557Y-33890930D01*
X105522775Y-33737069D01*
X105527718Y-33727935D01*
X105732850Y-33383677D01*
X105738534Y-33374976D01*
X105971408Y-33048818D01*
X105977767Y-33040647D01*
X106236793Y-32734815D01*
X106243823Y-32727180D01*
X106527180Y-32443823D01*
X106534815Y-32436793D01*
X106840647Y-32177767D01*
X106848818Y-32171408D01*
X107174976Y-31938534D01*
X107183677Y-31932850D01*
X107527935Y-31727718D01*
X107537069Y-31722775D01*
X107897095Y-31546769D01*
X107906615Y-31542593D01*
X108279937Y-31396922D01*
X108289755Y-31393551D01*
X108673860Y-31279197D01*
X108683917Y-31276651D01*
X109076132Y-31194413D01*
X109086384Y-31192702D01*
X109484055Y-31143132D01*
X109494398Y-31142275D01*
X109897389Y-31125608D01*
X109902596Y-31125500D01*
X109908285Y-31125500D01*
X116666715Y-31125500D01*
X116672404Y-31125500D01*
X116677611Y-31125608D01*
G37*
G04 #@! TD.AperFunction*
M02*
