M48
; DRILL file {KiCad 9.0.2} date 2025-09-26T15:09:07-0400
; FORMAT={-:-/ absolute / metric / decimal}
; #@! TF.CreationDate,2025-09-26T15:09:07-04:00
; #@! TF.GenerationSoftware,Kicad,Pcbnew,9.0.2
; #@! TF.FileFunction,Plated,1,2,PTH
FMAT,2
METRIC
; #@! TA.AperFunction,Plated,PTH,ViaDrill
T1C0.400
; #@! TA.AperFunction,Plated,PTH,ComponentDrill
T2C0.750
; #@! TA.AperFunction,Plated,PTH,ComponentDrill
T3C0.800
; #@! TA.AperFunction,Plated,PTH,ComponentDrill
T4C1.000
; #@! TA.AperFunction,Plated,PTH,ComponentDrill
T5C1.100
; #@! TA.AperFunction,Plated,PTH,ComponentDrill
T6C1.194
; #@! TA.AperFunction,Plated,PTH,ComponentDrill
T7C2.500
; #@! TA.AperFunction,Plated,PTH,ComponentDrill
T8C3.500
%
G90
G05
T1
X110.156Y-77.247
X122.0Y-88.207
X123.415Y-86.44
X128.541Y-78.485
X136.261Y-74.618
X136.319Y-70.706
X136.673Y-77.07
X136.708Y-73.634
X136.85Y-94.218
X136.899Y-72.601
X137.691Y-76.816
X137.842Y-87.836
X138.579Y-77.598
X139.678Y-87.147
X140.385Y-105.178
X141.269Y-97.93
X141.976Y-71.767
X142.33Y-64.696
X142.683Y-89.798
X142.86Y-76.187
X144.698Y-40.69
X144.981Y-72.297
X145.09Y-65.58
X145.158Y-61.868
X145.512Y-78.838
X146.926Y-72.121
X147.279Y-94.748
X147.456Y-80.783
X147.598Y-37.791
X147.633Y-85.202
X148.163Y-109.774
X149.224Y-85.379
X149.869Y-75.138
X149.931Y-88.914
X150.815Y-40.654
X150.815Y-84.142
X150.849Y-58.72
X151.522Y-61.868
X151.522Y-76.717
X151.699Y-106.239
X152.759Y-80.076
X152.996Y-59.694
X153.984Y-72.457
X155.234Y-53.206
X156.949Y-104.418
X157.886Y-74.949
X158.77Y-56.741
X158.77Y-102.703
X162.305Y-60.277
X162.305Y-99.168
X163.543Y-74.596
X165.841Y-95.632
X169.376Y-88.561
X169.376Y-92.096
X172.912Y-85.025
X176.094Y-78.661
X176.448Y-81.49
T2
X148.34Y-101.112
X158.416Y-88.914
X170.26Y-79.192
T3
X145.512Y-103.941
X146.926Y-102.526
X155.588Y-91.743
X157.002Y-90.329
X167.432Y-82.02
X168.846Y-80.606
T4
X103.041Y-73.401
X105.581Y-73.401
X108.121Y-73.401
X110.661Y-73.401
X111.694Y-79.504
X113.49Y-81.3
X115.286Y-83.096
X117.082Y-84.892
X122.0Y-83.611
X123.796Y-81.815
X125.592Y-80.019
X131.45Y-99.261
X133.246Y-101.057
X135.042Y-102.853
X136.838Y-104.649
X138.617Y-70.176
X140.074Y-36.376
X140.074Y-38.916
X140.074Y-41.456
X140.074Y-43.996
X140.413Y-68.38
X144.097Y-105.355
X146.178Y-45.02
X146.693Y-58.919
X147.974Y-46.816
X148.489Y-57.123
X149.754Y-99.698
X149.77Y-48.612
X150.285Y-55.327
X151.48Y-90.195
X151.566Y-50.408
X153.276Y-88.399
X154.174Y-93.157
X155.072Y-86.603
X156.868Y-84.807
X159.831Y-87.5
X165.934Y-64.777
X166.018Y-83.434
X167.73Y-66.573
X169.526Y-68.369
X171.322Y-70.165
X171.675Y-77.778
T5
X134.53Y-78.605
X136.326Y-80.401
X138.122Y-82.197
X139.918Y-83.993
X141.714Y-85.789
X143.511Y-87.585
X145.307Y-67.829
X145.307Y-89.381
X147.103Y-69.625
X147.103Y-91.177
X148.899Y-71.421
X148.899Y-92.973
X150.695Y-73.217
X150.695Y-94.769
X152.491Y-75.013
X152.491Y-96.565
X154.287Y-76.809
X154.287Y-98.361
X156.083Y-78.605
X157.879Y-80.401
X159.675Y-82.197
X161.471Y-83.993
X163.267Y-85.789
X165.063Y-87.585
T6
X92.588Y-88.058
X96.18Y-84.466
X99.772Y-80.874
X147.525Y-33.122
X151.117Y-29.53
X154.709Y-25.937
T7
X114.095Y-69.229
X135.93Y-47.421
T8
X117.051Y-75.833
X134.021Y-85.733
X142.506Y-50.377
X152.406Y-67.348
T3
G00X111.182Y-85.096
M15
G01X115.566Y-89.48
M16
G05
G00X111.358Y-88.455
M15
G01X119.985Y-97.082
M16
G05
G00X114.54Y-85.273
M15
G01X123.167Y-93.9
M16
G05
G00X118.96Y-92.874
M15
G01X123.344Y-97.258
M16
G05
G00X123.91Y-97.824
M15
G01X128.294Y-102.208
M16
G05
G00X124.086Y-101.183
M15
G01X132.713Y-109.809
M16
G05
G00X127.268Y-98.001
M15
G01X135.895Y-106.628
M16
G05
G00X131.688Y-105.602
M15
G01X136.072Y-109.986
M16
G05
G00X151.77Y-44.508
M15
G01X156.154Y-48.892
M16
G05
G00X151.946Y-47.867
M15
G01X160.573Y-56.494
M16
G05
G00X155.128Y-44.685
M15
G01X163.755Y-53.312
M16
G05
G00X159.548Y-52.286
M15
G01X163.932Y-56.67
M16
G05
G00X164.568Y-57.307
M15
G01X168.952Y-61.691
M16
G05
G00X164.745Y-60.666
M15
G01X173.372Y-69.292
M16
G05
G00X167.927Y-57.484
M15
G01X176.554Y-66.11
M16
G05
G00X172.346Y-65.085
M15
G01X176.73Y-69.469
M16
G05
M30
