G04 #@! TF.GenerationSoftware,KiCad,Pcbnew,9.0.2*
G04 #@! TF.CreationDate,2025-10-10T20:31:06-04:00*
G04 #@! TF.ProjectId,Trackball,54726163-6b62-4616-9c6c-2e6b69636164,rev?*
G04 #@! TF.SameCoordinates,Original*
G04 #@! TF.FileFunction,Copper,L2,Bot*
G04 #@! TF.FilePolarity,Positive*
%FSLAX46Y46*%
G04 Gerber Fmt 4.6, Leading zero omitted, Abs format (unit mm)*
G04 Created by KiCad (PCBNEW 9.0.2) date 2025-10-10 20:31:06*
%MOMM*%
%LPD*%
G01*
G04 APERTURE LIST*
G04 Aperture macros list*
%AMRotRect*
0 Rectangle, with rotation*
0 The origin of the aperture is its center*
0 $1 length*
0 $2 width*
0 $3 Rotation angle, in degrees counterclockwise*
0 Add horizontal line*
21,1,$1,$2,0,0,$3*%
%AMFreePoly0*
4,1,23,0.550000,-0.750000,0.000000,-0.750000,0.000000,-0.745722,-0.065263,-0.745722,-0.191342,-0.711940,-0.304381,-0.646677,-0.396677,-0.554381,-0.461940,-0.441342,-0.495722,-0.315263,-0.495722,-0.250000,-0.500000,-0.250000,-0.500000,0.250000,-0.495722,0.250000,-0.495722,0.315263,-0.461940,0.441342,-0.396677,0.554381,-0.304381,0.646677,-0.191342,0.711940,-0.065263,0.745722,0.000000,0.745722,
0.000000,0.750000,0.550000,0.750000,0.550000,-0.750000,0.550000,-0.750000,$1*%
%AMFreePoly1*
4,1,23,0.000000,0.745722,0.065263,0.745722,0.191342,0.711940,0.304381,0.646677,0.396677,0.554381,0.461940,0.441342,0.495722,0.315263,0.495722,0.250000,0.500000,0.250000,0.500000,-0.250000,0.495722,-0.250000,0.495722,-0.315263,0.461940,-0.441342,0.396677,-0.554381,0.304381,-0.646677,0.191342,-0.711940,0.065263,-0.745722,0.000000,-0.745722,0.000000,-0.750000,-0.550000,-0.750000,
-0.550000,0.750000,0.000000,0.750000,0.000000,0.745722,0.000000,0.745722,$1*%
G04 Aperture macros list end*
G04 #@! TA.AperFunction,ComponentPad*
%ADD10R,1.701800X1.701800*%
G04 #@! TD*
G04 #@! TA.AperFunction,ComponentPad*
%ADD11C,1.701800*%
G04 #@! TD*
G04 #@! TA.AperFunction,ComponentPad*
%ADD12R,1.700000X1.700000*%
G04 #@! TD*
G04 #@! TA.AperFunction,ComponentPad*
%ADD13C,1.700000*%
G04 #@! TD*
G04 #@! TA.AperFunction,ComponentPad*
%ADD14C,7.000000*%
G04 #@! TD*
G04 #@! TA.AperFunction,ComponentPad*
%ADD15R,1.600000X1.600000*%
G04 #@! TD*
G04 #@! TA.AperFunction,ComponentPad*
%ADD16C,1.600000*%
G04 #@! TD*
G04 #@! TA.AperFunction,ComponentPad*
%ADD17C,5.000000*%
G04 #@! TD*
G04 #@! TA.AperFunction,ComponentPad*
%ADD18RotRect,1.700000X1.700000X315.000000*%
G04 #@! TD*
G04 #@! TA.AperFunction,ComponentPad*
%ADD19C,1.300000*%
G04 #@! TD*
G04 #@! TA.AperFunction,ComponentPad*
%ADD20C,1.200000*%
G04 #@! TD*
G04 #@! TA.AperFunction,ComponentPad*
%ADD21C,1.500000*%
G04 #@! TD*
G04 #@! TA.AperFunction,ComponentPad*
%ADD22RotRect,1.700000X1.700000X225.000000*%
G04 #@! TD*
G04 #@! TA.AperFunction,SMDPad,CuDef*
%ADD23FreePoly0,90.000000*%
G04 #@! TD*
G04 #@! TA.AperFunction,SMDPad,CuDef*
%ADD24R,1.500000X1.000000*%
G04 #@! TD*
G04 #@! TA.AperFunction,SMDPad,CuDef*
%ADD25FreePoly1,90.000000*%
G04 #@! TD*
G04 #@! TA.AperFunction,SMDPad,CuDef*
%ADD26FreePoly0,270.000000*%
G04 #@! TD*
G04 #@! TA.AperFunction,SMDPad,CuDef*
%ADD27FreePoly1,270.000000*%
G04 #@! TD*
G04 #@! TA.AperFunction,ViaPad*
%ADD28C,0.800000*%
G04 #@! TD*
G04 #@! TA.AperFunction,Conductor*
%ADD29C,0.500000*%
G04 #@! TD*
G04 #@! TA.AperFunction,Conductor*
%ADD30C,0.250000*%
G04 #@! TD*
G04 APERTURE END LIST*
D10*
X112747000Y-115382000D03*
D11*
X112747000Y-120462000D03*
X112747000Y-125542000D03*
D12*
X117208000Y-57216000D03*
D13*
X119748000Y-57216000D03*
X122288000Y-57216000D03*
X124828000Y-57216000D03*
D12*
X117208000Y-105984000D03*
D13*
X119748000Y-105984000D03*
X122288000Y-105984000D03*
X124828000Y-105984000D03*
D12*
X155901000Y-77790000D03*
D13*
X155901000Y-80330000D03*
X155901000Y-82870000D03*
X155901000Y-85410000D03*
D14*
X121400000Y-63600000D03*
D12*
X130400000Y-101600000D03*
D13*
X130400000Y-99060000D03*
X130400000Y-96520000D03*
D15*
X163660000Y-73960000D03*
D16*
X161120000Y-73960000D03*
X158580000Y-73960000D03*
X156040000Y-73960000D03*
X153500000Y-73960000D03*
X150960000Y-73960000D03*
X148420000Y-73960000D03*
X145880000Y-73960000D03*
X143340000Y-73960000D03*
X140800000Y-73960000D03*
X138260000Y-73960000D03*
X135720000Y-73960000D03*
X135720000Y-89200000D03*
X138260000Y-89200000D03*
X140800000Y-89200000D03*
X143340000Y-89200000D03*
X145880000Y-89200000D03*
X148420000Y-89200000D03*
X150960000Y-89200000D03*
X153500000Y-89200000D03*
X156040000Y-89200000D03*
X158580000Y-89200000D03*
X161120000Y-89200000D03*
X163660000Y-89200000D03*
D17*
X114660000Y-66160000D03*
D12*
X130400000Y-61600000D03*
D13*
X130400000Y-64140000D03*
X130400000Y-66680000D03*
D14*
X140400000Y-68600000D03*
D17*
X114640000Y-97020000D03*
D14*
X140400000Y-94600000D03*
D10*
X112747000Y-47850000D03*
D11*
X112747000Y-42770000D03*
X112747000Y-37690000D03*
D14*
X121400000Y-99600000D03*
D12*
X155768000Y-105984000D03*
D13*
X153228000Y-105984000D03*
X150688000Y-105984000D03*
X148148000Y-105984000D03*
D12*
X155768000Y-57216000D03*
D13*
X153228000Y-57216000D03*
X150688000Y-57216000D03*
X148148000Y-57216000D03*
D18*
X109773949Y-107786051D03*
D13*
X111570000Y-105990000D03*
X113366051Y-104193949D03*
X115162103Y-102397897D03*
D19*
X159900000Y-83600000D03*
X159900000Y-81600000D03*
D20*
X159900000Y-79600000D03*
D21*
X159900000Y-85600000D03*
X159900000Y-77600000D03*
D22*
X109780000Y-55420000D03*
D13*
X111576051Y-57216051D03*
X113372102Y-59012102D03*
X115168154Y-60808154D03*
D23*
X116185000Y-44070000D03*
D24*
X116185000Y-42770000D03*
D25*
X116185000Y-41470000D03*
D26*
X115900000Y-119250000D03*
D24*
X115900000Y-120550000D03*
D27*
X115900000Y-121850000D03*
D19*
X161400000Y-68350000D03*
X161400000Y-66350000D03*
D20*
X161400000Y-64350000D03*
D21*
X161400000Y-70350000D03*
X161400000Y-62350000D03*
D12*
X132650000Y-80350000D03*
D13*
X132650000Y-77810000D03*
D19*
X161400000Y-99350000D03*
X161400000Y-97350000D03*
D20*
X161400000Y-95350000D03*
D21*
X161400000Y-101350000D03*
X161400000Y-93350000D03*
D28*
X146400000Y-75850000D03*
X145400000Y-91600000D03*
X149400000Y-91350000D03*
X142400000Y-56600000D03*
X120400000Y-50850000D03*
X131400000Y-93350000D03*
X126300000Y-104900000D03*
X144115000Y-75902670D03*
X167400000Y-61600000D03*
X156150000Y-91600000D03*
X136150000Y-79100000D03*
X167400000Y-66600000D03*
X131400000Y-69850000D03*
X169900000Y-74100000D03*
X167400000Y-96600000D03*
X131400000Y-73850000D03*
X116100000Y-55200000D03*
X137400000Y-56600000D03*
X167400000Y-71600000D03*
X169900000Y-79100000D03*
X139900000Y-75850000D03*
X167400000Y-101600000D03*
X116100000Y-51100000D03*
X169824666Y-91600000D03*
X131400000Y-82350000D03*
X132400000Y-56600000D03*
X139900000Y-81600000D03*
X133198008Y-63600000D03*
X169900000Y-84100000D03*
X146400000Y-81600000D03*
X143650000Y-81600000D03*
X169900000Y-89100000D03*
X150900000Y-83600000D03*
X137871303Y-85625000D03*
X153900000Y-85600000D03*
X151150000Y-81600000D03*
X133745170Y-84144966D03*
X165150000Y-59850000D03*
X133150000Y-83279935D03*
X119000000Y-108800000D03*
X135400000Y-100500000D03*
X148400000Y-98600000D03*
X135900000Y-65350000D03*
X135405504Y-62770496D03*
X136690222Y-85699630D03*
X136150000Y-86600000D03*
X149650000Y-84600000D03*
X134125000Y-85157070D03*
X134125000Y-97600000D03*
X158650000Y-103850000D03*
X133976992Y-72523008D03*
X149650000Y-77350000D03*
X149650000Y-70100000D03*
X138650000Y-77350000D03*
X145128706Y-71096294D03*
X144589493Y-93385509D03*
X154150000Y-98100000D03*
X153400000Y-65850000D03*
D29*
X153900000Y-87060000D02*
X156040000Y-89200000D01*
X137650000Y-78600000D02*
X137650000Y-85403697D01*
X137650000Y-85403697D02*
X137871303Y-85625000D01*
X153900000Y-85600000D02*
X153900000Y-87060000D01*
X132650000Y-67100000D02*
X132650000Y-73600000D01*
X132650000Y-73600000D02*
X137650000Y-78600000D01*
X130400000Y-66680000D02*
X132230000Y-66680000D01*
X132230000Y-66680000D02*
X132650000Y-67100000D01*
D30*
X133350000Y-84540136D02*
X133745170Y-84144966D01*
X133350000Y-96110000D02*
X133350000Y-84540136D01*
X151150000Y-81600000D02*
X150960000Y-81410000D01*
X130400000Y-99060000D02*
X133350000Y-96110000D01*
X150960000Y-81410000D02*
X150960000Y-73960000D01*
X165150000Y-69930000D02*
X161120000Y-73960000D01*
X165150000Y-59850000D02*
X165150000Y-69930000D01*
X133150000Y-83346167D02*
X133150000Y-83279935D01*
X132900000Y-83596167D02*
X133150000Y-83346167D01*
X132900000Y-94020000D02*
X132900000Y-83596167D01*
X130400000Y-96520000D02*
X132900000Y-94020000D01*
X134650000Y-97028984D02*
X134900000Y-97278984D01*
X119000000Y-118450000D02*
X119000000Y-108800000D01*
X134900000Y-97278984D02*
X134900000Y-100000000D01*
X143340000Y-79910000D02*
X142900000Y-80350000D01*
X142900000Y-80350000D02*
X142900000Y-85507595D01*
X116900000Y-120550000D02*
X119000000Y-118450000D01*
X115900000Y-120550000D02*
X116900000Y-120550000D01*
X143340000Y-73960000D02*
X143340000Y-79910000D01*
X139674000Y-89915218D02*
X139239218Y-90350000D01*
X139674000Y-88733595D02*
X139674000Y-89915218D01*
X139239218Y-90350000D02*
X136650000Y-90350000D01*
X134650000Y-92350000D02*
X134650000Y-97028984D01*
X142900000Y-85507595D02*
X139674000Y-88733595D01*
X134900000Y-100000000D02*
X135400000Y-100500000D01*
X136650000Y-90350000D02*
X134650000Y-92350000D01*
X145880000Y-73960000D02*
X147150000Y-75230000D01*
X147150000Y-75230000D02*
X147150000Y-97350000D01*
X147150000Y-97350000D02*
X148400000Y-98600000D01*
X135150000Y-70100000D02*
X135150000Y-66100000D01*
X137565218Y-72515218D02*
X135150000Y-70100000D01*
X138565218Y-72515218D02*
X137565218Y-72515218D01*
X140800000Y-73960000D02*
X139940000Y-73100000D01*
X139150000Y-73100000D02*
X138565218Y-72515218D01*
X139940000Y-73100000D02*
X139150000Y-73100000D01*
X135150000Y-66100000D02*
X135900000Y-65350000D01*
X138260000Y-73960000D02*
X138010000Y-73960000D01*
X134700000Y-63476000D02*
X135405504Y-62770496D01*
X138010000Y-73960000D02*
X134700000Y-70650000D01*
X134700000Y-70650000D02*
X134700000Y-63476000D01*
X134250000Y-69472792D02*
X134250000Y-62200000D01*
X134150000Y-69572792D02*
X134250000Y-69472792D01*
X117185000Y-42770000D02*
X116185000Y-42770000D01*
X118500000Y-44085000D02*
X117185000Y-42770000D01*
X119600000Y-59100000D02*
X118500000Y-58000000D01*
X134250000Y-62200000D02*
X131150000Y-59100000D01*
X134150000Y-71600000D02*
X134150000Y-69572792D01*
X135720000Y-73960000D02*
X135720000Y-73170000D01*
X131150000Y-59100000D02*
X119600000Y-59100000D01*
X135720000Y-73170000D02*
X134150000Y-71600000D01*
X118500000Y-58000000D02*
X118500000Y-44085000D01*
D29*
X136690222Y-81850222D02*
X136690222Y-85699630D01*
X132650000Y-77810000D02*
X136690222Y-81850222D01*
X132650000Y-80350000D02*
X135650000Y-83350000D01*
X135650000Y-83350000D02*
X135650000Y-86100000D01*
X135650000Y-86100000D02*
X136150000Y-86600000D01*
D30*
X134125000Y-85157070D02*
X134125000Y-97600000D01*
X149650000Y-84600000D02*
X148650000Y-83600000D01*
X148650000Y-74190000D02*
X148420000Y-73960000D01*
X148650000Y-83600000D02*
X148650000Y-74190000D01*
X158580000Y-89200000D02*
X158580000Y-103780000D01*
X158580000Y-103780000D02*
X158650000Y-103850000D01*
X132190000Y-64140000D02*
X133700000Y-65650000D01*
X133700000Y-65650000D02*
X133700000Y-72246016D01*
X130400000Y-64140000D02*
X132190000Y-64140000D01*
X133700000Y-72246016D02*
X133976992Y-72523008D01*
X135720000Y-89200000D02*
X138650000Y-86270000D01*
X149650000Y-70100000D02*
X149650000Y-77350000D01*
X138650000Y-86270000D02*
X138650000Y-77350000D01*
X142150000Y-85310000D02*
X142150000Y-73557595D01*
X142150000Y-73557595D02*
X144611301Y-71096294D01*
X144611301Y-71096294D02*
X145128706Y-71096294D01*
X138260000Y-89200000D02*
X142150000Y-85310000D01*
X140800000Y-89200000D02*
X144589493Y-92989493D01*
X144589493Y-92989493D02*
X144589493Y-93385509D01*
X152150000Y-90390000D02*
X150960000Y-89200000D01*
X152150000Y-96100000D02*
X154150000Y-98100000D01*
X152150000Y-96100000D02*
X152150000Y-90390000D01*
X153400000Y-65850000D02*
X152150000Y-67100000D01*
X152150000Y-67100000D02*
X152150000Y-87350000D01*
X153150000Y-88850000D02*
X153500000Y-89200000D01*
X152150000Y-87350000D02*
X153150000Y-88350000D01*
X153150000Y-88350000D02*
X153150000Y-88850000D01*
X112747000Y-47508000D02*
X112747000Y-47850000D01*
X116185000Y-44070000D02*
X112747000Y-47508000D01*
X116185000Y-41128000D02*
X116185000Y-41470000D01*
X112747000Y-37690000D02*
X116185000Y-41128000D01*
X112747000Y-116097000D02*
X115900000Y-119250000D01*
X112747000Y-115382000D02*
X112747000Y-116097000D01*
X112747000Y-125542000D02*
X115900000Y-122389000D01*
X115900000Y-122389000D02*
X115900000Y-121850000D01*
G04 #@! TA.AperFunction,Conductor*
G36*
X144682598Y-74524257D02*
G01*
X144722264Y-74570034D01*
X144760871Y-74645803D01*
X144881932Y-74812430D01*
X144881934Y-74812432D01*
X144881936Y-74812435D01*
X145027564Y-74958063D01*
X145027567Y-74958065D01*
X145027570Y-74958068D01*
X145194197Y-75079129D01*
X145377710Y-75172634D01*
X145573592Y-75236280D01*
X145777019Y-75268500D01*
X145777022Y-75268500D01*
X145982978Y-75268500D01*
X145982981Y-75268500D01*
X146186408Y-75236280D01*
X146186411Y-75236278D01*
X146186853Y-75236209D01*
X146257264Y-75245309D01*
X146295659Y-75271563D01*
X146479595Y-75455499D01*
X146513621Y-75517811D01*
X146516500Y-75544594D01*
X146516500Y-87857549D01*
X146496498Y-87925670D01*
X146442842Y-87972163D01*
X146372568Y-87982267D01*
X146351564Y-87977382D01*
X146186412Y-87923721D01*
X146186410Y-87923720D01*
X146186408Y-87923720D01*
X145982981Y-87891500D01*
X145777019Y-87891500D01*
X145573592Y-87923720D01*
X145573590Y-87923720D01*
X145573587Y-87923721D01*
X145377714Y-87987364D01*
X145377708Y-87987367D01*
X145194193Y-88080873D01*
X145027567Y-88201934D01*
X145027564Y-88201936D01*
X144881936Y-88347564D01*
X144881934Y-88347567D01*
X144760873Y-88514193D01*
X144722267Y-88589962D01*
X144673518Y-88641577D01*
X144604603Y-88658643D01*
X144537402Y-88635742D01*
X144497733Y-88589962D01*
X144459129Y-88514197D01*
X144338068Y-88347570D01*
X144338065Y-88347567D01*
X144338063Y-88347564D01*
X144192435Y-88201936D01*
X144192432Y-88201934D01*
X144192430Y-88201932D01*
X144066999Y-88110802D01*
X144025806Y-88080873D01*
X144025805Y-88080872D01*
X144025803Y-88080871D01*
X143842290Y-87987366D01*
X143842287Y-87987365D01*
X143842285Y-87987364D01*
X143646412Y-87923721D01*
X143646410Y-87923720D01*
X143646408Y-87923720D01*
X143442981Y-87891500D01*
X143237019Y-87891500D01*
X143033592Y-87923720D01*
X143033590Y-87923720D01*
X143033587Y-87923721D01*
X142837714Y-87987364D01*
X142837708Y-87987367D01*
X142654193Y-88080873D01*
X142487567Y-88201934D01*
X142487564Y-88201936D01*
X142341936Y-88347564D01*
X142341934Y-88347567D01*
X142220873Y-88514193D01*
X142182267Y-88589962D01*
X142133518Y-88641577D01*
X142064603Y-88658643D01*
X141997402Y-88635742D01*
X141957733Y-88589962D01*
X141919129Y-88514197D01*
X141798068Y-88347570D01*
X141798065Y-88347567D01*
X141798063Y-88347564D01*
X141652435Y-88201936D01*
X141652432Y-88201934D01*
X141652430Y-88201932D01*
X141572144Y-88143601D01*
X141485806Y-88080872D01*
X141468481Y-88072045D01*
X141465979Y-88070770D01*
X141414365Y-88022022D01*
X141397299Y-87953107D01*
X141420200Y-87885906D01*
X141434077Y-87869421D01*
X143392071Y-85911428D01*
X143461400Y-85807670D01*
X143509155Y-85692380D01*
X143533500Y-85569989D01*
X143533500Y-85445201D01*
X143533500Y-80664594D01*
X143553502Y-80596473D01*
X143570405Y-80575499D01*
X143700392Y-80445512D01*
X143832071Y-80313833D01*
X143901400Y-80210075D01*
X143949155Y-80094785D01*
X143973500Y-79972394D01*
X143973500Y-79847606D01*
X143973500Y-75181328D01*
X143993502Y-75113207D01*
X144025440Y-75079391D01*
X144025795Y-75079133D01*
X144025803Y-75079129D01*
X144192430Y-74958068D01*
X144338068Y-74812430D01*
X144459129Y-74645803D01*
X144497734Y-74570034D01*
X144546481Y-74518422D01*
X144615396Y-74501356D01*
X144682598Y-74524257D01*
G37*
G04 #@! TD.AperFunction*
G04 #@! TA.AperFunction,Conductor*
G36*
X150266717Y-78119151D02*
G01*
X150314161Y-78171968D01*
X150326500Y-78226349D01*
X150326500Y-81189016D01*
X150316909Y-81237234D01*
X150276415Y-81334994D01*
X150276413Y-81334999D01*
X150241500Y-81510518D01*
X150241500Y-81689481D01*
X150244711Y-81705624D01*
X150276413Y-81865000D01*
X150344898Y-82030336D01*
X150444322Y-82179135D01*
X150570865Y-82305678D01*
X150719664Y-82405102D01*
X150885000Y-82473587D01*
X151060521Y-82508500D01*
X151060522Y-82508500D01*
X151239478Y-82508500D01*
X151239479Y-82508500D01*
X151365921Y-82483349D01*
X151436632Y-82489677D01*
X151492699Y-82533231D01*
X151516319Y-82600183D01*
X151516500Y-82606928D01*
X151516500Y-87412396D01*
X151517901Y-87419439D01*
X151540845Y-87534785D01*
X151588600Y-87650075D01*
X151657929Y-87753833D01*
X151657931Y-87753835D01*
X151774779Y-87870683D01*
X151808805Y-87932995D01*
X151803740Y-88003810D01*
X151761193Y-88060646D01*
X151694673Y-88085457D01*
X151628481Y-88072045D01*
X151606109Y-88060646D01*
X151462290Y-87987366D01*
X151462287Y-87987365D01*
X151462285Y-87987364D01*
X151266412Y-87923721D01*
X151266410Y-87923720D01*
X151266408Y-87923720D01*
X151062981Y-87891500D01*
X150857019Y-87891500D01*
X150653592Y-87923720D01*
X150653590Y-87923720D01*
X150653587Y-87923721D01*
X150457714Y-87987364D01*
X150457708Y-87987367D01*
X150274193Y-88080873D01*
X150107567Y-88201934D01*
X150107564Y-88201936D01*
X149961936Y-88347564D01*
X149961934Y-88347567D01*
X149840873Y-88514193D01*
X149802267Y-88589962D01*
X149753518Y-88641577D01*
X149684603Y-88658643D01*
X149617402Y-88635742D01*
X149577733Y-88589962D01*
X149539129Y-88514197D01*
X149418068Y-88347570D01*
X149418065Y-88347567D01*
X149418063Y-88347564D01*
X149272435Y-88201936D01*
X149272432Y-88201934D01*
X149272430Y-88201932D01*
X149146999Y-88110802D01*
X149105806Y-88080873D01*
X149105805Y-88080872D01*
X149105803Y-88080871D01*
X148922290Y-87987366D01*
X148922287Y-87987365D01*
X148922285Y-87987364D01*
X148726412Y-87923721D01*
X148726410Y-87923720D01*
X148726408Y-87923720D01*
X148522981Y-87891500D01*
X148317019Y-87891500D01*
X148113592Y-87923720D01*
X148113590Y-87923720D01*
X148113587Y-87923721D01*
X147948436Y-87977382D01*
X147877468Y-87979409D01*
X147816671Y-87942747D01*
X147785345Y-87879035D01*
X147783500Y-87857549D01*
X147783500Y-83770322D01*
X147803502Y-83702201D01*
X147857158Y-83655708D01*
X147927432Y-83645604D01*
X147992012Y-83675098D01*
X148030396Y-83734824D01*
X148033076Y-83745729D01*
X148040845Y-83784785D01*
X148088600Y-83900075D01*
X148157929Y-84003833D01*
X148157931Y-84003835D01*
X148704595Y-84550499D01*
X148738621Y-84612811D01*
X148741500Y-84639594D01*
X148741500Y-84689481D01*
X148776414Y-84865003D01*
X148789067Y-84895549D01*
X148844898Y-85030336D01*
X148944322Y-85179135D01*
X149070865Y-85305678D01*
X149219664Y-85405102D01*
X149385000Y-85473587D01*
X149560521Y-85508500D01*
X149560522Y-85508500D01*
X149739478Y-85508500D01*
X149739479Y-85508500D01*
X149915000Y-85473587D01*
X150080336Y-85405102D01*
X150229135Y-85305678D01*
X150355678Y-85179135D01*
X150455102Y-85030336D01*
X150523587Y-84865000D01*
X150558500Y-84689479D01*
X150558500Y-84510521D01*
X150523587Y-84335000D01*
X150455102Y-84169664D01*
X150355678Y-84020865D01*
X150229135Y-83894322D01*
X150080336Y-83794898D01*
X149935306Y-83734824D01*
X149915003Y-83726414D01*
X149915001Y-83726413D01*
X149915000Y-83726413D01*
X149826645Y-83708838D01*
X149739481Y-83691500D01*
X149739479Y-83691500D01*
X149689595Y-83691500D01*
X149621474Y-83671498D01*
X149600500Y-83654595D01*
X149320405Y-83374500D01*
X149286379Y-83312188D01*
X149283500Y-83285405D01*
X149283500Y-78356928D01*
X149303502Y-78288807D01*
X149357158Y-78242314D01*
X149427432Y-78232210D01*
X149434048Y-78233343D01*
X149560521Y-78258500D01*
X149560522Y-78258500D01*
X149739478Y-78258500D01*
X149739479Y-78258500D01*
X149915000Y-78223587D01*
X150080336Y-78155102D01*
X150130501Y-78121582D01*
X150198250Y-78100369D01*
X150266717Y-78119151D01*
G37*
G04 #@! TD.AperFunction*
G04 #@! TA.AperFunction,Conductor*
G36*
X139547505Y-74505482D02*
G01*
X139560288Y-74504935D01*
X139580474Y-74516717D01*
X139602598Y-74524257D01*
X139612020Y-74535131D01*
X139621604Y-74540725D01*
X139642263Y-74570032D01*
X139680871Y-74645803D01*
X139801932Y-74812430D01*
X139801934Y-74812432D01*
X139801936Y-74812435D01*
X139947564Y-74958063D01*
X139947567Y-74958065D01*
X139947570Y-74958068D01*
X140114197Y-75079129D01*
X140297710Y-75172634D01*
X140493592Y-75236280D01*
X140697019Y-75268500D01*
X140697022Y-75268500D01*
X140902978Y-75268500D01*
X140902981Y-75268500D01*
X141106408Y-75236280D01*
X141302290Y-75172634D01*
X141333297Y-75156834D01*
X141403072Y-75143730D01*
X141468857Y-75170429D01*
X141509764Y-75228456D01*
X141516500Y-75269101D01*
X141516500Y-84995405D01*
X141496498Y-85063526D01*
X141479595Y-85084500D01*
X138675658Y-87888436D01*
X138613346Y-87922462D01*
X138566853Y-87923790D01*
X138429325Y-87902008D01*
X138362981Y-87891500D01*
X138228594Y-87891500D01*
X138160473Y-87871498D01*
X138113980Y-87817842D01*
X138103876Y-87747568D01*
X138133370Y-87682988D01*
X138139499Y-87676404D01*
X138177020Y-87638883D01*
X139142072Y-86673833D01*
X139211401Y-86570075D01*
X139259155Y-86454784D01*
X139268997Y-86405308D01*
X139283500Y-86332394D01*
X139283500Y-78053503D01*
X139303502Y-77985382D01*
X139320405Y-77964408D01*
X139326500Y-77958313D01*
X139355678Y-77929135D01*
X139455102Y-77780336D01*
X139523587Y-77615000D01*
X139558500Y-77439479D01*
X139558500Y-77260521D01*
X139523587Y-77085000D01*
X139455102Y-76919664D01*
X139355678Y-76770865D01*
X139229135Y-76644322D01*
X139080336Y-76544898D01*
X138963429Y-76496473D01*
X138915003Y-76476414D01*
X138915001Y-76476413D01*
X138915000Y-76476413D01*
X138826645Y-76458838D01*
X138739481Y-76441500D01*
X138739479Y-76441500D01*
X138560521Y-76441500D01*
X138560518Y-76441500D01*
X138429771Y-76467507D01*
X138385000Y-76476413D01*
X138384999Y-76476413D01*
X138384996Y-76476414D01*
X138219662Y-76544899D01*
X138070869Y-76644319D01*
X138070862Y-76644324D01*
X137944324Y-76770862D01*
X137944319Y-76770869D01*
X137942364Y-76773796D01*
X137844898Y-76919664D01*
X137836310Y-76940398D01*
X137776414Y-77084996D01*
X137741500Y-77260518D01*
X137741500Y-77314629D01*
X137721498Y-77382750D01*
X137667842Y-77429243D01*
X137597568Y-77439347D01*
X137532988Y-77409853D01*
X137526405Y-77403724D01*
X135606276Y-75483595D01*
X135572250Y-75421283D01*
X135577315Y-75350468D01*
X135619862Y-75293632D01*
X135686382Y-75268821D01*
X135695371Y-75268500D01*
X135822978Y-75268500D01*
X135822981Y-75268500D01*
X136026408Y-75236280D01*
X136222290Y-75172634D01*
X136405803Y-75079129D01*
X136572430Y-74958068D01*
X136718068Y-74812430D01*
X136839129Y-74645803D01*
X136877734Y-74570034D01*
X136926481Y-74518422D01*
X136995396Y-74501356D01*
X137062598Y-74524257D01*
X137102264Y-74570034D01*
X137140871Y-74645803D01*
X137261932Y-74812430D01*
X137261934Y-74812432D01*
X137261936Y-74812435D01*
X137407564Y-74958063D01*
X137407567Y-74958065D01*
X137407570Y-74958068D01*
X137574197Y-75079129D01*
X137757710Y-75172634D01*
X137953592Y-75236280D01*
X138157019Y-75268500D01*
X138157022Y-75268500D01*
X138362978Y-75268500D01*
X138362981Y-75268500D01*
X138566408Y-75236280D01*
X138762290Y-75172634D01*
X138945803Y-75079129D01*
X139112430Y-74958068D01*
X139258068Y-74812430D01*
X139379129Y-74645803D01*
X139417734Y-74570034D01*
X139426517Y-74560735D01*
X139431329Y-74548881D01*
X139450432Y-74535414D01*
X139466481Y-74518422D01*
X139478899Y-74515346D01*
X139489357Y-74507975D01*
X139512709Y-74506974D01*
X139535396Y-74501356D01*
X139547505Y-74505482D01*
G37*
G04 #@! TD.AperFunction*
G04 #@! TA.AperFunction,Conductor*
G36*
X131967012Y-60813370D02*
G01*
X131973595Y-60819499D01*
X133579595Y-62425499D01*
X133613621Y-62487811D01*
X133616500Y-62514594D01*
X133616500Y-64366406D01*
X133596498Y-64434527D01*
X133542842Y-64481020D01*
X133472568Y-64491124D01*
X133407988Y-64461630D01*
X133401405Y-64455501D01*
X132593835Y-63647931D01*
X132593833Y-63647929D01*
X132490075Y-63578600D01*
X132374785Y-63530845D01*
X132301086Y-63516185D01*
X132252396Y-63506500D01*
X132252394Y-63506500D01*
X131679109Y-63506500D01*
X131610988Y-63486498D01*
X131566844Y-63437706D01*
X131566830Y-63437678D01*
X131561894Y-63427991D01*
X131560713Y-63426366D01*
X131520683Y-63371269D01*
X131436206Y-63254996D01*
X131436203Y-63254993D01*
X131436201Y-63254990D01*
X131333229Y-63152018D01*
X131299203Y-63089706D01*
X131304268Y-63018891D01*
X131346815Y-62962055D01*
X131378284Y-62944871D01*
X131496204Y-62900889D01*
X131613261Y-62813261D01*
X131700889Y-62696204D01*
X131751989Y-62559201D01*
X131758500Y-62498638D01*
X131758500Y-60908594D01*
X131778502Y-60840473D01*
X131832158Y-60793980D01*
X131902432Y-60783876D01*
X131967012Y-60813370D01*
G37*
G04 #@! TD.AperFunction*
G04 #@! TA.AperFunction,Conductor*
G36*
X121822075Y-57408993D02*
G01*
X121887901Y-57523007D01*
X121980993Y-57616099D01*
X122095007Y-57681925D01*
X122163051Y-57700157D01*
X121520627Y-58342581D01*
X121508544Y-58400096D01*
X121458701Y-58450654D01*
X121397529Y-58466500D01*
X120638469Y-58466500D01*
X120570348Y-58446498D01*
X120523855Y-58392842D01*
X120514886Y-58342096D01*
X119872947Y-57700158D01*
X119940993Y-57681925D01*
X120055007Y-57616099D01*
X120148099Y-57523007D01*
X120213925Y-57408993D01*
X120232157Y-57340948D01*
X120871376Y-57980167D01*
X120871378Y-57980167D01*
X120909463Y-57927750D01*
X120910562Y-57925958D01*
X120911158Y-57925418D01*
X120912377Y-57923741D01*
X120912729Y-57923996D01*
X120963206Y-57878322D01*
X121033246Y-57866710D01*
X121098446Y-57894808D01*
X121123559Y-57923788D01*
X121123624Y-57923742D01*
X121124165Y-57924487D01*
X121125433Y-57925950D01*
X121126535Y-57927749D01*
X121164620Y-57980167D01*
X121164621Y-57980168D01*
X121803841Y-57340947D01*
X121822075Y-57408993D01*
G37*
G04 #@! TD.AperFunction*
G04 #@! TA.AperFunction,Conductor*
G36*
X124362075Y-57408993D02*
G01*
X124427901Y-57523007D01*
X124520993Y-57616099D01*
X124635007Y-57681925D01*
X124703051Y-57700157D01*
X124060627Y-58342581D01*
X124048544Y-58400096D01*
X123998701Y-58450654D01*
X123937529Y-58466500D01*
X123178469Y-58466500D01*
X123110348Y-58446498D01*
X123063855Y-58392842D01*
X123054885Y-58342094D01*
X122412948Y-57700157D01*
X122480993Y-57681925D01*
X122595007Y-57616099D01*
X122688099Y-57523007D01*
X122753925Y-57408993D01*
X122772157Y-57340948D01*
X123411376Y-57980167D01*
X123411378Y-57980167D01*
X123449463Y-57927750D01*
X123450562Y-57925958D01*
X123451158Y-57925418D01*
X123452377Y-57923741D01*
X123452729Y-57923996D01*
X123503206Y-57878322D01*
X123573246Y-57866710D01*
X123638446Y-57894808D01*
X123663559Y-57923788D01*
X123663624Y-57923742D01*
X123664165Y-57924487D01*
X123665433Y-57925950D01*
X123666535Y-57927749D01*
X123704620Y-57980167D01*
X123704621Y-57980168D01*
X124343841Y-57340947D01*
X124362075Y-57408993D01*
G37*
G04 #@! TD.AperFunction*
G04 #@! TA.AperFunction,Conductor*
G36*
X116677611Y-31125608D02*
G01*
X117080599Y-31142275D01*
X117090946Y-31143132D01*
X117488611Y-31192702D01*
X117498871Y-31194414D01*
X117891076Y-31276650D01*
X117901144Y-31279199D01*
X118285236Y-31393549D01*
X118295069Y-31396925D01*
X118339562Y-31414286D01*
X118668375Y-31542590D01*
X118677912Y-31546773D01*
X119037918Y-31722769D01*
X119047076Y-31727725D01*
X119391313Y-31932845D01*
X119400032Y-31938541D01*
X119726169Y-32171400D01*
X119734363Y-32177776D01*
X120040170Y-32436781D01*
X120047831Y-32443835D01*
X120331164Y-32727168D01*
X120338218Y-32734829D01*
X120597220Y-33040633D01*
X120603602Y-33048833D01*
X120695328Y-33177302D01*
X120836458Y-33374967D01*
X120842154Y-33383686D01*
X121047274Y-33727923D01*
X121052230Y-33737081D01*
X121228226Y-34097087D01*
X121232409Y-34106624D01*
X121378071Y-34479921D01*
X121381453Y-34489771D01*
X121495796Y-34873841D01*
X121498352Y-34883936D01*
X121580584Y-35276124D01*
X121582298Y-35286395D01*
X121631865Y-35684036D01*
X121632725Y-35694415D01*
X121649392Y-36097388D01*
X121649500Y-36102545D01*
X121649500Y-36108285D01*
X121649502Y-36108288D01*
X121649508Y-36125396D01*
X121649509Y-36125397D01*
X121656200Y-52566351D01*
X121656200Y-52600000D01*
X121656200Y-52689720D01*
X121687360Y-52866435D01*
X121687361Y-52866439D01*
X121748730Y-53035049D01*
X121767685Y-53067880D01*
X121838454Y-53190453D01*
X121925116Y-53293732D01*
X121953799Y-53327914D01*
X122051828Y-53410169D01*
X122091257Y-53443253D01*
X122246658Y-53532972D01*
X122415277Y-53594343D01*
X122415281Y-53594343D01*
X122415282Y-53594344D01*
X122433991Y-53597642D01*
X122591992Y-53625501D01*
X122681712Y-53625500D01*
X122689998Y-53625500D01*
X122689998Y-53625499D01*
X122717988Y-53625498D01*
X126172802Y-53625399D01*
X126172811Y-53625402D01*
X126224999Y-53625402D01*
X126320024Y-53625402D01*
X126320026Y-53625402D01*
X126506843Y-53590480D01*
X126684063Y-53521825D01*
X126845650Y-53421774D01*
X126986101Y-53293736D01*
X126986104Y-53293733D01*
X127036950Y-53226401D01*
X127100634Y-53142070D01*
X127185348Y-52971941D01*
X127237359Y-52789143D01*
X127254895Y-52599900D01*
X127237359Y-52410657D01*
X127185348Y-52227859D01*
X127100634Y-52057730D01*
X127062984Y-52007874D01*
X126986102Y-51906064D01*
X126845651Y-51778026D01*
X126684068Y-51677978D01*
X126684067Y-51677977D01*
X126684063Y-51677975D01*
X126548351Y-51625400D01*
X126506844Y-51609320D01*
X126444570Y-51597679D01*
X126320026Y-51574398D01*
X126320024Y-51574398D01*
X125233257Y-51574398D01*
X125216811Y-51573320D01*
X125118637Y-51560395D01*
X125086865Y-51551882D01*
X125003073Y-51517174D01*
X124974591Y-51500729D01*
X124902633Y-51445514D01*
X124879379Y-51422259D01*
X124847911Y-51381249D01*
X124824168Y-51350306D01*
X124807723Y-51321821D01*
X124773015Y-51238027D01*
X124764505Y-51206262D01*
X124751893Y-51110462D01*
X124751577Y-51108062D01*
X124750499Y-51091617D01*
X124750499Y-50608157D01*
X124751577Y-50591711D01*
X124753472Y-50577316D01*
X124764503Y-50493531D01*
X124773012Y-50461771D01*
X124807725Y-50377968D01*
X124824166Y-50349491D01*
X124879382Y-50277532D01*
X124902632Y-50254282D01*
X124974591Y-50199066D01*
X125003068Y-50182624D01*
X125086872Y-50147911D01*
X125118633Y-50139402D01*
X125203912Y-50128175D01*
X125216819Y-50126476D01*
X125233264Y-50125398D01*
X125233284Y-50125398D01*
X139716715Y-50125398D01*
X139716742Y-50125398D01*
X139733187Y-50126476D01*
X139759633Y-50129957D01*
X139831364Y-50139400D01*
X139863129Y-50147911D01*
X139946928Y-50182622D01*
X139975408Y-50199066D01*
X140047364Y-50254279D01*
X140070621Y-50277536D01*
X140102089Y-50318546D01*
X140125831Y-50349487D01*
X140142277Y-50377971D01*
X140176985Y-50461762D01*
X140185498Y-50493533D01*
X140198422Y-50591693D01*
X140199500Y-50608141D01*
X140199500Y-51091640D01*
X140198422Y-51108086D01*
X140185497Y-51206262D01*
X140176984Y-51238033D01*
X140142278Y-51321823D01*
X140125831Y-51350310D01*
X140070622Y-51422259D01*
X140047365Y-51445517D01*
X139975411Y-51500730D01*
X139946929Y-51517174D01*
X139946924Y-51517177D01*
X139863134Y-51551884D01*
X139831362Y-51560397D01*
X139733203Y-51573320D01*
X139716757Y-51574398D01*
X138689386Y-51574398D01*
X138689365Y-51574402D01*
X138629974Y-51574402D01*
X138443157Y-51609324D01*
X138443155Y-51609324D01*
X138443153Y-51609325D01*
X138265942Y-51677977D01*
X138265931Y-51677982D01*
X138104350Y-51778029D01*
X137963899Y-51906067D01*
X137849370Y-52057730D01*
X137764655Y-52227860D01*
X137764652Y-52227868D01*
X137712644Y-52410659D01*
X137712644Y-52410663D01*
X137695109Y-52599895D01*
X137695109Y-52599904D01*
X137712644Y-52789136D01*
X137712644Y-52789140D01*
X137734637Y-52866439D01*
X137764655Y-52971940D01*
X137849369Y-53142068D01*
X137868193Y-53166995D01*
X137963899Y-53293732D01*
X138104350Y-53421770D01*
X138265931Y-53521817D01*
X138265933Y-53521817D01*
X138265938Y-53521821D01*
X138443157Y-53590476D01*
X138629974Y-53625398D01*
X138714438Y-53625398D01*
X144122804Y-53625398D01*
X144122818Y-53625402D01*
X144174999Y-53625402D01*
X144270024Y-53625402D01*
X144270026Y-53625402D01*
X144456843Y-53590480D01*
X144634063Y-53521825D01*
X144795650Y-53421774D01*
X144936101Y-53293736D01*
X144936104Y-53293733D01*
X144986950Y-53226401D01*
X145050634Y-53142070D01*
X145135348Y-52971941D01*
X145187359Y-52789143D01*
X145204895Y-52599900D01*
X145187359Y-52410657D01*
X145135348Y-52227859D01*
X145050634Y-52057730D01*
X145012984Y-52007874D01*
X144936102Y-51906064D01*
X144795651Y-51778026D01*
X144634068Y-51677978D01*
X144634067Y-51677977D01*
X144634063Y-51677975D01*
X144498351Y-51625400D01*
X144456844Y-51609320D01*
X144394570Y-51597679D01*
X144270026Y-51574398D01*
X144270024Y-51574398D01*
X143183257Y-51574398D01*
X143166811Y-51573320D01*
X143068637Y-51560395D01*
X143036865Y-51551882D01*
X142953073Y-51517174D01*
X142924591Y-51500729D01*
X142852633Y-51445514D01*
X142829379Y-51422259D01*
X142797911Y-51381249D01*
X142774168Y-51350306D01*
X142757723Y-51321821D01*
X142723015Y-51238027D01*
X142714505Y-51206262D01*
X142701893Y-51110462D01*
X142701577Y-51108062D01*
X142700499Y-51091617D01*
X142700499Y-50608157D01*
X142701577Y-50591711D01*
X142703472Y-50577316D01*
X142714503Y-50493531D01*
X142723012Y-50461771D01*
X142757725Y-50377968D01*
X142774166Y-50349491D01*
X142829382Y-50277532D01*
X142852632Y-50254282D01*
X142924591Y-50199066D01*
X142953068Y-50182624D01*
X143036872Y-50147911D01*
X143068633Y-50139402D01*
X143153912Y-50128175D01*
X143166819Y-50126476D01*
X143183264Y-50125398D01*
X143183284Y-50125398D01*
X157666715Y-50125398D01*
X157666742Y-50125398D01*
X157683187Y-50126476D01*
X157709633Y-50129957D01*
X157781364Y-50139400D01*
X157813129Y-50147911D01*
X157896928Y-50182622D01*
X157925408Y-50199066D01*
X157997364Y-50254279D01*
X158020621Y-50277536D01*
X158052089Y-50318546D01*
X158075831Y-50349487D01*
X158092277Y-50377971D01*
X158126985Y-50461762D01*
X158135498Y-50493533D01*
X158148422Y-50591693D01*
X158149500Y-50608141D01*
X158149500Y-51091640D01*
X158148422Y-51108086D01*
X158135497Y-51206262D01*
X158126984Y-51238033D01*
X158092278Y-51321823D01*
X158075831Y-51350310D01*
X158020622Y-51422259D01*
X157997365Y-51445517D01*
X157925411Y-51500730D01*
X157896929Y-51517174D01*
X157896924Y-51517177D01*
X157813134Y-51551884D01*
X157781362Y-51560397D01*
X157683203Y-51573320D01*
X157666757Y-51574398D01*
X156639386Y-51574398D01*
X156639365Y-51574402D01*
X156579974Y-51574402D01*
X156393157Y-51609324D01*
X156393155Y-51609324D01*
X156393153Y-51609325D01*
X156215942Y-51677977D01*
X156215931Y-51677982D01*
X156054350Y-51778029D01*
X155913899Y-51906067D01*
X155799370Y-52057730D01*
X155714655Y-52227860D01*
X155714652Y-52227868D01*
X155662644Y-52410659D01*
X155662644Y-52410663D01*
X155645109Y-52599895D01*
X155645109Y-52599904D01*
X155662644Y-52789136D01*
X155662644Y-52789140D01*
X155684637Y-52866439D01*
X155714655Y-52971940D01*
X155799369Y-53142068D01*
X155818193Y-53166995D01*
X155913899Y-53293732D01*
X156054350Y-53421770D01*
X156215931Y-53521817D01*
X156215933Y-53521817D01*
X156215938Y-53521821D01*
X156393157Y-53590476D01*
X156579974Y-53625398D01*
X156579976Y-53625398D01*
X156664438Y-53625398D01*
X164317687Y-53625486D01*
X164329536Y-53625487D01*
X164329537Y-53625488D01*
X164335111Y-53625488D01*
X164340533Y-53625605D01*
X164374266Y-53627060D01*
X164760768Y-53643734D01*
X164771565Y-53644666D01*
X165186011Y-53698569D01*
X165196676Y-53700428D01*
X165604927Y-53789816D01*
X165615402Y-53792587D01*
X165949548Y-53896601D01*
X166014428Y-53916797D01*
X166024649Y-53920469D01*
X166411478Y-54078570D01*
X166421344Y-54083108D01*
X166793132Y-54273938D01*
X166802567Y-54279306D01*
X167142312Y-54492514D01*
X167156545Y-54501446D01*
X167165486Y-54507610D01*
X167499006Y-54759396D01*
X167507374Y-54766298D01*
X167818010Y-55045901D01*
X167825747Y-55053495D01*
X168111111Y-55358768D01*
X168118179Y-55367013D01*
X168376215Y-55695749D01*
X168382546Y-55704573D01*
X168611307Y-56054296D01*
X168616855Y-56063633D01*
X168814650Y-56431756D01*
X168819373Y-56441535D01*
X168985432Y-56826945D01*
X168987470Y-56831970D01*
X168988972Y-56835915D01*
X168988973Y-56835925D01*
X168988976Y-56835925D01*
X169124521Y-57192019D01*
X169243201Y-57505346D01*
X169245091Y-57510334D01*
X169246793Y-57515120D01*
X169303440Y-57685089D01*
X169764312Y-59067955D01*
X169765167Y-59070616D01*
X170248556Y-60635991D01*
X170249351Y-60638671D01*
X170691341Y-62191365D01*
X170697887Y-62214359D01*
X170698618Y-62217043D01*
X170773854Y-62505496D01*
X171112077Y-63802253D01*
X171112753Y-63804966D01*
X171490956Y-65399009D01*
X171491571Y-65401736D01*
X171834315Y-67003759D01*
X171834869Y-67006498D01*
X172141982Y-68615695D01*
X172142476Y-68618447D01*
X172413825Y-70234124D01*
X172414257Y-70236886D01*
X172649689Y-71858127D01*
X172650060Y-71860897D01*
X172849468Y-73486964D01*
X172849778Y-73489742D01*
X173013073Y-75119915D01*
X173013320Y-75122700D01*
X173140402Y-76755993D01*
X173140588Y-76758782D01*
X173231408Y-78394537D01*
X173231532Y-78397330D01*
X173286042Y-80034692D01*
X173286104Y-80037486D01*
X173304277Y-81675655D01*
X173304277Y-81678451D01*
X173286104Y-83316620D01*
X173286042Y-83319414D01*
X173231532Y-84956776D01*
X173231408Y-84959569D01*
X173140588Y-86595324D01*
X173140402Y-86598113D01*
X173013319Y-88231406D01*
X173013072Y-88234191D01*
X172849777Y-89864363D01*
X172849467Y-89867141D01*
X172650059Y-91493208D01*
X172649688Y-91495978D01*
X172414256Y-93117220D01*
X172413824Y-93119982D01*
X172142475Y-94735658D01*
X172141981Y-94738410D01*
X171834868Y-96347608D01*
X171834314Y-96350347D01*
X171491570Y-97952370D01*
X171490955Y-97955097D01*
X171112752Y-99549140D01*
X171112076Y-99551853D01*
X170698620Y-101137049D01*
X170697885Y-101139746D01*
X170249349Y-102715435D01*
X170248554Y-102718115D01*
X169765164Y-104283489D01*
X169764309Y-104286150D01*
X169246458Y-105839978D01*
X169245336Y-105843198D01*
X169203564Y-105958075D01*
X169203497Y-105958260D01*
X169076870Y-106304813D01*
X169075014Y-106309590D01*
X168923727Y-106676592D01*
X168919438Y-106685901D01*
X168740005Y-107037082D01*
X168734975Y-107046012D01*
X168527577Y-107381474D01*
X168521837Y-107389965D01*
X168287872Y-107707445D01*
X168281461Y-107715441D01*
X168022464Y-108012858D01*
X168015425Y-108020308D01*
X167733104Y-108295699D01*
X167725482Y-108302551D01*
X167421719Y-108554079D01*
X167413565Y-108560289D01*
X167090371Y-108786292D01*
X167081740Y-108791819D01*
X166741236Y-108990813D01*
X166732184Y-108995620D01*
X166376646Y-109166275D01*
X166367234Y-109170331D01*
X165998982Y-109311533D01*
X165989270Y-109314810D01*
X165610777Y-109425609D01*
X165600832Y-109428086D01*
X165214586Y-109507757D01*
X165204472Y-109509418D01*
X164813015Y-109557435D01*
X164802800Y-109558268D01*
X164406643Y-109574396D01*
X164401518Y-109574500D01*
X157379018Y-109574500D01*
X157283992Y-109574499D01*
X157283991Y-109574499D01*
X157228227Y-109584921D01*
X157097174Y-109609417D01*
X157097173Y-109609417D01*
X156919953Y-109678069D01*
X156919944Y-109678074D01*
X156758360Y-109778120D01*
X156617907Y-109906157D01*
X156503368Y-110057830D01*
X156418656Y-110227951D01*
X156418653Y-110227960D01*
X156366643Y-110410754D01*
X156349107Y-110600000D01*
X156366643Y-110789245D01*
X156418653Y-110972039D01*
X156418656Y-110972048D01*
X156503368Y-111142169D01*
X156503369Y-111142170D01*
X156503371Y-111142174D01*
X156614303Y-111289070D01*
X156617907Y-111293842D01*
X156758360Y-111421879D01*
X156919944Y-111521925D01*
X156919953Y-111521930D01*
X156985106Y-111547169D01*
X157097171Y-111590582D01*
X157283991Y-111625501D01*
X157379018Y-111625500D01*
X157387304Y-111625500D01*
X158370760Y-111625500D01*
X158387196Y-111626577D01*
X158485385Y-111639507D01*
X158517139Y-111648016D01*
X158600939Y-111682730D01*
X158629419Y-111699175D01*
X158647460Y-111713019D01*
X158701369Y-111754387D01*
X158724624Y-111777642D01*
X158779837Y-111849599D01*
X158796280Y-111878080D01*
X158830985Y-111961867D01*
X158839498Y-111993639D01*
X158852440Y-112091951D01*
X158853518Y-112108396D01*
X158853518Y-112591742D01*
X158852440Y-112608188D01*
X158839515Y-112706365D01*
X158831002Y-112738137D01*
X158796294Y-112821930D01*
X158779849Y-112850414D01*
X158724639Y-112922368D01*
X158701380Y-112945627D01*
X158629426Y-113000841D01*
X158600943Y-113017287D01*
X158517156Y-113051996D01*
X158485384Y-113060511D01*
X158387340Y-113073422D01*
X158370890Y-113074500D01*
X143887277Y-113074500D01*
X143870834Y-113073422D01*
X143772647Y-113060498D01*
X143740875Y-113051986D01*
X143686361Y-113029407D01*
X143657083Y-113017281D01*
X143628598Y-113000836D01*
X143593548Y-112973942D01*
X143556642Y-112945624D01*
X143533387Y-112922370D01*
X143478171Y-112850413D01*
X143461725Y-112821928D01*
X143427014Y-112738131D01*
X143418504Y-112706369D01*
X143405595Y-112608314D01*
X143404517Y-112591869D01*
X143404517Y-112108257D01*
X143405595Y-112091812D01*
X143406011Y-112088645D01*
X143418520Y-111993631D01*
X143427030Y-111961872D01*
X143461741Y-111878076D01*
X143478180Y-111849601D01*
X143533402Y-111777637D01*
X143556654Y-111754387D01*
X143628608Y-111699178D01*
X143657092Y-111682732D01*
X143740883Y-111648027D01*
X143772649Y-111639516D01*
X143870964Y-111626576D01*
X143887403Y-111625500D01*
X144941764Y-111625500D01*
X144941769Y-111625498D01*
X144974043Y-111625498D01*
X144974046Y-111625498D01*
X145160852Y-111590575D01*
X145160852Y-111590574D01*
X145160857Y-111590574D01*
X145338074Y-111521917D01*
X145499657Y-111421866D01*
X145640106Y-111293828D01*
X145754636Y-111142164D01*
X145839348Y-110972036D01*
X145891357Y-110789240D01*
X145908893Y-110600000D01*
X145907914Y-110589438D01*
X145891357Y-110410765D01*
X145891357Y-110410760D01*
X145839348Y-110227963D01*
X145755017Y-110058602D01*
X145754636Y-110057836D01*
X145640106Y-109906172D01*
X145582317Y-109853490D01*
X145499657Y-109778134D01*
X145499657Y-109778133D01*
X145338081Y-109678087D01*
X145338072Y-109678082D01*
X145250672Y-109644222D01*
X145160857Y-109609426D01*
X145160855Y-109609425D01*
X145160851Y-109609424D01*
X145160853Y-109609424D01*
X144974042Y-109574501D01*
X144974048Y-109574501D01*
X144889580Y-109574500D01*
X144889579Y-109574500D01*
X144889577Y-109574500D01*
X139429018Y-109574500D01*
X139333992Y-109574499D01*
X139333991Y-109574499D01*
X139278227Y-109584921D01*
X139147174Y-109609417D01*
X139147173Y-109609417D01*
X138969953Y-109678069D01*
X138969944Y-109678074D01*
X138808360Y-109778120D01*
X138667907Y-109906157D01*
X138553368Y-110057830D01*
X138468656Y-110227951D01*
X138468653Y-110227960D01*
X138416643Y-110410754D01*
X138399107Y-110600000D01*
X138416643Y-110789245D01*
X138468653Y-110972039D01*
X138468656Y-110972048D01*
X138553368Y-111142169D01*
X138553369Y-111142170D01*
X138553371Y-111142174D01*
X138664303Y-111289070D01*
X138667907Y-111293842D01*
X138808360Y-111421879D01*
X138969944Y-111521925D01*
X138969953Y-111521930D01*
X139035106Y-111547169D01*
X139147171Y-111590582D01*
X139333991Y-111625501D01*
X139429018Y-111625500D01*
X139437304Y-111625500D01*
X140420760Y-111625500D01*
X140437196Y-111626577D01*
X140535385Y-111639507D01*
X140567139Y-111648016D01*
X140650939Y-111682730D01*
X140679419Y-111699175D01*
X140697460Y-111713019D01*
X140751369Y-111754387D01*
X140774624Y-111777642D01*
X140829837Y-111849599D01*
X140846280Y-111878080D01*
X140880985Y-111961867D01*
X140889498Y-111993639D01*
X140902440Y-112091951D01*
X140903518Y-112108396D01*
X140903518Y-112591742D01*
X140902440Y-112608188D01*
X140889515Y-112706365D01*
X140881002Y-112738137D01*
X140846294Y-112821930D01*
X140829849Y-112850414D01*
X140774639Y-112922368D01*
X140751380Y-112945627D01*
X140679426Y-113000841D01*
X140650943Y-113017287D01*
X140567156Y-113051996D01*
X140535384Y-113060511D01*
X140437340Y-113073422D01*
X140420890Y-113074500D01*
X125937277Y-113074500D01*
X125920834Y-113073422D01*
X125822647Y-113060498D01*
X125790875Y-113051986D01*
X125736361Y-113029407D01*
X125707083Y-113017281D01*
X125678598Y-113000836D01*
X125643548Y-112973942D01*
X125606642Y-112945624D01*
X125583387Y-112922370D01*
X125528171Y-112850413D01*
X125511725Y-112821928D01*
X125477014Y-112738131D01*
X125468504Y-112706369D01*
X125455595Y-112608314D01*
X125454517Y-112591869D01*
X125454517Y-112108257D01*
X125455595Y-112091812D01*
X125456011Y-112088645D01*
X125468520Y-111993631D01*
X125477030Y-111961872D01*
X125511741Y-111878076D01*
X125528180Y-111849601D01*
X125583402Y-111777637D01*
X125606654Y-111754387D01*
X125678608Y-111699178D01*
X125707092Y-111682732D01*
X125790883Y-111648027D01*
X125822649Y-111639516D01*
X125920964Y-111626576D01*
X125937403Y-111625500D01*
X126991764Y-111625500D01*
X126991769Y-111625498D01*
X127024043Y-111625498D01*
X127024046Y-111625498D01*
X127210852Y-111590575D01*
X127210852Y-111590574D01*
X127210857Y-111590574D01*
X127388074Y-111521917D01*
X127549657Y-111421866D01*
X127690106Y-111293828D01*
X127804636Y-111142164D01*
X127889348Y-110972036D01*
X127941357Y-110789240D01*
X127958893Y-110600000D01*
X127957914Y-110589438D01*
X127941357Y-110410765D01*
X127941357Y-110410760D01*
X127889348Y-110227963D01*
X127805017Y-110058602D01*
X127804636Y-110057836D01*
X127690106Y-109906172D01*
X127632317Y-109853490D01*
X127549657Y-109778134D01*
X127549657Y-109778133D01*
X127388081Y-109678087D01*
X127388072Y-109678082D01*
X127300672Y-109644222D01*
X127210857Y-109609426D01*
X127210855Y-109609425D01*
X127210851Y-109609424D01*
X127210853Y-109609424D01*
X127024042Y-109574501D01*
X127024048Y-109574501D01*
X126935563Y-109574500D01*
X126935562Y-109574500D01*
X122683285Y-109574500D01*
X122675000Y-109574500D01*
X122585280Y-109574500D01*
X122484396Y-109592289D01*
X122408560Y-109605661D01*
X122408559Y-109605661D01*
X122239956Y-109667027D01*
X122239945Y-109667033D01*
X122084553Y-109756748D01*
X122084551Y-109756750D01*
X121947092Y-109872092D01*
X121831750Y-110009551D01*
X121831748Y-110009553D01*
X121742033Y-110164945D01*
X121742027Y-110164956D01*
X121680661Y-110333559D01*
X121680661Y-110333560D01*
X121649500Y-110510282D01*
X121649500Y-127097404D01*
X121649392Y-127102611D01*
X121632725Y-127505584D01*
X121631865Y-127515963D01*
X121582298Y-127913604D01*
X121580584Y-127923875D01*
X121498352Y-128316063D01*
X121495796Y-128326158D01*
X121381453Y-128710228D01*
X121378071Y-128720078D01*
X121232409Y-129093375D01*
X121228226Y-129102912D01*
X121052230Y-129462918D01*
X121047274Y-129472076D01*
X120842154Y-129816313D01*
X120836458Y-129825032D01*
X120603609Y-130151157D01*
X120597213Y-130159375D01*
X120338218Y-130465170D01*
X120331164Y-130472831D01*
X120047831Y-130756164D01*
X120040170Y-130763218D01*
X119734375Y-131022213D01*
X119726157Y-131028609D01*
X119400032Y-131261458D01*
X119391313Y-131267154D01*
X119047076Y-131472274D01*
X119037918Y-131477230D01*
X118677912Y-131653226D01*
X118668375Y-131657409D01*
X118295078Y-131803071D01*
X118285228Y-131806453D01*
X117901158Y-131920796D01*
X117891063Y-131923352D01*
X117498875Y-132005584D01*
X117488604Y-132007298D01*
X117090963Y-132056865D01*
X117080584Y-132057725D01*
X116677611Y-132074392D01*
X116672404Y-132074500D01*
X109902596Y-132074500D01*
X109897389Y-132074392D01*
X109494415Y-132057725D01*
X109484036Y-132056865D01*
X109086395Y-132007298D01*
X109076124Y-132005584D01*
X108683936Y-131923352D01*
X108673841Y-131920796D01*
X108289771Y-131806453D01*
X108279921Y-131803071D01*
X107906624Y-131657409D01*
X107897087Y-131653226D01*
X107537081Y-131477230D01*
X107527923Y-131472274D01*
X107183686Y-131267154D01*
X107174967Y-131261458D01*
X107036940Y-131162909D01*
X106848833Y-131028602D01*
X106840633Y-131022220D01*
X106534829Y-130763218D01*
X106527168Y-130756164D01*
X106243835Y-130472831D01*
X106236781Y-130465170D01*
X106139876Y-130350754D01*
X105977776Y-130159363D01*
X105971400Y-130151169D01*
X105738541Y-129825032D01*
X105732845Y-129816313D01*
X105527725Y-129472076D01*
X105522769Y-129462918D01*
X105346773Y-129102912D01*
X105342590Y-129093375D01*
X105196928Y-128720078D01*
X105193546Y-128710228D01*
X105141433Y-128535183D01*
X105079199Y-128326144D01*
X105076650Y-128316076D01*
X104994414Y-127923871D01*
X104992701Y-127913604D01*
X104968836Y-127722149D01*
X104943132Y-127515946D01*
X104942275Y-127505599D01*
X104925608Y-127102611D01*
X104925500Y-127097404D01*
X104925500Y-120355055D01*
X111388100Y-120355055D01*
X111388100Y-120568944D01*
X111421562Y-120780215D01*
X111487656Y-120983632D01*
X111487661Y-120983644D01*
X111584762Y-121174217D01*
X111622974Y-121226812D01*
X111622975Y-121226812D01*
X112183722Y-120666065D01*
X112190777Y-120692395D01*
X112269361Y-120828505D01*
X112380495Y-120939639D01*
X112516605Y-121018223D01*
X112542931Y-121025277D01*
X111982186Y-121586022D01*
X111982186Y-121586023D01*
X112034779Y-121624234D01*
X112225361Y-121721340D01*
X112225367Y-121721343D01*
X112428786Y-121787437D01*
X112428782Y-121787437D01*
X112640055Y-121820900D01*
X112853945Y-121820900D01*
X113065215Y-121787437D01*
X113268632Y-121721343D01*
X113268638Y-121721340D01*
X113459218Y-121624235D01*
X113511812Y-121586023D01*
X112951067Y-121025277D01*
X112977395Y-121018223D01*
X113113505Y-120939639D01*
X113224639Y-120828505D01*
X113303223Y-120692395D01*
X113310277Y-120666066D01*
X113871023Y-121226812D01*
X113909235Y-121174218D01*
X114006340Y-120983638D01*
X114006343Y-120983632D01*
X114072437Y-120780215D01*
X114105900Y-120568944D01*
X114105900Y-120355055D01*
X114072437Y-120143784D01*
X114006343Y-119940367D01*
X114006340Y-119940361D01*
X113909234Y-119749779D01*
X113871023Y-119697186D01*
X113871022Y-119697186D01*
X113310277Y-120257931D01*
X113303223Y-120231605D01*
X113224639Y-120095495D01*
X113113505Y-119984361D01*
X112977395Y-119905777D01*
X112951066Y-119898722D01*
X113511812Y-119337975D01*
X113511812Y-119337974D01*
X113459217Y-119299762D01*
X113268644Y-119202661D01*
X113268632Y-119202656D01*
X113065213Y-119136562D01*
X113065217Y-119136562D01*
X112853945Y-119103100D01*
X112640055Y-119103100D01*
X112428784Y-119136562D01*
X112225367Y-119202656D01*
X112225355Y-119202661D01*
X112034788Y-119299759D01*
X112034776Y-119299767D01*
X111982185Y-119337975D01*
X112542932Y-119898722D01*
X112516605Y-119905777D01*
X112380495Y-119984361D01*
X112269361Y-120095495D01*
X112190777Y-120231605D01*
X112183722Y-120257932D01*
X111622975Y-119697185D01*
X111584767Y-119749776D01*
X111584759Y-119749788D01*
X111487661Y-119940355D01*
X111487656Y-119940367D01*
X111421562Y-120143784D01*
X111388100Y-120355055D01*
X104925500Y-120355055D01*
X104925500Y-118634784D01*
X104925500Y-114482450D01*
X111387600Y-114482450D01*
X111387600Y-116281549D01*
X111394109Y-116342096D01*
X111394111Y-116342104D01*
X111445210Y-116479102D01*
X111445212Y-116479107D01*
X111532838Y-116596161D01*
X111649892Y-116683787D01*
X111649894Y-116683788D01*
X111649896Y-116683789D01*
X111708975Y-116705824D01*
X111786895Y-116734888D01*
X111786903Y-116734890D01*
X111847450Y-116741399D01*
X111847455Y-116741399D01*
X111847462Y-116741400D01*
X112443306Y-116741400D01*
X112511427Y-116761402D01*
X112532401Y-116778305D01*
X114634545Y-118880449D01*
X114668571Y-118942761D01*
X114667157Y-119002152D01*
X114653997Y-119051266D01*
X114653997Y-119051270D01*
X114636500Y-119184171D01*
X114636500Y-119799994D01*
X114641727Y-119873078D01*
X114644678Y-119883130D01*
X114646031Y-119932659D01*
X114648853Y-119932963D01*
X114641500Y-120001350D01*
X114641500Y-121098649D01*
X114648853Y-121167037D01*
X114648309Y-121167095D01*
X114650039Y-121205825D01*
X114636500Y-121300002D01*
X114636500Y-121915828D01*
X114653996Y-122048725D01*
X114653999Y-122048738D01*
X114688071Y-122175894D01*
X114739371Y-122299744D01*
X114739377Y-122299754D01*
X114805194Y-122413753D01*
X114805195Y-122413754D01*
X114805197Y-122413757D01*
X114808392Y-122417921D01*
X114813539Y-122424629D01*
X114839137Y-122490851D01*
X114824870Y-122560399D01*
X114802669Y-122590425D01*
X113204229Y-124188865D01*
X113141917Y-124222891D01*
X113076204Y-124219605D01*
X113065333Y-124216073D01*
X113065327Y-124216072D01*
X112853987Y-124182600D01*
X112640013Y-124182600D01*
X112555477Y-124195988D01*
X112428670Y-124216072D01*
X112225171Y-124282194D01*
X112225169Y-124282195D01*
X112034515Y-124379338D01*
X111861407Y-124505109D01*
X111861404Y-124505111D01*
X111710111Y-124656404D01*
X111710109Y-124656407D01*
X111584338Y-124829515D01*
X111487195Y-125020169D01*
X111487194Y-125020171D01*
X111421072Y-125223670D01*
X111387600Y-125435015D01*
X111387600Y-125648984D01*
X111421072Y-125860329D01*
X111465153Y-125995995D01*
X111487194Y-126063829D01*
X111584336Y-126254481D01*
X111710107Y-126427590D01*
X111710109Y-126427592D01*
X111710111Y-126427595D01*
X111861404Y-126578888D01*
X111861407Y-126578890D01*
X111861410Y-126578893D01*
X112034519Y-126704664D01*
X112225171Y-126801806D01*
X112428673Y-126867928D01*
X112640013Y-126901400D01*
X112640015Y-126901400D01*
X112853985Y-126901400D01*
X112853987Y-126901400D01*
X113065327Y-126867928D01*
X113268829Y-126801806D01*
X113459481Y-126704664D01*
X113632590Y-126578893D01*
X113783893Y-126427590D01*
X113909664Y-126254481D01*
X114006806Y-126063829D01*
X114072928Y-125860327D01*
X114106400Y-125648987D01*
X114106400Y-125435013D01*
X114072928Y-125223673D01*
X114069395Y-125212802D01*
X114067367Y-125141836D01*
X114100131Y-125084771D01*
X116311431Y-122873471D01*
X116367908Y-122840863D01*
X116475899Y-122811927D01*
X116599743Y-122760629D01*
X116713757Y-122694803D01*
X116820106Y-122613198D01*
X116913198Y-122520106D01*
X116919196Y-122512290D01*
X116935646Y-122490851D01*
X116994803Y-122413757D01*
X117060629Y-122299743D01*
X117111927Y-122175899D01*
X117146002Y-122048732D01*
X117163500Y-121915826D01*
X117163500Y-121300000D01*
X117158273Y-121226921D01*
X117158272Y-121226920D01*
X117157791Y-121220184D01*
X117159906Y-121220032D01*
X117166416Y-121159436D01*
X117210959Y-121104151D01*
X117212797Y-121102898D01*
X117303833Y-121042071D01*
X119492071Y-118853833D01*
X119561400Y-118750075D01*
X119587840Y-118686243D01*
X119609155Y-118634785D01*
X119633500Y-118512394D01*
X119633500Y-109503503D01*
X119653502Y-109435382D01*
X119670405Y-109414408D01*
X119705678Y-109379135D01*
X119805102Y-109230336D01*
X119873587Y-109065000D01*
X119908500Y-108889479D01*
X119908500Y-108710521D01*
X119873587Y-108535000D01*
X119805102Y-108369664D01*
X119705678Y-108220865D01*
X119579135Y-108094322D01*
X119430336Y-107994898D01*
X119275555Y-107930785D01*
X119265003Y-107926414D01*
X119265001Y-107926413D01*
X119265000Y-107926413D01*
X119147787Y-107903098D01*
X119089481Y-107891500D01*
X119089479Y-107891500D01*
X118910521Y-107891500D01*
X118910518Y-107891500D01*
X118779771Y-107917507D01*
X118735000Y-107926413D01*
X118734999Y-107926413D01*
X118734996Y-107926414D01*
X118569662Y-107994899D01*
X118420869Y-108094319D01*
X118420862Y-108094324D01*
X118294324Y-108220862D01*
X118294319Y-108220869D01*
X118194899Y-108369662D01*
X118126414Y-108534996D01*
X118091500Y-108710518D01*
X118091500Y-108710521D01*
X118091500Y-108889479D01*
X118126413Y-109065000D01*
X118194898Y-109230336D01*
X118294322Y-109379135D01*
X118294324Y-109379137D01*
X118329595Y-109414408D01*
X118363621Y-109476720D01*
X118366500Y-109503503D01*
X118366500Y-118135406D01*
X118346498Y-118203527D01*
X118329599Y-118224496D01*
X117804021Y-118750075D01*
X117368181Y-119185915D01*
X117305869Y-119219940D01*
X117235053Y-119214875D01*
X117178218Y-119172328D01*
X117154164Y-119113264D01*
X117146003Y-119051276D01*
X117146002Y-119051270D01*
X117146002Y-119051268D01*
X117111927Y-118924101D01*
X117060629Y-118800257D01*
X116994803Y-118686243D01*
X116955317Y-118634784D01*
X116913205Y-118579902D01*
X116913186Y-118579881D01*
X116820118Y-118486813D01*
X116820097Y-118486794D01*
X116713760Y-118405199D01*
X116713753Y-118405194D01*
X116599754Y-118339377D01*
X116599744Y-118339371D01*
X116475894Y-118288071D01*
X116348738Y-118253999D01*
X116348725Y-118253996D01*
X116215828Y-118236500D01*
X116215826Y-118236500D01*
X115834594Y-118236500D01*
X115766473Y-118216498D01*
X115745499Y-118199595D01*
X114099587Y-116553683D01*
X114065561Y-116491371D01*
X114070626Y-116420556D01*
X114070627Y-116420555D01*
X114099888Y-116342104D01*
X114099890Y-116342096D01*
X114106399Y-116281549D01*
X114106400Y-116281532D01*
X114106400Y-114482467D01*
X114106399Y-114482450D01*
X114099890Y-114421903D01*
X114099888Y-114421895D01*
X114048789Y-114284897D01*
X114048787Y-114284892D01*
X113961161Y-114167838D01*
X113844107Y-114080212D01*
X113844102Y-114080210D01*
X113707104Y-114029111D01*
X113707096Y-114029109D01*
X113646549Y-114022600D01*
X113646538Y-114022600D01*
X111847462Y-114022600D01*
X111847450Y-114022600D01*
X111786903Y-114029109D01*
X111786895Y-114029111D01*
X111649897Y-114080210D01*
X111649892Y-114080212D01*
X111532838Y-114167838D01*
X111445212Y-114284892D01*
X111445210Y-114284897D01*
X111394111Y-114421895D01*
X111394109Y-114421903D01*
X111387600Y-114482450D01*
X104925500Y-114482450D01*
X104925500Y-110172942D01*
X104925536Y-110170024D01*
X104943369Y-109441687D01*
X104943668Y-109435574D01*
X104997012Y-108710539D01*
X104997610Y-108704444D01*
X105086375Y-107982887D01*
X105087276Y-107976802D01*
X105120289Y-107786051D01*
X108058139Y-107786051D01*
X108078948Y-107930785D01*
X108139691Y-108063794D01*
X108177911Y-108111223D01*
X108177916Y-108111228D01*
X108177925Y-108111238D01*
X109448761Y-109382074D01*
X109448770Y-109382082D01*
X109448777Y-109382089D01*
X109496206Y-109420309D01*
X109629215Y-109481052D01*
X109773949Y-109501861D01*
X109918683Y-109481052D01*
X110051692Y-109420309D01*
X110099121Y-109382089D01*
X111369987Y-108111223D01*
X111408207Y-108063794D01*
X111468950Y-107930785D01*
X111489759Y-107786051D01*
X111468950Y-107641317D01*
X111416670Y-107526841D01*
X111406568Y-107456568D01*
X111436061Y-107391987D01*
X111495787Y-107353604D01*
X111531285Y-107348500D01*
X111676913Y-107348500D01*
X111676916Y-107348500D01*
X111888116Y-107315049D01*
X112091483Y-107248972D01*
X112282009Y-107151894D01*
X112455004Y-107026206D01*
X112606206Y-106875004D01*
X112731894Y-106702009D01*
X112828972Y-106511483D01*
X112895049Y-106308116D01*
X112928500Y-106096916D01*
X112928500Y-105883084D01*
X112895049Y-105671884D01*
X112895044Y-105671869D01*
X112894747Y-105670628D01*
X112894771Y-105670136D01*
X112894274Y-105666995D01*
X112894934Y-105666890D01*
X112898295Y-105599720D01*
X112939614Y-105541987D01*
X113005588Y-105515757D01*
X113043012Y-105518433D01*
X113043046Y-105518223D01*
X113045499Y-105518611D01*
X113046679Y-105518696D01*
X113047920Y-105518993D01*
X113047935Y-105518998D01*
X113259135Y-105552449D01*
X113259138Y-105552449D01*
X113472964Y-105552449D01*
X113472967Y-105552449D01*
X113684167Y-105518998D01*
X113887534Y-105452921D01*
X114078060Y-105355843D01*
X114251055Y-105230155D01*
X114395808Y-105085402D01*
X115850000Y-105085402D01*
X115850000Y-105730000D01*
X116777297Y-105730000D01*
X116742075Y-105791007D01*
X116708000Y-105918174D01*
X116708000Y-106049826D01*
X116742075Y-106176993D01*
X116777297Y-106238000D01*
X115850000Y-106238000D01*
X115850000Y-106882597D01*
X115856505Y-106943093D01*
X115907555Y-107079964D01*
X115907555Y-107079965D01*
X115995095Y-107196904D01*
X116112034Y-107284444D01*
X116248906Y-107335494D01*
X116309402Y-107341999D01*
X116309415Y-107342000D01*
X116954000Y-107342000D01*
X116954000Y-106414702D01*
X117015007Y-106449925D01*
X117142174Y-106484000D01*
X117273826Y-106484000D01*
X117400993Y-106449925D01*
X117462000Y-106414702D01*
X117462000Y-107342000D01*
X118106585Y-107342000D01*
X118106597Y-107341999D01*
X118167093Y-107335494D01*
X118303964Y-107284444D01*
X118303965Y-107284444D01*
X118420904Y-107196904D01*
X118508444Y-107079965D01*
X118528400Y-107026459D01*
X118559093Y-106846496D01*
X118560896Y-106842804D01*
X118560677Y-106838705D01*
X118578637Y-106806498D01*
X118590263Y-106782707D01*
X118592744Y-106781202D01*
X118594205Y-106778583D01*
X119263841Y-106108947D01*
X119282075Y-106176993D01*
X119347901Y-106291007D01*
X119440993Y-106384099D01*
X119555007Y-106449925D01*
X119623051Y-106468157D01*
X118983831Y-107107378D01*
X119036249Y-107145463D01*
X119036251Y-107145464D01*
X119226707Y-107242506D01*
X119226713Y-107242509D01*
X119429996Y-107308559D01*
X119641126Y-107342000D01*
X119854874Y-107342000D01*
X120066003Y-107308559D01*
X120269286Y-107242509D01*
X120269292Y-107242506D01*
X120459750Y-107145463D01*
X120512167Y-107107378D01*
X120512167Y-107107376D01*
X119872948Y-106468157D01*
X119940993Y-106449925D01*
X120055007Y-106384099D01*
X120148099Y-106291007D01*
X120213925Y-106176993D01*
X120232157Y-106108948D01*
X120871376Y-106748167D01*
X120871378Y-106748167D01*
X120909463Y-106695750D01*
X120910562Y-106693958D01*
X120911158Y-106693418D01*
X120912377Y-106691741D01*
X120912729Y-106691996D01*
X120963206Y-106646322D01*
X121033246Y-106634710D01*
X121098446Y-106662808D01*
X121123559Y-106691788D01*
X121123624Y-106691742D01*
X121124165Y-106692487D01*
X121125433Y-106693950D01*
X121126535Y-106695749D01*
X121164620Y-106748167D01*
X121164621Y-106748168D01*
X121803841Y-106108947D01*
X121822075Y-106176993D01*
X121887901Y-106291007D01*
X121980993Y-106384099D01*
X122095007Y-106449925D01*
X122163051Y-106468157D01*
X121523831Y-107107378D01*
X121576249Y-107145463D01*
X121576251Y-107145464D01*
X121766707Y-107242506D01*
X121766713Y-107242509D01*
X121969996Y-107308559D01*
X122181126Y-107342000D01*
X122394874Y-107342000D01*
X122606003Y-107308559D01*
X122809286Y-107242509D01*
X122809292Y-107242506D01*
X122999750Y-107145463D01*
X123052167Y-107107378D01*
X123052167Y-107107376D01*
X122412948Y-106468157D01*
X122480993Y-106449925D01*
X122595007Y-106384099D01*
X122688099Y-106291007D01*
X122753925Y-106176993D01*
X122772157Y-106108948D01*
X123411376Y-106748167D01*
X123411378Y-106748167D01*
X123449463Y-106695750D01*
X123450562Y-106693958D01*
X123451158Y-106693418D01*
X123452377Y-106691741D01*
X123452729Y-106691996D01*
X123503206Y-106646322D01*
X123573246Y-106634710D01*
X123638446Y-106662808D01*
X123663559Y-106691788D01*
X123663624Y-106691742D01*
X123664165Y-106692487D01*
X123665433Y-106693950D01*
X123666535Y-106695749D01*
X123704620Y-106748167D01*
X123704621Y-106748168D01*
X124343841Y-106108947D01*
X124362075Y-106176993D01*
X124427901Y-106291007D01*
X124520993Y-106384099D01*
X124635007Y-106449925D01*
X124703051Y-106468157D01*
X124063831Y-107107378D01*
X124116249Y-107145463D01*
X124116251Y-107145464D01*
X124306707Y-107242506D01*
X124306713Y-107242509D01*
X124509996Y-107308559D01*
X124721126Y-107342000D01*
X124934874Y-107342000D01*
X125146003Y-107308559D01*
X125349286Y-107242509D01*
X125349292Y-107242506D01*
X125539750Y-107145463D01*
X125592167Y-107107378D01*
X125592167Y-107107376D01*
X124952948Y-106468157D01*
X125020993Y-106449925D01*
X125135007Y-106384099D01*
X125228099Y-106291007D01*
X125293925Y-106176993D01*
X125312157Y-106108948D01*
X125951376Y-106748167D01*
X125951378Y-106748167D01*
X125989463Y-106695750D01*
X126086506Y-106505292D01*
X126086509Y-106505286D01*
X126152559Y-106302003D01*
X126186000Y-106090873D01*
X126186000Y-105877126D01*
X146790000Y-105877126D01*
X146790000Y-106090873D01*
X146823440Y-106302003D01*
X146889490Y-106505286D01*
X146889493Y-106505292D01*
X146986535Y-106695748D01*
X146986536Y-106695750D01*
X147024620Y-106748167D01*
X147024621Y-106748168D01*
X147663841Y-106108947D01*
X147682075Y-106176993D01*
X147747901Y-106291007D01*
X147840993Y-106384099D01*
X147955007Y-106449925D01*
X148023051Y-106468157D01*
X147383831Y-107107378D01*
X147436249Y-107145463D01*
X147436251Y-107145464D01*
X147626707Y-107242506D01*
X147626713Y-107242509D01*
X147829996Y-107308559D01*
X148041126Y-107342000D01*
X148254874Y-107342000D01*
X148466003Y-107308559D01*
X148669286Y-107242509D01*
X148669292Y-107242506D01*
X148859750Y-107145463D01*
X148912167Y-107107378D01*
X148912167Y-107107376D01*
X148272948Y-106468157D01*
X148340993Y-106449925D01*
X148455007Y-106384099D01*
X148548099Y-106291007D01*
X148613925Y-106176993D01*
X148632157Y-106108948D01*
X149271376Y-106748167D01*
X149271378Y-106748167D01*
X149309463Y-106695750D01*
X149310562Y-106693958D01*
X149311158Y-106693418D01*
X149312377Y-106691741D01*
X149312729Y-106691996D01*
X149363206Y-106646322D01*
X149433246Y-106634710D01*
X149498446Y-106662808D01*
X149523559Y-106691788D01*
X149523624Y-106691742D01*
X149524165Y-106692487D01*
X149525433Y-106693950D01*
X149526535Y-106695749D01*
X149564620Y-106748167D01*
X149564621Y-106748168D01*
X150203841Y-106108947D01*
X150222075Y-106176993D01*
X150287901Y-106291007D01*
X150380993Y-106384099D01*
X150495007Y-106449925D01*
X150563051Y-106468157D01*
X149923831Y-107107378D01*
X149976249Y-107145463D01*
X149976251Y-107145464D01*
X150166707Y-107242506D01*
X150166713Y-107242509D01*
X150369996Y-107308559D01*
X150581126Y-107342000D01*
X150794874Y-107342000D01*
X151006003Y-107308559D01*
X151209286Y-107242509D01*
X151209292Y-107242506D01*
X151399750Y-107145463D01*
X151452167Y-107107378D01*
X151452167Y-107107376D01*
X150812948Y-106468157D01*
X150880993Y-106449925D01*
X150995007Y-106384099D01*
X151088099Y-106291007D01*
X151153925Y-106176993D01*
X151172157Y-106108948D01*
X151811376Y-106748167D01*
X151811378Y-106748167D01*
X151849463Y-106695750D01*
X151850562Y-106693958D01*
X151851158Y-106693418D01*
X151852377Y-106691741D01*
X151852729Y-106691996D01*
X151903206Y-106646322D01*
X151973246Y-106634710D01*
X152038446Y-106662808D01*
X152063559Y-106691788D01*
X152063624Y-106691742D01*
X152064165Y-106692487D01*
X152065433Y-106693950D01*
X152066535Y-106695749D01*
X152104620Y-106748167D01*
X152104621Y-106748168D01*
X152743841Y-106108947D01*
X152762075Y-106176993D01*
X152827901Y-106291007D01*
X152920993Y-106384099D01*
X153035007Y-106449925D01*
X153103051Y-106468157D01*
X152463831Y-107107378D01*
X152516249Y-107145463D01*
X152516251Y-107145464D01*
X152706707Y-107242506D01*
X152706713Y-107242509D01*
X152909996Y-107308559D01*
X153121126Y-107342000D01*
X153334874Y-107342000D01*
X153546003Y-107308559D01*
X153749286Y-107242509D01*
X153749292Y-107242506D01*
X153939750Y-107145463D01*
X153992167Y-107107378D01*
X153992167Y-107107376D01*
X153352948Y-106468157D01*
X153420993Y-106449925D01*
X153535007Y-106384099D01*
X153628099Y-106291007D01*
X153693925Y-106176993D01*
X153712157Y-106108948D01*
X154381794Y-106778585D01*
X154415820Y-106840897D01*
X154412030Y-106901471D01*
X154416505Y-106943093D01*
X154467555Y-107079964D01*
X154467555Y-107079965D01*
X154555095Y-107196904D01*
X154672034Y-107284444D01*
X154808906Y-107335494D01*
X154869402Y-107341999D01*
X154869415Y-107342000D01*
X155514000Y-107342000D01*
X155514000Y-106414702D01*
X155575007Y-106449925D01*
X155702174Y-106484000D01*
X155833826Y-106484000D01*
X155960993Y-106449925D01*
X156022000Y-106414702D01*
X156022000Y-107342000D01*
X156666585Y-107342000D01*
X156666597Y-107341999D01*
X156727093Y-107335494D01*
X156863964Y-107284444D01*
X156863965Y-107284444D01*
X156980904Y-107196904D01*
X157068444Y-107079965D01*
X157068444Y-107079964D01*
X157119494Y-106943093D01*
X157125999Y-106882597D01*
X157126000Y-106882585D01*
X157126000Y-106238000D01*
X156198703Y-106238000D01*
X156233925Y-106176993D01*
X156268000Y-106049826D01*
X156268000Y-105918174D01*
X156233925Y-105791007D01*
X156198703Y-105730000D01*
X157126000Y-105730000D01*
X157126000Y-105085414D01*
X157125999Y-105085402D01*
X157119494Y-105024906D01*
X157068444Y-104888035D01*
X157068444Y-104888034D01*
X156980904Y-104771095D01*
X156863965Y-104683555D01*
X156727093Y-104632505D01*
X156666597Y-104626000D01*
X156022000Y-104626000D01*
X156022000Y-105553297D01*
X155960993Y-105518075D01*
X155833826Y-105484000D01*
X155702174Y-105484000D01*
X155575007Y-105518075D01*
X155514000Y-105553297D01*
X155514000Y-104626000D01*
X154869402Y-104626000D01*
X154808906Y-104632505D01*
X154672035Y-104683555D01*
X154672034Y-104683555D01*
X154555095Y-104771095D01*
X154467555Y-104888034D01*
X154467555Y-104888035D01*
X154416505Y-105024905D01*
X154411981Y-105066978D01*
X154415319Y-105129301D01*
X154381794Y-105189414D01*
X153712157Y-105859051D01*
X153693925Y-105791007D01*
X153628099Y-105676993D01*
X153535007Y-105583901D01*
X153420993Y-105518075D01*
X153352947Y-105499841D01*
X153992168Y-104860621D01*
X153992167Y-104860620D01*
X153939750Y-104822536D01*
X153939748Y-104822535D01*
X153749292Y-104725493D01*
X153749286Y-104725490D01*
X153546003Y-104659440D01*
X153334874Y-104626000D01*
X153121126Y-104626000D01*
X152909996Y-104659440D01*
X152706713Y-104725490D01*
X152706707Y-104725493D01*
X152516253Y-104822534D01*
X152463831Y-104860621D01*
X152463831Y-104860622D01*
X153103051Y-105499842D01*
X153035007Y-105518075D01*
X152920993Y-105583901D01*
X152827901Y-105676993D01*
X152762075Y-105791007D01*
X152743842Y-105859051D01*
X152104622Y-105219831D01*
X152104621Y-105219831D01*
X152066522Y-105272269D01*
X152065422Y-105274065D01*
X152064827Y-105274603D01*
X152063624Y-105276259D01*
X152063275Y-105276006D01*
X152012768Y-105321689D01*
X151942725Y-105333286D01*
X151877531Y-105305174D01*
X151852440Y-105276211D01*
X151852376Y-105276258D01*
X151851830Y-105275506D01*
X151850563Y-105274044D01*
X151849462Y-105272248D01*
X151811378Y-105219831D01*
X151172157Y-105859051D01*
X151153925Y-105791007D01*
X151088099Y-105676993D01*
X150995007Y-105583901D01*
X150880993Y-105518075D01*
X150812947Y-105499841D01*
X151452168Y-104860621D01*
X151452167Y-104860620D01*
X151399750Y-104822536D01*
X151399748Y-104822535D01*
X151209292Y-104725493D01*
X151209286Y-104725490D01*
X151006003Y-104659440D01*
X150794874Y-104626000D01*
X150581126Y-104626000D01*
X150369996Y-104659440D01*
X150166713Y-104725490D01*
X150166707Y-104725493D01*
X149976253Y-104822534D01*
X149923831Y-104860621D01*
X149923831Y-104860622D01*
X150563051Y-105499842D01*
X150495007Y-105518075D01*
X150380993Y-105583901D01*
X150287901Y-105676993D01*
X150222075Y-105791007D01*
X150203842Y-105859051D01*
X149564622Y-105219831D01*
X149564621Y-105219831D01*
X149526522Y-105272269D01*
X149525422Y-105274065D01*
X149524827Y-105274603D01*
X149523624Y-105276259D01*
X149523275Y-105276006D01*
X149472768Y-105321689D01*
X149402725Y-105333286D01*
X149337531Y-105305174D01*
X149312440Y-105276211D01*
X149312376Y-105276258D01*
X149311830Y-105275506D01*
X149310563Y-105274044D01*
X149309462Y-105272248D01*
X149271378Y-105219831D01*
X148632157Y-105859051D01*
X148613925Y-105791007D01*
X148548099Y-105676993D01*
X148455007Y-105583901D01*
X148340993Y-105518075D01*
X148272947Y-105499841D01*
X148912168Y-104860621D01*
X148912167Y-104860620D01*
X148859750Y-104822536D01*
X148859748Y-104822535D01*
X148669292Y-104725493D01*
X148669286Y-104725490D01*
X148466003Y-104659440D01*
X148254874Y-104626000D01*
X148041126Y-104626000D01*
X147829996Y-104659440D01*
X147626713Y-104725490D01*
X147626707Y-104725493D01*
X147436253Y-104822534D01*
X147383831Y-104860621D01*
X147383831Y-104860622D01*
X148023051Y-105499842D01*
X147955007Y-105518075D01*
X147840993Y-105583901D01*
X147747901Y-105676993D01*
X147682075Y-105791007D01*
X147663842Y-105859051D01*
X147024622Y-105219831D01*
X147024621Y-105219831D01*
X146986534Y-105272253D01*
X146889493Y-105462707D01*
X146889490Y-105462713D01*
X146823440Y-105665996D01*
X146790000Y-105877126D01*
X126186000Y-105877126D01*
X126152559Y-105665996D01*
X126086509Y-105462713D01*
X126086506Y-105462707D01*
X125989464Y-105272251D01*
X125989463Y-105272249D01*
X125951378Y-105219831D01*
X125312157Y-105859051D01*
X125293925Y-105791007D01*
X125228099Y-105676993D01*
X125135007Y-105583901D01*
X125020993Y-105518075D01*
X124952947Y-105499841D01*
X125592168Y-104860621D01*
X125592167Y-104860620D01*
X125539750Y-104822536D01*
X125539748Y-104822535D01*
X125349292Y-104725493D01*
X125349286Y-104725490D01*
X125146003Y-104659440D01*
X124934874Y-104626000D01*
X124721126Y-104626000D01*
X124509996Y-104659440D01*
X124306713Y-104725490D01*
X124306707Y-104725493D01*
X124116253Y-104822534D01*
X124063831Y-104860621D01*
X124063831Y-104860622D01*
X124703051Y-105499842D01*
X124635007Y-105518075D01*
X124520993Y-105583901D01*
X124427901Y-105676993D01*
X124362075Y-105791007D01*
X124343842Y-105859051D01*
X123704622Y-105219831D01*
X123704621Y-105219831D01*
X123666522Y-105272269D01*
X123665422Y-105274065D01*
X123664827Y-105274603D01*
X123663624Y-105276259D01*
X123663275Y-105276006D01*
X123612768Y-105321689D01*
X123542725Y-105333286D01*
X123477531Y-105305174D01*
X123452440Y-105276211D01*
X123452376Y-105276258D01*
X123451830Y-105275506D01*
X123450563Y-105274044D01*
X123449462Y-105272248D01*
X123411378Y-105219831D01*
X122772157Y-105859051D01*
X122753925Y-105791007D01*
X122688099Y-105676993D01*
X122595007Y-105583901D01*
X122480993Y-105518075D01*
X122412947Y-105499841D01*
X123052168Y-104860621D01*
X123052167Y-104860620D01*
X122999750Y-104822536D01*
X122999748Y-104822535D01*
X122809292Y-104725493D01*
X122809286Y-104725490D01*
X122606003Y-104659440D01*
X122394874Y-104626000D01*
X122181126Y-104626000D01*
X121969996Y-104659440D01*
X121766713Y-104725490D01*
X121766707Y-104725493D01*
X121576253Y-104822534D01*
X121523831Y-104860621D01*
X121523831Y-104860622D01*
X122163051Y-105499842D01*
X122095007Y-105518075D01*
X121980993Y-105583901D01*
X121887901Y-105676993D01*
X121822075Y-105791007D01*
X121803842Y-105859051D01*
X121164622Y-105219831D01*
X121164621Y-105219831D01*
X121126522Y-105272269D01*
X121125422Y-105274065D01*
X121124827Y-105274603D01*
X121123624Y-105276259D01*
X121123275Y-105276006D01*
X121072768Y-105321689D01*
X121002725Y-105333286D01*
X120937531Y-105305174D01*
X120912440Y-105276211D01*
X120912376Y-105276258D01*
X120911830Y-105275506D01*
X120910563Y-105274044D01*
X120909462Y-105272248D01*
X120871378Y-105219831D01*
X120232157Y-105859051D01*
X120213925Y-105791007D01*
X120148099Y-105676993D01*
X120055007Y-105583901D01*
X119940993Y-105518075D01*
X119872947Y-105499841D01*
X120512168Y-104860621D01*
X120512167Y-104860620D01*
X120459750Y-104822536D01*
X120459748Y-104822535D01*
X120269292Y-104725493D01*
X120269286Y-104725490D01*
X120066003Y-104659440D01*
X119854874Y-104626000D01*
X119641126Y-104626000D01*
X119429996Y-104659440D01*
X119226713Y-104725490D01*
X119226707Y-104725493D01*
X119036253Y-104822534D01*
X118983831Y-104860621D01*
X118983831Y-104860622D01*
X119623051Y-105499842D01*
X119555007Y-105518075D01*
X119440993Y-105583901D01*
X119347901Y-105676993D01*
X119282075Y-105791007D01*
X119263842Y-105859051D01*
X118594204Y-105189413D01*
X118560178Y-105127101D01*
X118559092Y-105121501D01*
X118528400Y-104941541D01*
X118508443Y-104888033D01*
X118420904Y-104771095D01*
X118303965Y-104683555D01*
X118167093Y-104632505D01*
X118106597Y-104626000D01*
X117462000Y-104626000D01*
X117462000Y-105553297D01*
X117400993Y-105518075D01*
X117273826Y-105484000D01*
X117142174Y-105484000D01*
X117015007Y-105518075D01*
X116954000Y-105553297D01*
X116954000Y-104626000D01*
X116309402Y-104626000D01*
X116248906Y-104632505D01*
X116112035Y-104683555D01*
X116112034Y-104683555D01*
X115995095Y-104771095D01*
X115907555Y-104888034D01*
X115907555Y-104888035D01*
X115856505Y-105024906D01*
X115850000Y-105085402D01*
X114395808Y-105085402D01*
X114402257Y-105078953D01*
X114527945Y-104905958D01*
X114625023Y-104715432D01*
X114691100Y-104512065D01*
X114724551Y-104300865D01*
X114724551Y-104087033D01*
X114691100Y-103875833D01*
X114691096Y-103875823D01*
X114690797Y-103874572D01*
X114690821Y-103874079D01*
X114690325Y-103870944D01*
X114690983Y-103870839D01*
X114694347Y-103803664D01*
X114735669Y-103745932D01*
X114801644Y-103719705D01*
X114839064Y-103722381D01*
X114839098Y-103722171D01*
X114841544Y-103722558D01*
X114842726Y-103722643D01*
X114843977Y-103722942D01*
X114843987Y-103722946D01*
X115055187Y-103756397D01*
X115055190Y-103756397D01*
X115269016Y-103756397D01*
X115269019Y-103756397D01*
X115480219Y-103722946D01*
X115683586Y-103656869D01*
X115874112Y-103559791D01*
X116047107Y-103434103D01*
X116198309Y-103282901D01*
X116323997Y-103109906D01*
X116421075Y-102919380D01*
X116487152Y-102716013D01*
X116520603Y-102504813D01*
X116520603Y-102290981D01*
X116487152Y-102079781D01*
X116421075Y-101876414D01*
X116323997Y-101685888D01*
X116198309Y-101512893D01*
X116198306Y-101512890D01*
X116198304Y-101512887D01*
X116047112Y-101361695D01*
X116047109Y-101361693D01*
X116047107Y-101361691D01*
X115916884Y-101267079D01*
X115874115Y-101236005D01*
X115874114Y-101236004D01*
X115874112Y-101236003D01*
X115683586Y-101138925D01*
X115683583Y-101138924D01*
X115683581Y-101138923D01*
X115480223Y-101072849D01*
X115480226Y-101072849D01*
X115440904Y-101066621D01*
X115269019Y-101039397D01*
X115055187Y-101039397D01*
X114843987Y-101072848D01*
X114843981Y-101072849D01*
X114640624Y-101138923D01*
X114640618Y-101138926D01*
X114450090Y-101236005D01*
X114277096Y-101361693D01*
X114277093Y-101361695D01*
X114125901Y-101512887D01*
X114125899Y-101512890D01*
X114000211Y-101685884D01*
X113903132Y-101876412D01*
X113903129Y-101876418D01*
X113837055Y-102079775D01*
X113837054Y-102079780D01*
X113837054Y-102079781D01*
X113803603Y-102290981D01*
X113803603Y-102504813D01*
X113837054Y-102716013D01*
X113837057Y-102716031D01*
X113837359Y-102717288D01*
X113837334Y-102717779D01*
X113837829Y-102720902D01*
X113837172Y-102721005D01*
X113833801Y-102788195D01*
X113792472Y-102845922D01*
X113726494Y-102872141D01*
X113689089Y-102869465D01*
X113689056Y-102869675D01*
X113686620Y-102869289D01*
X113685442Y-102869205D01*
X113684185Y-102868903D01*
X113684167Y-102868900D01*
X113472967Y-102835449D01*
X113259135Y-102835449D01*
X113047935Y-102868900D01*
X113047929Y-102868901D01*
X112844572Y-102934975D01*
X112844566Y-102934978D01*
X112654038Y-103032057D01*
X112481044Y-103157745D01*
X112481041Y-103157747D01*
X112329849Y-103308939D01*
X112329847Y-103308942D01*
X112204159Y-103481936D01*
X112107080Y-103672464D01*
X112107077Y-103672470D01*
X112041003Y-103875827D01*
X112041002Y-103875832D01*
X112041002Y-103875833D01*
X112007551Y-104087033D01*
X112007551Y-104300865D01*
X112031486Y-104451986D01*
X112041004Y-104512079D01*
X112041306Y-104513334D01*
X112041281Y-104513824D01*
X112041777Y-104516954D01*
X112041119Y-104517058D01*
X112037751Y-104584242D01*
X111996424Y-104641970D01*
X111930447Y-104668192D01*
X111893038Y-104665516D01*
X111893005Y-104665726D01*
X111890563Y-104665339D01*
X111889385Y-104665255D01*
X111888130Y-104664953D01*
X111821827Y-104654451D01*
X111676916Y-104631500D01*
X111463084Y-104631500D01*
X111251884Y-104664951D01*
X111251878Y-104664952D01*
X111048521Y-104731026D01*
X111048515Y-104731029D01*
X110857987Y-104828108D01*
X110684993Y-104953796D01*
X110684990Y-104953798D01*
X110533798Y-105104990D01*
X110533796Y-105104993D01*
X110408108Y-105277987D01*
X110311029Y-105468515D01*
X110311026Y-105468521D01*
X110244952Y-105671878D01*
X110244952Y-105671881D01*
X110244951Y-105671884D01*
X110214181Y-105866162D01*
X110211500Y-105883087D01*
X110211500Y-106028715D01*
X110191498Y-106096836D01*
X110137842Y-106143329D01*
X110067568Y-106153433D01*
X110033158Y-106143329D01*
X109918683Y-106091050D01*
X109773949Y-106070241D01*
X109629214Y-106091050D01*
X109496205Y-106151793D01*
X109448780Y-106190010D01*
X109448761Y-106190027D01*
X108177925Y-107460863D01*
X108177908Y-107460882D01*
X108139691Y-107508307D01*
X108078948Y-107641316D01*
X108068847Y-107711576D01*
X108058139Y-107786051D01*
X105120289Y-107786051D01*
X105125567Y-107755553D01*
X105145337Y-107641317D01*
X105211244Y-107260495D01*
X105212442Y-107254457D01*
X105371329Y-106545035D01*
X105372805Y-106539125D01*
X105566230Y-105838310D01*
X105568001Y-105832454D01*
X105795499Y-105141928D01*
X105797548Y-105136190D01*
X106058560Y-104457652D01*
X106060886Y-104452020D01*
X106354801Y-103787061D01*
X106357411Y-103781527D01*
X106683513Y-103131762D01*
X106686385Y-103126371D01*
X107043893Y-102493355D01*
X107047055Y-102488065D01*
X107159501Y-102309930D01*
X107435112Y-101873311D01*
X107438490Y-101868239D01*
X107856176Y-101273210D01*
X107859839Y-101268255D01*
X107908508Y-101205675D01*
X108306153Y-100694372D01*
X108310002Y-100689665D01*
X108783889Y-100138293D01*
X108787970Y-100133774D01*
X109204207Y-99694898D01*
X109288244Y-99606290D01*
X109292597Y-99601919D01*
X109313979Y-99581478D01*
X109818086Y-99099553D01*
X109822605Y-99095440D01*
X110372068Y-98619383D01*
X110376787Y-98615492D01*
X110948879Y-98166907D01*
X110953780Y-98163255D01*
X111547148Y-97743204D01*
X111552256Y-97739774D01*
X112166702Y-97348484D01*
X112169259Y-97346898D01*
X112175138Y-97343354D01*
X112175138Y-97343353D01*
X115054239Y-95607447D01*
X115054285Y-95607430D01*
X115074426Y-95595277D01*
X115074429Y-95595278D01*
X115079480Y-95592230D01*
X115083585Y-95589860D01*
X115415046Y-95406977D01*
X115423719Y-95402621D01*
X115766064Y-95247013D01*
X115775086Y-95243327D01*
X116128418Y-95114726D01*
X116137690Y-95111752D01*
X116499951Y-95010910D01*
X116509444Y-95008660D01*
X116878412Y-94936193D01*
X116888029Y-94934688D01*
X117261514Y-94891027D01*
X117271246Y-94890271D01*
X117649219Y-94875594D01*
X117654108Y-94875499D01*
X129366650Y-94875499D01*
X129366654Y-94875500D01*
X129391715Y-94875500D01*
X129489718Y-94875500D01*
X129489720Y-94875500D01*
X129666433Y-94844340D01*
X129666438Y-94844338D01*
X129666439Y-94844338D01*
X129666440Y-94844338D01*
X129835043Y-94782972D01*
X129835045Y-94782970D01*
X129835050Y-94782969D01*
X129990449Y-94693249D01*
X130127908Y-94577908D01*
X130243249Y-94440449D01*
X130332969Y-94285050D01*
X130332972Y-94285043D01*
X130394338Y-94116440D01*
X130394338Y-94116439D01*
X130394338Y-94116438D01*
X130394340Y-94116433D01*
X130425500Y-93939720D01*
X130425500Y-93850000D01*
X130425500Y-93841715D01*
X130425500Y-69339438D01*
X130425500Y-69260280D01*
X130394340Y-69083567D01*
X130394338Y-69083562D01*
X130394338Y-69083560D01*
X130394338Y-69083559D01*
X130332972Y-68914956D01*
X130332966Y-68914945D01*
X130243251Y-68759553D01*
X130243249Y-68759551D01*
X130168174Y-68670080D01*
X130127908Y-68622092D01*
X129990449Y-68506751D01*
X129990448Y-68506750D01*
X129990446Y-68506748D01*
X129835054Y-68417033D01*
X129835043Y-68417027D01*
X129666439Y-68355661D01*
X129607521Y-68345272D01*
X129489720Y-68324500D01*
X129489718Y-68324500D01*
X117654282Y-68324500D01*
X117649397Y-68324405D01*
X117624180Y-68323426D01*
X117271246Y-68309728D01*
X117261505Y-68308971D01*
X116888045Y-68265319D01*
X116878391Y-68263809D01*
X116509445Y-68191350D01*
X116499938Y-68189097D01*
X116137711Y-68088266D01*
X116128407Y-68085283D01*
X115775077Y-67956686D01*
X115766031Y-67952990D01*
X115423736Y-67797403D01*
X115415019Y-67793026D01*
X115083938Y-67610351D01*
X115079815Y-67607972D01*
X115074429Y-67604722D01*
X115074424Y-67604722D01*
X115059701Y-67595845D01*
X115059700Y-67595844D01*
X115059699Y-67595844D01*
X115008557Y-67565009D01*
X113334523Y-66555678D01*
X112171211Y-65854278D01*
X112171200Y-65854266D01*
X112171199Y-65854270D01*
X112169327Y-65853141D01*
X112166718Y-65851524D01*
X111640879Y-65516658D01*
X111552266Y-65460227D01*
X111547148Y-65456789D01*
X111496632Y-65421028D01*
X110953805Y-65036752D01*
X110948895Y-65033092D01*
X110486598Y-64670596D01*
X110376808Y-64584507D01*
X110372049Y-64580583D01*
X109986934Y-64246916D01*
X109822617Y-64104550D01*
X109818097Y-64100436D01*
X109292610Y-63598068D01*
X109288272Y-63593713D01*
X108788006Y-63066233D01*
X108783872Y-63061654D01*
X108310049Y-62510353D01*
X108306144Y-62505578D01*
X108300742Y-62498632D01*
X107859858Y-61931729D01*
X107856197Y-61926776D01*
X107835232Y-61896910D01*
X107532636Y-61465831D01*
X107438534Y-61331774D01*
X107435115Y-61326640D01*
X107114987Y-60819499D01*
X107047078Y-60711918D01*
X107043917Y-60706628D01*
X107005537Y-60638671D01*
X106686423Y-60073633D01*
X106683527Y-60068198D01*
X106673545Y-60048308D01*
X106357436Y-59418454D01*
X106354827Y-59412919D01*
X106060925Y-58747987D01*
X106058590Y-58742333D01*
X105797584Y-58063813D01*
X105795526Y-58058049D01*
X105568037Y-57367549D01*
X105566255Y-57361657D01*
X105555577Y-57322967D01*
X105372840Y-56660876D01*
X105371359Y-56654947D01*
X105212473Y-55945531D01*
X105211274Y-55939485D01*
X105202959Y-55891440D01*
X105121369Y-55420000D01*
X108064190Y-55420000D01*
X108084999Y-55564734D01*
X108145742Y-55697743D01*
X108183962Y-55745172D01*
X108183967Y-55745177D01*
X108183976Y-55745187D01*
X109454812Y-57016023D01*
X109454821Y-57016031D01*
X109454828Y-57016038D01*
X109502257Y-57054258D01*
X109635266Y-57115001D01*
X109780000Y-57135810D01*
X109924734Y-57115001D01*
X110039210Y-57062721D01*
X110109482Y-57052617D01*
X110174063Y-57082110D01*
X110212447Y-57141836D01*
X110217551Y-57177335D01*
X110217551Y-57322967D01*
X110250976Y-57534003D01*
X110251003Y-57534172D01*
X110310082Y-57716000D01*
X110317079Y-57737534D01*
X110414157Y-57928060D01*
X110414159Y-57928063D01*
X110445233Y-57970832D01*
X110539845Y-58101055D01*
X110539847Y-58101057D01*
X110539849Y-58101060D01*
X110691041Y-58252252D01*
X110691044Y-58252254D01*
X110691047Y-58252257D01*
X110864042Y-58377945D01*
X111054568Y-58475023D01*
X111257929Y-58541098D01*
X111257930Y-58541098D01*
X111257935Y-58541100D01*
X111469135Y-58574551D01*
X111469138Y-58574551D01*
X111682964Y-58574551D01*
X111682967Y-58574551D01*
X111894167Y-58541100D01*
X111894187Y-58541093D01*
X111895417Y-58540799D01*
X111895908Y-58540823D01*
X111899056Y-58540325D01*
X111899160Y-58540986D01*
X111966325Y-58544344D01*
X112024060Y-58585662D01*
X112050292Y-58651635D01*
X112047618Y-58689063D01*
X112047828Y-58689097D01*
X112047442Y-58691533D01*
X112047358Y-58692711D01*
X112047056Y-58693967D01*
X112047053Y-58693986D01*
X112013602Y-58905186D01*
X112013602Y-59119018D01*
X112037653Y-59270869D01*
X112047054Y-59330223D01*
X112096980Y-59483880D01*
X112113130Y-59533585D01*
X112210208Y-59724111D01*
X112335896Y-59897106D01*
X112335898Y-59897108D01*
X112335900Y-59897111D01*
X112487092Y-60048303D01*
X112487095Y-60048305D01*
X112487098Y-60048308D01*
X112660093Y-60173996D01*
X112850619Y-60271074D01*
X113053980Y-60337149D01*
X113053981Y-60337149D01*
X113053986Y-60337151D01*
X113265186Y-60370602D01*
X113265189Y-60370602D01*
X113479015Y-60370602D01*
X113479018Y-60370602D01*
X113690218Y-60337151D01*
X113690235Y-60337145D01*
X113691474Y-60336849D01*
X113691965Y-60336873D01*
X113695107Y-60336376D01*
X113695211Y-60337036D01*
X113762382Y-60340397D01*
X113820115Y-60381716D01*
X113846345Y-60447690D01*
X113843671Y-60485115D01*
X113843880Y-60485149D01*
X113843495Y-60487577D01*
X113843411Y-60488758D01*
X113843108Y-60490017D01*
X113840926Y-60503796D01*
X113809654Y-60701238D01*
X113809654Y-60915070D01*
X113831234Y-61051318D01*
X113843106Y-61126275D01*
X113909180Y-61329632D01*
X113909182Y-61329637D01*
X114006260Y-61520163D01*
X114131948Y-61693158D01*
X114131950Y-61693160D01*
X114131952Y-61693163D01*
X114283144Y-61844355D01*
X114283147Y-61844357D01*
X114283150Y-61844360D01*
X114456145Y-61970048D01*
X114646671Y-62067126D01*
X114850032Y-62133201D01*
X114850033Y-62133201D01*
X114850038Y-62133203D01*
X115061238Y-62166654D01*
X115061241Y-62166654D01*
X115275067Y-62166654D01*
X115275070Y-62166654D01*
X115486270Y-62133203D01*
X115689637Y-62067126D01*
X115880163Y-61970048D01*
X116053158Y-61844360D01*
X116204360Y-61693158D01*
X116330048Y-61520163D01*
X116427126Y-61329637D01*
X116493203Y-61126270D01*
X116526654Y-60915070D01*
X116526654Y-60701238D01*
X116493203Y-60490038D01*
X116427126Y-60286671D01*
X116330048Y-60096145D01*
X116204360Y-59923150D01*
X116204357Y-59923147D01*
X116204355Y-59923144D01*
X116053163Y-59771952D01*
X116053160Y-59771950D01*
X116053158Y-59771948D01*
X115922935Y-59677336D01*
X115880166Y-59646262D01*
X115880165Y-59646261D01*
X115880163Y-59646260D01*
X115689637Y-59549182D01*
X115689634Y-59549181D01*
X115689632Y-59549180D01*
X115486274Y-59483106D01*
X115486277Y-59483106D01*
X115446955Y-59476878D01*
X115275070Y-59449654D01*
X115061238Y-59449654D01*
X114935981Y-59469492D01*
X114850017Y-59483108D01*
X114848758Y-59483411D01*
X114848266Y-59483386D01*
X114845149Y-59483880D01*
X114845045Y-59483224D01*
X114777850Y-59479850D01*
X114720125Y-59438519D01*
X114693908Y-59372541D01*
X114696586Y-59335140D01*
X114696376Y-59335107D01*
X114696764Y-59332654D01*
X114696849Y-59331474D01*
X114697145Y-59330235D01*
X114697151Y-59330218D01*
X114730602Y-59119018D01*
X114730602Y-58905186D01*
X114697151Y-58693986D01*
X114631074Y-58490619D01*
X114533996Y-58300093D01*
X114408308Y-58127098D01*
X114408305Y-58127095D01*
X114408303Y-58127092D01*
X114257111Y-57975900D01*
X114257108Y-57975898D01*
X114257106Y-57975896D01*
X114084111Y-57850208D01*
X113893585Y-57753130D01*
X113893582Y-57753129D01*
X113893580Y-57753128D01*
X113690222Y-57687054D01*
X113690225Y-57687054D01*
X113650903Y-57680826D01*
X113479018Y-57653602D01*
X113265186Y-57653602D01*
X113086363Y-57681925D01*
X113053967Y-57687056D01*
X113052711Y-57687358D01*
X113052219Y-57687333D01*
X113049097Y-57687828D01*
X113048993Y-57687171D01*
X113019231Y-57685678D01*
X112985700Y-57685089D01*
X112983929Y-57683906D01*
X112981804Y-57683800D01*
X112954554Y-57664291D01*
X112926657Y-57645662D01*
X112925806Y-57643709D01*
X112924077Y-57642471D01*
X112911702Y-57611330D01*
X112898304Y-57580573D01*
X112898447Y-57577976D01*
X112897858Y-57576493D01*
X112898934Y-57544715D01*
X112900184Y-57536985D01*
X112901100Y-57534167D01*
X112934551Y-57322967D01*
X112934551Y-57109135D01*
X112901100Y-56897935D01*
X112835023Y-56694568D01*
X112737945Y-56504042D01*
X112612257Y-56331047D01*
X112612254Y-56331044D01*
X112612252Y-56331041D01*
X112461060Y-56179849D01*
X112461057Y-56179847D01*
X112461055Y-56179845D01*
X112288582Y-56054536D01*
X112288063Y-56054159D01*
X112288062Y-56054158D01*
X112288060Y-56054157D01*
X112097534Y-55957079D01*
X112097531Y-55957078D01*
X112097529Y-55957077D01*
X111894171Y-55891003D01*
X111894174Y-55891003D01*
X111854852Y-55884775D01*
X111682967Y-55857551D01*
X111537336Y-55857551D01*
X111469215Y-55837549D01*
X111422722Y-55783893D01*
X111412618Y-55713619D01*
X111422722Y-55679209D01*
X111475001Y-55564734D01*
X111495810Y-55420000D01*
X111475001Y-55275266D01*
X111414258Y-55142257D01*
X111376038Y-55094828D01*
X111376031Y-55094821D01*
X111376023Y-55094812D01*
X110105187Y-53823976D01*
X110105177Y-53823967D01*
X110105172Y-53823962D01*
X110057743Y-53785742D01*
X109924734Y-53724999D01*
X109780000Y-53704190D01*
X109635265Y-53724999D01*
X109502256Y-53785742D01*
X109454831Y-53823959D01*
X109454812Y-53823976D01*
X108183976Y-55094812D01*
X108183959Y-55094831D01*
X108145742Y-55142256D01*
X108111567Y-55217091D01*
X108084999Y-55275266D01*
X108064190Y-55420000D01*
X105121369Y-55420000D01*
X105087304Y-55223168D01*
X105086408Y-55217113D01*
X104997643Y-54495568D01*
X104997041Y-54489432D01*
X104967146Y-54083108D01*
X104943698Y-53764425D01*
X104943399Y-53758308D01*
X104929496Y-53190453D01*
X104925538Y-53028777D01*
X104925500Y-53025693D01*
X104925500Y-42663055D01*
X111388100Y-42663055D01*
X111388100Y-42876944D01*
X111421562Y-43088215D01*
X111487656Y-43291632D01*
X111487661Y-43291644D01*
X111584762Y-43482217D01*
X111622974Y-43534812D01*
X111622975Y-43534812D01*
X112183722Y-42974065D01*
X112190777Y-43000395D01*
X112269361Y-43136505D01*
X112380495Y-43247639D01*
X112516605Y-43326223D01*
X112542931Y-43333277D01*
X111982186Y-43894022D01*
X111982186Y-43894023D01*
X112034779Y-43932234D01*
X112225361Y-44029340D01*
X112225367Y-44029343D01*
X112428786Y-44095437D01*
X112428782Y-44095437D01*
X112640055Y-44128900D01*
X112853945Y-44128900D01*
X113065215Y-44095437D01*
X113268632Y-44029343D01*
X113268638Y-44029340D01*
X113459218Y-43932235D01*
X113511812Y-43894023D01*
X112951067Y-43333277D01*
X112977395Y-43326223D01*
X113113505Y-43247639D01*
X113224639Y-43136505D01*
X113303223Y-43000395D01*
X113310277Y-42974066D01*
X113871023Y-43534812D01*
X113909235Y-43482218D01*
X114006340Y-43291638D01*
X114006343Y-43291632D01*
X114072437Y-43088215D01*
X114105900Y-42876944D01*
X114105900Y-42663055D01*
X114072437Y-42451784D01*
X114006343Y-42248367D01*
X114006340Y-42248361D01*
X113909234Y-42057779D01*
X113871023Y-42005186D01*
X113871022Y-42005186D01*
X113310277Y-42565931D01*
X113303223Y-42539605D01*
X113224639Y-42403495D01*
X113113505Y-42292361D01*
X112977395Y-42213777D01*
X112951066Y-42206722D01*
X113511812Y-41645975D01*
X113511812Y-41645974D01*
X113459217Y-41607762D01*
X113268644Y-41510661D01*
X113268632Y-41510656D01*
X113065213Y-41444562D01*
X113065217Y-41444562D01*
X112853945Y-41411100D01*
X112640055Y-41411100D01*
X112428784Y-41444562D01*
X112225367Y-41510656D01*
X112225355Y-41510661D01*
X112034788Y-41607759D01*
X112034776Y-41607767D01*
X111982185Y-41645975D01*
X112542932Y-42206722D01*
X112516605Y-42213777D01*
X112380495Y-42292361D01*
X112269361Y-42403495D01*
X112190777Y-42539605D01*
X112183722Y-42565932D01*
X111622975Y-42005185D01*
X111584767Y-42057776D01*
X111584759Y-42057788D01*
X111487661Y-42248355D01*
X111487656Y-42248367D01*
X111421562Y-42451784D01*
X111388100Y-42663055D01*
X104925500Y-42663055D01*
X104925500Y-37583015D01*
X111387600Y-37583015D01*
X111387600Y-37796984D01*
X111421072Y-38008329D01*
X111448464Y-38092631D01*
X111487194Y-38211829D01*
X111584336Y-38402481D01*
X111710107Y-38575590D01*
X111710109Y-38575592D01*
X111710111Y-38575595D01*
X111861404Y-38726888D01*
X111861407Y-38726890D01*
X111861410Y-38726893D01*
X112034519Y-38852664D01*
X112225171Y-38949806D01*
X112428673Y-39015928D01*
X112640013Y-39049400D01*
X112640015Y-39049400D01*
X112853985Y-39049400D01*
X112853987Y-39049400D01*
X113065327Y-39015928D01*
X113076191Y-39012397D01*
X113147156Y-39010365D01*
X113204229Y-39043133D01*
X115013464Y-40852368D01*
X115047490Y-40914680D01*
X115042425Y-40985495D01*
X115033492Y-41004456D01*
X115024377Y-41020245D01*
X115024370Y-41020258D01*
X114973071Y-41144105D01*
X114938999Y-41271261D01*
X114938996Y-41271274D01*
X114921500Y-41404171D01*
X114921500Y-41404174D01*
X114921500Y-42020000D01*
X114926727Y-42093078D01*
X114929678Y-42103130D01*
X114931031Y-42152659D01*
X114933853Y-42152963D01*
X114926500Y-42221350D01*
X114926500Y-43318649D01*
X114933853Y-43387037D01*
X114933309Y-43387095D01*
X114935039Y-43425825D01*
X114921500Y-43520002D01*
X114921500Y-44135828D01*
X114938996Y-44268727D01*
X114952157Y-44317844D01*
X114950467Y-44388821D01*
X114919545Y-44439549D01*
X112905401Y-46453695D01*
X112843089Y-46487720D01*
X112816306Y-46490600D01*
X111847450Y-46490600D01*
X111786903Y-46497109D01*
X111786895Y-46497111D01*
X111649897Y-46548210D01*
X111649892Y-46548212D01*
X111532838Y-46635838D01*
X111445212Y-46752892D01*
X111445210Y-46752897D01*
X111394111Y-46889895D01*
X111394109Y-46889903D01*
X111387600Y-46950450D01*
X111387600Y-48749549D01*
X111394109Y-48810096D01*
X111394111Y-48810104D01*
X111445210Y-48947102D01*
X111445212Y-48947107D01*
X111532838Y-49064161D01*
X111649892Y-49151787D01*
X111649894Y-49151788D01*
X111649896Y-49151789D01*
X111708975Y-49173824D01*
X111786895Y-49202888D01*
X111786903Y-49202890D01*
X111847450Y-49209399D01*
X111847455Y-49209399D01*
X111847462Y-49209400D01*
X111847468Y-49209400D01*
X113646532Y-49209400D01*
X113646538Y-49209400D01*
X113646545Y-49209399D01*
X113646549Y-49209399D01*
X113707096Y-49202890D01*
X113707099Y-49202889D01*
X113707101Y-49202889D01*
X113844104Y-49151789D01*
X113961161Y-49064161D01*
X114048789Y-48947104D01*
X114099889Y-48810101D01*
X114106400Y-48749538D01*
X114106400Y-47096694D01*
X114126402Y-47028573D01*
X114143305Y-47007599D01*
X116030499Y-45120405D01*
X116092811Y-45086379D01*
X116119594Y-45083500D01*
X116500819Y-45083500D01*
X116500826Y-45083500D01*
X116620941Y-45067685D01*
X116633725Y-45066003D01*
X116633725Y-45066002D01*
X116633732Y-45066002D01*
X116760899Y-45031927D01*
X116884743Y-44980629D01*
X116998757Y-44914803D01*
X117105106Y-44833198D01*
X117198198Y-44740106D01*
X117279803Y-44633757D01*
X117345629Y-44519743D01*
X117396927Y-44395899D01*
X117431002Y-44268732D01*
X117439164Y-44206733D01*
X117445000Y-44193541D01*
X117446030Y-44179148D01*
X117459078Y-44161717D01*
X117467886Y-44141807D01*
X117479930Y-44133861D01*
X117488577Y-44122312D01*
X117508974Y-44114704D01*
X117527150Y-44102715D01*
X117541578Y-44102543D01*
X117555097Y-44097501D01*
X117576372Y-44102129D01*
X117598142Y-44101870D01*
X117611722Y-44109818D01*
X117624471Y-44112592D01*
X117653181Y-44134085D01*
X117829595Y-44310499D01*
X117863621Y-44372811D01*
X117866500Y-44399594D01*
X117866500Y-55732000D01*
X117846498Y-55800121D01*
X117792842Y-55846614D01*
X117740500Y-55858000D01*
X117462000Y-55858000D01*
X117462000Y-56785297D01*
X117400993Y-56750075D01*
X117273826Y-56716000D01*
X117142174Y-56716000D01*
X117015007Y-56750075D01*
X116954000Y-56785297D01*
X116954000Y-55858000D01*
X116309402Y-55858000D01*
X116248906Y-55864505D01*
X116112035Y-55915555D01*
X116112034Y-55915555D01*
X115995095Y-56003095D01*
X115907555Y-56120034D01*
X115907555Y-56120035D01*
X115856505Y-56256906D01*
X115850000Y-56317402D01*
X115850000Y-56962000D01*
X116777297Y-56962000D01*
X116742075Y-57023007D01*
X116708000Y-57150174D01*
X116708000Y-57281826D01*
X116742075Y-57408993D01*
X116777297Y-57470000D01*
X115850000Y-57470000D01*
X115850000Y-58114597D01*
X115856505Y-58175093D01*
X115907555Y-58311964D01*
X115907555Y-58311965D01*
X115995095Y-58428904D01*
X116112034Y-58516444D01*
X116248906Y-58567494D01*
X116309402Y-58573999D01*
X116309415Y-58574000D01*
X116954000Y-58574000D01*
X116954000Y-57646702D01*
X117015007Y-57681925D01*
X117142174Y-57716000D01*
X117273826Y-57716000D01*
X117400993Y-57681925D01*
X117462000Y-57646702D01*
X117462000Y-58574000D01*
X118106585Y-58574000D01*
X118106586Y-58573999D01*
X118111204Y-58573503D01*
X118181074Y-58586102D01*
X118213781Y-58609685D01*
X119107929Y-59503833D01*
X119196167Y-59592071D01*
X119299925Y-59661400D01*
X119415215Y-59709155D01*
X119537606Y-59733500D01*
X130835406Y-59733500D01*
X130903527Y-59753502D01*
X130924501Y-59770405D01*
X131180501Y-60026405D01*
X131214527Y-60088717D01*
X131209462Y-60159532D01*
X131166915Y-60216368D01*
X131100395Y-60241179D01*
X131091406Y-60241500D01*
X129501350Y-60241500D01*
X129440803Y-60248009D01*
X129440795Y-60248011D01*
X129303797Y-60299110D01*
X129303792Y-60299112D01*
X129186738Y-60386738D01*
X129099112Y-60503792D01*
X129099110Y-60503797D01*
X129048011Y-60640795D01*
X129048009Y-60640803D01*
X129041500Y-60701350D01*
X129041500Y-62498649D01*
X129048009Y-62559196D01*
X129048011Y-62559204D01*
X129099110Y-62696202D01*
X129099112Y-62696207D01*
X129186738Y-62813261D01*
X129303791Y-62900886D01*
X129303792Y-62900886D01*
X129303796Y-62900889D01*
X129421711Y-62944869D01*
X129478543Y-62987414D01*
X129503354Y-63053934D01*
X129488263Y-63123308D01*
X129466771Y-63152018D01*
X129363794Y-63254995D01*
X129238108Y-63427987D01*
X129141029Y-63618515D01*
X129141026Y-63618521D01*
X129074952Y-63821878D01*
X129074951Y-63821883D01*
X129074951Y-63821884D01*
X129041500Y-64033084D01*
X129041500Y-64246916D01*
X129074537Y-64455501D01*
X129074952Y-64458121D01*
X129141026Y-64661478D01*
X129141028Y-64661483D01*
X129214546Y-64805769D01*
X129238108Y-64852012D01*
X129241021Y-64856021D01*
X129363794Y-65025004D01*
X129363796Y-65025006D01*
X129363798Y-65025009D01*
X129514990Y-65176201D01*
X129514993Y-65176203D01*
X129514996Y-65176206D01*
X129687991Y-65301894D01*
X129687996Y-65301896D01*
X129689088Y-65302566D01*
X129689418Y-65302931D01*
X129691996Y-65304804D01*
X129691602Y-65305345D01*
X129736721Y-65355213D01*
X129748328Y-65425255D01*
X129720226Y-65490453D01*
X129691870Y-65515023D01*
X129691996Y-65515196D01*
X129689982Y-65516658D01*
X129689088Y-65517434D01*
X129687987Y-65518108D01*
X129514993Y-65643796D01*
X129514990Y-65643798D01*
X129363798Y-65794990D01*
X129363796Y-65794993D01*
X129238108Y-65967987D01*
X129141029Y-66158515D01*
X129141026Y-66158521D01*
X129074952Y-66361878D01*
X129074951Y-66361883D01*
X129074951Y-66361884D01*
X129041500Y-66573084D01*
X129041500Y-66786916D01*
X129068469Y-66957189D01*
X129074952Y-66998121D01*
X129109586Y-67104714D01*
X129141028Y-67201483D01*
X129238106Y-67392009D01*
X129363794Y-67565004D01*
X129363796Y-67565006D01*
X129363798Y-67565009D01*
X129514990Y-67716201D01*
X129514993Y-67716203D01*
X129514996Y-67716206D01*
X129687991Y-67841894D01*
X129878517Y-67938972D01*
X130081878Y-68005047D01*
X130081879Y-68005047D01*
X130081884Y-68005049D01*
X130293084Y-68038500D01*
X130293087Y-68038500D01*
X130506913Y-68038500D01*
X130506916Y-68038500D01*
X130718116Y-68005049D01*
X130921483Y-67938972D01*
X131112009Y-67841894D01*
X131285004Y-67716206D01*
X131436206Y-67565004D01*
X131490380Y-67490438D01*
X131494783Y-67487043D01*
X131497092Y-67481988D01*
X131522589Y-67465601D01*
X131546602Y-67447085D01*
X131553383Y-67445811D01*
X131556818Y-67443604D01*
X131592316Y-67438500D01*
X131765500Y-67438500D01*
X131833621Y-67458502D01*
X131880114Y-67512158D01*
X131891500Y-67564500D01*
X131891500Y-73674706D01*
X131902777Y-73731400D01*
X131920649Y-73821247D01*
X131977826Y-73959284D01*
X132060834Y-74083515D01*
X132060838Y-74083519D01*
X136854595Y-78877276D01*
X136888621Y-78939588D01*
X136891500Y-78966371D01*
X136891500Y-80674629D01*
X136871498Y-80742750D01*
X136817842Y-80789243D01*
X136747568Y-80799347D01*
X136682988Y-80769853D01*
X136676405Y-80763724D01*
X134029435Y-78116754D01*
X133995409Y-78054442D01*
X133994081Y-78007949D01*
X134008500Y-77916916D01*
X134008500Y-77703084D01*
X133975049Y-77491884D01*
X133908972Y-77288517D01*
X133811894Y-77097991D01*
X133686206Y-76924996D01*
X133686203Y-76924993D01*
X133686201Y-76924990D01*
X133535009Y-76773798D01*
X133535006Y-76773796D01*
X133535004Y-76773794D01*
X133362009Y-76648106D01*
X133171483Y-76551028D01*
X133171480Y-76551027D01*
X133171478Y-76551026D01*
X132968120Y-76484952D01*
X132968123Y-76484952D01*
X132914216Y-76476414D01*
X132756916Y-76451500D01*
X132543084Y-76451500D01*
X132331884Y-76484951D01*
X132331878Y-76484952D01*
X132128521Y-76551026D01*
X132128515Y-76551029D01*
X131937987Y-76648108D01*
X131764993Y-76773796D01*
X131764990Y-76773798D01*
X131613798Y-76924990D01*
X131613796Y-76924993D01*
X131488108Y-77097987D01*
X131391029Y-77288515D01*
X131391026Y-77288521D01*
X131324952Y-77491878D01*
X131324951Y-77491883D01*
X131324951Y-77491884D01*
X131291500Y-77703084D01*
X131291500Y-77916916D01*
X131324951Y-78128116D01*
X131324952Y-78128121D01*
X131391026Y-78331478D01*
X131391028Y-78331483D01*
X131488106Y-78522009D01*
X131613794Y-78695004D01*
X131613796Y-78695006D01*
X131613798Y-78695009D01*
X131716770Y-78797981D01*
X131750796Y-78860293D01*
X131745731Y-78931108D01*
X131703184Y-78987944D01*
X131671708Y-79005131D01*
X131553797Y-79049110D01*
X131553792Y-79049112D01*
X131436738Y-79136738D01*
X131349112Y-79253792D01*
X131349110Y-79253797D01*
X131298011Y-79390795D01*
X131298009Y-79390803D01*
X131291500Y-79451350D01*
X131291500Y-81248649D01*
X131298009Y-81309196D01*
X131298011Y-81309204D01*
X131349110Y-81446202D01*
X131349112Y-81446207D01*
X131436738Y-81563261D01*
X131553792Y-81650887D01*
X131553794Y-81650888D01*
X131553796Y-81650889D01*
X131606796Y-81670657D01*
X131690795Y-81701988D01*
X131690803Y-81701990D01*
X131751350Y-81708499D01*
X131751355Y-81708499D01*
X131751362Y-81708500D01*
X132883629Y-81708500D01*
X132951750Y-81728502D01*
X132972724Y-81745405D01*
X133394255Y-82166936D01*
X133428281Y-82229248D01*
X133423216Y-82300063D01*
X133380669Y-82356899D01*
X133314149Y-82381710D01*
X133280578Y-82379610D01*
X133239481Y-82371435D01*
X133239479Y-82371435D01*
X133060521Y-82371435D01*
X133060518Y-82371435D01*
X132929771Y-82397442D01*
X132885000Y-82406348D01*
X132884999Y-82406348D01*
X132884996Y-82406349D01*
X132719662Y-82474834D01*
X132570869Y-82574254D01*
X132570862Y-82574259D01*
X132444324Y-82700797D01*
X132444319Y-82700804D01*
X132344899Y-82849597D01*
X132276414Y-83014931D01*
X132241500Y-83190453D01*
X132241500Y-83369416D01*
X132245852Y-83391292D01*
X132265457Y-83489855D01*
X132265459Y-83527449D01*
X132267107Y-83527612D01*
X132266500Y-83533776D01*
X132266500Y-93705405D01*
X132246498Y-93773526D01*
X132229595Y-93794500D01*
X130856513Y-95167581D01*
X130794201Y-95201607D01*
X130728481Y-95198319D01*
X130718116Y-95194951D01*
X130506916Y-95161500D01*
X130293084Y-95161500D01*
X130081884Y-95194951D01*
X130081878Y-95194952D01*
X129878521Y-95261026D01*
X129878515Y-95261029D01*
X129687987Y-95358108D01*
X129514993Y-95483796D01*
X129514990Y-95483798D01*
X129363798Y-95634990D01*
X129363796Y-95634993D01*
X129238108Y-95807987D01*
X129141029Y-95998515D01*
X129141026Y-95998521D01*
X129074952Y-96201878D01*
X129074952Y-96201881D01*
X129074951Y-96201884D01*
X129041500Y-96413084D01*
X129041500Y-96626916D01*
X129069466Y-96803485D01*
X129074952Y-96838121D01*
X129134329Y-97020865D01*
X129141028Y-97041483D01*
X129238106Y-97232009D01*
X129363794Y-97405004D01*
X129363796Y-97405006D01*
X129363798Y-97405009D01*
X129514990Y-97556201D01*
X129514993Y-97556203D01*
X129514996Y-97556206D01*
X129687991Y-97681894D01*
X129687996Y-97681896D01*
X129689088Y-97682566D01*
X129689418Y-97682931D01*
X129691996Y-97684804D01*
X129691602Y-97685345D01*
X129736721Y-97735213D01*
X129748328Y-97805255D01*
X129720226Y-97870453D01*
X129691870Y-97895023D01*
X129691996Y-97895196D01*
X129689982Y-97896658D01*
X129689088Y-97897434D01*
X129687987Y-97898108D01*
X129514993Y-98023796D01*
X129514990Y-98023798D01*
X129363798Y-98174990D01*
X129363796Y-98174993D01*
X129238108Y-98347987D01*
X129141029Y-98538515D01*
X129141026Y-98538521D01*
X129074952Y-98741878D01*
X129074952Y-98741881D01*
X129074951Y-98741884D01*
X129041500Y-98953084D01*
X129041500Y-99166916D01*
X129063746Y-99307368D01*
X129074952Y-99378121D01*
X129141026Y-99581478D01*
X129141028Y-99581483D01*
X129238106Y-99772009D01*
X129363794Y-99945004D01*
X129363796Y-99945006D01*
X129363798Y-99945009D01*
X129467159Y-100048370D01*
X129501185Y-100110682D01*
X129496120Y-100181497D01*
X129453573Y-100238333D01*
X129422097Y-100255521D01*
X129304033Y-100299556D01*
X129187095Y-100387095D01*
X129099555Y-100504034D01*
X129099555Y-100504035D01*
X129048505Y-100640906D01*
X129042000Y-100701402D01*
X129042000Y-101346000D01*
X129969297Y-101346000D01*
X129934075Y-101407007D01*
X129900000Y-101534174D01*
X129900000Y-101665826D01*
X129934075Y-101792993D01*
X129969297Y-101854000D01*
X129042000Y-101854000D01*
X129042000Y-102498597D01*
X129048505Y-102559093D01*
X129099555Y-102695964D01*
X129099555Y-102695965D01*
X129187095Y-102812904D01*
X129304034Y-102900444D01*
X129440906Y-102951494D01*
X129501402Y-102957999D01*
X129501415Y-102958000D01*
X130146000Y-102958000D01*
X130146000Y-102030702D01*
X130207007Y-102065925D01*
X130334174Y-102100000D01*
X130465826Y-102100000D01*
X130592993Y-102065925D01*
X130654000Y-102030702D01*
X130654000Y-102958000D01*
X131298585Y-102958000D01*
X131298597Y-102957999D01*
X131359093Y-102951494D01*
X131495964Y-102900444D01*
X131495965Y-102900444D01*
X131612904Y-102812904D01*
X131700444Y-102695965D01*
X131700444Y-102695964D01*
X131751494Y-102559093D01*
X131757999Y-102498597D01*
X131758000Y-102498585D01*
X131758000Y-101854000D01*
X130830703Y-101854000D01*
X130865925Y-101792993D01*
X130900000Y-101665826D01*
X130900000Y-101534174D01*
X130865925Y-101407007D01*
X130830703Y-101346000D01*
X131758000Y-101346000D01*
X131758000Y-100701414D01*
X131757999Y-100701402D01*
X131751494Y-100640906D01*
X131700444Y-100504035D01*
X131700444Y-100504034D01*
X131612904Y-100387095D01*
X131495965Y-100299555D01*
X131377903Y-100255521D01*
X131321067Y-100212974D01*
X131296256Y-100146454D01*
X131311347Y-100077080D01*
X131332837Y-100048372D01*
X131436206Y-99945004D01*
X131561894Y-99772009D01*
X131658972Y-99581483D01*
X131725049Y-99378116D01*
X131758500Y-99166916D01*
X131758500Y-98953084D01*
X131725049Y-98741884D01*
X131721679Y-98731515D01*
X131719652Y-98660549D01*
X131752416Y-98603486D01*
X133014942Y-97340961D01*
X133077253Y-97306936D01*
X133148069Y-97312001D01*
X133204904Y-97354548D01*
X133229715Y-97421068D01*
X133227615Y-97454638D01*
X133216500Y-97510515D01*
X133216500Y-97689481D01*
X133251414Y-97865003D01*
X133263849Y-97895023D01*
X133319898Y-98030336D01*
X133419322Y-98179135D01*
X133545865Y-98305678D01*
X133694664Y-98405102D01*
X133860000Y-98473587D01*
X134035521Y-98508500D01*
X134035522Y-98508500D01*
X134140500Y-98508500D01*
X134208621Y-98528502D01*
X134255114Y-98582158D01*
X134266500Y-98634500D01*
X134266500Y-100062396D01*
X134276105Y-100110682D01*
X134290845Y-100184785D01*
X134338600Y-100300075D01*
X134407929Y-100403833D01*
X134407931Y-100403835D01*
X134454595Y-100450499D01*
X134488621Y-100512811D01*
X134491500Y-100539594D01*
X134491500Y-100589479D01*
X134526413Y-100765000D01*
X134594898Y-100930336D01*
X134694322Y-101079135D01*
X134820865Y-101205678D01*
X134969664Y-101305102D01*
X135135000Y-101373587D01*
X135310521Y-101408500D01*
X135310522Y-101408500D01*
X135489478Y-101408500D01*
X135489479Y-101408500D01*
X135665000Y-101373587D01*
X135830336Y-101305102D01*
X135979135Y-101205678D01*
X136105678Y-101079135D01*
X136205102Y-100930336D01*
X136273587Y-100765000D01*
X136308500Y-100589479D01*
X136308500Y-100410521D01*
X136273587Y-100235000D01*
X136205102Y-100069664D01*
X136105678Y-99920865D01*
X135979135Y-99794322D01*
X135830336Y-99694898D01*
X135665000Y-99626413D01*
X135664998Y-99626412D01*
X135664994Y-99626411D01*
X135634916Y-99620428D01*
X135572007Y-99587520D01*
X135536877Y-99525824D01*
X135533500Y-99496850D01*
X135533500Y-97216591D01*
X135533499Y-97216587D01*
X135528509Y-97191500D01*
X135509155Y-97094199D01*
X135461400Y-96978909D01*
X135392071Y-96875151D01*
X135320405Y-96803485D01*
X135286379Y-96741173D01*
X135283500Y-96714390D01*
X135283500Y-92664594D01*
X135303502Y-92596473D01*
X135320405Y-92575499D01*
X136875499Y-91020405D01*
X136937811Y-90986379D01*
X136964594Y-90983500D01*
X139301611Y-90983500D01*
X139301612Y-90983500D01*
X139424003Y-90959155D01*
X139539293Y-90911400D01*
X139643051Y-90842071D01*
X140083780Y-90401341D01*
X140146089Y-90367319D01*
X140216904Y-90372383D01*
X140230074Y-90378172D01*
X140275552Y-90401344D01*
X140297710Y-90412634D01*
X140493592Y-90476280D01*
X140697019Y-90508500D01*
X140697022Y-90508500D01*
X140902978Y-90508500D01*
X140902981Y-90508500D01*
X141106408Y-90476280D01*
X141106411Y-90476278D01*
X141106853Y-90476209D01*
X141177264Y-90485309D01*
X141215659Y-90511563D01*
X143688211Y-92984115D01*
X143722237Y-93046427D01*
X143717369Y-93114477D01*
X143717705Y-93114579D01*
X143717256Y-93116056D01*
X143717172Y-93117242D01*
X143715973Y-93120288D01*
X143715906Y-93120508D01*
X143680993Y-93296027D01*
X143680993Y-93296030D01*
X143680993Y-93474988D01*
X143715906Y-93650509D01*
X143784391Y-93815845D01*
X143883815Y-93964644D01*
X144010358Y-94091187D01*
X144159157Y-94190611D01*
X144324493Y-94259096D01*
X144500014Y-94294009D01*
X144500015Y-94294009D01*
X144678971Y-94294009D01*
X144678972Y-94294009D01*
X144854493Y-94259096D01*
X145019829Y-94190611D01*
X145168628Y-94091187D01*
X145295171Y-93964644D01*
X145394595Y-93815845D01*
X145463080Y-93650509D01*
X145497993Y-93474988D01*
X145497993Y-93296030D01*
X145463080Y-93120509D01*
X145394595Y-92955173D01*
X145295171Y-92806374D01*
X145168628Y-92679831D01*
X145145852Y-92664612D01*
X145121296Y-92643121D01*
X145115752Y-92636825D01*
X145081564Y-92585660D01*
X144993326Y-92497422D01*
X143219499Y-90723595D01*
X143185473Y-90661283D01*
X143190538Y-90590468D01*
X143233085Y-90533632D01*
X143299605Y-90508821D01*
X143308594Y-90508500D01*
X143442978Y-90508500D01*
X143442981Y-90508500D01*
X143646408Y-90476280D01*
X143842290Y-90412634D01*
X144025803Y-90319129D01*
X144192430Y-90198068D01*
X144338068Y-90052430D01*
X144459129Y-89885803D01*
X144497734Y-89810034D01*
X144546481Y-89758422D01*
X144615396Y-89741356D01*
X144682598Y-89764257D01*
X144722264Y-89810034D01*
X144760871Y-89885803D01*
X144881932Y-90052430D01*
X144881934Y-90052432D01*
X144881936Y-90052435D01*
X145027564Y-90198063D01*
X145027567Y-90198065D01*
X145027570Y-90198068D01*
X145194197Y-90319129D01*
X145377710Y-90412634D01*
X145573592Y-90476280D01*
X145777019Y-90508500D01*
X145777022Y-90508500D01*
X145982978Y-90508500D01*
X145982981Y-90508500D01*
X146186408Y-90476280D01*
X146351565Y-90422616D01*
X146422531Y-90420589D01*
X146483329Y-90457252D01*
X146514654Y-90520964D01*
X146516500Y-90542450D01*
X146516500Y-97287606D01*
X146516500Y-97412394D01*
X146540845Y-97534785D01*
X146588600Y-97650075D01*
X146657929Y-97753833D01*
X146657931Y-97753835D01*
X147454595Y-98550499D01*
X147488621Y-98612811D01*
X147491500Y-98639594D01*
X147491500Y-98689481D01*
X147526414Y-98865003D01*
X147543183Y-98905486D01*
X147594898Y-99030336D01*
X147694322Y-99179135D01*
X147820865Y-99305678D01*
X147969664Y-99405102D01*
X148135000Y-99473587D01*
X148310521Y-99508500D01*
X148310522Y-99508500D01*
X148489478Y-99508500D01*
X148489479Y-99508500D01*
X148665000Y-99473587D01*
X148830336Y-99405102D01*
X148979135Y-99305678D01*
X149105678Y-99179135D01*
X149205102Y-99030336D01*
X149273587Y-98865000D01*
X149308500Y-98689479D01*
X149308500Y-98510521D01*
X149273587Y-98335000D01*
X149205102Y-98169664D01*
X149105678Y-98020865D01*
X148979135Y-97894322D01*
X148830336Y-97794898D01*
X148713429Y-97746473D01*
X148665003Y-97726414D01*
X148665001Y-97726413D01*
X148665000Y-97726413D01*
X148576645Y-97708838D01*
X148489481Y-97691500D01*
X148489479Y-97691500D01*
X148439594Y-97691500D01*
X148371473Y-97671498D01*
X148350499Y-97654595D01*
X147820405Y-97124501D01*
X147786379Y-97062189D01*
X147783500Y-97035406D01*
X147783500Y-90542450D01*
X147803502Y-90474329D01*
X147857158Y-90427836D01*
X147927432Y-90417732D01*
X147948428Y-90422614D01*
X148113592Y-90476280D01*
X148317019Y-90508500D01*
X148317022Y-90508500D01*
X148522978Y-90508500D01*
X148522981Y-90508500D01*
X148726408Y-90476280D01*
X148922290Y-90412634D01*
X149105803Y-90319129D01*
X149272430Y-90198068D01*
X149418068Y-90052430D01*
X149539129Y-89885803D01*
X149577734Y-89810034D01*
X149626481Y-89758422D01*
X149695396Y-89741356D01*
X149762598Y-89764257D01*
X149802264Y-89810034D01*
X149840871Y-89885803D01*
X149961932Y-90052430D01*
X149961934Y-90052432D01*
X149961936Y-90052435D01*
X150107564Y-90198063D01*
X150107567Y-90198065D01*
X150107570Y-90198068D01*
X150274197Y-90319129D01*
X150457710Y-90412634D01*
X150653592Y-90476280D01*
X150857019Y-90508500D01*
X150857022Y-90508500D01*
X151062978Y-90508500D01*
X151062981Y-90508500D01*
X151266408Y-90476280D01*
X151266411Y-90476278D01*
X151266853Y-90476209D01*
X151272366Y-90476921D01*
X151277575Y-90474979D01*
X151307201Y-90481423D01*
X151337264Y-90485309D01*
X151342956Y-90489201D01*
X151346949Y-90490070D01*
X151375659Y-90511563D01*
X151479595Y-90615499D01*
X151513621Y-90677811D01*
X151516500Y-90704594D01*
X151516500Y-96162396D01*
X151524354Y-96201878D01*
X151540845Y-96284785D01*
X151588600Y-96400075D01*
X151657929Y-96503833D01*
X151657931Y-96503835D01*
X153204595Y-98050499D01*
X153238621Y-98112811D01*
X153241500Y-98139594D01*
X153241500Y-98189479D01*
X153276413Y-98365000D01*
X153344898Y-98530336D01*
X153444322Y-98679135D01*
X153570865Y-98805678D01*
X153719664Y-98905102D01*
X153885000Y-98973587D01*
X154060521Y-99008500D01*
X154060522Y-99008500D01*
X154239478Y-99008500D01*
X154239479Y-99008500D01*
X154415000Y-98973587D01*
X154580336Y-98905102D01*
X154729135Y-98805678D01*
X154855678Y-98679135D01*
X154955102Y-98530336D01*
X155023587Y-98365000D01*
X155058500Y-98189479D01*
X155058500Y-98010521D01*
X155023587Y-97835000D01*
X154955102Y-97669664D01*
X154855678Y-97520865D01*
X154729135Y-97394322D01*
X154580336Y-97294898D01*
X154428510Y-97232009D01*
X154415003Y-97226414D01*
X154415001Y-97226413D01*
X154415000Y-97226413D01*
X154326645Y-97208838D01*
X154239481Y-97191500D01*
X154239479Y-97191500D01*
X154189594Y-97191500D01*
X154121473Y-97171498D01*
X154100499Y-97154595D01*
X152820405Y-95874501D01*
X152786379Y-95812189D01*
X152783500Y-95785406D01*
X152783500Y-90509101D01*
X152803502Y-90440980D01*
X152857158Y-90394487D01*
X152927432Y-90384383D01*
X152966701Y-90396834D01*
X152997710Y-90412634D01*
X153193592Y-90476280D01*
X153397019Y-90508500D01*
X153397022Y-90508500D01*
X153602978Y-90508500D01*
X153602981Y-90508500D01*
X153806408Y-90476280D01*
X154002290Y-90412634D01*
X154185803Y-90319129D01*
X154352430Y-90198068D01*
X154498068Y-90052430D01*
X154619129Y-89885803D01*
X154657734Y-89810034D01*
X154706481Y-89758422D01*
X154775396Y-89741356D01*
X154842598Y-89764257D01*
X154882264Y-89810034D01*
X154920871Y-89885803D01*
X155041932Y-90052430D01*
X155041934Y-90052432D01*
X155041936Y-90052435D01*
X155187564Y-90198063D01*
X155187567Y-90198065D01*
X155187570Y-90198068D01*
X155354197Y-90319129D01*
X155537710Y-90412634D01*
X155733592Y-90476280D01*
X155937019Y-90508500D01*
X155937022Y-90508500D01*
X156142978Y-90508500D01*
X156142981Y-90508500D01*
X156346408Y-90476280D01*
X156542290Y-90412634D01*
X156725803Y-90319129D01*
X156892430Y-90198068D01*
X157038068Y-90052430D01*
X157159129Y-89885803D01*
X157197734Y-89810034D01*
X157246481Y-89758422D01*
X157315396Y-89741356D01*
X157382598Y-89764257D01*
X157422264Y-89810034D01*
X157460871Y-89885803D01*
X157581932Y-90052430D01*
X157581934Y-90052432D01*
X157581936Y-90052435D01*
X157727564Y-90198063D01*
X157727567Y-90198065D01*
X157727570Y-90198068D01*
X157894197Y-90319129D01*
X157894204Y-90319133D01*
X157894560Y-90319391D01*
X157937915Y-90375613D01*
X157946500Y-90421328D01*
X157946500Y-103229383D01*
X157926498Y-103297504D01*
X157925266Y-103299384D01*
X157844898Y-103419663D01*
X157776414Y-103584996D01*
X157741500Y-103760518D01*
X157741500Y-103760521D01*
X157741500Y-103939479D01*
X157776413Y-104115000D01*
X157844898Y-104280336D01*
X157944322Y-104429135D01*
X158070865Y-104555678D01*
X158219664Y-104655102D01*
X158385000Y-104723587D01*
X158560521Y-104758500D01*
X158560522Y-104758500D01*
X158739478Y-104758500D01*
X158739479Y-104758500D01*
X158915000Y-104723587D01*
X159080336Y-104655102D01*
X159229135Y-104555678D01*
X159355678Y-104429135D01*
X159455102Y-104280336D01*
X159523587Y-104115000D01*
X159558500Y-103939479D01*
X159558500Y-103760521D01*
X159523587Y-103585000D01*
X159455102Y-103419664D01*
X159355678Y-103270865D01*
X159250404Y-103165591D01*
X159216379Y-103103279D01*
X159213500Y-103076496D01*
X159213500Y-93250954D01*
X160141500Y-93250954D01*
X160141500Y-93449046D01*
X160172488Y-93644700D01*
X160233702Y-93833097D01*
X160300729Y-93964644D01*
X160323636Y-94009601D01*
X160440071Y-94169860D01*
X160580135Y-94309924D01*
X160580138Y-94309926D01*
X160580142Y-94309930D01*
X160617745Y-94337250D01*
X160630072Y-94346206D01*
X160673425Y-94402429D01*
X160679500Y-94473165D01*
X160646368Y-94535957D01*
X160645106Y-94537237D01*
X160554483Y-94627860D01*
X160451928Y-94769015D01*
X160372713Y-94924482D01*
X160372710Y-94924488D01*
X160344630Y-95010912D01*
X160318795Y-95090426D01*
X160291500Y-95262759D01*
X160291500Y-95437241D01*
X160318795Y-95609574D01*
X160372712Y-95775516D01*
X160451926Y-95930981D01*
X160554483Y-96072139D01*
X160554485Y-96072141D01*
X160554487Y-96072144D01*
X160677855Y-96195512D01*
X160677858Y-96195514D01*
X160677861Y-96195517D01*
X160707653Y-96217162D01*
X160751007Y-96273384D01*
X160757082Y-96344120D01*
X160723951Y-96406912D01*
X160707654Y-96421033D01*
X160645288Y-96466345D01*
X160645282Y-96466350D01*
X160516350Y-96595282D01*
X160516348Y-96595285D01*
X160409164Y-96742810D01*
X160326374Y-96905293D01*
X160270027Y-97078711D01*
X160270026Y-97078716D01*
X160270026Y-97078717D01*
X160241500Y-97258824D01*
X160241500Y-97441176D01*
X160259719Y-97556206D01*
X160270027Y-97621288D01*
X160326374Y-97794706D01*
X160326375Y-97794709D01*
X160326376Y-97794710D01*
X160409162Y-97957186D01*
X160516346Y-98104712D01*
X160516348Y-98104714D01*
X160516350Y-98104717D01*
X160645282Y-98233649D01*
X160645285Y-98233651D01*
X160645288Y-98233654D01*
X160724828Y-98291443D01*
X160768182Y-98347665D01*
X160770137Y-98360928D01*
X161359209Y-98950000D01*
X161347339Y-98950000D01*
X161245606Y-98977259D01*
X161154394Y-99029920D01*
X161079920Y-99104394D01*
X161027259Y-99195606D01*
X161000000Y-99297339D01*
X161000000Y-99309209D01*
X160419804Y-98729013D01*
X160419803Y-98729014D01*
X160409591Y-98743072D01*
X160326840Y-98905480D01*
X160326837Y-98905486D01*
X160270515Y-99078828D01*
X160242000Y-99258866D01*
X160242000Y-99441133D01*
X160270515Y-99621171D01*
X160326837Y-99794513D01*
X160326840Y-99794519D01*
X160409588Y-99956923D01*
X160419803Y-99970984D01*
X161000000Y-99390788D01*
X161000000Y-99402661D01*
X161027259Y-99504394D01*
X161079920Y-99595606D01*
X161154394Y-99670080D01*
X161245606Y-99722741D01*
X161347339Y-99750000D01*
X161359210Y-99750000D01*
X160948556Y-100160652D01*
X160916665Y-100183822D01*
X160740401Y-100273634D01*
X160580139Y-100390071D01*
X160440071Y-100530139D01*
X160323636Y-100690398D01*
X160323634Y-100690402D01*
X160233702Y-100866903D01*
X160172488Y-101055300D01*
X160141500Y-101250954D01*
X160141500Y-101449046D01*
X160172488Y-101644700D01*
X160233702Y-101833097D01*
X160318794Y-102000099D01*
X160323636Y-102009601D01*
X160440071Y-102169860D01*
X160580139Y-102309928D01*
X160580142Y-102309930D01*
X160740402Y-102426366D01*
X160916903Y-102516298D01*
X161105300Y-102577512D01*
X161300954Y-102608500D01*
X161300957Y-102608500D01*
X161499043Y-102608500D01*
X161499046Y-102608500D01*
X161694700Y-102577512D01*
X161883097Y-102516298D01*
X162059598Y-102426366D01*
X162219858Y-102309930D01*
X162359930Y-102169858D01*
X162476366Y-102009598D01*
X162566298Y-101833097D01*
X162627512Y-101644700D01*
X162658500Y-101449046D01*
X162658500Y-101250954D01*
X162627512Y-101055300D01*
X162566298Y-100866903D01*
X162476366Y-100690402D01*
X162359930Y-100530142D01*
X162359928Y-100530139D01*
X162219860Y-100390071D01*
X162059601Y-100273636D01*
X162059600Y-100273635D01*
X162059598Y-100273634D01*
X161883330Y-100183821D01*
X161851439Y-100160650D01*
X161440790Y-99750000D01*
X161452661Y-99750000D01*
X161554394Y-99722741D01*
X161645606Y-99670080D01*
X161720080Y-99595606D01*
X161772741Y-99504394D01*
X161800000Y-99402661D01*
X161800000Y-99390791D01*
X162380193Y-99970984D01*
X162380195Y-99970984D01*
X162390408Y-99956928D01*
X162473159Y-99794519D01*
X162473162Y-99794513D01*
X162529484Y-99621171D01*
X162558000Y-99441133D01*
X162558000Y-99258866D01*
X162529484Y-99078828D01*
X162473162Y-98905486D01*
X162473159Y-98905480D01*
X162390412Y-98743078D01*
X162380194Y-98729014D01*
X161800000Y-99309208D01*
X161800000Y-99297339D01*
X161772741Y-99195606D01*
X161720080Y-99104394D01*
X161645606Y-99029920D01*
X161554394Y-98977259D01*
X161452661Y-98950000D01*
X161440790Y-98950000D01*
X162033216Y-98357572D01*
X162038211Y-98333791D01*
X162075165Y-98291447D01*
X162154712Y-98233654D01*
X162283654Y-98104712D01*
X162390838Y-97957186D01*
X162473624Y-97794710D01*
X162529974Y-97621283D01*
X162558500Y-97441176D01*
X162558500Y-97258824D01*
X162529974Y-97078717D01*
X162473624Y-96905290D01*
X162390838Y-96742814D01*
X162283654Y-96595288D01*
X162283651Y-96595285D01*
X162283649Y-96595282D01*
X162154718Y-96466351D01*
X162154714Y-96466348D01*
X162154712Y-96466346D01*
X162092344Y-96421033D01*
X162048992Y-96364811D01*
X162042917Y-96294075D01*
X162076049Y-96231283D01*
X162092339Y-96217167D01*
X162122139Y-96195517D01*
X162245517Y-96072139D01*
X162348074Y-95930981D01*
X162427288Y-95775516D01*
X162481205Y-95609574D01*
X162508500Y-95437241D01*
X162508500Y-95262759D01*
X162481205Y-95090426D01*
X162427288Y-94924484D01*
X162348074Y-94769019D01*
X162245517Y-94627861D01*
X162245514Y-94627858D01*
X162245512Y-94627855D01*
X162154894Y-94537237D01*
X162120868Y-94474925D01*
X162125933Y-94404110D01*
X162168480Y-94347274D01*
X162169928Y-94346206D01*
X162219858Y-94309930D01*
X162359930Y-94169858D01*
X162476366Y-94009598D01*
X162566298Y-93833097D01*
X162627512Y-93644700D01*
X162658500Y-93449046D01*
X162658500Y-93250954D01*
X162627512Y-93055300D01*
X162566298Y-92866903D01*
X162476366Y-92690402D01*
X162359930Y-92530142D01*
X162359928Y-92530139D01*
X162219860Y-92390071D01*
X162059601Y-92273636D01*
X162059600Y-92273635D01*
X162059598Y-92273634D01*
X161883097Y-92183702D01*
X161694700Y-92122488D01*
X161499046Y-92091500D01*
X161300954Y-92091500D01*
X161105300Y-92122488D01*
X161105297Y-92122488D01*
X161105296Y-92122489D01*
X160916903Y-92183702D01*
X160916901Y-92183703D01*
X160740398Y-92273636D01*
X160580139Y-92390071D01*
X160440071Y-92530139D01*
X160323636Y-92690398D01*
X160323634Y-92690402D01*
X160233702Y-92866903D01*
X160172488Y-93055300D01*
X160141500Y-93250954D01*
X159213500Y-93250954D01*
X159213500Y-90421328D01*
X159233502Y-90353207D01*
X159265440Y-90319391D01*
X159265795Y-90319133D01*
X159265803Y-90319129D01*
X159432430Y-90198068D01*
X159432435Y-90198063D01*
X159480033Y-90150466D01*
X159578063Y-90052435D01*
X159578068Y-90052430D01*
X159699129Y-89885803D01*
X159738014Y-89809486D01*
X159786759Y-89757874D01*
X159855674Y-89740807D01*
X159922876Y-89763707D01*
X159962545Y-89809487D01*
X160001294Y-89885535D01*
X160001298Y-89885541D01*
X160032416Y-89928372D01*
X160595016Y-89365771D01*
X160607482Y-89412292D01*
X160679890Y-89537708D01*
X160782292Y-89640110D01*
X160907708Y-89712518D01*
X160954226Y-89724982D01*
X160391626Y-90287582D01*
X160391626Y-90287583D01*
X160434454Y-90318699D01*
X160617900Y-90412170D01*
X160617906Y-90412173D01*
X160813705Y-90475791D01*
X160813701Y-90475791D01*
X161017061Y-90508000D01*
X161222939Y-90508000D01*
X161426296Y-90475791D01*
X161622093Y-90412173D01*
X161622099Y-90412170D01*
X161805541Y-90318701D01*
X161848372Y-90287582D01*
X161848372Y-90287581D01*
X161285773Y-89724982D01*
X161332292Y-89712518D01*
X161457708Y-89640110D01*
X161560110Y-89537708D01*
X161632518Y-89412292D01*
X161644982Y-89365773D01*
X162207581Y-89928372D01*
X162207582Y-89928372D01*
X162238701Y-89885541D01*
X162277453Y-89809488D01*
X162326201Y-89757873D01*
X162395116Y-89740807D01*
X162462318Y-89763708D01*
X162501985Y-89809486D01*
X162540871Y-89885803D01*
X162661932Y-90052430D01*
X162661934Y-90052432D01*
X162661936Y-90052435D01*
X162807564Y-90198063D01*
X162807567Y-90198065D01*
X162807570Y-90198068D01*
X162974197Y-90319129D01*
X163157710Y-90412634D01*
X163353592Y-90476280D01*
X163557019Y-90508500D01*
X163557022Y-90508500D01*
X163762978Y-90508500D01*
X163762981Y-90508500D01*
X163966408Y-90476280D01*
X164162290Y-90412634D01*
X164345803Y-90319129D01*
X164512430Y-90198068D01*
X164658068Y-90052430D01*
X164779129Y-89885803D01*
X164872634Y-89702290D01*
X164936280Y-89506408D01*
X164968500Y-89302981D01*
X164968500Y-89097019D01*
X164936280Y-88893592D01*
X164872634Y-88697710D01*
X164779129Y-88514197D01*
X164658068Y-88347570D01*
X164658065Y-88347567D01*
X164658063Y-88347564D01*
X164512435Y-88201936D01*
X164512432Y-88201934D01*
X164512430Y-88201932D01*
X164386999Y-88110802D01*
X164345806Y-88080873D01*
X164345805Y-88080872D01*
X164345803Y-88080871D01*
X164162290Y-87987366D01*
X164162287Y-87987365D01*
X164162285Y-87987364D01*
X163966412Y-87923721D01*
X163966410Y-87923720D01*
X163966408Y-87923720D01*
X163762981Y-87891500D01*
X163557019Y-87891500D01*
X163353592Y-87923720D01*
X163353590Y-87923720D01*
X163353587Y-87923721D01*
X163157714Y-87987364D01*
X163157708Y-87987367D01*
X162974193Y-88080873D01*
X162807567Y-88201934D01*
X162807564Y-88201936D01*
X162661936Y-88347564D01*
X162661934Y-88347567D01*
X162540872Y-88514193D01*
X162501987Y-88590511D01*
X162453238Y-88642126D01*
X162384323Y-88659192D01*
X162317122Y-88636291D01*
X162277453Y-88590511D01*
X162238699Y-88514454D01*
X162207583Y-88471626D01*
X162207582Y-88471626D01*
X161644982Y-89034226D01*
X161632518Y-88987708D01*
X161560110Y-88862292D01*
X161457708Y-88759890D01*
X161332292Y-88687482D01*
X161285772Y-88675016D01*
X161848372Y-88112416D01*
X161805541Y-88081298D01*
X161805540Y-88081297D01*
X161622099Y-87987829D01*
X161622093Y-87987826D01*
X161426294Y-87924208D01*
X161426298Y-87924208D01*
X161222939Y-87892000D01*
X161017061Y-87892000D01*
X160813703Y-87924208D01*
X160617906Y-87987826D01*
X160617900Y-87987829D01*
X160434452Y-88081301D01*
X160391625Y-88112416D01*
X160954226Y-88675017D01*
X160907708Y-88687482D01*
X160782292Y-88759890D01*
X160679890Y-88862292D01*
X160607482Y-88987708D01*
X160595017Y-89034226D01*
X160032416Y-88471625D01*
X160001301Y-88514453D01*
X160001299Y-88514456D01*
X159962546Y-88590512D01*
X159913798Y-88642127D01*
X159844883Y-88659192D01*
X159777681Y-88636291D01*
X159738013Y-88590511D01*
X159699127Y-88514193D01*
X159635588Y-88426741D01*
X159578068Y-88347570D01*
X159578065Y-88347567D01*
X159578063Y-88347564D01*
X159432435Y-88201936D01*
X159432432Y-88201934D01*
X159432430Y-88201932D01*
X159306999Y-88110802D01*
X159265806Y-88080873D01*
X159265805Y-88080872D01*
X159265803Y-88080871D01*
X159082290Y-87987366D01*
X159082287Y-87987365D01*
X159082285Y-87987364D01*
X158886412Y-87923721D01*
X158886410Y-87923720D01*
X158886408Y-87923720D01*
X158682981Y-87891500D01*
X158477019Y-87891500D01*
X158273592Y-87923720D01*
X158273590Y-87923720D01*
X158273587Y-87923721D01*
X158077714Y-87987364D01*
X158077708Y-87987367D01*
X157894193Y-88080873D01*
X157727567Y-88201934D01*
X157727564Y-88201936D01*
X157581936Y-88347564D01*
X157581934Y-88347567D01*
X157460873Y-88514193D01*
X157422267Y-88589962D01*
X157373518Y-88641577D01*
X157304603Y-88658643D01*
X157237402Y-88635742D01*
X157197733Y-88589962D01*
X157159129Y-88514197D01*
X157038068Y-88347570D01*
X157038065Y-88347567D01*
X157038063Y-88347564D01*
X156892435Y-88201936D01*
X156892432Y-88201934D01*
X156892430Y-88201932D01*
X156766999Y-88110802D01*
X156725806Y-88080873D01*
X156725805Y-88080872D01*
X156725803Y-88080871D01*
X156542290Y-87987366D01*
X156542287Y-87987365D01*
X156542285Y-87987364D01*
X156346412Y-87923721D01*
X156346410Y-87923720D01*
X156346408Y-87923720D01*
X156142981Y-87891500D01*
X155937019Y-87891500D01*
X155937018Y-87891500D01*
X155885748Y-87899619D01*
X155815338Y-87890518D01*
X155776946Y-87864265D01*
X154695405Y-86782724D01*
X154680460Y-86755355D01*
X154663604Y-86729127D01*
X154662698Y-86722828D01*
X154661379Y-86720412D01*
X154658500Y-86693629D01*
X154658500Y-86301099D01*
X154678502Y-86232978D01*
X154732158Y-86186485D01*
X154772419Y-86179369D01*
X155416841Y-85534947D01*
X155435075Y-85602993D01*
X155500901Y-85717007D01*
X155593993Y-85810099D01*
X155708007Y-85875925D01*
X155776051Y-85894157D01*
X155136831Y-86533378D01*
X155189249Y-86571463D01*
X155189251Y-86571464D01*
X155379707Y-86668506D01*
X155379713Y-86668509D01*
X155582996Y-86734559D01*
X155794126Y-86768000D01*
X156007874Y-86768000D01*
X156219003Y-86734559D01*
X156422286Y-86668509D01*
X156422292Y-86668506D01*
X156612750Y-86571463D01*
X156665167Y-86533378D01*
X156665167Y-86533376D01*
X156025948Y-85894157D01*
X156093993Y-85875925D01*
X156208007Y-85810099D01*
X156301099Y-85717007D01*
X156366925Y-85602993D01*
X156385157Y-85534948D01*
X157024376Y-86174167D01*
X157024378Y-86174167D01*
X157062463Y-86121750D01*
X157159506Y-85931292D01*
X157159509Y-85931286D01*
X157225559Y-85728003D01*
X157259000Y-85516873D01*
X157259000Y-85303126D01*
X157225559Y-85091996D01*
X157159509Y-84888713D01*
X157159506Y-84888707D01*
X157062464Y-84698251D01*
X157062463Y-84698249D01*
X157024378Y-84645831D01*
X156385157Y-85285051D01*
X156366925Y-85217007D01*
X156301099Y-85102993D01*
X156208007Y-85009901D01*
X156093993Y-84944075D01*
X156025947Y-84925841D01*
X156665168Y-84286621D01*
X156665167Y-84286620D01*
X156612749Y-84248535D01*
X156610950Y-84247433D01*
X156610409Y-84246835D01*
X156608742Y-84245624D01*
X156608996Y-84245273D01*
X156563318Y-84194786D01*
X156551711Y-84124745D01*
X156579814Y-84059547D01*
X156608788Y-84034442D01*
X156608741Y-84034377D01*
X156609498Y-84033826D01*
X156610958Y-84032562D01*
X156612750Y-84031463D01*
X156665167Y-83993378D01*
X156665167Y-83993376D01*
X156025948Y-83354157D01*
X156093993Y-83335925D01*
X156208007Y-83270099D01*
X156301099Y-83177007D01*
X156366925Y-83062993D01*
X156385157Y-82994948D01*
X157024376Y-83634167D01*
X157024378Y-83634167D01*
X157062463Y-83581750D01*
X157159506Y-83391292D01*
X157159509Y-83391286D01*
X157225559Y-83188003D01*
X157259000Y-82976873D01*
X157259000Y-82763126D01*
X157225559Y-82551996D01*
X157159509Y-82348713D01*
X157159506Y-82348707D01*
X157062464Y-82158251D01*
X157062463Y-82158249D01*
X157024378Y-82105831D01*
X156385157Y-82745051D01*
X156366925Y-82677007D01*
X156301099Y-82562993D01*
X156208007Y-82469901D01*
X156093993Y-82404075D01*
X156025947Y-82385841D01*
X156665168Y-81746621D01*
X156665167Y-81746620D01*
X156612749Y-81708535D01*
X156610950Y-81707433D01*
X156610409Y-81706835D01*
X156608742Y-81705624D01*
X156608996Y-81705273D01*
X156563318Y-81654786D01*
X156551711Y-81584745D01*
X156579814Y-81519547D01*
X156594231Y-81504810D01*
X156659766Y-81447975D01*
X156025948Y-80814157D01*
X156093993Y-80795925D01*
X156208007Y-80730099D01*
X156301099Y-80637007D01*
X156366925Y-80522993D01*
X156385157Y-80454948D01*
X157024376Y-81094167D01*
X157024378Y-81094167D01*
X157062463Y-81041750D01*
X157159506Y-80851292D01*
X157159509Y-80851286D01*
X157225559Y-80648003D01*
X157259000Y-80436873D01*
X157259000Y-80223126D01*
X157225559Y-80011996D01*
X157159509Y-79808713D01*
X157159506Y-79808707D01*
X157062464Y-79618251D01*
X157062463Y-79618249D01*
X157024378Y-79565831D01*
X156385157Y-80205051D01*
X156366925Y-80137007D01*
X156301099Y-80022993D01*
X156208007Y-79929901D01*
X156093993Y-79864075D01*
X156025947Y-79845841D01*
X156695583Y-79176205D01*
X156757896Y-79142180D01*
X156818470Y-79145969D01*
X156860087Y-79141496D01*
X156860094Y-79141494D01*
X156996964Y-79090444D01*
X156996965Y-79090444D01*
X157113904Y-79002904D01*
X157201444Y-78885965D01*
X157201444Y-78885964D01*
X157252494Y-78749093D01*
X157258999Y-78688597D01*
X157259000Y-78688585D01*
X157259000Y-78044000D01*
X156331703Y-78044000D01*
X156366925Y-77982993D01*
X156401000Y-77855826D01*
X156401000Y-77724174D01*
X156366925Y-77597007D01*
X156331703Y-77536000D01*
X157259000Y-77536000D01*
X157259000Y-77500954D01*
X158641500Y-77500954D01*
X158641500Y-77699046D01*
X158672488Y-77894700D01*
X158733702Y-78083097D01*
X158823075Y-78258500D01*
X158823636Y-78259601D01*
X158940071Y-78419860D01*
X159080135Y-78559924D01*
X159080138Y-78559926D01*
X159080142Y-78559930D01*
X159130072Y-78596206D01*
X159173425Y-78652429D01*
X159179500Y-78723165D01*
X159146368Y-78785957D01*
X159145106Y-78787237D01*
X159054483Y-78877860D01*
X158951928Y-79019015D01*
X158872713Y-79174482D01*
X158872710Y-79174488D01*
X158846942Y-79253796D01*
X158818795Y-79340426D01*
X158791500Y-79512759D01*
X158791500Y-79687241D01*
X158818795Y-79859574D01*
X158818796Y-79859577D01*
X158855452Y-79972396D01*
X158872712Y-80025516D01*
X158951926Y-80180981D01*
X159054483Y-80322139D01*
X159054485Y-80322141D01*
X159054487Y-80322144D01*
X159177858Y-80445515D01*
X159229431Y-80482985D01*
X159272785Y-80539208D01*
X159280981Y-80594810D01*
X159279013Y-80619804D01*
X159859209Y-81200000D01*
X159847339Y-81200000D01*
X159745606Y-81227259D01*
X159654394Y-81279920D01*
X159579920Y-81354394D01*
X159527259Y-81445606D01*
X159500000Y-81547339D01*
X159500000Y-81559209D01*
X158919804Y-80979013D01*
X158919803Y-80979014D01*
X158909591Y-80993072D01*
X158826840Y-81155480D01*
X158826837Y-81155486D01*
X158770515Y-81328828D01*
X158742000Y-81508866D01*
X158742000Y-81691133D01*
X158770515Y-81871171D01*
X158826837Y-82044513D01*
X158826840Y-82044519D01*
X158909588Y-82206923D01*
X158919803Y-82220984D01*
X159500000Y-81640788D01*
X159500000Y-81652661D01*
X159527259Y-81754394D01*
X159579920Y-81845606D01*
X159654394Y-81920080D01*
X159745606Y-81972741D01*
X159847339Y-82000000D01*
X159859210Y-82000000D01*
X159266780Y-82592428D01*
X159261784Y-82616213D01*
X159224830Y-82658554D01*
X159145288Y-82716345D01*
X159145282Y-82716350D01*
X159016350Y-82845282D01*
X159016348Y-82845285D01*
X158909164Y-82992810D01*
X158826374Y-83155293D01*
X158770027Y-83328711D01*
X158770026Y-83328716D01*
X158770026Y-83328717D01*
X158741500Y-83508824D01*
X158741500Y-83691176D01*
X158756327Y-83784788D01*
X158770027Y-83871288D01*
X158826374Y-84044706D01*
X158826375Y-84044709D01*
X158826376Y-84044710D01*
X158909162Y-84207186D01*
X159016346Y-84354712D01*
X159016348Y-84354714D01*
X159016350Y-84354717D01*
X159104151Y-84442518D01*
X159138177Y-84504830D01*
X159133112Y-84575645D01*
X159090565Y-84632481D01*
X159089119Y-84633547D01*
X159080144Y-84640067D01*
X159080136Y-84640074D01*
X158940071Y-84780139D01*
X158823636Y-84940398D01*
X158733703Y-85116901D01*
X158733702Y-85116903D01*
X158713482Y-85179135D01*
X158672488Y-85305300D01*
X158641500Y-85500954D01*
X158641500Y-85699046D01*
X158672488Y-85894700D01*
X158733702Y-86083097D01*
X158823634Y-86259598D01*
X158823636Y-86259601D01*
X158940071Y-86419860D01*
X159080139Y-86559928D01*
X159130773Y-86596716D01*
X159240402Y-86676366D01*
X159416903Y-86766298D01*
X159605300Y-86827512D01*
X159800954Y-86858500D01*
X159800957Y-86858500D01*
X159999043Y-86858500D01*
X159999046Y-86858500D01*
X160194700Y-86827512D01*
X160383097Y-86766298D01*
X160559598Y-86676366D01*
X160719858Y-86559930D01*
X160859930Y-86419858D01*
X160976366Y-86259598D01*
X161066298Y-86083097D01*
X161127512Y-85894700D01*
X161158500Y-85699046D01*
X161158500Y-85500954D01*
X161127512Y-85305300D01*
X161066298Y-85116903D01*
X160976366Y-84940402D01*
X160859930Y-84780142D01*
X160859928Y-84780139D01*
X160719863Y-84640074D01*
X160719859Y-84640071D01*
X160719858Y-84640070D01*
X160710881Y-84633548D01*
X160667529Y-84577328D01*
X160661452Y-84506592D01*
X160694583Y-84443800D01*
X160695777Y-84442588D01*
X160783654Y-84354712D01*
X160890838Y-84207186D01*
X160973624Y-84044710D01*
X161029974Y-83871283D01*
X161058500Y-83691176D01*
X161058500Y-83508824D01*
X161029974Y-83328717D01*
X160973624Y-83155290D01*
X160890838Y-82992814D01*
X160783654Y-82845288D01*
X160783651Y-82845285D01*
X160783649Y-82845282D01*
X160654718Y-82716351D01*
X160654714Y-82716348D01*
X160654712Y-82716346D01*
X160575167Y-82658553D01*
X160531815Y-82602331D01*
X160529859Y-82589068D01*
X159940791Y-82000000D01*
X159952661Y-82000000D01*
X160054394Y-81972741D01*
X160145606Y-81920080D01*
X160220080Y-81845606D01*
X160272741Y-81754394D01*
X160300000Y-81652661D01*
X160300000Y-81640791D01*
X160880193Y-82220984D01*
X160880195Y-82220984D01*
X160890408Y-82206928D01*
X160973159Y-82044519D01*
X160973162Y-82044513D01*
X161029484Y-81871171D01*
X161058000Y-81691133D01*
X161058000Y-81508866D01*
X161029484Y-81328828D01*
X160973162Y-81155486D01*
X160973159Y-81155480D01*
X160890412Y-80993078D01*
X160880194Y-80979014D01*
X160300000Y-81559208D01*
X160300000Y-81547339D01*
X160272741Y-81445606D01*
X160220080Y-81354394D01*
X160145606Y-81279920D01*
X160054394Y-81227259D01*
X159952661Y-81200000D01*
X159940790Y-81200000D01*
X160520985Y-80619803D01*
X160519018Y-80594809D01*
X160533612Y-80525329D01*
X160570567Y-80482986D01*
X160622139Y-80445517D01*
X160745517Y-80322139D01*
X160848074Y-80180981D01*
X160927288Y-80025516D01*
X160981205Y-79859574D01*
X161008500Y-79687241D01*
X161008500Y-79512759D01*
X160981205Y-79340426D01*
X160927288Y-79174484D01*
X160848074Y-79019019D01*
X160745517Y-78877861D01*
X160745514Y-78877858D01*
X160745512Y-78877855D01*
X160654894Y-78787237D01*
X160620868Y-78724925D01*
X160625933Y-78654110D01*
X160668480Y-78597274D01*
X160669928Y-78596206D01*
X160719858Y-78559930D01*
X160859930Y-78419858D01*
X160976366Y-78259598D01*
X161066298Y-78083097D01*
X161127512Y-77894700D01*
X161158500Y-77699046D01*
X161158500Y-77500954D01*
X161127512Y-77305300D01*
X161066298Y-77116903D01*
X160976366Y-76940402D01*
X160859930Y-76780142D01*
X160859928Y-76780139D01*
X160719860Y-76640071D01*
X160559601Y-76523636D01*
X160559600Y-76523635D01*
X160559598Y-76523634D01*
X160383097Y-76433702D01*
X160194700Y-76372488D01*
X159999046Y-76341500D01*
X159800954Y-76341500D01*
X159605300Y-76372488D01*
X159605297Y-76372488D01*
X159605296Y-76372489D01*
X159416903Y-76433702D01*
X159416901Y-76433703D01*
X159240398Y-76523636D01*
X159080139Y-76640071D01*
X158940071Y-76780139D01*
X158823636Y-76940398D01*
X158733703Y-77116901D01*
X158733702Y-77116903D01*
X158687038Y-77260521D01*
X158672488Y-77305300D01*
X158641500Y-77500954D01*
X157259000Y-77500954D01*
X157259000Y-76891414D01*
X157258999Y-76891402D01*
X157252494Y-76830906D01*
X157201444Y-76694035D01*
X157201444Y-76694034D01*
X157113904Y-76577095D01*
X156996965Y-76489555D01*
X156860093Y-76438505D01*
X156799597Y-76432000D01*
X156155000Y-76432000D01*
X156155000Y-77359297D01*
X156093993Y-77324075D01*
X155966826Y-77290000D01*
X155835174Y-77290000D01*
X155708007Y-77324075D01*
X155647000Y-77359297D01*
X155647000Y-76432000D01*
X155002402Y-76432000D01*
X154941906Y-76438505D01*
X154805035Y-76489555D01*
X154805034Y-76489555D01*
X154688095Y-76577095D01*
X154600555Y-76694034D01*
X154600555Y-76694035D01*
X154549505Y-76830906D01*
X154543000Y-76891402D01*
X154543000Y-77536000D01*
X155470297Y-77536000D01*
X155435075Y-77597007D01*
X155401000Y-77724174D01*
X155401000Y-77855826D01*
X155435075Y-77982993D01*
X155470297Y-78044000D01*
X154543000Y-78044000D01*
X154543000Y-78688597D01*
X154549505Y-78749093D01*
X154600555Y-78885964D01*
X154600555Y-78885965D01*
X154688095Y-79002904D01*
X154805034Y-79090444D01*
X154941909Y-79141495D01*
X154983980Y-79146018D01*
X155046286Y-79142674D01*
X155106413Y-79176204D01*
X155776051Y-79845842D01*
X155708007Y-79864075D01*
X155593993Y-79929901D01*
X155500901Y-80022993D01*
X155435075Y-80137007D01*
X155416842Y-80205051D01*
X154777622Y-79565831D01*
X154777621Y-79565831D01*
X154739534Y-79618253D01*
X154642493Y-79808707D01*
X154642490Y-79808713D01*
X154576440Y-80011996D01*
X154543000Y-80223126D01*
X154543000Y-80436873D01*
X154576440Y-80648003D01*
X154642490Y-80851286D01*
X154642493Y-80851292D01*
X154739535Y-81041748D01*
X154739536Y-81041750D01*
X154777620Y-81094167D01*
X154777621Y-81094168D01*
X155416841Y-80454947D01*
X155435075Y-80522993D01*
X155500901Y-80637007D01*
X155593993Y-80730099D01*
X155708007Y-80795925D01*
X155776051Y-80814157D01*
X155165799Y-81424409D01*
X155232826Y-81534456D01*
X155234453Y-81540539D01*
X155238678Y-81545208D01*
X155243521Y-81574426D01*
X155251178Y-81603039D01*
X155249258Y-81609035D01*
X155250289Y-81615249D01*
X155238563Y-81642454D01*
X155229538Y-81670657D01*
X155224681Y-81674663D01*
X155222189Y-81680448D01*
X155193212Y-81705560D01*
X155193259Y-81705624D01*
X155192520Y-81706160D01*
X155191065Y-81707422D01*
X155189269Y-81708522D01*
X155136831Y-81746621D01*
X155136831Y-81746622D01*
X155776051Y-82385842D01*
X155708007Y-82404075D01*
X155593993Y-82469901D01*
X155500901Y-82562993D01*
X155435075Y-82677007D01*
X155416842Y-82745051D01*
X154777622Y-82105831D01*
X154777621Y-82105831D01*
X154739534Y-82158253D01*
X154642493Y-82348707D01*
X154642490Y-82348713D01*
X154576440Y-82551996D01*
X154543000Y-82763126D01*
X154543000Y-82976873D01*
X154576440Y-83188003D01*
X154642490Y-83391286D01*
X154642493Y-83391292D01*
X154739535Y-83581748D01*
X154739536Y-83581750D01*
X154777620Y-83634167D01*
X154777621Y-83634168D01*
X155416841Y-82994947D01*
X155435075Y-83062993D01*
X155500901Y-83177007D01*
X155593993Y-83270099D01*
X155708007Y-83335925D01*
X155776051Y-83354157D01*
X155165799Y-83964409D01*
X155232826Y-84074456D01*
X155234453Y-84080539D01*
X155238678Y-84085208D01*
X155243521Y-84114426D01*
X155251178Y-84143039D01*
X155249258Y-84149035D01*
X155250289Y-84155249D01*
X155238563Y-84182454D01*
X155229538Y-84210657D01*
X155224681Y-84214663D01*
X155222189Y-84220448D01*
X155193212Y-84245560D01*
X155193259Y-84245624D01*
X155192520Y-84246160D01*
X155191065Y-84247422D01*
X155189269Y-84248522D01*
X155136831Y-84286621D01*
X155136831Y-84286622D01*
X155776051Y-84925842D01*
X155708007Y-84944075D01*
X155593993Y-85009901D01*
X155500901Y-85102993D01*
X155435075Y-85217007D01*
X155416842Y-85285051D01*
X154777622Y-84645831D01*
X154777621Y-84645831D01*
X154739534Y-84698253D01*
X154663241Y-84847987D01*
X154614493Y-84899602D01*
X154545578Y-84916668D01*
X154480973Y-84895549D01*
X154330340Y-84794900D01*
X154330339Y-84794899D01*
X154165003Y-84726414D01*
X154165001Y-84726413D01*
X154165000Y-84726413D01*
X154076645Y-84708838D01*
X153989481Y-84691500D01*
X153989479Y-84691500D01*
X153810521Y-84691500D01*
X153810518Y-84691500D01*
X153679771Y-84717507D01*
X153635000Y-84726413D01*
X153634999Y-84726413D01*
X153634996Y-84726414D01*
X153469662Y-84794899D01*
X153320869Y-84894319D01*
X153320862Y-84894324D01*
X153194324Y-85020862D01*
X153194319Y-85020869D01*
X153094897Y-85169664D01*
X153094895Y-85169668D01*
X153025908Y-85336216D01*
X152981360Y-85391497D01*
X152913996Y-85413917D01*
X152845205Y-85396358D01*
X152796827Y-85344396D01*
X152783500Y-85287997D01*
X152783500Y-75269101D01*
X152803502Y-75200980D01*
X152857158Y-75154487D01*
X152927432Y-75144383D01*
X152966701Y-75156834D01*
X152997710Y-75172634D01*
X153193592Y-75236280D01*
X153397019Y-75268500D01*
X153397022Y-75268500D01*
X153602978Y-75268500D01*
X153602981Y-75268500D01*
X153806408Y-75236280D01*
X154002290Y-75172634D01*
X154185803Y-75079129D01*
X154352430Y-74958068D01*
X154352435Y-74958063D01*
X154400033Y-74910466D01*
X154498063Y-74812435D01*
X154498068Y-74812430D01*
X154619129Y-74645803D01*
X154658014Y-74569486D01*
X154706759Y-74517874D01*
X154775674Y-74500807D01*
X154842876Y-74523707D01*
X154882545Y-74569487D01*
X154921294Y-74645535D01*
X154921298Y-74645541D01*
X154952416Y-74688372D01*
X155515016Y-74125771D01*
X155527482Y-74172292D01*
X155599890Y-74297708D01*
X155702292Y-74400110D01*
X155827708Y-74472518D01*
X155874226Y-74484982D01*
X155311626Y-75047582D01*
X155311626Y-75047583D01*
X155354454Y-75078699D01*
X155537900Y-75172170D01*
X155537906Y-75172173D01*
X155733705Y-75235791D01*
X155733701Y-75235791D01*
X155937061Y-75268000D01*
X156142939Y-75268000D01*
X156346296Y-75235791D01*
X156542093Y-75172173D01*
X156542099Y-75172170D01*
X156725541Y-75078701D01*
X156768372Y-75047582D01*
X156768372Y-75047581D01*
X156205773Y-74484982D01*
X156252292Y-74472518D01*
X156377708Y-74400110D01*
X156480110Y-74297708D01*
X156552518Y-74172292D01*
X156564982Y-74125773D01*
X157127581Y-74688372D01*
X157127582Y-74688372D01*
X157158701Y-74645541D01*
X157197733Y-74568938D01*
X157246481Y-74517323D01*
X157315396Y-74500257D01*
X157382598Y-74523158D01*
X157422267Y-74568938D01*
X157461297Y-74645540D01*
X157461298Y-74645541D01*
X157492416Y-74688372D01*
X158055016Y-74125771D01*
X158067482Y-74172292D01*
X158139890Y-74297708D01*
X158242292Y-74400110D01*
X158367708Y-74472518D01*
X158414226Y-74484982D01*
X157851626Y-75047582D01*
X157851626Y-75047583D01*
X157894454Y-75078699D01*
X158077900Y-75172170D01*
X158077906Y-75172173D01*
X158273705Y-75235791D01*
X158273701Y-75235791D01*
X158477061Y-75268000D01*
X158682939Y-75268000D01*
X158886296Y-75235791D01*
X159082093Y-75172173D01*
X159082099Y-75172170D01*
X159265541Y-75078701D01*
X159308372Y-75047582D01*
X159308372Y-75047581D01*
X158745773Y-74484982D01*
X158792292Y-74472518D01*
X158917708Y-74400110D01*
X159020110Y-74297708D01*
X159092518Y-74172292D01*
X159104982Y-74125773D01*
X159667581Y-74688372D01*
X159667582Y-74688372D01*
X159698701Y-74645541D01*
X159737453Y-74569488D01*
X159786201Y-74517873D01*
X159855116Y-74500807D01*
X159922318Y-74523708D01*
X159961985Y-74569486D01*
X160000871Y-74645803D01*
X160121932Y-74812430D01*
X160121934Y-74812432D01*
X160121936Y-74812435D01*
X160267564Y-74958063D01*
X160267567Y-74958065D01*
X160267570Y-74958068D01*
X160434197Y-75079129D01*
X160617710Y-75172634D01*
X160813592Y-75236280D01*
X161017019Y-75268500D01*
X161017022Y-75268500D01*
X161222978Y-75268500D01*
X161222981Y-75268500D01*
X161426408Y-75236280D01*
X161622290Y-75172634D01*
X161805803Y-75079129D01*
X161972430Y-74958068D01*
X162118068Y-74812430D01*
X162129512Y-74796677D01*
X162185732Y-74753323D01*
X162256468Y-74747246D01*
X162319261Y-74780376D01*
X162354174Y-74842195D01*
X162356727Y-74857265D01*
X162358010Y-74869197D01*
X162358011Y-74869204D01*
X162409110Y-75006202D01*
X162409112Y-75006207D01*
X162496738Y-75123261D01*
X162613792Y-75210887D01*
X162613794Y-75210888D01*
X162613796Y-75210889D01*
X162672875Y-75232924D01*
X162750795Y-75261988D01*
X162750803Y-75261990D01*
X162811350Y-75268499D01*
X162811355Y-75268499D01*
X162811362Y-75268500D01*
X162811368Y-75268500D01*
X164508632Y-75268500D01*
X164508638Y-75268500D01*
X164508645Y-75268499D01*
X164508649Y-75268499D01*
X164569196Y-75261990D01*
X164569199Y-75261989D01*
X164569201Y-75261989D01*
X164706204Y-75210889D01*
X164757923Y-75172173D01*
X164823261Y-75123261D01*
X164910887Y-75006207D01*
X164910887Y-75006206D01*
X164910889Y-75006204D01*
X164961989Y-74869201D01*
X164961989Y-74869199D01*
X164961990Y-74869196D01*
X164968499Y-74808649D01*
X164968500Y-74808632D01*
X164968500Y-73111367D01*
X164968499Y-73111350D01*
X164961990Y-73050803D01*
X164961988Y-73050795D01*
X164910889Y-72913797D01*
X164910887Y-72913792D01*
X164823261Y-72796738D01*
X164706207Y-72709112D01*
X164706202Y-72709110D01*
X164569204Y-72658011D01*
X164569196Y-72658009D01*
X164508649Y-72651500D01*
X164508638Y-72651500D01*
X163628594Y-72651500D01*
X163560473Y-72631498D01*
X163513980Y-72577842D01*
X163503876Y-72507568D01*
X163533370Y-72442988D01*
X163539499Y-72436405D01*
X164549539Y-71426366D01*
X165642072Y-70333833D01*
X165711401Y-70230075D01*
X165759155Y-70114784D01*
X165759156Y-70114779D01*
X165764365Y-70088598D01*
X165783499Y-69992399D01*
X165783500Y-69992392D01*
X165783500Y-60553503D01*
X165803502Y-60485382D01*
X165820405Y-60464408D01*
X165837123Y-60447690D01*
X165855678Y-60429135D01*
X165955102Y-60280336D01*
X166023587Y-60115000D01*
X166058500Y-59939479D01*
X166058500Y-59760521D01*
X166023587Y-59585000D01*
X165955102Y-59419664D01*
X165855678Y-59270865D01*
X165729135Y-59144322D01*
X165580336Y-59044898D01*
X165463429Y-58996473D01*
X165415003Y-58976414D01*
X165415001Y-58976413D01*
X165415000Y-58976413D01*
X165326645Y-58958838D01*
X165239481Y-58941500D01*
X165239479Y-58941500D01*
X165060521Y-58941500D01*
X165060518Y-58941500D01*
X164929771Y-58967507D01*
X164885000Y-58976413D01*
X164884999Y-58976413D01*
X164884996Y-58976414D01*
X164719662Y-59044899D01*
X164570869Y-59144319D01*
X164570862Y-59144324D01*
X164444324Y-59270862D01*
X164444319Y-59270869D01*
X164344899Y-59419662D01*
X164276414Y-59584996D01*
X164241500Y-59760518D01*
X164241500Y-59760521D01*
X164241500Y-59939479D01*
X164276413Y-60115000D01*
X164344898Y-60280336D01*
X164444322Y-60429135D01*
X164444324Y-60429137D01*
X164479595Y-60464408D01*
X164513621Y-60526720D01*
X164516500Y-60553503D01*
X164516500Y-69615405D01*
X164496498Y-69683526D01*
X164479595Y-69704500D01*
X161535658Y-72648436D01*
X161473346Y-72682462D01*
X161426853Y-72683790D01*
X161303850Y-72664308D01*
X161222981Y-72651500D01*
X161017019Y-72651500D01*
X160813592Y-72683720D01*
X160813590Y-72683720D01*
X160813587Y-72683721D01*
X160617714Y-72747364D01*
X160617708Y-72747367D01*
X160434193Y-72840873D01*
X160267567Y-72961934D01*
X160267564Y-72961936D01*
X160121936Y-73107564D01*
X160121934Y-73107567D01*
X160000872Y-73274193D01*
X159961987Y-73350511D01*
X159913238Y-73402126D01*
X159844323Y-73419192D01*
X159777122Y-73396291D01*
X159737453Y-73350511D01*
X159698699Y-73274454D01*
X159667583Y-73231626D01*
X159667582Y-73231626D01*
X159104982Y-73794226D01*
X159092518Y-73747708D01*
X159020110Y-73622292D01*
X158917708Y-73519890D01*
X158792292Y-73447482D01*
X158745772Y-73435016D01*
X159308372Y-72872416D01*
X159265541Y-72841298D01*
X159265540Y-72841297D01*
X159082099Y-72747829D01*
X159082093Y-72747826D01*
X158886294Y-72684208D01*
X158886298Y-72684208D01*
X158682939Y-72652000D01*
X158477061Y-72652000D01*
X158273703Y-72684208D01*
X158077906Y-72747826D01*
X158077900Y-72747829D01*
X157894452Y-72841301D01*
X157851625Y-72872416D01*
X158414226Y-73435017D01*
X158367708Y-73447482D01*
X158242292Y-73519890D01*
X158139890Y-73622292D01*
X158067482Y-73747708D01*
X158055017Y-73794226D01*
X157492416Y-73231625D01*
X157461301Y-73274453D01*
X157461299Y-73274455D01*
X157422266Y-73351062D01*
X157373518Y-73402677D01*
X157304603Y-73419742D01*
X157237401Y-73396841D01*
X157197733Y-73351061D01*
X157158699Y-73274454D01*
X157127583Y-73231626D01*
X157127582Y-73231626D01*
X156564982Y-73794226D01*
X156552518Y-73747708D01*
X156480110Y-73622292D01*
X156377708Y-73519890D01*
X156252292Y-73447482D01*
X156205772Y-73435016D01*
X156768372Y-72872416D01*
X156725541Y-72841298D01*
X156725540Y-72841297D01*
X156542099Y-72747829D01*
X156542093Y-72747826D01*
X156346294Y-72684208D01*
X156346298Y-72684208D01*
X156142939Y-72652000D01*
X155937061Y-72652000D01*
X155733703Y-72684208D01*
X155537906Y-72747826D01*
X155537900Y-72747829D01*
X155354452Y-72841301D01*
X155311625Y-72872416D01*
X155874226Y-73435017D01*
X155827708Y-73447482D01*
X155702292Y-73519890D01*
X155599890Y-73622292D01*
X155527482Y-73747708D01*
X155515017Y-73794226D01*
X154952416Y-73231625D01*
X154921301Y-73274453D01*
X154921299Y-73274456D01*
X154882546Y-73350512D01*
X154833798Y-73402127D01*
X154764883Y-73419192D01*
X154697681Y-73396291D01*
X154658013Y-73350511D01*
X154619127Y-73274193D01*
X154555588Y-73186741D01*
X154498068Y-73107570D01*
X154498065Y-73107567D01*
X154498063Y-73107564D01*
X154352435Y-72961936D01*
X154352432Y-72961934D01*
X154352430Y-72961932D01*
X154186391Y-72841298D01*
X154185806Y-72840873D01*
X154185805Y-72840872D01*
X154185803Y-72840871D01*
X154002290Y-72747366D01*
X154002287Y-72747365D01*
X154002285Y-72747364D01*
X153806412Y-72683721D01*
X153806410Y-72683720D01*
X153806408Y-72683720D01*
X153602981Y-72651500D01*
X153397019Y-72651500D01*
X153193592Y-72683720D01*
X153193590Y-72683720D01*
X153193587Y-72683721D01*
X152997714Y-72747364D01*
X152997702Y-72747369D01*
X152966702Y-72763165D01*
X152896925Y-72776269D01*
X152831141Y-72749568D01*
X152790235Y-72691540D01*
X152783500Y-72650898D01*
X152783500Y-67414594D01*
X152803502Y-67346473D01*
X152820405Y-67325499D01*
X153350499Y-66795405D01*
X153412811Y-66761379D01*
X153439594Y-66758500D01*
X153489478Y-66758500D01*
X153489479Y-66758500D01*
X153665000Y-66723587D01*
X153830336Y-66655102D01*
X153979135Y-66555678D01*
X154105678Y-66429135D01*
X154205102Y-66280336D01*
X154273587Y-66115000D01*
X154308500Y-65939479D01*
X154308500Y-65760521D01*
X154273587Y-65585000D01*
X154205102Y-65419664D01*
X154105678Y-65270865D01*
X153979135Y-65144322D01*
X153830336Y-65044898D01*
X153713429Y-64996473D01*
X153665003Y-64976414D01*
X153665001Y-64976413D01*
X153665000Y-64976413D01*
X153576645Y-64958838D01*
X153489481Y-64941500D01*
X153489479Y-64941500D01*
X153310521Y-64941500D01*
X153310518Y-64941500D01*
X153179771Y-64967507D01*
X153135000Y-64976413D01*
X153134999Y-64976413D01*
X153134996Y-64976414D01*
X153017692Y-65025004D01*
X152993611Y-65034979D01*
X152969662Y-65044899D01*
X152820869Y-65144319D01*
X152820862Y-65144324D01*
X152694324Y-65270862D01*
X152694319Y-65270869D01*
X152603419Y-65406912D01*
X152594898Y-65419664D01*
X152580716Y-65453902D01*
X152526414Y-65584996D01*
X152491500Y-65760518D01*
X152491500Y-65810406D01*
X152471498Y-65878527D01*
X152454595Y-65899501D01*
X151657931Y-66696164D01*
X151657926Y-66696171D01*
X151592085Y-66794710D01*
X151588600Y-66799925D01*
X151540845Y-66915215D01*
X151532496Y-66957189D01*
X151516500Y-67037603D01*
X151516500Y-72591555D01*
X151496498Y-72659676D01*
X151442842Y-72706169D01*
X151372568Y-72716273D01*
X151351565Y-72711388D01*
X151266414Y-72683721D01*
X151258465Y-72682462D01*
X151062981Y-72651500D01*
X150857019Y-72651500D01*
X150653592Y-72683720D01*
X150653590Y-72683720D01*
X150653587Y-72683721D01*
X150457716Y-72747364D01*
X150457710Y-72747366D01*
X150453002Y-72748896D01*
X150452680Y-72747906D01*
X150387121Y-72754951D01*
X150323636Y-72723168D01*
X150287412Y-72662108D01*
X150283500Y-72630954D01*
X150283500Y-70803503D01*
X150303502Y-70735382D01*
X150320405Y-70714408D01*
X150355678Y-70679135D01*
X150455102Y-70530336D01*
X150523587Y-70365000D01*
X150558500Y-70189479D01*
X150558500Y-70010521D01*
X150523587Y-69835000D01*
X150455102Y-69669664D01*
X150355678Y-69520865D01*
X150229135Y-69394322D01*
X150080336Y-69294898D01*
X149963429Y-69246473D01*
X149915003Y-69226414D01*
X149915001Y-69226413D01*
X149915000Y-69226413D01*
X149826645Y-69208838D01*
X149739481Y-69191500D01*
X149739479Y-69191500D01*
X149560521Y-69191500D01*
X149560518Y-69191500D01*
X149429771Y-69217507D01*
X149385000Y-69226413D01*
X149384999Y-69226413D01*
X149384996Y-69226414D01*
X149219662Y-69294899D01*
X149070869Y-69394319D01*
X149070862Y-69394324D01*
X148944324Y-69520862D01*
X148944319Y-69520869D01*
X148844899Y-69669662D01*
X148776414Y-69834996D01*
X148741500Y-70010518D01*
X148741500Y-70189481D01*
X148749575Y-70230075D01*
X148770213Y-70333832D01*
X148776414Y-70365003D01*
X148787024Y-70390617D01*
X148844898Y-70530336D01*
X148944322Y-70679135D01*
X148944324Y-70679137D01*
X148979595Y-70714408D01*
X149013621Y-70776720D01*
X149016500Y-70803503D01*
X149016500Y-72604552D01*
X148996498Y-72672673D01*
X148942842Y-72719166D01*
X148872568Y-72729270D01*
X148851564Y-72724385D01*
X148726412Y-72683721D01*
X148726410Y-72683720D01*
X148726408Y-72683720D01*
X148522981Y-72651500D01*
X148317019Y-72651500D01*
X148113592Y-72683720D01*
X148113590Y-72683720D01*
X148113587Y-72683721D01*
X147917714Y-72747364D01*
X147917708Y-72747367D01*
X147734193Y-72840873D01*
X147567567Y-72961934D01*
X147567564Y-72961936D01*
X147421936Y-73107564D01*
X147421934Y-73107567D01*
X147300873Y-73274193D01*
X147262267Y-73349962D01*
X147213518Y-73401577D01*
X147144603Y-73418643D01*
X147077402Y-73395742D01*
X147037733Y-73349962D01*
X147026599Y-73328110D01*
X146999129Y-73274197D01*
X146878068Y-73107570D01*
X146878065Y-73107567D01*
X146878063Y-73107564D01*
X146732435Y-72961936D01*
X146732432Y-72961934D01*
X146732430Y-72961932D01*
X146566391Y-72841298D01*
X146565806Y-72840873D01*
X146565805Y-72840872D01*
X146565803Y-72840871D01*
X146382290Y-72747366D01*
X146382287Y-72747365D01*
X146382285Y-72747364D01*
X146186412Y-72683721D01*
X146186410Y-72683720D01*
X146186408Y-72683720D01*
X145982981Y-72651500D01*
X145777019Y-72651500D01*
X145573592Y-72683720D01*
X145573590Y-72683720D01*
X145573587Y-72683721D01*
X145377714Y-72747364D01*
X145377708Y-72747367D01*
X145194193Y-72840873D01*
X145027567Y-72961934D01*
X145027564Y-72961936D01*
X144881936Y-73107564D01*
X144881934Y-73107567D01*
X144760873Y-73274193D01*
X144722267Y-73349962D01*
X144673518Y-73401577D01*
X144604603Y-73418643D01*
X144537402Y-73395742D01*
X144497733Y-73349962D01*
X144486599Y-73328110D01*
X144459129Y-73274197D01*
X144338068Y-73107570D01*
X144338065Y-73107567D01*
X144338063Y-73107564D01*
X144192435Y-72961936D01*
X144192432Y-72961934D01*
X144192430Y-72961932D01*
X144126171Y-72913792D01*
X144025806Y-72840872D01*
X144014693Y-72835210D01*
X144005979Y-72830770D01*
X143954365Y-72782022D01*
X143937299Y-72713107D01*
X143960200Y-72645906D01*
X143974082Y-72629415D01*
X144641478Y-71962019D01*
X144703788Y-71927995D01*
X144774603Y-71933060D01*
X144778790Y-71934708D01*
X144863698Y-71969878D01*
X144863699Y-71969878D01*
X144863706Y-71969881D01*
X145039227Y-72004794D01*
X145039228Y-72004794D01*
X145218184Y-72004794D01*
X145218185Y-72004794D01*
X145393706Y-71969881D01*
X145559042Y-71901396D01*
X145707841Y-71801972D01*
X145834384Y-71675429D01*
X145933808Y-71526630D01*
X146002293Y-71361294D01*
X146037206Y-71185773D01*
X146037206Y-71006815D01*
X146002293Y-70831294D01*
X145933808Y-70665958D01*
X145834384Y-70517159D01*
X145707841Y-70390616D01*
X145559042Y-70291192D01*
X145421269Y-70234124D01*
X145393709Y-70222708D01*
X145393707Y-70222707D01*
X145393706Y-70222707D01*
X145305351Y-70205132D01*
X145218187Y-70187794D01*
X145218185Y-70187794D01*
X145039227Y-70187794D01*
X145039224Y-70187794D01*
X144908477Y-70213801D01*
X144863706Y-70222707D01*
X144863705Y-70222707D01*
X144863702Y-70222708D01*
X144698368Y-70291193D01*
X144623464Y-70341242D01*
X144549576Y-70390613D01*
X144549570Y-70390617D01*
X144549568Y-70390618D01*
X144486661Y-70453525D01*
X144431865Y-70483445D01*
X144432441Y-70485342D01*
X144426516Y-70487139D01*
X144311225Y-70534894D01*
X144207472Y-70604220D01*
X144207465Y-70604225D01*
X141840189Y-72971500D01*
X141777877Y-73005526D01*
X141707061Y-73000461D01*
X141661999Y-72971500D01*
X141652435Y-72961936D01*
X141652432Y-72961934D01*
X141652430Y-72961932D01*
X141486391Y-72841298D01*
X141485806Y-72840873D01*
X141485805Y-72840872D01*
X141485803Y-72840871D01*
X141302290Y-72747366D01*
X141302287Y-72747365D01*
X141302285Y-72747364D01*
X141106412Y-72683721D01*
X141106410Y-72683720D01*
X141106408Y-72683720D01*
X140902981Y-72651500D01*
X140697019Y-72651500D01*
X140493592Y-72683720D01*
X140493588Y-72683721D01*
X140493147Y-72683791D01*
X140422736Y-72674691D01*
X140384341Y-72648437D01*
X140343835Y-72607931D01*
X140343833Y-72607929D01*
X140240075Y-72538600D01*
X140124785Y-72490845D01*
X140051086Y-72476185D01*
X140002396Y-72466500D01*
X140002394Y-72466500D01*
X139464596Y-72466500D01*
X139396475Y-72446498D01*
X139375501Y-72429596D01*
X139344268Y-72398363D01*
X138969051Y-72023147D01*
X138865293Y-71953818D01*
X138750003Y-71906063D01*
X138676304Y-71891403D01*
X138627614Y-71881718D01*
X138627612Y-71881718D01*
X137879812Y-71881718D01*
X137811691Y-71861716D01*
X137790717Y-71844813D01*
X135820405Y-69874501D01*
X135786379Y-69812189D01*
X135783500Y-69785406D01*
X135783500Y-66414594D01*
X135792283Y-66384678D01*
X135798912Y-66354209D01*
X135802726Y-66349113D01*
X135803502Y-66346473D01*
X135820405Y-66325499D01*
X135850499Y-66295405D01*
X135912811Y-66261379D01*
X135939594Y-66258500D01*
X135989478Y-66258500D01*
X135989479Y-66258500D01*
X136165000Y-66223587D01*
X136330336Y-66155102D01*
X136479135Y-66055678D01*
X136605678Y-65929135D01*
X136705102Y-65780336D01*
X136773587Y-65615000D01*
X136808500Y-65439479D01*
X136808500Y-65260521D01*
X136773587Y-65085000D01*
X136705102Y-64919664D01*
X136605678Y-64770865D01*
X136479135Y-64644322D01*
X136330336Y-64544898D01*
X136200515Y-64491124D01*
X136165003Y-64476414D01*
X136165001Y-64476413D01*
X136165000Y-64476413D01*
X136073014Y-64458116D01*
X135989481Y-64441500D01*
X135989479Y-64441500D01*
X135810521Y-64441500D01*
X135810518Y-64441500D01*
X135679771Y-64467507D01*
X135635000Y-64476413D01*
X135634999Y-64476413D01*
X135634996Y-64476414D01*
X135507719Y-64529135D01*
X135437129Y-64536724D01*
X135373642Y-64504945D01*
X135337414Y-64443887D01*
X135333500Y-64412726D01*
X135333500Y-63804996D01*
X135353502Y-63736875D01*
X135407158Y-63690382D01*
X135459500Y-63678996D01*
X135494982Y-63678996D01*
X135494983Y-63678996D01*
X135670504Y-63644083D01*
X135835840Y-63575598D01*
X135984639Y-63476174D01*
X136111182Y-63349631D01*
X136210606Y-63200832D01*
X136279091Y-63035496D01*
X136314004Y-62859975D01*
X136314004Y-62681017D01*
X136279091Y-62505496D01*
X136210606Y-62340160D01*
X136151001Y-62250954D01*
X160141500Y-62250954D01*
X160141500Y-62449046D01*
X160172488Y-62644700D01*
X160233702Y-62833097D01*
X160299410Y-62962055D01*
X160323636Y-63009601D01*
X160440071Y-63169860D01*
X160580135Y-63309924D01*
X160580138Y-63309926D01*
X160580142Y-63309930D01*
X160630072Y-63346206D01*
X160673425Y-63402429D01*
X160679500Y-63473165D01*
X160646368Y-63535957D01*
X160645106Y-63537237D01*
X160554483Y-63627860D01*
X160451928Y-63769015D01*
X160372713Y-63924482D01*
X160372710Y-63924488D01*
X160337426Y-64033084D01*
X160318795Y-64090426D01*
X160291500Y-64262759D01*
X160291500Y-64437241D01*
X160318795Y-64609574D01*
X160318796Y-64609577D01*
X160371200Y-64770865D01*
X160372712Y-64775516D01*
X160451926Y-64930981D01*
X160554483Y-65072139D01*
X160554485Y-65072141D01*
X160554487Y-65072144D01*
X160677855Y-65195512D01*
X160677858Y-65195514D01*
X160677861Y-65195517D01*
X160707653Y-65217162D01*
X160751007Y-65273384D01*
X160757082Y-65344120D01*
X160723951Y-65406912D01*
X160707654Y-65421033D01*
X160645288Y-65466345D01*
X160645282Y-65466350D01*
X160516350Y-65595282D01*
X160516348Y-65595285D01*
X160409164Y-65742810D01*
X160326374Y-65905293D01*
X160270027Y-66078711D01*
X160270026Y-66078716D01*
X160270026Y-66078717D01*
X160241500Y-66258824D01*
X160241500Y-66441176D01*
X160259636Y-66555680D01*
X160270027Y-66621288D01*
X160326374Y-66794706D01*
X160326375Y-66794709D01*
X160326376Y-66794710D01*
X160409162Y-66957186D01*
X160516346Y-67104712D01*
X160516348Y-67104714D01*
X160516350Y-67104717D01*
X160645282Y-67233649D01*
X160645285Y-67233651D01*
X160645288Y-67233654D01*
X160724828Y-67291443D01*
X160768182Y-67347665D01*
X160770137Y-67360928D01*
X161359209Y-67950000D01*
X161347339Y-67950000D01*
X161245606Y-67977259D01*
X161154394Y-68029920D01*
X161079920Y-68104394D01*
X161027259Y-68195606D01*
X161000000Y-68297339D01*
X161000000Y-68309209D01*
X160419804Y-67729013D01*
X160419803Y-67729014D01*
X160409591Y-67743072D01*
X160326840Y-67905480D01*
X160326837Y-67905486D01*
X160270515Y-68078828D01*
X160242000Y-68258866D01*
X160242000Y-68441133D01*
X160270515Y-68621171D01*
X160326837Y-68794513D01*
X160326840Y-68794519D01*
X160409588Y-68956923D01*
X160419803Y-68970984D01*
X161000000Y-68390788D01*
X161000000Y-68402661D01*
X161027259Y-68504394D01*
X161079920Y-68595606D01*
X161154394Y-68670080D01*
X161245606Y-68722741D01*
X161347339Y-68750000D01*
X161359210Y-68750000D01*
X160948556Y-69160652D01*
X160916665Y-69183822D01*
X160740401Y-69273634D01*
X160580139Y-69390071D01*
X160440071Y-69530139D01*
X160323636Y-69690398D01*
X160233703Y-69866901D01*
X160233702Y-69866903D01*
X160187038Y-70010521D01*
X160172488Y-70055300D01*
X160141500Y-70250954D01*
X160141500Y-70449046D01*
X160172488Y-70644700D01*
X160233702Y-70833097D01*
X160323634Y-71009598D01*
X160323636Y-71009601D01*
X160440071Y-71169860D01*
X160580139Y-71309928D01*
X160580142Y-71309930D01*
X160740402Y-71426366D01*
X160916903Y-71516298D01*
X161105300Y-71577512D01*
X161300954Y-71608500D01*
X161300957Y-71608500D01*
X161499043Y-71608500D01*
X161499046Y-71608500D01*
X161694700Y-71577512D01*
X161883097Y-71516298D01*
X162059598Y-71426366D01*
X162219858Y-71309930D01*
X162359930Y-71169858D01*
X162476366Y-71009598D01*
X162566298Y-70833097D01*
X162627512Y-70644700D01*
X162658500Y-70449046D01*
X162658500Y-70250954D01*
X162627512Y-70055300D01*
X162566298Y-69866903D01*
X162476366Y-69690402D01*
X162359930Y-69530142D01*
X162359928Y-69530139D01*
X162219860Y-69390071D01*
X162059601Y-69273636D01*
X162059600Y-69273635D01*
X162059598Y-69273634D01*
X161883330Y-69183821D01*
X161851439Y-69160650D01*
X161440790Y-68750000D01*
X161452661Y-68750000D01*
X161554394Y-68722741D01*
X161645606Y-68670080D01*
X161720080Y-68595606D01*
X161772741Y-68504394D01*
X161800000Y-68402661D01*
X161800000Y-68390791D01*
X162380193Y-68970984D01*
X162380195Y-68970984D01*
X162390408Y-68956928D01*
X162473159Y-68794519D01*
X162473162Y-68794513D01*
X162529484Y-68621171D01*
X162558000Y-68441133D01*
X162558000Y-68258866D01*
X162529484Y-68078828D01*
X162473162Y-67905486D01*
X162473159Y-67905480D01*
X162390412Y-67743078D01*
X162380194Y-67729014D01*
X161800000Y-68309208D01*
X161800000Y-68297339D01*
X161772741Y-68195606D01*
X161720080Y-68104394D01*
X161645606Y-68029920D01*
X161554394Y-67977259D01*
X161452661Y-67950000D01*
X161440790Y-67950000D01*
X162033216Y-67357572D01*
X162038211Y-67333791D01*
X162075165Y-67291447D01*
X162154712Y-67233654D01*
X162283654Y-67104712D01*
X162390838Y-66957186D01*
X162473624Y-66794710D01*
X162529974Y-66621283D01*
X162558500Y-66441176D01*
X162558500Y-66258824D01*
X162529974Y-66078717D01*
X162478891Y-65921500D01*
X162473625Y-65905293D01*
X162473624Y-65905292D01*
X162473624Y-65905290D01*
X162390838Y-65742814D01*
X162283654Y-65595288D01*
X162283651Y-65595285D01*
X162283649Y-65595282D01*
X162154718Y-65466351D01*
X162154714Y-65466348D01*
X162154712Y-65466346D01*
X162092344Y-65421033D01*
X162048992Y-65364811D01*
X162042917Y-65294075D01*
X162076049Y-65231283D01*
X162092339Y-65217167D01*
X162122139Y-65195517D01*
X162245517Y-65072139D01*
X162348074Y-64930981D01*
X162427288Y-64775516D01*
X162481205Y-64609574D01*
X162508500Y-64437241D01*
X162508500Y-64262759D01*
X162481205Y-64090426D01*
X162427288Y-63924484D01*
X162348074Y-63769019D01*
X162245517Y-63627861D01*
X162245514Y-63627858D01*
X162245512Y-63627855D01*
X162154894Y-63537237D01*
X162120868Y-63474925D01*
X162125933Y-63404110D01*
X162168480Y-63347274D01*
X162169928Y-63346206D01*
X162219858Y-63309930D01*
X162359930Y-63169858D01*
X162476366Y-63009598D01*
X162566298Y-62833097D01*
X162627512Y-62644700D01*
X162658500Y-62449046D01*
X162658500Y-62250954D01*
X162627512Y-62055300D01*
X162566298Y-61866903D01*
X162476366Y-61690402D01*
X162359930Y-61530142D01*
X162359928Y-61530139D01*
X162219860Y-61390071D01*
X162059601Y-61273636D01*
X162059600Y-61273635D01*
X162059598Y-61273634D01*
X161883097Y-61183702D01*
X161694700Y-61122488D01*
X161499046Y-61091500D01*
X161300954Y-61091500D01*
X161105300Y-61122488D01*
X161105297Y-61122488D01*
X161105296Y-61122489D01*
X160916903Y-61183702D01*
X160916901Y-61183703D01*
X160740398Y-61273636D01*
X160580139Y-61390071D01*
X160440071Y-61530139D01*
X160323636Y-61690398D01*
X160233703Y-61866901D01*
X160233702Y-61866903D01*
X160199204Y-61973078D01*
X160172488Y-62055300D01*
X160141500Y-62250954D01*
X136151001Y-62250954D01*
X136111182Y-62191361D01*
X135984639Y-62064818D01*
X135835840Y-61965394D01*
X135689451Y-61904757D01*
X135670507Y-61896910D01*
X135670505Y-61896909D01*
X135670504Y-61896909D01*
X135582149Y-61879334D01*
X135494985Y-61861996D01*
X135494983Y-61861996D01*
X135316025Y-61861996D01*
X135316022Y-61861996D01*
X135185275Y-61888003D01*
X135140504Y-61896909D01*
X135140503Y-61896909D01*
X135140500Y-61896910D01*
X134974939Y-61965489D01*
X134904349Y-61973078D01*
X134840862Y-61941299D01*
X134815495Y-61904757D01*
X134814319Y-61905386D01*
X134811400Y-61899925D01*
X134789334Y-61866901D01*
X134742071Y-61796167D01*
X134653833Y-61707929D01*
X131553833Y-58607929D01*
X131450075Y-58538600D01*
X131334785Y-58490845D01*
X131252643Y-58474506D01*
X131212396Y-58466500D01*
X131212394Y-58466500D01*
X125718469Y-58466500D01*
X125704911Y-58462519D01*
X125690809Y-58463427D01*
X125671518Y-58452714D01*
X125650348Y-58446498D01*
X125641093Y-58435818D01*
X125628741Y-58428958D01*
X125618305Y-58409519D01*
X125603855Y-58392842D01*
X125601156Y-58377573D01*
X125595161Y-58366405D01*
X125593507Y-58340716D01*
X124952948Y-57700157D01*
X125020993Y-57681925D01*
X125135007Y-57616099D01*
X125228099Y-57523007D01*
X125293925Y-57408993D01*
X125312157Y-57340948D01*
X125951376Y-57980167D01*
X125951378Y-57980167D01*
X125989463Y-57927750D01*
X126086506Y-57737292D01*
X126086509Y-57737286D01*
X126152559Y-57534003D01*
X126186000Y-57322873D01*
X126186000Y-57109126D01*
X146790000Y-57109126D01*
X146790000Y-57322873D01*
X146823440Y-57534003D01*
X146889490Y-57737286D01*
X146889493Y-57737292D01*
X146986535Y-57927748D01*
X146986536Y-57927750D01*
X147024620Y-57980167D01*
X147024621Y-57980168D01*
X147663841Y-57340947D01*
X147682075Y-57408993D01*
X147747901Y-57523007D01*
X147840993Y-57616099D01*
X147955007Y-57681925D01*
X148023051Y-57700157D01*
X147383831Y-58339378D01*
X147436249Y-58377463D01*
X147436251Y-58377464D01*
X147626707Y-58474506D01*
X147626713Y-58474509D01*
X147829996Y-58540559D01*
X148041126Y-58574000D01*
X148254874Y-58574000D01*
X148466003Y-58540559D01*
X148669286Y-58474509D01*
X148669292Y-58474506D01*
X148859750Y-58377463D01*
X148912167Y-58339378D01*
X148912167Y-58339376D01*
X148272948Y-57700157D01*
X148340993Y-57681925D01*
X148455007Y-57616099D01*
X148548099Y-57523007D01*
X148613925Y-57408993D01*
X148632157Y-57340948D01*
X149271376Y-57980167D01*
X149271378Y-57980167D01*
X149309463Y-57927750D01*
X149310562Y-57925958D01*
X149311158Y-57925418D01*
X149312377Y-57923741D01*
X149312729Y-57923996D01*
X149363206Y-57878322D01*
X149433246Y-57866710D01*
X149498446Y-57894808D01*
X149523559Y-57923788D01*
X149523624Y-57923742D01*
X149524165Y-57924487D01*
X149525433Y-57925950D01*
X149526535Y-57927749D01*
X149564620Y-57980167D01*
X149564621Y-57980168D01*
X150203841Y-57340947D01*
X150222075Y-57408993D01*
X150287901Y-57523007D01*
X150380993Y-57616099D01*
X150495007Y-57681925D01*
X150563051Y-57700157D01*
X149923831Y-58339378D01*
X149976249Y-58377463D01*
X149976251Y-58377464D01*
X150166707Y-58474506D01*
X150166713Y-58474509D01*
X150369996Y-58540559D01*
X150581126Y-58574000D01*
X150794874Y-58574000D01*
X151006003Y-58540559D01*
X151209286Y-58474509D01*
X151209292Y-58474506D01*
X151399750Y-58377463D01*
X151452167Y-58339378D01*
X151452167Y-58339376D01*
X150812948Y-57700157D01*
X150880993Y-57681925D01*
X150995007Y-57616099D01*
X151088099Y-57523007D01*
X151153925Y-57408993D01*
X151172157Y-57340948D01*
X151811376Y-57980167D01*
X151811378Y-57980167D01*
X151849463Y-57927750D01*
X151850562Y-57925958D01*
X151851158Y-57925418D01*
X151852377Y-57923741D01*
X151852729Y-57923996D01*
X151903206Y-57878322D01*
X151973246Y-57866710D01*
X152038446Y-57894808D01*
X152063559Y-57923788D01*
X152063624Y-57923742D01*
X152064165Y-57924487D01*
X152065433Y-57925950D01*
X152066535Y-57927749D01*
X152104620Y-57980167D01*
X152104621Y-57980168D01*
X152743841Y-57340947D01*
X152762075Y-57408993D01*
X152827901Y-57523007D01*
X152920993Y-57616099D01*
X153035007Y-57681925D01*
X153103051Y-57700157D01*
X152463831Y-58339378D01*
X152516249Y-58377463D01*
X152516251Y-58377464D01*
X152706707Y-58474506D01*
X152706713Y-58474509D01*
X152909996Y-58540559D01*
X153121126Y-58574000D01*
X153334874Y-58574000D01*
X153546003Y-58540559D01*
X153749286Y-58474509D01*
X153749292Y-58474506D01*
X153939750Y-58377463D01*
X153992167Y-58339378D01*
X153992167Y-58339376D01*
X153352948Y-57700157D01*
X153420993Y-57681925D01*
X153535007Y-57616099D01*
X153628099Y-57523007D01*
X153693925Y-57408993D01*
X153712157Y-57340948D01*
X154381794Y-58010585D01*
X154415820Y-58072897D01*
X154412030Y-58133471D01*
X154416505Y-58175093D01*
X154467555Y-58311964D01*
X154467555Y-58311965D01*
X154555095Y-58428904D01*
X154672034Y-58516444D01*
X154808906Y-58567494D01*
X154869402Y-58573999D01*
X154869415Y-58574000D01*
X155514000Y-58574000D01*
X155514000Y-57646702D01*
X155575007Y-57681925D01*
X155702174Y-57716000D01*
X155833826Y-57716000D01*
X155960993Y-57681925D01*
X156022000Y-57646702D01*
X156022000Y-58574000D01*
X156666585Y-58574000D01*
X156666597Y-58573999D01*
X156727093Y-58567494D01*
X156863964Y-58516444D01*
X156863965Y-58516444D01*
X156980904Y-58428904D01*
X157068444Y-58311965D01*
X157068444Y-58311964D01*
X157119494Y-58175093D01*
X157125999Y-58114597D01*
X157126000Y-58114585D01*
X157126000Y-57470000D01*
X156198703Y-57470000D01*
X156233925Y-57408993D01*
X156268000Y-57281826D01*
X156268000Y-57150174D01*
X156233925Y-57023007D01*
X156198703Y-56962000D01*
X157126000Y-56962000D01*
X157126000Y-56317414D01*
X157125999Y-56317402D01*
X157119494Y-56256906D01*
X157068444Y-56120035D01*
X157068444Y-56120034D01*
X156980904Y-56003095D01*
X156863965Y-55915555D01*
X156727093Y-55864505D01*
X156666597Y-55858000D01*
X156022000Y-55858000D01*
X156022000Y-56785297D01*
X155960993Y-56750075D01*
X155833826Y-56716000D01*
X155702174Y-56716000D01*
X155575007Y-56750075D01*
X155514000Y-56785297D01*
X155514000Y-55858000D01*
X154869402Y-55858000D01*
X154808906Y-55864505D01*
X154672035Y-55915555D01*
X154672034Y-55915555D01*
X154555095Y-56003095D01*
X154467555Y-56120034D01*
X154467555Y-56120035D01*
X154416505Y-56256905D01*
X154411981Y-56298978D01*
X154415319Y-56361301D01*
X154381794Y-56421414D01*
X153712157Y-57091051D01*
X153693925Y-57023007D01*
X153628099Y-56908993D01*
X153535007Y-56815901D01*
X153420993Y-56750075D01*
X153352947Y-56731841D01*
X153992168Y-56092621D01*
X153992167Y-56092620D01*
X153939750Y-56054536D01*
X153939748Y-56054535D01*
X153749292Y-55957493D01*
X153749286Y-55957490D01*
X153546003Y-55891440D01*
X153334874Y-55858000D01*
X153121126Y-55858000D01*
X152909996Y-55891440D01*
X152706713Y-55957490D01*
X152706707Y-55957493D01*
X152516253Y-56054534D01*
X152463831Y-56092621D01*
X152463831Y-56092622D01*
X153103051Y-56731842D01*
X153035007Y-56750075D01*
X152920993Y-56815901D01*
X152827901Y-56908993D01*
X152762075Y-57023007D01*
X152743842Y-57091051D01*
X152104622Y-56451831D01*
X152104621Y-56451831D01*
X152066522Y-56504269D01*
X152065422Y-56506065D01*
X152064827Y-56506603D01*
X152063624Y-56508259D01*
X152063275Y-56508006D01*
X152012768Y-56553689D01*
X151942725Y-56565286D01*
X151877531Y-56537174D01*
X151852440Y-56508211D01*
X151852376Y-56508258D01*
X151851830Y-56507506D01*
X151850563Y-56506044D01*
X151849462Y-56504248D01*
X151811378Y-56451831D01*
X151172157Y-57091051D01*
X151153925Y-57023007D01*
X151088099Y-56908993D01*
X150995007Y-56815901D01*
X150880993Y-56750075D01*
X150812947Y-56731841D01*
X151452168Y-56092621D01*
X151452167Y-56092620D01*
X151399750Y-56054536D01*
X151399748Y-56054535D01*
X151209292Y-55957493D01*
X151209286Y-55957490D01*
X151006003Y-55891440D01*
X150794874Y-55858000D01*
X150581126Y-55858000D01*
X150369996Y-55891440D01*
X150166713Y-55957490D01*
X150166707Y-55957493D01*
X149976253Y-56054534D01*
X149923831Y-56092621D01*
X149923831Y-56092622D01*
X150563051Y-56731842D01*
X150495007Y-56750075D01*
X150380993Y-56815901D01*
X150287901Y-56908993D01*
X150222075Y-57023007D01*
X150203842Y-57091051D01*
X149564622Y-56451831D01*
X149564621Y-56451831D01*
X149526522Y-56504269D01*
X149525422Y-56506065D01*
X149524827Y-56506603D01*
X149523624Y-56508259D01*
X149523275Y-56508006D01*
X149472768Y-56553689D01*
X149402725Y-56565286D01*
X149337531Y-56537174D01*
X149312440Y-56508211D01*
X149312376Y-56508258D01*
X149311830Y-56507506D01*
X149310563Y-56506044D01*
X149309462Y-56504248D01*
X149271378Y-56451831D01*
X148632157Y-57091051D01*
X148613925Y-57023007D01*
X148548099Y-56908993D01*
X148455007Y-56815901D01*
X148340993Y-56750075D01*
X148272947Y-56731841D01*
X148912168Y-56092621D01*
X148912167Y-56092620D01*
X148859750Y-56054536D01*
X148859748Y-56054535D01*
X148669292Y-55957493D01*
X148669286Y-55957490D01*
X148466003Y-55891440D01*
X148254874Y-55858000D01*
X148041126Y-55858000D01*
X147829996Y-55891440D01*
X147626713Y-55957490D01*
X147626707Y-55957493D01*
X147436253Y-56054534D01*
X147383831Y-56092621D01*
X147383831Y-56092622D01*
X148023051Y-56731842D01*
X147955007Y-56750075D01*
X147840993Y-56815901D01*
X147747901Y-56908993D01*
X147682075Y-57023007D01*
X147663842Y-57091051D01*
X147024622Y-56451831D01*
X147024621Y-56451831D01*
X146986534Y-56504253D01*
X146889493Y-56694707D01*
X146889490Y-56694713D01*
X146823440Y-56897996D01*
X146790000Y-57109126D01*
X126186000Y-57109126D01*
X126152559Y-56897996D01*
X126086509Y-56694713D01*
X126086506Y-56694707D01*
X125989464Y-56504251D01*
X125989463Y-56504249D01*
X125951378Y-56451831D01*
X125312157Y-57091051D01*
X125293925Y-57023007D01*
X125228099Y-56908993D01*
X125135007Y-56815901D01*
X125020993Y-56750075D01*
X124952947Y-56731841D01*
X125592168Y-56092621D01*
X125592167Y-56092620D01*
X125539750Y-56054536D01*
X125539748Y-56054535D01*
X125349292Y-55957493D01*
X125349286Y-55957490D01*
X125146003Y-55891440D01*
X124934874Y-55858000D01*
X124721126Y-55858000D01*
X124509996Y-55891440D01*
X124306713Y-55957490D01*
X124306707Y-55957493D01*
X124116253Y-56054534D01*
X124063831Y-56092621D01*
X124063831Y-56092622D01*
X124703051Y-56731842D01*
X124635007Y-56750075D01*
X124520993Y-56815901D01*
X124427901Y-56908993D01*
X124362075Y-57023007D01*
X124343842Y-57091051D01*
X123704622Y-56451831D01*
X123704621Y-56451831D01*
X123666522Y-56504269D01*
X123665422Y-56506065D01*
X123664827Y-56506603D01*
X123663624Y-56508259D01*
X123663275Y-56508006D01*
X123612768Y-56553689D01*
X123542725Y-56565286D01*
X123477531Y-56537174D01*
X123452440Y-56508211D01*
X123452376Y-56508258D01*
X123451830Y-56507506D01*
X123450563Y-56506044D01*
X123449462Y-56504248D01*
X123411378Y-56451831D01*
X122772157Y-57091051D01*
X122753925Y-57023007D01*
X122688099Y-56908993D01*
X122595007Y-56815901D01*
X122480993Y-56750075D01*
X122412947Y-56731841D01*
X123052168Y-56092621D01*
X123052167Y-56092620D01*
X122999750Y-56054536D01*
X122999748Y-56054535D01*
X122809292Y-55957493D01*
X122809286Y-55957490D01*
X122606003Y-55891440D01*
X122394874Y-55858000D01*
X122181126Y-55858000D01*
X121969996Y-55891440D01*
X121766713Y-55957490D01*
X121766707Y-55957493D01*
X121576253Y-56054534D01*
X121523831Y-56092621D01*
X121523831Y-56092622D01*
X122163051Y-56731842D01*
X122095007Y-56750075D01*
X121980993Y-56815901D01*
X121887901Y-56908993D01*
X121822075Y-57023007D01*
X121803842Y-57091051D01*
X121164622Y-56451831D01*
X121164621Y-56451831D01*
X121126522Y-56504269D01*
X121125422Y-56506065D01*
X121124827Y-56506603D01*
X121123624Y-56508259D01*
X121123275Y-56508006D01*
X121072768Y-56553689D01*
X121002725Y-56565286D01*
X120937531Y-56537174D01*
X120912440Y-56508211D01*
X120912376Y-56508258D01*
X120911830Y-56507506D01*
X120910563Y-56506044D01*
X120909462Y-56504248D01*
X120871378Y-56451831D01*
X120232157Y-57091051D01*
X120213925Y-57023007D01*
X120148099Y-56908993D01*
X120055007Y-56815901D01*
X119940993Y-56750075D01*
X119872947Y-56731841D01*
X120512168Y-56092621D01*
X120512167Y-56092620D01*
X120459750Y-56054536D01*
X120459748Y-56054535D01*
X120269292Y-55957493D01*
X120269286Y-55957490D01*
X120066003Y-55891440D01*
X119854874Y-55858000D01*
X119641126Y-55858000D01*
X119429996Y-55891440D01*
X119298436Y-55934186D01*
X119227468Y-55936213D01*
X119166670Y-55899551D01*
X119135345Y-55835838D01*
X119133500Y-55814353D01*
X119133500Y-44022607D01*
X119133499Y-44022603D01*
X119109155Y-43900215D01*
X119061400Y-43784925D01*
X118992071Y-43681167D01*
X118903833Y-43592929D01*
X117588833Y-42277929D01*
X117492979Y-42213881D01*
X117447452Y-42159405D01*
X117438265Y-42091184D01*
X117448500Y-42020000D01*
X117448500Y-41404174D01*
X117431002Y-41271268D01*
X117396927Y-41144101D01*
X117345629Y-41020257D01*
X117325559Y-40985495D01*
X117279805Y-40906246D01*
X117279800Y-40906239D01*
X117198205Y-40799902D01*
X117198186Y-40799881D01*
X117105118Y-40706813D01*
X117105097Y-40706794D01*
X116998760Y-40625199D01*
X116998753Y-40625194D01*
X116884754Y-40559377D01*
X116884744Y-40559371D01*
X116760894Y-40508071D01*
X116633738Y-40473999D01*
X116633725Y-40473996D01*
X116500828Y-40456500D01*
X116500826Y-40456500D01*
X116461594Y-40456500D01*
X116393473Y-40436498D01*
X116372499Y-40419595D01*
X114100133Y-38147229D01*
X114066107Y-38084917D01*
X114069397Y-38019191D01*
X114072928Y-38008327D01*
X114106400Y-37796987D01*
X114106400Y-37583013D01*
X114072928Y-37371673D01*
X114006806Y-37168171D01*
X113909664Y-36977519D01*
X113783893Y-36804410D01*
X113783890Y-36804407D01*
X113783888Y-36804404D01*
X113632595Y-36653111D01*
X113632592Y-36653109D01*
X113632590Y-36653107D01*
X113459481Y-36527336D01*
X113268829Y-36430194D01*
X113200995Y-36408153D01*
X113065329Y-36364072D01*
X112959657Y-36347336D01*
X112853987Y-36330600D01*
X112640013Y-36330600D01*
X112555477Y-36343988D01*
X112428670Y-36364072D01*
X112225171Y-36430194D01*
X112225169Y-36430195D01*
X112034515Y-36527338D01*
X111861407Y-36653109D01*
X111861404Y-36653111D01*
X111710111Y-36804404D01*
X111710109Y-36804407D01*
X111584338Y-36977515D01*
X111487195Y-37168169D01*
X111487194Y-37168171D01*
X111421072Y-37371670D01*
X111387600Y-37583015D01*
X104925500Y-37583015D01*
X104925500Y-36102595D01*
X104925608Y-36097388D01*
X104925937Y-36089438D01*
X104942275Y-35694398D01*
X104943132Y-35684055D01*
X104992702Y-35286384D01*
X104994415Y-35276124D01*
X105038094Y-35067808D01*
X105076651Y-34883917D01*
X105079197Y-34873860D01*
X105193551Y-34489755D01*
X105196922Y-34479937D01*
X105342593Y-34106615D01*
X105346773Y-34097087D01*
X105447557Y-33890930D01*
X105522775Y-33737069D01*
X105527718Y-33727935D01*
X105732850Y-33383677D01*
X105738534Y-33374976D01*
X105971408Y-33048818D01*
X105977767Y-33040647D01*
X106236793Y-32734815D01*
X106243823Y-32727180D01*
X106527180Y-32443823D01*
X106534815Y-32436793D01*
X106840647Y-32177767D01*
X106848818Y-32171408D01*
X107174976Y-31938534D01*
X107183677Y-31932850D01*
X107527935Y-31727718D01*
X107537069Y-31722775D01*
X107897095Y-31546769D01*
X107906615Y-31542593D01*
X108279937Y-31396922D01*
X108289755Y-31393551D01*
X108673860Y-31279197D01*
X108683917Y-31276651D01*
X109076132Y-31194413D01*
X109086384Y-31192702D01*
X109484055Y-31143132D01*
X109494398Y-31142275D01*
X109897389Y-31125608D01*
X109902596Y-31125500D01*
X109908285Y-31125500D01*
X116666715Y-31125500D01*
X116672404Y-31125500D01*
X116677611Y-31125608D01*
G37*
G04 #@! TD.AperFunction*
M02*
