G04 #@! TF.GenerationSoftware,KiCad,Pcbnew,9.0.2*
G04 #@! TF.CreationDate,2025-10-10T20:31:06-04:00*
G04 #@! TF.ProjectId,Trackball,54726163-6b62-4616-9c6c-2e6b69636164,rev?*
G04 #@! TF.SameCoordinates,Original*
G04 #@! TF.FileFunction,Soldermask,Bot*
G04 #@! TF.FilePolarity,Negative*
%FSLAX46Y46*%
G04 Gerber Fmt 4.6, Leading zero omitted, Abs format (unit mm)*
G04 Created by KiCad (PCBNEW 9.0.2) date 2025-10-10 20:31:06*
%MOMM*%
%LPD*%
G01*
G04 APERTURE LIST*
G04 APERTURE END LIST*
G36*
X113008808Y-124678936D02*
G01*
X113172153Y-124746595D01*
X113319159Y-124844822D01*
X113444178Y-124969841D01*
X113542405Y-125116847D01*
X113610064Y-125280192D01*
X113644557Y-125453598D01*
X113644557Y-125630402D01*
X113610064Y-125803808D01*
X113542405Y-125967153D01*
X113444178Y-126114159D01*
X113319159Y-126239178D01*
X113172153Y-126337405D01*
X113008808Y-126405064D01*
X112835402Y-126439557D01*
X112658598Y-126439557D01*
X112485192Y-126405064D01*
X112321847Y-126337405D01*
X112174841Y-126239178D01*
X112049822Y-126114159D01*
X111951595Y-125967153D01*
X111883936Y-125803808D01*
X111849443Y-125630402D01*
X111849443Y-125453598D01*
X111883936Y-125280192D01*
X111951595Y-125116847D01*
X112049822Y-124969841D01*
X112174841Y-124844822D01*
X112321847Y-124746595D01*
X112485192Y-124678936D01*
X112658598Y-124644443D01*
X112835402Y-124644443D01*
X113008808Y-124678936D01*
G37*
G36*
X116160328Y-118698278D02*
G01*
X116207068Y-118698278D01*
X116215263Y-118698278D01*
X116229757Y-118700186D01*
X116292796Y-118717077D01*
X116347921Y-118731847D01*
X116347922Y-118731847D01*
X116355836Y-118733968D01*
X116369342Y-118739563D01*
X116376433Y-118743657D01*
X116376440Y-118743660D01*
X116475285Y-118800728D01*
X116475290Y-118800732D01*
X116482381Y-118804826D01*
X116493979Y-118813725D01*
X116586275Y-118906021D01*
X116595174Y-118917619D01*
X116599268Y-118924710D01*
X116599271Y-118924714D01*
X116656339Y-119023559D01*
X116656340Y-119023562D01*
X116660437Y-119030658D01*
X116666032Y-119044164D01*
X116699814Y-119170243D01*
X116701722Y-119184737D01*
X116701722Y-119192931D01*
X116701722Y-119231741D01*
X116704328Y-119245964D01*
X116706000Y-119250000D01*
X116706000Y-119800000D01*
X116696761Y-119822304D01*
X116696273Y-119824285D01*
X116695649Y-119824989D01*
X116689598Y-119839598D01*
X116678712Y-119844106D01*
X116666246Y-119858179D01*
X116650000Y-119901016D01*
X116650000Y-119944913D01*
X116660765Y-119980400D01*
X116680844Y-120010451D01*
X116686062Y-120013938D01*
X116697118Y-120030483D01*
X116701000Y-120050000D01*
X116701000Y-121050000D01*
X116697118Y-121069517D01*
X116686062Y-121086062D01*
X116680843Y-121089548D01*
X116660765Y-121119599D01*
X116650000Y-121155086D01*
X116650000Y-121202786D01*
X116672025Y-121251723D01*
X116674992Y-121254352D01*
X116689598Y-121260402D01*
X116706000Y-121300000D01*
X116706000Y-121850000D01*
X116701722Y-121860328D01*
X116701722Y-121915263D01*
X116699814Y-121929757D01*
X116666032Y-122055836D01*
X116660437Y-122069342D01*
X116595174Y-122182381D01*
X116586275Y-122193979D01*
X116493979Y-122286275D01*
X116482381Y-122295174D01*
X116369342Y-122360437D01*
X116355836Y-122366032D01*
X116229757Y-122399814D01*
X116215263Y-122401722D01*
X116207068Y-122401722D01*
X116168259Y-122401722D01*
X116154034Y-122404328D01*
X116150000Y-122406000D01*
X116145431Y-122406000D01*
X115665176Y-122406000D01*
X115650000Y-122406000D01*
X115639672Y-122401722D01*
X115592932Y-122401722D01*
X115584737Y-122401722D01*
X115570243Y-122399814D01*
X115444164Y-122366032D01*
X115430658Y-122360437D01*
X115423562Y-122356340D01*
X115423559Y-122356339D01*
X115324714Y-122299271D01*
X115324710Y-122299268D01*
X115317619Y-122295174D01*
X115306021Y-122286275D01*
X115213725Y-122193979D01*
X115204826Y-122182381D01*
X115200732Y-122175290D01*
X115200728Y-122175285D01*
X115143660Y-122076440D01*
X115143657Y-122076433D01*
X115139563Y-122069342D01*
X115133968Y-122055836D01*
X115100186Y-121929757D01*
X115098278Y-121915263D01*
X115098278Y-121868256D01*
X115095671Y-121854035D01*
X115094000Y-121850000D01*
X115094000Y-121300000D01*
X115103235Y-121277702D01*
X115103726Y-121275714D01*
X115104352Y-121275006D01*
X115110402Y-121260402D01*
X115121285Y-121255893D01*
X115133755Y-121241819D01*
X115150000Y-121198983D01*
X115150000Y-121155086D01*
X115139235Y-121119599D01*
X115119154Y-121089547D01*
X115113938Y-121086062D01*
X115102882Y-121069517D01*
X115099000Y-121050000D01*
X115099000Y-120050000D01*
X115102882Y-120030483D01*
X115113938Y-120013938D01*
X115119154Y-120010452D01*
X115139235Y-119980400D01*
X115150000Y-119944913D01*
X115150000Y-119897212D01*
X115127974Y-119848274D01*
X115125011Y-119845649D01*
X115110402Y-119839598D01*
X115094000Y-119800000D01*
X115094000Y-119250000D01*
X115098278Y-119239671D01*
X115098278Y-119184737D01*
X115100186Y-119170243D01*
X115133968Y-119044164D01*
X115139563Y-119030658D01*
X115143655Y-119023568D01*
X115143660Y-119023559D01*
X115200728Y-118924714D01*
X115200734Y-118924705D01*
X115204826Y-118917619D01*
X115213725Y-118906021D01*
X115219509Y-118900236D01*
X115219513Y-118900232D01*
X115300232Y-118819513D01*
X115300236Y-118819509D01*
X115306021Y-118813725D01*
X115317619Y-118804826D01*
X115324705Y-118800734D01*
X115324714Y-118800728D01*
X115423559Y-118743660D01*
X115423568Y-118743655D01*
X115430658Y-118739563D01*
X115444164Y-118733968D01*
X115452074Y-118731848D01*
X115452078Y-118731847D01*
X115562327Y-118702307D01*
X115562327Y-118702306D01*
X115570243Y-118700186D01*
X115584737Y-118698278D01*
X115631741Y-118698278D01*
X115645965Y-118695671D01*
X115650000Y-118694000D01*
X116150000Y-118694000D01*
X116160328Y-118698278D01*
G37*
G36*
X113008808Y-119598936D02*
G01*
X113172153Y-119666595D01*
X113319159Y-119764822D01*
X113444178Y-119889841D01*
X113542405Y-120036847D01*
X113610064Y-120200192D01*
X113644557Y-120373598D01*
X113644557Y-120550402D01*
X113610064Y-120723808D01*
X113542405Y-120887153D01*
X113444178Y-121034159D01*
X113319159Y-121159178D01*
X113172153Y-121257405D01*
X113008808Y-121325064D01*
X112835402Y-121359557D01*
X112658598Y-121359557D01*
X112485192Y-121325064D01*
X112321847Y-121257405D01*
X112174841Y-121159178D01*
X112049822Y-121034159D01*
X111951595Y-120887153D01*
X111883936Y-120723808D01*
X111849443Y-120550402D01*
X111849443Y-120373598D01*
X111883936Y-120200192D01*
X111951595Y-120036847D01*
X112049822Y-119889841D01*
X112174841Y-119764822D01*
X112321847Y-119666595D01*
X112485192Y-119598936D01*
X112658598Y-119564443D01*
X112835402Y-119564443D01*
X113008808Y-119598936D01*
G37*
G36*
X113617417Y-114483982D02*
G01*
X113633962Y-114495038D01*
X113645018Y-114511583D01*
X113648900Y-114531100D01*
X113648900Y-116232900D01*
X113645018Y-116252417D01*
X113633962Y-116268962D01*
X113617417Y-116280018D01*
X113597900Y-116283900D01*
X111896100Y-116283900D01*
X111876583Y-116280018D01*
X111860038Y-116268962D01*
X111848982Y-116252417D01*
X111845100Y-116232900D01*
X111845100Y-114531100D01*
X111848982Y-114511583D01*
X111860038Y-114495038D01*
X111876583Y-114483982D01*
X111896100Y-114480100D01*
X113597900Y-114480100D01*
X113617417Y-114483982D01*
G37*
G36*
X109793466Y-106536851D02*
G01*
X109810011Y-106547907D01*
X111012093Y-107749989D01*
X111023149Y-107766534D01*
X111027030Y-107786051D01*
X111023149Y-107805568D01*
X111012093Y-107822113D01*
X109810011Y-109024195D01*
X109793466Y-109035251D01*
X109773949Y-109039132D01*
X109754432Y-109035251D01*
X109737887Y-109024195D01*
X108535805Y-107822113D01*
X108524749Y-107805568D01*
X108520868Y-107786051D01*
X108524749Y-107766534D01*
X108535805Y-107749989D01*
X109432277Y-106853517D01*
X109729182Y-106556611D01*
X109729185Y-106556608D01*
X109737887Y-106547907D01*
X109754432Y-106536851D01*
X109773949Y-106532970D01*
X109793466Y-106536851D01*
G37*
G36*
X111831546Y-105127797D02*
G01*
X111994728Y-105195389D01*
X112141588Y-105293518D01*
X112266482Y-105418412D01*
X112364611Y-105565272D01*
X112432203Y-105728454D01*
X112466661Y-105901687D01*
X112466661Y-106078313D01*
X112432203Y-106251546D01*
X112364611Y-106414728D01*
X112266482Y-106561588D01*
X112141588Y-106686482D01*
X111994728Y-106784611D01*
X111831546Y-106852203D01*
X111658313Y-106886661D01*
X111481687Y-106886661D01*
X111308454Y-106852203D01*
X111145272Y-106784611D01*
X110998412Y-106686482D01*
X110873518Y-106561588D01*
X110775389Y-106414728D01*
X110707797Y-106251546D01*
X110673339Y-106078313D01*
X110673339Y-105901687D01*
X110707797Y-105728454D01*
X110775389Y-105565272D01*
X110873518Y-105418412D01*
X110998412Y-105293518D01*
X111145272Y-105195389D01*
X111308454Y-105127797D01*
X111481687Y-105093339D01*
X111658313Y-105093339D01*
X111831546Y-105127797D01*
G37*
G36*
X118077517Y-105086882D02*
G01*
X118094062Y-105097938D01*
X118105118Y-105114483D01*
X118109000Y-105134000D01*
X118109000Y-106834000D01*
X118105118Y-106853517D01*
X118094062Y-106870062D01*
X118077517Y-106881118D01*
X118058000Y-106885000D01*
X116358000Y-106885000D01*
X116338483Y-106881118D01*
X116321938Y-106870062D01*
X116310882Y-106853517D01*
X116307000Y-106834000D01*
X116307000Y-105134000D01*
X116310882Y-105114483D01*
X116321938Y-105097938D01*
X116338483Y-105086882D01*
X116358000Y-105083000D01*
X118058000Y-105083000D01*
X118077517Y-105086882D01*
G37*
G36*
X156637517Y-105086882D02*
G01*
X156654062Y-105097938D01*
X156665118Y-105114483D01*
X156669000Y-105134000D01*
X156669000Y-106834000D01*
X156665118Y-106853517D01*
X156654062Y-106870062D01*
X156637517Y-106881118D01*
X156618000Y-106885000D01*
X154918000Y-106885000D01*
X154898483Y-106881118D01*
X154881938Y-106870062D01*
X154870882Y-106853517D01*
X154867000Y-106834000D01*
X154867000Y-105134000D01*
X154870882Y-105114483D01*
X154881938Y-105097938D01*
X154898483Y-105086882D01*
X154918000Y-105083000D01*
X156618000Y-105083000D01*
X156637517Y-105086882D01*
G37*
G36*
X120009546Y-105121797D02*
G01*
X120172728Y-105189389D01*
X120319588Y-105287518D01*
X120444482Y-105412412D01*
X120542611Y-105559272D01*
X120610203Y-105722454D01*
X120644661Y-105895687D01*
X120644661Y-106072313D01*
X120610203Y-106245546D01*
X120542611Y-106408728D01*
X120444482Y-106555588D01*
X120319588Y-106680482D01*
X120172728Y-106778611D01*
X120009546Y-106846203D01*
X119836313Y-106880661D01*
X119659687Y-106880661D01*
X119486454Y-106846203D01*
X119323272Y-106778611D01*
X119176412Y-106680482D01*
X119051518Y-106555588D01*
X118953389Y-106408728D01*
X118885797Y-106245546D01*
X118851339Y-106072313D01*
X118851339Y-105895687D01*
X118885797Y-105722454D01*
X118953389Y-105559272D01*
X119051518Y-105412412D01*
X119176412Y-105287518D01*
X119323272Y-105189389D01*
X119486454Y-105121797D01*
X119659687Y-105087339D01*
X119836313Y-105087339D01*
X120009546Y-105121797D01*
G37*
G36*
X122549546Y-105121797D02*
G01*
X122712728Y-105189389D01*
X122859588Y-105287518D01*
X122984482Y-105412412D01*
X123082611Y-105559272D01*
X123150203Y-105722454D01*
X123184661Y-105895687D01*
X123184661Y-106072313D01*
X123150203Y-106245546D01*
X123082611Y-106408728D01*
X122984482Y-106555588D01*
X122859588Y-106680482D01*
X122712728Y-106778611D01*
X122549546Y-106846203D01*
X122376313Y-106880661D01*
X122199687Y-106880661D01*
X122026454Y-106846203D01*
X121863272Y-106778611D01*
X121716412Y-106680482D01*
X121591518Y-106555588D01*
X121493389Y-106408728D01*
X121425797Y-106245546D01*
X121391339Y-106072313D01*
X121391339Y-105895687D01*
X121425797Y-105722454D01*
X121493389Y-105559272D01*
X121591518Y-105412412D01*
X121716412Y-105287518D01*
X121863272Y-105189389D01*
X122026454Y-105121797D01*
X122199687Y-105087339D01*
X122376313Y-105087339D01*
X122549546Y-105121797D01*
G37*
G36*
X125089546Y-105121797D02*
G01*
X125252728Y-105189389D01*
X125399588Y-105287518D01*
X125524482Y-105412412D01*
X125622611Y-105559272D01*
X125690203Y-105722454D01*
X125724661Y-105895687D01*
X125724661Y-106072313D01*
X125690203Y-106245546D01*
X125622611Y-106408728D01*
X125524482Y-106555588D01*
X125399588Y-106680482D01*
X125252728Y-106778611D01*
X125089546Y-106846203D01*
X124916313Y-106880661D01*
X124739687Y-106880661D01*
X124566454Y-106846203D01*
X124403272Y-106778611D01*
X124256412Y-106680482D01*
X124131518Y-106555588D01*
X124033389Y-106408728D01*
X123965797Y-106245546D01*
X123931339Y-106072313D01*
X123931339Y-105895687D01*
X123965797Y-105722454D01*
X124033389Y-105559272D01*
X124131518Y-105412412D01*
X124256412Y-105287518D01*
X124403272Y-105189389D01*
X124566454Y-105121797D01*
X124739687Y-105087339D01*
X124916313Y-105087339D01*
X125089546Y-105121797D01*
G37*
G36*
X148409546Y-105121797D02*
G01*
X148572728Y-105189389D01*
X148719588Y-105287518D01*
X148844482Y-105412412D01*
X148942611Y-105559272D01*
X149010203Y-105722454D01*
X149044661Y-105895687D01*
X149044661Y-106072313D01*
X149010203Y-106245546D01*
X148942611Y-106408728D01*
X148844482Y-106555588D01*
X148719588Y-106680482D01*
X148572728Y-106778611D01*
X148409546Y-106846203D01*
X148236313Y-106880661D01*
X148059687Y-106880661D01*
X147886454Y-106846203D01*
X147723272Y-106778611D01*
X147576412Y-106680482D01*
X147451518Y-106555588D01*
X147353389Y-106408728D01*
X147285797Y-106245546D01*
X147251339Y-106072313D01*
X147251339Y-105895687D01*
X147285797Y-105722454D01*
X147353389Y-105559272D01*
X147451518Y-105412412D01*
X147576412Y-105287518D01*
X147723272Y-105189389D01*
X147886454Y-105121797D01*
X148059687Y-105087339D01*
X148236313Y-105087339D01*
X148409546Y-105121797D01*
G37*
G36*
X150949546Y-105121797D02*
G01*
X151112728Y-105189389D01*
X151259588Y-105287518D01*
X151384482Y-105412412D01*
X151482611Y-105559272D01*
X151550203Y-105722454D01*
X151584661Y-105895687D01*
X151584661Y-106072313D01*
X151550203Y-106245546D01*
X151482611Y-106408728D01*
X151384482Y-106555588D01*
X151259588Y-106680482D01*
X151112728Y-106778611D01*
X150949546Y-106846203D01*
X150776313Y-106880661D01*
X150599687Y-106880661D01*
X150426454Y-106846203D01*
X150263272Y-106778611D01*
X150116412Y-106680482D01*
X149991518Y-106555588D01*
X149893389Y-106408728D01*
X149825797Y-106245546D01*
X149791339Y-106072313D01*
X149791339Y-105895687D01*
X149825797Y-105722454D01*
X149893389Y-105559272D01*
X149991518Y-105412412D01*
X150116412Y-105287518D01*
X150263272Y-105189389D01*
X150426454Y-105121797D01*
X150599687Y-105087339D01*
X150776313Y-105087339D01*
X150949546Y-105121797D01*
G37*
G36*
X153489546Y-105121797D02*
G01*
X153652728Y-105189389D01*
X153799588Y-105287518D01*
X153924482Y-105412412D01*
X154022611Y-105559272D01*
X154090203Y-105722454D01*
X154124661Y-105895687D01*
X154124661Y-106072313D01*
X154090203Y-106245546D01*
X154022611Y-106408728D01*
X153924482Y-106555588D01*
X153799588Y-106680482D01*
X153652728Y-106778611D01*
X153489546Y-106846203D01*
X153316313Y-106880661D01*
X153139687Y-106880661D01*
X152966454Y-106846203D01*
X152803272Y-106778611D01*
X152656412Y-106680482D01*
X152531518Y-106555588D01*
X152433389Y-106408728D01*
X152365797Y-106245546D01*
X152331339Y-106072313D01*
X152331339Y-105895687D01*
X152365797Y-105722454D01*
X152433389Y-105559272D01*
X152531518Y-105412412D01*
X152656412Y-105287518D01*
X152803272Y-105189389D01*
X152966454Y-105121797D01*
X153139687Y-105087339D01*
X153316313Y-105087339D01*
X153489546Y-105121797D01*
G37*
G36*
X113627597Y-103331746D02*
G01*
X113790779Y-103399338D01*
X113937639Y-103497467D01*
X114062533Y-103622361D01*
X114160662Y-103769221D01*
X114228254Y-103932403D01*
X114262712Y-104105636D01*
X114262712Y-104282262D01*
X114228254Y-104455495D01*
X114160662Y-104618677D01*
X114062533Y-104765537D01*
X113937639Y-104890431D01*
X113790779Y-104988560D01*
X113627597Y-105056152D01*
X113454364Y-105090610D01*
X113277738Y-105090610D01*
X113104505Y-105056152D01*
X112941323Y-104988560D01*
X112794463Y-104890431D01*
X112669569Y-104765537D01*
X112571440Y-104618677D01*
X112503848Y-104455495D01*
X112469390Y-104282262D01*
X112469390Y-104105636D01*
X112503848Y-103932403D01*
X112571440Y-103769221D01*
X112669569Y-103622361D01*
X112794463Y-103497467D01*
X112941323Y-103399338D01*
X113104505Y-103331746D01*
X113277738Y-103297288D01*
X113454364Y-103297288D01*
X113627597Y-103331746D01*
G37*
G36*
X115423649Y-101535694D02*
G01*
X115586831Y-101603286D01*
X115733691Y-101701415D01*
X115858585Y-101826309D01*
X115956714Y-101973169D01*
X116024306Y-102136351D01*
X116058764Y-102309584D01*
X116058764Y-102486210D01*
X116024306Y-102659443D01*
X115956714Y-102822625D01*
X115858585Y-102969485D01*
X115733691Y-103094379D01*
X115586831Y-103192508D01*
X115423649Y-103260100D01*
X115250416Y-103294558D01*
X115073790Y-103294558D01*
X114900557Y-103260100D01*
X114737375Y-103192508D01*
X114590515Y-103094379D01*
X114465621Y-102969485D01*
X114367492Y-102822625D01*
X114299900Y-102659443D01*
X114265442Y-102486210D01*
X114265442Y-102309584D01*
X114299900Y-102136351D01*
X114367492Y-101973169D01*
X114465621Y-101826309D01*
X114590515Y-101701415D01*
X114737375Y-101603286D01*
X114900557Y-101535694D01*
X115073790Y-101501236D01*
X115250416Y-101501236D01*
X115423649Y-101535694D01*
G37*
G36*
X121921040Y-96087434D02*
G01*
X122262823Y-96155419D01*
X122596296Y-96256577D01*
X122918248Y-96389934D01*
X123225579Y-96554206D01*
X123515328Y-96747810D01*
X123784706Y-96968883D01*
X124031117Y-97215294D01*
X124252190Y-97484672D01*
X124445794Y-97774421D01*
X124610066Y-98081752D01*
X124743423Y-98403704D01*
X124844581Y-98737177D01*
X124912566Y-99078960D01*
X124946723Y-99425761D01*
X124946723Y-99774239D01*
X124912566Y-100121040D01*
X124844581Y-100462823D01*
X124743423Y-100796296D01*
X124610066Y-101118248D01*
X124445794Y-101425579D01*
X124252190Y-101715328D01*
X124031117Y-101984706D01*
X123784706Y-102231117D01*
X123515328Y-102452190D01*
X123225579Y-102645794D01*
X122918248Y-102810066D01*
X122596296Y-102943423D01*
X122262823Y-103044581D01*
X121921040Y-103112566D01*
X121574239Y-103146723D01*
X121225761Y-103146723D01*
X120878960Y-103112566D01*
X120537177Y-103044581D01*
X120203704Y-102943423D01*
X119881752Y-102810066D01*
X119574421Y-102645794D01*
X119284672Y-102452190D01*
X119015294Y-102231117D01*
X118768883Y-101984706D01*
X118547810Y-101715328D01*
X118354206Y-101425579D01*
X118189934Y-101118248D01*
X118056577Y-100796296D01*
X117955419Y-100462823D01*
X117887434Y-100121040D01*
X117853277Y-99774239D01*
X117853277Y-99425761D01*
X117887434Y-99078960D01*
X117955419Y-98737177D01*
X118056577Y-98403704D01*
X118189934Y-98081752D01*
X118354206Y-97774421D01*
X118547810Y-97484672D01*
X118768883Y-97215294D01*
X119015294Y-96968883D01*
X119284672Y-96747810D01*
X119574421Y-96554206D01*
X119881752Y-96389934D01*
X120203704Y-96256577D01*
X120537177Y-96155419D01*
X120878960Y-96087434D01*
X121225761Y-96053277D01*
X121574239Y-96053277D01*
X121921040Y-96087434D01*
G37*
G36*
X131269517Y-100702882D02*
G01*
X131286062Y-100713938D01*
X131297118Y-100730483D01*
X131301000Y-100750000D01*
X131301000Y-102450000D01*
X131297118Y-102469517D01*
X131286062Y-102486062D01*
X131269517Y-102497118D01*
X131250000Y-102501000D01*
X129550000Y-102501000D01*
X129530483Y-102497118D01*
X129513938Y-102486062D01*
X129502882Y-102469517D01*
X129499000Y-102450000D01*
X129499000Y-100750000D01*
X129502882Y-100730483D01*
X129513938Y-100713938D01*
X129530483Y-100702882D01*
X129550000Y-100699000D01*
X131250000Y-100699000D01*
X131269517Y-100702882D01*
G37*
G36*
X161632518Y-100583491D02*
G01*
X161777589Y-100643581D01*
X161908149Y-100730819D01*
X162019181Y-100841851D01*
X162106419Y-100972411D01*
X162166509Y-101117482D01*
X162197143Y-101271488D01*
X162197143Y-101428512D01*
X162166509Y-101582518D01*
X162106419Y-101727589D01*
X162019181Y-101858149D01*
X161908149Y-101969181D01*
X161777589Y-102056419D01*
X161632518Y-102116509D01*
X161478512Y-102147143D01*
X161321488Y-102147143D01*
X161167482Y-102116509D01*
X161022411Y-102056419D01*
X160891851Y-101969181D01*
X160780819Y-101858149D01*
X160693581Y-101727589D01*
X160633491Y-101582518D01*
X160602857Y-101428512D01*
X160602857Y-101271488D01*
X160633491Y-101117482D01*
X160693581Y-100972411D01*
X160780819Y-100841851D01*
X160891851Y-100730819D01*
X161022411Y-100643581D01*
X161167482Y-100583491D01*
X161321488Y-100552857D01*
X161478512Y-100552857D01*
X161632518Y-100583491D01*
G37*
G36*
X161603490Y-98679185D02*
G01*
X161730449Y-98731773D01*
X161844710Y-98808120D01*
X161941880Y-98905290D01*
X162018227Y-99019551D01*
X162070815Y-99146510D01*
X162097624Y-99281290D01*
X162097624Y-99418710D01*
X162070815Y-99553490D01*
X162018227Y-99680449D01*
X161941880Y-99794710D01*
X161844710Y-99891880D01*
X161730449Y-99968227D01*
X161603490Y-100020815D01*
X161468710Y-100047624D01*
X161331290Y-100047624D01*
X161196510Y-100020815D01*
X161069551Y-99968227D01*
X160955290Y-99891880D01*
X160858120Y-99794710D01*
X160781773Y-99680449D01*
X160729185Y-99553490D01*
X160702376Y-99418710D01*
X160702376Y-99281290D01*
X160729185Y-99146510D01*
X160781773Y-99019551D01*
X160858120Y-98905290D01*
X160955290Y-98808120D01*
X161069551Y-98731773D01*
X161196510Y-98679185D01*
X161331290Y-98652376D01*
X161468710Y-98652376D01*
X161603490Y-98679185D01*
G37*
G36*
X130661546Y-98197797D02*
G01*
X130824728Y-98265389D01*
X130971588Y-98363518D01*
X131096482Y-98488412D01*
X131194611Y-98635272D01*
X131262203Y-98798454D01*
X131296661Y-98971687D01*
X131296661Y-99148313D01*
X131262203Y-99321546D01*
X131194611Y-99484728D01*
X131096482Y-99631588D01*
X130971588Y-99756482D01*
X130824728Y-99854611D01*
X130661546Y-99922203D01*
X130488313Y-99956661D01*
X130311687Y-99956661D01*
X130138454Y-99922203D01*
X129975272Y-99854611D01*
X129828412Y-99756482D01*
X129703518Y-99631588D01*
X129605389Y-99484728D01*
X129537797Y-99321546D01*
X129503339Y-99148313D01*
X129503339Y-98971687D01*
X129537797Y-98798454D01*
X129605389Y-98635272D01*
X129703518Y-98488412D01*
X129828412Y-98363518D01*
X129975272Y-98265389D01*
X130138454Y-98197797D01*
X130311687Y-98163339D01*
X130488313Y-98163339D01*
X130661546Y-98197797D01*
G37*
G36*
X115067308Y-94505043D02*
G01*
X115346207Y-94568700D01*
X115616225Y-94663183D01*
X115873967Y-94787305D01*
X116116190Y-94939504D01*
X116339850Y-95117867D01*
X116542133Y-95320150D01*
X116720496Y-95543810D01*
X116872695Y-95786033D01*
X116996817Y-96043775D01*
X117091300Y-96313793D01*
X117154957Y-96592692D01*
X117186987Y-96876964D01*
X117186987Y-97163036D01*
X117154957Y-97447308D01*
X117091300Y-97726207D01*
X116996817Y-97996225D01*
X116872695Y-98253967D01*
X116720496Y-98496190D01*
X116542133Y-98719850D01*
X116339850Y-98922133D01*
X116116190Y-99100496D01*
X115873967Y-99252695D01*
X115616225Y-99376817D01*
X115346207Y-99471300D01*
X115067308Y-99534957D01*
X114783036Y-99566987D01*
X114496964Y-99566987D01*
X114212692Y-99534957D01*
X113933793Y-99471300D01*
X113663775Y-99376817D01*
X113406033Y-99252695D01*
X113163810Y-99100496D01*
X112940150Y-98922133D01*
X112737867Y-98719850D01*
X112559504Y-98496190D01*
X112407305Y-98253967D01*
X112283183Y-97996225D01*
X112188700Y-97726207D01*
X112125043Y-97447308D01*
X112093013Y-97163036D01*
X112093013Y-96876964D01*
X112125043Y-96592692D01*
X112188700Y-96313793D01*
X112283183Y-96043775D01*
X112407305Y-95786033D01*
X112559504Y-95543810D01*
X112737867Y-95320150D01*
X112940150Y-95117867D01*
X113163810Y-94939504D01*
X113406033Y-94787305D01*
X113663775Y-94663183D01*
X113933793Y-94568700D01*
X114212692Y-94505043D01*
X114496964Y-94473013D01*
X114783036Y-94473013D01*
X115067308Y-94505043D01*
G37*
G36*
X140921040Y-91087434D02*
G01*
X141262823Y-91155419D01*
X141596296Y-91256577D01*
X141918248Y-91389934D01*
X142225579Y-91554206D01*
X142515328Y-91747810D01*
X142784706Y-91968883D01*
X143031117Y-92215294D01*
X143252190Y-92484672D01*
X143445794Y-92774421D01*
X143610066Y-93081752D01*
X143743423Y-93403704D01*
X143844581Y-93737177D01*
X143912566Y-94078960D01*
X143946723Y-94425761D01*
X143946723Y-94774239D01*
X143912566Y-95121040D01*
X143844581Y-95462823D01*
X143743423Y-95796296D01*
X143610066Y-96118248D01*
X143445794Y-96425579D01*
X143252190Y-96715328D01*
X143031117Y-96984706D01*
X142784706Y-97231117D01*
X142515328Y-97452190D01*
X142225579Y-97645794D01*
X141918248Y-97810066D01*
X141596296Y-97943423D01*
X141262823Y-98044581D01*
X140921040Y-98112566D01*
X140574239Y-98146723D01*
X140225761Y-98146723D01*
X139878960Y-98112566D01*
X139537177Y-98044581D01*
X139203704Y-97943423D01*
X138881752Y-97810066D01*
X138574421Y-97645794D01*
X138284672Y-97452190D01*
X138015294Y-97231117D01*
X137768883Y-96984706D01*
X137547810Y-96715328D01*
X137354206Y-96425579D01*
X137189934Y-96118248D01*
X137056577Y-95796296D01*
X136955419Y-95462823D01*
X136887434Y-95121040D01*
X136853277Y-94774239D01*
X136853277Y-94425761D01*
X136887434Y-94078960D01*
X136955419Y-93737177D01*
X137056577Y-93403704D01*
X137189934Y-93081752D01*
X137354206Y-92774421D01*
X137547810Y-92484672D01*
X137768883Y-92215294D01*
X138015294Y-91968883D01*
X138284672Y-91747810D01*
X138574421Y-91554206D01*
X138881752Y-91389934D01*
X139203704Y-91256577D01*
X139537177Y-91155419D01*
X139878960Y-91087434D01*
X140225761Y-91053277D01*
X140574239Y-91053277D01*
X140921040Y-91087434D01*
G37*
G36*
X161603490Y-96679185D02*
G01*
X161730449Y-96731773D01*
X161844710Y-96808120D01*
X161941880Y-96905290D01*
X162018227Y-97019551D01*
X162070815Y-97146510D01*
X162097624Y-97281290D01*
X162097624Y-97418710D01*
X162070815Y-97553490D01*
X162018227Y-97680449D01*
X161941880Y-97794710D01*
X161844710Y-97891880D01*
X161730449Y-97968227D01*
X161603490Y-98020815D01*
X161468710Y-98047624D01*
X161331290Y-98047624D01*
X161196510Y-98020815D01*
X161069551Y-97968227D01*
X160955290Y-97891880D01*
X160858120Y-97794710D01*
X160781773Y-97680449D01*
X160729185Y-97553490D01*
X160702376Y-97418710D01*
X160702376Y-97281290D01*
X160729185Y-97146510D01*
X160781773Y-97019551D01*
X160858120Y-96905290D01*
X160955290Y-96808120D01*
X161069551Y-96731773D01*
X161196510Y-96679185D01*
X161331290Y-96652376D01*
X161468710Y-96652376D01*
X161603490Y-96679185D01*
G37*
G36*
X130661546Y-95657797D02*
G01*
X130824728Y-95725389D01*
X130971588Y-95823518D01*
X131096482Y-95948412D01*
X131194611Y-96095272D01*
X131262203Y-96258454D01*
X131296661Y-96431687D01*
X131296661Y-96608313D01*
X131262203Y-96781546D01*
X131194611Y-96944728D01*
X131096482Y-97091588D01*
X130971588Y-97216482D01*
X130824728Y-97314611D01*
X130661546Y-97382203D01*
X130488313Y-97416661D01*
X130311687Y-97416661D01*
X130138454Y-97382203D01*
X129975272Y-97314611D01*
X129828412Y-97216482D01*
X129703518Y-97091588D01*
X129605389Y-96944728D01*
X129537797Y-96781546D01*
X129503339Y-96608313D01*
X129503339Y-96431687D01*
X129537797Y-96258454D01*
X129605389Y-96095272D01*
X129703518Y-95948412D01*
X129828412Y-95823518D01*
X129975272Y-95725389D01*
X130138454Y-95657797D01*
X130311687Y-95623339D01*
X130488313Y-95623339D01*
X130661546Y-95657797D01*
G37*
G36*
X161588975Y-94727032D02*
G01*
X161706879Y-94775869D01*
X161812990Y-94846770D01*
X161903230Y-94937010D01*
X161974131Y-95043121D01*
X162022968Y-95161025D01*
X162047865Y-95286191D01*
X162047865Y-95413809D01*
X162022968Y-95538975D01*
X161974131Y-95656879D01*
X161903230Y-95762990D01*
X161812990Y-95853230D01*
X161706879Y-95924131D01*
X161588975Y-95972968D01*
X161463809Y-95997865D01*
X161336191Y-95997865D01*
X161211025Y-95972968D01*
X161093121Y-95924131D01*
X160987010Y-95853230D01*
X160896770Y-95762990D01*
X160825869Y-95656879D01*
X160777032Y-95538975D01*
X160752135Y-95413809D01*
X160752135Y-95286191D01*
X160777032Y-95161025D01*
X160825869Y-95043121D01*
X160896770Y-94937010D01*
X160987010Y-94846770D01*
X161093121Y-94775869D01*
X161211025Y-94727032D01*
X161336191Y-94702135D01*
X161463809Y-94702135D01*
X161588975Y-94727032D01*
G37*
G36*
X161632518Y-92583491D02*
G01*
X161777589Y-92643581D01*
X161908149Y-92730819D01*
X162019181Y-92841851D01*
X162106419Y-92972411D01*
X162166509Y-93117482D01*
X162197143Y-93271488D01*
X162197143Y-93428512D01*
X162166509Y-93582518D01*
X162106419Y-93727589D01*
X162019181Y-93858149D01*
X161908149Y-93969181D01*
X161777589Y-94056419D01*
X161632518Y-94116509D01*
X161478512Y-94147143D01*
X161321488Y-94147143D01*
X161167482Y-94116509D01*
X161022411Y-94056419D01*
X160891851Y-93969181D01*
X160780819Y-93858149D01*
X160693581Y-93727589D01*
X160633491Y-93582518D01*
X160602857Y-93428512D01*
X160602857Y-93271488D01*
X160633491Y-93117482D01*
X160693581Y-92972411D01*
X160780819Y-92841851D01*
X160891851Y-92730819D01*
X161022411Y-92643581D01*
X161167482Y-92583491D01*
X161321488Y-92552857D01*
X161478512Y-92552857D01*
X161632518Y-92583491D01*
G37*
G36*
X135967032Y-88385644D02*
G01*
X136121159Y-88449485D01*
X136259869Y-88542168D01*
X136377832Y-88660131D01*
X136470515Y-88798841D01*
X136534356Y-88952968D01*
X136566902Y-89116587D01*
X136566902Y-89283413D01*
X136534356Y-89447032D01*
X136470515Y-89601159D01*
X136377832Y-89739869D01*
X136259869Y-89857832D01*
X136121159Y-89950515D01*
X135967032Y-90014356D01*
X135803413Y-90046902D01*
X135636587Y-90046902D01*
X135472968Y-90014356D01*
X135318841Y-89950515D01*
X135180131Y-89857832D01*
X135062168Y-89739869D01*
X134969485Y-89601159D01*
X134905644Y-89447032D01*
X134873098Y-89283413D01*
X134873098Y-89116587D01*
X134905644Y-88952968D01*
X134969485Y-88798841D01*
X135062168Y-88660131D01*
X135180131Y-88542168D01*
X135318841Y-88449485D01*
X135472968Y-88385644D01*
X135636587Y-88353098D01*
X135803413Y-88353098D01*
X135967032Y-88385644D01*
G37*
G36*
X138507032Y-88385644D02*
G01*
X138661159Y-88449485D01*
X138799869Y-88542168D01*
X138917832Y-88660131D01*
X139010515Y-88798841D01*
X139074356Y-88952968D01*
X139106902Y-89116587D01*
X139106902Y-89283413D01*
X139074356Y-89447032D01*
X139010515Y-89601159D01*
X138917832Y-89739869D01*
X138799869Y-89857832D01*
X138661159Y-89950515D01*
X138507032Y-90014356D01*
X138343413Y-90046902D01*
X138176587Y-90046902D01*
X138012968Y-90014356D01*
X137858841Y-89950515D01*
X137720131Y-89857832D01*
X137602168Y-89739869D01*
X137509485Y-89601159D01*
X137445644Y-89447032D01*
X137413098Y-89283413D01*
X137413098Y-89116587D01*
X137445644Y-88952968D01*
X137509485Y-88798841D01*
X137602168Y-88660131D01*
X137720131Y-88542168D01*
X137858841Y-88449485D01*
X138012968Y-88385644D01*
X138176587Y-88353098D01*
X138343413Y-88353098D01*
X138507032Y-88385644D01*
G37*
G36*
X141047032Y-88385644D02*
G01*
X141201159Y-88449485D01*
X141339869Y-88542168D01*
X141457832Y-88660131D01*
X141550515Y-88798841D01*
X141614356Y-88952968D01*
X141646902Y-89116587D01*
X141646902Y-89283413D01*
X141614356Y-89447032D01*
X141550515Y-89601159D01*
X141457832Y-89739869D01*
X141339869Y-89857832D01*
X141201159Y-89950515D01*
X141047032Y-90014356D01*
X140883413Y-90046902D01*
X140716587Y-90046902D01*
X140552968Y-90014356D01*
X140398841Y-89950515D01*
X140260131Y-89857832D01*
X140142168Y-89739869D01*
X140049485Y-89601159D01*
X139985644Y-89447032D01*
X139953098Y-89283413D01*
X139953098Y-89116587D01*
X139985644Y-88952968D01*
X140049485Y-88798841D01*
X140142168Y-88660131D01*
X140260131Y-88542168D01*
X140398841Y-88449485D01*
X140552968Y-88385644D01*
X140716587Y-88353098D01*
X140883413Y-88353098D01*
X141047032Y-88385644D01*
G37*
G36*
X143587032Y-88385644D02*
G01*
X143741159Y-88449485D01*
X143879869Y-88542168D01*
X143997832Y-88660131D01*
X144090515Y-88798841D01*
X144154356Y-88952968D01*
X144186902Y-89116587D01*
X144186902Y-89283413D01*
X144154356Y-89447032D01*
X144090515Y-89601159D01*
X143997832Y-89739869D01*
X143879869Y-89857832D01*
X143741159Y-89950515D01*
X143587032Y-90014356D01*
X143423413Y-90046902D01*
X143256587Y-90046902D01*
X143092968Y-90014356D01*
X142938841Y-89950515D01*
X142800131Y-89857832D01*
X142682168Y-89739869D01*
X142589485Y-89601159D01*
X142525644Y-89447032D01*
X142493098Y-89283413D01*
X142493098Y-89116587D01*
X142525644Y-88952968D01*
X142589485Y-88798841D01*
X142682168Y-88660131D01*
X142800131Y-88542168D01*
X142938841Y-88449485D01*
X143092968Y-88385644D01*
X143256587Y-88353098D01*
X143423413Y-88353098D01*
X143587032Y-88385644D01*
G37*
G36*
X146127032Y-88385644D02*
G01*
X146281159Y-88449485D01*
X146419869Y-88542168D01*
X146537832Y-88660131D01*
X146630515Y-88798841D01*
X146694356Y-88952968D01*
X146726902Y-89116587D01*
X146726902Y-89283413D01*
X146694356Y-89447032D01*
X146630515Y-89601159D01*
X146537832Y-89739869D01*
X146419869Y-89857832D01*
X146281159Y-89950515D01*
X146127032Y-90014356D01*
X145963413Y-90046902D01*
X145796587Y-90046902D01*
X145632968Y-90014356D01*
X145478841Y-89950515D01*
X145340131Y-89857832D01*
X145222168Y-89739869D01*
X145129485Y-89601159D01*
X145065644Y-89447032D01*
X145033098Y-89283413D01*
X145033098Y-89116587D01*
X145065644Y-88952968D01*
X145129485Y-88798841D01*
X145222168Y-88660131D01*
X145340131Y-88542168D01*
X145478841Y-88449485D01*
X145632968Y-88385644D01*
X145796587Y-88353098D01*
X145963413Y-88353098D01*
X146127032Y-88385644D01*
G37*
G36*
X148667032Y-88385644D02*
G01*
X148821159Y-88449485D01*
X148959869Y-88542168D01*
X149077832Y-88660131D01*
X149170515Y-88798841D01*
X149234356Y-88952968D01*
X149266902Y-89116587D01*
X149266902Y-89283413D01*
X149234356Y-89447032D01*
X149170515Y-89601159D01*
X149077832Y-89739869D01*
X148959869Y-89857832D01*
X148821159Y-89950515D01*
X148667032Y-90014356D01*
X148503413Y-90046902D01*
X148336587Y-90046902D01*
X148172968Y-90014356D01*
X148018841Y-89950515D01*
X147880131Y-89857832D01*
X147762168Y-89739869D01*
X147669485Y-89601159D01*
X147605644Y-89447032D01*
X147573098Y-89283413D01*
X147573098Y-89116587D01*
X147605644Y-88952968D01*
X147669485Y-88798841D01*
X147762168Y-88660131D01*
X147880131Y-88542168D01*
X148018841Y-88449485D01*
X148172968Y-88385644D01*
X148336587Y-88353098D01*
X148503413Y-88353098D01*
X148667032Y-88385644D01*
G37*
G36*
X151207032Y-88385644D02*
G01*
X151361159Y-88449485D01*
X151499869Y-88542168D01*
X151617832Y-88660131D01*
X151710515Y-88798841D01*
X151774356Y-88952968D01*
X151806902Y-89116587D01*
X151806902Y-89283413D01*
X151774356Y-89447032D01*
X151710515Y-89601159D01*
X151617832Y-89739869D01*
X151499869Y-89857832D01*
X151361159Y-89950515D01*
X151207032Y-90014356D01*
X151043413Y-90046902D01*
X150876587Y-90046902D01*
X150712968Y-90014356D01*
X150558841Y-89950515D01*
X150420131Y-89857832D01*
X150302168Y-89739869D01*
X150209485Y-89601159D01*
X150145644Y-89447032D01*
X150113098Y-89283413D01*
X150113098Y-89116587D01*
X150145644Y-88952968D01*
X150209485Y-88798841D01*
X150302168Y-88660131D01*
X150420131Y-88542168D01*
X150558841Y-88449485D01*
X150712968Y-88385644D01*
X150876587Y-88353098D01*
X151043413Y-88353098D01*
X151207032Y-88385644D01*
G37*
G36*
X153747032Y-88385644D02*
G01*
X153901159Y-88449485D01*
X154039869Y-88542168D01*
X154157832Y-88660131D01*
X154250515Y-88798841D01*
X154314356Y-88952968D01*
X154346902Y-89116587D01*
X154346902Y-89283413D01*
X154314356Y-89447032D01*
X154250515Y-89601159D01*
X154157832Y-89739869D01*
X154039869Y-89857832D01*
X153901159Y-89950515D01*
X153747032Y-90014356D01*
X153583413Y-90046902D01*
X153416587Y-90046902D01*
X153252968Y-90014356D01*
X153098841Y-89950515D01*
X152960131Y-89857832D01*
X152842168Y-89739869D01*
X152749485Y-89601159D01*
X152685644Y-89447032D01*
X152653098Y-89283413D01*
X152653098Y-89116587D01*
X152685644Y-88952968D01*
X152749485Y-88798841D01*
X152842168Y-88660131D01*
X152960131Y-88542168D01*
X153098841Y-88449485D01*
X153252968Y-88385644D01*
X153416587Y-88353098D01*
X153583413Y-88353098D01*
X153747032Y-88385644D01*
G37*
G36*
X156287032Y-88385644D02*
G01*
X156441159Y-88449485D01*
X156579869Y-88542168D01*
X156697832Y-88660131D01*
X156790515Y-88798841D01*
X156854356Y-88952968D01*
X156886902Y-89116587D01*
X156886902Y-89283413D01*
X156854356Y-89447032D01*
X156790515Y-89601159D01*
X156697832Y-89739869D01*
X156579869Y-89857832D01*
X156441159Y-89950515D01*
X156287032Y-90014356D01*
X156123413Y-90046902D01*
X155956587Y-90046902D01*
X155792968Y-90014356D01*
X155638841Y-89950515D01*
X155500131Y-89857832D01*
X155382168Y-89739869D01*
X155289485Y-89601159D01*
X155225644Y-89447032D01*
X155193098Y-89283413D01*
X155193098Y-89116587D01*
X155225644Y-88952968D01*
X155289485Y-88798841D01*
X155382168Y-88660131D01*
X155500131Y-88542168D01*
X155638841Y-88449485D01*
X155792968Y-88385644D01*
X155956587Y-88353098D01*
X156123413Y-88353098D01*
X156287032Y-88385644D01*
G37*
G36*
X158827032Y-88385644D02*
G01*
X158981159Y-88449485D01*
X159119869Y-88542168D01*
X159237832Y-88660131D01*
X159330515Y-88798841D01*
X159394356Y-88952968D01*
X159426902Y-89116587D01*
X159426902Y-89283413D01*
X159394356Y-89447032D01*
X159330515Y-89601159D01*
X159237832Y-89739869D01*
X159119869Y-89857832D01*
X158981159Y-89950515D01*
X158827032Y-90014356D01*
X158663413Y-90046902D01*
X158496587Y-90046902D01*
X158332968Y-90014356D01*
X158178841Y-89950515D01*
X158040131Y-89857832D01*
X157922168Y-89739869D01*
X157829485Y-89601159D01*
X157765644Y-89447032D01*
X157733098Y-89283413D01*
X157733098Y-89116587D01*
X157765644Y-88952968D01*
X157829485Y-88798841D01*
X157922168Y-88660131D01*
X158040131Y-88542168D01*
X158178841Y-88449485D01*
X158332968Y-88385644D01*
X158496587Y-88353098D01*
X158663413Y-88353098D01*
X158827032Y-88385644D01*
G37*
G36*
X161367032Y-88385644D02*
G01*
X161521159Y-88449485D01*
X161659869Y-88542168D01*
X161777832Y-88660131D01*
X161870515Y-88798841D01*
X161934356Y-88952968D01*
X161966902Y-89116587D01*
X161966902Y-89283413D01*
X161934356Y-89447032D01*
X161870515Y-89601159D01*
X161777832Y-89739869D01*
X161659869Y-89857832D01*
X161521159Y-89950515D01*
X161367032Y-90014356D01*
X161203413Y-90046902D01*
X161036587Y-90046902D01*
X160872968Y-90014356D01*
X160718841Y-89950515D01*
X160580131Y-89857832D01*
X160462168Y-89739869D01*
X160369485Y-89601159D01*
X160305644Y-89447032D01*
X160273098Y-89283413D01*
X160273098Y-89116587D01*
X160305644Y-88952968D01*
X160369485Y-88798841D01*
X160462168Y-88660131D01*
X160580131Y-88542168D01*
X160718841Y-88449485D01*
X160872968Y-88385644D01*
X161036587Y-88353098D01*
X161203413Y-88353098D01*
X161367032Y-88385644D01*
G37*
G36*
X163907032Y-88385644D02*
G01*
X164061159Y-88449485D01*
X164199869Y-88542168D01*
X164317832Y-88660131D01*
X164410515Y-88798841D01*
X164474356Y-88952968D01*
X164506902Y-89116587D01*
X164506902Y-89283413D01*
X164474356Y-89447032D01*
X164410515Y-89601159D01*
X164317832Y-89739869D01*
X164199869Y-89857832D01*
X164061159Y-89950515D01*
X163907032Y-90014356D01*
X163743413Y-90046902D01*
X163576587Y-90046902D01*
X163412968Y-90014356D01*
X163258841Y-89950515D01*
X163120131Y-89857832D01*
X163002168Y-89739869D01*
X162909485Y-89601159D01*
X162845644Y-89447032D01*
X162813098Y-89283413D01*
X162813098Y-89116587D01*
X162845644Y-88952968D01*
X162909485Y-88798841D01*
X163002168Y-88660131D01*
X163120131Y-88542168D01*
X163258841Y-88449485D01*
X163412968Y-88385644D01*
X163576587Y-88353098D01*
X163743413Y-88353098D01*
X163907032Y-88385644D01*
G37*
G36*
X160132518Y-84833491D02*
G01*
X160277589Y-84893581D01*
X160408149Y-84980819D01*
X160519181Y-85091851D01*
X160606419Y-85222411D01*
X160666509Y-85367482D01*
X160697143Y-85521488D01*
X160697143Y-85678512D01*
X160666509Y-85832518D01*
X160606419Y-85977589D01*
X160519181Y-86108149D01*
X160408149Y-86219181D01*
X160277589Y-86306419D01*
X160132518Y-86366509D01*
X159978512Y-86397143D01*
X159821488Y-86397143D01*
X159667482Y-86366509D01*
X159522411Y-86306419D01*
X159391851Y-86219181D01*
X159280819Y-86108149D01*
X159193581Y-85977589D01*
X159133491Y-85832518D01*
X159102857Y-85678512D01*
X159102857Y-85521488D01*
X159133491Y-85367482D01*
X159193581Y-85222411D01*
X159280819Y-85091851D01*
X159391851Y-84980819D01*
X159522411Y-84893581D01*
X159667482Y-84833491D01*
X159821488Y-84802857D01*
X159978512Y-84802857D01*
X160132518Y-84833491D01*
G37*
G36*
X156162546Y-84547797D02*
G01*
X156325728Y-84615389D01*
X156472588Y-84713518D01*
X156597482Y-84838412D01*
X156695611Y-84985272D01*
X156763203Y-85148454D01*
X156797661Y-85321687D01*
X156797661Y-85498313D01*
X156763203Y-85671546D01*
X156695611Y-85834728D01*
X156597482Y-85981588D01*
X156472588Y-86106482D01*
X156325728Y-86204611D01*
X156162546Y-86272203D01*
X155989313Y-86306661D01*
X155812687Y-86306661D01*
X155639454Y-86272203D01*
X155476272Y-86204611D01*
X155329412Y-86106482D01*
X155204518Y-85981588D01*
X155106389Y-85834728D01*
X155038797Y-85671546D01*
X155004339Y-85498313D01*
X155004339Y-85321687D01*
X155038797Y-85148454D01*
X155106389Y-84985272D01*
X155204518Y-84838412D01*
X155329412Y-84713518D01*
X155476272Y-84615389D01*
X155639454Y-84547797D01*
X155812687Y-84513339D01*
X155989313Y-84513339D01*
X156162546Y-84547797D01*
G37*
G36*
X160103490Y-82929185D02*
G01*
X160230449Y-82981773D01*
X160344710Y-83058120D01*
X160441880Y-83155290D01*
X160518227Y-83269551D01*
X160570815Y-83396510D01*
X160597624Y-83531290D01*
X160597624Y-83668710D01*
X160570815Y-83803490D01*
X160518227Y-83930449D01*
X160441880Y-84044710D01*
X160344710Y-84141880D01*
X160230449Y-84218227D01*
X160103490Y-84270815D01*
X159968710Y-84297624D01*
X159831290Y-84297624D01*
X159696510Y-84270815D01*
X159569551Y-84218227D01*
X159455290Y-84141880D01*
X159358120Y-84044710D01*
X159281773Y-83930449D01*
X159229185Y-83803490D01*
X159202376Y-83668710D01*
X159202376Y-83531290D01*
X159229185Y-83396510D01*
X159281773Y-83269551D01*
X159358120Y-83155290D01*
X159455290Y-83058120D01*
X159569551Y-82981773D01*
X159696510Y-82929185D01*
X159831290Y-82902376D01*
X159968710Y-82902376D01*
X160103490Y-82929185D01*
G37*
G36*
X156162546Y-82007797D02*
G01*
X156325728Y-82075389D01*
X156472588Y-82173518D01*
X156597482Y-82298412D01*
X156695611Y-82445272D01*
X156763203Y-82608454D01*
X156797661Y-82781687D01*
X156797661Y-82958313D01*
X156763203Y-83131546D01*
X156695611Y-83294728D01*
X156597482Y-83441588D01*
X156472588Y-83566482D01*
X156325728Y-83664611D01*
X156162546Y-83732203D01*
X155989313Y-83766661D01*
X155812687Y-83766661D01*
X155639454Y-83732203D01*
X155476272Y-83664611D01*
X155329412Y-83566482D01*
X155204518Y-83441588D01*
X155106389Y-83294728D01*
X155038797Y-83131546D01*
X155004339Y-82958313D01*
X155004339Y-82781687D01*
X155038797Y-82608454D01*
X155106389Y-82445272D01*
X155204518Y-82298412D01*
X155329412Y-82173518D01*
X155476272Y-82075389D01*
X155639454Y-82007797D01*
X155812687Y-81973339D01*
X155989313Y-81973339D01*
X156162546Y-82007797D01*
G37*
G36*
X160103490Y-80929185D02*
G01*
X160230449Y-80981773D01*
X160344710Y-81058120D01*
X160441880Y-81155290D01*
X160518227Y-81269551D01*
X160570815Y-81396510D01*
X160597624Y-81531290D01*
X160597624Y-81668710D01*
X160570815Y-81803490D01*
X160518227Y-81930449D01*
X160441880Y-82044710D01*
X160344710Y-82141880D01*
X160230449Y-82218227D01*
X160103490Y-82270815D01*
X159968710Y-82297624D01*
X159831290Y-82297624D01*
X159696510Y-82270815D01*
X159569551Y-82218227D01*
X159455290Y-82141880D01*
X159358120Y-82044710D01*
X159281773Y-81930449D01*
X159229185Y-81803490D01*
X159202376Y-81668710D01*
X159202376Y-81531290D01*
X159229185Y-81396510D01*
X159281773Y-81269551D01*
X159358120Y-81155290D01*
X159455290Y-81058120D01*
X159569551Y-80981773D01*
X159696510Y-80929185D01*
X159831290Y-80902376D01*
X159968710Y-80902376D01*
X160103490Y-80929185D01*
G37*
G36*
X133519517Y-79452882D02*
G01*
X133536062Y-79463938D01*
X133547118Y-79480483D01*
X133551000Y-79500000D01*
X133551000Y-81200000D01*
X133547118Y-81219517D01*
X133536062Y-81236062D01*
X133519517Y-81247118D01*
X133500000Y-81251000D01*
X131800000Y-81251000D01*
X131780483Y-81247118D01*
X131763938Y-81236062D01*
X131752882Y-81219517D01*
X131749000Y-81200000D01*
X131749000Y-79500000D01*
X131752882Y-79480483D01*
X131763938Y-79463938D01*
X131780483Y-79452882D01*
X131800000Y-79449000D01*
X133500000Y-79449000D01*
X133519517Y-79452882D01*
G37*
G36*
X156162546Y-79467797D02*
G01*
X156325728Y-79535389D01*
X156472588Y-79633518D01*
X156597482Y-79758412D01*
X156695611Y-79905272D01*
X156763203Y-80068454D01*
X156797661Y-80241687D01*
X156797661Y-80418313D01*
X156763203Y-80591546D01*
X156695611Y-80754728D01*
X156597482Y-80901588D01*
X156472588Y-81026482D01*
X156325728Y-81124611D01*
X156162546Y-81192203D01*
X155989313Y-81226661D01*
X155812687Y-81226661D01*
X155639454Y-81192203D01*
X155476272Y-81124611D01*
X155329412Y-81026482D01*
X155204518Y-80901588D01*
X155106389Y-80754728D01*
X155038797Y-80591546D01*
X155004339Y-80418313D01*
X155004339Y-80241687D01*
X155038797Y-80068454D01*
X155106389Y-79905272D01*
X155204518Y-79758412D01*
X155329412Y-79633518D01*
X155476272Y-79535389D01*
X155639454Y-79467797D01*
X155812687Y-79433339D01*
X155989313Y-79433339D01*
X156162546Y-79467797D01*
G37*
G36*
X160088975Y-78977032D02*
G01*
X160206879Y-79025869D01*
X160312990Y-79096770D01*
X160403230Y-79187010D01*
X160474131Y-79293121D01*
X160522968Y-79411025D01*
X160547865Y-79536191D01*
X160547865Y-79663809D01*
X160522968Y-79788975D01*
X160474131Y-79906879D01*
X160403230Y-80012990D01*
X160312990Y-80103230D01*
X160206879Y-80174131D01*
X160088975Y-80222968D01*
X159963809Y-80247865D01*
X159836191Y-80247865D01*
X159711025Y-80222968D01*
X159593121Y-80174131D01*
X159487010Y-80103230D01*
X159396770Y-80012990D01*
X159325869Y-79906879D01*
X159277032Y-79788975D01*
X159252135Y-79663809D01*
X159252135Y-79536191D01*
X159277032Y-79411025D01*
X159325869Y-79293121D01*
X159396770Y-79187010D01*
X159487010Y-79096770D01*
X159593121Y-79025869D01*
X159711025Y-78977032D01*
X159836191Y-78952135D01*
X159963809Y-78952135D01*
X160088975Y-78977032D01*
G37*
G36*
X132911546Y-76947797D02*
G01*
X133074728Y-77015389D01*
X133221588Y-77113518D01*
X133346482Y-77238412D01*
X133444611Y-77385272D01*
X133512203Y-77548454D01*
X133546661Y-77721687D01*
X133546661Y-77898313D01*
X133512203Y-78071546D01*
X133444611Y-78234728D01*
X133346482Y-78381588D01*
X133221588Y-78506482D01*
X133074728Y-78604611D01*
X132911546Y-78672203D01*
X132738313Y-78706661D01*
X132561687Y-78706661D01*
X132388454Y-78672203D01*
X132225272Y-78604611D01*
X132078412Y-78506482D01*
X131953518Y-78381588D01*
X131855389Y-78234728D01*
X131787797Y-78071546D01*
X131753339Y-77898313D01*
X131753339Y-77721687D01*
X131787797Y-77548454D01*
X131855389Y-77385272D01*
X131953518Y-77238412D01*
X132078412Y-77113518D01*
X132225272Y-77015389D01*
X132388454Y-76947797D01*
X132561687Y-76913339D01*
X132738313Y-76913339D01*
X132911546Y-76947797D01*
G37*
G36*
X156770517Y-76892882D02*
G01*
X156787062Y-76903938D01*
X156798118Y-76920483D01*
X156802000Y-76940000D01*
X156802000Y-78640000D01*
X156798118Y-78659517D01*
X156787062Y-78676062D01*
X156770517Y-78687118D01*
X156751000Y-78691000D01*
X155051000Y-78691000D01*
X155031483Y-78687118D01*
X155014938Y-78676062D01*
X155003882Y-78659517D01*
X155000000Y-78640000D01*
X155000000Y-76940000D01*
X155003882Y-76920483D01*
X155014938Y-76903938D01*
X155031483Y-76892882D01*
X155051000Y-76889000D01*
X156751000Y-76889000D01*
X156770517Y-76892882D01*
G37*
G36*
X160132518Y-76833491D02*
G01*
X160277589Y-76893581D01*
X160408149Y-76980819D01*
X160519181Y-77091851D01*
X160606419Y-77222411D01*
X160666509Y-77367482D01*
X160697143Y-77521488D01*
X160697143Y-77678512D01*
X160666509Y-77832518D01*
X160606419Y-77977589D01*
X160519181Y-78108149D01*
X160408149Y-78219181D01*
X160277589Y-78306419D01*
X160132518Y-78366509D01*
X159978512Y-78397143D01*
X159821488Y-78397143D01*
X159667482Y-78366509D01*
X159522411Y-78306419D01*
X159391851Y-78219181D01*
X159280819Y-78108149D01*
X159193581Y-77977589D01*
X159133491Y-77832518D01*
X159102857Y-77678512D01*
X159102857Y-77521488D01*
X159133491Y-77367482D01*
X159193581Y-77222411D01*
X159280819Y-77091851D01*
X159391851Y-76980819D01*
X159522411Y-76893581D01*
X159667482Y-76833491D01*
X159821488Y-76802857D01*
X159978512Y-76802857D01*
X160132518Y-76833491D01*
G37*
G36*
X164479517Y-73112882D02*
G01*
X164496062Y-73123938D01*
X164507118Y-73140483D01*
X164511000Y-73160000D01*
X164511000Y-74760000D01*
X164507118Y-74779517D01*
X164496062Y-74796062D01*
X164479517Y-74807118D01*
X164460000Y-74811000D01*
X162860000Y-74811000D01*
X162840483Y-74807118D01*
X162823938Y-74796062D01*
X162812882Y-74779517D01*
X162809000Y-74760000D01*
X162809000Y-73160000D01*
X162812882Y-73140483D01*
X162823938Y-73123938D01*
X162840483Y-73112882D01*
X162860000Y-73109000D01*
X164460000Y-73109000D01*
X164479517Y-73112882D01*
G37*
G36*
X135967032Y-73145644D02*
G01*
X136121159Y-73209485D01*
X136259869Y-73302168D01*
X136377832Y-73420131D01*
X136470515Y-73558841D01*
X136534356Y-73712968D01*
X136566902Y-73876587D01*
X136566902Y-74043413D01*
X136534356Y-74207032D01*
X136470515Y-74361159D01*
X136377832Y-74499869D01*
X136259869Y-74617832D01*
X136121159Y-74710515D01*
X135967032Y-74774356D01*
X135803413Y-74806902D01*
X135636587Y-74806902D01*
X135472968Y-74774356D01*
X135318841Y-74710515D01*
X135180131Y-74617832D01*
X135062168Y-74499869D01*
X134969485Y-74361159D01*
X134905644Y-74207032D01*
X134873098Y-74043413D01*
X134873098Y-73876587D01*
X134905644Y-73712968D01*
X134969485Y-73558841D01*
X135062168Y-73420131D01*
X135180131Y-73302168D01*
X135318841Y-73209485D01*
X135472968Y-73145644D01*
X135636587Y-73113098D01*
X135803413Y-73113098D01*
X135967032Y-73145644D01*
G37*
G36*
X138507032Y-73145644D02*
G01*
X138661159Y-73209485D01*
X138799869Y-73302168D01*
X138917832Y-73420131D01*
X139010515Y-73558841D01*
X139074356Y-73712968D01*
X139106902Y-73876587D01*
X139106902Y-74043413D01*
X139074356Y-74207032D01*
X139010515Y-74361159D01*
X138917832Y-74499869D01*
X138799869Y-74617832D01*
X138661159Y-74710515D01*
X138507032Y-74774356D01*
X138343413Y-74806902D01*
X138176587Y-74806902D01*
X138012968Y-74774356D01*
X137858841Y-74710515D01*
X137720131Y-74617832D01*
X137602168Y-74499869D01*
X137509485Y-74361159D01*
X137445644Y-74207032D01*
X137413098Y-74043413D01*
X137413098Y-73876587D01*
X137445644Y-73712968D01*
X137509485Y-73558841D01*
X137602168Y-73420131D01*
X137720131Y-73302168D01*
X137858841Y-73209485D01*
X138012968Y-73145644D01*
X138176587Y-73113098D01*
X138343413Y-73113098D01*
X138507032Y-73145644D01*
G37*
G36*
X141047032Y-73145644D02*
G01*
X141201159Y-73209485D01*
X141339869Y-73302168D01*
X141457832Y-73420131D01*
X141550515Y-73558841D01*
X141614356Y-73712968D01*
X141646902Y-73876587D01*
X141646902Y-74043413D01*
X141614356Y-74207032D01*
X141550515Y-74361159D01*
X141457832Y-74499869D01*
X141339869Y-74617832D01*
X141201159Y-74710515D01*
X141047032Y-74774356D01*
X140883413Y-74806902D01*
X140716587Y-74806902D01*
X140552968Y-74774356D01*
X140398841Y-74710515D01*
X140260131Y-74617832D01*
X140142168Y-74499869D01*
X140049485Y-74361159D01*
X139985644Y-74207032D01*
X139953098Y-74043413D01*
X139953098Y-73876587D01*
X139985644Y-73712968D01*
X140049485Y-73558841D01*
X140142168Y-73420131D01*
X140260131Y-73302168D01*
X140398841Y-73209485D01*
X140552968Y-73145644D01*
X140716587Y-73113098D01*
X140883413Y-73113098D01*
X141047032Y-73145644D01*
G37*
G36*
X143587032Y-73145644D02*
G01*
X143741159Y-73209485D01*
X143879869Y-73302168D01*
X143997832Y-73420131D01*
X144090515Y-73558841D01*
X144154356Y-73712968D01*
X144186902Y-73876587D01*
X144186902Y-74043413D01*
X144154356Y-74207032D01*
X144090515Y-74361159D01*
X143997832Y-74499869D01*
X143879869Y-74617832D01*
X143741159Y-74710515D01*
X143587032Y-74774356D01*
X143423413Y-74806902D01*
X143256587Y-74806902D01*
X143092968Y-74774356D01*
X142938841Y-74710515D01*
X142800131Y-74617832D01*
X142682168Y-74499869D01*
X142589485Y-74361159D01*
X142525644Y-74207032D01*
X142493098Y-74043413D01*
X142493098Y-73876587D01*
X142525644Y-73712968D01*
X142589485Y-73558841D01*
X142682168Y-73420131D01*
X142800131Y-73302168D01*
X142938841Y-73209485D01*
X143092968Y-73145644D01*
X143256587Y-73113098D01*
X143423413Y-73113098D01*
X143587032Y-73145644D01*
G37*
G36*
X146127032Y-73145644D02*
G01*
X146281159Y-73209485D01*
X146419869Y-73302168D01*
X146537832Y-73420131D01*
X146630515Y-73558841D01*
X146694356Y-73712968D01*
X146726902Y-73876587D01*
X146726902Y-74043413D01*
X146694356Y-74207032D01*
X146630515Y-74361159D01*
X146537832Y-74499869D01*
X146419869Y-74617832D01*
X146281159Y-74710515D01*
X146127032Y-74774356D01*
X145963413Y-74806902D01*
X145796587Y-74806902D01*
X145632968Y-74774356D01*
X145478841Y-74710515D01*
X145340131Y-74617832D01*
X145222168Y-74499869D01*
X145129485Y-74361159D01*
X145065644Y-74207032D01*
X145033098Y-74043413D01*
X145033098Y-73876587D01*
X145065644Y-73712968D01*
X145129485Y-73558841D01*
X145222168Y-73420131D01*
X145340131Y-73302168D01*
X145478841Y-73209485D01*
X145632968Y-73145644D01*
X145796587Y-73113098D01*
X145963413Y-73113098D01*
X146127032Y-73145644D01*
G37*
G36*
X148667032Y-73145644D02*
G01*
X148821159Y-73209485D01*
X148959869Y-73302168D01*
X149077832Y-73420131D01*
X149170515Y-73558841D01*
X149234356Y-73712968D01*
X149266902Y-73876587D01*
X149266902Y-74043413D01*
X149234356Y-74207032D01*
X149170515Y-74361159D01*
X149077832Y-74499869D01*
X148959869Y-74617832D01*
X148821159Y-74710515D01*
X148667032Y-74774356D01*
X148503413Y-74806902D01*
X148336587Y-74806902D01*
X148172968Y-74774356D01*
X148018841Y-74710515D01*
X147880131Y-74617832D01*
X147762168Y-74499869D01*
X147669485Y-74361159D01*
X147605644Y-74207032D01*
X147573098Y-74043413D01*
X147573098Y-73876587D01*
X147605644Y-73712968D01*
X147669485Y-73558841D01*
X147762168Y-73420131D01*
X147880131Y-73302168D01*
X148018841Y-73209485D01*
X148172968Y-73145644D01*
X148336587Y-73113098D01*
X148503413Y-73113098D01*
X148667032Y-73145644D01*
G37*
G36*
X151207032Y-73145644D02*
G01*
X151361159Y-73209485D01*
X151499869Y-73302168D01*
X151617832Y-73420131D01*
X151710515Y-73558841D01*
X151774356Y-73712968D01*
X151806902Y-73876587D01*
X151806902Y-74043413D01*
X151774356Y-74207032D01*
X151710515Y-74361159D01*
X151617832Y-74499869D01*
X151499869Y-74617832D01*
X151361159Y-74710515D01*
X151207032Y-74774356D01*
X151043413Y-74806902D01*
X150876587Y-74806902D01*
X150712968Y-74774356D01*
X150558841Y-74710515D01*
X150420131Y-74617832D01*
X150302168Y-74499869D01*
X150209485Y-74361159D01*
X150145644Y-74207032D01*
X150113098Y-74043413D01*
X150113098Y-73876587D01*
X150145644Y-73712968D01*
X150209485Y-73558841D01*
X150302168Y-73420131D01*
X150420131Y-73302168D01*
X150558841Y-73209485D01*
X150712968Y-73145644D01*
X150876587Y-73113098D01*
X151043413Y-73113098D01*
X151207032Y-73145644D01*
G37*
G36*
X153747032Y-73145644D02*
G01*
X153901159Y-73209485D01*
X154039869Y-73302168D01*
X154157832Y-73420131D01*
X154250515Y-73558841D01*
X154314356Y-73712968D01*
X154346902Y-73876587D01*
X154346902Y-74043413D01*
X154314356Y-74207032D01*
X154250515Y-74361159D01*
X154157832Y-74499869D01*
X154039869Y-74617832D01*
X153901159Y-74710515D01*
X153747032Y-74774356D01*
X153583413Y-74806902D01*
X153416587Y-74806902D01*
X153252968Y-74774356D01*
X153098841Y-74710515D01*
X152960131Y-74617832D01*
X152842168Y-74499869D01*
X152749485Y-74361159D01*
X152685644Y-74207032D01*
X152653098Y-74043413D01*
X152653098Y-73876587D01*
X152685644Y-73712968D01*
X152749485Y-73558841D01*
X152842168Y-73420131D01*
X152960131Y-73302168D01*
X153098841Y-73209485D01*
X153252968Y-73145644D01*
X153416587Y-73113098D01*
X153583413Y-73113098D01*
X153747032Y-73145644D01*
G37*
G36*
X156287032Y-73145644D02*
G01*
X156441159Y-73209485D01*
X156579869Y-73302168D01*
X156697832Y-73420131D01*
X156790515Y-73558841D01*
X156854356Y-73712968D01*
X156886902Y-73876587D01*
X156886902Y-74043413D01*
X156854356Y-74207032D01*
X156790515Y-74361159D01*
X156697832Y-74499869D01*
X156579869Y-74617832D01*
X156441159Y-74710515D01*
X156287032Y-74774356D01*
X156123413Y-74806902D01*
X155956587Y-74806902D01*
X155792968Y-74774356D01*
X155638841Y-74710515D01*
X155500131Y-74617832D01*
X155382168Y-74499869D01*
X155289485Y-74361159D01*
X155225644Y-74207032D01*
X155193098Y-74043413D01*
X155193098Y-73876587D01*
X155225644Y-73712968D01*
X155289485Y-73558841D01*
X155382168Y-73420131D01*
X155500131Y-73302168D01*
X155638841Y-73209485D01*
X155792968Y-73145644D01*
X155956587Y-73113098D01*
X156123413Y-73113098D01*
X156287032Y-73145644D01*
G37*
G36*
X158827032Y-73145644D02*
G01*
X158981159Y-73209485D01*
X159119869Y-73302168D01*
X159237832Y-73420131D01*
X159330515Y-73558841D01*
X159394356Y-73712968D01*
X159426902Y-73876587D01*
X159426902Y-74043413D01*
X159394356Y-74207032D01*
X159330515Y-74361159D01*
X159237832Y-74499869D01*
X159119869Y-74617832D01*
X158981159Y-74710515D01*
X158827032Y-74774356D01*
X158663413Y-74806902D01*
X158496587Y-74806902D01*
X158332968Y-74774356D01*
X158178841Y-74710515D01*
X158040131Y-74617832D01*
X157922168Y-74499869D01*
X157829485Y-74361159D01*
X157765644Y-74207032D01*
X157733098Y-74043413D01*
X157733098Y-73876587D01*
X157765644Y-73712968D01*
X157829485Y-73558841D01*
X157922168Y-73420131D01*
X158040131Y-73302168D01*
X158178841Y-73209485D01*
X158332968Y-73145644D01*
X158496587Y-73113098D01*
X158663413Y-73113098D01*
X158827032Y-73145644D01*
G37*
G36*
X161367032Y-73145644D02*
G01*
X161521159Y-73209485D01*
X161659869Y-73302168D01*
X161777832Y-73420131D01*
X161870515Y-73558841D01*
X161934356Y-73712968D01*
X161966902Y-73876587D01*
X161966902Y-74043413D01*
X161934356Y-74207032D01*
X161870515Y-74361159D01*
X161777832Y-74499869D01*
X161659869Y-74617832D01*
X161521159Y-74710515D01*
X161367032Y-74774356D01*
X161203413Y-74806902D01*
X161036587Y-74806902D01*
X160872968Y-74774356D01*
X160718841Y-74710515D01*
X160580131Y-74617832D01*
X160462168Y-74499869D01*
X160369485Y-74361159D01*
X160305644Y-74207032D01*
X160273098Y-74043413D01*
X160273098Y-73876587D01*
X160305644Y-73712968D01*
X160369485Y-73558841D01*
X160462168Y-73420131D01*
X160580131Y-73302168D01*
X160718841Y-73209485D01*
X160872968Y-73145644D01*
X161036587Y-73113098D01*
X161203413Y-73113098D01*
X161367032Y-73145644D01*
G37*
G36*
X140921040Y-65087434D02*
G01*
X141262823Y-65155419D01*
X141596296Y-65256577D01*
X141918248Y-65389934D01*
X142225579Y-65554206D01*
X142515328Y-65747810D01*
X142784706Y-65968883D01*
X143031117Y-66215294D01*
X143252190Y-66484672D01*
X143445794Y-66774421D01*
X143610066Y-67081752D01*
X143743423Y-67403704D01*
X143844581Y-67737177D01*
X143912566Y-68078960D01*
X143946723Y-68425761D01*
X143946723Y-68774239D01*
X143912566Y-69121040D01*
X143844581Y-69462823D01*
X143743423Y-69796296D01*
X143610066Y-70118248D01*
X143445794Y-70425579D01*
X143252190Y-70715328D01*
X143031117Y-70984706D01*
X142784706Y-71231117D01*
X142515328Y-71452190D01*
X142225579Y-71645794D01*
X141918248Y-71810066D01*
X141596296Y-71943423D01*
X141262823Y-72044581D01*
X140921040Y-72112566D01*
X140574239Y-72146723D01*
X140225761Y-72146723D01*
X139878960Y-72112566D01*
X139537177Y-72044581D01*
X139203704Y-71943423D01*
X138881752Y-71810066D01*
X138574421Y-71645794D01*
X138284672Y-71452190D01*
X138015294Y-71231117D01*
X137768883Y-70984706D01*
X137547810Y-70715328D01*
X137354206Y-70425579D01*
X137189934Y-70118248D01*
X137056577Y-69796296D01*
X136955419Y-69462823D01*
X136887434Y-69121040D01*
X136853277Y-68774239D01*
X136853277Y-68425761D01*
X136887434Y-68078960D01*
X136955419Y-67737177D01*
X137056577Y-67403704D01*
X137189934Y-67081752D01*
X137354206Y-66774421D01*
X137547810Y-66484672D01*
X137768883Y-66215294D01*
X138015294Y-65968883D01*
X138284672Y-65747810D01*
X138574421Y-65554206D01*
X138881752Y-65389934D01*
X139203704Y-65256577D01*
X139537177Y-65155419D01*
X139878960Y-65087434D01*
X140225761Y-65053277D01*
X140574239Y-65053277D01*
X140921040Y-65087434D01*
G37*
G36*
X161632518Y-69583491D02*
G01*
X161777589Y-69643581D01*
X161908149Y-69730819D01*
X162019181Y-69841851D01*
X162106419Y-69972411D01*
X162166509Y-70117482D01*
X162197143Y-70271488D01*
X162197143Y-70428512D01*
X162166509Y-70582518D01*
X162106419Y-70727589D01*
X162019181Y-70858149D01*
X161908149Y-70969181D01*
X161777589Y-71056419D01*
X161632518Y-71116509D01*
X161478512Y-71147143D01*
X161321488Y-71147143D01*
X161167482Y-71116509D01*
X161022411Y-71056419D01*
X160891851Y-70969181D01*
X160780819Y-70858149D01*
X160693581Y-70727589D01*
X160633491Y-70582518D01*
X160602857Y-70428512D01*
X160602857Y-70271488D01*
X160633491Y-70117482D01*
X160693581Y-69972411D01*
X160780819Y-69841851D01*
X160891851Y-69730819D01*
X161022411Y-69643581D01*
X161167482Y-69583491D01*
X161321488Y-69552857D01*
X161478512Y-69552857D01*
X161632518Y-69583491D01*
G37*
G36*
X161603490Y-67679185D02*
G01*
X161730449Y-67731773D01*
X161844710Y-67808120D01*
X161941880Y-67905290D01*
X162018227Y-68019551D01*
X162070815Y-68146510D01*
X162097624Y-68281290D01*
X162097624Y-68418710D01*
X162070815Y-68553490D01*
X162018227Y-68680449D01*
X161941880Y-68794710D01*
X161844710Y-68891880D01*
X161730449Y-68968227D01*
X161603490Y-69020815D01*
X161468710Y-69047624D01*
X161331290Y-69047624D01*
X161196510Y-69020815D01*
X161069551Y-68968227D01*
X160955290Y-68891880D01*
X160858120Y-68794710D01*
X160781773Y-68680449D01*
X160729185Y-68553490D01*
X160702376Y-68418710D01*
X160702376Y-68281290D01*
X160729185Y-68146510D01*
X160781773Y-68019551D01*
X160858120Y-67905290D01*
X160955290Y-67808120D01*
X161069551Y-67731773D01*
X161196510Y-67679185D01*
X161331290Y-67652376D01*
X161468710Y-67652376D01*
X161603490Y-67679185D01*
G37*
G36*
X115087308Y-63645043D02*
G01*
X115366207Y-63708700D01*
X115636225Y-63803183D01*
X115893967Y-63927305D01*
X116136190Y-64079504D01*
X116359850Y-64257867D01*
X116562133Y-64460150D01*
X116740496Y-64683810D01*
X116892695Y-64926033D01*
X117016817Y-65183775D01*
X117111300Y-65453793D01*
X117174957Y-65732692D01*
X117206987Y-66016964D01*
X117206987Y-66303036D01*
X117174957Y-66587308D01*
X117111300Y-66866207D01*
X117016817Y-67136225D01*
X116892695Y-67393967D01*
X116740496Y-67636190D01*
X116562133Y-67859850D01*
X116359850Y-68062133D01*
X116136190Y-68240496D01*
X115893967Y-68392695D01*
X115636225Y-68516817D01*
X115366207Y-68611300D01*
X115087308Y-68674957D01*
X114803036Y-68706987D01*
X114516964Y-68706987D01*
X114232692Y-68674957D01*
X113953793Y-68611300D01*
X113683775Y-68516817D01*
X113426033Y-68392695D01*
X113183810Y-68240496D01*
X112960150Y-68062133D01*
X112757867Y-67859850D01*
X112579504Y-67636190D01*
X112427305Y-67393967D01*
X112303183Y-67136225D01*
X112208700Y-66866207D01*
X112145043Y-66587308D01*
X112113013Y-66303036D01*
X112113013Y-66016964D01*
X112145043Y-65732692D01*
X112208700Y-65453793D01*
X112303183Y-65183775D01*
X112427305Y-64926033D01*
X112579504Y-64683810D01*
X112757867Y-64460150D01*
X112960150Y-64257867D01*
X113183810Y-64079504D01*
X113426033Y-63927305D01*
X113683775Y-63803183D01*
X113953793Y-63708700D01*
X114232692Y-63645043D01*
X114516964Y-63613013D01*
X114803036Y-63613013D01*
X115087308Y-63645043D01*
G37*
G36*
X130661546Y-65817797D02*
G01*
X130824728Y-65885389D01*
X130971588Y-65983518D01*
X131096482Y-66108412D01*
X131194611Y-66255272D01*
X131262203Y-66418454D01*
X131296661Y-66591687D01*
X131296661Y-66768313D01*
X131262203Y-66941546D01*
X131194611Y-67104728D01*
X131096482Y-67251588D01*
X130971588Y-67376482D01*
X130824728Y-67474611D01*
X130661546Y-67542203D01*
X130488313Y-67576661D01*
X130311687Y-67576661D01*
X130138454Y-67542203D01*
X129975272Y-67474611D01*
X129828412Y-67376482D01*
X129703518Y-67251588D01*
X129605389Y-67104728D01*
X129537797Y-66941546D01*
X129503339Y-66768313D01*
X129503339Y-66591687D01*
X129537797Y-66418454D01*
X129605389Y-66255272D01*
X129703518Y-66108412D01*
X129828412Y-65983518D01*
X129975272Y-65885389D01*
X130138454Y-65817797D01*
X130311687Y-65783339D01*
X130488313Y-65783339D01*
X130661546Y-65817797D01*
G37*
G36*
X121921040Y-60087434D02*
G01*
X122262823Y-60155419D01*
X122596296Y-60256577D01*
X122918248Y-60389934D01*
X123225579Y-60554206D01*
X123515328Y-60747810D01*
X123784706Y-60968883D01*
X124031117Y-61215294D01*
X124252190Y-61484672D01*
X124445794Y-61774421D01*
X124610066Y-62081752D01*
X124743423Y-62403704D01*
X124844581Y-62737177D01*
X124912566Y-63078960D01*
X124946723Y-63425761D01*
X124946723Y-63774239D01*
X124912566Y-64121040D01*
X124844581Y-64462823D01*
X124743423Y-64796296D01*
X124610066Y-65118248D01*
X124445794Y-65425579D01*
X124252190Y-65715328D01*
X124031117Y-65984706D01*
X123784706Y-66231117D01*
X123515328Y-66452190D01*
X123225579Y-66645794D01*
X122918248Y-66810066D01*
X122596296Y-66943423D01*
X122262823Y-67044581D01*
X121921040Y-67112566D01*
X121574239Y-67146723D01*
X121225761Y-67146723D01*
X120878960Y-67112566D01*
X120537177Y-67044581D01*
X120203704Y-66943423D01*
X119881752Y-66810066D01*
X119574421Y-66645794D01*
X119284672Y-66452190D01*
X119015294Y-66231117D01*
X118768883Y-65984706D01*
X118547810Y-65715328D01*
X118354206Y-65425579D01*
X118189934Y-65118248D01*
X118056577Y-64796296D01*
X117955419Y-64462823D01*
X117887434Y-64121040D01*
X117853277Y-63774239D01*
X117853277Y-63425761D01*
X117887434Y-63078960D01*
X117955419Y-62737177D01*
X118056577Y-62403704D01*
X118189934Y-62081752D01*
X118354206Y-61774421D01*
X118547810Y-61484672D01*
X118768883Y-61215294D01*
X119015294Y-60968883D01*
X119284672Y-60747810D01*
X119574421Y-60554206D01*
X119881752Y-60389934D01*
X120203704Y-60256577D01*
X120537177Y-60155419D01*
X120878960Y-60087434D01*
X121225761Y-60053277D01*
X121574239Y-60053277D01*
X121921040Y-60087434D01*
G37*
G36*
X161603490Y-65679185D02*
G01*
X161730449Y-65731773D01*
X161844710Y-65808120D01*
X161941880Y-65905290D01*
X162018227Y-66019551D01*
X162070815Y-66146510D01*
X162097624Y-66281290D01*
X162097624Y-66418710D01*
X162070815Y-66553490D01*
X162018227Y-66680449D01*
X161941880Y-66794710D01*
X161844710Y-66891880D01*
X161730449Y-66968227D01*
X161603490Y-67020815D01*
X161468710Y-67047624D01*
X161331290Y-67047624D01*
X161196510Y-67020815D01*
X161069551Y-66968227D01*
X160955290Y-66891880D01*
X160858120Y-66794710D01*
X160781773Y-66680449D01*
X160729185Y-66553490D01*
X160702376Y-66418710D01*
X160702376Y-66281290D01*
X160729185Y-66146510D01*
X160781773Y-66019551D01*
X160858120Y-65905290D01*
X160955290Y-65808120D01*
X161069551Y-65731773D01*
X161196510Y-65679185D01*
X161331290Y-65652376D01*
X161468710Y-65652376D01*
X161603490Y-65679185D01*
G37*
G36*
X130661546Y-63277797D02*
G01*
X130824728Y-63345389D01*
X130971588Y-63443518D01*
X131096482Y-63568412D01*
X131194611Y-63715272D01*
X131262203Y-63878454D01*
X131296661Y-64051687D01*
X131296661Y-64228313D01*
X131262203Y-64401546D01*
X131194611Y-64564728D01*
X131096482Y-64711588D01*
X130971588Y-64836482D01*
X130824728Y-64934611D01*
X130661546Y-65002203D01*
X130488313Y-65036661D01*
X130311687Y-65036661D01*
X130138454Y-65002203D01*
X129975272Y-64934611D01*
X129828412Y-64836482D01*
X129703518Y-64711588D01*
X129605389Y-64564728D01*
X129537797Y-64401546D01*
X129503339Y-64228313D01*
X129503339Y-64051687D01*
X129537797Y-63878454D01*
X129605389Y-63715272D01*
X129703518Y-63568412D01*
X129828412Y-63443518D01*
X129975272Y-63345389D01*
X130138454Y-63277797D01*
X130311687Y-63243339D01*
X130488313Y-63243339D01*
X130661546Y-63277797D01*
G37*
G36*
X161588975Y-63727032D02*
G01*
X161706879Y-63775869D01*
X161812990Y-63846770D01*
X161903230Y-63937010D01*
X161974131Y-64043121D01*
X162022968Y-64161025D01*
X162047865Y-64286191D01*
X162047865Y-64413809D01*
X162022968Y-64538975D01*
X161974131Y-64656879D01*
X161903230Y-64762990D01*
X161812990Y-64853230D01*
X161706879Y-64924131D01*
X161588975Y-64972968D01*
X161463809Y-64997865D01*
X161336191Y-64997865D01*
X161211025Y-64972968D01*
X161093121Y-64924131D01*
X160987010Y-64853230D01*
X160896770Y-64762990D01*
X160825869Y-64656879D01*
X160777032Y-64538975D01*
X160752135Y-64413809D01*
X160752135Y-64286191D01*
X160777032Y-64161025D01*
X160825869Y-64043121D01*
X160896770Y-63937010D01*
X160987010Y-63846770D01*
X161093121Y-63775869D01*
X161211025Y-63727032D01*
X161336191Y-63702135D01*
X161463809Y-63702135D01*
X161588975Y-63727032D01*
G37*
G36*
X161632518Y-61583491D02*
G01*
X161777589Y-61643581D01*
X161908149Y-61730819D01*
X162019181Y-61841851D01*
X162106419Y-61972411D01*
X162166509Y-62117482D01*
X162197143Y-62271488D01*
X162197143Y-62428512D01*
X162166509Y-62582518D01*
X162106419Y-62727589D01*
X162019181Y-62858149D01*
X161908149Y-62969181D01*
X161777589Y-63056419D01*
X161632518Y-63116509D01*
X161478512Y-63147143D01*
X161321488Y-63147143D01*
X161167482Y-63116509D01*
X161022411Y-63056419D01*
X160891851Y-62969181D01*
X160780819Y-62858149D01*
X160693581Y-62727589D01*
X160633491Y-62582518D01*
X160602857Y-62428512D01*
X160602857Y-62271488D01*
X160633491Y-62117482D01*
X160693581Y-61972411D01*
X160780819Y-61841851D01*
X160891851Y-61730819D01*
X161022411Y-61643581D01*
X161167482Y-61583491D01*
X161321488Y-61552857D01*
X161478512Y-61552857D01*
X161632518Y-61583491D01*
G37*
G36*
X131269517Y-60702882D02*
G01*
X131286062Y-60713938D01*
X131297118Y-60730483D01*
X131301000Y-60750000D01*
X131301000Y-62450000D01*
X131297118Y-62469517D01*
X131286062Y-62486062D01*
X131269517Y-62497118D01*
X131250000Y-62501000D01*
X129550000Y-62501000D01*
X129530483Y-62497118D01*
X129513938Y-62486062D01*
X129502882Y-62469517D01*
X129499000Y-62450000D01*
X129499000Y-60750000D01*
X129502882Y-60730483D01*
X129513938Y-60713938D01*
X129530483Y-60702882D01*
X129550000Y-60699000D01*
X131250000Y-60699000D01*
X131269517Y-60702882D01*
G37*
G36*
X115429700Y-59945951D02*
G01*
X115592882Y-60013543D01*
X115739742Y-60111672D01*
X115864636Y-60236566D01*
X115962765Y-60383426D01*
X116030357Y-60546608D01*
X116064815Y-60719841D01*
X116064815Y-60896467D01*
X116030357Y-61069700D01*
X115962765Y-61232882D01*
X115864636Y-61379742D01*
X115739742Y-61504636D01*
X115592882Y-61602765D01*
X115429700Y-61670357D01*
X115256467Y-61704815D01*
X115079841Y-61704815D01*
X114906608Y-61670357D01*
X114743426Y-61602765D01*
X114596566Y-61504636D01*
X114471672Y-61379742D01*
X114373543Y-61232882D01*
X114305951Y-61069700D01*
X114271493Y-60896467D01*
X114271493Y-60719841D01*
X114305951Y-60546608D01*
X114373543Y-60383426D01*
X114471672Y-60236566D01*
X114596566Y-60111672D01*
X114743426Y-60013543D01*
X114906608Y-59945951D01*
X115079841Y-59911493D01*
X115256467Y-59911493D01*
X115429700Y-59945951D01*
G37*
G36*
X113633648Y-58149899D02*
G01*
X113796830Y-58217491D01*
X113943690Y-58315620D01*
X114068584Y-58440514D01*
X114166713Y-58587374D01*
X114234305Y-58750556D01*
X114268763Y-58923789D01*
X114268763Y-59100415D01*
X114234305Y-59273648D01*
X114166713Y-59436830D01*
X114068584Y-59583690D01*
X113943690Y-59708584D01*
X113796830Y-59806713D01*
X113633648Y-59874305D01*
X113460415Y-59908763D01*
X113283789Y-59908763D01*
X113110556Y-59874305D01*
X112947374Y-59806713D01*
X112800514Y-59708584D01*
X112675620Y-59583690D01*
X112577491Y-59436830D01*
X112509899Y-59273648D01*
X112475441Y-59100415D01*
X112475441Y-58923789D01*
X112509899Y-58750556D01*
X112577491Y-58587374D01*
X112675620Y-58440514D01*
X112800514Y-58315620D01*
X112947374Y-58217491D01*
X113110556Y-58149899D01*
X113283789Y-58115441D01*
X113460415Y-58115441D01*
X113633648Y-58149899D01*
G37*
G36*
X118077517Y-56318882D02*
G01*
X118094062Y-56329938D01*
X118105118Y-56346483D01*
X118109000Y-56366000D01*
X118109000Y-58066000D01*
X118105118Y-58085517D01*
X118094062Y-58102062D01*
X118077517Y-58113118D01*
X118058000Y-58117000D01*
X116358000Y-58117000D01*
X116338483Y-58113118D01*
X116321938Y-58102062D01*
X116310882Y-58085517D01*
X116307000Y-58066000D01*
X116307000Y-56366000D01*
X116310882Y-56346483D01*
X116321938Y-56329938D01*
X116338483Y-56318882D01*
X116358000Y-56315000D01*
X118058000Y-56315000D01*
X118077517Y-56318882D01*
G37*
G36*
X156637517Y-56318882D02*
G01*
X156654062Y-56329938D01*
X156665118Y-56346483D01*
X156669000Y-56366000D01*
X156669000Y-58066000D01*
X156665118Y-58085517D01*
X156654062Y-58102062D01*
X156637517Y-58113118D01*
X156618000Y-58117000D01*
X154918000Y-58117000D01*
X154898483Y-58113118D01*
X154881938Y-58102062D01*
X154870882Y-58085517D01*
X154867000Y-58066000D01*
X154867000Y-56366000D01*
X154870882Y-56346483D01*
X154881938Y-56329938D01*
X154898483Y-56318882D01*
X154918000Y-56315000D01*
X156618000Y-56315000D01*
X156637517Y-56318882D01*
G37*
G36*
X111837597Y-56353848D02*
G01*
X112000779Y-56421440D01*
X112147639Y-56519569D01*
X112272533Y-56644463D01*
X112370662Y-56791323D01*
X112438254Y-56954505D01*
X112472712Y-57127738D01*
X112472712Y-57304364D01*
X112438254Y-57477597D01*
X112370662Y-57640779D01*
X112272533Y-57787639D01*
X112147639Y-57912533D01*
X112000779Y-58010662D01*
X111837597Y-58078254D01*
X111664364Y-58112712D01*
X111487738Y-58112712D01*
X111314505Y-58078254D01*
X111151323Y-58010662D01*
X111004463Y-57912533D01*
X110879569Y-57787639D01*
X110781440Y-57640779D01*
X110713848Y-57477597D01*
X110679390Y-57304364D01*
X110679390Y-57127738D01*
X110713848Y-56954505D01*
X110781440Y-56791323D01*
X110879569Y-56644463D01*
X111004463Y-56519569D01*
X111151323Y-56421440D01*
X111314505Y-56353848D01*
X111487738Y-56319390D01*
X111664364Y-56319390D01*
X111837597Y-56353848D01*
G37*
G36*
X120009546Y-56353797D02*
G01*
X120172728Y-56421389D01*
X120319588Y-56519518D01*
X120444482Y-56644412D01*
X120542611Y-56791272D01*
X120610203Y-56954454D01*
X120644661Y-57127687D01*
X120644661Y-57304313D01*
X120610203Y-57477546D01*
X120542611Y-57640728D01*
X120444482Y-57787588D01*
X120319588Y-57912482D01*
X120172728Y-58010611D01*
X120009546Y-58078203D01*
X119836313Y-58112661D01*
X119659687Y-58112661D01*
X119486454Y-58078203D01*
X119323272Y-58010611D01*
X119176412Y-57912482D01*
X119051518Y-57787588D01*
X118953389Y-57640728D01*
X118885797Y-57477546D01*
X118851339Y-57304313D01*
X118851339Y-57127687D01*
X118885797Y-56954454D01*
X118953389Y-56791272D01*
X119051518Y-56644412D01*
X119176412Y-56519518D01*
X119323272Y-56421389D01*
X119486454Y-56353797D01*
X119659687Y-56319339D01*
X119836313Y-56319339D01*
X120009546Y-56353797D01*
G37*
G36*
X122549546Y-56353797D02*
G01*
X122712728Y-56421389D01*
X122859588Y-56519518D01*
X122984482Y-56644412D01*
X123082611Y-56791272D01*
X123150203Y-56954454D01*
X123184661Y-57127687D01*
X123184661Y-57304313D01*
X123150203Y-57477546D01*
X123082611Y-57640728D01*
X122984482Y-57787588D01*
X122859588Y-57912482D01*
X122712728Y-58010611D01*
X122549546Y-58078203D01*
X122376313Y-58112661D01*
X122199687Y-58112661D01*
X122026454Y-58078203D01*
X121863272Y-58010611D01*
X121716412Y-57912482D01*
X121591518Y-57787588D01*
X121493389Y-57640728D01*
X121425797Y-57477546D01*
X121391339Y-57304313D01*
X121391339Y-57127687D01*
X121425797Y-56954454D01*
X121493389Y-56791272D01*
X121591518Y-56644412D01*
X121716412Y-56519518D01*
X121863272Y-56421389D01*
X122026454Y-56353797D01*
X122199687Y-56319339D01*
X122376313Y-56319339D01*
X122549546Y-56353797D01*
G37*
G36*
X125089546Y-56353797D02*
G01*
X125252728Y-56421389D01*
X125399588Y-56519518D01*
X125524482Y-56644412D01*
X125622611Y-56791272D01*
X125690203Y-56954454D01*
X125724661Y-57127687D01*
X125724661Y-57304313D01*
X125690203Y-57477546D01*
X125622611Y-57640728D01*
X125524482Y-57787588D01*
X125399588Y-57912482D01*
X125252728Y-58010611D01*
X125089546Y-58078203D01*
X124916313Y-58112661D01*
X124739687Y-58112661D01*
X124566454Y-58078203D01*
X124403272Y-58010611D01*
X124256412Y-57912482D01*
X124131518Y-57787588D01*
X124033389Y-57640728D01*
X123965797Y-57477546D01*
X123931339Y-57304313D01*
X123931339Y-57127687D01*
X123965797Y-56954454D01*
X124033389Y-56791272D01*
X124131518Y-56644412D01*
X124256412Y-56519518D01*
X124403272Y-56421389D01*
X124566454Y-56353797D01*
X124739687Y-56319339D01*
X124916313Y-56319339D01*
X125089546Y-56353797D01*
G37*
G36*
X148409546Y-56353797D02*
G01*
X148572728Y-56421389D01*
X148719588Y-56519518D01*
X148844482Y-56644412D01*
X148942611Y-56791272D01*
X149010203Y-56954454D01*
X149044661Y-57127687D01*
X149044661Y-57304313D01*
X149010203Y-57477546D01*
X148942611Y-57640728D01*
X148844482Y-57787588D01*
X148719588Y-57912482D01*
X148572728Y-58010611D01*
X148409546Y-58078203D01*
X148236313Y-58112661D01*
X148059687Y-58112661D01*
X147886454Y-58078203D01*
X147723272Y-58010611D01*
X147576412Y-57912482D01*
X147451518Y-57787588D01*
X147353389Y-57640728D01*
X147285797Y-57477546D01*
X147251339Y-57304313D01*
X147251339Y-57127687D01*
X147285797Y-56954454D01*
X147353389Y-56791272D01*
X147451518Y-56644412D01*
X147576412Y-56519518D01*
X147723272Y-56421389D01*
X147886454Y-56353797D01*
X148059687Y-56319339D01*
X148236313Y-56319339D01*
X148409546Y-56353797D01*
G37*
G36*
X150949546Y-56353797D02*
G01*
X151112728Y-56421389D01*
X151259588Y-56519518D01*
X151384482Y-56644412D01*
X151482611Y-56791272D01*
X151550203Y-56954454D01*
X151584661Y-57127687D01*
X151584661Y-57304313D01*
X151550203Y-57477546D01*
X151482611Y-57640728D01*
X151384482Y-57787588D01*
X151259588Y-57912482D01*
X151112728Y-58010611D01*
X150949546Y-58078203D01*
X150776313Y-58112661D01*
X150599687Y-58112661D01*
X150426454Y-58078203D01*
X150263272Y-58010611D01*
X150116412Y-57912482D01*
X149991518Y-57787588D01*
X149893389Y-57640728D01*
X149825797Y-57477546D01*
X149791339Y-57304313D01*
X149791339Y-57127687D01*
X149825797Y-56954454D01*
X149893389Y-56791272D01*
X149991518Y-56644412D01*
X150116412Y-56519518D01*
X150263272Y-56421389D01*
X150426454Y-56353797D01*
X150599687Y-56319339D01*
X150776313Y-56319339D01*
X150949546Y-56353797D01*
G37*
G36*
X153489546Y-56353797D02*
G01*
X153652728Y-56421389D01*
X153799588Y-56519518D01*
X153924482Y-56644412D01*
X154022611Y-56791272D01*
X154090203Y-56954454D01*
X154124661Y-57127687D01*
X154124661Y-57304313D01*
X154090203Y-57477546D01*
X154022611Y-57640728D01*
X153924482Y-57787588D01*
X153799588Y-57912482D01*
X153652728Y-58010611D01*
X153489546Y-58078203D01*
X153316313Y-58112661D01*
X153139687Y-58112661D01*
X152966454Y-58078203D01*
X152803272Y-58010611D01*
X152656412Y-57912482D01*
X152531518Y-57787588D01*
X152433389Y-57640728D01*
X152365797Y-57477546D01*
X152331339Y-57304313D01*
X152331339Y-57127687D01*
X152365797Y-56954454D01*
X152433389Y-56791272D01*
X152531518Y-56644412D01*
X152656412Y-56519518D01*
X152803272Y-56421389D01*
X152966454Y-56353797D01*
X153139687Y-56319339D01*
X153316313Y-56319339D01*
X153489546Y-56353797D01*
G37*
G36*
X109799517Y-54170800D02*
G01*
X109816062Y-54181856D01*
X111018144Y-55383938D01*
X111029200Y-55400483D01*
X111033081Y-55420000D01*
X111029200Y-55439517D01*
X111018144Y-55456062D01*
X109816062Y-56658144D01*
X109799517Y-56669200D01*
X109780000Y-56673081D01*
X109760483Y-56669200D01*
X109743938Y-56658144D01*
X108541856Y-55456062D01*
X108530800Y-55439517D01*
X108526919Y-55420000D01*
X108530800Y-55400483D01*
X108541856Y-55383938D01*
X109142897Y-54782897D01*
X109735233Y-54190560D01*
X109735236Y-54190557D01*
X109743938Y-54181856D01*
X109760483Y-54170800D01*
X109780000Y-54166919D01*
X109799517Y-54170800D01*
G37*
G36*
X113617417Y-46951982D02*
G01*
X113633962Y-46963038D01*
X113645018Y-46979583D01*
X113648900Y-46999100D01*
X113648900Y-48700900D01*
X113645018Y-48720417D01*
X113633962Y-48736962D01*
X113617417Y-48748018D01*
X113597900Y-48751900D01*
X111896100Y-48751900D01*
X111876583Y-48748018D01*
X111860038Y-48736962D01*
X111848982Y-48720417D01*
X111845100Y-48700900D01*
X111845100Y-46999100D01*
X111848982Y-46979583D01*
X111860038Y-46963038D01*
X111876583Y-46951982D01*
X111896100Y-46948100D01*
X113597900Y-46948100D01*
X113617417Y-46951982D01*
G37*
G36*
X116445328Y-40918278D02*
G01*
X116492068Y-40918278D01*
X116500263Y-40918278D01*
X116514757Y-40920186D01*
X116577796Y-40937077D01*
X116632921Y-40951847D01*
X116632922Y-40951847D01*
X116640836Y-40953968D01*
X116654342Y-40959563D01*
X116661433Y-40963657D01*
X116661440Y-40963660D01*
X116760285Y-41020728D01*
X116760290Y-41020732D01*
X116767381Y-41024826D01*
X116778979Y-41033725D01*
X116871275Y-41126021D01*
X116880174Y-41137619D01*
X116884268Y-41144710D01*
X116884271Y-41144714D01*
X116941339Y-41243559D01*
X116941340Y-41243562D01*
X116945437Y-41250658D01*
X116951032Y-41264164D01*
X116984814Y-41390243D01*
X116986722Y-41404737D01*
X116986722Y-41412931D01*
X116986722Y-41451741D01*
X116989328Y-41465964D01*
X116991000Y-41470000D01*
X116991000Y-42020000D01*
X116981761Y-42042304D01*
X116981273Y-42044285D01*
X116980649Y-42044989D01*
X116974598Y-42059598D01*
X116963712Y-42064106D01*
X116951246Y-42078179D01*
X116935000Y-42121016D01*
X116935000Y-42164913D01*
X116945765Y-42200400D01*
X116965844Y-42230451D01*
X116971062Y-42233938D01*
X116982118Y-42250483D01*
X116986000Y-42270000D01*
X116986000Y-43270000D01*
X116982118Y-43289517D01*
X116971062Y-43306062D01*
X116965843Y-43309548D01*
X116945765Y-43339599D01*
X116935000Y-43375086D01*
X116935000Y-43422786D01*
X116957025Y-43471723D01*
X116959992Y-43474352D01*
X116974598Y-43480402D01*
X116991000Y-43520000D01*
X116991000Y-44070000D01*
X116986722Y-44080328D01*
X116986722Y-44135263D01*
X116984814Y-44149757D01*
X116951032Y-44275836D01*
X116945437Y-44289342D01*
X116880174Y-44402381D01*
X116871275Y-44413979D01*
X116778979Y-44506275D01*
X116767381Y-44515174D01*
X116654342Y-44580437D01*
X116640836Y-44586032D01*
X116514757Y-44619814D01*
X116500263Y-44621722D01*
X116492068Y-44621722D01*
X116453259Y-44621722D01*
X116439034Y-44624328D01*
X116435000Y-44626000D01*
X116430431Y-44626000D01*
X115950176Y-44626000D01*
X115935000Y-44626000D01*
X115924672Y-44621722D01*
X115877932Y-44621722D01*
X115869737Y-44621722D01*
X115855243Y-44619814D01*
X115729164Y-44586032D01*
X115715658Y-44580437D01*
X115708562Y-44576340D01*
X115708559Y-44576339D01*
X115609714Y-44519271D01*
X115609710Y-44519268D01*
X115602619Y-44515174D01*
X115591021Y-44506275D01*
X115498725Y-44413979D01*
X115489826Y-44402381D01*
X115485732Y-44395290D01*
X115485728Y-44395285D01*
X115428660Y-44296440D01*
X115428657Y-44296433D01*
X115424563Y-44289342D01*
X115418968Y-44275836D01*
X115385186Y-44149757D01*
X115383278Y-44135263D01*
X115383278Y-44088256D01*
X115380671Y-44074035D01*
X115379000Y-44070000D01*
X115379000Y-43520000D01*
X115388235Y-43497702D01*
X115388726Y-43495714D01*
X115389352Y-43495006D01*
X115395402Y-43480402D01*
X115406285Y-43475893D01*
X115418755Y-43461819D01*
X115435000Y-43418983D01*
X115435000Y-43375086D01*
X115424235Y-43339599D01*
X115404154Y-43309547D01*
X115398938Y-43306062D01*
X115387882Y-43289517D01*
X115384000Y-43270000D01*
X115384000Y-42270000D01*
X115387882Y-42250483D01*
X115398938Y-42233938D01*
X115404154Y-42230452D01*
X115424235Y-42200400D01*
X115435000Y-42164913D01*
X115435000Y-42117212D01*
X115412974Y-42068274D01*
X115410011Y-42065649D01*
X115395402Y-42059598D01*
X115379000Y-42020000D01*
X115379000Y-41470000D01*
X115383278Y-41459671D01*
X115383278Y-41404737D01*
X115385186Y-41390243D01*
X115418968Y-41264164D01*
X115424563Y-41250658D01*
X115428655Y-41243568D01*
X115428660Y-41243559D01*
X115485728Y-41144714D01*
X115485734Y-41144705D01*
X115489826Y-41137619D01*
X115498725Y-41126021D01*
X115504509Y-41120236D01*
X115504513Y-41120232D01*
X115585232Y-41039513D01*
X115585236Y-41039509D01*
X115591021Y-41033725D01*
X115602619Y-41024826D01*
X115609705Y-41020734D01*
X115609714Y-41020728D01*
X115708559Y-40963660D01*
X115708568Y-40963655D01*
X115715658Y-40959563D01*
X115729164Y-40953968D01*
X115737074Y-40951848D01*
X115737078Y-40951847D01*
X115847327Y-40922307D01*
X115847327Y-40922306D01*
X115855243Y-40920186D01*
X115869737Y-40918278D01*
X115916741Y-40918278D01*
X115930965Y-40915671D01*
X115935000Y-40914000D01*
X116435000Y-40914000D01*
X116445328Y-40918278D01*
G37*
G36*
X113008808Y-41906936D02*
G01*
X113172153Y-41974595D01*
X113319159Y-42072822D01*
X113444178Y-42197841D01*
X113542405Y-42344847D01*
X113610064Y-42508192D01*
X113644557Y-42681598D01*
X113644557Y-42858402D01*
X113610064Y-43031808D01*
X113542405Y-43195153D01*
X113444178Y-43342159D01*
X113319159Y-43467178D01*
X113172153Y-43565405D01*
X113008808Y-43633064D01*
X112835402Y-43667557D01*
X112658598Y-43667557D01*
X112485192Y-43633064D01*
X112321847Y-43565405D01*
X112174841Y-43467178D01*
X112049822Y-43342159D01*
X111951595Y-43195153D01*
X111883936Y-43031808D01*
X111849443Y-42858402D01*
X111849443Y-42681598D01*
X111883936Y-42508192D01*
X111951595Y-42344847D01*
X112049822Y-42197841D01*
X112174841Y-42072822D01*
X112321847Y-41974595D01*
X112485192Y-41906936D01*
X112658598Y-41872443D01*
X112835402Y-41872443D01*
X113008808Y-41906936D01*
G37*
G36*
X113008808Y-36826936D02*
G01*
X113172153Y-36894595D01*
X113319159Y-36992822D01*
X113444178Y-37117841D01*
X113542405Y-37264847D01*
X113610064Y-37428192D01*
X113644557Y-37601598D01*
X113644557Y-37778402D01*
X113610064Y-37951808D01*
X113542405Y-38115153D01*
X113444178Y-38262159D01*
X113319159Y-38387178D01*
X113172153Y-38485405D01*
X113008808Y-38553064D01*
X112835402Y-38587557D01*
X112658598Y-38587557D01*
X112485192Y-38553064D01*
X112321847Y-38485405D01*
X112174841Y-38387178D01*
X112049822Y-38262159D01*
X111951595Y-38115153D01*
X111883936Y-37951808D01*
X111849443Y-37778402D01*
X111849443Y-37601598D01*
X111883936Y-37428192D01*
X111951595Y-37264847D01*
X112049822Y-37117841D01*
X112174841Y-36992822D01*
X112321847Y-36894595D01*
X112485192Y-36826936D01*
X112658598Y-36792443D01*
X112835402Y-36792443D01*
X113008808Y-36826936D01*
G37*
M02*
