M48
; DRILL file {KiCad 9.0.2} date 2025-10-10T20:31:08-0400
; FORMAT={-:-/ absolute / metric / decimal}
; #@! TF.CreationDate,2025-10-10T20:31:08-04:00
; #@! TF.GenerationSoftware,Kicad,Pcbnew,9.0.2
; #@! TF.FileFunction,Plated,1,2,PTH
FMAT,2
METRIC
; #@! TA.AperFunction,Plated,PTH,ViaDrill
T1C0.400
; #@! TA.AperFunction,Plated,PTH,ComponentDrill
T2C0.750
; #@! TA.AperFunction,Plated,PTH,ComponentDrill
T3C0.800
; #@! TA.AperFunction,Plated,PTH,ComponentDrill
T4C1.000
; #@! TA.AperFunction,Plated,PTH,ComponentDrill
T5C1.100
; #@! TA.AperFunction,Plated,PTH,ComponentDrill
T6C1.194
; #@! TA.AperFunction,Plated,PTH,ComponentDrill
T7C2.500
; #@! TA.AperFunction,Plated,PTH,ComponentDrill
T8C3.500
%
G90
G05
T1
X116.1Y-51.1
X116.1Y-55.2
X119.0Y-108.8
X120.4Y-50.85
X126.3Y-104.9
X131.4Y-69.85
X131.4Y-73.85
X131.4Y-82.35
X131.4Y-93.35
X132.4Y-56.6
X133.15Y-83.28
X133.198Y-63.6
X133.745Y-84.145
X133.977Y-72.523
X134.125Y-85.157
X134.125Y-97.6
X135.4Y-100.5
X135.406Y-62.77
X135.9Y-65.35
X136.15Y-79.1
X136.15Y-86.6
X136.69Y-85.7
X137.4Y-56.6
X137.871Y-85.625
X138.65Y-77.35
X139.9Y-75.85
X139.9Y-81.6
X142.4Y-56.6
X143.65Y-81.6
X144.115Y-75.903
X144.589Y-93.386
X145.129Y-71.096
X145.4Y-91.6
X146.4Y-75.85
X146.4Y-81.6
X148.4Y-98.6
X149.4Y-91.35
X149.65Y-70.1
X149.65Y-77.35
X149.65Y-84.6
X150.9Y-83.6
X151.15Y-81.6
X153.4Y-65.85
X153.9Y-85.6
X154.15Y-98.1
X156.15Y-91.6
X158.65Y-103.85
X165.15Y-59.85
X167.4Y-61.6
X167.4Y-66.6
X167.4Y-71.6
X167.4Y-96.6
X167.4Y-101.6
X169.825Y-91.6
X169.9Y-74.1
X169.9Y-79.1
X169.9Y-84.1
X169.9Y-89.1
T2
X159.9Y-79.6
X161.4Y-64.35
X161.4Y-95.35
T3
X159.9Y-81.6
X159.9Y-83.6
X161.4Y-66.35
X161.4Y-68.35
X161.4Y-97.35
X161.4Y-99.35
T4
X109.774Y-107.786
X109.78Y-55.42
X111.57Y-105.99
X111.576Y-57.216
X113.366Y-104.194
X113.372Y-59.012
X115.162Y-102.398
X115.168Y-60.808
X117.208Y-57.216
X117.208Y-105.984
X119.748Y-57.216
X119.748Y-105.984
X122.288Y-57.216
X122.288Y-105.984
X124.828Y-57.216
X124.828Y-105.984
X130.4Y-61.6
X130.4Y-64.14
X130.4Y-66.68
X130.4Y-96.52
X130.4Y-99.06
X130.4Y-101.6
X132.65Y-77.81
X132.65Y-80.35
X148.148Y-57.216
X148.148Y-105.984
X150.688Y-57.216
X150.688Y-105.984
X153.228Y-57.216
X153.228Y-105.984
X155.768Y-57.216
X155.768Y-105.984
X155.901Y-77.79
X155.901Y-80.33
X155.901Y-82.87
X155.901Y-85.41
X159.9Y-77.6
X159.9Y-85.6
X161.4Y-62.35
X161.4Y-70.35
X161.4Y-93.35
X161.4Y-101.35
T5
X135.72Y-73.96
X135.72Y-89.2
X138.26Y-73.96
X138.26Y-89.2
X140.8Y-73.96
X140.8Y-89.2
X143.34Y-73.96
X143.34Y-89.2
X145.88Y-73.96
X145.88Y-89.2
X148.42Y-73.96
X148.42Y-89.2
X150.96Y-73.96
X150.96Y-89.2
X153.5Y-73.96
X153.5Y-89.2
X156.04Y-73.96
X156.04Y-89.2
X158.58Y-73.96
X158.58Y-89.2
X161.12Y-73.96
X161.12Y-89.2
X163.66Y-73.96
X163.66Y-89.2
T6
X112.747Y-37.69
X112.747Y-42.77
X112.747Y-47.85
X112.747Y-115.382
X112.747Y-120.462
X112.747Y-125.542
T7
X114.64Y-97.02
X114.66Y-66.16
T8
X121.4Y-63.6
X121.4Y-99.6
X140.4Y-68.6
X140.4Y-94.6
M30
