M48
; DRILL file {KiCad 9.0.2} date 2025-09-26T14:41:38-0400
; FORMAT={-:-/ absolute / metric / decimal}
; #@! TF.CreationDate,2025-09-26T14:41:38-04:00
; #@! TF.GenerationSoftware,Kicad,Pcbnew,9.0.2
; #@! TF.FileFunction,Plated,1,2,PTH
FMAT,2
METRIC
; #@! TA.AperFunction,Plated,PTH,ViaDrill
T1C0.400
; #@! TA.AperFunction,Plated,PTH,ComponentDrill
T2C0.750
; #@! TA.AperFunction,Plated,PTH,ComponentDrill
T3C0.800
; #@! TA.AperFunction,Plated,PTH,ComponentDrill
T4C1.000
; #@! TA.AperFunction,Plated,PTH,ComponentDrill
T5C1.100
; #@! TA.AperFunction,Plated,PTH,ComponentDrill
T6C1.194
; #@! TA.AperFunction,Plated,PTH,ComponentDrill
T7C2.500
; #@! TA.AperFunction,Plated,PTH,ComponentDrill
T8C3.500
%
G90
G05
T1
X87.858Y-84.637
X98.242Y-81.011
X110.086Y-91.971
X111.5Y-90.203
X116.627Y-82.248
X124.347Y-78.382
X124.405Y-74.47
X124.759Y-80.834
X124.794Y-77.397
X124.935Y-97.981
X124.985Y-76.365
X125.777Y-80.579
X125.928Y-91.6
X126.665Y-81.362
X127.764Y-90.91
X128.471Y-108.941
X129.355Y-101.694
X130.062Y-75.531
X130.415Y-68.46
X130.769Y-93.562
X130.946Y-79.95
X132.784Y-44.453
X133.067Y-76.061
X133.176Y-69.343
X133.244Y-65.631
X133.597Y-82.602
X135.012Y-75.884
X135.365Y-98.512
X135.542Y-84.546
X135.683Y-41.554
X135.719Y-88.966
X136.249Y-113.538
X137.31Y-89.142
X137.955Y-78.902
X138.017Y-92.678
X138.901Y-44.418
X138.901Y-87.905
X138.935Y-62.483
X139.608Y-65.631
X139.608Y-80.48
X139.785Y-110.002
X140.845Y-83.839
X141.082Y-63.457
X142.07Y-76.22
X143.32Y-56.969
X145.035Y-108.181
X145.972Y-78.713
X146.856Y-60.505
X146.856Y-106.467
X150.391Y-64.04
X150.391Y-102.931
X151.629Y-78.359
X153.927Y-99.395
X157.462Y-92.324
X157.462Y-95.86
X160.998Y-88.789
X164.18Y-82.425
X164.533Y-85.253
T2
X136.426Y-104.876
X146.502Y-92.678
X158.346Y-82.955
T3
X133.597Y-107.704
X135.012Y-106.29
X143.674Y-95.506
X145.088Y-94.092
X155.518Y-85.784
X156.932Y-84.369
T4
X91.127Y-77.164
X93.667Y-77.164
X96.207Y-77.164
X98.747Y-77.164
X99.779Y-83.268
X101.575Y-85.064
X103.371Y-86.86
X105.167Y-88.656
X110.086Y-87.375
X111.882Y-85.579
X113.678Y-83.783
X119.536Y-103.024
X121.332Y-104.82
X123.128Y-106.616
X124.924Y-108.412
X126.703Y-73.94
X128.16Y-40.14
X128.16Y-42.68
X128.16Y-45.22
X128.16Y-47.76
X128.499Y-72.144
X132.183Y-109.118
X134.264Y-48.784
X134.778Y-62.682
X136.06Y-50.58
X136.574Y-60.886
X137.84Y-103.461
X137.856Y-52.376
X138.37Y-59.09
X139.566Y-93.959
X139.652Y-54.172
X141.362Y-92.162
X142.259Y-96.921
X143.158Y-90.366
X144.954Y-88.57
X147.916Y-91.264
X154.02Y-68.54
X154.104Y-87.198
X155.816Y-70.336
X157.612Y-72.132
X159.408Y-73.928
X159.76Y-81.541
T5
X122.616Y-82.368
X124.412Y-84.164
X126.208Y-85.96
X128.004Y-87.756
X129.8Y-89.553
X131.596Y-91.349
X133.392Y-71.592
X133.392Y-93.145
X135.188Y-73.388
X135.188Y-94.941
X136.984Y-75.184
X136.984Y-96.737
X138.781Y-76.98
X138.781Y-98.533
X140.577Y-78.776
X140.577Y-100.329
X142.373Y-80.572
X142.373Y-102.125
X144.169Y-82.368
X145.965Y-84.164
X147.761Y-85.96
X149.557Y-87.756
X151.353Y-89.553
X153.149Y-91.349
T6
X80.674Y-91.822
X84.266Y-88.23
X87.858Y-84.637
X135.611Y-36.885
X139.203Y-33.293
X142.795Y-29.701
T7
X102.181Y-72.992
X124.016Y-51.185
T8
X105.136Y-79.596
X122.107Y-89.496
X130.592Y-54.141
X140.492Y-71.111
T3
G00X99.267Y-88.86
M15
G01X103.651Y-93.244
M16
G05
G00X99.444Y-92.218
M15
G01X108.071Y-100.845
M16
G05
G00X102.626Y-89.036
M15
G01X111.253Y-97.663
M16
G05
G00X107.046Y-96.638
M15
G01X111.43Y-101.022
M16
G05
G00X111.995Y-101.587
M15
G01X116.379Y-105.972
M16
G05
G00X112.172Y-104.946
M15
G01X120.799Y-113.573
M16
G05
G00X115.354Y-101.764
M15
G01X123.981Y-110.391
M16
G05
G00X119.773Y-109.366
M15
G01X124.158Y-113.75
M16
G05
G00X139.855Y-48.272
M15
G01X144.239Y-52.656
M16
G05
G00X140.032Y-51.63
M15
G01X148.659Y-60.257
M16
G05
G00X143.214Y-48.448
M15
G01X151.841Y-57.075
M16
G05
G00X147.634Y-56.05
M15
G01X152.018Y-60.434
M16
G05
G00X152.654Y-61.07
M15
G01X157.038Y-65.454
M16
G05
G00X152.831Y-64.429
M15
G01X161.457Y-73.056
M16
G05
G00X156.013Y-61.247
M15
G01X164.639Y-69.874
M16
G05
G00X160.432Y-68.848
M15
G01X164.816Y-73.233
M16
G05
M30
