G04 #@! TF.GenerationSoftware,KiCad,Pcbnew,9.0.2*
G04 #@! TF.CreationDate,2025-09-26T14:41:35-04:00*
G04 #@! TF.ProjectId,Trackball,54726163-6b62-4616-9c6c-2e6b69636164,rev?*
G04 #@! TF.SameCoordinates,Original*
G04 #@! TF.FileFunction,Profile,NP*
%FSLAX46Y46*%
G04 Gerber Fmt 4.6, Leading zero omitted, Abs format (unit mm)*
G04 Created by KiCad (PCBNEW 9.0.2) date 2025-09-26 14:41:35*
%MOMM*%
%LPD*%
G01*
G04 APERTURE LIST*
G04 #@! TA.AperFunction,Profile*
%ADD10C,0.050000*%
G04 #@! TD*
G04 APERTURE END LIST*
D10*
X74023685Y-94445716D02*
X78814334Y-99236365D01*
X85993966Y-75404370D02*
X74023685Y-87374648D01*
X98259770Y-86861996D02*
G75*
G02*
X99673984Y-86861996I707107J-707107D01*
G01*
X134566166Y-117865092D02*
X134453380Y-117917725D01*
X152517284Y-61923550D02*
G75*
G02*
X151103062Y-61923558I-707115J707115D01*
G01*
X145441470Y-23027931D02*
X150232118Y-27818580D01*
X98772422Y-122729987D02*
X103015063Y-126972628D01*
X124228267Y-112830492D02*
G75*
G02*
X125642480Y-112830492I707106J-707107D01*
G01*
X138370402Y-23027931D02*
G75*
G02*
X145441470Y-23027931I3535534J-3535534D01*
G01*
X126400170Y-34998164D02*
X138370402Y-23027931D01*
X111500344Y-100102570D02*
G75*
G02*
X112914558Y-100102570I707107J-707107D01*
G01*
X91701355Y-119901560D02*
X111500344Y-100102570D01*
X114151995Y-81894571D02*
X105844796Y-73587370D01*
X80387646Y-115658920D02*
X84630287Y-119901560D01*
X134453380Y-117917725D02*
G75*
G02*
X129933415Y-117121414I-1691537J3624724D01*
G01*
X173730487Y-47781415D02*
X177973128Y-52024055D01*
X100186636Y-87374648D02*
G75*
G02*
X100186636Y-88788862I-707107J-707107D01*
G01*
X98772422Y-122729987D02*
G75*
G02*
X98772421Y-115658920I3535534J3535534D01*
G01*
X137865959Y-47265299D02*
X150232118Y-34889647D01*
X123264843Y-52513706D02*
X122446831Y-49211446D01*
X168074381Y-78894861D02*
G75*
G02*
X168892895Y-83366468I-2828406J-2828448D01*
G01*
X177973128Y-59095123D02*
X163834456Y-73233795D01*
X112914558Y-100102570D02*
G75*
G02*
X112914558Y-101516784I-707107J-707107D01*
G01*
X110086131Y-126972628D02*
G75*
G02*
X103015063Y-126972628I-3535534J3535534D01*
G01*
X103509460Y-72269089D02*
G75*
G02*
X105844801Y-73587365I-1200443J-4854279D01*
G01*
X168751877Y-83679383D02*
G75*
G02*
X134566165Y-117865091I-66544888J32359183D01*
G01*
X137862496Y-48682976D02*
G75*
G02*
X137862487Y-47268753I707098J707116D01*
G01*
X74023685Y-94445716D02*
G75*
G02*
X74023685Y-87374648I3535534J3535534D01*
G01*
X139789362Y-49195628D02*
G75*
G02*
X138375140Y-49195636I-707115J707115D01*
G01*
X132890325Y-63156241D02*
X124583124Y-54849042D01*
X85993919Y-75404416D02*
G75*
G02*
X100207200Y-71451077I10606568J-10606478D01*
G01*
X80387646Y-108587852D02*
X100186636Y-88788862D01*
X159588352Y-29396638D02*
X139789362Y-49195628D01*
X177973128Y-52024055D02*
G75*
G02*
X177973120Y-59095115I-3535542J-3535526D01*
G01*
X132890325Y-63156241D02*
G75*
G02*
X132890325Y-64570455I-707107J-707107D01*
G01*
X170902060Y-40710347D02*
X151099607Y-60512800D01*
X132890325Y-64570455D02*
X115566208Y-81894571D01*
X115566208Y-81894571D02*
G75*
G02*
X114151995Y-81894571I-707106J707107D01*
G01*
X137862496Y-48682976D02*
X138375148Y-49195628D01*
X166659420Y-29396638D02*
X170902060Y-33639279D01*
X166659420Y-47781415D02*
G75*
G02*
X173730478Y-47781423I3535525J-3535525D01*
G01*
X168751877Y-83679383D02*
X168892870Y-83366457D01*
X159588352Y-29396638D02*
G75*
G02*
X166659411Y-29396647I3535525J-3535526D01*
G01*
X98259770Y-86861996D02*
X85885401Y-99236365D01*
X103509460Y-72269089D02*
X100207200Y-71451077D01*
X124583124Y-54849042D02*
G75*
G02*
X123264828Y-52513710I3535785J3535708D01*
G01*
X168074402Y-78894882D02*
X163830992Y-74651472D01*
X110086131Y-126972628D02*
X124228267Y-112830492D01*
X122446831Y-49211446D02*
G75*
G02*
X126400190Y-34998184I14559916J3606656D01*
G01*
X170902060Y-33639279D02*
G75*
G02*
X170902051Y-40710338I-3535542J-3535525D01*
G01*
X99673984Y-86861996D02*
X100186636Y-87374648D01*
X80387646Y-115658920D02*
G75*
G02*
X80387646Y-108587852I3535534J3535534D01*
G01*
X129933408Y-117121421D02*
X125642480Y-112830492D01*
X150232118Y-27818580D02*
G75*
G02*
X150232119Y-34889648I-3535533J-3535534D01*
G01*
X151103070Y-61923550D02*
G75*
G02*
X151103061Y-60509328I707099J707115D01*
G01*
X98772422Y-115658920D02*
X112914558Y-101516784D01*
X85885401Y-99236365D02*
G75*
G02*
X78814334Y-99236366I-3535534J3535534D01*
G01*
X166659420Y-47781415D02*
X152517284Y-61923550D01*
X163830992Y-74651472D02*
G75*
G02*
X163830983Y-73237250I707099J707115D01*
G01*
X91701355Y-119901560D02*
G75*
G02*
X84630287Y-119901560I-3535534J3535534D01*
G01*
M02*
