G04 #@! TF.GenerationSoftware,KiCad,Pcbnew,9.0.2*
G04 #@! TF.CreationDate,2025-09-19T14:37:04-04:00*
G04 #@! TF.ProjectId,Trackball,54726163-6b62-4616-9c6c-2e6b69636164,rev?*
G04 #@! TF.SameCoordinates,Original*
G04 #@! TF.FileFunction,Soldermask,Bot*
G04 #@! TF.FilePolarity,Negative*
%FSLAX46Y46*%
G04 Gerber Fmt 4.6, Leading zero omitted, Abs format (unit mm)*
G04 Created by KiCad (PCBNEW 9.0.2) date 2025-09-19 14:37:04*
%MOMM*%
%LPD*%
G01*
G04 APERTURE LIST*
G04 APERTURE END LIST*
G36*
X53077517Y-125086882D02*
G01*
X53094062Y-125097938D01*
X53105118Y-125114483D01*
X53109000Y-125134000D01*
X53109000Y-126834000D01*
X53105118Y-126853517D01*
X53094062Y-126870062D01*
X53077517Y-126881118D01*
X53058000Y-126885000D01*
X51358000Y-126885000D01*
X51338483Y-126881118D01*
X51321938Y-126870062D01*
X51310882Y-126853517D01*
X51307000Y-126834000D01*
X51307000Y-125134000D01*
X51310882Y-125114483D01*
X51321938Y-125097938D01*
X51338483Y-125086882D01*
X51358000Y-125083000D01*
X53058000Y-125083000D01*
X53077517Y-125086882D01*
G37*
G36*
X55009546Y-125121797D02*
G01*
X55172728Y-125189389D01*
X55319588Y-125287518D01*
X55444482Y-125412412D01*
X55542611Y-125559272D01*
X55610203Y-125722454D01*
X55644661Y-125895687D01*
X55644661Y-126072313D01*
X55610203Y-126245546D01*
X55542611Y-126408728D01*
X55444482Y-126555588D01*
X55319588Y-126680482D01*
X55172728Y-126778611D01*
X55009546Y-126846203D01*
X54836313Y-126880661D01*
X54659687Y-126880661D01*
X54486454Y-126846203D01*
X54323272Y-126778611D01*
X54176412Y-126680482D01*
X54051518Y-126555588D01*
X53953389Y-126408728D01*
X53885797Y-126245546D01*
X53851339Y-126072313D01*
X53851339Y-125895687D01*
X53885797Y-125722454D01*
X53953389Y-125559272D01*
X54051518Y-125412412D01*
X54176412Y-125287518D01*
X54323272Y-125189389D01*
X54486454Y-125121797D01*
X54659687Y-125087339D01*
X54836313Y-125087339D01*
X55009546Y-125121797D01*
G37*
G36*
X57549546Y-125121797D02*
G01*
X57712728Y-125189389D01*
X57859588Y-125287518D01*
X57984482Y-125412412D01*
X58082611Y-125559272D01*
X58150203Y-125722454D01*
X58184661Y-125895687D01*
X58184661Y-126072313D01*
X58150203Y-126245546D01*
X58082611Y-126408728D01*
X57984482Y-126555588D01*
X57859588Y-126680482D01*
X57712728Y-126778611D01*
X57549546Y-126846203D01*
X57376313Y-126880661D01*
X57199687Y-126880661D01*
X57026454Y-126846203D01*
X56863272Y-126778611D01*
X56716412Y-126680482D01*
X56591518Y-126555588D01*
X56493389Y-126408728D01*
X56425797Y-126245546D01*
X56391339Y-126072313D01*
X56391339Y-125895687D01*
X56425797Y-125722454D01*
X56493389Y-125559272D01*
X56591518Y-125412412D01*
X56716412Y-125287518D01*
X56863272Y-125189389D01*
X57026454Y-125121797D01*
X57199687Y-125087339D01*
X57376313Y-125087339D01*
X57549546Y-125121797D01*
G37*
G36*
X60089546Y-125121797D02*
G01*
X60252728Y-125189389D01*
X60399588Y-125287518D01*
X60524482Y-125412412D01*
X60622611Y-125559272D01*
X60690203Y-125722454D01*
X60724661Y-125895687D01*
X60724661Y-126072313D01*
X60690203Y-126245546D01*
X60622611Y-126408728D01*
X60524482Y-126555588D01*
X60399588Y-126680482D01*
X60252728Y-126778611D01*
X60089546Y-126846203D01*
X59916313Y-126880661D01*
X59739687Y-126880661D01*
X59566454Y-126846203D01*
X59403272Y-126778611D01*
X59256412Y-126680482D01*
X59131518Y-126555588D01*
X59033389Y-126408728D01*
X58965797Y-126245546D01*
X58931339Y-126072313D01*
X58931339Y-125895687D01*
X58965797Y-125722454D01*
X59033389Y-125559272D01*
X59131518Y-125412412D01*
X59256412Y-125287518D01*
X59403272Y-125189389D01*
X59566454Y-125121797D01*
X59739687Y-125087339D01*
X59916313Y-125087339D01*
X60089546Y-125121797D01*
G37*
G36*
X34077308Y-114835043D02*
G01*
X34356207Y-114898700D01*
X34626225Y-114993183D01*
X34883967Y-115117305D01*
X35126190Y-115269504D01*
X35349850Y-115447867D01*
X35552133Y-115650150D01*
X35730496Y-115873810D01*
X35882695Y-116116033D01*
X36006817Y-116373775D01*
X36101300Y-116643793D01*
X36164957Y-116922692D01*
X36196987Y-117206964D01*
X36196987Y-117493036D01*
X36164957Y-117777308D01*
X36101300Y-118056207D01*
X36006817Y-118326225D01*
X35882695Y-118583967D01*
X35730496Y-118826190D01*
X35552133Y-119049850D01*
X35349850Y-119252133D01*
X35126190Y-119430496D01*
X34883967Y-119582695D01*
X34626225Y-119706817D01*
X34356207Y-119801300D01*
X34077308Y-119864957D01*
X33793036Y-119896987D01*
X33506964Y-119896987D01*
X33222692Y-119864957D01*
X32943793Y-119801300D01*
X32673775Y-119706817D01*
X32416033Y-119582695D01*
X32173810Y-119430496D01*
X31950150Y-119252133D01*
X31747867Y-119049850D01*
X31569504Y-118826190D01*
X31417305Y-118583967D01*
X31293183Y-118326225D01*
X31198700Y-118056207D01*
X31135043Y-117777308D01*
X31103013Y-117493036D01*
X31103013Y-117206964D01*
X31135043Y-116922692D01*
X31198700Y-116643793D01*
X31293183Y-116373775D01*
X31417305Y-116116033D01*
X31569504Y-115873810D01*
X31747867Y-115650150D01*
X31950150Y-115447867D01*
X32173810Y-115269504D01*
X32416033Y-115117305D01*
X32673775Y-114993183D01*
X32943793Y-114898700D01*
X33222692Y-114835043D01*
X33506964Y-114803013D01*
X33793036Y-114803013D01*
X34077308Y-114835043D01*
G37*
G36*
X50327308Y-109085043D02*
G01*
X50606207Y-109148700D01*
X50876225Y-109243183D01*
X51133967Y-109367305D01*
X51376190Y-109519504D01*
X51599850Y-109697867D01*
X51802133Y-109900150D01*
X51980496Y-110123810D01*
X52132695Y-110366033D01*
X52256817Y-110623775D01*
X52351300Y-110893793D01*
X52414957Y-111172692D01*
X52446987Y-111456964D01*
X52446987Y-111743036D01*
X52414957Y-112027308D01*
X52351300Y-112306207D01*
X52256817Y-112576225D01*
X52132695Y-112833967D01*
X51980496Y-113076190D01*
X51802133Y-113299850D01*
X51599850Y-113502133D01*
X51376190Y-113680496D01*
X51133967Y-113832695D01*
X50876225Y-113956817D01*
X50606207Y-114051300D01*
X50327308Y-114114957D01*
X50043036Y-114146987D01*
X49756964Y-114146987D01*
X49472692Y-114114957D01*
X49193793Y-114051300D01*
X48923775Y-113956817D01*
X48666033Y-113832695D01*
X48423810Y-113680496D01*
X48200150Y-113502133D01*
X47997867Y-113299850D01*
X47819504Y-113076190D01*
X47667305Y-112833967D01*
X47543183Y-112576225D01*
X47448700Y-112306207D01*
X47385043Y-112027308D01*
X47353013Y-111743036D01*
X47353013Y-111456964D01*
X47385043Y-111172692D01*
X47448700Y-110893793D01*
X47543183Y-110623775D01*
X47667305Y-110366033D01*
X47819504Y-110123810D01*
X47997867Y-109900150D01*
X48200150Y-109697867D01*
X48423810Y-109519504D01*
X48666033Y-109367305D01*
X48923775Y-109243183D01*
X49193793Y-109148700D01*
X49472692Y-109085043D01*
X49756964Y-109053013D01*
X50043036Y-109053013D01*
X50327308Y-109085043D01*
G37*
G36*
X88137546Y-104547797D02*
G01*
X88300728Y-104615389D01*
X88447588Y-104713518D01*
X88572482Y-104838412D01*
X88670611Y-104985272D01*
X88738203Y-105148454D01*
X88772661Y-105321687D01*
X88772661Y-105498313D01*
X88738203Y-105671546D01*
X88670611Y-105834728D01*
X88572482Y-105981588D01*
X88447588Y-106106482D01*
X88300728Y-106204611D01*
X88137546Y-106272203D01*
X87964313Y-106306661D01*
X87787687Y-106306661D01*
X87614454Y-106272203D01*
X87451272Y-106204611D01*
X87304412Y-106106482D01*
X87179518Y-105981588D01*
X87081389Y-105834728D01*
X87013797Y-105671546D01*
X86979339Y-105498313D01*
X86979339Y-105321687D01*
X87013797Y-105148454D01*
X87081389Y-104985272D01*
X87179518Y-104838412D01*
X87304412Y-104713518D01*
X87451272Y-104615389D01*
X87614454Y-104547797D01*
X87787687Y-104513339D01*
X87964313Y-104513339D01*
X88137546Y-104547797D01*
G37*
G36*
X88137546Y-102007797D02*
G01*
X88300728Y-102075389D01*
X88447588Y-102173518D01*
X88572482Y-102298412D01*
X88670611Y-102445272D01*
X88738203Y-102608454D01*
X88772661Y-102781687D01*
X88772661Y-102958313D01*
X88738203Y-103131546D01*
X88670611Y-103294728D01*
X88572482Y-103441588D01*
X88447588Y-103566482D01*
X88300728Y-103664611D01*
X88137546Y-103732203D01*
X87964313Y-103766661D01*
X87787687Y-103766661D01*
X87614454Y-103732203D01*
X87451272Y-103664611D01*
X87304412Y-103566482D01*
X87179518Y-103441588D01*
X87081389Y-103294728D01*
X87013797Y-103131546D01*
X86979339Y-102958313D01*
X86979339Y-102781687D01*
X87013797Y-102608454D01*
X87081389Y-102445272D01*
X87179518Y-102298412D01*
X87304412Y-102173518D01*
X87451272Y-102075389D01*
X87614454Y-102007797D01*
X87787687Y-101973339D01*
X87964313Y-101973339D01*
X88137546Y-102007797D01*
G37*
G36*
X88137546Y-99467797D02*
G01*
X88300728Y-99535389D01*
X88447588Y-99633518D01*
X88572482Y-99758412D01*
X88670611Y-99905272D01*
X88738203Y-100068454D01*
X88772661Y-100241687D01*
X88772661Y-100418313D01*
X88738203Y-100591546D01*
X88670611Y-100754728D01*
X88572482Y-100901588D01*
X88447588Y-101026482D01*
X88300728Y-101124611D01*
X88137546Y-101192203D01*
X87964313Y-101226661D01*
X87787687Y-101226661D01*
X87614454Y-101192203D01*
X87451272Y-101124611D01*
X87304412Y-101026482D01*
X87179518Y-100901588D01*
X87081389Y-100754728D01*
X87013797Y-100591546D01*
X86979339Y-100418313D01*
X86979339Y-100241687D01*
X87013797Y-100068454D01*
X87081389Y-99905272D01*
X87179518Y-99758412D01*
X87304412Y-99633518D01*
X87451272Y-99535389D01*
X87614454Y-99467797D01*
X87787687Y-99433339D01*
X87964313Y-99433339D01*
X88137546Y-99467797D01*
G37*
G36*
X88745517Y-96892882D02*
G01*
X88762062Y-96903938D01*
X88773118Y-96920483D01*
X88777000Y-96940000D01*
X88777000Y-98640000D01*
X88773118Y-98659517D01*
X88762062Y-98676062D01*
X88745517Y-98687118D01*
X88726000Y-98691000D01*
X87026000Y-98691000D01*
X87006483Y-98687118D01*
X86989938Y-98676062D01*
X86978882Y-98659517D01*
X86975000Y-98640000D01*
X86975000Y-96940000D01*
X86978882Y-96920483D01*
X86989938Y-96903938D01*
X87006483Y-96892882D01*
X87026000Y-96889000D01*
X88726000Y-96889000D01*
X88745517Y-96892882D01*
G37*
G36*
X50327308Y-89085043D02*
G01*
X50606207Y-89148700D01*
X50876225Y-89243183D01*
X51133967Y-89367305D01*
X51376190Y-89519504D01*
X51599850Y-89697867D01*
X51802133Y-89900150D01*
X51980496Y-90123810D01*
X52132695Y-90366033D01*
X52256817Y-90623775D01*
X52351300Y-90893793D01*
X52414957Y-91172692D01*
X52446987Y-91456964D01*
X52446987Y-91743036D01*
X52414957Y-92027308D01*
X52351300Y-92306207D01*
X52256817Y-92576225D01*
X52132695Y-92833967D01*
X51980496Y-93076190D01*
X51802133Y-93299850D01*
X51599850Y-93502133D01*
X51376190Y-93680496D01*
X51133967Y-93832695D01*
X50876225Y-93956817D01*
X50606207Y-94051300D01*
X50327308Y-94114957D01*
X50043036Y-94146987D01*
X49756964Y-94146987D01*
X49472692Y-94114957D01*
X49193793Y-94051300D01*
X48923775Y-93956817D01*
X48666033Y-93832695D01*
X48423810Y-93680496D01*
X48200150Y-93502133D01*
X47997867Y-93299850D01*
X47819504Y-93076190D01*
X47667305Y-92833967D01*
X47543183Y-92576225D01*
X47448700Y-92306207D01*
X47385043Y-92027308D01*
X47353013Y-91743036D01*
X47353013Y-91456964D01*
X47385043Y-91172692D01*
X47448700Y-90893793D01*
X47543183Y-90623775D01*
X47667305Y-90366033D01*
X47819504Y-90123810D01*
X47997867Y-89900150D01*
X48200150Y-89697867D01*
X48423810Y-89519504D01*
X48666033Y-89367305D01*
X48923775Y-89243183D01*
X49193793Y-89148700D01*
X49472692Y-89085043D01*
X49756964Y-89053013D01*
X50043036Y-89053013D01*
X50327308Y-89085043D01*
G37*
G36*
X34077308Y-83335043D02*
G01*
X34356207Y-83398700D01*
X34626225Y-83493183D01*
X34883967Y-83617305D01*
X35126190Y-83769504D01*
X35349850Y-83947867D01*
X35552133Y-84150150D01*
X35730496Y-84373810D01*
X35882695Y-84616033D01*
X36006817Y-84873775D01*
X36101300Y-85143793D01*
X36164957Y-85422692D01*
X36196987Y-85706964D01*
X36196987Y-85993036D01*
X36164957Y-86277308D01*
X36101300Y-86556207D01*
X36006817Y-86826225D01*
X35882695Y-87083967D01*
X35730496Y-87326190D01*
X35552133Y-87549850D01*
X35349850Y-87752133D01*
X35126190Y-87930496D01*
X34883967Y-88082695D01*
X34626225Y-88206817D01*
X34356207Y-88301300D01*
X34077308Y-88364957D01*
X33793036Y-88396987D01*
X33506964Y-88396987D01*
X33222692Y-88364957D01*
X32943793Y-88301300D01*
X32673775Y-88206817D01*
X32416033Y-88082695D01*
X32173810Y-87930496D01*
X31950150Y-87752133D01*
X31747867Y-87549850D01*
X31569504Y-87326190D01*
X31417305Y-87083967D01*
X31293183Y-86826225D01*
X31198700Y-86556207D01*
X31135043Y-86277308D01*
X31103013Y-85993036D01*
X31103013Y-85706964D01*
X31135043Y-85422692D01*
X31198700Y-85143793D01*
X31293183Y-84873775D01*
X31417305Y-84616033D01*
X31569504Y-84373810D01*
X31747867Y-84150150D01*
X31950150Y-83947867D01*
X32173810Y-83769504D01*
X32416033Y-83617305D01*
X32673775Y-83493183D01*
X32943793Y-83398700D01*
X33222692Y-83335043D01*
X33506964Y-83303013D01*
X33793036Y-83303013D01*
X34077308Y-83335043D01*
G37*
G36*
X53077517Y-76318882D02*
G01*
X53094062Y-76329938D01*
X53105118Y-76346483D01*
X53109000Y-76366000D01*
X53109000Y-78066000D01*
X53105118Y-78085517D01*
X53094062Y-78102062D01*
X53077517Y-78113118D01*
X53058000Y-78117000D01*
X51358000Y-78117000D01*
X51338483Y-78113118D01*
X51321938Y-78102062D01*
X51310882Y-78085517D01*
X51307000Y-78066000D01*
X51307000Y-76366000D01*
X51310882Y-76346483D01*
X51321938Y-76329938D01*
X51338483Y-76318882D01*
X51358000Y-76315000D01*
X53058000Y-76315000D01*
X53077517Y-76318882D01*
G37*
G36*
X55009546Y-76353797D02*
G01*
X55172728Y-76421389D01*
X55319588Y-76519518D01*
X55444482Y-76644412D01*
X55542611Y-76791272D01*
X55610203Y-76954454D01*
X55644661Y-77127687D01*
X55644661Y-77304313D01*
X55610203Y-77477546D01*
X55542611Y-77640728D01*
X55444482Y-77787588D01*
X55319588Y-77912482D01*
X55172728Y-78010611D01*
X55009546Y-78078203D01*
X54836313Y-78112661D01*
X54659687Y-78112661D01*
X54486454Y-78078203D01*
X54323272Y-78010611D01*
X54176412Y-77912482D01*
X54051518Y-77787588D01*
X53953389Y-77640728D01*
X53885797Y-77477546D01*
X53851339Y-77304313D01*
X53851339Y-77127687D01*
X53885797Y-76954454D01*
X53953389Y-76791272D01*
X54051518Y-76644412D01*
X54176412Y-76519518D01*
X54323272Y-76421389D01*
X54486454Y-76353797D01*
X54659687Y-76319339D01*
X54836313Y-76319339D01*
X55009546Y-76353797D01*
G37*
G36*
X57549546Y-76353797D02*
G01*
X57712728Y-76421389D01*
X57859588Y-76519518D01*
X57984482Y-76644412D01*
X58082611Y-76791272D01*
X58150203Y-76954454D01*
X58184661Y-77127687D01*
X58184661Y-77304313D01*
X58150203Y-77477546D01*
X58082611Y-77640728D01*
X57984482Y-77787588D01*
X57859588Y-77912482D01*
X57712728Y-78010611D01*
X57549546Y-78078203D01*
X57376313Y-78112661D01*
X57199687Y-78112661D01*
X57026454Y-78078203D01*
X56863272Y-78010611D01*
X56716412Y-77912482D01*
X56591518Y-77787588D01*
X56493389Y-77640728D01*
X56425797Y-77477546D01*
X56391339Y-77304313D01*
X56391339Y-77127687D01*
X56425797Y-76954454D01*
X56493389Y-76791272D01*
X56591518Y-76644412D01*
X56716412Y-76519518D01*
X56863272Y-76421389D01*
X57026454Y-76353797D01*
X57199687Y-76319339D01*
X57376313Y-76319339D01*
X57549546Y-76353797D01*
G37*
G36*
X60089546Y-76353797D02*
G01*
X60252728Y-76421389D01*
X60399588Y-76519518D01*
X60524482Y-76644412D01*
X60622611Y-76791272D01*
X60690203Y-76954454D01*
X60724661Y-77127687D01*
X60724661Y-77304313D01*
X60690203Y-77477546D01*
X60622611Y-77640728D01*
X60524482Y-77787588D01*
X60399588Y-77912482D01*
X60252728Y-78010611D01*
X60089546Y-78078203D01*
X59916313Y-78112661D01*
X59739687Y-78112661D01*
X59566454Y-78078203D01*
X59403272Y-78010611D01*
X59256412Y-77912482D01*
X59131518Y-77787588D01*
X59033389Y-77640728D01*
X58965797Y-77477546D01*
X58931339Y-77304313D01*
X58931339Y-77127687D01*
X58965797Y-76954454D01*
X59033389Y-76791272D01*
X59131518Y-76644412D01*
X59256412Y-76519518D01*
X59403272Y-76421389D01*
X59566454Y-76353797D01*
X59739687Y-76319339D01*
X59916313Y-76319339D01*
X60089546Y-76353797D01*
G37*
M02*
