M48
; DRILL file {KiCad 9.0.2} date 2025-09-19T14:37:11-0400
; FORMAT={-:-/ absolute / metric / decimal}
; #@! TF.CreationDate,2025-09-19T14:37:11-04:00
; #@! TF.GenerationSoftware,Kicad,Pcbnew,9.0.2
; #@! TF.FileFunction,Plated,1,2,PTH
FMAT,2
METRIC
; #@! TA.AperFunction,Plated,PTH,ViaDrill
T1C0.400
; #@! TA.AperFunction,Plated,PTH,ComponentDrill
T2C1.000
; #@! TA.AperFunction,Plated,PTH,ComponentDrill
T3C2.500
%
G90
G05
T1
X42.4Y-81.6
X42.4Y-121.6
X52.4Y-81.6
X52.4Y-121.6
X62.4Y-81.6
X62.4Y-96.6
X62.4Y-106.6
X62.4Y-121.6
X72.4Y-81.6
X72.4Y-121.6
X82.4Y-81.6
X82.4Y-91.6
X82.4Y-111.6
X82.4Y-121.6
X92.4Y-91.6
X92.4Y-111.6
X95.207Y-99.111
T2
X52.208Y-77.216
X52.208Y-125.984
X54.748Y-77.216
X54.748Y-125.984
X57.288Y-77.216
X57.288Y-125.984
X59.828Y-77.216
X59.828Y-125.984
X87.876Y-97.79
X87.876Y-100.33
X87.876Y-102.87
X87.876Y-105.41
T3
X33.65Y-85.85
X33.65Y-117.35
X49.9Y-91.6
X49.9Y-111.6
M30
