G04 #@! TF.GenerationSoftware,KiCad,Pcbnew,9.0.2*
G04 #@! TF.CreationDate,2025-10-10T20:33:48-04:00*
G04 #@! TF.ProjectId,Trackball,54726163-6b62-4616-9c6c-2e6b69636164,rev?*
G04 #@! TF.SameCoordinates,Original*
G04 #@! TF.FileFunction,Soldermask,Bot*
G04 #@! TF.FilePolarity,Negative*
%FSLAX46Y46*%
G04 Gerber Fmt 4.6, Leading zero omitted, Abs format (unit mm)*
G04 Created by KiCad (PCBNEW 9.0.2) date 2025-10-10 20:33:48*
%MOMM*%
%LPD*%
G01*
G04 APERTURE LIST*
G04 APERTURE END LIST*
G36*
X50077517Y-105086882D02*
G01*
X50094062Y-105097938D01*
X50105118Y-105114483D01*
X50109000Y-105134000D01*
X50109000Y-106834000D01*
X50105118Y-106853517D01*
X50094062Y-106870062D01*
X50077517Y-106881118D01*
X50058000Y-106885000D01*
X48358000Y-106885000D01*
X48338483Y-106881118D01*
X48321938Y-106870062D01*
X48310882Y-106853517D01*
X48307000Y-106834000D01*
X48307000Y-105134000D01*
X48310882Y-105114483D01*
X48321938Y-105097938D01*
X48338483Y-105086882D01*
X48358000Y-105083000D01*
X50058000Y-105083000D01*
X50077517Y-105086882D01*
G37*
G36*
X52009546Y-105121797D02*
G01*
X52172728Y-105189389D01*
X52319588Y-105287518D01*
X52444482Y-105412412D01*
X52542611Y-105559272D01*
X52610203Y-105722454D01*
X52644661Y-105895687D01*
X52644661Y-106072313D01*
X52610203Y-106245546D01*
X52542611Y-106408728D01*
X52444482Y-106555588D01*
X52319588Y-106680482D01*
X52172728Y-106778611D01*
X52009546Y-106846203D01*
X51836313Y-106880661D01*
X51659687Y-106880661D01*
X51486454Y-106846203D01*
X51323272Y-106778611D01*
X51176412Y-106680482D01*
X51051518Y-106555588D01*
X50953389Y-106408728D01*
X50885797Y-106245546D01*
X50851339Y-106072313D01*
X50851339Y-105895687D01*
X50885797Y-105722454D01*
X50953389Y-105559272D01*
X51051518Y-105412412D01*
X51176412Y-105287518D01*
X51323272Y-105189389D01*
X51486454Y-105121797D01*
X51659687Y-105087339D01*
X51836313Y-105087339D01*
X52009546Y-105121797D01*
G37*
G36*
X54549546Y-105121797D02*
G01*
X54712728Y-105189389D01*
X54859588Y-105287518D01*
X54984482Y-105412412D01*
X55082611Y-105559272D01*
X55150203Y-105722454D01*
X55184661Y-105895687D01*
X55184661Y-106072313D01*
X55150203Y-106245546D01*
X55082611Y-106408728D01*
X54984482Y-106555588D01*
X54859588Y-106680482D01*
X54712728Y-106778611D01*
X54549546Y-106846203D01*
X54376313Y-106880661D01*
X54199687Y-106880661D01*
X54026454Y-106846203D01*
X53863272Y-106778611D01*
X53716412Y-106680482D01*
X53591518Y-106555588D01*
X53493389Y-106408728D01*
X53425797Y-106245546D01*
X53391339Y-106072313D01*
X53391339Y-105895687D01*
X53425797Y-105722454D01*
X53493389Y-105559272D01*
X53591518Y-105412412D01*
X53716412Y-105287518D01*
X53863272Y-105189389D01*
X54026454Y-105121797D01*
X54199687Y-105087339D01*
X54376313Y-105087339D01*
X54549546Y-105121797D01*
G37*
G36*
X57089546Y-105121797D02*
G01*
X57252728Y-105189389D01*
X57399588Y-105287518D01*
X57524482Y-105412412D01*
X57622611Y-105559272D01*
X57690203Y-105722454D01*
X57724661Y-105895687D01*
X57724661Y-106072313D01*
X57690203Y-106245546D01*
X57622611Y-106408728D01*
X57524482Y-106555588D01*
X57399588Y-106680482D01*
X57252728Y-106778611D01*
X57089546Y-106846203D01*
X56916313Y-106880661D01*
X56739687Y-106880661D01*
X56566454Y-106846203D01*
X56403272Y-106778611D01*
X56256412Y-106680482D01*
X56131518Y-106555588D01*
X56033389Y-106408728D01*
X55965797Y-106245546D01*
X55931339Y-106072313D01*
X55931339Y-105895687D01*
X55965797Y-105722454D01*
X56033389Y-105559272D01*
X56131518Y-105412412D01*
X56256412Y-105287518D01*
X56403272Y-105189389D01*
X56566454Y-105121797D01*
X56739687Y-105087339D01*
X56916313Y-105087339D01*
X57089546Y-105121797D01*
G37*
G36*
X34077308Y-94835043D02*
G01*
X34356207Y-94898700D01*
X34626225Y-94993183D01*
X34883967Y-95117305D01*
X35126190Y-95269504D01*
X35349850Y-95447867D01*
X35552133Y-95650150D01*
X35730496Y-95873810D01*
X35882695Y-96116033D01*
X36006817Y-96373775D01*
X36101300Y-96643793D01*
X36164957Y-96922692D01*
X36196987Y-97206964D01*
X36196987Y-97493036D01*
X36164957Y-97777308D01*
X36101300Y-98056207D01*
X36006817Y-98326225D01*
X35882695Y-98583967D01*
X35730496Y-98826190D01*
X35552133Y-99049850D01*
X35349850Y-99252133D01*
X35126190Y-99430496D01*
X34883967Y-99582695D01*
X34626225Y-99706817D01*
X34356207Y-99801300D01*
X34077308Y-99864957D01*
X33793036Y-99896987D01*
X33506964Y-99896987D01*
X33222692Y-99864957D01*
X32943793Y-99801300D01*
X32673775Y-99706817D01*
X32416033Y-99582695D01*
X32173810Y-99430496D01*
X31950150Y-99252133D01*
X31747867Y-99049850D01*
X31569504Y-98826190D01*
X31417305Y-98583967D01*
X31293183Y-98326225D01*
X31198700Y-98056207D01*
X31135043Y-97777308D01*
X31103013Y-97493036D01*
X31103013Y-97206964D01*
X31135043Y-96922692D01*
X31198700Y-96643793D01*
X31293183Y-96373775D01*
X31417305Y-96116033D01*
X31569504Y-95873810D01*
X31747867Y-95650150D01*
X31950150Y-95447867D01*
X32173810Y-95269504D01*
X32416033Y-95117305D01*
X32673775Y-94993183D01*
X32943793Y-94898700D01*
X33222692Y-94835043D01*
X33506964Y-94803013D01*
X33793036Y-94803013D01*
X34077308Y-94835043D01*
G37*
G36*
X72921040Y-91087434D02*
G01*
X73262823Y-91155419D01*
X73596296Y-91256577D01*
X73918248Y-91389934D01*
X74225579Y-91554206D01*
X74515328Y-91747810D01*
X74784706Y-91968883D01*
X75031117Y-92215294D01*
X75252190Y-92484672D01*
X75445794Y-92774421D01*
X75610066Y-93081752D01*
X75743423Y-93403704D01*
X75844581Y-93737177D01*
X75912566Y-94078960D01*
X75946723Y-94425761D01*
X75946723Y-94774239D01*
X75912566Y-95121040D01*
X75844581Y-95462823D01*
X75743423Y-95796296D01*
X75610066Y-96118248D01*
X75445794Y-96425579D01*
X75252190Y-96715328D01*
X75031117Y-96984706D01*
X74784706Y-97231117D01*
X74515328Y-97452190D01*
X74225579Y-97645794D01*
X73918248Y-97810066D01*
X73596296Y-97943423D01*
X73262823Y-98044581D01*
X72921040Y-98112566D01*
X72574239Y-98146723D01*
X72225761Y-98146723D01*
X71878960Y-98112566D01*
X71537177Y-98044581D01*
X71203704Y-97943423D01*
X70881752Y-97810066D01*
X70574421Y-97645794D01*
X70284672Y-97452190D01*
X70015294Y-97231117D01*
X69768883Y-96984706D01*
X69547810Y-96715328D01*
X69354206Y-96425579D01*
X69189934Y-96118248D01*
X69056577Y-95796296D01*
X68955419Y-95462823D01*
X68887434Y-95121040D01*
X68853277Y-94774239D01*
X68853277Y-94425761D01*
X68887434Y-94078960D01*
X68955419Y-93737177D01*
X69056577Y-93403704D01*
X69189934Y-93081752D01*
X69354206Y-92774421D01*
X69547810Y-92484672D01*
X69768883Y-92215294D01*
X70015294Y-91968883D01*
X70284672Y-91747810D01*
X70574421Y-91554206D01*
X70881752Y-91389934D01*
X71203704Y-91256577D01*
X71537177Y-91155419D01*
X71878960Y-91087434D01*
X72225761Y-91053277D01*
X72574239Y-91053277D01*
X72921040Y-91087434D01*
G37*
G36*
X50327308Y-89085043D02*
G01*
X50606207Y-89148700D01*
X50876225Y-89243183D01*
X51133967Y-89367305D01*
X51376190Y-89519504D01*
X51599850Y-89697867D01*
X51802133Y-89900150D01*
X51980496Y-90123810D01*
X52132695Y-90366033D01*
X52256817Y-90623775D01*
X52351300Y-90893793D01*
X52414957Y-91172692D01*
X52446987Y-91456964D01*
X52446987Y-91743036D01*
X52414957Y-92027308D01*
X52351300Y-92306207D01*
X52256817Y-92576225D01*
X52132695Y-92833967D01*
X51980496Y-93076190D01*
X51802133Y-93299850D01*
X51599850Y-93502133D01*
X51376190Y-93680496D01*
X51133967Y-93832695D01*
X50876225Y-93956817D01*
X50606207Y-94051300D01*
X50327308Y-94114957D01*
X50043036Y-94146987D01*
X49756964Y-94146987D01*
X49472692Y-94114957D01*
X49193793Y-94051300D01*
X48923775Y-93956817D01*
X48666033Y-93832695D01*
X48423810Y-93680496D01*
X48200150Y-93502133D01*
X47997867Y-93299850D01*
X47819504Y-93076190D01*
X47667305Y-92833967D01*
X47543183Y-92576225D01*
X47448700Y-92306207D01*
X47385043Y-92027308D01*
X47353013Y-91743036D01*
X47353013Y-91456964D01*
X47385043Y-91172692D01*
X47448700Y-90893793D01*
X47543183Y-90623775D01*
X47667305Y-90366033D01*
X47819504Y-90123810D01*
X47997867Y-89900150D01*
X48200150Y-89697867D01*
X48423810Y-89519504D01*
X48666033Y-89367305D01*
X48923775Y-89243183D01*
X49193793Y-89148700D01*
X49472692Y-89085043D01*
X49756964Y-89053013D01*
X50043036Y-89053013D01*
X50327308Y-89085043D01*
G37*
G36*
X88137546Y-84547797D02*
G01*
X88300728Y-84615389D01*
X88447588Y-84713518D01*
X88572482Y-84838412D01*
X88670611Y-84985272D01*
X88738203Y-85148454D01*
X88772661Y-85321687D01*
X88772661Y-85498313D01*
X88738203Y-85671546D01*
X88670611Y-85834728D01*
X88572482Y-85981588D01*
X88447588Y-86106482D01*
X88300728Y-86204611D01*
X88137546Y-86272203D01*
X87964313Y-86306661D01*
X87787687Y-86306661D01*
X87614454Y-86272203D01*
X87451272Y-86204611D01*
X87304412Y-86106482D01*
X87179518Y-85981588D01*
X87081389Y-85834728D01*
X87013797Y-85671546D01*
X86979339Y-85498313D01*
X86979339Y-85321687D01*
X87013797Y-85148454D01*
X87081389Y-84985272D01*
X87179518Y-84838412D01*
X87304412Y-84713518D01*
X87451272Y-84615389D01*
X87614454Y-84547797D01*
X87787687Y-84513339D01*
X87964313Y-84513339D01*
X88137546Y-84547797D01*
G37*
G36*
X88137546Y-82007797D02*
G01*
X88300728Y-82075389D01*
X88447588Y-82173518D01*
X88572482Y-82298412D01*
X88670611Y-82445272D01*
X88738203Y-82608454D01*
X88772661Y-82781687D01*
X88772661Y-82958313D01*
X88738203Y-83131546D01*
X88670611Y-83294728D01*
X88572482Y-83441588D01*
X88447588Y-83566482D01*
X88300728Y-83664611D01*
X88137546Y-83732203D01*
X87964313Y-83766661D01*
X87787687Y-83766661D01*
X87614454Y-83732203D01*
X87451272Y-83664611D01*
X87304412Y-83566482D01*
X87179518Y-83441588D01*
X87081389Y-83294728D01*
X87013797Y-83131546D01*
X86979339Y-82958313D01*
X86979339Y-82781687D01*
X87013797Y-82608454D01*
X87081389Y-82445272D01*
X87179518Y-82298412D01*
X87304412Y-82173518D01*
X87451272Y-82075389D01*
X87614454Y-82007797D01*
X87787687Y-81973339D01*
X87964313Y-81973339D01*
X88137546Y-82007797D01*
G37*
G36*
X88137546Y-79467797D02*
G01*
X88300728Y-79535389D01*
X88447588Y-79633518D01*
X88572482Y-79758412D01*
X88670611Y-79905272D01*
X88738203Y-80068454D01*
X88772661Y-80241687D01*
X88772661Y-80418313D01*
X88738203Y-80591546D01*
X88670611Y-80754728D01*
X88572482Y-80901588D01*
X88447588Y-81026482D01*
X88300728Y-81124611D01*
X88137546Y-81192203D01*
X87964313Y-81226661D01*
X87787687Y-81226661D01*
X87614454Y-81192203D01*
X87451272Y-81124611D01*
X87304412Y-81026482D01*
X87179518Y-80901588D01*
X87081389Y-80754728D01*
X87013797Y-80591546D01*
X86979339Y-80418313D01*
X86979339Y-80241687D01*
X87013797Y-80068454D01*
X87081389Y-79905272D01*
X87179518Y-79758412D01*
X87304412Y-79633518D01*
X87451272Y-79535389D01*
X87614454Y-79467797D01*
X87787687Y-79433339D01*
X87964313Y-79433339D01*
X88137546Y-79467797D01*
G37*
G36*
X88745517Y-76892882D02*
G01*
X88762062Y-76903938D01*
X88773118Y-76920483D01*
X88777000Y-76940000D01*
X88777000Y-78640000D01*
X88773118Y-78659517D01*
X88762062Y-78676062D01*
X88745517Y-78687118D01*
X88726000Y-78691000D01*
X87026000Y-78691000D01*
X87006483Y-78687118D01*
X86989938Y-78676062D01*
X86978882Y-78659517D01*
X86975000Y-78640000D01*
X86975000Y-76940000D01*
X86978882Y-76920483D01*
X86989938Y-76903938D01*
X87006483Y-76892882D01*
X87026000Y-76889000D01*
X88726000Y-76889000D01*
X88745517Y-76892882D01*
G37*
G36*
X50327308Y-69085043D02*
G01*
X50606207Y-69148700D01*
X50876225Y-69243183D01*
X51133967Y-69367305D01*
X51376190Y-69519504D01*
X51599850Y-69697867D01*
X51802133Y-69900150D01*
X51980496Y-70123810D01*
X52132695Y-70366033D01*
X52256817Y-70623775D01*
X52351300Y-70893793D01*
X52414957Y-71172692D01*
X52446987Y-71456964D01*
X52446987Y-71743036D01*
X52414957Y-72027308D01*
X52351300Y-72306207D01*
X52256817Y-72576225D01*
X52132695Y-72833967D01*
X51980496Y-73076190D01*
X51802133Y-73299850D01*
X51599850Y-73502133D01*
X51376190Y-73680496D01*
X51133967Y-73832695D01*
X50876225Y-73956817D01*
X50606207Y-74051300D01*
X50327308Y-74114957D01*
X50043036Y-74146987D01*
X49756964Y-74146987D01*
X49472692Y-74114957D01*
X49193793Y-74051300D01*
X48923775Y-73956817D01*
X48666033Y-73832695D01*
X48423810Y-73680496D01*
X48200150Y-73502133D01*
X47997867Y-73299850D01*
X47819504Y-73076190D01*
X47667305Y-72833967D01*
X47543183Y-72576225D01*
X47448700Y-72306207D01*
X47385043Y-72027308D01*
X47353013Y-71743036D01*
X47353013Y-71456964D01*
X47385043Y-71172692D01*
X47448700Y-70893793D01*
X47543183Y-70623775D01*
X47667305Y-70366033D01*
X47819504Y-70123810D01*
X47997867Y-69900150D01*
X48200150Y-69697867D01*
X48423810Y-69519504D01*
X48666033Y-69367305D01*
X48923775Y-69243183D01*
X49193793Y-69148700D01*
X49472692Y-69085043D01*
X49756964Y-69053013D01*
X50043036Y-69053013D01*
X50327308Y-69085043D01*
G37*
G36*
X72921040Y-65127434D02*
G01*
X73262823Y-65195419D01*
X73596296Y-65296577D01*
X73918248Y-65429934D01*
X74225579Y-65594206D01*
X74515328Y-65787810D01*
X74784706Y-66008883D01*
X75031117Y-66255294D01*
X75252190Y-66524672D01*
X75445794Y-66814421D01*
X75610066Y-67121752D01*
X75743423Y-67443704D01*
X75844581Y-67777177D01*
X75912566Y-68118960D01*
X75946723Y-68465761D01*
X75946723Y-68814239D01*
X75912566Y-69161040D01*
X75844581Y-69502823D01*
X75743423Y-69836296D01*
X75610066Y-70158248D01*
X75445794Y-70465579D01*
X75252190Y-70755328D01*
X75031117Y-71024706D01*
X74784706Y-71271117D01*
X74515328Y-71492190D01*
X74225579Y-71685794D01*
X73918248Y-71850066D01*
X73596296Y-71983423D01*
X73262823Y-72084581D01*
X72921040Y-72152566D01*
X72574239Y-72186723D01*
X72225761Y-72186723D01*
X71878960Y-72152566D01*
X71537177Y-72084581D01*
X71203704Y-71983423D01*
X70881752Y-71850066D01*
X70574421Y-71685794D01*
X70284672Y-71492190D01*
X70015294Y-71271117D01*
X69768883Y-71024706D01*
X69547810Y-70755328D01*
X69354206Y-70465579D01*
X69189934Y-70158248D01*
X69056577Y-69836296D01*
X68955419Y-69502823D01*
X68887434Y-69161040D01*
X68853277Y-68814239D01*
X68853277Y-68465761D01*
X68887434Y-68118960D01*
X68955419Y-67777177D01*
X69056577Y-67443704D01*
X69189934Y-67121752D01*
X69354206Y-66814421D01*
X69547810Y-66524672D01*
X69768883Y-66255294D01*
X70015294Y-66008883D01*
X70284672Y-65787810D01*
X70574421Y-65594206D01*
X70881752Y-65429934D01*
X71203704Y-65296577D01*
X71537177Y-65195419D01*
X71878960Y-65127434D01*
X72225761Y-65093277D01*
X72574239Y-65093277D01*
X72921040Y-65127434D01*
G37*
G36*
X34077308Y-63335043D02*
G01*
X34356207Y-63398700D01*
X34626225Y-63493183D01*
X34883967Y-63617305D01*
X35126190Y-63769504D01*
X35349850Y-63947867D01*
X35552133Y-64150150D01*
X35730496Y-64373810D01*
X35882695Y-64616033D01*
X36006817Y-64873775D01*
X36101300Y-65143793D01*
X36164957Y-65422692D01*
X36196987Y-65706964D01*
X36196987Y-65993036D01*
X36164957Y-66277308D01*
X36101300Y-66556207D01*
X36006817Y-66826225D01*
X35882695Y-67083967D01*
X35730496Y-67326190D01*
X35552133Y-67549850D01*
X35349850Y-67752133D01*
X35126190Y-67930496D01*
X34883967Y-68082695D01*
X34626225Y-68206817D01*
X34356207Y-68301300D01*
X34077308Y-68364957D01*
X33793036Y-68396987D01*
X33506964Y-68396987D01*
X33222692Y-68364957D01*
X32943793Y-68301300D01*
X32673775Y-68206817D01*
X32416033Y-68082695D01*
X32173810Y-67930496D01*
X31950150Y-67752133D01*
X31747867Y-67549850D01*
X31569504Y-67326190D01*
X31417305Y-67083967D01*
X31293183Y-66826225D01*
X31198700Y-66556207D01*
X31135043Y-66277308D01*
X31103013Y-65993036D01*
X31103013Y-65706964D01*
X31135043Y-65422692D01*
X31198700Y-65143793D01*
X31293183Y-64873775D01*
X31417305Y-64616033D01*
X31569504Y-64373810D01*
X31747867Y-64150150D01*
X31950150Y-63947867D01*
X32173810Y-63769504D01*
X32416033Y-63617305D01*
X32673775Y-63493183D01*
X32943793Y-63398700D01*
X33222692Y-63335043D01*
X33506964Y-63303013D01*
X33793036Y-63303013D01*
X34077308Y-63335043D01*
G37*
G36*
X50077517Y-56318882D02*
G01*
X50094062Y-56329938D01*
X50105118Y-56346483D01*
X50109000Y-56366000D01*
X50109000Y-58066000D01*
X50105118Y-58085517D01*
X50094062Y-58102062D01*
X50077517Y-58113118D01*
X50058000Y-58117000D01*
X48358000Y-58117000D01*
X48338483Y-58113118D01*
X48321938Y-58102062D01*
X48310882Y-58085517D01*
X48307000Y-58066000D01*
X48307000Y-56366000D01*
X48310882Y-56346483D01*
X48321938Y-56329938D01*
X48338483Y-56318882D01*
X48358000Y-56315000D01*
X50058000Y-56315000D01*
X50077517Y-56318882D01*
G37*
G36*
X52009546Y-56353797D02*
G01*
X52172728Y-56421389D01*
X52319588Y-56519518D01*
X52444482Y-56644412D01*
X52542611Y-56791272D01*
X52610203Y-56954454D01*
X52644661Y-57127687D01*
X52644661Y-57304313D01*
X52610203Y-57477546D01*
X52542611Y-57640728D01*
X52444482Y-57787588D01*
X52319588Y-57912482D01*
X52172728Y-58010611D01*
X52009546Y-58078203D01*
X51836313Y-58112661D01*
X51659687Y-58112661D01*
X51486454Y-58078203D01*
X51323272Y-58010611D01*
X51176412Y-57912482D01*
X51051518Y-57787588D01*
X50953389Y-57640728D01*
X50885797Y-57477546D01*
X50851339Y-57304313D01*
X50851339Y-57127687D01*
X50885797Y-56954454D01*
X50953389Y-56791272D01*
X51051518Y-56644412D01*
X51176412Y-56519518D01*
X51323272Y-56421389D01*
X51486454Y-56353797D01*
X51659687Y-56319339D01*
X51836313Y-56319339D01*
X52009546Y-56353797D01*
G37*
G36*
X54549546Y-56353797D02*
G01*
X54712728Y-56421389D01*
X54859588Y-56519518D01*
X54984482Y-56644412D01*
X55082611Y-56791272D01*
X55150203Y-56954454D01*
X55184661Y-57127687D01*
X55184661Y-57304313D01*
X55150203Y-57477546D01*
X55082611Y-57640728D01*
X54984482Y-57787588D01*
X54859588Y-57912482D01*
X54712728Y-58010611D01*
X54549546Y-58078203D01*
X54376313Y-58112661D01*
X54199687Y-58112661D01*
X54026454Y-58078203D01*
X53863272Y-58010611D01*
X53716412Y-57912482D01*
X53591518Y-57787588D01*
X53493389Y-57640728D01*
X53425797Y-57477546D01*
X53391339Y-57304313D01*
X53391339Y-57127687D01*
X53425797Y-56954454D01*
X53493389Y-56791272D01*
X53591518Y-56644412D01*
X53716412Y-56519518D01*
X53863272Y-56421389D01*
X54026454Y-56353797D01*
X54199687Y-56319339D01*
X54376313Y-56319339D01*
X54549546Y-56353797D01*
G37*
G36*
X57089546Y-56353797D02*
G01*
X57252728Y-56421389D01*
X57399588Y-56519518D01*
X57524482Y-56644412D01*
X57622611Y-56791272D01*
X57690203Y-56954454D01*
X57724661Y-57127687D01*
X57724661Y-57304313D01*
X57690203Y-57477546D01*
X57622611Y-57640728D01*
X57524482Y-57787588D01*
X57399588Y-57912482D01*
X57252728Y-58010611D01*
X57089546Y-58078203D01*
X56916313Y-58112661D01*
X56739687Y-58112661D01*
X56566454Y-58078203D01*
X56403272Y-58010611D01*
X56256412Y-57912482D01*
X56131518Y-57787588D01*
X56033389Y-57640728D01*
X55965797Y-57477546D01*
X55931339Y-57304313D01*
X55931339Y-57127687D01*
X55965797Y-56954454D01*
X56033389Y-56791272D01*
X56131518Y-56644412D01*
X56256412Y-56519518D01*
X56403272Y-56421389D01*
X56566454Y-56353797D01*
X56739687Y-56319339D01*
X56916313Y-56319339D01*
X57089546Y-56353797D01*
G37*
M02*
