G04 #@! TF.GenerationSoftware,KiCad,Pcbnew,9.0.2*
G04 #@! TF.CreationDate,2025-09-26T15:19:20-04:00*
G04 #@! TF.ProjectId,Trackball,54726163-6b62-4616-9c6c-2e6b69636164,rev?*
G04 #@! TF.SameCoordinates,Original*
G04 #@! TF.FileFunction,Profile,NP*
%FSLAX46Y46*%
G04 Gerber Fmt 4.6, Leading zero omitted, Abs format (unit mm)*
G04 Created by KiCad (PCBNEW 9.0.2) date 2025-09-26 15:19:20*
%MOMM*%
%LPD*%
G01*
G04 APERTURE LIST*
G04 #@! TA.AperFunction,Profile*
%ADD10C,0.050000*%
G04 #@! TD*
G04 APERTURE END LIST*
D10*
X90325889Y-64090020D02*
G75*
G02*
X53556338Y-100859572I-18384776J-18384776D01*
G01*
X78079767Y-51843898D02*
X90325888Y-64090019D01*
X41311768Y-88603552D02*
X53556337Y-100859573D01*
X94692274Y-33808172D02*
X78079547Y-50429951D01*
X65229771Y-39547242D02*
G75*
G02*
X58442329Y-40738192I-4242619J4242549D01*
G01*
X52707808Y-43442502D02*
G75*
G02*
X32908818Y-63241492I-5232590J-14566400D01*
G01*
X39897224Y-88603221D02*
G75*
G02*
X41311769Y-88603551I707108J-707106D01*
G01*
X11412772Y-100435308D02*
G75*
G02*
X11412772Y-93364241I3535534J3535533D01*
G01*
X65229736Y-39547277D02*
X82830557Y-21946456D01*
X23274489Y-105225957D02*
G75*
G02*
X16203421Y-105225957I-3535534J3535534D01*
G01*
X58442327Y-40738197D02*
X58396501Y-40716735D01*
X94692274Y-26737104D02*
G75*
G02*
X94692274Y-33808172I-3535534J-3535534D01*
G01*
X30207285Y-68977112D02*
X30185780Y-68931137D01*
X32908821Y-63241494D02*
X32415210Y-63420988D01*
X30185780Y-68931137D02*
G75*
G02*
X32415205Y-63420975I3596386J1750990D01*
G01*
X52888003Y-42946964D02*
G75*
G02*
X58396500Y-40716736I3759168J-1366962D01*
G01*
X11412772Y-100435308D02*
X16203421Y-105225957D01*
X82830557Y-21946456D02*
G75*
G02*
X89901625Y-21946456I3535534J-3535534D01*
G01*
X52707807Y-43442503D02*
X52888003Y-42946964D01*
X89901625Y-21946456D02*
X94692274Y-26737104D01*
X23274489Y-105225957D02*
X39897224Y-88603221D01*
X78079767Y-51843898D02*
G75*
G02*
X78079547Y-50429950I707129J707084D01*
G01*
X29015093Y-75761920D02*
X11412772Y-93364241D01*
X30207285Y-68977112D02*
G75*
G02*
X29015096Y-75761921I-5434833J-2542168D01*
G01*
M02*
