G04 #@! TF.GenerationSoftware,KiCad,Pcbnew,9.0.2*
G04 #@! TF.CreationDate,2025-09-26T14:10:11-04:00*
G04 #@! TF.ProjectId,Trackball,54726163-6b62-4616-9c6c-2e6b69636164,rev?*
G04 #@! TF.SameCoordinates,Original*
G04 #@! TF.FileFunction,Legend,Bot*
G04 #@! TF.FilePolarity,Positive*
%FSLAX46Y46*%
G04 Gerber Fmt 4.6, Leading zero omitted, Abs format (unit mm)*
G04 Created by KiCad (PCBNEW 9.0.2) date 2025-09-26 14:10:11*
%MOMM*%
%LPD*%
G01*
G04 APERTURE LIST*
%ADD10C,0.300000*%
%ADD11C,0.150000*%
%ADD12C,0.120000*%
G04 APERTURE END LIST*
D10*
X73435714Y-60285516D02*
X73650000Y-60214087D01*
X73650000Y-60214087D02*
X74007142Y-60214087D01*
X74007142Y-60214087D02*
X74150000Y-60285516D01*
X74150000Y-60285516D02*
X74221428Y-60356944D01*
X74221428Y-60356944D02*
X74292857Y-60499801D01*
X74292857Y-60499801D02*
X74292857Y-60642658D01*
X74292857Y-60642658D02*
X74221428Y-60785516D01*
X74221428Y-60785516D02*
X74150000Y-60856944D01*
X74150000Y-60856944D02*
X74007142Y-60928373D01*
X74007142Y-60928373D02*
X73721428Y-60999801D01*
X73721428Y-60999801D02*
X73578571Y-61071230D01*
X73578571Y-61071230D02*
X73507142Y-61142658D01*
X73507142Y-61142658D02*
X73435714Y-61285516D01*
X73435714Y-61285516D02*
X73435714Y-61428373D01*
X73435714Y-61428373D02*
X73507142Y-61571230D01*
X73507142Y-61571230D02*
X73578571Y-61642658D01*
X73578571Y-61642658D02*
X73721428Y-61714087D01*
X73721428Y-61714087D02*
X74078571Y-61714087D01*
X74078571Y-61714087D02*
X74292857Y-61642658D01*
X74935713Y-60999801D02*
X75435713Y-60999801D01*
X75649999Y-60214087D02*
X74935713Y-60214087D01*
X74935713Y-60214087D02*
X74935713Y-61714087D01*
X74935713Y-61714087D02*
X75649999Y-61714087D01*
X77007142Y-60214087D02*
X76292856Y-60214087D01*
X76292856Y-60214087D02*
X76292856Y-61714087D01*
X77507142Y-60999801D02*
X78007142Y-60999801D01*
X78221428Y-60214087D02*
X77507142Y-60214087D01*
X77507142Y-60214087D02*
X77507142Y-61714087D01*
X77507142Y-61714087D02*
X78221428Y-61714087D01*
X79721428Y-60356944D02*
X79650000Y-60285516D01*
X79650000Y-60285516D02*
X79435714Y-60214087D01*
X79435714Y-60214087D02*
X79292857Y-60214087D01*
X79292857Y-60214087D02*
X79078571Y-60285516D01*
X79078571Y-60285516D02*
X78935714Y-60428373D01*
X78935714Y-60428373D02*
X78864285Y-60571230D01*
X78864285Y-60571230D02*
X78792857Y-60856944D01*
X78792857Y-60856944D02*
X78792857Y-61071230D01*
X78792857Y-61071230D02*
X78864285Y-61356944D01*
X78864285Y-61356944D02*
X78935714Y-61499801D01*
X78935714Y-61499801D02*
X79078571Y-61642658D01*
X79078571Y-61642658D02*
X79292857Y-61714087D01*
X79292857Y-61714087D02*
X79435714Y-61714087D01*
X79435714Y-61714087D02*
X79650000Y-61642658D01*
X79650000Y-61642658D02*
X79721428Y-61571230D01*
X80150000Y-61714087D02*
X81007143Y-61714087D01*
X80578571Y-60214087D02*
X80578571Y-61714087D01*
X76685714Y-58584885D02*
X76900000Y-58513457D01*
X76900000Y-58513457D02*
X76971429Y-58442028D01*
X76971429Y-58442028D02*
X77042857Y-58299171D01*
X77042857Y-58299171D02*
X77042857Y-58084885D01*
X77042857Y-58084885D02*
X76971429Y-57942028D01*
X76971429Y-57942028D02*
X76900000Y-57870600D01*
X76900000Y-57870600D02*
X76757143Y-57799171D01*
X76757143Y-57799171D02*
X76185714Y-57799171D01*
X76185714Y-57799171D02*
X76185714Y-59299171D01*
X76185714Y-59299171D02*
X76685714Y-59299171D01*
X76685714Y-59299171D02*
X76828572Y-59227742D01*
X76828572Y-59227742D02*
X76900000Y-59156314D01*
X76900000Y-59156314D02*
X76971429Y-59013457D01*
X76971429Y-59013457D02*
X76971429Y-58870600D01*
X76971429Y-58870600D02*
X76900000Y-58727742D01*
X76900000Y-58727742D02*
X76828572Y-58656314D01*
X76828572Y-58656314D02*
X76685714Y-58584885D01*
X76685714Y-58584885D02*
X76185714Y-58584885D01*
X77471429Y-59299171D02*
X78328572Y-59299171D01*
X77900000Y-57799171D02*
X77900000Y-59299171D01*
X91494425Y-91400485D02*
X91595056Y-91391681D01*
X91595056Y-91391681D02*
X91787513Y-91273442D01*
X91787513Y-91273442D02*
X91879340Y-91164007D01*
X91879340Y-91164007D02*
X91962363Y-90953941D01*
X91962363Y-90953941D02*
X91944755Y-90752680D01*
X91944755Y-90752680D02*
X91881233Y-90606135D01*
X91881233Y-90606135D02*
X91708277Y-90367764D01*
X91708277Y-90367764D02*
X91544124Y-90230024D01*
X91544124Y-90230024D02*
X91279341Y-90101088D01*
X91279341Y-90101088D02*
X91123993Y-90063979D01*
X91123993Y-90063979D02*
X90922731Y-90081587D01*
X90922731Y-90081587D02*
X90730273Y-90199826D01*
X90730273Y-90199826D02*
X90638447Y-90309261D01*
X90638447Y-90309261D02*
X90555424Y-90519326D01*
X90555424Y-90519326D02*
X90564228Y-90619957D01*
X89857919Y-91239457D02*
X89674265Y-91458327D01*
X89674265Y-91458327D02*
X89637156Y-91613676D01*
X89637156Y-91613676D02*
X89654764Y-91814937D01*
X89654764Y-91814937D02*
X89827720Y-92053308D01*
X89827720Y-92053308D02*
X90210743Y-92374702D01*
X90210743Y-92374702D02*
X90475526Y-92503638D01*
X90475526Y-92503638D02*
X90676788Y-92486030D01*
X90676788Y-92486030D02*
X90823332Y-92422509D01*
X90823332Y-92422509D02*
X91006986Y-92203639D01*
X91006986Y-92203639D02*
X91044095Y-92048291D01*
X91044095Y-92048291D02*
X91026487Y-91847029D01*
X91026487Y-91847029D02*
X90853530Y-91608658D01*
X90853530Y-91608658D02*
X90470508Y-91287264D01*
X90470508Y-91287264D02*
X90205725Y-91158328D01*
X90205725Y-91158328D02*
X90004463Y-91175936D01*
X90004463Y-91175936D02*
X89857919Y-91239457D01*
X90180544Y-93188553D02*
X89031477Y-92224372D01*
X89031477Y-92224372D02*
X89629583Y-93845163D01*
X89629583Y-93845163D02*
X88480517Y-92880982D01*
X88159122Y-93264004D02*
X87608162Y-93920614D01*
X89032709Y-94556490D02*
X87883642Y-93592309D01*
X87884874Y-95924427D02*
X87659093Y-95082271D01*
X88435835Y-95267817D02*
X87286768Y-94303636D01*
X87286768Y-94303636D02*
X86919461Y-94741375D01*
X86919461Y-94741375D02*
X86882351Y-94896724D01*
X86882351Y-94896724D02*
X86891155Y-94997355D01*
X86891155Y-94997355D02*
X86954677Y-95143899D01*
X86954677Y-95143899D02*
X87118829Y-95281639D01*
X87118829Y-95281639D02*
X87274178Y-95318748D01*
X87274178Y-95318748D02*
X87374809Y-95309944D01*
X87374809Y-95309944D02*
X87521353Y-95246423D01*
X87521353Y-95246423D02*
X87888660Y-94808683D01*
X86138933Y-95671572D02*
X85955279Y-95890442D01*
X85955279Y-95890442D02*
X85918170Y-96045790D01*
X85918170Y-96045790D02*
X85935778Y-96247052D01*
X85935778Y-96247052D02*
X86108735Y-96485423D01*
X86108735Y-96485423D02*
X86491757Y-96806817D01*
X86491757Y-96806817D02*
X86756540Y-96935753D01*
X86756540Y-96935753D02*
X86957802Y-96918145D01*
X86957802Y-96918145D02*
X87104346Y-96854624D01*
X87104346Y-96854624D02*
X87288000Y-96635754D01*
X87288000Y-96635754D02*
X87325109Y-96480405D01*
X87325109Y-96480405D02*
X87307501Y-96279144D01*
X87307501Y-96279144D02*
X87134544Y-96040773D01*
X87134544Y-96040773D02*
X86751522Y-95719379D01*
X86751522Y-95719379D02*
X86486739Y-95590443D01*
X86486739Y-95590443D02*
X86285477Y-95608051D01*
X86285477Y-95608051D02*
X86138933Y-95671572D01*
X86002424Y-98167843D02*
X86461558Y-97620668D01*
X86461558Y-97620668D02*
X85312491Y-96656487D01*
X95312054Y-88496415D02*
X94761093Y-89153024D01*
X96185640Y-89788901D02*
X95036573Y-88824719D01*
X95588766Y-90500228D02*
X94439699Y-89536046D01*
X94986874Y-89995180D02*
X94435913Y-90651790D01*
X95037805Y-91156837D02*
X93888739Y-90192656D01*
X93429604Y-90739831D02*
X94359801Y-91520359D01*
X94359801Y-91520359D02*
X94423323Y-91666903D01*
X94423323Y-91666903D02*
X94432127Y-91767534D01*
X94432127Y-91767534D02*
X94395017Y-91922882D01*
X94395017Y-91922882D02*
X94211364Y-92141752D01*
X94211364Y-92141752D02*
X94064819Y-92205273D01*
X94064819Y-92205273D02*
X93964189Y-92214077D01*
X93964189Y-92214077D02*
X93808840Y-92176968D01*
X93808840Y-92176968D02*
X92878643Y-91396440D01*
X93568576Y-92907797D02*
X92419509Y-91943615D01*
X92419509Y-91943615D02*
X92918877Y-93015339D01*
X92918877Y-93015339D02*
X91776722Y-92709660D01*
X91776722Y-92709660D02*
X92925788Y-93673841D01*
X91543368Y-94098991D02*
X91460345Y-94309057D01*
X91460345Y-94309057D02*
X91469150Y-94409687D01*
X91469150Y-94409687D02*
X91532671Y-94556232D01*
X91532671Y-94556232D02*
X91696823Y-94693972D01*
X91696823Y-94693972D02*
X91852172Y-94731081D01*
X91852172Y-94731081D02*
X91952803Y-94722277D01*
X91952803Y-94722277D02*
X92099347Y-94658756D01*
X92099347Y-94658756D02*
X92466654Y-94221016D01*
X92466654Y-94221016D02*
X91317587Y-93256835D01*
X91317587Y-93256835D02*
X90996194Y-93639857D01*
X90996194Y-93639857D02*
X90959084Y-93795205D01*
X90959084Y-93795205D02*
X90967888Y-93895836D01*
X90967888Y-93895836D02*
X91031410Y-94042380D01*
X91031410Y-94042380D02*
X91140845Y-94134207D01*
X91140845Y-94134207D02*
X91296193Y-94171316D01*
X91296193Y-94171316D02*
X91396824Y-94162512D01*
X91396824Y-94162512D02*
X91543368Y-94098991D01*
X91543368Y-94098991D02*
X91864762Y-93715969D01*
X91064733Y-95002775D02*
X90330119Y-95878255D01*
X89385438Y-96670712D02*
X89706832Y-96287689D01*
X90308724Y-96792737D02*
X89159657Y-95828555D01*
X89159657Y-95828555D02*
X88700523Y-96375730D01*
X89482283Y-97777651D02*
X88333216Y-96813469D01*
X89023149Y-98324826D02*
X87874082Y-97360644D01*
X87874082Y-97360644D02*
X88472188Y-98981435D01*
X88472188Y-98981435D02*
X87323121Y-98017254D01*
X86413657Y-99212234D02*
X86450767Y-99056886D01*
X86450767Y-99056886D02*
X86588507Y-98892733D01*
X86588507Y-98892733D02*
X86780964Y-98774494D01*
X86780964Y-98774494D02*
X86982226Y-98756886D01*
X86982226Y-98756886D02*
X87137574Y-98793996D01*
X87137574Y-98793996D02*
X87402358Y-98922932D01*
X87402358Y-98922932D02*
X87566510Y-99060672D01*
X87566510Y-99060672D02*
X87739467Y-99299043D01*
X87739467Y-99299043D02*
X87802988Y-99445587D01*
X87802988Y-99445587D02*
X87820596Y-99646849D01*
X87820596Y-99646849D02*
X87737573Y-99856915D01*
X87737573Y-99856915D02*
X87645747Y-99966350D01*
X87645747Y-99966350D02*
X87453289Y-100084589D01*
X87453289Y-100084589D02*
X87352658Y-100093393D01*
X87352658Y-100093393D02*
X86969636Y-99771999D01*
X86969636Y-99771999D02*
X87153289Y-99553129D01*
X86446980Y-100172629D02*
X86125587Y-100555652D01*
X86589738Y-101224851D02*
X87048872Y-100677677D01*
X87048872Y-100677677D02*
X85899806Y-99713495D01*
X85899806Y-99713495D02*
X85440672Y-100260670D01*
X85625557Y-102373918D02*
X85399776Y-101531762D01*
X86176518Y-101717309D02*
X85027451Y-100753127D01*
X85027451Y-100753127D02*
X84660144Y-101190867D01*
X84660144Y-101190867D02*
X84623034Y-101346215D01*
X84623034Y-101346215D02*
X84631839Y-101446846D01*
X84631839Y-101446846D02*
X84695360Y-101593390D01*
X84695360Y-101593390D02*
X84859512Y-101731130D01*
X84859512Y-101731130D02*
X85014861Y-101768240D01*
X85014861Y-101768240D02*
X85115492Y-101759436D01*
X85115492Y-101759436D02*
X85262036Y-101695914D01*
X85262036Y-101695914D02*
X85629343Y-101258175D01*
X62935714Y-57584885D02*
X63150000Y-57513457D01*
X63150000Y-57513457D02*
X63221429Y-57442028D01*
X63221429Y-57442028D02*
X63292857Y-57299171D01*
X63292857Y-57299171D02*
X63292857Y-57084885D01*
X63292857Y-57084885D02*
X63221429Y-56942028D01*
X63221429Y-56942028D02*
X63150000Y-56870600D01*
X63150000Y-56870600D02*
X63007143Y-56799171D01*
X63007143Y-56799171D02*
X62435714Y-56799171D01*
X62435714Y-56799171D02*
X62435714Y-58299171D01*
X62435714Y-58299171D02*
X62935714Y-58299171D01*
X62935714Y-58299171D02*
X63078572Y-58227742D01*
X63078572Y-58227742D02*
X63150000Y-58156314D01*
X63150000Y-58156314D02*
X63221429Y-58013457D01*
X63221429Y-58013457D02*
X63221429Y-57870600D01*
X63221429Y-57870600D02*
X63150000Y-57727742D01*
X63150000Y-57727742D02*
X63078572Y-57656314D01*
X63078572Y-57656314D02*
X62935714Y-57584885D01*
X62935714Y-57584885D02*
X62435714Y-57584885D01*
X63721429Y-58299171D02*
X64578572Y-58299171D01*
X64150000Y-56799171D02*
X64150000Y-58299171D01*
X67078571Y-56942028D02*
X67007143Y-56870600D01*
X67007143Y-56870600D02*
X66792857Y-56799171D01*
X66792857Y-56799171D02*
X66650000Y-56799171D01*
X66650000Y-56799171D02*
X66435714Y-56870600D01*
X66435714Y-56870600D02*
X66292857Y-57013457D01*
X66292857Y-57013457D02*
X66221428Y-57156314D01*
X66221428Y-57156314D02*
X66150000Y-57442028D01*
X66150000Y-57442028D02*
X66150000Y-57656314D01*
X66150000Y-57656314D02*
X66221428Y-57942028D01*
X66221428Y-57942028D02*
X66292857Y-58084885D01*
X66292857Y-58084885D02*
X66435714Y-58227742D01*
X66435714Y-58227742D02*
X66650000Y-58299171D01*
X66650000Y-58299171D02*
X66792857Y-58299171D01*
X66792857Y-58299171D02*
X67007143Y-58227742D01*
X67007143Y-58227742D02*
X67078571Y-58156314D01*
X68435714Y-56799171D02*
X67721428Y-56799171D01*
X67721428Y-56799171D02*
X67721428Y-58299171D01*
X68935714Y-57584885D02*
X69435714Y-57584885D01*
X69650000Y-56799171D02*
X68935714Y-56799171D01*
X68935714Y-56799171D02*
X68935714Y-58299171D01*
X68935714Y-58299171D02*
X69650000Y-58299171D01*
X70221429Y-57227742D02*
X70935715Y-57227742D01*
X70078572Y-56799171D02*
X70578572Y-58299171D01*
X70578572Y-58299171D02*
X71078572Y-56799171D01*
X72435714Y-56799171D02*
X71935714Y-57513457D01*
X71578571Y-56799171D02*
X71578571Y-58299171D01*
X71578571Y-58299171D02*
X72150000Y-58299171D01*
X72150000Y-58299171D02*
X72292857Y-58227742D01*
X72292857Y-58227742D02*
X72364286Y-58156314D01*
X72364286Y-58156314D02*
X72435714Y-58013457D01*
X72435714Y-58013457D02*
X72435714Y-57799171D01*
X72435714Y-57799171D02*
X72364286Y-57656314D01*
X72364286Y-57656314D02*
X72292857Y-57584885D01*
X72292857Y-57584885D02*
X72150000Y-57513457D01*
X72150000Y-57513457D02*
X71578571Y-57513457D01*
X87763269Y-66713732D02*
X86534541Y-67574097D01*
X87119649Y-67164399D02*
X87611286Y-67866529D01*
X88254906Y-67415862D02*
X87026178Y-68276227D01*
X88272569Y-68188279D02*
X88682266Y-68773387D01*
X88541694Y-67825439D02*
X87599755Y-69095379D01*
X87599755Y-69095379D02*
X89115271Y-68644591D01*
X89402059Y-69054166D02*
X88173331Y-69914531D01*
X88173331Y-69914531D02*
X89893696Y-69756297D01*
X89893696Y-69756297D02*
X88664968Y-70616661D01*
X90303393Y-70341406D02*
X89074665Y-71201770D01*
X89074665Y-71201770D02*
X89279514Y-71494325D01*
X89279514Y-71494325D02*
X89460934Y-71628888D01*
X89460934Y-71628888D02*
X89659895Y-71663970D01*
X89659895Y-71663970D02*
X89817887Y-71640541D01*
X89817887Y-71640541D02*
X90092900Y-71535173D01*
X90092900Y-71535173D02*
X90268433Y-71412264D01*
X90268433Y-71412264D02*
X90461506Y-71189874D01*
X90461506Y-71189874D02*
X90537558Y-71049424D01*
X90537558Y-71049424D02*
X90572641Y-70850462D01*
X90572641Y-70850462D02*
X90508242Y-70633960D01*
X90508242Y-70633960D02*
X90303393Y-70341406D01*
X88041208Y-62900393D02*
X87631510Y-62315284D01*
X87631510Y-62315284D02*
X86402782Y-63175649D01*
X87684377Y-63760636D02*
X87971165Y-64170212D01*
X88737694Y-63895077D02*
X88327996Y-63309969D01*
X88327996Y-63309969D02*
X87099268Y-64170333D01*
X87099268Y-64170333D02*
X87508966Y-64755442D01*
X88749590Y-65281918D02*
X88462802Y-64872342D01*
X89106421Y-64421675D02*
X87877693Y-65282040D01*
X87877693Y-65282040D02*
X88287391Y-65867149D01*
X88492239Y-66159703D02*
X88983876Y-66861833D01*
X89966786Y-65650403D02*
X88738058Y-66510768D01*
X90031306Y-66738802D02*
X90686822Y-67674976D01*
X92056243Y-68634457D02*
X91184346Y-68634578D01*
X91564606Y-67932327D02*
X90335878Y-68792691D01*
X90335878Y-68792691D02*
X90663636Y-69260778D01*
X90663636Y-69260778D02*
X90804086Y-69336830D01*
X90804086Y-69336830D02*
X90903567Y-69354371D01*
X90903567Y-69354371D02*
X91061558Y-69330943D01*
X91061558Y-69330943D02*
X91237091Y-69208033D01*
X91237091Y-69208033D02*
X91313143Y-69067583D01*
X91313143Y-69067583D02*
X91330684Y-68968102D01*
X91330684Y-68968102D02*
X91307255Y-68810111D01*
X91307255Y-68810111D02*
X90979497Y-68342024D01*
X92424971Y-69161055D02*
X91196243Y-70021419D01*
X92115118Y-71209178D02*
X91974668Y-71133126D01*
X91974668Y-71133126D02*
X91851759Y-70957593D01*
X91851759Y-70957593D02*
X91787360Y-70741091D01*
X91787360Y-70741091D02*
X91822442Y-70542130D01*
X91822442Y-70542130D02*
X91898494Y-70401679D01*
X91898494Y-70401679D02*
X92091568Y-70179290D01*
X92091568Y-70179290D02*
X92267101Y-70056380D01*
X92267101Y-70056380D02*
X92542114Y-69951012D01*
X92542114Y-69951012D02*
X92700105Y-69927584D01*
X92700105Y-69927584D02*
X92899067Y-69962666D01*
X92899067Y-69962666D02*
X93080487Y-70097229D01*
X93080487Y-70097229D02*
X93162426Y-70214250D01*
X93162426Y-70214250D02*
X93226825Y-70430753D01*
X93226825Y-70430753D02*
X93209283Y-70530233D01*
X93209283Y-70530233D02*
X92799707Y-70817022D01*
X92799707Y-70817022D02*
X92635828Y-70582978D01*
X93695033Y-70974892D02*
X92466305Y-71835256D01*
X93051413Y-71425559D02*
X93543050Y-72127689D01*
X94186670Y-71677022D02*
X92957942Y-72537387D01*
X93244730Y-72946963D02*
X93736367Y-73649093D01*
X94719277Y-72437663D02*
X93490549Y-73298028D01*
G36*
X95466997Y-83782157D02*
G01*
X95563264Y-83878424D01*
X95607971Y-83967837D01*
X95607971Y-84182732D01*
X95563264Y-84272144D01*
X95466997Y-84368411D01*
X95239506Y-84425285D01*
X94776435Y-84425285D01*
X94548944Y-84368411D01*
X94452678Y-84272145D01*
X94407971Y-84182731D01*
X94407971Y-83967838D01*
X94452678Y-83878424D01*
X94548945Y-83782157D01*
X94776435Y-83725285D01*
X95239507Y-83725285D01*
X95466997Y-83782157D01*
G37*
G36*
X92478769Y-84004161D02*
G01*
X92434062Y-84093574D01*
X92397057Y-84130579D01*
X92307645Y-84175285D01*
X92164179Y-84175285D01*
X92074766Y-84130579D01*
X92037762Y-84093575D01*
X91993055Y-84004160D01*
X91993055Y-83618142D01*
X92478769Y-83618142D01*
X92478769Y-84004161D01*
G37*
G36*
X92764484Y-78974315D02*
G01*
X92317395Y-78825286D01*
X92764484Y-78676256D01*
X92764484Y-78974315D01*
G37*
G36*
X95466997Y-77782157D02*
G01*
X95563264Y-77878424D01*
X95607971Y-77967837D01*
X95607971Y-78182732D01*
X95563264Y-78272144D01*
X95466997Y-78368411D01*
X95239506Y-78425285D01*
X94776435Y-78425285D01*
X94548944Y-78368411D01*
X94452678Y-78272145D01*
X94407971Y-78182731D01*
X94407971Y-77967838D01*
X94452678Y-77878424D01*
X94548945Y-77782157D01*
X94776435Y-77725285D01*
X95239507Y-77725285D01*
X95466997Y-77782157D01*
G37*
G36*
X93193055Y-77575590D02*
G01*
X93148348Y-77665003D01*
X93111343Y-77702008D01*
X93021931Y-77746714D01*
X92878465Y-77746714D01*
X92789051Y-77702007D01*
X92759874Y-77672830D01*
X92707341Y-77515228D01*
X92707341Y-77189571D01*
X93193055Y-77189571D01*
X93193055Y-77575590D01*
G37*
G36*
X92407341Y-77504161D02*
G01*
X92362634Y-77593575D01*
X92325630Y-77630578D01*
X92236217Y-77675286D01*
X92164179Y-77675286D01*
X92074766Y-77630579D01*
X92037762Y-77593575D01*
X91993055Y-77504161D01*
X91993055Y-77189571D01*
X92407341Y-77189571D01*
X92407341Y-77504161D01*
G37*
G36*
X96074638Y-86391952D02*
G01*
X91526388Y-86391952D01*
X91526388Y-84757205D01*
X91693092Y-84757205D01*
X91705789Y-84814337D01*
X91739382Y-84862264D01*
X91762524Y-84880406D01*
X92349374Y-85253857D01*
X91762524Y-85627308D01*
X91739382Y-85645450D01*
X91705789Y-85693377D01*
X91693092Y-85750509D01*
X91703226Y-85808152D01*
X91734648Y-85857530D01*
X91782575Y-85891123D01*
X91839707Y-85903820D01*
X91897350Y-85893686D01*
X91923586Y-85880406D01*
X92672448Y-85403857D01*
X93343055Y-85403857D01*
X93372319Y-85400975D01*
X93426391Y-85378577D01*
X93467775Y-85337193D01*
X93490173Y-85283121D01*
X93490173Y-85228619D01*
X94108337Y-85228619D01*
X94110853Y-85237843D01*
X94110853Y-85247406D01*
X94118488Y-85265838D01*
X94123737Y-85285083D01*
X94129591Y-85292642D01*
X94133251Y-85301478D01*
X94147358Y-85315585D01*
X94159572Y-85331357D01*
X94171835Y-85340062D01*
X94174635Y-85342862D01*
X94177382Y-85344000D01*
X94183550Y-85348378D01*
X95193136Y-85925285D01*
X94257971Y-85925285D01*
X94228707Y-85928167D01*
X94174635Y-85950565D01*
X94133251Y-85991949D01*
X94110853Y-86046021D01*
X94110853Y-86104549D01*
X94133251Y-86158621D01*
X94174635Y-86200005D01*
X94228707Y-86222403D01*
X94257971Y-86225285D01*
X95757971Y-86225285D01*
X95765497Y-86224543D01*
X95768449Y-86224919D01*
X95772270Y-86223876D01*
X95787235Y-86222403D01*
X95805667Y-86214767D01*
X95824912Y-86209519D01*
X95832471Y-86203664D01*
X95841307Y-86200005D01*
X95855414Y-86185897D01*
X95871186Y-86173684D01*
X95875930Y-86165381D01*
X95882691Y-86158621D01*
X95890325Y-86140190D01*
X95900224Y-86122868D01*
X95901429Y-86113382D01*
X95905089Y-86104549D01*
X95905089Y-86084599D01*
X95907605Y-86064808D01*
X95905089Y-86055582D01*
X95905089Y-86046021D01*
X95897455Y-86027592D01*
X95892206Y-86008344D01*
X95886349Y-86000782D01*
X95882691Y-85991949D01*
X95868585Y-85977843D01*
X95856370Y-85962070D01*
X95844106Y-85953364D01*
X95841307Y-85950565D01*
X95838559Y-85949426D01*
X95832392Y-85945049D01*
X94822805Y-85368142D01*
X95757971Y-85368142D01*
X95787235Y-85365260D01*
X95841307Y-85342862D01*
X95882691Y-85301478D01*
X95905089Y-85247406D01*
X95905089Y-85188878D01*
X95882691Y-85134806D01*
X95841307Y-85093422D01*
X95787235Y-85071024D01*
X95757971Y-85068142D01*
X94257971Y-85068142D01*
X94250445Y-85068883D01*
X94247494Y-85068508D01*
X94243673Y-85069550D01*
X94228707Y-85071024D01*
X94210274Y-85078659D01*
X94191030Y-85083908D01*
X94183470Y-85089762D01*
X94174635Y-85093422D01*
X94160527Y-85107529D01*
X94144756Y-85119743D01*
X94140011Y-85128045D01*
X94133251Y-85134806D01*
X94125616Y-85153236D01*
X94115718Y-85170559D01*
X94114512Y-85180044D01*
X94110853Y-85188878D01*
X94110853Y-85208827D01*
X94108337Y-85228619D01*
X93490173Y-85228619D01*
X93490173Y-85224593D01*
X93467775Y-85170521D01*
X93426391Y-85129137D01*
X93372319Y-85106739D01*
X93343055Y-85103857D01*
X92672448Y-85103857D01*
X91923586Y-84627308D01*
X91897350Y-84614028D01*
X91839707Y-84603894D01*
X91782575Y-84616591D01*
X91734648Y-84650184D01*
X91703226Y-84699562D01*
X91693092Y-84757205D01*
X91526388Y-84757205D01*
X91526388Y-83468142D01*
X91693055Y-83468142D01*
X91693055Y-84039571D01*
X91695937Y-84068835D01*
X91698000Y-84073815D01*
X91698382Y-84079190D01*
X91708891Y-84106653D01*
X91780320Y-84249510D01*
X91788248Y-84262105D01*
X91789763Y-84265762D01*
X91793142Y-84269879D01*
X91795985Y-84274396D01*
X91798979Y-84276993D01*
X91808417Y-84288493D01*
X91879845Y-84359922D01*
X91891350Y-84369364D01*
X91893945Y-84372356D01*
X91898455Y-84375195D01*
X91902576Y-84378577D01*
X91906235Y-84380092D01*
X91918830Y-84388021D01*
X92061688Y-84459449D01*
X92089151Y-84469959D01*
X92094526Y-84470340D01*
X92099505Y-84472403D01*
X92128769Y-84475285D01*
X92343055Y-84475285D01*
X92372319Y-84472403D01*
X92377297Y-84470340D01*
X92382673Y-84469959D01*
X92410137Y-84459449D01*
X92552994Y-84388021D01*
X92565587Y-84380093D01*
X92569247Y-84378578D01*
X92573366Y-84375196D01*
X92577880Y-84372356D01*
X92580476Y-84369362D01*
X92591978Y-84359923D01*
X92663407Y-84288494D01*
X92672848Y-84276989D01*
X92675840Y-84274395D01*
X92678678Y-84269885D01*
X92682062Y-84265763D01*
X92683578Y-84262101D01*
X92691505Y-84249510D01*
X92762933Y-84106652D01*
X92764247Y-84103217D01*
X93257036Y-84448170D01*
X93282662Y-84462591D01*
X93339804Y-84475250D01*
X93397440Y-84465079D01*
X93446797Y-84433626D01*
X93480361Y-84385678D01*
X93493020Y-84328536D01*
X93482849Y-84270900D01*
X93451396Y-84221543D01*
X93429074Y-84202400D01*
X93043400Y-83932428D01*
X94107971Y-83932428D01*
X94107971Y-84218142D01*
X94110853Y-84247406D01*
X94112916Y-84252386D01*
X94113298Y-84257761D01*
X94123807Y-84285224D01*
X94195236Y-84428081D01*
X94203163Y-84440674D01*
X94204679Y-84444334D01*
X94208060Y-84448453D01*
X94210901Y-84452967D01*
X94213894Y-84455563D01*
X94223334Y-84467065D01*
X94366191Y-84609922D01*
X94388921Y-84628577D01*
X94399224Y-84632844D01*
X94408185Y-84639484D01*
X94435876Y-84649377D01*
X94721590Y-84720806D01*
X94726662Y-84721556D01*
X94728707Y-84722403D01*
X94739726Y-84723488D01*
X94750679Y-84725108D01*
X94752867Y-84724782D01*
X94757971Y-84725285D01*
X95257971Y-84725285D01*
X95263074Y-84724782D01*
X95265262Y-84725108D01*
X95276213Y-84723488D01*
X95287235Y-84722403D01*
X95289279Y-84721556D01*
X95294352Y-84720806D01*
X95580065Y-84649377D01*
X95607756Y-84639484D01*
X95616716Y-84632844D01*
X95627020Y-84628577D01*
X95649751Y-84609922D01*
X95792609Y-84467065D01*
X95802052Y-84455558D01*
X95805042Y-84452966D01*
X95807878Y-84448460D01*
X95811264Y-84444335D01*
X95812781Y-84440671D01*
X95820707Y-84428081D01*
X95892135Y-84285223D01*
X95902645Y-84257760D01*
X95903026Y-84252384D01*
X95905089Y-84247406D01*
X95907971Y-84218142D01*
X95907971Y-83932428D01*
X95905089Y-83903164D01*
X95903026Y-83898185D01*
X95902645Y-83892810D01*
X95892135Y-83865347D01*
X95820707Y-83722489D01*
X95812780Y-83709897D01*
X95811264Y-83706236D01*
X95807880Y-83702113D01*
X95805042Y-83697604D01*
X95802050Y-83695009D01*
X95792609Y-83683505D01*
X95649751Y-83540647D01*
X95627020Y-83521992D01*
X95616716Y-83517724D01*
X95607756Y-83511085D01*
X95580065Y-83501192D01*
X95294351Y-83429764D01*
X95289279Y-83429014D01*
X95287235Y-83428167D01*
X95276212Y-83427081D01*
X95265262Y-83425462D01*
X95263074Y-83425787D01*
X95257971Y-83425285D01*
X94757971Y-83425285D01*
X94752867Y-83425787D01*
X94750680Y-83425462D01*
X94739729Y-83427081D01*
X94728707Y-83428167D01*
X94726662Y-83429014D01*
X94721591Y-83429764D01*
X94435877Y-83501192D01*
X94408186Y-83511085D01*
X94399226Y-83517723D01*
X94388921Y-83521992D01*
X94366191Y-83540647D01*
X94223334Y-83683505D01*
X94213894Y-83695006D01*
X94210901Y-83697603D01*
X94208060Y-83702116D01*
X94204679Y-83706236D01*
X94203163Y-83709895D01*
X94195236Y-83722489D01*
X94123807Y-83865346D01*
X94113298Y-83892809D01*
X94112916Y-83898183D01*
X94110853Y-83903164D01*
X94107971Y-83932428D01*
X93043400Y-83932428D01*
X92778769Y-83747186D01*
X92778769Y-83618142D01*
X93343055Y-83618142D01*
X93372319Y-83615260D01*
X93426391Y-83592862D01*
X93467775Y-83551478D01*
X93490173Y-83497406D01*
X93490173Y-83438878D01*
X93467775Y-83384806D01*
X93426391Y-83343422D01*
X93372319Y-83321024D01*
X93343055Y-83318142D01*
X91843055Y-83318142D01*
X91813791Y-83321024D01*
X91759719Y-83343422D01*
X91718335Y-83384806D01*
X91695937Y-83438878D01*
X91693055Y-83468142D01*
X91526388Y-83468142D01*
X91526388Y-82110999D01*
X91693055Y-82110999D01*
X91693055Y-82825285D01*
X91695937Y-82854549D01*
X91718335Y-82908621D01*
X91759719Y-82950005D01*
X91813791Y-82972403D01*
X91872319Y-82972403D01*
X91926391Y-82950005D01*
X91967775Y-82908621D01*
X91990173Y-82854549D01*
X91993055Y-82825285D01*
X91993055Y-82260999D01*
X92407341Y-82260999D01*
X92407341Y-82610999D01*
X92410223Y-82640263D01*
X92432621Y-82694335D01*
X92474005Y-82735719D01*
X92528077Y-82758117D01*
X92586605Y-82758117D01*
X92640677Y-82735719D01*
X92682061Y-82694335D01*
X92704459Y-82640263D01*
X92707341Y-82610999D01*
X92707341Y-82260999D01*
X93193055Y-82260999D01*
X93193055Y-82825285D01*
X93195937Y-82854549D01*
X93218335Y-82908621D01*
X93259719Y-82950005D01*
X93313791Y-82972403D01*
X93372319Y-82972403D01*
X93426391Y-82950005D01*
X93467775Y-82908621D01*
X93490173Y-82854549D01*
X93493055Y-82825285D01*
X93493055Y-82110999D01*
X93490173Y-82081735D01*
X93467775Y-82027663D01*
X93426391Y-81986279D01*
X93372319Y-81963881D01*
X93343055Y-81960999D01*
X91843055Y-81960999D01*
X91813791Y-81963881D01*
X91759719Y-81986279D01*
X91718335Y-82027663D01*
X91695937Y-82081735D01*
X91693055Y-82110999D01*
X91526388Y-82110999D01*
X91526388Y-81789570D01*
X95036543Y-81789570D01*
X95036543Y-82932428D01*
X95039425Y-82961692D01*
X95061823Y-83015764D01*
X95103207Y-83057148D01*
X95157279Y-83079546D01*
X95215807Y-83079546D01*
X95269879Y-83057148D01*
X95311263Y-83015764D01*
X95333661Y-82961692D01*
X95336543Y-82932428D01*
X95336543Y-81789570D01*
X95333661Y-81760306D01*
X95311263Y-81706234D01*
X95269879Y-81664850D01*
X95215807Y-81642452D01*
X95157279Y-81642452D01*
X95103207Y-81664850D01*
X95061823Y-81706234D01*
X95039425Y-81760306D01*
X95036543Y-81789570D01*
X91526388Y-81789570D01*
X91526388Y-79611000D01*
X91693055Y-79611000D01*
X91693055Y-80468143D01*
X91695937Y-80497407D01*
X91718335Y-80551479D01*
X91759719Y-80592863D01*
X91803504Y-80611000D01*
X91759719Y-80629137D01*
X91718335Y-80670521D01*
X91695937Y-80724593D01*
X91693055Y-80753857D01*
X91693055Y-81611000D01*
X91695937Y-81640264D01*
X91718335Y-81694336D01*
X91759719Y-81735720D01*
X91813791Y-81758118D01*
X91872319Y-81758118D01*
X91926391Y-81735720D01*
X91967775Y-81694336D01*
X91990173Y-81640264D01*
X91993055Y-81611000D01*
X91993055Y-81332428D01*
X93343055Y-81332428D01*
X93372319Y-81329546D01*
X93426391Y-81307148D01*
X93467775Y-81265764D01*
X93490173Y-81211692D01*
X93490173Y-81153164D01*
X93467775Y-81099092D01*
X93426391Y-81057708D01*
X93372319Y-81035310D01*
X93343055Y-81032428D01*
X91993055Y-81032428D01*
X91993055Y-80753857D01*
X91990173Y-80724593D01*
X91967775Y-80670521D01*
X91926391Y-80629137D01*
X91882605Y-80611000D01*
X91926391Y-80592863D01*
X91967775Y-80551479D01*
X91987502Y-80503856D01*
X94107971Y-80503856D01*
X94107971Y-81218142D01*
X94110853Y-81247406D01*
X94133251Y-81301478D01*
X94174635Y-81342862D01*
X94228707Y-81365260D01*
X94287235Y-81365260D01*
X94341307Y-81342862D01*
X94382691Y-81301478D01*
X94405089Y-81247406D01*
X94407971Y-81218142D01*
X94407971Y-80653856D01*
X94822257Y-80653856D01*
X94822257Y-81003856D01*
X94825139Y-81033120D01*
X94847537Y-81087192D01*
X94888921Y-81128576D01*
X94942993Y-81150974D01*
X95001521Y-81150974D01*
X95055593Y-81128576D01*
X95096977Y-81087192D01*
X95119375Y-81033120D01*
X95122257Y-81003856D01*
X95122257Y-80653856D01*
X95757971Y-80653856D01*
X95787235Y-80650974D01*
X95841307Y-80628576D01*
X95882691Y-80587192D01*
X95905089Y-80533120D01*
X95905089Y-80474592D01*
X95882691Y-80420520D01*
X95841307Y-80379136D01*
X95787235Y-80356738D01*
X95757971Y-80353856D01*
X94257971Y-80353856D01*
X94228707Y-80356738D01*
X94174635Y-80379136D01*
X94133251Y-80420520D01*
X94110853Y-80474592D01*
X94107971Y-80503856D01*
X91987502Y-80503856D01*
X91990173Y-80497407D01*
X91993055Y-80468143D01*
X91993055Y-80189571D01*
X93343055Y-80189571D01*
X93372319Y-80186689D01*
X93426391Y-80164291D01*
X93467775Y-80122907D01*
X93490173Y-80068835D01*
X93490173Y-80010307D01*
X93467775Y-79956235D01*
X93426391Y-79914851D01*
X93372319Y-79892453D01*
X93343055Y-79889571D01*
X91993055Y-79889571D01*
X91993055Y-79611000D01*
X91990173Y-79581736D01*
X91967775Y-79527664D01*
X91926391Y-79486280D01*
X91872319Y-79463882D01*
X91813791Y-79463882D01*
X91759719Y-79486280D01*
X91718335Y-79527664D01*
X91695937Y-79581736D01*
X91693055Y-79611000D01*
X91526388Y-79611000D01*
X91526388Y-78806525D01*
X91694233Y-78806525D01*
X91695566Y-78825286D01*
X91694233Y-78844047D01*
X91697622Y-78854214D01*
X91698382Y-78864906D01*
X91706793Y-78881729D01*
X91712741Y-78899571D01*
X91719763Y-78907667D01*
X91724556Y-78917253D01*
X91738764Y-78929576D01*
X91751088Y-78943785D01*
X91760673Y-78948577D01*
X91768770Y-78955600D01*
X91795621Y-78967588D01*
X93295621Y-79467589D01*
X93324295Y-79474109D01*
X93382675Y-79469959D01*
X93435022Y-79443785D01*
X93473369Y-79399571D01*
X93491878Y-79344047D01*
X93487728Y-79285667D01*
X93461555Y-79233319D01*
X93444056Y-79218142D01*
X94107971Y-79218142D01*
X94107971Y-79932428D01*
X94110853Y-79961692D01*
X94133251Y-80015764D01*
X94174635Y-80057148D01*
X94228707Y-80079546D01*
X94287235Y-80079546D01*
X94341307Y-80057148D01*
X94382691Y-80015764D01*
X94405089Y-79961692D01*
X94407971Y-79932428D01*
X94407971Y-79368142D01*
X94822257Y-79368142D01*
X94822257Y-79718142D01*
X94825139Y-79747406D01*
X94847537Y-79801478D01*
X94888921Y-79842862D01*
X94942993Y-79865260D01*
X95001521Y-79865260D01*
X95055593Y-79842862D01*
X95096977Y-79801478D01*
X95119375Y-79747406D01*
X95122257Y-79718142D01*
X95122257Y-79368142D01*
X95757971Y-79368142D01*
X95787235Y-79365260D01*
X95841307Y-79342862D01*
X95882691Y-79301478D01*
X95905089Y-79247406D01*
X95905089Y-79188878D01*
X95882691Y-79134806D01*
X95841307Y-79093422D01*
X95787235Y-79071024D01*
X95757971Y-79068142D01*
X94257971Y-79068142D01*
X94228707Y-79071024D01*
X94174635Y-79093422D01*
X94133251Y-79134806D01*
X94110853Y-79188878D01*
X94107971Y-79218142D01*
X93444056Y-79218142D01*
X93417340Y-79194972D01*
X93390489Y-79182984D01*
X93064484Y-79074315D01*
X93064484Y-78576256D01*
X93390489Y-78467588D01*
X93417340Y-78455600D01*
X93461555Y-78417253D01*
X93487728Y-78364905D01*
X93491878Y-78306525D01*
X93473369Y-78251001D01*
X93435022Y-78206787D01*
X93382675Y-78180613D01*
X93324295Y-78176463D01*
X93295621Y-78182983D01*
X91795621Y-78682984D01*
X91768770Y-78694972D01*
X91760673Y-78701994D01*
X91751088Y-78706787D01*
X91738764Y-78720995D01*
X91724556Y-78733319D01*
X91719763Y-78742904D01*
X91712741Y-78751001D01*
X91706793Y-78768842D01*
X91698382Y-78785666D01*
X91697622Y-78796357D01*
X91694233Y-78806525D01*
X91526388Y-78806525D01*
X91526388Y-77039571D01*
X91693055Y-77039571D01*
X91693055Y-77539571D01*
X91695937Y-77568835D01*
X91697998Y-77573812D01*
X91698381Y-77579190D01*
X91708891Y-77606653D01*
X91780320Y-77749511D01*
X91788247Y-77762104D01*
X91789763Y-77765764D01*
X91793144Y-77769883D01*
X91795985Y-77774397D01*
X91798978Y-77776993D01*
X91808418Y-77788495D01*
X91879846Y-77859923D01*
X91891348Y-77869363D01*
X91893944Y-77872356D01*
X91898453Y-77875194D01*
X91902576Y-77878578D01*
X91906238Y-77880094D01*
X91918830Y-77888021D01*
X92061686Y-77959450D01*
X92089150Y-77969959D01*
X92094524Y-77970340D01*
X92099505Y-77972404D01*
X92128769Y-77975286D01*
X92271627Y-77975286D01*
X92300891Y-77972404D01*
X92305871Y-77970340D01*
X92311246Y-77969959D01*
X92338709Y-77959450D01*
X92481566Y-77888021D01*
X92494159Y-77880093D01*
X92497819Y-77878578D01*
X92501938Y-77875196D01*
X92506452Y-77872356D01*
X92509048Y-77869362D01*
X92520550Y-77859923D01*
X92521732Y-77858740D01*
X92522703Y-77859923D01*
X92594132Y-77931352D01*
X92605636Y-77940793D01*
X92608231Y-77943785D01*
X92612740Y-77946623D01*
X92616863Y-77950007D01*
X92620524Y-77951523D01*
X92633116Y-77959450D01*
X92775974Y-78030878D01*
X92803437Y-78041388D01*
X92808812Y-78041769D01*
X92813791Y-78043832D01*
X92843055Y-78046714D01*
X93057341Y-78046714D01*
X93086605Y-78043832D01*
X93091583Y-78041769D01*
X93096959Y-78041388D01*
X93124423Y-78030878D01*
X93267280Y-77959450D01*
X93279873Y-77951522D01*
X93283533Y-77950007D01*
X93287652Y-77946625D01*
X93292166Y-77943785D01*
X93294762Y-77940791D01*
X93304953Y-77932428D01*
X94107971Y-77932428D01*
X94107971Y-78218142D01*
X94110853Y-78247406D01*
X94112916Y-78252386D01*
X94113298Y-78257761D01*
X94123807Y-78285224D01*
X94195236Y-78428081D01*
X94203163Y-78440674D01*
X94204679Y-78444334D01*
X94208060Y-78448453D01*
X94210901Y-78452967D01*
X94213894Y-78455563D01*
X94223334Y-78467065D01*
X94366191Y-78609922D01*
X94388921Y-78628577D01*
X94399224Y-78632844D01*
X94408185Y-78639484D01*
X94435876Y-78649377D01*
X94721590Y-78720806D01*
X94726662Y-78721556D01*
X94728707Y-78722403D01*
X94739726Y-78723488D01*
X94750679Y-78725108D01*
X94752867Y-78724782D01*
X94757971Y-78725285D01*
X95257971Y-78725285D01*
X95263074Y-78724782D01*
X95265262Y-78725108D01*
X95276213Y-78723488D01*
X95287235Y-78722403D01*
X95289279Y-78721556D01*
X95294352Y-78720806D01*
X95580065Y-78649377D01*
X95607756Y-78639484D01*
X95616716Y-78632844D01*
X95627020Y-78628577D01*
X95649751Y-78609922D01*
X95792609Y-78467065D01*
X95802052Y-78455558D01*
X95805042Y-78452966D01*
X95807878Y-78448460D01*
X95811264Y-78444335D01*
X95812781Y-78440671D01*
X95820707Y-78428081D01*
X95892135Y-78285223D01*
X95902645Y-78257760D01*
X95903026Y-78252384D01*
X95905089Y-78247406D01*
X95907971Y-78218142D01*
X95907971Y-77932428D01*
X95905089Y-77903164D01*
X95903026Y-77898185D01*
X95902645Y-77892810D01*
X95892135Y-77865347D01*
X95820707Y-77722489D01*
X95812780Y-77709897D01*
X95811264Y-77706236D01*
X95807880Y-77702113D01*
X95805042Y-77697604D01*
X95802050Y-77695009D01*
X95792609Y-77683505D01*
X95649751Y-77540647D01*
X95627020Y-77521992D01*
X95616716Y-77517724D01*
X95607756Y-77511085D01*
X95580065Y-77501192D01*
X95294351Y-77429764D01*
X95289279Y-77429014D01*
X95287235Y-77428167D01*
X95276212Y-77427081D01*
X95265262Y-77425462D01*
X95263074Y-77425787D01*
X95257971Y-77425285D01*
X94757971Y-77425285D01*
X94752867Y-77425787D01*
X94750680Y-77425462D01*
X94739729Y-77427081D01*
X94728707Y-77428167D01*
X94726662Y-77429014D01*
X94721591Y-77429764D01*
X94435877Y-77501192D01*
X94408186Y-77511085D01*
X94399226Y-77517723D01*
X94388921Y-77521992D01*
X94366191Y-77540647D01*
X94223334Y-77683505D01*
X94213894Y-77695006D01*
X94210901Y-77697603D01*
X94208060Y-77702116D01*
X94204679Y-77706236D01*
X94203163Y-77709895D01*
X94195236Y-77722489D01*
X94123807Y-77865346D01*
X94113298Y-77892809D01*
X94112916Y-77898183D01*
X94110853Y-77903164D01*
X94107971Y-77932428D01*
X93304953Y-77932428D01*
X93306264Y-77931352D01*
X93377693Y-77859923D01*
X93387134Y-77848418D01*
X93390126Y-77845824D01*
X93392964Y-77841314D01*
X93396348Y-77837192D01*
X93397864Y-77833530D01*
X93405791Y-77820939D01*
X93477219Y-77678081D01*
X93487729Y-77650618D01*
X93488110Y-77645242D01*
X93490173Y-77640264D01*
X93493055Y-77611000D01*
X93493055Y-77039571D01*
X93490173Y-77010307D01*
X93467775Y-76956235D01*
X93426391Y-76914851D01*
X93372319Y-76892453D01*
X93343055Y-76889571D01*
X91843055Y-76889571D01*
X91813791Y-76892453D01*
X91759719Y-76914851D01*
X91718335Y-76956235D01*
X91695937Y-77010307D01*
X91693055Y-77039571D01*
X91526388Y-77039571D01*
X91526388Y-76722904D01*
X96074638Y-76722904D01*
X96074638Y-86391952D01*
G37*
X82988346Y-100735912D02*
X81988346Y-100735912D01*
X81988346Y-100735912D02*
X82988346Y-102235912D01*
X82988346Y-102235912D02*
X81988346Y-102235912D01*
X81416918Y-102235912D02*
X81416918Y-100735912D01*
X81416918Y-100735912D02*
X80916918Y-101807341D01*
X80916918Y-101807341D02*
X80416918Y-100735912D01*
X80416918Y-100735912D02*
X80416918Y-102235912D01*
X79702632Y-102235912D02*
X79702632Y-100735912D01*
X78845489Y-102235912D02*
X79488346Y-101378769D01*
X78845489Y-100735912D02*
X79702632Y-101593055D01*
X78202632Y-102093055D02*
X78131203Y-102164484D01*
X78131203Y-102164484D02*
X78202632Y-102235912D01*
X78202632Y-102235912D02*
X78274060Y-102164484D01*
X78274060Y-102164484D02*
X78202632Y-102093055D01*
X78202632Y-102093055D02*
X78202632Y-102235912D01*
X77559774Y-102164484D02*
X77345489Y-102235912D01*
X77345489Y-102235912D02*
X76988346Y-102235912D01*
X76988346Y-102235912D02*
X76845489Y-102164484D01*
X76845489Y-102164484D02*
X76774060Y-102093055D01*
X76774060Y-102093055D02*
X76702631Y-101950198D01*
X76702631Y-101950198D02*
X76702631Y-101807341D01*
X76702631Y-101807341D02*
X76774060Y-101664484D01*
X76774060Y-101664484D02*
X76845489Y-101593055D01*
X76845489Y-101593055D02*
X76988346Y-101521626D01*
X76988346Y-101521626D02*
X77274060Y-101450198D01*
X77274060Y-101450198D02*
X77416917Y-101378769D01*
X77416917Y-101378769D02*
X77488346Y-101307341D01*
X77488346Y-101307341D02*
X77559774Y-101164484D01*
X77559774Y-101164484D02*
X77559774Y-101021626D01*
X77559774Y-101021626D02*
X77488346Y-100878769D01*
X77488346Y-100878769D02*
X77416917Y-100807341D01*
X77416917Y-100807341D02*
X77274060Y-100735912D01*
X77274060Y-100735912D02*
X76916917Y-100735912D01*
X76916917Y-100735912D02*
X76702631Y-100807341D01*
X76274060Y-100735912D02*
X75416918Y-100735912D01*
X75845489Y-102235912D02*
X75845489Y-100735912D01*
X74916918Y-100735912D02*
X74916918Y-101950198D01*
X74916918Y-101950198D02*
X74845489Y-102093055D01*
X74845489Y-102093055D02*
X74774061Y-102164484D01*
X74774061Y-102164484D02*
X74631203Y-102235912D01*
X74631203Y-102235912D02*
X74345489Y-102235912D01*
X74345489Y-102235912D02*
X74202632Y-102164484D01*
X74202632Y-102164484D02*
X74131203Y-102093055D01*
X74131203Y-102093055D02*
X74059775Y-101950198D01*
X74059775Y-101950198D02*
X74059775Y-100735912D01*
X73345489Y-102235912D02*
X73345489Y-100735912D01*
X73345489Y-100735912D02*
X72988346Y-100735912D01*
X72988346Y-100735912D02*
X72774060Y-100807341D01*
X72774060Y-100807341D02*
X72631203Y-100950198D01*
X72631203Y-100950198D02*
X72559774Y-101093055D01*
X72559774Y-101093055D02*
X72488346Y-101378769D01*
X72488346Y-101378769D02*
X72488346Y-101593055D01*
X72488346Y-101593055D02*
X72559774Y-101878769D01*
X72559774Y-101878769D02*
X72631203Y-102021626D01*
X72631203Y-102021626D02*
X72774060Y-102164484D01*
X72774060Y-102164484D02*
X72988346Y-102235912D01*
X72988346Y-102235912D02*
X73345489Y-102235912D01*
X71845489Y-102235912D02*
X71845489Y-100735912D01*
X70845488Y-100735912D02*
X70559774Y-100735912D01*
X70559774Y-100735912D02*
X70416917Y-100807341D01*
X70416917Y-100807341D02*
X70274060Y-100950198D01*
X70274060Y-100950198D02*
X70202631Y-101235912D01*
X70202631Y-101235912D02*
X70202631Y-101735912D01*
X70202631Y-101735912D02*
X70274060Y-102021626D01*
X70274060Y-102021626D02*
X70416917Y-102164484D01*
X70416917Y-102164484D02*
X70559774Y-102235912D01*
X70559774Y-102235912D02*
X70845488Y-102235912D01*
X70845488Y-102235912D02*
X70988346Y-102164484D01*
X70988346Y-102164484D02*
X71131203Y-102021626D01*
X71131203Y-102021626D02*
X71202631Y-101735912D01*
X71202631Y-101735912D02*
X71202631Y-101235912D01*
X71202631Y-101235912D02*
X71131203Y-100950198D01*
X71131203Y-100950198D02*
X70988346Y-100807341D01*
X70988346Y-100807341D02*
X70845488Y-100735912D01*
X82845489Y-103150828D02*
X82845489Y-104365114D01*
X82845489Y-104365114D02*
X82774060Y-104507971D01*
X82774060Y-104507971D02*
X82702632Y-104579400D01*
X82702632Y-104579400D02*
X82559774Y-104650828D01*
X82559774Y-104650828D02*
X82274060Y-104650828D01*
X82274060Y-104650828D02*
X82131203Y-104579400D01*
X82131203Y-104579400D02*
X82059774Y-104507971D01*
X82059774Y-104507971D02*
X81988346Y-104365114D01*
X81988346Y-104365114D02*
X81988346Y-103150828D01*
X81274060Y-104650828D02*
X81274060Y-103150828D01*
X81274060Y-103150828D02*
X80416917Y-104650828D01*
X80416917Y-104650828D02*
X80416917Y-103150828D01*
X78988345Y-104650828D02*
X79702631Y-104650828D01*
X79702631Y-104650828D02*
X79702631Y-103150828D01*
X78202630Y-103150828D02*
X77916916Y-103150828D01*
X77916916Y-103150828D02*
X77774059Y-103222257D01*
X77774059Y-103222257D02*
X77631202Y-103365114D01*
X77631202Y-103365114D02*
X77559773Y-103650828D01*
X77559773Y-103650828D02*
X77559773Y-104150828D01*
X77559773Y-104150828D02*
X77631202Y-104436542D01*
X77631202Y-104436542D02*
X77774059Y-104579400D01*
X77774059Y-104579400D02*
X77916916Y-104650828D01*
X77916916Y-104650828D02*
X78202630Y-104650828D01*
X78202630Y-104650828D02*
X78345488Y-104579400D01*
X78345488Y-104579400D02*
X78488345Y-104436542D01*
X78488345Y-104436542D02*
X78559773Y-104150828D01*
X78559773Y-104150828D02*
X78559773Y-103650828D01*
X78559773Y-103650828D02*
X78488345Y-103365114D01*
X78488345Y-103365114D02*
X78345488Y-103222257D01*
X78345488Y-103222257D02*
X78202630Y-103150828D01*
X76059773Y-104507971D02*
X76131201Y-104579400D01*
X76131201Y-104579400D02*
X76345487Y-104650828D01*
X76345487Y-104650828D02*
X76488344Y-104650828D01*
X76488344Y-104650828D02*
X76702630Y-104579400D01*
X76702630Y-104579400D02*
X76845487Y-104436542D01*
X76845487Y-104436542D02*
X76916916Y-104293685D01*
X76916916Y-104293685D02*
X76988344Y-104007971D01*
X76988344Y-104007971D02*
X76988344Y-103793685D01*
X76988344Y-103793685D02*
X76916916Y-103507971D01*
X76916916Y-103507971D02*
X76845487Y-103365114D01*
X76845487Y-103365114D02*
X76702630Y-103222257D01*
X76702630Y-103222257D02*
X76488344Y-103150828D01*
X76488344Y-103150828D02*
X76345487Y-103150828D01*
X76345487Y-103150828D02*
X76131201Y-103222257D01*
X76131201Y-103222257D02*
X76059773Y-103293685D01*
X75416916Y-104650828D02*
X75416916Y-103150828D01*
X74559773Y-104650828D02*
X75202630Y-103793685D01*
X74559773Y-103150828D02*
X75416916Y-104007971D01*
X70988346Y-106400828D02*
X71488346Y-105686542D01*
X71845489Y-106400828D02*
X71845489Y-104900828D01*
X71845489Y-104900828D02*
X71274060Y-104900828D01*
X71274060Y-104900828D02*
X71131203Y-104972257D01*
X71131203Y-104972257D02*
X71059774Y-105043685D01*
X71059774Y-105043685D02*
X70988346Y-105186542D01*
X70988346Y-105186542D02*
X70988346Y-105400828D01*
X70988346Y-105400828D02*
X71059774Y-105543685D01*
X71059774Y-105543685D02*
X71131203Y-105615114D01*
X71131203Y-105615114D02*
X71274060Y-105686542D01*
X71274060Y-105686542D02*
X71845489Y-105686542D01*
X70345489Y-105615114D02*
X69845489Y-105615114D01*
X69631203Y-106400828D02*
X70345489Y-106400828D01*
X70345489Y-106400828D02*
X70345489Y-104900828D01*
X70345489Y-104900828D02*
X69631203Y-104900828D01*
X69059774Y-106329400D02*
X68845489Y-106400828D01*
X68845489Y-106400828D02*
X68488346Y-106400828D01*
X68488346Y-106400828D02*
X68345489Y-106329400D01*
X68345489Y-106329400D02*
X68274060Y-106257971D01*
X68274060Y-106257971D02*
X68202631Y-106115114D01*
X68202631Y-106115114D02*
X68202631Y-105972257D01*
X68202631Y-105972257D02*
X68274060Y-105829400D01*
X68274060Y-105829400D02*
X68345489Y-105757971D01*
X68345489Y-105757971D02*
X68488346Y-105686542D01*
X68488346Y-105686542D02*
X68774060Y-105615114D01*
X68774060Y-105615114D02*
X68916917Y-105543685D01*
X68916917Y-105543685D02*
X68988346Y-105472257D01*
X68988346Y-105472257D02*
X69059774Y-105329400D01*
X69059774Y-105329400D02*
X69059774Y-105186542D01*
X69059774Y-105186542D02*
X68988346Y-105043685D01*
X68988346Y-105043685D02*
X68916917Y-104972257D01*
X68916917Y-104972257D02*
X68774060Y-104900828D01*
X68774060Y-104900828D02*
X68416917Y-104900828D01*
X68416917Y-104900828D02*
X68202631Y-104972257D01*
X67559775Y-105615114D02*
X67059775Y-105615114D01*
X66845489Y-106400828D02*
X67559775Y-106400828D01*
X67559775Y-106400828D02*
X67559775Y-104900828D01*
X67559775Y-104900828D02*
X66845489Y-104900828D01*
X66416917Y-104900828D02*
X65559775Y-104900828D01*
X65988346Y-106400828D02*
X65988346Y-104900828D01*
D11*
X88209333Y-78654819D02*
X88209333Y-79369104D01*
X88209333Y-79369104D02*
X88256952Y-79511961D01*
X88256952Y-79511961D02*
X88352190Y-79607200D01*
X88352190Y-79607200D02*
X88495047Y-79654819D01*
X88495047Y-79654819D02*
X88590285Y-79654819D01*
X87685523Y-79654819D02*
X87495047Y-79654819D01*
X87495047Y-79654819D02*
X87399809Y-79607200D01*
X87399809Y-79607200D02*
X87352190Y-79559580D01*
X87352190Y-79559580D02*
X87256952Y-79416723D01*
X87256952Y-79416723D02*
X87209333Y-79226247D01*
X87209333Y-79226247D02*
X87209333Y-78845295D01*
X87209333Y-78845295D02*
X87256952Y-78750057D01*
X87256952Y-78750057D02*
X87304571Y-78702438D01*
X87304571Y-78702438D02*
X87399809Y-78654819D01*
X87399809Y-78654819D02*
X87590285Y-78654819D01*
X87590285Y-78654819D02*
X87685523Y-78702438D01*
X87685523Y-78702438D02*
X87733142Y-78750057D01*
X87733142Y-78750057D02*
X87780761Y-78845295D01*
X87780761Y-78845295D02*
X87780761Y-79083390D01*
X87780761Y-79083390D02*
X87733142Y-79178628D01*
X87733142Y-79178628D02*
X87685523Y-79226247D01*
X87685523Y-79226247D02*
X87590285Y-79273866D01*
X87590285Y-79273866D02*
X87399809Y-79273866D01*
X87399809Y-79273866D02*
X87304571Y-79226247D01*
X87304571Y-79226247D02*
X87256952Y-79178628D01*
X87256952Y-79178628D02*
X87209333Y-79083390D01*
X53254819Y-105666666D02*
X53969104Y-105666666D01*
X53969104Y-105666666D02*
X54111961Y-105619047D01*
X54111961Y-105619047D02*
X54207200Y-105523809D01*
X54207200Y-105523809D02*
X54254819Y-105380952D01*
X54254819Y-105380952D02*
X54254819Y-105285714D01*
X53683390Y-106285714D02*
X53635771Y-106190476D01*
X53635771Y-106190476D02*
X53588152Y-106142857D01*
X53588152Y-106142857D02*
X53492914Y-106095238D01*
X53492914Y-106095238D02*
X53445295Y-106095238D01*
X53445295Y-106095238D02*
X53350057Y-106142857D01*
X53350057Y-106142857D02*
X53302438Y-106190476D01*
X53302438Y-106190476D02*
X53254819Y-106285714D01*
X53254819Y-106285714D02*
X53254819Y-106476190D01*
X53254819Y-106476190D02*
X53302438Y-106571428D01*
X53302438Y-106571428D02*
X53350057Y-106619047D01*
X53350057Y-106619047D02*
X53445295Y-106666666D01*
X53445295Y-106666666D02*
X53492914Y-106666666D01*
X53492914Y-106666666D02*
X53588152Y-106619047D01*
X53588152Y-106619047D02*
X53635771Y-106571428D01*
X53635771Y-106571428D02*
X53683390Y-106476190D01*
X53683390Y-106476190D02*
X53683390Y-106285714D01*
X53683390Y-106285714D02*
X53731009Y-106190476D01*
X53731009Y-106190476D02*
X53778628Y-106142857D01*
X53778628Y-106142857D02*
X53873866Y-106095238D01*
X53873866Y-106095238D02*
X54064342Y-106095238D01*
X54064342Y-106095238D02*
X54159580Y-106142857D01*
X54159580Y-106142857D02*
X54207200Y-106190476D01*
X54207200Y-106190476D02*
X54254819Y-106285714D01*
X54254819Y-106285714D02*
X54254819Y-106476190D01*
X54254819Y-106476190D02*
X54207200Y-106571428D01*
X54207200Y-106571428D02*
X54159580Y-106619047D01*
X54159580Y-106619047D02*
X54064342Y-106666666D01*
X54064342Y-106666666D02*
X53873866Y-106666666D01*
X53873866Y-106666666D02*
X53778628Y-106619047D01*
X53778628Y-106619047D02*
X53731009Y-106571428D01*
X53731009Y-106571428D02*
X53683390Y-106476190D01*
X52954819Y-56966666D02*
X53669104Y-56966666D01*
X53669104Y-56966666D02*
X53811961Y-56919047D01*
X53811961Y-56919047D02*
X53907200Y-56823809D01*
X53907200Y-56823809D02*
X53954819Y-56680952D01*
X53954819Y-56680952D02*
X53954819Y-56585714D01*
X52954819Y-57347619D02*
X52954819Y-58014285D01*
X52954819Y-58014285D02*
X53954819Y-57585714D01*
D12*
X86496000Y-79060000D02*
X86496000Y-86790000D01*
X89256000Y-76410000D02*
X87876000Y-76410000D01*
X89256000Y-77790000D02*
X89256000Y-76410000D01*
X89256000Y-79060000D02*
X86496000Y-79060000D01*
X89256000Y-79060000D02*
X89256000Y-86790000D01*
X89256000Y-86790000D02*
X86496000Y-86790000D01*
X50828000Y-104604000D02*
X50828000Y-105984000D01*
X52208000Y-104604000D02*
X50828000Y-104604000D01*
X53478000Y-104604000D02*
X53478000Y-107364000D01*
X53478000Y-104604000D02*
X61208000Y-104604000D01*
X53478000Y-107364000D02*
X61208000Y-107364000D01*
X61208000Y-104604000D02*
X61208000Y-107364000D01*
X50828000Y-55836000D02*
X50828000Y-57216000D01*
X52208000Y-55836000D02*
X50828000Y-55836000D01*
X53478000Y-55836000D02*
X53478000Y-58596000D01*
X53478000Y-55836000D02*
X61208000Y-55836000D01*
X53478000Y-58596000D02*
X61208000Y-58596000D01*
X61208000Y-55836000D02*
X61208000Y-58596000D01*
M02*
