G04 #@! TF.GenerationSoftware,KiCad,Pcbnew,9.0.2*
G04 #@! TF.CreationDate,2025-09-26T14:10:11-04:00*
G04 #@! TF.ProjectId,Trackball,54726163-6b62-4616-9c6c-2e6b69636164,rev?*
G04 #@! TF.SameCoordinates,Original*
G04 #@! TF.FileFunction,Soldermask,Bot*
G04 #@! TF.FilePolarity,Negative*
%FSLAX46Y46*%
G04 Gerber Fmt 4.6, Leading zero omitted, Abs format (unit mm)*
G04 Created by KiCad (PCBNEW 9.0.2) date 2025-09-26 14:10:11*
%MOMM*%
%LPD*%
G01*
G04 APERTURE LIST*
G04 APERTURE END LIST*
G36*
X53077517Y-105086882D02*
G01*
X53094062Y-105097938D01*
X53105118Y-105114483D01*
X53109000Y-105134000D01*
X53109000Y-106834000D01*
X53105118Y-106853517D01*
X53094062Y-106870062D01*
X53077517Y-106881118D01*
X53058000Y-106885000D01*
X52477498Y-106885000D01*
X52421496Y-107057357D01*
X52494932Y-107110712D01*
X52639288Y-107255068D01*
X52759285Y-107420229D01*
X52851967Y-107602129D01*
X52915053Y-107796288D01*
X52946989Y-107997925D01*
X52946989Y-108202075D01*
X52915053Y-108403712D01*
X52851967Y-108597871D01*
X52810114Y-108680011D01*
X52883031Y-108799000D01*
X53900000Y-108799000D01*
X53910179Y-108799399D01*
X53999383Y-108802319D01*
X54005722Y-108803153D01*
X54021690Y-108803781D01*
X54076869Y-108812520D01*
X54202534Y-108829065D01*
X54233189Y-108837279D01*
X54262074Y-108841854D01*
X54317620Y-108859902D01*
X54398467Y-108881565D01*
X54450050Y-108902931D01*
X54493542Y-108917063D01*
X54534286Y-108937823D01*
X54585870Y-108959190D01*
X54658353Y-109001038D01*
X54710395Y-109027555D01*
X54734055Y-109044745D01*
X54761539Y-109060613D01*
X54862074Y-109137756D01*
X54907294Y-109170610D01*
X54915219Y-109178535D01*
X54922466Y-109184096D01*
X55065903Y-109327533D01*
X55071463Y-109334779D01*
X55079390Y-109342706D01*
X55112247Y-109387930D01*
X55189386Y-109488460D01*
X55205252Y-109515941D01*
X55222445Y-109539605D01*
X55248964Y-109591652D01*
X55290809Y-109664129D01*
X55312173Y-109715706D01*
X55332937Y-109756458D01*
X55347070Y-109799955D01*
X55368434Y-109851532D01*
X55390093Y-109932366D01*
X55408146Y-109987926D01*
X55412721Y-110016816D01*
X55420934Y-110047465D01*
X55437474Y-110173099D01*
X55446219Y-110228310D01*
X55446219Y-110239518D01*
X55447412Y-110248580D01*
X55447412Y-110451419D01*
X55446219Y-110460480D01*
X55446219Y-110471690D01*
X55437473Y-110526905D01*
X55420934Y-110652534D01*
X55412722Y-110683180D01*
X55408146Y-110712074D01*
X55390091Y-110767638D01*
X55368434Y-110848467D01*
X55347071Y-110900039D01*
X55332937Y-110943542D01*
X55312171Y-110984297D01*
X55290809Y-111035870D01*
X55248968Y-111108338D01*
X55222445Y-111160395D01*
X55205249Y-111184062D01*
X55189386Y-111211539D01*
X55112261Y-111312050D01*
X55079390Y-111357294D01*
X55071459Y-111365224D01*
X55065903Y-111372466D01*
X54922466Y-111515903D01*
X54915224Y-111521459D01*
X54907294Y-111529390D01*
X54862050Y-111562261D01*
X54761539Y-111639386D01*
X54734062Y-111655249D01*
X54710395Y-111672445D01*
X54658338Y-111698968D01*
X54585870Y-111740809D01*
X54534297Y-111762171D01*
X54493542Y-111782937D01*
X54450039Y-111797071D01*
X54398467Y-111818434D01*
X54317638Y-111840091D01*
X54262074Y-111858146D01*
X54233180Y-111862722D01*
X54202534Y-111870934D01*
X54076906Y-111887473D01*
X54021690Y-111896219D01*
X54005712Y-111896846D01*
X53999383Y-111897680D01*
X53910197Y-111900599D01*
X53900000Y-111901000D01*
X53897958Y-111901000D01*
X52883031Y-111901000D01*
X52810114Y-112019988D01*
X52851967Y-112102129D01*
X52915053Y-112296288D01*
X52946989Y-112497925D01*
X52946989Y-112702075D01*
X52915053Y-112903712D01*
X52851967Y-113097871D01*
X52759285Y-113279771D01*
X52639288Y-113444932D01*
X52494932Y-113589288D01*
X52329771Y-113709285D01*
X52147871Y-113801967D01*
X51953712Y-113865053D01*
X51752075Y-113896989D01*
X51650000Y-113901000D01*
X51647535Y-113901000D01*
X39152465Y-113901000D01*
X39150000Y-113901000D01*
X39047925Y-113896989D01*
X38846288Y-113865053D01*
X38652129Y-113801967D01*
X38470229Y-113709285D01*
X38305068Y-113589288D01*
X38160712Y-113444932D01*
X38040715Y-113279771D01*
X37948033Y-113097871D01*
X37884947Y-112903712D01*
X37853011Y-112702075D01*
X37853011Y-112497925D01*
X37884947Y-112296288D01*
X37948033Y-112102129D01*
X37989885Y-112019988D01*
X37916969Y-111901000D01*
X36902042Y-111901000D01*
X36900000Y-111901000D01*
X36889803Y-111900599D01*
X36800616Y-111897680D01*
X36794286Y-111896846D01*
X36778310Y-111896219D01*
X36723098Y-111887474D01*
X36597465Y-111870934D01*
X36566816Y-111862721D01*
X36537926Y-111858146D01*
X36482366Y-111840093D01*
X36401532Y-111818434D01*
X36349955Y-111797070D01*
X36306458Y-111782937D01*
X36265706Y-111762173D01*
X36214129Y-111740809D01*
X36141652Y-111698964D01*
X36089605Y-111672445D01*
X36065941Y-111655252D01*
X36038460Y-111639386D01*
X35937930Y-111562247D01*
X35892706Y-111529390D01*
X35884779Y-111521463D01*
X35877533Y-111515903D01*
X35734096Y-111372466D01*
X35728535Y-111365219D01*
X35720610Y-111357294D01*
X35687756Y-111312074D01*
X35610613Y-111211539D01*
X35594745Y-111184055D01*
X35577555Y-111160395D01*
X35551038Y-111108353D01*
X35509190Y-111035870D01*
X35487823Y-110984286D01*
X35467063Y-110943542D01*
X35452931Y-110900050D01*
X35431565Y-110848467D01*
X35409902Y-110767620D01*
X35391854Y-110712074D01*
X35387279Y-110683189D01*
X35379065Y-110652534D01*
X35362524Y-110526891D01*
X35353781Y-110471690D01*
X35353781Y-110460480D01*
X35352588Y-110451419D01*
X35352588Y-110248580D01*
X35353781Y-110239518D01*
X35353781Y-110228310D01*
X35362523Y-110173113D01*
X35379065Y-110047465D01*
X35387279Y-110016807D01*
X35391854Y-109987926D01*
X35409900Y-109932383D01*
X35431565Y-109851532D01*
X35452933Y-109799944D01*
X35467063Y-109756458D01*
X35487821Y-109715717D01*
X35509190Y-109664129D01*
X35551042Y-109591637D01*
X35577555Y-109539605D01*
X35588276Y-109524848D01*
X44211724Y-109524848D01*
X44222445Y-109539605D01*
X44248961Y-109591646D01*
X44290809Y-109664129D01*
X44312173Y-109715706D01*
X44332937Y-109756458D01*
X44347070Y-109799955D01*
X44368434Y-109851532D01*
X44390093Y-109932366D01*
X44408146Y-109987926D01*
X44412721Y-110016816D01*
X44420934Y-110047465D01*
X44437474Y-110173099D01*
X44446219Y-110228310D01*
X44446219Y-110239518D01*
X44447412Y-110248580D01*
X44447412Y-110451419D01*
X44446219Y-110460480D01*
X44446219Y-110471690D01*
X44437473Y-110526905D01*
X44420934Y-110652534D01*
X44412722Y-110683180D01*
X44408146Y-110712074D01*
X44390091Y-110767638D01*
X44368434Y-110848467D01*
X44347071Y-110900039D01*
X44332937Y-110943542D01*
X44312171Y-110984297D01*
X44290809Y-111035870D01*
X44248963Y-111108349D01*
X44222445Y-111160395D01*
X44211724Y-111175151D01*
X44283228Y-111299000D01*
X46516772Y-111299000D01*
X46588275Y-111175151D01*
X46577555Y-111160395D01*
X46551039Y-111108356D01*
X46509190Y-111035870D01*
X46487823Y-110984286D01*
X46467063Y-110943542D01*
X46452931Y-110900050D01*
X46431565Y-110848467D01*
X46409902Y-110767620D01*
X46391854Y-110712074D01*
X46387279Y-110683189D01*
X46379065Y-110652534D01*
X46362524Y-110526891D01*
X46353781Y-110471690D01*
X46353781Y-110460480D01*
X46352588Y-110451419D01*
X46352588Y-110248580D01*
X46353781Y-110239518D01*
X46353781Y-110228310D01*
X46362523Y-110173113D01*
X46379065Y-110047465D01*
X46387279Y-110016807D01*
X46391854Y-109987926D01*
X46409900Y-109932383D01*
X46431565Y-109851532D01*
X46452933Y-109799944D01*
X46467063Y-109756458D01*
X46487821Y-109715717D01*
X46509190Y-109664129D01*
X46551041Y-109591639D01*
X46577555Y-109539605D01*
X46588275Y-109524848D01*
X46516772Y-109401000D01*
X44283228Y-109401000D01*
X44211724Y-109524848D01*
X35588276Y-109524848D01*
X35594742Y-109515948D01*
X35610613Y-109488460D01*
X35687770Y-109387906D01*
X35720610Y-109342706D01*
X35728532Y-109334783D01*
X35734096Y-109327533D01*
X35877533Y-109184096D01*
X35884783Y-109178532D01*
X35892706Y-109170610D01*
X35937906Y-109137770D01*
X36038460Y-109060613D01*
X36065948Y-109044742D01*
X36089605Y-109027555D01*
X36141637Y-109001042D01*
X36214129Y-108959190D01*
X36265717Y-108937821D01*
X36306458Y-108917063D01*
X36349944Y-108902933D01*
X36401532Y-108881565D01*
X36482383Y-108859900D01*
X36537926Y-108841854D01*
X36566807Y-108837279D01*
X36597465Y-108829065D01*
X36723135Y-108812519D01*
X36778310Y-108803781D01*
X36794275Y-108803153D01*
X36800616Y-108802319D01*
X36889821Y-108799399D01*
X36900000Y-108799000D01*
X37916969Y-108799000D01*
X37989885Y-108680011D01*
X37948033Y-108597871D01*
X37884947Y-108403712D01*
X37853011Y-108202075D01*
X37853011Y-107997925D01*
X37884947Y-107796288D01*
X37948033Y-107602129D01*
X38040715Y-107420229D01*
X38160712Y-107255068D01*
X38305068Y-107110712D01*
X38470229Y-106990715D01*
X38652129Y-106898033D01*
X38846288Y-106834947D01*
X39047925Y-106803011D01*
X39150000Y-106799000D01*
X51233778Y-106799000D01*
X51307000Y-106725778D01*
X51307000Y-105134000D01*
X51310882Y-105114483D01*
X51321938Y-105097938D01*
X51338483Y-105086882D01*
X51358000Y-105083000D01*
X53058000Y-105083000D01*
X53077517Y-105086882D01*
G37*
G36*
X55009546Y-105121797D02*
G01*
X55172728Y-105189389D01*
X55319588Y-105287518D01*
X55444482Y-105412412D01*
X55542611Y-105559272D01*
X55610203Y-105722454D01*
X55644661Y-105895687D01*
X55644661Y-106072313D01*
X55610203Y-106245546D01*
X55542611Y-106408728D01*
X55444482Y-106555588D01*
X55319588Y-106680482D01*
X55172728Y-106778611D01*
X55009546Y-106846203D01*
X54836313Y-106880661D01*
X54659687Y-106880661D01*
X54486454Y-106846203D01*
X54323272Y-106778611D01*
X54176412Y-106680482D01*
X54051518Y-106555588D01*
X53953389Y-106408728D01*
X53885797Y-106245546D01*
X53851339Y-106072313D01*
X53851339Y-105895687D01*
X53885797Y-105722454D01*
X53953389Y-105559272D01*
X54051518Y-105412412D01*
X54176412Y-105287518D01*
X54323272Y-105189389D01*
X54486454Y-105121797D01*
X54659687Y-105087339D01*
X54836313Y-105087339D01*
X55009546Y-105121797D01*
G37*
G36*
X57549546Y-105121797D02*
G01*
X57712728Y-105189389D01*
X57859588Y-105287518D01*
X57984482Y-105412412D01*
X58082611Y-105559272D01*
X58150203Y-105722454D01*
X58184661Y-105895687D01*
X58184661Y-106072313D01*
X58150203Y-106245546D01*
X58082611Y-106408728D01*
X57984482Y-106555588D01*
X57859588Y-106680482D01*
X57712728Y-106778611D01*
X57549546Y-106846203D01*
X57376313Y-106880661D01*
X57199687Y-106880661D01*
X57026454Y-106846203D01*
X56863272Y-106778611D01*
X56716412Y-106680482D01*
X56591518Y-106555588D01*
X56493389Y-106408728D01*
X56425797Y-106245546D01*
X56391339Y-106072313D01*
X56391339Y-105895687D01*
X56425797Y-105722454D01*
X56493389Y-105559272D01*
X56591518Y-105412412D01*
X56716412Y-105287518D01*
X56863272Y-105189389D01*
X57026454Y-105121797D01*
X57199687Y-105087339D01*
X57376313Y-105087339D01*
X57549546Y-105121797D01*
G37*
G36*
X60089546Y-105121797D02*
G01*
X60252728Y-105189389D01*
X60399588Y-105287518D01*
X60524482Y-105412412D01*
X60622611Y-105559272D01*
X60690203Y-105722454D01*
X60724661Y-105895687D01*
X60724661Y-106072313D01*
X60690203Y-106245546D01*
X60622611Y-106408728D01*
X60524482Y-106555588D01*
X60399588Y-106680482D01*
X60252728Y-106778611D01*
X60089546Y-106846203D01*
X59916313Y-106880661D01*
X59739687Y-106880661D01*
X59566454Y-106846203D01*
X59403272Y-106778611D01*
X59256412Y-106680482D01*
X59131518Y-106555588D01*
X59033389Y-106408728D01*
X58965797Y-106245546D01*
X58931339Y-106072313D01*
X58931339Y-105895687D01*
X58965797Y-105722454D01*
X59033389Y-105559272D01*
X59131518Y-105412412D01*
X59256412Y-105287518D01*
X59403272Y-105189389D01*
X59566454Y-105121797D01*
X59739687Y-105087339D01*
X59916313Y-105087339D01*
X60089546Y-105121797D01*
G37*
G36*
X34077308Y-94835043D02*
G01*
X34356207Y-94898700D01*
X34626225Y-94993183D01*
X34883967Y-95117305D01*
X35126190Y-95269504D01*
X35349850Y-95447867D01*
X35552133Y-95650150D01*
X35730496Y-95873810D01*
X35882695Y-96116033D01*
X36006817Y-96373775D01*
X36101300Y-96643793D01*
X36164957Y-96922692D01*
X36196987Y-97206964D01*
X36196987Y-97493036D01*
X36164957Y-97777308D01*
X36101300Y-98056207D01*
X36006817Y-98326225D01*
X35882695Y-98583967D01*
X35730496Y-98826190D01*
X35552133Y-99049850D01*
X35349850Y-99252133D01*
X35126190Y-99430496D01*
X34883967Y-99582695D01*
X34626225Y-99706817D01*
X34356207Y-99801300D01*
X34077308Y-99864957D01*
X33793036Y-99896987D01*
X33506964Y-99896987D01*
X33222692Y-99864957D01*
X32943793Y-99801300D01*
X32673775Y-99706817D01*
X32416033Y-99582695D01*
X32173810Y-99430496D01*
X31950150Y-99252133D01*
X31747867Y-99049850D01*
X31569504Y-98826190D01*
X31417305Y-98583967D01*
X31293183Y-98326225D01*
X31198700Y-98056207D01*
X31135043Y-97777308D01*
X31103013Y-97493036D01*
X31103013Y-97206964D01*
X31135043Y-96922692D01*
X31198700Y-96643793D01*
X31293183Y-96373775D01*
X31417305Y-96116033D01*
X31569504Y-95873810D01*
X31747867Y-95650150D01*
X31950150Y-95447867D01*
X32173810Y-95269504D01*
X32416033Y-95117305D01*
X32673775Y-94993183D01*
X32943793Y-94898700D01*
X33222692Y-94835043D01*
X33506964Y-94803013D01*
X33793036Y-94803013D01*
X34077308Y-94835043D01*
G37*
G36*
X72921040Y-91087434D02*
G01*
X73262823Y-91155419D01*
X73596296Y-91256577D01*
X73918248Y-91389934D01*
X74225579Y-91554206D01*
X74515328Y-91747810D01*
X74784706Y-91968883D01*
X75031117Y-92215294D01*
X75252190Y-92484672D01*
X75445794Y-92774421D01*
X75610066Y-93081752D01*
X75743423Y-93403704D01*
X75844581Y-93737177D01*
X75912566Y-94078960D01*
X75946723Y-94425761D01*
X75946723Y-94774239D01*
X75912566Y-95121040D01*
X75844581Y-95462823D01*
X75743423Y-95796296D01*
X75610066Y-96118248D01*
X75445794Y-96425579D01*
X75252190Y-96715328D01*
X75031117Y-96984706D01*
X74784706Y-97231117D01*
X74515328Y-97452190D01*
X74225579Y-97645794D01*
X73918248Y-97810066D01*
X73596296Y-97943423D01*
X73262823Y-98044581D01*
X72921040Y-98112566D01*
X72574239Y-98146723D01*
X72225761Y-98146723D01*
X71878960Y-98112566D01*
X71537177Y-98044581D01*
X71203704Y-97943423D01*
X70881752Y-97810066D01*
X70574421Y-97645794D01*
X70284672Y-97452190D01*
X70015294Y-97231117D01*
X69768883Y-96984706D01*
X69547810Y-96715328D01*
X69354206Y-96425579D01*
X69189934Y-96118248D01*
X69056577Y-95796296D01*
X68955419Y-95462823D01*
X68887434Y-95121040D01*
X68853277Y-94774239D01*
X68853277Y-94425761D01*
X68887434Y-94078960D01*
X68955419Y-93737177D01*
X69056577Y-93403704D01*
X69189934Y-93081752D01*
X69354206Y-92774421D01*
X69547810Y-92484672D01*
X69768883Y-92215294D01*
X70015294Y-91968883D01*
X70284672Y-91747810D01*
X70574421Y-91554206D01*
X70881752Y-91389934D01*
X71203704Y-91256577D01*
X71537177Y-91155419D01*
X71878960Y-91087434D01*
X72225761Y-91053277D01*
X72574239Y-91053277D01*
X72921040Y-91087434D01*
G37*
G36*
X50327308Y-89085043D02*
G01*
X50606207Y-89148700D01*
X50876225Y-89243183D01*
X51133967Y-89367305D01*
X51376190Y-89519504D01*
X51599850Y-89697867D01*
X51802133Y-89900150D01*
X51980496Y-90123810D01*
X52132695Y-90366033D01*
X52256817Y-90623775D01*
X52351300Y-90893793D01*
X52414957Y-91172692D01*
X52446987Y-91456964D01*
X52446987Y-91743036D01*
X52414957Y-92027308D01*
X52351300Y-92306207D01*
X52256817Y-92576225D01*
X52132695Y-92833967D01*
X51980496Y-93076190D01*
X51802133Y-93299850D01*
X51599850Y-93502133D01*
X51376190Y-93680496D01*
X51133967Y-93832695D01*
X50876225Y-93956817D01*
X50606207Y-94051300D01*
X50327308Y-94114957D01*
X50043036Y-94146987D01*
X49756964Y-94146987D01*
X49472692Y-94114957D01*
X49193793Y-94051300D01*
X48923775Y-93956817D01*
X48666033Y-93832695D01*
X48423810Y-93680496D01*
X48200150Y-93502133D01*
X47997867Y-93299850D01*
X47819504Y-93076190D01*
X47667305Y-92833967D01*
X47543183Y-92576225D01*
X47448700Y-92306207D01*
X47385043Y-92027308D01*
X47353013Y-91743036D01*
X47353013Y-91456964D01*
X47385043Y-91172692D01*
X47448700Y-90893793D01*
X47543183Y-90623775D01*
X47667305Y-90366033D01*
X47819504Y-90123810D01*
X47997867Y-89900150D01*
X48200150Y-89697867D01*
X48423810Y-89519504D01*
X48666033Y-89367305D01*
X48923775Y-89243183D01*
X49193793Y-89148700D01*
X49472692Y-89085043D01*
X49756964Y-89053013D01*
X50043036Y-89053013D01*
X50327308Y-89085043D01*
G37*
G36*
X88137546Y-84547797D02*
G01*
X88300728Y-84615389D01*
X88447588Y-84713518D01*
X88572482Y-84838412D01*
X88670611Y-84985272D01*
X88738203Y-85148454D01*
X88772661Y-85321687D01*
X88772661Y-85498313D01*
X88738203Y-85671546D01*
X88670611Y-85834728D01*
X88572482Y-85981588D01*
X88447588Y-86106482D01*
X88300728Y-86204611D01*
X88137546Y-86272203D01*
X87964313Y-86306661D01*
X87787687Y-86306661D01*
X87614454Y-86272203D01*
X87451272Y-86204611D01*
X87304412Y-86106482D01*
X87179518Y-85981588D01*
X87081389Y-85834728D01*
X87013797Y-85671546D01*
X86979339Y-85498313D01*
X86979339Y-85321687D01*
X87013797Y-85148454D01*
X87081389Y-84985272D01*
X87179518Y-84838412D01*
X87304412Y-84713518D01*
X87451272Y-84615389D01*
X87614454Y-84547797D01*
X87787687Y-84513339D01*
X87964313Y-84513339D01*
X88137546Y-84547797D01*
G37*
G36*
X88137546Y-82007797D02*
G01*
X88300728Y-82075389D01*
X88447588Y-82173518D01*
X88572482Y-82298412D01*
X88670611Y-82445272D01*
X88738203Y-82608454D01*
X88772661Y-82781687D01*
X88772661Y-82958313D01*
X88738203Y-83131546D01*
X88670611Y-83294728D01*
X88572482Y-83441588D01*
X88447588Y-83566482D01*
X88300728Y-83664611D01*
X88137546Y-83732203D01*
X87964313Y-83766661D01*
X87787687Y-83766661D01*
X87614454Y-83732203D01*
X87451272Y-83664611D01*
X87304412Y-83566482D01*
X87179518Y-83441588D01*
X87081389Y-83294728D01*
X87013797Y-83131546D01*
X86979339Y-82958313D01*
X86979339Y-82781687D01*
X87013797Y-82608454D01*
X87081389Y-82445272D01*
X87179518Y-82298412D01*
X87304412Y-82173518D01*
X87451272Y-82075389D01*
X87614454Y-82007797D01*
X87787687Y-81973339D01*
X87964313Y-81973339D01*
X88137546Y-82007797D01*
G37*
G36*
X88137546Y-79467797D02*
G01*
X88300728Y-79535389D01*
X88447588Y-79633518D01*
X88572482Y-79758412D01*
X88670611Y-79905272D01*
X88738203Y-80068454D01*
X88772661Y-80241687D01*
X88772661Y-80418313D01*
X88738203Y-80591546D01*
X88670611Y-80754728D01*
X88572482Y-80901588D01*
X88447588Y-81026482D01*
X88300728Y-81124611D01*
X88137546Y-81192203D01*
X87964313Y-81226661D01*
X87787687Y-81226661D01*
X87614454Y-81192203D01*
X87451272Y-81124611D01*
X87304412Y-81026482D01*
X87179518Y-80901588D01*
X87081389Y-80754728D01*
X87013797Y-80591546D01*
X86979339Y-80418313D01*
X86979339Y-80241687D01*
X87013797Y-80068454D01*
X87081389Y-79905272D01*
X87179518Y-79758412D01*
X87304412Y-79633518D01*
X87451272Y-79535389D01*
X87614454Y-79467797D01*
X87787687Y-79433339D01*
X87964313Y-79433339D01*
X88137546Y-79467797D01*
G37*
G36*
X88745517Y-76892882D02*
G01*
X88762062Y-76903938D01*
X88773118Y-76920483D01*
X88777000Y-76940000D01*
X88777000Y-78640000D01*
X88773118Y-78659517D01*
X88762062Y-78676062D01*
X88745517Y-78687118D01*
X88726000Y-78691000D01*
X87026000Y-78691000D01*
X87006483Y-78687118D01*
X86989938Y-78676062D01*
X86978882Y-78659517D01*
X86975000Y-78640000D01*
X86975000Y-76940000D01*
X86978882Y-76920483D01*
X86989938Y-76903938D01*
X87006483Y-76892882D01*
X87026000Y-76889000D01*
X88726000Y-76889000D01*
X88745517Y-76892882D01*
G37*
G36*
X50327308Y-69085043D02*
G01*
X50606207Y-69148700D01*
X50876225Y-69243183D01*
X51133967Y-69367305D01*
X51376190Y-69519504D01*
X51599850Y-69697867D01*
X51802133Y-69900150D01*
X51980496Y-70123810D01*
X52132695Y-70366033D01*
X52256817Y-70623775D01*
X52351300Y-70893793D01*
X52414957Y-71172692D01*
X52446987Y-71456964D01*
X52446987Y-71743036D01*
X52414957Y-72027308D01*
X52351300Y-72306207D01*
X52256817Y-72576225D01*
X52132695Y-72833967D01*
X51980496Y-73076190D01*
X51802133Y-73299850D01*
X51599850Y-73502133D01*
X51376190Y-73680496D01*
X51133967Y-73832695D01*
X50876225Y-73956817D01*
X50606207Y-74051300D01*
X50327308Y-74114957D01*
X50043036Y-74146987D01*
X49756964Y-74146987D01*
X49472692Y-74114957D01*
X49193793Y-74051300D01*
X48923775Y-73956817D01*
X48666033Y-73832695D01*
X48423810Y-73680496D01*
X48200150Y-73502133D01*
X47997867Y-73299850D01*
X47819504Y-73076190D01*
X47667305Y-72833967D01*
X47543183Y-72576225D01*
X47448700Y-72306207D01*
X47385043Y-72027308D01*
X47353013Y-71743036D01*
X47353013Y-71456964D01*
X47385043Y-71172692D01*
X47448700Y-70893793D01*
X47543183Y-70623775D01*
X47667305Y-70366033D01*
X47819504Y-70123810D01*
X47997867Y-69900150D01*
X48200150Y-69697867D01*
X48423810Y-69519504D01*
X48666033Y-69367305D01*
X48923775Y-69243183D01*
X49193793Y-69148700D01*
X49472692Y-69085043D01*
X49756964Y-69053013D01*
X50043036Y-69053013D01*
X50327308Y-69085043D01*
G37*
G36*
X72921040Y-65127434D02*
G01*
X73262823Y-65195419D01*
X73596296Y-65296577D01*
X73918248Y-65429934D01*
X74225579Y-65594206D01*
X74515328Y-65787810D01*
X74784706Y-66008883D01*
X75031117Y-66255294D01*
X75252190Y-66524672D01*
X75445794Y-66814421D01*
X75610066Y-67121752D01*
X75743423Y-67443704D01*
X75844581Y-67777177D01*
X75912566Y-68118960D01*
X75946723Y-68465761D01*
X75946723Y-68814239D01*
X75912566Y-69161040D01*
X75844581Y-69502823D01*
X75743423Y-69836296D01*
X75610066Y-70158248D01*
X75445794Y-70465579D01*
X75252190Y-70755328D01*
X75031117Y-71024706D01*
X74784706Y-71271117D01*
X74515328Y-71492190D01*
X74225579Y-71685794D01*
X73918248Y-71850066D01*
X73596296Y-71983423D01*
X73262823Y-72084581D01*
X72921040Y-72152566D01*
X72574239Y-72186723D01*
X72225761Y-72186723D01*
X71878960Y-72152566D01*
X71537177Y-72084581D01*
X71203704Y-71983423D01*
X70881752Y-71850066D01*
X70574421Y-71685794D01*
X70284672Y-71492190D01*
X70015294Y-71271117D01*
X69768883Y-71024706D01*
X69547810Y-70755328D01*
X69354206Y-70465579D01*
X69189934Y-70158248D01*
X69056577Y-69836296D01*
X68955419Y-69502823D01*
X68887434Y-69161040D01*
X68853277Y-68814239D01*
X68853277Y-68465761D01*
X68887434Y-68118960D01*
X68955419Y-67777177D01*
X69056577Y-67443704D01*
X69189934Y-67121752D01*
X69354206Y-66814421D01*
X69547810Y-66524672D01*
X69768883Y-66255294D01*
X70015294Y-66008883D01*
X70284672Y-65787810D01*
X70574421Y-65594206D01*
X70881752Y-65429934D01*
X71203704Y-65296577D01*
X71537177Y-65195419D01*
X71878960Y-65127434D01*
X72225761Y-65093277D01*
X72574239Y-65093277D01*
X72921040Y-65127434D01*
G37*
G36*
X34077308Y-63335043D02*
G01*
X34356207Y-63398700D01*
X34626225Y-63493183D01*
X34883967Y-63617305D01*
X35126190Y-63769504D01*
X35349850Y-63947867D01*
X35552133Y-64150150D01*
X35730496Y-64373810D01*
X35882695Y-64616033D01*
X36006817Y-64873775D01*
X36101300Y-65143793D01*
X36164957Y-65422692D01*
X36196987Y-65706964D01*
X36196987Y-65993036D01*
X36164957Y-66277308D01*
X36101300Y-66556207D01*
X36006817Y-66826225D01*
X35882695Y-67083967D01*
X35730496Y-67326190D01*
X35552133Y-67549850D01*
X35349850Y-67752133D01*
X35126190Y-67930496D01*
X34883967Y-68082695D01*
X34626225Y-68206817D01*
X34356207Y-68301300D01*
X34077308Y-68364957D01*
X33793036Y-68396987D01*
X33506964Y-68396987D01*
X33222692Y-68364957D01*
X32943793Y-68301300D01*
X32673775Y-68206817D01*
X32416033Y-68082695D01*
X32173810Y-67930496D01*
X31950150Y-67752133D01*
X31747867Y-67549850D01*
X31569504Y-67326190D01*
X31417305Y-67083967D01*
X31293183Y-66826225D01*
X31198700Y-66556207D01*
X31135043Y-66277308D01*
X31103013Y-65993036D01*
X31103013Y-65706964D01*
X31135043Y-65422692D01*
X31198700Y-65143793D01*
X31293183Y-64873775D01*
X31417305Y-64616033D01*
X31569504Y-64373810D01*
X31747867Y-64150150D01*
X31950150Y-63947867D01*
X32173810Y-63769504D01*
X32416033Y-63617305D01*
X32673775Y-63493183D01*
X32943793Y-63398700D01*
X33222692Y-63335043D01*
X33506964Y-63303013D01*
X33793036Y-63303013D01*
X34077308Y-63335043D01*
G37*
G36*
X51652075Y-49303011D02*
G01*
X51853712Y-49334947D01*
X52047871Y-49398033D01*
X52229771Y-49490715D01*
X52394932Y-49610712D01*
X52539288Y-49755068D01*
X52659285Y-49920229D01*
X52751967Y-50102129D01*
X52815053Y-50296288D01*
X52846989Y-50497925D01*
X52846989Y-50702075D01*
X52815053Y-50903712D01*
X52751967Y-51097871D01*
X52710114Y-51180011D01*
X52783031Y-51299000D01*
X53800000Y-51299000D01*
X53810179Y-51299399D01*
X53899383Y-51302319D01*
X53905722Y-51303153D01*
X53921690Y-51303781D01*
X53976869Y-51312520D01*
X54102534Y-51329065D01*
X54133189Y-51337279D01*
X54162074Y-51341854D01*
X54217620Y-51359902D01*
X54298467Y-51381565D01*
X54350050Y-51402931D01*
X54393542Y-51417063D01*
X54434286Y-51437823D01*
X54485870Y-51459190D01*
X54558353Y-51501038D01*
X54610395Y-51527555D01*
X54634055Y-51544745D01*
X54661539Y-51560613D01*
X54762074Y-51637756D01*
X54807294Y-51670610D01*
X54815219Y-51678535D01*
X54822466Y-51684096D01*
X54965903Y-51827533D01*
X54971463Y-51834779D01*
X54979390Y-51842706D01*
X55012247Y-51887930D01*
X55089386Y-51988460D01*
X55105252Y-52015941D01*
X55122445Y-52039605D01*
X55148964Y-52091652D01*
X55190809Y-52164129D01*
X55212173Y-52215706D01*
X55232937Y-52256458D01*
X55247070Y-52299955D01*
X55268434Y-52351532D01*
X55290093Y-52432366D01*
X55308146Y-52487926D01*
X55312721Y-52516816D01*
X55320934Y-52547465D01*
X55337474Y-52673099D01*
X55346219Y-52728310D01*
X55346219Y-52739518D01*
X55347412Y-52748580D01*
X55347412Y-52951419D01*
X55346219Y-52960480D01*
X55346219Y-52971690D01*
X55337473Y-53026905D01*
X55320934Y-53152534D01*
X55312722Y-53183180D01*
X55308146Y-53212074D01*
X55290091Y-53267638D01*
X55268434Y-53348467D01*
X55247071Y-53400039D01*
X55232937Y-53443542D01*
X55212171Y-53484297D01*
X55190809Y-53535870D01*
X55148968Y-53608338D01*
X55122445Y-53660395D01*
X55105249Y-53684062D01*
X55089386Y-53711539D01*
X55012261Y-53812050D01*
X54979390Y-53857294D01*
X54971459Y-53865224D01*
X54965903Y-53872466D01*
X54822466Y-54015903D01*
X54815224Y-54021459D01*
X54807294Y-54029390D01*
X54762050Y-54062261D01*
X54661539Y-54139386D01*
X54634062Y-54155249D01*
X54610395Y-54172445D01*
X54558338Y-54198968D01*
X54485870Y-54240809D01*
X54434297Y-54262171D01*
X54393542Y-54282937D01*
X54350039Y-54297071D01*
X54298467Y-54318434D01*
X54217638Y-54340091D01*
X54162074Y-54358146D01*
X54133180Y-54362722D01*
X54102534Y-54370934D01*
X53976906Y-54387473D01*
X53921690Y-54396219D01*
X53905712Y-54396846D01*
X53899383Y-54397680D01*
X53810197Y-54400599D01*
X53800000Y-54401000D01*
X53797958Y-54401000D01*
X52783031Y-54401000D01*
X52710114Y-54519988D01*
X52751967Y-54602129D01*
X52815053Y-54796288D01*
X52846989Y-54997925D01*
X52846989Y-55202075D01*
X52815053Y-55403712D01*
X52751967Y-55597871D01*
X52659285Y-55779771D01*
X52539288Y-55944932D01*
X52394932Y-56089288D01*
X52321498Y-56142640D01*
X52377498Y-56315000D01*
X53058000Y-56315000D01*
X53077517Y-56318882D01*
X53094062Y-56329938D01*
X53105118Y-56346483D01*
X53109000Y-56366000D01*
X53109000Y-58066000D01*
X53105118Y-58085517D01*
X53094062Y-58102062D01*
X53077517Y-58113118D01*
X53058000Y-58117000D01*
X51358000Y-58117000D01*
X51338483Y-58113118D01*
X51321938Y-58102062D01*
X51310882Y-58085517D01*
X51307000Y-58066000D01*
X51307000Y-56474223D01*
X51233777Y-56401000D01*
X39052465Y-56401000D01*
X39050000Y-56401000D01*
X38947925Y-56396989D01*
X38746288Y-56365053D01*
X38552129Y-56301967D01*
X38370229Y-56209285D01*
X38205068Y-56089288D01*
X38060712Y-55944932D01*
X37940715Y-55779771D01*
X37848033Y-55597871D01*
X37784947Y-55403712D01*
X37753011Y-55202075D01*
X37753011Y-54997925D01*
X37784947Y-54796288D01*
X37848033Y-54602129D01*
X37889885Y-54519988D01*
X37816969Y-54401000D01*
X36802042Y-54401000D01*
X36800000Y-54401000D01*
X36789803Y-54400599D01*
X36700616Y-54397680D01*
X36694286Y-54396846D01*
X36678310Y-54396219D01*
X36623098Y-54387474D01*
X36497465Y-54370934D01*
X36466816Y-54362721D01*
X36437926Y-54358146D01*
X36382366Y-54340093D01*
X36301532Y-54318434D01*
X36249955Y-54297070D01*
X36206458Y-54282937D01*
X36165706Y-54262173D01*
X36114129Y-54240809D01*
X36041652Y-54198964D01*
X35989605Y-54172445D01*
X35965941Y-54155252D01*
X35938460Y-54139386D01*
X35837930Y-54062247D01*
X35792706Y-54029390D01*
X35784779Y-54021463D01*
X35777533Y-54015903D01*
X35634096Y-53872466D01*
X35628535Y-53865219D01*
X35620610Y-53857294D01*
X35587756Y-53812074D01*
X35510613Y-53711539D01*
X35494745Y-53684055D01*
X35477555Y-53660395D01*
X35451038Y-53608353D01*
X35409190Y-53535870D01*
X35387823Y-53484286D01*
X35367063Y-53443542D01*
X35352931Y-53400050D01*
X35331565Y-53348467D01*
X35309902Y-53267620D01*
X35291854Y-53212074D01*
X35287279Y-53183189D01*
X35279065Y-53152534D01*
X35262524Y-53026891D01*
X35253781Y-52971690D01*
X35253781Y-52960480D01*
X35252588Y-52951419D01*
X35252588Y-52748580D01*
X35253781Y-52739518D01*
X35253781Y-52728310D01*
X35262523Y-52673113D01*
X35279065Y-52547465D01*
X35287279Y-52516807D01*
X35291854Y-52487926D01*
X35309900Y-52432383D01*
X35331565Y-52351532D01*
X35352933Y-52299944D01*
X35367063Y-52256458D01*
X35387821Y-52215717D01*
X35409190Y-52164129D01*
X35451042Y-52091637D01*
X35477555Y-52039605D01*
X35488276Y-52024848D01*
X44111724Y-52024848D01*
X44122445Y-52039605D01*
X44148961Y-52091646D01*
X44190809Y-52164129D01*
X44212173Y-52215706D01*
X44232937Y-52256458D01*
X44247070Y-52299955D01*
X44268434Y-52351532D01*
X44290093Y-52432366D01*
X44308146Y-52487926D01*
X44312721Y-52516816D01*
X44320934Y-52547465D01*
X44337474Y-52673099D01*
X44346219Y-52728310D01*
X44346219Y-52739518D01*
X44347412Y-52748580D01*
X44347412Y-52951419D01*
X44346219Y-52960480D01*
X44346219Y-52971690D01*
X44337473Y-53026905D01*
X44320934Y-53152534D01*
X44312722Y-53183180D01*
X44308146Y-53212074D01*
X44290091Y-53267638D01*
X44268434Y-53348467D01*
X44247071Y-53400039D01*
X44232937Y-53443542D01*
X44212171Y-53484297D01*
X44190809Y-53535870D01*
X44148963Y-53608349D01*
X44122445Y-53660395D01*
X44111724Y-53675151D01*
X44183228Y-53799000D01*
X46416772Y-53799000D01*
X46488275Y-53675151D01*
X46477555Y-53660395D01*
X46451039Y-53608356D01*
X46409190Y-53535870D01*
X46387823Y-53484286D01*
X46367063Y-53443542D01*
X46352931Y-53400050D01*
X46331565Y-53348467D01*
X46309902Y-53267620D01*
X46291854Y-53212074D01*
X46287279Y-53183189D01*
X46279065Y-53152534D01*
X46262524Y-53026891D01*
X46253781Y-52971690D01*
X46253781Y-52960480D01*
X46252588Y-52951419D01*
X46252588Y-52748580D01*
X46253781Y-52739518D01*
X46253781Y-52728310D01*
X46262523Y-52673113D01*
X46279065Y-52547465D01*
X46287279Y-52516807D01*
X46291854Y-52487926D01*
X46309900Y-52432383D01*
X46331565Y-52351532D01*
X46352933Y-52299944D01*
X46367063Y-52256458D01*
X46387821Y-52215717D01*
X46409190Y-52164129D01*
X46451041Y-52091639D01*
X46477555Y-52039605D01*
X46488275Y-52024848D01*
X46416772Y-51901000D01*
X44183228Y-51901000D01*
X44111724Y-52024848D01*
X35488276Y-52024848D01*
X35494742Y-52015948D01*
X35510613Y-51988460D01*
X35587770Y-51887906D01*
X35620610Y-51842706D01*
X35628532Y-51834783D01*
X35634096Y-51827533D01*
X35777533Y-51684096D01*
X35784783Y-51678532D01*
X35792706Y-51670610D01*
X35837906Y-51637770D01*
X35938460Y-51560613D01*
X35965948Y-51544742D01*
X35989605Y-51527555D01*
X36041637Y-51501042D01*
X36114129Y-51459190D01*
X36165717Y-51437821D01*
X36206458Y-51417063D01*
X36249944Y-51402933D01*
X36301532Y-51381565D01*
X36382383Y-51359900D01*
X36437926Y-51341854D01*
X36466807Y-51337279D01*
X36497465Y-51329065D01*
X36623135Y-51312519D01*
X36678310Y-51303781D01*
X36694275Y-51303153D01*
X36700616Y-51302319D01*
X36789821Y-51299399D01*
X36800000Y-51299000D01*
X37816969Y-51299000D01*
X37889885Y-51180011D01*
X37848033Y-51097871D01*
X37784947Y-50903712D01*
X37753011Y-50702075D01*
X37753011Y-50497925D01*
X37784947Y-50296288D01*
X37848033Y-50102129D01*
X37940715Y-49920229D01*
X38060712Y-49755068D01*
X38205068Y-49610712D01*
X38370229Y-49490715D01*
X38552129Y-49398033D01*
X38746288Y-49334947D01*
X38947925Y-49303011D01*
X39050000Y-49299000D01*
X51550000Y-49299000D01*
X51652075Y-49303011D01*
G37*
G36*
X55009546Y-56353797D02*
G01*
X55172728Y-56421389D01*
X55319588Y-56519518D01*
X55444482Y-56644412D01*
X55542611Y-56791272D01*
X55610203Y-56954454D01*
X55644661Y-57127687D01*
X55644661Y-57304313D01*
X55610203Y-57477546D01*
X55542611Y-57640728D01*
X55444482Y-57787588D01*
X55319588Y-57912482D01*
X55172728Y-58010611D01*
X55009546Y-58078203D01*
X54836313Y-58112661D01*
X54659687Y-58112661D01*
X54486454Y-58078203D01*
X54323272Y-58010611D01*
X54176412Y-57912482D01*
X54051518Y-57787588D01*
X53953389Y-57640728D01*
X53885797Y-57477546D01*
X53851339Y-57304313D01*
X53851339Y-57127687D01*
X53885797Y-56954454D01*
X53953389Y-56791272D01*
X54051518Y-56644412D01*
X54176412Y-56519518D01*
X54323272Y-56421389D01*
X54486454Y-56353797D01*
X54659687Y-56319339D01*
X54836313Y-56319339D01*
X55009546Y-56353797D01*
G37*
G36*
X57549546Y-56353797D02*
G01*
X57712728Y-56421389D01*
X57859588Y-56519518D01*
X57984482Y-56644412D01*
X58082611Y-56791272D01*
X58150203Y-56954454D01*
X58184661Y-57127687D01*
X58184661Y-57304313D01*
X58150203Y-57477546D01*
X58082611Y-57640728D01*
X57984482Y-57787588D01*
X57859588Y-57912482D01*
X57712728Y-58010611D01*
X57549546Y-58078203D01*
X57376313Y-58112661D01*
X57199687Y-58112661D01*
X57026454Y-58078203D01*
X56863272Y-58010611D01*
X56716412Y-57912482D01*
X56591518Y-57787588D01*
X56493389Y-57640728D01*
X56425797Y-57477546D01*
X56391339Y-57304313D01*
X56391339Y-57127687D01*
X56425797Y-56954454D01*
X56493389Y-56791272D01*
X56591518Y-56644412D01*
X56716412Y-56519518D01*
X56863272Y-56421389D01*
X57026454Y-56353797D01*
X57199687Y-56319339D01*
X57376313Y-56319339D01*
X57549546Y-56353797D01*
G37*
G36*
X60089546Y-56353797D02*
G01*
X60252728Y-56421389D01*
X60399588Y-56519518D01*
X60524482Y-56644412D01*
X60622611Y-56791272D01*
X60690203Y-56954454D01*
X60724661Y-57127687D01*
X60724661Y-57304313D01*
X60690203Y-57477546D01*
X60622611Y-57640728D01*
X60524482Y-57787588D01*
X60399588Y-57912482D01*
X60252728Y-58010611D01*
X60089546Y-58078203D01*
X59916313Y-58112661D01*
X59739687Y-58112661D01*
X59566454Y-58078203D01*
X59403272Y-58010611D01*
X59256412Y-57912482D01*
X59131518Y-57787588D01*
X59033389Y-57640728D01*
X58965797Y-57477546D01*
X58931339Y-57304313D01*
X58931339Y-57127687D01*
X58965797Y-56954454D01*
X59033389Y-56791272D01*
X59131518Y-56644412D01*
X59256412Y-56519518D01*
X59403272Y-56421389D01*
X59566454Y-56353797D01*
X59739687Y-56319339D01*
X59916313Y-56319339D01*
X60089546Y-56353797D01*
G37*
M02*
