G04 #@! TF.GenerationSoftware,KiCad,Pcbnew,9.0.2*
G04 #@! TF.CreationDate,2025-10-10T20:33:48-04:00*
G04 #@! TF.ProjectId,Trackball,54726163-6b62-4616-9c6c-2e6b69636164,rev?*
G04 #@! TF.SameCoordinates,Original*
G04 #@! TF.FileFunction,Profile,NP*
%FSLAX46Y46*%
G04 Gerber Fmt 4.6, Leading zero omitted, Abs format (unit mm)*
G04 Created by KiCad (PCBNEW 9.0.2) date 2025-10-10 20:33:48*
%MOMM*%
%LPD*%
G01*
G04 APERTURE LIST*
G04 #@! TA.AperFunction,Profile*
%ADD10C,0.050000*%
G04 #@! TD*
G04 APERTURE END LIST*
D10*
X72000000Y-55600000D02*
G75*
G02*
X72000000Y-107600000I0J-26000000D01*
G01*
X53716588Y-107591589D02*
X72000000Y-107600000D01*
X53175000Y-50100000D02*
X37400000Y-50100000D01*
X35941588Y-109091589D02*
X35941588Y-106146870D01*
X72000000Y-55600000D02*
X54675000Y-55600000D01*
X38400000Y-51600000D02*
G75*
G02*
X38400000Y-53600000I0J-1000000D01*
G01*
X52716588Y-109091589D02*
X52716588Y-108591589D01*
X37441588Y-109591589D02*
G75*
G02*
X37441588Y-111591611I12J-1000011D01*
G01*
X30800000Y-67600000D02*
G75*
G02*
X30800000Y-95600000I6600000J-14000000D01*
G01*
X36900000Y-55600000D02*
X36900000Y-56629720D01*
X36900000Y-54100000D02*
X36900000Y-55600000D01*
X35941588Y-112091589D02*
G75*
G02*
X36441588Y-111591588I500012J-11D01*
G01*
X35941588Y-112591589D02*
X35941588Y-112091589D01*
X36900000Y-56629720D02*
G75*
G02*
X33903835Y-61210620I-5000000J0D01*
G01*
X53675000Y-51100000D02*
G75*
G02*
X53175000Y-51600000I-500000J0D01*
G01*
X52716588Y-112591589D02*
X52716588Y-112091589D01*
X36441588Y-109591589D02*
G75*
G02*
X35941611Y-109091589I12J499989D01*
G01*
X37400000Y-53600000D02*
X38400000Y-53600000D01*
X52716588Y-112591589D02*
G75*
G02*
X52216588Y-113091588I-499988J-11D01*
G01*
X53175000Y-53600000D02*
X52175000Y-53600000D01*
X52716588Y-109091589D02*
G75*
G02*
X52216588Y-109591588I-499988J-11D01*
G01*
X53175000Y-50100000D02*
G75*
G02*
X53675000Y-50600000I0J-500000D01*
G01*
X36900000Y-54100000D02*
G75*
G02*
X37400000Y-53600000I500000J0D01*
G01*
X52716588Y-108591589D02*
G75*
G02*
X53716588Y-107591588I1000012J-11D01*
G01*
X53675000Y-54100000D02*
X53675000Y-54600000D01*
X32942685Y-61632851D02*
X32895105Y-61650079D01*
X37441588Y-111591589D02*
X36441588Y-111591589D01*
X32945423Y-101565969D02*
X32897708Y-101548666D01*
X53675000Y-50600000D02*
X53675000Y-51100000D01*
X30800003Y-95600000D02*
X30577889Y-96075957D01*
X32897708Y-101548666D02*
G75*
G02*
X30577876Y-96075951I1304892J3781166D01*
G01*
X52175000Y-53600000D02*
G75*
G02*
X52175000Y-51600000I0J1000000D01*
G01*
X51216588Y-111591589D02*
G75*
G02*
X51216588Y-109591611I12J999989D01*
G01*
X52216588Y-111591589D02*
G75*
G02*
X52716611Y-112091589I112J-499911D01*
G01*
X30577019Y-67122185D02*
G75*
G02*
X32895105Y-61650080I3624721J1691545D01*
G01*
X36441588Y-113091589D02*
G75*
G02*
X35941611Y-112591589I12J499989D01*
G01*
X52216588Y-109591589D02*
X51216588Y-109591589D01*
X36900000Y-50600000D02*
G75*
G02*
X37400000Y-50100000I500000J0D01*
G01*
X36900000Y-50600000D02*
X36900000Y-51100000D01*
X38400000Y-51600000D02*
X37400000Y-51600000D01*
X32945423Y-101565969D02*
G75*
G02*
X35941624Y-106146869I-2003823J-4580931D01*
G01*
X51216588Y-111591589D02*
X52216588Y-111591589D01*
X30800000Y-67600002D02*
X30577019Y-67122185D01*
X36441588Y-109591589D02*
X37441588Y-109591589D01*
X52175000Y-51600000D02*
X53175000Y-51600000D01*
X53175000Y-53600000D02*
G75*
G02*
X53675000Y-54100000I0J-500000D01*
G01*
X52216588Y-113091589D02*
X36441588Y-113091589D01*
X37400000Y-51600000D02*
G75*
G02*
X36900000Y-51100000I0J500000D01*
G01*
X54675000Y-55600000D02*
G75*
G02*
X53675000Y-54600000I0J1000000D01*
G01*
X33903835Y-61210620D02*
X32942685Y-61632851D01*
M02*
