M48
; DRILL file {KiCad 9.0.2} date 2025-10-10T20:33:52-0400
; FORMAT={-:-/ absolute / metric / decimal}
; #@! TF.CreationDate,2025-10-10T20:33:52-04:00
; #@! TF.GenerationSoftware,Kicad,Pcbnew,9.0.2
; #@! TF.FileFunction,Plated,1,2,PTH
FMAT,2
METRIC
; #@! TA.AperFunction,Plated,PTH,ViaDrill
T1C0.400
; #@! TA.AperFunction,Plated,PTH,ComponentDrill
T2C1.000
; #@! TA.AperFunction,Plated,PTH,ComponentDrill
T3C2.500
; #@! TA.AperFunction,Plated,PTH,ComponentDrill
T4C3.500
%
G90
G05
T1
X42.4Y-61.6
X42.4Y-101.6
X52.4Y-61.6
X52.4Y-101.6
X62.4Y-61.6
X62.4Y-76.6
X62.4Y-86.6
X62.4Y-101.6
X72.4Y-61.6
X72.4Y-101.6
X82.4Y-61.6
X82.4Y-71.6
X82.4Y-91.6
X82.4Y-101.6
X92.4Y-71.6
X92.4Y-91.6
X95.15Y-81.6
T2
X49.208Y-57.216
X49.208Y-105.984
X51.748Y-57.216
X51.748Y-105.984
X54.288Y-57.216
X54.288Y-105.984
X56.828Y-57.216
X56.828Y-105.984
X87.876Y-77.79
X87.876Y-80.33
X87.876Y-82.87
X87.876Y-85.41
T3
X33.65Y-65.85
X33.65Y-97.35
X49.9Y-71.6
X49.9Y-91.6
T4
X72.4Y-68.64
X72.4Y-94.6
M30
