M48
; DRILL file {KiCad 9.0.2} date 2025-09-26T14:10:14-0400
; FORMAT={-:-/ absolute / metric / decimal}
; #@! TF.CreationDate,2025-09-26T14:10:14-04:00
; #@! TF.GenerationSoftware,Kicad,Pcbnew,9.0.2
; #@! TF.FileFunction,Plated,1,2,PTH
FMAT,2
METRIC
; #@! TA.AperFunction,Plated,PTH,ViaDrill
T1C0.400
; #@! TA.AperFunction,Plated,PTH,ComponentDrill
T2C0.800
; #@! TA.AperFunction,Plated,PTH,ComponentDrill
T3C1.000
; #@! TA.AperFunction,Plated,PTH,ComponentDrill
T4C2.500
; #@! TA.AperFunction,Plated,PTH,ComponentDrill
T5C3.500
%
G90
G05
T1
X42.4Y-61.6
X42.4Y-101.6
X52.4Y-61.6
X52.4Y-101.6
X62.4Y-61.6
X62.4Y-76.6
X62.4Y-86.6
X62.4Y-101.6
X72.4Y-61.6
X72.4Y-101.6
X82.4Y-61.6
X82.4Y-71.6
X82.4Y-91.6
X82.4Y-101.6
X92.4Y-71.6
X92.4Y-91.6
X95.15Y-81.6
T3
X52.208Y-57.216
X52.208Y-105.984
X54.748Y-57.216
X54.748Y-105.984
X57.288Y-57.216
X57.288Y-105.984
X59.828Y-57.216
X59.828Y-105.984
X87.876Y-77.79
X87.876Y-80.33
X87.876Y-82.87
X87.876Y-85.41
T4
X33.65Y-65.85
X33.65Y-97.35
X49.9Y-71.6
X49.9Y-91.6
T5
X72.4Y-68.64
X72.4Y-94.6
T2
G00X36.7Y-52.85
M15
G01X42.9Y-52.85
M16
G05
G00X36.8Y-110.35
M15
G01X43.0Y-110.35
M16
G05
G00X39.2Y-50.6
M15
G01X51.4Y-50.6
M16
G05
G00X39.2Y-55.1
M15
G01X51.4Y-55.1
M16
G05
G00X39.3Y-108.1
M15
G01X51.5Y-108.1
M16
G05
G00X39.3Y-112.6
M15
G01X51.5Y-112.6
M16
G05
G00X47.7Y-52.85
M15
G01X53.9Y-52.85
M16
G05
G00X47.8Y-110.35
M15
G01X54.0Y-110.35
M16
G05
M30
