M48
; DRILL file {KiCad 9.0.2} date 2025-09-26T15:19:23-0400
; FORMAT={-:-/ absolute / metric / decimal}
; #@! TF.CreationDate,2025-09-26T15:19:23-04:00
; #@! TF.GenerationSoftware,Kicad,Pcbnew,9.0.2
; #@! TF.FileFunction,Plated,1,2,PTH
FMAT,2
METRIC
; #@! TA.AperFunction,Plated,PTH,ViaDrill
T1C0.400
; #@! TA.AperFunction,Plated,PTH,ComponentDrill
T2C0.800
; #@! TA.AperFunction,Plated,PTH,ComponentDrill
T3C1.000
; #@! TA.AperFunction,Plated,PTH,ComponentDrill
T4C2.500
; #@! TA.AperFunction,Plated,PTH,ComponentDrill
T5C3.500
%
G90
G05
T1
X36.869Y-75.687
X43.94Y-82.758
X51.011Y-89.829
X58.082Y-96.9
X61.617Y-79.222
X65.153Y-47.402
X65.153Y-103.971
X68.688Y-72.151
X72.224Y-54.473
X72.224Y-96.9
X79.295Y-61.544
X79.295Y-103.971
X86.366Y-68.616
X86.366Y-82.758
X88.311Y-98.844
X93.437Y-75.687
X93.437Y-89.829
T3
X40.704Y-85.722
X42.5Y-87.518
X44.296Y-89.314
X46.092Y-91.11
X75.188Y-51.238
X76.984Y-53.034
X78.78Y-54.83
X80.473Y-96.395
X80.576Y-56.626
X82.269Y-94.599
X84.065Y-92.803
X85.861Y-91.007
T4
X33.687Y-66.494
X49.243Y-73.919
X55.96Y-44.22
X63.385Y-59.777
T5
X63.032Y-91.95
X81.388Y-73.594
T2
G00X26.722Y-77.914
M15
G01X31.106Y-82.298
M16
G05
G00X26.898Y-81.273
M15
G01X35.525Y-89.899
M16
G05
G00X30.08Y-78.091
M15
G01X38.707Y-86.717
M16
G05
G00X34.5Y-85.692
M15
G01X38.884Y-90.076
M16
G05
G00X67.31Y-37.185
M15
G01X71.694Y-41.569
M16
G05
G00X67.486Y-40.543
M15
G01X76.113Y-49.17
M16
G05
G00X70.668Y-37.361
M15
G01X79.295Y-45.988
M16
G05
G00X75.088Y-44.963
M15
G01X79.472Y-49.347
M16
G05
M30
