G04 #@! TF.GenerationSoftware,KiCad,Pcbnew,9.0.2*
G04 #@! TF.CreationDate,2025-09-26T14:10:11-04:00*
G04 #@! TF.ProjectId,Trackball,54726163-6b62-4616-9c6c-2e6b69636164,rev?*
G04 #@! TF.SameCoordinates,Original*
G04 #@! TF.FileFunction,Copper,L1,Top*
G04 #@! TF.FilePolarity,Positive*
%FSLAX46Y46*%
G04 Gerber Fmt 4.6, Leading zero omitted, Abs format (unit mm)*
G04 Created by KiCad (PCBNEW 9.0.2) date 2025-09-26 14:10:11*
%MOMM*%
%LPD*%
G01*
G04 APERTURE LIST*
G04 #@! TA.AperFunction,ComponentPad*
%ADD10C,5.000000*%
G04 #@! TD*
G04 #@! TA.AperFunction,ComponentPad*
%ADD11C,7.000000*%
G04 #@! TD*
G04 #@! TA.AperFunction,ComponentPad*
%ADD12O,9.000000X3.000000*%
G04 #@! TD*
G04 #@! TA.AperFunction,ComponentPad*
%ADD13O,15.000000X2.500000*%
G04 #@! TD*
G04 #@! TA.AperFunction,ComponentPad*
%ADD14R,1.700000X1.700000*%
G04 #@! TD*
G04 #@! TA.AperFunction,ComponentPad*
%ADD15C,1.700000*%
G04 #@! TD*
G04 #@! TA.AperFunction,ViaPad*
%ADD16C,0.800000*%
G04 #@! TD*
G04 APERTURE END LIST*
D10*
X33650000Y-65850000D03*
D11*
X72400000Y-68640000D03*
D12*
X39900000Y-110350000D03*
D13*
X45400000Y-108100000D03*
X45400000Y-112600000D03*
D12*
X50900000Y-110350000D03*
X39800000Y-52850000D03*
D13*
X45300000Y-50600000D03*
X45300000Y-55100000D03*
D12*
X50800000Y-52850000D03*
D11*
X72400000Y-94600000D03*
D10*
X49900000Y-91600000D03*
X33650000Y-97350000D03*
X49900000Y-71600000D03*
D14*
X87876000Y-77790000D03*
D15*
X87876000Y-80330000D03*
X87876000Y-82870000D03*
X87876000Y-85410000D03*
D14*
X52208000Y-105984000D03*
D15*
X54748000Y-105984000D03*
X57288000Y-105984000D03*
X59828000Y-105984000D03*
D14*
X52208000Y-57216000D03*
D15*
X54748000Y-57216000D03*
X57288000Y-57216000D03*
X59828000Y-57216000D03*
D16*
X82400000Y-71600000D03*
X52400000Y-101600000D03*
X82400000Y-61600000D03*
X42400000Y-101600000D03*
X82400000Y-101600000D03*
X92400000Y-71600000D03*
X62400000Y-86600000D03*
X62400000Y-61600000D03*
X72400000Y-61600000D03*
X52400000Y-61600000D03*
X62400000Y-76600000D03*
X42400000Y-61600000D03*
X82400000Y-91600000D03*
X95150000Y-81600000D03*
X92400000Y-91600000D03*
X72400000Y-101600000D03*
X62400000Y-101600000D03*
G04 #@! TA.AperFunction,Conductor*
G36*
X48677562Y-26125605D02*
G01*
X49080682Y-26142278D01*
X49090855Y-26143121D01*
X49488690Y-26192712D01*
X49498798Y-26194399D01*
X49891146Y-26276665D01*
X49901082Y-26279181D01*
X50285319Y-26393573D01*
X50294987Y-26396892D01*
X50563409Y-26501632D01*
X50668459Y-26542623D01*
X50677830Y-26546732D01*
X51037998Y-26722808D01*
X51046994Y-26727677D01*
X51391390Y-26932891D01*
X51399971Y-26938497D01*
X51726224Y-27171439D01*
X51734311Y-27177733D01*
X52040229Y-27436831D01*
X52047769Y-27443773D01*
X52331226Y-27727230D01*
X52338168Y-27734770D01*
X52597266Y-28040688D01*
X52603560Y-28048775D01*
X52836502Y-28375028D01*
X52842108Y-28383609D01*
X53047322Y-28728005D01*
X53052200Y-28737018D01*
X53228260Y-29097155D01*
X53232376Y-29106540D01*
X53378102Y-29480000D01*
X53381430Y-29489693D01*
X53495818Y-29873917D01*
X53498334Y-29883853D01*
X53580600Y-30276201D01*
X53582287Y-30286309D01*
X53631876Y-30684123D01*
X53632722Y-30694337D01*
X53649394Y-31097437D01*
X53649500Y-31102561D01*
X53649500Y-31132893D01*
X53649508Y-31132937D01*
X53654845Y-50725966D01*
X53635179Y-50793011D01*
X53582387Y-50838780D01*
X53530845Y-50850000D01*
X53060000Y-50850000D01*
X53051989Y-50869338D01*
X53052579Y-50870418D01*
X53047595Y-50940110D01*
X53019094Y-50984457D01*
X51553551Y-52450000D01*
X50846448Y-52450000D01*
X52446448Y-50850000D01*
X49153551Y-50850000D01*
X50753552Y-52450000D01*
X50046448Y-52450000D01*
X48580905Y-50984457D01*
X48547420Y-50923134D01*
X48550787Y-50876044D01*
X48540000Y-50850000D01*
X47668905Y-50850000D01*
X47408990Y-50884220D01*
X47408979Y-50884222D01*
X47155744Y-50952075D01*
X46913528Y-51052404D01*
X46913517Y-51052409D01*
X46686471Y-51183496D01*
X46478480Y-51343092D01*
X46478473Y-51343098D01*
X46293098Y-51528473D01*
X46293092Y-51528480D01*
X46133496Y-51736471D01*
X46002409Y-51963517D01*
X46002404Y-51963528D01*
X45902075Y-52205744D01*
X45834222Y-52458979D01*
X45834220Y-52458990D01*
X45800000Y-52718905D01*
X45800000Y-52981094D01*
X45834220Y-53241009D01*
X45834222Y-53241020D01*
X45902075Y-53494255D01*
X46002404Y-53736471D01*
X46002409Y-53736482D01*
X46133496Y-53963528D01*
X46293092Y-54171519D01*
X46293098Y-54171526D01*
X46478473Y-54356901D01*
X46478480Y-54356907D01*
X46686471Y-54516503D01*
X46913517Y-54647590D01*
X46913528Y-54647595D01*
X47155744Y-54747924D01*
X47408979Y-54815777D01*
X47408990Y-54815779D01*
X47668905Y-54849999D01*
X47668920Y-54850000D01*
X48540000Y-54850000D01*
X48548010Y-54830661D01*
X48547420Y-54829581D01*
X48552404Y-54759889D01*
X48580905Y-54715542D01*
X50046446Y-53250000D01*
X50753552Y-53250000D01*
X49153551Y-54849999D01*
X49153552Y-54850000D01*
X52446448Y-54850000D01*
X52446448Y-54849999D01*
X50846448Y-53250000D01*
X51553552Y-53250000D01*
X53019094Y-54715542D01*
X53052579Y-54776865D01*
X53049211Y-54823953D01*
X53060000Y-54850000D01*
X53594246Y-54850000D01*
X53661285Y-54869685D01*
X53707040Y-54922489D01*
X53710751Y-54931545D01*
X53711477Y-54933537D01*
X53748538Y-55035280D01*
X53838265Y-55190611D01*
X53838271Y-55190620D01*
X53953607Y-55328022D01*
X53953613Y-55328028D01*
X54060504Y-55417694D01*
X54091047Y-55443316D01*
X54246417Y-55533000D01*
X54414998Y-55594349D01*
X54415001Y-55594350D01*
X54415006Y-55594351D01*
X54513198Y-55611663D01*
X54591669Y-55625499D01*
X54591677Y-55625499D01*
X54596026Y-55625880D01*
X54661095Y-55651331D01*
X54702075Y-55707921D01*
X54705954Y-55777683D01*
X54671502Y-55838468D01*
X54609656Y-55870977D01*
X54604619Y-55871881D01*
X54431872Y-55899242D01*
X54431869Y-55899242D01*
X54229782Y-55964904D01*
X54040439Y-56061380D01*
X53986282Y-56100727D01*
X53986282Y-56100728D01*
X54618591Y-56733037D01*
X54555007Y-56750075D01*
X54440993Y-56815901D01*
X54347901Y-56908993D01*
X54282075Y-57023007D01*
X54265037Y-57086591D01*
X53595642Y-56417196D01*
X53562157Y-56355873D01*
X53563077Y-56341166D01*
X53560501Y-56341444D01*
X53551596Y-56258619D01*
X53501354Y-56123913D01*
X53501350Y-56123906D01*
X53415190Y-56008812D01*
X53415187Y-56008809D01*
X53300093Y-55922649D01*
X53300086Y-55922645D01*
X53165379Y-55872403D01*
X53165372Y-55872401D01*
X53105844Y-55866000D01*
X52458000Y-55866000D01*
X52458000Y-56782988D01*
X52400993Y-56750075D01*
X52273826Y-56716000D01*
X52142174Y-56716000D01*
X52015007Y-56750075D01*
X51958000Y-56782988D01*
X51958000Y-55866000D01*
X51310155Y-55866000D01*
X51250627Y-55872401D01*
X51250620Y-55872403D01*
X51115913Y-55922645D01*
X51115906Y-55922649D01*
X51000812Y-56008809D01*
X51000809Y-56008812D01*
X50914649Y-56123906D01*
X50914645Y-56123913D01*
X50864403Y-56258620D01*
X50864401Y-56258627D01*
X50858000Y-56318155D01*
X50858000Y-56966000D01*
X51774988Y-56966000D01*
X51742075Y-57023007D01*
X51708000Y-57150174D01*
X51708000Y-57281826D01*
X51742075Y-57408993D01*
X51774988Y-57466000D01*
X50858000Y-57466000D01*
X50858000Y-58113844D01*
X50864401Y-58173372D01*
X50864403Y-58173379D01*
X50914645Y-58308086D01*
X50914649Y-58308093D01*
X51000809Y-58423187D01*
X51000812Y-58423190D01*
X51115906Y-58509350D01*
X51115913Y-58509354D01*
X51250620Y-58559596D01*
X51250627Y-58559598D01*
X51310155Y-58565999D01*
X51310172Y-58566000D01*
X51958000Y-58566000D01*
X51958000Y-57649012D01*
X52015007Y-57681925D01*
X52142174Y-57716000D01*
X52273826Y-57716000D01*
X52400993Y-57681925D01*
X52458000Y-57649012D01*
X52458000Y-58566000D01*
X53105828Y-58566000D01*
X53105844Y-58565999D01*
X53165372Y-58559598D01*
X53165379Y-58559596D01*
X53300086Y-58509354D01*
X53300093Y-58509350D01*
X53415187Y-58423190D01*
X53415190Y-58423187D01*
X53501350Y-58308093D01*
X53501354Y-58308086D01*
X53551598Y-58173375D01*
X53560501Y-58090556D01*
X53563550Y-58090883D01*
X53562642Y-58073984D01*
X53595642Y-58014802D01*
X54265037Y-57345408D01*
X54282075Y-57408993D01*
X54347901Y-57523007D01*
X54440993Y-57616099D01*
X54555007Y-57681925D01*
X54618590Y-57698962D01*
X53986282Y-58331269D01*
X53986282Y-58331270D01*
X54040449Y-58370624D01*
X54229782Y-58467095D01*
X54431870Y-58532757D01*
X54641754Y-58566000D01*
X54854246Y-58566000D01*
X55064127Y-58532757D01*
X55064130Y-58532757D01*
X55266217Y-58467095D01*
X55455554Y-58370622D01*
X55509716Y-58331270D01*
X55509717Y-58331270D01*
X54877408Y-57698962D01*
X54940993Y-57681925D01*
X55055007Y-57616099D01*
X55148099Y-57523007D01*
X55213925Y-57408993D01*
X55230962Y-57345408D01*
X55863270Y-57977717D01*
X55863270Y-57977716D01*
X55902622Y-57923554D01*
X55907514Y-57913954D01*
X55955488Y-57863157D01*
X56023308Y-57846361D01*
X56089444Y-57868897D01*
X56128486Y-57913954D01*
X56133375Y-57923550D01*
X56172728Y-57977716D01*
X56805037Y-57345408D01*
X56822075Y-57408993D01*
X56887901Y-57523007D01*
X56980993Y-57616099D01*
X57095007Y-57681925D01*
X57158590Y-57698962D01*
X56526282Y-58331269D01*
X56526282Y-58331270D01*
X56580449Y-58370624D01*
X56769782Y-58467095D01*
X56971870Y-58532757D01*
X57181754Y-58566000D01*
X57394246Y-58566000D01*
X57604127Y-58532757D01*
X57604130Y-58532757D01*
X57806217Y-58467095D01*
X57995554Y-58370622D01*
X58049716Y-58331270D01*
X58049717Y-58331270D01*
X57417408Y-57698962D01*
X57480993Y-57681925D01*
X57595007Y-57616099D01*
X57688099Y-57523007D01*
X57753925Y-57408993D01*
X57770962Y-57345408D01*
X58403270Y-57977717D01*
X58403270Y-57977716D01*
X58442622Y-57923554D01*
X58447514Y-57913954D01*
X58495488Y-57863157D01*
X58563308Y-57846361D01*
X58629444Y-57868897D01*
X58668486Y-57913954D01*
X58673375Y-57923550D01*
X58712728Y-57977716D01*
X59345037Y-57345408D01*
X59362075Y-57408993D01*
X59427901Y-57523007D01*
X59520993Y-57616099D01*
X59635007Y-57681925D01*
X59698590Y-57698962D01*
X59066282Y-58331269D01*
X59066282Y-58331270D01*
X59120449Y-58370624D01*
X59309782Y-58467095D01*
X59511870Y-58532757D01*
X59721754Y-58566000D01*
X59934246Y-58566000D01*
X60144127Y-58532757D01*
X60144130Y-58532757D01*
X60346217Y-58467095D01*
X60535554Y-58370622D01*
X60589716Y-58331270D01*
X60589717Y-58331270D01*
X59957408Y-57698962D01*
X60020993Y-57681925D01*
X60135007Y-57616099D01*
X60228099Y-57523007D01*
X60293925Y-57408993D01*
X60310962Y-57345408D01*
X60943270Y-57977717D01*
X60943270Y-57977716D01*
X60982622Y-57923554D01*
X61079095Y-57734217D01*
X61144757Y-57532130D01*
X61144757Y-57532127D01*
X61178000Y-57322246D01*
X61178000Y-57109753D01*
X61144757Y-56899872D01*
X61144757Y-56899869D01*
X61128964Y-56851262D01*
X62503473Y-56851262D01*
X63565548Y-57913337D01*
X64627623Y-56851262D01*
X66039007Y-56851262D01*
X67101082Y-57913337D01*
X68163157Y-56851262D01*
X69574541Y-56851262D01*
X70636616Y-57913337D01*
X71698691Y-56851262D01*
X71698690Y-56851261D01*
X73110074Y-56851261D01*
X74172150Y-57913337D01*
X75234225Y-56851262D01*
X75219185Y-56836222D01*
X74899613Y-56792573D01*
X73935438Y-56698790D01*
X73299581Y-56661754D01*
X73110074Y-56851261D01*
X71698690Y-56851261D01*
X71470929Y-56623500D01*
X69802303Y-56623500D01*
X69574541Y-56851262D01*
X68163157Y-56851262D01*
X67935395Y-56623500D01*
X66266769Y-56623500D01*
X66039007Y-56851262D01*
X64627623Y-56851262D01*
X64399861Y-56623500D01*
X62731235Y-56623500D01*
X62503473Y-56851262D01*
X61128964Y-56851262D01*
X61079095Y-56697782D01*
X60982624Y-56508449D01*
X60943270Y-56454282D01*
X60943269Y-56454282D01*
X60310962Y-57086590D01*
X60293925Y-57023007D01*
X60228099Y-56908993D01*
X60135007Y-56815901D01*
X60020993Y-56750075D01*
X59957409Y-56733037D01*
X60589716Y-56100728D01*
X60535550Y-56061375D01*
X60346217Y-55964904D01*
X60144129Y-55899242D01*
X59971958Y-55871973D01*
X59908823Y-55842044D01*
X59871892Y-55782732D01*
X59872890Y-55712870D01*
X59911500Y-55654637D01*
X59975463Y-55626523D01*
X59991356Y-55625500D01*
X71991715Y-55625500D01*
X71998781Y-55625500D01*
X72001185Y-55625523D01*
X72028543Y-55626053D01*
X73004810Y-55644988D01*
X73009553Y-55645172D01*
X74010413Y-55703466D01*
X74015197Y-55703837D01*
X75013085Y-55800899D01*
X75017852Y-55801457D01*
X76011182Y-55937134D01*
X76015896Y-55937872D01*
X77003249Y-56111968D01*
X77007953Y-56112892D01*
X77987808Y-56325142D01*
X77992425Y-56326236D01*
X78963338Y-56576327D01*
X78967904Y-56577598D01*
X79928447Y-56865165D01*
X79932941Y-56866607D01*
X80881508Y-57191169D01*
X80886027Y-57192813D01*
X81821311Y-57553918D01*
X81825763Y-57555737D01*
X82746317Y-57952825D01*
X82750695Y-57954815D01*
X83655184Y-58387311D01*
X83659481Y-58389470D01*
X83847567Y-58488543D01*
X84546480Y-58856692D01*
X84550669Y-58859003D01*
X85418948Y-59360303D01*
X85423034Y-59362770D01*
X86271204Y-59897350D01*
X86275163Y-59899953D01*
X87101985Y-60467033D01*
X87105887Y-60469822D01*
X87817009Y-60999233D01*
X87910063Y-61068509D01*
X87913860Y-61071452D01*
X87939941Y-61092488D01*
X88694211Y-61700866D01*
X88697895Y-61703957D01*
X89453282Y-62363181D01*
X89456807Y-62366380D01*
X90061370Y-62936756D01*
X90186045Y-63054381D01*
X90189478Y-63057748D01*
X90891485Y-63773502D01*
X90894785Y-63777000D01*
X91568488Y-64519412D01*
X91571651Y-64523035D01*
X92216093Y-65291052D01*
X92219112Y-65294795D01*
X92833290Y-66087222D01*
X92836161Y-66091080D01*
X93053954Y-66395789D01*
X93257706Y-66680854D01*
X93419111Y-66906671D01*
X93421827Y-66910630D01*
X93825061Y-67523718D01*
X93972752Y-67748271D01*
X93975316Y-67752339D01*
X94438565Y-68519939D01*
X94493342Y-68610703D01*
X94495738Y-68614854D01*
X94748549Y-69073031D01*
X94980086Y-69492653D01*
X94982327Y-69496908D01*
X95432261Y-70392799D01*
X95434336Y-70397137D01*
X95849207Y-71309833D01*
X95851112Y-71314249D01*
X96230281Y-72242346D01*
X96232013Y-72246832D01*
X96574898Y-73188900D01*
X96576455Y-73193451D01*
X96882568Y-74148152D01*
X96883947Y-74152759D01*
X97152797Y-75118563D01*
X97153997Y-75123220D01*
X97385203Y-76098759D01*
X97386221Y-76103459D01*
X97579425Y-77087217D01*
X97580260Y-77091953D01*
X97735172Y-78082456D01*
X97735823Y-78087220D01*
X97852214Y-79083009D01*
X97852679Y-79087796D01*
X97930367Y-80087309D01*
X97930647Y-80092110D01*
X97969523Y-81093923D01*
X97969616Y-81098731D01*
X97969616Y-82101268D01*
X97969523Y-82106076D01*
X97930647Y-83107889D01*
X97930367Y-83112690D01*
X97852679Y-84112203D01*
X97852214Y-84116990D01*
X97735823Y-85112779D01*
X97735172Y-85117543D01*
X97580260Y-86108046D01*
X97579425Y-86112782D01*
X97386221Y-87096540D01*
X97385203Y-87101240D01*
X97153997Y-88076779D01*
X97152797Y-88081436D01*
X96883947Y-89047240D01*
X96882568Y-89051847D01*
X96576455Y-90006548D01*
X96574898Y-90011099D01*
X96232013Y-90953167D01*
X96230281Y-90957653D01*
X95851112Y-91885750D01*
X95849207Y-91890166D01*
X95434336Y-92802862D01*
X95432261Y-92807200D01*
X94982327Y-93703091D01*
X94980086Y-93707346D01*
X94495746Y-94585131D01*
X94493342Y-94589296D01*
X93975316Y-95447660D01*
X93972752Y-95451728D01*
X93421832Y-96289362D01*
X93419111Y-96293328D01*
X92836161Y-97108919D01*
X92833290Y-97112777D01*
X92219112Y-97905204D01*
X92216093Y-97908947D01*
X91571651Y-98676964D01*
X91568488Y-98680587D01*
X90894785Y-99422999D01*
X90891485Y-99426497D01*
X90189478Y-100142251D01*
X90186045Y-100145618D01*
X89456825Y-100833602D01*
X89453264Y-100836834D01*
X88697895Y-101496042D01*
X88694211Y-101499133D01*
X87913864Y-102128544D01*
X87910063Y-102131490D01*
X87105898Y-102730169D01*
X87101985Y-102732966D01*
X86275192Y-103300026D01*
X86271174Y-103302668D01*
X85423049Y-103837220D01*
X85418932Y-103839705D01*
X84550680Y-104340990D01*
X84546469Y-104343313D01*
X83659481Y-104810529D01*
X83655184Y-104812688D01*
X82750695Y-105245184D01*
X82746317Y-105247174D01*
X81825763Y-105644262D01*
X81821311Y-105646081D01*
X80886027Y-106007186D01*
X80881508Y-106008830D01*
X79932984Y-106333378D01*
X79928405Y-106334847D01*
X78967937Y-106622392D01*
X78963304Y-106623681D01*
X77992456Y-106873755D01*
X77987776Y-106874864D01*
X77007960Y-107087105D01*
X77003241Y-107088032D01*
X76015915Y-107262124D01*
X76011164Y-107262867D01*
X75017857Y-107398541D01*
X75013081Y-107399100D01*
X74015203Y-107496161D01*
X74010408Y-107496533D01*
X73009585Y-107554825D01*
X73004780Y-107555012D01*
X72001213Y-107574476D01*
X71998750Y-107574499D01*
X60026638Y-107568902D01*
X59959608Y-107549186D01*
X59913878Y-107496361D01*
X59903966Y-107427198D01*
X59933021Y-107363655D01*
X59991817Y-107325909D01*
X60007299Y-107322429D01*
X60144125Y-107300758D01*
X60144130Y-107300757D01*
X60346217Y-107235095D01*
X60535554Y-107138622D01*
X60589716Y-107099270D01*
X60589717Y-107099270D01*
X59957408Y-106466962D01*
X60020993Y-106449925D01*
X60135007Y-106384099D01*
X60228099Y-106291007D01*
X60293925Y-106176993D01*
X60310962Y-106113408D01*
X60943270Y-106745717D01*
X60943270Y-106745716D01*
X60982622Y-106691554D01*
X61079095Y-106502217D01*
X61128964Y-106348737D01*
X62503473Y-106348737D01*
X62726899Y-106572163D01*
X64403412Y-106572946D01*
X64627621Y-106348737D01*
X66039007Y-106348737D01*
X66264086Y-106573816D01*
X67937294Y-106574598D01*
X68163155Y-106348737D01*
X69574541Y-106348737D01*
X69801274Y-106575470D01*
X71471176Y-106576250D01*
X71698689Y-106348737D01*
X73110075Y-106348737D01*
X73299580Y-106538242D01*
X73935439Y-106501207D01*
X74899612Y-106407424D01*
X75219185Y-106363774D01*
X75234224Y-106348736D01*
X74172150Y-105286662D01*
X73110075Y-106348737D01*
X71698689Y-106348737D01*
X71698690Y-106348736D01*
X70636616Y-105286662D01*
X69574541Y-106348737D01*
X68163155Y-106348737D01*
X68163156Y-106348736D01*
X67101082Y-105286662D01*
X66039007Y-106348737D01*
X64627621Y-106348737D01*
X64627622Y-106348736D01*
X63565548Y-105286662D01*
X62503473Y-106348737D01*
X61128964Y-106348737D01*
X61144757Y-106300130D01*
X61144757Y-106300127D01*
X61178000Y-106090246D01*
X61178000Y-105877753D01*
X61144757Y-105667872D01*
X61144757Y-105667869D01*
X61079095Y-105465782D01*
X60982624Y-105276449D01*
X60943270Y-105222282D01*
X60943269Y-105222282D01*
X60310962Y-105854590D01*
X60293925Y-105791007D01*
X60228099Y-105676993D01*
X60135007Y-105583901D01*
X60020993Y-105518075D01*
X59957409Y-105501037D01*
X60589716Y-104868728D01*
X60535550Y-104829375D01*
X60346217Y-104732904D01*
X60144129Y-104667242D01*
X59934246Y-104634000D01*
X59721754Y-104634000D01*
X59511872Y-104667242D01*
X59511869Y-104667242D01*
X59309782Y-104732904D01*
X59120439Y-104829380D01*
X59066282Y-104868727D01*
X59066282Y-104868728D01*
X59698591Y-105501037D01*
X59635007Y-105518075D01*
X59520993Y-105583901D01*
X59427901Y-105676993D01*
X59362075Y-105791007D01*
X59345037Y-105854591D01*
X58712728Y-105222282D01*
X58712727Y-105222282D01*
X58673380Y-105276440D01*
X58668483Y-105286051D01*
X58620506Y-105336845D01*
X58552684Y-105353638D01*
X58486550Y-105331098D01*
X58447516Y-105286048D01*
X58442626Y-105276452D01*
X58403270Y-105222282D01*
X58403269Y-105222282D01*
X57770962Y-105854590D01*
X57753925Y-105791007D01*
X57688099Y-105676993D01*
X57595007Y-105583901D01*
X57480993Y-105518075D01*
X57417409Y-105501037D01*
X58049716Y-104868728D01*
X57995550Y-104829375D01*
X57806217Y-104732904D01*
X57604129Y-104667242D01*
X57394246Y-104634000D01*
X57181754Y-104634000D01*
X56971872Y-104667242D01*
X56971869Y-104667242D01*
X56769782Y-104732904D01*
X56580439Y-104829380D01*
X56526282Y-104868727D01*
X56526282Y-104868728D01*
X57158591Y-105501037D01*
X57095007Y-105518075D01*
X56980993Y-105583901D01*
X56887901Y-105676993D01*
X56822075Y-105791007D01*
X56805037Y-105854591D01*
X56172728Y-105222282D01*
X56172727Y-105222282D01*
X56133380Y-105276440D01*
X56128483Y-105286051D01*
X56080506Y-105336845D01*
X56012684Y-105353638D01*
X55946550Y-105331098D01*
X55907516Y-105286048D01*
X55902626Y-105276452D01*
X55863270Y-105222282D01*
X55863269Y-105222282D01*
X55230962Y-105854590D01*
X55213925Y-105791007D01*
X55148099Y-105676993D01*
X55055007Y-105583901D01*
X54940993Y-105518075D01*
X54877409Y-105501037D01*
X55509716Y-104868728D01*
X55455550Y-104829375D01*
X55266217Y-104732904D01*
X55064129Y-104667242D01*
X54854246Y-104634000D01*
X54641754Y-104634000D01*
X54431872Y-104667242D01*
X54431869Y-104667242D01*
X54229782Y-104732904D01*
X54040439Y-104829380D01*
X53986282Y-104868727D01*
X53986282Y-104868728D01*
X54618591Y-105501037D01*
X54555007Y-105518075D01*
X54440993Y-105583901D01*
X54347901Y-105676993D01*
X54282075Y-105791007D01*
X54265037Y-105854591D01*
X53595642Y-105185196D01*
X53562157Y-105123873D01*
X53563077Y-105109166D01*
X53560501Y-105109444D01*
X53551596Y-105026619D01*
X53501354Y-104891913D01*
X53501350Y-104891906D01*
X53415190Y-104776812D01*
X53415187Y-104776809D01*
X53300093Y-104690649D01*
X53300086Y-104690645D01*
X53165379Y-104640403D01*
X53165372Y-104640401D01*
X53105844Y-104634000D01*
X52458000Y-104634000D01*
X52458000Y-105550988D01*
X52400993Y-105518075D01*
X52273826Y-105484000D01*
X52142174Y-105484000D01*
X52015007Y-105518075D01*
X51958000Y-105550988D01*
X51958000Y-104634000D01*
X51310155Y-104634000D01*
X51250627Y-104640401D01*
X51250620Y-104640403D01*
X51115913Y-104690645D01*
X51115906Y-104690649D01*
X51000812Y-104776809D01*
X51000809Y-104776812D01*
X50914649Y-104891906D01*
X50914645Y-104891913D01*
X50864403Y-105026620D01*
X50864401Y-105026627D01*
X50858000Y-105086155D01*
X50858000Y-105734000D01*
X51774988Y-105734000D01*
X51742075Y-105791007D01*
X51708000Y-105918174D01*
X51708000Y-106049826D01*
X51742075Y-106176993D01*
X51774988Y-106234000D01*
X50858000Y-106234000D01*
X50858000Y-106881844D01*
X50864401Y-106941372D01*
X50864403Y-106941379D01*
X50914645Y-107076086D01*
X50914649Y-107076093D01*
X51000809Y-107191187D01*
X51000812Y-107191190D01*
X51115906Y-107277350D01*
X51115913Y-107277354D01*
X51250620Y-107327596D01*
X51250627Y-107327598D01*
X51310155Y-107333999D01*
X51310172Y-107334000D01*
X51958000Y-107334000D01*
X51958000Y-106417012D01*
X52015007Y-106449925D01*
X52142174Y-106484000D01*
X52273826Y-106484000D01*
X52400993Y-106449925D01*
X52458000Y-106417012D01*
X52458000Y-107334000D01*
X53105828Y-107334000D01*
X53105844Y-107333999D01*
X53165372Y-107327598D01*
X53165379Y-107327596D01*
X53300086Y-107277354D01*
X53300093Y-107277350D01*
X53415187Y-107191190D01*
X53415190Y-107191187D01*
X53501350Y-107076093D01*
X53501354Y-107076086D01*
X53551598Y-106941375D01*
X53560501Y-106858556D01*
X53563550Y-106858883D01*
X53562642Y-106841984D01*
X53595642Y-106782802D01*
X54265037Y-106113408D01*
X54282075Y-106176993D01*
X54347901Y-106291007D01*
X54440993Y-106384099D01*
X54555007Y-106449925D01*
X54618590Y-106466962D01*
X53986282Y-107099269D01*
X53986282Y-107099270D01*
X54040449Y-107138624D01*
X54229782Y-107235095D01*
X54431870Y-107300757D01*
X54574572Y-107323359D01*
X54637706Y-107353288D01*
X54674638Y-107412599D01*
X54673640Y-107482462D01*
X54635030Y-107540695D01*
X54576656Y-107567957D01*
X54408956Y-107597455D01*
X54408947Y-107597457D01*
X54240266Y-107658783D01*
X54240258Y-107658787D01*
X54084791Y-107748482D01*
X53947265Y-107863819D01*
X53831859Y-108001296D01*
X53742086Y-108156732D01*
X53701422Y-108268422D01*
X53659990Y-108324682D01*
X53594719Y-108349611D01*
X53584904Y-108350000D01*
X53160000Y-108350000D01*
X53151989Y-108369338D01*
X53152579Y-108370418D01*
X53147595Y-108440110D01*
X53119094Y-108484457D01*
X51653551Y-109950000D01*
X50946448Y-109950000D01*
X52546448Y-108350000D01*
X49253551Y-108350000D01*
X50853552Y-109950000D01*
X50146448Y-109950000D01*
X48680905Y-108484457D01*
X48647420Y-108423134D01*
X48650787Y-108376044D01*
X48640000Y-108350000D01*
X47768905Y-108350000D01*
X47508990Y-108384220D01*
X47508979Y-108384222D01*
X47255744Y-108452075D01*
X47013528Y-108552404D01*
X47013517Y-108552409D01*
X46786471Y-108683496D01*
X46578480Y-108843092D01*
X46578473Y-108843098D01*
X46393098Y-109028473D01*
X46393092Y-109028480D01*
X46233496Y-109236471D01*
X46102409Y-109463517D01*
X46102404Y-109463528D01*
X46002075Y-109705744D01*
X45934222Y-109958979D01*
X45934220Y-109958990D01*
X45900000Y-110218905D01*
X45900000Y-110481094D01*
X45934220Y-110741009D01*
X45934222Y-110741020D01*
X46002075Y-110994255D01*
X46102404Y-111236471D01*
X46102409Y-111236482D01*
X46233496Y-111463528D01*
X46393092Y-111671519D01*
X46393098Y-111671526D01*
X46578473Y-111856901D01*
X46578480Y-111856907D01*
X46786471Y-112016503D01*
X47013517Y-112147590D01*
X47013528Y-112147595D01*
X47255744Y-112247924D01*
X47508979Y-112315777D01*
X47508990Y-112315779D01*
X47768905Y-112349999D01*
X47768920Y-112350000D01*
X48640000Y-112350000D01*
X48648010Y-112330661D01*
X48647420Y-112329581D01*
X48652404Y-112259889D01*
X48680905Y-112215542D01*
X50146446Y-110750000D01*
X50853552Y-110750000D01*
X49253551Y-112349999D01*
X49253552Y-112350000D01*
X52546448Y-112350000D01*
X52546448Y-112349999D01*
X50946448Y-110750000D01*
X51653552Y-110750000D01*
X53119094Y-112215542D01*
X53152579Y-112276865D01*
X53149211Y-112323953D01*
X53160000Y-112350000D01*
X53525500Y-112350000D01*
X53592539Y-112369685D01*
X53638294Y-112422489D01*
X53649500Y-112474000D01*
X53649500Y-132097438D01*
X53649394Y-132102562D01*
X53632722Y-132505662D01*
X53631876Y-132515876D01*
X53582287Y-132913690D01*
X53580600Y-132923798D01*
X53498334Y-133316146D01*
X53495818Y-133326082D01*
X53381430Y-133710306D01*
X53378102Y-133719999D01*
X53232376Y-134093459D01*
X53228260Y-134102844D01*
X53052200Y-134462981D01*
X53047322Y-134471994D01*
X52842108Y-134816390D01*
X52836502Y-134824971D01*
X52603560Y-135151224D01*
X52597266Y-135159311D01*
X52338168Y-135465229D01*
X52331226Y-135472769D01*
X52047769Y-135756226D01*
X52040229Y-135763168D01*
X51734311Y-136022266D01*
X51726224Y-136028560D01*
X51399971Y-136261502D01*
X51391390Y-136267108D01*
X51046994Y-136472322D01*
X51037981Y-136477200D01*
X50677844Y-136653260D01*
X50668459Y-136657376D01*
X50294999Y-136803102D01*
X50285306Y-136806430D01*
X49901082Y-136920818D01*
X49891146Y-136923334D01*
X49498798Y-137005600D01*
X49488690Y-137007287D01*
X49090876Y-137056876D01*
X49080662Y-137057722D01*
X48677563Y-137074394D01*
X48672439Y-137074500D01*
X41902561Y-137074500D01*
X41897437Y-137074394D01*
X41494337Y-137057722D01*
X41484123Y-137056876D01*
X41086309Y-137007287D01*
X41076201Y-137005600D01*
X40683853Y-136923334D01*
X40673917Y-136920818D01*
X40289693Y-136806430D01*
X40280000Y-136803102D01*
X39906540Y-136657376D01*
X39897155Y-136653260D01*
X39537010Y-136477195D01*
X39528005Y-136472322D01*
X39183609Y-136267108D01*
X39175028Y-136261502D01*
X38915919Y-136076500D01*
X43382312Y-136076500D01*
X44857911Y-136076500D01*
X46917845Y-136076500D01*
X48393445Y-136076500D01*
X47655645Y-135338700D01*
X46917845Y-136076500D01*
X44857911Y-136076500D01*
X44120111Y-135338700D01*
X43382312Y-136076500D01*
X38915919Y-136076500D01*
X38848775Y-136028560D01*
X38840688Y-136022266D01*
X38534770Y-135763168D01*
X38527230Y-135756226D01*
X38243773Y-135472769D01*
X38236831Y-135465229D01*
X37977733Y-135159311D01*
X37971439Y-135151224D01*
X37738497Y-134824971D01*
X37732891Y-134816390D01*
X37527677Y-134471994D01*
X37522808Y-134462998D01*
X37346732Y-134102830D01*
X37342623Y-134093459D01*
X37301020Y-133986840D01*
X38400902Y-133986840D01*
X38403512Y-133992178D01*
X38571723Y-134274475D01*
X38762654Y-134541888D01*
X38975031Y-134792643D01*
X39207354Y-135024966D01*
X39358723Y-135153168D01*
X39878883Y-134633008D01*
X41290270Y-134633008D01*
X42352344Y-135695082D01*
X43414419Y-134633008D01*
X44825803Y-134633008D01*
X45887878Y-135695082D01*
X46949953Y-134633008D01*
X48361337Y-134633008D01*
X49423412Y-135695083D01*
X50485487Y-134633008D01*
X49423412Y-133570933D01*
X48361337Y-134633008D01*
X46949953Y-134633008D01*
X45887878Y-133570933D01*
X44825803Y-134633008D01*
X43414419Y-134633008D01*
X42352344Y-133570933D01*
X41290270Y-134633008D01*
X39878883Y-134633008D01*
X39878884Y-134633007D01*
X38816810Y-133570932D01*
X38400902Y-133986840D01*
X37301020Y-133986840D01*
X37277793Y-133927315D01*
X37196892Y-133719987D01*
X37193573Y-133710319D01*
X37079181Y-133326082D01*
X37076665Y-133316146D01*
X36994399Y-132923798D01*
X36992712Y-132913690D01*
X36986673Y-132865241D01*
X39522503Y-132865241D01*
X40584577Y-133927315D01*
X41646652Y-132865241D01*
X43058036Y-132865241D01*
X44120111Y-133927315D01*
X45182186Y-132865241D01*
X46593570Y-132865241D01*
X47655645Y-133927316D01*
X48717720Y-132865241D01*
X50129104Y-132865241D01*
X51191179Y-133927316D01*
X52253254Y-132865241D01*
X51191179Y-131803166D01*
X50129104Y-132865241D01*
X48717720Y-132865241D01*
X47655645Y-131803166D01*
X46593570Y-132865241D01*
X45182186Y-132865241D01*
X44120111Y-131803166D01*
X43058036Y-132865241D01*
X41646652Y-132865241D01*
X40584577Y-131803166D01*
X39522503Y-132865241D01*
X36986673Y-132865241D01*
X36968836Y-132722149D01*
X36943121Y-132515855D01*
X36942278Y-132505682D01*
X36925606Y-132102562D01*
X36925500Y-132097438D01*
X36925500Y-130928710D01*
X37923500Y-130928710D01*
X37923500Y-131266238D01*
X38816810Y-132159548D01*
X39878885Y-131097474D01*
X41290270Y-131097474D01*
X42352344Y-132159548D01*
X43414419Y-131097474D01*
X44825803Y-131097474D01*
X45887878Y-132159548D01*
X46949953Y-131097474D01*
X48361337Y-131097474D01*
X49423412Y-132159549D01*
X50485487Y-131097474D01*
X51896871Y-131097474D01*
X52651500Y-131852103D01*
X52651500Y-130342845D01*
X51896871Y-131097474D01*
X50485487Y-131097474D01*
X49423412Y-130035399D01*
X48361337Y-131097474D01*
X46949953Y-131097474D01*
X45887878Y-130035399D01*
X44825803Y-131097474D01*
X43414419Y-131097474D01*
X42352344Y-130035399D01*
X41290270Y-131097474D01*
X39878885Y-131097474D01*
X38816810Y-130035399D01*
X37923500Y-130928710D01*
X36925500Y-130928710D01*
X36925500Y-129329707D01*
X39522503Y-129329707D01*
X40584577Y-130391781D01*
X41646652Y-129329707D01*
X43058036Y-129329707D01*
X44120111Y-130391781D01*
X45182186Y-129329707D01*
X46593570Y-129329707D01*
X47655645Y-130391782D01*
X48717720Y-129329707D01*
X50129104Y-129329707D01*
X51191179Y-130391782D01*
X52253254Y-129329707D01*
X51191179Y-128267632D01*
X50129104Y-129329707D01*
X48717720Y-129329707D01*
X47655645Y-128267632D01*
X46593570Y-129329707D01*
X45182186Y-129329707D01*
X44120111Y-128267632D01*
X43058036Y-129329707D01*
X41646652Y-129329707D01*
X40584577Y-128267632D01*
X39522503Y-129329707D01*
X36925500Y-129329707D01*
X36925500Y-127393176D01*
X37923500Y-127393176D01*
X37923500Y-127730704D01*
X38816810Y-128624014D01*
X39878885Y-127561940D01*
X41290270Y-127561940D01*
X42352344Y-128624014D01*
X43414419Y-127561940D01*
X44825803Y-127561940D01*
X45887878Y-128624014D01*
X46949953Y-127561940D01*
X48361337Y-127561940D01*
X49423412Y-128624015D01*
X50485487Y-127561940D01*
X51896871Y-127561940D01*
X52651500Y-128316569D01*
X52651500Y-126807311D01*
X51896871Y-127561940D01*
X50485487Y-127561940D01*
X49423412Y-126499865D01*
X48361337Y-127561940D01*
X46949953Y-127561940D01*
X45887878Y-126499865D01*
X44825803Y-127561940D01*
X43414419Y-127561940D01*
X42352344Y-126499865D01*
X41290270Y-127561940D01*
X39878885Y-127561940D01*
X38816810Y-126499865D01*
X37923500Y-127393176D01*
X36925500Y-127393176D01*
X36925500Y-125794173D01*
X39522503Y-125794173D01*
X40584577Y-126856247D01*
X41646652Y-125794173D01*
X43058036Y-125794173D01*
X44120111Y-126856247D01*
X45182186Y-125794173D01*
X46593570Y-125794173D01*
X47655645Y-126856248D01*
X48717720Y-125794173D01*
X50129104Y-125794173D01*
X51191179Y-126856248D01*
X52253254Y-125794173D01*
X51191179Y-124732098D01*
X50129104Y-125794173D01*
X48717720Y-125794173D01*
X47655645Y-124732098D01*
X46593570Y-125794173D01*
X45182186Y-125794173D01*
X44120111Y-124732098D01*
X43058036Y-125794173D01*
X41646652Y-125794173D01*
X40584577Y-124732098D01*
X39522503Y-125794173D01*
X36925500Y-125794173D01*
X36925500Y-123857642D01*
X37923500Y-123857642D01*
X37923500Y-124195170D01*
X38816810Y-125088480D01*
X39878885Y-124026406D01*
X41290270Y-124026406D01*
X42352344Y-125088480D01*
X43414419Y-124026406D01*
X44825803Y-124026406D01*
X45887878Y-125088480D01*
X46949952Y-124026406D01*
X48361337Y-124026406D01*
X49423412Y-125088481D01*
X50485486Y-124026406D01*
X51896871Y-124026406D01*
X52651500Y-124781035D01*
X52651500Y-123271777D01*
X51896871Y-124026406D01*
X50485486Y-124026406D01*
X49423412Y-122964331D01*
X48361337Y-124026406D01*
X46949952Y-124026406D01*
X45887878Y-122964331D01*
X44825803Y-124026406D01*
X43414419Y-124026406D01*
X42352344Y-122964331D01*
X41290270Y-124026406D01*
X39878885Y-124026406D01*
X38816810Y-122964331D01*
X37923500Y-123857642D01*
X36925500Y-123857642D01*
X36925500Y-122258639D01*
X39522503Y-122258639D01*
X40584577Y-123320713D01*
X41646652Y-122258639D01*
X43058036Y-122258639D01*
X44120111Y-123320713D01*
X45182185Y-122258639D01*
X46593570Y-122258639D01*
X47655645Y-123320714D01*
X48717719Y-122258639D01*
X50129104Y-122258639D01*
X51191179Y-123320714D01*
X52253253Y-122258639D01*
X51191179Y-121196564D01*
X50129104Y-122258639D01*
X48717719Y-122258639D01*
X47655645Y-121196564D01*
X46593570Y-122258639D01*
X45182185Y-122258639D01*
X44120111Y-121196564D01*
X43058036Y-122258639D01*
X41646652Y-122258639D01*
X40584577Y-121196564D01*
X39522503Y-122258639D01*
X36925500Y-122258639D01*
X36925500Y-120322108D01*
X37923500Y-120322108D01*
X37923500Y-120659636D01*
X38816810Y-121552946D01*
X39878885Y-120490872D01*
X41290270Y-120490872D01*
X42352344Y-121552946D01*
X43414419Y-120490872D01*
X44825803Y-120490872D01*
X45887878Y-121552946D01*
X46949952Y-120490872D01*
X48361337Y-120490872D01*
X49423412Y-121552947D01*
X50485486Y-120490872D01*
X51896871Y-120490872D01*
X52651500Y-121245501D01*
X52651500Y-119736243D01*
X51896871Y-120490872D01*
X50485486Y-120490872D01*
X49423412Y-119428797D01*
X48361337Y-120490872D01*
X46949952Y-120490872D01*
X45887878Y-119428797D01*
X44825803Y-120490872D01*
X43414419Y-120490872D01*
X42352344Y-119428797D01*
X41290270Y-120490872D01*
X39878885Y-120490872D01*
X38816810Y-119428797D01*
X37923500Y-120322108D01*
X36925500Y-120322108D01*
X36925500Y-118723105D01*
X39522503Y-118723105D01*
X40584577Y-119785180D01*
X41646652Y-118723105D01*
X43058036Y-118723105D01*
X44120111Y-119785180D01*
X45182185Y-118723105D01*
X46593570Y-118723105D01*
X47655645Y-119785180D01*
X48717719Y-118723105D01*
X50129104Y-118723105D01*
X51191179Y-119785180D01*
X52253253Y-118723105D01*
X51191179Y-117661031D01*
X50129104Y-118723105D01*
X48717719Y-118723105D01*
X47655645Y-117661031D01*
X46593570Y-118723105D01*
X45182185Y-118723105D01*
X44120111Y-117661031D01*
X43058036Y-118723105D01*
X41646652Y-118723105D01*
X40584577Y-117661031D01*
X39522503Y-118723105D01*
X36925500Y-118723105D01*
X36925500Y-116786575D01*
X37923500Y-116786575D01*
X37923500Y-117124102D01*
X38816811Y-118017413D01*
X39878885Y-116955338D01*
X41290270Y-116955338D01*
X42352344Y-118017413D01*
X43414419Y-116955338D01*
X44825803Y-116955338D01*
X45887878Y-118017413D01*
X46949952Y-116955338D01*
X48361337Y-116955338D01*
X49423412Y-118017413D01*
X50485486Y-116955338D01*
X51896871Y-116955338D01*
X52651500Y-117709967D01*
X52651500Y-116200710D01*
X51896871Y-116955338D01*
X50485486Y-116955338D01*
X49423412Y-115893264D01*
X48361337Y-116955338D01*
X46949952Y-116955338D01*
X45887878Y-115893264D01*
X44825803Y-116955338D01*
X43414419Y-116955338D01*
X42352344Y-115893264D01*
X41290270Y-116955338D01*
X39878885Y-116955338D01*
X38816810Y-115893264D01*
X37923500Y-116786575D01*
X36925500Y-116786575D01*
X36925500Y-115187571D01*
X39522503Y-115187571D01*
X40584577Y-116249646D01*
X41646652Y-115187571D01*
X43058036Y-115187571D01*
X44120111Y-116249646D01*
X45182185Y-115187571D01*
X46593570Y-115187571D01*
X47655645Y-116249646D01*
X48717719Y-115187571D01*
X50129104Y-115187571D01*
X51191179Y-116249646D01*
X52253253Y-115187571D01*
X51191179Y-114125497D01*
X50129104Y-115187571D01*
X48717719Y-115187571D01*
X47655645Y-114125497D01*
X46593570Y-115187571D01*
X45182185Y-115187571D01*
X44120111Y-114125497D01*
X43058036Y-115187571D01*
X41646652Y-115187571D01*
X40584577Y-114125497D01*
X39522503Y-115187571D01*
X36925500Y-115187571D01*
X36925500Y-113588569D01*
X37923500Y-113588569D01*
X38816810Y-114481879D01*
X39324690Y-113974000D01*
X39051623Y-113974000D01*
X39032225Y-113972473D01*
X38837893Y-113941694D01*
X38818972Y-113937152D01*
X38631848Y-113876351D01*
X38613873Y-113868905D01*
X38438563Y-113779581D01*
X38421971Y-113769414D01*
X38262794Y-113653764D01*
X38247999Y-113641127D01*
X38108873Y-113502001D01*
X38096236Y-113487206D01*
X37995096Y-113348000D01*
X37923500Y-113348000D01*
X37923500Y-113588569D01*
X36925500Y-113588569D01*
X36925500Y-112474000D01*
X36945185Y-112406961D01*
X36997989Y-112361206D01*
X37049500Y-112350000D01*
X37640000Y-112350000D01*
X37648010Y-112330661D01*
X37647420Y-112329581D01*
X37652404Y-112259889D01*
X37680905Y-112215542D01*
X39146446Y-110750000D01*
X39853552Y-110750000D01*
X38253551Y-112349999D01*
X38253552Y-112350000D01*
X41546448Y-112350000D01*
X41546448Y-112349999D01*
X39946448Y-110750000D01*
X40653552Y-110750000D01*
X42119094Y-112215542D01*
X42152579Y-112276865D01*
X42149211Y-112323953D01*
X42160000Y-112350000D01*
X43031080Y-112350000D01*
X43031094Y-112349999D01*
X43291009Y-112315779D01*
X43291020Y-112315777D01*
X43544255Y-112247924D01*
X43786471Y-112147595D01*
X43786482Y-112147590D01*
X44013528Y-112016503D01*
X44221519Y-111856907D01*
X44221526Y-111856901D01*
X44406901Y-111671526D01*
X44406907Y-111671519D01*
X44566503Y-111463528D01*
X44697590Y-111236482D01*
X44697595Y-111236471D01*
X44797924Y-110994255D01*
X44865777Y-110741020D01*
X44865779Y-110741009D01*
X44899999Y-110481094D01*
X44900000Y-110481080D01*
X44900000Y-110218919D01*
X44899999Y-110218905D01*
X44865779Y-109958990D01*
X44865777Y-109958979D01*
X44797924Y-109705744D01*
X44697595Y-109463528D01*
X44697590Y-109463517D01*
X44566503Y-109236471D01*
X44406907Y-109028480D01*
X44406901Y-109028473D01*
X44221526Y-108843098D01*
X44221519Y-108843092D01*
X44013528Y-108683496D01*
X43786482Y-108552409D01*
X43786471Y-108552404D01*
X43544255Y-108452075D01*
X43291020Y-108384222D01*
X43291009Y-108384220D01*
X43031094Y-108350000D01*
X42160000Y-108350000D01*
X42151989Y-108369338D01*
X42152579Y-108370418D01*
X42147595Y-108440110D01*
X42119094Y-108484457D01*
X40653551Y-109950000D01*
X39946448Y-109950000D01*
X41546448Y-108350000D01*
X38253551Y-108350000D01*
X39853552Y-109950000D01*
X39146448Y-109950000D01*
X37680905Y-108484457D01*
X37647420Y-108423134D01*
X37650787Y-108376044D01*
X37640000Y-108350000D01*
X37049500Y-108350000D01*
X36982461Y-108330315D01*
X36936706Y-108277511D01*
X36925500Y-108226000D01*
X36925500Y-107215825D01*
X36925501Y-107206558D01*
X36925523Y-106976173D01*
X36890340Y-106516749D01*
X36848502Y-106245194D01*
X37858277Y-106245194D01*
X37879249Y-106381309D01*
X37879882Y-106386012D01*
X37883702Y-106419200D01*
X37884153Y-106423912D01*
X37888650Y-106482651D01*
X38372516Y-106966517D01*
X38421972Y-106930586D01*
X38438563Y-106920419D01*
X38613873Y-106831095D01*
X38631848Y-106823649D01*
X38818972Y-106762848D01*
X38837893Y-106758306D01*
X39032225Y-106727527D01*
X39051623Y-106726000D01*
X39501622Y-106726000D01*
X39878884Y-106348737D01*
X41290270Y-106348737D01*
X41667533Y-106726000D01*
X43037156Y-106726000D01*
X43414419Y-106348736D01*
X44825803Y-106348736D01*
X45203067Y-106726000D01*
X46572690Y-106726000D01*
X46949953Y-106348737D01*
X48361337Y-106348737D01*
X48738600Y-106726000D01*
X49860000Y-106726000D01*
X49860000Y-106033454D01*
X49869439Y-105986002D01*
X49870268Y-105984000D01*
X49869439Y-105981998D01*
X49860000Y-105934546D01*
X49860000Y-105723250D01*
X49423412Y-105286662D01*
X48361337Y-106348737D01*
X46949953Y-106348737D01*
X45887878Y-105286662D01*
X44825803Y-106348736D01*
X43414419Y-106348736D01*
X42352344Y-105286662D01*
X41290270Y-106348737D01*
X39878884Y-106348737D01*
X39878885Y-106348736D01*
X38816810Y-105286661D01*
X37858277Y-106245194D01*
X36848502Y-106245194D01*
X36820178Y-106061353D01*
X36813666Y-106033454D01*
X36715450Y-105612652D01*
X36715449Y-105612650D01*
X36715448Y-105612644D01*
X36576762Y-105173241D01*
X36404928Y-104745712D01*
X36200951Y-104332551D01*
X35966021Y-103936172D01*
X35966013Y-103936160D01*
X35966012Y-103936158D01*
X35748399Y-103625769D01*
X36942169Y-103625769D01*
X37068008Y-103838086D01*
X37070348Y-103842211D01*
X37086270Y-103871580D01*
X37088447Y-103875786D01*
X37307200Y-104318876D01*
X37309215Y-104323161D01*
X37322848Y-104353656D01*
X37324700Y-104358021D01*
X37508974Y-104816503D01*
X37510651Y-104820917D01*
X37521920Y-104852365D01*
X37523438Y-104856872D01*
X37598234Y-105093853D01*
X38111117Y-104580970D01*
X39522503Y-104580970D01*
X40584577Y-105643044D01*
X41646652Y-104580970D01*
X43058036Y-104580970D01*
X44120111Y-105643044D01*
X45182186Y-104580970D01*
X46593570Y-104580970D01*
X47655645Y-105643045D01*
X48717720Y-104580970D01*
X48231330Y-104094580D01*
X61222094Y-104094580D01*
X61355697Y-104191647D01*
X61391001Y-104231376D01*
X61459072Y-104352924D01*
X61580622Y-104420997D01*
X61620351Y-104456301D01*
X61801541Y-104705691D01*
X61804322Y-104709682D01*
X61820678Y-104734159D01*
X61823303Y-104738260D01*
X61843785Y-104771681D01*
X61846248Y-104775883D01*
X61860648Y-104801595D01*
X61862944Y-104805890D01*
X61977214Y-105030154D01*
X61979340Y-105034537D01*
X61991669Y-105061281D01*
X61993619Y-105065739D01*
X62008621Y-105101955D01*
X62010396Y-105106491D01*
X62020595Y-105134136D01*
X62022191Y-105138737D01*
X62090831Y-105349993D01*
X62859854Y-104580970D01*
X64271240Y-104580970D01*
X65333315Y-105643045D01*
X66395390Y-104580970D01*
X67806774Y-104580970D01*
X68868849Y-105643045D01*
X69930924Y-104580970D01*
X71342308Y-104580970D01*
X72404383Y-105643045D01*
X73466458Y-104580970D01*
X74877842Y-104580970D01*
X75939916Y-105643044D01*
X77001991Y-104580970D01*
X78413376Y-104580970D01*
X79310480Y-105478074D01*
X79625945Y-105383631D01*
X79791516Y-105326978D01*
X80537525Y-104580969D01*
X79475450Y-103518895D01*
X78413376Y-104580970D01*
X77001991Y-104580970D01*
X75939916Y-103518895D01*
X74877842Y-104580970D01*
X73466458Y-104580970D01*
X72404383Y-103518895D01*
X71342308Y-104580970D01*
X69930924Y-104580970D01*
X68868849Y-103518895D01*
X67806774Y-104580970D01*
X66395390Y-104580970D01*
X65333315Y-103518895D01*
X64271240Y-104580970D01*
X62859854Y-104580970D01*
X62859855Y-104580969D01*
X61797780Y-103518894D01*
X61222094Y-104094580D01*
X48231330Y-104094580D01*
X47655645Y-103518895D01*
X46593570Y-104580970D01*
X45182186Y-104580970D01*
X44120111Y-103518895D01*
X43058036Y-104580970D01*
X41646652Y-104580970D01*
X40584577Y-103518895D01*
X39522503Y-104580970D01*
X38111117Y-104580970D01*
X38111118Y-104580969D01*
X37049043Y-103518894D01*
X36942169Y-103625769D01*
X35748399Y-103625769D01*
X35701520Y-103558903D01*
X35701518Y-103558901D01*
X35701510Y-103558889D01*
X35408963Y-103202905D01*
X35090088Y-102870298D01*
X35026294Y-102813203D01*
X37754736Y-102813203D01*
X38816810Y-103875277D01*
X39878885Y-102813203D01*
X41290270Y-102813203D01*
X42352344Y-103875277D01*
X43414419Y-102813203D01*
X44825803Y-102813203D01*
X45887878Y-103875277D01*
X46949953Y-102813203D01*
X48361337Y-102813203D01*
X49423412Y-103875278D01*
X50462591Y-102836099D01*
X51919767Y-102836099D01*
X52719668Y-103636000D01*
X53119177Y-103636000D01*
X53122491Y-103636044D01*
X53142539Y-103636580D01*
X53145855Y-103636713D01*
X53172542Y-103638142D01*
X53175856Y-103638364D01*
X53194369Y-103639853D01*
X54021019Y-102813203D01*
X55432405Y-102813203D01*
X56418026Y-103798824D01*
X56438136Y-103791405D01*
X56442737Y-103789809D01*
X56645988Y-103723768D01*
X57556553Y-102813203D01*
X58967939Y-102813203D01*
X59790736Y-103636000D01*
X59953857Y-103636000D01*
X59958729Y-103636096D01*
X59988181Y-103637254D01*
X59993046Y-103637541D01*
X60032125Y-103640619D01*
X60036962Y-103641095D01*
X60066196Y-103644555D01*
X60071020Y-103645223D01*
X60234219Y-103671071D01*
X60996340Y-102908950D01*
X62599220Y-102908950D01*
X63565548Y-103875278D01*
X64627623Y-102813203D01*
X66039007Y-102813203D01*
X67101082Y-103875278D01*
X68163157Y-102813203D01*
X69574541Y-102813203D01*
X70636616Y-103875278D01*
X71698691Y-102813203D01*
X73110075Y-102813203D01*
X74172150Y-103875278D01*
X75234225Y-102813203D01*
X76645609Y-102813203D01*
X77707683Y-103875277D01*
X78769758Y-102813203D01*
X78769757Y-102813202D01*
X80181142Y-102813202D01*
X81243217Y-103875277D01*
X82208346Y-102910148D01*
X82099601Y-102892925D01*
X82080681Y-102888383D01*
X81901042Y-102830015D01*
X81883065Y-102822569D01*
X81864681Y-102813202D01*
X83716676Y-102813202D01*
X84259933Y-103356459D01*
X84905258Y-102983883D01*
X85583822Y-102556199D01*
X84778751Y-101751128D01*
X83716676Y-102813202D01*
X81864681Y-102813202D01*
X81714768Y-102736817D01*
X81698178Y-102726650D01*
X81545367Y-102615627D01*
X81530571Y-102602990D01*
X81397010Y-102469429D01*
X81384373Y-102454633D01*
X81273350Y-102301822D01*
X81263183Y-102285232D01*
X81177431Y-102116935D01*
X81169985Y-102098958D01*
X81111617Y-101919319D01*
X81107075Y-101900399D01*
X81105279Y-101889065D01*
X80181142Y-102813202D01*
X78769757Y-102813202D01*
X77707683Y-101751128D01*
X76645609Y-102813203D01*
X75234225Y-102813203D01*
X74172150Y-101751128D01*
X73110075Y-102813203D01*
X71698691Y-102813203D01*
X70636616Y-101751128D01*
X69574541Y-102813203D01*
X68163157Y-102813203D01*
X67101082Y-101751128D01*
X66039007Y-102813203D01*
X64627623Y-102813203D01*
X63695918Y-101881498D01*
X63692925Y-101900399D01*
X63688383Y-101919319D01*
X63630015Y-102098958D01*
X63622569Y-102116935D01*
X63536817Y-102285232D01*
X63526650Y-102301822D01*
X63415627Y-102454633D01*
X63402990Y-102469429D01*
X63269429Y-102602990D01*
X63254633Y-102615627D01*
X63101822Y-102726650D01*
X63085232Y-102736817D01*
X62916935Y-102822569D01*
X62898958Y-102830015D01*
X62719319Y-102888383D01*
X62700399Y-102892925D01*
X62599220Y-102908950D01*
X60996340Y-102908950D01*
X61092088Y-102813202D01*
X60030014Y-101751128D01*
X58967939Y-102813203D01*
X57556553Y-102813203D01*
X57556554Y-102813202D01*
X56494480Y-101751128D01*
X55432405Y-102813203D01*
X54021019Y-102813203D01*
X54021020Y-102813202D01*
X53519492Y-102311674D01*
X53415627Y-102454633D01*
X53402990Y-102469429D01*
X53269429Y-102602990D01*
X53254633Y-102615627D01*
X53101822Y-102726650D01*
X53085232Y-102736817D01*
X52916935Y-102822569D01*
X52898958Y-102830015D01*
X52719319Y-102888383D01*
X52700399Y-102892925D01*
X52513840Y-102922473D01*
X52494442Y-102924000D01*
X52305558Y-102924000D01*
X52286160Y-102922473D01*
X52099601Y-102892925D01*
X52080681Y-102888383D01*
X51919767Y-102836099D01*
X50462591Y-102836099D01*
X50485487Y-102813203D01*
X49423412Y-101751128D01*
X48361337Y-102813203D01*
X46949953Y-102813203D01*
X45887878Y-101751128D01*
X44825803Y-102813203D01*
X43414419Y-102813203D01*
X43232745Y-102631529D01*
X43101822Y-102726650D01*
X43085232Y-102736817D01*
X42916935Y-102822569D01*
X42898958Y-102830015D01*
X42719319Y-102888383D01*
X42700399Y-102892925D01*
X42513840Y-102922473D01*
X42494442Y-102924000D01*
X42305558Y-102924000D01*
X42286160Y-102922473D01*
X42099601Y-102892925D01*
X42080681Y-102888383D01*
X41901042Y-102830015D01*
X41883065Y-102822569D01*
X41714768Y-102736817D01*
X41698178Y-102726650D01*
X41545367Y-102615627D01*
X41530571Y-102602990D01*
X41515527Y-102587946D01*
X41290270Y-102813203D01*
X39878885Y-102813203D01*
X38816810Y-101751128D01*
X37754736Y-102813203D01*
X35026294Y-102813203D01*
X34928955Y-102726086D01*
X34746752Y-102563015D01*
X34380948Y-102282841D01*
X34380940Y-102282835D01*
X33994824Y-102031421D01*
X33994822Y-102031420D01*
X33994816Y-102031416D01*
X33590617Y-101810211D01*
X33334352Y-101694442D01*
X33170713Y-101620517D01*
X33170691Y-101620508D01*
X32958972Y-101543757D01*
X32958955Y-101543745D01*
X32958954Y-101543750D01*
X32954119Y-101541996D01*
X32954119Y-101541997D01*
X32946325Y-101539171D01*
X32946325Y-101539170D01*
X32946323Y-101539170D01*
X32931756Y-101533888D01*
X32929498Y-101532662D01*
X32908765Y-101525505D01*
X32903369Y-101523501D01*
X32567870Y-101389951D01*
X32557363Y-101385191D01*
X32238310Y-101222361D01*
X32228289Y-101216644D01*
X31925759Y-101024875D01*
X31916314Y-101018253D01*
X31632914Y-100799200D01*
X31624125Y-100791729D01*
X31362296Y-100547279D01*
X31354240Y-100539023D01*
X31311005Y-100490384D01*
X33006485Y-100490384D01*
X33253621Y-100588759D01*
X33313933Y-100609581D01*
X33331679Y-100617315D01*
X33526582Y-100687971D01*
X33528507Y-100688711D01*
X33891188Y-100820255D01*
X33947498Y-100861618D01*
X33954315Y-100879401D01*
X34016673Y-100907572D01*
X34020941Y-100909599D01*
X34050837Y-100924501D01*
X34055049Y-100926702D01*
X34468208Y-101152811D01*
X34575583Y-101045436D01*
X35986969Y-101045436D01*
X37049044Y-102107511D01*
X38111119Y-101045436D01*
X39522503Y-101045436D01*
X40584577Y-102107510D01*
X41076000Y-101616088D01*
X41076000Y-101505558D01*
X41077527Y-101486160D01*
X41107075Y-101299601D01*
X41111617Y-101280681D01*
X41169985Y-101101042D01*
X41177431Y-101083065D01*
X41263183Y-100914768D01*
X41273350Y-100898178D01*
X41368470Y-100767254D01*
X41316742Y-100715526D01*
X43387945Y-100715526D01*
X43402990Y-100730571D01*
X43415627Y-100745367D01*
X43526650Y-100898178D01*
X43536817Y-100914768D01*
X43622569Y-101083065D01*
X43630015Y-101101042D01*
X43688383Y-101280681D01*
X43692925Y-101299601D01*
X43722473Y-101486160D01*
X43724000Y-101505558D01*
X43724000Y-101694442D01*
X43722762Y-101710162D01*
X44120111Y-102107511D01*
X45182186Y-101045436D01*
X46593570Y-101045436D01*
X47655645Y-102107511D01*
X48717720Y-101045436D01*
X50129104Y-101045436D01*
X51163900Y-102080232D01*
X51111617Y-101919319D01*
X51107075Y-101900399D01*
X51077527Y-101713840D01*
X51076000Y-101694442D01*
X51076000Y-101505558D01*
X51077527Y-101486160D01*
X51107075Y-101299601D01*
X51111617Y-101280681D01*
X51169985Y-101101042D01*
X51177431Y-101083065D01*
X51196604Y-101045436D01*
X53664638Y-101045436D01*
X54726713Y-102107511D01*
X55788788Y-101045436D01*
X57200172Y-101045436D01*
X58262247Y-102107511D01*
X59324322Y-101045436D01*
X60735706Y-101045436D01*
X61091049Y-101400779D01*
X61107075Y-101299601D01*
X61111617Y-101280681D01*
X61169985Y-101101042D01*
X61177431Y-101083065D01*
X61196604Y-101045436D01*
X64271240Y-101045436D01*
X65333315Y-102107511D01*
X66395390Y-101045436D01*
X67806774Y-101045436D01*
X68868849Y-102107511D01*
X69930924Y-101045436D01*
X74877842Y-101045436D01*
X75939916Y-102107510D01*
X77001991Y-101045436D01*
X78413376Y-101045436D01*
X79475450Y-102107510D01*
X80537525Y-101045436D01*
X79475450Y-99983361D01*
X78413376Y-101045436D01*
X77001991Y-101045436D01*
X75939916Y-99983361D01*
X74877842Y-101045436D01*
X69930924Y-101045436D01*
X68868849Y-99983361D01*
X67806774Y-101045436D01*
X66395390Y-101045436D01*
X65333315Y-99983361D01*
X64271240Y-101045436D01*
X61196604Y-101045436D01*
X61263183Y-100914768D01*
X61273350Y-100898178D01*
X61384373Y-100745367D01*
X61397010Y-100730571D01*
X61530571Y-100597010D01*
X61545367Y-100584373D01*
X61698178Y-100473350D01*
X61714768Y-100463183D01*
X61883065Y-100377431D01*
X61901042Y-100369985D01*
X62080681Y-100311617D01*
X62099601Y-100307075D01*
X62118501Y-100304081D01*
X61797781Y-99983361D01*
X60735706Y-101045436D01*
X59324322Y-101045436D01*
X58262247Y-99983361D01*
X57200172Y-101045436D01*
X55788788Y-101045436D01*
X54726713Y-99983361D01*
X53664638Y-101045436D01*
X51196604Y-101045436D01*
X51263183Y-100914768D01*
X51273350Y-100898178D01*
X51384373Y-100745367D01*
X51397010Y-100730571D01*
X51530571Y-100597010D01*
X51545367Y-100584373D01*
X51688325Y-100480507D01*
X51191179Y-99983361D01*
X50129104Y-101045436D01*
X48717720Y-101045436D01*
X47655645Y-99983361D01*
X46593570Y-101045436D01*
X45182186Y-101045436D01*
X44120110Y-99983360D01*
X43387945Y-100715526D01*
X41316742Y-100715526D01*
X40584577Y-99983361D01*
X39522503Y-101045436D01*
X38111119Y-101045436D01*
X37049044Y-99983361D01*
X35986969Y-101045436D01*
X34575583Y-101045436D01*
X34575584Y-101045435D01*
X33513509Y-99983360D01*
X33006485Y-100490384D01*
X31311005Y-100490384D01*
X31116273Y-100271313D01*
X31109019Y-100262344D01*
X30896951Y-99973670D01*
X30890565Y-99964072D01*
X30766484Y-99757319D01*
X34698852Y-99757319D01*
X35281277Y-100339744D01*
X36343352Y-99277669D01*
X37754736Y-99277669D01*
X38816810Y-100339743D01*
X39878885Y-99277669D01*
X41290270Y-99277669D01*
X42289838Y-100277237D01*
X42305558Y-100276000D01*
X42416089Y-100276000D01*
X43414419Y-99277669D01*
X44825803Y-99277669D01*
X45887878Y-100339743D01*
X46949953Y-99277669D01*
X48361337Y-99277669D01*
X49423412Y-100339744D01*
X50485487Y-99277669D01*
X51896871Y-99277669D01*
X52958946Y-100339744D01*
X54021021Y-99277669D01*
X55432405Y-99277669D01*
X56494480Y-100339744D01*
X57556555Y-99277669D01*
X58967939Y-99277669D01*
X60030014Y-100339744D01*
X61092089Y-99277669D01*
X62503473Y-99277669D01*
X63565548Y-100339744D01*
X64627623Y-99277669D01*
X66039007Y-99277669D01*
X67101082Y-100339744D01*
X68163157Y-99277669D01*
X69574541Y-99277669D01*
X70636616Y-100339744D01*
X71698691Y-99277669D01*
X73110075Y-99277669D01*
X74172150Y-100339744D01*
X75234225Y-99277669D01*
X76645609Y-99277669D01*
X77707683Y-100339743D01*
X78769758Y-99277669D01*
X80181142Y-99277669D01*
X81243217Y-100339743D01*
X81277681Y-100305279D01*
X82689065Y-100305279D01*
X82700399Y-100307075D01*
X82719319Y-100311617D01*
X82898958Y-100369985D01*
X82916935Y-100377431D01*
X83085232Y-100463183D01*
X83101822Y-100473350D01*
X83254633Y-100584373D01*
X83269429Y-100597010D01*
X83402990Y-100730571D01*
X83415627Y-100745367D01*
X83526650Y-100898178D01*
X83536817Y-100914768D01*
X83622569Y-101083065D01*
X83630015Y-101101042D01*
X83688383Y-101280681D01*
X83692925Y-101299601D01*
X83710148Y-101408346D01*
X84073059Y-101045436D01*
X85484443Y-101045436D01*
X86425659Y-101986652D01*
X86523532Y-101919525D01*
X87300490Y-101341101D01*
X87364789Y-101289238D01*
X87608592Y-101045435D01*
X86546518Y-99983361D01*
X85484443Y-101045436D01*
X84073059Y-101045436D01*
X83010984Y-99983361D01*
X82689065Y-100305279D01*
X81277681Y-100305279D01*
X82305292Y-99277669D01*
X83716676Y-99277669D01*
X84778751Y-100339743D01*
X85840826Y-99277669D01*
X87252210Y-99277669D01*
X88314285Y-100339744D01*
X89376360Y-99277669D01*
X88314285Y-98215594D01*
X87252210Y-99277669D01*
X85840826Y-99277669D01*
X84778751Y-98215594D01*
X83716676Y-99277669D01*
X82305292Y-99277669D01*
X81243217Y-98215594D01*
X80181142Y-99277669D01*
X78769758Y-99277669D01*
X77707683Y-98215594D01*
X76645609Y-99277669D01*
X75234225Y-99277669D01*
X74172150Y-98215594D01*
X73110075Y-99277669D01*
X71698691Y-99277669D01*
X70636616Y-98215594D01*
X69574541Y-99277669D01*
X68163157Y-99277669D01*
X67101082Y-98215594D01*
X66039007Y-99277669D01*
X64627623Y-99277669D01*
X63565548Y-98215594D01*
X62503473Y-99277669D01*
X61092089Y-99277669D01*
X60030014Y-98215594D01*
X58967939Y-99277669D01*
X57556555Y-99277669D01*
X56494480Y-98215594D01*
X55432405Y-99277669D01*
X54021021Y-99277669D01*
X52958946Y-98215594D01*
X51896871Y-99277669D01*
X50485487Y-99277669D01*
X49423412Y-98215594D01*
X48361337Y-99277669D01*
X46949953Y-99277669D01*
X45887878Y-98215594D01*
X44825803Y-99277669D01*
X43414419Y-99277669D01*
X42352344Y-98215594D01*
X41290270Y-99277669D01*
X39878885Y-99277669D01*
X38816810Y-98215594D01*
X37754736Y-99277669D01*
X36343352Y-99277669D01*
X35848625Y-98782942D01*
X35797109Y-98864930D01*
X35789062Y-98876271D01*
X35613989Y-99095804D01*
X35604723Y-99106172D01*
X35406172Y-99304723D01*
X35395804Y-99313989D01*
X35176271Y-99489062D01*
X35164930Y-99497109D01*
X34927175Y-99646500D01*
X34915005Y-99653226D01*
X34698852Y-99757319D01*
X30766484Y-99757319D01*
X30706234Y-99656927D01*
X30700774Y-99646788D01*
X30545782Y-99323840D01*
X30541289Y-99313240D01*
X30416984Y-98977298D01*
X30413489Y-98966308D01*
X30320941Y-98620274D01*
X30318482Y-98609004D01*
X30258489Y-98255857D01*
X30257089Y-98244406D01*
X30231761Y-97908282D01*
X39920883Y-97908282D01*
X40584577Y-98571976D01*
X41597907Y-97558646D01*
X41309888Y-97636326D01*
X41306880Y-97637097D01*
X41285527Y-97642286D01*
X41282477Y-97642987D01*
X40498837Y-97812597D01*
X40495760Y-97813222D01*
X40474173Y-97817325D01*
X40471125Y-97817865D01*
X39920883Y-97908282D01*
X30231761Y-97908282D01*
X30230175Y-97887237D01*
X30229844Y-97875707D01*
X30236237Y-97517551D01*
X30236730Y-97509901D01*
X43058036Y-97509901D01*
X44120111Y-98571976D01*
X45182186Y-97509902D01*
X46593570Y-97509902D01*
X47655645Y-98571977D01*
X48717720Y-97509902D01*
X50129104Y-97509902D01*
X51191179Y-98571977D01*
X52253254Y-97509902D01*
X53664638Y-97509902D01*
X54726713Y-98571977D01*
X55788788Y-97509902D01*
X57200172Y-97509902D01*
X58262247Y-98571977D01*
X59324322Y-97509902D01*
X60735706Y-97509902D01*
X61797781Y-98571977D01*
X62859856Y-97509902D01*
X64271240Y-97509902D01*
X65333315Y-98571977D01*
X66395390Y-97509902D01*
X67806774Y-97509902D01*
X68868849Y-98571977D01*
X69930924Y-97509902D01*
X74877842Y-97509902D01*
X75939916Y-98571976D01*
X77001991Y-97509902D01*
X78413376Y-97509902D01*
X79475450Y-98571976D01*
X80537525Y-97509902D01*
X81948909Y-97509902D01*
X83010984Y-98571976D01*
X84073059Y-97509902D01*
X85484443Y-97509902D01*
X86546518Y-98571977D01*
X87608593Y-97509902D01*
X89019977Y-97509902D01*
X90082052Y-98571977D01*
X91144127Y-97509902D01*
X90082052Y-96447827D01*
X89019977Y-97509902D01*
X87608593Y-97509902D01*
X86546518Y-96447827D01*
X85484443Y-97509902D01*
X84073059Y-97509902D01*
X83010984Y-96447827D01*
X81948909Y-97509902D01*
X80537525Y-97509902D01*
X79475450Y-96447827D01*
X78413376Y-97509902D01*
X77001991Y-97509902D01*
X75939916Y-96447827D01*
X74877842Y-97509902D01*
X69930924Y-97509902D01*
X68868849Y-96447827D01*
X67806774Y-97509902D01*
X66395390Y-97509902D01*
X65333315Y-96447827D01*
X64271240Y-97509902D01*
X62859856Y-97509902D01*
X61797781Y-96447827D01*
X60735706Y-97509902D01*
X59324322Y-97509902D01*
X58262247Y-96447827D01*
X57200172Y-97509902D01*
X55788788Y-97509902D01*
X54726713Y-96447827D01*
X53664638Y-97509902D01*
X52253254Y-97509902D01*
X51191179Y-96447827D01*
X50129104Y-97509902D01*
X48717720Y-97509902D01*
X47655645Y-96447827D01*
X46593570Y-97509902D01*
X45182186Y-97509902D01*
X44275180Y-96602896D01*
X43721623Y-96846313D01*
X43058036Y-97509901D01*
X30236730Y-97509901D01*
X30236976Y-97506078D01*
X30276626Y-97150054D01*
X30278435Y-97138668D01*
X30284589Y-97108919D01*
X30350993Y-96787893D01*
X30353845Y-96776746D01*
X30458695Y-96434203D01*
X30462569Y-96423373D01*
X30599789Y-96089641D01*
X30602092Y-96084392D01*
X30602525Y-96083464D01*
X30602528Y-96083457D01*
X30622903Y-96039797D01*
X30759643Y-95746782D01*
X30805829Y-95694360D01*
X30873028Y-95675227D01*
X30924879Y-95687060D01*
X31141764Y-95789305D01*
X31862857Y-96085922D01*
X32597947Y-96345920D01*
X33345175Y-96568643D01*
X34102654Y-96753527D01*
X34102664Y-96753529D01*
X34527499Y-96834843D01*
X34868468Y-96900105D01*
X35640681Y-97008007D01*
X36417342Y-97076959D01*
X37196486Y-97106788D01*
X37976145Y-97097417D01*
X38754348Y-97048871D01*
X39529127Y-96961273D01*
X40298524Y-96834843D01*
X41060594Y-96669902D01*
X41813410Y-96466866D01*
X42555070Y-96226248D01*
X42793625Y-96135364D01*
X45219032Y-96135364D01*
X45887878Y-96804209D01*
X46949953Y-95742135D01*
X48361337Y-95742135D01*
X49423412Y-96804210D01*
X50485487Y-95742135D01*
X51896871Y-95742135D01*
X52958946Y-96804210D01*
X54021021Y-95742135D01*
X55432405Y-95742135D01*
X56494480Y-96804210D01*
X57556555Y-95742135D01*
X58967939Y-95742135D01*
X60030014Y-96804210D01*
X61092089Y-95742135D01*
X62503473Y-95742135D01*
X63565548Y-96804210D01*
X64627623Y-95742135D01*
X66039007Y-95742135D01*
X67101082Y-96804210D01*
X68163157Y-95742135D01*
X76645609Y-95742135D01*
X77707683Y-96804209D01*
X78769758Y-95742135D01*
X80181142Y-95742135D01*
X81243217Y-96804209D01*
X82305292Y-95742135D01*
X83716676Y-95742135D01*
X84778751Y-96804209D01*
X85840826Y-95742135D01*
X87252210Y-95742135D01*
X88314285Y-96804210D01*
X89376360Y-95742135D01*
X90787744Y-95742135D01*
X91827263Y-96781654D01*
X92034108Y-96514777D01*
X92597321Y-95726800D01*
X92716045Y-95546286D01*
X91849819Y-94680060D01*
X90787744Y-95742135D01*
X89376360Y-95742135D01*
X88314285Y-94680060D01*
X87252210Y-95742135D01*
X85840826Y-95742135D01*
X84778751Y-94680060D01*
X83716676Y-95742135D01*
X82305292Y-95742135D01*
X81243217Y-94680060D01*
X80181142Y-95742135D01*
X78769758Y-95742135D01*
X77707683Y-94680060D01*
X76645609Y-95742135D01*
X68163157Y-95742135D01*
X67101082Y-94680060D01*
X66039007Y-95742135D01*
X64627623Y-95742135D01*
X63565548Y-94680060D01*
X62503473Y-95742135D01*
X61092089Y-95742135D01*
X60030014Y-94680060D01*
X58967939Y-95742135D01*
X57556555Y-95742135D01*
X56494480Y-94680060D01*
X55432405Y-95742135D01*
X54021021Y-95742135D01*
X52958946Y-94680060D01*
X51896871Y-95742135D01*
X50485487Y-95742135D01*
X49423412Y-94680060D01*
X48361337Y-95742135D01*
X46949953Y-95742135D01*
X46546831Y-95339013D01*
X45898362Y-95750224D01*
X45895709Y-95751860D01*
X45876861Y-95763158D01*
X45874166Y-95764727D01*
X45219032Y-96135364D01*
X42793625Y-96135364D01*
X43283698Y-95948657D01*
X43997454Y-95634795D01*
X44694532Y-95285455D01*
X45134684Y-95036442D01*
X45373134Y-94901541D01*
X45373148Y-94901532D01*
X45373170Y-94901520D01*
X45610012Y-94751333D01*
X47370535Y-94751333D01*
X47655645Y-95036443D01*
X48502226Y-94189862D01*
X50344598Y-94189862D01*
X51191179Y-95036443D01*
X52253254Y-93974368D01*
X53664638Y-93974368D01*
X54726713Y-95036443D01*
X55788788Y-93974368D01*
X57200172Y-93974368D01*
X58262247Y-95036443D01*
X59324322Y-93974368D01*
X60735706Y-93974368D01*
X61797781Y-95036443D01*
X62859856Y-93974368D01*
X64271240Y-93974368D01*
X65333315Y-95036443D01*
X66395390Y-93974368D01*
X67806774Y-93974368D01*
X68794087Y-94961681D01*
X68776597Y-94784098D01*
X68776000Y-94771944D01*
X68776000Y-94428056D01*
X68776597Y-94415902D01*
X68810304Y-94073670D01*
X68812090Y-94061633D01*
X68879179Y-93724353D01*
X68882135Y-93712548D01*
X68981961Y-93383468D01*
X68986061Y-93372011D01*
X69083811Y-93136020D01*
X75716188Y-93136020D01*
X75813939Y-93372011D01*
X75818039Y-93383468D01*
X75917865Y-93712548D01*
X75920821Y-93724353D01*
X75987910Y-94061633D01*
X75989696Y-94073670D01*
X76023403Y-94415902D01*
X76024000Y-94428056D01*
X76024000Y-94771944D01*
X76023403Y-94784098D01*
X76004954Y-94971405D01*
X77001991Y-93974368D01*
X78413376Y-93974368D01*
X79475450Y-95036442D01*
X80537525Y-93974368D01*
X81948909Y-93974368D01*
X83010984Y-95036442D01*
X84073059Y-93974368D01*
X85484443Y-93974368D01*
X86546518Y-95036443D01*
X87608593Y-93974368D01*
X89019977Y-93974368D01*
X90082052Y-95036443D01*
X91144127Y-93974368D01*
X92555511Y-93974368D01*
X93268499Y-94687356D01*
X93630135Y-94088129D01*
X94043772Y-93338479D01*
X93617586Y-92912293D01*
X92555511Y-93974368D01*
X91144127Y-93974368D01*
X90082052Y-92912293D01*
X89019977Y-93974368D01*
X87608593Y-93974368D01*
X86546518Y-92912293D01*
X85484443Y-93974368D01*
X84073059Y-93974368D01*
X83010984Y-92912293D01*
X81948909Y-93974368D01*
X80537525Y-93974368D01*
X79475450Y-92912293D01*
X78413376Y-93974368D01*
X77001991Y-93974368D01*
X75939916Y-92912292D01*
X75716188Y-93136020D01*
X69083811Y-93136020D01*
X69086378Y-93129822D01*
X68868849Y-92912293D01*
X67806774Y-93974368D01*
X66395390Y-93974368D01*
X65333315Y-92912293D01*
X64271240Y-93974368D01*
X62859856Y-93974368D01*
X61797781Y-92912293D01*
X60735706Y-93974368D01*
X59324322Y-93974368D01*
X58262247Y-92912293D01*
X57200172Y-93974368D01*
X55788788Y-93974368D01*
X54726713Y-92912293D01*
X53664638Y-93974368D01*
X52253254Y-93974368D01*
X51744890Y-93466004D01*
X51656172Y-93554723D01*
X51645804Y-93563989D01*
X51426271Y-93739062D01*
X51414930Y-93747109D01*
X51177175Y-93896500D01*
X51165005Y-93903226D01*
X50912018Y-94025058D01*
X50899170Y-94030380D01*
X50634133Y-94123120D01*
X50620772Y-94126969D01*
X50347018Y-94189452D01*
X50344598Y-94189862D01*
X48502226Y-94189862D01*
X48717720Y-93974368D01*
X48657336Y-93913984D01*
X48634996Y-93903226D01*
X48622825Y-93896500D01*
X48497155Y-93817536D01*
X47928317Y-94312416D01*
X47925943Y-94314429D01*
X47909008Y-94328431D01*
X47906578Y-94330390D01*
X47370535Y-94751333D01*
X45610012Y-94751333D01*
X46031653Y-94483961D01*
X46668317Y-94033832D01*
X47281551Y-93552273D01*
X47869806Y-93040500D01*
X48299038Y-92627386D01*
X52317656Y-92627386D01*
X52958946Y-93268676D01*
X54021021Y-92206601D01*
X55432405Y-92206601D01*
X56494480Y-93268676D01*
X57556555Y-92206601D01*
X58967939Y-92206601D01*
X60030014Y-93268676D01*
X61092089Y-92206601D01*
X62503473Y-92206601D01*
X63565548Y-93268676D01*
X64627623Y-92206601D01*
X66039007Y-92206601D01*
X67101082Y-93268676D01*
X68163157Y-92206601D01*
X76645609Y-92206601D01*
X77707683Y-93268675D01*
X78769758Y-92206601D01*
X80181142Y-92206601D01*
X81243216Y-93268675D01*
X81754719Y-92757173D01*
X81714768Y-92736817D01*
X81698178Y-92726650D01*
X81545367Y-92615627D01*
X81530571Y-92602990D01*
X81397010Y-92469429D01*
X81384373Y-92454633D01*
X81273350Y-92301822D01*
X81263183Y-92285232D01*
X81223118Y-92206601D01*
X83716676Y-92206601D01*
X84778751Y-93268675D01*
X85840826Y-92206601D01*
X87252210Y-92206601D01*
X88314285Y-93268676D01*
X89376360Y-92206601D01*
X90787744Y-92206601D01*
X91849819Y-93268676D01*
X92208346Y-92910148D01*
X92099601Y-92892925D01*
X92080681Y-92888383D01*
X91901042Y-92830015D01*
X91883065Y-92822569D01*
X91714768Y-92736817D01*
X91698178Y-92726650D01*
X91545367Y-92615627D01*
X91530571Y-92602990D01*
X91397010Y-92469429D01*
X91384373Y-92454633D01*
X91273350Y-92301822D01*
X91263183Y-92285232D01*
X91177431Y-92116935D01*
X91169985Y-92098958D01*
X91111617Y-91919319D01*
X91107075Y-91900399D01*
X91105279Y-91889065D01*
X90787744Y-92206601D01*
X89376360Y-92206601D01*
X88314285Y-91144526D01*
X87252210Y-92206601D01*
X85840826Y-92206601D01*
X84778751Y-91144526D01*
X83716676Y-92206601D01*
X81223118Y-92206601D01*
X81177431Y-92116935D01*
X81169985Y-92098958D01*
X81111617Y-91919319D01*
X81107075Y-91900399D01*
X81077527Y-91713840D01*
X81076000Y-91694442D01*
X81076000Y-91505558D01*
X81077527Y-91486160D01*
X81107075Y-91299601D01*
X81111617Y-91280681D01*
X81113809Y-91273933D01*
X80181142Y-92206601D01*
X78769758Y-92206601D01*
X77707683Y-91144526D01*
X76645609Y-92206601D01*
X68163157Y-92206601D01*
X67101082Y-91144526D01*
X66039007Y-92206601D01*
X64627623Y-92206601D01*
X63565548Y-91144526D01*
X62503473Y-92206601D01*
X61092089Y-92206601D01*
X60030014Y-91144526D01*
X58967939Y-92206601D01*
X57556555Y-92206601D01*
X56494480Y-91144526D01*
X55432405Y-92206601D01*
X54021021Y-92206601D01*
X52958946Y-91144526D01*
X52524000Y-91579472D01*
X52524000Y-91740397D01*
X52523220Y-91754281D01*
X52491781Y-92033309D01*
X52489452Y-92047018D01*
X52426969Y-92320772D01*
X52423120Y-92334133D01*
X52330380Y-92599170D01*
X52325058Y-92612018D01*
X52317656Y-92627386D01*
X48299038Y-92627386D01*
X48431596Y-92499806D01*
X48965498Y-91931560D01*
X49470165Y-91337197D01*
X49944320Y-90718219D01*
X50136854Y-90438834D01*
X53664638Y-90438834D01*
X54726713Y-91500909D01*
X55788788Y-90438834D01*
X57200172Y-90438834D01*
X58262247Y-91500909D01*
X59324322Y-90438834D01*
X60735706Y-90438834D01*
X61797781Y-91500909D01*
X62859856Y-90438834D01*
X64271240Y-90438834D01*
X65333315Y-91500909D01*
X66395390Y-90438834D01*
X67806774Y-90438834D01*
X68868849Y-91500909D01*
X69930924Y-90438834D01*
X71342308Y-90438834D01*
X71910181Y-91006707D01*
X72215902Y-90976597D01*
X72228056Y-90976000D01*
X72571944Y-90976000D01*
X72584098Y-90976597D01*
X72897797Y-91007493D01*
X73466456Y-90438834D01*
X74877842Y-90438834D01*
X75939916Y-91500908D01*
X77001991Y-90438834D01*
X78413376Y-90438834D01*
X79475450Y-91500908D01*
X80537525Y-90438834D01*
X80412499Y-90313808D01*
X82073934Y-90313808D01*
X82080681Y-90311617D01*
X82099601Y-90307075D01*
X82286160Y-90277527D01*
X82305558Y-90276000D01*
X82494442Y-90276000D01*
X82513840Y-90277527D01*
X82700399Y-90307075D01*
X82719319Y-90311617D01*
X82898958Y-90369985D01*
X82916935Y-90377431D01*
X83085232Y-90463183D01*
X83101822Y-90473350D01*
X83254633Y-90584373D01*
X83269429Y-90597010D01*
X83402990Y-90730571D01*
X83415627Y-90745367D01*
X83526650Y-90898178D01*
X83536817Y-90914768D01*
X83557173Y-90954719D01*
X84073057Y-90438834D01*
X85484443Y-90438834D01*
X86546518Y-91500909D01*
X87608593Y-90438834D01*
X89019977Y-90438834D01*
X90082052Y-91500909D01*
X91144127Y-90438834D01*
X91010572Y-90305279D01*
X92689065Y-90305279D01*
X92700399Y-90307075D01*
X92719319Y-90311617D01*
X92898958Y-90369985D01*
X92916935Y-90377431D01*
X93085232Y-90463183D01*
X93101822Y-90473350D01*
X93254633Y-90584373D01*
X93269429Y-90597010D01*
X93402990Y-90730571D01*
X93415627Y-90745367D01*
X93526650Y-90898178D01*
X93536817Y-90914768D01*
X93622569Y-91083065D01*
X93630015Y-91101042D01*
X93688383Y-91280681D01*
X93692925Y-91299601D01*
X93710148Y-91408346D01*
X94679661Y-90438834D01*
X93617586Y-89376759D01*
X92689065Y-90305279D01*
X91010572Y-90305279D01*
X90082052Y-89376759D01*
X89019977Y-90438834D01*
X87608593Y-90438834D01*
X86546518Y-89376759D01*
X85484443Y-90438834D01*
X84073057Y-90438834D01*
X84073058Y-90438833D01*
X83010984Y-89376759D01*
X82073934Y-90313808D01*
X80412499Y-90313808D01*
X79475450Y-89376759D01*
X78413376Y-90438834D01*
X77001991Y-90438834D01*
X75939916Y-89376759D01*
X74877842Y-90438834D01*
X73466456Y-90438834D01*
X73466457Y-90438833D01*
X72404383Y-89376759D01*
X71342308Y-90438834D01*
X69930924Y-90438834D01*
X68868849Y-89376759D01*
X67806774Y-90438834D01*
X66395390Y-90438834D01*
X65333315Y-89376759D01*
X64271240Y-90438834D01*
X62859856Y-90438834D01*
X61797781Y-89376759D01*
X60735706Y-90438834D01*
X59324322Y-90438834D01*
X58262247Y-89376759D01*
X57200172Y-90438834D01*
X55788788Y-90438834D01*
X54726713Y-89376759D01*
X53664638Y-90438834D01*
X50136854Y-90438834D01*
X50386764Y-90076192D01*
X50796380Y-89412738D01*
X51051307Y-88949222D01*
X52175026Y-88949222D01*
X52958946Y-89733142D01*
X54021021Y-88671067D01*
X55432405Y-88671067D01*
X56494480Y-89733142D01*
X57556555Y-88671067D01*
X58967939Y-88671067D01*
X60030014Y-89733142D01*
X61092089Y-88671067D01*
X62503473Y-88671067D01*
X63565548Y-89733142D01*
X64627623Y-88671067D01*
X66039007Y-88671067D01*
X67101082Y-89733142D01*
X68163157Y-88671067D01*
X69574541Y-88671067D01*
X70636616Y-89733142D01*
X71698691Y-88671067D01*
X73110075Y-88671067D01*
X74172150Y-89733142D01*
X75234225Y-88671067D01*
X76645609Y-88671067D01*
X77707683Y-89733141D01*
X78769758Y-88671067D01*
X80181142Y-88671067D01*
X81243217Y-89733141D01*
X82305292Y-88671067D01*
X83716676Y-88671067D01*
X84778751Y-89733141D01*
X85840826Y-88671067D01*
X85840825Y-88671066D01*
X87252209Y-88671066D01*
X88314285Y-89733142D01*
X89376360Y-88671067D01*
X90787744Y-88671067D01*
X91849819Y-89733142D01*
X92911894Y-88671067D01*
X94323278Y-88671067D01*
X95385352Y-89733141D01*
X95724961Y-89393532D01*
X95927053Y-88763253D01*
X96060439Y-88284078D01*
X95385353Y-87608992D01*
X94323278Y-88671067D01*
X92911894Y-88671067D01*
X91849819Y-87608992D01*
X90787744Y-88671067D01*
X89376360Y-88671067D01*
X88406855Y-87701562D01*
X88405996Y-87701769D01*
X88401244Y-87702811D01*
X88372381Y-87708551D01*
X88367593Y-87709406D01*
X88184940Y-87738335D01*
X87252209Y-88671066D01*
X85840825Y-88671066D01*
X84778751Y-87608992D01*
X83716676Y-88671067D01*
X82305292Y-88671067D01*
X81243217Y-87608992D01*
X80181142Y-88671067D01*
X78769758Y-88671067D01*
X77707683Y-87608992D01*
X76645609Y-88671067D01*
X75234225Y-88671067D01*
X74172150Y-87608992D01*
X73110075Y-88671067D01*
X71698691Y-88671067D01*
X70636616Y-87608992D01*
X69574541Y-88671067D01*
X68163157Y-88671067D01*
X67101082Y-87608992D01*
X66039007Y-88671067D01*
X64627623Y-88671067D01*
X63565548Y-87608992D01*
X62503473Y-88671067D01*
X61092089Y-88671067D01*
X60030014Y-87608992D01*
X58967939Y-88671067D01*
X57556555Y-88671067D01*
X56494480Y-87608992D01*
X55432405Y-88671067D01*
X54021021Y-88671067D01*
X52958945Y-87608991D01*
X52640604Y-87927332D01*
X52427070Y-88429219D01*
X52425803Y-88432096D01*
X52416690Y-88452092D01*
X52415373Y-88454889D01*
X52175026Y-88949222D01*
X51051307Y-88949222D01*
X51172132Y-88729535D01*
X51513069Y-88028309D01*
X51818331Y-87310833D01*
X51968008Y-86903300D01*
X53664638Y-86903300D01*
X54726713Y-87965375D01*
X55788787Y-86903300D01*
X57200172Y-86903300D01*
X58262247Y-87965375D01*
X59324321Y-86903300D01*
X64271240Y-86903300D01*
X65333315Y-87965375D01*
X66395389Y-86903300D01*
X67806774Y-86903300D01*
X68868849Y-87965375D01*
X69930923Y-86903300D01*
X71342308Y-86903300D01*
X72404383Y-87965375D01*
X73466457Y-86903300D01*
X74877842Y-86903300D01*
X75939916Y-87965374D01*
X77001991Y-86903300D01*
X78413376Y-86903300D01*
X79475450Y-87965374D01*
X80537525Y-86903300D01*
X81948909Y-86903300D01*
X83010984Y-87965374D01*
X84073058Y-86903300D01*
X84073057Y-86903299D01*
X85484442Y-86903299D01*
X86546517Y-87965374D01*
X86942974Y-87568917D01*
X86926537Y-87561340D01*
X86922154Y-87559214D01*
X86697890Y-87444944D01*
X86693595Y-87442648D01*
X86667883Y-87428248D01*
X86663681Y-87425785D01*
X86630260Y-87405303D01*
X86626159Y-87402678D01*
X86601682Y-87386322D01*
X86597691Y-87383541D01*
X86397338Y-87237978D01*
X89354655Y-87237978D01*
X90082052Y-87965375D01*
X91144126Y-86903300D01*
X92555511Y-86903300D01*
X93617586Y-87965375D01*
X94679660Y-86903300D01*
X93617586Y-85841225D01*
X92555511Y-86903300D01*
X91144126Y-86903300D01*
X90170015Y-85929189D01*
X90168811Y-85935244D01*
X90167769Y-85939996D01*
X90158621Y-85978113D01*
X90157391Y-85982829D01*
X90149389Y-86011206D01*
X90147974Y-86015870D01*
X90070191Y-86255263D01*
X90068595Y-86259864D01*
X90058396Y-86287509D01*
X90056621Y-86292045D01*
X90041619Y-86328261D01*
X90039669Y-86332719D01*
X90027340Y-86359463D01*
X90025215Y-86363845D01*
X89910950Y-86588100D01*
X89908654Y-86592394D01*
X89894264Y-86618089D01*
X89891803Y-86622289D01*
X89871321Y-86655713D01*
X89868695Y-86659815D01*
X89852326Y-86684313D01*
X89849542Y-86688308D01*
X89668343Y-86937705D01*
X89628614Y-86973009D01*
X89507074Y-87041074D01*
X89439009Y-87162614D01*
X89403704Y-87202343D01*
X89354655Y-87237978D01*
X86397338Y-87237978D01*
X86348301Y-87202351D01*
X86312997Y-87162622D01*
X86244924Y-87041072D01*
X86123376Y-86973001D01*
X86083647Y-86937697D01*
X85902458Y-86688308D01*
X85899676Y-86684316D01*
X85883321Y-86659840D01*
X85880697Y-86655740D01*
X85860215Y-86622319D01*
X85857752Y-86618117D01*
X85843352Y-86592405D01*
X85841056Y-86588110D01*
X85827073Y-86560668D01*
X85484442Y-86903299D01*
X84073057Y-86903299D01*
X83010984Y-85841225D01*
X81948909Y-86903300D01*
X80537525Y-86903300D01*
X79475450Y-85841225D01*
X78413376Y-86903300D01*
X77001991Y-86903300D01*
X75939916Y-85841225D01*
X74877842Y-86903300D01*
X73466457Y-86903300D01*
X72404383Y-85841225D01*
X71342308Y-86903300D01*
X69930923Y-86903300D01*
X68868849Y-85841225D01*
X67806774Y-86903300D01*
X66395389Y-86903300D01*
X65333315Y-85841225D01*
X64271240Y-86903300D01*
X59324321Y-86903300D01*
X58262247Y-85841225D01*
X57200172Y-86903300D01*
X55788787Y-86903300D01*
X54726713Y-85841225D01*
X53664638Y-86903300D01*
X51968008Y-86903300D01*
X52087145Y-86578921D01*
X52318832Y-85834423D01*
X52498342Y-85135533D01*
X55432405Y-85135533D01*
X56494480Y-86197608D01*
X57556554Y-85135533D01*
X58967939Y-85135533D01*
X60030014Y-86197608D01*
X61092088Y-85135533D01*
X62503473Y-85135533D01*
X62670237Y-85302297D01*
X62700399Y-85307075D01*
X62719319Y-85311617D01*
X62898958Y-85369985D01*
X62916935Y-85377431D01*
X63085232Y-85463183D01*
X63101822Y-85473350D01*
X63254633Y-85584373D01*
X63269429Y-85597010D01*
X63402990Y-85730571D01*
X63415627Y-85745367D01*
X63526650Y-85898178D01*
X63536817Y-85914768D01*
X63622569Y-86083065D01*
X63630015Y-86101042D01*
X63637886Y-86125268D01*
X64627621Y-85135533D01*
X66039007Y-85135533D01*
X67101082Y-86197608D01*
X68163156Y-85135533D01*
X69574541Y-85135533D01*
X70636616Y-86197608D01*
X71698690Y-85135533D01*
X73110075Y-85135533D01*
X74172150Y-86197608D01*
X75234224Y-85135533D01*
X76645609Y-85135533D01*
X77707683Y-86197607D01*
X78769758Y-85135533D01*
X80181142Y-85135533D01*
X81243217Y-86197607D01*
X82305291Y-85135533D01*
X83716676Y-85135533D01*
X84778751Y-86197607D01*
X85528000Y-85448359D01*
X85528000Y-85284143D01*
X85528096Y-85279271D01*
X85529254Y-85249819D01*
X85529541Y-85244954D01*
X85532619Y-85205875D01*
X85533095Y-85201038D01*
X85536555Y-85171804D01*
X85537223Y-85166980D01*
X85576594Y-84918407D01*
X85577449Y-84913619D01*
X85583189Y-84884756D01*
X85584231Y-84880004D01*
X85584437Y-84879145D01*
X84778751Y-84073459D01*
X83716676Y-85135533D01*
X82305291Y-85135533D01*
X81243217Y-84073458D01*
X80181142Y-85135533D01*
X78769758Y-85135533D01*
X77707683Y-84073458D01*
X76645609Y-85135533D01*
X75234224Y-85135533D01*
X74172150Y-84073458D01*
X73110075Y-85135533D01*
X71698690Y-85135533D01*
X70636616Y-84073458D01*
X69574541Y-85135533D01*
X68163156Y-85135533D01*
X67101082Y-84073458D01*
X66039007Y-85135533D01*
X64627621Y-85135533D01*
X64627622Y-85135532D01*
X63565548Y-84073458D01*
X62503473Y-85135533D01*
X61092088Y-85135533D01*
X60030014Y-84073458D01*
X58967939Y-85135533D01*
X57556554Y-85135533D01*
X56494480Y-84073458D01*
X55432405Y-85135533D01*
X52498342Y-85135533D01*
X52512806Y-85079221D01*
X52668577Y-84315224D01*
X52785751Y-83544363D01*
X52790556Y-83496750D01*
X53793622Y-83496750D01*
X54726713Y-84429841D01*
X55788787Y-83367766D01*
X57200172Y-83367766D01*
X58262247Y-84429841D01*
X59324321Y-83367766D01*
X60735706Y-83367766D01*
X61797781Y-84429841D01*
X62859855Y-83367766D01*
X64271240Y-83367766D01*
X65333315Y-84429841D01*
X66395389Y-83367766D01*
X67806774Y-83367766D01*
X68868849Y-84429841D01*
X69930923Y-83367766D01*
X71342308Y-83367766D01*
X72404383Y-84429841D01*
X73466457Y-83367766D01*
X74877842Y-83367766D01*
X75939916Y-84429840D01*
X77001991Y-83367766D01*
X78413376Y-83367766D01*
X79475450Y-84429840D01*
X80537525Y-83367766D01*
X81948909Y-83367766D01*
X83010984Y-84429840D01*
X84073058Y-83367766D01*
X83010984Y-82305691D01*
X81948909Y-83367766D01*
X80537525Y-83367766D01*
X79475450Y-82305691D01*
X78413376Y-83367766D01*
X77001991Y-83367766D01*
X75939916Y-82305691D01*
X74877842Y-83367766D01*
X73466457Y-83367766D01*
X72404383Y-82305691D01*
X71342308Y-83367766D01*
X69930923Y-83367766D01*
X68868849Y-82305691D01*
X67806774Y-83367766D01*
X66395389Y-83367766D01*
X65333315Y-82305691D01*
X64271240Y-83367766D01*
X62859855Y-83367766D01*
X61797781Y-82305691D01*
X60735706Y-83367766D01*
X59324321Y-83367766D01*
X58262247Y-82305691D01*
X57200172Y-83367766D01*
X55788787Y-83367766D01*
X54726712Y-82305691D01*
X53822574Y-83209828D01*
X53793622Y-83496750D01*
X52790556Y-83496750D01*
X52833201Y-83074125D01*
X52864032Y-82768588D01*
X52870916Y-82631804D01*
X52903222Y-81989870D01*
X52903222Y-81599999D01*
X55432405Y-81599999D01*
X56494480Y-82662074D01*
X57556554Y-81599999D01*
X58967939Y-81599999D01*
X60030014Y-82662074D01*
X61092088Y-81599999D01*
X62503473Y-81599999D01*
X63565548Y-82662074D01*
X64627622Y-81599999D01*
X66039007Y-81599999D01*
X67101082Y-82662074D01*
X68163156Y-81599999D01*
X69574541Y-81599999D01*
X70636616Y-82662074D01*
X71698690Y-81599999D01*
X73110075Y-81599999D01*
X74172150Y-82662074D01*
X75234224Y-81599999D01*
X76645609Y-81599999D01*
X77707683Y-82662074D01*
X78769758Y-81599999D01*
X80181142Y-81599999D01*
X81243217Y-82662074D01*
X82305291Y-81599999D01*
X83716676Y-81599999D01*
X84778751Y-82662074D01*
X85840825Y-81599999D01*
X84778751Y-80537925D01*
X83716676Y-81599999D01*
X82305291Y-81599999D01*
X81243217Y-80537925D01*
X80181142Y-81599999D01*
X78769758Y-81599999D01*
X77707683Y-80537925D01*
X76645609Y-81599999D01*
X75234224Y-81599999D01*
X74172150Y-80537925D01*
X73110075Y-81599999D01*
X71698690Y-81599999D01*
X70636616Y-80537925D01*
X69574541Y-81599999D01*
X68163156Y-81599999D01*
X67101082Y-80537925D01*
X66039007Y-81599999D01*
X64627622Y-81599999D01*
X63565548Y-80537925D01*
X62503473Y-81599999D01*
X61092088Y-81599999D01*
X60030014Y-80537925D01*
X58967939Y-81599999D01*
X57556554Y-81599999D01*
X56494480Y-80537925D01*
X55432405Y-81599999D01*
X52903222Y-81599999D01*
X52903222Y-81210129D01*
X52864032Y-80431411D01*
X52864030Y-80431384D01*
X52790555Y-79703247D01*
X53793622Y-79703247D01*
X53822574Y-79990169D01*
X54726712Y-80894307D01*
X55788787Y-79832232D01*
X57200172Y-79832232D01*
X58262247Y-80894307D01*
X59324321Y-79832232D01*
X60735706Y-79832232D01*
X61797781Y-80894307D01*
X62859855Y-79832232D01*
X64271240Y-79832232D01*
X65333315Y-80894307D01*
X66395389Y-79832232D01*
X67806774Y-79832232D01*
X68868849Y-80894307D01*
X69930923Y-79832232D01*
X71342308Y-79832232D01*
X72404383Y-80894307D01*
X73466457Y-79832232D01*
X74877842Y-79832232D01*
X75939916Y-80894307D01*
X77001991Y-79832232D01*
X78413376Y-79832232D01*
X79475450Y-80894307D01*
X80537525Y-79832232D01*
X81948909Y-79832232D01*
X83010984Y-80894307D01*
X84073058Y-79832232D01*
X83010984Y-78770158D01*
X81948909Y-79832232D01*
X80537525Y-79832232D01*
X79475450Y-78770158D01*
X78413376Y-79832232D01*
X77001991Y-79832232D01*
X75939916Y-78770158D01*
X74877842Y-79832232D01*
X73466457Y-79832232D01*
X72404383Y-78770158D01*
X71342308Y-79832232D01*
X69930923Y-79832232D01*
X68868849Y-78770158D01*
X67806774Y-79832232D01*
X66395389Y-79832232D01*
X65333315Y-78770158D01*
X64271240Y-79832232D01*
X62859855Y-79832232D01*
X61797781Y-78770158D01*
X60735706Y-79832232D01*
X59324321Y-79832232D01*
X58262247Y-78770158D01*
X57200172Y-79832232D01*
X55788787Y-79832232D01*
X54726712Y-78770157D01*
X53793622Y-79703247D01*
X52790555Y-79703247D01*
X52785754Y-79655664D01*
X52785751Y-79655638D01*
X52774686Y-79582842D01*
X52668577Y-78884776D01*
X52645207Y-78770157D01*
X52512811Y-78120803D01*
X52512810Y-78120799D01*
X52512806Y-78120779D01*
X52498342Y-78064465D01*
X55432405Y-78064465D01*
X56494480Y-79126540D01*
X57556554Y-78064465D01*
X58967939Y-78064465D01*
X60030014Y-79126540D01*
X61092088Y-78064465D01*
X62503472Y-78064465D01*
X63565548Y-79126540D01*
X64627622Y-78064465D01*
X66039007Y-78064465D01*
X67101082Y-79126540D01*
X68163156Y-78064465D01*
X69574541Y-78064465D01*
X70636616Y-79126540D01*
X71698690Y-78064465D01*
X73110075Y-78064465D01*
X74172150Y-79126540D01*
X75234224Y-78064465D01*
X76645609Y-78064465D01*
X77707683Y-79126540D01*
X78769758Y-78064465D01*
X80181142Y-78064465D01*
X81243217Y-79126540D01*
X82305291Y-78064465D01*
X83716676Y-78064465D01*
X84778751Y-79126540D01*
X85528000Y-78377291D01*
X85528000Y-77839454D01*
X85537439Y-77792002D01*
X85538268Y-77790000D01*
X85537439Y-77787998D01*
X85530754Y-77754394D01*
X84778751Y-77002391D01*
X83716676Y-78064465D01*
X82305291Y-78064465D01*
X81243217Y-77002391D01*
X80181142Y-78064465D01*
X78769758Y-78064465D01*
X77707683Y-77002391D01*
X76645609Y-78064465D01*
X75234224Y-78064465D01*
X74172150Y-77002391D01*
X73110075Y-78064465D01*
X71698690Y-78064465D01*
X70636616Y-77002391D01*
X69574541Y-78064465D01*
X68163156Y-78064465D01*
X67101082Y-77002391D01*
X66039007Y-78064465D01*
X64627622Y-78064465D01*
X63637887Y-77074730D01*
X63630015Y-77098958D01*
X63622569Y-77116935D01*
X63536817Y-77285232D01*
X63526650Y-77301822D01*
X63415627Y-77454633D01*
X63402990Y-77469429D01*
X63269429Y-77602990D01*
X63254633Y-77615627D01*
X63101822Y-77726650D01*
X63085232Y-77736817D01*
X62916935Y-77822569D01*
X62898958Y-77830015D01*
X62719319Y-77888383D01*
X62700397Y-77892926D01*
X62670235Y-77897702D01*
X62503472Y-78064465D01*
X61092088Y-78064465D01*
X60030014Y-77002391D01*
X58967939Y-78064465D01*
X57556554Y-78064465D01*
X56494480Y-77002391D01*
X55432405Y-78064465D01*
X52498342Y-78064465D01*
X52318832Y-77365577D01*
X52111056Y-76697913D01*
X52087147Y-76621085D01*
X52087145Y-76621079D01*
X51968008Y-76296699D01*
X53664638Y-76296699D01*
X54726713Y-77358774D01*
X55788788Y-76296699D01*
X57200172Y-76296699D01*
X58262247Y-77358774D01*
X59324322Y-76296699D01*
X64271240Y-76296699D01*
X65333315Y-77358774D01*
X66395390Y-76296699D01*
X67806774Y-76296699D01*
X68868849Y-77358774D01*
X69930924Y-76296699D01*
X71342308Y-76296699D01*
X72404383Y-77358774D01*
X73466458Y-76296699D01*
X74877842Y-76296699D01*
X75939916Y-77358773D01*
X77001991Y-76296699D01*
X78413376Y-76296699D01*
X79475450Y-77358773D01*
X80537525Y-76296699D01*
X81948909Y-76296699D01*
X83010984Y-77358773D01*
X83477602Y-76892155D01*
X86526000Y-76892155D01*
X86526000Y-77540000D01*
X87442988Y-77540000D01*
X87410075Y-77597007D01*
X87376000Y-77724174D01*
X87376000Y-77855826D01*
X87410075Y-77982993D01*
X87442988Y-78040000D01*
X86526000Y-78040000D01*
X86526000Y-78687844D01*
X86532401Y-78747372D01*
X86532403Y-78747379D01*
X86582645Y-78882086D01*
X86582649Y-78882093D01*
X86668809Y-78997187D01*
X86668812Y-78997190D01*
X86783906Y-79083350D01*
X86783913Y-79083354D01*
X86918620Y-79133596D01*
X86918619Y-79133596D01*
X87001444Y-79142501D01*
X87001116Y-79145550D01*
X87018014Y-79144642D01*
X87077196Y-79177642D01*
X87746591Y-79847037D01*
X87683007Y-79864075D01*
X87568993Y-79929901D01*
X87475901Y-80022993D01*
X87410075Y-80137007D01*
X87393037Y-80200591D01*
X86760728Y-79568282D01*
X86760727Y-79568282D01*
X86721380Y-79622439D01*
X86624904Y-79811782D01*
X86559242Y-80013869D01*
X86559242Y-80013872D01*
X86526000Y-80223753D01*
X86526000Y-80436246D01*
X86559242Y-80646127D01*
X86559242Y-80646130D01*
X86624904Y-80848217D01*
X86721375Y-81037550D01*
X86760728Y-81091716D01*
X87393037Y-80459408D01*
X87410075Y-80522993D01*
X87475901Y-80637007D01*
X87568993Y-80730099D01*
X87683007Y-80795925D01*
X87746590Y-80812962D01*
X87114282Y-81445269D01*
X87114282Y-81445270D01*
X87168452Y-81484626D01*
X87178048Y-81489516D01*
X87228844Y-81537491D01*
X87245638Y-81605312D01*
X87223100Y-81671447D01*
X87178051Y-81710483D01*
X87168440Y-81715380D01*
X87114282Y-81754727D01*
X87114282Y-81754728D01*
X87746591Y-82387037D01*
X87683007Y-82404075D01*
X87568993Y-82469901D01*
X87475901Y-82562993D01*
X87410075Y-82677007D01*
X87393037Y-82740591D01*
X86760728Y-82108282D01*
X86760727Y-82108282D01*
X86721380Y-82162439D01*
X86624904Y-82351782D01*
X86559242Y-82553869D01*
X86559242Y-82553872D01*
X86526000Y-82763753D01*
X86526000Y-82976246D01*
X86559242Y-83186127D01*
X86559242Y-83186130D01*
X86624904Y-83388217D01*
X86721375Y-83577550D01*
X86760728Y-83631716D01*
X87393037Y-82999408D01*
X87410075Y-83062993D01*
X87475901Y-83177007D01*
X87568993Y-83270099D01*
X87683007Y-83335925D01*
X87746590Y-83352962D01*
X87114282Y-83985269D01*
X87114282Y-83985270D01*
X87168452Y-84024626D01*
X87178048Y-84029516D01*
X87228844Y-84077491D01*
X87245638Y-84145312D01*
X87223100Y-84211447D01*
X87178051Y-84250483D01*
X87168440Y-84255380D01*
X87114282Y-84294727D01*
X87114282Y-84294728D01*
X87746591Y-84927037D01*
X87683007Y-84944075D01*
X87568993Y-85009901D01*
X87475901Y-85102993D01*
X87410075Y-85217007D01*
X87393037Y-85280591D01*
X86760728Y-84648282D01*
X86760727Y-84648282D01*
X86721380Y-84702439D01*
X86624904Y-84891782D01*
X86559242Y-85093869D01*
X86559242Y-85093872D01*
X86526000Y-85303753D01*
X86526000Y-85516246D01*
X86559242Y-85726127D01*
X86559242Y-85726130D01*
X86624904Y-85928217D01*
X86721375Y-86117550D01*
X86760728Y-86171716D01*
X87393037Y-85539408D01*
X87410075Y-85602993D01*
X87475901Y-85717007D01*
X87568993Y-85810099D01*
X87683007Y-85875925D01*
X87746590Y-85892962D01*
X87114282Y-86525269D01*
X87114282Y-86525270D01*
X87168449Y-86564624D01*
X87357782Y-86661095D01*
X87559870Y-86726757D01*
X87769754Y-86760000D01*
X87982246Y-86760000D01*
X88192127Y-86726757D01*
X88192130Y-86726757D01*
X88394217Y-86661095D01*
X88583554Y-86564622D01*
X88637716Y-86525270D01*
X88637717Y-86525270D01*
X88005408Y-85892962D01*
X88068993Y-85875925D01*
X88183007Y-85810099D01*
X88276099Y-85717007D01*
X88341925Y-85602993D01*
X88358962Y-85539408D01*
X88991270Y-86171717D01*
X88991270Y-86171716D01*
X89030622Y-86117554D01*
X89127095Y-85928217D01*
X89192757Y-85726130D01*
X89192757Y-85726127D01*
X89226000Y-85516246D01*
X89226000Y-85303753D01*
X89199356Y-85135533D01*
X90787744Y-85135533D01*
X91849819Y-86197608D01*
X92911893Y-85135533D01*
X94323278Y-85135533D01*
X95385353Y-86197608D01*
X96447427Y-85135533D01*
X95385353Y-84073458D01*
X94323278Y-85135533D01*
X92911893Y-85135533D01*
X91849819Y-84073458D01*
X90787744Y-85135533D01*
X89199356Y-85135533D01*
X89192757Y-85093872D01*
X89192757Y-85093869D01*
X89127095Y-84891782D01*
X89030624Y-84702449D01*
X88991270Y-84648282D01*
X88991269Y-84648282D01*
X88358962Y-85280590D01*
X88341925Y-85217007D01*
X88276099Y-85102993D01*
X88183007Y-85009901D01*
X88068993Y-84944075D01*
X88005409Y-84927037D01*
X88637716Y-84294728D01*
X88583550Y-84255375D01*
X88573954Y-84250486D01*
X88523157Y-84202512D01*
X88507676Y-84140000D01*
X89855207Y-84140000D01*
X89868678Y-84160159D01*
X89871303Y-84164260D01*
X89891785Y-84197681D01*
X89894248Y-84201883D01*
X89908648Y-84227595D01*
X89910944Y-84231891D01*
X89938829Y-84286618D01*
X90082052Y-84429841D01*
X91144126Y-83367766D01*
X92555511Y-83367766D01*
X93617586Y-84429841D01*
X94679660Y-83367766D01*
X96091045Y-83367766D01*
X96846669Y-84123390D01*
X96858994Y-84017948D01*
X96934053Y-83052256D01*
X96955349Y-82503461D01*
X96091045Y-83367766D01*
X94679660Y-83367766D01*
X93617586Y-82305691D01*
X92555511Y-83367766D01*
X91144126Y-83367766D01*
X90179290Y-82402930D01*
X90214777Y-82626980D01*
X90215445Y-82631804D01*
X90218905Y-82661038D01*
X90219381Y-82665875D01*
X90222459Y-82704954D01*
X90222746Y-82709819D01*
X90223904Y-82739271D01*
X90224000Y-82744143D01*
X90224000Y-82995857D01*
X90223904Y-83000729D01*
X90222746Y-83030181D01*
X90222459Y-83035046D01*
X90219381Y-83074125D01*
X90218905Y-83078962D01*
X90215445Y-83108196D01*
X90214777Y-83113020D01*
X90175406Y-83361593D01*
X90174551Y-83366381D01*
X90168811Y-83395244D01*
X90167769Y-83399996D01*
X90158621Y-83438113D01*
X90157391Y-83442829D01*
X90149389Y-83471206D01*
X90147974Y-83475870D01*
X90070191Y-83715263D01*
X90068595Y-83719864D01*
X90058396Y-83747509D01*
X90056621Y-83752045D01*
X90041619Y-83788261D01*
X90039669Y-83792719D01*
X90027340Y-83819463D01*
X90025215Y-83823845D01*
X89910950Y-84048100D01*
X89908654Y-84052394D01*
X89894264Y-84078089D01*
X89891803Y-84082289D01*
X89871321Y-84115713D01*
X89868695Y-84119815D01*
X89855207Y-84140000D01*
X88507676Y-84140000D01*
X88506361Y-84134692D01*
X88528897Y-84068556D01*
X88573954Y-84029514D01*
X88583554Y-84024622D01*
X88637716Y-83985270D01*
X88637717Y-83985270D01*
X88005408Y-83352962D01*
X88068993Y-83335925D01*
X88183007Y-83270099D01*
X88276099Y-83177007D01*
X88341925Y-83062993D01*
X88358962Y-82999408D01*
X88991270Y-83631717D01*
X88991270Y-83631716D01*
X89030622Y-83577554D01*
X89127095Y-83388217D01*
X89192757Y-83186130D01*
X89192757Y-83186127D01*
X89226000Y-82976246D01*
X89226000Y-82763753D01*
X89192757Y-82553872D01*
X89192757Y-82553869D01*
X89127095Y-82351782D01*
X89030624Y-82162449D01*
X88991270Y-82108282D01*
X88991269Y-82108282D01*
X88358962Y-82740590D01*
X88341925Y-82677007D01*
X88276099Y-82562993D01*
X88183007Y-82469901D01*
X88068993Y-82404075D01*
X88005409Y-82387037D01*
X88637716Y-81754728D01*
X88583550Y-81715375D01*
X88573954Y-81710486D01*
X88523157Y-81662512D01*
X88507675Y-81599999D01*
X90787744Y-81599999D01*
X91849819Y-82662074D01*
X92911893Y-81599999D01*
X91849819Y-80537925D01*
X90787744Y-81599999D01*
X88507675Y-81599999D01*
X88506361Y-81594692D01*
X88528897Y-81528556D01*
X88573954Y-81489514D01*
X88583554Y-81484622D01*
X88637716Y-81445270D01*
X88637717Y-81445270D01*
X88005408Y-80812962D01*
X88068993Y-80795925D01*
X88183007Y-80730099D01*
X88276099Y-80637007D01*
X88341925Y-80522993D01*
X88358962Y-80459408D01*
X88991270Y-81091717D01*
X88991270Y-81091716D01*
X89030622Y-81037554D01*
X89127095Y-80848217D01*
X89192757Y-80646130D01*
X89192757Y-80646127D01*
X89226000Y-80436246D01*
X89226000Y-80223753D01*
X89192757Y-80013872D01*
X89192757Y-80013869D01*
X89127095Y-79811782D01*
X89030624Y-79622449D01*
X88991270Y-79568282D01*
X88991269Y-79568282D01*
X88358962Y-80200590D01*
X88341925Y-80137007D01*
X88276099Y-80022993D01*
X88183007Y-79929901D01*
X88068993Y-79864075D01*
X88005409Y-79847037D01*
X88465027Y-79387418D01*
X90030512Y-79387418D01*
X90039669Y-79407281D01*
X90041619Y-79411739D01*
X90056621Y-79447955D01*
X90058396Y-79452491D01*
X90068595Y-79480136D01*
X90070191Y-79484737D01*
X90147974Y-79724130D01*
X90149389Y-79728794D01*
X90157391Y-79757171D01*
X90158621Y-79761887D01*
X90167769Y-79800004D01*
X90168811Y-79804756D01*
X90174551Y-79833619D01*
X90175406Y-79838407D01*
X90214777Y-80086980D01*
X90215445Y-80091804D01*
X90218905Y-80121038D01*
X90219381Y-80125875D01*
X90222459Y-80164954D01*
X90222746Y-80169819D01*
X90223904Y-80199271D01*
X90224000Y-80204143D01*
X90224000Y-80455857D01*
X90223904Y-80460729D01*
X90222746Y-80490181D01*
X90222459Y-80495046D01*
X90219381Y-80534125D01*
X90218905Y-80538962D01*
X90215445Y-80568196D01*
X90214777Y-80573020D01*
X90179290Y-80797068D01*
X91144126Y-79832232D01*
X92555511Y-79832232D01*
X93617586Y-80894307D01*
X94679660Y-79832232D01*
X96091044Y-79832232D01*
X96955349Y-80696537D01*
X96934053Y-80147741D01*
X96858994Y-79182049D01*
X96846669Y-79076607D01*
X96091044Y-79832232D01*
X94679660Y-79832232D01*
X93617586Y-78770158D01*
X92555511Y-79832232D01*
X91144126Y-79832232D01*
X90207061Y-78895167D01*
X90199572Y-78938916D01*
X90198028Y-78946501D01*
X90183685Y-79007212D01*
X90181668Y-79014695D01*
X90168058Y-79059564D01*
X90165579Y-79066904D01*
X90091970Y-79264261D01*
X90088581Y-79272441D01*
X90066323Y-79321177D01*
X90062362Y-79329091D01*
X90030512Y-79387418D01*
X88465027Y-79387418D01*
X88674802Y-79177642D01*
X88736125Y-79144157D01*
X88750833Y-79145078D01*
X88750556Y-79142501D01*
X88833375Y-79133598D01*
X88968086Y-79083354D01*
X88968093Y-79083350D01*
X89083187Y-78997190D01*
X89083190Y-78997187D01*
X89169350Y-78882093D01*
X89169354Y-78882086D01*
X89219596Y-78747379D01*
X89219598Y-78747372D01*
X89225999Y-78687844D01*
X89226000Y-78687827D01*
X89226000Y-78064465D01*
X90787744Y-78064465D01*
X91849819Y-79126540D01*
X92911893Y-78064465D01*
X94323278Y-78064465D01*
X95385353Y-79126540D01*
X96447427Y-78064465D01*
X95385353Y-77002391D01*
X94323278Y-78064465D01*
X92911893Y-78064465D01*
X91849819Y-77002391D01*
X90787744Y-78064465D01*
X89226000Y-78064465D01*
X89226000Y-78040000D01*
X88309012Y-78040000D01*
X88341925Y-77982993D01*
X88376000Y-77855826D01*
X88376000Y-77724174D01*
X88341925Y-77597007D01*
X88309012Y-77540000D01*
X89226000Y-77540000D01*
X89226000Y-76892172D01*
X89225999Y-76892155D01*
X89219598Y-76832627D01*
X89219596Y-76832620D01*
X89169354Y-76697913D01*
X89169350Y-76697906D01*
X89083190Y-76582812D01*
X89083187Y-76582809D01*
X88968093Y-76496649D01*
X88968086Y-76496645D01*
X88833379Y-76446403D01*
X88833372Y-76446401D01*
X88773844Y-76440000D01*
X88126000Y-76440000D01*
X88126000Y-77356988D01*
X88068993Y-77324075D01*
X87941826Y-77290000D01*
X87810174Y-77290000D01*
X87683007Y-77324075D01*
X87626000Y-77356988D01*
X87626000Y-76440000D01*
X86978155Y-76440000D01*
X86918627Y-76446401D01*
X86918620Y-76446403D01*
X86783913Y-76496645D01*
X86783906Y-76496649D01*
X86668812Y-76582809D01*
X86668809Y-76582812D01*
X86582649Y-76697906D01*
X86582645Y-76697913D01*
X86532403Y-76832620D01*
X86532401Y-76832627D01*
X86526000Y-76892155D01*
X83477602Y-76892155D01*
X84073059Y-76296699D01*
X83496671Y-75720311D01*
X89596363Y-75720311D01*
X89709816Y-75805243D01*
X89716707Y-75810796D01*
X89757192Y-75845876D01*
X89763671Y-75851908D01*
X89814092Y-75902329D01*
X89820124Y-75908808D01*
X89855204Y-75949293D01*
X89860757Y-75956184D01*
X89989655Y-76128368D01*
X89994703Y-76135638D01*
X90023667Y-76180705D01*
X90028185Y-76188319D01*
X90062362Y-76250909D01*
X90066323Y-76258823D01*
X90088581Y-76307559D01*
X90091970Y-76315739D01*
X90165579Y-76513096D01*
X90168058Y-76520436D01*
X90181668Y-76565305D01*
X90183685Y-76572788D01*
X90198028Y-76633499D01*
X90199572Y-76641084D01*
X90207478Y-76687262D01*
X90208545Y-76694931D01*
X90219711Y-76798783D01*
X90220023Y-76802095D01*
X90221636Y-76822144D01*
X90221858Y-76825458D01*
X90223287Y-76852145D01*
X90223420Y-76855461D01*
X90223956Y-76875509D01*
X90224000Y-76878823D01*
X90224000Y-77216826D01*
X91144127Y-76296699D01*
X92555511Y-76296699D01*
X93617586Y-77358774D01*
X94679661Y-76296699D01*
X93617586Y-75234624D01*
X92555511Y-76296699D01*
X91144127Y-76296699D01*
X90082051Y-75234623D01*
X89596363Y-75720311D01*
X83496671Y-75720311D01*
X83010984Y-75234624D01*
X81948909Y-76296699D01*
X80537525Y-76296699D01*
X79475450Y-75234624D01*
X78413376Y-76296699D01*
X77001991Y-76296699D01*
X75939916Y-75234624D01*
X74877842Y-76296699D01*
X73466458Y-76296699D01*
X72404383Y-75234624D01*
X71342308Y-76296699D01*
X69930924Y-76296699D01*
X68868849Y-75234624D01*
X67806774Y-76296699D01*
X66395390Y-76296699D01*
X65333315Y-75234624D01*
X64271240Y-76296699D01*
X59324322Y-76296699D01*
X58262247Y-75234624D01*
X57200172Y-76296699D01*
X55788788Y-76296699D01*
X54726713Y-75234624D01*
X53664638Y-76296699D01*
X51968008Y-76296699D01*
X51818331Y-75889167D01*
X51513069Y-75171691D01*
X51172132Y-74470465D01*
X51172130Y-74470462D01*
X51172126Y-74470453D01*
X51172120Y-74470442D01*
X51051306Y-74250776D01*
X52175025Y-74250776D01*
X52415373Y-74745111D01*
X52416690Y-74747908D01*
X52425803Y-74767904D01*
X52427070Y-74770781D01*
X52640603Y-75272664D01*
X52958946Y-75591007D01*
X54021021Y-74528932D01*
X55432405Y-74528932D01*
X56494480Y-75591007D01*
X57556555Y-74528932D01*
X58967939Y-74528932D01*
X60030014Y-75591007D01*
X61092089Y-74528932D01*
X62503473Y-74528932D01*
X63565548Y-75591007D01*
X64627623Y-74528932D01*
X66039007Y-74528932D01*
X67101082Y-75591007D01*
X68163157Y-74528932D01*
X69574541Y-74528932D01*
X70636616Y-75591007D01*
X71698691Y-74528932D01*
X73110075Y-74528932D01*
X74172150Y-75591007D01*
X75234225Y-74528932D01*
X76645609Y-74528932D01*
X77707683Y-75591006D01*
X78769758Y-74528932D01*
X80181142Y-74528932D01*
X81243217Y-75591006D01*
X82305292Y-74528932D01*
X83716676Y-74528932D01*
X84778751Y-75591006D01*
X85840826Y-74528932D01*
X87252210Y-74528932D01*
X88165278Y-75442000D01*
X88463292Y-75442000D01*
X89376360Y-74528932D01*
X90787744Y-74528932D01*
X91849819Y-75591007D01*
X92911894Y-74528932D01*
X94323278Y-74528932D01*
X95385352Y-75591006D01*
X96060440Y-74915918D01*
X95927053Y-74436744D01*
X95724962Y-73806466D01*
X95385353Y-73466857D01*
X94323278Y-74528932D01*
X92911894Y-74528932D01*
X91849819Y-73466857D01*
X90787744Y-74528932D01*
X89376360Y-74528932D01*
X88314285Y-73466857D01*
X87252210Y-74528932D01*
X85840826Y-74528932D01*
X84778751Y-73466857D01*
X83716676Y-74528932D01*
X82305292Y-74528932D01*
X81243217Y-73466857D01*
X80181142Y-74528932D01*
X78769758Y-74528932D01*
X77707683Y-73466857D01*
X76645609Y-74528932D01*
X75234225Y-74528932D01*
X74172150Y-73466857D01*
X73110075Y-74528932D01*
X71698691Y-74528932D01*
X70636616Y-73466857D01*
X69574541Y-74528932D01*
X68163157Y-74528932D01*
X67101082Y-73466857D01*
X66039007Y-74528932D01*
X64627623Y-74528932D01*
X63565548Y-73466857D01*
X62503473Y-74528932D01*
X61092089Y-74528932D01*
X60030014Y-73466857D01*
X58967939Y-74528932D01*
X57556555Y-74528932D01*
X56494480Y-73466857D01*
X55432405Y-74528932D01*
X54021021Y-74528932D01*
X52958945Y-73466856D01*
X52175025Y-74250776D01*
X51051306Y-74250776D01*
X50816167Y-73823240D01*
X50796380Y-73787262D01*
X50386764Y-73123808D01*
X50136854Y-72761165D01*
X53664638Y-72761165D01*
X54726713Y-73823240D01*
X55788788Y-72761165D01*
X57200172Y-72761165D01*
X58262247Y-73823240D01*
X59324322Y-72761165D01*
X60735706Y-72761165D01*
X61797781Y-73823240D01*
X62859856Y-72761165D01*
X64271240Y-72761165D01*
X65333315Y-73823240D01*
X66395390Y-72761165D01*
X67806774Y-72761165D01*
X68868849Y-73823240D01*
X69930924Y-72761165D01*
X69930923Y-72761164D01*
X71342307Y-72761164D01*
X72404383Y-73823240D01*
X73466458Y-72761165D01*
X74877842Y-72761165D01*
X75939916Y-73823239D01*
X77001991Y-72761165D01*
X78413376Y-72761165D01*
X79475450Y-73823239D01*
X80412499Y-72886191D01*
X82073936Y-72886191D01*
X83010984Y-73823239D01*
X84073059Y-72761165D01*
X85484443Y-72761165D01*
X86546518Y-73823240D01*
X87608593Y-72761165D01*
X89019977Y-72761165D01*
X90082052Y-73823240D01*
X91010573Y-72894719D01*
X92689065Y-72894719D01*
X93617586Y-73823240D01*
X94679661Y-72761165D01*
X93710148Y-71791652D01*
X93692925Y-71900399D01*
X93688383Y-71919319D01*
X93630015Y-72098958D01*
X93622569Y-72116935D01*
X93536817Y-72285232D01*
X93526650Y-72301822D01*
X93415627Y-72454633D01*
X93402990Y-72469429D01*
X93269429Y-72602990D01*
X93254633Y-72615627D01*
X93101822Y-72726650D01*
X93085232Y-72736817D01*
X92916935Y-72822569D01*
X92898958Y-72830015D01*
X92719319Y-72888383D01*
X92700399Y-72892925D01*
X92689065Y-72894719D01*
X91010573Y-72894719D01*
X91144127Y-72761165D01*
X90082052Y-71699090D01*
X89019977Y-72761165D01*
X87608593Y-72761165D01*
X86546518Y-71699090D01*
X85484443Y-72761165D01*
X84073059Y-72761165D01*
X83557173Y-72245279D01*
X83536817Y-72285232D01*
X83526650Y-72301822D01*
X83415627Y-72454633D01*
X83402990Y-72469429D01*
X83269429Y-72602990D01*
X83254633Y-72615627D01*
X83101822Y-72726650D01*
X83085232Y-72736817D01*
X82916935Y-72822569D01*
X82898958Y-72830015D01*
X82719319Y-72888383D01*
X82700399Y-72892925D01*
X82513840Y-72922473D01*
X82494442Y-72924000D01*
X82305558Y-72924000D01*
X82286160Y-72922473D01*
X82099601Y-72892925D01*
X82080681Y-72888383D01*
X82073936Y-72886191D01*
X80412499Y-72886191D01*
X80537525Y-72761165D01*
X79475450Y-71699090D01*
X78413376Y-72761165D01*
X77001991Y-72761165D01*
X75939916Y-71699090D01*
X74877842Y-72761165D01*
X73466458Y-72761165D01*
X72933870Y-72228577D01*
X72926330Y-72229696D01*
X72584098Y-72263403D01*
X72571944Y-72264000D01*
X72228056Y-72264000D01*
X72215902Y-72263403D01*
X71873766Y-72229705D01*
X71342307Y-72761164D01*
X69930923Y-72761164D01*
X68868849Y-71699090D01*
X67806774Y-72761165D01*
X66395390Y-72761165D01*
X65333315Y-71699090D01*
X64271240Y-72761165D01*
X62859856Y-72761165D01*
X61797781Y-71699090D01*
X60735706Y-72761165D01*
X59324322Y-72761165D01*
X58262247Y-71699090D01*
X57200172Y-72761165D01*
X55788788Y-72761165D01*
X54726713Y-71699090D01*
X53664638Y-72761165D01*
X50136854Y-72761165D01*
X49944340Y-72481809D01*
X49944332Y-72481799D01*
X49944320Y-72481781D01*
X49470165Y-71862803D01*
X49470163Y-71862801D01*
X49470158Y-71862794D01*
X48965507Y-71268450D01*
X48965498Y-71268440D01*
X48431596Y-70700194D01*
X48299036Y-70572612D01*
X52317655Y-70572612D01*
X52325058Y-70587983D01*
X52330380Y-70600830D01*
X52423120Y-70865867D01*
X52426969Y-70879228D01*
X52489452Y-71152982D01*
X52491781Y-71166691D01*
X52523220Y-71445719D01*
X52524000Y-71459603D01*
X52524000Y-71620527D01*
X52958946Y-72055473D01*
X54021021Y-70993398D01*
X55432405Y-70993398D01*
X56494480Y-72055473D01*
X57556555Y-70993398D01*
X58967939Y-70993398D01*
X60030014Y-72055473D01*
X61092089Y-70993398D01*
X62503473Y-70993398D01*
X63565548Y-72055473D01*
X64627623Y-70993398D01*
X66039007Y-70993398D01*
X67101082Y-72055473D01*
X68163157Y-70993398D01*
X76645609Y-70993398D01*
X77707683Y-72055472D01*
X78769758Y-70993398D01*
X80181142Y-70993398D01*
X81113808Y-71926064D01*
X81111617Y-71919319D01*
X81107075Y-71900399D01*
X81077527Y-71713840D01*
X81076000Y-71694442D01*
X81076000Y-71505558D01*
X81077527Y-71486160D01*
X81107075Y-71299601D01*
X81111617Y-71280681D01*
X81169985Y-71101042D01*
X81177431Y-71083065D01*
X81223119Y-70993398D01*
X83716676Y-70993398D01*
X84778751Y-72055472D01*
X85840826Y-70993398D01*
X87252210Y-70993398D01*
X88314285Y-72055473D01*
X89376360Y-70993398D01*
X90787744Y-70993398D01*
X91105280Y-71310934D01*
X91107075Y-71299601D01*
X91111617Y-71280681D01*
X91169985Y-71101042D01*
X91177431Y-71083065D01*
X91263183Y-70914768D01*
X91273350Y-70898178D01*
X91384373Y-70745367D01*
X91397010Y-70730571D01*
X91530571Y-70597010D01*
X91545367Y-70584373D01*
X91698178Y-70473350D01*
X91714768Y-70463183D01*
X91883065Y-70377431D01*
X91901042Y-70369985D01*
X92080681Y-70311617D01*
X92099601Y-70307075D01*
X92208347Y-70289851D01*
X91849819Y-69931323D01*
X90787744Y-70993398D01*
X89376360Y-70993398D01*
X88314285Y-69931323D01*
X87252210Y-70993398D01*
X85840826Y-70993398D01*
X84778751Y-69931323D01*
X83716676Y-70993398D01*
X81223119Y-70993398D01*
X81263183Y-70914768D01*
X81273350Y-70898178D01*
X81384373Y-70745367D01*
X81397010Y-70730571D01*
X81530571Y-70597010D01*
X81545367Y-70584373D01*
X81698178Y-70473350D01*
X81714768Y-70463183D01*
X81754720Y-70442826D01*
X81243217Y-69931323D01*
X80181142Y-70993398D01*
X78769758Y-70993398D01*
X77707683Y-69931323D01*
X76645609Y-70993398D01*
X68163157Y-70993398D01*
X67101082Y-69931323D01*
X66039007Y-70993398D01*
X64627623Y-70993398D01*
X63565548Y-69931323D01*
X62503473Y-70993398D01*
X61092089Y-70993398D01*
X60030014Y-69931323D01*
X58967939Y-70993398D01*
X57556555Y-70993398D01*
X56494480Y-69931323D01*
X55432405Y-70993398D01*
X54021021Y-70993398D01*
X52958945Y-69931322D01*
X52317655Y-70572612D01*
X48299036Y-70572612D01*
X48096240Y-70377431D01*
X47869817Y-70159510D01*
X47869806Y-70159500D01*
X47281551Y-69647727D01*
X47086749Y-69494753D01*
X46668324Y-69166173D01*
X46668314Y-69166166D01*
X46448207Y-69010548D01*
X46031653Y-68716039D01*
X46031644Y-68716033D01*
X45610012Y-68448666D01*
X47370534Y-68448666D01*
X47906578Y-68869610D01*
X47909008Y-68871569D01*
X47925943Y-68885571D01*
X47928317Y-68887584D01*
X48497154Y-69382463D01*
X48622825Y-69303500D01*
X48634995Y-69296774D01*
X48657332Y-69286016D01*
X48717719Y-69225630D01*
X48502225Y-69010136D01*
X50344597Y-69010136D01*
X50347018Y-69010548D01*
X50620772Y-69073031D01*
X50634133Y-69076880D01*
X50899170Y-69169620D01*
X50912018Y-69174942D01*
X51165005Y-69296774D01*
X51177175Y-69303500D01*
X51414930Y-69452891D01*
X51426271Y-69460938D01*
X51645804Y-69636011D01*
X51656172Y-69645277D01*
X51744890Y-69733995D01*
X52253254Y-69225631D01*
X53664638Y-69225631D01*
X54726713Y-70287706D01*
X55788788Y-69225631D01*
X57200172Y-69225631D01*
X58262247Y-70287706D01*
X59324322Y-69225631D01*
X60735706Y-69225631D01*
X61797781Y-70287706D01*
X62859856Y-69225631D01*
X64271240Y-69225631D01*
X65333315Y-70287706D01*
X66395390Y-69225631D01*
X67806774Y-69225631D01*
X68868848Y-70287705D01*
X69074662Y-70081891D01*
X69072095Y-70075693D01*
X75727904Y-70075693D01*
X75939916Y-70287705D01*
X77001991Y-69225631D01*
X78413376Y-69225631D01*
X79475450Y-70287705D01*
X80537525Y-69225631D01*
X81948909Y-69225631D01*
X83010984Y-70287705D01*
X84073059Y-69225631D01*
X85484443Y-69225631D01*
X86546518Y-70287706D01*
X87608593Y-69225631D01*
X89019977Y-69225631D01*
X90082052Y-70287706D01*
X91144127Y-69225631D01*
X91144126Y-69225630D01*
X92555510Y-69225630D01*
X93617585Y-70287705D01*
X94043772Y-69861518D01*
X93630135Y-69111868D01*
X93268499Y-68512642D01*
X92555510Y-69225630D01*
X91144126Y-69225630D01*
X90082052Y-68163556D01*
X89019977Y-69225631D01*
X87608593Y-69225631D01*
X86546518Y-68163556D01*
X85484443Y-69225631D01*
X84073059Y-69225631D01*
X83010984Y-68163556D01*
X81948909Y-69225631D01*
X80537525Y-69225631D01*
X79475450Y-68163556D01*
X78413376Y-69225631D01*
X77001991Y-69225631D01*
X76000584Y-68224223D01*
X76023403Y-68455902D01*
X76024000Y-68468056D01*
X76024000Y-68811944D01*
X76023403Y-68824098D01*
X75989696Y-69166330D01*
X75987910Y-69178367D01*
X75920821Y-69515647D01*
X75917865Y-69527452D01*
X75818039Y-69856532D01*
X75813939Y-69867989D01*
X75727904Y-70075693D01*
X69072095Y-70075693D01*
X68986061Y-69867989D01*
X68981961Y-69856532D01*
X68882135Y-69527452D01*
X68879179Y-69515647D01*
X68812090Y-69178367D01*
X68810304Y-69166330D01*
X68776597Y-68824098D01*
X68776000Y-68811944D01*
X68776000Y-68468056D01*
X68776597Y-68455902D01*
X68798457Y-68233947D01*
X67806774Y-69225631D01*
X66395390Y-69225631D01*
X65333315Y-68163556D01*
X64271240Y-69225631D01*
X62859856Y-69225631D01*
X61797781Y-68163556D01*
X60735706Y-69225631D01*
X59324322Y-69225631D01*
X58262247Y-68163556D01*
X57200172Y-69225631D01*
X55788788Y-69225631D01*
X54726713Y-68163556D01*
X53664638Y-69225631D01*
X52253254Y-69225631D01*
X51191178Y-68163555D01*
X50344597Y-69010136D01*
X48502225Y-69010136D01*
X47655644Y-68163555D01*
X47370534Y-68448666D01*
X45610012Y-68448666D01*
X45373198Y-68298497D01*
X45373134Y-68298458D01*
X44694539Y-67914549D01*
X44694514Y-67914535D01*
X43997453Y-67565204D01*
X43997434Y-67565196D01*
X43283705Y-67251345D01*
X42793622Y-67064635D01*
X45219031Y-67064635D01*
X45874166Y-67435273D01*
X45876861Y-67436842D01*
X45895709Y-67448140D01*
X45898362Y-67449776D01*
X46546830Y-67860985D01*
X46949951Y-67457864D01*
X48361337Y-67457864D01*
X49423412Y-68519939D01*
X50485487Y-67457864D01*
X51896871Y-67457864D01*
X52958946Y-68519939D01*
X54021021Y-67457864D01*
X55432405Y-67457864D01*
X56494480Y-68519939D01*
X57556555Y-67457864D01*
X58967939Y-67457864D01*
X60030014Y-68519939D01*
X61092089Y-67457864D01*
X62503473Y-67457864D01*
X63565548Y-68519939D01*
X64627623Y-67457864D01*
X66039007Y-67457864D01*
X67101082Y-68519939D01*
X68163157Y-67457864D01*
X76645609Y-67457864D01*
X77707683Y-68519938D01*
X78769758Y-67457864D01*
X80181142Y-67457864D01*
X81243217Y-68519938D01*
X82305292Y-67457864D01*
X83716676Y-67457864D01*
X84778751Y-68519938D01*
X85840826Y-67457864D01*
X87252210Y-67457864D01*
X88314285Y-68519939D01*
X89376360Y-67457864D01*
X89376359Y-67457863D01*
X90787743Y-67457863D01*
X91849818Y-68519938D01*
X92716047Y-67653709D01*
X92597333Y-67473215D01*
X92034108Y-66685220D01*
X91827263Y-66418343D01*
X90787743Y-67457863D01*
X89376359Y-67457863D01*
X88314285Y-66395789D01*
X87252210Y-67457864D01*
X85840826Y-67457864D01*
X84778751Y-66395789D01*
X83716676Y-67457864D01*
X82305292Y-67457864D01*
X81243217Y-66395789D01*
X80181142Y-67457864D01*
X78769758Y-67457864D01*
X77707683Y-66395789D01*
X76645609Y-67457864D01*
X68163157Y-67457864D01*
X67101082Y-66395789D01*
X66039007Y-67457864D01*
X64627623Y-67457864D01*
X63565548Y-66395789D01*
X62503473Y-67457864D01*
X61092089Y-67457864D01*
X60030014Y-66395789D01*
X58967939Y-67457864D01*
X57556555Y-67457864D01*
X56494480Y-66395789D01*
X55432405Y-67457864D01*
X54021021Y-67457864D01*
X52958946Y-66395789D01*
X51896871Y-67457864D01*
X50485487Y-67457864D01*
X49423412Y-66395789D01*
X48361337Y-67457864D01*
X46949951Y-67457864D01*
X46949952Y-67457863D01*
X45887878Y-66395789D01*
X45219031Y-67064635D01*
X42793622Y-67064635D01*
X42708373Y-67032157D01*
X42555070Y-66973752D01*
X42555063Y-66973749D01*
X42555048Y-66973744D01*
X41813409Y-66733133D01*
X41060600Y-66530099D01*
X41060597Y-66530098D01*
X40298532Y-66365158D01*
X39529131Y-66238727D01*
X39529121Y-66238726D01*
X38754344Y-66151128D01*
X37976150Y-66102583D01*
X37196484Y-66093211D01*
X36417369Y-66123039D01*
X36417333Y-66123041D01*
X35640680Y-66191993D01*
X35640663Y-66191995D01*
X34868463Y-66299895D01*
X34102664Y-66446470D01*
X33345176Y-66631356D01*
X32597933Y-66854084D01*
X31862867Y-67114074D01*
X31862850Y-67114080D01*
X31141763Y-67410695D01*
X30924879Y-67512937D01*
X30855846Y-67523718D01*
X30791944Y-67495465D01*
X30759638Y-67453213D01*
X30751998Y-67436842D01*
X30601376Y-67114078D01*
X30601385Y-67114073D01*
X30599035Y-67108743D01*
X30461749Y-66774864D01*
X30457868Y-66764019D01*
X30353042Y-66421597D01*
X30350189Y-66410453D01*
X30277624Y-66059757D01*
X30275816Y-66048374D01*
X30236149Y-65692484D01*
X30235995Y-65690097D01*
X43058036Y-65690097D01*
X43721625Y-66353686D01*
X44275179Y-66597102D01*
X45182184Y-65690097D01*
X46593570Y-65690097D01*
X47655645Y-66752172D01*
X48717720Y-65690097D01*
X50129104Y-65690097D01*
X51191179Y-66752172D01*
X52253254Y-65690097D01*
X53664638Y-65690097D01*
X54726713Y-66752172D01*
X55788788Y-65690097D01*
X57200172Y-65690097D01*
X58262247Y-66752172D01*
X59324322Y-65690097D01*
X60735706Y-65690097D01*
X61797781Y-66752172D01*
X62859856Y-65690097D01*
X64271240Y-65690097D01*
X65333315Y-66752172D01*
X66395390Y-65690097D01*
X67806774Y-65690097D01*
X68868849Y-66752172D01*
X69930924Y-65690097D01*
X74877842Y-65690097D01*
X75939916Y-66752171D01*
X77001991Y-65690097D01*
X78413376Y-65690097D01*
X79475450Y-66752171D01*
X80537525Y-65690097D01*
X81948909Y-65690097D01*
X83010984Y-66752171D01*
X84073059Y-65690097D01*
X85484443Y-65690097D01*
X86546518Y-66752172D01*
X87608593Y-65690097D01*
X89019977Y-65690097D01*
X90082052Y-66752172D01*
X91144127Y-65690097D01*
X90082052Y-64628022D01*
X89019977Y-65690097D01*
X87608593Y-65690097D01*
X86546518Y-64628022D01*
X85484443Y-65690097D01*
X84073059Y-65690097D01*
X83010984Y-64628022D01*
X81948909Y-65690097D01*
X80537525Y-65690097D01*
X79475450Y-64628022D01*
X78413376Y-65690097D01*
X77001991Y-65690097D01*
X75939916Y-64628022D01*
X74877842Y-65690097D01*
X69930924Y-65690097D01*
X68868849Y-64628022D01*
X67806774Y-65690097D01*
X66395390Y-65690097D01*
X65333315Y-64628022D01*
X64271240Y-65690097D01*
X62859856Y-65690097D01*
X61797781Y-64628022D01*
X60735706Y-65690097D01*
X59324322Y-65690097D01*
X58262247Y-64628022D01*
X57200172Y-65690097D01*
X55788788Y-65690097D01*
X54726713Y-64628022D01*
X53664638Y-65690097D01*
X52253254Y-65690097D01*
X51191179Y-64628022D01*
X50129104Y-65690097D01*
X48717720Y-65690097D01*
X47655645Y-64628022D01*
X46593570Y-65690097D01*
X45182184Y-65690097D01*
X45182185Y-65690096D01*
X44120111Y-64628022D01*
X43058036Y-65690097D01*
X30235995Y-65690097D01*
X30235406Y-65680976D01*
X30234694Y-65641353D01*
X30228973Y-65322927D01*
X30229301Y-65311432D01*
X30230784Y-65291716D01*
X39920882Y-65291716D01*
X40471126Y-65382135D01*
X40474173Y-65382675D01*
X40495760Y-65386778D01*
X40498837Y-65387403D01*
X41282477Y-65557013D01*
X41285527Y-65557714D01*
X41306880Y-65562903D01*
X41309888Y-65563674D01*
X41597908Y-65641353D01*
X40584577Y-64628021D01*
X39920882Y-65291716D01*
X30230784Y-65291716D01*
X30256161Y-64954314D01*
X30257560Y-64942876D01*
X30270270Y-64867985D01*
X30317477Y-64589816D01*
X30319925Y-64578584D01*
X30412389Y-64232601D01*
X30415881Y-64221614D01*
X30540080Y-63885737D01*
X30544563Y-63875154D01*
X30699438Y-63552248D01*
X30704891Y-63542114D01*
X30764530Y-63442679D01*
X34698851Y-63442679D01*
X34915005Y-63546774D01*
X34927175Y-63553500D01*
X35164930Y-63702891D01*
X35176271Y-63710938D01*
X35395804Y-63886011D01*
X35406172Y-63895277D01*
X35604723Y-64093828D01*
X35613989Y-64104196D01*
X35789062Y-64323729D01*
X35797109Y-64335070D01*
X35848624Y-64417056D01*
X36343350Y-63922330D01*
X37754736Y-63922330D01*
X38816810Y-64984404D01*
X39878885Y-63922330D01*
X39878884Y-63922329D01*
X41290269Y-63922329D01*
X42352344Y-64984404D01*
X43414418Y-63922330D01*
X44825803Y-63922330D01*
X45887878Y-64984404D01*
X46949953Y-63922330D01*
X48361337Y-63922330D01*
X49423412Y-64984405D01*
X50485487Y-63922330D01*
X51896871Y-63922330D01*
X52958946Y-64984405D01*
X54021021Y-63922330D01*
X55432405Y-63922330D01*
X56494480Y-64984405D01*
X57556555Y-63922330D01*
X58967939Y-63922330D01*
X60030014Y-64984405D01*
X61092089Y-63922330D01*
X62503473Y-63922330D01*
X63565548Y-64984405D01*
X64627623Y-63922330D01*
X66039007Y-63922330D01*
X67101082Y-64984405D01*
X68163157Y-63922330D01*
X69574541Y-63922330D01*
X70636616Y-64984405D01*
X71698691Y-63922330D01*
X73110075Y-63922330D01*
X74172150Y-64984405D01*
X75234225Y-63922330D01*
X76645609Y-63922330D01*
X77707683Y-64984404D01*
X78769758Y-63922330D01*
X80181142Y-63922330D01*
X81243217Y-64984404D01*
X82305292Y-63922330D01*
X83716676Y-63922330D01*
X84778751Y-64984404D01*
X85840826Y-63922330D01*
X87252210Y-63922330D01*
X88314285Y-64984405D01*
X89376360Y-63922330D01*
X88314285Y-62860255D01*
X87252210Y-63922330D01*
X85840826Y-63922330D01*
X84778751Y-62860255D01*
X83716676Y-63922330D01*
X82305292Y-63922330D01*
X81277681Y-62894719D01*
X82689065Y-62894719D01*
X83010984Y-63216638D01*
X84073059Y-62154563D01*
X84073058Y-62154562D01*
X85484442Y-62154562D01*
X86546518Y-63216638D01*
X87608593Y-62154563D01*
X87364784Y-61910754D01*
X87300491Y-61858896D01*
X86523532Y-61280472D01*
X86425659Y-61213345D01*
X85484442Y-62154562D01*
X84073058Y-62154562D01*
X83710148Y-61791652D01*
X83692925Y-61900399D01*
X83688383Y-61919319D01*
X83630015Y-62098958D01*
X83622569Y-62116935D01*
X83536817Y-62285232D01*
X83526650Y-62301822D01*
X83415627Y-62454633D01*
X83402990Y-62469429D01*
X83269429Y-62602990D01*
X83254633Y-62615627D01*
X83101822Y-62726650D01*
X83085232Y-62736817D01*
X82916935Y-62822569D01*
X82898958Y-62830015D01*
X82719319Y-62888383D01*
X82700399Y-62892925D01*
X82689065Y-62894719D01*
X81277681Y-62894719D01*
X81243217Y-62860255D01*
X80181142Y-63922330D01*
X78769758Y-63922330D01*
X77707683Y-62860255D01*
X76645609Y-63922330D01*
X75234225Y-63922330D01*
X74172150Y-62860255D01*
X73110075Y-63922330D01*
X71698691Y-63922330D01*
X70636616Y-62860255D01*
X69574541Y-63922330D01*
X68163157Y-63922330D01*
X67101082Y-62860255D01*
X66039007Y-63922330D01*
X64627623Y-63922330D01*
X63565548Y-62860255D01*
X62503473Y-63922330D01*
X61092089Y-63922330D01*
X60030014Y-62860255D01*
X58967939Y-63922330D01*
X57556555Y-63922330D01*
X56494480Y-62860255D01*
X55432405Y-63922330D01*
X54021021Y-63922330D01*
X52958946Y-62860255D01*
X51896871Y-63922330D01*
X50485487Y-63922330D01*
X49423412Y-62860255D01*
X48361337Y-63922330D01*
X46949953Y-63922330D01*
X45887878Y-62860255D01*
X44825803Y-63922330D01*
X43414418Y-63922330D01*
X43414419Y-63922329D01*
X42416090Y-62924000D01*
X42305558Y-62924000D01*
X42289836Y-62922762D01*
X41290269Y-63922329D01*
X39878884Y-63922329D01*
X38816810Y-62860255D01*
X37754736Y-63922330D01*
X36343350Y-63922330D01*
X36343351Y-63922329D01*
X35281276Y-62860254D01*
X34698851Y-63442679D01*
X30764530Y-63442679D01*
X30889101Y-63234984D01*
X30895468Y-63225408D01*
X31107396Y-62936745D01*
X31114628Y-62927796D01*
X31309814Y-62708074D01*
X33004946Y-62708074D01*
X33513510Y-63216638D01*
X34575585Y-62154563D01*
X35986969Y-62154563D01*
X37049044Y-63216638D01*
X38111119Y-62154563D01*
X39522503Y-62154563D01*
X40584577Y-63216637D01*
X41316742Y-62484472D01*
X43387946Y-62484472D01*
X44120111Y-63216637D01*
X45182186Y-62154563D01*
X46593570Y-62154563D01*
X47655645Y-63216638D01*
X48717720Y-62154563D01*
X50129104Y-62154563D01*
X51191178Y-63216637D01*
X51688324Y-62719491D01*
X51545367Y-62615627D01*
X51530571Y-62602990D01*
X51397010Y-62469429D01*
X51384373Y-62454633D01*
X51273350Y-62301822D01*
X51263183Y-62285232D01*
X51196604Y-62154563D01*
X53664638Y-62154563D01*
X54726713Y-63216638D01*
X55788788Y-62154563D01*
X57200172Y-62154563D01*
X58262247Y-63216638D01*
X59324322Y-62154563D01*
X60735706Y-62154563D01*
X61797781Y-63216638D01*
X62118500Y-62895918D01*
X62099601Y-62892925D01*
X62080681Y-62888383D01*
X61901042Y-62830015D01*
X61883065Y-62822569D01*
X61714768Y-62736817D01*
X61698178Y-62726650D01*
X61545367Y-62615627D01*
X61530571Y-62602990D01*
X61397010Y-62469429D01*
X61384373Y-62454633D01*
X61273350Y-62301822D01*
X61263183Y-62285232D01*
X61196604Y-62154563D01*
X64271240Y-62154563D01*
X65333315Y-63216638D01*
X66395390Y-62154563D01*
X67806774Y-62154563D01*
X68868849Y-63216638D01*
X69930924Y-62154563D01*
X74877842Y-62154563D01*
X75939916Y-63216637D01*
X77001991Y-62154563D01*
X78413376Y-62154563D01*
X79475450Y-63216637D01*
X80537525Y-62154563D01*
X79475450Y-61092488D01*
X78413376Y-62154563D01*
X77001991Y-62154563D01*
X75939916Y-61092488D01*
X74877842Y-62154563D01*
X69930924Y-62154563D01*
X68868849Y-61092488D01*
X67806774Y-62154563D01*
X66395390Y-62154563D01*
X65333315Y-61092488D01*
X64271240Y-62154563D01*
X61196604Y-62154563D01*
X61177431Y-62116935D01*
X61169985Y-62098958D01*
X61111617Y-61919319D01*
X61107075Y-61900399D01*
X61091049Y-61799219D01*
X60735706Y-62154563D01*
X59324322Y-62154563D01*
X58262247Y-61092488D01*
X57200172Y-62154563D01*
X55788788Y-62154563D01*
X54726713Y-61092488D01*
X53664638Y-62154563D01*
X51196604Y-62154563D01*
X51177431Y-62116935D01*
X51169985Y-62098958D01*
X51111617Y-61919319D01*
X51107075Y-61900399D01*
X51077527Y-61713840D01*
X51076000Y-61694442D01*
X51076000Y-61505558D01*
X51077527Y-61486160D01*
X51107075Y-61299601D01*
X51111617Y-61280681D01*
X51163901Y-61119765D01*
X50129104Y-62154563D01*
X48717720Y-62154563D01*
X47655645Y-61092488D01*
X46593570Y-62154563D01*
X45182186Y-62154563D01*
X44120110Y-61092487D01*
X43722762Y-61489835D01*
X43724000Y-61505558D01*
X43724000Y-61694442D01*
X43722473Y-61713840D01*
X43692925Y-61900399D01*
X43688383Y-61919319D01*
X43630015Y-62098958D01*
X43622569Y-62116935D01*
X43536817Y-62285232D01*
X43526650Y-62301822D01*
X43415627Y-62454633D01*
X43402990Y-62469430D01*
X43387946Y-62484472D01*
X41316742Y-62484472D01*
X41368470Y-62432744D01*
X41273350Y-62301822D01*
X41263183Y-62285232D01*
X41177431Y-62116935D01*
X41169985Y-62098958D01*
X41111617Y-61919319D01*
X41107075Y-61900399D01*
X41077527Y-61713840D01*
X41076000Y-61694442D01*
X41076000Y-61583910D01*
X40584578Y-61092488D01*
X39522503Y-62154563D01*
X38111119Y-62154563D01*
X37049044Y-61092488D01*
X35986969Y-62154563D01*
X34575585Y-62154563D01*
X34466877Y-62045855D01*
X34052340Y-62272485D01*
X34048146Y-62274675D01*
X34018234Y-62289575D01*
X34013943Y-62291611D01*
X33563272Y-62494951D01*
X33558906Y-62496821D01*
X33527907Y-62509402D01*
X33523480Y-62511101D01*
X33380284Y-62562932D01*
X33380285Y-62562933D01*
X33328966Y-62581512D01*
X33312392Y-62588761D01*
X33251406Y-62609838D01*
X33004946Y-62708074D01*
X31309814Y-62708074D01*
X31352483Y-62660041D01*
X31360492Y-62651828D01*
X31622198Y-62407323D01*
X31630955Y-62399874D01*
X31914225Y-62180754D01*
X31923632Y-62174153D01*
X32226038Y-61982295D01*
X32236017Y-61976596D01*
X32554935Y-61813665D01*
X32565422Y-61808909D01*
X32900798Y-61675231D01*
X32906164Y-61673236D01*
X32911266Y-61671473D01*
X32911266Y-61671471D01*
X32927209Y-61665961D01*
X32929331Y-61664806D01*
X32961298Y-61653232D01*
X32961298Y-61653231D01*
X32988036Y-61643551D01*
X32988044Y-61643545D01*
X33168080Y-61578377D01*
X33588245Y-61388801D01*
X33992700Y-61167683D01*
X34379083Y-60916314D01*
X34745135Y-60636165D01*
X34772096Y-60612052D01*
X34835308Y-60555515D01*
X35023952Y-60386796D01*
X37754736Y-60386796D01*
X38816810Y-61448870D01*
X39878885Y-60386796D01*
X41290270Y-60386796D01*
X41515526Y-60612052D01*
X41530571Y-60597009D01*
X41545367Y-60584373D01*
X41698178Y-60473350D01*
X41714768Y-60463183D01*
X41883065Y-60377431D01*
X41901042Y-60369985D01*
X42080681Y-60311617D01*
X42099601Y-60307075D01*
X42286160Y-60277527D01*
X42305558Y-60276000D01*
X42494442Y-60276000D01*
X42513840Y-60277527D01*
X42700399Y-60307075D01*
X42719319Y-60311617D01*
X42898958Y-60369985D01*
X42916935Y-60377431D01*
X43085232Y-60463183D01*
X43101822Y-60473350D01*
X43232744Y-60568470D01*
X43414418Y-60386796D01*
X44825803Y-60386796D01*
X45887878Y-61448870D01*
X46949953Y-60386796D01*
X48361337Y-60386796D01*
X49423412Y-61448871D01*
X50485487Y-60386796D01*
X50462592Y-60363901D01*
X51919765Y-60363901D01*
X52080681Y-60311617D01*
X52099601Y-60307075D01*
X52286160Y-60277527D01*
X52305558Y-60276000D01*
X52494442Y-60276000D01*
X52513840Y-60277527D01*
X52700399Y-60307075D01*
X52719319Y-60311617D01*
X52898958Y-60369985D01*
X52916935Y-60377431D01*
X53085232Y-60463183D01*
X53101822Y-60473350D01*
X53254633Y-60584373D01*
X53269429Y-60597010D01*
X53402990Y-60730571D01*
X53415627Y-60745367D01*
X53519491Y-60888324D01*
X54021020Y-60386795D01*
X55432404Y-60386795D01*
X56494480Y-61448871D01*
X57556555Y-60386796D01*
X58967939Y-60386796D01*
X60030014Y-61448871D01*
X61092089Y-60386796D01*
X60996342Y-60291049D01*
X62599219Y-60291049D01*
X62700399Y-60307075D01*
X62719319Y-60311617D01*
X62898958Y-60369985D01*
X62916935Y-60377431D01*
X63085232Y-60463183D01*
X63101822Y-60473350D01*
X63254633Y-60584373D01*
X63269429Y-60597010D01*
X63402990Y-60730571D01*
X63415627Y-60745367D01*
X63526650Y-60898178D01*
X63536817Y-60914768D01*
X63622569Y-61083065D01*
X63630015Y-61101042D01*
X63688383Y-61280681D01*
X63692925Y-61299601D01*
X63695918Y-61318500D01*
X64627623Y-60386796D01*
X66039007Y-60386796D01*
X67101082Y-61448871D01*
X68163157Y-60386796D01*
X69574541Y-60386796D01*
X70636616Y-61448871D01*
X71698691Y-60386796D01*
X73110075Y-60386796D01*
X74172150Y-61448871D01*
X75234225Y-60386796D01*
X76645609Y-60386796D01*
X77707683Y-61448870D01*
X78769758Y-60386796D01*
X78769757Y-60386795D01*
X80181142Y-60386795D01*
X81105280Y-61310933D01*
X81107075Y-61299601D01*
X81111617Y-61280681D01*
X81169985Y-61101042D01*
X81177431Y-61083065D01*
X81263183Y-60914768D01*
X81273350Y-60898178D01*
X81384373Y-60745367D01*
X81397010Y-60730571D01*
X81530571Y-60597010D01*
X81545367Y-60584373D01*
X81698178Y-60473350D01*
X81714768Y-60463183D01*
X81864687Y-60386795D01*
X83716676Y-60386795D01*
X84778750Y-61448870D01*
X85583823Y-60643797D01*
X84905258Y-60216114D01*
X84259934Y-59843537D01*
X83716676Y-60386795D01*
X81864687Y-60386795D01*
X81883065Y-60377431D01*
X81901042Y-60369985D01*
X82080681Y-60311617D01*
X82099601Y-60307075D01*
X82208347Y-60289851D01*
X81243217Y-59324721D01*
X80181142Y-60386795D01*
X78769757Y-60386795D01*
X77707683Y-59324721D01*
X76645609Y-60386796D01*
X75234225Y-60386796D01*
X74172150Y-59324721D01*
X73110075Y-60386796D01*
X71698691Y-60386796D01*
X70636616Y-59324721D01*
X69574541Y-60386796D01*
X68163157Y-60386796D01*
X67101082Y-59324721D01*
X66039007Y-60386796D01*
X64627623Y-60386796D01*
X63565548Y-59324721D01*
X62599219Y-60291049D01*
X60996342Y-60291049D01*
X60234220Y-59528927D01*
X60071020Y-59554777D01*
X60066196Y-59555445D01*
X60036962Y-59558905D01*
X60032125Y-59559381D01*
X59993046Y-59562459D01*
X59988181Y-59562746D01*
X59958729Y-59563904D01*
X59953857Y-59564000D01*
X59790735Y-59564000D01*
X58967939Y-60386796D01*
X57556555Y-60386796D01*
X56645989Y-59476230D01*
X56442737Y-59410191D01*
X56438136Y-59408595D01*
X56418024Y-59401175D01*
X55432404Y-60386795D01*
X54021020Y-60386795D01*
X53194371Y-59560146D01*
X53175856Y-59561636D01*
X53172542Y-59561858D01*
X53145855Y-59563287D01*
X53142539Y-59563420D01*
X53122491Y-59563956D01*
X53119177Y-59564000D01*
X52719667Y-59564000D01*
X51919765Y-60363901D01*
X50462592Y-60363901D01*
X49423412Y-59324721D01*
X48361337Y-60386796D01*
X46949953Y-60386796D01*
X45887878Y-59324721D01*
X44825803Y-60386796D01*
X43414418Y-60386796D01*
X43414419Y-60386795D01*
X42352344Y-59324721D01*
X41290270Y-60386796D01*
X39878885Y-60386796D01*
X38816810Y-59324721D01*
X37754736Y-60386796D01*
X35023952Y-60386796D01*
X35088716Y-60328872D01*
X35407820Y-59996231D01*
X35700581Y-59640185D01*
X35747408Y-59573428D01*
X36941368Y-59573428D01*
X37049044Y-59681104D01*
X38111119Y-58619029D01*
X39522503Y-58619029D01*
X40584577Y-59681103D01*
X41646652Y-58619029D01*
X43058036Y-58619029D01*
X44120111Y-59681103D01*
X45182186Y-58619029D01*
X46593570Y-58619029D01*
X47655645Y-59681104D01*
X48231332Y-59105417D01*
X61222094Y-59105417D01*
X61797781Y-59681104D01*
X62859856Y-58619029D01*
X64271240Y-58619029D01*
X65333315Y-59681104D01*
X66395390Y-58619029D01*
X67806774Y-58619029D01*
X68868849Y-59681104D01*
X69930924Y-58619029D01*
X71342308Y-58619029D01*
X72404383Y-59681104D01*
X73466458Y-58619029D01*
X74877842Y-58619029D01*
X75939916Y-59681103D01*
X77001991Y-58619029D01*
X77001990Y-58619028D01*
X78413375Y-58619028D01*
X79475450Y-59681103D01*
X80537525Y-58619028D01*
X79791514Y-57873017D01*
X79625946Y-57816366D01*
X79310480Y-57721923D01*
X78413375Y-58619028D01*
X77001990Y-58619028D01*
X75939916Y-57556954D01*
X74877842Y-58619029D01*
X73466458Y-58619029D01*
X72404383Y-57556954D01*
X71342308Y-58619029D01*
X69930924Y-58619029D01*
X68868849Y-57556954D01*
X67806774Y-58619029D01*
X66395390Y-58619029D01*
X65333315Y-57556954D01*
X64271240Y-58619029D01*
X62859856Y-58619029D01*
X62090832Y-57850005D01*
X62022191Y-58061263D01*
X62020595Y-58065864D01*
X62010396Y-58093509D01*
X62008621Y-58098045D01*
X61993619Y-58134261D01*
X61991669Y-58138719D01*
X61979340Y-58165463D01*
X61977215Y-58169845D01*
X61862950Y-58394100D01*
X61860654Y-58398394D01*
X61846264Y-58424089D01*
X61843803Y-58428289D01*
X61823321Y-58461713D01*
X61820695Y-58465815D01*
X61804326Y-58490313D01*
X61801542Y-58494308D01*
X61620343Y-58743705D01*
X61580614Y-58779009D01*
X61459074Y-58847074D01*
X61391009Y-58968614D01*
X61355705Y-59008343D01*
X61222094Y-59105417D01*
X48231332Y-59105417D01*
X48717720Y-58619029D01*
X47655645Y-57556954D01*
X46593570Y-58619029D01*
X45182186Y-58619029D01*
X44120111Y-57556954D01*
X43058036Y-58619029D01*
X41646652Y-58619029D01*
X40584577Y-57556954D01*
X39522503Y-58619029D01*
X38111119Y-58619029D01*
X37597720Y-58105630D01*
X37523141Y-58341826D01*
X37521624Y-58346327D01*
X37510348Y-58377788D01*
X37508667Y-58382211D01*
X37324260Y-58840825D01*
X37322413Y-58845177D01*
X37308773Y-58875685D01*
X37306750Y-58879987D01*
X37087793Y-59323287D01*
X37085611Y-59327500D01*
X37069676Y-59356875D01*
X37067338Y-59360994D01*
X36941368Y-59573428D01*
X35747408Y-59573428D01*
X35965289Y-59262816D01*
X36200396Y-58866329D01*
X36404529Y-58453041D01*
X36576495Y-58025366D01*
X36715288Y-57585805D01*
X36820098Y-57136926D01*
X36848211Y-56954520D01*
X37857994Y-56954520D01*
X38816810Y-57913336D01*
X39878885Y-56851262D01*
X41290270Y-56851262D01*
X42352344Y-57913336D01*
X43414419Y-56851262D01*
X44825803Y-56851262D01*
X45887878Y-57913336D01*
X46949953Y-56851262D01*
X48361337Y-56851262D01*
X49423412Y-57913337D01*
X49860000Y-57476749D01*
X49860000Y-57265454D01*
X49869439Y-57218002D01*
X49870268Y-57216000D01*
X49869439Y-57213998D01*
X49860000Y-57166546D01*
X49860000Y-56474000D01*
X48738599Y-56474000D01*
X48361337Y-56851262D01*
X46949953Y-56851262D01*
X46572691Y-56474000D01*
X45203066Y-56474000D01*
X44825803Y-56851262D01*
X43414419Y-56851262D01*
X43037157Y-56474000D01*
X41667532Y-56474000D01*
X41290270Y-56851262D01*
X39878885Y-56851262D01*
X39501623Y-56474000D01*
X38951623Y-56474000D01*
X38932225Y-56472473D01*
X38737893Y-56441694D01*
X38718972Y-56437152D01*
X38531848Y-56376351D01*
X38513873Y-56368905D01*
X38338563Y-56279581D01*
X38331030Y-56274965D01*
X37888465Y-56717531D01*
X37884119Y-56774275D01*
X37883665Y-56779004D01*
X37879838Y-56812203D01*
X37879207Y-56816892D01*
X37857994Y-56954520D01*
X36848211Y-56954520D01*
X36890313Y-56681352D01*
X36925521Y-56221746D01*
X36925500Y-55991270D01*
X36925500Y-55982984D01*
X36925500Y-54974000D01*
X36945185Y-54906961D01*
X36997989Y-54861206D01*
X37049500Y-54850000D01*
X37540000Y-54850000D01*
X37548010Y-54830661D01*
X37547420Y-54829581D01*
X37552404Y-54759889D01*
X37580905Y-54715542D01*
X39046446Y-53250000D01*
X39753552Y-53250000D01*
X38153551Y-54849999D01*
X38153552Y-54850000D01*
X41446448Y-54850000D01*
X41446448Y-54849999D01*
X39846448Y-53250000D01*
X40553552Y-53250000D01*
X42019094Y-54715542D01*
X42052579Y-54776865D01*
X42049211Y-54823953D01*
X42060000Y-54850000D01*
X42931080Y-54850000D01*
X42931094Y-54849999D01*
X43191009Y-54815779D01*
X43191020Y-54815777D01*
X43444255Y-54747924D01*
X43686471Y-54647595D01*
X43686482Y-54647590D01*
X43913528Y-54516503D01*
X44121519Y-54356907D01*
X44121526Y-54356901D01*
X44306901Y-54171526D01*
X44306907Y-54171519D01*
X44466503Y-53963528D01*
X44597590Y-53736482D01*
X44597595Y-53736471D01*
X44697924Y-53494255D01*
X44765777Y-53241020D01*
X44765779Y-53241009D01*
X44799999Y-52981094D01*
X44800000Y-52981080D01*
X44800000Y-52718919D01*
X44799999Y-52718905D01*
X44765779Y-52458990D01*
X44765777Y-52458979D01*
X44697924Y-52205744D01*
X44597595Y-51963528D01*
X44597590Y-51963517D01*
X44466503Y-51736471D01*
X44306907Y-51528480D01*
X44306901Y-51528473D01*
X44121526Y-51343098D01*
X44121519Y-51343092D01*
X43913528Y-51183496D01*
X43686482Y-51052409D01*
X43686471Y-51052404D01*
X43444255Y-50952075D01*
X43191020Y-50884222D01*
X43191009Y-50884220D01*
X42931094Y-50850000D01*
X42060000Y-50850000D01*
X42051989Y-50869338D01*
X42052579Y-50870418D01*
X42047595Y-50940110D01*
X42019094Y-50984457D01*
X40553551Y-52450000D01*
X39846448Y-52450000D01*
X41446448Y-50850000D01*
X38153551Y-50850000D01*
X39753552Y-52450000D01*
X39046448Y-52450000D01*
X37580905Y-50984457D01*
X37547420Y-50923134D01*
X37550787Y-50876044D01*
X37540000Y-50850000D01*
X37049500Y-50850000D01*
X36982461Y-50830315D01*
X36936706Y-50777511D01*
X36925500Y-50726000D01*
X36925500Y-49611430D01*
X37923500Y-49611430D01*
X37923500Y-49812905D01*
X37996236Y-49712794D01*
X38008873Y-49697999D01*
X38147999Y-49558873D01*
X38162794Y-49546236D01*
X38321971Y-49430586D01*
X38338563Y-49420419D01*
X38513873Y-49331095D01*
X38531848Y-49323649D01*
X38718972Y-49262848D01*
X38737893Y-49258306D01*
X38932225Y-49227527D01*
X38951623Y-49226000D01*
X39324691Y-49226000D01*
X38816810Y-48718119D01*
X37923500Y-49611430D01*
X36925500Y-49611430D01*
X36925500Y-48012427D01*
X39522503Y-48012427D01*
X40584577Y-49074501D01*
X41646652Y-48012427D01*
X43058036Y-48012427D01*
X44120111Y-49074501D01*
X45182185Y-48012427D01*
X46593570Y-48012427D01*
X47655645Y-49074502D01*
X48717719Y-48012427D01*
X50129104Y-48012427D01*
X51191179Y-49074502D01*
X52253253Y-48012427D01*
X51191179Y-46950352D01*
X50129104Y-48012427D01*
X48717719Y-48012427D01*
X47655645Y-46950352D01*
X46593570Y-48012427D01*
X45182185Y-48012427D01*
X44120111Y-46950352D01*
X43058036Y-48012427D01*
X41646652Y-48012427D01*
X40584577Y-46950352D01*
X39522503Y-48012427D01*
X36925500Y-48012427D01*
X36925500Y-46075896D01*
X37923500Y-46075896D01*
X37923500Y-46413424D01*
X38816810Y-47306734D01*
X39878885Y-46244660D01*
X41290270Y-46244660D01*
X42352344Y-47306734D01*
X43414419Y-46244660D01*
X44825803Y-46244660D01*
X45887878Y-47306734D01*
X46949952Y-46244660D01*
X48361337Y-46244660D01*
X49423412Y-47306735D01*
X50485486Y-46244660D01*
X51896871Y-46244660D01*
X52655830Y-47003619D01*
X52655417Y-45486113D01*
X51896871Y-46244660D01*
X50485486Y-46244660D01*
X49423412Y-45182585D01*
X48361337Y-46244660D01*
X46949952Y-46244660D01*
X45887878Y-45182585D01*
X44825803Y-46244660D01*
X43414419Y-46244660D01*
X42352344Y-45182585D01*
X41290270Y-46244660D01*
X39878885Y-46244660D01*
X38816810Y-45182585D01*
X37923500Y-46075896D01*
X36925500Y-46075896D01*
X36925500Y-44476893D01*
X39522503Y-44476893D01*
X40584577Y-45538968D01*
X41646652Y-44476893D01*
X43058036Y-44476893D01*
X44120111Y-45538968D01*
X45182185Y-44476893D01*
X46593570Y-44476893D01*
X47655645Y-45538968D01*
X48717719Y-44476893D01*
X50129104Y-44476893D01*
X51191179Y-45538968D01*
X52253253Y-44476893D01*
X51191179Y-43414819D01*
X50129104Y-44476893D01*
X48717719Y-44476893D01*
X47655645Y-43414819D01*
X46593570Y-44476893D01*
X45182185Y-44476893D01*
X44120111Y-43414819D01*
X43058036Y-44476893D01*
X41646652Y-44476893D01*
X40584577Y-43414819D01*
X39522503Y-44476893D01*
X36925500Y-44476893D01*
X36925500Y-42540363D01*
X37923500Y-42540363D01*
X37923500Y-42877890D01*
X38816811Y-43771201D01*
X39878885Y-42709126D01*
X41290270Y-42709126D01*
X42352344Y-43771201D01*
X43414419Y-42709126D01*
X44825803Y-42709126D01*
X45887878Y-43771201D01*
X46949952Y-42709126D01*
X48361337Y-42709126D01*
X49423412Y-43771201D01*
X50485486Y-42709126D01*
X51896870Y-42709126D01*
X52654867Y-43467122D01*
X52654454Y-41951542D01*
X51896870Y-42709126D01*
X50485486Y-42709126D01*
X49423412Y-41647052D01*
X48361337Y-42709126D01*
X46949952Y-42709126D01*
X45887878Y-41647052D01*
X44825803Y-42709126D01*
X43414419Y-42709126D01*
X42352344Y-41647052D01*
X41290270Y-42709126D01*
X39878885Y-42709126D01*
X38816810Y-41647052D01*
X37923500Y-42540363D01*
X36925500Y-42540363D01*
X36925500Y-40941359D01*
X39522503Y-40941359D01*
X40584577Y-42003434D01*
X41646652Y-40941359D01*
X43058036Y-40941359D01*
X44120111Y-42003434D01*
X45182185Y-40941359D01*
X46593570Y-40941359D01*
X47655645Y-42003434D01*
X48717719Y-40941359D01*
X50129104Y-40941359D01*
X51191179Y-42003434D01*
X52253253Y-40941359D01*
X51191179Y-39879285D01*
X50129104Y-40941359D01*
X48717719Y-40941359D01*
X47655645Y-39879285D01*
X46593570Y-40941359D01*
X45182185Y-40941359D01*
X44120111Y-39879285D01*
X43058036Y-40941359D01*
X41646652Y-40941359D01*
X40584577Y-39879285D01*
X39522503Y-40941359D01*
X36925500Y-40941359D01*
X36925500Y-39004829D01*
X37923500Y-39004829D01*
X37923500Y-39342357D01*
X38816810Y-40235667D01*
X39878885Y-39173593D01*
X41290270Y-39173593D01*
X42352344Y-40235667D01*
X43414419Y-39173593D01*
X44825803Y-39173593D01*
X45887878Y-40235667D01*
X46949953Y-39173593D01*
X48361337Y-39173593D01*
X49423412Y-40235668D01*
X50485487Y-39173593D01*
X50485486Y-39173592D01*
X51896870Y-39173592D01*
X52653903Y-39930625D01*
X52653491Y-38416971D01*
X51896870Y-39173592D01*
X50485486Y-39173592D01*
X49423412Y-38111518D01*
X48361337Y-39173593D01*
X46949953Y-39173593D01*
X45887878Y-38111518D01*
X44825803Y-39173593D01*
X43414419Y-39173593D01*
X42352344Y-38111518D01*
X41290270Y-39173593D01*
X39878885Y-39173593D01*
X38816810Y-38111518D01*
X37923500Y-39004829D01*
X36925500Y-39004829D01*
X36925500Y-37405826D01*
X39522503Y-37405826D01*
X40584577Y-38467900D01*
X41646652Y-37405826D01*
X43058036Y-37405826D01*
X44120111Y-38467900D01*
X45182186Y-37405826D01*
X46593570Y-37405826D01*
X47655645Y-38467901D01*
X48717720Y-37405826D01*
X50129104Y-37405826D01*
X51191179Y-38467901D01*
X52253254Y-37405826D01*
X51191179Y-36343751D01*
X50129104Y-37405826D01*
X48717720Y-37405826D01*
X47655645Y-36343751D01*
X46593570Y-37405826D01*
X45182186Y-37405826D01*
X44120111Y-36343751D01*
X43058036Y-37405826D01*
X41646652Y-37405826D01*
X40584577Y-36343751D01*
X39522503Y-37405826D01*
X36925500Y-37405826D01*
X36925500Y-35469295D01*
X37923500Y-35469295D01*
X37923500Y-35806823D01*
X38816810Y-36700133D01*
X39878885Y-35638059D01*
X41290270Y-35638059D01*
X42352344Y-36700133D01*
X43414419Y-35638059D01*
X44825803Y-35638059D01*
X45887878Y-36700133D01*
X46949953Y-35638059D01*
X48361337Y-35638059D01*
X49423412Y-36700134D01*
X50485487Y-35638059D01*
X50485486Y-35638058D01*
X51896870Y-35638058D01*
X52652940Y-36394128D01*
X52652528Y-34882400D01*
X51896870Y-35638058D01*
X50485486Y-35638058D01*
X49423412Y-34575984D01*
X48361337Y-35638059D01*
X46949953Y-35638059D01*
X45887878Y-34575984D01*
X44825803Y-35638059D01*
X43414419Y-35638059D01*
X42352344Y-34575984D01*
X41290270Y-35638059D01*
X39878885Y-35638059D01*
X38816810Y-34575984D01*
X37923500Y-35469295D01*
X36925500Y-35469295D01*
X36925500Y-33870292D01*
X39522503Y-33870292D01*
X40584577Y-34932366D01*
X41646652Y-33870292D01*
X43058036Y-33870292D01*
X44120111Y-34932366D01*
X45182186Y-33870292D01*
X46593570Y-33870292D01*
X47655645Y-34932367D01*
X48717720Y-33870292D01*
X50129104Y-33870292D01*
X51191179Y-34932367D01*
X52253254Y-33870292D01*
X51191179Y-32808217D01*
X50129104Y-33870292D01*
X48717720Y-33870292D01*
X47655645Y-32808217D01*
X46593570Y-33870292D01*
X45182186Y-33870292D01*
X44120111Y-32808217D01*
X43058036Y-33870292D01*
X41646652Y-33870292D01*
X40584577Y-32808217D01*
X39522503Y-33870292D01*
X36925500Y-33870292D01*
X36925500Y-31933761D01*
X37923500Y-31933761D01*
X37923500Y-32271289D01*
X38816810Y-33164599D01*
X39878885Y-32102525D01*
X41290270Y-32102525D01*
X42352344Y-33164599D01*
X43414419Y-32102525D01*
X44825803Y-32102525D01*
X45887878Y-33164599D01*
X46949953Y-32102525D01*
X48361337Y-32102525D01*
X49423412Y-33164600D01*
X50485487Y-32102525D01*
X50485486Y-32102524D01*
X51896870Y-32102524D01*
X52651976Y-32857630D01*
X52651565Y-31347829D01*
X51896870Y-32102524D01*
X50485486Y-32102524D01*
X49423412Y-31040450D01*
X48361337Y-32102525D01*
X46949953Y-32102525D01*
X45887878Y-31040450D01*
X44825803Y-32102525D01*
X43414419Y-32102525D01*
X42352344Y-31040450D01*
X41290270Y-32102525D01*
X39878885Y-32102525D01*
X38816810Y-31040450D01*
X37923500Y-31933761D01*
X36925500Y-31933761D01*
X36925500Y-31102561D01*
X36925606Y-31097437D01*
X36927963Y-31040450D01*
X36942278Y-30694315D01*
X36943121Y-30684146D01*
X36986672Y-30334758D01*
X39522503Y-30334758D01*
X40584577Y-31396832D01*
X41646652Y-30334758D01*
X43058036Y-30334758D01*
X44120111Y-31396832D01*
X45182186Y-30334758D01*
X46593570Y-30334758D01*
X47655645Y-31396833D01*
X48717720Y-30334758D01*
X50129104Y-30334758D01*
X51191179Y-31396833D01*
X52253254Y-30334758D01*
X51191179Y-29272683D01*
X50129104Y-30334758D01*
X48717720Y-30334758D01*
X47655645Y-29272683D01*
X46593570Y-30334758D01*
X45182186Y-30334758D01*
X44120111Y-29272683D01*
X43058036Y-30334758D01*
X41646652Y-30334758D01*
X40584577Y-29272683D01*
X39522503Y-30334758D01*
X36986672Y-30334758D01*
X36992712Y-30286305D01*
X36994399Y-30276201D01*
X37076665Y-29883853D01*
X37079181Y-29873917D01*
X37141433Y-29664817D01*
X37193575Y-29489672D01*
X37196890Y-29480020D01*
X37301020Y-29213157D01*
X38400902Y-29213157D01*
X38816810Y-29629065D01*
X39878884Y-28566991D01*
X41290270Y-28566991D01*
X42352344Y-29629065D01*
X43414419Y-28566991D01*
X44825803Y-28566991D01*
X45887878Y-29629065D01*
X46949953Y-28566991D01*
X48361337Y-28566991D01*
X49423412Y-29629066D01*
X50485487Y-28566991D01*
X49423412Y-27504916D01*
X48361337Y-28566991D01*
X46949953Y-28566991D01*
X45887878Y-27504916D01*
X44825803Y-28566991D01*
X43414419Y-28566991D01*
X42352344Y-27504916D01*
X41290270Y-28566991D01*
X39878884Y-28566991D01*
X39878885Y-28566990D01*
X39358722Y-28046828D01*
X39207360Y-28175025D01*
X38975031Y-28407354D01*
X38762654Y-28658109D01*
X38571723Y-28925522D01*
X38403512Y-29207819D01*
X38400902Y-29213157D01*
X37301020Y-29213157D01*
X37342624Y-29106536D01*
X37346728Y-29097178D01*
X37522813Y-28736991D01*
X37527677Y-28728005D01*
X37623620Y-28566991D01*
X37732895Y-28383602D01*
X37738485Y-28375045D01*
X37971443Y-28048769D01*
X37977733Y-28040688D01*
X38236842Y-27734757D01*
X38243761Y-27727242D01*
X38527242Y-27443761D01*
X38534757Y-27436842D01*
X38840694Y-27177728D01*
X38848769Y-27171443D01*
X38915917Y-27123500D01*
X43382313Y-27123500D01*
X44120111Y-27861298D01*
X44857910Y-27123500D01*
X46917846Y-27123500D01*
X47655644Y-27861298D01*
X48393443Y-27123500D01*
X46917846Y-27123500D01*
X44857910Y-27123500D01*
X43382313Y-27123500D01*
X38915917Y-27123500D01*
X39175045Y-26938485D01*
X39183602Y-26932895D01*
X39528005Y-26727677D01*
X39536991Y-26722813D01*
X39897178Y-26546728D01*
X39906540Y-26542623D01*
X40280020Y-26396890D01*
X40289672Y-26393575D01*
X40673922Y-26279179D01*
X40683848Y-26276666D01*
X41076205Y-26194398D01*
X41086305Y-26192712D01*
X41484146Y-26143121D01*
X41494315Y-26142278D01*
X41897437Y-26125605D01*
X41902561Y-26125500D01*
X41908285Y-26125500D01*
X48666715Y-26125500D01*
X48672439Y-26125500D01*
X48677562Y-26125605D01*
G37*
G04 #@! TD.AperFunction*
G04 #@! TA.AperFunction,Conductor*
G36*
X59362075Y-106176993D02*
G01*
X59427901Y-106291007D01*
X59520993Y-106384099D01*
X59635007Y-106449925D01*
X59698590Y-106466962D01*
X59066282Y-107099269D01*
X59066282Y-107099270D01*
X59120449Y-107138624D01*
X59309782Y-107235095D01*
X59511870Y-107300757D01*
X59647525Y-107322243D01*
X59710660Y-107352172D01*
X59747591Y-107411484D01*
X59746593Y-107481346D01*
X59707983Y-107539579D01*
X59644020Y-107567693D01*
X59628069Y-107568716D01*
X57494113Y-107567718D01*
X57427083Y-107548002D01*
X57381353Y-107495177D01*
X57371441Y-107426014D01*
X57400496Y-107362471D01*
X57459292Y-107324725D01*
X57474774Y-107321245D01*
X57604125Y-107300758D01*
X57604130Y-107300757D01*
X57806217Y-107235095D01*
X57995554Y-107138622D01*
X58049716Y-107099270D01*
X58049717Y-107099270D01*
X57417408Y-106466962D01*
X57480993Y-106449925D01*
X57595007Y-106384099D01*
X57688099Y-106291007D01*
X57753925Y-106176993D01*
X57770962Y-106113409D01*
X58403270Y-106745717D01*
X58403270Y-106745716D01*
X58442622Y-106691554D01*
X58447514Y-106681954D01*
X58495488Y-106631157D01*
X58563308Y-106614361D01*
X58629444Y-106636897D01*
X58668486Y-106681954D01*
X58673375Y-106691550D01*
X58712728Y-106745716D01*
X59345037Y-106113408D01*
X59362075Y-106176993D01*
G37*
G04 #@! TD.AperFunction*
G04 #@! TA.AperFunction,Conductor*
G36*
X56822075Y-106176993D02*
G01*
X56887901Y-106291007D01*
X56980993Y-106384099D01*
X57095007Y-106449925D01*
X57158590Y-106466962D01*
X56526282Y-107099269D01*
X56526282Y-107099270D01*
X56580449Y-107138624D01*
X56769782Y-107235095D01*
X56971870Y-107300757D01*
X57100006Y-107321052D01*
X57163140Y-107350981D01*
X57200072Y-107410292D01*
X57199074Y-107480155D01*
X57160464Y-107538388D01*
X57096501Y-107566502D01*
X57080550Y-107567525D01*
X54961588Y-107566534D01*
X54894558Y-107546818D01*
X54848828Y-107493993D01*
X54838916Y-107424830D01*
X54867971Y-107361287D01*
X54926767Y-107323541D01*
X54942249Y-107320061D01*
X55064126Y-107300758D01*
X55064130Y-107300757D01*
X55266217Y-107235095D01*
X55455554Y-107138622D01*
X55509716Y-107099270D01*
X55509717Y-107099270D01*
X54877408Y-106466962D01*
X54940993Y-106449925D01*
X55055007Y-106384099D01*
X55148099Y-106291007D01*
X55213925Y-106176993D01*
X55230962Y-106113408D01*
X55863270Y-106745717D01*
X55863270Y-106745716D01*
X55902622Y-106691554D01*
X55907514Y-106681954D01*
X55955488Y-106631157D01*
X56023308Y-106614361D01*
X56089444Y-106636897D01*
X56128486Y-106681954D01*
X56133375Y-106691550D01*
X56172728Y-106745716D01*
X56805037Y-106113408D01*
X56822075Y-106176993D01*
G37*
G04 #@! TD.AperFunction*
G04 #@! TA.AperFunction,Conductor*
G36*
X57191683Y-55645185D02*
G01*
X57237438Y-55697989D01*
X57247382Y-55767147D01*
X57218357Y-55830703D01*
X57159579Y-55868477D01*
X57144042Y-55871973D01*
X56971872Y-55899242D01*
X56971869Y-55899242D01*
X56769782Y-55964904D01*
X56580439Y-56061380D01*
X56526282Y-56100727D01*
X56526282Y-56100728D01*
X57158591Y-56733037D01*
X57095007Y-56750075D01*
X56980993Y-56815901D01*
X56887901Y-56908993D01*
X56822075Y-57023007D01*
X56805037Y-57086591D01*
X56172728Y-56454282D01*
X56172727Y-56454282D01*
X56133380Y-56508440D01*
X56128483Y-56518051D01*
X56080506Y-56568845D01*
X56012684Y-56585638D01*
X55946550Y-56563098D01*
X55907516Y-56518048D01*
X55902626Y-56508452D01*
X55863270Y-56454282D01*
X55863269Y-56454282D01*
X55230962Y-57086590D01*
X55213925Y-57023007D01*
X55148099Y-56908993D01*
X55055007Y-56815901D01*
X54940993Y-56750075D01*
X54877409Y-56733037D01*
X55509716Y-56100728D01*
X55455550Y-56061375D01*
X55266217Y-55964904D01*
X55064129Y-55899242D01*
X54891958Y-55871973D01*
X54828823Y-55842044D01*
X54791892Y-55782732D01*
X54792890Y-55712870D01*
X54831500Y-55654637D01*
X54895463Y-55626523D01*
X54911356Y-55625500D01*
X57124644Y-55625500D01*
X57191683Y-55645185D01*
G37*
G04 #@! TD.AperFunction*
G04 #@! TA.AperFunction,Conductor*
G36*
X59731683Y-55645185D02*
G01*
X59777438Y-55697989D01*
X59787382Y-55767147D01*
X59758357Y-55830703D01*
X59699579Y-55868477D01*
X59684042Y-55871973D01*
X59511872Y-55899242D01*
X59511869Y-55899242D01*
X59309782Y-55964904D01*
X59120439Y-56061380D01*
X59066282Y-56100727D01*
X59066282Y-56100728D01*
X59698591Y-56733037D01*
X59635007Y-56750075D01*
X59520993Y-56815901D01*
X59427901Y-56908993D01*
X59362075Y-57023007D01*
X59345037Y-57086591D01*
X58712728Y-56454282D01*
X58712727Y-56454282D01*
X58673380Y-56508440D01*
X58668483Y-56518051D01*
X58620506Y-56568845D01*
X58552684Y-56585638D01*
X58486550Y-56563098D01*
X58447516Y-56518048D01*
X58442626Y-56508452D01*
X58403270Y-56454282D01*
X58403269Y-56454282D01*
X57770962Y-57086590D01*
X57753925Y-57023007D01*
X57688099Y-56908993D01*
X57595007Y-56815901D01*
X57480993Y-56750075D01*
X57417409Y-56733037D01*
X58049716Y-56100728D01*
X57995550Y-56061375D01*
X57806217Y-55964904D01*
X57604129Y-55899242D01*
X57431958Y-55871973D01*
X57368823Y-55842044D01*
X57331892Y-55782732D01*
X57332890Y-55712870D01*
X57371500Y-55654637D01*
X57435463Y-55626523D01*
X57451356Y-55625500D01*
X59664644Y-55625500D01*
X59731683Y-55645185D01*
G37*
G04 #@! TD.AperFunction*
M02*
