G04 #@! TF.GenerationSoftware,KiCad,Pcbnew,9.0.2*
G04 #@! TF.CreationDate,2025-09-26T15:19:19-04:00*
G04 #@! TF.ProjectId,Trackball,54726163-6b62-4616-9c6c-2e6b69636164,rev?*
G04 #@! TF.SameCoordinates,Original*
G04 #@! TF.FileFunction,Legend,Bot*
G04 #@! TF.FilePolarity,Positive*
%FSLAX46Y46*%
G04 Gerber Fmt 4.6, Leading zero omitted, Abs format (unit mm)*
G04 Created by KiCad (PCBNEW 9.0.2) date 2025-09-26 15:19:19*
%MOMM*%
%LPD*%
G01*
G04 APERTURE LIST*
%ADD10C,0.300000*%
%ADD11C,0.150000*%
%ADD12C,0.120000*%
G04 APERTURE END LIST*
D10*
X88027933Y-68418382D02*
X88229963Y-68519397D01*
X88229963Y-68519397D02*
X88482501Y-68771935D01*
X88482501Y-68771935D02*
X88533009Y-68923458D01*
X88533009Y-68923458D02*
X88533009Y-69024474D01*
X88533009Y-69024474D02*
X88482501Y-69175996D01*
X88482501Y-69175996D02*
X88381486Y-69277012D01*
X88381486Y-69277012D02*
X88229963Y-69327519D01*
X88229963Y-69327519D02*
X88128948Y-69327519D01*
X88128948Y-69327519D02*
X87977425Y-69277012D01*
X87977425Y-69277012D02*
X87724887Y-69125489D01*
X87724887Y-69125489D02*
X87573364Y-69074981D01*
X87573364Y-69074981D02*
X87472349Y-69074981D01*
X87472349Y-69074981D02*
X87320826Y-69125489D01*
X87320826Y-69125489D02*
X87219811Y-69226504D01*
X87219811Y-69226504D02*
X87169303Y-69378027D01*
X87169303Y-69378027D02*
X87169303Y-69479042D01*
X87169303Y-69479042D02*
X87219811Y-69630565D01*
X87219811Y-69630565D02*
X87472349Y-69883103D01*
X87472349Y-69883103D02*
X87674379Y-69984118D01*
X88583516Y-69984118D02*
X88937070Y-70337672D01*
X89644177Y-69933610D02*
X89139100Y-69428534D01*
X89139100Y-69428534D02*
X88078440Y-70489194D01*
X88078440Y-70489194D02*
X88583516Y-70994271D01*
X90603822Y-70893256D02*
X90098745Y-70388179D01*
X90098745Y-70388179D02*
X89038085Y-71448839D01*
X90401791Y-71802393D02*
X90755345Y-72155946D01*
X91462451Y-71751885D02*
X90957375Y-71246809D01*
X90957375Y-71246809D02*
X89896715Y-72307469D01*
X89896715Y-72307469D02*
X90401791Y-72812546D01*
X92422096Y-72913561D02*
X92422096Y-72812546D01*
X92422096Y-72812546D02*
X92321081Y-72610515D01*
X92321081Y-72610515D02*
X92220066Y-72509500D01*
X92220066Y-72509500D02*
X92018035Y-72408485D01*
X92018035Y-72408485D02*
X91816005Y-72408485D01*
X91816005Y-72408485D02*
X91664482Y-72458992D01*
X91664482Y-72458992D02*
X91411944Y-72610515D01*
X91411944Y-72610515D02*
X91260421Y-72762038D01*
X91260421Y-72762038D02*
X91108898Y-73014576D01*
X91108898Y-73014576D02*
X91058391Y-73166099D01*
X91058391Y-73166099D02*
X91058391Y-73368130D01*
X91058391Y-73368130D02*
X91159406Y-73570160D01*
X91159406Y-73570160D02*
X91260421Y-73671175D01*
X91260421Y-73671175D02*
X91462452Y-73772191D01*
X91462452Y-73772191D02*
X91563467Y-73772191D01*
X91765497Y-74176252D02*
X92371589Y-74782343D01*
X93129203Y-73418637D02*
X92068543Y-74479297D01*
X91528557Y-69513953D02*
X91730587Y-69614968D01*
X91730587Y-69614968D02*
X91831603Y-69614968D01*
X91831603Y-69614968D02*
X91983126Y-69564460D01*
X91983126Y-69564460D02*
X92134648Y-69412937D01*
X92134648Y-69412937D02*
X92185156Y-69261415D01*
X92185156Y-69261415D02*
X92185156Y-69160399D01*
X92185156Y-69160399D02*
X92134648Y-69008876D01*
X92134648Y-69008876D02*
X91730587Y-68604815D01*
X91730587Y-68604815D02*
X90669927Y-69665476D01*
X90669927Y-69665476D02*
X91023481Y-70019029D01*
X91023481Y-70019029D02*
X91175004Y-70069537D01*
X91175004Y-70069537D02*
X91276019Y-70069537D01*
X91276019Y-70069537D02*
X91427542Y-70019029D01*
X91427542Y-70019029D02*
X91528557Y-69918014D01*
X91528557Y-69918014D02*
X91579065Y-69766491D01*
X91579065Y-69766491D02*
X91579065Y-69665476D01*
X91579065Y-69665476D02*
X91528557Y-69513953D01*
X91528557Y-69513953D02*
X91175004Y-69160399D01*
X91579065Y-70574613D02*
X92185156Y-71180704D01*
X92942771Y-69816998D02*
X91882110Y-70877659D01*
X78795762Y-103189425D02*
X78873145Y-103254356D01*
X78873145Y-103254356D02*
X79092840Y-103306837D01*
X79092840Y-103306837D02*
X79235154Y-103294386D01*
X79235154Y-103294386D02*
X79442399Y-103204553D01*
X79442399Y-103204553D02*
X79572261Y-103049789D01*
X79572261Y-103049789D02*
X79630967Y-102901250D01*
X79630967Y-102901250D02*
X79677222Y-102610397D01*
X79677222Y-102610397D02*
X79658546Y-102396927D01*
X79658546Y-102396927D02*
X79562488Y-102118525D01*
X79562488Y-102118525D02*
X79478880Y-101982437D01*
X79478880Y-101982437D02*
X79324116Y-101852574D01*
X79324116Y-101852574D02*
X79104420Y-101800094D01*
X79104420Y-101800094D02*
X78962107Y-101812545D01*
X78962107Y-101812545D02*
X78754862Y-101902378D01*
X78754862Y-101902378D02*
X78689930Y-101979760D01*
X77752442Y-101918377D02*
X77467815Y-101943278D01*
X77467815Y-101943278D02*
X77331726Y-102026886D01*
X77331726Y-102026886D02*
X77201864Y-102181650D01*
X77201864Y-102181650D02*
X77155609Y-102472503D01*
X77155609Y-102472503D02*
X77199186Y-102970600D01*
X77199186Y-102970600D02*
X77295245Y-103249002D01*
X77295245Y-103249002D02*
X77450009Y-103378865D01*
X77450009Y-103378865D02*
X77598548Y-103437570D01*
X77598548Y-103437570D02*
X77883175Y-103412669D01*
X77883175Y-103412669D02*
X78019263Y-103329061D01*
X78019263Y-103329061D02*
X78149126Y-103174297D01*
X78149126Y-103174297D02*
X78195381Y-102883444D01*
X78195381Y-102883444D02*
X78151803Y-102385347D01*
X78151803Y-102385347D02*
X78055745Y-102106945D01*
X78055745Y-102106945D02*
X77900981Y-101977083D01*
X77900981Y-101977083D02*
X77752442Y-101918377D01*
X76602353Y-103524726D02*
X76471619Y-102030434D01*
X76471619Y-102030434D02*
X75748472Y-103599431D01*
X75748472Y-103599431D02*
X75617738Y-102105139D01*
X75119640Y-102148717D02*
X74265759Y-102223422D01*
X74823434Y-103680362D02*
X74692700Y-102186069D01*
X73044515Y-103835997D02*
X73480358Y-103080851D01*
X73898396Y-103761292D02*
X73767662Y-102267000D01*
X73767662Y-102267000D02*
X73198408Y-102316803D01*
X73198408Y-102316803D02*
X73062320Y-102400411D01*
X73062320Y-102400411D02*
X72997389Y-102477793D01*
X72997389Y-102477793D02*
X72938683Y-102626332D01*
X72938683Y-102626332D02*
X72957359Y-102839802D01*
X72957359Y-102839802D02*
X73040966Y-102975890D01*
X73040966Y-102975890D02*
X73118349Y-103040822D01*
X73118349Y-103040822D02*
X73266888Y-103099527D01*
X73266888Y-103099527D02*
X73836142Y-103049724D01*
X71988743Y-102422635D02*
X71704116Y-102447537D01*
X71704116Y-102447537D02*
X71568028Y-102531144D01*
X71568028Y-102531144D02*
X71438165Y-102685909D01*
X71438165Y-102685909D02*
X71391910Y-102976761D01*
X71391910Y-102976761D02*
X71435488Y-103474858D01*
X71435488Y-103474858D02*
X71531546Y-103753260D01*
X71531546Y-103753260D02*
X71686311Y-103883123D01*
X71686311Y-103883123D02*
X71834850Y-103941829D01*
X71834850Y-103941829D02*
X72119477Y-103916927D01*
X72119477Y-103916927D02*
X72255565Y-103833320D01*
X72255565Y-103833320D02*
X72385427Y-103678555D01*
X72385427Y-103678555D02*
X72431683Y-103387703D01*
X72431683Y-103387703D02*
X72388105Y-102889605D01*
X72388105Y-102889605D02*
X72292046Y-102611204D01*
X72292046Y-102611204D02*
X72137282Y-102481341D01*
X72137282Y-102481341D02*
X71988743Y-102422635D01*
X70127087Y-104091239D02*
X70838654Y-104028985D01*
X70838654Y-104028985D02*
X70707921Y-102534692D01*
X83548722Y-103835409D02*
X82694841Y-103910114D01*
X83252515Y-105367054D02*
X83121781Y-103872762D01*
X82327477Y-105447984D02*
X82196743Y-103953692D01*
X82258997Y-104665259D02*
X81405116Y-104739964D01*
X81473596Y-105522689D02*
X81342862Y-104028397D01*
X80631294Y-104090651D02*
X80737126Y-105300316D01*
X80737126Y-105300316D02*
X80678420Y-105448855D01*
X80678420Y-105448855D02*
X80613489Y-105526237D01*
X80613489Y-105526237D02*
X80477401Y-105609845D01*
X80477401Y-105609845D02*
X80192774Y-105634746D01*
X80192774Y-105634746D02*
X80044235Y-105576040D01*
X80044235Y-105576040D02*
X79966853Y-105511109D01*
X79966853Y-105511109D02*
X79883245Y-105375021D01*
X79883245Y-105375021D02*
X79777413Y-104165356D01*
X79196579Y-105721902D02*
X79065845Y-104227610D01*
X79065845Y-104227610D02*
X78661129Y-105338539D01*
X78661129Y-105338539D02*
X78069650Y-104314766D01*
X78069650Y-104314766D02*
X78200384Y-105809058D01*
X76922239Y-105132165D02*
X76714994Y-105221998D01*
X76714994Y-105221998D02*
X76650063Y-105299380D01*
X76650063Y-105299380D02*
X76591357Y-105447919D01*
X76591357Y-105447919D02*
X76610033Y-105661390D01*
X76610033Y-105661390D02*
X76693641Y-105797478D01*
X76693641Y-105797478D02*
X76771023Y-105862409D01*
X76771023Y-105862409D02*
X76919562Y-105921115D01*
X76919562Y-105921115D02*
X77488816Y-105871312D01*
X77488816Y-105871312D02*
X77358082Y-104377020D01*
X77358082Y-104377020D02*
X76859985Y-104420598D01*
X76859985Y-104420598D02*
X76723897Y-104504205D01*
X76723897Y-104504205D02*
X76658965Y-104581587D01*
X76658965Y-104581587D02*
X76600259Y-104730126D01*
X76600259Y-104730126D02*
X76612710Y-104872440D01*
X76612710Y-104872440D02*
X76696318Y-105008528D01*
X76696318Y-105008528D02*
X76773700Y-105073459D01*
X76773700Y-105073459D02*
X76922239Y-105132165D01*
X76922239Y-105132165D02*
X77420336Y-105088587D01*
X75944721Y-105432791D02*
X74806212Y-105532398D01*
X73577871Y-105424760D02*
X74075968Y-105381182D01*
X74144448Y-106163906D02*
X74013714Y-104669614D01*
X74013714Y-104669614D02*
X73302147Y-104731868D01*
X72863626Y-106275964D02*
X72732893Y-104781671D01*
X72152058Y-106338218D02*
X72021325Y-104843926D01*
X72021325Y-104843926D02*
X71298177Y-106412923D01*
X71298177Y-106412923D02*
X71167444Y-104918631D01*
X69679377Y-105120521D02*
X69815465Y-105036913D01*
X69815465Y-105036913D02*
X70028935Y-105018237D01*
X70028935Y-105018237D02*
X70248631Y-105070718D01*
X70248631Y-105070718D02*
X70403395Y-105200580D01*
X70403395Y-105200580D02*
X70487003Y-105336668D01*
X70487003Y-105336668D02*
X70583061Y-105615070D01*
X70583061Y-105615070D02*
X70601737Y-105828540D01*
X70601737Y-105828540D02*
X70555482Y-106119393D01*
X70555482Y-106119393D02*
X70496776Y-106267932D01*
X70496776Y-106267932D02*
X70366913Y-106422696D01*
X70366913Y-106422696D02*
X70159669Y-106512529D01*
X70159669Y-106512529D02*
X70017355Y-106524980D01*
X70017355Y-106524980D02*
X69797659Y-106472499D01*
X69797659Y-106472499D02*
X69720277Y-106407568D01*
X69720277Y-106407568D02*
X69676699Y-105909471D01*
X69676699Y-105909471D02*
X69961326Y-105884569D01*
X69023838Y-105823186D02*
X68525740Y-105866764D01*
X68380749Y-106668164D02*
X69092317Y-106605910D01*
X69092317Y-106605910D02*
X68961584Y-105111618D01*
X68961584Y-105111618D02*
X68250016Y-105173872D01*
X66886457Y-106798898D02*
X67322301Y-106043753D01*
X67740338Y-106724193D02*
X67609605Y-105229901D01*
X67609605Y-105229901D02*
X67040351Y-105279704D01*
X67040351Y-105279704D02*
X66904263Y-105363312D01*
X66904263Y-105363312D02*
X66839331Y-105440694D01*
X66839331Y-105440694D02*
X66780625Y-105589233D01*
X66780625Y-105589233D02*
X66799302Y-105802703D01*
X66799302Y-105802703D02*
X66882909Y-105938791D01*
X66882909Y-105938791D02*
X66960291Y-106003723D01*
X66960291Y-106003723D02*
X67108830Y-106062429D01*
X67108830Y-106062429D02*
X67678084Y-106012625D01*
X82512945Y-59084128D02*
X82714975Y-59185143D01*
X82714975Y-59185143D02*
X82815991Y-59185143D01*
X82815991Y-59185143D02*
X82967513Y-59134635D01*
X82967513Y-59134635D02*
X83119036Y-58983112D01*
X83119036Y-58983112D02*
X83169544Y-58831589D01*
X83169544Y-58831589D02*
X83169544Y-58730574D01*
X83169544Y-58730574D02*
X83119036Y-58579051D01*
X83119036Y-58579051D02*
X82714975Y-58174990D01*
X82714975Y-58174990D02*
X81654315Y-59235650D01*
X81654315Y-59235650D02*
X82007869Y-59589204D01*
X82007869Y-59589204D02*
X82159391Y-59639711D01*
X82159391Y-59639711D02*
X82260407Y-59639711D01*
X82260407Y-59639711D02*
X82411930Y-59589204D01*
X82411930Y-59589204D02*
X82512945Y-59488189D01*
X82512945Y-59488189D02*
X82563452Y-59336666D01*
X82563452Y-59336666D02*
X82563452Y-59235650D01*
X82563452Y-59235650D02*
X82512945Y-59084128D01*
X82512945Y-59084128D02*
X82159391Y-58730574D01*
X82563452Y-60144788D02*
X83169544Y-60750879D01*
X83927158Y-59387173D02*
X82866498Y-60447834D01*
X85896956Y-61559001D02*
X85896956Y-61457986D01*
X85896956Y-61457986D02*
X85795940Y-61255955D01*
X85795940Y-61255955D02*
X85694925Y-61154940D01*
X85694925Y-61154940D02*
X85492895Y-61053925D01*
X85492895Y-61053925D02*
X85290864Y-61053925D01*
X85290864Y-61053925D02*
X85139341Y-61104432D01*
X85139341Y-61104432D02*
X84886803Y-61255955D01*
X84886803Y-61255955D02*
X84735280Y-61407478D01*
X84735280Y-61407478D02*
X84583757Y-61660016D01*
X84583757Y-61660016D02*
X84533250Y-61811539D01*
X84533250Y-61811539D02*
X84533250Y-62013570D01*
X84533250Y-62013570D02*
X84634265Y-62215600D01*
X84634265Y-62215600D02*
X84735280Y-62316616D01*
X84735280Y-62316616D02*
X84937311Y-62417631D01*
X84937311Y-62417631D02*
X85038326Y-62417631D01*
X86957616Y-62417631D02*
X86452540Y-61912554D01*
X86452540Y-61912554D02*
X85391879Y-62973215D01*
X86755586Y-63326768D02*
X87109139Y-63680322D01*
X87816246Y-63276261D02*
X87311169Y-62771184D01*
X87311169Y-62771184D02*
X86250509Y-63831845D01*
X86250509Y-63831845D02*
X86755586Y-64336921D01*
X87917261Y-63983368D02*
X88422337Y-64488444D01*
X88119292Y-63579306D02*
X87412185Y-64993520D01*
X87412185Y-64993520D02*
X88826398Y-64286413D01*
X89786043Y-65246058D02*
X88927413Y-65397581D01*
X89179952Y-64639966D02*
X88119291Y-65700627D01*
X88119291Y-65700627D02*
X88523352Y-66104688D01*
X88523352Y-66104688D02*
X88674875Y-66155195D01*
X88674875Y-66155195D02*
X88775891Y-66155195D01*
X88775891Y-66155195D02*
X88927413Y-66104688D01*
X88927413Y-66104688D02*
X89078936Y-65953165D01*
X89078936Y-65953165D02*
X89129444Y-65801642D01*
X89129444Y-65801642D02*
X89129444Y-65700627D01*
X89129444Y-65700627D02*
X89078936Y-65549104D01*
X89078936Y-65549104D02*
X88674875Y-65145043D01*
X93613608Y-83094929D02*
X92136396Y-82834457D01*
X92839830Y-82958491D02*
X92690989Y-83802612D01*
X93464766Y-83939050D02*
X91987555Y-83678578D01*
X92931075Y-84497720D02*
X92807040Y-85201154D01*
X93377942Y-84431454D02*
X91813906Y-84663386D01*
X91813906Y-84663386D02*
X93204294Y-85416262D01*
X93117470Y-85908666D02*
X91640258Y-85648193D01*
X91640258Y-85648193D02*
X92968629Y-86752786D01*
X92968629Y-86752786D02*
X91491417Y-86492314D01*
X92844594Y-87456221D02*
X91367383Y-87195749D01*
X91367383Y-87195749D02*
X91305365Y-87547466D01*
X91305365Y-87547466D02*
X91338498Y-87770899D01*
X91338498Y-87770899D02*
X91454378Y-87936393D01*
X91454378Y-87936393D02*
X91582662Y-88031543D01*
X91582662Y-88031543D02*
X91851632Y-88151501D01*
X91851632Y-88151501D02*
X92062662Y-88188711D01*
X92062662Y-88188711D02*
X92356439Y-88167981D01*
X92356439Y-88167981D02*
X92509529Y-88122445D01*
X92509529Y-88122445D02*
X92675023Y-88006565D01*
X92675023Y-88006565D02*
X92782577Y-87807938D01*
X92782577Y-87807938D02*
X92844594Y-87456221D01*
X96506578Y-80595024D02*
X96630613Y-79891590D01*
X96630613Y-79891590D02*
X95153401Y-79631117D01*
X95645977Y-80950990D02*
X95559153Y-81443394D01*
X96295720Y-81790862D02*
X96419754Y-81087428D01*
X96419754Y-81087428D02*
X94942543Y-80826956D01*
X94942543Y-80826956D02*
X94818508Y-81530390D01*
X95323487Y-82779919D02*
X95410311Y-82287515D01*
X96184089Y-82423953D02*
X94706877Y-82163481D01*
X94706877Y-82163481D02*
X94582843Y-82866915D01*
X94520826Y-83218632D02*
X94371984Y-84062752D01*
X95923617Y-83901164D02*
X94446405Y-83640692D01*
X95199625Y-84716401D02*
X95001170Y-85841896D01*
X95291041Y-87488678D02*
X94674431Y-86872240D01*
X95439882Y-86644557D02*
X93962671Y-86384085D01*
X93962671Y-86384085D02*
X93863443Y-86946832D01*
X93863443Y-86946832D02*
X93908980Y-87099923D01*
X93908980Y-87099923D02*
X93966920Y-87182669D01*
X93966920Y-87182669D02*
X94095203Y-87277820D01*
X94095203Y-87277820D02*
X94306233Y-87315030D01*
X94306233Y-87315030D02*
X94459324Y-87269494D01*
X94459324Y-87269494D02*
X94542070Y-87211554D01*
X94542070Y-87211554D02*
X94637221Y-87083270D01*
X94637221Y-87083270D02*
X94736448Y-86520523D01*
X95179410Y-88121769D02*
X93702198Y-87861297D01*
X93512070Y-89350912D02*
X93466533Y-89197822D01*
X93466533Y-89197822D02*
X93503743Y-88986792D01*
X93503743Y-88986792D02*
X93611297Y-88788165D01*
X93611297Y-88788165D02*
X93776791Y-88672285D01*
X93776791Y-88672285D02*
X93929881Y-88626748D01*
X93929881Y-88626748D02*
X94223658Y-88606019D01*
X94223658Y-88606019D02*
X94434688Y-88643229D01*
X94434688Y-88643229D02*
X94703659Y-88763186D01*
X94703659Y-88763186D02*
X94831942Y-88858336D01*
X94831942Y-88858336D02*
X94947822Y-89023830D01*
X94947822Y-89023830D02*
X94980955Y-89247264D01*
X94980955Y-89247264D02*
X94956148Y-89387951D01*
X94956148Y-89387951D02*
X94848594Y-89586577D01*
X94848594Y-89586577D02*
X94765848Y-89644517D01*
X94765848Y-89644517D02*
X94273444Y-89557693D01*
X94273444Y-89557693D02*
X94323057Y-89276320D01*
X94794903Y-90302415D02*
X93317692Y-90041943D01*
X94021126Y-90165977D02*
X93872285Y-91010098D01*
X94646062Y-91146536D02*
X93168850Y-90886064D01*
X93082026Y-91378468D02*
X92933185Y-92222589D01*
X94484817Y-92061001D02*
X93007606Y-91800528D01*
G36*
X86543683Y-100082973D02*
G01*
X86871120Y-100410410D01*
X86991767Y-100611488D01*
X86991767Y-100747628D01*
X86960154Y-100842466D01*
X86808201Y-100994419D01*
X86713366Y-101026032D01*
X86577222Y-101026032D01*
X86376146Y-100905386D01*
X86048708Y-100577948D01*
X85928061Y-100376870D01*
X85928061Y-100240729D01*
X85959673Y-100145890D01*
X86111626Y-99993938D01*
X86206465Y-99962326D01*
X86342605Y-99962326D01*
X86543683Y-100082973D01*
G37*
G36*
X84994747Y-98382515D02*
G01*
X84721790Y-98655471D01*
X84626955Y-98687084D01*
X84574623Y-98687084D01*
X84479784Y-98655471D01*
X84378338Y-98554025D01*
X84346726Y-98459189D01*
X84346726Y-98406855D01*
X84378338Y-98312019D01*
X84651295Y-98039063D01*
X84994747Y-98382515D01*
G37*
G36*
X90786323Y-95840332D02*
G01*
X91113761Y-96167770D01*
X91234407Y-96368847D01*
X91234407Y-96504987D01*
X91202794Y-96599826D01*
X91050842Y-96751778D01*
X90956003Y-96783391D01*
X90819863Y-96783391D01*
X90618786Y-96662744D01*
X90291347Y-96335306D01*
X90170702Y-96134229D01*
X90170702Y-95998088D01*
X90202314Y-95903250D01*
X90354267Y-95751297D01*
X90449106Y-95719685D01*
X90585245Y-95719685D01*
X90786323Y-95840332D01*
G37*
G36*
X88691218Y-95090104D02*
G01*
X88480459Y-95300863D01*
X88269700Y-94879345D01*
X88691218Y-95090104D01*
G37*
G36*
X90045509Y-94341905D02*
G01*
X89772552Y-94614861D01*
X89677717Y-94646474D01*
X89625385Y-94646474D01*
X89530546Y-94614861D01*
X89429101Y-94513416D01*
X89397489Y-94418577D01*
X89397489Y-94377315D01*
X89471782Y-94228728D01*
X89702057Y-93998453D01*
X90045509Y-94341905D01*
G37*
G36*
X89489925Y-93786321D02*
G01*
X89267477Y-94008769D01*
X89172638Y-94040382D01*
X89120309Y-94040382D01*
X89025469Y-94008769D01*
X88974532Y-93957831D01*
X88942920Y-93862995D01*
X88942920Y-93810661D01*
X88974532Y-93715825D01*
X89196981Y-93493377D01*
X89489925Y-93786321D01*
G37*
G36*
X92413079Y-96049509D02*
G01*
X85576030Y-102886558D01*
X84038272Y-101348800D01*
X84368252Y-101348800D01*
X84368252Y-101407326D01*
X84390649Y-101461398D01*
X84409304Y-101484129D01*
X85469964Y-102544789D01*
X85475810Y-102549587D01*
X85477632Y-102551939D01*
X85481070Y-102553903D01*
X85492695Y-102563444D01*
X85511127Y-102571078D01*
X85528446Y-102580975D01*
X85537930Y-102582180D01*
X85546767Y-102585841D01*
X85566717Y-102585841D01*
X85586506Y-102588357D01*
X85595731Y-102585841D01*
X85605293Y-102585841D01*
X85623726Y-102578205D01*
X85642972Y-102572957D01*
X85650529Y-102567103D01*
X85659366Y-102563444D01*
X85673477Y-102549332D01*
X85689246Y-102537121D01*
X85693988Y-102528821D01*
X85700751Y-102522059D01*
X85708387Y-102503621D01*
X85718282Y-102486306D01*
X85719487Y-102476823D01*
X85723148Y-102467986D01*
X85723148Y-102448034D01*
X85725664Y-102428246D01*
X85723148Y-102413417D01*
X85723148Y-102409460D01*
X85722010Y-102406714D01*
X85720745Y-102399255D01*
X85414794Y-101277436D01*
X86076056Y-101938698D01*
X86098787Y-101957353D01*
X86152859Y-101979750D01*
X86211385Y-101979750D01*
X86265457Y-101957353D01*
X86306843Y-101915967D01*
X86329240Y-101861895D01*
X86329240Y-101803369D01*
X86306843Y-101749297D01*
X86288188Y-101726566D01*
X85227527Y-100665905D01*
X85221680Y-100661106D01*
X85219859Y-100658755D01*
X85216420Y-100656790D01*
X85204796Y-100647250D01*
X85186367Y-100639616D01*
X85169045Y-100629718D01*
X85159557Y-100628511D01*
X85150724Y-100624853D01*
X85130776Y-100624853D01*
X85110985Y-100622337D01*
X85101760Y-100624853D01*
X85092198Y-100624853D01*
X85073765Y-100632487D01*
X85054519Y-100637737D01*
X85046960Y-100643590D01*
X85038126Y-100647250D01*
X85024018Y-100661357D01*
X85008245Y-100673573D01*
X85003500Y-100681875D01*
X84996740Y-100688636D01*
X84989106Y-100707064D01*
X84979208Y-100724387D01*
X84978001Y-100733874D01*
X84974343Y-100742708D01*
X84974343Y-100762655D01*
X84971827Y-100782447D01*
X84974343Y-100797276D01*
X84974343Y-100801234D01*
X84975480Y-100803980D01*
X84976746Y-100811439D01*
X85282696Y-101933257D01*
X84621436Y-101271997D01*
X84598705Y-101253342D01*
X84544633Y-101230945D01*
X84486107Y-101230945D01*
X84432035Y-101253342D01*
X84390649Y-101294728D01*
X84368252Y-101348800D01*
X84038272Y-101348800D01*
X82359932Y-99670460D01*
X82590564Y-99439828D01*
X82885088Y-99439828D01*
X82895223Y-99497471D01*
X82926644Y-99546847D01*
X82974569Y-99580441D01*
X83002511Y-99589603D01*
X83869008Y-99782158D01*
X84343198Y-100256348D01*
X84365928Y-100275003D01*
X84420001Y-100297400D01*
X84478527Y-100297400D01*
X84532599Y-100275003D01*
X84573985Y-100233617D01*
X84581122Y-100216387D01*
X85628061Y-100216387D01*
X85628061Y-100418418D01*
X85630943Y-100447682D01*
X85635210Y-100457984D01*
X85636852Y-100469016D01*
X85649437Y-100495592D01*
X85800960Y-100748130D01*
X85804016Y-100752247D01*
X85804863Y-100754291D01*
X85811884Y-100762846D01*
X85818487Y-100771741D01*
X85820265Y-100773058D01*
X85823518Y-100777022D01*
X86177071Y-101130575D01*
X86181036Y-101133829D01*
X86182352Y-101135605D01*
X86191231Y-101142196D01*
X86199801Y-101149230D01*
X86201846Y-101150077D01*
X86205963Y-101153133D01*
X86458500Y-101304656D01*
X86485077Y-101317241D01*
X86496107Y-101318882D01*
X86506411Y-101323150D01*
X86535675Y-101326032D01*
X86737706Y-101326032D01*
X86752517Y-101324573D01*
X86756467Y-101324854D01*
X86761661Y-101323672D01*
X86766970Y-101323150D01*
X86770632Y-101321632D01*
X86785140Y-101318334D01*
X86936663Y-101267827D01*
X86963514Y-101255838D01*
X86967584Y-101252307D01*
X86972564Y-101250245D01*
X86995295Y-101231590D01*
X87197325Y-101029560D01*
X87215980Y-101006829D01*
X87218042Y-101001849D01*
X87221573Y-100997779D01*
X87233561Y-100970928D01*
X87284069Y-100819406D01*
X87287368Y-100804896D01*
X87288885Y-100801235D01*
X87289407Y-100795926D01*
X87290589Y-100790732D01*
X87290308Y-100786782D01*
X87291767Y-100771971D01*
X87291767Y-100569941D01*
X87288885Y-100540677D01*
X87284617Y-100530373D01*
X87282976Y-100519343D01*
X87270391Y-100492766D01*
X87118868Y-100240228D01*
X87115812Y-100236111D01*
X87114965Y-100234066D01*
X87107938Y-100225504D01*
X87101341Y-100216617D01*
X87099563Y-100215299D01*
X87096310Y-100211336D01*
X86742757Y-99857783D01*
X86738793Y-99854530D01*
X86737476Y-99852752D01*
X86728581Y-99846149D01*
X86720026Y-99839128D01*
X86717982Y-99838281D01*
X86713865Y-99835225D01*
X86626928Y-99783063D01*
X87247187Y-99783063D01*
X87247187Y-99841589D01*
X87269584Y-99895661D01*
X87310970Y-99937047D01*
X87365042Y-99959444D01*
X87423568Y-99959444D01*
X87477640Y-99937047D01*
X87500371Y-99918392D01*
X88308493Y-99110270D01*
X88327148Y-99087539D01*
X88349545Y-99033467D01*
X88349545Y-98974941D01*
X88327148Y-98920869D01*
X88285762Y-98879483D01*
X88231690Y-98857086D01*
X88173164Y-98857086D01*
X88119092Y-98879483D01*
X88096361Y-98898138D01*
X87288239Y-99706260D01*
X87269584Y-99728991D01*
X87247187Y-99783063D01*
X86626928Y-99783063D01*
X86461326Y-99683702D01*
X86434750Y-99671117D01*
X86423718Y-99669475D01*
X86413416Y-99665208D01*
X86384152Y-99662326D01*
X86182122Y-99662326D01*
X86167310Y-99663784D01*
X86163361Y-99663504D01*
X86158166Y-99664685D01*
X86152858Y-99665208D01*
X86149196Y-99666724D01*
X86134687Y-99670024D01*
X85983165Y-99720532D01*
X85956314Y-99732520D01*
X85952243Y-99736050D01*
X85947264Y-99738113D01*
X85924533Y-99756768D01*
X85722502Y-99958798D01*
X85703847Y-99981528D01*
X85701783Y-99986508D01*
X85698253Y-99990580D01*
X85686265Y-100017430D01*
X85635758Y-100168953D01*
X85632458Y-100183465D01*
X85630943Y-100187123D01*
X85630420Y-100192425D01*
X85629238Y-100197627D01*
X85629519Y-100201581D01*
X85628061Y-100216387D01*
X84581122Y-100216387D01*
X84596382Y-100179545D01*
X84596382Y-100121019D01*
X84573985Y-100066946D01*
X84555330Y-100044216D01*
X84081140Y-99570026D01*
X83888585Y-98703528D01*
X83879423Y-98675586D01*
X83845829Y-98627661D01*
X83796453Y-98596240D01*
X83738810Y-98586105D01*
X83681675Y-98598802D01*
X83633750Y-98632396D01*
X83602329Y-98681772D01*
X83592194Y-98739415D01*
X83595729Y-98768608D01*
X83746626Y-99447644D01*
X83067591Y-99296747D01*
X83038398Y-99293212D01*
X82980755Y-99303347D01*
X82931379Y-99334768D01*
X82897785Y-99382693D01*
X82885088Y-99439828D01*
X82590564Y-99439828D01*
X83647877Y-98382515D01*
X84046726Y-98382515D01*
X84046726Y-98483530D01*
X84048184Y-98498341D01*
X84047904Y-98502291D01*
X84049085Y-98507485D01*
X84049608Y-98512794D01*
X84051125Y-98516456D01*
X84054424Y-98530964D01*
X84104931Y-98682487D01*
X84116920Y-98709338D01*
X84120450Y-98713408D01*
X84122513Y-98718388D01*
X84141168Y-98741119D01*
X84292691Y-98892642D01*
X84315422Y-98911297D01*
X84320401Y-98913359D01*
X84324472Y-98916890D01*
X84351323Y-98928878D01*
X84502845Y-98979386D01*
X84517354Y-98982685D01*
X84521016Y-98984202D01*
X84526324Y-98984724D01*
X84531519Y-98985906D01*
X84535468Y-98985625D01*
X84550280Y-98987084D01*
X84651295Y-98987084D01*
X84666106Y-98985625D01*
X84670056Y-98985906D01*
X84675250Y-98984724D01*
X84680559Y-98984202D01*
X84684221Y-98982684D01*
X84698729Y-98979386D01*
X84850252Y-98928879D01*
X84853609Y-98927379D01*
X84958145Y-99519751D01*
X84966069Y-99548068D01*
X84997523Y-99597425D01*
X85045469Y-99630988D01*
X85102611Y-99643648D01*
X85160249Y-99633477D01*
X85209605Y-99602023D01*
X85243168Y-99554077D01*
X85255828Y-99496935D01*
X85253581Y-99467615D01*
X85115631Y-98685894D01*
X85206879Y-98594647D01*
X85605889Y-98993657D01*
X85628620Y-99012312D01*
X85682692Y-99034709D01*
X85741218Y-99034709D01*
X85795291Y-99012312D01*
X85836676Y-98970927D01*
X85859073Y-98916854D01*
X85859073Y-98858328D01*
X85836676Y-98804256D01*
X85818021Y-98781525D01*
X84757361Y-97720865D01*
X84734635Y-97702214D01*
X84734631Y-97702210D01*
X84680558Y-97679813D01*
X84622032Y-97679813D01*
X84567960Y-97702210D01*
X84545229Y-97720865D01*
X84141168Y-98124926D01*
X84122513Y-98147657D01*
X84120450Y-98152636D01*
X84116920Y-98156707D01*
X84104931Y-98183558D01*
X84054424Y-98335081D01*
X84051125Y-98349588D01*
X84049608Y-98353251D01*
X84049085Y-98358559D01*
X84047904Y-98363754D01*
X84048184Y-98367703D01*
X84046726Y-98382515D01*
X83647877Y-98382515D01*
X84687293Y-97343099D01*
X84958746Y-97343099D01*
X84958746Y-97401625D01*
X84981143Y-97455697D01*
X85022529Y-97497083D01*
X85076601Y-97519480D01*
X85135127Y-97519480D01*
X85189199Y-97497083D01*
X85211930Y-97478428D01*
X85610940Y-97079418D01*
X85903884Y-97372362D01*
X85656397Y-97619850D01*
X85637742Y-97642581D01*
X85615345Y-97696653D01*
X85615345Y-97755179D01*
X85637742Y-97809252D01*
X85679128Y-97850637D01*
X85733200Y-97873034D01*
X85791726Y-97873034D01*
X85845799Y-97850637D01*
X85868529Y-97831982D01*
X86116016Y-97584494D01*
X86459468Y-97927946D01*
X86060458Y-98326956D01*
X86041803Y-98349687D01*
X86019406Y-98403759D01*
X86019406Y-98462285D01*
X86041803Y-98516357D01*
X86083189Y-98557743D01*
X86137261Y-98580140D01*
X86195787Y-98580140D01*
X86249859Y-98557743D01*
X86272590Y-98539088D01*
X86777666Y-98034012D01*
X86796321Y-98011282D01*
X86818718Y-97957209D01*
X86818718Y-97914281D01*
X87802771Y-97914281D01*
X87802771Y-97972807D01*
X87825168Y-98026879D01*
X87866554Y-98068265D01*
X87920626Y-98090662D01*
X87979152Y-98090662D01*
X88033224Y-98068265D01*
X88055955Y-98049610D01*
X88454965Y-97650600D01*
X88747909Y-97943544D01*
X88500422Y-98191031D01*
X88481767Y-98213762D01*
X88459370Y-98267834D01*
X88459370Y-98326360D01*
X88481767Y-98380432D01*
X88523153Y-98421818D01*
X88577225Y-98444215D01*
X88635751Y-98444215D01*
X88689823Y-98421818D01*
X88712554Y-98403163D01*
X88960041Y-98155676D01*
X89409559Y-98605194D01*
X89432290Y-98623849D01*
X89486362Y-98646246D01*
X89544888Y-98646246D01*
X89598961Y-98623849D01*
X89640346Y-98582464D01*
X89662743Y-98528391D01*
X89662743Y-98469865D01*
X89640346Y-98415793D01*
X89621691Y-98393062D01*
X88561031Y-97332402D01*
X88538300Y-97313747D01*
X88484228Y-97291350D01*
X88425702Y-97291350D01*
X88371629Y-97313747D01*
X88348899Y-97332402D01*
X87843823Y-97837478D01*
X87825168Y-97860209D01*
X87802771Y-97914281D01*
X86818718Y-97914281D01*
X86818718Y-97898683D01*
X86796321Y-97844611D01*
X86777666Y-97821880D01*
X85717006Y-96761220D01*
X85694275Y-96742565D01*
X85640203Y-96720168D01*
X85581677Y-96720168D01*
X85527604Y-96742565D01*
X85504874Y-96761220D01*
X84999798Y-97266296D01*
X84981143Y-97289027D01*
X84958746Y-97343099D01*
X84687293Y-97343099D01*
X85545922Y-96484470D01*
X85817375Y-96484470D01*
X85817375Y-96542996D01*
X85839772Y-96597068D01*
X85881158Y-96638454D01*
X85935230Y-96660851D01*
X85993756Y-96660851D01*
X86047828Y-96638454D01*
X86070559Y-96619799D01*
X86267539Y-96422819D01*
X87222133Y-97377413D01*
X87244864Y-97396068D01*
X87298936Y-97418465D01*
X87357462Y-97418465D01*
X87411535Y-97396068D01*
X87452920Y-97354683D01*
X87475317Y-97300610D01*
X87475317Y-97242084D01*
X87452920Y-97188012D01*
X87434265Y-97165281D01*
X87274128Y-97005144D01*
X88711908Y-97005144D01*
X88711908Y-97063670D01*
X88734305Y-97117742D01*
X88775691Y-97159128D01*
X88829763Y-97181525D01*
X88888289Y-97181525D01*
X88942361Y-97159128D01*
X88965092Y-97140473D01*
X89364102Y-96741463D01*
X89657046Y-97034407D01*
X89409559Y-97281894D01*
X89390904Y-97304625D01*
X89368507Y-97358697D01*
X89368507Y-97417223D01*
X89390904Y-97471295D01*
X89432290Y-97512681D01*
X89486362Y-97535078D01*
X89544888Y-97535078D01*
X89598960Y-97512681D01*
X89621691Y-97494026D01*
X89869178Y-97246539D01*
X90318696Y-97696057D01*
X90341427Y-97714712D01*
X90395499Y-97737109D01*
X90454025Y-97737109D01*
X90508098Y-97714712D01*
X90549483Y-97673327D01*
X90571880Y-97619254D01*
X90571880Y-97560728D01*
X90549483Y-97506656D01*
X90530828Y-97483925D01*
X89470168Y-96423265D01*
X89447437Y-96404610D01*
X89393365Y-96382213D01*
X89334839Y-96382213D01*
X89280766Y-96404610D01*
X89258036Y-96423265D01*
X88752960Y-96928341D01*
X88734305Y-96951072D01*
X88711908Y-97005144D01*
X87274128Y-97005144D01*
X86479671Y-96210687D01*
X86676651Y-96013707D01*
X86695306Y-95990976D01*
X86717703Y-95936904D01*
X86717703Y-95878378D01*
X86699567Y-95834593D01*
X86743352Y-95852729D01*
X86801878Y-95852729D01*
X86855950Y-95830332D01*
X86878681Y-95811677D01*
X87075661Y-95614697D01*
X88030255Y-96569291D01*
X88052986Y-96587946D01*
X88107058Y-96610343D01*
X88165584Y-96610343D01*
X88219657Y-96587946D01*
X88261042Y-96546561D01*
X88283439Y-96492488D01*
X88283439Y-96433962D01*
X88261042Y-96379890D01*
X88242387Y-96357159D01*
X87287793Y-95402565D01*
X87484773Y-95205585D01*
X87503428Y-95182854D01*
X87525825Y-95128782D01*
X87525825Y-95070256D01*
X87503428Y-95016183D01*
X87462043Y-94974798D01*
X87407970Y-94952401D01*
X87349444Y-94952401D01*
X87295372Y-94974798D01*
X87272641Y-94993453D01*
X86666549Y-95599545D01*
X86647894Y-95622276D01*
X86625497Y-95676348D01*
X86625497Y-95734874D01*
X86643632Y-95778658D01*
X86599848Y-95760523D01*
X86541322Y-95760523D01*
X86487250Y-95782920D01*
X86464519Y-95801575D01*
X85858427Y-96407667D01*
X85839772Y-96430398D01*
X85817375Y-96484470D01*
X85545922Y-96484470D01*
X87505216Y-94525175D01*
X87785468Y-94525175D01*
X87786801Y-94543936D01*
X87785468Y-94562698D01*
X87788856Y-94572862D01*
X87789616Y-94583555D01*
X87800126Y-94611018D01*
X88507233Y-96025231D01*
X88522898Y-96050116D01*
X88567113Y-96088463D01*
X88622635Y-96106971D01*
X88681016Y-96102822D01*
X88733365Y-96076648D01*
X88771711Y-96032433D01*
X88790219Y-95976910D01*
X88789994Y-95973746D01*
X89870702Y-95973746D01*
X89870702Y-96175777D01*
X89873584Y-96205041D01*
X89877851Y-96215343D01*
X89879493Y-96226375D01*
X89892078Y-96252951D01*
X90043600Y-96505489D01*
X90046655Y-96509605D01*
X90047503Y-96511651D01*
X90054529Y-96520212D01*
X90061127Y-96529100D01*
X90062904Y-96530417D01*
X90066158Y-96534381D01*
X90419712Y-96887934D01*
X90423677Y-96891188D01*
X90424993Y-96892964D01*
X90433879Y-96899560D01*
X90442443Y-96906589D01*
X90444486Y-96907435D01*
X90448604Y-96910492D01*
X90701141Y-97062015D01*
X90727718Y-97074600D01*
X90738748Y-97076241D01*
X90749052Y-97080509D01*
X90778316Y-97083391D01*
X90980346Y-97083391D01*
X90995151Y-97081932D01*
X90999106Y-97082214D01*
X91004307Y-97081031D01*
X91009610Y-97080509D01*
X91013267Y-97078993D01*
X91027780Y-97075694D01*
X91179303Y-97025187D01*
X91206153Y-97013199D01*
X91210224Y-97009667D01*
X91215204Y-97007605D01*
X91237935Y-96988950D01*
X91439966Y-96786919D01*
X91458621Y-96764188D01*
X91460682Y-96759210D01*
X91464215Y-96755138D01*
X91476203Y-96728287D01*
X91526710Y-96576764D01*
X91530009Y-96562251D01*
X91531525Y-96558594D01*
X91532047Y-96553291D01*
X91533230Y-96548090D01*
X91532948Y-96544135D01*
X91534407Y-96529330D01*
X91534407Y-96327300D01*
X91531525Y-96298036D01*
X91527257Y-96287733D01*
X91525616Y-96276702D01*
X91513031Y-96250126D01*
X91361509Y-95997588D01*
X91358452Y-95993470D01*
X91357606Y-95991427D01*
X91350584Y-95982871D01*
X91343982Y-95973977D01*
X91342203Y-95972659D01*
X91338951Y-95968696D01*
X90985397Y-95615142D01*
X90981433Y-95611889D01*
X90980116Y-95610111D01*
X90971221Y-95603508D01*
X90962666Y-95596487D01*
X90960622Y-95595640D01*
X90956505Y-95592584D01*
X90703967Y-95441061D01*
X90677391Y-95428476D01*
X90666359Y-95426834D01*
X90656057Y-95422567D01*
X90626793Y-95419685D01*
X90424763Y-95419685D01*
X90409951Y-95421143D01*
X90406002Y-95420863D01*
X90400807Y-95422044D01*
X90395499Y-95422567D01*
X90391837Y-95424083D01*
X90377328Y-95427383D01*
X90225806Y-95477891D01*
X90198955Y-95489879D01*
X90194884Y-95493409D01*
X90189905Y-95495472D01*
X90167174Y-95514127D01*
X89965143Y-95716158D01*
X89946488Y-95738889D01*
X89944425Y-95743868D01*
X89940895Y-95747939D01*
X89928906Y-95774790D01*
X89878399Y-95926312D01*
X89875099Y-95940824D01*
X89873584Y-95944482D01*
X89873061Y-95949784D01*
X89871879Y-95954986D01*
X89872160Y-95958940D01*
X89870702Y-95973746D01*
X88789994Y-95973746D01*
X88786070Y-95918530D01*
X88775561Y-95891067D01*
X88621880Y-95583706D01*
X88974061Y-95231525D01*
X89281422Y-95385206D01*
X89308886Y-95395716D01*
X89367266Y-95399864D01*
X89422788Y-95381356D01*
X89467003Y-95343010D01*
X89493178Y-95290661D01*
X89497326Y-95232280D01*
X89478819Y-95176758D01*
X89440472Y-95132543D01*
X89415586Y-95116878D01*
X88001372Y-94409772D01*
X87973909Y-94399262D01*
X87963215Y-94398502D01*
X87953051Y-94395114D01*
X87934289Y-94396447D01*
X87915528Y-94395114D01*
X87905363Y-94398502D01*
X87894671Y-94399262D01*
X87877843Y-94407676D01*
X87860006Y-94413622D01*
X87851911Y-94420642D01*
X87842322Y-94425437D01*
X87829999Y-94439645D01*
X87815791Y-94451968D01*
X87810996Y-94461557D01*
X87803976Y-94469652D01*
X87798030Y-94487488D01*
X87789616Y-94504317D01*
X87788856Y-94515010D01*
X87785468Y-94525175D01*
X87505216Y-94525175D01*
X88244070Y-93786321D01*
X88642920Y-93786321D01*
X88642920Y-93887336D01*
X88644378Y-93902147D01*
X88644098Y-93906097D01*
X88645279Y-93911291D01*
X88645802Y-93916600D01*
X88647319Y-93920262D01*
X88650618Y-93934770D01*
X88701125Y-94086293D01*
X88713114Y-94113144D01*
X88716644Y-94117214D01*
X88718707Y-94122194D01*
X88737361Y-94144924D01*
X88838376Y-94245940D01*
X88861107Y-94264595D01*
X88866083Y-94266656D01*
X88870158Y-94270190D01*
X88897009Y-94282178D01*
X89048532Y-94332685D01*
X89063044Y-94335984D01*
X89066702Y-94337500D01*
X89072004Y-94338022D01*
X89077206Y-94339205D01*
X89081160Y-94338923D01*
X89095966Y-94340382D01*
X89097639Y-94340382D01*
X89097489Y-94341905D01*
X89097489Y-94442920D01*
X89098947Y-94457725D01*
X89098666Y-94461680D01*
X89099848Y-94466881D01*
X89100371Y-94472184D01*
X89101886Y-94475841D01*
X89105186Y-94490354D01*
X89155693Y-94641877D01*
X89167681Y-94668727D01*
X89171212Y-94672798D01*
X89173275Y-94677778D01*
X89191930Y-94700509D01*
X89343453Y-94852032D01*
X89366184Y-94870687D01*
X89371163Y-94872749D01*
X89375234Y-94876280D01*
X89402085Y-94888268D01*
X89553607Y-94938776D01*
X89568116Y-94942075D01*
X89571778Y-94943592D01*
X89577086Y-94944114D01*
X89582281Y-94945296D01*
X89586230Y-94945015D01*
X89601042Y-94946474D01*
X89702057Y-94946474D01*
X89716868Y-94945015D01*
X89720818Y-94945296D01*
X89726012Y-94944114D01*
X89731321Y-94943592D01*
X89734983Y-94942074D01*
X89749491Y-94938776D01*
X89901014Y-94888269D01*
X89927865Y-94876280D01*
X89931935Y-94872749D01*
X89936915Y-94870687D01*
X89959646Y-94852032D01*
X90363707Y-94447971D01*
X90382357Y-94425245D01*
X90382362Y-94425241D01*
X90404759Y-94371168D01*
X90404759Y-94312642D01*
X90403201Y-94308881D01*
X90382362Y-94258569D01*
X90382357Y-94258564D01*
X90363707Y-94235839D01*
X89303047Y-93175179D01*
X89280316Y-93156524D01*
X89226244Y-93134127D01*
X89167718Y-93134127D01*
X89129482Y-93149964D01*
X89113645Y-93156524D01*
X89090915Y-93175179D01*
X88737362Y-93528732D01*
X88718707Y-93551463D01*
X88716644Y-93556442D01*
X88713114Y-93560513D01*
X88701125Y-93587364D01*
X88650618Y-93738887D01*
X88647319Y-93753394D01*
X88645802Y-93757057D01*
X88645279Y-93762365D01*
X88644098Y-93767560D01*
X88644378Y-93771509D01*
X88642920Y-93786321D01*
X88244070Y-93786321D01*
X89196981Y-92833410D01*
X92413079Y-96049509D01*
G37*
X66179912Y-103775864D02*
X65472805Y-103068757D01*
X65472805Y-103068757D02*
X65119252Y-104836524D01*
X65119252Y-104836524D02*
X64412145Y-104129417D01*
X64008084Y-103725356D02*
X65068745Y-102664696D01*
X65068745Y-102664696D02*
X63957577Y-103068757D01*
X63957577Y-103068757D02*
X64361638Y-101957589D01*
X64361638Y-101957589D02*
X63300978Y-103018250D01*
X62795901Y-102513173D02*
X63856561Y-101452513D01*
X62189810Y-101907082D02*
X63250470Y-101755559D01*
X63250470Y-100846421D02*
X63250470Y-102058605D01*
X61836256Y-101351498D02*
X61735241Y-101351498D01*
X61735241Y-101351498D02*
X61735241Y-101452513D01*
X61735241Y-101452513D02*
X61836256Y-101452513D01*
X61836256Y-101452513D02*
X61836256Y-101351498D01*
X61836256Y-101351498D02*
X61735241Y-101452513D01*
X61331180Y-100947437D02*
X61129149Y-100846421D01*
X61129149Y-100846421D02*
X60876611Y-100593883D01*
X60876611Y-100593883D02*
X60826103Y-100442360D01*
X60826103Y-100442360D02*
X60826103Y-100341345D01*
X60826103Y-100341345D02*
X60876611Y-100189822D01*
X60876611Y-100189822D02*
X60977626Y-100088807D01*
X60977626Y-100088807D02*
X61129149Y-100038299D01*
X61129149Y-100038299D02*
X61230164Y-100038299D01*
X61230164Y-100038299D02*
X61381687Y-100088807D01*
X61381687Y-100088807D02*
X61634225Y-100240330D01*
X61634225Y-100240330D02*
X61785748Y-100290837D01*
X61785748Y-100290837D02*
X61886764Y-100290837D01*
X61886764Y-100290837D02*
X62038286Y-100240330D01*
X62038286Y-100240330D02*
X62139302Y-100139314D01*
X62139302Y-100139314D02*
X62189809Y-99987792D01*
X62189809Y-99987792D02*
X62189809Y-99886776D01*
X62189809Y-99886776D02*
X62139302Y-99735253D01*
X62139302Y-99735253D02*
X61886764Y-99482715D01*
X61886764Y-99482715D02*
X61684733Y-99381700D01*
X61432195Y-99028147D02*
X60826104Y-98422055D01*
X60068489Y-99785761D02*
X61129149Y-98725101D01*
X60472550Y-98068502D02*
X59613921Y-98927132D01*
X59613921Y-98927132D02*
X59462398Y-98977639D01*
X59462398Y-98977639D02*
X59361383Y-98977639D01*
X59361383Y-98977639D02*
X59209860Y-98927132D01*
X59209860Y-98927132D02*
X59007829Y-98725101D01*
X59007829Y-98725101D02*
X58957322Y-98573578D01*
X58957322Y-98573578D02*
X58957322Y-98472563D01*
X58957322Y-98472563D02*
X59007829Y-98321040D01*
X59007829Y-98321040D02*
X59866459Y-97462411D01*
X58300722Y-98017994D02*
X59361382Y-96957334D01*
X59361382Y-96957334D02*
X59108844Y-96704796D01*
X59108844Y-96704796D02*
X58906814Y-96603781D01*
X58906814Y-96603781D02*
X58704783Y-96603781D01*
X58704783Y-96603781D02*
X58553260Y-96654288D01*
X58553260Y-96654288D02*
X58300722Y-96805811D01*
X58300722Y-96805811D02*
X58149199Y-96957334D01*
X58149199Y-96957334D02*
X57997676Y-97209872D01*
X57997676Y-97209872D02*
X57947169Y-97361395D01*
X57947169Y-97361395D02*
X57947169Y-97563426D01*
X57947169Y-97563426D02*
X58048184Y-97765456D01*
X58048184Y-97765456D02*
X58300722Y-98017994D01*
X57240062Y-96957334D02*
X58300722Y-95896674D01*
X57593615Y-95189567D02*
X57391585Y-94987536D01*
X57391585Y-94987536D02*
X57240062Y-94937029D01*
X57240062Y-94937029D02*
X57038031Y-94937029D01*
X57038031Y-94937029D02*
X56785493Y-95088552D01*
X56785493Y-95088552D02*
X56431940Y-95442105D01*
X56431940Y-95442105D02*
X56280417Y-95694643D01*
X56280417Y-95694643D02*
X56280417Y-95896674D01*
X56280417Y-95896674D02*
X56330924Y-96048197D01*
X56330924Y-96048197D02*
X56532955Y-96250227D01*
X56532955Y-96250227D02*
X56684478Y-96300735D01*
X56684478Y-96300735D02*
X56886508Y-96300735D01*
X56886508Y-96300735D02*
X57139047Y-96149212D01*
X57139047Y-96149212D02*
X57492600Y-95795658D01*
X57492600Y-95795658D02*
X57644123Y-95543120D01*
X57644123Y-95543120D02*
X57644123Y-95341090D01*
X57644123Y-95341090D02*
X57593615Y-95189567D01*
X64371294Y-105382451D02*
X63512664Y-106241081D01*
X63512664Y-106241081D02*
X63361141Y-106291589D01*
X63361141Y-106291589D02*
X63260126Y-106291589D01*
X63260126Y-106291589D02*
X63108603Y-106241081D01*
X63108603Y-106241081D02*
X62906573Y-106039051D01*
X62906573Y-106039051D02*
X62856065Y-105887528D01*
X62856065Y-105887528D02*
X62856065Y-105786512D01*
X62856065Y-105786512D02*
X62906573Y-105634990D01*
X62906573Y-105634990D02*
X63765202Y-104776360D01*
X62199465Y-105331944D02*
X63260126Y-104271283D01*
X63260126Y-104271283D02*
X61593374Y-104725852D01*
X61593374Y-104725852D02*
X62654034Y-103665192D01*
X60583221Y-103715699D02*
X61088297Y-104220775D01*
X61088297Y-104220775D02*
X62148958Y-103160115D01*
X61088297Y-102099455D02*
X60886267Y-101897424D01*
X60886267Y-101897424D02*
X60734744Y-101846917D01*
X60734744Y-101846917D02*
X60532713Y-101846917D01*
X60532713Y-101846917D02*
X60280175Y-101998440D01*
X60280175Y-101998440D02*
X59926622Y-102351993D01*
X59926622Y-102351993D02*
X59775099Y-102604531D01*
X59775099Y-102604531D02*
X59775099Y-102806562D01*
X59775099Y-102806562D02*
X59825606Y-102958085D01*
X59825606Y-102958085D02*
X60027637Y-103160115D01*
X60027637Y-103160115D02*
X60179160Y-103210623D01*
X60179160Y-103210623D02*
X60381190Y-103210623D01*
X60381190Y-103210623D02*
X60633729Y-103059100D01*
X60633729Y-103059100D02*
X60987282Y-102705546D01*
X60987282Y-102705546D02*
X61138805Y-102453008D01*
X61138805Y-102453008D02*
X61138805Y-102250978D01*
X61138805Y-102250978D02*
X61088297Y-102099455D01*
X58613423Y-101543871D02*
X58613423Y-101644886D01*
X58613423Y-101644886D02*
X58714438Y-101846916D01*
X58714438Y-101846916D02*
X58815454Y-101947932D01*
X58815454Y-101947932D02*
X59017484Y-102048947D01*
X59017484Y-102048947D02*
X59219515Y-102048947D01*
X59219515Y-102048947D02*
X59371038Y-101998439D01*
X59371038Y-101998439D02*
X59623576Y-101846916D01*
X59623576Y-101846916D02*
X59775099Y-101695394D01*
X59775099Y-101695394D02*
X59926621Y-101442855D01*
X59926621Y-101442855D02*
X59977129Y-101291333D01*
X59977129Y-101291333D02*
X59977129Y-101089302D01*
X59977129Y-101089302D02*
X59876114Y-100887272D01*
X59876114Y-100887272D02*
X59775099Y-100786256D01*
X59775099Y-100786256D02*
X59573068Y-100685241D01*
X59573068Y-100685241D02*
X59472053Y-100685241D01*
X58057839Y-101190317D02*
X59118499Y-100129657D01*
X57451748Y-100584226D02*
X58512408Y-100432703D01*
X58512408Y-99523566D02*
X58512408Y-100735749D01*
X53688931Y-99296282D02*
X54547561Y-99144759D01*
X54295023Y-99902374D02*
X55355683Y-98841713D01*
X55355683Y-98841713D02*
X54951622Y-98437652D01*
X54951622Y-98437652D02*
X54800099Y-98387145D01*
X54800099Y-98387145D02*
X54699084Y-98387145D01*
X54699084Y-98387145D02*
X54547561Y-98437652D01*
X54547561Y-98437652D02*
X54396038Y-98589175D01*
X54396038Y-98589175D02*
X54345530Y-98740698D01*
X54345530Y-98740698D02*
X54345530Y-98841713D01*
X54345530Y-98841713D02*
X54396038Y-98993236D01*
X54396038Y-98993236D02*
X54800099Y-99397297D01*
X53789946Y-98286130D02*
X53436393Y-97932576D01*
X52729286Y-98336637D02*
X53234362Y-98841713D01*
X53234362Y-98841713D02*
X54295023Y-97781053D01*
X54295023Y-97781053D02*
X53789946Y-97275977D01*
X52375733Y-97882068D02*
X52173702Y-97781053D01*
X52173702Y-97781053D02*
X51921164Y-97528515D01*
X51921164Y-97528515D02*
X51870656Y-97376992D01*
X51870656Y-97376992D02*
X51870656Y-97275977D01*
X51870656Y-97275977D02*
X51921164Y-97124454D01*
X51921164Y-97124454D02*
X52022179Y-97023439D01*
X52022179Y-97023439D02*
X52173702Y-96972931D01*
X52173702Y-96972931D02*
X52274717Y-96972931D01*
X52274717Y-96972931D02*
X52426240Y-97023439D01*
X52426240Y-97023439D02*
X52678778Y-97174962D01*
X52678778Y-97174962D02*
X52830301Y-97225469D01*
X52830301Y-97225469D02*
X52931317Y-97225469D01*
X52931317Y-97225469D02*
X53082839Y-97174962D01*
X53082839Y-97174962D02*
X53183855Y-97073946D01*
X53183855Y-97073946D02*
X53234362Y-96922424D01*
X53234362Y-96922424D02*
X53234362Y-96821408D01*
X53234362Y-96821408D02*
X53183855Y-96669885D01*
X53183855Y-96669885D02*
X52931317Y-96417347D01*
X52931317Y-96417347D02*
X52729286Y-96316332D01*
X51820149Y-96316332D02*
X51466596Y-95962779D01*
X50759489Y-96366840D02*
X51264565Y-96871916D01*
X51264565Y-96871916D02*
X52325225Y-95811256D01*
X52325225Y-95811256D02*
X51820149Y-95306180D01*
X51517103Y-95003134D02*
X50911012Y-94397042D01*
X50153397Y-95760748D02*
X51214057Y-94700088D01*
D11*
X85485399Y-91853969D02*
X84980323Y-92359045D01*
X84980323Y-92359045D02*
X84912979Y-92493732D01*
X84912979Y-92493732D02*
X84912979Y-92628419D01*
X84912979Y-92628419D02*
X84980323Y-92763106D01*
X84980323Y-92763106D02*
X85047666Y-92830450D01*
X84407903Y-92190686D02*
X84273216Y-92055999D01*
X84273216Y-92055999D02*
X84239544Y-91954984D01*
X84239544Y-91954984D02*
X84239544Y-91887640D01*
X84239544Y-91887640D02*
X84273216Y-91719282D01*
X84273216Y-91719282D02*
X84374231Y-91550923D01*
X84374231Y-91550923D02*
X84643605Y-91281549D01*
X84643605Y-91281549D02*
X84744620Y-91247877D01*
X84744620Y-91247877D02*
X84811964Y-91247877D01*
X84811964Y-91247877D02*
X84912979Y-91281549D01*
X84912979Y-91281549D02*
X85047666Y-91416236D01*
X85047666Y-91416236D02*
X85081338Y-91517251D01*
X85081338Y-91517251D02*
X85081338Y-91584595D01*
X85081338Y-91584595D02*
X85047666Y-91685610D01*
X85047666Y-91685610D02*
X84879307Y-91853969D01*
X84879307Y-91853969D02*
X84778292Y-91887640D01*
X84778292Y-91887640D02*
X84710949Y-91887640D01*
X84710949Y-91887640D02*
X84609933Y-91853969D01*
X84609933Y-91853969D02*
X84475246Y-91719282D01*
X84475246Y-91719282D02*
X84441575Y-91618266D01*
X84441575Y-91618266D02*
X84441575Y-91550923D01*
X84441575Y-91550923D02*
X84475246Y-91449908D01*
X41668565Y-86237655D02*
X42173641Y-86742731D01*
X42173641Y-86742731D02*
X42308328Y-86810075D01*
X42308328Y-86810075D02*
X42443015Y-86810075D01*
X42443015Y-86810075D02*
X42577702Y-86742731D01*
X42577702Y-86742731D02*
X42645046Y-86675388D01*
X41533878Y-86978434D02*
X41567549Y-86877418D01*
X41567549Y-86877418D02*
X41567549Y-86810075D01*
X41567549Y-86810075D02*
X41533878Y-86709060D01*
X41533878Y-86709060D02*
X41500206Y-86675388D01*
X41500206Y-86675388D02*
X41399191Y-86641716D01*
X41399191Y-86641716D02*
X41331847Y-86641716D01*
X41331847Y-86641716D02*
X41230832Y-86675388D01*
X41230832Y-86675388D02*
X41096145Y-86810075D01*
X41096145Y-86810075D02*
X41062473Y-86911090D01*
X41062473Y-86911090D02*
X41062473Y-86978434D01*
X41062473Y-86978434D02*
X41096145Y-87079449D01*
X41096145Y-87079449D02*
X41129817Y-87113121D01*
X41129817Y-87113121D02*
X41230832Y-87146792D01*
X41230832Y-87146792D02*
X41298175Y-87146792D01*
X41298175Y-87146792D02*
X41399191Y-87113121D01*
X41399191Y-87113121D02*
X41533878Y-86978434D01*
X41533878Y-86978434D02*
X41634893Y-86944762D01*
X41634893Y-86944762D02*
X41702236Y-86944762D01*
X41702236Y-86944762D02*
X41803252Y-86978434D01*
X41803252Y-86978434D02*
X41937939Y-87113121D01*
X41937939Y-87113121D02*
X41971610Y-87214136D01*
X41971610Y-87214136D02*
X41971610Y-87281479D01*
X41971610Y-87281479D02*
X41937939Y-87382495D01*
X41937939Y-87382495D02*
X41803252Y-87517182D01*
X41803252Y-87517182D02*
X41702236Y-87550853D01*
X41702236Y-87550853D02*
X41634893Y-87550853D01*
X41634893Y-87550853D02*
X41533878Y-87517182D01*
X41533878Y-87517182D02*
X41399191Y-87382495D01*
X41399191Y-87382495D02*
X41365519Y-87281479D01*
X41365519Y-87281479D02*
X41365519Y-87214136D01*
X41365519Y-87214136D02*
X41399191Y-87113121D01*
X75892533Y-51589422D02*
X76397609Y-52094498D01*
X76397609Y-52094498D02*
X76532296Y-52161842D01*
X76532296Y-52161842D02*
X76666983Y-52161842D01*
X76666983Y-52161842D02*
X76801670Y-52094498D01*
X76801670Y-52094498D02*
X76869014Y-52027155D01*
X75623159Y-51858796D02*
X75151754Y-52330201D01*
X75151754Y-52330201D02*
X76161907Y-52734262D01*
D12*
X83987384Y-90928965D02*
X78521449Y-96394901D01*
X87812832Y-91006747D02*
X86837024Y-90030940D01*
X86837024Y-91982554D02*
X87812832Y-91006747D01*
X85938999Y-92880580D02*
X83987384Y-90928965D01*
X85938999Y-92880580D02*
X80473063Y-98346515D01*
X80473063Y-98346515D02*
X78521449Y-96394901D01*
X40703964Y-83770216D02*
X39728157Y-84746024D01*
X41679771Y-84746024D02*
X40703964Y-83770216D01*
X42577797Y-85644049D02*
X40626182Y-87595664D01*
X42577797Y-85644049D02*
X48043732Y-91109985D01*
X40626182Y-87595664D02*
X46092118Y-93061599D01*
X48043732Y-91109985D02*
X46092118Y-93061599D01*
X75188147Y-49286032D02*
X74212340Y-50261840D01*
X76163954Y-50261840D02*
X75188147Y-49286032D01*
X77061980Y-51159865D02*
X75110365Y-53111480D01*
X77061980Y-51159865D02*
X82527915Y-56625801D01*
X75110365Y-53111480D02*
X80576301Y-58577415D01*
X82527915Y-56625801D02*
X80576301Y-58577415D01*
M02*
