G04 #@! TF.GenerationSoftware,KiCad,Pcbnew,9.0.2*
G04 #@! TF.CreationDate,2025-09-26T15:19:19-04:00*
G04 #@! TF.ProjectId,Trackball,54726163-6b62-4616-9c6c-2e6b69636164,rev?*
G04 #@! TF.SameCoordinates,Original*
G04 #@! TF.FileFunction,Copper,L1,Top*
G04 #@! TF.FilePolarity,Positive*
%FSLAX46Y46*%
G04 Gerber Fmt 4.6, Leading zero omitted, Abs format (unit mm)*
G04 Created by KiCad (PCBNEW 9.0.2) date 2025-09-26 15:19:19*
%MOMM*%
%LPD*%
G01*
G04 APERTURE LIST*
G04 Aperture macros list*
%AMHorizOval*
0 Thick line with rounded ends*
0 $1 width*
0 $2 $3 position (X,Y) of the first rounded end (center of the circle)*
0 $4 $5 position (X,Y) of the second rounded end (center of the circle)*
0 Add line between two ends*
20,1,$1,$2,$3,$4,$5,0*
0 Add two circle primitives to create the rounded ends*
1,1,$1,$2,$3*
1,1,$1,$4,$5*%
%AMRotRect*
0 Rectangle, with rotation*
0 The origin of the aperture is its center*
0 $1 length*
0 $2 width*
0 $3 Rotation angle, in degrees counterclockwise*
0 Add horizontal line*
21,1,$1,$2,0,0,$3*%
G04 Aperture macros list end*
G04 #@! TA.AperFunction,ComponentPad*
%ADD10C,5.000000*%
G04 #@! TD*
G04 #@! TA.AperFunction,ComponentPad*
%ADD11C,7.000000*%
G04 #@! TD*
G04 #@! TA.AperFunction,ComponentPad*
%ADD12HorizOval,3.000000X2.121320X-2.121320X-2.121320X2.121320X0*%
G04 #@! TD*
G04 #@! TA.AperFunction,ComponentPad*
%ADD13HorizOval,2.500000X4.419417X-4.419417X-4.419417X4.419417X0*%
G04 #@! TD*
G04 #@! TA.AperFunction,ComponentPad*
%ADD14RotRect,1.700000X1.700000X135.000000*%
G04 #@! TD*
G04 #@! TA.AperFunction,ComponentPad*
%ADD15C,1.700000*%
G04 #@! TD*
G04 #@! TA.AperFunction,ComponentPad*
%ADD16RotRect,1.700000X1.700000X225.000000*%
G04 #@! TD*
G04 #@! TA.AperFunction,ViaPad*
%ADD17C,0.800000*%
G04 #@! TD*
G04 APERTURE END LIST*
D10*
X55960500Y-44220319D03*
D11*
X81388059Y-73593535D03*
D12*
X28913665Y-80105989D03*
D13*
X34393742Y-82404086D03*
X31211762Y-85586066D03*
D12*
X36691839Y-87884163D03*
X69501595Y-39376638D03*
D13*
X74981672Y-41674735D03*
X71799692Y-44856715D03*
D12*
X77279769Y-47154812D03*
D11*
X63031567Y-91950027D03*
D10*
X49242985Y-73918804D03*
X33686636Y-66494183D03*
X63385121Y-59776669D03*
D14*
X85861217Y-91006747D03*
D15*
X84065166Y-92802798D03*
X82269115Y-94598849D03*
X80473063Y-96394901D03*
D16*
X40703964Y-85721831D03*
D15*
X42500015Y-87517882D03*
X44296066Y-89313933D03*
X46092118Y-91109985D03*
D16*
X75188147Y-51237647D03*
D15*
X76984198Y-53033698D03*
X78780249Y-54829749D03*
X80576301Y-56625801D03*
D17*
X86366091Y-82757639D03*
X43939684Y-82757639D03*
X93437159Y-75686571D03*
X36868616Y-75686571D03*
X65152888Y-103970842D03*
X93437159Y-89828707D03*
X61617354Y-79222105D03*
X79295023Y-61544435D03*
X86366091Y-68615503D03*
X72223956Y-54473368D03*
X68688422Y-72151037D03*
X65152888Y-47402300D03*
X72223956Y-96899775D03*
X88310635Y-98844318D03*
X79295023Y-103970842D03*
X58081820Y-96899775D03*
X51010752Y-89828707D03*
G04 #@! TA.AperFunction,Conductor*
G36*
X86576778Y-20512161D02*
G01*
X86976297Y-20545267D01*
X86986433Y-20546529D01*
X87381889Y-20612520D01*
X87391891Y-20614617D01*
X87780539Y-20713036D01*
X87790350Y-20715958D01*
X88169513Y-20846124D01*
X88179043Y-20849842D01*
X88546172Y-21010880D01*
X88555379Y-21015380D01*
X88907965Y-21206191D01*
X88916743Y-21211422D01*
X89252378Y-21430703D01*
X89260697Y-21436643D01*
X89577079Y-21682893D01*
X89584861Y-21689484D01*
X89684761Y-21781448D01*
X89881705Y-21962748D01*
X89885403Y-21966297D01*
X94672410Y-26753303D01*
X94675959Y-26757001D01*
X94949227Y-27053849D01*
X94955851Y-27061670D01*
X95202076Y-27378022D01*
X95208030Y-27386362D01*
X95427300Y-27721978D01*
X95432547Y-27730783D01*
X95623343Y-28083344D01*
X95627844Y-28092551D01*
X95788879Y-28459674D01*
X95792604Y-28469221D01*
X95922768Y-28848376D01*
X95925693Y-28858199D01*
X96024106Y-29246824D01*
X96026209Y-29256854D01*
X96092194Y-29652279D01*
X96093461Y-29662449D01*
X96126565Y-30061951D01*
X96126989Y-30072191D01*
X96126989Y-30473086D01*
X96126565Y-30483326D01*
X96093461Y-30882827D01*
X96092194Y-30892997D01*
X96026209Y-31288422D01*
X96024106Y-31298452D01*
X95925693Y-31687077D01*
X95922768Y-31696899D01*
X95792605Y-32076055D01*
X95788880Y-32085603D01*
X95627846Y-32452725D01*
X95623345Y-32461932D01*
X95432545Y-32814500D01*
X95427299Y-32823305D01*
X95208037Y-33158910D01*
X95202082Y-33167250D01*
X94955853Y-33483607D01*
X94949229Y-33491428D01*
X94676004Y-33788228D01*
X94672475Y-33791907D01*
X94661329Y-33803058D01*
X94661325Y-33803063D01*
X80800367Y-47671573D01*
X80739053Y-47705075D01*
X80669360Y-47700110D01*
X80624981Y-47671597D01*
X80292044Y-47338659D01*
X80272705Y-47346670D01*
X80272359Y-47347850D01*
X80219555Y-47393605D01*
X80168044Y-47404811D01*
X78095454Y-47404811D01*
X77595456Y-46904813D01*
X79858197Y-46904813D01*
X79858197Y-46904812D01*
X77715123Y-44761738D01*
X80226058Y-44761738D01*
X81728058Y-44761738D01*
X81728058Y-44333062D01*
X82726058Y-44333062D01*
X83798798Y-43259738D01*
X82726058Y-43259738D01*
X82726058Y-44333062D01*
X81728058Y-44333062D01*
X81728058Y-43259738D01*
X80226058Y-43259738D01*
X80226058Y-44761738D01*
X77715123Y-44761738D01*
X77529768Y-44576383D01*
X77529768Y-46839125D01*
X77029770Y-46339127D01*
X77029770Y-44266537D01*
X77049455Y-44199498D01*
X77085131Y-44168583D01*
X77095921Y-44142536D01*
X76479975Y-43526590D01*
X76479968Y-43526584D01*
X76271981Y-43366991D01*
X76271965Y-43366980D01*
X76044932Y-43235901D01*
X76044916Y-43235893D01*
X75802714Y-43135571D01*
X75549463Y-43067712D01*
X75289543Y-43033492D01*
X75027354Y-43033492D01*
X74767434Y-43067712D01*
X74514183Y-43135571D01*
X74271981Y-43235893D01*
X74271965Y-43235901D01*
X74044932Y-43366980D01*
X74044916Y-43366991D01*
X73836929Y-43526584D01*
X73836922Y-43526590D01*
X73651547Y-43711965D01*
X73651541Y-43711972D01*
X73491948Y-43919959D01*
X73491937Y-43919975D01*
X73360858Y-44147008D01*
X73360850Y-44147024D01*
X73260528Y-44389226D01*
X73192669Y-44642477D01*
X73158449Y-44902397D01*
X73158449Y-45164586D01*
X73192669Y-45424506D01*
X73260528Y-45677757D01*
X73360850Y-45919959D01*
X73360858Y-45919975D01*
X73491937Y-46147008D01*
X73491948Y-46147024D01*
X73651541Y-46355011D01*
X73651547Y-46355018D01*
X74267493Y-46970964D01*
X74286832Y-46962953D01*
X74287179Y-46961774D01*
X74339983Y-46916019D01*
X74391494Y-46904813D01*
X76464084Y-46904813D01*
X76964082Y-47404811D01*
X74701340Y-47404811D01*
X77029769Y-49733240D01*
X77029770Y-49733239D01*
X77029770Y-47470499D01*
X77529768Y-47970497D01*
X77529768Y-50043087D01*
X77510083Y-50110126D01*
X77474406Y-50141040D01*
X77463616Y-50167087D01*
X77841374Y-50544844D01*
X77874859Y-50606167D01*
X77869875Y-50675858D01*
X77866093Y-50684889D01*
X77841510Y-50737647D01*
X77819464Y-50784959D01*
X77773073Y-50958249D01*
X77773073Y-50958250D01*
X77757471Y-51136965D01*
X77773132Y-51315687D01*
X77773133Y-51315689D01*
X77819581Y-51488961D01*
X77819582Y-51488965D01*
X77865294Y-51586979D01*
X77895408Y-51651549D01*
X77987175Y-51782601D01*
X77998310Y-51798502D01*
X78001120Y-51801851D01*
X78029133Y-51865858D01*
X78018094Y-51934851D01*
X77971508Y-51986922D01*
X77904165Y-52005541D01*
X77837446Y-51984796D01*
X77833246Y-51981875D01*
X77691755Y-51879077D01*
X77502413Y-51782601D01*
X77300322Y-51716939D01*
X77234198Y-51706466D01*
X77234198Y-52600686D01*
X77177191Y-52567773D01*
X77050024Y-52533698D01*
X76918372Y-52533698D01*
X76791205Y-52567773D01*
X76734198Y-52600686D01*
X76734198Y-51654018D01*
X76753883Y-51586979D01*
X76764933Y-51577233D01*
X76762914Y-51575606D01*
X76815182Y-51510744D01*
X76874908Y-51379965D01*
X76874909Y-51379960D01*
X76895369Y-51237647D01*
X76874909Y-51095333D01*
X76874908Y-51095328D01*
X76815182Y-50964549D01*
X76777602Y-50917914D01*
X76319518Y-50459830D01*
X75671109Y-51108238D01*
X75654072Y-51044654D01*
X75588246Y-50930640D01*
X75495154Y-50837548D01*
X75381140Y-50771722D01*
X75317555Y-50754684D01*
X75965964Y-50106276D01*
X75507879Y-49648191D01*
X75461244Y-49610611D01*
X75330465Y-49550885D01*
X75330460Y-49550884D01*
X75188147Y-49530424D01*
X75045833Y-49550884D01*
X75045828Y-49550885D01*
X74915049Y-49610611D01*
X74868414Y-49648191D01*
X74868410Y-49648195D01*
X74410330Y-50106276D01*
X75058738Y-50754684D01*
X74995154Y-50771722D01*
X74881140Y-50837548D01*
X74788048Y-50930640D01*
X74722222Y-51044654D01*
X74705184Y-51108238D01*
X74056776Y-50459830D01*
X73598695Y-50917910D01*
X73598691Y-50917914D01*
X73561111Y-50964549D01*
X73501385Y-51095328D01*
X73501384Y-51095333D01*
X73480924Y-51237647D01*
X73501384Y-51379960D01*
X73501385Y-51379965D01*
X73561111Y-51510744D01*
X73598691Y-51557379D01*
X74056776Y-52015464D01*
X74705184Y-51367055D01*
X74722222Y-51430640D01*
X74788048Y-51544654D01*
X74881140Y-51637746D01*
X74995154Y-51703572D01*
X75058738Y-51720609D01*
X74410330Y-52369018D01*
X74868414Y-52827102D01*
X74915049Y-52864682D01*
X75045828Y-52924408D01*
X75045833Y-52924409D01*
X75188147Y-52944869D01*
X75330460Y-52924409D01*
X75330465Y-52924408D01*
X75461243Y-52864682D01*
X75461245Y-52864681D01*
X75526106Y-52812413D01*
X75528034Y-52814806D01*
X75539372Y-52802190D01*
X75604519Y-52783698D01*
X76551186Y-52783698D01*
X76518273Y-52840705D01*
X76484198Y-52967872D01*
X76484198Y-53099524D01*
X76518273Y-53226691D01*
X76551186Y-53283698D01*
X75656967Y-53283698D01*
X75667440Y-53349824D01*
X75667440Y-53349827D01*
X75733102Y-53551915D01*
X75829577Y-53741255D01*
X75954470Y-53913157D01*
X75954474Y-53913162D01*
X76104733Y-54063421D01*
X76104738Y-54063425D01*
X76276640Y-54188318D01*
X76465980Y-54284793D01*
X76668069Y-54350455D01*
X76734198Y-54360929D01*
X76734198Y-53466710D01*
X76791205Y-53499623D01*
X76918372Y-53533698D01*
X77050024Y-53533698D01*
X77177191Y-53499623D01*
X77234198Y-53466710D01*
X77234198Y-54360928D01*
X77300324Y-54350455D01*
X77310565Y-54347128D01*
X77380406Y-54345129D01*
X77440240Y-54381206D01*
X77471072Y-54443906D01*
X77466821Y-54503372D01*
X77463492Y-54513618D01*
X77463491Y-54513622D01*
X77453018Y-54579749D01*
X78347237Y-54579749D01*
X78314324Y-54636756D01*
X78280249Y-54763923D01*
X78280249Y-54895575D01*
X78314324Y-55022742D01*
X78347237Y-55079749D01*
X77453018Y-55079749D01*
X77463491Y-55145875D01*
X77463491Y-55145878D01*
X77529153Y-55347966D01*
X77625628Y-55537306D01*
X77750521Y-55709208D01*
X77750525Y-55709213D01*
X77900784Y-55859472D01*
X77900789Y-55859476D01*
X78072691Y-55984369D01*
X78262031Y-56080844D01*
X78464120Y-56146506D01*
X78530249Y-56156980D01*
X78530249Y-55262761D01*
X78587256Y-55295674D01*
X78714423Y-55329749D01*
X78846075Y-55329749D01*
X78973242Y-55295674D01*
X79030249Y-55262761D01*
X79030249Y-56156979D01*
X79096374Y-56146507D01*
X79106619Y-56143178D01*
X79176460Y-56141181D01*
X79236294Y-56177259D01*
X79267124Y-56239959D01*
X79262874Y-56299421D01*
X79259543Y-56309673D01*
X79259543Y-56309674D01*
X79249070Y-56375801D01*
X80143289Y-56375801D01*
X80110376Y-56432808D01*
X80076301Y-56559975D01*
X80076301Y-56691627D01*
X80110376Y-56818794D01*
X80143289Y-56875801D01*
X79249070Y-56875801D01*
X79259543Y-56941927D01*
X79259543Y-56941930D01*
X79325205Y-57144018D01*
X79421680Y-57333358D01*
X79546573Y-57505260D01*
X79546577Y-57505265D01*
X79696836Y-57655524D01*
X79696841Y-57655528D01*
X79868743Y-57780421D01*
X80058083Y-57876896D01*
X80260172Y-57942558D01*
X80326301Y-57953032D01*
X80326301Y-57058813D01*
X80383308Y-57091726D01*
X80510475Y-57125801D01*
X80642127Y-57125801D01*
X80769294Y-57091726D01*
X80826301Y-57058813D01*
X80826301Y-57953031D01*
X80892427Y-57942558D01*
X80892430Y-57942558D01*
X81094518Y-57876896D01*
X81283858Y-57780421D01*
X81455760Y-57655528D01*
X81455765Y-57655524D01*
X81606024Y-57505265D01*
X81606028Y-57505260D01*
X81730921Y-57333358D01*
X81827396Y-57144018D01*
X81893058Y-56941930D01*
X81893058Y-56941927D01*
X81903532Y-56875801D01*
X81009313Y-56875801D01*
X81042226Y-56818794D01*
X81076301Y-56691627D01*
X81076301Y-56559975D01*
X81042226Y-56432808D01*
X81009313Y-56375801D01*
X81903532Y-56375801D01*
X81893058Y-56309674D01*
X81893058Y-56309671D01*
X81827396Y-56107583D01*
X81730921Y-55918243D01*
X81628468Y-55777226D01*
X81604988Y-55711419D01*
X81620814Y-55643366D01*
X81670920Y-55594671D01*
X81739398Y-55580796D01*
X81804507Y-55606145D01*
X81816461Y-55616654D01*
X84301867Y-58102060D01*
X90307008Y-64107201D01*
X90308692Y-64108918D01*
X91004546Y-64832299D01*
X91007812Y-64835828D01*
X91674311Y-65584767D01*
X91677438Y-65588421D01*
X92314382Y-66362625D01*
X92317365Y-66366397D01*
X92786225Y-66983598D01*
X92903028Y-67137357D01*
X92923834Y-67164745D01*
X92926665Y-67168627D01*
X93189767Y-67544376D01*
X93501701Y-67989863D01*
X93504378Y-67993849D01*
X94042750Y-68829951D01*
X94047136Y-68836762D01*
X94049658Y-68840851D01*
X94182456Y-69065798D01*
X94559336Y-69704197D01*
X94561700Y-69708385D01*
X95037506Y-70590823D01*
X95039706Y-70595099D01*
X95480947Y-71495342D01*
X95482979Y-71499700D01*
X95888973Y-72416358D01*
X95890835Y-72420792D01*
X96260981Y-73352503D01*
X96262670Y-73357006D01*
X96596420Y-74302401D01*
X96597932Y-74306966D01*
X96894758Y-75264538D01*
X96896093Y-75269158D01*
X97155578Y-76237571D01*
X97156732Y-76242240D01*
X97378461Y-77219938D01*
X97379434Y-77224648D01*
X97563092Y-78210245D01*
X97563881Y-78214988D01*
X97709185Y-79206969D01*
X97709789Y-79211740D01*
X97816516Y-80208582D01*
X97816935Y-80213373D01*
X97884928Y-81213586D01*
X97885162Y-81218390D01*
X97914322Y-82220558D01*
X97914368Y-82225366D01*
X97904648Y-83227856D01*
X97904508Y-83232664D01*
X97855921Y-84234028D01*
X97855595Y-84238825D01*
X97768217Y-85237565D01*
X97767705Y-85242347D01*
X97641667Y-86236944D01*
X97640970Y-86241702D01*
X97476460Y-87230661D01*
X97475579Y-87235389D01*
X97272849Y-88217213D01*
X97271786Y-88221903D01*
X97031128Y-89195166D01*
X97029883Y-89199811D01*
X96751677Y-90162976D01*
X96750253Y-90167570D01*
X96434903Y-91119244D01*
X96433302Y-91123778D01*
X96081301Y-92062471D01*
X96079526Y-92066941D01*
X95691369Y-92991335D01*
X95689421Y-92995732D01*
X95265734Y-93904332D01*
X95263618Y-93908650D01*
X94804998Y-94800177D01*
X94802715Y-94804410D01*
X94309885Y-95677458D01*
X94307440Y-95681599D01*
X93781132Y-96534874D01*
X93778529Y-96538917D01*
X93219528Y-97371147D01*
X93216770Y-97375087D01*
X92625900Y-98185042D01*
X92622991Y-98188871D01*
X92001173Y-98975289D01*
X91998117Y-98979003D01*
X91346274Y-99740715D01*
X91343077Y-99744307D01*
X90662194Y-100480166D01*
X90658860Y-100483632D01*
X89949948Y-101192544D01*
X89946482Y-101195878D01*
X89210623Y-101876760D01*
X89207031Y-101879957D01*
X88445319Y-102531800D01*
X88441605Y-102534856D01*
X87655187Y-103156675D01*
X87651358Y-103159584D01*
X86841403Y-103750454D01*
X86837463Y-103753212D01*
X86005234Y-104312213D01*
X86001216Y-104314800D01*
X85147916Y-104841124D01*
X85143775Y-104843568D01*
X84270727Y-105336399D01*
X84266494Y-105338682D01*
X83374966Y-105797302D01*
X83370648Y-105799418D01*
X82462049Y-106223105D01*
X82457651Y-106225053D01*
X81533256Y-106613210D01*
X81528787Y-106614985D01*
X80590093Y-106966986D01*
X80585559Y-106968587D01*
X79633887Y-107283937D01*
X79629293Y-107285361D01*
X78666128Y-107563567D01*
X78661483Y-107564812D01*
X77688219Y-107805470D01*
X77683529Y-107806533D01*
X76701705Y-108009263D01*
X76696977Y-108010144D01*
X75708019Y-108174654D01*
X75703261Y-108175351D01*
X74708664Y-108301389D01*
X74703882Y-108301901D01*
X73705142Y-108389279D01*
X73700344Y-108389605D01*
X72698979Y-108438191D01*
X72694172Y-108438331D01*
X71691682Y-108448052D01*
X71686874Y-108448006D01*
X70684707Y-108418846D01*
X70679903Y-108418612D01*
X69679689Y-108350619D01*
X69674898Y-108350200D01*
X68678057Y-108243473D01*
X68673286Y-108242869D01*
X67681304Y-108097565D01*
X67676561Y-108096776D01*
X66690965Y-107913118D01*
X66686255Y-107912145D01*
X65708557Y-107690416D01*
X65703889Y-107689262D01*
X64735475Y-107429777D01*
X64730854Y-107428442D01*
X63773282Y-107131616D01*
X63768717Y-107130104D01*
X63657437Y-107090819D01*
X67726058Y-107090819D01*
X67842725Y-107112559D01*
X68801160Y-107252949D01*
X68883248Y-107261738D01*
X69228058Y-107261738D01*
X70226058Y-107261738D01*
X71728058Y-107261738D01*
X72726058Y-107261738D01*
X74228058Y-107261738D01*
X74228058Y-107229841D01*
X75226058Y-107229841D01*
X75560979Y-107187399D01*
X76516488Y-107028452D01*
X76728058Y-106984767D01*
X76728058Y-106768054D01*
X77726058Y-106768054D01*
X78405468Y-106600058D01*
X79228058Y-106362456D01*
X79228058Y-105759738D01*
X77726058Y-105759738D01*
X77726058Y-106768054D01*
X76728058Y-106768054D01*
X76728058Y-105759738D01*
X75226058Y-105759738D01*
X75226058Y-107229841D01*
X74228058Y-107229841D01*
X74228058Y-105759738D01*
X72726058Y-105759738D01*
X72726058Y-107261738D01*
X71728058Y-107261738D01*
X71728058Y-105759738D01*
X70226058Y-105759738D01*
X70226058Y-107261738D01*
X69228058Y-107261738D01*
X69228058Y-105759738D01*
X67726058Y-105759738D01*
X67726058Y-107090819D01*
X63657437Y-107090819D01*
X62823314Y-106796351D01*
X62818831Y-106794669D01*
X62147635Y-106528021D01*
X65226058Y-106528021D01*
X65945849Y-106720888D01*
X66728058Y-106898282D01*
X66728058Y-105759738D01*
X65226058Y-105759738D01*
X65226058Y-106528021D01*
X62147635Y-106528021D01*
X61887112Y-106424522D01*
X61882683Y-106422662D01*
X60966017Y-106016664D01*
X60961659Y-106014632D01*
X60237386Y-105659640D01*
X60061406Y-105573386D01*
X60057170Y-105571207D01*
X59174680Y-105095372D01*
X59170514Y-105093020D01*
X58430368Y-104656074D01*
X58307168Y-104583342D01*
X58303079Y-104580820D01*
X58221729Y-104528438D01*
X60226058Y-104528438D01*
X60515874Y-104684706D01*
X60673039Y-104761738D01*
X61728058Y-104761738D01*
X62726058Y-104761738D01*
X64090954Y-104761738D01*
X66214822Y-104761738D01*
X66728058Y-104761738D01*
X67726058Y-104761738D01*
X69228058Y-104761738D01*
X70226058Y-104761738D01*
X71728058Y-104761738D01*
X72726058Y-104761738D01*
X74228058Y-104761738D01*
X75226058Y-104761738D01*
X76728058Y-104761738D01*
X77726058Y-104761738D01*
X78233089Y-104761738D01*
X80356957Y-104761738D01*
X81728058Y-104761738D01*
X82726058Y-104761738D01*
X83206340Y-104761738D01*
X83794902Y-104458969D01*
X84228058Y-104214455D01*
X84228058Y-103259738D01*
X82726058Y-103259738D01*
X82726058Y-104761738D01*
X81728058Y-104761738D01*
X81728058Y-103259738D01*
X80414929Y-103259738D01*
X80421673Y-103269020D01*
X80431840Y-103285610D01*
X80517592Y-103453907D01*
X80525038Y-103471884D01*
X80583406Y-103651523D01*
X80587948Y-103670443D01*
X80617496Y-103857002D01*
X80619023Y-103876400D01*
X80619023Y-104065284D01*
X80617496Y-104084682D01*
X80587948Y-104271241D01*
X80583406Y-104290161D01*
X80525038Y-104469800D01*
X80517592Y-104487777D01*
X80431840Y-104656074D01*
X80421673Y-104672664D01*
X80356957Y-104761738D01*
X78233089Y-104761738D01*
X78168373Y-104672664D01*
X78158206Y-104656074D01*
X78072454Y-104487777D01*
X78065008Y-104469800D01*
X78006640Y-104290161D01*
X78002098Y-104271241D01*
X77972550Y-104084682D01*
X77971023Y-104065284D01*
X77971023Y-103876400D01*
X77972550Y-103857002D01*
X78002098Y-103670443D01*
X78006640Y-103651523D01*
X78065008Y-103471884D01*
X78072454Y-103453907D01*
X78158206Y-103285610D01*
X78168373Y-103269020D01*
X78175117Y-103259738D01*
X77726058Y-103259738D01*
X77726058Y-104761738D01*
X76728058Y-104761738D01*
X76728058Y-103259738D01*
X75226058Y-103259738D01*
X75226058Y-104761738D01*
X74228058Y-104761738D01*
X74228058Y-103259738D01*
X72726058Y-103259738D01*
X72726058Y-104761738D01*
X71728058Y-104761738D01*
X71728058Y-103259738D01*
X70226058Y-103259738D01*
X70226058Y-104761738D01*
X69228058Y-104761738D01*
X69228058Y-103259738D01*
X67726058Y-103259738D01*
X67726058Y-104761738D01*
X66728058Y-104761738D01*
X66728058Y-103259738D01*
X66272794Y-103259738D01*
X66279538Y-103269020D01*
X66289705Y-103285610D01*
X66375457Y-103453907D01*
X66382903Y-103471884D01*
X66441271Y-103651523D01*
X66445813Y-103670443D01*
X66475361Y-103857002D01*
X66476888Y-103876400D01*
X66476888Y-104065284D01*
X66475361Y-104084682D01*
X66445813Y-104271241D01*
X66441271Y-104290161D01*
X66382903Y-104469800D01*
X66375457Y-104487777D01*
X66289705Y-104656074D01*
X66279538Y-104672664D01*
X66214822Y-104761738D01*
X64090954Y-104761738D01*
X64026238Y-104672664D01*
X64016071Y-104656074D01*
X63930319Y-104487777D01*
X63922873Y-104469800D01*
X63864505Y-104290161D01*
X63859963Y-104271241D01*
X63830415Y-104084682D01*
X63828888Y-104065284D01*
X63828888Y-103876400D01*
X63830415Y-103857002D01*
X63859963Y-103670443D01*
X63864505Y-103651523D01*
X63922873Y-103471884D01*
X63930319Y-103453907D01*
X64016071Y-103285610D01*
X64026238Y-103269020D01*
X64032982Y-103259738D01*
X62726058Y-103259738D01*
X62726058Y-104761738D01*
X61728058Y-104761738D01*
X61728058Y-103259738D01*
X60226058Y-103259738D01*
X60226058Y-104528438D01*
X58221729Y-104528438D01*
X58113842Y-104458969D01*
X57460166Y-104038062D01*
X57456180Y-104035385D01*
X57053195Y-103753212D01*
X56634944Y-103460349D01*
X56631062Y-103457518D01*
X55832713Y-102851050D01*
X55828941Y-102848067D01*
X55054737Y-102211123D01*
X55051083Y-102207996D01*
X54678876Y-101876760D01*
X54302154Y-101541505D01*
X54298628Y-101538243D01*
X53767935Y-101027743D01*
X55226058Y-101027743D01*
X55701889Y-101451198D01*
X56449894Y-102066587D01*
X56706788Y-102261738D01*
X56728058Y-102261738D01*
X57726058Y-102261738D01*
X59228058Y-102261738D01*
X60226058Y-102261738D01*
X61728058Y-102261738D01*
X62726058Y-102261738D01*
X64228058Y-102261738D01*
X65226058Y-102261738D01*
X66728058Y-102261738D01*
X67726058Y-102261738D01*
X69228058Y-102261738D01*
X70226058Y-102261738D01*
X71728058Y-102261738D01*
X72726058Y-102261738D01*
X74228058Y-102261738D01*
X75226058Y-102261738D01*
X76728058Y-102261738D01*
X77726058Y-102261738D01*
X79228058Y-102261738D01*
X80226058Y-102261738D01*
X81728058Y-102261738D01*
X82726058Y-102261738D01*
X84228058Y-102261738D01*
X85226058Y-102261738D01*
X86728058Y-102261738D01*
X86728058Y-101828350D01*
X87726058Y-101828350D01*
X87809324Y-101762512D01*
X88545282Y-101132707D01*
X88948368Y-100759738D01*
X87726058Y-100759738D01*
X87726058Y-101828350D01*
X86728058Y-101828350D01*
X86728058Y-100759738D01*
X85226058Y-100759738D01*
X85226058Y-102261738D01*
X84228058Y-102261738D01*
X84228058Y-100759738D01*
X82726058Y-100759738D01*
X82726058Y-102261738D01*
X81728058Y-102261738D01*
X81728058Y-100759738D01*
X80226058Y-100759738D01*
X80226058Y-102261738D01*
X79228058Y-102261738D01*
X79228058Y-100759738D01*
X77726058Y-100759738D01*
X77726058Y-102261738D01*
X76728058Y-102261738D01*
X76728058Y-100759738D01*
X75226058Y-100759738D01*
X75226058Y-102261738D01*
X74228058Y-102261738D01*
X74228058Y-100759738D01*
X72726058Y-100759738D01*
X72726058Y-102261738D01*
X71728058Y-102261738D01*
X71728058Y-100759738D01*
X70226058Y-100759738D01*
X70226058Y-102261738D01*
X69228058Y-102261738D01*
X69228058Y-100759738D01*
X67726058Y-100759738D01*
X67726058Y-102261738D01*
X66728058Y-102261738D01*
X66728058Y-100759738D01*
X65226058Y-100759738D01*
X65226058Y-102261738D01*
X64228058Y-102261738D01*
X64228058Y-100759738D01*
X62726058Y-100759738D01*
X62726058Y-102261738D01*
X61728058Y-102261738D01*
X61728058Y-100759738D01*
X60226058Y-100759738D01*
X60226058Y-102261738D01*
X59228058Y-102261738D01*
X59228058Y-100759738D01*
X57726058Y-100759738D01*
X57726058Y-102261738D01*
X56728058Y-102261738D01*
X56728058Y-100759738D01*
X55226058Y-100759738D01*
X55226058Y-101027743D01*
X53767935Y-101027743D01*
X53575230Y-100842371D01*
X53573473Y-100840646D01*
X51315332Y-98580393D01*
X52726058Y-98580393D01*
X53906298Y-99761738D01*
X54228058Y-99761738D01*
X55226058Y-99761738D01*
X56728058Y-99761738D01*
X57726058Y-99761738D01*
X59228058Y-99761738D01*
X60226058Y-99761738D01*
X61728058Y-99761738D01*
X62726058Y-99761738D01*
X64228058Y-99761738D01*
X65226058Y-99761738D01*
X66728058Y-99761738D01*
X67726058Y-99761738D01*
X69228058Y-99761738D01*
X70226058Y-99761738D01*
X71728058Y-99761738D01*
X72726058Y-99761738D01*
X74228058Y-99761738D01*
X75226058Y-99761738D01*
X76728058Y-99761738D01*
X77726058Y-99761738D01*
X79228058Y-99761738D01*
X79228058Y-98733045D01*
X80226058Y-98733045D01*
X80226058Y-99761738D01*
X81728058Y-99761738D01*
X82726058Y-99761738D01*
X84228058Y-99761738D01*
X85226058Y-99761738D01*
X86728058Y-99761738D01*
X86728058Y-99482045D01*
X90226058Y-99482045D01*
X90599048Y-99078940D01*
X91228852Y-98342980D01*
X91294673Y-98259738D01*
X90226058Y-98259738D01*
X90226058Y-99482045D01*
X86728058Y-99482045D01*
X86728058Y-98259738D01*
X85226058Y-98259738D01*
X85226058Y-99761738D01*
X84228058Y-99761738D01*
X84228058Y-98259738D01*
X82726058Y-98259738D01*
X82726058Y-99761738D01*
X81728058Y-99761738D01*
X81728058Y-98384135D01*
X81722877Y-98387597D01*
X81718774Y-98390223D01*
X81685351Y-98410704D01*
X81681152Y-98413165D01*
X81655457Y-98427555D01*
X81651163Y-98429851D01*
X81426908Y-98544116D01*
X81422526Y-98546241D01*
X81395782Y-98558570D01*
X81391324Y-98560520D01*
X81355108Y-98575522D01*
X81350572Y-98577297D01*
X81322927Y-98587496D01*
X81318326Y-98589092D01*
X81078932Y-98666875D01*
X81074268Y-98668290D01*
X81045891Y-98676292D01*
X81041175Y-98677522D01*
X81003058Y-98686670D01*
X80998306Y-98687712D01*
X80969443Y-98693452D01*
X80964655Y-98694307D01*
X80660193Y-98742529D01*
X80607136Y-98739400D01*
X80473063Y-98701586D01*
X80338990Y-98739400D01*
X80285933Y-98742529D01*
X80226058Y-98733045D01*
X79228058Y-98733045D01*
X79228058Y-98390655D01*
X79227352Y-98390223D01*
X79223249Y-98387597D01*
X79198754Y-98371230D01*
X79194760Y-98368446D01*
X79045136Y-98259738D01*
X77726058Y-98259738D01*
X77726058Y-99761738D01*
X76728058Y-99761738D01*
X76728058Y-98259738D01*
X75226058Y-98259738D01*
X75226058Y-99761738D01*
X74228058Y-99761738D01*
X74228058Y-98259738D01*
X72726058Y-98259738D01*
X72726058Y-99761738D01*
X71728058Y-99761738D01*
X71728058Y-98259738D01*
X70226058Y-98259738D01*
X70226058Y-99761738D01*
X69228058Y-99761738D01*
X69228058Y-98259738D01*
X67726058Y-98259738D01*
X67726058Y-99761738D01*
X66728058Y-99761738D01*
X66728058Y-98259738D01*
X65226058Y-98259738D01*
X65226058Y-99761738D01*
X64228058Y-99761738D01*
X64228058Y-98259738D01*
X62726058Y-98259738D01*
X62726058Y-99761738D01*
X61728058Y-99761738D01*
X61728058Y-98259738D01*
X60226058Y-98259738D01*
X60226058Y-99761738D01*
X59228058Y-99761738D01*
X59228058Y-98259738D01*
X57726058Y-98259738D01*
X57726058Y-99761738D01*
X56728058Y-99761738D01*
X56728058Y-98259738D01*
X55226058Y-98259738D01*
X55226058Y-99761738D01*
X54228058Y-99761738D01*
X54228058Y-98259738D01*
X52726058Y-98259738D01*
X52726058Y-98580393D01*
X51315332Y-98580393D01*
X50256063Y-97520133D01*
X48815332Y-96078055D01*
X50226058Y-96078055D01*
X51408634Y-97261738D01*
X51728058Y-97261738D01*
X52726058Y-97261738D01*
X54228058Y-97261738D01*
X55226058Y-97261738D01*
X56728058Y-97261738D01*
X60226058Y-97261738D01*
X61728058Y-97261738D01*
X62726058Y-97261738D01*
X64228058Y-97261738D01*
X65226058Y-97261738D01*
X66728058Y-97261738D01*
X67726058Y-97261738D01*
X69228058Y-97261738D01*
X70226058Y-97261738D01*
X70949429Y-97261738D01*
X70935573Y-97219094D01*
X70931031Y-97200174D01*
X70901483Y-97013615D01*
X70899956Y-96994217D01*
X70899956Y-96805333D01*
X70901483Y-96785935D01*
X70931031Y-96599376D01*
X70935573Y-96580456D01*
X70993941Y-96400817D01*
X71001387Y-96382840D01*
X71087139Y-96214543D01*
X71097306Y-96197953D01*
X71208329Y-96045142D01*
X71220966Y-96030346D01*
X71354527Y-95896785D01*
X71369323Y-95884148D01*
X71522134Y-95773125D01*
X71538724Y-95762958D01*
X71545044Y-95759738D01*
X72902868Y-95759738D01*
X72909188Y-95762958D01*
X72925778Y-95773125D01*
X73078589Y-95884148D01*
X73093385Y-95896785D01*
X73226946Y-96030346D01*
X73239583Y-96045142D01*
X73350606Y-96197953D01*
X73360773Y-96214543D01*
X73446525Y-96382840D01*
X73453971Y-96400817D01*
X73512339Y-96580456D01*
X73516881Y-96599376D01*
X73546429Y-96785935D01*
X73547956Y-96805333D01*
X73547956Y-96994217D01*
X73546429Y-97013615D01*
X73516881Y-97200174D01*
X73512339Y-97219094D01*
X73498483Y-97261738D01*
X74228058Y-97261738D01*
X75226058Y-97261738D01*
X76728058Y-97261738D01*
X77726058Y-97261738D01*
X78286730Y-97261738D01*
X78280468Y-97244765D01*
X78278872Y-97240164D01*
X78201089Y-97000770D01*
X78199674Y-96996106D01*
X78191672Y-96967729D01*
X78190442Y-96963013D01*
X78181294Y-96924896D01*
X78180252Y-96920144D01*
X78174512Y-96891281D01*
X78173657Y-96886493D01*
X78125435Y-96582031D01*
X78128563Y-96528975D01*
X78166375Y-96394901D01*
X78128563Y-96260827D01*
X78125435Y-96207771D01*
X78135393Y-96144901D01*
X79145832Y-96144901D01*
X80040051Y-96144901D01*
X80007138Y-96201908D01*
X79973063Y-96329075D01*
X79973063Y-96460727D01*
X80007138Y-96587894D01*
X80040051Y-96644901D01*
X79145832Y-96644901D01*
X79156305Y-96711027D01*
X79156305Y-96711030D01*
X79221967Y-96913118D01*
X79318442Y-97102458D01*
X79443335Y-97274360D01*
X79443339Y-97274365D01*
X79593598Y-97424624D01*
X79593603Y-97424628D01*
X79765505Y-97549521D01*
X79954845Y-97645996D01*
X80156934Y-97711658D01*
X80223063Y-97722132D01*
X80223063Y-96827913D01*
X80280070Y-96860826D01*
X80407237Y-96894901D01*
X80538889Y-96894901D01*
X80666056Y-96860826D01*
X80723063Y-96827913D01*
X80723063Y-97722131D01*
X80789189Y-97711658D01*
X80789192Y-97711658D01*
X80991280Y-97645996D01*
X81180620Y-97549521D01*
X81352522Y-97424628D01*
X81352527Y-97424624D01*
X81502786Y-97274365D01*
X81502790Y-97274360D01*
X81627683Y-97102458D01*
X81649734Y-97059181D01*
X82726058Y-97059181D01*
X82726058Y-97261738D01*
X84228058Y-97261738D01*
X85226058Y-97261738D01*
X86728058Y-97261738D01*
X87726058Y-97261738D01*
X89228058Y-97261738D01*
X90226058Y-97261738D01*
X91728058Y-97261738D01*
X91728058Y-95759738D01*
X90226058Y-95759738D01*
X90226058Y-97261738D01*
X89228058Y-97261738D01*
X89228058Y-95759738D01*
X87726058Y-95759738D01*
X87726058Y-97261738D01*
X86728058Y-97261738D01*
X86728058Y-95759738D01*
X85226058Y-95759738D01*
X85226058Y-97261738D01*
X84228058Y-97261738D01*
X84228058Y-95897250D01*
X84094707Y-96080793D01*
X84091765Y-96084680D01*
X84073507Y-96107838D01*
X84070416Y-96111604D01*
X84044955Y-96141411D01*
X84041721Y-96145050D01*
X84021747Y-96166655D01*
X84018377Y-96170159D01*
X83840425Y-96348111D01*
X83836921Y-96351481D01*
X83815316Y-96371455D01*
X83811677Y-96374689D01*
X83781870Y-96400150D01*
X83778104Y-96403241D01*
X83754946Y-96421499D01*
X83751059Y-96424441D01*
X83547418Y-96572394D01*
X83543424Y-96575178D01*
X83518929Y-96591545D01*
X83514826Y-96594171D01*
X83481403Y-96614652D01*
X83477204Y-96617113D01*
X83451509Y-96631503D01*
X83447215Y-96633799D01*
X83222960Y-96748064D01*
X83218578Y-96750189D01*
X83191834Y-96762518D01*
X83187376Y-96764468D01*
X83151160Y-96779470D01*
X83146624Y-96781245D01*
X83118979Y-96791444D01*
X83114378Y-96793040D01*
X82874984Y-96870823D01*
X82870320Y-96872238D01*
X82841943Y-96880240D01*
X82837227Y-96881470D01*
X82799110Y-96890618D01*
X82794358Y-96891660D01*
X82770598Y-96896384D01*
X82765874Y-96920144D01*
X82764832Y-96924896D01*
X82755684Y-96963013D01*
X82754454Y-96967729D01*
X82746452Y-96996106D01*
X82745037Y-97000770D01*
X82726058Y-97059181D01*
X81649734Y-97059181D01*
X81724158Y-96913118D01*
X81789820Y-96711030D01*
X81789820Y-96711027D01*
X81800294Y-96644901D01*
X80906075Y-96644901D01*
X80938988Y-96587894D01*
X80973063Y-96460727D01*
X80973063Y-96329075D01*
X80938988Y-96201908D01*
X80906075Y-96144901D01*
X81800294Y-96144901D01*
X81789820Y-96078774D01*
X81789819Y-96078768D01*
X81786492Y-96068528D01*
X81784495Y-95998687D01*
X81820575Y-95938853D01*
X81883276Y-95908024D01*
X81942742Y-95912278D01*
X81952982Y-95915605D01*
X81952988Y-95915606D01*
X82019115Y-95926080D01*
X82019115Y-95031861D01*
X82076122Y-95064774D01*
X82203289Y-95098849D01*
X82334941Y-95098849D01*
X82462108Y-95064774D01*
X82519115Y-95031861D01*
X82519115Y-95926079D01*
X82585241Y-95915606D01*
X82585244Y-95915606D01*
X82787332Y-95849944D01*
X82976672Y-95753469D01*
X83148574Y-95628576D01*
X83148579Y-95628572D01*
X83298838Y-95478313D01*
X83298842Y-95478308D01*
X83423735Y-95306406D01*
X83520210Y-95117066D01*
X83585872Y-94914978D01*
X83585872Y-94914975D01*
X83596346Y-94848849D01*
X82702127Y-94848849D01*
X82735040Y-94791842D01*
X82743107Y-94761738D01*
X85363571Y-94761738D01*
X86728058Y-94761738D01*
X87726058Y-94761738D01*
X89228058Y-94761738D01*
X90226058Y-94761738D01*
X91728058Y-94761738D01*
X92726058Y-94761738D01*
X93680773Y-94761738D01*
X93925295Y-94328566D01*
X94228058Y-93740014D01*
X94228058Y-93259738D01*
X92726058Y-93259738D01*
X92726058Y-94761738D01*
X91728058Y-94761738D01*
X91728058Y-93259738D01*
X90226058Y-93259738D01*
X90226058Y-94761738D01*
X89228058Y-94761738D01*
X89228058Y-93259738D01*
X87726058Y-93259738D01*
X87726058Y-94761738D01*
X86728058Y-94761738D01*
X86728058Y-93436526D01*
X86691809Y-93462177D01*
X86685352Y-93466450D01*
X86632279Y-93499236D01*
X86625563Y-93503100D01*
X86584222Y-93525197D01*
X86577281Y-93528633D01*
X86385683Y-93616134D01*
X86377503Y-93619522D01*
X86327303Y-93638245D01*
X86318904Y-93641041D01*
X86255141Y-93659762D01*
X86247562Y-93680307D01*
X86245787Y-93684843D01*
X86230785Y-93721059D01*
X86228835Y-93725517D01*
X86216506Y-93752261D01*
X86214381Y-93756643D01*
X86100116Y-93980898D01*
X86097820Y-93985192D01*
X86083430Y-94010887D01*
X86080969Y-94015086D01*
X86060488Y-94048509D01*
X86057862Y-94052612D01*
X86041495Y-94077107D01*
X86038711Y-94081101D01*
X85890758Y-94284742D01*
X85887816Y-94288629D01*
X85869558Y-94311787D01*
X85866467Y-94315553D01*
X85841006Y-94345360D01*
X85837772Y-94348999D01*
X85817798Y-94370604D01*
X85814428Y-94374108D01*
X85636476Y-94552060D01*
X85632972Y-94555430D01*
X85611367Y-94575404D01*
X85607728Y-94578638D01*
X85577921Y-94604099D01*
X85574155Y-94607190D01*
X85550997Y-94625448D01*
X85547110Y-94628390D01*
X85363571Y-94761738D01*
X82743107Y-94761738D01*
X82769115Y-94664675D01*
X82769115Y-94533023D01*
X82735040Y-94405856D01*
X82702127Y-94348849D01*
X83596346Y-94348849D01*
X83585873Y-94282723D01*
X83582544Y-94272479D01*
X83580547Y-94202638D01*
X83616625Y-94142804D01*
X83679325Y-94111974D01*
X83738796Y-94116227D01*
X83749040Y-94119556D01*
X83815166Y-94130029D01*
X83815166Y-93235810D01*
X83872173Y-93268723D01*
X83999340Y-93302798D01*
X84130992Y-93302798D01*
X84258159Y-93268723D01*
X84315166Y-93235810D01*
X84315166Y-94130028D01*
X84381292Y-94119555D01*
X84381295Y-94119555D01*
X84583383Y-94053893D01*
X84772723Y-93957418D01*
X84944625Y-93832525D01*
X84944630Y-93832521D01*
X85094889Y-93682262D01*
X85094893Y-93682257D01*
X85219786Y-93510355D01*
X85316261Y-93321015D01*
X85381923Y-93118927D01*
X85381923Y-93118924D01*
X85392397Y-93052798D01*
X84498178Y-93052798D01*
X84531091Y-92995791D01*
X84565166Y-92868624D01*
X84565166Y-92736972D01*
X84531091Y-92609805D01*
X84498178Y-92552798D01*
X85444845Y-92552798D01*
X85511884Y-92572483D01*
X85521632Y-92583530D01*
X85523258Y-92581513D01*
X85588118Y-92633781D01*
X85588120Y-92633782D01*
X85718898Y-92693508D01*
X85718903Y-92693509D01*
X85861217Y-92713969D01*
X86003530Y-92693509D01*
X86003535Y-92693508D01*
X86134314Y-92633782D01*
X86180949Y-92596202D01*
X86180953Y-92596198D01*
X86515414Y-92261738D01*
X87926798Y-92261738D01*
X89228058Y-92261738D01*
X90226058Y-92261738D01*
X91728058Y-92261738D01*
X91728058Y-90948615D01*
X92726058Y-90948615D01*
X92726058Y-92261738D01*
X94228058Y-92261738D01*
X94228058Y-90890639D01*
X94138981Y-90955357D01*
X94122391Y-90965524D01*
X93954094Y-91051276D01*
X93936117Y-91058722D01*
X93756478Y-91117090D01*
X93737558Y-91121632D01*
X93550999Y-91151180D01*
X93531601Y-91152707D01*
X93342717Y-91152707D01*
X93323319Y-91151180D01*
X93136760Y-91121632D01*
X93117840Y-91117090D01*
X92938201Y-91058722D01*
X92920224Y-91051276D01*
X92751927Y-90965524D01*
X92735337Y-90955357D01*
X92726058Y-90948615D01*
X91728058Y-90948615D01*
X91728058Y-90759738D01*
X90226058Y-90759738D01*
X90226058Y-92261738D01*
X89228058Y-92261738D01*
X89228058Y-90759738D01*
X88541189Y-90759738D01*
X88561357Y-90900014D01*
X88562303Y-90908815D01*
X88566124Y-90962249D01*
X88566440Y-90971094D01*
X88566440Y-91042400D01*
X88566124Y-91051245D01*
X88562303Y-91104679D01*
X88561357Y-91113480D01*
X88530748Y-91326377D01*
X88529176Y-91335089D01*
X88517789Y-91387435D01*
X88515601Y-91396010D01*
X88495511Y-91464434D01*
X88492715Y-91472833D01*
X88473992Y-91523033D01*
X88470604Y-91531213D01*
X88383103Y-91722811D01*
X88379667Y-91729752D01*
X88357570Y-91771093D01*
X88353706Y-91777809D01*
X88320920Y-91830882D01*
X88316647Y-91837339D01*
X88289577Y-91875594D01*
X88284907Y-91881774D01*
X88219362Y-91963110D01*
X88217241Y-91965672D01*
X88204204Y-91980990D01*
X88202016Y-91983492D01*
X88184156Y-92003372D01*
X88181908Y-92005808D01*
X88168113Y-92020361D01*
X88165800Y-92022736D01*
X87926798Y-92261738D01*
X86515414Y-92261738D01*
X86639034Y-92138118D01*
X85990625Y-91489709D01*
X86054210Y-91472672D01*
X86168224Y-91406846D01*
X86261316Y-91313754D01*
X86327142Y-91199740D01*
X86344179Y-91136155D01*
X86992588Y-91784564D01*
X87450668Y-91326483D01*
X87450672Y-91326479D01*
X87488252Y-91279844D01*
X87547978Y-91149065D01*
X87547979Y-91149060D01*
X87568439Y-91006747D01*
X87547979Y-90864433D01*
X87547978Y-90864428D01*
X87488252Y-90733649D01*
X87450672Y-90687014D01*
X86992588Y-90228930D01*
X86344179Y-90877338D01*
X86327142Y-90813754D01*
X86261316Y-90699740D01*
X86168224Y-90606648D01*
X86054210Y-90540822D01*
X85990625Y-90523784D01*
X86639034Y-89875376D01*
X86314674Y-89551016D01*
X87726058Y-89551016D01*
X87936780Y-89761738D01*
X89228058Y-89761738D01*
X90226058Y-89761738D01*
X91728058Y-89761738D01*
X95226058Y-89761738D01*
X95828773Y-89761738D01*
X96066374Y-88939151D01*
X96234372Y-88259738D01*
X95226058Y-88259738D01*
X95226058Y-89761738D01*
X91728058Y-89761738D01*
X91728058Y-88708798D01*
X92726058Y-88708798D01*
X92735337Y-88702057D01*
X92751927Y-88691890D01*
X92920224Y-88606138D01*
X92938201Y-88598692D01*
X93117840Y-88540324D01*
X93136760Y-88535782D01*
X93323319Y-88506234D01*
X93342717Y-88504707D01*
X93531601Y-88504707D01*
X93550999Y-88506234D01*
X93737558Y-88535782D01*
X93756478Y-88540324D01*
X93936117Y-88598692D01*
X93954094Y-88606138D01*
X94122391Y-88691890D01*
X94138981Y-88702057D01*
X94228058Y-88766774D01*
X94228058Y-88259738D01*
X92726058Y-88259738D01*
X92726058Y-88708798D01*
X91728058Y-88708798D01*
X91728058Y-88259738D01*
X90226058Y-88259738D01*
X90226058Y-89761738D01*
X89228058Y-89761738D01*
X89228058Y-88259738D01*
X87726058Y-88259738D01*
X87726058Y-89551016D01*
X86314674Y-89551016D01*
X86180949Y-89417291D01*
X86134314Y-89379711D01*
X86003535Y-89319985D01*
X86003530Y-89319984D01*
X85861217Y-89299524D01*
X85718903Y-89319984D01*
X85718898Y-89319985D01*
X85588119Y-89379711D01*
X85541484Y-89417291D01*
X85541480Y-89417295D01*
X85083400Y-89875376D01*
X85731808Y-90523784D01*
X85668224Y-90540822D01*
X85554210Y-90606648D01*
X85461118Y-90699740D01*
X85395292Y-90813754D01*
X85378254Y-90877338D01*
X84729846Y-90228930D01*
X84271765Y-90687010D01*
X84271761Y-90687014D01*
X84234181Y-90733649D01*
X84174455Y-90864428D01*
X84174454Y-90864433D01*
X84153994Y-91006747D01*
X84174454Y-91149060D01*
X84174455Y-91149065D01*
X84234181Y-91279844D01*
X84286450Y-91344706D01*
X84284065Y-91346627D01*
X84296634Y-91357907D01*
X84315166Y-91423118D01*
X84315166Y-92369786D01*
X84258159Y-92336873D01*
X84130992Y-92302798D01*
X83999340Y-92302798D01*
X83872173Y-92336873D01*
X83815166Y-92369786D01*
X83815166Y-91475566D01*
X83815165Y-91475566D01*
X83749041Y-91486039D01*
X83546950Y-91551701D01*
X83357608Y-91648177D01*
X83185706Y-91773070D01*
X83185701Y-91773074D01*
X83035442Y-91923333D01*
X83035438Y-91923338D01*
X82910545Y-92095240D01*
X82814070Y-92284580D01*
X82748408Y-92486668D01*
X82748408Y-92486671D01*
X82737935Y-92552798D01*
X83632154Y-92552798D01*
X83599241Y-92609805D01*
X83565166Y-92736972D01*
X83565166Y-92868624D01*
X83599241Y-92995791D01*
X83632154Y-93052798D01*
X82737935Y-93052798D01*
X82748408Y-93118924D01*
X82748409Y-93118931D01*
X82751737Y-93129172D01*
X82753732Y-93199013D01*
X82717651Y-93258846D01*
X82654950Y-93289673D01*
X82595494Y-93285422D01*
X82585238Y-93282090D01*
X82519115Y-93271617D01*
X82519115Y-94165837D01*
X82462108Y-94132924D01*
X82334941Y-94098849D01*
X82203289Y-94098849D01*
X82076122Y-94132924D01*
X82019115Y-94165837D01*
X82019115Y-93271617D01*
X82019114Y-93271617D01*
X81952990Y-93282090D01*
X81750899Y-93347752D01*
X81561557Y-93444228D01*
X81389655Y-93569121D01*
X81389650Y-93569125D01*
X81239391Y-93719384D01*
X81239387Y-93719389D01*
X81114494Y-93891291D01*
X81018019Y-94080631D01*
X80952357Y-94282719D01*
X80952357Y-94282722D01*
X80941884Y-94348849D01*
X81836103Y-94348849D01*
X81803190Y-94405856D01*
X81769115Y-94533023D01*
X81769115Y-94664675D01*
X81803190Y-94791842D01*
X81836103Y-94848849D01*
X80941884Y-94848849D01*
X80952357Y-94914975D01*
X80952357Y-94914976D01*
X80955688Y-94925229D01*
X80957680Y-94995071D01*
X80921596Y-95054902D01*
X80858894Y-95085727D01*
X80799438Y-95081473D01*
X80789187Y-95078142D01*
X80723063Y-95067669D01*
X80723063Y-95961889D01*
X80666056Y-95928976D01*
X80538889Y-95894901D01*
X80407237Y-95894901D01*
X80280070Y-95928976D01*
X80223063Y-95961889D01*
X80223063Y-95067669D01*
X80223062Y-95067669D01*
X80156938Y-95078142D01*
X79954847Y-95143804D01*
X79765505Y-95240280D01*
X79593603Y-95365173D01*
X79593598Y-95365177D01*
X79443339Y-95515436D01*
X79443335Y-95515441D01*
X79318442Y-95687343D01*
X79221967Y-95876683D01*
X79156305Y-96078771D01*
X79156305Y-96078774D01*
X79145832Y-96144901D01*
X78135393Y-96144901D01*
X78173657Y-95903309D01*
X78174512Y-95898521D01*
X78180252Y-95869658D01*
X78181294Y-95864906D01*
X78190442Y-95826789D01*
X78191672Y-95822073D01*
X78199674Y-95793696D01*
X78201089Y-95789032D01*
X78210607Y-95759738D01*
X77726058Y-95759738D01*
X77726058Y-97261738D01*
X76728058Y-97261738D01*
X76728058Y-95759738D01*
X75226058Y-95759738D01*
X75226058Y-97261738D01*
X74228058Y-97261738D01*
X74228058Y-95759738D01*
X72902868Y-95759738D01*
X71545044Y-95759738D01*
X70226058Y-95759738D01*
X70226058Y-97261738D01*
X69228058Y-97261738D01*
X69228058Y-95759738D01*
X67726058Y-95759738D01*
X67726058Y-97261738D01*
X66728058Y-97261738D01*
X66728058Y-95759738D01*
X65226058Y-95759738D01*
X65226058Y-97261738D01*
X64228058Y-97261738D01*
X64228058Y-95759738D01*
X62726058Y-95759738D01*
X62726058Y-97261738D01*
X61728058Y-97261738D01*
X61728058Y-95759738D01*
X60226058Y-95759738D01*
X60226058Y-97261738D01*
X56728058Y-97261738D01*
X56728058Y-95759738D01*
X55226058Y-95759738D01*
X55226058Y-97261738D01*
X54228058Y-97261738D01*
X54228058Y-95759738D01*
X52726058Y-95759738D01*
X52726058Y-97261738D01*
X51728058Y-97261738D01*
X51728058Y-95759738D01*
X50226058Y-95759738D01*
X50226058Y-96078055D01*
X48815332Y-96078055D01*
X46315332Y-93575717D01*
X47726058Y-93575717D01*
X48910970Y-94761738D01*
X49228058Y-94761738D01*
X50226058Y-94761738D01*
X51728058Y-94761738D01*
X52726058Y-94761738D01*
X54228058Y-94761738D01*
X55226058Y-94761738D01*
X56728058Y-94761738D01*
X57726058Y-94761738D01*
X59228058Y-94761738D01*
X65318032Y-94761738D01*
X66728058Y-94761738D01*
X67726058Y-94761738D01*
X69228058Y-94761738D01*
X70226058Y-94761738D01*
X71728058Y-94761738D01*
X72726058Y-94761738D01*
X74228058Y-94761738D01*
X75226058Y-94761738D01*
X76728058Y-94761738D01*
X77726058Y-94761738D01*
X78785654Y-94761738D01*
X78901753Y-94645639D01*
X78905257Y-94642269D01*
X78926862Y-94622295D01*
X78930501Y-94619061D01*
X78960308Y-94593600D01*
X78964074Y-94590509D01*
X78987232Y-94572251D01*
X78991119Y-94569309D01*
X79194760Y-94421356D01*
X79198754Y-94418572D01*
X79223249Y-94402205D01*
X79227352Y-94399579D01*
X79228058Y-94399146D01*
X79228058Y-93259738D01*
X77726058Y-93259738D01*
X77726058Y-94761738D01*
X76728058Y-94761738D01*
X76728058Y-93259738D01*
X75226058Y-93259738D01*
X75226058Y-94761738D01*
X74228058Y-94761738D01*
X74228058Y-93259738D01*
X72726058Y-93259738D01*
X72726058Y-94761738D01*
X71728058Y-94761738D01*
X71728058Y-93259738D01*
X70226058Y-93259738D01*
X70226058Y-94761738D01*
X69228058Y-94761738D01*
X69228058Y-93259738D01*
X67726058Y-93259738D01*
X67726058Y-94761738D01*
X66728058Y-94761738D01*
X66728058Y-93259738D01*
X66411655Y-93259738D01*
X66313906Y-93495727D01*
X66308703Y-93506728D01*
X66146596Y-93810010D01*
X66140340Y-93820448D01*
X65949286Y-94106380D01*
X65942037Y-94116154D01*
X65723876Y-94381983D01*
X65715704Y-94390999D01*
X65472539Y-94634164D01*
X65463523Y-94642336D01*
X65318032Y-94761738D01*
X59228058Y-94761738D01*
X59228058Y-93259738D01*
X57726058Y-93259738D01*
X57726058Y-94761738D01*
X56728058Y-94761738D01*
X56728058Y-93259738D01*
X55226058Y-93259738D01*
X55226058Y-94761738D01*
X54228058Y-94761738D01*
X54228058Y-93259738D01*
X52726058Y-93259738D01*
X52726058Y-94761738D01*
X51728058Y-94761738D01*
X51728058Y-93259738D01*
X50226058Y-93259738D01*
X50226058Y-94761738D01*
X49228058Y-94761738D01*
X49228058Y-93259738D01*
X47726058Y-93259738D01*
X47726058Y-93575717D01*
X46315332Y-93575717D01*
X45111878Y-92371137D01*
X45078422Y-92309799D01*
X45083440Y-92240110D01*
X45125337Y-92184196D01*
X45190813Y-92159810D01*
X45259079Y-92174694D01*
X45272486Y-92183180D01*
X45384560Y-92264605D01*
X45573900Y-92361080D01*
X45775989Y-92426742D01*
X45842118Y-92437216D01*
X45842118Y-91542997D01*
X45899125Y-91575910D01*
X46026292Y-91609985D01*
X46157944Y-91609985D01*
X46285111Y-91575910D01*
X46342118Y-91542997D01*
X46342118Y-92437215D01*
X46408244Y-92426742D01*
X46408247Y-92426742D01*
X46610335Y-92361080D01*
X46799675Y-92264605D01*
X46803621Y-92261738D01*
X48140493Y-92261738D01*
X49228058Y-92261738D01*
X50226058Y-92261738D01*
X51728058Y-92261738D01*
X52726058Y-92261738D01*
X54228058Y-92261738D01*
X55226058Y-92261738D01*
X56728058Y-92261738D01*
X57726058Y-92261738D01*
X59228058Y-92261738D01*
X67726058Y-92261738D01*
X69228058Y-92261738D01*
X70226058Y-92261738D01*
X71728058Y-92261738D01*
X72726058Y-92261738D01*
X74228058Y-92261738D01*
X75226058Y-92261738D01*
X76728058Y-92261738D01*
X77726058Y-92261738D01*
X79228058Y-92261738D01*
X80226058Y-92261738D01*
X81728058Y-92261738D01*
X81728058Y-90759738D01*
X80226058Y-90759738D01*
X80226058Y-92261738D01*
X79228058Y-92261738D01*
X79228058Y-90759738D01*
X77726058Y-90759738D01*
X77726058Y-92261738D01*
X76728058Y-92261738D01*
X76728058Y-90759738D01*
X75226058Y-90759738D01*
X75226058Y-92261738D01*
X74228058Y-92261738D01*
X74228058Y-90759738D01*
X72726058Y-90759738D01*
X72726058Y-92261738D01*
X71728058Y-92261738D01*
X71728058Y-90759738D01*
X70226058Y-90759738D01*
X70226058Y-92261738D01*
X69228058Y-92261738D01*
X69228058Y-90759738D01*
X67726058Y-90759738D01*
X67726058Y-92261738D01*
X59228058Y-92261738D01*
X59228058Y-90759738D01*
X57726058Y-90759738D01*
X57726058Y-92261738D01*
X56728058Y-92261738D01*
X56728058Y-90759738D01*
X55226058Y-90759738D01*
X55226058Y-92261738D01*
X54228058Y-92261738D01*
X54228058Y-90759738D01*
X52726058Y-90759738D01*
X52726058Y-92261738D01*
X51728058Y-92261738D01*
X51728058Y-90944107D01*
X51712574Y-90955357D01*
X51695984Y-90965524D01*
X51527687Y-91051276D01*
X51509710Y-91058722D01*
X51330071Y-91117090D01*
X51311151Y-91121632D01*
X51124592Y-91151180D01*
X51105194Y-91152707D01*
X50916310Y-91152707D01*
X50896912Y-91151180D01*
X50710353Y-91121632D01*
X50691433Y-91117090D01*
X50511794Y-91058722D01*
X50493817Y-91051276D01*
X50325520Y-90965524D01*
X50308930Y-90955357D01*
X50226058Y-90895147D01*
X50226058Y-92261738D01*
X49228058Y-92261738D01*
X49228058Y-90759738D01*
X48413911Y-90759738D01*
X48439746Y-90922855D01*
X48436617Y-90975912D01*
X48398803Y-91109985D01*
X48436617Y-91244058D01*
X48439746Y-91297115D01*
X48391524Y-91601577D01*
X48390669Y-91606365D01*
X48384929Y-91635228D01*
X48383887Y-91639980D01*
X48374739Y-91678097D01*
X48373509Y-91682813D01*
X48365507Y-91711190D01*
X48364092Y-91715854D01*
X48286309Y-91955248D01*
X48284713Y-91959849D01*
X48274514Y-91987494D01*
X48272739Y-91992030D01*
X48257737Y-92028246D01*
X48255787Y-92032704D01*
X48243458Y-92059448D01*
X48241333Y-92063830D01*
X48140493Y-92261738D01*
X46803621Y-92261738D01*
X46971577Y-92139712D01*
X46971582Y-92139708D01*
X47121841Y-91989449D01*
X47121845Y-91989444D01*
X47246738Y-91817542D01*
X47343213Y-91628202D01*
X47408875Y-91426114D01*
X47408875Y-91426111D01*
X47419349Y-91359985D01*
X46525130Y-91359985D01*
X46558043Y-91302978D01*
X46592118Y-91175811D01*
X46592118Y-91044159D01*
X46558043Y-90916992D01*
X46525130Y-90859985D01*
X47419349Y-90859985D01*
X47408875Y-90793858D01*
X47408875Y-90793855D01*
X47343213Y-90591767D01*
X47246738Y-90402427D01*
X47121845Y-90230525D01*
X47121841Y-90230520D01*
X46971582Y-90080261D01*
X46971577Y-90080257D01*
X46799675Y-89955364D01*
X46610333Y-89858888D01*
X46408242Y-89793226D01*
X46342118Y-89782753D01*
X46342118Y-90676973D01*
X46285111Y-90644060D01*
X46157944Y-90609985D01*
X46026292Y-90609985D01*
X45899125Y-90644060D01*
X45842118Y-90676973D01*
X45842118Y-89782753D01*
X45842117Y-89782753D01*
X45775994Y-89793226D01*
X45765740Y-89796558D01*
X45695899Y-89798551D01*
X45636067Y-89762469D01*
X45605241Y-89699767D01*
X45609495Y-89640306D01*
X45612822Y-89630065D01*
X45612823Y-89630059D01*
X45623297Y-89563933D01*
X44729078Y-89563933D01*
X44761991Y-89506926D01*
X44784385Y-89423353D01*
X47726058Y-89423353D01*
X47841380Y-89538675D01*
X47844750Y-89542179D01*
X47864724Y-89563784D01*
X47867958Y-89567423D01*
X47893419Y-89597230D01*
X47896510Y-89600996D01*
X47914768Y-89624154D01*
X47917710Y-89628041D01*
X48014846Y-89761738D01*
X49228058Y-89761738D01*
X52726058Y-89761738D01*
X54228058Y-89761738D01*
X55226058Y-89761738D01*
X56728058Y-89761738D01*
X57726058Y-89761738D01*
X59228058Y-89761738D01*
X59228058Y-89656005D01*
X60226058Y-89656005D01*
X60339258Y-89518071D01*
X60347430Y-89509055D01*
X60590595Y-89265890D01*
X60599611Y-89257718D01*
X60837077Y-89062834D01*
X65226058Y-89062834D01*
X65463523Y-89257718D01*
X65472539Y-89265890D01*
X65715704Y-89509055D01*
X65723876Y-89518071D01*
X65923849Y-89761738D01*
X66728058Y-89761738D01*
X67726058Y-89761738D01*
X69228058Y-89761738D01*
X70226058Y-89761738D01*
X71728058Y-89761738D01*
X72726058Y-89761738D01*
X74228058Y-89761738D01*
X75226058Y-89761738D01*
X76728058Y-89761738D01*
X77726058Y-89761738D01*
X79228058Y-89761738D01*
X80226058Y-89761738D01*
X81728058Y-89761738D01*
X82726058Y-89761738D01*
X83785654Y-89761738D01*
X84165962Y-89381430D01*
X84206188Y-89354551D01*
X84208191Y-89353721D01*
X84209021Y-89351718D01*
X84228058Y-89323228D01*
X84228058Y-88259738D01*
X82726058Y-88259738D01*
X82726058Y-89761738D01*
X81728058Y-89761738D01*
X81728058Y-88259738D01*
X80226058Y-88259738D01*
X80226058Y-89761738D01*
X79228058Y-89761738D01*
X79228058Y-88259738D01*
X77726058Y-88259738D01*
X77726058Y-89761738D01*
X76728058Y-89761738D01*
X76728058Y-88259738D01*
X75226058Y-88259738D01*
X75226058Y-89761738D01*
X74228058Y-89761738D01*
X74228058Y-88259738D01*
X72726058Y-88259738D01*
X72726058Y-89761738D01*
X71728058Y-89761738D01*
X71728058Y-88259738D01*
X70226058Y-88259738D01*
X70226058Y-89761738D01*
X69228058Y-89761738D01*
X69228058Y-88259738D01*
X67726058Y-88259738D01*
X67726058Y-89761738D01*
X66728058Y-89761738D01*
X66728058Y-88259738D01*
X65226058Y-88259738D01*
X65226058Y-89062834D01*
X60837077Y-89062834D01*
X60865440Y-89039557D01*
X60875214Y-89032308D01*
X61161146Y-88841254D01*
X61171584Y-88834998D01*
X61474866Y-88672891D01*
X61485866Y-88667688D01*
X61728058Y-88567369D01*
X61728058Y-88259738D01*
X60226058Y-88259738D01*
X60226058Y-89656005D01*
X59228058Y-89656005D01*
X59228058Y-88259738D01*
X57726058Y-88259738D01*
X57726058Y-89761738D01*
X56728058Y-89761738D01*
X56728058Y-88259738D01*
X55226058Y-88259738D01*
X55226058Y-89761738D01*
X54228058Y-89761738D01*
X54228058Y-88259738D01*
X52726058Y-88259738D01*
X52726058Y-89761738D01*
X49228058Y-89761738D01*
X49228058Y-88762266D01*
X50226058Y-88762266D01*
X50308930Y-88702057D01*
X50325520Y-88691890D01*
X50493817Y-88606138D01*
X50511794Y-88598692D01*
X50691433Y-88540324D01*
X50710353Y-88535782D01*
X50896912Y-88506234D01*
X50916310Y-88504707D01*
X51105194Y-88504707D01*
X51124592Y-88506234D01*
X51311151Y-88535782D01*
X51330071Y-88540324D01*
X51509710Y-88598692D01*
X51527687Y-88606138D01*
X51695984Y-88691890D01*
X51712574Y-88702057D01*
X51728058Y-88713306D01*
X51728058Y-88259738D01*
X50226058Y-88259738D01*
X50226058Y-88762266D01*
X49228058Y-88762266D01*
X49228058Y-88259738D01*
X47726058Y-88259738D01*
X47726058Y-89423353D01*
X44784385Y-89423353D01*
X44796066Y-89379759D01*
X44796066Y-89248107D01*
X44761991Y-89120940D01*
X44729078Y-89063933D01*
X45623297Y-89063933D01*
X45612823Y-88997806D01*
X45612823Y-88997803D01*
X45547161Y-88795715D01*
X45450686Y-88606375D01*
X45325793Y-88434473D01*
X45325789Y-88434468D01*
X45175530Y-88284209D01*
X45175525Y-88284205D01*
X45003623Y-88159312D01*
X44814281Y-88062836D01*
X44612190Y-87997174D01*
X44546066Y-87986701D01*
X44546066Y-88880921D01*
X44489059Y-88848008D01*
X44361892Y-88813933D01*
X44230240Y-88813933D01*
X44103073Y-88848008D01*
X44046066Y-88880921D01*
X44046066Y-87986701D01*
X44046065Y-87986701D01*
X43979943Y-87997174D01*
X43969684Y-88000507D01*
X43899843Y-88002497D01*
X43840012Y-87966412D01*
X43809189Y-87903709D01*
X43813445Y-87844249D01*
X43816772Y-87834008D01*
X43827246Y-87767882D01*
X42933027Y-87767882D01*
X42965940Y-87710875D01*
X43000015Y-87583708D01*
X43000015Y-87452056D01*
X42965940Y-87324889D01*
X42933027Y-87267882D01*
X43827246Y-87267882D01*
X43816772Y-87201755D01*
X43816772Y-87201752D01*
X43801132Y-87153616D01*
X45226058Y-87153616D01*
X45245529Y-87162593D01*
X45249911Y-87164718D01*
X45440322Y-87261738D01*
X46728058Y-87261738D01*
X47726058Y-87261738D01*
X49228058Y-87261738D01*
X50226058Y-87261738D01*
X51728058Y-87261738D01*
X52726058Y-87261738D01*
X54228058Y-87261738D01*
X55226058Y-87261738D01*
X56728058Y-87261738D01*
X57726058Y-87261738D01*
X59228058Y-87261738D01*
X60226058Y-87261738D01*
X61728058Y-87261738D01*
X62726058Y-87261738D01*
X64228058Y-87261738D01*
X65226058Y-87261738D01*
X66728058Y-87261738D01*
X67726058Y-87261738D01*
X69228058Y-87261738D01*
X70226058Y-87261738D01*
X71728058Y-87261738D01*
X72726058Y-87261738D01*
X74228058Y-87261738D01*
X75226058Y-87261738D01*
X76728058Y-87261738D01*
X77726058Y-87261738D01*
X79228058Y-87261738D01*
X80226058Y-87261738D01*
X81728058Y-87261738D01*
X82726058Y-87261738D01*
X84228058Y-87261738D01*
X85226058Y-87261738D01*
X86728058Y-87261738D01*
X87726058Y-87261738D01*
X89228058Y-87261738D01*
X90226058Y-87261738D01*
X91728058Y-87261738D01*
X92726058Y-87261738D01*
X94228058Y-87261738D01*
X95226058Y-87261738D01*
X96451084Y-87261738D01*
X96494769Y-87050168D01*
X96653715Y-86094666D01*
X96696158Y-85759738D01*
X95226058Y-85759738D01*
X95226058Y-87261738D01*
X94228058Y-87261738D01*
X94228058Y-85759738D01*
X92726058Y-85759738D01*
X92726058Y-87261738D01*
X91728058Y-87261738D01*
X91728058Y-85759738D01*
X90226058Y-85759738D01*
X90226058Y-87261738D01*
X89228058Y-87261738D01*
X89228058Y-85759738D01*
X87726058Y-85759738D01*
X87726058Y-87261738D01*
X86728058Y-87261738D01*
X86728058Y-85759738D01*
X85226058Y-85759738D01*
X85226058Y-87261738D01*
X84228058Y-87261738D01*
X84228058Y-85759738D01*
X82726058Y-85759738D01*
X82726058Y-87261738D01*
X81728058Y-87261738D01*
X81728058Y-85759738D01*
X80226058Y-85759738D01*
X80226058Y-87261738D01*
X79228058Y-87261738D01*
X79228058Y-85759738D01*
X77726058Y-85759738D01*
X77726058Y-87261738D01*
X76728058Y-87261738D01*
X76728058Y-85759738D01*
X75226058Y-85759738D01*
X75226058Y-87261738D01*
X74228058Y-87261738D01*
X74228058Y-85759738D01*
X72726058Y-85759738D01*
X72726058Y-87261738D01*
X71728058Y-87261738D01*
X71728058Y-85759738D01*
X70226058Y-85759738D01*
X70226058Y-87261738D01*
X69228058Y-87261738D01*
X69228058Y-85759738D01*
X67726058Y-85759738D01*
X67726058Y-87261738D01*
X66728058Y-87261738D01*
X66728058Y-85759738D01*
X65226058Y-85759738D01*
X65226058Y-87261738D01*
X64228058Y-87261738D01*
X64228058Y-85759738D01*
X62726058Y-85759738D01*
X62726058Y-87261738D01*
X61728058Y-87261738D01*
X61728058Y-85759738D01*
X60226058Y-85759738D01*
X60226058Y-87261738D01*
X59228058Y-87261738D01*
X59228058Y-85759738D01*
X57726058Y-85759738D01*
X57726058Y-87261738D01*
X56728058Y-87261738D01*
X56728058Y-85759738D01*
X55226058Y-85759738D01*
X55226058Y-87261738D01*
X54228058Y-87261738D01*
X54228058Y-85759738D01*
X52726058Y-85759738D01*
X52726058Y-87261738D01*
X51728058Y-87261738D01*
X51728058Y-85759738D01*
X50226058Y-85759738D01*
X50226058Y-87261738D01*
X49228058Y-87261738D01*
X49228058Y-85759738D01*
X47726058Y-85759738D01*
X47726058Y-87261738D01*
X46728058Y-87261738D01*
X46728058Y-85759738D01*
X45226058Y-85759738D01*
X45226058Y-87153616D01*
X43801132Y-87153616D01*
X43751110Y-86999664D01*
X43654635Y-86810324D01*
X43529742Y-86638422D01*
X43529738Y-86638417D01*
X43379479Y-86488158D01*
X43379474Y-86488154D01*
X43207572Y-86363261D01*
X43018230Y-86266785D01*
X42816139Y-86201123D01*
X42750015Y-86190650D01*
X42750015Y-87084870D01*
X42693008Y-87051957D01*
X42565841Y-87017882D01*
X42434189Y-87017882D01*
X42307022Y-87051957D01*
X42250015Y-87084870D01*
X42250015Y-86138202D01*
X42269700Y-86071163D01*
X42280750Y-86061417D01*
X42278731Y-86059790D01*
X42330999Y-85994928D01*
X42390725Y-85864149D01*
X42390726Y-85864144D01*
X42411186Y-85721831D01*
X42390726Y-85579517D01*
X42390725Y-85579512D01*
X42330999Y-85448733D01*
X42293419Y-85402098D01*
X41835335Y-84944014D01*
X41186926Y-85592422D01*
X41169889Y-85528838D01*
X41104063Y-85414824D01*
X41010971Y-85321732D01*
X40896957Y-85255906D01*
X40833372Y-85238868D01*
X41481781Y-84590460D01*
X41314674Y-84423353D01*
X42726058Y-84423353D01*
X43008547Y-84705842D01*
X43010860Y-84708217D01*
X43024655Y-84722770D01*
X43026903Y-84725206D01*
X43044763Y-84745086D01*
X43046951Y-84747588D01*
X43058994Y-84761738D01*
X44228058Y-84761738D01*
X45226058Y-84761738D01*
X46728058Y-84761738D01*
X47726058Y-84761738D01*
X49228058Y-84761738D01*
X50226058Y-84761738D01*
X51728058Y-84761738D01*
X52726058Y-84761738D01*
X54228058Y-84761738D01*
X55226058Y-84761738D01*
X56728058Y-84761738D01*
X57726058Y-84761738D01*
X59228058Y-84761738D01*
X60226058Y-84761738D01*
X61728058Y-84761738D01*
X62726058Y-84761738D01*
X64228058Y-84761738D01*
X65226058Y-84761738D01*
X66728058Y-84761738D01*
X67726058Y-84761738D01*
X69228058Y-84761738D01*
X70226058Y-84761738D01*
X71728058Y-84761738D01*
X72726058Y-84761738D01*
X74228058Y-84761738D01*
X75226058Y-84761738D01*
X76728058Y-84761738D01*
X77726058Y-84761738D01*
X79228058Y-84761738D01*
X80226058Y-84761738D01*
X81728058Y-84761738D01*
X82726058Y-84761738D01*
X84228058Y-84761738D01*
X85226058Y-84761738D01*
X86728058Y-84761738D01*
X87726058Y-84761738D01*
X89228058Y-84761738D01*
X90226058Y-84761738D01*
X91728058Y-84761738D01*
X92726058Y-84761738D01*
X94228058Y-84761738D01*
X95226058Y-84761738D01*
X96728058Y-84761738D01*
X96728058Y-83259738D01*
X95226058Y-83259738D01*
X95226058Y-84761738D01*
X94228058Y-84761738D01*
X94228058Y-83259738D01*
X92726058Y-83259738D01*
X92726058Y-84761738D01*
X91728058Y-84761738D01*
X91728058Y-83259738D01*
X90226058Y-83259738D01*
X90226058Y-84761738D01*
X89228058Y-84761738D01*
X89228058Y-83259738D01*
X87726058Y-83259738D01*
X87726058Y-84761738D01*
X86728058Y-84761738D01*
X86728058Y-84032164D01*
X86685410Y-84046022D01*
X86666490Y-84050564D01*
X86479931Y-84080112D01*
X86460533Y-84081639D01*
X86271649Y-84081639D01*
X86252251Y-84080112D01*
X86065692Y-84050564D01*
X86046772Y-84046022D01*
X85867133Y-83987654D01*
X85849156Y-83980208D01*
X85680859Y-83894456D01*
X85664269Y-83884289D01*
X85511458Y-83773266D01*
X85496662Y-83760629D01*
X85363101Y-83627068D01*
X85350464Y-83612272D01*
X85239441Y-83459461D01*
X85229274Y-83442871D01*
X85226058Y-83436559D01*
X85226058Y-84761738D01*
X84228058Y-84761738D01*
X84228058Y-83259738D01*
X82726058Y-83259738D01*
X82726058Y-84761738D01*
X81728058Y-84761738D01*
X81728058Y-83259738D01*
X80226058Y-83259738D01*
X80226058Y-84761738D01*
X79228058Y-84761738D01*
X79228058Y-83259738D01*
X77726058Y-83259738D01*
X77726058Y-84761738D01*
X76728058Y-84761738D01*
X76728058Y-83259738D01*
X75226058Y-83259738D01*
X75226058Y-84761738D01*
X74228058Y-84761738D01*
X74228058Y-83259738D01*
X72726058Y-83259738D01*
X72726058Y-84761738D01*
X71728058Y-84761738D01*
X71728058Y-83259738D01*
X70226058Y-83259738D01*
X70226058Y-84761738D01*
X69228058Y-84761738D01*
X69228058Y-83259738D01*
X67726058Y-83259738D01*
X67726058Y-84761738D01*
X66728058Y-84761738D01*
X66728058Y-83259738D01*
X65226058Y-83259738D01*
X65226058Y-84761738D01*
X64228058Y-84761738D01*
X64228058Y-83259738D01*
X62726058Y-83259738D01*
X62726058Y-84761738D01*
X61728058Y-84761738D01*
X61728058Y-83259738D01*
X60226058Y-83259738D01*
X60226058Y-84761738D01*
X59228058Y-84761738D01*
X59228058Y-83259738D01*
X57726058Y-83259738D01*
X57726058Y-84761738D01*
X56728058Y-84761738D01*
X56728058Y-83259738D01*
X55226058Y-83259738D01*
X55226058Y-84761738D01*
X54228058Y-84761738D01*
X54228058Y-83259738D01*
X52726058Y-83259738D01*
X52726058Y-84761738D01*
X51728058Y-84761738D01*
X51728058Y-83259738D01*
X50226058Y-83259738D01*
X50226058Y-84761738D01*
X49228058Y-84761738D01*
X49228058Y-83259738D01*
X47726058Y-83259738D01*
X47726058Y-84761738D01*
X46728058Y-84761738D01*
X46728058Y-83259738D01*
X45226058Y-83259738D01*
X45226058Y-84761738D01*
X44228058Y-84761738D01*
X44228058Y-84052468D01*
X44053524Y-84080112D01*
X44034126Y-84081639D01*
X43845242Y-84081639D01*
X43825844Y-84080112D01*
X43639285Y-84050564D01*
X43620365Y-84046022D01*
X43440726Y-83987654D01*
X43422749Y-83980208D01*
X43254452Y-83894456D01*
X43237862Y-83884289D01*
X43085051Y-83773266D01*
X43070255Y-83760629D01*
X42936694Y-83627068D01*
X42924057Y-83612272D01*
X42813034Y-83459461D01*
X42802867Y-83442871D01*
X42726058Y-83292125D01*
X42726058Y-84423353D01*
X41314674Y-84423353D01*
X41023696Y-84132375D01*
X40977061Y-84094795D01*
X40846282Y-84035069D01*
X40846277Y-84035068D01*
X40703964Y-84014608D01*
X40561650Y-84035068D01*
X40561645Y-84035069D01*
X40430866Y-84094795D01*
X40384231Y-84132375D01*
X40384227Y-84132379D01*
X39926147Y-84590460D01*
X40574555Y-85238868D01*
X40510971Y-85255906D01*
X40396957Y-85321732D01*
X40303865Y-85414824D01*
X40238039Y-85528838D01*
X40221001Y-85592422D01*
X39572593Y-84944014D01*
X39114512Y-85402094D01*
X39114508Y-85402098D01*
X39076928Y-85448733D01*
X39017202Y-85579512D01*
X39017201Y-85579517D01*
X38996741Y-85721831D01*
X39017201Y-85864144D01*
X39017202Y-85864149D01*
X39076928Y-85994928D01*
X39114508Y-86041563D01*
X39572593Y-86499648D01*
X40221001Y-85851239D01*
X40238039Y-85914824D01*
X40303865Y-86028838D01*
X40396957Y-86121930D01*
X40510971Y-86187756D01*
X40574555Y-86204793D01*
X39926147Y-86853202D01*
X40384231Y-87311286D01*
X40430866Y-87348866D01*
X40561645Y-87408592D01*
X40561650Y-87408593D01*
X40703964Y-87429053D01*
X40846277Y-87408593D01*
X40846282Y-87408592D01*
X40977060Y-87348866D01*
X40977062Y-87348865D01*
X41041923Y-87296597D01*
X41043851Y-87298990D01*
X41055189Y-87286374D01*
X41120336Y-87267882D01*
X42067003Y-87267882D01*
X42034090Y-87324889D01*
X42000015Y-87452056D01*
X42000015Y-87583708D01*
X42034090Y-87710875D01*
X42067003Y-87767882D01*
X41172784Y-87767882D01*
X41183257Y-87834008D01*
X41183257Y-87834011D01*
X41248919Y-88036099D01*
X41345394Y-88225439D01*
X41430385Y-88342421D01*
X41453865Y-88408228D01*
X41438039Y-88476281D01*
X41387933Y-88524976D01*
X41319455Y-88538851D01*
X41258898Y-88516849D01*
X41201016Y-88476281D01*
X41141366Y-88434473D01*
X41119362Y-88419051D01*
X40956734Y-88343138D01*
X40956725Y-88343135D01*
X40956723Y-88343134D01*
X40783365Y-88296619D01*
X40783358Y-88296617D01*
X40604569Y-88280925D01*
X40604565Y-88280925D01*
X40604563Y-88280925D01*
X40451297Y-88294299D01*
X40425752Y-88296528D01*
X40425748Y-88296528D01*
X40252375Y-88342952D01*
X40144641Y-88393174D01*
X40075562Y-88403657D01*
X40011782Y-88375129D01*
X40004569Y-88368466D01*
X39704114Y-88068010D01*
X39684775Y-88076021D01*
X39684429Y-88077201D01*
X39631625Y-88122956D01*
X39580114Y-88134162D01*
X37507524Y-88134162D01*
X37007526Y-87634164D01*
X39270267Y-87634164D01*
X39270267Y-87634163D01*
X36941838Y-85305734D01*
X36941838Y-87568476D01*
X36441840Y-87068478D01*
X36441840Y-84995888D01*
X36461525Y-84928849D01*
X36497201Y-84897934D01*
X36507991Y-84871887D01*
X35892045Y-84255941D01*
X35892038Y-84255935D01*
X35684051Y-84096342D01*
X35684035Y-84096331D01*
X35457002Y-83965252D01*
X35456986Y-83965244D01*
X35214784Y-83864922D01*
X34961533Y-83797063D01*
X34932746Y-83793273D01*
X37726058Y-83793273D01*
X38519004Y-84586219D01*
X39008709Y-84096514D01*
X39048935Y-84069635D01*
X39050938Y-84068805D01*
X39051768Y-84066802D01*
X39078647Y-84026576D01*
X39228058Y-83877165D01*
X39228058Y-83259738D01*
X37726058Y-83259738D01*
X37726058Y-83793273D01*
X34932746Y-83793273D01*
X34701613Y-83762843D01*
X34439424Y-83762843D01*
X34179504Y-83797063D01*
X33926253Y-83864922D01*
X33684051Y-83965244D01*
X33684035Y-83965252D01*
X33457002Y-84096331D01*
X33456986Y-84096342D01*
X33248999Y-84255935D01*
X33248992Y-84255941D01*
X33063617Y-84441316D01*
X33063611Y-84441323D01*
X32904018Y-84649310D01*
X32904007Y-84649326D01*
X32772928Y-84876359D01*
X32772920Y-84876375D01*
X32672598Y-85118577D01*
X32604739Y-85371828D01*
X32570519Y-85631748D01*
X32570519Y-85893937D01*
X32604739Y-86153857D01*
X32672598Y-86407108D01*
X32772920Y-86649310D01*
X32772928Y-86649326D01*
X32904007Y-86876359D01*
X32904018Y-86876375D01*
X33063611Y-87084362D01*
X33063617Y-87084369D01*
X33679563Y-87700315D01*
X33698902Y-87692304D01*
X33699249Y-87691125D01*
X33752053Y-87645370D01*
X33803564Y-87634164D01*
X35876154Y-87634164D01*
X36376152Y-88134162D01*
X34113410Y-88134162D01*
X36441839Y-90462591D01*
X36441840Y-90462590D01*
X36441840Y-88199850D01*
X36941838Y-88699848D01*
X36941838Y-90772438D01*
X36922153Y-90839477D01*
X36886476Y-90870391D01*
X36875686Y-90896438D01*
X37134133Y-91154885D01*
X37167618Y-91216208D01*
X37162634Y-91285900D01*
X37134133Y-91330247D01*
X23258267Y-105206114D01*
X23254569Y-105209663D01*
X22957744Y-105482911D01*
X22949923Y-105489535D01*
X22633571Y-105735760D01*
X22625231Y-105741714D01*
X22289615Y-105960984D01*
X22280810Y-105966231D01*
X21928248Y-106157028D01*
X21919041Y-106161529D01*
X21551918Y-106322564D01*
X21542371Y-106326289D01*
X21163217Y-106456453D01*
X21153394Y-106459378D01*
X20764769Y-106557791D01*
X20754739Y-106559894D01*
X20359314Y-106625879D01*
X20349144Y-106627146D01*
X19949643Y-106660250D01*
X19939403Y-106660674D01*
X19538507Y-106660674D01*
X19528267Y-106660250D01*
X19128765Y-106627146D01*
X19118595Y-106625879D01*
X18723170Y-106559894D01*
X18713140Y-106557791D01*
X18324515Y-106459378D01*
X18314692Y-106456453D01*
X17935538Y-106326289D01*
X17925991Y-106322564D01*
X17558868Y-106161529D01*
X17549661Y-106157028D01*
X17382095Y-106066346D01*
X17197097Y-105966230D01*
X17188294Y-105960984D01*
X16852678Y-105741714D01*
X16844338Y-105735760D01*
X16527986Y-105489535D01*
X16520165Y-105482911D01*
X16223339Y-105209663D01*
X16219641Y-105206114D01*
X15775265Y-104761738D01*
X17726058Y-104761738D01*
X19228058Y-104761738D01*
X20226058Y-104761738D01*
X21728058Y-104761738D01*
X21728058Y-104326938D01*
X22726058Y-104326938D01*
X23793258Y-103259738D01*
X22726058Y-103259738D01*
X22726058Y-104326938D01*
X21728058Y-104326938D01*
X21728058Y-103259738D01*
X20226058Y-103259738D01*
X20226058Y-104761738D01*
X19228058Y-104761738D01*
X19228058Y-103259738D01*
X17726058Y-103259738D01*
X17726058Y-104761738D01*
X15775265Y-104761738D01*
X14273265Y-103259738D01*
X15684649Y-103259738D01*
X16728058Y-104303147D01*
X16728058Y-103259738D01*
X15684649Y-103259738D01*
X14273265Y-103259738D01*
X13275265Y-102261738D01*
X15226058Y-102261738D01*
X16728058Y-102261738D01*
X17726058Y-102261738D01*
X19228058Y-102261738D01*
X20226058Y-102261738D01*
X21728058Y-102261738D01*
X22726058Y-102261738D01*
X24228058Y-102261738D01*
X24228058Y-101826938D01*
X25226058Y-101826938D01*
X26293258Y-100759738D01*
X25226058Y-100759738D01*
X25226058Y-101826938D01*
X24228058Y-101826938D01*
X24228058Y-100759738D01*
X22726058Y-100759738D01*
X22726058Y-102261738D01*
X21728058Y-102261738D01*
X21728058Y-100759738D01*
X20226058Y-100759738D01*
X20226058Y-102261738D01*
X19228058Y-102261738D01*
X19228058Y-100759738D01*
X17726058Y-100759738D01*
X17726058Y-102261738D01*
X16728058Y-102261738D01*
X16728058Y-100759738D01*
X15226058Y-100759738D01*
X15226058Y-102261738D01*
X13275265Y-102261738D01*
X11773265Y-100759738D01*
X13184649Y-100759738D01*
X14228058Y-101803147D01*
X14228058Y-100759738D01*
X13184649Y-100759738D01*
X11773265Y-100759738D01*
X11432643Y-100419116D01*
X11429094Y-100415418D01*
X11155818Y-100118562D01*
X11149194Y-100110741D01*
X10902969Y-99794389D01*
X10897014Y-99786049D01*
X10881131Y-99761738D01*
X12726058Y-99761738D01*
X14228058Y-99761738D01*
X15226058Y-99761738D01*
X16728058Y-99761738D01*
X17726058Y-99761738D01*
X19228058Y-99761738D01*
X20226058Y-99761738D01*
X21728058Y-99761738D01*
X22726058Y-99761738D01*
X24228058Y-99761738D01*
X25226058Y-99761738D01*
X26728058Y-99761738D01*
X26728058Y-99326938D01*
X27726058Y-99326938D01*
X28793258Y-98259738D01*
X27726058Y-98259738D01*
X27726058Y-99326938D01*
X26728058Y-99326938D01*
X26728058Y-98259738D01*
X25226058Y-98259738D01*
X25226058Y-99761738D01*
X24228058Y-99761738D01*
X24228058Y-98259738D01*
X22726058Y-98259738D01*
X22726058Y-99761738D01*
X21728058Y-99761738D01*
X21728058Y-98259738D01*
X20226058Y-98259738D01*
X20226058Y-99761738D01*
X19228058Y-99761738D01*
X19228058Y-98259738D01*
X17726058Y-98259738D01*
X17726058Y-99761738D01*
X16728058Y-99761738D01*
X16728058Y-98259738D01*
X15226058Y-98259738D01*
X15226058Y-99761738D01*
X14228058Y-99761738D01*
X14228058Y-98259738D01*
X12726058Y-98259738D01*
X12726058Y-99761738D01*
X10881131Y-99761738D01*
X10677745Y-99450434D01*
X10672504Y-99441638D01*
X10481695Y-99089053D01*
X10477207Y-99079874D01*
X10316161Y-98712725D01*
X10312446Y-98703203D01*
X10182275Y-98324027D01*
X10179353Y-98314213D01*
X10080937Y-97925574D01*
X10078840Y-97915572D01*
X10012849Y-97520116D01*
X10011587Y-97509980D01*
X9978482Y-97110462D01*
X9978058Y-97100222D01*
X9978058Y-96735473D01*
X10976058Y-96735473D01*
X10976058Y-97064074D01*
X10992436Y-97261738D01*
X11728058Y-97261738D01*
X12726058Y-97261738D01*
X14228058Y-97261738D01*
X15226058Y-97261738D01*
X16728058Y-97261738D01*
X17726058Y-97261738D01*
X19228058Y-97261738D01*
X20226058Y-97261738D01*
X21728058Y-97261738D01*
X22726058Y-97261738D01*
X24228058Y-97261738D01*
X25226058Y-97261738D01*
X26728058Y-97261738D01*
X27726058Y-97261738D01*
X29228058Y-97261738D01*
X29228058Y-96826938D01*
X30226058Y-96826938D01*
X31293258Y-95759738D01*
X30226058Y-95759738D01*
X30226058Y-96826938D01*
X29228058Y-96826938D01*
X29228058Y-95759738D01*
X27726058Y-95759738D01*
X27726058Y-97261738D01*
X26728058Y-97261738D01*
X26728058Y-95759738D01*
X25226058Y-95759738D01*
X25226058Y-97261738D01*
X24228058Y-97261738D01*
X24228058Y-95759738D01*
X22726058Y-95759738D01*
X22726058Y-97261738D01*
X21728058Y-97261738D01*
X21728058Y-95759738D01*
X20226058Y-95759738D01*
X20226058Y-97261738D01*
X19228058Y-97261738D01*
X19228058Y-95759738D01*
X17726058Y-95759738D01*
X17726058Y-97261738D01*
X16728058Y-97261738D01*
X16728058Y-95759738D01*
X15226058Y-95759738D01*
X15226058Y-97261738D01*
X14228058Y-97261738D01*
X14228058Y-95759738D01*
X12726058Y-95759738D01*
X12726058Y-97261738D01*
X11728058Y-97261738D01*
X11728058Y-95759738D01*
X11139874Y-95759738D01*
X11137940Y-95765369D01*
X11057275Y-96083909D01*
X11003189Y-96408027D01*
X10976058Y-96735473D01*
X9978058Y-96735473D01*
X9978058Y-96699327D01*
X9978482Y-96689087D01*
X9983063Y-96633799D01*
X10011587Y-96289565D01*
X10012849Y-96279435D01*
X10078840Y-95883971D01*
X10080936Y-95873978D01*
X10179357Y-95485319D01*
X10182273Y-95475528D01*
X10312449Y-95096337D01*
X10316159Y-95086830D01*
X10477204Y-94719683D01*
X10481695Y-94710496D01*
X10672506Y-94357908D01*
X10677752Y-94349106D01*
X10818990Y-94132924D01*
X10897021Y-94013488D01*
X10902964Y-94005165D01*
X11149197Y-93688804D01*
X11155804Y-93681003D01*
X11323902Y-93498399D01*
X12726058Y-93498399D01*
X12726058Y-94761738D01*
X14228058Y-94761738D01*
X15226058Y-94761738D01*
X16728058Y-94761738D01*
X17726058Y-94761738D01*
X19228058Y-94761738D01*
X20226058Y-94761738D01*
X21728058Y-94761738D01*
X22726058Y-94761738D01*
X24228058Y-94761738D01*
X25226058Y-94761738D01*
X26728058Y-94761738D01*
X27726058Y-94761738D01*
X29228058Y-94761738D01*
X30226058Y-94761738D01*
X31728058Y-94761738D01*
X31728058Y-94326938D01*
X32726058Y-94326938D01*
X33793258Y-93259738D01*
X32726058Y-93259738D01*
X32726058Y-94326938D01*
X31728058Y-94326938D01*
X31728058Y-93259738D01*
X30226058Y-93259738D01*
X30226058Y-94761738D01*
X29228058Y-94761738D01*
X29228058Y-93259738D01*
X27726058Y-93259738D01*
X27726058Y-94761738D01*
X26728058Y-94761738D01*
X26728058Y-93259738D01*
X25226058Y-93259738D01*
X25226058Y-94761738D01*
X24228058Y-94761738D01*
X24228058Y-93259738D01*
X22726058Y-93259738D01*
X22726058Y-94761738D01*
X21728058Y-94761738D01*
X21728058Y-93259738D01*
X20226058Y-93259738D01*
X20226058Y-94761738D01*
X19228058Y-94761738D01*
X19228058Y-93259738D01*
X17726058Y-93259738D01*
X17726058Y-94761738D01*
X16728058Y-94761738D01*
X16728058Y-93259738D01*
X15226058Y-93259738D01*
X15226058Y-94761738D01*
X14228058Y-94761738D01*
X14228058Y-93259738D01*
X12964719Y-93259738D01*
X12726058Y-93498399D01*
X11323902Y-93498399D01*
X11429129Y-93384092D01*
X11432619Y-93380455D01*
X13814675Y-90998399D01*
X15226058Y-90998399D01*
X15226058Y-92261738D01*
X16728058Y-92261738D01*
X17726058Y-92261738D01*
X19228058Y-92261738D01*
X20226058Y-92261738D01*
X21728058Y-92261738D01*
X22726058Y-92261738D01*
X24228058Y-92261738D01*
X25226058Y-92261738D01*
X26728058Y-92261738D01*
X27726058Y-92261738D01*
X29228058Y-92261738D01*
X30226058Y-92261738D01*
X31728058Y-92261738D01*
X32726058Y-92261738D01*
X34228058Y-92261738D01*
X34228058Y-90759738D01*
X32726058Y-90759738D01*
X32726058Y-92261738D01*
X31728058Y-92261738D01*
X31728058Y-90759738D01*
X30226058Y-90759738D01*
X30226058Y-92261738D01*
X29228058Y-92261738D01*
X29228058Y-90759738D01*
X27726058Y-90759738D01*
X27726058Y-92261738D01*
X26728058Y-92261738D01*
X26728058Y-90759738D01*
X25226058Y-90759738D01*
X25226058Y-92261738D01*
X24228058Y-92261738D01*
X24228058Y-90759738D01*
X22726058Y-90759738D01*
X22726058Y-92261738D01*
X21728058Y-92261738D01*
X21728058Y-90759738D01*
X20226058Y-90759738D01*
X20226058Y-92261738D01*
X19228058Y-92261738D01*
X19228058Y-90759738D01*
X17726058Y-90759738D01*
X17726058Y-92261738D01*
X16728058Y-92261738D01*
X16728058Y-90759738D01*
X15464719Y-90759738D01*
X15226058Y-90998399D01*
X13814675Y-90998399D01*
X16314675Y-88498399D01*
X17726058Y-88498399D01*
X17726058Y-89761738D01*
X19228058Y-89761738D01*
X20226058Y-89761738D01*
X21728058Y-89761738D01*
X22726058Y-89761738D01*
X24228058Y-89761738D01*
X25226058Y-89761738D01*
X26728058Y-89761738D01*
X27726058Y-89761738D01*
X29228058Y-89761738D01*
X30226058Y-89761738D01*
X31728058Y-89761738D01*
X31728058Y-88259738D01*
X30226058Y-88259738D01*
X30226058Y-89761738D01*
X29228058Y-89761738D01*
X29228058Y-88259738D01*
X27726058Y-88259738D01*
X27726058Y-89761738D01*
X26728058Y-89761738D01*
X26728058Y-88259738D01*
X25226058Y-88259738D01*
X25226058Y-89761738D01*
X24228058Y-89761738D01*
X24228058Y-88259738D01*
X22726058Y-88259738D01*
X22726058Y-89761738D01*
X21728058Y-89761738D01*
X21728058Y-88259738D01*
X20226058Y-88259738D01*
X20226058Y-89761738D01*
X19228058Y-89761738D01*
X19228058Y-88259738D01*
X17964719Y-88259738D01*
X17726058Y-88498399D01*
X16314675Y-88498399D01*
X18814675Y-85998399D01*
X20226058Y-85998399D01*
X20226058Y-87261738D01*
X21728058Y-87261738D01*
X22726058Y-87261738D01*
X24228058Y-87261738D01*
X25226058Y-87261738D01*
X26728058Y-87261738D01*
X27726058Y-87261738D01*
X29228058Y-87261738D01*
X29228058Y-85759738D01*
X27726058Y-85759738D01*
X27726058Y-87261738D01*
X26728058Y-87261738D01*
X26728058Y-85759738D01*
X25226058Y-85759738D01*
X25226058Y-87261738D01*
X24228058Y-87261738D01*
X24228058Y-85759738D01*
X22726058Y-85759738D01*
X22726058Y-87261738D01*
X21728058Y-87261738D01*
X21728058Y-85759738D01*
X20464720Y-85759738D01*
X20226058Y-85998399D01*
X18814675Y-85998399D01*
X21314675Y-83498399D01*
X22726058Y-83498399D01*
X22726058Y-84761738D01*
X24228058Y-84761738D01*
X25226058Y-84761738D01*
X26728058Y-84761738D01*
X26728058Y-83259738D01*
X25226058Y-83259738D01*
X25226058Y-84761738D01*
X24228058Y-84761738D01*
X24228058Y-83259738D01*
X22964720Y-83259738D01*
X22726058Y-83498399D01*
X21314675Y-83498399D01*
X23814675Y-80998399D01*
X25226058Y-80998399D01*
X25226058Y-82261738D01*
X25944305Y-82261738D01*
X25751217Y-82068650D01*
X25738580Y-82053854D01*
X25622931Y-81894677D01*
X25612764Y-81878086D01*
X25523440Y-81702776D01*
X25515994Y-81684801D01*
X25455193Y-81497677D01*
X25450651Y-81478755D01*
X25419873Y-81284423D01*
X25418346Y-81265026D01*
X25418346Y-81068272D01*
X25419873Y-81048875D01*
X25446789Y-80878925D01*
X25396160Y-80828296D01*
X25226058Y-80998399D01*
X23814675Y-80998399D01*
X25308482Y-79504592D01*
X25369803Y-79471109D01*
X25439495Y-79476093D01*
X25483842Y-79504594D01*
X25901389Y-79922141D01*
X25920728Y-79914130D01*
X25921075Y-79912951D01*
X25973879Y-79867196D01*
X26025390Y-79855990D01*
X28097980Y-79855990D01*
X28597978Y-80355988D01*
X26335236Y-80355988D01*
X28663665Y-82684417D01*
X28663666Y-82684416D01*
X28663666Y-80421676D01*
X29163664Y-80921674D01*
X29163664Y-82994264D01*
X29143979Y-83061303D01*
X29108302Y-83092217D01*
X29097512Y-83118264D01*
X29713458Y-83734210D01*
X29713465Y-83734216D01*
X29921452Y-83893809D01*
X29921468Y-83893820D01*
X30148501Y-84024899D01*
X30148517Y-84024907D01*
X30390719Y-84125229D01*
X30643970Y-84193088D01*
X30903890Y-84227308D01*
X30903905Y-84227309D01*
X31166065Y-84227309D01*
X31166079Y-84227308D01*
X31425999Y-84193088D01*
X31679250Y-84125229D01*
X31921452Y-84024907D01*
X31921468Y-84024899D01*
X32148501Y-83893820D01*
X32148517Y-83893809D01*
X32356504Y-83734216D01*
X32356511Y-83734210D01*
X32541886Y-83548835D01*
X32541892Y-83548828D01*
X32701485Y-83340841D01*
X32701496Y-83340825D01*
X32832575Y-83113792D01*
X32832583Y-83113776D01*
X32932905Y-82871574D01*
X33000764Y-82618323D01*
X33034984Y-82358403D01*
X33034985Y-82358389D01*
X33034985Y-82096228D01*
X33034984Y-82096214D01*
X33000764Y-81836294D01*
X32932905Y-81583043D01*
X32832583Y-81340841D01*
X32832575Y-81340825D01*
X32805121Y-81293273D01*
X35226058Y-81293273D01*
X36194523Y-82261738D01*
X36728058Y-82261738D01*
X37726058Y-82261738D01*
X39228058Y-82261738D01*
X40226058Y-82261738D01*
X41728058Y-82261738D01*
X45226058Y-82261738D01*
X46728058Y-82261738D01*
X47726058Y-82261738D01*
X49228058Y-82261738D01*
X50226058Y-82261738D01*
X51728058Y-82261738D01*
X52726058Y-82261738D01*
X54228058Y-82261738D01*
X55226058Y-82261738D01*
X56728058Y-82261738D01*
X57726058Y-82261738D01*
X59228058Y-82261738D01*
X60226058Y-82261738D01*
X61728058Y-82261738D01*
X62726058Y-82261738D01*
X64228058Y-82261738D01*
X65226058Y-82261738D01*
X66728058Y-82261738D01*
X67726058Y-82261738D01*
X69228058Y-82261738D01*
X70226058Y-82261738D01*
X71728058Y-82261738D01*
X72726058Y-82261738D01*
X74228058Y-82261738D01*
X75226058Y-82261738D01*
X76728058Y-82261738D01*
X77726058Y-82261738D01*
X79228058Y-82261738D01*
X80226058Y-82261738D01*
X81728058Y-82261738D01*
X82726058Y-82261738D01*
X84228058Y-82261738D01*
X87726058Y-82261738D01*
X89228058Y-82261738D01*
X90226058Y-82261738D01*
X91728058Y-82261738D01*
X92726058Y-82261738D01*
X94228058Y-82261738D01*
X95226058Y-82261738D01*
X96728058Y-82261738D01*
X96728058Y-80759738D01*
X95226058Y-80759738D01*
X95226058Y-82261738D01*
X94228058Y-82261738D01*
X94228058Y-80759738D01*
X92726058Y-80759738D01*
X92726058Y-82261738D01*
X91728058Y-82261738D01*
X91728058Y-80759738D01*
X90226058Y-80759738D01*
X90226058Y-82261738D01*
X89228058Y-82261738D01*
X89228058Y-80759738D01*
X87726058Y-80759738D01*
X87726058Y-82261738D01*
X84228058Y-82261738D01*
X84228058Y-82078718D01*
X85226058Y-82078718D01*
X85229274Y-82072407D01*
X85239441Y-82055817D01*
X85350464Y-81903006D01*
X85363101Y-81888210D01*
X85496662Y-81754649D01*
X85511458Y-81742012D01*
X85664269Y-81630989D01*
X85680859Y-81620822D01*
X85849156Y-81535070D01*
X85867133Y-81527624D01*
X86046772Y-81469256D01*
X86065692Y-81464714D01*
X86252251Y-81435166D01*
X86271649Y-81433639D01*
X86460533Y-81433639D01*
X86479931Y-81435166D01*
X86666490Y-81464714D01*
X86685410Y-81469256D01*
X86728058Y-81483113D01*
X86728058Y-80759738D01*
X85226058Y-80759738D01*
X85226058Y-82078718D01*
X84228058Y-82078718D01*
X84228058Y-80759738D01*
X82726058Y-80759738D01*
X82726058Y-82261738D01*
X81728058Y-82261738D01*
X81728058Y-80759738D01*
X80226058Y-80759738D01*
X80226058Y-82261738D01*
X79228058Y-82261738D01*
X79228058Y-80759738D01*
X77726058Y-80759738D01*
X77726058Y-82261738D01*
X76728058Y-82261738D01*
X76728058Y-80759738D01*
X75226058Y-80759738D01*
X75226058Y-82261738D01*
X74228058Y-82261738D01*
X74228058Y-80759738D01*
X72726058Y-80759738D01*
X72726058Y-82261738D01*
X71728058Y-82261738D01*
X71728058Y-80759738D01*
X70226058Y-80759738D01*
X70226058Y-82261738D01*
X69228058Y-82261738D01*
X69228058Y-80759738D01*
X67726058Y-80759738D01*
X67726058Y-82261738D01*
X66728058Y-82261738D01*
X66728058Y-80759738D01*
X65226058Y-80759738D01*
X65226058Y-82261738D01*
X64228058Y-82261738D01*
X64228058Y-80759738D01*
X62726058Y-80759738D01*
X62726058Y-82261738D01*
X61728058Y-82261738D01*
X61728058Y-80759738D01*
X60226058Y-80759738D01*
X60226058Y-82261738D01*
X59228058Y-82261738D01*
X59228058Y-80759738D01*
X57726058Y-80759738D01*
X57726058Y-82261738D01*
X56728058Y-82261738D01*
X56728058Y-80759738D01*
X55226058Y-80759738D01*
X55226058Y-82261738D01*
X54228058Y-82261738D01*
X54228058Y-80759738D01*
X52726058Y-80759738D01*
X52726058Y-82261738D01*
X51728058Y-82261738D01*
X51728058Y-80759738D01*
X50226058Y-80759738D01*
X50226058Y-82261738D01*
X49228058Y-82261738D01*
X49228058Y-80759738D01*
X47726058Y-80759738D01*
X47726058Y-82261738D01*
X46728058Y-82261738D01*
X46728058Y-80759738D01*
X45226058Y-80759738D01*
X45226058Y-82261738D01*
X41728058Y-82261738D01*
X41728058Y-82223152D01*
X42726058Y-82223152D01*
X42802867Y-82072407D01*
X42813034Y-82055817D01*
X42924057Y-81903006D01*
X42936694Y-81888210D01*
X43070255Y-81754649D01*
X43085051Y-81742012D01*
X43237862Y-81630989D01*
X43254452Y-81620822D01*
X43422749Y-81535070D01*
X43440726Y-81527624D01*
X43620365Y-81469256D01*
X43639285Y-81464714D01*
X43825844Y-81435166D01*
X43845242Y-81433639D01*
X44034126Y-81433639D01*
X44053524Y-81435166D01*
X44228058Y-81462809D01*
X44228058Y-80759738D01*
X42726058Y-80759738D01*
X42726058Y-82223152D01*
X41728058Y-82223152D01*
X41728058Y-80759738D01*
X40226058Y-80759738D01*
X40226058Y-82261738D01*
X39228058Y-82261738D01*
X39228058Y-80759738D01*
X37726058Y-80759738D01*
X37726058Y-82261738D01*
X36728058Y-82261738D01*
X36728058Y-80759738D01*
X35226058Y-80759738D01*
X35226058Y-81293273D01*
X32805121Y-81293273D01*
X32701496Y-81113792D01*
X32701485Y-81113776D01*
X32541892Y-80905789D01*
X32541886Y-80905782D01*
X31925940Y-80289836D01*
X31906601Y-80297847D01*
X31906255Y-80299027D01*
X31853451Y-80344782D01*
X31801940Y-80355988D01*
X29729350Y-80355988D01*
X29229352Y-79855990D01*
X31492093Y-79855990D01*
X31492093Y-79855989D01*
X30429377Y-78793273D01*
X32726058Y-78793273D01*
X33694523Y-79761738D01*
X34228058Y-79761738D01*
X35226058Y-79761738D01*
X36728058Y-79761738D01*
X37726058Y-79761738D01*
X39228058Y-79761738D01*
X40226058Y-79761738D01*
X41728058Y-79761738D01*
X42726058Y-79761738D01*
X44228058Y-79761738D01*
X45226058Y-79761738D01*
X46728058Y-79761738D01*
X47726058Y-79761738D01*
X49228058Y-79761738D01*
X50226058Y-79761738D01*
X51728058Y-79761738D01*
X52726058Y-79761738D01*
X54228058Y-79761738D01*
X55226058Y-79761738D01*
X56728058Y-79761738D01*
X57726058Y-79761738D01*
X59228058Y-79761738D01*
X59228058Y-78495580D01*
X62726058Y-78495580D01*
X62744005Y-78520283D01*
X62754171Y-78536873D01*
X62839923Y-78705170D01*
X62847369Y-78723147D01*
X62905737Y-78902786D01*
X62910279Y-78921706D01*
X62939827Y-79108265D01*
X62941354Y-79127663D01*
X62941354Y-79316547D01*
X62939827Y-79335945D01*
X62910279Y-79522504D01*
X62905737Y-79541424D01*
X62847369Y-79721063D01*
X62839923Y-79739040D01*
X62828358Y-79761738D01*
X64228058Y-79761738D01*
X65226058Y-79761738D01*
X66728058Y-79761738D01*
X67726058Y-79761738D01*
X69228058Y-79761738D01*
X70226058Y-79761738D01*
X71728058Y-79761738D01*
X72726058Y-79761738D01*
X74228058Y-79761738D01*
X75226058Y-79761738D01*
X76728058Y-79761738D01*
X77726058Y-79761738D01*
X79228058Y-79761738D01*
X80226058Y-79761738D01*
X81728058Y-79761738D01*
X82726058Y-79761738D01*
X84228058Y-79761738D01*
X85226058Y-79761738D01*
X86728058Y-79761738D01*
X87726058Y-79761738D01*
X89228058Y-79761738D01*
X90226058Y-79761738D01*
X91728058Y-79761738D01*
X92726058Y-79761738D01*
X94228058Y-79761738D01*
X95226058Y-79761738D01*
X96728058Y-79761738D01*
X96728058Y-79416968D01*
X96719265Y-79334847D01*
X96578874Y-78376401D01*
X96557135Y-78259738D01*
X95226058Y-78259738D01*
X95226058Y-79761738D01*
X94228058Y-79761738D01*
X94228058Y-78259738D01*
X92726058Y-78259738D01*
X92726058Y-79761738D01*
X91728058Y-79761738D01*
X91728058Y-78259738D01*
X90226058Y-78259738D01*
X90226058Y-79761738D01*
X89228058Y-79761738D01*
X89228058Y-78259738D01*
X87726058Y-78259738D01*
X87726058Y-79761738D01*
X86728058Y-79761738D01*
X86728058Y-78259738D01*
X85226058Y-78259738D01*
X85226058Y-79761738D01*
X84228058Y-79761738D01*
X84228058Y-78259738D01*
X82726058Y-78259738D01*
X82726058Y-79761738D01*
X81728058Y-79761738D01*
X81728058Y-78259738D01*
X80226058Y-78259738D01*
X80226058Y-79761738D01*
X79228058Y-79761738D01*
X79228058Y-78259738D01*
X77726058Y-78259738D01*
X77726058Y-79761738D01*
X76728058Y-79761738D01*
X76728058Y-78259738D01*
X75226058Y-78259738D01*
X75226058Y-79761738D01*
X74228058Y-79761738D01*
X74228058Y-78259738D01*
X72726058Y-78259738D01*
X72726058Y-79761738D01*
X71728058Y-79761738D01*
X71728058Y-78259738D01*
X70226058Y-78259738D01*
X70226058Y-79761738D01*
X69228058Y-79761738D01*
X69228058Y-78259738D01*
X67726058Y-78259738D01*
X67726058Y-79761738D01*
X66728058Y-79761738D01*
X66728058Y-78259738D01*
X65226058Y-78259738D01*
X65226058Y-79761738D01*
X64228058Y-79761738D01*
X64228058Y-78259738D01*
X62726058Y-78259738D01*
X62726058Y-78495580D01*
X59228058Y-78495580D01*
X59228058Y-78259738D01*
X57726058Y-78259738D01*
X57726058Y-79761738D01*
X56728058Y-79761738D01*
X56728058Y-78259738D01*
X55226058Y-78259738D01*
X55226058Y-79761738D01*
X54228058Y-79761738D01*
X54228058Y-78259738D01*
X52726058Y-78259738D01*
X52726058Y-79761738D01*
X51728058Y-79761738D01*
X51728058Y-78259738D01*
X50226058Y-78259738D01*
X50226058Y-79761738D01*
X49228058Y-79761738D01*
X49228058Y-78259738D01*
X47726058Y-78259738D01*
X47726058Y-79761738D01*
X46728058Y-79761738D01*
X46728058Y-78259738D01*
X45226058Y-78259738D01*
X45226058Y-79761738D01*
X44228058Y-79761738D01*
X44228058Y-78259738D01*
X42726058Y-78259738D01*
X42726058Y-79761738D01*
X41728058Y-79761738D01*
X41728058Y-78259738D01*
X40226058Y-78259738D01*
X40226058Y-79761738D01*
X39228058Y-79761738D01*
X39228058Y-78259738D01*
X37726058Y-78259738D01*
X37726058Y-79761738D01*
X36728058Y-79761738D01*
X36728058Y-78259738D01*
X35226058Y-78259738D01*
X35226058Y-79761738D01*
X34228058Y-79761738D01*
X34228058Y-78259738D01*
X32726058Y-78259738D01*
X32726058Y-78793273D01*
X30429377Y-78793273D01*
X29163664Y-77527560D01*
X29163664Y-79790302D01*
X28663666Y-79290304D01*
X28663666Y-77217714D01*
X28683351Y-77150675D01*
X28719027Y-77119760D01*
X28729817Y-77093713D01*
X28312270Y-76676166D01*
X28278785Y-76614843D01*
X28283769Y-76545151D01*
X28312268Y-76500806D01*
X28863955Y-75949119D01*
X30226058Y-75949119D01*
X30226058Y-76633413D01*
X30286431Y-76642975D01*
X30305353Y-76647517D01*
X30492477Y-76708318D01*
X30510452Y-76715764D01*
X30685762Y-76805088D01*
X30702353Y-76815255D01*
X30861530Y-76930904D01*
X30876326Y-76943541D01*
X31194523Y-77261738D01*
X31728058Y-77261738D01*
X32726058Y-77261738D01*
X34228058Y-77261738D01*
X35226058Y-77261738D01*
X36728058Y-77261738D01*
X36728058Y-77004812D01*
X36568217Y-76979496D01*
X36549297Y-76974954D01*
X36369658Y-76916586D01*
X36351681Y-76909140D01*
X36183384Y-76823388D01*
X36166794Y-76813221D01*
X36013983Y-76702198D01*
X36011173Y-76699798D01*
X37726058Y-76699798D01*
X37726058Y-77261738D01*
X39228058Y-77261738D01*
X40226058Y-77261738D01*
X41728058Y-77261738D01*
X42726058Y-77261738D01*
X44228058Y-77261738D01*
X45226058Y-77261738D01*
X46728058Y-77261738D01*
X47726058Y-77261738D01*
X49228058Y-77261738D01*
X49228058Y-76542804D01*
X49102588Y-76542804D01*
X49088704Y-76542024D01*
X48809676Y-76510585D01*
X48795967Y-76508256D01*
X48522213Y-76445773D01*
X48508852Y-76441924D01*
X48259910Y-76354816D01*
X50226058Y-76354816D01*
X50226058Y-77261738D01*
X51728058Y-77261738D01*
X52726058Y-77261738D01*
X54228058Y-77261738D01*
X55226058Y-77261738D01*
X56728058Y-77261738D01*
X57726058Y-77261738D01*
X59228058Y-77261738D01*
X60226058Y-77261738D01*
X61728058Y-77261738D01*
X62726058Y-77261738D01*
X64228058Y-77261738D01*
X65226058Y-77261738D01*
X66728058Y-77261738D01*
X67726058Y-77261738D01*
X69228058Y-77261738D01*
X70226058Y-77261738D01*
X71728058Y-77261738D01*
X72726058Y-77261738D01*
X74228058Y-77261738D01*
X75226058Y-77261738D01*
X76728058Y-77261738D01*
X77726058Y-77261738D01*
X79228058Y-77261738D01*
X79228058Y-76961905D01*
X82726058Y-76961905D01*
X82726058Y-77261738D01*
X84228058Y-77261738D01*
X85226058Y-77261738D01*
X86728058Y-77261738D01*
X87726058Y-77261738D01*
X89228058Y-77261738D01*
X90226058Y-77261738D01*
X91728058Y-77261738D01*
X91728058Y-76806479D01*
X92726058Y-76806479D01*
X92726058Y-77261738D01*
X94228058Y-77261738D01*
X95226058Y-77261738D01*
X96364599Y-77261738D01*
X96187198Y-76479508D01*
X95994337Y-75759738D01*
X95226058Y-75759738D01*
X95226058Y-77261738D01*
X94228058Y-77261738D01*
X94228058Y-76748503D01*
X94138981Y-76813221D01*
X94122391Y-76823388D01*
X93954094Y-76909140D01*
X93936117Y-76916586D01*
X93756478Y-76974954D01*
X93737558Y-76979496D01*
X93550999Y-77009044D01*
X93531601Y-77010571D01*
X93342717Y-77010571D01*
X93323319Y-77009044D01*
X93136760Y-76979496D01*
X93117840Y-76974954D01*
X92938201Y-76916586D01*
X92920224Y-76909140D01*
X92751927Y-76823388D01*
X92735337Y-76813221D01*
X92726058Y-76806479D01*
X91728058Y-76806479D01*
X91728058Y-75759738D01*
X90226058Y-75759738D01*
X90226058Y-77261738D01*
X89228058Y-77261738D01*
X89228058Y-75759738D01*
X87726058Y-75759738D01*
X87726058Y-77261738D01*
X86728058Y-77261738D01*
X86728058Y-75759738D01*
X85226058Y-75759738D01*
X85226058Y-77261738D01*
X84228058Y-77261738D01*
X84228058Y-75845530D01*
X84080368Y-76025491D01*
X84072196Y-76034507D01*
X83829031Y-76277672D01*
X83820015Y-76285844D01*
X83554186Y-76504005D01*
X83544412Y-76511254D01*
X83258480Y-76702308D01*
X83248042Y-76708564D01*
X82944760Y-76870671D01*
X82933759Y-76875874D01*
X82726058Y-76961905D01*
X79228058Y-76961905D01*
X79228058Y-76508548D01*
X79221932Y-76504005D01*
X78956103Y-76285844D01*
X78947087Y-76277672D01*
X78703922Y-76034507D01*
X78695750Y-76025491D01*
X78477651Y-75759738D01*
X77726058Y-75759738D01*
X77726058Y-77261738D01*
X76728058Y-77261738D01*
X76728058Y-75759738D01*
X75226058Y-75759738D01*
X75226058Y-77261738D01*
X74228058Y-77261738D01*
X74228058Y-75759738D01*
X72726058Y-75759738D01*
X72726058Y-77261738D01*
X71728058Y-77261738D01*
X71728058Y-75759738D01*
X70226058Y-75759738D01*
X70226058Y-77261738D01*
X69228058Y-77261738D01*
X69228058Y-75759738D01*
X67726058Y-75759738D01*
X67726058Y-77261738D01*
X66728058Y-77261738D01*
X66728058Y-75759738D01*
X65226058Y-75759738D01*
X65226058Y-77261738D01*
X64228058Y-77261738D01*
X64228058Y-75759738D01*
X62726058Y-75759738D01*
X62726058Y-77261738D01*
X61728058Y-77261738D01*
X61728058Y-75759738D01*
X60226058Y-75759738D01*
X60226058Y-77261738D01*
X59228058Y-77261738D01*
X59228058Y-75759738D01*
X57726058Y-75759738D01*
X57726058Y-77261738D01*
X56728058Y-77261738D01*
X56728058Y-75759738D01*
X55226058Y-75759738D01*
X55226058Y-77261738D01*
X54228058Y-77261738D01*
X54228058Y-75759738D01*
X52726058Y-75759738D01*
X52726058Y-77261738D01*
X51728058Y-77261738D01*
X51728058Y-75759738D01*
X51112946Y-75759738D01*
X50999157Y-75873527D01*
X50988789Y-75882793D01*
X50769256Y-76057866D01*
X50757915Y-76065913D01*
X50520160Y-76215304D01*
X50507990Y-76222030D01*
X50255003Y-76343862D01*
X50242155Y-76349184D01*
X50226058Y-76354816D01*
X48259910Y-76354816D01*
X48243815Y-76349184D01*
X48230967Y-76343862D01*
X47977980Y-76222030D01*
X47965810Y-76215304D01*
X47728055Y-76065913D01*
X47726058Y-76064496D01*
X47726058Y-77261738D01*
X46728058Y-77261738D01*
X46728058Y-75759738D01*
X45226058Y-75759738D01*
X45226058Y-77261738D01*
X44228058Y-77261738D01*
X44228058Y-75759738D01*
X42726058Y-75759738D01*
X42726058Y-77261738D01*
X41728058Y-77261738D01*
X41728058Y-75759738D01*
X40226058Y-75759738D01*
X40226058Y-77261738D01*
X39228058Y-77261738D01*
X39228058Y-75759738D01*
X38192616Y-75759738D01*
X38192616Y-75781013D01*
X38191089Y-75800411D01*
X38161541Y-75986970D01*
X38156999Y-76005890D01*
X38098631Y-76185529D01*
X38091185Y-76203506D01*
X38005433Y-76371803D01*
X37995266Y-76388393D01*
X37884243Y-76541204D01*
X37871606Y-76556000D01*
X37738045Y-76689561D01*
X37726058Y-76699798D01*
X36011173Y-76699798D01*
X35999187Y-76689561D01*
X35865626Y-76556000D01*
X35852989Y-76541204D01*
X35741966Y-76388393D01*
X35731799Y-76371803D01*
X35646047Y-76203506D01*
X35638601Y-76185529D01*
X35580233Y-76005890D01*
X35575691Y-75986970D01*
X35546143Y-75800411D01*
X35544616Y-75781013D01*
X35544616Y-75759738D01*
X35226058Y-75759738D01*
X35226058Y-77261738D01*
X34228058Y-77261738D01*
X34228058Y-75759738D01*
X32726058Y-75759738D01*
X32726058Y-77261738D01*
X31728058Y-77261738D01*
X31728058Y-75759738D01*
X30372487Y-75759738D01*
X30291055Y-75870831D01*
X30288174Y-75874607D01*
X30267408Y-75900773D01*
X30264399Y-75904419D01*
X30226058Y-75949119D01*
X28863955Y-75949119D01*
X29017367Y-75795707D01*
X29033126Y-75779951D01*
X29033127Y-75779952D01*
X29196049Y-75617061D01*
X29496033Y-75267321D01*
X29768435Y-74895695D01*
X29851693Y-74761738D01*
X31002730Y-74761738D01*
X31728058Y-74761738D01*
X32726058Y-74761738D01*
X34228058Y-74761738D01*
X35226058Y-74761738D01*
X35921030Y-74761738D01*
X35999187Y-74683581D01*
X36011174Y-74673343D01*
X37726058Y-74673343D01*
X37738045Y-74683581D01*
X37816202Y-74761738D01*
X39228058Y-74761738D01*
X40226058Y-74761738D01*
X41728058Y-74761738D01*
X42726058Y-74761738D01*
X44228058Y-74761738D01*
X45226058Y-74761738D01*
X46728058Y-74761738D01*
X46728058Y-74676352D01*
X46719865Y-74652938D01*
X46716016Y-74639576D01*
X46682988Y-74494877D01*
X45930850Y-74442583D01*
X45927759Y-74442330D01*
X45905883Y-74440258D01*
X45902768Y-74439923D01*
X45226058Y-74358532D01*
X45226058Y-74761738D01*
X44228058Y-74761738D01*
X44228058Y-74191639D01*
X43478662Y-74023852D01*
X43475605Y-74023127D01*
X43454289Y-74017784D01*
X43451298Y-74016994D01*
X42726058Y-73815849D01*
X42726058Y-74761738D01*
X41728058Y-74761738D01*
X41728058Y-73653108D01*
X52726058Y-73653108D01*
X52726058Y-74761738D01*
X54228058Y-74761738D01*
X55226058Y-74761738D01*
X56728058Y-74761738D01*
X57726058Y-74761738D01*
X59228058Y-74761738D01*
X60226058Y-74761738D01*
X61728058Y-74761738D01*
X62726058Y-74761738D01*
X64228058Y-74761738D01*
X65226058Y-74761738D01*
X66728058Y-74761738D01*
X67726058Y-74761738D01*
X69228058Y-74761738D01*
X70226058Y-74761738D01*
X71728058Y-74761738D01*
X72726058Y-74761738D01*
X74228058Y-74761738D01*
X75226058Y-74761738D01*
X76728058Y-74761738D01*
X85226058Y-74761738D01*
X86728058Y-74761738D01*
X87726058Y-74761738D01*
X89228058Y-74761738D01*
X90226058Y-74761738D01*
X91728058Y-74761738D01*
X91728058Y-74566662D01*
X92726058Y-74566662D01*
X92735337Y-74559921D01*
X92751927Y-74549754D01*
X92920224Y-74464002D01*
X92938201Y-74456556D01*
X93117840Y-74398188D01*
X93136760Y-74393646D01*
X93323319Y-74364098D01*
X93342717Y-74362571D01*
X93531601Y-74362571D01*
X93550999Y-74364098D01*
X93737558Y-74393646D01*
X93756478Y-74398188D01*
X93936117Y-74456556D01*
X93954094Y-74464002D01*
X94122391Y-74549754D01*
X94138981Y-74559921D01*
X94228058Y-74624638D01*
X94228058Y-73259738D01*
X92726058Y-73259738D01*
X92726058Y-74566662D01*
X91728058Y-74566662D01*
X91728058Y-73259738D01*
X90226058Y-73259738D01*
X90226058Y-74761738D01*
X89228058Y-74761738D01*
X89228058Y-73259738D01*
X87726058Y-73259738D01*
X87726058Y-74761738D01*
X86728058Y-74761738D01*
X86728058Y-73259738D01*
X85226058Y-73259738D01*
X85226058Y-74761738D01*
X76728058Y-74761738D01*
X76728058Y-73259738D01*
X75226058Y-73259738D01*
X75226058Y-74761738D01*
X74228058Y-74761738D01*
X74228058Y-73259738D01*
X72726058Y-73259738D01*
X72726058Y-74761738D01*
X71728058Y-74761738D01*
X71728058Y-73259738D01*
X70226058Y-73259738D01*
X70226058Y-74761738D01*
X69228058Y-74761738D01*
X69228058Y-73362039D01*
X69205357Y-73373606D01*
X69187380Y-73381052D01*
X69007741Y-73439420D01*
X68988821Y-73443962D01*
X68802262Y-73473510D01*
X68782864Y-73475037D01*
X68593980Y-73475037D01*
X68574582Y-73473510D01*
X68388023Y-73443962D01*
X68369103Y-73439420D01*
X68189464Y-73381052D01*
X68171487Y-73373606D01*
X68003190Y-73287854D01*
X67986600Y-73277688D01*
X67961894Y-73259738D01*
X67726058Y-73259738D01*
X67726058Y-74761738D01*
X66728058Y-74761738D01*
X66728058Y-73259738D01*
X65226058Y-73259738D01*
X65226058Y-74761738D01*
X64228058Y-74761738D01*
X64228058Y-73259738D01*
X62726058Y-73259738D01*
X62726058Y-74761738D01*
X61728058Y-74761738D01*
X61728058Y-73259738D01*
X60226058Y-73259738D01*
X60226058Y-74761738D01*
X59228058Y-74761738D01*
X59228058Y-73259738D01*
X57726058Y-73259738D01*
X57726058Y-74761738D01*
X56728058Y-74761738D01*
X56728058Y-73259738D01*
X55226058Y-73259738D01*
X55226058Y-74761738D01*
X54228058Y-74761738D01*
X54228058Y-73259738D01*
X53777854Y-73259738D01*
X53272117Y-73463575D01*
X53269235Y-73464695D01*
X53248655Y-73472399D01*
X53245697Y-73473463D01*
X52726058Y-73653108D01*
X41728058Y-73653108D01*
X41728058Y-73479040D01*
X41164509Y-73259738D01*
X40226058Y-73259738D01*
X40226058Y-74761738D01*
X39228058Y-74761738D01*
X39228058Y-73259738D01*
X37726058Y-73259738D01*
X37726058Y-74673343D01*
X36011174Y-74673343D01*
X36013983Y-74670944D01*
X36166794Y-74559921D01*
X36183384Y-74549754D01*
X36351681Y-74464002D01*
X36369658Y-74456556D01*
X36549297Y-74398188D01*
X36568217Y-74393646D01*
X36728058Y-74368329D01*
X36728058Y-73259738D01*
X35226058Y-73259738D01*
X35226058Y-74761738D01*
X34228058Y-74761738D01*
X34228058Y-73259738D01*
X32726058Y-73259738D01*
X32726058Y-74761738D01*
X31728058Y-74761738D01*
X31728058Y-73259738D01*
X31576915Y-73259738D01*
X31515768Y-73498837D01*
X31514506Y-73503404D01*
X31504999Y-73535428D01*
X31503564Y-73539944D01*
X31344952Y-74007884D01*
X31343355Y-74012316D01*
X31331437Y-74043524D01*
X31329652Y-74047943D01*
X31135703Y-74502566D01*
X31133759Y-74506891D01*
X31119486Y-74537093D01*
X31117381Y-74541335D01*
X31002730Y-74761738D01*
X29851693Y-74761738D01*
X30011665Y-74504354D01*
X30224303Y-74095584D01*
X30405108Y-73671770D01*
X30553023Y-73235387D01*
X30667185Y-72788984D01*
X30746927Y-72335167D01*
X30754109Y-72261738D01*
X32726058Y-72261738D01*
X34228058Y-72261738D01*
X35226058Y-72261738D01*
X36728058Y-72261738D01*
X37726058Y-72261738D01*
X39159122Y-72261738D01*
X38900465Y-72112966D01*
X38897767Y-72111369D01*
X38879002Y-72099935D01*
X38876375Y-72098289D01*
X38202434Y-71664175D01*
X38199833Y-71662453D01*
X38181664Y-71650092D01*
X38179110Y-71648307D01*
X37726058Y-71323133D01*
X37726058Y-72261738D01*
X36728058Y-72261738D01*
X36728058Y-70759738D01*
X35226058Y-70759738D01*
X35226058Y-72261738D01*
X34228058Y-72261738D01*
X34228058Y-70759738D01*
X32726058Y-70759738D01*
X32726058Y-72261738D01*
X30754109Y-72261738D01*
X30791783Y-71876587D01*
X30791784Y-71876568D01*
X30799773Y-71497498D01*
X30801493Y-71415920D01*
X30775999Y-70955856D01*
X30715449Y-70499082D01*
X30620198Y-70048265D01*
X30620197Y-70048263D01*
X30620196Y-70048256D01*
X30490809Y-69606062D01*
X30490802Y-69606038D01*
X30328016Y-69174982D01*
X30240493Y-68987916D01*
X30230382Y-68966305D01*
X30230382Y-68966304D01*
X30229407Y-68964223D01*
X30229392Y-68964131D01*
X30229370Y-68964142D01*
X30220352Y-68944863D01*
X30219622Y-68942392D01*
X30209968Y-68922564D01*
X30207563Y-68917318D01*
X30174642Y-68840855D01*
X30064768Y-68585661D01*
X30060711Y-68574882D01*
X29958544Y-68259738D01*
X31011013Y-68259738D01*
X31116163Y-68503960D01*
X31144315Y-68561778D01*
X31151429Y-68579908D01*
X31239060Y-68767204D01*
X31239549Y-68768307D01*
X31307821Y-68914258D01*
X31315643Y-68965348D01*
X31430335Y-69269050D01*
X31431921Y-69273507D01*
X31442522Y-69305185D01*
X31443942Y-69309713D01*
X31576205Y-69761738D01*
X31728058Y-69761738D01*
X32726058Y-69761738D01*
X34228058Y-69761738D01*
X34228058Y-69062087D01*
X34133654Y-69083635D01*
X34119945Y-69085964D01*
X33840917Y-69117403D01*
X33827033Y-69118183D01*
X33546239Y-69118183D01*
X33532355Y-69117403D01*
X33253327Y-69085964D01*
X33239618Y-69083635D01*
X32965864Y-69021152D01*
X32952503Y-69017303D01*
X32726058Y-68938066D01*
X32726058Y-69761738D01*
X31728058Y-69761738D01*
X31728058Y-68259738D01*
X31011013Y-68259738D01*
X29958544Y-68259738D01*
X29950245Y-68234139D01*
X29947202Y-68223012D01*
X29895399Y-67991827D01*
X29868880Y-67873481D01*
X29866888Y-67862141D01*
X29821385Y-67506842D01*
X29820453Y-67495344D01*
X29809258Y-67169198D01*
X29808165Y-67137355D01*
X29808306Y-67125822D01*
X29816671Y-66983598D01*
X29829338Y-66768234D01*
X29830547Y-66756793D01*
X29884722Y-66402683D01*
X29886987Y-66391415D01*
X29973835Y-66043867D01*
X29977147Y-66032831D01*
X30095904Y-65694898D01*
X30100227Y-65684213D01*
X30249881Y-65358759D01*
X30255172Y-65348533D01*
X30434423Y-65038395D01*
X30440634Y-65028717D01*
X30647948Y-64736552D01*
X30655021Y-64727508D01*
X30888578Y-64455884D01*
X30896482Y-64447513D01*
X31154270Y-64198771D01*
X31162906Y-64191181D01*
X31442694Y-63967470D01*
X31452000Y-63960714D01*
X31751360Y-63763975D01*
X31761266Y-63758106D01*
X32077595Y-63590047D01*
X32088022Y-63585116D01*
X32421347Y-63446033D01*
X32426715Y-63443938D01*
X32429720Y-63442845D01*
X32431711Y-63442121D01*
X32431711Y-63442120D01*
X32447013Y-63436555D01*
X32776488Y-63316746D01*
X32846217Y-63312336D01*
X32907263Y-63346324D01*
X32935561Y-63391359D01*
X33016613Y-63616984D01*
X33016626Y-63617017D01*
X33316770Y-64336636D01*
X33316774Y-64336644D01*
X33652714Y-65040277D01*
X33824940Y-65358769D01*
X34023606Y-65726156D01*
X34428469Y-66392469D01*
X34428477Y-66392482D01*
X34866340Y-67037637D01*
X34866348Y-67037648D01*
X35078027Y-67318091D01*
X35336086Y-67659982D01*
X35836512Y-68257920D01*
X35836524Y-68257933D01*
X35836530Y-68257940D01*
X36366361Y-68829954D01*
X36366369Y-68829963D01*
X36924288Y-69374629D01*
X37372201Y-69769940D01*
X37508886Y-69890572D01*
X38118679Y-70376482D01*
X38752124Y-70831129D01*
X39407620Y-71253362D01*
X39407636Y-71253371D01*
X40083478Y-71642098D01*
X40083502Y-71642111D01*
X40083510Y-71642116D01*
X40778085Y-71996406D01*
X40778095Y-71996410D01*
X40778098Y-71996412D01*
X40778100Y-71996413D01*
X41370013Y-72261738D01*
X41489589Y-72315338D01*
X42216224Y-72598105D01*
X42956154Y-72843993D01*
X42956165Y-72843996D01*
X42956171Y-72843998D01*
X42956175Y-72843999D01*
X43707499Y-73052378D01*
X43707525Y-73052385D01*
X44393233Y-73205912D01*
X44468384Y-73222738D01*
X45136436Y-73337402D01*
X45236861Y-73354639D01*
X45298388Y-73362039D01*
X46010998Y-73447747D01*
X46788835Y-73501828D01*
X47568408Y-73516745D01*
X48347745Y-73492460D01*
X49124877Y-73429035D01*
X49897838Y-73326630D01*
X50664676Y-73185504D01*
X51423450Y-73006013D01*
X52172245Y-72788612D01*
X52172256Y-72788607D01*
X52172260Y-72788607D01*
X52172270Y-72788604D01*
X52622814Y-72632844D01*
X52909165Y-72533850D01*
X53632350Y-72242370D01*
X54339970Y-71914911D01*
X55030237Y-71552298D01*
X55701406Y-71155450D01*
X56023967Y-70942146D01*
X57726058Y-70942146D01*
X57726058Y-72261738D01*
X59228058Y-72261738D01*
X60226058Y-72261738D01*
X61728058Y-72261738D01*
X62726058Y-72261738D01*
X64228058Y-72261738D01*
X65226058Y-72261738D01*
X66728058Y-72261738D01*
X70226058Y-72261738D01*
X71728058Y-72261738D01*
X72726058Y-72261738D01*
X74228058Y-72261738D01*
X75226058Y-72261738D01*
X76728058Y-72261738D01*
X77726058Y-72261738D01*
X78017119Y-72261738D01*
X85226058Y-72261738D01*
X86728058Y-72261738D01*
X87726058Y-72261738D01*
X89228058Y-72261738D01*
X90226058Y-72261738D01*
X91728058Y-72261738D01*
X92726058Y-72261738D01*
X94228058Y-72261738D01*
X94228058Y-71206731D01*
X94151010Y-71049535D01*
X93994753Y-70759738D01*
X92726058Y-70759738D01*
X92726058Y-72261738D01*
X91728058Y-72261738D01*
X91728058Y-70759738D01*
X90226058Y-70759738D01*
X90226058Y-72261738D01*
X89228058Y-72261738D01*
X89228058Y-70759738D01*
X87726058Y-70759738D01*
X87726058Y-72261738D01*
X86728058Y-72261738D01*
X86728058Y-70759738D01*
X85226058Y-70759738D01*
X85226058Y-72261738D01*
X78017119Y-72261738D01*
X78105720Y-72047835D01*
X78110923Y-72036834D01*
X78273030Y-71733552D01*
X78279286Y-71723114D01*
X78470340Y-71437182D01*
X78477589Y-71427408D01*
X78695750Y-71161579D01*
X78703922Y-71152563D01*
X78947087Y-70909398D01*
X78956103Y-70901226D01*
X79128506Y-70759738D01*
X77726058Y-70759738D01*
X77726058Y-72261738D01*
X76728058Y-72261738D01*
X76728058Y-70759738D01*
X75226058Y-70759738D01*
X75226058Y-72261738D01*
X74228058Y-72261738D01*
X74228058Y-70759738D01*
X72726058Y-70759738D01*
X72726058Y-72261738D01*
X71728058Y-72261738D01*
X71728058Y-70759738D01*
X70226058Y-70759738D01*
X70226058Y-72261738D01*
X66728058Y-72261738D01*
X66728058Y-70759738D01*
X65226058Y-70759738D01*
X65226058Y-72261738D01*
X64228058Y-72261738D01*
X64228058Y-70759738D01*
X62726058Y-70759738D01*
X62726058Y-72261738D01*
X61728058Y-72261738D01*
X61728058Y-70759738D01*
X60226058Y-70759738D01*
X60226058Y-72261738D01*
X59228058Y-72261738D01*
X59228058Y-70759738D01*
X57949412Y-70759738D01*
X57726058Y-70942146D01*
X56023967Y-70942146D01*
X56351780Y-70725369D01*
X56979716Y-70263143D01*
X57583625Y-69769940D01*
X58161982Y-69247006D01*
X58713324Y-68695664D01*
X58905527Y-68483090D01*
X60226058Y-68483090D01*
X60226058Y-69761738D01*
X61728058Y-69761738D01*
X62726058Y-69761738D01*
X64228058Y-69761738D01*
X65226058Y-69761738D01*
X66728058Y-69761738D01*
X67726058Y-69761738D01*
X69228058Y-69761738D01*
X70226058Y-69761738D01*
X71728058Y-69761738D01*
X72726058Y-69761738D01*
X74228058Y-69761738D01*
X75226058Y-69761738D01*
X76728058Y-69761738D01*
X77726058Y-69761738D01*
X79228058Y-69761738D01*
X80226058Y-69761738D01*
X81728058Y-69761738D01*
X82726058Y-69761738D01*
X84228058Y-69761738D01*
X87726058Y-69761738D01*
X89228058Y-69761738D01*
X90226058Y-69761738D01*
X91728058Y-69761738D01*
X91728058Y-68259738D01*
X90226058Y-68259738D01*
X90226058Y-69761738D01*
X89228058Y-69761738D01*
X89228058Y-68259738D01*
X87726058Y-68259738D01*
X87726058Y-69761738D01*
X84228058Y-69761738D01*
X84228058Y-68259738D01*
X82726058Y-68259738D01*
X82726058Y-69761738D01*
X81728058Y-69761738D01*
X81728058Y-68259738D01*
X80226058Y-68259738D01*
X80226058Y-69761738D01*
X79228058Y-69761738D01*
X79228058Y-68259738D01*
X77726058Y-68259738D01*
X77726058Y-69761738D01*
X76728058Y-69761738D01*
X76728058Y-68259738D01*
X75226058Y-68259738D01*
X75226058Y-69761738D01*
X74228058Y-69761738D01*
X74228058Y-68259738D01*
X72726058Y-68259738D01*
X72726058Y-69761738D01*
X71728058Y-69761738D01*
X71728058Y-68259738D01*
X70226058Y-68259738D01*
X70226058Y-69761738D01*
X69228058Y-69761738D01*
X69228058Y-68259738D01*
X67726058Y-68259738D01*
X67726058Y-69761738D01*
X66728058Y-69761738D01*
X66728058Y-68259738D01*
X65226058Y-68259738D01*
X65226058Y-69761738D01*
X64228058Y-69761738D01*
X64228058Y-68259738D01*
X62726058Y-68259738D01*
X62726058Y-69761738D01*
X61728058Y-69761738D01*
X61728058Y-68259738D01*
X60408467Y-68259738D01*
X60226058Y-68483090D01*
X58905527Y-68483090D01*
X59236257Y-68117307D01*
X59729461Y-67513398D01*
X59914709Y-67261738D01*
X62726058Y-67261738D01*
X64228058Y-67261738D01*
X65226058Y-67261738D01*
X66728058Y-67261738D01*
X67726058Y-67261738D01*
X69228058Y-67261738D01*
X70226058Y-67261738D01*
X71728058Y-67261738D01*
X72726058Y-67261738D01*
X74228058Y-67261738D01*
X75226058Y-67261738D01*
X76728058Y-67261738D01*
X77726058Y-67261738D01*
X79228058Y-67261738D01*
X80226058Y-67261738D01*
X81728058Y-67261738D01*
X82726058Y-67261738D01*
X84228058Y-67261738D01*
X85226058Y-67261738D01*
X86728058Y-67261738D01*
X87726058Y-67261738D01*
X89228058Y-67261738D01*
X90226058Y-67261738D01*
X91728058Y-67261738D01*
X91728058Y-67240476D01*
X91532918Y-66983598D01*
X90917513Y-66235573D01*
X90494055Y-65759738D01*
X90226058Y-65759738D01*
X90226058Y-67261738D01*
X89228058Y-67261738D01*
X89228058Y-65759738D01*
X87726058Y-65759738D01*
X87726058Y-67261738D01*
X86728058Y-67261738D01*
X86728058Y-65759738D01*
X85226058Y-65759738D01*
X85226058Y-67261738D01*
X84228058Y-67261738D01*
X84228058Y-65759738D01*
X82726058Y-65759738D01*
X82726058Y-67261738D01*
X81728058Y-67261738D01*
X81728058Y-65759738D01*
X80226058Y-65759738D01*
X80226058Y-67261738D01*
X79228058Y-67261738D01*
X79228058Y-65759738D01*
X77726058Y-65759738D01*
X77726058Y-67261738D01*
X76728058Y-67261738D01*
X76728058Y-65759738D01*
X75226058Y-65759738D01*
X75226058Y-67261738D01*
X74228058Y-67261738D01*
X74228058Y-65759738D01*
X72726058Y-65759738D01*
X72726058Y-67261738D01*
X71728058Y-67261738D01*
X71728058Y-65759738D01*
X70226058Y-65759738D01*
X70226058Y-67261738D01*
X69228058Y-67261738D01*
X69228058Y-65759738D01*
X67726058Y-65759738D01*
X67726058Y-67261738D01*
X66728058Y-67261738D01*
X66728058Y-65759738D01*
X65226058Y-65759738D01*
X65226058Y-67261738D01*
X64228058Y-67261738D01*
X64228058Y-65759738D01*
X62726058Y-65759738D01*
X62726058Y-67261738D01*
X59914709Y-67261738D01*
X60191687Y-66885462D01*
X60621768Y-66235088D01*
X61018616Y-65563919D01*
X61381228Y-64873652D01*
X61641357Y-64311530D01*
X62726058Y-64311530D01*
X62726058Y-64761738D01*
X64228058Y-64761738D01*
X65226058Y-64761738D01*
X66728058Y-64761738D01*
X67726058Y-64761738D01*
X69228058Y-64761738D01*
X70226058Y-64761738D01*
X71728058Y-64761738D01*
X72726058Y-64761738D01*
X74228058Y-64761738D01*
X75226058Y-64761738D01*
X76728058Y-64761738D01*
X77726058Y-64761738D01*
X79228058Y-64761738D01*
X80226058Y-64761738D01*
X81728058Y-64761738D01*
X82726058Y-64761738D01*
X84228058Y-64761738D01*
X85226058Y-64761738D01*
X86728058Y-64761738D01*
X87726058Y-64761738D01*
X89228058Y-64761738D01*
X89228058Y-64439635D01*
X88048161Y-63259738D01*
X87726058Y-63259738D01*
X87726058Y-64761738D01*
X86728058Y-64761738D01*
X86728058Y-63259738D01*
X85226058Y-63259738D01*
X85226058Y-64761738D01*
X84228058Y-64761738D01*
X84228058Y-63259738D01*
X82726058Y-63259738D01*
X82726058Y-64761738D01*
X81728058Y-64761738D01*
X81728058Y-63259738D01*
X80226058Y-63259738D01*
X80226058Y-64761738D01*
X79228058Y-64761738D01*
X79228058Y-63259738D01*
X77726058Y-63259738D01*
X77726058Y-64761738D01*
X76728058Y-64761738D01*
X76728058Y-63259738D01*
X75226058Y-63259738D01*
X75226058Y-64761738D01*
X74228058Y-64761738D01*
X74228058Y-63259738D01*
X72726058Y-63259738D01*
X72726058Y-64761738D01*
X71728058Y-64761738D01*
X71728058Y-63259738D01*
X70226058Y-63259738D01*
X70226058Y-64761738D01*
X69228058Y-64761738D01*
X69228058Y-63259738D01*
X67726058Y-63259738D01*
X67726058Y-64761738D01*
X66728058Y-64761738D01*
X66728058Y-63259738D01*
X65226058Y-63259738D01*
X65226058Y-64761738D01*
X64228058Y-64761738D01*
X64228058Y-63259738D01*
X63119426Y-63259738D01*
X62939817Y-63779272D01*
X62938766Y-63782194D01*
X62931068Y-63802777D01*
X62929935Y-63805695D01*
X62726058Y-64311530D01*
X61641357Y-64311530D01*
X61708688Y-64166032D01*
X62000167Y-63442847D01*
X62133309Y-63057724D01*
X62254921Y-62705952D01*
X62254924Y-62705942D01*
X62254924Y-62705938D01*
X62254929Y-62705927D01*
X62472331Y-61957132D01*
X62545782Y-61646627D01*
X65226058Y-61646627D01*
X65226058Y-62261738D01*
X66728058Y-62261738D01*
X67726058Y-62261738D01*
X69228058Y-62261738D01*
X70226058Y-62261738D01*
X71728058Y-62261738D01*
X72726058Y-62261738D01*
X74228058Y-62261738D01*
X75226058Y-62261738D01*
X76728058Y-62261738D01*
X77726058Y-62261738D01*
X78179621Y-62261738D01*
X78168373Y-62246257D01*
X78158206Y-62229667D01*
X78072454Y-62061370D01*
X78065008Y-62043393D01*
X78006640Y-61863754D01*
X78002098Y-61844834D01*
X77972550Y-61658275D01*
X77971023Y-61638877D01*
X77971023Y-61449993D01*
X77972550Y-61430595D01*
X78002098Y-61244036D01*
X78006640Y-61225116D01*
X78065008Y-61045477D01*
X78072454Y-61027500D01*
X78158206Y-60859203D01*
X78168373Y-60842613D01*
X78228585Y-60759738D01*
X80361461Y-60759738D01*
X80421673Y-60842613D01*
X80431840Y-60859203D01*
X80517592Y-61027500D01*
X80525038Y-61045477D01*
X80583406Y-61225116D01*
X80587948Y-61244036D01*
X80617496Y-61430595D01*
X80619023Y-61449993D01*
X80619023Y-61638877D01*
X80617496Y-61658275D01*
X80587948Y-61844834D01*
X80583406Y-61863754D01*
X80525038Y-62043393D01*
X80517592Y-62061370D01*
X80431840Y-62229667D01*
X80421673Y-62246257D01*
X80410425Y-62261738D01*
X81728058Y-62261738D01*
X82726058Y-62261738D01*
X84228058Y-62261738D01*
X85226058Y-62261738D01*
X86728058Y-62261738D01*
X86728058Y-61939635D01*
X85548161Y-60759738D01*
X85226058Y-60759738D01*
X85226058Y-62261738D01*
X84228058Y-62261738D01*
X84228058Y-60759738D01*
X82726058Y-60759738D01*
X82726058Y-62261738D01*
X81728058Y-62261738D01*
X81728058Y-60759738D01*
X80361461Y-60759738D01*
X78228585Y-60759738D01*
X77726058Y-60759738D01*
X77726058Y-62261738D01*
X76728058Y-62261738D01*
X76728058Y-60759738D01*
X75226058Y-60759738D01*
X75226058Y-62261738D01*
X74228058Y-62261738D01*
X74228058Y-60759738D01*
X72726058Y-60759738D01*
X72726058Y-62261738D01*
X71728058Y-62261738D01*
X71728058Y-60759738D01*
X70226058Y-60759738D01*
X70226058Y-62261738D01*
X69228058Y-62261738D01*
X69228058Y-60759738D01*
X67726058Y-60759738D01*
X67726058Y-62261738D01*
X66728058Y-62261738D01*
X66728058Y-60759738D01*
X65821135Y-60759738D01*
X65815501Y-60775840D01*
X65810179Y-60788687D01*
X65688347Y-61041674D01*
X65681621Y-61053844D01*
X65532230Y-61291599D01*
X65524183Y-61302940D01*
X65349110Y-61522473D01*
X65339844Y-61532841D01*
X65226058Y-61646627D01*
X62545782Y-61646627D01*
X62651821Y-61198358D01*
X62792947Y-60431520D01*
X62895352Y-59658559D01*
X62958777Y-58881427D01*
X62978150Y-58259738D01*
X65530810Y-58259738D01*
X65532230Y-58261739D01*
X65681621Y-58499494D01*
X65688347Y-58511664D01*
X65810179Y-58764651D01*
X65815501Y-58777499D01*
X65908241Y-59042536D01*
X65912090Y-59055897D01*
X65974573Y-59329651D01*
X65976902Y-59343360D01*
X66008341Y-59622388D01*
X66009121Y-59636272D01*
X66009121Y-59761738D01*
X66728058Y-59761738D01*
X67726058Y-59761738D01*
X69228058Y-59761738D01*
X70226058Y-59761738D01*
X71728058Y-59761738D01*
X72726058Y-59761738D01*
X74228058Y-59761738D01*
X75226058Y-59761738D01*
X76728058Y-59761738D01*
X77726058Y-59761738D01*
X79228058Y-59761738D01*
X79228058Y-58947594D01*
X80226058Y-58947594D01*
X80226058Y-59761738D01*
X81728058Y-59761738D01*
X82726058Y-59761738D01*
X84228058Y-59761738D01*
X84228058Y-59439635D01*
X83048161Y-58259738D01*
X82726058Y-58259738D01*
X82726058Y-59761738D01*
X81728058Y-59761738D01*
X81728058Y-58674173D01*
X81530146Y-58775016D01*
X81525764Y-58777141D01*
X81499020Y-58789470D01*
X81494562Y-58791420D01*
X81458346Y-58806422D01*
X81453810Y-58808197D01*
X81426165Y-58818396D01*
X81421564Y-58819992D01*
X81182170Y-58897775D01*
X81177506Y-58899190D01*
X81149129Y-58907192D01*
X81144413Y-58908422D01*
X81106296Y-58917570D01*
X81101544Y-58918612D01*
X81072681Y-58924352D01*
X81067893Y-58925207D01*
X80763431Y-58973429D01*
X80710374Y-58970300D01*
X80576301Y-58932486D01*
X80442228Y-58970300D01*
X80389171Y-58973429D01*
X80226058Y-58947594D01*
X79228058Y-58947594D01*
X79228058Y-58548532D01*
X79094357Y-58451394D01*
X79090470Y-58448451D01*
X79067312Y-58430193D01*
X79063546Y-58427102D01*
X79033739Y-58401641D01*
X79030100Y-58398407D01*
X79008495Y-58378433D01*
X79004991Y-58375063D01*
X78889666Y-58259738D01*
X77726058Y-58259738D01*
X77726058Y-59761738D01*
X76728058Y-59761738D01*
X76728058Y-58259738D01*
X75226058Y-58259738D01*
X75226058Y-59761738D01*
X74228058Y-59761738D01*
X74228058Y-58259738D01*
X72726058Y-58259738D01*
X72726058Y-59761738D01*
X71728058Y-59761738D01*
X71728058Y-58259738D01*
X70226058Y-58259738D01*
X70226058Y-59761738D01*
X69228058Y-59761738D01*
X69228058Y-58259738D01*
X67726058Y-58259738D01*
X67726058Y-59761738D01*
X66728058Y-59761738D01*
X66728058Y-58259738D01*
X65530810Y-58259738D01*
X62978150Y-58259738D01*
X62983062Y-58102090D01*
X62968145Y-57322518D01*
X62914064Y-56544680D01*
X62820956Y-55770544D01*
X62819101Y-55759738D01*
X63824849Y-55759738D01*
X63906240Y-56436450D01*
X63906575Y-56439565D01*
X63908647Y-56461441D01*
X63908900Y-56464532D01*
X63961194Y-57216672D01*
X64105893Y-57249700D01*
X64119254Y-57253549D01*
X64142657Y-57261738D01*
X64228058Y-57261738D01*
X65226058Y-57261738D01*
X66728058Y-57261738D01*
X67726058Y-57261738D01*
X69228058Y-57261738D01*
X70226058Y-57261738D01*
X71728058Y-57261738D01*
X72726058Y-57261738D01*
X74228058Y-57261738D01*
X75226058Y-57261738D01*
X76728058Y-57261738D01*
X76728058Y-55974009D01*
X76631035Y-55783594D01*
X76628909Y-55779212D01*
X76619931Y-55759738D01*
X75226058Y-55759738D01*
X75226058Y-57261738D01*
X74228058Y-57261738D01*
X74228058Y-55759738D01*
X72726058Y-55759738D01*
X72726058Y-57261738D01*
X71728058Y-57261738D01*
X71728058Y-55759738D01*
X70226058Y-55759738D01*
X70226058Y-57261738D01*
X69228058Y-57261738D01*
X69228058Y-55759738D01*
X67726058Y-55759738D01*
X67726058Y-57261738D01*
X66728058Y-57261738D01*
X66728058Y-55759738D01*
X65226058Y-55759738D01*
X65226058Y-57261738D01*
X64228058Y-57261738D01*
X64228058Y-55759738D01*
X63824849Y-55759738D01*
X62819101Y-55759738D01*
X62689055Y-55002066D01*
X62591826Y-54567810D01*
X62518699Y-54241200D01*
X62518694Y-54241181D01*
X62310316Y-53489857D01*
X62310315Y-53489853D01*
X62310313Y-53489847D01*
X62310310Y-53489836D01*
X62233846Y-53259738D01*
X63282165Y-53259738D01*
X63483310Y-53984982D01*
X63484100Y-53987972D01*
X63489443Y-54009287D01*
X63490168Y-54012345D01*
X63657955Y-54761738D01*
X64228058Y-54761738D01*
X65226058Y-54761738D01*
X66728058Y-54761738D01*
X67726058Y-54761738D01*
X69228058Y-54761738D01*
X70226058Y-54761738D01*
X70929126Y-54761738D01*
X70901483Y-54587208D01*
X70899956Y-54567810D01*
X70899956Y-54378926D01*
X70901483Y-54359528D01*
X70931031Y-54172969D01*
X70935573Y-54154049D01*
X70993941Y-53974410D01*
X71001387Y-53956433D01*
X71087139Y-53788136D01*
X71097306Y-53771546D01*
X71208329Y-53618735D01*
X71220966Y-53603939D01*
X71354527Y-53470378D01*
X71369323Y-53457741D01*
X71522134Y-53346718D01*
X71538724Y-53336551D01*
X71689477Y-53259738D01*
X72758435Y-53259738D01*
X72909188Y-53336551D01*
X72925778Y-53346718D01*
X73078589Y-53457741D01*
X73093385Y-53470378D01*
X73226946Y-53603939D01*
X73239583Y-53618735D01*
X73350606Y-53771546D01*
X73360773Y-53788136D01*
X73446525Y-53956433D01*
X73453971Y-53974410D01*
X73512339Y-54154049D01*
X73516881Y-54172969D01*
X73546429Y-54359528D01*
X73547956Y-54378926D01*
X73547956Y-54567810D01*
X73546429Y-54587208D01*
X73518786Y-54761738D01*
X74228058Y-54761738D01*
X74228058Y-53592680D01*
X74213904Y-53580634D01*
X74211402Y-53578446D01*
X74191522Y-53560586D01*
X74189086Y-53558338D01*
X74174533Y-53544543D01*
X74172158Y-53542230D01*
X73889666Y-53259738D01*
X72758435Y-53259738D01*
X71689477Y-53259738D01*
X70226058Y-53259738D01*
X70226058Y-54761738D01*
X69228058Y-54761738D01*
X69228058Y-53259738D01*
X67726058Y-53259738D01*
X67726058Y-54761738D01*
X66728058Y-54761738D01*
X66728058Y-53259738D01*
X65226058Y-53259738D01*
X65226058Y-54761738D01*
X64228058Y-54761738D01*
X64228058Y-53259738D01*
X63282165Y-53259738D01*
X62233846Y-53259738D01*
X62064422Y-52749906D01*
X61781655Y-52023271D01*
X61693169Y-51825867D01*
X61635942Y-51698199D01*
X62726058Y-51698199D01*
X62945356Y-52261738D01*
X64228058Y-52261738D01*
X65226058Y-52261738D01*
X66728058Y-52261738D01*
X67726058Y-52261738D01*
X69228058Y-52261738D01*
X70226058Y-52261738D01*
X71728058Y-52261738D01*
X71728058Y-50759738D01*
X70226058Y-50759738D01*
X70226058Y-52261738D01*
X69228058Y-52261738D01*
X69228058Y-50759738D01*
X67726058Y-50759738D01*
X67726058Y-52261738D01*
X66728058Y-52261738D01*
X66728058Y-50759738D01*
X65226058Y-50759738D01*
X65226058Y-52261738D01*
X64228058Y-52261738D01*
X64228058Y-50759738D01*
X62726058Y-50759738D01*
X62726058Y-51698199D01*
X61635942Y-51698199D01*
X61462730Y-51311782D01*
X61462729Y-51311780D01*
X61462727Y-51311777D01*
X61462723Y-51311767D01*
X61108432Y-50617192D01*
X61085943Y-50578093D01*
X60719688Y-49941318D01*
X60719679Y-49941302D01*
X60604014Y-49761738D01*
X62726058Y-49761738D01*
X64228058Y-49761738D01*
X64228058Y-48726300D01*
X65226058Y-48726300D01*
X65226058Y-49761738D01*
X66728058Y-49761738D01*
X67726058Y-49761738D01*
X69228058Y-49761738D01*
X70226058Y-49761738D01*
X71728058Y-49761738D01*
X72726058Y-49761738D01*
X73343484Y-49761738D01*
X73492892Y-49612330D01*
X73533118Y-49585451D01*
X73535121Y-49584621D01*
X73535951Y-49582618D01*
X73562830Y-49542392D01*
X74052535Y-49052687D01*
X73259586Y-48259738D01*
X72726058Y-48259738D01*
X72726058Y-49761738D01*
X71728058Y-49761738D01*
X71728058Y-48259738D01*
X70226058Y-48259738D01*
X70226058Y-49761738D01*
X69228058Y-49761738D01*
X69228058Y-48259738D01*
X67726058Y-48259738D01*
X67726058Y-49761738D01*
X66728058Y-49761738D01*
X66728058Y-48259738D01*
X66166119Y-48259738D01*
X66155878Y-48271729D01*
X66022317Y-48405290D01*
X66007521Y-48417927D01*
X65854710Y-48528950D01*
X65838120Y-48539117D01*
X65669823Y-48624869D01*
X65651846Y-48632315D01*
X65472207Y-48690683D01*
X65453287Y-48695225D01*
X65266728Y-48724773D01*
X65247330Y-48726300D01*
X65226058Y-48726300D01*
X64228058Y-48726300D01*
X64228058Y-48349889D01*
X64149898Y-48271729D01*
X64139657Y-48259738D01*
X62726058Y-48259738D01*
X62726058Y-49761738D01*
X60604014Y-49761738D01*
X60297445Y-49285806D01*
X59842799Y-48652361D01*
X59529940Y-48259738D01*
X60789450Y-48259738D01*
X61114623Y-48712793D01*
X61116408Y-48715346D01*
X61128769Y-48733515D01*
X61130491Y-48736116D01*
X61564606Y-49410057D01*
X61566252Y-49412684D01*
X61577686Y-49431449D01*
X61579283Y-49434147D01*
X61728058Y-49692808D01*
X61728058Y-48259738D01*
X60789450Y-48259738D01*
X59529940Y-48259738D01*
X59356889Y-48042568D01*
X59029483Y-47671597D01*
X58840945Y-47457971D01*
X58649373Y-47261738D01*
X60226058Y-47261738D01*
X61728058Y-47261738D01*
X62726058Y-47261738D01*
X63834647Y-47261738D01*
X63859963Y-47101901D01*
X63864505Y-47082981D01*
X63922873Y-46903342D01*
X63930319Y-46885365D01*
X64016071Y-46717068D01*
X64026238Y-46700478D01*
X64137261Y-46547667D01*
X64149898Y-46532871D01*
X64228058Y-46454711D01*
X64228058Y-46078300D01*
X65226058Y-46078300D01*
X65247330Y-46078300D01*
X65266728Y-46079827D01*
X65453287Y-46109375D01*
X65472207Y-46113917D01*
X65651846Y-46172285D01*
X65669823Y-46179731D01*
X65838120Y-46265483D01*
X65854710Y-46275650D01*
X66007521Y-46386673D01*
X66022317Y-46399310D01*
X66155878Y-46532871D01*
X66168515Y-46547667D01*
X66279538Y-46700478D01*
X66289705Y-46717068D01*
X66375457Y-46885365D01*
X66382903Y-46903342D01*
X66441271Y-47082981D01*
X66445813Y-47101901D01*
X66471129Y-47261738D01*
X66728058Y-47261738D01*
X67726058Y-47261738D01*
X69228058Y-47261738D01*
X70226058Y-47261738D01*
X71728058Y-47261738D01*
X71728058Y-46728210D01*
X70759586Y-45759738D01*
X70226058Y-45759738D01*
X70226058Y-47261738D01*
X69228058Y-47261738D01*
X69228058Y-45759738D01*
X67726058Y-45759738D01*
X67726058Y-47261738D01*
X66728058Y-47261738D01*
X66728058Y-45759738D01*
X65226058Y-45759738D01*
X65226058Y-46078300D01*
X64228058Y-46078300D01*
X64228058Y-45759738D01*
X62726058Y-45759738D01*
X62726058Y-47261738D01*
X61728058Y-47261738D01*
X61728058Y-45759738D01*
X60226058Y-45759738D01*
X60226058Y-47261738D01*
X58649373Y-47261738D01*
X58296279Y-46900052D01*
X58296270Y-46900044D01*
X58296267Y-46900041D01*
X57724236Y-46370194D01*
X57126298Y-45869769D01*
X57065131Y-45823600D01*
X56503969Y-45400033D01*
X55858812Y-44962169D01*
X55858799Y-44962160D01*
X55192472Y-44557288D01*
X54925125Y-44412719D01*
X54506594Y-44186397D01*
X54146178Y-44014321D01*
X53802959Y-43850456D01*
X53083318Y-43550302D01*
X53083300Y-43550295D01*
X52857673Y-43469242D01*
X52801236Y-43428052D01*
X52776027Y-43362888D01*
X52783060Y-43310172D01*
X52801400Y-43259738D01*
X58404383Y-43259738D01*
X58483620Y-43486186D01*
X58487469Y-43499547D01*
X58549952Y-43773301D01*
X58552281Y-43787010D01*
X58583720Y-44066038D01*
X58584500Y-44079922D01*
X58584500Y-44360716D01*
X58583720Y-44374600D01*
X58552281Y-44653628D01*
X58549952Y-44667337D01*
X58528405Y-44761738D01*
X59228058Y-44761738D01*
X60226058Y-44761738D01*
X61728058Y-44761738D01*
X62726058Y-44761738D01*
X64228058Y-44761738D01*
X65226058Y-44761738D01*
X66728058Y-44761738D01*
X67726058Y-44761738D01*
X69228058Y-44761738D01*
X69228058Y-44228210D01*
X68259586Y-43259738D01*
X67726058Y-43259738D01*
X67726058Y-44761738D01*
X66728058Y-44761738D01*
X66728058Y-43259738D01*
X65226058Y-43259738D01*
X65226058Y-44761738D01*
X64228058Y-44761738D01*
X64228058Y-43259738D01*
X62726058Y-43259738D01*
X62726058Y-44761738D01*
X61728058Y-44761738D01*
X61728058Y-43259738D01*
X60226058Y-43259738D01*
X60226058Y-44761738D01*
X59228058Y-44761738D01*
X59228058Y-43259738D01*
X58404383Y-43259738D01*
X52801400Y-43259738D01*
X52909682Y-42961964D01*
X52910979Y-42958395D01*
X52913070Y-42953037D01*
X52923382Y-42928323D01*
X53052090Y-42619857D01*
X53057008Y-42609458D01*
X53225015Y-42293203D01*
X53230891Y-42283285D01*
X53245050Y-42261738D01*
X57726058Y-42261738D01*
X59228058Y-42261738D01*
X59228058Y-42109462D01*
X62726058Y-42109462D01*
X62726058Y-42261738D01*
X64228058Y-42261738D01*
X64228058Y-41535680D01*
X64008319Y-41649954D01*
X64004068Y-41652062D01*
X63973851Y-41666335D01*
X63969531Y-41668276D01*
X63514786Y-41862197D01*
X63510389Y-41863974D01*
X63479169Y-41875898D01*
X63474711Y-41877503D01*
X63006438Y-42036134D01*
X63001906Y-42037573D01*
X62969866Y-42047074D01*
X62965310Y-42048331D01*
X62726058Y-42109462D01*
X59228058Y-42109462D01*
X59228058Y-42108003D01*
X58774698Y-41975138D01*
X58770186Y-41973722D01*
X58738497Y-41963107D01*
X58734021Y-41961511D01*
X58478891Y-41865027D01*
X58468560Y-41868008D01*
X58416558Y-41856305D01*
X58379620Y-41839006D01*
X58379586Y-41839000D01*
X58232940Y-41770320D01*
X58231969Y-41769888D01*
X58055598Y-41687264D01*
X58055598Y-41687263D01*
X58044187Y-41681920D01*
X58027342Y-41675313D01*
X57969890Y-41647378D01*
X57726058Y-41542525D01*
X57726058Y-42261738D01*
X53245050Y-42261738D01*
X53427556Y-41983999D01*
X53434309Y-41974696D01*
X53657925Y-41694979D01*
X53665534Y-41686321D01*
X53669780Y-41681920D01*
X53914161Y-41428598D01*
X53922529Y-41420694D01*
X54194038Y-41187170D01*
X54203105Y-41180078D01*
X54495138Y-40972785D01*
X54504810Y-40966575D01*
X54814851Y-40787303D01*
X54825047Y-40782024D01*
X55150382Y-40632340D01*
X55161070Y-40628013D01*
X55206860Y-40611909D01*
X55498898Y-40509201D01*
X55509922Y-40505892D01*
X55857338Y-40418978D01*
X55868618Y-40416708D01*
X56222589Y-40362448D01*
X56234036Y-40361234D01*
X56591537Y-40340091D01*
X56603055Y-40339948D01*
X56960960Y-40352109D01*
X56972416Y-40353033D01*
X57327662Y-40398394D01*
X57338992Y-40400380D01*
X57688481Y-40478548D01*
X57699579Y-40481578D01*
X58040286Y-40591873D01*
X58051070Y-40595927D01*
X58125685Y-40628013D01*
X58382807Y-40738580D01*
X58388023Y-40740967D01*
X58392800Y-40743290D01*
X58392800Y-40743289D01*
X58407867Y-40750615D01*
X58410183Y-40751301D01*
X58429874Y-40760523D01*
X58429869Y-40760531D01*
X58429933Y-40760550D01*
X58431502Y-40761286D01*
X58441077Y-40765770D01*
X58466827Y-40777829D01*
X58466826Y-40777830D01*
X58466837Y-40777833D01*
X58640223Y-40859058D01*
X58640228Y-40859060D01*
X58640240Y-40859065D01*
X59071361Y-41022104D01*
X59071364Y-41022104D01*
X59071375Y-41022109D01*
X59513723Y-41151747D01*
X59964681Y-41247217D01*
X60421614Y-41307959D01*
X60881852Y-41333619D01*
X61342705Y-41324046D01*
X61801481Y-41279297D01*
X62255498Y-41199634D01*
X62702103Y-41085521D01*
X62702127Y-41085513D01*
X63138683Y-40937627D01*
X63213398Y-40905765D01*
X65226058Y-40905765D01*
X65226058Y-42261738D01*
X66728058Y-42261738D01*
X66728058Y-41728210D01*
X66339147Y-41339299D01*
X66326510Y-41324503D01*
X66210861Y-41165326D01*
X66200694Y-41148735D01*
X66111370Y-40973425D01*
X66103924Y-40955450D01*
X66043123Y-40768326D01*
X66041061Y-40759738D01*
X65415176Y-40759738D01*
X65372018Y-40796754D01*
X65368367Y-40799767D01*
X65342188Y-40820540D01*
X65338413Y-40823419D01*
X65226058Y-40905765D01*
X63213398Y-40905765D01*
X63225242Y-40900714D01*
X63562695Y-40756812D01*
X63971653Y-40544137D01*
X64363170Y-40300844D01*
X64363174Y-40300840D01*
X64363179Y-40300838D01*
X64734945Y-40028364D01*
X64734959Y-40028354D01*
X65084845Y-39728259D01*
X65240299Y-39572777D01*
X65967125Y-38845950D01*
X66028444Y-38812468D01*
X66098136Y-38817452D01*
X66142483Y-38845953D01*
X66489319Y-39192790D01*
X66508658Y-39184779D01*
X66509005Y-39183600D01*
X66561809Y-39137845D01*
X66613320Y-39126639D01*
X68685910Y-39126639D01*
X69185908Y-39626637D01*
X66923166Y-39626637D01*
X69251595Y-41955066D01*
X69251596Y-41955065D01*
X69251596Y-39692325D01*
X69751594Y-40192323D01*
X69751594Y-42264913D01*
X69731909Y-42331952D01*
X69696232Y-42362866D01*
X69685442Y-42388913D01*
X70301388Y-43004859D01*
X70301395Y-43004865D01*
X70509382Y-43164458D01*
X70509398Y-43164469D01*
X70736431Y-43295548D01*
X70736447Y-43295556D01*
X70978649Y-43395878D01*
X71231900Y-43463737D01*
X71491820Y-43497957D01*
X71491835Y-43497958D01*
X71753995Y-43497958D01*
X71754009Y-43497957D01*
X72013929Y-43463737D01*
X72267180Y-43395878D01*
X72509382Y-43295556D01*
X72509398Y-43295548D01*
X72736431Y-43164469D01*
X72736447Y-43164458D01*
X72944434Y-43004865D01*
X72944441Y-43004859D01*
X73129816Y-42819484D01*
X73129822Y-42819477D01*
X73289415Y-42611490D01*
X73289426Y-42611474D01*
X73420505Y-42384441D01*
X73420513Y-42384425D01*
X73471331Y-42261738D01*
X77726058Y-42261738D01*
X79228058Y-42261738D01*
X80226058Y-42261738D01*
X81728058Y-42261738D01*
X82726058Y-42261738D01*
X84228058Y-42261738D01*
X84228058Y-41831700D01*
X85226058Y-41831700D01*
X86297437Y-40759738D01*
X85226058Y-40759738D01*
X85226058Y-41831700D01*
X84228058Y-41831700D01*
X84228058Y-40759738D01*
X82726058Y-40759738D01*
X82726058Y-42261738D01*
X81728058Y-42261738D01*
X81728058Y-40759738D01*
X80226058Y-40759738D01*
X80226058Y-42261738D01*
X79228058Y-42261738D01*
X79228058Y-40759738D01*
X77726058Y-40759738D01*
X77726058Y-42261738D01*
X73471331Y-42261738D01*
X73520835Y-42142223D01*
X73588694Y-41888972D01*
X73622914Y-41629052D01*
X73622915Y-41629038D01*
X73622915Y-41366877D01*
X73622914Y-41366863D01*
X73588694Y-41106943D01*
X73520835Y-40853692D01*
X73420513Y-40611490D01*
X73420505Y-40611474D01*
X73289426Y-40384441D01*
X73289415Y-40384425D01*
X73129822Y-40176438D01*
X73129816Y-40176431D01*
X72715123Y-39761738D01*
X75226058Y-39761738D01*
X76728058Y-39761738D01*
X77726058Y-39761738D01*
X79228058Y-39761738D01*
X80226058Y-39761738D01*
X81728058Y-39761738D01*
X82726058Y-39761738D01*
X84228058Y-39761738D01*
X85226058Y-39761738D01*
X86728058Y-39761738D01*
X86728058Y-39330338D01*
X87726058Y-39330338D01*
X88796076Y-38259738D01*
X87726058Y-38259738D01*
X87726058Y-39330338D01*
X86728058Y-39330338D01*
X86728058Y-38259738D01*
X85226058Y-38259738D01*
X85226058Y-39761738D01*
X84228058Y-39761738D01*
X84228058Y-38259738D01*
X82726058Y-38259738D01*
X82726058Y-39761738D01*
X81728058Y-39761738D01*
X81728058Y-38259738D01*
X80226058Y-38259738D01*
X80226058Y-39761738D01*
X79228058Y-39761738D01*
X79228058Y-38259738D01*
X77726058Y-38259738D01*
X77726058Y-39761738D01*
X76728058Y-39761738D01*
X76728058Y-38259738D01*
X75226058Y-38259738D01*
X75226058Y-39761738D01*
X72715123Y-39761738D01*
X72513870Y-39560485D01*
X72494531Y-39568496D01*
X72494185Y-39569676D01*
X72441381Y-39615431D01*
X72389870Y-39626637D01*
X70317280Y-39626637D01*
X69817282Y-39126639D01*
X72080023Y-39126639D01*
X72080023Y-39126638D01*
X70215123Y-37261738D01*
X72726058Y-37261738D01*
X74228058Y-37261738D01*
X75226058Y-37261738D01*
X76728058Y-37261738D01*
X77726058Y-37261738D01*
X79228058Y-37261738D01*
X80226058Y-37261738D01*
X81728058Y-37261738D01*
X82726058Y-37261738D01*
X84228058Y-37261738D01*
X85226058Y-37261738D01*
X86728058Y-37261738D01*
X87726058Y-37261738D01*
X89228058Y-37261738D01*
X89228058Y-36828976D01*
X90226058Y-36828976D01*
X91294714Y-35759738D01*
X90226058Y-35759738D01*
X90226058Y-36828976D01*
X89228058Y-36828976D01*
X89228058Y-35759738D01*
X87726058Y-35759738D01*
X87726058Y-37261738D01*
X86728058Y-37261738D01*
X86728058Y-35759738D01*
X85226058Y-35759738D01*
X85226058Y-37261738D01*
X84228058Y-37261738D01*
X84228058Y-35759738D01*
X82726058Y-35759738D01*
X82726058Y-37261738D01*
X81728058Y-37261738D01*
X81728058Y-35759738D01*
X80226058Y-35759738D01*
X80226058Y-37261738D01*
X79228058Y-37261738D01*
X79228058Y-35759738D01*
X77726058Y-35759738D01*
X77726058Y-37261738D01*
X76728058Y-37261738D01*
X76728058Y-35759738D01*
X75226058Y-35759738D01*
X75226058Y-37261738D01*
X74228058Y-37261738D01*
X74228058Y-35759738D01*
X72726058Y-35759738D01*
X72726058Y-37261738D01*
X70215123Y-37261738D01*
X69751594Y-36798209D01*
X69751594Y-39060951D01*
X69251596Y-38560953D01*
X69251596Y-36488363D01*
X69271281Y-36421324D01*
X69306957Y-36390409D01*
X69317747Y-36364362D01*
X68970910Y-36017525D01*
X68937425Y-35956202D01*
X68941287Y-35902204D01*
X70322252Y-35902204D01*
X70444481Y-35882846D01*
X70463878Y-35881319D01*
X70660632Y-35881319D01*
X70680029Y-35882846D01*
X70874361Y-35913624D01*
X70893283Y-35918166D01*
X71080407Y-35978967D01*
X71098382Y-35986413D01*
X71273692Y-36075737D01*
X71290283Y-36085904D01*
X71449460Y-36201553D01*
X71464256Y-36214190D01*
X71728058Y-36477992D01*
X71728058Y-35759738D01*
X70464719Y-35759738D01*
X70322252Y-35902204D01*
X68941287Y-35902204D01*
X68942409Y-35886510D01*
X68970904Y-35842170D01*
X71314675Y-33498399D01*
X72726058Y-33498399D01*
X72726058Y-34761738D01*
X74228058Y-34761738D01*
X75226058Y-34761738D01*
X76728058Y-34761738D01*
X77726058Y-34761738D01*
X79228058Y-34761738D01*
X80226058Y-34761738D01*
X81728058Y-34761738D01*
X82726058Y-34761738D01*
X84228058Y-34761738D01*
X85226058Y-34761738D01*
X86728058Y-34761738D01*
X87726058Y-34761738D01*
X89228058Y-34761738D01*
X90226058Y-34761738D01*
X91728058Y-34761738D01*
X91728058Y-34327614D01*
X92726058Y-34327614D01*
X93793353Y-33259738D01*
X92726058Y-33259738D01*
X92726058Y-34327614D01*
X91728058Y-34327614D01*
X91728058Y-33259738D01*
X90226058Y-33259738D01*
X90226058Y-34761738D01*
X89228058Y-34761738D01*
X89228058Y-33259738D01*
X87726058Y-33259738D01*
X87726058Y-34761738D01*
X86728058Y-34761738D01*
X86728058Y-33259738D01*
X85226058Y-33259738D01*
X85226058Y-34761738D01*
X84228058Y-34761738D01*
X84228058Y-33259738D01*
X82726058Y-33259738D01*
X82726058Y-34761738D01*
X81728058Y-34761738D01*
X81728058Y-33259738D01*
X80226058Y-33259738D01*
X80226058Y-34761738D01*
X79228058Y-34761738D01*
X79228058Y-33259738D01*
X77726058Y-33259738D01*
X77726058Y-34761738D01*
X76728058Y-34761738D01*
X76728058Y-33259738D01*
X75226058Y-33259738D01*
X75226058Y-34761738D01*
X74228058Y-34761738D01*
X74228058Y-33259738D01*
X72964719Y-33259738D01*
X72726058Y-33498399D01*
X71314675Y-33498399D01*
X73814675Y-30998399D01*
X75226058Y-30998399D01*
X75226058Y-32261738D01*
X76728058Y-32261738D01*
X77726058Y-32261738D01*
X79228058Y-32261738D01*
X80226058Y-32261738D01*
X81728058Y-32261738D01*
X82726058Y-32261738D01*
X84228058Y-32261738D01*
X85226058Y-32261738D01*
X86728058Y-32261738D01*
X87726058Y-32261738D01*
X89228058Y-32261738D01*
X90226058Y-32261738D01*
X91728058Y-32261738D01*
X92726058Y-32261738D01*
X94228058Y-32261738D01*
X94228058Y-30759738D01*
X92726058Y-30759738D01*
X92726058Y-32261738D01*
X91728058Y-32261738D01*
X91728058Y-30759738D01*
X90226058Y-30759738D01*
X90226058Y-32261738D01*
X89228058Y-32261738D01*
X89228058Y-30759738D01*
X87726058Y-30759738D01*
X87726058Y-32261738D01*
X86728058Y-32261738D01*
X86728058Y-30759738D01*
X85226058Y-30759738D01*
X85226058Y-32261738D01*
X84228058Y-32261738D01*
X84228058Y-30759738D01*
X82726058Y-30759738D01*
X82726058Y-32261738D01*
X81728058Y-32261738D01*
X81728058Y-30759738D01*
X80226058Y-30759738D01*
X80226058Y-32261738D01*
X79228058Y-32261738D01*
X79228058Y-30759738D01*
X77726058Y-30759738D01*
X77726058Y-32261738D01*
X76728058Y-32261738D01*
X76728058Y-30759738D01*
X75464719Y-30759738D01*
X75226058Y-30998399D01*
X73814675Y-30998399D01*
X76314675Y-28498399D01*
X77726058Y-28498399D01*
X77726058Y-29761738D01*
X79228058Y-29761738D01*
X80226058Y-29761738D01*
X81728058Y-29761738D01*
X82726058Y-29761738D01*
X84228058Y-29761738D01*
X85226058Y-29761738D01*
X86728058Y-29761738D01*
X87726058Y-29761738D01*
X89228058Y-29761738D01*
X90226058Y-29761738D01*
X91728058Y-29761738D01*
X92726058Y-29761738D01*
X94228058Y-29761738D01*
X94228058Y-28259738D01*
X92726058Y-28259738D01*
X92726058Y-29761738D01*
X91728058Y-29761738D01*
X91728058Y-28259738D01*
X90226058Y-28259738D01*
X90226058Y-29761738D01*
X89228058Y-29761738D01*
X89228058Y-28259738D01*
X87726058Y-28259738D01*
X87726058Y-29761738D01*
X86728058Y-29761738D01*
X86728058Y-28259738D01*
X85226058Y-28259738D01*
X85226058Y-29761738D01*
X84228058Y-29761738D01*
X84228058Y-28259738D01*
X82726058Y-28259738D01*
X82726058Y-29761738D01*
X81728058Y-29761738D01*
X81728058Y-28259738D01*
X80226058Y-28259738D01*
X80226058Y-29761738D01*
X79228058Y-29761738D01*
X79228058Y-28259738D01*
X77964719Y-28259738D01*
X77726058Y-28498399D01*
X76314675Y-28498399D01*
X78814675Y-25998399D01*
X80226058Y-25998399D01*
X80226058Y-27261738D01*
X81728058Y-27261738D01*
X82726058Y-27261738D01*
X84228058Y-27261738D01*
X85226058Y-27261738D01*
X86728058Y-27261738D01*
X87726058Y-27261738D01*
X89228058Y-27261738D01*
X90226058Y-27261738D01*
X91728058Y-27261738D01*
X92726058Y-27261738D01*
X93769461Y-27261738D01*
X92726058Y-26218335D01*
X92726058Y-27261738D01*
X91728058Y-27261738D01*
X91728058Y-25759738D01*
X90226058Y-25759738D01*
X90226058Y-27261738D01*
X89228058Y-27261738D01*
X89228058Y-25759738D01*
X87726058Y-25759738D01*
X87726058Y-27261738D01*
X86728058Y-27261738D01*
X86728058Y-25759738D01*
X85226058Y-25759738D01*
X85226058Y-27261738D01*
X84228058Y-27261738D01*
X84228058Y-25759738D01*
X82726058Y-25759738D01*
X82726058Y-27261738D01*
X81728058Y-27261738D01*
X81728058Y-25759738D01*
X80464719Y-25759738D01*
X80226058Y-25998399D01*
X78814675Y-25998399D01*
X81314675Y-23498399D01*
X82726058Y-23498399D01*
X82726058Y-24761738D01*
X84228058Y-24761738D01*
X85226058Y-24761738D01*
X86728058Y-24761738D01*
X87726058Y-24761738D01*
X89228058Y-24761738D01*
X90226058Y-24761738D01*
X91269460Y-24761738D01*
X90226058Y-23718335D01*
X90226058Y-24761738D01*
X89228058Y-24761738D01*
X89228058Y-23259738D01*
X87726058Y-23259738D01*
X87726058Y-24761738D01*
X86728058Y-24761738D01*
X86728058Y-23259738D01*
X85226058Y-23259738D01*
X85226058Y-24761738D01*
X84228058Y-24761738D01*
X84228058Y-23259738D01*
X82964719Y-23259738D01*
X82726058Y-23498399D01*
X81314675Y-23498399D01*
X82846801Y-21966273D01*
X82850450Y-21962771D01*
X83147318Y-21689486D01*
X83155119Y-21682879D01*
X83167100Y-21673554D01*
X85226058Y-21673554D01*
X85226058Y-22261738D01*
X86728058Y-22261738D01*
X86728058Y-21526116D01*
X86530391Y-21509738D01*
X86201791Y-21509738D01*
X85874343Y-21536869D01*
X85550228Y-21590955D01*
X85231693Y-21671619D01*
X85226058Y-21673554D01*
X83167100Y-21673554D01*
X83471480Y-21436646D01*
X83479791Y-21430710D01*
X83815449Y-21211415D01*
X83824205Y-21206197D01*
X84176811Y-21015375D01*
X84185998Y-21010884D01*
X84553146Y-20849839D01*
X84562660Y-20846127D01*
X84941837Y-20715956D01*
X84951635Y-20713038D01*
X85340295Y-20614615D01*
X85350287Y-20612520D01*
X85745751Y-20546529D01*
X85755881Y-20545267D01*
X86155403Y-20512161D01*
X86165643Y-20511738D01*
X86566539Y-20511738D01*
X86576778Y-20512161D01*
G37*
G04 #@! TD.AperFunction*
G04 #@! TA.AperFunction,Conductor*
G36*
X44546066Y-90641163D02*
G01*
X44612191Y-90630691D01*
X44622436Y-90627362D01*
X44692277Y-90625365D01*
X44752111Y-90661443D01*
X44782941Y-90724143D01*
X44778691Y-90783605D01*
X44775360Y-90793857D01*
X44775360Y-90793858D01*
X44764887Y-90859985D01*
X45659106Y-90859985D01*
X45626193Y-90916992D01*
X45592118Y-91044159D01*
X45592118Y-91175811D01*
X45626193Y-91302978D01*
X45659106Y-91359985D01*
X44764887Y-91359985D01*
X44775360Y-91426111D01*
X44775360Y-91426114D01*
X44841022Y-91628202D01*
X44937497Y-91817542D01*
X45018222Y-91928652D01*
X45041702Y-91994458D01*
X45025876Y-92062512D01*
X44975770Y-92111207D01*
X44907292Y-92125082D01*
X44842183Y-92099733D01*
X44830182Y-92089177D01*
X44622973Y-91881774D01*
X43321948Y-90579532D01*
X43288492Y-90518195D01*
X43293509Y-90448506D01*
X43335407Y-90392592D01*
X43400883Y-90368206D01*
X43469149Y-90383090D01*
X43482556Y-90391576D01*
X43588508Y-90468553D01*
X43777848Y-90565028D01*
X43979937Y-90630690D01*
X44046066Y-90641164D01*
X44046066Y-89746945D01*
X44103073Y-89779858D01*
X44230240Y-89813933D01*
X44361892Y-89813933D01*
X44489059Y-89779858D01*
X44546066Y-89746945D01*
X44546066Y-90641163D01*
G37*
G04 #@! TD.AperFunction*
G04 #@! TA.AperFunction,Conductor*
G36*
X42750015Y-88845112D02*
G01*
X42816141Y-88834639D01*
X42826382Y-88831312D01*
X42896223Y-88829313D01*
X42956057Y-88865390D01*
X42986889Y-88928090D01*
X42982638Y-88987556D01*
X42979309Y-88997802D01*
X42979308Y-88997806D01*
X42968835Y-89063933D01*
X43863054Y-89063933D01*
X43830141Y-89120940D01*
X43796066Y-89248107D01*
X43796066Y-89379759D01*
X43830141Y-89506926D01*
X43863054Y-89563933D01*
X42968835Y-89563933D01*
X42979308Y-89630059D01*
X42979308Y-89630062D01*
X43044970Y-89832150D01*
X43141445Y-90021490D01*
X43217696Y-90126442D01*
X43241176Y-90192248D01*
X43225350Y-90260302D01*
X43175244Y-90308997D01*
X43106766Y-90322872D01*
X43041657Y-90297523D01*
X43029656Y-90286967D01*
X41532021Y-88787931D01*
X41498564Y-88726592D01*
X41503582Y-88656903D01*
X41545479Y-88600989D01*
X41610955Y-88576603D01*
X41679221Y-88591487D01*
X41692628Y-88599973D01*
X41792457Y-88672502D01*
X41981797Y-88768977D01*
X42183886Y-88834639D01*
X42250015Y-88845113D01*
X42250015Y-87950894D01*
X42307022Y-87983807D01*
X42434189Y-88017882D01*
X42565841Y-88017882D01*
X42693008Y-87983807D01*
X42750015Y-87950894D01*
X42750015Y-88845112D01*
G37*
G04 #@! TD.AperFunction*
G04 #@! TA.AperFunction,Conductor*
G36*
X80008454Y-53810094D02*
G01*
X80020415Y-53820609D01*
X81585441Y-55385635D01*
X81618926Y-55446957D01*
X81613942Y-55516649D01*
X81572070Y-55572582D01*
X81506606Y-55596999D01*
X81438333Y-55582147D01*
X81424875Y-55573634D01*
X81283854Y-55471177D01*
X81094516Y-55374704D01*
X80892425Y-55309042D01*
X80826301Y-55298569D01*
X80826301Y-56192789D01*
X80769294Y-56159876D01*
X80642127Y-56125801D01*
X80510475Y-56125801D01*
X80383308Y-56159876D01*
X80326301Y-56192789D01*
X80326301Y-55298569D01*
X80326300Y-55298569D01*
X80260177Y-55309042D01*
X80249923Y-55312374D01*
X80180082Y-55314367D01*
X80120250Y-55278285D01*
X80089424Y-55215583D01*
X80093678Y-55156122D01*
X80097005Y-55145881D01*
X80097006Y-55145875D01*
X80107480Y-55079749D01*
X79213261Y-55079749D01*
X79246174Y-55022742D01*
X79280249Y-54895575D01*
X79280249Y-54763923D01*
X79246174Y-54636756D01*
X79213261Y-54579749D01*
X80107480Y-54579749D01*
X80097006Y-54513622D01*
X80097006Y-54513619D01*
X80031344Y-54311531D01*
X79934869Y-54122191D01*
X79832416Y-53981175D01*
X79808936Y-53915369D01*
X79824762Y-53847315D01*
X79874867Y-53798620D01*
X79943345Y-53784745D01*
X80008454Y-53810094D01*
G37*
G04 #@! TD.AperFunction*
G04 #@! TA.AperFunction,Conductor*
G36*
X78212403Y-52014043D02*
G01*
X78224364Y-52024558D01*
X79789388Y-53589582D01*
X79822873Y-53650905D01*
X79817889Y-53720597D01*
X79776017Y-53776530D01*
X79710553Y-53800947D01*
X79642280Y-53786095D01*
X79628822Y-53777581D01*
X79487806Y-53675128D01*
X79298464Y-53578652D01*
X79096373Y-53512990D01*
X79030249Y-53502517D01*
X79030249Y-54396737D01*
X78973242Y-54363824D01*
X78846075Y-54329749D01*
X78714423Y-54329749D01*
X78587256Y-54363824D01*
X78530249Y-54396737D01*
X78530249Y-53502517D01*
X78530248Y-53502517D01*
X78464126Y-53512990D01*
X78453867Y-53516323D01*
X78384026Y-53518313D01*
X78324195Y-53482228D01*
X78293372Y-53419525D01*
X78297628Y-53360065D01*
X78300955Y-53349824D01*
X78311429Y-53283698D01*
X77417210Y-53283698D01*
X77450123Y-53226691D01*
X77484198Y-53099524D01*
X77484198Y-52967872D01*
X77450123Y-52840705D01*
X77417210Y-52783698D01*
X78311429Y-52783698D01*
X78300955Y-52717571D01*
X78300955Y-52717568D01*
X78235293Y-52515480D01*
X78138818Y-52326140D01*
X78036365Y-52185124D01*
X78012885Y-52119318D01*
X78028711Y-52051264D01*
X78078816Y-52002569D01*
X78147294Y-51988694D01*
X78212403Y-52014043D01*
G37*
G04 #@! TD.AperFunction*
M02*
