M48
; DRILL file {KiCad 9.0.2} date 2025-09-19T15:02:24-0400
; FORMAT={-:-/ absolute / metric / decimal}
; #@! TF.CreationDate,2025-09-19T15:02:24-04:00
; #@! TF.GenerationSoftware,Kicad,Pcbnew,9.0.2
; #@! TF.FileFunction,Plated,1,2,PTH
FMAT,2
METRIC
; #@! TA.AperFunction,Plated,PTH,ViaDrill
T1C0.400
; #@! TA.AperFunction,Plated,PTH,ComponentDrill
T2C1.000
; #@! TA.AperFunction,Plated,PTH,ComponentDrill
T3C2.500
%
G90
G05
T1
X178.822Y-104.154
X182.357Y-100.619
X182.357Y-107.69
X185.893Y-104.154
X185.893Y-111.225
X189.428Y-107.69
X192.964Y-82.941
X194.025Y-116.882
X196.5Y-86.477
X200.035Y-90.012
X203.571Y-86.477
X207.106Y-90.012
X210.642Y-86.477
X211.879Y-123.069
X214.177Y-61.728
X214.177Y-82.941
X217.713Y-65.263
X217.713Y-72.335
X217.713Y-79.406
X221.248Y-68.799
X221.248Y-75.87
X228.319Y-118.296
X231.855Y-51.121
X231.855Y-114.761
X231.855Y-121.832
X235.39Y-47.586
X235.39Y-54.657
X235.39Y-118.296
X235.39Y-125.368
X238.926Y-51.121
X238.926Y-58.192
X238.926Y-121.832
X242.462Y-54.657
X245.997Y-100.619
X246.174Y-57.662
X249.533Y-97.083
X249.533Y-104.154
X252.361Y-75.516
X253.068Y-100.619
X253.068Y-107.69
X256.604Y-104.154
T2
X188.854Y-94.651
X191.394Y-94.651
X193.934Y-94.651
X196.474Y-94.651
X217.263Y-120.511
X219.059Y-122.307
X220.855Y-124.103
X222.651Y-125.899
X225.88Y-57.625
X225.88Y-60.165
X225.88Y-62.705
X225.88Y-65.245
X251.747Y-86.027
X253.543Y-87.823
X255.339Y-89.619
X257.135Y-91.415
T3
X198.126Y-66.89
M30
