M48
; DRILL file {KiCad 9.0.2} date 2025-09-19T15:02:24-0400
; FORMAT={-:-/ absolute / metric / decimal}
; #@! TF.CreationDate,2025-09-19T15:02:24-04:00
; #@! TF.GenerationSoftware,Kicad,Pcbnew,9.0.2
; #@! TF.FileFunction,NonPlated,1,2,NPTH
FMAT,2
METRIC
; #@! TA.AperFunction,NonPlated,NPTH,ComponentDrill
T1C1.702
; #@! TA.AperFunction,NonPlated,NPTH,ComponentDrill
T2C3.000
; #@! TA.AperFunction,NonPlated,NPTH,ComponentDrill
T3C3.429
%
G90
G05
T1
X186.954Y-120.771
X194.732Y-128.55
X207.177Y-126.852
X214.955Y-134.631
X252.007Y-55.718
X258.089Y-75.941
X259.786Y-63.496
X265.867Y-83.719
T2
X195.05Y-120.453
X197.03Y-125.544
X215.273Y-126.534
X217.253Y-131.625
X249.709Y-58.723
X251.689Y-63.814
X255.79Y-78.946
X257.77Y-84.037
T3
X190.843Y-124.66
X211.066Y-130.742
X255.897Y-59.607
X261.978Y-79.83
M30
