G04 #@! TF.GenerationSoftware,KiCad,Pcbnew,9.0.2*
G04 #@! TF.CreationDate,2025-09-19T15:02:21-04:00*
G04 #@! TF.ProjectId,Trackball,54726163-6b62-4616-9c6c-2e6b69636164,rev?*
G04 #@! TF.SameCoordinates,Original*
G04 #@! TF.FileFunction,Soldermask,Bot*
G04 #@! TF.FilePolarity,Negative*
%FSLAX46Y46*%
G04 Gerber Fmt 4.6, Leading zero omitted, Abs format (unit mm)*
G04 Created by KiCad (PCBNEW 9.0.2) date 2025-09-19 15:02:21*
%MOMM*%
%LPD*%
G01*
G04 APERTURE LIST*
G04 APERTURE END LIST*
G36*
X219588440Y-132055598D02*
G01*
X219604985Y-132066654D01*
X221443463Y-133905132D01*
X221454519Y-133921677D01*
X221458400Y-133941194D01*
X221454519Y-133960711D01*
X221443463Y-133977256D01*
X219604985Y-135815734D01*
X219588440Y-135826790D01*
X219568923Y-135830671D01*
X219549406Y-135826790D01*
X219532861Y-135815734D01*
X217694383Y-133977256D01*
X217683327Y-133960711D01*
X217679446Y-133941194D01*
X217683327Y-133921677D01*
X217694383Y-133905132D01*
X218966802Y-132632713D01*
X219524156Y-132075358D01*
X219524159Y-132075355D01*
X219532861Y-132066654D01*
X219549406Y-132055598D01*
X219568923Y-132051717D01*
X219588440Y-132055598D01*
G37*
G36*
X215216859Y-133767559D02*
G01*
X215380204Y-133835218D01*
X215527210Y-133933445D01*
X215652229Y-134058464D01*
X215750456Y-134205470D01*
X215818115Y-134368815D01*
X215852608Y-134542221D01*
X215852608Y-134719025D01*
X215818115Y-134892431D01*
X215750456Y-135055776D01*
X215652229Y-135202782D01*
X215527210Y-135327801D01*
X215380204Y-135426028D01*
X215216859Y-135493687D01*
X215043453Y-135528180D01*
X214866649Y-135528180D01*
X214693243Y-135493687D01*
X214529898Y-135426028D01*
X214382892Y-135327801D01*
X214257873Y-135202782D01*
X214159646Y-135055776D01*
X214091987Y-134892431D01*
X214057494Y-134719025D01*
X214057494Y-134542221D01*
X214091987Y-134368815D01*
X214159646Y-134205470D01*
X214257873Y-134058464D01*
X214382892Y-133933445D01*
X214529898Y-133835218D01*
X214693243Y-133767559D01*
X214866649Y-133733066D01*
X215043453Y-133733066D01*
X215216859Y-133767559D01*
G37*
G36*
X217363630Y-130079200D02*
G01*
X217374838Y-130079200D01*
X217430036Y-130087942D01*
X217555682Y-130104484D01*
X217586337Y-130112698D01*
X217615222Y-130117273D01*
X217670768Y-130135321D01*
X217751615Y-130156984D01*
X217803198Y-130178350D01*
X217846690Y-130192482D01*
X217887434Y-130213242D01*
X217939018Y-130234609D01*
X218011501Y-130276457D01*
X218063543Y-130302974D01*
X218087203Y-130320164D01*
X218114687Y-130336032D01*
X218215222Y-130413175D01*
X218260442Y-130446029D01*
X218268367Y-130453954D01*
X218275614Y-130459515D01*
X218419051Y-130602952D01*
X218424611Y-130610198D01*
X218432538Y-130618125D01*
X218465395Y-130663349D01*
X218542534Y-130763879D01*
X218558400Y-130791360D01*
X218575593Y-130815024D01*
X218602112Y-130867071D01*
X218643957Y-130939548D01*
X218665321Y-130991125D01*
X218686085Y-131031877D01*
X218700218Y-131075374D01*
X218721582Y-131126951D01*
X218743241Y-131207785D01*
X218761294Y-131263345D01*
X218765869Y-131292235D01*
X218774082Y-131322884D01*
X218790622Y-131448518D01*
X218799367Y-131503729D01*
X218799367Y-131514937D01*
X218800560Y-131523999D01*
X218800560Y-131726838D01*
X218799367Y-131735899D01*
X218799367Y-131747109D01*
X218790621Y-131802324D01*
X218774082Y-131927953D01*
X218765870Y-131958599D01*
X218761294Y-131987493D01*
X218743239Y-132043057D01*
X218721582Y-132123886D01*
X218700219Y-132175458D01*
X218686085Y-132218961D01*
X218665319Y-132259716D01*
X218643957Y-132311289D01*
X218602116Y-132383757D01*
X218575593Y-132435814D01*
X218558397Y-132459481D01*
X218542534Y-132486958D01*
X218465409Y-132587469D01*
X218432538Y-132632713D01*
X218424607Y-132640643D01*
X218419051Y-132647885D01*
X218275614Y-132791322D01*
X218268372Y-132796878D01*
X218260442Y-132804809D01*
X218215198Y-132837680D01*
X218114687Y-132914805D01*
X218087210Y-132930668D01*
X218063543Y-132947864D01*
X218011486Y-132974387D01*
X217939018Y-133016228D01*
X217887445Y-133037590D01*
X217846690Y-133058356D01*
X217803187Y-133072490D01*
X217751615Y-133093853D01*
X217670786Y-133115510D01*
X217615222Y-133133565D01*
X217586328Y-133138141D01*
X217555682Y-133146353D01*
X217430050Y-133162893D01*
X217374838Y-133171638D01*
X217363629Y-133171638D01*
X217354568Y-133172831D01*
X217151728Y-133172831D01*
X217142667Y-133171638D01*
X217131458Y-133171638D01*
X217076247Y-133162893D01*
X216950613Y-133146353D01*
X216919964Y-133138140D01*
X216891074Y-133133565D01*
X216835514Y-133115512D01*
X216754680Y-133093853D01*
X216703103Y-133072489D01*
X216659606Y-133058356D01*
X216618854Y-133037592D01*
X216567277Y-133016228D01*
X216494800Y-132974383D01*
X216442753Y-132947864D01*
X216419089Y-132930671D01*
X216391608Y-132914805D01*
X216291078Y-132837666D01*
X216245854Y-132804809D01*
X216237927Y-132796882D01*
X216230681Y-132791322D01*
X216087244Y-132647885D01*
X216081683Y-132640638D01*
X216073758Y-132632713D01*
X216040904Y-132587493D01*
X215963761Y-132486958D01*
X215947893Y-132459474D01*
X215930703Y-132435814D01*
X215904186Y-132383772D01*
X215862338Y-132311289D01*
X215840971Y-132259705D01*
X215820211Y-132218961D01*
X215806079Y-132175469D01*
X215784713Y-132123886D01*
X215763050Y-132043039D01*
X215745002Y-131987493D01*
X215740427Y-131958608D01*
X215732213Y-131927953D01*
X215715672Y-131802310D01*
X215706929Y-131747109D01*
X215706929Y-131735899D01*
X215705736Y-131726838D01*
X215705736Y-131523999D01*
X215706929Y-131514937D01*
X215706929Y-131503729D01*
X215715671Y-131448532D01*
X215732213Y-131322884D01*
X215740427Y-131292226D01*
X215745002Y-131263345D01*
X215763048Y-131207802D01*
X215784713Y-131126951D01*
X215806081Y-131075363D01*
X215820211Y-131031877D01*
X215840969Y-130991136D01*
X215862338Y-130939548D01*
X215904190Y-130867056D01*
X215930703Y-130815024D01*
X215947890Y-130791367D01*
X215963761Y-130763879D01*
X216040918Y-130663325D01*
X216073758Y-130618125D01*
X216081680Y-130610202D01*
X216087244Y-130602952D01*
X216230681Y-130459515D01*
X216237931Y-130453951D01*
X216245854Y-130446029D01*
X216291054Y-130413189D01*
X216391608Y-130336032D01*
X216419096Y-130320161D01*
X216442753Y-130302974D01*
X216494785Y-130276461D01*
X216567277Y-130234609D01*
X216618865Y-130213240D01*
X216659606Y-130192482D01*
X216703092Y-130178352D01*
X216754680Y-130156984D01*
X216835531Y-130135319D01*
X216891074Y-130117273D01*
X216919955Y-130112698D01*
X216950613Y-130104484D01*
X217076261Y-130087942D01*
X217131458Y-130079200D01*
X217142666Y-130079200D01*
X217151728Y-130078007D01*
X217354568Y-130078007D01*
X217363630Y-130079200D01*
G37*
G36*
X211410396Y-129009960D02*
G01*
X211633465Y-129069731D01*
X211846825Y-129158107D01*
X212046823Y-129273576D01*
X212230039Y-129414163D01*
X212393337Y-129577461D01*
X212533924Y-129760677D01*
X212649393Y-129960675D01*
X212737769Y-130174035D01*
X212797540Y-130397104D01*
X212827684Y-130626067D01*
X212827684Y-130857005D01*
X212797540Y-131085968D01*
X212737769Y-131309037D01*
X212649393Y-131522397D01*
X212533924Y-131722395D01*
X212393337Y-131905611D01*
X212230039Y-132068909D01*
X212046823Y-132209496D01*
X211846825Y-132324965D01*
X211633465Y-132413341D01*
X211410396Y-132473112D01*
X211181433Y-132503256D01*
X210950495Y-132503256D01*
X210721532Y-132473112D01*
X210498463Y-132413341D01*
X210285103Y-132324965D01*
X210085105Y-132209496D01*
X209901889Y-132068909D01*
X209738591Y-131905611D01*
X209598004Y-131722395D01*
X209482535Y-131522397D01*
X209394159Y-131309037D01*
X209334388Y-131085968D01*
X209304244Y-130857005D01*
X209304244Y-130626067D01*
X209334388Y-130397104D01*
X209394159Y-130174035D01*
X209482535Y-129960675D01*
X209598004Y-129760677D01*
X209738591Y-129577461D01*
X209901889Y-129414163D01*
X210085105Y-129273576D01*
X210285103Y-129158107D01*
X210498463Y-129069731D01*
X210721532Y-129009960D01*
X210950495Y-128979816D01*
X211181433Y-128979816D01*
X211410396Y-129009960D01*
G37*
G36*
X199365186Y-125974480D02*
G01*
X199381731Y-125985536D01*
X201220209Y-127824014D01*
X201231265Y-127840559D01*
X201235146Y-127860076D01*
X201231265Y-127879593D01*
X201220209Y-127896138D01*
X199381731Y-129734616D01*
X199365186Y-129745672D01*
X199345669Y-129749553D01*
X199326152Y-129745672D01*
X199309607Y-129734616D01*
X197471129Y-127896138D01*
X197460073Y-127879593D01*
X197456192Y-127860076D01*
X197460073Y-127840559D01*
X197471129Y-127824014D01*
X198743548Y-126551595D01*
X199300902Y-125994240D01*
X199300905Y-125994237D01*
X199309607Y-125985536D01*
X199326152Y-125974480D01*
X199345669Y-125970599D01*
X199365186Y-125974480D01*
G37*
G36*
X194993605Y-127686441D02*
G01*
X195156950Y-127754100D01*
X195303956Y-127852327D01*
X195428975Y-127977346D01*
X195527202Y-128124352D01*
X195594861Y-128287697D01*
X195629354Y-128461103D01*
X195629354Y-128637907D01*
X195594861Y-128811313D01*
X195527202Y-128974658D01*
X195428975Y-129121664D01*
X195303956Y-129246683D01*
X195156950Y-129344910D01*
X194993605Y-129412569D01*
X194820199Y-129447062D01*
X194643395Y-129447062D01*
X194469989Y-129412569D01*
X194306644Y-129344910D01*
X194159638Y-129246683D01*
X194034619Y-129121664D01*
X193936392Y-128974658D01*
X193868733Y-128811313D01*
X193834240Y-128637907D01*
X193834240Y-128461103D01*
X193868733Y-128287697D01*
X193936392Y-128124352D01*
X194034619Y-127977346D01*
X194159638Y-127852327D01*
X194306644Y-127754100D01*
X194469989Y-127686441D01*
X194643395Y-127651948D01*
X194820199Y-127651948D01*
X194993605Y-127686441D01*
G37*
G36*
X215383731Y-124988032D02*
G01*
X215394939Y-124988032D01*
X215450137Y-124996774D01*
X215575783Y-125013316D01*
X215606438Y-125021530D01*
X215635323Y-125026105D01*
X215690869Y-125044153D01*
X215771716Y-125065816D01*
X215823299Y-125087182D01*
X215866791Y-125101314D01*
X215907535Y-125122074D01*
X215959119Y-125143441D01*
X216031602Y-125185289D01*
X216083644Y-125211806D01*
X216107304Y-125228996D01*
X216134788Y-125244864D01*
X216235323Y-125322007D01*
X216280543Y-125354861D01*
X216288468Y-125362786D01*
X216295715Y-125368347D01*
X216439152Y-125511784D01*
X216444712Y-125519030D01*
X216452639Y-125526957D01*
X216485496Y-125572181D01*
X216562635Y-125672711D01*
X216578501Y-125700192D01*
X216595694Y-125723856D01*
X216622213Y-125775903D01*
X216664058Y-125848380D01*
X216685422Y-125899957D01*
X216706186Y-125940709D01*
X216720319Y-125984206D01*
X216741683Y-126035783D01*
X216763342Y-126116617D01*
X216781395Y-126172177D01*
X216785970Y-126201067D01*
X216794183Y-126231716D01*
X216810723Y-126357350D01*
X216819468Y-126412561D01*
X216819468Y-126423769D01*
X216820661Y-126432831D01*
X216820661Y-126635670D01*
X216819468Y-126644731D01*
X216819468Y-126655941D01*
X216810722Y-126711156D01*
X216794183Y-126836785D01*
X216785971Y-126867431D01*
X216781395Y-126896325D01*
X216763340Y-126951889D01*
X216741683Y-127032718D01*
X216720320Y-127084290D01*
X216706186Y-127127793D01*
X216685420Y-127168548D01*
X216664058Y-127220121D01*
X216622217Y-127292589D01*
X216595694Y-127344646D01*
X216578498Y-127368313D01*
X216562635Y-127395790D01*
X216485510Y-127496301D01*
X216452639Y-127541545D01*
X216444708Y-127549475D01*
X216439152Y-127556717D01*
X216295715Y-127700154D01*
X216288473Y-127705710D01*
X216280543Y-127713641D01*
X216235299Y-127746512D01*
X216134788Y-127823637D01*
X216107311Y-127839500D01*
X216083644Y-127856696D01*
X216031587Y-127883219D01*
X215959119Y-127925060D01*
X215907546Y-127946422D01*
X215866791Y-127967188D01*
X215823288Y-127981322D01*
X215771716Y-128002685D01*
X215690887Y-128024342D01*
X215635323Y-128042397D01*
X215606429Y-128046973D01*
X215575783Y-128055185D01*
X215450151Y-128071725D01*
X215394939Y-128080470D01*
X215383730Y-128080470D01*
X215374669Y-128081663D01*
X215171829Y-128081663D01*
X215162768Y-128080470D01*
X215151559Y-128080470D01*
X215096348Y-128071725D01*
X214970714Y-128055185D01*
X214940065Y-128046972D01*
X214911175Y-128042397D01*
X214855615Y-128024344D01*
X214774781Y-128002685D01*
X214723204Y-127981321D01*
X214679707Y-127967188D01*
X214638955Y-127946424D01*
X214587378Y-127925060D01*
X214514901Y-127883215D01*
X214462854Y-127856696D01*
X214439190Y-127839503D01*
X214411709Y-127823637D01*
X214311179Y-127746498D01*
X214265955Y-127713641D01*
X214258028Y-127705714D01*
X214250782Y-127700154D01*
X214107345Y-127556717D01*
X214101784Y-127549470D01*
X214093859Y-127541545D01*
X214061005Y-127496325D01*
X213983862Y-127395790D01*
X213967994Y-127368306D01*
X213950804Y-127344646D01*
X213924287Y-127292604D01*
X213882439Y-127220121D01*
X213861072Y-127168537D01*
X213840312Y-127127793D01*
X213826180Y-127084301D01*
X213804814Y-127032718D01*
X213783151Y-126951871D01*
X213765103Y-126896325D01*
X213760528Y-126867440D01*
X213752314Y-126836785D01*
X213735773Y-126711142D01*
X213727030Y-126655941D01*
X213727030Y-126644731D01*
X213725837Y-126635670D01*
X213725837Y-126432831D01*
X213727030Y-126423769D01*
X213727030Y-126412561D01*
X213735772Y-126357364D01*
X213752314Y-126231716D01*
X213760528Y-126201058D01*
X213765103Y-126172177D01*
X213783149Y-126116634D01*
X213804814Y-126035783D01*
X213826182Y-125984195D01*
X213840312Y-125940709D01*
X213861070Y-125899968D01*
X213882439Y-125848380D01*
X213924291Y-125775888D01*
X213950804Y-125723856D01*
X213967991Y-125700199D01*
X213983862Y-125672711D01*
X214061019Y-125572157D01*
X214093859Y-125526957D01*
X214101781Y-125519034D01*
X214107345Y-125511784D01*
X214250782Y-125368347D01*
X214258032Y-125362783D01*
X214265955Y-125354861D01*
X214311155Y-125322021D01*
X214411709Y-125244864D01*
X214439197Y-125228993D01*
X214462854Y-125211806D01*
X214514886Y-125185293D01*
X214587378Y-125143441D01*
X214638966Y-125122072D01*
X214679707Y-125101314D01*
X214723193Y-125087184D01*
X214774781Y-125065816D01*
X214855632Y-125044151D01*
X214911175Y-125026105D01*
X214940056Y-125021530D01*
X214970714Y-125013316D01*
X215096362Y-124996774D01*
X215151559Y-124988032D01*
X215162767Y-124988032D01*
X215171829Y-124986839D01*
X215374669Y-124986839D01*
X215383731Y-124988032D01*
G37*
G36*
X207438685Y-125989385D02*
G01*
X207602030Y-126057044D01*
X207749036Y-126155271D01*
X207874055Y-126280290D01*
X207972282Y-126427296D01*
X208039941Y-126590641D01*
X208074434Y-126764047D01*
X208074434Y-126940851D01*
X208039941Y-127114257D01*
X207972282Y-127277602D01*
X207874055Y-127424608D01*
X207749036Y-127549627D01*
X207602030Y-127647854D01*
X207438685Y-127715513D01*
X207265279Y-127750006D01*
X207088475Y-127750006D01*
X206915069Y-127715513D01*
X206751724Y-127647854D01*
X206604718Y-127549627D01*
X206479699Y-127424608D01*
X206381472Y-127277602D01*
X206313813Y-127114257D01*
X206279320Y-126940851D01*
X206279320Y-126764047D01*
X206313813Y-126590641D01*
X206381472Y-126427296D01*
X206479699Y-126280290D01*
X206604718Y-126155271D01*
X206751724Y-126057044D01*
X206915069Y-125989385D01*
X207088475Y-125954892D01*
X207265279Y-125954892D01*
X207438685Y-125989385D01*
G37*
G36*
X222670719Y-124650069D02*
G01*
X222687264Y-124661125D01*
X223889346Y-125863207D01*
X223900402Y-125879752D01*
X223904283Y-125899269D01*
X223900402Y-125918786D01*
X223889346Y-125935331D01*
X222687264Y-127137413D01*
X222670719Y-127148469D01*
X222651202Y-127152350D01*
X222631685Y-127148469D01*
X222615140Y-127137413D01*
X221413058Y-125935331D01*
X221402002Y-125918786D01*
X221398121Y-125899269D01*
X221402002Y-125879752D01*
X221413058Y-125863207D01*
X222289426Y-124986839D01*
X222606435Y-124669829D01*
X222606438Y-124669826D01*
X222615140Y-124661125D01*
X222631685Y-124650069D01*
X222651202Y-124646188D01*
X222670719Y-124650069D01*
G37*
G36*
X197140376Y-123998082D02*
G01*
X197151584Y-123998082D01*
X197206782Y-124006824D01*
X197332428Y-124023366D01*
X197363083Y-124031580D01*
X197391968Y-124036155D01*
X197447514Y-124054203D01*
X197528361Y-124075866D01*
X197579944Y-124097232D01*
X197623436Y-124111364D01*
X197664180Y-124132124D01*
X197715764Y-124153491D01*
X197788247Y-124195339D01*
X197840289Y-124221856D01*
X197863949Y-124239046D01*
X197891433Y-124254914D01*
X197991968Y-124332057D01*
X198037188Y-124364911D01*
X198045113Y-124372836D01*
X198052360Y-124378397D01*
X198195797Y-124521834D01*
X198201357Y-124529080D01*
X198209284Y-124537007D01*
X198242141Y-124582231D01*
X198319280Y-124682761D01*
X198335146Y-124710242D01*
X198352339Y-124733906D01*
X198378858Y-124785953D01*
X198420703Y-124858430D01*
X198442067Y-124910007D01*
X198462831Y-124950759D01*
X198476964Y-124994256D01*
X198498328Y-125045833D01*
X198519987Y-125126667D01*
X198538040Y-125182227D01*
X198542615Y-125211117D01*
X198550828Y-125241766D01*
X198567368Y-125367400D01*
X198576113Y-125422611D01*
X198576113Y-125433819D01*
X198577306Y-125442881D01*
X198577306Y-125645720D01*
X198576113Y-125654781D01*
X198576113Y-125665991D01*
X198567367Y-125721206D01*
X198550828Y-125846835D01*
X198542616Y-125877481D01*
X198538040Y-125906375D01*
X198519985Y-125961939D01*
X198498328Y-126042768D01*
X198476965Y-126094340D01*
X198462831Y-126137843D01*
X198442065Y-126178598D01*
X198420703Y-126230171D01*
X198378862Y-126302639D01*
X198352339Y-126354696D01*
X198335143Y-126378363D01*
X198319280Y-126405840D01*
X198242155Y-126506351D01*
X198209284Y-126551595D01*
X198201353Y-126559525D01*
X198195797Y-126566767D01*
X198052360Y-126710204D01*
X198045118Y-126715760D01*
X198037188Y-126723691D01*
X197991944Y-126756562D01*
X197891433Y-126833687D01*
X197863956Y-126849550D01*
X197840289Y-126866746D01*
X197788232Y-126893269D01*
X197715764Y-126935110D01*
X197664191Y-126956472D01*
X197623436Y-126977238D01*
X197579933Y-126991372D01*
X197528361Y-127012735D01*
X197447532Y-127034392D01*
X197391968Y-127052447D01*
X197363074Y-127057023D01*
X197332428Y-127065235D01*
X197206796Y-127081775D01*
X197151584Y-127090520D01*
X197140375Y-127090520D01*
X197131314Y-127091713D01*
X196928474Y-127091713D01*
X196919413Y-127090520D01*
X196908204Y-127090520D01*
X196852993Y-127081775D01*
X196727359Y-127065235D01*
X196696710Y-127057022D01*
X196667820Y-127052447D01*
X196612260Y-127034394D01*
X196531426Y-127012735D01*
X196479849Y-126991371D01*
X196436352Y-126977238D01*
X196395600Y-126956474D01*
X196344023Y-126935110D01*
X196271546Y-126893265D01*
X196219499Y-126866746D01*
X196195835Y-126849553D01*
X196168354Y-126833687D01*
X196067824Y-126756548D01*
X196022600Y-126723691D01*
X196014673Y-126715764D01*
X196007427Y-126710204D01*
X195863990Y-126566767D01*
X195858429Y-126559520D01*
X195850504Y-126551595D01*
X195817650Y-126506375D01*
X195740507Y-126405840D01*
X195724639Y-126378356D01*
X195707449Y-126354696D01*
X195680932Y-126302654D01*
X195639084Y-126230171D01*
X195617717Y-126178587D01*
X195596957Y-126137843D01*
X195582825Y-126094351D01*
X195561459Y-126042768D01*
X195539796Y-125961921D01*
X195521748Y-125906375D01*
X195517173Y-125877490D01*
X195508959Y-125846835D01*
X195492418Y-125721192D01*
X195483675Y-125665991D01*
X195483675Y-125654781D01*
X195482482Y-125645720D01*
X195482482Y-125442881D01*
X195483675Y-125433819D01*
X195483675Y-125422611D01*
X195492417Y-125367414D01*
X195508959Y-125241766D01*
X195517173Y-125211108D01*
X195521748Y-125182227D01*
X195539794Y-125126684D01*
X195561459Y-125045833D01*
X195582827Y-124994245D01*
X195596957Y-124950759D01*
X195617715Y-124910018D01*
X195639084Y-124858430D01*
X195680936Y-124785938D01*
X195707449Y-124733906D01*
X195724636Y-124710249D01*
X195740507Y-124682761D01*
X195817664Y-124582207D01*
X195850504Y-124537007D01*
X195858426Y-124529084D01*
X195863990Y-124521834D01*
X196007427Y-124378397D01*
X196014677Y-124372833D01*
X196022600Y-124364911D01*
X196067800Y-124332071D01*
X196168354Y-124254914D01*
X196195842Y-124239043D01*
X196219499Y-124221856D01*
X196271531Y-124195343D01*
X196344023Y-124153491D01*
X196395611Y-124132122D01*
X196436352Y-124111364D01*
X196479838Y-124097234D01*
X196531426Y-124075866D01*
X196612277Y-124054201D01*
X196667820Y-124036155D01*
X196696701Y-124031580D01*
X196727359Y-124023366D01*
X196853007Y-124006824D01*
X196908204Y-123998082D01*
X196919412Y-123998082D01*
X196928474Y-123996889D01*
X197131314Y-123996889D01*
X197140376Y-123998082D01*
G37*
G36*
X191187142Y-122928842D02*
G01*
X191410211Y-122988613D01*
X191623571Y-123076989D01*
X191823569Y-123192458D01*
X192006785Y-123333045D01*
X192170083Y-123496343D01*
X192310670Y-123679559D01*
X192426139Y-123879557D01*
X192514515Y-124092917D01*
X192574286Y-124315986D01*
X192604430Y-124544949D01*
X192604430Y-124775887D01*
X192574286Y-125004850D01*
X192514515Y-125227919D01*
X192426139Y-125441279D01*
X192310670Y-125641277D01*
X192170083Y-125824493D01*
X192006785Y-125987791D01*
X191823569Y-126128378D01*
X191623571Y-126243847D01*
X191410211Y-126332223D01*
X191187142Y-126391994D01*
X190958179Y-126422138D01*
X190727241Y-126422138D01*
X190498278Y-126391994D01*
X190275209Y-126332223D01*
X190061849Y-126243847D01*
X189861851Y-126128378D01*
X189678635Y-125987791D01*
X189515337Y-125824493D01*
X189374750Y-125641277D01*
X189259281Y-125441279D01*
X189170905Y-125227919D01*
X189111134Y-125004850D01*
X189080990Y-124775887D01*
X189080990Y-124544949D01*
X189111134Y-124315986D01*
X189170905Y-124092917D01*
X189259281Y-123879557D01*
X189374750Y-123679559D01*
X189515337Y-123496343D01*
X189678635Y-123333045D01*
X189861851Y-123192458D01*
X190061849Y-123076989D01*
X190275209Y-122988613D01*
X190498278Y-122928842D01*
X190727241Y-122898698D01*
X190958179Y-122898698D01*
X191187142Y-122928842D01*
G37*
G36*
X212976992Y-122332880D02*
G01*
X212993537Y-122343936D01*
X214832015Y-124182414D01*
X214843071Y-124198959D01*
X214846952Y-124218476D01*
X214843071Y-124237993D01*
X214832015Y-124254538D01*
X212993537Y-126093016D01*
X212976992Y-126104072D01*
X212957475Y-126107953D01*
X212937958Y-126104072D01*
X212921413Y-126093016D01*
X211082935Y-124254538D01*
X211071879Y-124237993D01*
X211067998Y-124218476D01*
X211071879Y-124198959D01*
X211082935Y-124182414D01*
X212386979Y-122878370D01*
X212912708Y-122352640D01*
X212912711Y-122352637D01*
X212921413Y-122343936D01*
X212937958Y-122332880D01*
X212957475Y-122328999D01*
X212976992Y-122332880D01*
G37*
G36*
X221116697Y-123241015D02*
G01*
X221279879Y-123308607D01*
X221426739Y-123406736D01*
X221551633Y-123531630D01*
X221649762Y-123678490D01*
X221717354Y-123841672D01*
X221751812Y-124014905D01*
X221751812Y-124191531D01*
X221717354Y-124364764D01*
X221649762Y-124527946D01*
X221551633Y-124674806D01*
X221426739Y-124799700D01*
X221279879Y-124897829D01*
X221116697Y-124965421D01*
X220943464Y-124999879D01*
X220766838Y-124999879D01*
X220593605Y-124965421D01*
X220430423Y-124897829D01*
X220283563Y-124799700D01*
X220158669Y-124674806D01*
X220060540Y-124527946D01*
X219992948Y-124364764D01*
X219958490Y-124191531D01*
X219958490Y-124014905D01*
X219992948Y-123841672D01*
X220060540Y-123678490D01*
X220158669Y-123531630D01*
X220283563Y-123406736D01*
X220430423Y-123308607D01*
X220593605Y-123241015D01*
X220766838Y-123206557D01*
X220943464Y-123206557D01*
X221116697Y-123241015D01*
G37*
G36*
X219320646Y-121444964D02*
G01*
X219483828Y-121512556D01*
X219630688Y-121610685D01*
X219755582Y-121735579D01*
X219853711Y-121882439D01*
X219921303Y-122045621D01*
X219955761Y-122218854D01*
X219955761Y-122395480D01*
X219921303Y-122568713D01*
X219853711Y-122731895D01*
X219755582Y-122878755D01*
X219630688Y-123003649D01*
X219483828Y-123101778D01*
X219320646Y-123169370D01*
X219147413Y-123203828D01*
X218970787Y-123203828D01*
X218797554Y-123169370D01*
X218634372Y-123101778D01*
X218487512Y-123003649D01*
X218362618Y-122878755D01*
X218264489Y-122731895D01*
X218196897Y-122568713D01*
X218162439Y-122395480D01*
X218162439Y-122218854D01*
X218196897Y-122045621D01*
X218264489Y-121882439D01*
X218362618Y-121735579D01*
X218487512Y-121610685D01*
X218634372Y-121512556D01*
X218797554Y-121444964D01*
X218970787Y-121410506D01*
X219147413Y-121410506D01*
X219320646Y-121444964D01*
G37*
G36*
X195160477Y-118906914D02*
G01*
X195171685Y-118906914D01*
X195226883Y-118915656D01*
X195352529Y-118932198D01*
X195383184Y-118940412D01*
X195412069Y-118944987D01*
X195467615Y-118963035D01*
X195548462Y-118984698D01*
X195600045Y-119006064D01*
X195643537Y-119020196D01*
X195684281Y-119040956D01*
X195735865Y-119062323D01*
X195808348Y-119104171D01*
X195860390Y-119130688D01*
X195884050Y-119147878D01*
X195911534Y-119163746D01*
X196012069Y-119240889D01*
X196057289Y-119273743D01*
X196065214Y-119281668D01*
X196072461Y-119287229D01*
X196215898Y-119430666D01*
X196221458Y-119437912D01*
X196229385Y-119445839D01*
X196262242Y-119491063D01*
X196339381Y-119591593D01*
X196355247Y-119619074D01*
X196372440Y-119642738D01*
X196398959Y-119694785D01*
X196440804Y-119767262D01*
X196462168Y-119818839D01*
X196482932Y-119859591D01*
X196497065Y-119903088D01*
X196518429Y-119954665D01*
X196540088Y-120035499D01*
X196558141Y-120091059D01*
X196562716Y-120119949D01*
X196570929Y-120150598D01*
X196587469Y-120276232D01*
X196596214Y-120331443D01*
X196596214Y-120342651D01*
X196597407Y-120351713D01*
X196597407Y-120554552D01*
X196596214Y-120563613D01*
X196596214Y-120574823D01*
X196587468Y-120630038D01*
X196570929Y-120755667D01*
X196562717Y-120786313D01*
X196558141Y-120815207D01*
X196540086Y-120870771D01*
X196518429Y-120951600D01*
X196497066Y-121003172D01*
X196482932Y-121046675D01*
X196462166Y-121087430D01*
X196440804Y-121139003D01*
X196398963Y-121211471D01*
X196372440Y-121263528D01*
X196355244Y-121287195D01*
X196339381Y-121314672D01*
X196262256Y-121415183D01*
X196229385Y-121460427D01*
X196221454Y-121468357D01*
X196215898Y-121475599D01*
X196072461Y-121619036D01*
X196065219Y-121624592D01*
X196057289Y-121632523D01*
X196012045Y-121665394D01*
X195911534Y-121742519D01*
X195884057Y-121758382D01*
X195860390Y-121775578D01*
X195808333Y-121802101D01*
X195735865Y-121843942D01*
X195684292Y-121865304D01*
X195643537Y-121886070D01*
X195600034Y-121900204D01*
X195548462Y-121921567D01*
X195467633Y-121943224D01*
X195412069Y-121961279D01*
X195383175Y-121965855D01*
X195352529Y-121974067D01*
X195226897Y-121990607D01*
X195171685Y-121999352D01*
X195160476Y-121999352D01*
X195151415Y-122000545D01*
X194948575Y-122000545D01*
X194939514Y-121999352D01*
X194928305Y-121999352D01*
X194873094Y-121990607D01*
X194747460Y-121974067D01*
X194716811Y-121965854D01*
X194687921Y-121961279D01*
X194632361Y-121943226D01*
X194551527Y-121921567D01*
X194499950Y-121900203D01*
X194456453Y-121886070D01*
X194415701Y-121865306D01*
X194364124Y-121843942D01*
X194291647Y-121802097D01*
X194239600Y-121775578D01*
X194215936Y-121758385D01*
X194188455Y-121742519D01*
X194087925Y-121665380D01*
X194042701Y-121632523D01*
X194034774Y-121624596D01*
X194027528Y-121619036D01*
X193884091Y-121475599D01*
X193878530Y-121468352D01*
X193870605Y-121460427D01*
X193837751Y-121415207D01*
X193760608Y-121314672D01*
X193744740Y-121287188D01*
X193727550Y-121263528D01*
X193701033Y-121211486D01*
X193659185Y-121139003D01*
X193637818Y-121087419D01*
X193617058Y-121046675D01*
X193602926Y-121003183D01*
X193581560Y-120951600D01*
X193559897Y-120870753D01*
X193541849Y-120815207D01*
X193537274Y-120786322D01*
X193529060Y-120755667D01*
X193512519Y-120630024D01*
X193503776Y-120574823D01*
X193503776Y-120563613D01*
X193502583Y-120554552D01*
X193502583Y-120351713D01*
X193503776Y-120342651D01*
X193503776Y-120331443D01*
X193512518Y-120276246D01*
X193529060Y-120150598D01*
X193537274Y-120119940D01*
X193541849Y-120091059D01*
X193559895Y-120035516D01*
X193581560Y-119954665D01*
X193602928Y-119903077D01*
X193617058Y-119859591D01*
X193637816Y-119818850D01*
X193659185Y-119767262D01*
X193701037Y-119694770D01*
X193727550Y-119642738D01*
X193744737Y-119619081D01*
X193760608Y-119591593D01*
X193837765Y-119491039D01*
X193870605Y-119445839D01*
X193878527Y-119437916D01*
X193884091Y-119430666D01*
X194027528Y-119287229D01*
X194034778Y-119281665D01*
X194042701Y-119273743D01*
X194087901Y-119240903D01*
X194188455Y-119163746D01*
X194215943Y-119147875D01*
X194239600Y-119130688D01*
X194291632Y-119104175D01*
X194364124Y-119062323D01*
X194415712Y-119040954D01*
X194456453Y-119020196D01*
X194499939Y-119006066D01*
X194551527Y-118984698D01*
X194632378Y-118963033D01*
X194687921Y-118944987D01*
X194716802Y-118940412D01*
X194747460Y-118932198D01*
X194873108Y-118915656D01*
X194928305Y-118906914D01*
X194939513Y-118906914D01*
X194948575Y-118905721D01*
X195151415Y-118905721D01*
X195160477Y-118906914D01*
G37*
G36*
X187215431Y-119908267D02*
G01*
X187378776Y-119975926D01*
X187525782Y-120074153D01*
X187650801Y-120199172D01*
X187749028Y-120346178D01*
X187816687Y-120509523D01*
X187851180Y-120682929D01*
X187851180Y-120859733D01*
X187816687Y-121033139D01*
X187749028Y-121196484D01*
X187650801Y-121343490D01*
X187525782Y-121468509D01*
X187378776Y-121566736D01*
X187215431Y-121634395D01*
X187042025Y-121668888D01*
X186865221Y-121668888D01*
X186691815Y-121634395D01*
X186528470Y-121566736D01*
X186381464Y-121468509D01*
X186256445Y-121343490D01*
X186158218Y-121196484D01*
X186090559Y-121033139D01*
X186056066Y-120859733D01*
X186056066Y-120682929D01*
X186090559Y-120509523D01*
X186158218Y-120346178D01*
X186256445Y-120199172D01*
X186381464Y-120074153D01*
X186528470Y-119975926D01*
X186691815Y-119908267D01*
X186865221Y-119873774D01*
X187042025Y-119873774D01*
X187215431Y-119908267D01*
G37*
G36*
X217524594Y-119648912D02*
G01*
X217687776Y-119716504D01*
X217834636Y-119814633D01*
X217959530Y-119939527D01*
X218057659Y-120086387D01*
X218125251Y-120249569D01*
X218159709Y-120422802D01*
X218159709Y-120599428D01*
X218125251Y-120772661D01*
X218057659Y-120935843D01*
X217959530Y-121082703D01*
X217834636Y-121207597D01*
X217687776Y-121305726D01*
X217524594Y-121373318D01*
X217351361Y-121407776D01*
X217174735Y-121407776D01*
X217001502Y-121373318D01*
X216838320Y-121305726D01*
X216691460Y-121207597D01*
X216566566Y-121082703D01*
X216468437Y-120935843D01*
X216400845Y-120772661D01*
X216366387Y-120599428D01*
X216366387Y-120422802D01*
X216400845Y-120249569D01*
X216468437Y-120086387D01*
X216566566Y-119939527D01*
X216691460Y-119814633D01*
X216838320Y-119716504D01*
X217001502Y-119648912D01*
X217174735Y-119614454D01*
X217351361Y-119614454D01*
X217524594Y-119648912D01*
G37*
G36*
X192753738Y-116251762D02*
G01*
X192770283Y-116262818D01*
X194608761Y-118101296D01*
X194619817Y-118117841D01*
X194623698Y-118137358D01*
X194619817Y-118156875D01*
X194608761Y-118173420D01*
X192770283Y-120011898D01*
X192753738Y-120022954D01*
X192734221Y-120026835D01*
X192714704Y-120022954D01*
X192698159Y-120011898D01*
X190859681Y-118173420D01*
X190848625Y-118156875D01*
X190844744Y-118137358D01*
X190848625Y-118117841D01*
X190859681Y-118101296D01*
X191778920Y-117182057D01*
X192689454Y-116271522D01*
X192689457Y-116271519D01*
X192698159Y-116262818D01*
X192714704Y-116251762D01*
X192734221Y-116247881D01*
X192753738Y-116251762D01*
G37*
G36*
X189723771Y-93753688D02*
G01*
X189740316Y-93764744D01*
X189751372Y-93781289D01*
X189755254Y-93800806D01*
X189755254Y-95500806D01*
X189751372Y-95520323D01*
X189740316Y-95536868D01*
X189723771Y-95547924D01*
X189704254Y-95551806D01*
X188004254Y-95551806D01*
X187984737Y-95547924D01*
X187968192Y-95536868D01*
X187957136Y-95520323D01*
X187953254Y-95500806D01*
X187953254Y-93800806D01*
X187957136Y-93781289D01*
X187968192Y-93764744D01*
X187984737Y-93753688D01*
X188004254Y-93749806D01*
X189704254Y-93749806D01*
X189723771Y-93753688D01*
G37*
G36*
X191655800Y-93788603D02*
G01*
X191818982Y-93856195D01*
X191965842Y-93954324D01*
X192090736Y-94079218D01*
X192188865Y-94226078D01*
X192256457Y-94389260D01*
X192290915Y-94562493D01*
X192290915Y-94739119D01*
X192256457Y-94912352D01*
X192188865Y-95075534D01*
X192090736Y-95222394D01*
X191965842Y-95347288D01*
X191818982Y-95445417D01*
X191655800Y-95513009D01*
X191482567Y-95547467D01*
X191305941Y-95547467D01*
X191132708Y-95513009D01*
X190969526Y-95445417D01*
X190822666Y-95347288D01*
X190697772Y-95222394D01*
X190599643Y-95075534D01*
X190532051Y-94912352D01*
X190497593Y-94739119D01*
X190497593Y-94562493D01*
X190532051Y-94389260D01*
X190599643Y-94226078D01*
X190697772Y-94079218D01*
X190822666Y-93954324D01*
X190969526Y-93856195D01*
X191132708Y-93788603D01*
X191305941Y-93754145D01*
X191482567Y-93754145D01*
X191655800Y-93788603D01*
G37*
G36*
X194195799Y-93788603D02*
G01*
X194358981Y-93856195D01*
X194505841Y-93954324D01*
X194630735Y-94079218D01*
X194728864Y-94226078D01*
X194796456Y-94389260D01*
X194830914Y-94562493D01*
X194830914Y-94739119D01*
X194796456Y-94912352D01*
X194728864Y-95075534D01*
X194630735Y-95222394D01*
X194505841Y-95347288D01*
X194358981Y-95445417D01*
X194195799Y-95513009D01*
X194022566Y-95547467D01*
X193845940Y-95547467D01*
X193672707Y-95513009D01*
X193509525Y-95445417D01*
X193362665Y-95347288D01*
X193237771Y-95222394D01*
X193139642Y-95075534D01*
X193072050Y-94912352D01*
X193037592Y-94739119D01*
X193037592Y-94562493D01*
X193072050Y-94389260D01*
X193139642Y-94226078D01*
X193237771Y-94079218D01*
X193362665Y-93954324D01*
X193509525Y-93856195D01*
X193672707Y-93788603D01*
X193845940Y-93754145D01*
X194022566Y-93754145D01*
X194195799Y-93788603D01*
G37*
G36*
X196735800Y-93788603D02*
G01*
X196898982Y-93856195D01*
X197045842Y-93954324D01*
X197170736Y-94079218D01*
X197268865Y-94226078D01*
X197336457Y-94389260D01*
X197370915Y-94562493D01*
X197370915Y-94739119D01*
X197336457Y-94912352D01*
X197268865Y-95075534D01*
X197170736Y-95222394D01*
X197045842Y-95347288D01*
X196898982Y-95445417D01*
X196735800Y-95513009D01*
X196562567Y-95547467D01*
X196385941Y-95547467D01*
X196212708Y-95513009D01*
X196049526Y-95445417D01*
X195902666Y-95347288D01*
X195777772Y-95222394D01*
X195679643Y-95075534D01*
X195612051Y-94912352D01*
X195577593Y-94739119D01*
X195577593Y-94562493D01*
X195612051Y-94389260D01*
X195679643Y-94226078D01*
X195777772Y-94079218D01*
X195902666Y-93954324D01*
X196049526Y-93856195D01*
X196212708Y-93788603D01*
X196385941Y-93754145D01*
X196562567Y-93754145D01*
X196735800Y-93788603D01*
G37*
G36*
X257154902Y-90165885D02*
G01*
X257171447Y-90176941D01*
X258373529Y-91379023D01*
X258384585Y-91395568D01*
X258388466Y-91415085D01*
X258384585Y-91434602D01*
X258373529Y-91451147D01*
X257171447Y-92653229D01*
X257154902Y-92664285D01*
X257135385Y-92668166D01*
X257115868Y-92664285D01*
X257099323Y-92653229D01*
X255897241Y-91451147D01*
X255886185Y-91434602D01*
X255882304Y-91415085D01*
X255886185Y-91395568D01*
X255897241Y-91379023D01*
X256761170Y-90515094D01*
X257090618Y-90185645D01*
X257090621Y-90185642D01*
X257099323Y-90176941D01*
X257115868Y-90165885D01*
X257135385Y-90162004D01*
X257154902Y-90165885D01*
G37*
G36*
X255600880Y-88756831D02*
G01*
X255764062Y-88824423D01*
X255910922Y-88922552D01*
X256035816Y-89047446D01*
X256133945Y-89194306D01*
X256201537Y-89357488D01*
X256235995Y-89530721D01*
X256235995Y-89707347D01*
X256201537Y-89880580D01*
X256133945Y-90043762D01*
X256035816Y-90190622D01*
X255910922Y-90315516D01*
X255764062Y-90413645D01*
X255600880Y-90481237D01*
X255427647Y-90515695D01*
X255251021Y-90515695D01*
X255077788Y-90481237D01*
X254914606Y-90413645D01*
X254767746Y-90315516D01*
X254642852Y-90190622D01*
X254544723Y-90043762D01*
X254477131Y-89880580D01*
X254442673Y-89707347D01*
X254442673Y-89530721D01*
X254477131Y-89357488D01*
X254544723Y-89194306D01*
X254642852Y-89047446D01*
X254767746Y-88922552D01*
X254914606Y-88824423D01*
X255077788Y-88756831D01*
X255251021Y-88722373D01*
X255427647Y-88722373D01*
X255600880Y-88756831D01*
G37*
G36*
X253804829Y-86960780D02*
G01*
X253968011Y-87028372D01*
X254114871Y-87126501D01*
X254239765Y-87251395D01*
X254337894Y-87398255D01*
X254405486Y-87561437D01*
X254439944Y-87734670D01*
X254439944Y-87911296D01*
X254405486Y-88084529D01*
X254337894Y-88247711D01*
X254239765Y-88394571D01*
X254114871Y-88519465D01*
X253968011Y-88617594D01*
X253804829Y-88685186D01*
X253631596Y-88719644D01*
X253454970Y-88719644D01*
X253281737Y-88685186D01*
X253118555Y-88617594D01*
X252971695Y-88519465D01*
X252846801Y-88394571D01*
X252748672Y-88247711D01*
X252681080Y-88084529D01*
X252646622Y-87911296D01*
X252646622Y-87734670D01*
X252681080Y-87561437D01*
X252748672Y-87398255D01*
X252846801Y-87251395D01*
X252971695Y-87126501D01*
X253118555Y-87028372D01*
X253281737Y-86960780D01*
X253454970Y-86926322D01*
X253631596Y-86926322D01*
X253804829Y-86960780D01*
G37*
G36*
X260105659Y-84467312D02*
G01*
X260122204Y-84478368D01*
X261960682Y-86316846D01*
X261971738Y-86333391D01*
X261975619Y-86352908D01*
X261971738Y-86372425D01*
X261960682Y-86388970D01*
X260122204Y-88227448D01*
X260105659Y-88238504D01*
X260086142Y-88242385D01*
X260066625Y-88238504D01*
X260050080Y-88227448D01*
X258211602Y-86388970D01*
X258200546Y-86372425D01*
X258196665Y-86352908D01*
X258200546Y-86333391D01*
X258211602Y-86316846D01*
X259484021Y-85044427D01*
X260041375Y-84487072D01*
X260041378Y-84487069D01*
X260050080Y-84478368D01*
X260066625Y-84467312D01*
X260086142Y-84463431D01*
X260105659Y-84467312D01*
G37*
G36*
X252008777Y-85164728D02*
G01*
X252171959Y-85232320D01*
X252318819Y-85330449D01*
X252443713Y-85455343D01*
X252541842Y-85602203D01*
X252609434Y-85765385D01*
X252643892Y-85938618D01*
X252643892Y-86115244D01*
X252609434Y-86288477D01*
X252541842Y-86451659D01*
X252443713Y-86598519D01*
X252318819Y-86723413D01*
X252171959Y-86821542D01*
X252008777Y-86889134D01*
X251835544Y-86923592D01*
X251658918Y-86923592D01*
X251485685Y-86889134D01*
X251322503Y-86821542D01*
X251175643Y-86723413D01*
X251050749Y-86598519D01*
X250952620Y-86451659D01*
X250885028Y-86288477D01*
X250850570Y-86115244D01*
X250850570Y-85938618D01*
X250885028Y-85765385D01*
X250952620Y-85602203D01*
X251050749Y-85455343D01*
X251175643Y-85330449D01*
X251322503Y-85232320D01*
X251485685Y-85164728D01*
X251658918Y-85130270D01*
X251835544Y-85130270D01*
X252008777Y-85164728D01*
G37*
G36*
X257880850Y-82490914D02*
G01*
X257892058Y-82490914D01*
X257947256Y-82499656D01*
X258072902Y-82516198D01*
X258103557Y-82524412D01*
X258132442Y-82528987D01*
X258187988Y-82547035D01*
X258268835Y-82568698D01*
X258320418Y-82590064D01*
X258363910Y-82604196D01*
X258404654Y-82624956D01*
X258456238Y-82646323D01*
X258528721Y-82688171D01*
X258580763Y-82714688D01*
X258604423Y-82731878D01*
X258631907Y-82747746D01*
X258732442Y-82824889D01*
X258777662Y-82857743D01*
X258785587Y-82865668D01*
X258792834Y-82871229D01*
X258936271Y-83014666D01*
X258941831Y-83021912D01*
X258949758Y-83029839D01*
X258982615Y-83075063D01*
X259059754Y-83175593D01*
X259075620Y-83203074D01*
X259092813Y-83226738D01*
X259119332Y-83278785D01*
X259161177Y-83351262D01*
X259182541Y-83402839D01*
X259203305Y-83443591D01*
X259217438Y-83487088D01*
X259238802Y-83538665D01*
X259260461Y-83619499D01*
X259278514Y-83675059D01*
X259283089Y-83703949D01*
X259291302Y-83734598D01*
X259307842Y-83860232D01*
X259316587Y-83915443D01*
X259316587Y-83926651D01*
X259317780Y-83935713D01*
X259317780Y-84138552D01*
X259316587Y-84147613D01*
X259316587Y-84158823D01*
X259307841Y-84214038D01*
X259291302Y-84339667D01*
X259283090Y-84370313D01*
X259278514Y-84399207D01*
X259260459Y-84454771D01*
X259238802Y-84535600D01*
X259217439Y-84587172D01*
X259203305Y-84630675D01*
X259182539Y-84671430D01*
X259161177Y-84723003D01*
X259119336Y-84795471D01*
X259092813Y-84847528D01*
X259075617Y-84871195D01*
X259059754Y-84898672D01*
X258982629Y-84999183D01*
X258949758Y-85044427D01*
X258941827Y-85052357D01*
X258936271Y-85059599D01*
X258792834Y-85203036D01*
X258785592Y-85208592D01*
X258777662Y-85216523D01*
X258732418Y-85249394D01*
X258631907Y-85326519D01*
X258604430Y-85342382D01*
X258580763Y-85359578D01*
X258528706Y-85386101D01*
X258456238Y-85427942D01*
X258404665Y-85449304D01*
X258363910Y-85470070D01*
X258320407Y-85484204D01*
X258268835Y-85505567D01*
X258188006Y-85527224D01*
X258132442Y-85545279D01*
X258103548Y-85549855D01*
X258072902Y-85558067D01*
X257947270Y-85574607D01*
X257892058Y-85583352D01*
X257880849Y-85583352D01*
X257871788Y-85584545D01*
X257668948Y-85584545D01*
X257659887Y-85583352D01*
X257648678Y-85583352D01*
X257593467Y-85574607D01*
X257467833Y-85558067D01*
X257437184Y-85549854D01*
X257408294Y-85545279D01*
X257352734Y-85527226D01*
X257271900Y-85505567D01*
X257220323Y-85484203D01*
X257176826Y-85470070D01*
X257136074Y-85449306D01*
X257084497Y-85427942D01*
X257012020Y-85386097D01*
X256959973Y-85359578D01*
X256936309Y-85342385D01*
X256908828Y-85326519D01*
X256808298Y-85249380D01*
X256763074Y-85216523D01*
X256755147Y-85208596D01*
X256747901Y-85203036D01*
X256604464Y-85059599D01*
X256598903Y-85052352D01*
X256590978Y-85044427D01*
X256558124Y-84999207D01*
X256480981Y-84898672D01*
X256465113Y-84871188D01*
X256447923Y-84847528D01*
X256421406Y-84795486D01*
X256379558Y-84723003D01*
X256358191Y-84671419D01*
X256337431Y-84630675D01*
X256323299Y-84587183D01*
X256301933Y-84535600D01*
X256280270Y-84454753D01*
X256262222Y-84399207D01*
X256257647Y-84370322D01*
X256249433Y-84339667D01*
X256232892Y-84214024D01*
X256224149Y-84158823D01*
X256224149Y-84147613D01*
X256222956Y-84138552D01*
X256222956Y-83935713D01*
X256224149Y-83926651D01*
X256224149Y-83915443D01*
X256232891Y-83860246D01*
X256249433Y-83734598D01*
X256257647Y-83703940D01*
X256262222Y-83675059D01*
X256280268Y-83619516D01*
X256301933Y-83538665D01*
X256323301Y-83487077D01*
X256337431Y-83443591D01*
X256358189Y-83402850D01*
X256379558Y-83351262D01*
X256421410Y-83278770D01*
X256447923Y-83226738D01*
X256465110Y-83203081D01*
X256480981Y-83175593D01*
X256558138Y-83075039D01*
X256590978Y-83029839D01*
X256598900Y-83021916D01*
X256604464Y-83014666D01*
X256747901Y-82871229D01*
X256755151Y-82865665D01*
X256763074Y-82857743D01*
X256808274Y-82824903D01*
X256908828Y-82747746D01*
X256936316Y-82731875D01*
X256959973Y-82714688D01*
X257012005Y-82688175D01*
X257084497Y-82646323D01*
X257136085Y-82624954D01*
X257176826Y-82604196D01*
X257220312Y-82590066D01*
X257271900Y-82568698D01*
X257352751Y-82547033D01*
X257408294Y-82528987D01*
X257437175Y-82524412D01*
X257467833Y-82516198D01*
X257593481Y-82499656D01*
X257648678Y-82490914D01*
X257659886Y-82490914D01*
X257668948Y-82489721D01*
X257871788Y-82489721D01*
X257880850Y-82490914D01*
G37*
G36*
X266128548Y-82855871D02*
G01*
X266291893Y-82923530D01*
X266438899Y-83021757D01*
X266563918Y-83146776D01*
X266662145Y-83293782D01*
X266729804Y-83457127D01*
X266764297Y-83630533D01*
X266764297Y-83807337D01*
X266729804Y-83980743D01*
X266662145Y-84144088D01*
X266563918Y-84291094D01*
X266438899Y-84416113D01*
X266291893Y-84514340D01*
X266128548Y-84581999D01*
X265955142Y-84616492D01*
X265778338Y-84616492D01*
X265604932Y-84581999D01*
X265441587Y-84514340D01*
X265294581Y-84416113D01*
X265169562Y-84291094D01*
X265071335Y-84144088D01*
X265003676Y-83980743D01*
X264969183Y-83807337D01*
X264969183Y-83630533D01*
X265003676Y-83457127D01*
X265071335Y-83293782D01*
X265169562Y-83146776D01*
X265294581Y-83021757D01*
X265441587Y-82923530D01*
X265604932Y-82855871D01*
X265778338Y-82821378D01*
X265955142Y-82821378D01*
X266128548Y-82855871D01*
G37*
G36*
X262322085Y-78098272D02*
G01*
X262545154Y-78158043D01*
X262758514Y-78246419D01*
X262958512Y-78361888D01*
X263141728Y-78502475D01*
X263305026Y-78665773D01*
X263445613Y-78848989D01*
X263561082Y-79048987D01*
X263649458Y-79262347D01*
X263709229Y-79485416D01*
X263739373Y-79714379D01*
X263739373Y-79945317D01*
X263709229Y-80174280D01*
X263649458Y-80397349D01*
X263561082Y-80610709D01*
X263445613Y-80810707D01*
X263305026Y-80993923D01*
X263141728Y-81157221D01*
X262958512Y-81297808D01*
X262758514Y-81413277D01*
X262545154Y-81501653D01*
X262322085Y-81561424D01*
X262093122Y-81591568D01*
X261862184Y-81591568D01*
X261633221Y-81561424D01*
X261410152Y-81501653D01*
X261196792Y-81413277D01*
X260996794Y-81297808D01*
X260813578Y-81157221D01*
X260650280Y-80993923D01*
X260509693Y-80810707D01*
X260394224Y-80610709D01*
X260305848Y-80397349D01*
X260246077Y-80174280D01*
X260215933Y-79945317D01*
X260215933Y-79714379D01*
X260246077Y-79485416D01*
X260305848Y-79262347D01*
X260394224Y-79048987D01*
X260509693Y-78848989D01*
X260650280Y-78665773D01*
X260813578Y-78502475D01*
X260996794Y-78361888D01*
X261196792Y-78246419D01*
X261410152Y-78158043D01*
X261633221Y-78098272D01*
X261862184Y-78068128D01*
X262093122Y-78068128D01*
X262322085Y-78098272D01*
G37*
G36*
X255900951Y-77399746D02*
G01*
X255912159Y-77399746D01*
X255967357Y-77408488D01*
X256093003Y-77425030D01*
X256123658Y-77433244D01*
X256152543Y-77437819D01*
X256208089Y-77455867D01*
X256288936Y-77477530D01*
X256340519Y-77498896D01*
X256384011Y-77513028D01*
X256424755Y-77533788D01*
X256476339Y-77555155D01*
X256548822Y-77597003D01*
X256600864Y-77623520D01*
X256624524Y-77640710D01*
X256652008Y-77656578D01*
X256752543Y-77733721D01*
X256797763Y-77766575D01*
X256805688Y-77774500D01*
X256812935Y-77780061D01*
X256956372Y-77923498D01*
X256961932Y-77930744D01*
X256969859Y-77938671D01*
X257002716Y-77983895D01*
X257079855Y-78084425D01*
X257095721Y-78111906D01*
X257112914Y-78135570D01*
X257139433Y-78187617D01*
X257181278Y-78260094D01*
X257202642Y-78311671D01*
X257223406Y-78352423D01*
X257237539Y-78395920D01*
X257258903Y-78447497D01*
X257280562Y-78528331D01*
X257298615Y-78583891D01*
X257303190Y-78612781D01*
X257311403Y-78643430D01*
X257327943Y-78769064D01*
X257336688Y-78824275D01*
X257336688Y-78835483D01*
X257337881Y-78844545D01*
X257337881Y-79047384D01*
X257336688Y-79056445D01*
X257336688Y-79067655D01*
X257327942Y-79122870D01*
X257311403Y-79248499D01*
X257303191Y-79279145D01*
X257298615Y-79308039D01*
X257280560Y-79363603D01*
X257258903Y-79444432D01*
X257237540Y-79496004D01*
X257223406Y-79539507D01*
X257202640Y-79580262D01*
X257181278Y-79631835D01*
X257139437Y-79704303D01*
X257112914Y-79756360D01*
X257095718Y-79780027D01*
X257079855Y-79807504D01*
X257002730Y-79908015D01*
X256969859Y-79953259D01*
X256961928Y-79961189D01*
X256956372Y-79968431D01*
X256812935Y-80111868D01*
X256805693Y-80117424D01*
X256797763Y-80125355D01*
X256752519Y-80158226D01*
X256652008Y-80235351D01*
X256624531Y-80251214D01*
X256600864Y-80268410D01*
X256548807Y-80294933D01*
X256476339Y-80336774D01*
X256424766Y-80358136D01*
X256384011Y-80378902D01*
X256340508Y-80393036D01*
X256288936Y-80414399D01*
X256208107Y-80436056D01*
X256152543Y-80454111D01*
X256123649Y-80458687D01*
X256093003Y-80466899D01*
X255967371Y-80483439D01*
X255912159Y-80492184D01*
X255900950Y-80492184D01*
X255891889Y-80493377D01*
X255689049Y-80493377D01*
X255679988Y-80492184D01*
X255668779Y-80492184D01*
X255613568Y-80483439D01*
X255487934Y-80466899D01*
X255457285Y-80458686D01*
X255428395Y-80454111D01*
X255372835Y-80436058D01*
X255292001Y-80414399D01*
X255240424Y-80393035D01*
X255196927Y-80378902D01*
X255156175Y-80358138D01*
X255104598Y-80336774D01*
X255032121Y-80294929D01*
X254980074Y-80268410D01*
X254956410Y-80251217D01*
X254928929Y-80235351D01*
X254828399Y-80158212D01*
X254783175Y-80125355D01*
X254775248Y-80117428D01*
X254768002Y-80111868D01*
X254624565Y-79968431D01*
X254619004Y-79961184D01*
X254611079Y-79953259D01*
X254578225Y-79908039D01*
X254501082Y-79807504D01*
X254485214Y-79780020D01*
X254468024Y-79756360D01*
X254441507Y-79704318D01*
X254399659Y-79631835D01*
X254378292Y-79580251D01*
X254357532Y-79539507D01*
X254343400Y-79496015D01*
X254322034Y-79444432D01*
X254300371Y-79363585D01*
X254282323Y-79308039D01*
X254277748Y-79279154D01*
X254269534Y-79248499D01*
X254252993Y-79122856D01*
X254244250Y-79067655D01*
X254244250Y-79056445D01*
X254243057Y-79047384D01*
X254243057Y-78844545D01*
X254244250Y-78835483D01*
X254244250Y-78824275D01*
X254252992Y-78769078D01*
X254269534Y-78643430D01*
X254277748Y-78612772D01*
X254282323Y-78583891D01*
X254300369Y-78528348D01*
X254322034Y-78447497D01*
X254343402Y-78395909D01*
X254357532Y-78352423D01*
X254378290Y-78311682D01*
X254399659Y-78260094D01*
X254441511Y-78187602D01*
X254468024Y-78135570D01*
X254485211Y-78111913D01*
X254501082Y-78084425D01*
X254578239Y-77983871D01*
X254611079Y-77938671D01*
X254619001Y-77930748D01*
X254624565Y-77923498D01*
X254768002Y-77780061D01*
X254775252Y-77774497D01*
X254783175Y-77766575D01*
X254828375Y-77733735D01*
X254928929Y-77656578D01*
X254956417Y-77640707D01*
X254980074Y-77623520D01*
X255032106Y-77597007D01*
X255104598Y-77555155D01*
X255156186Y-77533786D01*
X255196927Y-77513028D01*
X255240413Y-77498898D01*
X255292001Y-77477530D01*
X255372852Y-77455865D01*
X255428395Y-77437819D01*
X255457276Y-77433244D01*
X255487934Y-77425030D01*
X255613582Y-77408488D01*
X255668779Y-77399746D01*
X255679987Y-77399746D01*
X255689049Y-77398553D01*
X255891889Y-77398553D01*
X255900951Y-77399746D01*
G37*
G36*
X253494211Y-74744594D02*
G01*
X253510756Y-74755650D01*
X255349234Y-76594128D01*
X255360290Y-76610673D01*
X255364171Y-76630190D01*
X255360290Y-76649707D01*
X255349234Y-76666252D01*
X253510756Y-78504730D01*
X253494211Y-78515786D01*
X253474694Y-78519667D01*
X253455177Y-78515786D01*
X253438632Y-78504730D01*
X251600154Y-76666252D01*
X251589098Y-76649707D01*
X251585217Y-76630190D01*
X251589098Y-76610673D01*
X251600154Y-76594128D01*
X252950699Y-75243583D01*
X253429927Y-74764354D01*
X253429930Y-74764351D01*
X253438632Y-74755650D01*
X253455177Y-74744594D01*
X253474694Y-74740713D01*
X253494211Y-74744594D01*
G37*
G36*
X258350374Y-75077697D02*
G01*
X258513719Y-75145356D01*
X258660725Y-75243583D01*
X258785744Y-75368602D01*
X258883971Y-75515608D01*
X258951630Y-75678953D01*
X258986123Y-75852359D01*
X258986123Y-76029163D01*
X258951630Y-76202569D01*
X258883971Y-76365914D01*
X258785744Y-76512920D01*
X258660725Y-76637939D01*
X258513719Y-76736166D01*
X258350374Y-76803825D01*
X258176968Y-76838318D01*
X258000164Y-76838318D01*
X257826758Y-76803825D01*
X257663413Y-76736166D01*
X257516407Y-76637939D01*
X257391388Y-76512920D01*
X257293161Y-76365914D01*
X257225502Y-76202569D01*
X257191009Y-76029163D01*
X257191009Y-75852359D01*
X257225502Y-75678953D01*
X257293161Y-75515608D01*
X257391388Y-75368602D01*
X257516407Y-75243583D01*
X257663413Y-75145356D01*
X257826758Y-75077697D01*
X258000164Y-75043204D01*
X258176968Y-75043204D01*
X258350374Y-75077697D01*
G37*
G36*
X198553218Y-64374837D02*
G01*
X198832117Y-64438494D01*
X199102135Y-64532977D01*
X199359877Y-64657099D01*
X199602100Y-64809298D01*
X199825760Y-64987661D01*
X200028043Y-65189944D01*
X200206406Y-65413604D01*
X200358605Y-65655827D01*
X200482727Y-65913569D01*
X200577210Y-66183587D01*
X200640867Y-66462486D01*
X200672897Y-66746758D01*
X200672897Y-67032830D01*
X200640867Y-67317102D01*
X200577210Y-67596001D01*
X200482727Y-67866019D01*
X200358605Y-68123761D01*
X200206406Y-68365984D01*
X200028043Y-68589644D01*
X199825760Y-68791927D01*
X199602100Y-68970290D01*
X199359877Y-69122489D01*
X199102135Y-69246611D01*
X198832117Y-69341094D01*
X198553218Y-69404751D01*
X198268946Y-69436781D01*
X197982874Y-69436781D01*
X197698602Y-69404751D01*
X197419703Y-69341094D01*
X197149685Y-69246611D01*
X196891943Y-69122489D01*
X196649720Y-68970290D01*
X196426060Y-68791927D01*
X196223777Y-68589644D01*
X196045414Y-68365984D01*
X195893215Y-68123761D01*
X195769093Y-67866019D01*
X195674610Y-67596001D01*
X195610953Y-67317102D01*
X195578923Y-67032830D01*
X195578923Y-66746758D01*
X195610953Y-66462486D01*
X195674610Y-66183587D01*
X195769093Y-65913569D01*
X195893215Y-65655827D01*
X196045414Y-65413604D01*
X196223777Y-65189944D01*
X196426060Y-64987661D01*
X196649720Y-64809298D01*
X196891943Y-64657099D01*
X197149685Y-64532977D01*
X197419703Y-64438494D01*
X197698602Y-64374837D01*
X197982874Y-64342807D01*
X198268946Y-64342807D01*
X198553218Y-64374837D01*
G37*
G36*
X254024540Y-64244058D02*
G01*
X254041085Y-64255114D01*
X255879563Y-66093592D01*
X255890619Y-66110137D01*
X255894500Y-66129654D01*
X255890619Y-66149171D01*
X255879563Y-66165716D01*
X254041085Y-68004194D01*
X254024540Y-68015250D01*
X254005023Y-68019131D01*
X253985506Y-68015250D01*
X253968961Y-68004194D01*
X252130483Y-66165716D01*
X252119427Y-66149171D01*
X252115546Y-66129654D01*
X252119427Y-66110137D01*
X252130483Y-66093592D01*
X253414777Y-64809298D01*
X253960256Y-64263818D01*
X253960259Y-64263815D01*
X253968961Y-64255114D01*
X253985506Y-64244058D01*
X254005023Y-64240177D01*
X254024540Y-64244058D01*
G37*
G36*
X226141397Y-64383005D02*
G01*
X226304579Y-64450597D01*
X226451439Y-64548726D01*
X226576333Y-64673620D01*
X226674462Y-64820480D01*
X226742054Y-64983662D01*
X226776512Y-65156895D01*
X226776512Y-65333521D01*
X226742054Y-65506754D01*
X226674462Y-65669936D01*
X226576333Y-65816796D01*
X226451439Y-65941690D01*
X226304579Y-66039819D01*
X226141397Y-66107411D01*
X225968164Y-66141869D01*
X225791538Y-66141869D01*
X225618305Y-66107411D01*
X225455123Y-66039819D01*
X225308263Y-65941690D01*
X225183369Y-65816796D01*
X225085240Y-65669936D01*
X225017648Y-65506754D01*
X224983190Y-65333521D01*
X224983190Y-65156895D01*
X225017648Y-64983662D01*
X225085240Y-64820480D01*
X225183369Y-64673620D01*
X225308263Y-64548726D01*
X225455123Y-64450597D01*
X225618305Y-64383005D01*
X225791538Y-64348547D01*
X225968164Y-64348547D01*
X226141397Y-64383005D01*
G37*
G36*
X251799731Y-62267660D02*
G01*
X251810939Y-62267660D01*
X251866137Y-62276402D01*
X251991783Y-62292944D01*
X252022438Y-62301158D01*
X252051323Y-62305733D01*
X252106869Y-62323781D01*
X252187716Y-62345444D01*
X252239299Y-62366810D01*
X252282791Y-62380942D01*
X252323535Y-62401702D01*
X252375119Y-62423069D01*
X252447602Y-62464917D01*
X252499644Y-62491434D01*
X252523304Y-62508624D01*
X252550788Y-62524492D01*
X252651323Y-62601635D01*
X252696543Y-62634489D01*
X252704468Y-62642414D01*
X252711715Y-62647975D01*
X252855152Y-62791412D01*
X252860712Y-62798658D01*
X252868639Y-62806585D01*
X252901496Y-62851809D01*
X252978635Y-62952339D01*
X252994501Y-62979820D01*
X253011694Y-63003484D01*
X253038213Y-63055531D01*
X253080058Y-63128008D01*
X253101422Y-63179585D01*
X253122186Y-63220337D01*
X253136319Y-63263834D01*
X253157683Y-63315411D01*
X253179342Y-63396245D01*
X253197395Y-63451805D01*
X253201970Y-63480695D01*
X253210183Y-63511344D01*
X253226723Y-63636978D01*
X253235468Y-63692189D01*
X253235468Y-63703397D01*
X253236661Y-63712459D01*
X253236661Y-63915298D01*
X253235468Y-63924359D01*
X253235468Y-63935569D01*
X253226722Y-63990784D01*
X253210183Y-64116413D01*
X253201971Y-64147059D01*
X253197395Y-64175953D01*
X253179340Y-64231517D01*
X253157683Y-64312346D01*
X253136320Y-64363918D01*
X253122186Y-64407421D01*
X253101420Y-64448176D01*
X253080058Y-64499749D01*
X253038217Y-64572217D01*
X253011694Y-64624274D01*
X252994498Y-64647941D01*
X252978635Y-64675418D01*
X252901510Y-64775929D01*
X252868639Y-64821173D01*
X252860708Y-64829103D01*
X252855152Y-64836345D01*
X252711715Y-64979782D01*
X252704473Y-64985338D01*
X252696543Y-64993269D01*
X252651299Y-65026140D01*
X252550788Y-65103265D01*
X252523311Y-65119128D01*
X252499644Y-65136324D01*
X252447587Y-65162847D01*
X252375119Y-65204688D01*
X252323546Y-65226050D01*
X252282791Y-65246816D01*
X252239288Y-65260950D01*
X252187716Y-65282313D01*
X252106887Y-65303970D01*
X252051323Y-65322025D01*
X252022429Y-65326601D01*
X251991783Y-65334813D01*
X251866151Y-65351353D01*
X251810939Y-65360098D01*
X251799730Y-65360098D01*
X251790669Y-65361291D01*
X251587829Y-65361291D01*
X251578768Y-65360098D01*
X251567559Y-65360098D01*
X251512348Y-65351353D01*
X251386714Y-65334813D01*
X251356065Y-65326600D01*
X251327175Y-65322025D01*
X251271615Y-65303972D01*
X251190781Y-65282313D01*
X251139204Y-65260949D01*
X251095707Y-65246816D01*
X251054955Y-65226052D01*
X251003378Y-65204688D01*
X250930901Y-65162843D01*
X250878854Y-65136324D01*
X250855190Y-65119131D01*
X250827709Y-65103265D01*
X250727179Y-65026126D01*
X250681955Y-64993269D01*
X250674028Y-64985342D01*
X250666782Y-64979782D01*
X250523345Y-64836345D01*
X250517784Y-64829098D01*
X250509859Y-64821173D01*
X250477005Y-64775953D01*
X250399862Y-64675418D01*
X250383994Y-64647934D01*
X250366804Y-64624274D01*
X250340287Y-64572232D01*
X250298439Y-64499749D01*
X250277072Y-64448165D01*
X250256312Y-64407421D01*
X250242180Y-64363929D01*
X250220814Y-64312346D01*
X250199151Y-64231499D01*
X250181103Y-64175953D01*
X250176528Y-64147068D01*
X250168314Y-64116413D01*
X250151773Y-63990770D01*
X250143030Y-63935569D01*
X250143030Y-63924359D01*
X250141837Y-63915298D01*
X250141837Y-63712459D01*
X250143030Y-63703397D01*
X250143030Y-63692189D01*
X250151772Y-63636992D01*
X250168314Y-63511344D01*
X250176528Y-63480686D01*
X250181103Y-63451805D01*
X250199149Y-63396262D01*
X250220814Y-63315411D01*
X250242182Y-63263823D01*
X250256312Y-63220337D01*
X250277070Y-63179596D01*
X250298439Y-63128008D01*
X250340291Y-63055516D01*
X250366804Y-63003484D01*
X250383991Y-62979827D01*
X250399862Y-62952339D01*
X250477019Y-62851785D01*
X250509859Y-62806585D01*
X250517781Y-62798662D01*
X250523345Y-62791412D01*
X250666782Y-62647975D01*
X250674032Y-62642411D01*
X250681955Y-62634489D01*
X250727155Y-62601649D01*
X250827709Y-62524492D01*
X250855197Y-62508621D01*
X250878854Y-62491434D01*
X250930886Y-62464921D01*
X251003378Y-62423069D01*
X251054966Y-62401700D01*
X251095707Y-62380942D01*
X251139193Y-62366812D01*
X251190781Y-62345444D01*
X251271632Y-62323779D01*
X251327175Y-62305733D01*
X251356056Y-62301158D01*
X251386714Y-62292944D01*
X251512362Y-62276402D01*
X251567559Y-62267660D01*
X251578767Y-62267660D01*
X251587829Y-62266467D01*
X251790669Y-62266467D01*
X251799731Y-62267660D01*
G37*
G36*
X260047429Y-62632617D02*
G01*
X260210774Y-62700276D01*
X260357780Y-62798503D01*
X260482799Y-62923522D01*
X260581026Y-63070528D01*
X260648685Y-63233873D01*
X260683178Y-63407279D01*
X260683178Y-63584083D01*
X260648685Y-63757489D01*
X260581026Y-63920834D01*
X260482799Y-64067840D01*
X260357780Y-64192859D01*
X260210774Y-64291086D01*
X260047429Y-64358745D01*
X259874023Y-64393238D01*
X259697219Y-64393238D01*
X259523813Y-64358745D01*
X259360468Y-64291086D01*
X259213462Y-64192859D01*
X259088443Y-64067840D01*
X258990216Y-63920834D01*
X258922557Y-63757489D01*
X258888064Y-63584083D01*
X258888064Y-63407279D01*
X258922557Y-63233873D01*
X258990216Y-63070528D01*
X259088443Y-62923522D01*
X259213462Y-62798503D01*
X259360468Y-62700276D01*
X259523813Y-62632617D01*
X259697219Y-62598124D01*
X259874023Y-62598124D01*
X260047429Y-62632617D01*
G37*
G36*
X226141397Y-61843004D02*
G01*
X226304579Y-61910596D01*
X226451439Y-62008725D01*
X226576333Y-62133619D01*
X226674462Y-62280479D01*
X226742054Y-62443661D01*
X226776512Y-62616894D01*
X226776512Y-62793520D01*
X226742054Y-62966753D01*
X226674462Y-63129935D01*
X226576333Y-63276795D01*
X226451439Y-63401689D01*
X226304579Y-63499818D01*
X226141397Y-63567410D01*
X225968164Y-63601868D01*
X225791538Y-63601868D01*
X225618305Y-63567410D01*
X225455123Y-63499818D01*
X225308263Y-63401689D01*
X225183369Y-63276795D01*
X225085240Y-63129935D01*
X225017648Y-62966753D01*
X224983190Y-62793520D01*
X224983190Y-62616894D01*
X225017648Y-62443661D01*
X225085240Y-62280479D01*
X225183369Y-62133619D01*
X225308263Y-62008725D01*
X225455123Y-61910596D01*
X225618305Y-61843004D01*
X225791538Y-61808546D01*
X225968164Y-61808546D01*
X226141397Y-61843004D01*
G37*
G36*
X256240966Y-57875018D02*
G01*
X256464035Y-57934789D01*
X256677395Y-58023165D01*
X256877393Y-58138634D01*
X257060609Y-58279221D01*
X257223907Y-58442519D01*
X257364494Y-58625735D01*
X257479963Y-58825733D01*
X257568339Y-59039093D01*
X257628110Y-59262162D01*
X257658254Y-59491125D01*
X257658254Y-59722063D01*
X257628110Y-59951026D01*
X257568339Y-60174095D01*
X257479963Y-60387455D01*
X257364494Y-60587453D01*
X257223907Y-60770669D01*
X257060609Y-60933967D01*
X256877393Y-61074554D01*
X256677395Y-61190023D01*
X256464035Y-61278399D01*
X256240966Y-61338170D01*
X256012003Y-61368314D01*
X255781065Y-61368314D01*
X255552102Y-61338170D01*
X255329033Y-61278399D01*
X255115673Y-61190023D01*
X254915675Y-61074554D01*
X254732459Y-60933967D01*
X254569161Y-60770669D01*
X254428574Y-60587453D01*
X254313105Y-60387455D01*
X254224729Y-60174095D01*
X254164958Y-59951026D01*
X254134814Y-59722063D01*
X254134814Y-59491125D01*
X254164958Y-59262162D01*
X254224729Y-59039093D01*
X254313105Y-58825733D01*
X254428574Y-58625735D01*
X254569161Y-58442519D01*
X254732459Y-58279221D01*
X254915675Y-58138634D01*
X255115673Y-58023165D01*
X255329033Y-57934789D01*
X255552102Y-57875018D01*
X255781065Y-57844874D01*
X256012003Y-57844874D01*
X256240966Y-57875018D01*
G37*
G36*
X226141397Y-59303005D02*
G01*
X226304579Y-59370597D01*
X226451439Y-59468726D01*
X226576333Y-59593620D01*
X226674462Y-59740480D01*
X226742054Y-59903662D01*
X226776512Y-60076895D01*
X226776512Y-60253521D01*
X226742054Y-60426754D01*
X226674462Y-60589936D01*
X226576333Y-60736796D01*
X226451439Y-60861690D01*
X226304579Y-60959819D01*
X226141397Y-61027411D01*
X225968164Y-61061869D01*
X225791538Y-61061869D01*
X225618305Y-61027411D01*
X225455123Y-60959819D01*
X225308263Y-60861690D01*
X225183369Y-60736796D01*
X225085240Y-60589936D01*
X225017648Y-60426754D01*
X224983190Y-60253521D01*
X224983190Y-60076895D01*
X225017648Y-59903662D01*
X225085240Y-59740480D01*
X225183369Y-59593620D01*
X225308263Y-59468726D01*
X225455123Y-59370597D01*
X225618305Y-59303005D01*
X225791538Y-59268547D01*
X225968164Y-59268547D01*
X226141397Y-59303005D01*
G37*
G36*
X249819832Y-57176492D02*
G01*
X249831040Y-57176492D01*
X249886238Y-57185234D01*
X250011884Y-57201776D01*
X250042539Y-57209990D01*
X250071424Y-57214565D01*
X250126970Y-57232613D01*
X250207817Y-57254276D01*
X250259400Y-57275642D01*
X250302892Y-57289774D01*
X250343636Y-57310534D01*
X250395220Y-57331901D01*
X250467703Y-57373749D01*
X250519745Y-57400266D01*
X250543405Y-57417456D01*
X250570889Y-57433324D01*
X250671424Y-57510467D01*
X250716644Y-57543321D01*
X250724569Y-57551246D01*
X250731816Y-57556807D01*
X250875253Y-57700244D01*
X250880813Y-57707490D01*
X250888740Y-57715417D01*
X250921597Y-57760641D01*
X250998736Y-57861171D01*
X251014602Y-57888652D01*
X251031795Y-57912316D01*
X251058314Y-57964363D01*
X251100159Y-58036840D01*
X251121523Y-58088417D01*
X251142287Y-58129169D01*
X251156420Y-58172666D01*
X251177784Y-58224243D01*
X251199443Y-58305077D01*
X251217496Y-58360637D01*
X251222071Y-58389527D01*
X251230284Y-58420176D01*
X251246824Y-58545810D01*
X251255569Y-58601021D01*
X251255569Y-58612229D01*
X251256762Y-58621291D01*
X251256762Y-58824130D01*
X251255569Y-58833191D01*
X251255569Y-58844401D01*
X251246823Y-58899616D01*
X251230284Y-59025245D01*
X251222072Y-59055891D01*
X251217496Y-59084785D01*
X251199441Y-59140349D01*
X251177784Y-59221178D01*
X251156421Y-59272750D01*
X251142287Y-59316253D01*
X251121521Y-59357008D01*
X251100159Y-59408581D01*
X251058318Y-59481049D01*
X251031795Y-59533106D01*
X251014599Y-59556773D01*
X250998736Y-59584250D01*
X250921611Y-59684761D01*
X250888740Y-59730005D01*
X250880809Y-59737935D01*
X250875253Y-59745177D01*
X250731816Y-59888614D01*
X250724574Y-59894170D01*
X250716644Y-59902101D01*
X250671400Y-59934972D01*
X250570889Y-60012097D01*
X250543412Y-60027960D01*
X250519745Y-60045156D01*
X250467688Y-60071679D01*
X250395220Y-60113520D01*
X250343647Y-60134882D01*
X250302892Y-60155648D01*
X250259389Y-60169782D01*
X250207817Y-60191145D01*
X250126988Y-60212802D01*
X250071424Y-60230857D01*
X250042530Y-60235433D01*
X250011884Y-60243645D01*
X249886252Y-60260185D01*
X249831040Y-60268930D01*
X249819831Y-60268930D01*
X249810770Y-60270123D01*
X249607930Y-60270123D01*
X249598869Y-60268930D01*
X249587660Y-60268930D01*
X249532449Y-60260185D01*
X249406815Y-60243645D01*
X249376166Y-60235432D01*
X249347276Y-60230857D01*
X249291716Y-60212804D01*
X249210882Y-60191145D01*
X249159305Y-60169781D01*
X249115808Y-60155648D01*
X249075056Y-60134884D01*
X249023479Y-60113520D01*
X248951002Y-60071675D01*
X248898955Y-60045156D01*
X248875291Y-60027963D01*
X248847810Y-60012097D01*
X248747280Y-59934958D01*
X248702056Y-59902101D01*
X248694129Y-59894174D01*
X248686883Y-59888614D01*
X248543446Y-59745177D01*
X248537885Y-59737930D01*
X248529960Y-59730005D01*
X248497106Y-59684785D01*
X248419963Y-59584250D01*
X248404095Y-59556766D01*
X248386905Y-59533106D01*
X248360388Y-59481064D01*
X248318540Y-59408581D01*
X248297173Y-59356997D01*
X248276413Y-59316253D01*
X248262281Y-59272761D01*
X248240915Y-59221178D01*
X248219252Y-59140331D01*
X248201204Y-59084785D01*
X248196629Y-59055900D01*
X248188415Y-59025245D01*
X248171874Y-58899602D01*
X248163131Y-58844401D01*
X248163131Y-58833191D01*
X248161938Y-58824130D01*
X248161938Y-58621291D01*
X248163131Y-58612229D01*
X248163131Y-58601021D01*
X248171873Y-58545824D01*
X248188415Y-58420176D01*
X248196629Y-58389518D01*
X248201204Y-58360637D01*
X248219250Y-58305094D01*
X248240915Y-58224243D01*
X248262283Y-58172655D01*
X248276413Y-58129169D01*
X248297171Y-58088428D01*
X248318540Y-58036840D01*
X248360392Y-57964348D01*
X248386905Y-57912316D01*
X248404092Y-57888659D01*
X248419963Y-57861171D01*
X248497120Y-57760617D01*
X248529960Y-57715417D01*
X248537882Y-57707494D01*
X248543446Y-57700244D01*
X248686883Y-57556807D01*
X248694133Y-57551243D01*
X248702056Y-57543321D01*
X248747256Y-57510481D01*
X248847810Y-57433324D01*
X248875298Y-57417453D01*
X248898955Y-57400266D01*
X248950987Y-57373753D01*
X249023479Y-57331901D01*
X249075067Y-57310532D01*
X249115808Y-57289774D01*
X249159294Y-57275644D01*
X249210882Y-57254276D01*
X249291733Y-57232611D01*
X249347276Y-57214565D01*
X249376157Y-57209990D01*
X249406815Y-57201776D01*
X249532463Y-57185234D01*
X249587660Y-57176492D01*
X249598868Y-57176492D01*
X249607930Y-57175299D01*
X249810770Y-57175299D01*
X249819832Y-57176492D01*
G37*
G36*
X226749368Y-56728090D02*
G01*
X226765913Y-56739146D01*
X226776969Y-56755691D01*
X226780851Y-56775208D01*
X226780851Y-58475208D01*
X226776969Y-58494725D01*
X226765913Y-58511270D01*
X226749368Y-58522326D01*
X226729851Y-58526208D01*
X225029851Y-58526208D01*
X225010334Y-58522326D01*
X224993789Y-58511270D01*
X224982733Y-58494725D01*
X224978851Y-58475208D01*
X224978851Y-56775208D01*
X224982733Y-56755691D01*
X224993789Y-56739146D01*
X225010334Y-56728090D01*
X225029851Y-56724208D01*
X226729851Y-56724208D01*
X226749368Y-56728090D01*
G37*
G36*
X247413092Y-54521340D02*
G01*
X247429637Y-54532396D01*
X249268115Y-56370874D01*
X249279171Y-56387419D01*
X249283052Y-56406936D01*
X249279171Y-56426453D01*
X249268115Y-56442998D01*
X247429637Y-58281476D01*
X247413092Y-58292532D01*
X247393575Y-58296413D01*
X247374058Y-58292532D01*
X247357513Y-58281476D01*
X245519035Y-56442998D01*
X245507979Y-56426453D01*
X245504098Y-56406936D01*
X245507979Y-56387419D01*
X245519035Y-56370874D01*
X246869580Y-55020329D01*
X247348808Y-54541100D01*
X247348811Y-54541097D01*
X247357513Y-54532396D01*
X247374058Y-54521340D01*
X247393575Y-54517459D01*
X247413092Y-54521340D01*
G37*
G36*
X252269255Y-54854443D02*
G01*
X252432600Y-54922102D01*
X252579606Y-55020329D01*
X252704625Y-55145348D01*
X252802852Y-55292354D01*
X252870511Y-55455699D01*
X252905004Y-55629105D01*
X252905004Y-55805909D01*
X252870511Y-55979315D01*
X252802852Y-56142660D01*
X252704625Y-56289666D01*
X252579606Y-56414685D01*
X252432600Y-56512912D01*
X252269255Y-56580571D01*
X252095849Y-56615064D01*
X251919045Y-56615064D01*
X251745639Y-56580571D01*
X251582294Y-56512912D01*
X251435288Y-56414685D01*
X251310269Y-56289666D01*
X251212042Y-56142660D01*
X251144383Y-55979315D01*
X251109890Y-55805909D01*
X251109890Y-55629105D01*
X251144383Y-55455699D01*
X251212042Y-55292354D01*
X251310269Y-55145348D01*
X251435288Y-55020329D01*
X251582294Y-54922102D01*
X251745639Y-54854443D01*
X251919045Y-54819950D01*
X252095849Y-54819950D01*
X252269255Y-54854443D01*
G37*
M02*
