M48
; DRILL file {KiCad 9.0.2} date 2026-05-03T18:11:33-0400
; FORMAT={-:-/ absolute / metric / decimal}
; #@! TF.CreationDate,2026-05-03T18:11:33-04:00
; #@! TF.GenerationSoftware,Kicad,Pcbnew,9.0.2
; #@! TF.FileFunction,Plated,1,2,PTH
FMAT,2
METRIC
; #@! TA.AperFunction,Plated,PTH,ViaDrill
T1C0.400
; #@! TA.AperFunction,Plated,PTH,ComponentDrill
T2C1.000
; #@! TA.AperFunction,Plated,PTH,ComponentDrill
T3C1.194
; #@! TA.AperFunction,Plated,PTH,ComponentDrill
T4C2.500
; #@! TA.AperFunction,Plated,PTH,ComponentDrill
T5C3.500
%
G90
G05
T1
X193.543Y-86.288
X197.078Y-82.752
X197.078Y-89.824
X200.614Y-79.217
X200.614Y-86.288
X204.149Y-82.752
X207.685Y-107.501
X211.221Y-103.966
X214.756Y-100.43
X218.292Y-103.966
X221.827Y-100.43
X225.363Y-103.966
X228.898Y-107.501
X228.898Y-128.714
X232.434Y-111.037
X232.434Y-118.108
X232.434Y-125.179
X235.969Y-114.572
X235.969Y-121.643
X243.04Y-72.146
X246.576Y-68.61
X246.576Y-75.681
X246.576Y-139.321
X250.111Y-65.075
X250.111Y-72.146
X250.111Y-135.785
X250.111Y-142.857
X253.647Y-68.61
X253.647Y-132.25
X253.647Y-139.321
X257.182Y-135.785
X260.718Y-89.824
X264.254Y-86.288
X264.254Y-93.359
X267.789Y-82.752
X267.789Y-89.824
X271.325Y-86.288
T2
X203.582Y-95.799
X206.122Y-95.799
X208.662Y-95.799
X211.202Y-95.799
X231.984Y-69.931
X233.78Y-68.135
X235.576Y-66.339
X237.372Y-64.543
X240.608Y-125.204
X240.608Y-127.744
X240.608Y-130.284
X240.608Y-132.824
X266.468Y-104.415
X268.264Y-102.619
X270.06Y-100.823
X271.856Y-99.027
T3
X208.279Y-68.497
X211.871Y-72.089
X215.463Y-75.681
X221.007Y-55.769
X224.599Y-59.361
X228.191Y-62.953
X260.718Y-120.936
X264.31Y-124.528
X267.902Y-128.12
X273.446Y-108.208
X277.038Y-111.8
X280.63Y-115.392
T4
X212.847Y-123.553
T5
X217.584Y-93.359
X243.04Y-118.815
M30
