G04 #@! TF.GenerationSoftware,KiCad,Pcbnew,9.0.2*
G04 #@! TF.CreationDate,2025-09-26T14:37:57-04:00*
G04 #@! TF.ProjectId,Trackball,54726163-6b62-4616-9c6c-2e6b69636164,rev?*
G04 #@! TF.SameCoordinates,Original*
G04 #@! TF.FileFunction,Soldermask,Bot*
G04 #@! TF.FilePolarity,Negative*
%FSLAX46Y46*%
G04 Gerber Fmt 4.6, Leading zero omitted, Abs format (unit mm)*
G04 Created by KiCad (PCBNEW 9.0.2) date 2025-09-26 14:37:57*
%MOMM*%
%LPD*%
G01*
G04 APERTURE LIST*
G04 APERTURE END LIST*
G36*
X200491836Y-130477400D02*
G01*
X200655181Y-130545059D01*
X200802187Y-130643286D01*
X200927206Y-130768305D01*
X201025433Y-130915311D01*
X201093092Y-131078656D01*
X201127585Y-131252062D01*
X201127585Y-131428866D01*
X201093092Y-131602272D01*
X201025433Y-131765617D01*
X200927206Y-131912623D01*
X200802187Y-132037642D01*
X200655181Y-132135869D01*
X200491836Y-132203528D01*
X200318430Y-132238021D01*
X200141626Y-132238021D01*
X199968220Y-132203528D01*
X199804875Y-132135869D01*
X199657869Y-132037642D01*
X199532850Y-131912623D01*
X199434623Y-131765617D01*
X199366964Y-131602272D01*
X199332471Y-131428866D01*
X199332471Y-131252062D01*
X199366964Y-131078656D01*
X199434623Y-130915311D01*
X199532850Y-130768305D01*
X199657869Y-130643286D01*
X199804875Y-130545059D01*
X199968220Y-130477400D01*
X200141626Y-130442907D01*
X200318430Y-130442907D01*
X200491836Y-130477400D01*
G37*
G36*
X204083939Y-126885297D02*
G01*
X204247284Y-126952956D01*
X204394290Y-127051183D01*
X204519309Y-127176202D01*
X204617536Y-127323208D01*
X204685195Y-127486553D01*
X204719688Y-127659959D01*
X204719688Y-127836763D01*
X204685195Y-128010169D01*
X204617536Y-128173514D01*
X204519309Y-128320520D01*
X204394290Y-128445539D01*
X204247284Y-128543766D01*
X204083939Y-128611425D01*
X203910533Y-128645918D01*
X203733729Y-128645918D01*
X203560323Y-128611425D01*
X203396978Y-128543766D01*
X203249972Y-128445539D01*
X203124953Y-128320520D01*
X203026726Y-128173514D01*
X202959067Y-128010169D01*
X202924574Y-127836763D01*
X202924574Y-127659959D01*
X202959067Y-127486553D01*
X203026726Y-127323208D01*
X203124953Y-127176202D01*
X203249972Y-127051183D01*
X203396978Y-126952956D01*
X203560323Y-126885297D01*
X203733729Y-126850804D01*
X203910533Y-126850804D01*
X204083939Y-126885297D01*
G37*
G36*
X202020983Y-123479165D02*
G01*
X202028892Y-123481284D01*
X202028897Y-123481285D01*
X202139149Y-123510827D01*
X202139153Y-123510828D01*
X202147062Y-123512948D01*
X202160568Y-123518543D01*
X202167659Y-123522637D01*
X202167661Y-123522638D01*
X202266510Y-123579709D01*
X202266512Y-123579710D01*
X202273607Y-123583807D01*
X202285205Y-123592706D01*
X202290998Y-123598499D01*
X202318444Y-123625944D01*
X202330343Y-123634157D01*
X202334378Y-123635829D01*
X202687931Y-123989382D01*
X202692207Y-123999707D01*
X202714005Y-124021506D01*
X202731054Y-124038555D01*
X202739953Y-124050153D01*
X202805217Y-124163192D01*
X202810812Y-124176698D01*
X202844595Y-124302777D01*
X202846503Y-124317271D01*
X202846503Y-124447797D01*
X202844595Y-124462291D01*
X202810812Y-124588369D01*
X202805217Y-124601875D01*
X202739953Y-124714914D01*
X202731054Y-124726512D01*
X202725258Y-124732307D01*
X202725258Y-124732308D01*
X202697814Y-124759752D01*
X202689601Y-124771650D01*
X202687931Y-124775685D01*
X202299022Y-125164594D01*
X202276714Y-125173834D01*
X202274971Y-125174888D01*
X202274033Y-125174944D01*
X202259424Y-125180996D01*
X202248538Y-125176487D01*
X202237300Y-125177167D01*
X202195520Y-125195969D01*
X202155198Y-125236292D01*
X202137716Y-125268999D01*
X202132422Y-125295613D01*
X202133647Y-125301773D01*
X202129766Y-125321290D01*
X202118710Y-125337835D01*
X201411603Y-126044942D01*
X201395058Y-126055998D01*
X201375541Y-126059879D01*
X201369382Y-126058654D01*
X201342767Y-126063948D01*
X201310060Y-126081430D01*
X201267906Y-126123583D01*
X201249335Y-126172550D01*
X201254764Y-126185656D01*
X201238362Y-126225254D01*
X200849453Y-126614163D01*
X200839126Y-126618439D01*
X200806076Y-126651490D01*
X200800280Y-126657286D01*
X200788682Y-126666185D01*
X200675643Y-126731449D01*
X200662137Y-126737044D01*
X200536059Y-126770827D01*
X200521565Y-126772735D01*
X200513375Y-126772735D01*
X200399234Y-126772735D01*
X200391039Y-126772735D01*
X200376545Y-126770827D01*
X200250466Y-126737044D01*
X200236960Y-126731449D01*
X200123921Y-126666185D01*
X200112323Y-126657286D01*
X200106527Y-126651490D01*
X200079082Y-126624046D01*
X200067184Y-126615833D01*
X200063150Y-126614163D01*
X199709597Y-126260610D01*
X199705319Y-126250283D01*
X199672267Y-126217230D01*
X199666474Y-126211437D01*
X199657575Y-126199839D01*
X199642519Y-126173763D01*
X199596406Y-126093893D01*
X199596405Y-126093891D01*
X199592311Y-126086800D01*
X199586716Y-126073294D01*
X199584596Y-126065385D01*
X199584595Y-126065381D01*
X199555053Y-125955129D01*
X199555052Y-125955124D01*
X199552933Y-125947215D01*
X199551025Y-125932721D01*
X199551025Y-125802195D01*
X199552933Y-125787701D01*
X199586716Y-125661623D01*
X199592311Y-125648117D01*
X199596405Y-125641025D01*
X199596408Y-125641019D01*
X199653477Y-125542174D01*
X199653481Y-125542168D01*
X199657575Y-125535078D01*
X199666474Y-125523480D01*
X199672260Y-125517693D01*
X199672270Y-125517681D01*
X199699712Y-125490240D01*
X199707926Y-125478340D01*
X199709597Y-125474307D01*
X199712825Y-125471078D01*
X199712826Y-125471077D01*
X200087774Y-125096129D01*
X200087776Y-125096127D01*
X200098506Y-125085398D01*
X200120803Y-125076162D01*
X200122557Y-125075102D01*
X200123500Y-125075044D01*
X200138104Y-125068996D01*
X200148986Y-125073503D01*
X200160230Y-125072824D01*
X200202007Y-125054021D01*
X200242329Y-125013699D01*
X200259810Y-124980994D01*
X200265104Y-124954372D01*
X200263881Y-124948219D01*
X200267762Y-124928702D01*
X200278818Y-124912157D01*
X200751369Y-124439606D01*
X200977220Y-124213754D01*
X200977223Y-124213751D01*
X200985925Y-124205050D01*
X201002470Y-124193994D01*
X201021987Y-124190113D01*
X201028141Y-124191336D01*
X201054762Y-124186042D01*
X201087467Y-124168561D01*
X201129620Y-124126409D01*
X201148191Y-124077440D01*
X201142764Y-124064336D01*
X201159166Y-124024738D01*
X201162396Y-124021507D01*
X201162397Y-124021506D01*
X201537345Y-123646558D01*
X201537347Y-123646556D01*
X201548075Y-123635829D01*
X201558400Y-123631551D01*
X201591449Y-123598502D01*
X201591461Y-123598492D01*
X201597248Y-123592706D01*
X201608846Y-123583807D01*
X201615936Y-123579713D01*
X201615942Y-123579709D01*
X201714787Y-123522640D01*
X201714793Y-123522637D01*
X201721885Y-123518543D01*
X201735391Y-123512948D01*
X201861469Y-123479165D01*
X201875963Y-123477257D01*
X202006489Y-123477257D01*
X202020983Y-123479165D01*
G37*
G36*
X207433750Y-122905787D02*
G01*
X207450295Y-122916842D01*
X208653650Y-124120197D01*
X208664705Y-124136742D01*
X208668587Y-124156259D01*
X208664705Y-124175776D01*
X208653650Y-124192321D01*
X207450295Y-125395676D01*
X207433750Y-125406731D01*
X207414233Y-125410613D01*
X207394716Y-125406731D01*
X207378171Y-125395676D01*
X206174816Y-124192321D01*
X206163761Y-124175776D01*
X206159879Y-124156259D01*
X206163761Y-124136742D01*
X206174816Y-124120197D01*
X207378171Y-122916842D01*
X207394716Y-122905787D01*
X207414233Y-122901905D01*
X207433750Y-122905787D01*
G37*
G36*
X182107059Y-123406333D02*
G01*
X182270404Y-123473992D01*
X182417410Y-123572219D01*
X182542429Y-123697238D01*
X182640656Y-123844244D01*
X182708315Y-124007589D01*
X182742808Y-124180995D01*
X182742808Y-124357799D01*
X182708315Y-124531205D01*
X182640656Y-124694550D01*
X182542429Y-124841556D01*
X182417410Y-124966575D01*
X182270404Y-125064802D01*
X182107059Y-125132461D01*
X181933653Y-125166954D01*
X181756849Y-125166954D01*
X181583443Y-125132461D01*
X181420098Y-125064802D01*
X181273092Y-124966575D01*
X181148073Y-124841556D01*
X181049846Y-124694550D01*
X180982187Y-124531205D01*
X180947694Y-124357799D01*
X180947694Y-124180995D01*
X180982187Y-124007589D01*
X181049846Y-123844244D01*
X181148073Y-123697238D01*
X181273092Y-123572219D01*
X181420098Y-123473992D01*
X181583443Y-123406333D01*
X181756849Y-123371840D01*
X181933653Y-123371840D01*
X182107059Y-123406333D01*
G37*
G36*
X216614824Y-121317483D02*
G01*
X216631369Y-121328539D01*
X217833451Y-122530621D01*
X217844507Y-122547166D01*
X217848388Y-122566683D01*
X217844507Y-122586200D01*
X217833451Y-122602745D01*
X216631369Y-123804827D01*
X216614824Y-123815883D01*
X216595307Y-123819764D01*
X216575790Y-123815883D01*
X216559245Y-123804827D01*
X215357163Y-122602745D01*
X215346107Y-122586200D01*
X215342226Y-122566683D01*
X215346107Y-122547166D01*
X215357163Y-122530621D01*
X216221092Y-121666692D01*
X216550540Y-121337243D01*
X216550543Y-121337240D01*
X216559245Y-121328539D01*
X216575790Y-121317483D01*
X216595307Y-121313602D01*
X216614824Y-121317483D01*
G37*
G36*
X215060802Y-119908429D02*
G01*
X215223984Y-119976021D01*
X215370844Y-120074150D01*
X215495738Y-120199044D01*
X215593867Y-120345904D01*
X215661459Y-120509086D01*
X215695917Y-120682319D01*
X215695917Y-120858945D01*
X215661459Y-121032178D01*
X215593867Y-121195360D01*
X215495738Y-121342220D01*
X215370844Y-121467114D01*
X215223984Y-121565243D01*
X215060802Y-121632835D01*
X214887569Y-121667293D01*
X214710943Y-121667293D01*
X214537710Y-121632835D01*
X214374528Y-121565243D01*
X214227668Y-121467114D01*
X214102774Y-121342220D01*
X214004645Y-121195360D01*
X213937053Y-121032178D01*
X213902595Y-120858945D01*
X213902595Y-120682319D01*
X213937053Y-120509086D01*
X214004645Y-120345904D01*
X214102774Y-120199044D01*
X214227668Y-120074150D01*
X214374528Y-119976021D01*
X214537710Y-119908429D01*
X214710943Y-119873971D01*
X214887569Y-119873971D01*
X215060802Y-119908429D01*
G37*
G36*
X185699162Y-119814230D02*
G01*
X185862507Y-119881889D01*
X186009513Y-119980116D01*
X186134532Y-120105135D01*
X186232759Y-120252141D01*
X186300418Y-120415486D01*
X186334911Y-120588892D01*
X186334911Y-120765696D01*
X186300418Y-120939102D01*
X186232759Y-121102447D01*
X186134532Y-121249453D01*
X186009513Y-121374472D01*
X185862507Y-121472699D01*
X185699162Y-121540358D01*
X185525756Y-121574851D01*
X185348952Y-121574851D01*
X185175546Y-121540358D01*
X185012201Y-121472699D01*
X184865195Y-121374472D01*
X184740176Y-121249453D01*
X184641949Y-121102447D01*
X184574290Y-120939102D01*
X184539797Y-120765696D01*
X184539797Y-120588892D01*
X184574290Y-120415486D01*
X184641949Y-120252141D01*
X184740176Y-120105135D01*
X184865195Y-119980116D01*
X185012201Y-119881889D01*
X185175546Y-119814230D01*
X185348952Y-119779737D01*
X185525756Y-119779737D01*
X185699162Y-119814230D01*
G37*
G36*
X183961476Y-116733366D02*
G01*
X183969385Y-116735485D01*
X183969390Y-116735486D01*
X184079642Y-116765028D01*
X184079646Y-116765029D01*
X184087555Y-116767149D01*
X184101061Y-116772744D01*
X184108152Y-116776838D01*
X184108154Y-116776839D01*
X184207003Y-116833910D01*
X184207005Y-116833911D01*
X184214100Y-116838008D01*
X184225698Y-116846907D01*
X184231491Y-116852700D01*
X184258937Y-116880145D01*
X184270836Y-116888358D01*
X184274871Y-116890030D01*
X184628424Y-117243583D01*
X184632700Y-117253908D01*
X184654498Y-117275707D01*
X184671547Y-117292756D01*
X184680446Y-117304354D01*
X184745710Y-117417393D01*
X184751305Y-117430899D01*
X184785088Y-117556978D01*
X184786996Y-117571472D01*
X184786996Y-117701998D01*
X184785088Y-117716492D01*
X184751305Y-117842570D01*
X184745710Y-117856076D01*
X184680446Y-117969115D01*
X184671547Y-117980713D01*
X184665751Y-117986508D01*
X184665751Y-117986509D01*
X184638307Y-118013953D01*
X184630094Y-118025851D01*
X184628424Y-118029886D01*
X184239515Y-118418795D01*
X184217207Y-118428035D01*
X184215464Y-118429089D01*
X184214526Y-118429145D01*
X184199917Y-118435197D01*
X184189031Y-118430688D01*
X184177793Y-118431368D01*
X184136013Y-118450170D01*
X184095691Y-118490493D01*
X184078209Y-118523200D01*
X184072915Y-118549814D01*
X184074140Y-118555974D01*
X184070259Y-118575491D01*
X184059203Y-118592036D01*
X183352096Y-119299143D01*
X183335551Y-119310199D01*
X183316034Y-119314080D01*
X183309875Y-119312855D01*
X183283260Y-119318149D01*
X183250553Y-119335631D01*
X183208399Y-119377784D01*
X183189828Y-119426751D01*
X183195257Y-119439857D01*
X183178855Y-119479455D01*
X182789946Y-119868364D01*
X182779619Y-119872640D01*
X182746569Y-119905691D01*
X182740773Y-119911487D01*
X182729175Y-119920386D01*
X182616136Y-119985650D01*
X182602630Y-119991245D01*
X182476552Y-120025028D01*
X182462058Y-120026936D01*
X182453868Y-120026936D01*
X182339727Y-120026936D01*
X182331532Y-120026936D01*
X182317038Y-120025028D01*
X182190959Y-119991245D01*
X182177453Y-119985650D01*
X182064414Y-119920386D01*
X182052816Y-119911487D01*
X182047020Y-119905691D01*
X182019575Y-119878247D01*
X182007677Y-119870034D01*
X182003643Y-119868364D01*
X181650090Y-119514811D01*
X181645812Y-119504484D01*
X181612760Y-119471431D01*
X181606967Y-119465638D01*
X181598068Y-119454040D01*
X181583012Y-119427964D01*
X181536899Y-119348094D01*
X181536898Y-119348092D01*
X181532804Y-119341001D01*
X181527209Y-119327495D01*
X181525089Y-119319586D01*
X181525088Y-119319582D01*
X181495546Y-119209330D01*
X181495545Y-119209325D01*
X181493426Y-119201416D01*
X181491518Y-119186922D01*
X181491518Y-119056396D01*
X181493426Y-119041902D01*
X181527209Y-118915824D01*
X181532804Y-118902318D01*
X181536898Y-118895226D01*
X181536901Y-118895220D01*
X181593970Y-118796375D01*
X181593974Y-118796369D01*
X181598068Y-118789279D01*
X181606967Y-118777681D01*
X181612753Y-118771894D01*
X181612763Y-118771882D01*
X181640205Y-118744441D01*
X181648419Y-118732541D01*
X181650090Y-118728508D01*
X181653318Y-118725279D01*
X181653319Y-118725278D01*
X182028267Y-118350330D01*
X182028269Y-118350328D01*
X182038999Y-118339599D01*
X182061296Y-118330363D01*
X182063050Y-118329303D01*
X182063993Y-118329245D01*
X182078597Y-118323197D01*
X182089479Y-118327704D01*
X182100723Y-118327025D01*
X182142500Y-118308222D01*
X182182822Y-118267900D01*
X182200303Y-118235195D01*
X182205597Y-118208573D01*
X182204374Y-118202420D01*
X182208255Y-118182903D01*
X182219311Y-118166358D01*
X182691862Y-117693807D01*
X182917713Y-117467955D01*
X182917716Y-117467952D01*
X182926418Y-117459251D01*
X182942963Y-117448195D01*
X182962480Y-117444314D01*
X182968634Y-117445537D01*
X182995255Y-117440243D01*
X183027960Y-117422762D01*
X183070113Y-117380610D01*
X183088684Y-117331641D01*
X183083257Y-117318537D01*
X183099659Y-117278939D01*
X183102889Y-117275708D01*
X183102890Y-117275707D01*
X183477838Y-116900759D01*
X183477840Y-116900757D01*
X183488568Y-116890030D01*
X183498893Y-116885752D01*
X183531942Y-116852703D01*
X183531954Y-116852693D01*
X183537741Y-116846907D01*
X183549339Y-116838008D01*
X183556429Y-116833914D01*
X183556435Y-116833910D01*
X183655280Y-116776841D01*
X183655286Y-116776838D01*
X183662378Y-116772744D01*
X183675884Y-116767149D01*
X183801962Y-116733366D01*
X183816456Y-116731458D01*
X183946982Y-116731458D01*
X183961476Y-116733366D01*
G37*
G36*
X213264751Y-118112378D02*
G01*
X213427933Y-118179970D01*
X213574793Y-118278099D01*
X213699687Y-118402993D01*
X213797816Y-118549853D01*
X213865408Y-118713035D01*
X213899866Y-118886268D01*
X213899866Y-119062894D01*
X213865408Y-119236127D01*
X213797816Y-119399309D01*
X213699687Y-119546169D01*
X213574793Y-119671063D01*
X213427933Y-119769192D01*
X213264751Y-119836784D01*
X213091518Y-119871242D01*
X212914892Y-119871242D01*
X212741659Y-119836784D01*
X212578477Y-119769192D01*
X212431617Y-119671063D01*
X212306723Y-119546169D01*
X212208594Y-119399309D01*
X212141002Y-119236127D01*
X212106544Y-119062894D01*
X212106544Y-118886268D01*
X212141002Y-118713035D01*
X212208594Y-118549853D01*
X212306723Y-118402993D01*
X212431617Y-118278099D01*
X212578477Y-118179970D01*
X212741659Y-118112378D01*
X212914892Y-118077920D01*
X213091518Y-118077920D01*
X213264751Y-118112378D01*
G37*
G36*
X189048973Y-115834720D02*
G01*
X189065518Y-115845775D01*
X190268873Y-117049130D01*
X190279928Y-117065675D01*
X190283810Y-117085192D01*
X190279928Y-117104709D01*
X190268873Y-117121254D01*
X189065518Y-118324609D01*
X189048973Y-118335664D01*
X189029456Y-118339546D01*
X189009939Y-118335664D01*
X188993394Y-118324609D01*
X187790039Y-117121254D01*
X187778984Y-117104709D01*
X187775102Y-117085192D01*
X187778984Y-117065675D01*
X187790039Y-117049130D01*
X188993394Y-115845775D01*
X189009939Y-115834720D01*
X189029456Y-115830838D01*
X189048973Y-115834720D01*
G37*
G36*
X211468699Y-116316326D02*
G01*
X211631881Y-116383918D01*
X211778741Y-116482047D01*
X211903635Y-116606941D01*
X212001764Y-116753801D01*
X212069356Y-116916983D01*
X212103814Y-117090216D01*
X212103814Y-117266842D01*
X212069356Y-117440075D01*
X212001764Y-117603257D01*
X211903635Y-117750117D01*
X211778741Y-117875011D01*
X211631881Y-117973140D01*
X211468699Y-118040732D01*
X211295466Y-118075190D01*
X211118840Y-118075190D01*
X210945607Y-118040732D01*
X210782425Y-117973140D01*
X210635565Y-117875011D01*
X210510671Y-117750117D01*
X210412542Y-117603257D01*
X210344950Y-117440075D01*
X210310492Y-117266842D01*
X210310492Y-117090216D01*
X210344950Y-116916983D01*
X210412542Y-116753801D01*
X210510671Y-116606941D01*
X210635565Y-116482047D01*
X210782425Y-116383918D01*
X210945607Y-116316326D01*
X211118840Y-116281868D01*
X211295466Y-116281868D01*
X211468699Y-116316326D01*
G37*
G36*
X214743260Y-96594616D02*
G01*
X214945721Y-96797077D01*
X214977334Y-96891915D01*
X214977334Y-96944245D01*
X214945721Y-97039083D01*
X214793768Y-97191036D01*
X214698929Y-97222649D01*
X214646600Y-97222649D01*
X214551760Y-97191036D01*
X214349301Y-96988577D01*
X214317689Y-96893738D01*
X214317689Y-96841407D01*
X214349301Y-96746569D01*
X214501254Y-96594616D01*
X214596093Y-96563004D01*
X214648425Y-96563004D01*
X214743260Y-96594616D01*
G37*
G36*
X217672702Y-92857052D02*
G01*
X217875162Y-93059512D01*
X217906775Y-93154351D01*
X217906775Y-93206681D01*
X217875162Y-93301520D01*
X217723210Y-93453472D01*
X217628371Y-93485085D01*
X217576042Y-93485085D01*
X217481202Y-93453472D01*
X217278742Y-93251012D01*
X217247130Y-93156176D01*
X217247130Y-93103842D01*
X217278742Y-93009006D01*
X217430696Y-92857052D01*
X217525531Y-92825440D01*
X217577867Y-92825440D01*
X217672702Y-92857052D01*
G37*
G36*
X218650318Y-91903399D02*
G01*
X218872903Y-92036949D01*
X219099327Y-92263373D01*
X219232878Y-92485959D01*
X219270481Y-92598768D01*
X219270481Y-92651098D01*
X219238868Y-92745936D01*
X219187930Y-92796874D01*
X219093095Y-92828487D01*
X219040763Y-92828487D01*
X218927953Y-92790884D01*
X218705368Y-92657333D01*
X218478945Y-92430910D01*
X218345393Y-92208324D01*
X218307790Y-92095516D01*
X218307790Y-92043182D01*
X218339402Y-91948346D01*
X218390340Y-91897408D01*
X218485179Y-91865796D01*
X218537511Y-91865796D01*
X218650318Y-91903399D01*
G37*
G36*
X213535557Y-91598844D02*
G01*
X213525563Y-91628827D01*
X213373611Y-91780779D01*
X213278772Y-91812392D01*
X213226443Y-91812392D01*
X213131603Y-91780779D01*
X212878636Y-91527812D01*
X212847024Y-91432973D01*
X212847024Y-91380643D01*
X212878636Y-91285804D01*
X213030589Y-91133852D01*
X213060571Y-91123858D01*
X213535557Y-91598844D01*
G37*
G36*
X217354057Y-90972673D02*
G01*
X217404995Y-91023610D01*
X217428493Y-91094107D01*
X217404995Y-91164603D01*
X217202535Y-91367062D01*
X217172552Y-91377056D01*
X216990618Y-91195122D01*
X217213067Y-90972673D01*
X217283562Y-90949174D01*
X217354057Y-90972673D01*
G37*
G36*
X210504332Y-90587923D02*
G01*
X210706793Y-90790384D01*
X210738406Y-90885222D01*
X210738406Y-90937552D01*
X210706793Y-91032390D01*
X210554840Y-91184343D01*
X210460005Y-91215956D01*
X210407673Y-91215956D01*
X210312834Y-91184343D01*
X210110373Y-90981882D01*
X210078761Y-90887046D01*
X210078761Y-90834712D01*
X210110373Y-90739876D01*
X210262326Y-90587923D01*
X210357165Y-90556311D01*
X210409497Y-90556311D01*
X210504332Y-90587923D01*
G37*
G36*
X218374634Y-90174974D02*
G01*
X218364640Y-90204958D01*
X218212687Y-90356910D01*
X218117852Y-90388523D01*
X218065520Y-90388523D01*
X217970681Y-90356910D01*
X217717713Y-90103942D01*
X217686101Y-90009103D01*
X217686101Y-89956773D01*
X217717713Y-89861934D01*
X217869666Y-89709982D01*
X217899648Y-89699988D01*
X218374634Y-90174974D01*
G37*
G36*
X211514484Y-89577771D02*
G01*
X211716945Y-89780232D01*
X211748558Y-89875070D01*
X211748558Y-89927400D01*
X211716945Y-90022238D01*
X211564992Y-90174191D01*
X211470157Y-90205804D01*
X211417825Y-90205804D01*
X211322986Y-90174191D01*
X211120525Y-89971730D01*
X211088913Y-89876894D01*
X211088913Y-89824560D01*
X211120525Y-89729724D01*
X211272478Y-89577771D01*
X211367317Y-89546159D01*
X211419649Y-89546159D01*
X211514484Y-89577771D01*
G37*
G36*
X212524638Y-88567619D02*
G01*
X212727097Y-88770078D01*
X212758710Y-88864917D01*
X212758710Y-88917248D01*
X212727097Y-89012086D01*
X212575144Y-89164039D01*
X212480309Y-89195652D01*
X212427977Y-89195652D01*
X212333138Y-89164039D01*
X212130677Y-88961578D01*
X212099065Y-88866742D01*
X212099065Y-88814408D01*
X212130677Y-88719572D01*
X212282630Y-88567619D01*
X212377469Y-88536007D01*
X212429799Y-88536007D01*
X212524638Y-88567619D01*
G37*
G36*
X216465000Y-88669401D02*
G01*
X216455006Y-88699384D01*
X216303053Y-88851337D01*
X216208218Y-88882950D01*
X216155886Y-88882950D01*
X216061047Y-88851337D01*
X215808079Y-88598369D01*
X215776467Y-88503530D01*
X215776467Y-88451200D01*
X215808079Y-88356361D01*
X215960032Y-88204409D01*
X215990014Y-88194415D01*
X216465000Y-88669401D01*
G37*
G36*
X222993976Y-87559744D02*
G01*
X223216560Y-87693295D01*
X223442982Y-87919717D01*
X223576532Y-88142300D01*
X223614136Y-88255112D01*
X223614136Y-88307443D01*
X223582523Y-88402282D01*
X223531587Y-88453218D01*
X223436747Y-88484831D01*
X223384418Y-88484831D01*
X223271604Y-88447227D01*
X223049023Y-88313678D01*
X222822600Y-88087255D01*
X222689048Y-87864669D01*
X222651445Y-87751861D01*
X222651445Y-87699527D01*
X222683057Y-87604691D01*
X222733994Y-87553753D01*
X222828834Y-87522141D01*
X222881163Y-87522141D01*
X222993976Y-87559744D01*
G37*
G36*
X213534789Y-87557466D02*
G01*
X213737250Y-87759927D01*
X213768863Y-87854765D01*
X213768863Y-87907095D01*
X213737250Y-88001933D01*
X213585297Y-88153886D01*
X213490459Y-88185499D01*
X213438129Y-88185499D01*
X213343289Y-88153886D01*
X213140830Y-87951427D01*
X213109218Y-87856588D01*
X213109218Y-87804257D01*
X213140830Y-87709419D01*
X213292783Y-87557466D01*
X213387622Y-87525854D01*
X213439954Y-87525854D01*
X213534789Y-87557466D01*
G37*
G36*
X221041114Y-87285616D02*
G01*
X221092052Y-87336553D01*
X221115550Y-87407050D01*
X221092052Y-87477546D01*
X220889592Y-87680005D01*
X220859609Y-87689999D01*
X220677675Y-87508065D01*
X220900124Y-87285616D01*
X220970619Y-87262117D01*
X221041114Y-87285616D01*
G37*
G36*
X214544941Y-86547314D02*
G01*
X214747402Y-86749775D01*
X214779015Y-86844613D01*
X214779015Y-86896943D01*
X214747402Y-86991781D01*
X214595450Y-87143734D01*
X214500611Y-87175347D01*
X214448282Y-87175347D01*
X214353442Y-87143734D01*
X214150982Y-86941273D01*
X214119370Y-86846437D01*
X214119370Y-86794103D01*
X214150982Y-86699267D01*
X214302935Y-86547314D01*
X214397774Y-86515702D01*
X214450106Y-86515702D01*
X214544941Y-86547314D01*
G37*
G36*
X216565247Y-84931070D02*
G01*
X216616184Y-84982007D01*
X216639682Y-85052503D01*
X216616184Y-85122999D01*
X216413725Y-85325459D01*
X216383741Y-85335453D01*
X216201807Y-85153519D01*
X216424255Y-84931070D01*
X216494751Y-84907572D01*
X216565247Y-84931070D01*
G37*
G36*
X225472625Y-87172149D02*
G01*
X214672765Y-97972008D01*
X213033991Y-96333234D01*
X213566002Y-96333234D01*
X213566002Y-96391760D01*
X213588399Y-96445833D01*
X213629785Y-96487218D01*
X213683857Y-96509615D01*
X213742383Y-96509615D01*
X213796456Y-96487218D01*
X213819186Y-96468563D01*
X213996176Y-96291571D01*
X214091016Y-96259959D01*
X214152837Y-96259959D01*
X214365331Y-96302457D01*
X214388088Y-96316111D01*
X214372793Y-96321210D01*
X214345942Y-96333198D01*
X214341871Y-96336728D01*
X214336892Y-96338791D01*
X214314161Y-96357446D01*
X214112130Y-96559477D01*
X214093475Y-96582208D01*
X214091412Y-96587187D01*
X214087882Y-96591258D01*
X214075893Y-96618109D01*
X214025386Y-96769631D01*
X214022086Y-96784143D01*
X214020571Y-96787801D01*
X214020048Y-96793103D01*
X214018866Y-96798305D01*
X214019147Y-96802259D01*
X214017689Y-96817065D01*
X214017689Y-96918081D01*
X214019147Y-96932886D01*
X214018866Y-96936841D01*
X214020048Y-96942042D01*
X214020571Y-96947345D01*
X214022086Y-96951002D01*
X214025386Y-96965515D01*
X214075893Y-97117038D01*
X214087881Y-97143888D01*
X214091412Y-97147959D01*
X214093475Y-97152939D01*
X214112130Y-97175670D01*
X214364668Y-97428208D01*
X214387399Y-97446863D01*
X214392376Y-97448924D01*
X214396449Y-97452457D01*
X214423300Y-97464445D01*
X214574823Y-97514952D01*
X214589335Y-97518251D01*
X214592993Y-97519767D01*
X214598295Y-97520289D01*
X214603497Y-97521472D01*
X214607451Y-97521190D01*
X214622257Y-97522649D01*
X214723272Y-97522649D01*
X214738077Y-97521190D01*
X214742032Y-97521472D01*
X214747233Y-97520289D01*
X214752536Y-97519767D01*
X214756193Y-97518251D01*
X214770706Y-97514952D01*
X214922229Y-97464445D01*
X214949079Y-97452457D01*
X214953150Y-97448925D01*
X214958130Y-97446863D01*
X214980861Y-97428208D01*
X215182892Y-97226177D01*
X215201547Y-97203446D01*
X215203609Y-97198466D01*
X215207140Y-97194396D01*
X215219128Y-97167545D01*
X215269636Y-97016023D01*
X215272935Y-97001513D01*
X215274452Y-96997852D01*
X215274974Y-96992543D01*
X215276156Y-96987349D01*
X215275875Y-96983399D01*
X215277334Y-96968588D01*
X215277334Y-96867573D01*
X215275875Y-96852761D01*
X215276156Y-96848812D01*
X215274974Y-96843617D01*
X215274452Y-96838309D01*
X215272935Y-96834647D01*
X215269636Y-96820138D01*
X215219128Y-96668616D01*
X215207140Y-96641765D01*
X215203609Y-96637694D01*
X215201547Y-96632715D01*
X215182892Y-96609984D01*
X214778831Y-96205923D01*
X214774867Y-96202670D01*
X214773550Y-96200892D01*
X214764655Y-96194289D01*
X214756100Y-96187268D01*
X214754056Y-96186421D01*
X214749939Y-96183365D01*
X214497401Y-96031842D01*
X214480851Y-96024005D01*
X214477774Y-96021944D01*
X214474203Y-96020856D01*
X214470825Y-96019257D01*
X214467156Y-96018711D01*
X214449644Y-96013379D01*
X214197106Y-95962872D01*
X214197003Y-95962861D01*
X214196953Y-95962841D01*
X214182209Y-95961389D01*
X214167845Y-95959959D01*
X214167793Y-95959969D01*
X214167689Y-95959959D01*
X214066673Y-95959959D01*
X214051867Y-95961417D01*
X214047913Y-95961136D01*
X214042711Y-95962318D01*
X214037409Y-95962841D01*
X214033751Y-95964356D01*
X214019239Y-95967656D01*
X213867716Y-96018163D01*
X213840865Y-96030151D01*
X213836793Y-96033682D01*
X213831814Y-96035745D01*
X213809084Y-96054400D01*
X213607054Y-96256431D01*
X213588399Y-96279162D01*
X213566002Y-96333234D01*
X213033991Y-96333234D01*
X212103609Y-95402852D01*
X214623780Y-95402852D01*
X214623780Y-95503867D01*
X214625238Y-95518672D01*
X214624957Y-95522627D01*
X214626139Y-95527828D01*
X214626662Y-95533131D01*
X214628177Y-95536788D01*
X214631477Y-95551301D01*
X214681984Y-95702824D01*
X214693972Y-95729674D01*
X214697503Y-95733745D01*
X214699566Y-95738725D01*
X214718221Y-95761456D01*
X214819237Y-95862472D01*
X214830739Y-95871912D01*
X214833335Y-95874905D01*
X214837844Y-95877743D01*
X214841967Y-95881127D01*
X214845629Y-95882643D01*
X214858221Y-95890570D01*
X215060251Y-95991585D01*
X215087714Y-96002094D01*
X215093088Y-96002475D01*
X215098069Y-96004539D01*
X215127333Y-96007421D01*
X215977384Y-96007421D01*
X215576851Y-96407954D01*
X215558196Y-96430685D01*
X215535799Y-96484757D01*
X215535799Y-96543283D01*
X215558196Y-96597355D01*
X215599582Y-96638741D01*
X215653654Y-96661138D01*
X215712180Y-96661138D01*
X215766252Y-96638741D01*
X215788983Y-96620086D01*
X216445582Y-95963487D01*
X216464237Y-95940757D01*
X216482345Y-95897039D01*
X216486634Y-95886685D01*
X216486634Y-95828157D01*
X216474997Y-95800063D01*
X216464237Y-95774086D01*
X216422851Y-95732700D01*
X216384433Y-95716787D01*
X216368780Y-95710303D01*
X216339516Y-95707421D01*
X215162743Y-95707421D01*
X215014157Y-95633128D01*
X214955392Y-95574363D01*
X214923780Y-95479524D01*
X214923780Y-95427194D01*
X214955392Y-95332355D01*
X215157852Y-95129896D01*
X215252691Y-95098284D01*
X215329364Y-95098284D01*
X215358628Y-95095402D01*
X215412700Y-95073004D01*
X215454084Y-95031620D01*
X215458882Y-95020036D01*
X216192398Y-95020036D01*
X216192398Y-95078562D01*
X216214795Y-95132634D01*
X216256181Y-95174020D01*
X216310253Y-95196417D01*
X216368779Y-95196417D01*
X216422851Y-95174020D01*
X216445582Y-95155365D01*
X217253704Y-94347243D01*
X217272359Y-94324512D01*
X217294756Y-94270440D01*
X217294756Y-94211914D01*
X217272359Y-94157842D01*
X217230973Y-94116456D01*
X217176901Y-94094059D01*
X217118375Y-94094059D01*
X217064303Y-94116456D01*
X217041572Y-94135111D01*
X216233450Y-94943233D01*
X216214795Y-94965964D01*
X216192398Y-95020036D01*
X215458882Y-95020036D01*
X215476482Y-94977548D01*
X215476482Y-94919020D01*
X215454084Y-94864948D01*
X215412700Y-94823564D01*
X215358628Y-94801166D01*
X215329364Y-94798284D01*
X215228348Y-94798284D01*
X215213536Y-94799742D01*
X215209588Y-94799462D01*
X215204392Y-94800643D01*
X215199084Y-94801166D01*
X215195423Y-94802682D01*
X215180914Y-94805981D01*
X215029392Y-94856488D01*
X215002541Y-94868477D01*
X214998470Y-94872007D01*
X214993491Y-94874070D01*
X214970760Y-94892725D01*
X214718221Y-95145263D01*
X214699566Y-95167993D01*
X214697502Y-95172973D01*
X214693972Y-95177045D01*
X214681984Y-95203895D01*
X214631477Y-95355418D01*
X214628177Y-95369930D01*
X214626662Y-95373588D01*
X214626139Y-95378890D01*
X214624957Y-95384092D01*
X214625238Y-95388046D01*
X214623780Y-95402852D01*
X212103609Y-95402852D01*
X210947581Y-94246824D01*
X212237205Y-94246824D01*
X212237205Y-94305350D01*
X212259602Y-94359422D01*
X212300988Y-94400808D01*
X212355060Y-94423205D01*
X212413586Y-94423205D01*
X212467658Y-94400808D01*
X212490389Y-94382153D01*
X212899476Y-93973064D01*
X213114472Y-94148970D01*
X213114089Y-94149303D01*
X213109110Y-94151366D01*
X213086379Y-94170021D01*
X212833841Y-94422559D01*
X212815186Y-94445290D01*
X212813123Y-94450269D01*
X212809593Y-94454340D01*
X212797604Y-94481191D01*
X212747097Y-94632714D01*
X212743798Y-94647221D01*
X212742281Y-94650884D01*
X212741758Y-94656192D01*
X212740577Y-94661387D01*
X212740857Y-94665336D01*
X212739399Y-94680148D01*
X212739399Y-94781163D01*
X212740857Y-94795974D01*
X212740577Y-94799924D01*
X212741758Y-94805118D01*
X212742281Y-94810427D01*
X212743798Y-94814089D01*
X212747097Y-94828597D01*
X212797604Y-94980120D01*
X212809593Y-95006971D01*
X212813123Y-95011041D01*
X212815186Y-95016021D01*
X212833841Y-95038752D01*
X213086379Y-95291290D01*
X213109110Y-95309945D01*
X213114089Y-95312007D01*
X213118160Y-95315538D01*
X213145011Y-95327526D01*
X213296533Y-95378034D01*
X213311042Y-95381333D01*
X213314704Y-95382850D01*
X213320012Y-95383372D01*
X213325207Y-95384554D01*
X213329156Y-95384273D01*
X213343968Y-95385732D01*
X213444983Y-95385732D01*
X213459794Y-95384273D01*
X213463744Y-95384554D01*
X213468938Y-95383372D01*
X213474247Y-95382850D01*
X213477909Y-95381332D01*
X213492417Y-95378034D01*
X213643940Y-95327527D01*
X213670791Y-95315538D01*
X213674861Y-95312007D01*
X213679841Y-95309945D01*
X213702572Y-95291290D01*
X213955110Y-95038752D01*
X213973765Y-95016021D01*
X213975827Y-95011041D01*
X213979358Y-95006971D01*
X213991346Y-94980120D01*
X214041854Y-94828598D01*
X214045153Y-94814088D01*
X214046670Y-94810427D01*
X214047192Y-94805118D01*
X214048374Y-94799924D01*
X214048093Y-94795974D01*
X214049552Y-94781163D01*
X214049552Y-94680148D01*
X214046670Y-94650884D01*
X214024272Y-94596812D01*
X213982888Y-94555428D01*
X213928816Y-94533030D01*
X213870288Y-94533030D01*
X213816216Y-94555428D01*
X213774832Y-94596812D01*
X213752434Y-94650884D01*
X213749552Y-94680148D01*
X213749552Y-94756820D01*
X213717939Y-94851658D01*
X213515478Y-95054119D01*
X213420643Y-95085732D01*
X213368311Y-95085732D01*
X213273472Y-95054119D01*
X213071011Y-94851658D01*
X213039399Y-94756822D01*
X213039399Y-94704488D01*
X213071011Y-94609652D01*
X213273472Y-94407191D01*
X213368311Y-94375579D01*
X213444983Y-94375579D01*
X213474247Y-94372697D01*
X213481224Y-94369806D01*
X213488740Y-94369055D01*
X213508064Y-94358689D01*
X213528319Y-94350299D01*
X213533658Y-94344959D01*
X213540315Y-94341389D01*
X213554202Y-94324416D01*
X213569703Y-94308915D01*
X213572593Y-94301938D01*
X213577377Y-94296091D01*
X213583711Y-94275097D01*
X213592101Y-94254843D01*
X213592101Y-94247289D01*
X213594283Y-94240058D01*
X213592101Y-94218239D01*
X213592101Y-94196315D01*
X213589210Y-94189336D01*
X213588459Y-94181823D01*
X213578094Y-94162500D01*
X213569703Y-94142243D01*
X213564363Y-94136903D01*
X213560793Y-94130247D01*
X213539969Y-94109486D01*
X213091341Y-93742426D01*
X213498625Y-93742426D01*
X213518309Y-93797542D01*
X213557588Y-93840932D01*
X213582801Y-93856064D01*
X214542446Y-94310633D01*
X214570126Y-94320555D01*
X214577645Y-94320928D01*
X214584736Y-94323461D01*
X214606658Y-94322371D01*
X214628582Y-94323461D01*
X214635672Y-94320928D01*
X214643191Y-94320555D01*
X214663023Y-94311160D01*
X214683698Y-94303777D01*
X214689280Y-94298723D01*
X214696085Y-94295500D01*
X214710815Y-94279228D01*
X214727087Y-94264498D01*
X214730310Y-94257693D01*
X214735364Y-94252111D01*
X214742747Y-94231436D01*
X214752142Y-94211604D01*
X214752515Y-94204085D01*
X214755048Y-94196995D01*
X214753958Y-94175071D01*
X214755048Y-94153149D01*
X214752515Y-94146058D01*
X214752142Y-94138539D01*
X214742220Y-94110859D01*
X214287651Y-93151214D01*
X214272519Y-93126001D01*
X214229129Y-93086722D01*
X214208913Y-93079502D01*
X216947130Y-93079502D01*
X216947130Y-93180517D01*
X216948588Y-93195328D01*
X216948308Y-93199278D01*
X216949489Y-93204472D01*
X216950012Y-93209781D01*
X216951529Y-93213443D01*
X216954828Y-93227951D01*
X217005335Y-93379474D01*
X217017324Y-93406325D01*
X217020854Y-93410395D01*
X217022917Y-93415375D01*
X217041572Y-93438106D01*
X217445633Y-93842167D01*
X217449598Y-93845421D01*
X217450914Y-93847197D01*
X217459800Y-93853793D01*
X217468364Y-93860822D01*
X217470407Y-93861668D01*
X217474525Y-93864725D01*
X217727062Y-94016248D01*
X217743609Y-94024083D01*
X217746689Y-94026146D01*
X217750261Y-94027233D01*
X217753639Y-94028833D01*
X217757306Y-94029378D01*
X217774820Y-94034711D01*
X218027358Y-94085218D01*
X218027460Y-94085228D01*
X218027511Y-94085249D01*
X218042254Y-94086700D01*
X218056619Y-94088131D01*
X218056670Y-94088120D01*
X218056775Y-94088131D01*
X218157791Y-94088131D01*
X218172596Y-94086672D01*
X218176551Y-94086954D01*
X218181752Y-94085771D01*
X218187055Y-94085249D01*
X218190712Y-94083733D01*
X218205225Y-94080434D01*
X218356748Y-94029927D01*
X218383598Y-94017939D01*
X218387669Y-94014408D01*
X218392650Y-94012345D01*
X218415380Y-93993690D01*
X218617410Y-93791659D01*
X218636065Y-93768928D01*
X218658462Y-93714856D01*
X218658462Y-93656330D01*
X218636065Y-93602258D01*
X218594679Y-93560872D01*
X218540606Y-93538475D01*
X218482081Y-93538475D01*
X218428008Y-93560872D01*
X218405278Y-93579527D01*
X218228287Y-93756518D01*
X218133448Y-93788131D01*
X218071627Y-93788131D01*
X217859131Y-93745632D01*
X217836376Y-93731979D01*
X217851671Y-93726881D01*
X217878521Y-93714893D01*
X217882592Y-93711361D01*
X217887572Y-93709299D01*
X217910303Y-93690644D01*
X218112334Y-93488613D01*
X218130989Y-93465882D01*
X218133050Y-93460904D01*
X218136583Y-93456832D01*
X218148571Y-93429981D01*
X218199078Y-93278458D01*
X218202377Y-93263945D01*
X218203893Y-93260288D01*
X218204415Y-93254985D01*
X218205598Y-93249784D01*
X218205316Y-93245829D01*
X218206775Y-93231024D01*
X218206775Y-93130009D01*
X218205316Y-93115203D01*
X218205598Y-93111249D01*
X218204415Y-93106047D01*
X218203893Y-93100745D01*
X218202377Y-93097087D01*
X218199078Y-93082575D01*
X218148571Y-92931052D01*
X218136583Y-92904201D01*
X218133050Y-92900128D01*
X218130989Y-92895151D01*
X218112334Y-92872420D01*
X217859796Y-92619882D01*
X217837065Y-92601227D01*
X217832085Y-92599164D01*
X217828015Y-92595634D01*
X217801164Y-92583645D01*
X217649641Y-92533138D01*
X217635133Y-92529839D01*
X217631471Y-92528322D01*
X217626162Y-92527799D01*
X217620968Y-92526618D01*
X217617018Y-92526898D01*
X217602207Y-92525440D01*
X217501191Y-92525440D01*
X217486379Y-92526898D01*
X217482429Y-92526618D01*
X217477233Y-92527799D01*
X217471927Y-92528322D01*
X217468265Y-92529838D01*
X217453756Y-92533138D01*
X217302234Y-92583646D01*
X217275383Y-92595634D01*
X217271311Y-92599165D01*
X217266334Y-92601227D01*
X217243603Y-92619882D01*
X217041572Y-92821913D01*
X217022917Y-92844644D01*
X217020854Y-92849623D01*
X217017324Y-92853694D01*
X217005335Y-92880545D01*
X216954828Y-93032068D01*
X216951529Y-93046575D01*
X216950012Y-93050238D01*
X216949489Y-93055546D01*
X216948308Y-93060741D01*
X216948588Y-93064690D01*
X216947130Y-93079502D01*
X214208913Y-93079502D01*
X214174013Y-93067038D01*
X214115558Y-93069943D01*
X214062664Y-93094998D01*
X214023385Y-93138388D01*
X214003701Y-93193504D01*
X214006606Y-93251959D01*
X214016529Y-93279640D01*
X214291301Y-93859714D01*
X213711227Y-93584942D01*
X213683546Y-93575019D01*
X213625091Y-93572114D01*
X213569975Y-93591798D01*
X213526585Y-93631077D01*
X213501530Y-93683971D01*
X213498625Y-93742426D01*
X213091341Y-93742426D01*
X212984385Y-93654916D01*
X212975330Y-93648885D01*
X212972734Y-93646289D01*
X212969289Y-93644862D01*
X212959911Y-93638616D01*
X212938920Y-93632283D01*
X212918662Y-93623892D01*
X212911107Y-93623892D01*
X212903878Y-93621711D01*
X212882066Y-93623892D01*
X212860136Y-93623892D01*
X212853157Y-93626782D01*
X212845643Y-93627534D01*
X212826324Y-93637896D01*
X212806063Y-93646289D01*
X212797353Y-93653437D01*
X212794067Y-93655200D01*
X212791739Y-93658044D01*
X212783333Y-93664944D01*
X212278257Y-94170021D01*
X212259602Y-94192752D01*
X212237205Y-94246824D01*
X210947581Y-94246824D01*
X209168226Y-92467469D01*
X212547024Y-92467469D01*
X212547024Y-92568484D01*
X212549906Y-92597747D01*
X212549906Y-92597748D01*
X212572304Y-92651820D01*
X212613688Y-92693204D01*
X212667760Y-92715602D01*
X212697024Y-92718484D01*
X212798039Y-92718484D01*
X212827303Y-92715602D01*
X212843139Y-92709041D01*
X212881375Y-92693205D01*
X212922760Y-92651820D01*
X212943745Y-92601156D01*
X212945157Y-92597748D01*
X212945157Y-92597747D01*
X212948039Y-92568484D01*
X212948039Y-92467469D01*
X212945157Y-92438205D01*
X212922759Y-92384133D01*
X212881375Y-92342749D01*
X212827303Y-92320351D01*
X212798039Y-92317469D01*
X212697024Y-92317469D01*
X212667760Y-92320351D01*
X212645363Y-92329628D01*
X212613689Y-92342748D01*
X212572303Y-92384134D01*
X212566064Y-92399197D01*
X212549906Y-92438205D01*
X212547024Y-92467469D01*
X209168226Y-92467469D01*
X207990952Y-91290195D01*
X208954606Y-90326541D01*
X209327074Y-90326541D01*
X209327074Y-90385067D01*
X209349471Y-90439139D01*
X209390857Y-90480525D01*
X209444929Y-90502922D01*
X209503455Y-90502922D01*
X209557527Y-90480525D01*
X209580258Y-90461870D01*
X209757250Y-90284877D01*
X209852089Y-90253265D01*
X209913908Y-90253265D01*
X210126404Y-90295764D01*
X210149160Y-90309418D01*
X210133865Y-90314517D01*
X210107014Y-90326505D01*
X210102943Y-90330035D01*
X210097964Y-90332098D01*
X210075233Y-90350753D01*
X209873203Y-90552783D01*
X209854548Y-90575514D01*
X209852485Y-90580493D01*
X209848955Y-90584564D01*
X209836966Y-90611415D01*
X209786459Y-90762938D01*
X209783160Y-90777445D01*
X209781643Y-90781108D01*
X209781120Y-90786416D01*
X209779939Y-90791611D01*
X209780219Y-90795560D01*
X209778761Y-90810372D01*
X209778761Y-90911387D01*
X209780219Y-90926198D01*
X209779939Y-90930148D01*
X209781120Y-90935342D01*
X209781643Y-90940651D01*
X209783160Y-90944313D01*
X209786459Y-90958821D01*
X209836966Y-91110344D01*
X209848955Y-91137195D01*
X209852485Y-91141265D01*
X209854548Y-91146245D01*
X209873203Y-91168976D01*
X210125741Y-91421514D01*
X210148472Y-91440169D01*
X210153451Y-91442231D01*
X210157522Y-91445762D01*
X210184373Y-91457750D01*
X210335895Y-91508258D01*
X210350404Y-91511557D01*
X210354066Y-91513074D01*
X210359374Y-91513596D01*
X210364569Y-91514778D01*
X210368518Y-91514497D01*
X210383330Y-91515956D01*
X210484345Y-91515956D01*
X210499156Y-91514497D01*
X210503106Y-91514778D01*
X210508300Y-91513596D01*
X210513609Y-91513074D01*
X210517271Y-91511556D01*
X210531779Y-91508258D01*
X210533081Y-91507824D01*
X211587379Y-91507824D01*
X211587379Y-91608839D01*
X211590261Y-91638103D01*
X211592676Y-91643933D01*
X211593200Y-91650218D01*
X211603799Y-91670786D01*
X211612659Y-91692175D01*
X211617120Y-91696636D01*
X211620010Y-91702244D01*
X211640488Y-91723347D01*
X212297087Y-92278931D01*
X212298945Y-92280213D01*
X212300573Y-92281793D01*
X212303181Y-92283136D01*
X212304072Y-92283752D01*
X212310642Y-92289144D01*
X212313749Y-92290431D01*
X212321288Y-92295634D01*
X212337483Y-92300813D01*
X212352599Y-92308603D01*
X212358886Y-92309126D01*
X212364715Y-92311541D01*
X212371024Y-92311541D01*
X212377034Y-92313463D01*
X212393978Y-92312051D01*
X212410922Y-92313463D01*
X212416932Y-92311541D01*
X212423241Y-92311541D01*
X212429069Y-92309126D01*
X212435357Y-92308603D01*
X212450472Y-92300813D01*
X212466668Y-92295634D01*
X212471485Y-92291557D01*
X212477313Y-92289144D01*
X212481773Y-92284683D01*
X212487383Y-92281793D01*
X212498366Y-92268811D01*
X212511348Y-92257828D01*
X212514238Y-92252218D01*
X212518699Y-92247758D01*
X212521112Y-92241930D01*
X212525189Y-92237113D01*
X212530368Y-92220917D01*
X212538158Y-92205802D01*
X212538681Y-92199514D01*
X212541096Y-92193686D01*
X212541096Y-92187376D01*
X212543018Y-92181367D01*
X212541606Y-92164423D01*
X212543018Y-92147479D01*
X212541096Y-92141469D01*
X212541096Y-92135160D01*
X212538681Y-92129331D01*
X212538158Y-92123044D01*
X212530368Y-92107928D01*
X212525189Y-92091733D01*
X212519986Y-92084194D01*
X212518699Y-92081087D01*
X212513307Y-92074517D01*
X212512691Y-92073626D01*
X212511348Y-92071018D01*
X212509768Y-92069390D01*
X212508486Y-92067532D01*
X211952902Y-91410933D01*
X211931799Y-91390455D01*
X211926191Y-91387565D01*
X211921730Y-91383104D01*
X211900341Y-91374244D01*
X211879773Y-91363645D01*
X211873488Y-91363121D01*
X211867658Y-91360706D01*
X211838394Y-91357824D01*
X211737379Y-91357824D01*
X211708115Y-91360706D01*
X211685718Y-91369983D01*
X211654044Y-91383103D01*
X211612658Y-91424489D01*
X211601236Y-91452065D01*
X211590261Y-91478560D01*
X211587379Y-91507824D01*
X210533081Y-91507824D01*
X210683302Y-91457751D01*
X210710153Y-91445762D01*
X210714223Y-91442231D01*
X210719203Y-91440169D01*
X210741934Y-91421514D01*
X210807147Y-91356301D01*
X212547024Y-91356301D01*
X212547024Y-91457316D01*
X212548482Y-91472121D01*
X212548201Y-91476076D01*
X212549383Y-91481277D01*
X212549906Y-91486580D01*
X212551421Y-91490237D01*
X212554721Y-91504750D01*
X212605228Y-91656273D01*
X212617216Y-91683123D01*
X212620747Y-91687194D01*
X212622810Y-91692174D01*
X212641465Y-91714905D01*
X212944511Y-92017951D01*
X212967242Y-92036606D01*
X212972219Y-92038667D01*
X212976292Y-92042200D01*
X213003143Y-92054188D01*
X213154666Y-92104695D01*
X213169178Y-92107994D01*
X213172836Y-92109510D01*
X213178138Y-92110032D01*
X213183340Y-92111215D01*
X213187294Y-92110933D01*
X213202100Y-92112392D01*
X213303115Y-92112392D01*
X213317920Y-92110933D01*
X213321875Y-92111215D01*
X213327076Y-92110032D01*
X213332379Y-92109510D01*
X213336036Y-92107994D01*
X213350549Y-92104695D01*
X213502072Y-92054188D01*
X213528922Y-92042200D01*
X213532993Y-92038668D01*
X213537973Y-92036606D01*
X213560704Y-92017951D01*
X213757684Y-91820971D01*
X214005171Y-92068458D01*
X214027902Y-92087113D01*
X214081974Y-92109510D01*
X214140500Y-92109510D01*
X214194573Y-92087113D01*
X214235958Y-92045728D01*
X214258355Y-91991655D01*
X214258355Y-91933129D01*
X214235958Y-91879057D01*
X214217303Y-91856326D01*
X213930897Y-91569920D01*
X214914109Y-91569920D01*
X214914109Y-91628446D01*
X214936506Y-91682518D01*
X214955161Y-91705249D01*
X215839259Y-92589347D01*
X215862757Y-92659843D01*
X215828062Y-92763932D01*
X215821542Y-92792605D01*
X215825691Y-92850985D01*
X215851864Y-92903332D01*
X215896079Y-92941680D01*
X215951603Y-92960188D01*
X216009983Y-92956039D01*
X216062330Y-92929866D01*
X216100678Y-92885651D01*
X216112666Y-92858800D01*
X216163174Y-92707278D01*
X216164455Y-92701639D01*
X216165545Y-92699462D01*
X216165814Y-92695663D01*
X216169694Y-92678604D01*
X216168360Y-92659843D01*
X216169694Y-92641082D01*
X216165814Y-92624022D01*
X216165545Y-92620224D01*
X216164455Y-92618046D01*
X216163174Y-92612408D01*
X216112666Y-92460886D01*
X216100678Y-92434035D01*
X216097147Y-92429964D01*
X216095085Y-92424985D01*
X216076430Y-92402254D01*
X215167293Y-91493117D01*
X215144562Y-91474462D01*
X215090490Y-91452065D01*
X215031964Y-91452065D01*
X214977892Y-91474462D01*
X214936506Y-91515848D01*
X214914109Y-91569920D01*
X213930897Y-91569920D01*
X213156643Y-90795666D01*
X213133912Y-90777011D01*
X213079840Y-90754614D01*
X213021314Y-90754614D01*
X212967242Y-90777011D01*
X212925856Y-90818397D01*
X212909449Y-90858005D01*
X212902128Y-90860446D01*
X212875277Y-90872434D01*
X212871206Y-90875964D01*
X212866227Y-90878027D01*
X212843496Y-90896682D01*
X212641465Y-91098712D01*
X212622810Y-91121442D01*
X212620746Y-91126422D01*
X212617216Y-91130494D01*
X212605228Y-91157344D01*
X212554721Y-91308867D01*
X212551421Y-91323379D01*
X212549906Y-91327037D01*
X212549383Y-91332339D01*
X212548201Y-91337541D01*
X212548482Y-91341495D01*
X212547024Y-91356301D01*
X210807147Y-91356301D01*
X210943964Y-91219484D01*
X210962619Y-91196753D01*
X210964681Y-91191773D01*
X210968212Y-91187703D01*
X210980200Y-91160852D01*
X211030708Y-91009330D01*
X211034007Y-90994820D01*
X211035524Y-90991159D01*
X211036046Y-90985850D01*
X211037228Y-90980656D01*
X211036947Y-90976706D01*
X211038406Y-90961895D01*
X211038406Y-90860880D01*
X211036947Y-90846068D01*
X211037228Y-90842119D01*
X211036046Y-90836924D01*
X211035524Y-90831616D01*
X211034007Y-90827954D01*
X211030708Y-90813445D01*
X210980200Y-90661923D01*
X210968212Y-90635072D01*
X210964681Y-90631001D01*
X210962619Y-90626022D01*
X210943964Y-90603291D01*
X210539903Y-90199230D01*
X210535939Y-90195977D01*
X210534622Y-90194199D01*
X210525727Y-90187596D01*
X210517172Y-90180575D01*
X210515128Y-90179728D01*
X210511011Y-90176672D01*
X210258473Y-90025149D01*
X210241926Y-90017313D01*
X210238847Y-90015251D01*
X210235273Y-90014163D01*
X210231897Y-90012564D01*
X210228229Y-90012018D01*
X210210716Y-90006686D01*
X209958179Y-89956178D01*
X209958074Y-89956167D01*
X209958025Y-89956147D01*
X209943374Y-89954704D01*
X209928918Y-89953265D01*
X209928865Y-89953275D01*
X209928761Y-89953265D01*
X209827746Y-89953265D01*
X209812934Y-89954723D01*
X209808985Y-89954443D01*
X209803790Y-89955624D01*
X209798482Y-89956147D01*
X209794820Y-89957663D01*
X209780311Y-89960963D01*
X209628789Y-90011471D01*
X209601938Y-90023459D01*
X209597867Y-90026989D01*
X209592888Y-90029052D01*
X209570157Y-90047707D01*
X209368126Y-90249738D01*
X209349471Y-90272469D01*
X209327074Y-90326541D01*
X208954606Y-90326541D01*
X209964759Y-89316388D01*
X210337227Y-89316388D01*
X210337227Y-89374914D01*
X210359624Y-89428986D01*
X210401010Y-89470372D01*
X210455082Y-89492769D01*
X210513608Y-89492769D01*
X210567680Y-89470372D01*
X210590411Y-89451717D01*
X210767402Y-89274725D01*
X210862241Y-89243113D01*
X210924060Y-89243113D01*
X211136556Y-89285612D01*
X211159312Y-89299266D01*
X211144017Y-89304365D01*
X211117166Y-89316353D01*
X211113095Y-89319883D01*
X211108116Y-89321946D01*
X211085385Y-89340601D01*
X210883355Y-89542631D01*
X210864700Y-89565362D01*
X210862637Y-89570341D01*
X210859107Y-89574412D01*
X210847118Y-89601263D01*
X210796611Y-89752786D01*
X210793312Y-89767293D01*
X210791795Y-89770956D01*
X210791272Y-89776264D01*
X210790091Y-89781459D01*
X210790371Y-89785408D01*
X210788913Y-89800220D01*
X210788913Y-89901235D01*
X210790371Y-89916046D01*
X210790091Y-89919996D01*
X210791272Y-89925190D01*
X210791795Y-89930499D01*
X210793312Y-89934161D01*
X210796611Y-89948669D01*
X210847118Y-90100192D01*
X210859107Y-90127043D01*
X210862637Y-90131113D01*
X210864700Y-90136093D01*
X210883355Y-90158824D01*
X211135893Y-90411362D01*
X211158624Y-90430017D01*
X211163603Y-90432079D01*
X211167674Y-90435610D01*
X211194525Y-90447598D01*
X211346047Y-90498106D01*
X211360556Y-90501405D01*
X211364218Y-90502922D01*
X211369526Y-90503444D01*
X211374721Y-90504626D01*
X211378670Y-90504345D01*
X211393482Y-90505804D01*
X211494497Y-90505804D01*
X211509308Y-90504345D01*
X211513258Y-90504626D01*
X211518452Y-90503444D01*
X211523761Y-90502922D01*
X211527423Y-90501404D01*
X211541931Y-90498106D01*
X211693454Y-90447599D01*
X211720305Y-90435610D01*
X211724375Y-90432079D01*
X211729355Y-90430017D01*
X211752086Y-90411362D01*
X211954116Y-90209332D01*
X211972771Y-90186601D01*
X211974833Y-90181621D01*
X211978364Y-90177551D01*
X211990352Y-90150700D01*
X212035973Y-90013839D01*
X213054982Y-90013839D01*
X213054982Y-90072365D01*
X213077379Y-90126437D01*
X213096034Y-90149168D01*
X213954664Y-91007798D01*
X213977395Y-91026453D01*
X213982374Y-91028515D01*
X213986445Y-91032046D01*
X214013296Y-91044034D01*
X214164818Y-91094542D01*
X214179327Y-91097841D01*
X214182989Y-91099358D01*
X214188297Y-91099880D01*
X214193492Y-91101062D01*
X214197441Y-91100781D01*
X214212253Y-91102240D01*
X214313268Y-91102240D01*
X214328079Y-91100781D01*
X214332029Y-91101062D01*
X214337223Y-91099880D01*
X214342532Y-91099358D01*
X214346194Y-91097840D01*
X214360702Y-91094542D01*
X214512225Y-91044035D01*
X214539076Y-91032046D01*
X214543146Y-91028515D01*
X214548126Y-91026453D01*
X214562890Y-91014336D01*
X215469693Y-91014336D01*
X215469693Y-91072862D01*
X215492090Y-91126934D01*
X215510745Y-91149665D01*
X216394843Y-92033763D01*
X216418341Y-92104259D01*
X216383646Y-92208348D01*
X216377126Y-92237021D01*
X216381275Y-92295401D01*
X216407448Y-92347748D01*
X216451663Y-92386096D01*
X216507187Y-92404604D01*
X216565567Y-92400455D01*
X216617914Y-92374282D01*
X216656262Y-92330067D01*
X216668250Y-92303216D01*
X216718758Y-92151694D01*
X216720039Y-92146055D01*
X216721129Y-92143878D01*
X216721398Y-92140079D01*
X216725278Y-92123020D01*
X216723944Y-92104259D01*
X216725278Y-92085498D01*
X216721398Y-92068438D01*
X216721129Y-92064640D01*
X216720039Y-92062462D01*
X216718758Y-92056824D01*
X216706097Y-92018842D01*
X218007790Y-92018842D01*
X218007790Y-92119857D01*
X218009248Y-92134668D01*
X218008968Y-92138618D01*
X218010149Y-92143812D01*
X218010672Y-92149121D01*
X218012189Y-92152783D01*
X218015488Y-92167291D01*
X218065995Y-92318814D01*
X218066929Y-92320907D01*
X218067089Y-92321978D01*
X218072669Y-92333762D01*
X218077984Y-92345665D01*
X218078693Y-92346482D01*
X218079674Y-92348554D01*
X218231197Y-92601092D01*
X218234253Y-92605209D01*
X218235100Y-92607253D01*
X218242121Y-92615808D01*
X218248724Y-92624703D01*
X218250502Y-92626020D01*
X218253755Y-92629984D01*
X218506293Y-92882522D01*
X218510258Y-92885776D01*
X218511574Y-92887552D01*
X218520460Y-92894148D01*
X218529024Y-92901177D01*
X218531067Y-92902023D01*
X218535185Y-92905080D01*
X218787722Y-93056603D01*
X218789795Y-93057584D01*
X218790612Y-93058293D01*
X218802490Y-93063596D01*
X218814299Y-93069188D01*
X218815372Y-93069347D01*
X218817463Y-93070281D01*
X218968985Y-93120789D01*
X218983494Y-93124088D01*
X218987156Y-93125605D01*
X218992464Y-93126127D01*
X218997659Y-93127309D01*
X219001608Y-93127028D01*
X219016420Y-93128487D01*
X219117435Y-93128487D01*
X219132246Y-93127028D01*
X219136196Y-93127309D01*
X219141390Y-93126127D01*
X219146699Y-93125605D01*
X219150361Y-93124087D01*
X219164869Y-93120789D01*
X219316392Y-93070282D01*
X219343243Y-93058293D01*
X219347313Y-93054762D01*
X219352293Y-93052700D01*
X219375024Y-93034045D01*
X219476039Y-92933030D01*
X219494694Y-92910299D01*
X219496756Y-92905319D01*
X219500287Y-92901249D01*
X219512275Y-92874398D01*
X219562783Y-92722876D01*
X219566082Y-92708366D01*
X219567599Y-92704705D01*
X219568121Y-92699396D01*
X219569303Y-92694202D01*
X219569022Y-92690252D01*
X219570481Y-92675441D01*
X219570481Y-92574426D01*
X219569022Y-92559614D01*
X219569303Y-92555665D01*
X219568121Y-92550470D01*
X219567599Y-92545162D01*
X219566082Y-92541500D01*
X219562783Y-92526991D01*
X219512275Y-92375469D01*
X219511341Y-92373378D01*
X219511182Y-92372305D01*
X219505593Y-92360504D01*
X219500287Y-92348618D01*
X219499577Y-92347800D01*
X219498597Y-92345729D01*
X219347075Y-92093191D01*
X219344018Y-92089073D01*
X219343172Y-92087030D01*
X219336150Y-92078474D01*
X219329548Y-92069580D01*
X219327769Y-92068262D01*
X219324517Y-92064299D01*
X219071978Y-91811760D01*
X219068014Y-91808507D01*
X219066697Y-91806729D01*
X219057802Y-91800126D01*
X219049247Y-91793105D01*
X219047203Y-91792258D01*
X219043086Y-91789202D01*
X218871970Y-91686533D01*
X219525901Y-91686533D01*
X219525901Y-91745059D01*
X219548298Y-91799131D01*
X219589684Y-91840517D01*
X219643756Y-91862914D01*
X219702282Y-91862914D01*
X219756354Y-91840517D01*
X219779085Y-91821862D01*
X220587207Y-91013740D01*
X220605862Y-90991009D01*
X220628259Y-90936937D01*
X220628259Y-90878411D01*
X220605862Y-90824339D01*
X220564476Y-90782953D01*
X220510404Y-90760556D01*
X220451878Y-90760556D01*
X220397806Y-90782953D01*
X220375075Y-90801608D01*
X219566953Y-91609730D01*
X219548298Y-91632461D01*
X219525901Y-91686533D01*
X218871970Y-91686533D01*
X218790548Y-91637680D01*
X218788476Y-91636699D01*
X218787659Y-91635990D01*
X218775756Y-91630675D01*
X218763972Y-91625095D01*
X218762901Y-91624935D01*
X218760808Y-91624001D01*
X218609285Y-91573494D01*
X218594777Y-91570195D01*
X218591115Y-91568678D01*
X218585806Y-91568155D01*
X218580612Y-91566974D01*
X218576662Y-91567254D01*
X218561851Y-91565796D01*
X218460836Y-91565796D01*
X218446024Y-91567254D01*
X218442075Y-91566974D01*
X218436880Y-91568155D01*
X218431572Y-91568678D01*
X218427910Y-91570194D01*
X218413401Y-91573494D01*
X218261879Y-91624002D01*
X218235028Y-91635990D01*
X218230957Y-91639520D01*
X218225978Y-91641583D01*
X218203247Y-91660238D01*
X218102232Y-91761253D01*
X218083577Y-91783984D01*
X218081514Y-91788963D01*
X218077984Y-91793034D01*
X218065995Y-91819885D01*
X218015488Y-91971408D01*
X218012189Y-91985915D01*
X218010672Y-91989578D01*
X218010149Y-91994886D01*
X218008968Y-92000081D01*
X218009248Y-92004030D01*
X218007790Y-92018842D01*
X216706097Y-92018842D01*
X216668250Y-91905302D01*
X216656262Y-91878451D01*
X216652731Y-91874380D01*
X216650669Y-91869401D01*
X216632014Y-91846670D01*
X215722877Y-90937533D01*
X215700146Y-90918878D01*
X215646074Y-90896481D01*
X215587548Y-90896481D01*
X215533476Y-90918878D01*
X215492090Y-90960264D01*
X215469693Y-91014336D01*
X214562890Y-91014336D01*
X214570857Y-91007798D01*
X214705340Y-90873316D01*
X216427633Y-90873316D01*
X216428966Y-90892076D01*
X216427633Y-90910836D01*
X216431513Y-90927900D01*
X216431783Y-90931696D01*
X216432871Y-90933871D01*
X216434153Y-90939510D01*
X216484660Y-91091033D01*
X216496648Y-91117883D01*
X216500179Y-91121954D01*
X216502242Y-91126934D01*
X216520897Y-91149665D01*
X217076481Y-91705249D01*
X217099211Y-91723904D01*
X217153284Y-91746301D01*
X217211810Y-91746301D01*
X217265882Y-91723904D01*
X217307268Y-91682518D01*
X217323673Y-91642911D01*
X217330996Y-91640471D01*
X217357847Y-91628482D01*
X217361917Y-91624951D01*
X217366897Y-91622889D01*
X217389628Y-91604234D01*
X217642167Y-91351696D01*
X217660821Y-91328966D01*
X217662882Y-91323989D01*
X217666416Y-91319915D01*
X217678404Y-91293064D01*
X217728911Y-91141541D01*
X217730192Y-91135902D01*
X217731281Y-91133727D01*
X217731550Y-91129931D01*
X217735431Y-91112867D01*
X217734097Y-91094107D01*
X217735431Y-91075347D01*
X217731550Y-91058282D01*
X217731281Y-91054487D01*
X217730192Y-91052311D01*
X217728911Y-91046673D01*
X217678404Y-90895150D01*
X217666416Y-90868299D01*
X217662882Y-90864224D01*
X217660821Y-90859248D01*
X217642166Y-90836517D01*
X217541150Y-90735502D01*
X217518420Y-90716848D01*
X217513440Y-90714785D01*
X217509370Y-90711255D01*
X217482519Y-90699266D01*
X217330996Y-90648759D01*
X217325359Y-90647477D01*
X217323181Y-90646388D01*
X217319381Y-90646117D01*
X217302323Y-90642239D01*
X217283561Y-90643572D01*
X217264800Y-90642239D01*
X217247740Y-90646118D01*
X217243943Y-90646388D01*
X217241765Y-90647476D01*
X217236127Y-90648759D01*
X217084605Y-90699267D01*
X217057754Y-90711255D01*
X217053682Y-90714786D01*
X217048705Y-90716848D01*
X217025974Y-90735503D01*
X216798474Y-90963001D01*
X216768491Y-90972995D01*
X216758068Y-90962572D01*
X216734570Y-90892076D01*
X216758068Y-90821579D01*
X216910021Y-90669627D01*
X217027951Y-90630318D01*
X217054802Y-90618329D01*
X217099016Y-90579982D01*
X217125190Y-90527634D01*
X217129339Y-90469254D01*
X217110831Y-90413730D01*
X217072483Y-90369516D01*
X217020136Y-90343342D01*
X216961756Y-90339193D01*
X216933082Y-90345713D01*
X216781560Y-90396221D01*
X216754709Y-90408209D01*
X216750638Y-90411739D01*
X216745659Y-90413802D01*
X216722928Y-90432457D01*
X216520897Y-90634487D01*
X216502242Y-90657217D01*
X216500178Y-90662197D01*
X216496648Y-90666269D01*
X216484660Y-90693119D01*
X216434153Y-90844642D01*
X216432871Y-90850280D01*
X216431783Y-90852456D01*
X216431513Y-90856251D01*
X216427633Y-90873316D01*
X214705340Y-90873316D01*
X214772888Y-90805768D01*
X214791543Y-90783038D01*
X214793605Y-90778058D01*
X214797137Y-90773987D01*
X214809125Y-90747136D01*
X214859632Y-90595613D01*
X214862931Y-90581100D01*
X214864447Y-90577443D01*
X214864969Y-90572140D01*
X214866152Y-90566939D01*
X214865870Y-90562984D01*
X214867329Y-90548179D01*
X214867329Y-90447163D01*
X214865870Y-90432357D01*
X214866152Y-90428403D01*
X214864969Y-90423201D01*
X214864447Y-90417899D01*
X214862931Y-90414241D01*
X214859632Y-90399729D01*
X214809125Y-90248206D01*
X214797137Y-90221355D01*
X214793605Y-90217282D01*
X214791543Y-90212304D01*
X214772888Y-90189574D01*
X213914258Y-89330945D01*
X213897551Y-89317234D01*
X214568507Y-89317234D01*
X214572656Y-89375614D01*
X214598829Y-89427961D01*
X214643044Y-89466309D01*
X214698568Y-89484817D01*
X214756948Y-89480668D01*
X214809295Y-89454495D01*
X214847643Y-89410280D01*
X214859631Y-89383429D01*
X214898941Y-89265499D01*
X215000387Y-89164054D01*
X215070883Y-89140555D01*
X215141378Y-89164054D01*
X215141808Y-89164484D01*
X215165306Y-89234980D01*
X215141808Y-89305475D01*
X215015324Y-89431960D01*
X214996669Y-89454691D01*
X214994606Y-89459670D01*
X214991075Y-89463742D01*
X214979087Y-89490592D01*
X214928580Y-89642115D01*
X214927298Y-89647753D01*
X214926210Y-89649929D01*
X214925940Y-89653724D01*
X214922060Y-89670789D01*
X214923393Y-89689549D01*
X214922060Y-89708309D01*
X214925940Y-89725373D01*
X214926210Y-89729169D01*
X214927298Y-89731344D01*
X214928580Y-89736983D01*
X214979087Y-89888506D01*
X214991075Y-89915356D01*
X214994606Y-89919428D01*
X214996670Y-89924409D01*
X215015325Y-89947139D01*
X215065833Y-89997646D01*
X215088564Y-90016300D01*
X215093541Y-90018361D01*
X215097613Y-90021893D01*
X215124464Y-90033881D01*
X215275986Y-90084389D01*
X215281623Y-90085670D01*
X215283802Y-90086760D01*
X215287600Y-90087029D01*
X215304660Y-90090909D01*
X215323421Y-90089575D01*
X215342182Y-90090909D01*
X215359240Y-90087030D01*
X215363040Y-90086760D01*
X215365218Y-90085670D01*
X215370855Y-90084389D01*
X215522378Y-90033882D01*
X215549229Y-90021893D01*
X215553299Y-90018362D01*
X215558279Y-90016300D01*
X215581010Y-89997645D01*
X215646224Y-89932431D01*
X217386101Y-89932431D01*
X217386101Y-90033446D01*
X217387559Y-90048251D01*
X217387278Y-90052206D01*
X217388460Y-90057407D01*
X217388983Y-90062710D01*
X217390498Y-90066367D01*
X217393798Y-90080880D01*
X217444305Y-90232403D01*
X217456293Y-90259253D01*
X217459824Y-90263324D01*
X217461887Y-90268304D01*
X217480542Y-90291035D01*
X217783588Y-90594081D01*
X217806319Y-90612736D01*
X217811298Y-90614798D01*
X217815369Y-90618329D01*
X217842220Y-90630317D01*
X217993742Y-90680825D01*
X218008251Y-90684124D01*
X218011913Y-90685641D01*
X218017221Y-90686163D01*
X218022416Y-90687345D01*
X218026365Y-90687064D01*
X218041177Y-90688523D01*
X218142192Y-90688523D01*
X218157003Y-90687064D01*
X218160953Y-90687345D01*
X218166147Y-90686163D01*
X218171456Y-90685641D01*
X218175118Y-90684123D01*
X218189626Y-90680825D01*
X218341149Y-90630318D01*
X218368000Y-90618329D01*
X218372070Y-90614798D01*
X218377050Y-90612736D01*
X218399781Y-90594081D01*
X218601812Y-90392051D01*
X218620467Y-90369321D01*
X218622529Y-90364341D01*
X218626061Y-90360270D01*
X218638049Y-90333419D01*
X218640490Y-90326095D01*
X218680097Y-90309690D01*
X218721482Y-90268305D01*
X218743879Y-90214232D01*
X218743879Y-90155706D01*
X218721482Y-90101634D01*
X218702827Y-90078903D01*
X217642167Y-89018243D01*
X217619436Y-88999588D01*
X217606018Y-88994030D01*
X218197105Y-88994030D01*
X218197105Y-89052558D01*
X218219503Y-89106630D01*
X218260887Y-89148014D01*
X218314959Y-89170412D01*
X218344223Y-89173294D01*
X218820220Y-89173294D01*
X218902838Y-89751613D01*
X218909829Y-89780176D01*
X218939649Y-89830537D01*
X218986470Y-89865652D01*
X219043166Y-89880178D01*
X219101106Y-89871901D01*
X219151467Y-89842081D01*
X219186582Y-89795260D01*
X219201108Y-89738564D01*
X219200152Y-89716736D01*
X220182500Y-89716736D01*
X220182500Y-89775262D01*
X220204897Y-89829334D01*
X220246283Y-89870720D01*
X220300355Y-89893117D01*
X220358881Y-89893117D01*
X220412953Y-89870720D01*
X220435684Y-89852065D01*
X220844771Y-89442976D01*
X221059767Y-89618882D01*
X221059384Y-89619215D01*
X221054405Y-89621278D01*
X221031674Y-89639933D01*
X220779136Y-89892471D01*
X220760481Y-89915202D01*
X220758418Y-89920181D01*
X220754888Y-89924252D01*
X220742899Y-89951103D01*
X220692392Y-90102626D01*
X220689093Y-90117133D01*
X220687576Y-90120796D01*
X220687053Y-90126104D01*
X220685872Y-90131299D01*
X220686152Y-90135248D01*
X220684694Y-90150060D01*
X220684694Y-90251075D01*
X220686152Y-90265886D01*
X220685872Y-90269836D01*
X220687053Y-90275030D01*
X220687576Y-90280339D01*
X220689093Y-90284001D01*
X220692392Y-90298509D01*
X220742899Y-90450032D01*
X220754888Y-90476883D01*
X220758418Y-90480953D01*
X220760481Y-90485933D01*
X220779136Y-90508664D01*
X221031674Y-90761202D01*
X221054405Y-90779857D01*
X221059384Y-90781919D01*
X221063455Y-90785450D01*
X221090306Y-90797438D01*
X221241828Y-90847946D01*
X221256337Y-90851245D01*
X221259999Y-90852762D01*
X221265307Y-90853284D01*
X221270502Y-90854466D01*
X221274451Y-90854185D01*
X221289263Y-90855644D01*
X221390278Y-90855644D01*
X221405089Y-90854185D01*
X221409039Y-90854466D01*
X221414233Y-90853284D01*
X221419542Y-90852762D01*
X221423204Y-90851244D01*
X221437712Y-90847946D01*
X221589235Y-90797439D01*
X221616086Y-90785450D01*
X221620156Y-90781919D01*
X221625136Y-90779857D01*
X221647867Y-90761202D01*
X221900405Y-90508664D01*
X221919060Y-90485933D01*
X221921122Y-90480953D01*
X221924653Y-90476883D01*
X221936641Y-90450032D01*
X221987149Y-90298510D01*
X221990448Y-90284000D01*
X221991965Y-90280339D01*
X221992487Y-90275030D01*
X221993669Y-90269836D01*
X221993388Y-90265886D01*
X221994847Y-90251075D01*
X221994847Y-90150060D01*
X221991965Y-90120796D01*
X221969567Y-90066724D01*
X221928183Y-90025340D01*
X221874111Y-90002942D01*
X221815583Y-90002942D01*
X221761511Y-90025340D01*
X221720127Y-90066724D01*
X221697729Y-90120796D01*
X221694847Y-90150060D01*
X221694847Y-90226732D01*
X221663234Y-90321570D01*
X221460773Y-90524031D01*
X221365938Y-90555644D01*
X221313606Y-90555644D01*
X221218767Y-90524031D01*
X221016306Y-90321570D01*
X220984694Y-90226734D01*
X220984694Y-90174400D01*
X221016306Y-90079564D01*
X221218767Y-89877103D01*
X221313606Y-89845491D01*
X221390278Y-89845491D01*
X221419542Y-89842609D01*
X221426519Y-89839718D01*
X221434035Y-89838967D01*
X221453359Y-89828601D01*
X221473614Y-89820211D01*
X221478953Y-89814871D01*
X221485610Y-89811301D01*
X221499497Y-89794328D01*
X221514998Y-89778827D01*
X221517888Y-89771850D01*
X221522672Y-89766003D01*
X221529006Y-89745009D01*
X221537396Y-89724755D01*
X221537396Y-89717201D01*
X221539578Y-89709970D01*
X221537396Y-89688151D01*
X221537396Y-89666227D01*
X221534505Y-89659248D01*
X221533754Y-89651735D01*
X221523389Y-89632412D01*
X221514998Y-89612155D01*
X221509658Y-89606815D01*
X221506088Y-89600159D01*
X221485264Y-89579398D01*
X220929680Y-89124828D01*
X220920625Y-89118797D01*
X220918029Y-89116201D01*
X220914584Y-89114774D01*
X220905206Y-89108528D01*
X220884215Y-89102195D01*
X220863957Y-89093804D01*
X220856402Y-89093804D01*
X220849173Y-89091623D01*
X220827361Y-89093804D01*
X220805431Y-89093804D01*
X220798452Y-89096694D01*
X220790938Y-89097446D01*
X220771619Y-89107808D01*
X220751358Y-89116201D01*
X220742648Y-89123349D01*
X220739362Y-89125112D01*
X220737034Y-89127956D01*
X220728628Y-89134856D01*
X220223552Y-89639933D01*
X220204897Y-89662664D01*
X220182500Y-89716736D01*
X219200152Y-89716736D01*
X219199822Y-89709187D01*
X219128773Y-89211853D01*
X219349325Y-89432405D01*
X219372056Y-89451060D01*
X219426128Y-89473457D01*
X219484654Y-89473457D01*
X219538727Y-89451060D01*
X219580112Y-89409675D01*
X219602509Y-89355602D01*
X219602509Y-89297076D01*
X219580112Y-89243004D01*
X219561457Y-89220273D01*
X218537595Y-88196411D01*
X219104538Y-88196411D01*
X219108687Y-88254791D01*
X219134860Y-88307138D01*
X219179075Y-88345486D01*
X219234599Y-88363994D01*
X219292979Y-88359845D01*
X219345326Y-88333672D01*
X219383674Y-88289457D01*
X219395662Y-88262606D01*
X219434972Y-88144676D01*
X219586924Y-87992723D01*
X219681764Y-87961111D01*
X219734093Y-87961111D01*
X219828932Y-87992723D01*
X220081900Y-88245691D01*
X220113513Y-88340529D01*
X220113513Y-88392859D01*
X220081900Y-88487697D01*
X219929947Y-88639650D01*
X219812017Y-88678960D01*
X219785166Y-88690948D01*
X219740952Y-88729296D01*
X219714778Y-88781643D01*
X219710628Y-88840023D01*
X219729136Y-88895548D01*
X219767484Y-88939762D01*
X219819831Y-88965936D01*
X219878211Y-88970086D01*
X219906885Y-88963566D01*
X220058408Y-88913059D01*
X220085258Y-88901071D01*
X220089329Y-88897539D01*
X220094309Y-88895477D01*
X220117040Y-88876822D01*
X220258016Y-88735846D01*
X221290786Y-88735846D01*
X221290786Y-88836862D01*
X221292244Y-88851667D01*
X221291963Y-88855622D01*
X221293145Y-88860823D01*
X221293668Y-88866126D01*
X221295183Y-88869783D01*
X221298483Y-88884296D01*
X221348990Y-89035819D01*
X221360978Y-89062669D01*
X221364509Y-89066740D01*
X221366572Y-89071720D01*
X221385227Y-89094451D01*
X221486242Y-89195466D01*
X221497746Y-89204907D01*
X221500341Y-89207899D01*
X221504850Y-89210737D01*
X221508973Y-89214121D01*
X221512634Y-89215637D01*
X221525226Y-89223564D01*
X221727257Y-89324579D01*
X221754720Y-89335089D01*
X221760097Y-89335471D01*
X221765075Y-89337533D01*
X221794339Y-89340415D01*
X222644390Y-89340415D01*
X222243857Y-89740948D01*
X222225202Y-89763679D01*
X222202805Y-89817751D01*
X222202805Y-89876277D01*
X222225202Y-89930349D01*
X222266588Y-89971735D01*
X222320660Y-89994132D01*
X222379186Y-89994132D01*
X222433258Y-89971735D01*
X222455989Y-89953080D01*
X223112588Y-89296481D01*
X223131243Y-89273751D01*
X223148575Y-89231907D01*
X223153640Y-89219679D01*
X223153640Y-89161151D01*
X223138560Y-89124745D01*
X223131243Y-89107080D01*
X223089857Y-89065694D01*
X223055963Y-89051655D01*
X223035786Y-89043297D01*
X223006522Y-89040415D01*
X221829749Y-89040415D01*
X221681161Y-88966121D01*
X221622398Y-88907358D01*
X221590786Y-88812519D01*
X221590786Y-88760188D01*
X221622398Y-88665349D01*
X221824857Y-88462890D01*
X221919697Y-88431278D01*
X221996369Y-88431278D01*
X222025633Y-88428396D01*
X222079705Y-88405998D01*
X222121089Y-88364614D01*
X222143487Y-88310542D01*
X222143487Y-88252014D01*
X222121089Y-88197942D01*
X222079705Y-88156558D01*
X222025633Y-88134160D01*
X221996369Y-88131278D01*
X221895354Y-88131278D01*
X221880548Y-88132736D01*
X221876594Y-88132455D01*
X221871392Y-88133637D01*
X221866090Y-88134160D01*
X221862432Y-88135675D01*
X221847920Y-88138975D01*
X221696397Y-88189482D01*
X221669546Y-88201470D01*
X221665473Y-88205002D01*
X221660496Y-88207064D01*
X221637765Y-88225719D01*
X221385227Y-88478257D01*
X221366572Y-88500988D01*
X221364509Y-88505967D01*
X221360978Y-88510039D01*
X221348990Y-88536889D01*
X221298483Y-88688412D01*
X221295183Y-88702924D01*
X221293668Y-88706582D01*
X221293145Y-88711884D01*
X221291963Y-88717086D01*
X221292244Y-88721040D01*
X221290786Y-88735846D01*
X220258016Y-88735846D01*
X220319071Y-88674791D01*
X220337726Y-88652060D01*
X220339788Y-88647080D01*
X220343319Y-88643010D01*
X220355307Y-88616159D01*
X220405815Y-88464637D01*
X220409114Y-88450127D01*
X220410631Y-88446466D01*
X220411153Y-88441157D01*
X220412335Y-88435963D01*
X220412054Y-88432013D01*
X220413513Y-88417202D01*
X220413513Y-88316187D01*
X220412054Y-88301375D01*
X220412335Y-88297426D01*
X220411153Y-88292231D01*
X220410631Y-88286923D01*
X220409114Y-88283261D01*
X220405815Y-88268752D01*
X220355307Y-88117230D01*
X220343319Y-88090379D01*
X220339788Y-88086308D01*
X220337726Y-88081329D01*
X220319071Y-88058598D01*
X220016025Y-87755552D01*
X219993294Y-87736897D01*
X219988314Y-87734834D01*
X219984243Y-87731303D01*
X219957393Y-87719315D01*
X219805870Y-87668808D01*
X219791357Y-87665508D01*
X219787700Y-87663993D01*
X219782397Y-87663470D01*
X219777196Y-87662288D01*
X219773241Y-87662569D01*
X219758436Y-87661111D01*
X219657421Y-87661111D01*
X219642615Y-87662569D01*
X219638661Y-87662288D01*
X219633459Y-87663470D01*
X219628157Y-87663993D01*
X219624499Y-87665508D01*
X219609987Y-87668808D01*
X219458464Y-87719315D01*
X219431613Y-87731303D01*
X219427541Y-87734834D01*
X219422562Y-87736897D01*
X219399832Y-87755552D01*
X219197802Y-87957583D01*
X219179147Y-87980314D01*
X219177084Y-87985293D01*
X219173554Y-87989364D01*
X219161565Y-88016215D01*
X219111058Y-88167738D01*
X219104538Y-88196411D01*
X218537595Y-88196411D01*
X218500797Y-88159613D01*
X218478066Y-88140958D01*
X218423994Y-88118561D01*
X218365468Y-88118561D01*
X218311396Y-88140958D01*
X218270010Y-88182344D01*
X218247613Y-88236416D01*
X218247613Y-88294942D01*
X218270010Y-88349014D01*
X218288665Y-88371745D01*
X218790214Y-88873294D01*
X218344223Y-88873294D01*
X218314959Y-88876176D01*
X218260887Y-88898574D01*
X218219503Y-88939958D01*
X218197105Y-88994030D01*
X217606018Y-88994030D01*
X217565364Y-88977191D01*
X217506838Y-88977191D01*
X217452766Y-88999588D01*
X217411380Y-89040974D01*
X217388983Y-89095046D01*
X217388983Y-89153572D01*
X217411380Y-89207644D01*
X217430035Y-89230375D01*
X217677522Y-89477862D01*
X217480542Y-89674842D01*
X217461887Y-89697572D01*
X217459823Y-89702552D01*
X217456293Y-89706624D01*
X217444305Y-89733474D01*
X217393798Y-89884997D01*
X217390498Y-89899509D01*
X217388983Y-89903167D01*
X217388460Y-89908469D01*
X217387278Y-89913671D01*
X217387559Y-89917625D01*
X217386101Y-89932431D01*
X215646224Y-89932431D01*
X215783040Y-89795615D01*
X215801695Y-89772884D01*
X215803757Y-89767904D01*
X215807288Y-89763834D01*
X215819276Y-89736983D01*
X215869784Y-89585461D01*
X215876304Y-89556787D01*
X215872155Y-89498407D01*
X215845981Y-89446060D01*
X215801767Y-89407712D01*
X215746243Y-89389204D01*
X215687863Y-89393353D01*
X215635515Y-89419527D01*
X215597168Y-89463741D01*
X215585179Y-89490592D01*
X215545869Y-89608521D01*
X215393916Y-89760474D01*
X215323421Y-89783973D01*
X215252925Y-89760474D01*
X215252495Y-89760044D01*
X215228997Y-89689549D01*
X215252495Y-89619052D01*
X215378979Y-89492569D01*
X215397634Y-89469838D01*
X215399696Y-89464858D01*
X215403227Y-89460788D01*
X215415215Y-89433937D01*
X215465723Y-89282415D01*
X215467004Y-89276776D01*
X215468094Y-89274599D01*
X215468363Y-89270800D01*
X215472243Y-89253741D01*
X215470909Y-89234980D01*
X215472243Y-89216219D01*
X215468363Y-89199159D01*
X215468094Y-89195361D01*
X215467004Y-89193183D01*
X215465723Y-89187545D01*
X215415215Y-89036023D01*
X215403227Y-89009172D01*
X215399696Y-89005101D01*
X215397634Y-89000122D01*
X215378979Y-88977391D01*
X215328472Y-88926884D01*
X215305741Y-88908229D01*
X215300761Y-88906166D01*
X215296691Y-88902636D01*
X215269840Y-88890647D01*
X215118317Y-88840140D01*
X215112680Y-88838858D01*
X215110502Y-88837769D01*
X215106702Y-88837498D01*
X215089644Y-88833620D01*
X215070883Y-88834953D01*
X215052122Y-88833620D01*
X215035062Y-88837499D01*
X215031264Y-88837769D01*
X215029085Y-88838858D01*
X215023448Y-88840140D01*
X214871926Y-88890648D01*
X214845075Y-88902636D01*
X214841004Y-88906166D01*
X214836025Y-88908229D01*
X214813294Y-88926884D01*
X214661771Y-89078406D01*
X214643116Y-89101136D01*
X214641052Y-89106117D01*
X214637523Y-89110187D01*
X214625534Y-89137038D01*
X214575027Y-89288561D01*
X214568507Y-89317234D01*
X213897551Y-89317234D01*
X213891527Y-89312290D01*
X213837455Y-89289893D01*
X213778929Y-89289893D01*
X213724857Y-89312290D01*
X213683471Y-89353676D01*
X213661074Y-89407748D01*
X213661074Y-89466274D01*
X213683471Y-89520346D01*
X213702126Y-89543077D01*
X214535716Y-90376666D01*
X214567329Y-90471505D01*
X214567329Y-90523836D01*
X214535716Y-90618675D01*
X214383763Y-90770627D01*
X214288928Y-90802240D01*
X214236596Y-90802240D01*
X214141757Y-90770627D01*
X213308166Y-89937036D01*
X213285435Y-89918381D01*
X213231363Y-89895984D01*
X213172837Y-89895984D01*
X213118765Y-89918381D01*
X213077379Y-89959767D01*
X213054982Y-90013839D01*
X212035973Y-90013839D01*
X212040860Y-89999178D01*
X212044159Y-89984668D01*
X212045676Y-89981007D01*
X212046198Y-89975698D01*
X212047380Y-89970504D01*
X212047099Y-89966554D01*
X212048558Y-89951743D01*
X212048558Y-89850728D01*
X212047099Y-89835916D01*
X212047380Y-89831967D01*
X212046198Y-89826772D01*
X212045676Y-89821464D01*
X212044159Y-89817802D01*
X212040860Y-89803293D01*
X211990352Y-89651771D01*
X211978364Y-89624920D01*
X211974833Y-89620849D01*
X211972771Y-89615870D01*
X211954116Y-89593139D01*
X211550055Y-89189078D01*
X211546091Y-89185825D01*
X211544774Y-89184047D01*
X211535879Y-89177444D01*
X211527324Y-89170423D01*
X211525280Y-89169576D01*
X211521163Y-89166520D01*
X211268625Y-89014997D01*
X211252078Y-89007161D01*
X211248999Y-89005099D01*
X211245425Y-89004011D01*
X211242049Y-89002412D01*
X211238381Y-89001866D01*
X211220868Y-88996534D01*
X210968331Y-88946026D01*
X210968226Y-88946015D01*
X210968177Y-88945995D01*
X210953526Y-88944552D01*
X210939070Y-88943113D01*
X210939017Y-88943123D01*
X210938913Y-88943113D01*
X210837898Y-88943113D01*
X210823086Y-88944571D01*
X210819137Y-88944291D01*
X210813942Y-88945472D01*
X210808634Y-88945995D01*
X210804972Y-88947511D01*
X210790463Y-88950811D01*
X210638941Y-89001319D01*
X210612090Y-89013307D01*
X210608019Y-89016837D01*
X210603040Y-89018900D01*
X210580309Y-89037555D01*
X210378279Y-89239585D01*
X210359624Y-89262316D01*
X210337227Y-89316388D01*
X209964759Y-89316388D01*
X210974911Y-88306236D01*
X211347379Y-88306236D01*
X211347379Y-88364762D01*
X211369776Y-88418834D01*
X211411162Y-88460220D01*
X211465234Y-88482617D01*
X211523760Y-88482617D01*
X211577832Y-88460220D01*
X211600563Y-88441565D01*
X211777554Y-88264573D01*
X211872393Y-88232961D01*
X211934212Y-88232961D01*
X212146709Y-88275460D01*
X212169463Y-88289113D01*
X212154170Y-88294211D01*
X212127319Y-88306200D01*
X212123248Y-88309730D01*
X212118269Y-88311793D01*
X212095538Y-88330448D01*
X211893507Y-88532479D01*
X211874852Y-88555210D01*
X211872789Y-88560189D01*
X211869259Y-88564260D01*
X211857270Y-88591111D01*
X211806763Y-88742634D01*
X211803464Y-88757141D01*
X211801947Y-88760804D01*
X211801424Y-88766112D01*
X211800243Y-88771307D01*
X211800523Y-88775256D01*
X211799065Y-88790068D01*
X211799065Y-88891083D01*
X211800523Y-88905894D01*
X211800243Y-88909844D01*
X211801424Y-88915038D01*
X211801947Y-88920347D01*
X211803464Y-88924009D01*
X211806763Y-88938517D01*
X211857270Y-89090040D01*
X211869259Y-89116891D01*
X211872789Y-89120961D01*
X211874852Y-89125941D01*
X211893507Y-89148672D01*
X212146045Y-89401210D01*
X212168776Y-89419865D01*
X212173755Y-89421927D01*
X212177826Y-89425458D01*
X212204677Y-89437446D01*
X212356199Y-89487954D01*
X212370708Y-89491253D01*
X212374370Y-89492770D01*
X212379678Y-89493292D01*
X212384873Y-89494474D01*
X212388822Y-89494193D01*
X212403634Y-89495652D01*
X212504649Y-89495652D01*
X212519460Y-89494193D01*
X212523410Y-89494474D01*
X212528604Y-89493292D01*
X212533913Y-89492770D01*
X212537575Y-89491252D01*
X212552083Y-89487954D01*
X212703606Y-89437447D01*
X212730457Y-89425458D01*
X212734527Y-89421927D01*
X212739507Y-89419865D01*
X212762238Y-89401210D01*
X212964269Y-89199179D01*
X212982924Y-89176448D01*
X212984986Y-89171468D01*
X212988517Y-89167398D01*
X213000506Y-89140547D01*
X213051013Y-88989025D01*
X213054311Y-88974515D01*
X213055828Y-88970855D01*
X213056350Y-88965546D01*
X213057532Y-88960351D01*
X213057251Y-88956402D01*
X213058710Y-88941591D01*
X213058710Y-88840575D01*
X213057251Y-88825769D01*
X213057533Y-88821815D01*
X213056350Y-88816613D01*
X213055828Y-88811311D01*
X213054312Y-88807653D01*
X213051013Y-88793141D01*
X213000506Y-88641618D01*
X212988518Y-88614767D01*
X212984985Y-88610694D01*
X212982924Y-88605717D01*
X212964269Y-88582986D01*
X212560208Y-88178925D01*
X212556244Y-88175672D01*
X212554927Y-88173894D01*
X212546032Y-88167291D01*
X212537477Y-88160270D01*
X212535433Y-88159423D01*
X212531316Y-88156367D01*
X212278778Y-88004845D01*
X212262231Y-87997009D01*
X212259152Y-87994947D01*
X212255578Y-87993859D01*
X212252202Y-87992260D01*
X212248534Y-87991714D01*
X212231021Y-87986382D01*
X211978483Y-87935874D01*
X211978378Y-87935863D01*
X211978329Y-87935843D01*
X211963678Y-87934400D01*
X211949222Y-87932961D01*
X211949169Y-87932971D01*
X211949065Y-87932961D01*
X211848050Y-87932961D01*
X211833238Y-87934419D01*
X211829289Y-87934139D01*
X211824094Y-87935320D01*
X211818786Y-87935843D01*
X211815124Y-87937359D01*
X211800615Y-87940659D01*
X211649093Y-87991167D01*
X211622242Y-88003155D01*
X211618171Y-88006685D01*
X211613192Y-88008748D01*
X211590461Y-88027403D01*
X211388431Y-88229433D01*
X211369776Y-88252164D01*
X211347379Y-88306236D01*
X210974911Y-88306236D01*
X211985063Y-87296084D01*
X212357531Y-87296084D01*
X212357531Y-87354610D01*
X212379928Y-87408682D01*
X212421314Y-87450068D01*
X212475386Y-87472465D01*
X212533912Y-87472465D01*
X212587984Y-87450068D01*
X212610715Y-87431413D01*
X212787706Y-87254421D01*
X212882545Y-87222809D01*
X212944366Y-87222809D01*
X213156860Y-87265307D01*
X213179617Y-87278961D01*
X213164322Y-87284060D01*
X213137471Y-87296048D01*
X213133400Y-87299578D01*
X213128421Y-87301641D01*
X213105690Y-87320296D01*
X212903659Y-87522327D01*
X212885004Y-87545058D01*
X212882941Y-87550037D01*
X212879411Y-87554108D01*
X212867422Y-87580959D01*
X212816915Y-87732481D01*
X212813615Y-87746993D01*
X212812100Y-87750651D01*
X212811577Y-87755953D01*
X212810395Y-87761155D01*
X212810676Y-87765109D01*
X212809218Y-87779915D01*
X212809218Y-87880931D01*
X212810676Y-87895736D01*
X212810395Y-87899691D01*
X212811577Y-87904892D01*
X212812100Y-87910195D01*
X212813615Y-87913852D01*
X212816915Y-87928365D01*
X212867422Y-88079888D01*
X212879410Y-88106738D01*
X212882941Y-88110809D01*
X212885004Y-88115789D01*
X212903659Y-88138520D01*
X213156197Y-88391058D01*
X213178928Y-88409713D01*
X213183905Y-88411774D01*
X213187978Y-88415307D01*
X213214829Y-88427295D01*
X213366352Y-88477802D01*
X213380864Y-88481101D01*
X213384522Y-88482617D01*
X213389824Y-88483139D01*
X213395026Y-88484322D01*
X213398980Y-88484040D01*
X213413786Y-88485499D01*
X213514802Y-88485499D01*
X213529607Y-88484040D01*
X213533562Y-88484322D01*
X213538763Y-88483139D01*
X213544066Y-88482617D01*
X213547723Y-88481101D01*
X213562236Y-88477802D01*
X213713758Y-88427295D01*
X213714737Y-88426858D01*
X215476467Y-88426858D01*
X215476467Y-88527873D01*
X215477925Y-88542678D01*
X215477644Y-88546633D01*
X215478826Y-88551834D01*
X215479349Y-88557137D01*
X215480864Y-88560794D01*
X215484164Y-88575307D01*
X215534671Y-88726830D01*
X215546659Y-88753680D01*
X215550190Y-88757751D01*
X215552253Y-88762731D01*
X215570908Y-88785462D01*
X215873954Y-89088508D01*
X215896685Y-89107163D01*
X215901664Y-89109225D01*
X215905735Y-89112756D01*
X215932586Y-89124744D01*
X216084108Y-89175252D01*
X216098617Y-89178551D01*
X216102279Y-89180068D01*
X216107587Y-89180590D01*
X216112782Y-89181772D01*
X216116731Y-89181491D01*
X216131543Y-89182950D01*
X216232558Y-89182950D01*
X216247369Y-89181491D01*
X216251319Y-89181772D01*
X216256513Y-89180590D01*
X216261822Y-89180068D01*
X216265484Y-89178550D01*
X216279992Y-89175252D01*
X216431515Y-89124745D01*
X216458366Y-89112756D01*
X216462436Y-89109225D01*
X216467416Y-89107163D01*
X216490147Y-89088508D01*
X216692178Y-88886477D01*
X216710833Y-88863746D01*
X216712894Y-88858768D01*
X216716427Y-88854696D01*
X216728415Y-88827845D01*
X216730855Y-88820522D01*
X216770463Y-88804117D01*
X216811848Y-88762732D01*
X216834245Y-88708659D01*
X216834245Y-88650133D01*
X216811848Y-88596061D01*
X216793193Y-88573330D01*
X215732533Y-87512670D01*
X215709802Y-87494015D01*
X215655730Y-87471618D01*
X215597204Y-87471618D01*
X215543132Y-87494015D01*
X215501746Y-87535401D01*
X215479349Y-87589473D01*
X215479349Y-87647999D01*
X215501746Y-87702071D01*
X215520401Y-87724802D01*
X215767888Y-87972289D01*
X215570908Y-88169269D01*
X215552253Y-88191999D01*
X215550189Y-88196979D01*
X215546659Y-88201051D01*
X215534671Y-88227901D01*
X215484164Y-88379424D01*
X215480864Y-88393936D01*
X215479349Y-88397594D01*
X215478826Y-88402896D01*
X215477644Y-88408098D01*
X215477925Y-88412052D01*
X215476467Y-88426858D01*
X213714737Y-88426858D01*
X213740609Y-88415306D01*
X213744679Y-88411775D01*
X213749659Y-88409713D01*
X213772390Y-88391058D01*
X213974421Y-88189027D01*
X213993076Y-88166296D01*
X213995138Y-88161316D01*
X213998669Y-88157246D01*
X214010657Y-88130395D01*
X214061165Y-87978873D01*
X214064464Y-87964363D01*
X214065981Y-87960702D01*
X214066503Y-87955393D01*
X214067685Y-87950199D01*
X214067404Y-87946249D01*
X214068863Y-87931438D01*
X214068863Y-87830423D01*
X214067404Y-87815611D01*
X214067685Y-87811662D01*
X214066503Y-87806467D01*
X214065981Y-87801159D01*
X214064464Y-87797497D01*
X214061165Y-87782988D01*
X214010657Y-87631466D01*
X213998669Y-87604615D01*
X213995138Y-87600544D01*
X213993076Y-87595565D01*
X213974421Y-87572834D01*
X213570360Y-87168773D01*
X213566396Y-87165520D01*
X213565079Y-87163742D01*
X213556184Y-87157139D01*
X213547629Y-87150118D01*
X213545585Y-87149271D01*
X213541468Y-87146215D01*
X213288930Y-86994692D01*
X213272380Y-86986855D01*
X213269303Y-86984794D01*
X213265732Y-86983706D01*
X213262354Y-86982107D01*
X213258685Y-86981561D01*
X213241173Y-86976229D01*
X212988635Y-86925722D01*
X212988532Y-86925711D01*
X212988482Y-86925691D01*
X212973738Y-86924239D01*
X212959374Y-86922809D01*
X212959322Y-86922819D01*
X212959218Y-86922809D01*
X212858202Y-86922809D01*
X212843390Y-86924267D01*
X212839442Y-86923987D01*
X212834246Y-86925168D01*
X212828938Y-86925691D01*
X212825277Y-86927207D01*
X212810768Y-86930506D01*
X212659246Y-86981013D01*
X212632395Y-86993002D01*
X212628324Y-86996532D01*
X212623345Y-86998595D01*
X212600614Y-87017250D01*
X212398583Y-87219281D01*
X212379928Y-87242012D01*
X212357531Y-87296084D01*
X211985063Y-87296084D01*
X212995215Y-86285932D01*
X213367683Y-86285932D01*
X213367683Y-86344458D01*
X213390080Y-86398530D01*
X213431466Y-86439916D01*
X213485538Y-86462313D01*
X213544064Y-86462313D01*
X213598136Y-86439916D01*
X213620867Y-86421261D01*
X213797859Y-86244268D01*
X213892698Y-86212656D01*
X213954517Y-86212656D01*
X214167013Y-86255155D01*
X214189769Y-86268809D01*
X214174474Y-86273908D01*
X214147623Y-86285896D01*
X214143552Y-86289426D01*
X214138573Y-86291489D01*
X214115842Y-86310144D01*
X213913812Y-86512174D01*
X213895157Y-86534905D01*
X213893094Y-86539884D01*
X213889564Y-86543955D01*
X213877575Y-86570806D01*
X213827068Y-86722329D01*
X213823769Y-86736836D01*
X213822252Y-86740499D01*
X213821729Y-86745807D01*
X213820548Y-86751002D01*
X213820828Y-86754951D01*
X213819370Y-86769763D01*
X213819370Y-86870779D01*
X213820828Y-86885590D01*
X213820548Y-86889540D01*
X213821729Y-86894734D01*
X213822252Y-86900043D01*
X213823768Y-86903704D01*
X213827068Y-86918214D01*
X213877576Y-87069735D01*
X213889564Y-87096586D01*
X213893094Y-87100656D01*
X213895157Y-87105636D01*
X213913812Y-87128367D01*
X214166350Y-87380906D01*
X214189080Y-87399560D01*
X214194056Y-87401621D01*
X214198131Y-87405155D01*
X214224982Y-87417143D01*
X214376505Y-87467650D01*
X214391017Y-87470949D01*
X214394675Y-87472465D01*
X214399977Y-87472987D01*
X214405179Y-87474170D01*
X214409133Y-87473888D01*
X214423939Y-87475347D01*
X214524954Y-87475347D01*
X214539759Y-87473888D01*
X214543714Y-87474170D01*
X214548915Y-87472987D01*
X214554218Y-87472465D01*
X214557875Y-87470949D01*
X214572388Y-87467650D01*
X214629980Y-87448453D01*
X216437289Y-87448453D01*
X216438622Y-87467213D01*
X216437289Y-87485973D01*
X216441169Y-87503037D01*
X216441439Y-87506833D01*
X216442527Y-87509008D01*
X216443809Y-87514647D01*
X216494316Y-87666170D01*
X216506304Y-87693020D01*
X216509835Y-87697091D01*
X216511898Y-87702071D01*
X216530553Y-87724802D01*
X217086137Y-88280386D01*
X217108867Y-88299041D01*
X217162940Y-88321438D01*
X217221466Y-88321438D01*
X217275538Y-88299041D01*
X217316924Y-88257655D01*
X217339321Y-88203583D01*
X217339321Y-88145057D01*
X217316924Y-88090984D01*
X217298269Y-88068254D01*
X216767724Y-87537709D01*
X216744226Y-87467213D01*
X216767724Y-87396716D01*
X216869168Y-87295272D01*
X216939665Y-87271774D01*
X217010161Y-87295272D01*
X217540706Y-87825817D01*
X217563436Y-87844472D01*
X217617509Y-87866869D01*
X217676035Y-87866869D01*
X217730107Y-87844472D01*
X217771493Y-87803086D01*
X217793890Y-87749014D01*
X217793890Y-87690488D01*
X217771493Y-87636415D01*
X217752838Y-87613685D01*
X217222292Y-87083139D01*
X217198793Y-87012644D01*
X217222292Y-86942149D01*
X217323738Y-86840703D01*
X217418577Y-86809091D01*
X217433117Y-86809091D01*
X217995275Y-87371249D01*
X218018005Y-87389904D01*
X218072078Y-87412301D01*
X218130604Y-87412301D01*
X218184676Y-87389904D01*
X218226062Y-87348518D01*
X218248459Y-87294446D01*
X218248459Y-87235920D01*
X218227889Y-87186259D01*
X220114690Y-87186259D01*
X220116023Y-87205019D01*
X220114690Y-87223779D01*
X220118570Y-87240843D01*
X220118840Y-87244639D01*
X220119928Y-87246814D01*
X220121210Y-87252453D01*
X220171717Y-87403976D01*
X220183705Y-87430826D01*
X220187236Y-87434897D01*
X220189299Y-87439877D01*
X220207954Y-87462608D01*
X220763538Y-88018192D01*
X220786268Y-88036847D01*
X220840341Y-88059244D01*
X220898867Y-88059244D01*
X220952939Y-88036847D01*
X220994325Y-87995461D01*
X221010730Y-87955854D01*
X221018053Y-87953414D01*
X221044904Y-87941425D01*
X221048974Y-87937894D01*
X221053954Y-87935832D01*
X221076685Y-87917177D01*
X221318676Y-87675187D01*
X222351445Y-87675187D01*
X222351445Y-87776202D01*
X222352903Y-87791013D01*
X222352623Y-87794963D01*
X222353804Y-87800157D01*
X222354327Y-87805466D01*
X222355844Y-87809128D01*
X222359143Y-87823636D01*
X222409650Y-87975159D01*
X222410584Y-87977252D01*
X222410744Y-87978323D01*
X222416324Y-87990107D01*
X222421639Y-88002010D01*
X222422348Y-88002827D01*
X222423329Y-88004899D01*
X222574852Y-88257437D01*
X222577908Y-88261554D01*
X222578755Y-88263598D01*
X222585776Y-88272153D01*
X222592379Y-88281048D01*
X222594157Y-88282365D01*
X222597410Y-88286329D01*
X222849948Y-88538867D01*
X222853913Y-88542121D01*
X222855229Y-88543897D01*
X222864115Y-88550493D01*
X222872679Y-88557522D01*
X222874722Y-88558368D01*
X222878840Y-88561425D01*
X223131377Y-88712948D01*
X223133448Y-88713928D01*
X223134267Y-88714639D01*
X223146182Y-88719958D01*
X223157954Y-88725533D01*
X223159024Y-88725692D01*
X223161118Y-88726627D01*
X223312641Y-88777134D01*
X223327153Y-88780433D01*
X223330811Y-88781949D01*
X223336113Y-88782471D01*
X223341315Y-88783654D01*
X223345269Y-88783372D01*
X223360075Y-88784831D01*
X223461090Y-88784831D01*
X223475895Y-88783372D01*
X223479850Y-88783654D01*
X223485051Y-88782471D01*
X223490354Y-88781949D01*
X223494011Y-88780433D01*
X223508524Y-88777134D01*
X223660047Y-88726627D01*
X223686897Y-88714639D01*
X223690969Y-88711107D01*
X223695948Y-88709045D01*
X223718678Y-88690391D01*
X223819694Y-88589376D01*
X223838349Y-88566645D01*
X223840410Y-88561668D01*
X223843944Y-88557594D01*
X223855932Y-88530743D01*
X223906439Y-88379220D01*
X223909738Y-88364707D01*
X223911254Y-88361050D01*
X223911776Y-88355747D01*
X223912959Y-88350546D01*
X223912677Y-88346591D01*
X223914136Y-88331786D01*
X223914136Y-88230770D01*
X223912677Y-88215958D01*
X223912958Y-88212010D01*
X223911776Y-88206814D01*
X223911254Y-88201506D01*
X223909737Y-88197845D01*
X223906439Y-88183336D01*
X223855932Y-88031814D01*
X223854997Y-88029720D01*
X223854838Y-88028650D01*
X223849254Y-88016857D01*
X223843943Y-88004963D01*
X223843234Y-88004146D01*
X223842253Y-88002073D01*
X223690730Y-87749535D01*
X223687673Y-87745417D01*
X223686827Y-87743374D01*
X223679805Y-87734818D01*
X223673203Y-87725924D01*
X223671424Y-87724606D01*
X223668172Y-87720643D01*
X223415634Y-87468105D01*
X223411670Y-87464852D01*
X223410353Y-87463074D01*
X223401458Y-87456471D01*
X223392903Y-87449450D01*
X223390859Y-87448603D01*
X223386742Y-87445547D01*
X223134203Y-87294024D01*
X223132131Y-87293043D01*
X223131313Y-87292333D01*
X223119400Y-87287014D01*
X223107627Y-87281439D01*
X223106556Y-87281279D01*
X223104463Y-87280345D01*
X222952940Y-87229838D01*
X222938427Y-87226538D01*
X222934770Y-87225023D01*
X222929467Y-87224500D01*
X222924266Y-87223318D01*
X222920311Y-87223599D01*
X222905506Y-87222141D01*
X222804491Y-87222141D01*
X222789685Y-87223599D01*
X222785731Y-87223318D01*
X222780529Y-87224500D01*
X222775227Y-87225023D01*
X222771569Y-87226538D01*
X222757057Y-87229838D01*
X222605534Y-87280345D01*
X222578683Y-87292333D01*
X222574608Y-87295866D01*
X222569632Y-87297928D01*
X222546901Y-87316583D01*
X222445886Y-87417599D01*
X222427232Y-87440329D01*
X222425169Y-87445308D01*
X222421639Y-87449379D01*
X222409650Y-87476230D01*
X222359143Y-87627753D01*
X222355844Y-87642260D01*
X222354327Y-87645923D01*
X222353804Y-87651231D01*
X222352623Y-87656426D01*
X222352903Y-87660375D01*
X222351445Y-87675187D01*
X221318676Y-87675187D01*
X221329224Y-87664639D01*
X221347878Y-87641909D01*
X221349939Y-87636932D01*
X221353473Y-87632858D01*
X221365461Y-87606007D01*
X221415968Y-87454484D01*
X221417249Y-87448845D01*
X221418338Y-87446670D01*
X221418607Y-87442874D01*
X221422488Y-87425810D01*
X221421154Y-87407050D01*
X221422488Y-87388290D01*
X221418607Y-87371225D01*
X221418338Y-87367430D01*
X221417249Y-87365254D01*
X221415968Y-87359616D01*
X221365461Y-87208093D01*
X221353473Y-87181242D01*
X221349939Y-87177167D01*
X221347878Y-87172191D01*
X221329223Y-87149460D01*
X221228207Y-87048445D01*
X221205477Y-87029791D01*
X221200497Y-87027728D01*
X221196427Y-87024198D01*
X221169576Y-87012209D01*
X221018053Y-86961702D01*
X221012416Y-86960420D01*
X221010238Y-86959331D01*
X221006438Y-86959060D01*
X220989380Y-86955182D01*
X220970618Y-86956515D01*
X220951857Y-86955182D01*
X220934797Y-86959061D01*
X220931000Y-86959331D01*
X220928822Y-86960419D01*
X220923184Y-86961702D01*
X220771662Y-87012210D01*
X220744811Y-87024198D01*
X220740739Y-87027729D01*
X220735762Y-87029791D01*
X220713031Y-87048446D01*
X220485531Y-87275944D01*
X220455548Y-87285938D01*
X220445125Y-87275515D01*
X220421627Y-87205019D01*
X220445125Y-87134522D01*
X220597078Y-86982570D01*
X220715008Y-86943261D01*
X220741859Y-86931272D01*
X220786073Y-86892925D01*
X220812247Y-86840577D01*
X220816396Y-86782197D01*
X220797888Y-86726673D01*
X220759540Y-86682459D01*
X220707193Y-86656285D01*
X220648813Y-86652136D01*
X220620139Y-86658656D01*
X220468617Y-86709164D01*
X220441766Y-86721152D01*
X220437695Y-86724682D01*
X220432716Y-86726745D01*
X220409985Y-86745400D01*
X220207954Y-86947430D01*
X220189299Y-86970160D01*
X220187235Y-86975140D01*
X220183705Y-86979212D01*
X220171717Y-87006062D01*
X220121210Y-87157585D01*
X220119928Y-87163223D01*
X220118840Y-87165399D01*
X220118570Y-87169194D01*
X220114690Y-87186259D01*
X218227889Y-87186259D01*
X218226062Y-87181847D01*
X218207407Y-87159117D01*
X217500300Y-86452010D01*
X217477569Y-86433355D01*
X217423497Y-86410958D01*
X217364971Y-86410958D01*
X217310899Y-86433355D01*
X217269513Y-86474741D01*
X217247116Y-86528813D01*
X217247116Y-86550017D01*
X217195277Y-86567297D01*
X217168426Y-86579285D01*
X217164355Y-86582815D01*
X217159376Y-86584878D01*
X217136645Y-86603533D01*
X216985122Y-86755056D01*
X216966467Y-86777787D01*
X216964404Y-86782766D01*
X216960874Y-86786837D01*
X216948886Y-86813688D01*
X216898378Y-86965209D01*
X216897238Y-86970218D01*
X216892231Y-86971357D01*
X216740708Y-87021864D01*
X216713857Y-87033852D01*
X216709784Y-87037384D01*
X216704807Y-87039446D01*
X216682076Y-87058101D01*
X216530553Y-87209624D01*
X216511898Y-87232355D01*
X216509835Y-87237334D01*
X216506304Y-87241406D01*
X216494316Y-87268256D01*
X216443809Y-87419779D01*
X216442527Y-87425417D01*
X216441439Y-87427593D01*
X216441169Y-87431388D01*
X216437289Y-87448453D01*
X214629980Y-87448453D01*
X214723911Y-87417143D01*
X214750761Y-87405155D01*
X214754832Y-87401624D01*
X214759813Y-87399561D01*
X214782543Y-87380906D01*
X214984573Y-87178875D01*
X215003228Y-87156144D01*
X215005290Y-87151164D01*
X215008821Y-87147094D01*
X215020809Y-87120243D01*
X215071317Y-86968721D01*
X215074616Y-86954211D01*
X215076133Y-86950550D01*
X215076655Y-86945241D01*
X215077837Y-86940047D01*
X215077556Y-86936097D01*
X215079015Y-86921286D01*
X215079015Y-86820271D01*
X215077556Y-86805459D01*
X215077837Y-86801510D01*
X215076655Y-86796315D01*
X215076133Y-86791007D01*
X215074616Y-86787345D01*
X215071317Y-86772836D01*
X215020809Y-86621314D01*
X215008821Y-86594463D01*
X215005290Y-86590392D01*
X215003228Y-86585413D01*
X214984573Y-86562682D01*
X214580512Y-86158621D01*
X214576548Y-86155368D01*
X214575231Y-86153590D01*
X214566336Y-86146987D01*
X214557781Y-86139966D01*
X214555737Y-86139119D01*
X214551620Y-86136063D01*
X214299082Y-85984540D01*
X214282535Y-85976704D01*
X214279456Y-85974642D01*
X214275882Y-85973554D01*
X214272506Y-85971955D01*
X214268838Y-85971409D01*
X214251325Y-85966077D01*
X213998788Y-85915569D01*
X213998683Y-85915558D01*
X213998634Y-85915538D01*
X213983983Y-85914095D01*
X213969527Y-85912656D01*
X213969474Y-85912666D01*
X213969370Y-85912656D01*
X213868355Y-85912656D01*
X213853543Y-85914114D01*
X213849594Y-85913834D01*
X213844399Y-85915015D01*
X213839091Y-85915538D01*
X213835429Y-85917054D01*
X213820920Y-85920354D01*
X213669398Y-85970862D01*
X213642547Y-85982850D01*
X213638476Y-85986380D01*
X213633497Y-85988443D01*
X213610766Y-86007098D01*
X213408735Y-86209129D01*
X213390080Y-86231860D01*
X213367683Y-86285932D01*
X212995215Y-86285932D01*
X213550801Y-85730346D01*
X214630374Y-85730346D01*
X214630374Y-85788874D01*
X214652772Y-85842946D01*
X214694156Y-85884330D01*
X214748228Y-85906728D01*
X214777492Y-85909610D01*
X215253490Y-85909610D01*
X215336107Y-86487930D01*
X215343098Y-86516493D01*
X215372918Y-86566854D01*
X215419739Y-86601969D01*
X215476435Y-86616495D01*
X215534374Y-86608218D01*
X215584735Y-86578398D01*
X215619851Y-86531578D01*
X215634377Y-86474881D01*
X215633091Y-86445504D01*
X215562043Y-85948171D01*
X215782594Y-86168722D01*
X215805325Y-86187377D01*
X215859397Y-86209774D01*
X215917923Y-86209774D01*
X215971996Y-86187377D01*
X216013381Y-86145992D01*
X216035778Y-86091919D01*
X216035778Y-86033393D01*
X216031778Y-86023736D01*
X217752192Y-86023736D01*
X217752192Y-86082262D01*
X217774589Y-86136334D01*
X217793244Y-86159065D01*
X218500351Y-86866172D01*
X218523081Y-86884827D01*
X218577154Y-86907224D01*
X218635680Y-86907224D01*
X218689752Y-86884827D01*
X218731138Y-86843441D01*
X218753535Y-86789369D01*
X218753535Y-86768165D01*
X218805374Y-86750886D01*
X218832225Y-86738897D01*
X218836295Y-86735366D01*
X218841275Y-86733304D01*
X218864006Y-86714649D01*
X219015529Y-86563126D01*
X219034184Y-86540395D01*
X219036246Y-86535415D01*
X219039777Y-86531345D01*
X219051766Y-86504494D01*
X219097386Y-86367634D01*
X220823501Y-86367634D01*
X220823501Y-86426160D01*
X220845898Y-86480232D01*
X220887284Y-86521618D01*
X220941356Y-86544015D01*
X220999882Y-86544015D01*
X221053954Y-86521618D01*
X221076685Y-86502963D01*
X221152660Y-86426987D01*
X221247500Y-86395375D01*
X221299829Y-86395375D01*
X221394669Y-86426987D01*
X221874706Y-86907024D01*
X221897437Y-86925679D01*
X221951509Y-86948076D01*
X222010035Y-86948076D01*
X222064108Y-86925679D01*
X222105493Y-86884294D01*
X222127890Y-86830221D01*
X222127890Y-86771695D01*
X222105493Y-86717623D01*
X222103785Y-86715542D01*
X223311090Y-86715542D01*
X223311090Y-86816557D01*
X223312548Y-86831368D01*
X223312268Y-86835318D01*
X223313449Y-86840512D01*
X223313972Y-86845821D01*
X223315489Y-86849483D01*
X223318788Y-86863991D01*
X223369295Y-87015514D01*
X223381284Y-87042365D01*
X223384814Y-87046435D01*
X223386877Y-87051415D01*
X223405532Y-87074146D01*
X223506547Y-87175161D01*
X223518048Y-87184600D01*
X223520645Y-87187594D01*
X223525158Y-87190435D01*
X223529278Y-87193816D01*
X223532936Y-87195331D01*
X223545530Y-87203259D01*
X223747561Y-87304275D01*
X223775024Y-87314785D01*
X223780401Y-87315167D01*
X223785379Y-87317229D01*
X223814643Y-87320111D01*
X224664695Y-87320111D01*
X224264161Y-87720644D01*
X224245506Y-87743375D01*
X224223109Y-87797447D01*
X224223109Y-87855973D01*
X224245506Y-87910045D01*
X224286892Y-87951431D01*
X224340964Y-87973828D01*
X224399490Y-87973828D01*
X224453562Y-87951431D01*
X224476293Y-87932776D01*
X225132893Y-87276177D01*
X225151548Y-87253446D01*
X225167426Y-87215112D01*
X225173945Y-87199375D01*
X225173945Y-87140847D01*
X225157884Y-87102073D01*
X225151548Y-87086776D01*
X225110163Y-87045390D01*
X225061841Y-87025375D01*
X225056091Y-87022993D01*
X225026827Y-87020111D01*
X223850054Y-87020111D01*
X223701466Y-86945816D01*
X223642702Y-86887052D01*
X223611090Y-86792216D01*
X223611090Y-86739882D01*
X223642702Y-86645046D01*
X223845163Y-86442585D01*
X223940002Y-86410973D01*
X224016674Y-86410973D01*
X224045938Y-86408091D01*
X224100010Y-86385693D01*
X224141394Y-86344309D01*
X224163792Y-86290237D01*
X224163792Y-86231709D01*
X224141394Y-86177637D01*
X224100010Y-86136253D01*
X224045938Y-86113855D01*
X224016674Y-86110973D01*
X223915659Y-86110973D01*
X223900847Y-86112431D01*
X223896898Y-86112151D01*
X223891703Y-86113332D01*
X223886395Y-86113855D01*
X223882733Y-86115371D01*
X223868224Y-86118671D01*
X223716702Y-86169179D01*
X223689851Y-86181167D01*
X223685780Y-86184697D01*
X223680801Y-86186760D01*
X223658070Y-86205415D01*
X223405532Y-86457953D01*
X223386877Y-86480684D01*
X223384814Y-86485663D01*
X223381284Y-86489734D01*
X223369295Y-86516585D01*
X223318788Y-86668108D01*
X223315489Y-86682615D01*
X223313972Y-86686278D01*
X223313449Y-86691586D01*
X223312268Y-86696781D01*
X223312548Y-86700730D01*
X223311090Y-86715542D01*
X222103785Y-86715542D01*
X222086838Y-86694892D01*
X221379731Y-85987786D01*
X221357000Y-85969131D01*
X221302928Y-85946734D01*
X221244402Y-85946734D01*
X221190330Y-85969131D01*
X221148944Y-86010517D01*
X221126547Y-86064589D01*
X221126547Y-86119463D01*
X221024200Y-86153579D01*
X220997349Y-86165567D01*
X220993276Y-86169099D01*
X220988299Y-86171161D01*
X220965568Y-86189816D01*
X220864553Y-86290831D01*
X220845898Y-86313562D01*
X220823501Y-86367634D01*
X219097386Y-86367634D01*
X219102273Y-86352972D01*
X219103554Y-86347334D01*
X219104643Y-86345158D01*
X219104912Y-86341359D01*
X219108792Y-86324298D01*
X219107459Y-86305542D01*
X219108793Y-86286778D01*
X219104912Y-86269713D01*
X219104643Y-86265918D01*
X219103554Y-86263742D01*
X219102273Y-86258104D01*
X219051766Y-86106581D01*
X219039778Y-86079730D01*
X219036246Y-86075658D01*
X219034184Y-86070679D01*
X219015529Y-86047949D01*
X218459945Y-85492365D01*
X218437214Y-85473710D01*
X218383142Y-85451313D01*
X218324616Y-85451313D01*
X218270544Y-85473710D01*
X218229158Y-85515096D01*
X218206761Y-85569168D01*
X218206761Y-85627694D01*
X218229158Y-85681766D01*
X218247813Y-85704497D01*
X218778357Y-86235041D01*
X218801855Y-86305537D01*
X218778357Y-86376033D01*
X218676912Y-86477478D01*
X218582077Y-86509091D01*
X218567534Y-86509091D01*
X218005376Y-85946933D01*
X217982645Y-85928278D01*
X217928573Y-85905881D01*
X217870047Y-85905881D01*
X217815975Y-85928278D01*
X217774589Y-85969664D01*
X217752192Y-86023736D01*
X216031778Y-86023736D01*
X216013381Y-85979321D01*
X215994726Y-85956590D01*
X214934066Y-84895930D01*
X214911335Y-84877275D01*
X214857263Y-84854878D01*
X214798737Y-84854878D01*
X214744665Y-84877275D01*
X214703279Y-84918661D01*
X214680882Y-84972733D01*
X214680882Y-85031259D01*
X214703279Y-85085331D01*
X214721934Y-85108062D01*
X215223482Y-85609610D01*
X214777492Y-85609610D01*
X214748228Y-85612492D01*
X214694156Y-85634890D01*
X214652772Y-85676274D01*
X214630374Y-85730346D01*
X213550801Y-85730346D01*
X214449434Y-84831713D01*
X215638822Y-84831713D01*
X215640155Y-84850473D01*
X215638822Y-84869233D01*
X215642702Y-84886297D01*
X215642972Y-84890093D01*
X215644060Y-84892268D01*
X215645342Y-84897907D01*
X215695849Y-85049430D01*
X215707837Y-85076280D01*
X215711368Y-85080351D01*
X215713431Y-85085331D01*
X215732086Y-85108062D01*
X216287670Y-85663646D01*
X216310400Y-85682301D01*
X216364473Y-85704698D01*
X216422999Y-85704698D01*
X216477071Y-85682301D01*
X216518457Y-85640915D01*
X216534861Y-85601309D01*
X216542186Y-85598868D01*
X216569036Y-85586880D01*
X216573107Y-85583349D01*
X216578088Y-85581286D01*
X216600818Y-85562631D01*
X216853356Y-85310092D01*
X216872011Y-85287361D01*
X216874073Y-85282381D01*
X216877604Y-85278311D01*
X216889593Y-85251460D01*
X216940100Y-85099938D01*
X216941381Y-85094300D01*
X216942470Y-85092124D01*
X216942739Y-85088325D01*
X216945862Y-85074593D01*
X218811148Y-85074593D01*
X218812481Y-85093354D01*
X218811148Y-85112115D01*
X218815026Y-85129173D01*
X218815297Y-85132973D01*
X218816386Y-85135151D01*
X218817668Y-85140788D01*
X218868175Y-85292311D01*
X218880164Y-85319162D01*
X218883694Y-85323232D01*
X218885757Y-85328212D01*
X218904412Y-85350943D01*
X219459996Y-85906527D01*
X219482726Y-85925182D01*
X219536799Y-85947579D01*
X219595325Y-85947579D01*
X219649397Y-85925182D01*
X219690783Y-85883796D01*
X219713180Y-85829724D01*
X219713180Y-85771198D01*
X219690783Y-85717125D01*
X219672128Y-85694395D01*
X219141582Y-85163849D01*
X219118083Y-85093354D01*
X219141582Y-85022859D01*
X219243028Y-84921413D01*
X219337867Y-84889801D01*
X219352407Y-84889801D01*
X219914565Y-85451959D01*
X219937296Y-85470614D01*
X219991368Y-85493011D01*
X220049894Y-85493011D01*
X220103966Y-85470614D01*
X220145352Y-85429228D01*
X220167749Y-85375156D01*
X220167749Y-85357482D01*
X221126547Y-85357482D01*
X221126547Y-85416008D01*
X221148944Y-85470080D01*
X221190330Y-85511466D01*
X221244402Y-85533863D01*
X221302928Y-85533863D01*
X221357000Y-85511466D01*
X221379731Y-85492811D01*
X221576710Y-85295830D01*
X222531305Y-86250425D01*
X222554036Y-86269080D01*
X222608108Y-86291477D01*
X222666634Y-86291477D01*
X222720707Y-86269080D01*
X222762092Y-86227695D01*
X222784489Y-86173622D01*
X222784489Y-86115096D01*
X222762092Y-86061024D01*
X222743437Y-86038293D01*
X221788842Y-85083698D01*
X221985822Y-84886719D01*
X222004477Y-84863988D01*
X222026874Y-84809916D01*
X222026874Y-84751390D01*
X222004477Y-84697317D01*
X221963091Y-84655932D01*
X221909019Y-84633535D01*
X221850493Y-84633535D01*
X221796421Y-84655932D01*
X221773690Y-84674587D01*
X221167599Y-85280679D01*
X221148944Y-85303410D01*
X221126547Y-85357482D01*
X220167749Y-85357482D01*
X220167749Y-85316630D01*
X220145352Y-85262558D01*
X220126697Y-85239827D01*
X219066036Y-84179166D01*
X219043305Y-84160511D01*
X218989233Y-84138114D01*
X218930707Y-84138114D01*
X218876635Y-84160511D01*
X218835249Y-84201897D01*
X218812852Y-84255969D01*
X218812852Y-84314495D01*
X218835249Y-84368567D01*
X218853904Y-84391298D01*
X219111833Y-84649227D01*
X219087716Y-84659995D01*
X219083645Y-84663525D01*
X219078666Y-84665588D01*
X219055935Y-84684243D01*
X218904412Y-84835766D01*
X218885757Y-84858497D01*
X218883694Y-84863476D01*
X218880164Y-84867547D01*
X218868176Y-84894398D01*
X218817668Y-85045919D01*
X218816386Y-85051556D01*
X218815297Y-85053735D01*
X218815027Y-85057533D01*
X218811148Y-85074593D01*
X216945862Y-85074593D01*
X216946619Y-85071264D01*
X216945286Y-85052508D01*
X216946620Y-85033744D01*
X216942739Y-85016679D01*
X216942470Y-85012884D01*
X216941381Y-85010708D01*
X216940100Y-85005070D01*
X216889593Y-84853547D01*
X216877605Y-84826696D01*
X216874073Y-84822624D01*
X216872011Y-84817645D01*
X216853356Y-84794915D01*
X216752340Y-84693899D01*
X216729609Y-84675244D01*
X216724629Y-84673181D01*
X216720559Y-84669651D01*
X216693708Y-84657662D01*
X216542186Y-84607155D01*
X216536547Y-84605873D01*
X216534372Y-84604785D01*
X216530576Y-84604515D01*
X216513512Y-84600635D01*
X216494752Y-84601968D01*
X216475992Y-84600635D01*
X216458927Y-84604515D01*
X216455132Y-84604785D01*
X216452956Y-84605873D01*
X216447318Y-84607155D01*
X216295795Y-84657662D01*
X216268944Y-84669650D01*
X216264869Y-84673183D01*
X216259893Y-84675245D01*
X216237163Y-84693899D01*
X216009664Y-84921398D01*
X215979680Y-84931392D01*
X215969257Y-84920969D01*
X215945759Y-84850473D01*
X215969257Y-84779976D01*
X216121210Y-84628024D01*
X216239140Y-84588715D01*
X216265991Y-84576726D01*
X216310205Y-84538379D01*
X216336379Y-84486031D01*
X216340528Y-84427651D01*
X216322020Y-84372127D01*
X216283672Y-84327913D01*
X216231325Y-84301739D01*
X216172945Y-84297590D01*
X216144271Y-84304110D01*
X215992749Y-84354618D01*
X215965898Y-84366606D01*
X215961827Y-84370136D01*
X215956848Y-84372199D01*
X215934117Y-84390854D01*
X215732086Y-84592884D01*
X215713431Y-84615614D01*
X215711367Y-84620594D01*
X215707837Y-84624666D01*
X215695849Y-84651516D01*
X215645342Y-84803039D01*
X215644060Y-84808677D01*
X215642972Y-84810853D01*
X215642702Y-84814648D01*
X215638822Y-84831713D01*
X214449434Y-84831713D01*
X215643013Y-83638134D01*
X215940691Y-83638134D01*
X215952049Y-83695548D01*
X215984514Y-83744245D01*
X216033143Y-83776812D01*
X216061274Y-83785377D01*
X218334117Y-84239945D01*
X218363377Y-84242858D01*
X218420792Y-84231500D01*
X218469488Y-84199035D01*
X218502056Y-84150406D01*
X218513534Y-84093014D01*
X218502175Y-84035600D01*
X218469711Y-83986903D01*
X218421082Y-83954336D01*
X218392951Y-83945771D01*
X218176176Y-83902416D01*
X219166406Y-83902416D01*
X219166406Y-83960942D01*
X219188803Y-84015014D01*
X219230189Y-84056400D01*
X219284261Y-84078797D01*
X219342787Y-84078797D01*
X219396859Y-84056400D01*
X219419590Y-84037745D01*
X219616570Y-83840765D01*
X220571164Y-84795359D01*
X220593895Y-84814014D01*
X220647967Y-84836411D01*
X220706493Y-84836411D01*
X220760566Y-84814014D01*
X220801951Y-84772629D01*
X220824348Y-84718556D01*
X220824348Y-84660030D01*
X220801951Y-84605958D01*
X220783296Y-84583227D01*
X219828702Y-83628633D01*
X220025681Y-83431654D01*
X220044336Y-83408923D01*
X220066733Y-83354851D01*
X220066733Y-83296325D01*
X220044336Y-83242253D01*
X220002950Y-83200867D01*
X219948878Y-83178470D01*
X219890352Y-83178470D01*
X219836280Y-83200867D01*
X219813549Y-83219522D01*
X219207458Y-83825613D01*
X219188803Y-83848344D01*
X219166406Y-83902416D01*
X218176176Y-83902416D01*
X216120108Y-83491203D01*
X216090847Y-83488290D01*
X216033433Y-83499648D01*
X215984736Y-83532113D01*
X215952169Y-83580742D01*
X215940691Y-83638134D01*
X215643013Y-83638134D01*
X216530750Y-82750397D01*
X217610325Y-82750397D01*
X217610325Y-82808923D01*
X217632722Y-82862995D01*
X217651377Y-82885726D01*
X218358483Y-83592833D01*
X218381214Y-83611488D01*
X218435286Y-83633885D01*
X218493812Y-83633885D01*
X218547885Y-83611488D01*
X218589270Y-83570103D01*
X218611667Y-83516030D01*
X218611667Y-83494826D01*
X218663506Y-83477547D01*
X218690357Y-83465558D01*
X218694427Y-83462027D01*
X218699407Y-83459965D01*
X218722138Y-83441310D01*
X218873661Y-83289787D01*
X218892316Y-83267056D01*
X218894378Y-83262076D01*
X218897909Y-83258006D01*
X218909897Y-83231155D01*
X218960405Y-83079633D01*
X218961686Y-83073994D01*
X218962776Y-83071817D01*
X218963045Y-83068018D01*
X218966925Y-83050959D01*
X218965591Y-83032198D01*
X218966925Y-83013437D01*
X218963045Y-82996377D01*
X218962776Y-82992579D01*
X218961686Y-82990401D01*
X218960405Y-82984763D01*
X218909897Y-82833241D01*
X218897909Y-82806390D01*
X218894379Y-82802320D01*
X218892316Y-82797339D01*
X218873661Y-82774609D01*
X218318077Y-82219025D01*
X218295346Y-82200370D01*
X218241274Y-82177973D01*
X218182748Y-82177973D01*
X218128676Y-82200370D01*
X218087290Y-82241756D01*
X218064893Y-82295828D01*
X218064893Y-82354354D01*
X218087290Y-82408426D01*
X218105945Y-82431157D01*
X218636490Y-82961702D01*
X218659988Y-83032198D01*
X218636490Y-83102693D01*
X218535044Y-83204139D01*
X218440209Y-83235752D01*
X218425666Y-83235752D01*
X217863509Y-82673594D01*
X217840778Y-82654939D01*
X217786706Y-82632542D01*
X217728180Y-82632542D01*
X217674108Y-82654939D01*
X217632722Y-82696325D01*
X217610325Y-82750397D01*
X216530750Y-82750397D01*
X218790811Y-80490335D01*
X225472625Y-87172149D01*
G37*
G36*
X197328671Y-90238102D02*
G01*
X197670454Y-90306087D01*
X198003927Y-90407245D01*
X198325879Y-90540602D01*
X198633210Y-90704874D01*
X198922959Y-90898478D01*
X199192337Y-91119551D01*
X199438748Y-91365962D01*
X199659821Y-91635340D01*
X199853425Y-91925089D01*
X200017697Y-92232420D01*
X200151054Y-92554372D01*
X200252212Y-92887845D01*
X200320197Y-93229628D01*
X200354354Y-93576429D01*
X200354354Y-93924907D01*
X200320197Y-94271708D01*
X200252212Y-94613491D01*
X200151054Y-94946964D01*
X200017697Y-95268916D01*
X199853425Y-95576247D01*
X199659821Y-95865996D01*
X199438748Y-96135374D01*
X199192337Y-96381785D01*
X198922959Y-96602858D01*
X198633210Y-96796462D01*
X198325879Y-96960734D01*
X198003927Y-97094091D01*
X197670454Y-97195249D01*
X197328671Y-97263234D01*
X196981870Y-97297391D01*
X196633392Y-97297391D01*
X196286591Y-97263234D01*
X195944808Y-97195249D01*
X195611335Y-97094091D01*
X195289383Y-96960734D01*
X194982052Y-96796462D01*
X194692303Y-96602858D01*
X194422925Y-96381785D01*
X194176514Y-96135374D01*
X193955441Y-95865996D01*
X193761837Y-95576247D01*
X193597565Y-95268916D01*
X193464208Y-94946964D01*
X193363050Y-94613491D01*
X193295065Y-94271708D01*
X193260908Y-93924907D01*
X193260908Y-93576429D01*
X193295065Y-93229628D01*
X193363050Y-92887845D01*
X193464208Y-92554372D01*
X193597565Y-92232420D01*
X193761837Y-91925089D01*
X193955441Y-91635340D01*
X194176514Y-91365962D01*
X194422925Y-91119551D01*
X194692303Y-90898478D01*
X194982052Y-90704874D01*
X195289383Y-90540602D01*
X195611335Y-90407245D01*
X195944808Y-90306087D01*
X196286591Y-90238102D01*
X196633392Y-90203945D01*
X196981870Y-90203945D01*
X197328671Y-90238102D01*
G37*
G36*
X183667876Y-90421103D02*
G01*
X183684421Y-90432159D01*
X183695477Y-90448704D01*
X183699359Y-90468221D01*
X183699359Y-92168221D01*
X183695477Y-92187738D01*
X183684421Y-92204283D01*
X183667876Y-92215339D01*
X183648359Y-92219221D01*
X181948359Y-92219221D01*
X181928842Y-92215339D01*
X181912297Y-92204283D01*
X181901241Y-92187738D01*
X181897359Y-92168221D01*
X181897359Y-90468221D01*
X181901241Y-90448704D01*
X181912297Y-90432159D01*
X181928842Y-90421103D01*
X181948359Y-90417221D01*
X183648359Y-90417221D01*
X183667876Y-90421103D01*
G37*
G36*
X185599905Y-90456018D02*
G01*
X185763087Y-90523610D01*
X185909947Y-90621739D01*
X186034841Y-90746633D01*
X186132970Y-90893493D01*
X186200562Y-91056675D01*
X186235020Y-91229908D01*
X186235020Y-91406534D01*
X186200562Y-91579767D01*
X186132970Y-91742949D01*
X186034841Y-91889809D01*
X185909947Y-92014703D01*
X185763087Y-92112832D01*
X185599905Y-92180424D01*
X185426672Y-92214882D01*
X185250046Y-92214882D01*
X185076813Y-92180424D01*
X184913631Y-92112832D01*
X184766771Y-92014703D01*
X184641877Y-91889809D01*
X184543748Y-91742949D01*
X184476156Y-91579767D01*
X184441698Y-91406534D01*
X184441698Y-91229908D01*
X184476156Y-91056675D01*
X184543748Y-90893493D01*
X184641877Y-90746633D01*
X184766771Y-90621739D01*
X184913631Y-90523610D01*
X185076813Y-90456018D01*
X185250046Y-90421560D01*
X185426672Y-90421560D01*
X185599905Y-90456018D01*
G37*
G36*
X188139904Y-90456018D02*
G01*
X188303086Y-90523610D01*
X188449946Y-90621739D01*
X188574840Y-90746633D01*
X188672969Y-90893493D01*
X188740561Y-91056675D01*
X188775019Y-91229908D01*
X188775019Y-91406534D01*
X188740561Y-91579767D01*
X188672969Y-91742949D01*
X188574840Y-91889809D01*
X188449946Y-92014703D01*
X188303086Y-92112832D01*
X188139904Y-92180424D01*
X187966671Y-92214882D01*
X187790045Y-92214882D01*
X187616812Y-92180424D01*
X187453630Y-92112832D01*
X187306770Y-92014703D01*
X187181876Y-91889809D01*
X187083747Y-91742949D01*
X187016155Y-91579767D01*
X186981697Y-91406534D01*
X186981697Y-91229908D01*
X187016155Y-91056675D01*
X187083747Y-90893493D01*
X187181876Y-90746633D01*
X187306770Y-90621739D01*
X187453630Y-90523610D01*
X187616812Y-90456018D01*
X187790045Y-90421560D01*
X187966671Y-90421560D01*
X188139904Y-90456018D01*
G37*
G36*
X190679905Y-90456018D02*
G01*
X190843087Y-90523610D01*
X190989947Y-90621739D01*
X191114841Y-90746633D01*
X191212970Y-90893493D01*
X191280562Y-91056675D01*
X191315020Y-91229908D01*
X191315020Y-91406534D01*
X191280562Y-91579767D01*
X191212970Y-91742949D01*
X191114841Y-91889809D01*
X190989947Y-92014703D01*
X190843087Y-92112832D01*
X190679905Y-92180424D01*
X190506672Y-92214882D01*
X190330046Y-92214882D01*
X190156813Y-92180424D01*
X189993631Y-92112832D01*
X189846771Y-92014703D01*
X189721877Y-91889809D01*
X189623748Y-91742949D01*
X189556156Y-91579767D01*
X189521698Y-91406534D01*
X189521698Y-91229908D01*
X189556156Y-91056675D01*
X189623748Y-90893493D01*
X189721877Y-90746633D01*
X189846771Y-90621739D01*
X189993631Y-90523610D01*
X190156813Y-90456018D01*
X190330046Y-90421560D01*
X190506672Y-90421560D01*
X190679905Y-90456018D01*
G37*
G36*
X251099008Y-86833300D02*
G01*
X251115553Y-86844356D01*
X252317635Y-88046438D01*
X252328691Y-88062983D01*
X252332572Y-88082500D01*
X252328691Y-88102017D01*
X252317635Y-88118562D01*
X251115553Y-89320644D01*
X251099008Y-89331700D01*
X251079491Y-89335581D01*
X251059974Y-89331700D01*
X251043429Y-89320644D01*
X249841347Y-88118562D01*
X249830291Y-88102017D01*
X249826410Y-88082500D01*
X249830291Y-88062983D01*
X249841347Y-88046438D01*
X250738514Y-87149271D01*
X251034724Y-86853060D01*
X251034727Y-86853057D01*
X251043429Y-86844356D01*
X251059974Y-86833300D01*
X251079491Y-86829419D01*
X251099008Y-86833300D01*
G37*
G36*
X249544986Y-85424246D02*
G01*
X249708168Y-85491838D01*
X249855028Y-85589967D01*
X249979922Y-85714861D01*
X250078051Y-85861721D01*
X250145643Y-86024903D01*
X250180101Y-86198136D01*
X250180101Y-86374762D01*
X250145643Y-86547995D01*
X250078051Y-86711177D01*
X249979922Y-86858037D01*
X249855028Y-86982931D01*
X249708168Y-87081060D01*
X249544986Y-87148652D01*
X249371753Y-87183110D01*
X249195127Y-87183110D01*
X249021894Y-87148652D01*
X248858712Y-87081060D01*
X248711852Y-86982931D01*
X248586958Y-86858037D01*
X248488829Y-86711177D01*
X248421237Y-86547995D01*
X248386779Y-86374762D01*
X248386779Y-86198136D01*
X248421237Y-86024903D01*
X248488829Y-85861721D01*
X248586958Y-85714861D01*
X248711852Y-85589967D01*
X248858712Y-85491838D01*
X249021894Y-85424246D01*
X249195127Y-85389788D01*
X249371753Y-85389788D01*
X249544986Y-85424246D01*
G37*
G36*
X247748935Y-83628195D02*
G01*
X247912117Y-83695787D01*
X248058977Y-83793916D01*
X248183871Y-83918810D01*
X248282000Y-84065670D01*
X248349592Y-84228852D01*
X248384050Y-84402085D01*
X248384050Y-84578711D01*
X248349592Y-84751944D01*
X248282000Y-84915126D01*
X248183871Y-85061986D01*
X248058977Y-85186880D01*
X247912117Y-85285009D01*
X247748935Y-85352601D01*
X247575702Y-85387059D01*
X247399076Y-85387059D01*
X247225843Y-85352601D01*
X247062661Y-85285009D01*
X246915801Y-85186880D01*
X246790907Y-85061986D01*
X246692778Y-84915126D01*
X246625186Y-84751944D01*
X246590728Y-84578711D01*
X246590728Y-84402085D01*
X246625186Y-84228852D01*
X246692778Y-84065670D01*
X246790907Y-83918810D01*
X246915801Y-83793916D01*
X247062661Y-83695787D01*
X247225843Y-83628195D01*
X247399076Y-83593737D01*
X247575702Y-83593737D01*
X247748935Y-83628195D01*
G37*
G36*
X245952883Y-81832143D02*
G01*
X246116065Y-81899735D01*
X246262925Y-81997864D01*
X246387819Y-82122758D01*
X246485948Y-82269618D01*
X246553540Y-82432800D01*
X246587998Y-82606033D01*
X246587998Y-82782659D01*
X246553540Y-82955892D01*
X246485948Y-83119074D01*
X246387819Y-83265934D01*
X246262925Y-83390828D01*
X246116065Y-83488957D01*
X245952883Y-83556549D01*
X245779650Y-83591007D01*
X245603024Y-83591007D01*
X245429791Y-83556549D01*
X245266609Y-83488957D01*
X245119749Y-83390828D01*
X244994855Y-83265934D01*
X244896726Y-83119074D01*
X244829134Y-82955892D01*
X244794676Y-82782659D01*
X244794676Y-82606033D01*
X244829134Y-82432800D01*
X244896726Y-82269618D01*
X244994855Y-82122758D01*
X245119749Y-81997864D01*
X245266609Y-81899735D01*
X245429791Y-81832143D01*
X245603024Y-81797685D01*
X245779650Y-81797685D01*
X245952883Y-81832143D01*
G37*
G36*
X252688584Y-77650953D02*
G01*
X252705129Y-77662008D01*
X253908484Y-78865363D01*
X253919539Y-78881908D01*
X253923421Y-78901425D01*
X253919539Y-78920942D01*
X253908484Y-78937487D01*
X252705129Y-80140842D01*
X252688584Y-80151897D01*
X252669067Y-80155779D01*
X252649550Y-80151897D01*
X252633005Y-80140842D01*
X251429650Y-78937487D01*
X251418595Y-78920942D01*
X251414713Y-78901425D01*
X251418595Y-78881908D01*
X251429650Y-78865363D01*
X252633005Y-77662008D01*
X252649550Y-77650953D01*
X252669067Y-77647071D01*
X252688584Y-77650953D01*
G37*
G36*
X256522977Y-74446259D02*
G01*
X256686322Y-74513918D01*
X256833328Y-74612145D01*
X256958347Y-74737164D01*
X257056574Y-74884170D01*
X257124233Y-75047515D01*
X257158726Y-75220921D01*
X257158726Y-75397725D01*
X257124233Y-75571131D01*
X257056574Y-75734476D01*
X256958347Y-75881482D01*
X256833328Y-76006501D01*
X256686322Y-76104728D01*
X256522977Y-76172387D01*
X256349571Y-76206880D01*
X256172767Y-76206880D01*
X255999361Y-76172387D01*
X255836016Y-76104728D01*
X255689010Y-76006501D01*
X255563991Y-75881482D01*
X255465764Y-75734476D01*
X255398105Y-75571131D01*
X255363612Y-75397725D01*
X255363612Y-75220921D01*
X255398105Y-75047515D01*
X255465764Y-74884170D01*
X255563991Y-74737164D01*
X255689010Y-74612145D01*
X255836016Y-74513918D01*
X255999361Y-74446259D01*
X256172767Y-74411766D01*
X256349571Y-74411766D01*
X256522977Y-74446259D01*
G37*
G36*
X255032779Y-71612882D02*
G01*
X255040688Y-71615001D01*
X255040693Y-71615002D01*
X255150945Y-71644544D01*
X255150949Y-71644545D01*
X255158858Y-71646665D01*
X255172364Y-71652260D01*
X255179455Y-71656354D01*
X255179457Y-71656355D01*
X255278306Y-71713426D01*
X255278308Y-71713427D01*
X255285403Y-71717524D01*
X255297001Y-71726423D01*
X255302794Y-71732216D01*
X255330240Y-71759661D01*
X255342139Y-71767874D01*
X255346174Y-71769546D01*
X255699727Y-72123099D01*
X255704003Y-72133424D01*
X255725801Y-72155223D01*
X255742850Y-72172272D01*
X255751749Y-72183870D01*
X255817013Y-72296909D01*
X255822608Y-72310415D01*
X255856391Y-72436494D01*
X255858299Y-72450988D01*
X255858299Y-72581514D01*
X255856391Y-72596008D01*
X255822608Y-72722086D01*
X255817013Y-72735592D01*
X255751749Y-72848631D01*
X255742850Y-72860229D01*
X255737054Y-72866024D01*
X255737054Y-72866025D01*
X255709610Y-72893469D01*
X255701397Y-72905367D01*
X255699727Y-72909402D01*
X255310818Y-73298311D01*
X255288510Y-73307551D01*
X255286767Y-73308605D01*
X255285829Y-73308661D01*
X255271220Y-73314713D01*
X255260334Y-73310204D01*
X255249096Y-73310884D01*
X255207316Y-73329686D01*
X255166994Y-73370009D01*
X255149512Y-73402716D01*
X255144218Y-73429330D01*
X255145443Y-73435490D01*
X255141562Y-73455007D01*
X255130506Y-73471552D01*
X254423399Y-74178659D01*
X254406854Y-74189715D01*
X254387337Y-74193596D01*
X254381178Y-74192371D01*
X254354563Y-74197665D01*
X254321856Y-74215147D01*
X254279702Y-74257300D01*
X254261131Y-74306267D01*
X254266560Y-74319373D01*
X254250158Y-74358971D01*
X253861249Y-74747880D01*
X253850922Y-74752156D01*
X253817872Y-74785207D01*
X253812076Y-74791003D01*
X253800478Y-74799902D01*
X253687439Y-74865166D01*
X253673933Y-74870761D01*
X253547855Y-74904544D01*
X253533361Y-74906452D01*
X253525171Y-74906452D01*
X253411030Y-74906452D01*
X253402835Y-74906452D01*
X253388341Y-74904544D01*
X253262262Y-74870761D01*
X253248756Y-74865166D01*
X253135717Y-74799902D01*
X253124119Y-74791003D01*
X253118323Y-74785207D01*
X253090878Y-74757763D01*
X253078980Y-74749550D01*
X253074946Y-74747880D01*
X252721393Y-74394327D01*
X252717115Y-74384000D01*
X252684063Y-74350947D01*
X252678270Y-74345154D01*
X252669371Y-74333556D01*
X252654315Y-74307480D01*
X252608202Y-74227610D01*
X252608201Y-74227608D01*
X252604107Y-74220517D01*
X252598512Y-74207011D01*
X252596392Y-74199102D01*
X252596391Y-74199098D01*
X252566849Y-74088846D01*
X252566848Y-74088841D01*
X252564729Y-74080932D01*
X252562821Y-74066438D01*
X252562821Y-73935912D01*
X252564729Y-73921418D01*
X252598512Y-73795340D01*
X252604107Y-73781834D01*
X252608201Y-73774742D01*
X252608204Y-73774736D01*
X252665273Y-73675891D01*
X252665277Y-73675885D01*
X252669371Y-73668795D01*
X252678270Y-73657197D01*
X252684056Y-73651410D01*
X252684066Y-73651398D01*
X252711508Y-73623957D01*
X252719722Y-73612057D01*
X252721393Y-73608024D01*
X252724621Y-73604795D01*
X252724622Y-73604794D01*
X253099570Y-73229846D01*
X253099572Y-73229844D01*
X253110302Y-73219115D01*
X253132599Y-73209879D01*
X253134353Y-73208819D01*
X253135296Y-73208761D01*
X253149900Y-73202713D01*
X253160782Y-73207220D01*
X253172026Y-73206541D01*
X253213803Y-73187738D01*
X253254125Y-73147416D01*
X253271606Y-73114711D01*
X253276900Y-73088089D01*
X253275677Y-73081936D01*
X253279558Y-73062419D01*
X253290614Y-73045874D01*
X253763165Y-72573323D01*
X253989016Y-72347471D01*
X253989019Y-72347468D01*
X253997721Y-72338767D01*
X254014266Y-72327711D01*
X254033783Y-72323830D01*
X254039937Y-72325053D01*
X254066558Y-72319759D01*
X254099263Y-72302278D01*
X254141416Y-72260126D01*
X254159987Y-72211157D01*
X254154560Y-72198053D01*
X254170962Y-72158455D01*
X254174192Y-72155224D01*
X254174193Y-72155223D01*
X254549141Y-71780275D01*
X254549143Y-71780273D01*
X254559871Y-71769546D01*
X254570196Y-71765268D01*
X254603245Y-71732219D01*
X254603257Y-71732209D01*
X254609044Y-71726423D01*
X254620642Y-71717524D01*
X254627732Y-71713430D01*
X254627738Y-71713426D01*
X254726583Y-71656357D01*
X254726589Y-71656354D01*
X254733681Y-71652260D01*
X254747187Y-71646665D01*
X254873265Y-71612882D01*
X254887759Y-71610974D01*
X255018285Y-71610974D01*
X255032779Y-71612882D01*
G37*
G36*
X260115080Y-70854156D02*
G01*
X260278425Y-70921815D01*
X260425431Y-71020042D01*
X260550450Y-71145061D01*
X260648677Y-71292067D01*
X260716336Y-71455412D01*
X260750829Y-71628818D01*
X260750829Y-71805622D01*
X260716336Y-71979028D01*
X260648677Y-72142373D01*
X260550450Y-72289379D01*
X260425431Y-72414398D01*
X260278425Y-72512625D01*
X260115080Y-72580284D01*
X259941674Y-72614777D01*
X259764870Y-72614777D01*
X259591464Y-72580284D01*
X259428119Y-72512625D01*
X259281113Y-72414398D01*
X259156094Y-72289379D01*
X259057867Y-72142373D01*
X258990208Y-71979028D01*
X258955715Y-71805622D01*
X258955715Y-71628818D01*
X258990208Y-71455412D01*
X259057867Y-71292067D01*
X259156094Y-71145061D01*
X259281113Y-71020042D01*
X259428119Y-70921815D01*
X259591464Y-70854156D01*
X259764870Y-70819663D01*
X259941674Y-70819663D01*
X260115080Y-70854156D01*
G37*
G36*
X222784515Y-64782258D02*
G01*
X223126298Y-64850243D01*
X223459771Y-64951401D01*
X223781723Y-65084758D01*
X224089054Y-65249030D01*
X224378803Y-65442634D01*
X224648181Y-65663707D01*
X224894592Y-65910118D01*
X225115665Y-66179496D01*
X225309269Y-66469245D01*
X225473541Y-66776576D01*
X225606898Y-67098528D01*
X225708056Y-67432001D01*
X225776041Y-67773784D01*
X225810198Y-68120585D01*
X225810198Y-68469063D01*
X225776041Y-68815864D01*
X225708056Y-69157647D01*
X225606898Y-69491120D01*
X225473541Y-69813072D01*
X225309269Y-70120403D01*
X225115665Y-70410152D01*
X224894592Y-70679530D01*
X224648181Y-70925941D01*
X224378803Y-71147014D01*
X224089054Y-71340618D01*
X223781723Y-71504890D01*
X223459771Y-71638247D01*
X223126298Y-71739405D01*
X222784515Y-71807390D01*
X222437714Y-71841547D01*
X222089236Y-71841547D01*
X221742435Y-71807390D01*
X221400652Y-71739405D01*
X221067179Y-71638247D01*
X220745227Y-71504890D01*
X220437896Y-71340618D01*
X220148147Y-71147014D01*
X219878769Y-70925941D01*
X219632358Y-70679530D01*
X219411285Y-70410152D01*
X219217681Y-70120403D01*
X219053409Y-69813072D01*
X218920052Y-69491120D01*
X218818894Y-69157647D01*
X218750909Y-68815864D01*
X218716752Y-68469063D01*
X218716752Y-68120585D01*
X218750909Y-67773784D01*
X218818894Y-67432001D01*
X218920052Y-67098528D01*
X219053409Y-66776576D01*
X219217681Y-66469245D01*
X219411285Y-66179496D01*
X219632358Y-65910118D01*
X219878769Y-65663707D01*
X220148147Y-65442634D01*
X220437896Y-65249030D01*
X220745227Y-65084758D01*
X221067179Y-64951401D01*
X221400652Y-64850243D01*
X221742435Y-64782258D01*
X222089236Y-64748101D01*
X222437714Y-64748101D01*
X222784515Y-64782258D01*
G37*
G36*
X192497324Y-61042251D02*
G01*
X192776223Y-61105908D01*
X193046241Y-61200391D01*
X193303983Y-61324513D01*
X193546206Y-61476712D01*
X193769866Y-61655075D01*
X193972149Y-61857358D01*
X194150512Y-62081018D01*
X194302711Y-62323241D01*
X194426833Y-62580983D01*
X194521316Y-62851001D01*
X194584973Y-63129900D01*
X194617003Y-63414172D01*
X194617003Y-63700244D01*
X194584973Y-63984516D01*
X194521316Y-64263415D01*
X194426833Y-64533433D01*
X194302711Y-64791175D01*
X194150512Y-65033398D01*
X193972149Y-65257058D01*
X193769866Y-65459341D01*
X193546206Y-65637704D01*
X193303983Y-65789903D01*
X193046241Y-65914025D01*
X192776223Y-66008508D01*
X192497324Y-66072165D01*
X192213052Y-66104195D01*
X191926980Y-66104195D01*
X191642708Y-66072165D01*
X191363809Y-66008508D01*
X191093791Y-65914025D01*
X190836049Y-65789903D01*
X190593826Y-65637704D01*
X190370166Y-65459341D01*
X190167883Y-65257058D01*
X189989520Y-65033398D01*
X189837321Y-64791175D01*
X189713199Y-64533433D01*
X189618716Y-64263415D01*
X189555059Y-63984516D01*
X189523029Y-63700244D01*
X189523029Y-63414172D01*
X189555059Y-63129900D01*
X189618716Y-62851001D01*
X189713199Y-62580983D01*
X189837321Y-62323241D01*
X189989520Y-62081018D01*
X190167883Y-61857358D01*
X190370166Y-61655075D01*
X190593826Y-61476712D01*
X190836049Y-61324513D01*
X191093791Y-61200391D01*
X191363809Y-61105908D01*
X191642708Y-61042251D01*
X191926980Y-61010221D01*
X192213052Y-61010221D01*
X192497324Y-61042251D01*
G37*
G36*
X220085503Y-61050420D02*
G01*
X220248685Y-61118012D01*
X220395545Y-61216141D01*
X220520439Y-61341035D01*
X220618568Y-61487895D01*
X220686160Y-61651077D01*
X220720618Y-61824310D01*
X220720618Y-62000936D01*
X220686160Y-62174169D01*
X220618568Y-62337351D01*
X220520439Y-62484211D01*
X220395545Y-62609105D01*
X220248685Y-62707234D01*
X220085503Y-62774826D01*
X219912270Y-62809284D01*
X219735644Y-62809284D01*
X219562411Y-62774826D01*
X219399229Y-62707234D01*
X219252369Y-62609105D01*
X219127475Y-62484211D01*
X219029346Y-62337351D01*
X218961754Y-62174169D01*
X218927296Y-62000936D01*
X218927296Y-61824310D01*
X218961754Y-61651077D01*
X219029346Y-61487895D01*
X219127475Y-61341035D01*
X219252369Y-61216141D01*
X219399229Y-61118012D01*
X219562411Y-61050420D01*
X219735644Y-61015962D01*
X219912270Y-61015962D01*
X220085503Y-61050420D01*
G37*
G36*
X245617516Y-59266177D02*
G01*
X245634061Y-59277232D01*
X246837416Y-60480587D01*
X246848471Y-60497132D01*
X246852353Y-60516649D01*
X246848471Y-60536166D01*
X246837416Y-60552711D01*
X245634061Y-61756066D01*
X245617516Y-61767121D01*
X245597999Y-61771003D01*
X245578482Y-61767121D01*
X245561937Y-61756066D01*
X244358582Y-60552711D01*
X244347527Y-60536166D01*
X244343645Y-60516649D01*
X244347527Y-60497132D01*
X244358582Y-60480587D01*
X245561937Y-59277232D01*
X245578482Y-59266177D01*
X245597999Y-59262295D01*
X245617516Y-59266177D01*
G37*
G36*
X220085503Y-58510419D02*
G01*
X220248685Y-58578011D01*
X220395545Y-58676140D01*
X220520439Y-58801034D01*
X220618568Y-58947894D01*
X220686160Y-59111076D01*
X220720618Y-59284309D01*
X220720618Y-59460935D01*
X220686160Y-59634168D01*
X220618568Y-59797350D01*
X220520439Y-59944210D01*
X220395545Y-60069104D01*
X220248685Y-60167233D01*
X220085503Y-60234825D01*
X219912270Y-60269283D01*
X219735644Y-60269283D01*
X219562411Y-60234825D01*
X219399229Y-60167233D01*
X219252369Y-60069104D01*
X219127475Y-59944210D01*
X219029346Y-59797350D01*
X218961754Y-59634168D01*
X218927296Y-59460935D01*
X218927296Y-59284309D01*
X218961754Y-59111076D01*
X219029346Y-58947894D01*
X219127475Y-58801034D01*
X219252369Y-58676140D01*
X219399229Y-58578011D01*
X219562411Y-58510419D01*
X219735644Y-58475961D01*
X219912270Y-58475961D01*
X220085503Y-58510419D01*
G37*
G36*
X249451909Y-56061483D02*
G01*
X249615254Y-56129142D01*
X249762260Y-56227369D01*
X249887279Y-56352388D01*
X249985506Y-56499394D01*
X250053165Y-56662739D01*
X250087658Y-56836145D01*
X250087658Y-57012949D01*
X250053165Y-57186355D01*
X249985506Y-57349700D01*
X249887279Y-57496706D01*
X249762260Y-57621725D01*
X249615254Y-57719952D01*
X249451909Y-57787611D01*
X249278503Y-57822104D01*
X249101699Y-57822104D01*
X248928293Y-57787611D01*
X248764948Y-57719952D01*
X248617942Y-57621725D01*
X248492923Y-57496706D01*
X248394696Y-57349700D01*
X248327037Y-57186355D01*
X248292544Y-57012949D01*
X248292544Y-56836145D01*
X248327037Y-56662739D01*
X248394696Y-56499394D01*
X248492923Y-56352388D01*
X248617942Y-56227369D01*
X248764948Y-56129142D01*
X248928293Y-56061483D01*
X249101699Y-56026990D01*
X249278503Y-56026990D01*
X249451909Y-56061483D01*
G37*
G36*
X220085503Y-55970420D02*
G01*
X220248685Y-56038012D01*
X220395545Y-56136141D01*
X220520439Y-56261035D01*
X220618568Y-56407895D01*
X220686160Y-56571077D01*
X220720618Y-56744310D01*
X220720618Y-56920936D01*
X220686160Y-57094169D01*
X220618568Y-57257351D01*
X220520439Y-57404211D01*
X220395545Y-57529105D01*
X220248685Y-57627234D01*
X220085503Y-57694826D01*
X219912270Y-57729284D01*
X219735644Y-57729284D01*
X219562411Y-57694826D01*
X219399229Y-57627234D01*
X219252369Y-57529105D01*
X219127475Y-57404211D01*
X219029346Y-57257351D01*
X218961754Y-57094169D01*
X218927296Y-56920936D01*
X218927296Y-56744310D01*
X218961754Y-56571077D01*
X219029346Y-56407895D01*
X219127475Y-56261035D01*
X219252369Y-56136141D01*
X219399229Y-56038012D01*
X219562411Y-55970420D01*
X219735644Y-55935962D01*
X219912270Y-55935962D01*
X220085503Y-55970420D01*
G37*
G36*
X247915749Y-53182144D02*
G01*
X247923658Y-53184263D01*
X247923663Y-53184264D01*
X248033915Y-53213806D01*
X248033919Y-53213807D01*
X248041828Y-53215927D01*
X248055334Y-53221522D01*
X248062425Y-53225616D01*
X248062427Y-53225617D01*
X248161276Y-53282688D01*
X248161278Y-53282689D01*
X248168373Y-53286786D01*
X248179971Y-53295685D01*
X248185764Y-53301478D01*
X248213210Y-53328923D01*
X248225109Y-53337136D01*
X248229144Y-53338808D01*
X248582697Y-53692361D01*
X248586973Y-53702686D01*
X248608771Y-53724485D01*
X248625820Y-53741534D01*
X248634719Y-53753132D01*
X248699983Y-53866171D01*
X248705578Y-53879677D01*
X248739361Y-54005756D01*
X248741269Y-54020250D01*
X248741269Y-54150776D01*
X248739361Y-54165270D01*
X248705578Y-54291348D01*
X248699983Y-54304854D01*
X248634719Y-54417893D01*
X248625820Y-54429491D01*
X248620024Y-54435286D01*
X248620024Y-54435287D01*
X248592580Y-54462731D01*
X248584367Y-54474629D01*
X248582697Y-54478664D01*
X248193788Y-54867573D01*
X248171480Y-54876813D01*
X248169737Y-54877867D01*
X248168799Y-54877923D01*
X248154190Y-54883975D01*
X248143304Y-54879466D01*
X248132066Y-54880146D01*
X248090286Y-54898948D01*
X248049964Y-54939271D01*
X248032482Y-54971978D01*
X248027188Y-54998592D01*
X248028413Y-55004752D01*
X248024532Y-55024269D01*
X248013476Y-55040814D01*
X247306369Y-55747921D01*
X247289824Y-55758977D01*
X247270307Y-55762858D01*
X247264148Y-55761633D01*
X247237533Y-55766927D01*
X247204826Y-55784409D01*
X247162672Y-55826562D01*
X247144101Y-55875529D01*
X247149530Y-55888635D01*
X247133128Y-55928233D01*
X246744219Y-56317142D01*
X246733892Y-56321418D01*
X246702923Y-56352388D01*
X246695046Y-56360265D01*
X246683448Y-56369164D01*
X246570409Y-56434428D01*
X246556903Y-56440023D01*
X246430825Y-56473806D01*
X246416331Y-56475714D01*
X246408141Y-56475714D01*
X246294000Y-56475714D01*
X246285805Y-56475714D01*
X246271311Y-56473806D01*
X246145232Y-56440023D01*
X246131726Y-56434428D01*
X246018687Y-56369164D01*
X246007089Y-56360265D01*
X245999212Y-56352388D01*
X245973848Y-56327025D01*
X245961950Y-56318812D01*
X245957916Y-56317142D01*
X245604363Y-55963589D01*
X245600085Y-55953262D01*
X245567033Y-55920209D01*
X245561240Y-55914416D01*
X245552341Y-55902818D01*
X245537285Y-55876742D01*
X245491172Y-55796872D01*
X245491171Y-55796870D01*
X245487077Y-55789779D01*
X245481482Y-55776273D01*
X245479362Y-55768364D01*
X245479361Y-55768360D01*
X245449819Y-55658108D01*
X245449818Y-55658103D01*
X245447699Y-55650194D01*
X245445791Y-55635700D01*
X245445791Y-55505174D01*
X245447699Y-55490680D01*
X245481482Y-55364602D01*
X245487077Y-55351096D01*
X245491171Y-55344004D01*
X245491174Y-55343998D01*
X245548243Y-55245153D01*
X245548247Y-55245147D01*
X245552341Y-55238057D01*
X245561240Y-55226459D01*
X245567026Y-55220672D01*
X245567036Y-55220660D01*
X245594478Y-55193219D01*
X245602692Y-55181319D01*
X245604363Y-55177286D01*
X245607591Y-55174057D01*
X245607592Y-55174056D01*
X245982540Y-54799108D01*
X245982542Y-54799106D01*
X245993272Y-54788377D01*
X246015569Y-54779141D01*
X246017323Y-54778081D01*
X246018266Y-54778023D01*
X246032870Y-54771975D01*
X246043752Y-54776482D01*
X246054996Y-54775803D01*
X246096773Y-54757000D01*
X246137095Y-54716678D01*
X246154576Y-54683973D01*
X246159870Y-54657351D01*
X246158647Y-54651198D01*
X246162528Y-54631681D01*
X246173584Y-54615136D01*
X246661405Y-54127315D01*
X246871986Y-53916733D01*
X246871989Y-53916730D01*
X246880691Y-53908029D01*
X246897236Y-53896973D01*
X246916753Y-53893092D01*
X246922907Y-53894315D01*
X246949528Y-53889021D01*
X246982233Y-53871540D01*
X247024386Y-53829388D01*
X247042957Y-53780419D01*
X247037530Y-53767315D01*
X247053932Y-53727717D01*
X247057162Y-53724486D01*
X247057163Y-53724485D01*
X247432111Y-53349537D01*
X247432113Y-53349535D01*
X247442841Y-53338808D01*
X247453166Y-53334530D01*
X247486215Y-53301481D01*
X247486227Y-53301471D01*
X247492014Y-53295685D01*
X247503612Y-53286786D01*
X247510702Y-53282692D01*
X247510708Y-53282688D01*
X247609553Y-53225619D01*
X247609559Y-53225616D01*
X247616651Y-53221522D01*
X247630157Y-53215927D01*
X247756235Y-53182144D01*
X247770729Y-53180236D01*
X247901255Y-53180236D01*
X247915749Y-53182144D01*
G37*
G36*
X220693474Y-53395505D02*
G01*
X220710019Y-53406561D01*
X220721075Y-53423106D01*
X220724957Y-53442623D01*
X220724957Y-55142623D01*
X220721075Y-55162140D01*
X220710019Y-55178685D01*
X220693474Y-55189741D01*
X220673957Y-55193623D01*
X218973957Y-55193623D01*
X218954440Y-55189741D01*
X218937895Y-55178685D01*
X218926839Y-55162140D01*
X218922957Y-55142623D01*
X218922957Y-53442623D01*
X218926839Y-53423106D01*
X218937895Y-53406561D01*
X218954440Y-53395505D01*
X218973957Y-53391623D01*
X220673957Y-53391623D01*
X220693474Y-53395505D01*
G37*
G36*
X253044012Y-52469380D02*
G01*
X253207357Y-52537039D01*
X253354363Y-52635266D01*
X253479382Y-52760285D01*
X253577609Y-52907291D01*
X253645268Y-53070636D01*
X253679761Y-53244042D01*
X253679761Y-53420846D01*
X253645268Y-53594252D01*
X253577609Y-53757597D01*
X253479382Y-53904603D01*
X253354363Y-54029622D01*
X253207357Y-54127849D01*
X253044012Y-54195508D01*
X252870606Y-54230001D01*
X252693802Y-54230001D01*
X252520396Y-54195508D01*
X252357051Y-54127849D01*
X252210045Y-54029622D01*
X252085026Y-53904603D01*
X251986799Y-53757597D01*
X251919140Y-53594252D01*
X251884647Y-53420846D01*
X251884647Y-53244042D01*
X251919140Y-53070636D01*
X251986799Y-52907291D01*
X252085026Y-52760285D01*
X252210045Y-52635266D01*
X252357051Y-52537039D01*
X252520396Y-52469380D01*
X252693802Y-52434887D01*
X252870606Y-52434887D01*
X253044012Y-52469380D01*
G37*
M02*
