G04 #@! TF.GenerationSoftware,KiCad,Pcbnew,9.0.2*
G04 #@! TF.CreationDate,2026-05-03T18:11:30-04:00*
G04 #@! TF.ProjectId,Trackball,54726163-6b62-4616-9c6c-2e6b69636164,rev?*
G04 #@! TF.SameCoordinates,Original*
G04 #@! TF.FileFunction,AssemblyDrawing,Top*
%FSLAX46Y46*%
G04 Gerber Fmt 4.6, Leading zero omitted, Abs format (unit mm)*
G04 Created by KiCad (PCBNEW 9.0.2) date 2026-05-03 18:11:30*
%MOMM*%
%LPD*%
G01*
G04 APERTURE LIST*
%ADD10C,0.150000*%
%ADD11C,0.025400*%
%ADD12C,0.000000*%
%ADD13C,0.100000*%
G04 APERTURE END LIST*
D10*
X213771773Y-69612680D02*
X213637086Y-69680023D01*
X213637086Y-69680023D02*
X213468727Y-69848382D01*
X213468727Y-69848382D02*
X213435056Y-69949397D01*
X213435056Y-69949397D02*
X213435056Y-70016741D01*
X213435056Y-70016741D02*
X213468727Y-70117756D01*
X213468727Y-70117756D02*
X213536071Y-70185100D01*
X213536071Y-70185100D02*
X213637086Y-70218772D01*
X213637086Y-70218772D02*
X213704430Y-70218772D01*
X213704430Y-70218772D02*
X213805445Y-70185100D01*
X213805445Y-70185100D02*
X213973804Y-70084084D01*
X213973804Y-70084084D02*
X214074819Y-70050413D01*
X214074819Y-70050413D02*
X214142163Y-70050413D01*
X214142163Y-70050413D02*
X214243178Y-70084084D01*
X214243178Y-70084084D02*
X214310521Y-70151428D01*
X214310521Y-70151428D02*
X214344193Y-70252443D01*
X214344193Y-70252443D02*
X214344193Y-70319787D01*
X214344193Y-70319787D02*
X214310521Y-70420802D01*
X214310521Y-70420802D02*
X214142163Y-70589161D01*
X214142163Y-70589161D02*
X214007476Y-70656504D01*
X213805445Y-70925878D02*
X212929979Y-70387130D01*
X212929979Y-70387130D02*
X213300369Y-71026894D01*
X213300369Y-71026894D02*
X212660605Y-70656504D01*
X212660605Y-70656504D02*
X213199353Y-71531970D01*
X212323888Y-70858535D02*
X211785140Y-71397283D01*
X211751468Y-71632985D02*
X211616781Y-71700329D01*
X211616781Y-71700329D02*
X211448422Y-71868687D01*
X211448422Y-71868687D02*
X211414751Y-71969703D01*
X211414751Y-71969703D02*
X211414751Y-72037046D01*
X211414751Y-72037046D02*
X211448422Y-72138061D01*
X211448422Y-72138061D02*
X211515766Y-72205405D01*
X211515766Y-72205405D02*
X211616781Y-72239077D01*
X211616781Y-72239077D02*
X211684125Y-72239077D01*
X211684125Y-72239077D02*
X211785140Y-72205405D01*
X211785140Y-72205405D02*
X211953499Y-72104390D01*
X211953499Y-72104390D02*
X212054514Y-72070718D01*
X212054514Y-72070718D02*
X212121857Y-72070718D01*
X212121857Y-72070718D02*
X212222873Y-72104390D01*
X212222873Y-72104390D02*
X212290216Y-72171733D01*
X212290216Y-72171733D02*
X212323888Y-72272748D01*
X212323888Y-72272748D02*
X212323888Y-72340092D01*
X212323888Y-72340092D02*
X212290216Y-72441107D01*
X212290216Y-72441107D02*
X212121857Y-72609466D01*
X212121857Y-72609466D02*
X211987170Y-72676809D01*
X211010690Y-72306420D02*
X211717796Y-73013527D01*
X211717796Y-73013527D02*
X211448422Y-73282901D01*
X211448422Y-73282901D02*
X211347407Y-73316573D01*
X211347407Y-73316573D02*
X211280064Y-73316573D01*
X211280064Y-73316573D02*
X211179048Y-73282901D01*
X211179048Y-73282901D02*
X211078033Y-73181886D01*
X211078033Y-73181886D02*
X211044361Y-73080871D01*
X211044361Y-73080871D02*
X211044361Y-73013527D01*
X211044361Y-73013527D02*
X211078033Y-72912512D01*
X211078033Y-72912512D02*
X211347407Y-72643138D01*
X210303583Y-73013527D02*
X211010690Y-73720634D01*
X211010690Y-73720634D02*
X210842331Y-73888993D01*
X210842331Y-73888993D02*
X210707644Y-73956336D01*
X210707644Y-73956336D02*
X210572957Y-73956336D01*
X210572957Y-73956336D02*
X210471941Y-73922664D01*
X210471941Y-73922664D02*
X210303583Y-73821649D01*
X210303583Y-73821649D02*
X210202567Y-73720634D01*
X210202567Y-73720634D02*
X210101552Y-73552275D01*
X210101552Y-73552275D02*
X210067880Y-73451260D01*
X210067880Y-73451260D02*
X210067880Y-73316573D01*
X210067880Y-73316573D02*
X210135224Y-73181886D01*
X210135224Y-73181886D02*
X210303583Y-73013527D01*
X210404598Y-74326725D02*
X210000537Y-74730786D01*
X209495461Y-73821649D02*
X210202567Y-74528756D01*
X216855736Y-73517787D02*
X217024094Y-73686146D01*
X216788392Y-73787161D02*
X217024094Y-73686146D01*
X217024094Y-73686146D02*
X217125110Y-73450444D01*
X217057766Y-73921848D02*
X217024094Y-73686146D01*
X217024094Y-73686146D02*
X217259797Y-73719818D01*
X217626737Y-74288790D02*
X217458379Y-74120431D01*
X217694081Y-74019416D02*
X217458379Y-74120431D01*
X217458379Y-74120431D02*
X217357363Y-74356133D01*
X217424707Y-73884729D02*
X217458379Y-74120431D01*
X217458379Y-74120431D02*
X217222676Y-74086759D01*
X212458575Y-70858535D02*
X213165682Y-71565642D01*
X213165682Y-71565642D02*
X212424903Y-71296268D01*
X212424903Y-71296268D02*
X212694277Y-72037046D01*
X212694277Y-72037046D02*
X211987170Y-71329939D01*
X212424903Y-72306420D02*
X211246392Y-72070718D01*
X211953499Y-72777825D02*
X211717796Y-71599313D01*
X211650453Y-72946183D02*
X211650453Y-73013527D01*
X211650453Y-73013527D02*
X211616781Y-73114542D01*
X211616781Y-73114542D02*
X211448422Y-73282901D01*
X211448422Y-73282901D02*
X211347407Y-73316573D01*
X211347407Y-73316573D02*
X211280064Y-73316573D01*
X211280064Y-73316573D02*
X211179048Y-73282901D01*
X211179048Y-73282901D02*
X211111705Y-73215557D01*
X211111705Y-73215557D02*
X211044361Y-73080870D01*
X211044361Y-73080870D02*
X211044361Y-72272748D01*
X211044361Y-72272748D02*
X210606629Y-72710481D01*
X226499695Y-56884758D02*
X226365008Y-56952101D01*
X226365008Y-56952101D02*
X226196649Y-57120460D01*
X226196649Y-57120460D02*
X226162978Y-57221475D01*
X226162978Y-57221475D02*
X226162978Y-57288819D01*
X226162978Y-57288819D02*
X226196649Y-57389834D01*
X226196649Y-57389834D02*
X226263993Y-57457178D01*
X226263993Y-57457178D02*
X226365008Y-57490850D01*
X226365008Y-57490850D02*
X226432352Y-57490850D01*
X226432352Y-57490850D02*
X226533367Y-57457178D01*
X226533367Y-57457178D02*
X226701726Y-57356162D01*
X226701726Y-57356162D02*
X226802741Y-57322491D01*
X226802741Y-57322491D02*
X226870085Y-57322491D01*
X226870085Y-57322491D02*
X226971100Y-57356162D01*
X226971100Y-57356162D02*
X227038443Y-57423506D01*
X227038443Y-57423506D02*
X227072115Y-57524521D01*
X227072115Y-57524521D02*
X227072115Y-57591865D01*
X227072115Y-57591865D02*
X227038443Y-57692880D01*
X227038443Y-57692880D02*
X226870085Y-57861239D01*
X226870085Y-57861239D02*
X226735398Y-57928582D01*
X226533367Y-58197956D02*
X225657901Y-57659208D01*
X225657901Y-57659208D02*
X226028291Y-58298972D01*
X226028291Y-58298972D02*
X225388527Y-57928582D01*
X225388527Y-57928582D02*
X225927275Y-58804048D01*
X225051810Y-58130613D02*
X224513062Y-58669361D01*
X224479390Y-58905063D02*
X224344703Y-58972407D01*
X224344703Y-58972407D02*
X224176344Y-59140765D01*
X224176344Y-59140765D02*
X224142673Y-59241781D01*
X224142673Y-59241781D02*
X224142673Y-59309124D01*
X224142673Y-59309124D02*
X224176344Y-59410139D01*
X224176344Y-59410139D02*
X224243688Y-59477483D01*
X224243688Y-59477483D02*
X224344703Y-59511155D01*
X224344703Y-59511155D02*
X224412047Y-59511155D01*
X224412047Y-59511155D02*
X224513062Y-59477483D01*
X224513062Y-59477483D02*
X224681421Y-59376468D01*
X224681421Y-59376468D02*
X224782436Y-59342796D01*
X224782436Y-59342796D02*
X224849779Y-59342796D01*
X224849779Y-59342796D02*
X224950795Y-59376468D01*
X224950795Y-59376468D02*
X225018138Y-59443811D01*
X225018138Y-59443811D02*
X225051810Y-59544826D01*
X225051810Y-59544826D02*
X225051810Y-59612170D01*
X225051810Y-59612170D02*
X225018138Y-59713185D01*
X225018138Y-59713185D02*
X224849779Y-59881544D01*
X224849779Y-59881544D02*
X224715092Y-59948887D01*
X223738612Y-59578498D02*
X224445718Y-60285605D01*
X224445718Y-60285605D02*
X224176344Y-60554979D01*
X224176344Y-60554979D02*
X224075329Y-60588651D01*
X224075329Y-60588651D02*
X224007986Y-60588651D01*
X224007986Y-60588651D02*
X223906970Y-60554979D01*
X223906970Y-60554979D02*
X223805955Y-60453964D01*
X223805955Y-60453964D02*
X223772283Y-60352949D01*
X223772283Y-60352949D02*
X223772283Y-60285605D01*
X223772283Y-60285605D02*
X223805955Y-60184590D01*
X223805955Y-60184590D02*
X224075329Y-59915216D01*
X223031505Y-60285605D02*
X223738612Y-60992712D01*
X223738612Y-60992712D02*
X223570253Y-61161071D01*
X223570253Y-61161071D02*
X223435566Y-61228414D01*
X223435566Y-61228414D02*
X223300879Y-61228414D01*
X223300879Y-61228414D02*
X223199863Y-61194742D01*
X223199863Y-61194742D02*
X223031505Y-61093727D01*
X223031505Y-61093727D02*
X222930489Y-60992712D01*
X222930489Y-60992712D02*
X222829474Y-60824353D01*
X222829474Y-60824353D02*
X222795802Y-60723338D01*
X222795802Y-60723338D02*
X222795802Y-60588651D01*
X222795802Y-60588651D02*
X222863146Y-60453964D01*
X222863146Y-60453964D02*
X223031505Y-60285605D01*
X223132520Y-61598803D02*
X222728459Y-62002864D01*
X222223383Y-61093727D02*
X222930489Y-61800834D01*
X225186497Y-58130613D02*
X225893604Y-58837720D01*
X225893604Y-58837720D02*
X225152825Y-58568346D01*
X225152825Y-58568346D02*
X225422199Y-59309124D01*
X225422199Y-59309124D02*
X224715092Y-58602017D01*
X225152825Y-59578498D02*
X223974314Y-59342796D01*
X224681421Y-60049903D02*
X224445718Y-58871391D01*
X224479390Y-60251933D02*
X224041657Y-60689666D01*
X224041657Y-60689666D02*
X224007986Y-60184590D01*
X224007986Y-60184590D02*
X223906970Y-60285605D01*
X223906970Y-60285605D02*
X223805955Y-60319277D01*
X223805955Y-60319277D02*
X223738612Y-60319277D01*
X223738612Y-60319277D02*
X223637596Y-60285605D01*
X223637596Y-60285605D02*
X223469238Y-60117246D01*
X223469238Y-60117246D02*
X223435566Y-60016231D01*
X223435566Y-60016231D02*
X223435566Y-59948887D01*
X223435566Y-59948887D02*
X223469238Y-59847872D01*
X223469238Y-59847872D02*
X223671268Y-59645842D01*
X223671268Y-59645842D02*
X223772283Y-59612170D01*
X223772283Y-59612170D02*
X223839627Y-59612170D01*
X230354659Y-61560868D02*
X230186301Y-61392509D01*
X230422003Y-61291494D02*
X230186301Y-61392509D01*
X230186301Y-61392509D02*
X230085285Y-61628211D01*
X230152629Y-61156807D02*
X230186301Y-61392509D01*
X230186301Y-61392509D02*
X229950598Y-61358837D01*
X229583658Y-60789865D02*
X229752016Y-60958224D01*
X229516314Y-61059239D02*
X229752016Y-60958224D01*
X229752016Y-60958224D02*
X229853032Y-60722522D01*
X229785688Y-61193926D02*
X229752016Y-60958224D01*
X229752016Y-60958224D02*
X229987719Y-60991896D01*
X224972816Y-67345909D02*
X224905473Y-67345909D01*
X224905473Y-67345909D02*
X224770786Y-67278566D01*
X224770786Y-67278566D02*
X224703442Y-67211222D01*
X224703442Y-67211222D02*
X224636099Y-67076535D01*
X224636099Y-67076535D02*
X224636099Y-66941848D01*
X224636099Y-66941848D02*
X224669770Y-66840833D01*
X224669770Y-66840833D02*
X224770786Y-66672474D01*
X224770786Y-66672474D02*
X224871801Y-66571459D01*
X224871801Y-66571459D02*
X225040160Y-66470444D01*
X225040160Y-66470444D02*
X225141175Y-66436772D01*
X225141175Y-66436772D02*
X225275862Y-66436772D01*
X225275862Y-66436772D02*
X225410549Y-66504116D01*
X225410549Y-66504116D02*
X225477892Y-66571459D01*
X225477892Y-66571459D02*
X225545236Y-66706146D01*
X225545236Y-66706146D02*
X225545236Y-66773490D01*
X225309534Y-67817314D02*
X225275862Y-67716299D01*
X225275862Y-67716299D02*
X225275862Y-67648955D01*
X225275862Y-67648955D02*
X225309534Y-67547940D01*
X225309534Y-67547940D02*
X225511564Y-67345909D01*
X225511564Y-67345909D02*
X225612579Y-67312238D01*
X225612579Y-67312238D02*
X225679923Y-67312238D01*
X225679923Y-67312238D02*
X225780938Y-67345909D01*
X225780938Y-67345909D02*
X225881953Y-67446925D01*
X225881953Y-67446925D02*
X225915625Y-67547940D01*
X225915625Y-67547940D02*
X225915625Y-67615283D01*
X225915625Y-67615283D02*
X225881953Y-67716299D01*
X225881953Y-67716299D02*
X225679923Y-67918329D01*
X225679923Y-67918329D02*
X225578908Y-67952001D01*
X225578908Y-67952001D02*
X225511564Y-67952001D01*
X225511564Y-67952001D02*
X225410549Y-67918329D01*
X225410549Y-67918329D02*
X225309534Y-67817314D01*
X226319686Y-67884657D02*
X225848282Y-68356062D01*
X226252343Y-67952001D02*
X226319686Y-67952001D01*
X226319686Y-67952001D02*
X226420702Y-67985673D01*
X226420702Y-67985673D02*
X226521717Y-68086688D01*
X226521717Y-68086688D02*
X226555389Y-68187703D01*
X226555389Y-68187703D02*
X226521717Y-68288719D01*
X226521717Y-68288719D02*
X226151328Y-68659108D01*
X226959450Y-68524421D02*
X226488045Y-68995825D01*
X226892106Y-68591764D02*
X226959450Y-68591764D01*
X226959450Y-68591764D02*
X227060465Y-68625436D01*
X227060465Y-68625436D02*
X227161480Y-68726451D01*
X227161480Y-68726451D02*
X227195152Y-68827467D01*
X227195152Y-68827467D02*
X227161480Y-68928482D01*
X227161480Y-68928482D02*
X226791091Y-69298871D01*
X226892106Y-69534573D02*
X227430854Y-70073321D01*
X228508350Y-69601917D02*
X228575694Y-69669261D01*
X228575694Y-69669261D02*
X228609366Y-69770276D01*
X228609366Y-69770276D02*
X228609366Y-69837619D01*
X228609366Y-69837619D02*
X228575694Y-69938635D01*
X228575694Y-69938635D02*
X228474679Y-70106993D01*
X228474679Y-70106993D02*
X228306320Y-70275352D01*
X228306320Y-70275352D02*
X228137961Y-70376367D01*
X228137961Y-70376367D02*
X228036946Y-70410039D01*
X228036946Y-70410039D02*
X227969602Y-70410039D01*
X227969602Y-70410039D02*
X227868587Y-70376367D01*
X227868587Y-70376367D02*
X227801244Y-70309024D01*
X227801244Y-70309024D02*
X227767572Y-70208009D01*
X227767572Y-70208009D02*
X227767572Y-70140665D01*
X227767572Y-70140665D02*
X227801244Y-70039650D01*
X227801244Y-70039650D02*
X227902259Y-69871291D01*
X227902259Y-69871291D02*
X228070618Y-69702932D01*
X228070618Y-69702932D02*
X228238976Y-69601917D01*
X228238976Y-69601917D02*
X228339992Y-69568245D01*
X228339992Y-69568245D02*
X228407335Y-69568245D01*
X228407335Y-69568245D02*
X228508350Y-69601917D01*
X228710381Y-71218161D02*
X228306320Y-70814100D01*
X228508350Y-71016131D02*
X229215457Y-70309024D01*
X229215457Y-70309024D02*
X229047098Y-70342696D01*
X229047098Y-70342696D02*
X228912411Y-70342696D01*
X228912411Y-70342696D02*
X228811396Y-70309024D01*
X228946083Y-71453864D02*
X229787877Y-71352848D01*
X229417488Y-70982459D02*
X229316473Y-71824253D01*
X230427640Y-71521207D02*
X230494984Y-71588551D01*
X230494984Y-71588551D02*
X230528656Y-71689566D01*
X230528656Y-71689566D02*
X230528656Y-71756909D01*
X230528656Y-71756909D02*
X230494984Y-71857925D01*
X230494984Y-71857925D02*
X230393969Y-72026283D01*
X230393969Y-72026283D02*
X230225610Y-72194642D01*
X230225610Y-72194642D02*
X230057251Y-72295657D01*
X230057251Y-72295657D02*
X229956236Y-72329329D01*
X229956236Y-72329329D02*
X229888892Y-72329329D01*
X229888892Y-72329329D02*
X229787877Y-72295657D01*
X229787877Y-72295657D02*
X229720534Y-72228314D01*
X229720534Y-72228314D02*
X229686862Y-72127299D01*
X229686862Y-72127299D02*
X229686862Y-72059955D01*
X229686862Y-72059955D02*
X229720534Y-71958940D01*
X229720534Y-71958940D02*
X229821549Y-71790581D01*
X229821549Y-71790581D02*
X229989908Y-71622222D01*
X229989908Y-71622222D02*
X230158266Y-71521207D01*
X230158266Y-71521207D02*
X230259282Y-71487535D01*
X230259282Y-71487535D02*
X230326625Y-71487535D01*
X230326625Y-71487535D02*
X230427640Y-71521207D01*
X231033732Y-72598703D02*
X230562327Y-73070108D01*
X231134747Y-72160970D02*
X230461312Y-72497688D01*
X230461312Y-72497688D02*
X230899045Y-72935421D01*
X230697015Y-73339482D02*
X231235763Y-73878230D01*
X232077557Y-73844558D02*
X231841854Y-73608856D01*
X231471465Y-73979245D02*
X232178572Y-73272138D01*
X232178572Y-73272138D02*
X232515289Y-73608856D01*
X232380602Y-74821039D02*
X232279587Y-74787367D01*
X232279587Y-74787367D02*
X232144900Y-74652680D01*
X232144900Y-74652680D02*
X232111228Y-74551665D01*
X232111228Y-74551665D02*
X232144900Y-74450650D01*
X232144900Y-74450650D02*
X232414274Y-74181276D01*
X232414274Y-74181276D02*
X232515289Y-74147604D01*
X232515289Y-74147604D02*
X232616305Y-74181276D01*
X232616305Y-74181276D02*
X232750992Y-74315963D01*
X232750992Y-74315963D02*
X232784663Y-74416978D01*
X232784663Y-74416978D02*
X232750992Y-74517993D01*
X232750992Y-74517993D02*
X232683648Y-74585337D01*
X232683648Y-74585337D02*
X232279587Y-74315963D01*
X232683648Y-75191429D02*
X233155053Y-74720024D01*
X233087709Y-74787367D02*
X233155053Y-74787367D01*
X233155053Y-74787367D02*
X233256068Y-74821039D01*
X233256068Y-74821039D02*
X233357083Y-74922054D01*
X233357083Y-74922054D02*
X233390755Y-75023070D01*
X233390755Y-75023070D02*
X233357083Y-75124085D01*
X233357083Y-75124085D02*
X232986694Y-75494474D01*
X233357083Y-75124085D02*
X233458099Y-75090413D01*
X233458099Y-75090413D02*
X233559114Y-75124085D01*
X233559114Y-75124085D02*
X233660129Y-75225100D01*
X233660129Y-75225100D02*
X233693801Y-75326116D01*
X233693801Y-75326116D02*
X233660129Y-75427131D01*
X233660129Y-75427131D02*
X233289740Y-75797520D01*
X233929503Y-76437283D02*
X234299892Y-76066894D01*
X234299892Y-76066894D02*
X234333564Y-75965879D01*
X234333564Y-75965879D02*
X234299892Y-75864863D01*
X234299892Y-75864863D02*
X234165205Y-75730176D01*
X234165205Y-75730176D02*
X234064190Y-75696505D01*
X233963175Y-76403611D02*
X233862159Y-76369940D01*
X233862159Y-76369940D02*
X233693801Y-76201581D01*
X233693801Y-76201581D02*
X233660129Y-76100566D01*
X233660129Y-76100566D02*
X233693801Y-75999550D01*
X233693801Y-75999550D02*
X233761144Y-75932207D01*
X233761144Y-75932207D02*
X233862159Y-75898535D01*
X233862159Y-75898535D02*
X233963175Y-75932207D01*
X233963175Y-75932207D02*
X234131533Y-76100566D01*
X234131533Y-76100566D02*
X234232549Y-76134237D01*
X234367236Y-76875016D02*
X234333564Y-76774001D01*
X234333564Y-76774001D02*
X234367236Y-76672985D01*
X234367236Y-76672985D02*
X234973327Y-76066894D01*
X234939656Y-77380093D02*
X234838641Y-77346421D01*
X234838641Y-77346421D02*
X234703954Y-77211734D01*
X234703954Y-77211734D02*
X234670282Y-77110719D01*
X234670282Y-77110719D02*
X234703954Y-77009703D01*
X234703954Y-77009703D02*
X234973328Y-76740329D01*
X234973328Y-76740329D02*
X235074343Y-76706657D01*
X235074343Y-76706657D02*
X235175358Y-76740329D01*
X235175358Y-76740329D02*
X235310045Y-76875016D01*
X235310045Y-76875016D02*
X235343717Y-76976032D01*
X235343717Y-76976032D02*
X235310045Y-77077047D01*
X235310045Y-77077047D02*
X235242702Y-77144390D01*
X235242702Y-77144390D02*
X234838641Y-76875016D01*
X233720145Y-67424029D02*
X234225221Y-67929105D01*
X234225221Y-67929105D02*
X234292565Y-68063792D01*
X234292565Y-68063792D02*
X234292565Y-68198479D01*
X234292565Y-68198479D02*
X234225221Y-68333166D01*
X234225221Y-68333166D02*
X234157878Y-68400510D01*
X235134359Y-67424029D02*
X234730298Y-67828090D01*
X234932328Y-67626059D02*
X234225221Y-66918952D01*
X234225221Y-66918952D02*
X234258893Y-67087311D01*
X234258893Y-67087311D02*
X234258893Y-67221998D01*
X234258893Y-67221998D02*
X234225221Y-67323013D01*
X234763969Y-66514891D02*
X234763969Y-66447548D01*
X234763969Y-66447548D02*
X234797641Y-66346533D01*
X234797641Y-66346533D02*
X234966000Y-66178174D01*
X234966000Y-66178174D02*
X235067015Y-66144502D01*
X235067015Y-66144502D02*
X235134359Y-66144502D01*
X235134359Y-66144502D02*
X235235374Y-66178174D01*
X235235374Y-66178174D02*
X235302717Y-66245517D01*
X235302717Y-66245517D02*
X235370061Y-66380204D01*
X235370061Y-66380204D02*
X235370061Y-67188326D01*
X235370061Y-67188326D02*
X235807794Y-66750594D01*
X259456999Y-101830093D02*
X259389656Y-101830093D01*
X259389656Y-101830093D02*
X259254969Y-101762750D01*
X259254969Y-101762750D02*
X259187625Y-101695406D01*
X259187625Y-101695406D02*
X259120282Y-101560719D01*
X259120282Y-101560719D02*
X259120282Y-101426032D01*
X259120282Y-101426032D02*
X259153953Y-101325017D01*
X259153953Y-101325017D02*
X259254969Y-101156658D01*
X259254969Y-101156658D02*
X259355984Y-101055643D01*
X259355984Y-101055643D02*
X259524343Y-100954628D01*
X259524343Y-100954628D02*
X259625358Y-100920956D01*
X259625358Y-100920956D02*
X259760045Y-100920956D01*
X259760045Y-100920956D02*
X259894732Y-100988300D01*
X259894732Y-100988300D02*
X259962075Y-101055643D01*
X259962075Y-101055643D02*
X260029419Y-101190330D01*
X260029419Y-101190330D02*
X260029419Y-101257674D01*
X259793717Y-102301498D02*
X259760045Y-102200483D01*
X259760045Y-102200483D02*
X259760045Y-102133139D01*
X259760045Y-102133139D02*
X259793717Y-102032124D01*
X259793717Y-102032124D02*
X259995747Y-101830093D01*
X259995747Y-101830093D02*
X260096762Y-101796422D01*
X260096762Y-101796422D02*
X260164106Y-101796422D01*
X260164106Y-101796422D02*
X260265121Y-101830093D01*
X260265121Y-101830093D02*
X260366136Y-101931109D01*
X260366136Y-101931109D02*
X260399808Y-102032124D01*
X260399808Y-102032124D02*
X260399808Y-102099467D01*
X260399808Y-102099467D02*
X260366136Y-102200483D01*
X260366136Y-102200483D02*
X260164106Y-102402513D01*
X260164106Y-102402513D02*
X260063091Y-102436185D01*
X260063091Y-102436185D02*
X259995747Y-102436185D01*
X259995747Y-102436185D02*
X259894732Y-102402513D01*
X259894732Y-102402513D02*
X259793717Y-102301498D01*
X260803869Y-102368841D02*
X260332465Y-102840246D01*
X260736526Y-102436185D02*
X260803869Y-102436185D01*
X260803869Y-102436185D02*
X260904885Y-102469857D01*
X260904885Y-102469857D02*
X261005900Y-102570872D01*
X261005900Y-102570872D02*
X261039572Y-102671887D01*
X261039572Y-102671887D02*
X261005900Y-102772903D01*
X261005900Y-102772903D02*
X260635511Y-103143292D01*
X261443633Y-103008605D02*
X260972228Y-103480009D01*
X261376289Y-103075948D02*
X261443633Y-103075948D01*
X261443633Y-103075948D02*
X261544648Y-103109620D01*
X261544648Y-103109620D02*
X261645663Y-103210635D01*
X261645663Y-103210635D02*
X261679335Y-103311651D01*
X261679335Y-103311651D02*
X261645663Y-103412666D01*
X261645663Y-103412666D02*
X261275274Y-103783055D01*
X261376289Y-104018757D02*
X261915037Y-104557505D01*
X262992533Y-104086101D02*
X263059877Y-104153445D01*
X263059877Y-104153445D02*
X263093549Y-104254460D01*
X263093549Y-104254460D02*
X263093549Y-104321803D01*
X263093549Y-104321803D02*
X263059877Y-104422819D01*
X263059877Y-104422819D02*
X262958862Y-104591177D01*
X262958862Y-104591177D02*
X262790503Y-104759536D01*
X262790503Y-104759536D02*
X262622144Y-104860551D01*
X262622144Y-104860551D02*
X262521129Y-104894223D01*
X262521129Y-104894223D02*
X262453785Y-104894223D01*
X262453785Y-104894223D02*
X262352770Y-104860551D01*
X262352770Y-104860551D02*
X262285427Y-104793208D01*
X262285427Y-104793208D02*
X262251755Y-104692193D01*
X262251755Y-104692193D02*
X262251755Y-104624849D01*
X262251755Y-104624849D02*
X262285427Y-104523834D01*
X262285427Y-104523834D02*
X262386442Y-104355475D01*
X262386442Y-104355475D02*
X262554801Y-104187116D01*
X262554801Y-104187116D02*
X262723159Y-104086101D01*
X262723159Y-104086101D02*
X262824175Y-104052429D01*
X262824175Y-104052429D02*
X262891518Y-104052429D01*
X262891518Y-104052429D02*
X262992533Y-104086101D01*
X263194564Y-105702345D02*
X262790503Y-105298284D01*
X262992533Y-105500315D02*
X263699640Y-104793208D01*
X263699640Y-104793208D02*
X263531281Y-104826880D01*
X263531281Y-104826880D02*
X263396594Y-104826880D01*
X263396594Y-104826880D02*
X263295579Y-104793208D01*
X263430266Y-105938048D02*
X264272060Y-105837032D01*
X263901671Y-105466643D02*
X263800656Y-106308437D01*
X264911823Y-106005391D02*
X264979167Y-106072735D01*
X264979167Y-106072735D02*
X265012839Y-106173750D01*
X265012839Y-106173750D02*
X265012839Y-106241093D01*
X265012839Y-106241093D02*
X264979167Y-106342109D01*
X264979167Y-106342109D02*
X264878152Y-106510467D01*
X264878152Y-106510467D02*
X264709793Y-106678826D01*
X264709793Y-106678826D02*
X264541434Y-106779841D01*
X264541434Y-106779841D02*
X264440419Y-106813513D01*
X264440419Y-106813513D02*
X264373075Y-106813513D01*
X264373075Y-106813513D02*
X264272060Y-106779841D01*
X264272060Y-106779841D02*
X264204717Y-106712498D01*
X264204717Y-106712498D02*
X264171045Y-106611483D01*
X264171045Y-106611483D02*
X264171045Y-106544139D01*
X264171045Y-106544139D02*
X264204717Y-106443124D01*
X264204717Y-106443124D02*
X264305732Y-106274765D01*
X264305732Y-106274765D02*
X264474091Y-106106406D01*
X264474091Y-106106406D02*
X264642449Y-106005391D01*
X264642449Y-106005391D02*
X264743465Y-105971719D01*
X264743465Y-105971719D02*
X264810808Y-105971719D01*
X264810808Y-105971719D02*
X264911823Y-106005391D01*
X265517915Y-107082887D02*
X265046510Y-107554292D01*
X265618930Y-106645154D02*
X264945495Y-106981872D01*
X264945495Y-106981872D02*
X265383228Y-107419605D01*
X265181198Y-107823666D02*
X265719946Y-108362414D01*
X266561740Y-108328742D02*
X266326037Y-108093040D01*
X265955648Y-108463429D02*
X266662755Y-107756322D01*
X266662755Y-107756322D02*
X266999472Y-108093040D01*
X266864785Y-109305223D02*
X266763770Y-109271551D01*
X266763770Y-109271551D02*
X266629083Y-109136864D01*
X266629083Y-109136864D02*
X266595411Y-109035849D01*
X266595411Y-109035849D02*
X266629083Y-108934834D01*
X266629083Y-108934834D02*
X266898457Y-108665460D01*
X266898457Y-108665460D02*
X266999472Y-108631788D01*
X266999472Y-108631788D02*
X267100488Y-108665460D01*
X267100488Y-108665460D02*
X267235175Y-108800147D01*
X267235175Y-108800147D02*
X267268846Y-108901162D01*
X267268846Y-108901162D02*
X267235175Y-109002177D01*
X267235175Y-109002177D02*
X267167831Y-109069521D01*
X267167831Y-109069521D02*
X266763770Y-108800147D01*
X267167831Y-109675613D02*
X267639236Y-109204208D01*
X267571892Y-109271551D02*
X267639236Y-109271551D01*
X267639236Y-109271551D02*
X267740251Y-109305223D01*
X267740251Y-109305223D02*
X267841266Y-109406238D01*
X267841266Y-109406238D02*
X267874938Y-109507254D01*
X267874938Y-109507254D02*
X267841266Y-109608269D01*
X267841266Y-109608269D02*
X267470877Y-109978658D01*
X267841266Y-109608269D02*
X267942282Y-109574597D01*
X267942282Y-109574597D02*
X268043297Y-109608269D01*
X268043297Y-109608269D02*
X268144312Y-109709284D01*
X268144312Y-109709284D02*
X268177984Y-109810300D01*
X268177984Y-109810300D02*
X268144312Y-109911315D01*
X268144312Y-109911315D02*
X267773923Y-110281704D01*
X268413686Y-110921467D02*
X268784075Y-110551078D01*
X268784075Y-110551078D02*
X268817747Y-110450063D01*
X268817747Y-110450063D02*
X268784075Y-110349047D01*
X268784075Y-110349047D02*
X268649388Y-110214360D01*
X268649388Y-110214360D02*
X268548373Y-110180689D01*
X268447358Y-110887795D02*
X268346342Y-110854124D01*
X268346342Y-110854124D02*
X268177984Y-110685765D01*
X268177984Y-110685765D02*
X268144312Y-110584750D01*
X268144312Y-110584750D02*
X268177984Y-110483734D01*
X268177984Y-110483734D02*
X268245327Y-110416391D01*
X268245327Y-110416391D02*
X268346342Y-110382719D01*
X268346342Y-110382719D02*
X268447358Y-110416391D01*
X268447358Y-110416391D02*
X268615716Y-110584750D01*
X268615716Y-110584750D02*
X268716732Y-110618421D01*
X268851419Y-111359200D02*
X268817747Y-111258185D01*
X268817747Y-111258185D02*
X268851419Y-111157169D01*
X268851419Y-111157169D02*
X269457510Y-110551078D01*
X269423839Y-111864277D02*
X269322824Y-111830605D01*
X269322824Y-111830605D02*
X269188137Y-111695918D01*
X269188137Y-111695918D02*
X269154465Y-111594903D01*
X269154465Y-111594903D02*
X269188137Y-111493887D01*
X269188137Y-111493887D02*
X269457511Y-111224513D01*
X269457511Y-111224513D02*
X269558526Y-111190841D01*
X269558526Y-111190841D02*
X269659541Y-111224513D01*
X269659541Y-111224513D02*
X269794228Y-111359200D01*
X269794228Y-111359200D02*
X269827900Y-111460216D01*
X269827900Y-111460216D02*
X269794228Y-111561231D01*
X269794228Y-111561231D02*
X269726885Y-111628574D01*
X269726885Y-111628574D02*
X269322824Y-111359200D01*
X268204328Y-101908213D02*
X268709404Y-102413289D01*
X268709404Y-102413289D02*
X268776748Y-102547976D01*
X268776748Y-102547976D02*
X268776748Y-102682663D01*
X268776748Y-102682663D02*
X268709404Y-102817350D01*
X268709404Y-102817350D02*
X268642061Y-102884694D01*
X269618542Y-101908213D02*
X269214481Y-102312274D01*
X269416511Y-102110243D02*
X268709404Y-101403136D01*
X268709404Y-101403136D02*
X268743076Y-101571495D01*
X268743076Y-101571495D02*
X268743076Y-101706182D01*
X268743076Y-101706182D02*
X268709404Y-101807197D01*
X269551198Y-100561343D02*
X269214481Y-100898060D01*
X269214481Y-100898060D02*
X269517526Y-101268449D01*
X269517526Y-101268449D02*
X269517526Y-101201106D01*
X269517526Y-101201106D02*
X269551198Y-101100091D01*
X269551198Y-101100091D02*
X269719557Y-100931732D01*
X269719557Y-100931732D02*
X269820572Y-100898060D01*
X269820572Y-100898060D02*
X269887916Y-100898060D01*
X269887916Y-100898060D02*
X269988931Y-100931732D01*
X269988931Y-100931732D02*
X270157290Y-101100091D01*
X270157290Y-101100091D02*
X270190961Y-101201106D01*
X270190961Y-101201106D02*
X270190961Y-101268449D01*
X270190961Y-101268449D02*
X270157290Y-101369465D01*
X270157290Y-101369465D02*
X269988931Y-101537823D01*
X269988931Y-101537823D02*
X269887916Y-101571495D01*
X269887916Y-101571495D02*
X269820572Y-101571495D01*
X213903274Y-97893806D02*
X213903274Y-98227139D01*
X214427084Y-98227139D02*
X213427084Y-98227139D01*
X213427084Y-98227139D02*
X213427084Y-97750949D01*
X214379465Y-96989044D02*
X214427084Y-97084282D01*
X214427084Y-97084282D02*
X214427084Y-97274758D01*
X214427084Y-97274758D02*
X214379465Y-97369996D01*
X214379465Y-97369996D02*
X214284226Y-97417615D01*
X214284226Y-97417615D02*
X213903274Y-97417615D01*
X213903274Y-97417615D02*
X213808036Y-97369996D01*
X213808036Y-97369996D02*
X213760417Y-97274758D01*
X213760417Y-97274758D02*
X213760417Y-97084282D01*
X213760417Y-97084282D02*
X213808036Y-96989044D01*
X213808036Y-96989044D02*
X213903274Y-96941425D01*
X213903274Y-96941425D02*
X213998512Y-96941425D01*
X213998512Y-96941425D02*
X214093750Y-97417615D01*
X214427084Y-96512853D02*
X213760417Y-96512853D01*
X213855655Y-96512853D02*
X213808036Y-96465234D01*
X213808036Y-96465234D02*
X213760417Y-96369996D01*
X213760417Y-96369996D02*
X213760417Y-96227139D01*
X213760417Y-96227139D02*
X213808036Y-96131901D01*
X213808036Y-96131901D02*
X213903274Y-96084282D01*
X213903274Y-96084282D02*
X214427084Y-96084282D01*
X213903274Y-96084282D02*
X213808036Y-96036663D01*
X213808036Y-96036663D02*
X213760417Y-95941425D01*
X213760417Y-95941425D02*
X213760417Y-95798568D01*
X213760417Y-95798568D02*
X213808036Y-95703329D01*
X213808036Y-95703329D02*
X213903274Y-95655710D01*
X213903274Y-95655710D02*
X214427084Y-95655710D01*
X214427084Y-94750949D02*
X213903274Y-94750949D01*
X213903274Y-94750949D02*
X213808036Y-94798568D01*
X213808036Y-94798568D02*
X213760417Y-94893806D01*
X213760417Y-94893806D02*
X213760417Y-95084282D01*
X213760417Y-95084282D02*
X213808036Y-95179520D01*
X214379465Y-94750949D02*
X214427084Y-94846187D01*
X214427084Y-94846187D02*
X214427084Y-95084282D01*
X214427084Y-95084282D02*
X214379465Y-95179520D01*
X214379465Y-95179520D02*
X214284226Y-95227139D01*
X214284226Y-95227139D02*
X214188988Y-95227139D01*
X214188988Y-95227139D02*
X214093750Y-95179520D01*
X214093750Y-95179520D02*
X214046131Y-95084282D01*
X214046131Y-95084282D02*
X214046131Y-94846187D01*
X214046131Y-94846187D02*
X213998512Y-94750949D01*
X214427084Y-94131901D02*
X214379465Y-94227139D01*
X214379465Y-94227139D02*
X214284226Y-94274758D01*
X214284226Y-94274758D02*
X213427084Y-94274758D01*
X214379465Y-93369996D02*
X214427084Y-93465234D01*
X214427084Y-93465234D02*
X214427084Y-93655710D01*
X214427084Y-93655710D02*
X214379465Y-93750948D01*
X214379465Y-93750948D02*
X214284226Y-93798567D01*
X214284226Y-93798567D02*
X213903274Y-93798567D01*
X213903274Y-93798567D02*
X213808036Y-93750948D01*
X213808036Y-93750948D02*
X213760417Y-93655710D01*
X213760417Y-93655710D02*
X213760417Y-93465234D01*
X213760417Y-93465234D02*
X213808036Y-93369996D01*
X213808036Y-93369996D02*
X213903274Y-93322377D01*
X213903274Y-93322377D02*
X213998512Y-93322377D01*
X213998512Y-93322377D02*
X214093750Y-93798567D01*
X206582742Y-95253387D02*
X206582742Y-95967672D01*
X206582742Y-95967672D02*
X206535123Y-96110529D01*
X206535123Y-96110529D02*
X206439885Y-96205768D01*
X206439885Y-96205768D02*
X206297028Y-96253387D01*
X206297028Y-96253387D02*
X206201790Y-96253387D01*
X207582742Y-96253387D02*
X207011314Y-96253387D01*
X207297028Y-96253387D02*
X207297028Y-95253387D01*
X207297028Y-95253387D02*
X207201790Y-95396244D01*
X207201790Y-95396244D02*
X207106552Y-95491482D01*
X207106552Y-95491482D02*
X207011314Y-95539101D01*
X208201790Y-95253387D02*
X208297028Y-95253387D01*
X208297028Y-95253387D02*
X208392266Y-95301006D01*
X208392266Y-95301006D02*
X208439885Y-95348625D01*
X208439885Y-95348625D02*
X208487504Y-95443863D01*
X208487504Y-95443863D02*
X208535123Y-95634339D01*
X208535123Y-95634339D02*
X208535123Y-95872434D01*
X208535123Y-95872434D02*
X208487504Y-96062910D01*
X208487504Y-96062910D02*
X208439885Y-96158148D01*
X208439885Y-96158148D02*
X208392266Y-96205768D01*
X208392266Y-96205768D02*
X208297028Y-96253387D01*
X208297028Y-96253387D02*
X208201790Y-96253387D01*
X208201790Y-96253387D02*
X208106552Y-96205768D01*
X208106552Y-96205768D02*
X208058933Y-96158148D01*
X208058933Y-96158148D02*
X208011314Y-96062910D01*
X208011314Y-96062910D02*
X207963695Y-95872434D01*
X207963695Y-95872434D02*
X207963695Y-95634339D01*
X207963695Y-95634339D02*
X208011314Y-95443863D01*
X208011314Y-95443863D02*
X208058933Y-95348625D01*
X208058933Y-95348625D02*
X208106552Y-95301006D01*
X208106552Y-95301006D02*
X208201790Y-95253387D01*
X238512624Y-122365176D02*
X238179291Y-122365176D01*
X238179291Y-122888986D02*
X238179291Y-121888986D01*
X238179291Y-121888986D02*
X238655481Y-121888986D01*
X239417386Y-122841367D02*
X239322148Y-122888986D01*
X239322148Y-122888986D02*
X239131672Y-122888986D01*
X239131672Y-122888986D02*
X239036434Y-122841367D01*
X239036434Y-122841367D02*
X238988815Y-122746128D01*
X238988815Y-122746128D02*
X238988815Y-122365176D01*
X238988815Y-122365176D02*
X239036434Y-122269938D01*
X239036434Y-122269938D02*
X239131672Y-122222319D01*
X239131672Y-122222319D02*
X239322148Y-122222319D01*
X239322148Y-122222319D02*
X239417386Y-122269938D01*
X239417386Y-122269938D02*
X239465005Y-122365176D01*
X239465005Y-122365176D02*
X239465005Y-122460414D01*
X239465005Y-122460414D02*
X238988815Y-122555652D01*
X239893577Y-122888986D02*
X239893577Y-122222319D01*
X239893577Y-122317557D02*
X239941196Y-122269938D01*
X239941196Y-122269938D02*
X240036434Y-122222319D01*
X240036434Y-122222319D02*
X240179291Y-122222319D01*
X240179291Y-122222319D02*
X240274529Y-122269938D01*
X240274529Y-122269938D02*
X240322148Y-122365176D01*
X240322148Y-122365176D02*
X240322148Y-122888986D01*
X240322148Y-122365176D02*
X240369767Y-122269938D01*
X240369767Y-122269938D02*
X240465005Y-122222319D01*
X240465005Y-122222319D02*
X240607862Y-122222319D01*
X240607862Y-122222319D02*
X240703101Y-122269938D01*
X240703101Y-122269938D02*
X240750720Y-122365176D01*
X240750720Y-122365176D02*
X240750720Y-122888986D01*
X241655481Y-122888986D02*
X241655481Y-122365176D01*
X241655481Y-122365176D02*
X241607862Y-122269938D01*
X241607862Y-122269938D02*
X241512624Y-122222319D01*
X241512624Y-122222319D02*
X241322148Y-122222319D01*
X241322148Y-122222319D02*
X241226910Y-122269938D01*
X241655481Y-122841367D02*
X241560243Y-122888986D01*
X241560243Y-122888986D02*
X241322148Y-122888986D01*
X241322148Y-122888986D02*
X241226910Y-122841367D01*
X241226910Y-122841367D02*
X241179291Y-122746128D01*
X241179291Y-122746128D02*
X241179291Y-122650890D01*
X241179291Y-122650890D02*
X241226910Y-122555652D01*
X241226910Y-122555652D02*
X241322148Y-122508033D01*
X241322148Y-122508033D02*
X241560243Y-122508033D01*
X241560243Y-122508033D02*
X241655481Y-122460414D01*
X242274529Y-122888986D02*
X242179291Y-122841367D01*
X242179291Y-122841367D02*
X242131672Y-122746128D01*
X242131672Y-122746128D02*
X242131672Y-121888986D01*
X243036434Y-122841367D02*
X242941196Y-122888986D01*
X242941196Y-122888986D02*
X242750720Y-122888986D01*
X242750720Y-122888986D02*
X242655482Y-122841367D01*
X242655482Y-122841367D02*
X242607863Y-122746128D01*
X242607863Y-122746128D02*
X242607863Y-122365176D01*
X242607863Y-122365176D02*
X242655482Y-122269938D01*
X242655482Y-122269938D02*
X242750720Y-122222319D01*
X242750720Y-122222319D02*
X242941196Y-122222319D01*
X242941196Y-122222319D02*
X243036434Y-122269938D01*
X243036434Y-122269938D02*
X243084053Y-122365176D01*
X243084053Y-122365176D02*
X243084053Y-122460414D01*
X243084053Y-122460414D02*
X242607863Y-122555652D01*
X240062682Y-129823689D02*
X240776967Y-129823689D01*
X240776967Y-129823689D02*
X240919824Y-129871308D01*
X240919824Y-129871308D02*
X241015063Y-129966546D01*
X241015063Y-129966546D02*
X241062682Y-130109403D01*
X241062682Y-130109403D02*
X241062682Y-130204641D01*
X241062682Y-128823689D02*
X241062682Y-129395117D01*
X241062682Y-129109403D02*
X240062682Y-129109403D01*
X240062682Y-129109403D02*
X240205539Y-129204641D01*
X240205539Y-129204641D02*
X240300777Y-129299879D01*
X240300777Y-129299879D02*
X240348396Y-129395117D01*
X240062682Y-128490355D02*
X240062682Y-127871308D01*
X240062682Y-127871308D02*
X240443634Y-128204641D01*
X240443634Y-128204641D02*
X240443634Y-128061784D01*
X240443634Y-128061784D02*
X240491253Y-127966546D01*
X240491253Y-127966546D02*
X240538872Y-127918927D01*
X240538872Y-127918927D02*
X240634110Y-127871308D01*
X240634110Y-127871308D02*
X240872205Y-127871308D01*
X240872205Y-127871308D02*
X240967443Y-127918927D01*
X240967443Y-127918927D02*
X241015063Y-127966546D01*
X241015063Y-127966546D02*
X241062682Y-128061784D01*
X241062682Y-128061784D02*
X241062682Y-128347498D01*
X241062682Y-128347498D02*
X241015063Y-128442736D01*
X241015063Y-128442736D02*
X240967443Y-128490355D01*
X216405994Y-101473982D02*
X215698888Y-100766875D01*
X215698888Y-100766875D02*
X216439666Y-101036249D01*
X216439666Y-101036249D02*
X216170292Y-100295471D01*
X216170292Y-100295471D02*
X216877399Y-101002577D01*
X217315131Y-100564845D02*
X217214116Y-100598517D01*
X217214116Y-100598517D02*
X217146773Y-100598517D01*
X217146773Y-100598517D02*
X217045757Y-100564845D01*
X217045757Y-100564845D02*
X216843727Y-100362814D01*
X216843727Y-100362814D02*
X216810055Y-100261799D01*
X216810055Y-100261799D02*
X216810055Y-100194456D01*
X216810055Y-100194456D02*
X216843727Y-100093440D01*
X216843727Y-100093440D02*
X216944742Y-99992425D01*
X216944742Y-99992425D02*
X217045757Y-99958753D01*
X217045757Y-99958753D02*
X217113101Y-99958753D01*
X217113101Y-99958753D02*
X217214116Y-99992425D01*
X217214116Y-99992425D02*
X217416147Y-100194456D01*
X217416147Y-100194456D02*
X217449818Y-100295471D01*
X217449818Y-100295471D02*
X217449818Y-100362814D01*
X217449818Y-100362814D02*
X217416147Y-100463830D01*
X217416147Y-100463830D02*
X217315131Y-100564845D01*
X217685521Y-99251646D02*
X218156925Y-99723051D01*
X217382475Y-99554692D02*
X217752864Y-99925081D01*
X217752864Y-99925081D02*
X217853880Y-99958753D01*
X217853880Y-99958753D02*
X217954895Y-99925081D01*
X217954895Y-99925081D02*
X218055910Y-99824066D01*
X218055910Y-99824066D02*
X218089582Y-99723051D01*
X218089582Y-99723051D02*
X218089582Y-99655707D01*
X218022238Y-98914929D02*
X218493643Y-99386333D01*
X218089582Y-98982272D02*
X218089582Y-98914929D01*
X218089582Y-98914929D02*
X218123254Y-98813914D01*
X218123254Y-98813914D02*
X218224269Y-98712898D01*
X218224269Y-98712898D02*
X218325284Y-98679227D01*
X218325284Y-98679227D02*
X218426299Y-98712898D01*
X218426299Y-98712898D02*
X218796689Y-99083288D01*
X218560986Y-98376181D02*
X218830361Y-98106807D01*
X218426299Y-98039463D02*
X219032391Y-98645555D01*
X219032391Y-98645555D02*
X219133406Y-98679226D01*
X219133406Y-98679226D02*
X219234422Y-98645555D01*
X219234422Y-98645555D02*
X219301765Y-98578211D01*
X219537468Y-98342509D02*
X219066063Y-97871104D01*
X218830361Y-97635402D02*
X218830361Y-97702745D01*
X218830361Y-97702745D02*
X218897704Y-97702745D01*
X218897704Y-97702745D02*
X218897704Y-97635402D01*
X218897704Y-97635402D02*
X218830361Y-97635402D01*
X218830361Y-97635402D02*
X218897704Y-97702745D01*
X219402780Y-97534387D02*
X219874185Y-98005792D01*
X219470124Y-97601730D02*
X219470124Y-97534387D01*
X219470124Y-97534387D02*
X219503795Y-97433372D01*
X219503795Y-97433372D02*
X219604811Y-97332356D01*
X219604811Y-97332356D02*
X219705826Y-97298685D01*
X219705826Y-97298685D02*
X219806841Y-97332356D01*
X219806841Y-97332356D02*
X220177231Y-97702746D01*
X220345589Y-96591578D02*
X220918009Y-97163998D01*
X220918009Y-97163998D02*
X220951681Y-97265013D01*
X220951681Y-97265013D02*
X220951681Y-97332356D01*
X220951681Y-97332356D02*
X220918009Y-97433372D01*
X220918009Y-97433372D02*
X220816994Y-97534387D01*
X220816994Y-97534387D02*
X220715979Y-97568059D01*
X220783322Y-97029311D02*
X220749650Y-97130326D01*
X220749650Y-97130326D02*
X220614963Y-97265013D01*
X220614963Y-97265013D02*
X220513948Y-97298685D01*
X220513948Y-97298685D02*
X220446605Y-97298685D01*
X220446605Y-97298685D02*
X220345589Y-97265013D01*
X220345589Y-97265013D02*
X220143559Y-97062982D01*
X220143559Y-97062982D02*
X220109887Y-96961967D01*
X220109887Y-96961967D02*
X220109887Y-96894624D01*
X220109887Y-96894624D02*
X220143559Y-96793608D01*
X220143559Y-96793608D02*
X220278246Y-96658921D01*
X220278246Y-96658921D02*
X220379261Y-96625250D01*
X221153711Y-96726265D02*
X220446605Y-96019158D01*
X220783322Y-96355876D02*
X221187383Y-95951815D01*
X221557772Y-96322204D02*
X220850666Y-95615097D01*
X221995505Y-95884471D02*
X221894490Y-95918143D01*
X221894490Y-95918143D02*
X221827146Y-95918143D01*
X221827146Y-95918143D02*
X221726131Y-95884471D01*
X221726131Y-95884471D02*
X221524101Y-95682441D01*
X221524101Y-95682441D02*
X221490429Y-95581425D01*
X221490429Y-95581425D02*
X221490429Y-95514082D01*
X221490429Y-95514082D02*
X221524101Y-95413067D01*
X221524101Y-95413067D02*
X221625116Y-95312051D01*
X221625116Y-95312051D02*
X221726131Y-95278380D01*
X221726131Y-95278380D02*
X221793475Y-95278380D01*
X221793475Y-95278380D02*
X221894490Y-95312051D01*
X221894490Y-95312051D02*
X222096520Y-95514082D01*
X222096520Y-95514082D02*
X222130192Y-95615097D01*
X222130192Y-95615097D02*
X222130192Y-95682441D01*
X222130192Y-95682441D02*
X222096520Y-95783456D01*
X222096520Y-95783456D02*
X221995505Y-95884471D01*
X222635269Y-95244708D02*
X222534253Y-95278379D01*
X222534253Y-95278379D02*
X222433238Y-95244708D01*
X222433238Y-95244708D02*
X221827147Y-94638616D01*
X223140345Y-94672288D02*
X223106673Y-94773303D01*
X223106673Y-94773303D02*
X222971986Y-94907990D01*
X222971986Y-94907990D02*
X222870971Y-94941662D01*
X222870971Y-94941662D02*
X222769956Y-94907990D01*
X222769956Y-94907990D02*
X222500582Y-94638616D01*
X222500582Y-94638616D02*
X222466910Y-94537601D01*
X222466910Y-94537601D02*
X222500582Y-94436585D01*
X222500582Y-94436585D02*
X222635269Y-94301898D01*
X222635269Y-94301898D02*
X222736284Y-94268227D01*
X222736284Y-94268227D02*
X222837299Y-94301898D01*
X222837299Y-94301898D02*
X222904643Y-94369242D01*
X222904643Y-94369242D02*
X222635269Y-94773303D01*
X223409719Y-94604944D02*
X223948467Y-94066196D01*
X224049483Y-93830494D02*
X223342376Y-93123387D01*
X223342376Y-93123387D02*
X223611750Y-92854013D01*
X223611750Y-92854013D02*
X223712765Y-92820341D01*
X223712765Y-92820341D02*
X223780109Y-92820341D01*
X223780109Y-92820341D02*
X223881124Y-92854013D01*
X223881124Y-92854013D02*
X223982139Y-92955028D01*
X223982139Y-92955028D02*
X224015811Y-93056043D01*
X224015811Y-93056043D02*
X224015811Y-93123387D01*
X224015811Y-93123387D02*
X223982139Y-93224402D01*
X223982139Y-93224402D02*
X223712765Y-93493776D01*
X225059635Y-92820341D02*
X224689246Y-92449952D01*
X224689246Y-92449952D02*
X224588231Y-92416280D01*
X224588231Y-92416280D02*
X224487215Y-92449952D01*
X224487215Y-92449952D02*
X224352528Y-92584639D01*
X224352528Y-92584639D02*
X224318857Y-92685654D01*
X225025964Y-92786669D02*
X224992292Y-92887685D01*
X224992292Y-92887685D02*
X224823933Y-93056043D01*
X224823933Y-93056043D02*
X224722918Y-93089715D01*
X224722918Y-93089715D02*
X224621902Y-93056043D01*
X224621902Y-93056043D02*
X224554559Y-92988700D01*
X224554559Y-92988700D02*
X224520887Y-92887685D01*
X224520887Y-92887685D02*
X224554559Y-92786669D01*
X224554559Y-92786669D02*
X224722918Y-92618310D01*
X224722918Y-92618310D02*
X224756590Y-92517295D01*
X225699399Y-92180578D02*
X224992292Y-91473471D01*
X225665727Y-92146906D02*
X225632055Y-92247921D01*
X225632055Y-92247921D02*
X225497368Y-92382608D01*
X225497368Y-92382608D02*
X225396353Y-92416280D01*
X225396353Y-92416280D02*
X225329009Y-92416280D01*
X225329009Y-92416280D02*
X225227994Y-92382608D01*
X225227994Y-92382608D02*
X225025964Y-92180578D01*
X225025964Y-92180578D02*
X224992292Y-92079562D01*
X224992292Y-92079562D02*
X224992292Y-92012219D01*
X224992292Y-92012219D02*
X225025964Y-91911204D01*
X225025964Y-91911204D02*
X225160651Y-91776517D01*
X225160651Y-91776517D02*
X225261666Y-91742845D01*
X217030606Y-94556120D02*
X216323499Y-93849014D01*
X216660217Y-94185731D02*
X217064278Y-93781670D01*
X217434667Y-94152059D02*
X216727560Y-93444953D01*
X218141774Y-93444953D02*
X217737713Y-93849014D01*
X217939743Y-93646983D02*
X217232636Y-92939876D01*
X217232636Y-92939876D02*
X217266308Y-93108235D01*
X217266308Y-93108235D02*
X217266308Y-93242922D01*
X217266308Y-93242922D02*
X217232636Y-93343937D01*
X217872400Y-92300113D02*
X217939743Y-92232769D01*
X217939743Y-92232769D02*
X218040758Y-92199098D01*
X218040758Y-92199098D02*
X218108102Y-92199098D01*
X218108102Y-92199098D02*
X218209117Y-92232769D01*
X218209117Y-92232769D02*
X218377476Y-92333785D01*
X218377476Y-92333785D02*
X218545835Y-92502143D01*
X218545835Y-92502143D02*
X218646850Y-92670502D01*
X218646850Y-92670502D02*
X218680522Y-92771518D01*
X218680522Y-92771518D02*
X218680522Y-92838861D01*
X218680522Y-92838861D02*
X218646850Y-92939876D01*
X218646850Y-92939876D02*
X218579506Y-93007220D01*
X218579506Y-93007220D02*
X218478491Y-93040892D01*
X218478491Y-93040892D02*
X218411148Y-93040892D01*
X218411148Y-93040892D02*
X218310132Y-93007220D01*
X218310132Y-93007220D02*
X218141774Y-92906205D01*
X218141774Y-92906205D02*
X217973415Y-92737846D01*
X217973415Y-92737846D02*
X217872400Y-92569487D01*
X217872400Y-92569487D02*
X217838728Y-92468472D01*
X217838728Y-92468472D02*
X217838728Y-92401128D01*
X217838728Y-92401128D02*
X217872400Y-92300113D01*
X262409352Y-127004913D02*
X262544039Y-126937570D01*
X262544039Y-126937570D02*
X262712398Y-126769211D01*
X262712398Y-126769211D02*
X262746069Y-126668196D01*
X262746069Y-126668196D02*
X262746069Y-126600852D01*
X262746069Y-126600852D02*
X262712398Y-126499837D01*
X262712398Y-126499837D02*
X262645054Y-126432493D01*
X262645054Y-126432493D02*
X262544039Y-126398821D01*
X262544039Y-126398821D02*
X262476695Y-126398821D01*
X262476695Y-126398821D02*
X262375680Y-126432493D01*
X262375680Y-126432493D02*
X262207321Y-126533509D01*
X262207321Y-126533509D02*
X262106306Y-126567180D01*
X262106306Y-126567180D02*
X262038962Y-126567180D01*
X262038962Y-126567180D02*
X261937947Y-126533509D01*
X261937947Y-126533509D02*
X261870604Y-126466165D01*
X261870604Y-126466165D02*
X261836932Y-126365150D01*
X261836932Y-126365150D02*
X261836932Y-126297806D01*
X261836932Y-126297806D02*
X261870604Y-126196791D01*
X261870604Y-126196791D02*
X262038962Y-126028432D01*
X262038962Y-126028432D02*
X262173649Y-125961089D01*
X262375680Y-125691715D02*
X263251146Y-126230463D01*
X263251146Y-126230463D02*
X262880756Y-125590699D01*
X262880756Y-125590699D02*
X263520520Y-125961089D01*
X263520520Y-125961089D02*
X262981772Y-125085623D01*
X263857237Y-125759058D02*
X264395985Y-125220310D01*
X264429657Y-124984608D02*
X264564344Y-124917264D01*
X264564344Y-124917264D02*
X264732703Y-124748906D01*
X264732703Y-124748906D02*
X264766374Y-124647890D01*
X264766374Y-124647890D02*
X264766374Y-124580547D01*
X264766374Y-124580547D02*
X264732703Y-124479532D01*
X264732703Y-124479532D02*
X264665359Y-124412188D01*
X264665359Y-124412188D02*
X264564344Y-124378516D01*
X264564344Y-124378516D02*
X264497000Y-124378516D01*
X264497000Y-124378516D02*
X264395985Y-124412188D01*
X264395985Y-124412188D02*
X264227626Y-124513203D01*
X264227626Y-124513203D02*
X264126611Y-124546875D01*
X264126611Y-124546875D02*
X264059268Y-124546875D01*
X264059268Y-124546875D02*
X263958252Y-124513203D01*
X263958252Y-124513203D02*
X263890909Y-124445860D01*
X263890909Y-124445860D02*
X263857237Y-124344845D01*
X263857237Y-124344845D02*
X263857237Y-124277501D01*
X263857237Y-124277501D02*
X263890909Y-124176486D01*
X263890909Y-124176486D02*
X264059268Y-124008127D01*
X264059268Y-124008127D02*
X264193955Y-123940784D01*
X265170435Y-124311173D02*
X264463329Y-123604066D01*
X264463329Y-123604066D02*
X264732703Y-123334692D01*
X264732703Y-123334692D02*
X264833718Y-123301020D01*
X264833718Y-123301020D02*
X264901061Y-123301020D01*
X264901061Y-123301020D02*
X265002077Y-123334692D01*
X265002077Y-123334692D02*
X265103092Y-123435707D01*
X265103092Y-123435707D02*
X265136764Y-123536722D01*
X265136764Y-123536722D02*
X265136764Y-123604066D01*
X265136764Y-123604066D02*
X265103092Y-123705081D01*
X265103092Y-123705081D02*
X264833718Y-123974455D01*
X265877542Y-123604066D02*
X265170435Y-122896959D01*
X265170435Y-122896959D02*
X265338794Y-122728600D01*
X265338794Y-122728600D02*
X265473481Y-122661257D01*
X265473481Y-122661257D02*
X265608168Y-122661257D01*
X265608168Y-122661257D02*
X265709184Y-122694929D01*
X265709184Y-122694929D02*
X265877542Y-122795944D01*
X265877542Y-122795944D02*
X265978558Y-122896959D01*
X265978558Y-122896959D02*
X266079573Y-123065318D01*
X266079573Y-123065318D02*
X266113245Y-123166333D01*
X266113245Y-123166333D02*
X266113245Y-123301020D01*
X266113245Y-123301020D02*
X266045901Y-123435707D01*
X266045901Y-123435707D02*
X265877542Y-123604066D01*
X265776527Y-122290868D02*
X266180588Y-121886807D01*
X266685664Y-122795944D02*
X265978558Y-122088837D01*
X258554388Y-122328803D02*
X258722746Y-122497162D01*
X258487044Y-122598177D02*
X258722746Y-122497162D01*
X258722746Y-122497162D02*
X258823762Y-122261460D01*
X258756418Y-122732864D02*
X258722746Y-122497162D01*
X258722746Y-122497162D02*
X258958449Y-122530834D01*
X258554388Y-122328803D02*
X258722746Y-122497162D01*
X258487044Y-122598177D02*
X258722746Y-122497162D01*
X258722746Y-122497162D02*
X258823762Y-122261460D01*
X258756418Y-122732864D02*
X258722746Y-122497162D01*
X258722746Y-122497162D02*
X258958449Y-122530834D01*
X263722550Y-125759058D02*
X263015443Y-125051951D01*
X263015443Y-125051951D02*
X263756222Y-125321325D01*
X263756222Y-125321325D02*
X263486848Y-124580547D01*
X263486848Y-124580547D02*
X264193955Y-125287654D01*
X263756222Y-124311173D02*
X264934733Y-124546875D01*
X264227626Y-123839768D02*
X264463329Y-125018280D01*
X264833718Y-123233677D02*
X264497000Y-123570394D01*
X264497000Y-123570394D02*
X264800046Y-123940784D01*
X264800046Y-123940784D02*
X264800046Y-123873440D01*
X264800046Y-123873440D02*
X264833718Y-123772425D01*
X264833718Y-123772425D02*
X265002077Y-123604066D01*
X265002077Y-123604066D02*
X265103092Y-123570394D01*
X265103092Y-123570394D02*
X265170435Y-123570394D01*
X265170435Y-123570394D02*
X265271451Y-123604066D01*
X265271451Y-123604066D02*
X265439809Y-123772425D01*
X265439809Y-123772425D02*
X265473481Y-123873440D01*
X265473481Y-123873440D02*
X265473481Y-123940784D01*
X265473481Y-123940784D02*
X265439809Y-124041799D01*
X265439809Y-124041799D02*
X265271451Y-124210158D01*
X265271451Y-124210158D02*
X265170435Y-124243829D01*
X265170435Y-124243829D02*
X265103092Y-124243829D01*
X210961272Y-130960334D02*
X210254166Y-130253227D01*
X210254166Y-130253227D02*
X210994944Y-130522601D01*
X210994944Y-130522601D02*
X210725570Y-129781823D01*
X210725570Y-129781823D02*
X211432677Y-130488929D01*
X211870409Y-130051197D02*
X211769394Y-130084869D01*
X211769394Y-130084869D02*
X211702051Y-130084869D01*
X211702051Y-130084869D02*
X211601035Y-130051197D01*
X211601035Y-130051197D02*
X211399005Y-129849166D01*
X211399005Y-129849166D02*
X211365333Y-129748151D01*
X211365333Y-129748151D02*
X211365333Y-129680808D01*
X211365333Y-129680808D02*
X211399005Y-129579792D01*
X211399005Y-129579792D02*
X211500020Y-129478777D01*
X211500020Y-129478777D02*
X211601035Y-129445105D01*
X211601035Y-129445105D02*
X211668379Y-129445105D01*
X211668379Y-129445105D02*
X211769394Y-129478777D01*
X211769394Y-129478777D02*
X211971425Y-129680808D01*
X211971425Y-129680808D02*
X212005096Y-129781823D01*
X212005096Y-129781823D02*
X212005096Y-129849166D01*
X212005096Y-129849166D02*
X211971425Y-129950182D01*
X211971425Y-129950182D02*
X211870409Y-130051197D01*
X212240799Y-128737998D02*
X212712203Y-129209403D01*
X211937753Y-129041044D02*
X212308142Y-129411433D01*
X212308142Y-129411433D02*
X212409158Y-129445105D01*
X212409158Y-129445105D02*
X212510173Y-129411433D01*
X212510173Y-129411433D02*
X212611188Y-129310418D01*
X212611188Y-129310418D02*
X212644860Y-129209403D01*
X212644860Y-129209403D02*
X212644860Y-129142059D01*
X212577516Y-128401281D02*
X213048921Y-128872685D01*
X212644860Y-128468624D02*
X212644860Y-128401281D01*
X212644860Y-128401281D02*
X212678532Y-128300266D01*
X212678532Y-128300266D02*
X212779547Y-128199250D01*
X212779547Y-128199250D02*
X212880562Y-128165579D01*
X212880562Y-128165579D02*
X212981577Y-128199250D01*
X212981577Y-128199250D02*
X213351967Y-128569640D01*
X213116264Y-127862533D02*
X213385639Y-127593159D01*
X212981577Y-127525815D02*
X213587669Y-128131907D01*
X213587669Y-128131907D02*
X213688684Y-128165578D01*
X213688684Y-128165578D02*
X213789700Y-128131907D01*
X213789700Y-128131907D02*
X213857043Y-128064563D01*
X214092746Y-127828861D02*
X213621341Y-127357456D01*
X213385639Y-127121754D02*
X213385639Y-127189097D01*
X213385639Y-127189097D02*
X213452982Y-127189097D01*
X213452982Y-127189097D02*
X213452982Y-127121754D01*
X213452982Y-127121754D02*
X213385639Y-127121754D01*
X213385639Y-127121754D02*
X213452982Y-127189097D01*
X213958058Y-127020739D02*
X214429463Y-127492144D01*
X214025402Y-127088082D02*
X214025402Y-127020739D01*
X214025402Y-127020739D02*
X214059073Y-126919724D01*
X214059073Y-126919724D02*
X214160089Y-126818708D01*
X214160089Y-126818708D02*
X214261104Y-126785037D01*
X214261104Y-126785037D02*
X214362119Y-126818708D01*
X214362119Y-126818708D02*
X214732509Y-127189098D01*
X214900867Y-126077930D02*
X215473287Y-126650350D01*
X215473287Y-126650350D02*
X215506959Y-126751365D01*
X215506959Y-126751365D02*
X215506959Y-126818708D01*
X215506959Y-126818708D02*
X215473287Y-126919724D01*
X215473287Y-126919724D02*
X215372272Y-127020739D01*
X215372272Y-127020739D02*
X215271257Y-127054411D01*
X215338600Y-126515663D02*
X215304928Y-126616678D01*
X215304928Y-126616678D02*
X215170241Y-126751365D01*
X215170241Y-126751365D02*
X215069226Y-126785037D01*
X215069226Y-126785037D02*
X215001883Y-126785037D01*
X215001883Y-126785037D02*
X214900867Y-126751365D01*
X214900867Y-126751365D02*
X214698837Y-126549334D01*
X214698837Y-126549334D02*
X214665165Y-126448319D01*
X214665165Y-126448319D02*
X214665165Y-126380976D01*
X214665165Y-126380976D02*
X214698837Y-126279960D01*
X214698837Y-126279960D02*
X214833524Y-126145273D01*
X214833524Y-126145273D02*
X214934539Y-126111602D01*
X215708989Y-126212617D02*
X215001883Y-125505510D01*
X215338600Y-125842228D02*
X215742661Y-125438167D01*
X216113050Y-125808556D02*
X215405944Y-125101449D01*
X216550783Y-125370823D02*
X216449768Y-125404495D01*
X216449768Y-125404495D02*
X216382424Y-125404495D01*
X216382424Y-125404495D02*
X216281409Y-125370823D01*
X216281409Y-125370823D02*
X216079379Y-125168793D01*
X216079379Y-125168793D02*
X216045707Y-125067777D01*
X216045707Y-125067777D02*
X216045707Y-125000434D01*
X216045707Y-125000434D02*
X216079379Y-124899419D01*
X216079379Y-124899419D02*
X216180394Y-124798403D01*
X216180394Y-124798403D02*
X216281409Y-124764732D01*
X216281409Y-124764732D02*
X216348753Y-124764732D01*
X216348753Y-124764732D02*
X216449768Y-124798403D01*
X216449768Y-124798403D02*
X216651798Y-125000434D01*
X216651798Y-125000434D02*
X216685470Y-125101449D01*
X216685470Y-125101449D02*
X216685470Y-125168793D01*
X216685470Y-125168793D02*
X216651798Y-125269808D01*
X216651798Y-125269808D02*
X216550783Y-125370823D01*
X217190547Y-124731060D02*
X217089531Y-124764731D01*
X217089531Y-124764731D02*
X216988516Y-124731060D01*
X216988516Y-124731060D02*
X216382425Y-124124968D01*
X217695623Y-124158640D02*
X217661951Y-124259655D01*
X217661951Y-124259655D02*
X217527264Y-124394342D01*
X217527264Y-124394342D02*
X217426249Y-124428014D01*
X217426249Y-124428014D02*
X217325234Y-124394342D01*
X217325234Y-124394342D02*
X217055860Y-124124968D01*
X217055860Y-124124968D02*
X217022188Y-124023953D01*
X217022188Y-124023953D02*
X217055860Y-123922937D01*
X217055860Y-123922937D02*
X217190547Y-123788250D01*
X217190547Y-123788250D02*
X217291562Y-123754579D01*
X217291562Y-123754579D02*
X217392577Y-123788250D01*
X217392577Y-123788250D02*
X217459921Y-123855594D01*
X217459921Y-123855594D02*
X217190547Y-124259655D01*
X217964997Y-124091296D02*
X218503745Y-123552548D01*
X218604761Y-123316846D02*
X217897654Y-122609739D01*
X217897654Y-122609739D02*
X218167028Y-122340365D01*
X218167028Y-122340365D02*
X218268043Y-122306693D01*
X218268043Y-122306693D02*
X218335387Y-122306693D01*
X218335387Y-122306693D02*
X218436402Y-122340365D01*
X218436402Y-122340365D02*
X218537417Y-122441380D01*
X218537417Y-122441380D02*
X218571089Y-122542395D01*
X218571089Y-122542395D02*
X218571089Y-122609739D01*
X218571089Y-122609739D02*
X218537417Y-122710754D01*
X218537417Y-122710754D02*
X218268043Y-122980128D01*
X219614913Y-122306693D02*
X219244524Y-121936304D01*
X219244524Y-121936304D02*
X219143509Y-121902632D01*
X219143509Y-121902632D02*
X219042493Y-121936304D01*
X219042493Y-121936304D02*
X218907806Y-122070991D01*
X218907806Y-122070991D02*
X218874135Y-122172006D01*
X219581242Y-122273021D02*
X219547570Y-122374037D01*
X219547570Y-122374037D02*
X219379211Y-122542395D01*
X219379211Y-122542395D02*
X219278196Y-122576067D01*
X219278196Y-122576067D02*
X219177180Y-122542395D01*
X219177180Y-122542395D02*
X219109837Y-122475052D01*
X219109837Y-122475052D02*
X219076165Y-122374037D01*
X219076165Y-122374037D02*
X219109837Y-122273021D01*
X219109837Y-122273021D02*
X219278196Y-122104662D01*
X219278196Y-122104662D02*
X219311868Y-122003647D01*
X220254677Y-121666930D02*
X219547570Y-120959823D01*
X220221005Y-121633258D02*
X220187333Y-121734273D01*
X220187333Y-121734273D02*
X220052646Y-121868960D01*
X220052646Y-121868960D02*
X219951631Y-121902632D01*
X219951631Y-121902632D02*
X219884287Y-121902632D01*
X219884287Y-121902632D02*
X219783272Y-121868960D01*
X219783272Y-121868960D02*
X219581242Y-121666930D01*
X219581242Y-121666930D02*
X219547570Y-121565914D01*
X219547570Y-121565914D02*
X219547570Y-121498571D01*
X219547570Y-121498571D02*
X219581242Y-121397556D01*
X219581242Y-121397556D02*
X219715929Y-121262869D01*
X219715929Y-121262869D02*
X219816944Y-121229197D01*
X212629708Y-124412862D02*
X211922601Y-123705755D01*
X212259319Y-124042473D02*
X212663380Y-123638412D01*
X213033769Y-124008801D02*
X212326662Y-123301694D01*
X213740876Y-123301694D02*
X213336815Y-123705755D01*
X213538845Y-123503725D02*
X212831739Y-122796618D01*
X212831739Y-122796618D02*
X212865410Y-122964977D01*
X212865410Y-122964977D02*
X212865410Y-123099664D01*
X212865410Y-123099664D02*
X212831739Y-123200679D01*
X275137274Y-114276991D02*
X275271961Y-114209648D01*
X275271961Y-114209648D02*
X275440320Y-114041289D01*
X275440320Y-114041289D02*
X275473991Y-113940274D01*
X275473991Y-113940274D02*
X275473991Y-113872930D01*
X275473991Y-113872930D02*
X275440320Y-113771915D01*
X275440320Y-113771915D02*
X275372976Y-113704571D01*
X275372976Y-113704571D02*
X275271961Y-113670899D01*
X275271961Y-113670899D02*
X275204617Y-113670899D01*
X275204617Y-113670899D02*
X275103602Y-113704571D01*
X275103602Y-113704571D02*
X274935243Y-113805587D01*
X274935243Y-113805587D02*
X274834228Y-113839258D01*
X274834228Y-113839258D02*
X274766884Y-113839258D01*
X274766884Y-113839258D02*
X274665869Y-113805587D01*
X274665869Y-113805587D02*
X274598526Y-113738243D01*
X274598526Y-113738243D02*
X274564854Y-113637228D01*
X274564854Y-113637228D02*
X274564854Y-113569884D01*
X274564854Y-113569884D02*
X274598526Y-113468869D01*
X274598526Y-113468869D02*
X274766884Y-113300510D01*
X274766884Y-113300510D02*
X274901571Y-113233167D01*
X275103602Y-112963793D02*
X275979068Y-113502541D01*
X275979068Y-113502541D02*
X275608678Y-112862777D01*
X275608678Y-112862777D02*
X276248442Y-113233167D01*
X276248442Y-113233167D02*
X275709694Y-112357701D01*
X276585159Y-113031136D02*
X277123907Y-112492388D01*
X277157579Y-112256686D02*
X277292266Y-112189342D01*
X277292266Y-112189342D02*
X277460625Y-112020984D01*
X277460625Y-112020984D02*
X277494296Y-111919968D01*
X277494296Y-111919968D02*
X277494296Y-111852625D01*
X277494296Y-111852625D02*
X277460625Y-111751610D01*
X277460625Y-111751610D02*
X277393281Y-111684266D01*
X277393281Y-111684266D02*
X277292266Y-111650594D01*
X277292266Y-111650594D02*
X277224922Y-111650594D01*
X277224922Y-111650594D02*
X277123907Y-111684266D01*
X277123907Y-111684266D02*
X276955548Y-111785281D01*
X276955548Y-111785281D02*
X276854533Y-111818953D01*
X276854533Y-111818953D02*
X276787190Y-111818953D01*
X276787190Y-111818953D02*
X276686174Y-111785281D01*
X276686174Y-111785281D02*
X276618831Y-111717938D01*
X276618831Y-111717938D02*
X276585159Y-111616923D01*
X276585159Y-111616923D02*
X276585159Y-111549579D01*
X276585159Y-111549579D02*
X276618831Y-111448564D01*
X276618831Y-111448564D02*
X276787190Y-111280205D01*
X276787190Y-111280205D02*
X276921877Y-111212862D01*
X277898357Y-111583251D02*
X277191251Y-110876144D01*
X277191251Y-110876144D02*
X277460625Y-110606770D01*
X277460625Y-110606770D02*
X277561640Y-110573098D01*
X277561640Y-110573098D02*
X277628983Y-110573098D01*
X277628983Y-110573098D02*
X277729999Y-110606770D01*
X277729999Y-110606770D02*
X277831014Y-110707785D01*
X277831014Y-110707785D02*
X277864686Y-110808800D01*
X277864686Y-110808800D02*
X277864686Y-110876144D01*
X277864686Y-110876144D02*
X277831014Y-110977159D01*
X277831014Y-110977159D02*
X277561640Y-111246533D01*
X278605464Y-110876144D02*
X277898357Y-110169037D01*
X277898357Y-110169037D02*
X278066716Y-110000678D01*
X278066716Y-110000678D02*
X278201403Y-109933335D01*
X278201403Y-109933335D02*
X278336090Y-109933335D01*
X278336090Y-109933335D02*
X278437106Y-109967007D01*
X278437106Y-109967007D02*
X278605464Y-110068022D01*
X278605464Y-110068022D02*
X278706480Y-110169037D01*
X278706480Y-110169037D02*
X278807495Y-110337396D01*
X278807495Y-110337396D02*
X278841167Y-110438411D01*
X278841167Y-110438411D02*
X278841167Y-110573098D01*
X278841167Y-110573098D02*
X278773823Y-110707785D01*
X278773823Y-110707785D02*
X278605464Y-110876144D01*
X278504449Y-109562946D02*
X278908510Y-109158885D01*
X279413586Y-110068022D02*
X278706480Y-109360915D01*
X276450472Y-113031136D02*
X275743365Y-112324029D01*
X275743365Y-112324029D02*
X276484144Y-112593403D01*
X276484144Y-112593403D02*
X276214770Y-111852625D01*
X276214770Y-111852625D02*
X276921877Y-112559732D01*
X276484144Y-111583251D02*
X277662655Y-111818953D01*
X276955548Y-111111846D02*
X277191251Y-112290358D01*
X277527968Y-110539427D02*
X277393281Y-110674114D01*
X277393281Y-110674114D02*
X277359609Y-110775129D01*
X277359609Y-110775129D02*
X277359609Y-110842472D01*
X277359609Y-110842472D02*
X277393281Y-111010831D01*
X277393281Y-111010831D02*
X277494296Y-111179190D01*
X277494296Y-111179190D02*
X277763670Y-111448564D01*
X277763670Y-111448564D02*
X277864686Y-111482236D01*
X277864686Y-111482236D02*
X277932029Y-111482236D01*
X277932029Y-111482236D02*
X278033044Y-111448564D01*
X278033044Y-111448564D02*
X278167731Y-111313877D01*
X278167731Y-111313877D02*
X278201403Y-111212862D01*
X278201403Y-111212862D02*
X278201403Y-111145518D01*
X278201403Y-111145518D02*
X278167731Y-111044503D01*
X278167731Y-111044503D02*
X277999373Y-110876144D01*
X277999373Y-110876144D02*
X277898357Y-110842472D01*
X277898357Y-110842472D02*
X277831014Y-110842472D01*
X277831014Y-110842472D02*
X277729999Y-110876144D01*
X277729999Y-110876144D02*
X277595312Y-111010831D01*
X277595312Y-111010831D02*
X277561640Y-111111846D01*
X277561640Y-111111846D02*
X277561640Y-111179190D01*
X277561640Y-111179190D02*
X277595312Y-111280205D01*
X271282310Y-109600881D02*
X271450668Y-109769240D01*
X271214966Y-109870255D02*
X271450668Y-109769240D01*
X271450668Y-109769240D02*
X271551684Y-109533538D01*
X271484340Y-110004942D02*
X271450668Y-109769240D01*
X271450668Y-109769240D02*
X271686371Y-109802912D01*
X271282310Y-109600881D02*
X271450668Y-109769240D01*
X271214966Y-109870255D02*
X271450668Y-109769240D01*
X271450668Y-109769240D02*
X271551684Y-109533538D01*
X271484340Y-110004942D02*
X271450668Y-109769240D01*
X271450668Y-109769240D02*
X271686371Y-109802912D01*
X241861839Y-126929826D02*
X241154733Y-126222719D01*
X241154733Y-126222719D02*
X241895511Y-126492093D01*
X241895511Y-126492093D02*
X241626137Y-125751315D01*
X241626137Y-125751315D02*
X242333244Y-126458421D01*
X242770976Y-126020689D02*
X242669961Y-126054361D01*
X242669961Y-126054361D02*
X242602618Y-126054361D01*
X242602618Y-126054361D02*
X242501602Y-126020689D01*
X242501602Y-126020689D02*
X242299572Y-125818658D01*
X242299572Y-125818658D02*
X242265900Y-125717643D01*
X242265900Y-125717643D02*
X242265900Y-125650300D01*
X242265900Y-125650300D02*
X242299572Y-125549284D01*
X242299572Y-125549284D02*
X242400587Y-125448269D01*
X242400587Y-125448269D02*
X242501602Y-125414597D01*
X242501602Y-125414597D02*
X242568946Y-125414597D01*
X242568946Y-125414597D02*
X242669961Y-125448269D01*
X242669961Y-125448269D02*
X242871992Y-125650300D01*
X242871992Y-125650300D02*
X242905663Y-125751315D01*
X242905663Y-125751315D02*
X242905663Y-125818658D01*
X242905663Y-125818658D02*
X242871992Y-125919674D01*
X242871992Y-125919674D02*
X242770976Y-126020689D01*
X243141366Y-124707490D02*
X243612770Y-125178895D01*
X242838320Y-125010536D02*
X243208709Y-125380925D01*
X243208709Y-125380925D02*
X243309725Y-125414597D01*
X243309725Y-125414597D02*
X243410740Y-125380925D01*
X243410740Y-125380925D02*
X243511755Y-125279910D01*
X243511755Y-125279910D02*
X243545427Y-125178895D01*
X243545427Y-125178895D02*
X243545427Y-125111551D01*
X243478083Y-124370773D02*
X243949488Y-124842177D01*
X243545427Y-124438116D02*
X243545427Y-124370773D01*
X243545427Y-124370773D02*
X243579099Y-124269758D01*
X243579099Y-124269758D02*
X243680114Y-124168742D01*
X243680114Y-124168742D02*
X243781129Y-124135071D01*
X243781129Y-124135071D02*
X243882144Y-124168742D01*
X243882144Y-124168742D02*
X244252534Y-124539132D01*
X244016831Y-123832025D02*
X244286206Y-123562651D01*
X243882144Y-123495307D02*
X244488236Y-124101399D01*
X244488236Y-124101399D02*
X244589251Y-124135070D01*
X244589251Y-124135070D02*
X244690267Y-124101399D01*
X244690267Y-124101399D02*
X244757610Y-124034055D01*
X244993313Y-123798353D02*
X244521908Y-123326948D01*
X244286206Y-123091246D02*
X244286206Y-123158589D01*
X244286206Y-123158589D02*
X244353549Y-123158589D01*
X244353549Y-123158589D02*
X244353549Y-123091246D01*
X244353549Y-123091246D02*
X244286206Y-123091246D01*
X244286206Y-123091246D02*
X244353549Y-123158589D01*
X244858625Y-122990231D02*
X245330030Y-123461636D01*
X244925969Y-123057574D02*
X244925969Y-122990231D01*
X244925969Y-122990231D02*
X244959640Y-122889216D01*
X244959640Y-122889216D02*
X245060656Y-122788200D01*
X245060656Y-122788200D02*
X245161671Y-122754529D01*
X245161671Y-122754529D02*
X245262686Y-122788200D01*
X245262686Y-122788200D02*
X245633076Y-123158590D01*
X245801434Y-122047422D02*
X246373854Y-122619842D01*
X246373854Y-122619842D02*
X246407526Y-122720857D01*
X246407526Y-122720857D02*
X246407526Y-122788200D01*
X246407526Y-122788200D02*
X246373854Y-122889216D01*
X246373854Y-122889216D02*
X246272839Y-122990231D01*
X246272839Y-122990231D02*
X246171824Y-123023903D01*
X246239167Y-122485155D02*
X246205495Y-122586170D01*
X246205495Y-122586170D02*
X246070808Y-122720857D01*
X246070808Y-122720857D02*
X245969793Y-122754529D01*
X245969793Y-122754529D02*
X245902450Y-122754529D01*
X245902450Y-122754529D02*
X245801434Y-122720857D01*
X245801434Y-122720857D02*
X245599404Y-122518826D01*
X245599404Y-122518826D02*
X245565732Y-122417811D01*
X245565732Y-122417811D02*
X245565732Y-122350468D01*
X245565732Y-122350468D02*
X245599404Y-122249452D01*
X245599404Y-122249452D02*
X245734091Y-122114765D01*
X245734091Y-122114765D02*
X245835106Y-122081094D01*
X246609556Y-122182109D02*
X245902450Y-121475002D01*
X246239167Y-121811720D02*
X246643228Y-121407659D01*
X247013617Y-121778048D02*
X246306511Y-121070941D01*
X247451350Y-121340315D02*
X247350335Y-121373987D01*
X247350335Y-121373987D02*
X247282991Y-121373987D01*
X247282991Y-121373987D02*
X247181976Y-121340315D01*
X247181976Y-121340315D02*
X246979946Y-121138285D01*
X246979946Y-121138285D02*
X246946274Y-121037269D01*
X246946274Y-121037269D02*
X246946274Y-120969926D01*
X246946274Y-120969926D02*
X246979946Y-120868911D01*
X246979946Y-120868911D02*
X247080961Y-120767895D01*
X247080961Y-120767895D02*
X247181976Y-120734224D01*
X247181976Y-120734224D02*
X247249320Y-120734224D01*
X247249320Y-120734224D02*
X247350335Y-120767895D01*
X247350335Y-120767895D02*
X247552365Y-120969926D01*
X247552365Y-120969926D02*
X247586037Y-121070941D01*
X247586037Y-121070941D02*
X247586037Y-121138285D01*
X247586037Y-121138285D02*
X247552365Y-121239300D01*
X247552365Y-121239300D02*
X247451350Y-121340315D01*
X248091114Y-120700552D02*
X247990098Y-120734223D01*
X247990098Y-120734223D02*
X247889083Y-120700552D01*
X247889083Y-120700552D02*
X247282992Y-120094460D01*
X248596190Y-120128132D02*
X248562518Y-120229147D01*
X248562518Y-120229147D02*
X248427831Y-120363834D01*
X248427831Y-120363834D02*
X248326816Y-120397506D01*
X248326816Y-120397506D02*
X248225801Y-120363834D01*
X248225801Y-120363834D02*
X247956427Y-120094460D01*
X247956427Y-120094460D02*
X247922755Y-119993445D01*
X247922755Y-119993445D02*
X247956427Y-119892429D01*
X247956427Y-119892429D02*
X248091114Y-119757742D01*
X248091114Y-119757742D02*
X248192129Y-119724071D01*
X248192129Y-119724071D02*
X248293144Y-119757742D01*
X248293144Y-119757742D02*
X248360488Y-119825086D01*
X248360488Y-119825086D02*
X248091114Y-120229147D01*
X248865564Y-120060788D02*
X249404312Y-119522040D01*
X249505328Y-119286338D02*
X248798221Y-118579231D01*
X248798221Y-118579231D02*
X249067595Y-118309857D01*
X249067595Y-118309857D02*
X249168610Y-118276185D01*
X249168610Y-118276185D02*
X249235954Y-118276185D01*
X249235954Y-118276185D02*
X249336969Y-118309857D01*
X249336969Y-118309857D02*
X249437984Y-118410872D01*
X249437984Y-118410872D02*
X249471656Y-118511887D01*
X249471656Y-118511887D02*
X249471656Y-118579231D01*
X249471656Y-118579231D02*
X249437984Y-118680246D01*
X249437984Y-118680246D02*
X249168610Y-118949620D01*
X250515480Y-118276185D02*
X250145091Y-117905796D01*
X250145091Y-117905796D02*
X250044076Y-117872124D01*
X250044076Y-117872124D02*
X249943060Y-117905796D01*
X249943060Y-117905796D02*
X249808373Y-118040483D01*
X249808373Y-118040483D02*
X249774702Y-118141498D01*
X250481809Y-118242513D02*
X250448137Y-118343529D01*
X250448137Y-118343529D02*
X250279778Y-118511887D01*
X250279778Y-118511887D02*
X250178763Y-118545559D01*
X250178763Y-118545559D02*
X250077747Y-118511887D01*
X250077747Y-118511887D02*
X250010404Y-118444544D01*
X250010404Y-118444544D02*
X249976732Y-118343529D01*
X249976732Y-118343529D02*
X250010404Y-118242513D01*
X250010404Y-118242513D02*
X250178763Y-118074154D01*
X250178763Y-118074154D02*
X250212435Y-117973139D01*
X251155244Y-117636422D02*
X250448137Y-116929315D01*
X251121572Y-117602750D02*
X251087900Y-117703765D01*
X251087900Y-117703765D02*
X250953213Y-117838452D01*
X250953213Y-117838452D02*
X250852198Y-117872124D01*
X250852198Y-117872124D02*
X250784854Y-117872124D01*
X250784854Y-117872124D02*
X250683839Y-117838452D01*
X250683839Y-117838452D02*
X250481809Y-117636422D01*
X250481809Y-117636422D02*
X250448137Y-117535406D01*
X250448137Y-117535406D02*
X250448137Y-117468063D01*
X250448137Y-117468063D02*
X250481809Y-117367048D01*
X250481809Y-117367048D02*
X250616496Y-117232361D01*
X250616496Y-117232361D02*
X250717511Y-117198689D01*
X242486451Y-120011964D02*
X241779344Y-119304858D01*
X242116062Y-119641575D02*
X242520123Y-119237514D01*
X242890512Y-119607903D02*
X242183405Y-118900797D01*
X243597619Y-118900797D02*
X243193558Y-119304858D01*
X243395588Y-119102827D02*
X242688481Y-118395720D01*
X242688481Y-118395720D02*
X242722153Y-118564079D01*
X242722153Y-118564079D02*
X242722153Y-118698766D01*
X242722153Y-118698766D02*
X242688481Y-118799781D01*
X243530275Y-117553926D02*
X243193558Y-117890644D01*
X243193558Y-117890644D02*
X243496603Y-118261033D01*
X243496603Y-118261033D02*
X243496603Y-118193690D01*
X243496603Y-118193690D02*
X243530275Y-118092675D01*
X243530275Y-118092675D02*
X243698634Y-117924316D01*
X243698634Y-117924316D02*
X243799649Y-117890644D01*
X243799649Y-117890644D02*
X243866993Y-117890644D01*
X243866993Y-117890644D02*
X243968008Y-117924316D01*
X243968008Y-117924316D02*
X244136367Y-118092675D01*
X244136367Y-118092675D02*
X244170039Y-118193690D01*
X244170039Y-118193690D02*
X244170039Y-118261033D01*
X244170039Y-118261033D02*
X244136367Y-118362049D01*
X244136367Y-118362049D02*
X243968008Y-118530407D01*
X243968008Y-118530407D02*
X243866993Y-118564079D01*
X243866993Y-118564079D02*
X243799649Y-118564079D01*
D11*
X205297496Y-69610727D02*
X214349594Y-78662825D01*
X214349594Y-78662825D02*
X218444591Y-74567828D01*
X210425222Y-72690955D02*
X212472721Y-70643456D01*
X211269366Y-73535099D02*
X210425222Y-72690955D01*
X212472721Y-70643456D02*
X213316865Y-71487600D01*
X213316865Y-71487600D02*
X211269366Y-73535099D01*
X209392493Y-65515730D02*
X205297496Y-69610727D01*
X218444591Y-74567828D02*
X209392493Y-65515730D01*
D12*
G36*
X212894793Y-71065528D02*
G01*
X210847294Y-73113027D01*
X210425222Y-72690955D01*
X212472721Y-70643456D01*
X212894793Y-71065528D01*
G37*
D11*
X218025418Y-56882805D02*
X227077516Y-65934903D01*
X227077516Y-65934903D02*
X231172513Y-61839906D01*
X223153144Y-59963033D02*
X225200643Y-57915534D01*
X223997288Y-60807177D02*
X223153144Y-59963033D01*
X225200643Y-57915534D02*
X226044787Y-58759678D01*
X226044787Y-58759678D02*
X223997288Y-60807177D01*
X222120415Y-52787808D02*
X218025418Y-56882805D01*
X231172513Y-61839906D02*
X222120415Y-52787808D01*
D12*
G36*
X225622715Y-58337606D02*
G01*
X223575216Y-60385105D01*
X223153144Y-59963033D01*
X225200643Y-57915534D01*
X225622715Y-58337606D01*
G37*
D13*
X230187938Y-69931188D02*
X237372143Y-62746983D01*
X231983989Y-71727239D02*
X230187938Y-69931188D01*
X238719181Y-64992047D02*
X231983989Y-71727239D01*
X237372143Y-62746983D02*
X238719181Y-64094021D01*
X238719181Y-64094021D02*
X238719181Y-64992047D01*
X264672121Y-104415372D02*
X271856326Y-97231167D01*
X266468172Y-106211423D02*
X264672121Y-104415372D01*
X273203364Y-99476231D02*
X266468172Y-106211423D01*
X271856326Y-97231167D02*
X273203364Y-98578205D01*
X273203364Y-98578205D02*
X273203364Y-99476231D01*
X202312266Y-97068568D02*
X202312266Y-95163568D01*
X202312266Y-95163568D02*
X202947266Y-94528568D01*
X202947266Y-94528568D02*
X212472266Y-94528568D01*
X212472266Y-97068568D02*
X202312266Y-97068568D01*
X212472266Y-94528568D02*
X212472266Y-97068568D01*
X239337863Y-133459166D02*
X239337863Y-123934166D01*
X239972863Y-134094166D02*
X239337863Y-133459166D01*
X241877863Y-134094166D02*
X239972863Y-134094166D01*
X239337863Y-123934166D02*
X241877863Y-123934166D01*
X241877863Y-123934166D02*
X241877863Y-134094166D01*
D11*
X257736535Y-122049766D02*
X266788633Y-131101864D01*
X266788633Y-131101864D02*
X270883630Y-127006867D01*
X262864261Y-125129994D02*
X264911760Y-123082495D01*
X263708405Y-125974138D02*
X262864261Y-125129994D01*
X264911760Y-123082495D02*
X265755904Y-123926639D01*
X265755904Y-123926639D02*
X263708405Y-125974138D01*
X261831532Y-117954769D02*
X257736535Y-122049766D01*
X270883630Y-127006867D02*
X261831532Y-117954769D01*
D12*
G36*
X265755904Y-123926639D02*
G01*
X263708405Y-125974138D01*
X263286333Y-125552066D01*
X265333832Y-123504567D01*
X265755904Y-123926639D01*
G37*
D11*
X270464457Y-109321844D02*
X279516555Y-118373942D01*
X279516555Y-118373942D02*
X283611552Y-114278945D01*
X275592183Y-112402072D02*
X277639682Y-110354573D01*
X276436327Y-113246216D02*
X275592183Y-112402072D01*
X277639682Y-110354573D02*
X278483826Y-111198717D01*
X278483826Y-111198717D02*
X276436327Y-113246216D01*
X274559454Y-105226847D02*
X270464457Y-109321844D01*
X283611552Y-114278945D02*
X274559454Y-105226847D01*
D12*
G36*
X278483826Y-111198717D02*
G01*
X276436327Y-113246216D01*
X276014255Y-112824144D01*
X278061754Y-110776645D01*
X278483826Y-111198717D01*
G37*
M02*
