G04 #@! TF.GenerationSoftware,KiCad,Pcbnew,9.0.2*
G04 #@! TF.CreationDate,2025-09-26T14:34:01-04:00*
G04 #@! TF.ProjectId,Trackball,54726163-6b62-4616-9c6c-2e6b69636164,rev?*
G04 #@! TF.SameCoordinates,Original*
G04 #@! TF.FileFunction,AssemblyDrawing,Top*
%FSLAX46Y46*%
G04 Gerber Fmt 4.6, Leading zero omitted, Abs format (unit mm)*
G04 Created by KiCad (PCBNEW 9.0.2) date 2025-09-26 14:34:01*
%MOMM*%
%LPD*%
G01*
G04 APERTURE LIST*
%ADD10C,0.150000*%
%ADD11C,0.025400*%
%ADD12C,0.000000*%
%ADD13C,0.100000*%
G04 APERTURE END LIST*
D10*
X241495237Y-44112800D02*
X241352380Y-44065180D01*
X241352380Y-44065180D02*
X241114285Y-44065180D01*
X241114285Y-44065180D02*
X241019047Y-44112800D01*
X241019047Y-44112800D02*
X240971428Y-44160419D01*
X240971428Y-44160419D02*
X240923809Y-44255657D01*
X240923809Y-44255657D02*
X240923809Y-44350895D01*
X240923809Y-44350895D02*
X240971428Y-44446133D01*
X240971428Y-44446133D02*
X241019047Y-44493752D01*
X241019047Y-44493752D02*
X241114285Y-44541371D01*
X241114285Y-44541371D02*
X241304761Y-44588990D01*
X241304761Y-44588990D02*
X241399999Y-44636609D01*
X241399999Y-44636609D02*
X241447618Y-44684228D01*
X241447618Y-44684228D02*
X241495237Y-44779466D01*
X241495237Y-44779466D02*
X241495237Y-44874704D01*
X241495237Y-44874704D02*
X241447618Y-44969942D01*
X241447618Y-44969942D02*
X241399999Y-45017561D01*
X241399999Y-45017561D02*
X241304761Y-45065180D01*
X241304761Y-45065180D02*
X241066666Y-45065180D01*
X241066666Y-45065180D02*
X240923809Y-45017561D01*
X240590475Y-45065180D02*
X240352380Y-44065180D01*
X240352380Y-44065180D02*
X240161904Y-44779466D01*
X240161904Y-44779466D02*
X239971428Y-44065180D01*
X239971428Y-44065180D02*
X239733333Y-45065180D01*
X239590476Y-43969942D02*
X238828571Y-43969942D01*
X238638094Y-44112800D02*
X238495237Y-44065180D01*
X238495237Y-44065180D02*
X238257142Y-44065180D01*
X238257142Y-44065180D02*
X238161904Y-44112800D01*
X238161904Y-44112800D02*
X238114285Y-44160419D01*
X238114285Y-44160419D02*
X238066666Y-44255657D01*
X238066666Y-44255657D02*
X238066666Y-44350895D01*
X238066666Y-44350895D02*
X238114285Y-44446133D01*
X238114285Y-44446133D02*
X238161904Y-44493752D01*
X238161904Y-44493752D02*
X238257142Y-44541371D01*
X238257142Y-44541371D02*
X238447618Y-44588990D01*
X238447618Y-44588990D02*
X238542856Y-44636609D01*
X238542856Y-44636609D02*
X238590475Y-44684228D01*
X238590475Y-44684228D02*
X238638094Y-44779466D01*
X238638094Y-44779466D02*
X238638094Y-44874704D01*
X238638094Y-44874704D02*
X238590475Y-44969942D01*
X238590475Y-44969942D02*
X238542856Y-45017561D01*
X238542856Y-45017561D02*
X238447618Y-45065180D01*
X238447618Y-45065180D02*
X238209523Y-45065180D01*
X238209523Y-45065180D02*
X238066666Y-45017561D01*
X237638094Y-44065180D02*
X237638094Y-45065180D01*
X237638094Y-45065180D02*
X237257142Y-45065180D01*
X237257142Y-45065180D02*
X237161904Y-45017561D01*
X237161904Y-45017561D02*
X237114285Y-44969942D01*
X237114285Y-44969942D02*
X237066666Y-44874704D01*
X237066666Y-44874704D02*
X237066666Y-44731847D01*
X237066666Y-44731847D02*
X237114285Y-44636609D01*
X237114285Y-44636609D02*
X237161904Y-44588990D01*
X237161904Y-44588990D02*
X237257142Y-44541371D01*
X237257142Y-44541371D02*
X237638094Y-44541371D01*
X236638094Y-44065180D02*
X236638094Y-45065180D01*
X236638094Y-45065180D02*
X236399999Y-45065180D01*
X236399999Y-45065180D02*
X236257142Y-45017561D01*
X236257142Y-45017561D02*
X236161904Y-44922323D01*
X236161904Y-44922323D02*
X236114285Y-44827085D01*
X236114285Y-44827085D02*
X236066666Y-44636609D01*
X236066666Y-44636609D02*
X236066666Y-44493752D01*
X236066666Y-44493752D02*
X236114285Y-44303276D01*
X236114285Y-44303276D02*
X236161904Y-44208038D01*
X236161904Y-44208038D02*
X236257142Y-44112800D01*
X236257142Y-44112800D02*
X236399999Y-44065180D01*
X236399999Y-44065180D02*
X236638094Y-44065180D01*
X235780951Y-45065180D02*
X235209523Y-45065180D01*
X235495237Y-44065180D02*
X235495237Y-45065180D01*
X239685713Y-44065180D02*
X239685713Y-45065180D01*
X239685713Y-45065180D02*
X239352380Y-44350895D01*
X239352380Y-44350895D02*
X239019047Y-45065180D01*
X239019047Y-45065180D02*
X239019047Y-44065180D01*
X238638094Y-45065180D02*
X237971428Y-44065180D01*
X237971428Y-45065180D02*
X238638094Y-44065180D01*
X237685713Y-45065180D02*
X237066666Y-45065180D01*
X237066666Y-45065180D02*
X237399999Y-44684228D01*
X237399999Y-44684228D02*
X237257142Y-44684228D01*
X237257142Y-44684228D02*
X237161904Y-44636609D01*
X237161904Y-44636609D02*
X237114285Y-44588990D01*
X237114285Y-44588990D02*
X237066666Y-44493752D01*
X237066666Y-44493752D02*
X237066666Y-44255657D01*
X237066666Y-44255657D02*
X237114285Y-44160419D01*
X237114285Y-44160419D02*
X237161904Y-44112800D01*
X237161904Y-44112800D02*
X237257142Y-44065180D01*
X237257142Y-44065180D02*
X237542856Y-44065180D01*
X237542856Y-44065180D02*
X237638094Y-44112800D01*
X237638094Y-44112800D02*
X237685713Y-44160419D01*
X240914599Y-50145180D02*
X240914599Y-49907085D01*
X241152694Y-50002323D02*
X240914599Y-49907085D01*
X240914599Y-49907085D02*
X240676504Y-50002323D01*
X241057456Y-49716609D02*
X240914599Y-49907085D01*
X240914599Y-49907085D02*
X240771742Y-49716609D01*
X240914600Y-49054819D02*
X240914600Y-49292914D01*
X240676505Y-49197676D02*
X240914600Y-49292914D01*
X240914600Y-49292914D02*
X241152695Y-49197676D01*
X240771743Y-49483390D02*
X240914600Y-49292914D01*
X240914600Y-49292914D02*
X241057457Y-49483390D01*
X223495237Y-36112800D02*
X223352380Y-36065180D01*
X223352380Y-36065180D02*
X223114285Y-36065180D01*
X223114285Y-36065180D02*
X223019047Y-36112800D01*
X223019047Y-36112800D02*
X222971428Y-36160419D01*
X222971428Y-36160419D02*
X222923809Y-36255657D01*
X222923809Y-36255657D02*
X222923809Y-36350895D01*
X222923809Y-36350895D02*
X222971428Y-36446133D01*
X222971428Y-36446133D02*
X223019047Y-36493752D01*
X223019047Y-36493752D02*
X223114285Y-36541371D01*
X223114285Y-36541371D02*
X223304761Y-36588990D01*
X223304761Y-36588990D02*
X223399999Y-36636609D01*
X223399999Y-36636609D02*
X223447618Y-36684228D01*
X223447618Y-36684228D02*
X223495237Y-36779466D01*
X223495237Y-36779466D02*
X223495237Y-36874704D01*
X223495237Y-36874704D02*
X223447618Y-36969942D01*
X223447618Y-36969942D02*
X223399999Y-37017561D01*
X223399999Y-37017561D02*
X223304761Y-37065180D01*
X223304761Y-37065180D02*
X223066666Y-37065180D01*
X223066666Y-37065180D02*
X222923809Y-37017561D01*
X222590475Y-37065180D02*
X222352380Y-36065180D01*
X222352380Y-36065180D02*
X222161904Y-36779466D01*
X222161904Y-36779466D02*
X221971428Y-36065180D01*
X221971428Y-36065180D02*
X221733333Y-37065180D01*
X221590476Y-35969942D02*
X220828571Y-35969942D01*
X220638094Y-36112800D02*
X220495237Y-36065180D01*
X220495237Y-36065180D02*
X220257142Y-36065180D01*
X220257142Y-36065180D02*
X220161904Y-36112800D01*
X220161904Y-36112800D02*
X220114285Y-36160419D01*
X220114285Y-36160419D02*
X220066666Y-36255657D01*
X220066666Y-36255657D02*
X220066666Y-36350895D01*
X220066666Y-36350895D02*
X220114285Y-36446133D01*
X220114285Y-36446133D02*
X220161904Y-36493752D01*
X220161904Y-36493752D02*
X220257142Y-36541371D01*
X220257142Y-36541371D02*
X220447618Y-36588990D01*
X220447618Y-36588990D02*
X220542856Y-36636609D01*
X220542856Y-36636609D02*
X220590475Y-36684228D01*
X220590475Y-36684228D02*
X220638094Y-36779466D01*
X220638094Y-36779466D02*
X220638094Y-36874704D01*
X220638094Y-36874704D02*
X220590475Y-36969942D01*
X220590475Y-36969942D02*
X220542856Y-37017561D01*
X220542856Y-37017561D02*
X220447618Y-37065180D01*
X220447618Y-37065180D02*
X220209523Y-37065180D01*
X220209523Y-37065180D02*
X220066666Y-37017561D01*
X219638094Y-36065180D02*
X219638094Y-37065180D01*
X219638094Y-37065180D02*
X219257142Y-37065180D01*
X219257142Y-37065180D02*
X219161904Y-37017561D01*
X219161904Y-37017561D02*
X219114285Y-36969942D01*
X219114285Y-36969942D02*
X219066666Y-36874704D01*
X219066666Y-36874704D02*
X219066666Y-36731847D01*
X219066666Y-36731847D02*
X219114285Y-36636609D01*
X219114285Y-36636609D02*
X219161904Y-36588990D01*
X219161904Y-36588990D02*
X219257142Y-36541371D01*
X219257142Y-36541371D02*
X219638094Y-36541371D01*
X218638094Y-36065180D02*
X218638094Y-37065180D01*
X218638094Y-37065180D02*
X218399999Y-37065180D01*
X218399999Y-37065180D02*
X218257142Y-37017561D01*
X218257142Y-37017561D02*
X218161904Y-36922323D01*
X218161904Y-36922323D02*
X218114285Y-36827085D01*
X218114285Y-36827085D02*
X218066666Y-36636609D01*
X218066666Y-36636609D02*
X218066666Y-36493752D01*
X218066666Y-36493752D02*
X218114285Y-36303276D01*
X218114285Y-36303276D02*
X218161904Y-36208038D01*
X218161904Y-36208038D02*
X218257142Y-36112800D01*
X218257142Y-36112800D02*
X218399999Y-36065180D01*
X218399999Y-36065180D02*
X218638094Y-36065180D01*
X217780951Y-37065180D02*
X217209523Y-37065180D01*
X217495237Y-36065180D02*
X217495237Y-37065180D01*
X222914600Y-41054819D02*
X222914600Y-41292914D01*
X222676505Y-41197676D02*
X222914600Y-41292914D01*
X222914600Y-41292914D02*
X223152695Y-41197676D01*
X222771743Y-41483390D02*
X222914600Y-41292914D01*
X222914600Y-41292914D02*
X223057457Y-41483390D01*
X222914599Y-42145180D02*
X222914599Y-41907085D01*
X223152694Y-42002323D02*
X222914599Y-41907085D01*
X222914599Y-41907085D02*
X222676504Y-42002323D01*
X223057456Y-41716609D02*
X222914599Y-41907085D01*
X222914599Y-41907085D02*
X222771742Y-41716609D01*
X221685713Y-36065180D02*
X221685713Y-37065180D01*
X221685713Y-37065180D02*
X221352380Y-36350895D01*
X221352380Y-36350895D02*
X221019047Y-37065180D01*
X221019047Y-37065180D02*
X221019047Y-36065180D01*
X220638094Y-37065180D02*
X219971428Y-36065180D01*
X219971428Y-37065180D02*
X220638094Y-36065180D01*
X219638094Y-36969942D02*
X219590475Y-37017561D01*
X219590475Y-37017561D02*
X219495237Y-37065180D01*
X219495237Y-37065180D02*
X219257142Y-37065180D01*
X219257142Y-37065180D02*
X219161904Y-37017561D01*
X219161904Y-37017561D02*
X219114285Y-36969942D01*
X219114285Y-36969942D02*
X219066666Y-36874704D01*
X219066666Y-36874704D02*
X219066666Y-36779466D01*
X219066666Y-36779466D02*
X219114285Y-36636609D01*
X219114285Y-36636609D02*
X219685713Y-36065180D01*
X219685713Y-36065180D02*
X219066666Y-36065180D01*
X202828571Y-68504819D02*
X202828571Y-67504819D01*
X202828571Y-67504819D02*
X203161904Y-68219104D01*
X203161904Y-68219104D02*
X203495237Y-67504819D01*
X203495237Y-67504819D02*
X203495237Y-68504819D01*
X204114285Y-68504819D02*
X204019047Y-68457200D01*
X204019047Y-68457200D02*
X203971428Y-68409580D01*
X203971428Y-68409580D02*
X203923809Y-68314342D01*
X203923809Y-68314342D02*
X203923809Y-68028628D01*
X203923809Y-68028628D02*
X203971428Y-67933390D01*
X203971428Y-67933390D02*
X204019047Y-67885771D01*
X204019047Y-67885771D02*
X204114285Y-67838152D01*
X204114285Y-67838152D02*
X204257142Y-67838152D01*
X204257142Y-67838152D02*
X204352380Y-67885771D01*
X204352380Y-67885771D02*
X204399999Y-67933390D01*
X204399999Y-67933390D02*
X204447618Y-68028628D01*
X204447618Y-68028628D02*
X204447618Y-68314342D01*
X204447618Y-68314342D02*
X204399999Y-68409580D01*
X204399999Y-68409580D02*
X204352380Y-68457200D01*
X204352380Y-68457200D02*
X204257142Y-68504819D01*
X204257142Y-68504819D02*
X204114285Y-68504819D01*
X205304761Y-67838152D02*
X205304761Y-68504819D01*
X204876190Y-67838152D02*
X204876190Y-68361961D01*
X204876190Y-68361961D02*
X204923809Y-68457200D01*
X204923809Y-68457200D02*
X205019047Y-68504819D01*
X205019047Y-68504819D02*
X205161904Y-68504819D01*
X205161904Y-68504819D02*
X205257142Y-68457200D01*
X205257142Y-68457200D02*
X205304761Y-68409580D01*
X205780952Y-67838152D02*
X205780952Y-68504819D01*
X205780952Y-67933390D02*
X205828571Y-67885771D01*
X205828571Y-67885771D02*
X205923809Y-67838152D01*
X205923809Y-67838152D02*
X206066666Y-67838152D01*
X206066666Y-67838152D02*
X206161904Y-67885771D01*
X206161904Y-67885771D02*
X206209523Y-67981009D01*
X206209523Y-67981009D02*
X206209523Y-68504819D01*
X206542857Y-67838152D02*
X206923809Y-67838152D01*
X206685714Y-67504819D02*
X206685714Y-68361961D01*
X206685714Y-68361961D02*
X206733333Y-68457200D01*
X206733333Y-68457200D02*
X206828571Y-68504819D01*
X206828571Y-68504819D02*
X206923809Y-68504819D01*
X207257143Y-68504819D02*
X207257143Y-67838152D01*
X207257143Y-67504819D02*
X207209524Y-67552438D01*
X207209524Y-67552438D02*
X207257143Y-67600057D01*
X207257143Y-67600057D02*
X207304762Y-67552438D01*
X207304762Y-67552438D02*
X207257143Y-67504819D01*
X207257143Y-67504819D02*
X207257143Y-67600057D01*
X207733333Y-67838152D02*
X207733333Y-68504819D01*
X207733333Y-67933390D02*
X207780952Y-67885771D01*
X207780952Y-67885771D02*
X207876190Y-67838152D01*
X207876190Y-67838152D02*
X208019047Y-67838152D01*
X208019047Y-67838152D02*
X208114285Y-67885771D01*
X208114285Y-67885771D02*
X208161904Y-67981009D01*
X208161904Y-67981009D02*
X208161904Y-68504819D01*
X209066666Y-67838152D02*
X209066666Y-68647676D01*
X209066666Y-68647676D02*
X209019047Y-68742914D01*
X209019047Y-68742914D02*
X208971428Y-68790533D01*
X208971428Y-68790533D02*
X208876190Y-68838152D01*
X208876190Y-68838152D02*
X208733333Y-68838152D01*
X208733333Y-68838152D02*
X208638095Y-68790533D01*
X209066666Y-68457200D02*
X208971428Y-68504819D01*
X208971428Y-68504819D02*
X208780952Y-68504819D01*
X208780952Y-68504819D02*
X208685714Y-68457200D01*
X208685714Y-68457200D02*
X208638095Y-68409580D01*
X208638095Y-68409580D02*
X208590476Y-68314342D01*
X208590476Y-68314342D02*
X208590476Y-68028628D01*
X208590476Y-68028628D02*
X208638095Y-67933390D01*
X208638095Y-67933390D02*
X208685714Y-67885771D01*
X208685714Y-67885771D02*
X208780952Y-67838152D01*
X208780952Y-67838152D02*
X208971428Y-67838152D01*
X208971428Y-67838152D02*
X209066666Y-67885771D01*
X209542857Y-68504819D02*
X209542857Y-67504819D01*
X209542857Y-67981009D02*
X210114285Y-67981009D01*
X210114285Y-68504819D02*
X210114285Y-67504819D01*
X210733333Y-68504819D02*
X210638095Y-68457200D01*
X210638095Y-68457200D02*
X210590476Y-68409580D01*
X210590476Y-68409580D02*
X210542857Y-68314342D01*
X210542857Y-68314342D02*
X210542857Y-68028628D01*
X210542857Y-68028628D02*
X210590476Y-67933390D01*
X210590476Y-67933390D02*
X210638095Y-67885771D01*
X210638095Y-67885771D02*
X210733333Y-67838152D01*
X210733333Y-67838152D02*
X210876190Y-67838152D01*
X210876190Y-67838152D02*
X210971428Y-67885771D01*
X210971428Y-67885771D02*
X211019047Y-67933390D01*
X211019047Y-67933390D02*
X211066666Y-68028628D01*
X211066666Y-68028628D02*
X211066666Y-68314342D01*
X211066666Y-68314342D02*
X211019047Y-68409580D01*
X211019047Y-68409580D02*
X210971428Y-68457200D01*
X210971428Y-68457200D02*
X210876190Y-68504819D01*
X210876190Y-68504819D02*
X210733333Y-68504819D01*
X211638095Y-68504819D02*
X211542857Y-68457200D01*
X211542857Y-68457200D02*
X211495238Y-68361961D01*
X211495238Y-68361961D02*
X211495238Y-67504819D01*
X212400000Y-68457200D02*
X212304762Y-68504819D01*
X212304762Y-68504819D02*
X212114286Y-68504819D01*
X212114286Y-68504819D02*
X212019048Y-68457200D01*
X212019048Y-68457200D02*
X211971429Y-68361961D01*
X211971429Y-68361961D02*
X211971429Y-67981009D01*
X211971429Y-67981009D02*
X212019048Y-67885771D01*
X212019048Y-67885771D02*
X212114286Y-67838152D01*
X212114286Y-67838152D02*
X212304762Y-67838152D01*
X212304762Y-67838152D02*
X212400000Y-67885771D01*
X212400000Y-67885771D02*
X212447619Y-67981009D01*
X212447619Y-67981009D02*
X212447619Y-68076247D01*
X212447619Y-68076247D02*
X211971429Y-68171485D01*
X212638096Y-68600057D02*
X213400000Y-68600057D01*
X213638096Y-68504819D02*
X213638096Y-67504819D01*
X213638096Y-67504819D02*
X214019048Y-67504819D01*
X214019048Y-67504819D02*
X214114286Y-67552438D01*
X214114286Y-67552438D02*
X214161905Y-67600057D01*
X214161905Y-67600057D02*
X214209524Y-67695295D01*
X214209524Y-67695295D02*
X214209524Y-67838152D01*
X214209524Y-67838152D02*
X214161905Y-67933390D01*
X214161905Y-67933390D02*
X214114286Y-67981009D01*
X214114286Y-67981009D02*
X214019048Y-68028628D01*
X214019048Y-68028628D02*
X213638096Y-68028628D01*
X215066667Y-68504819D02*
X215066667Y-67981009D01*
X215066667Y-67981009D02*
X215019048Y-67885771D01*
X215019048Y-67885771D02*
X214923810Y-67838152D01*
X214923810Y-67838152D02*
X214733334Y-67838152D01*
X214733334Y-67838152D02*
X214638096Y-67885771D01*
X215066667Y-68457200D02*
X214971429Y-68504819D01*
X214971429Y-68504819D02*
X214733334Y-68504819D01*
X214733334Y-68504819D02*
X214638096Y-68457200D01*
X214638096Y-68457200D02*
X214590477Y-68361961D01*
X214590477Y-68361961D02*
X214590477Y-68266723D01*
X214590477Y-68266723D02*
X214638096Y-68171485D01*
X214638096Y-68171485D02*
X214733334Y-68123866D01*
X214733334Y-68123866D02*
X214971429Y-68123866D01*
X214971429Y-68123866D02*
X215066667Y-68076247D01*
X215971429Y-68504819D02*
X215971429Y-67504819D01*
X215971429Y-68457200D02*
X215876191Y-68504819D01*
X215876191Y-68504819D02*
X215685715Y-68504819D01*
X215685715Y-68504819D02*
X215590477Y-68457200D01*
X215590477Y-68457200D02*
X215542858Y-68409580D01*
X215542858Y-68409580D02*
X215495239Y-68314342D01*
X215495239Y-68314342D02*
X215495239Y-68028628D01*
X215495239Y-68028628D02*
X215542858Y-67933390D01*
X215542858Y-67933390D02*
X215590477Y-67885771D01*
X215590477Y-67885771D02*
X215685715Y-67838152D01*
X215685715Y-67838152D02*
X215876191Y-67838152D01*
X215876191Y-67838152D02*
X215971429Y-67885771D01*
X208161905Y-64054819D02*
X208161905Y-63054819D01*
X208161905Y-63531009D02*
X208733333Y-63531009D01*
X208733333Y-64054819D02*
X208733333Y-63054819D01*
X209733333Y-64054819D02*
X209161905Y-64054819D01*
X209447619Y-64054819D02*
X209447619Y-63054819D01*
X209447619Y-63054819D02*
X209352381Y-63197676D01*
X209352381Y-63197676D02*
X209257143Y-63292914D01*
X209257143Y-63292914D02*
X209161905Y-63340533D01*
X210352381Y-63054819D02*
X210447619Y-63054819D01*
X210447619Y-63054819D02*
X210542857Y-63102438D01*
X210542857Y-63102438D02*
X210590476Y-63150057D01*
X210590476Y-63150057D02*
X210638095Y-63245295D01*
X210638095Y-63245295D02*
X210685714Y-63435771D01*
X210685714Y-63435771D02*
X210685714Y-63673866D01*
X210685714Y-63673866D02*
X210638095Y-63864342D01*
X210638095Y-63864342D02*
X210590476Y-63959580D01*
X210590476Y-63959580D02*
X210542857Y-64007200D01*
X210542857Y-64007200D02*
X210447619Y-64054819D01*
X210447619Y-64054819D02*
X210352381Y-64054819D01*
X210352381Y-64054819D02*
X210257143Y-64007200D01*
X210257143Y-64007200D02*
X210209524Y-63959580D01*
X210209524Y-63959580D02*
X210161905Y-63864342D01*
X210161905Y-63864342D02*
X210114286Y-63673866D01*
X210114286Y-63673866D02*
X210114286Y-63435771D01*
X210114286Y-63435771D02*
X210161905Y-63245295D01*
X210161905Y-63245295D02*
X210209524Y-63150057D01*
X210209524Y-63150057D02*
X210257143Y-63102438D01*
X210257143Y-63102438D02*
X210352381Y-63054819D01*
X233737580Y-112769715D02*
X233785200Y-112817334D01*
X233785200Y-112817334D02*
X233832819Y-112960191D01*
X233832819Y-112960191D02*
X233832819Y-113055429D01*
X233832819Y-113055429D02*
X233785200Y-113198286D01*
X233785200Y-113198286D02*
X233689961Y-113293524D01*
X233689961Y-113293524D02*
X233594723Y-113341143D01*
X233594723Y-113341143D02*
X233404247Y-113388762D01*
X233404247Y-113388762D02*
X233261390Y-113388762D01*
X233261390Y-113388762D02*
X233070914Y-113341143D01*
X233070914Y-113341143D02*
X232975676Y-113293524D01*
X232975676Y-113293524D02*
X232880438Y-113198286D01*
X232880438Y-113198286D02*
X232832819Y-113055429D01*
X232832819Y-113055429D02*
X232832819Y-112960191D01*
X232832819Y-112960191D02*
X232880438Y-112817334D01*
X232880438Y-112817334D02*
X232928057Y-112769715D01*
X233832819Y-112198286D02*
X233785200Y-112293524D01*
X233785200Y-112293524D02*
X233737580Y-112341143D01*
X233737580Y-112341143D02*
X233642342Y-112388762D01*
X233642342Y-112388762D02*
X233356628Y-112388762D01*
X233356628Y-112388762D02*
X233261390Y-112341143D01*
X233261390Y-112341143D02*
X233213771Y-112293524D01*
X233213771Y-112293524D02*
X233166152Y-112198286D01*
X233166152Y-112198286D02*
X233166152Y-112055429D01*
X233166152Y-112055429D02*
X233213771Y-111960191D01*
X233213771Y-111960191D02*
X233261390Y-111912572D01*
X233261390Y-111912572D02*
X233356628Y-111864953D01*
X233356628Y-111864953D02*
X233642342Y-111864953D01*
X233642342Y-111864953D02*
X233737580Y-111912572D01*
X233737580Y-111912572D02*
X233785200Y-111960191D01*
X233785200Y-111960191D02*
X233832819Y-112055429D01*
X233832819Y-112055429D02*
X233832819Y-112198286D01*
X233166152Y-111436381D02*
X233832819Y-111436381D01*
X233261390Y-111436381D02*
X233213771Y-111388762D01*
X233213771Y-111388762D02*
X233166152Y-111293524D01*
X233166152Y-111293524D02*
X233166152Y-111150667D01*
X233166152Y-111150667D02*
X233213771Y-111055429D01*
X233213771Y-111055429D02*
X233309009Y-111007810D01*
X233309009Y-111007810D02*
X233832819Y-111007810D01*
X233166152Y-110531619D02*
X233832819Y-110531619D01*
X233261390Y-110531619D02*
X233213771Y-110484000D01*
X233213771Y-110484000D02*
X233166152Y-110388762D01*
X233166152Y-110388762D02*
X233166152Y-110245905D01*
X233166152Y-110245905D02*
X233213771Y-110150667D01*
X233213771Y-110150667D02*
X233309009Y-110103048D01*
X233309009Y-110103048D02*
X233832819Y-110103048D01*
X233928057Y-109864953D02*
X233928057Y-109103048D01*
X232832819Y-108674476D02*
X232832819Y-108579238D01*
X232832819Y-108579238D02*
X232880438Y-108484000D01*
X232880438Y-108484000D02*
X232928057Y-108436381D01*
X232928057Y-108436381D02*
X233023295Y-108388762D01*
X233023295Y-108388762D02*
X233213771Y-108341143D01*
X233213771Y-108341143D02*
X233451866Y-108341143D01*
X233451866Y-108341143D02*
X233642342Y-108388762D01*
X233642342Y-108388762D02*
X233737580Y-108436381D01*
X233737580Y-108436381D02*
X233785200Y-108484000D01*
X233785200Y-108484000D02*
X233832819Y-108579238D01*
X233832819Y-108579238D02*
X233832819Y-108674476D01*
X233832819Y-108674476D02*
X233785200Y-108769714D01*
X233785200Y-108769714D02*
X233737580Y-108817333D01*
X233737580Y-108817333D02*
X233642342Y-108864952D01*
X233642342Y-108864952D02*
X233451866Y-108912571D01*
X233451866Y-108912571D02*
X233213771Y-108912571D01*
X233213771Y-108912571D02*
X233023295Y-108864952D01*
X233023295Y-108864952D02*
X232928057Y-108817333D01*
X232928057Y-108817333D02*
X232880438Y-108769714D01*
X232880438Y-108769714D02*
X232832819Y-108674476D01*
X233832819Y-107388762D02*
X233832819Y-107960190D01*
X233832819Y-107674476D02*
X232832819Y-107674476D01*
X232832819Y-107674476D02*
X232975676Y-107769714D01*
X232975676Y-107769714D02*
X233070914Y-107864952D01*
X233070914Y-107864952D02*
X233118533Y-107960190D01*
X233832819Y-107055428D02*
X233166152Y-106531619D01*
X233166152Y-107055428D02*
X233832819Y-106531619D01*
X232832819Y-105960190D02*
X232832819Y-105864952D01*
X232832819Y-105864952D02*
X232880438Y-105769714D01*
X232880438Y-105769714D02*
X232928057Y-105722095D01*
X232928057Y-105722095D02*
X233023295Y-105674476D01*
X233023295Y-105674476D02*
X233213771Y-105626857D01*
X233213771Y-105626857D02*
X233451866Y-105626857D01*
X233451866Y-105626857D02*
X233642342Y-105674476D01*
X233642342Y-105674476D02*
X233737580Y-105722095D01*
X233737580Y-105722095D02*
X233785200Y-105769714D01*
X233785200Y-105769714D02*
X233832819Y-105864952D01*
X233832819Y-105864952D02*
X233832819Y-105960190D01*
X233832819Y-105960190D02*
X233785200Y-106055428D01*
X233785200Y-106055428D02*
X233737580Y-106103047D01*
X233737580Y-106103047D02*
X233642342Y-106150666D01*
X233642342Y-106150666D02*
X233451866Y-106198285D01*
X233451866Y-106198285D02*
X233213771Y-106198285D01*
X233213771Y-106198285D02*
X233023295Y-106150666D01*
X233023295Y-106150666D02*
X232928057Y-106103047D01*
X232928057Y-106103047D02*
X232880438Y-106055428D01*
X232880438Y-106055428D02*
X232832819Y-105960190D01*
X233166152Y-104769714D02*
X233832819Y-104769714D01*
X232785200Y-105007809D02*
X233499485Y-105245904D01*
X233499485Y-105245904D02*
X233499485Y-104626857D01*
X233928057Y-104484000D02*
X233928057Y-103722095D01*
X233309009Y-103150666D02*
X233309009Y-103483999D01*
X233832819Y-103483999D02*
X232832819Y-103483999D01*
X232832819Y-103483999D02*
X232832819Y-103007809D01*
X233785200Y-102245904D02*
X233832819Y-102341142D01*
X233832819Y-102341142D02*
X233832819Y-102531618D01*
X233832819Y-102531618D02*
X233785200Y-102626856D01*
X233785200Y-102626856D02*
X233689961Y-102674475D01*
X233689961Y-102674475D02*
X233309009Y-102674475D01*
X233309009Y-102674475D02*
X233213771Y-102626856D01*
X233213771Y-102626856D02*
X233166152Y-102531618D01*
X233166152Y-102531618D02*
X233166152Y-102341142D01*
X233166152Y-102341142D02*
X233213771Y-102245904D01*
X233213771Y-102245904D02*
X233309009Y-102198285D01*
X233309009Y-102198285D02*
X233404247Y-102198285D01*
X233404247Y-102198285D02*
X233499485Y-102674475D01*
X233832819Y-101769713D02*
X233166152Y-101769713D01*
X233261390Y-101769713D02*
X233213771Y-101722094D01*
X233213771Y-101722094D02*
X233166152Y-101626856D01*
X233166152Y-101626856D02*
X233166152Y-101483999D01*
X233166152Y-101483999D02*
X233213771Y-101388761D01*
X233213771Y-101388761D02*
X233309009Y-101341142D01*
X233309009Y-101341142D02*
X233832819Y-101341142D01*
X233309009Y-101341142D02*
X233213771Y-101293523D01*
X233213771Y-101293523D02*
X233166152Y-101198285D01*
X233166152Y-101198285D02*
X233166152Y-101055428D01*
X233166152Y-101055428D02*
X233213771Y-100960189D01*
X233213771Y-100960189D02*
X233309009Y-100912570D01*
X233309009Y-100912570D02*
X233832819Y-100912570D01*
X233832819Y-100007809D02*
X233309009Y-100007809D01*
X233309009Y-100007809D02*
X233213771Y-100055428D01*
X233213771Y-100055428D02*
X233166152Y-100150666D01*
X233166152Y-100150666D02*
X233166152Y-100341142D01*
X233166152Y-100341142D02*
X233213771Y-100436380D01*
X233785200Y-100007809D02*
X233832819Y-100103047D01*
X233832819Y-100103047D02*
X233832819Y-100341142D01*
X233832819Y-100341142D02*
X233785200Y-100436380D01*
X233785200Y-100436380D02*
X233689961Y-100483999D01*
X233689961Y-100483999D02*
X233594723Y-100483999D01*
X233594723Y-100483999D02*
X233499485Y-100436380D01*
X233499485Y-100436380D02*
X233451866Y-100341142D01*
X233451866Y-100341142D02*
X233451866Y-100103047D01*
X233451866Y-100103047D02*
X233404247Y-100007809D01*
X233832819Y-99388761D02*
X233785200Y-99483999D01*
X233785200Y-99483999D02*
X233689961Y-99531618D01*
X233689961Y-99531618D02*
X232832819Y-99531618D01*
X233785200Y-98626856D02*
X233832819Y-98722094D01*
X233832819Y-98722094D02*
X233832819Y-98912570D01*
X233832819Y-98912570D02*
X233785200Y-99007808D01*
X233785200Y-99007808D02*
X233689961Y-99055427D01*
X233689961Y-99055427D02*
X233309009Y-99055427D01*
X233309009Y-99055427D02*
X233213771Y-99007808D01*
X233213771Y-99007808D02*
X233166152Y-98912570D01*
X233166152Y-98912570D02*
X233166152Y-98722094D01*
X233166152Y-98722094D02*
X233213771Y-98626856D01*
X233213771Y-98626856D02*
X233309009Y-98579237D01*
X233309009Y-98579237D02*
X233404247Y-98579237D01*
X233404247Y-98579237D02*
X233499485Y-99055427D01*
X239148476Y-105438819D02*
X239148476Y-106153104D01*
X239148476Y-106153104D02*
X239100857Y-106295961D01*
X239100857Y-106295961D02*
X239005619Y-106391200D01*
X239005619Y-106391200D02*
X238862762Y-106438819D01*
X238862762Y-106438819D02*
X238767524Y-106438819D01*
X240148476Y-106438819D02*
X239577048Y-106438819D01*
X239862762Y-106438819D02*
X239862762Y-105438819D01*
X239862762Y-105438819D02*
X239767524Y-105581676D01*
X239767524Y-105581676D02*
X239672286Y-105676914D01*
X239672286Y-105676914D02*
X239577048Y-105724533D01*
X241053238Y-105438819D02*
X240577048Y-105438819D01*
X240577048Y-105438819D02*
X240529429Y-105915009D01*
X240529429Y-105915009D02*
X240577048Y-105867390D01*
X240577048Y-105867390D02*
X240672286Y-105819771D01*
X240672286Y-105819771D02*
X240910381Y-105819771D01*
X240910381Y-105819771D02*
X241005619Y-105867390D01*
X241005619Y-105867390D02*
X241053238Y-105915009D01*
X241053238Y-105915009D02*
X241100857Y-106010247D01*
X241100857Y-106010247D02*
X241100857Y-106248342D01*
X241100857Y-106248342D02*
X241053238Y-106343580D01*
X241053238Y-106343580D02*
X241005619Y-106391200D01*
X241005619Y-106391200D02*
X240910381Y-106438819D01*
X240910381Y-106438819D02*
X240672286Y-106438819D01*
X240672286Y-106438819D02*
X240577048Y-106391200D01*
X240577048Y-106391200D02*
X240529429Y-106343580D01*
X217304762Y-127087200D02*
X217447619Y-127134819D01*
X217447619Y-127134819D02*
X217685714Y-127134819D01*
X217685714Y-127134819D02*
X217780952Y-127087200D01*
X217780952Y-127087200D02*
X217828571Y-127039580D01*
X217828571Y-127039580D02*
X217876190Y-126944342D01*
X217876190Y-126944342D02*
X217876190Y-126849104D01*
X217876190Y-126849104D02*
X217828571Y-126753866D01*
X217828571Y-126753866D02*
X217780952Y-126706247D01*
X217780952Y-126706247D02*
X217685714Y-126658628D01*
X217685714Y-126658628D02*
X217495238Y-126611009D01*
X217495238Y-126611009D02*
X217400000Y-126563390D01*
X217400000Y-126563390D02*
X217352381Y-126515771D01*
X217352381Y-126515771D02*
X217304762Y-126420533D01*
X217304762Y-126420533D02*
X217304762Y-126325295D01*
X217304762Y-126325295D02*
X217352381Y-126230057D01*
X217352381Y-126230057D02*
X217400000Y-126182438D01*
X217400000Y-126182438D02*
X217495238Y-126134819D01*
X217495238Y-126134819D02*
X217733333Y-126134819D01*
X217733333Y-126134819D02*
X217876190Y-126182438D01*
X218209524Y-126134819D02*
X218447619Y-127134819D01*
X218447619Y-127134819D02*
X218638095Y-126420533D01*
X218638095Y-126420533D02*
X218828571Y-127134819D01*
X218828571Y-127134819D02*
X219066667Y-126134819D01*
X219209524Y-127230057D02*
X219971428Y-127230057D01*
X220161905Y-127087200D02*
X220304762Y-127134819D01*
X220304762Y-127134819D02*
X220542857Y-127134819D01*
X220542857Y-127134819D02*
X220638095Y-127087200D01*
X220638095Y-127087200D02*
X220685714Y-127039580D01*
X220685714Y-127039580D02*
X220733333Y-126944342D01*
X220733333Y-126944342D02*
X220733333Y-126849104D01*
X220733333Y-126849104D02*
X220685714Y-126753866D01*
X220685714Y-126753866D02*
X220638095Y-126706247D01*
X220638095Y-126706247D02*
X220542857Y-126658628D01*
X220542857Y-126658628D02*
X220352381Y-126611009D01*
X220352381Y-126611009D02*
X220257143Y-126563390D01*
X220257143Y-126563390D02*
X220209524Y-126515771D01*
X220209524Y-126515771D02*
X220161905Y-126420533D01*
X220161905Y-126420533D02*
X220161905Y-126325295D01*
X220161905Y-126325295D02*
X220209524Y-126230057D01*
X220209524Y-126230057D02*
X220257143Y-126182438D01*
X220257143Y-126182438D02*
X220352381Y-126134819D01*
X220352381Y-126134819D02*
X220590476Y-126134819D01*
X220590476Y-126134819D02*
X220733333Y-126182438D01*
X221161905Y-127134819D02*
X221161905Y-126134819D01*
X221161905Y-126134819D02*
X221542857Y-126134819D01*
X221542857Y-126134819D02*
X221638095Y-126182438D01*
X221638095Y-126182438D02*
X221685714Y-126230057D01*
X221685714Y-126230057D02*
X221733333Y-126325295D01*
X221733333Y-126325295D02*
X221733333Y-126468152D01*
X221733333Y-126468152D02*
X221685714Y-126563390D01*
X221685714Y-126563390D02*
X221638095Y-126611009D01*
X221638095Y-126611009D02*
X221542857Y-126658628D01*
X221542857Y-126658628D02*
X221161905Y-126658628D01*
X222161905Y-127134819D02*
X222161905Y-126134819D01*
X222161905Y-126134819D02*
X222400000Y-126134819D01*
X222400000Y-126134819D02*
X222542857Y-126182438D01*
X222542857Y-126182438D02*
X222638095Y-126277676D01*
X222638095Y-126277676D02*
X222685714Y-126372914D01*
X222685714Y-126372914D02*
X222733333Y-126563390D01*
X222733333Y-126563390D02*
X222733333Y-126706247D01*
X222733333Y-126706247D02*
X222685714Y-126896723D01*
X222685714Y-126896723D02*
X222638095Y-126991961D01*
X222638095Y-126991961D02*
X222542857Y-127087200D01*
X222542857Y-127087200D02*
X222400000Y-127134819D01*
X222400000Y-127134819D02*
X222161905Y-127134819D01*
X223019048Y-126134819D02*
X223590476Y-126134819D01*
X223304762Y-127134819D02*
X223304762Y-126134819D01*
X217885400Y-121054819D02*
X217885400Y-121292914D01*
X217647305Y-121197676D02*
X217885400Y-121292914D01*
X217885400Y-121292914D02*
X218123495Y-121197676D01*
X217742543Y-121483390D02*
X217885400Y-121292914D01*
X217885400Y-121292914D02*
X218028257Y-121483390D01*
X217885400Y-121054819D02*
X217885400Y-121292914D01*
X217647305Y-121197676D02*
X217885400Y-121292914D01*
X217885400Y-121292914D02*
X218123495Y-121197676D01*
X217742543Y-121483390D02*
X217885400Y-121292914D01*
X217885400Y-121292914D02*
X218028257Y-121483390D01*
X219114286Y-127134819D02*
X219114286Y-126134819D01*
X219114286Y-126134819D02*
X219447619Y-126849104D01*
X219447619Y-126849104D02*
X219780952Y-126134819D01*
X219780952Y-126134819D02*
X219780952Y-127134819D01*
X220161905Y-126134819D02*
X220828571Y-127134819D01*
X220828571Y-126134819D02*
X220161905Y-127134819D01*
X221685714Y-126134819D02*
X221209524Y-126134819D01*
X221209524Y-126134819D02*
X221161905Y-126611009D01*
X221161905Y-126611009D02*
X221209524Y-126563390D01*
X221209524Y-126563390D02*
X221304762Y-126515771D01*
X221304762Y-126515771D02*
X221542857Y-126515771D01*
X221542857Y-126515771D02*
X221638095Y-126563390D01*
X221638095Y-126563390D02*
X221685714Y-126611009D01*
X221685714Y-126611009D02*
X221733333Y-126706247D01*
X221733333Y-126706247D02*
X221733333Y-126944342D01*
X221733333Y-126944342D02*
X221685714Y-127039580D01*
X221685714Y-127039580D02*
X221638095Y-127087200D01*
X221638095Y-127087200D02*
X221542857Y-127134819D01*
X221542857Y-127134819D02*
X221304762Y-127134819D01*
X221304762Y-127134819D02*
X221209524Y-127087200D01*
X221209524Y-127087200D02*
X221161905Y-127039580D01*
X233737580Y-64001715D02*
X233785200Y-64049334D01*
X233785200Y-64049334D02*
X233832819Y-64192191D01*
X233832819Y-64192191D02*
X233832819Y-64287429D01*
X233832819Y-64287429D02*
X233785200Y-64430286D01*
X233785200Y-64430286D02*
X233689961Y-64525524D01*
X233689961Y-64525524D02*
X233594723Y-64573143D01*
X233594723Y-64573143D02*
X233404247Y-64620762D01*
X233404247Y-64620762D02*
X233261390Y-64620762D01*
X233261390Y-64620762D02*
X233070914Y-64573143D01*
X233070914Y-64573143D02*
X232975676Y-64525524D01*
X232975676Y-64525524D02*
X232880438Y-64430286D01*
X232880438Y-64430286D02*
X232832819Y-64287429D01*
X232832819Y-64287429D02*
X232832819Y-64192191D01*
X232832819Y-64192191D02*
X232880438Y-64049334D01*
X232880438Y-64049334D02*
X232928057Y-64001715D01*
X233832819Y-63430286D02*
X233785200Y-63525524D01*
X233785200Y-63525524D02*
X233737580Y-63573143D01*
X233737580Y-63573143D02*
X233642342Y-63620762D01*
X233642342Y-63620762D02*
X233356628Y-63620762D01*
X233356628Y-63620762D02*
X233261390Y-63573143D01*
X233261390Y-63573143D02*
X233213771Y-63525524D01*
X233213771Y-63525524D02*
X233166152Y-63430286D01*
X233166152Y-63430286D02*
X233166152Y-63287429D01*
X233166152Y-63287429D02*
X233213771Y-63192191D01*
X233213771Y-63192191D02*
X233261390Y-63144572D01*
X233261390Y-63144572D02*
X233356628Y-63096953D01*
X233356628Y-63096953D02*
X233642342Y-63096953D01*
X233642342Y-63096953D02*
X233737580Y-63144572D01*
X233737580Y-63144572D02*
X233785200Y-63192191D01*
X233785200Y-63192191D02*
X233832819Y-63287429D01*
X233832819Y-63287429D02*
X233832819Y-63430286D01*
X233166152Y-62668381D02*
X233832819Y-62668381D01*
X233261390Y-62668381D02*
X233213771Y-62620762D01*
X233213771Y-62620762D02*
X233166152Y-62525524D01*
X233166152Y-62525524D02*
X233166152Y-62382667D01*
X233166152Y-62382667D02*
X233213771Y-62287429D01*
X233213771Y-62287429D02*
X233309009Y-62239810D01*
X233309009Y-62239810D02*
X233832819Y-62239810D01*
X233166152Y-61763619D02*
X233832819Y-61763619D01*
X233261390Y-61763619D02*
X233213771Y-61716000D01*
X233213771Y-61716000D02*
X233166152Y-61620762D01*
X233166152Y-61620762D02*
X233166152Y-61477905D01*
X233166152Y-61477905D02*
X233213771Y-61382667D01*
X233213771Y-61382667D02*
X233309009Y-61335048D01*
X233309009Y-61335048D02*
X233832819Y-61335048D01*
X233928057Y-61096953D02*
X233928057Y-60335048D01*
X232832819Y-59906476D02*
X232832819Y-59811238D01*
X232832819Y-59811238D02*
X232880438Y-59716000D01*
X232880438Y-59716000D02*
X232928057Y-59668381D01*
X232928057Y-59668381D02*
X233023295Y-59620762D01*
X233023295Y-59620762D02*
X233213771Y-59573143D01*
X233213771Y-59573143D02*
X233451866Y-59573143D01*
X233451866Y-59573143D02*
X233642342Y-59620762D01*
X233642342Y-59620762D02*
X233737580Y-59668381D01*
X233737580Y-59668381D02*
X233785200Y-59716000D01*
X233785200Y-59716000D02*
X233832819Y-59811238D01*
X233832819Y-59811238D02*
X233832819Y-59906476D01*
X233832819Y-59906476D02*
X233785200Y-60001714D01*
X233785200Y-60001714D02*
X233737580Y-60049333D01*
X233737580Y-60049333D02*
X233642342Y-60096952D01*
X233642342Y-60096952D02*
X233451866Y-60144571D01*
X233451866Y-60144571D02*
X233213771Y-60144571D01*
X233213771Y-60144571D02*
X233023295Y-60096952D01*
X233023295Y-60096952D02*
X232928057Y-60049333D01*
X232928057Y-60049333D02*
X232880438Y-60001714D01*
X232880438Y-60001714D02*
X232832819Y-59906476D01*
X233832819Y-58620762D02*
X233832819Y-59192190D01*
X233832819Y-58906476D02*
X232832819Y-58906476D01*
X232832819Y-58906476D02*
X232975676Y-59001714D01*
X232975676Y-59001714D02*
X233070914Y-59096952D01*
X233070914Y-59096952D02*
X233118533Y-59192190D01*
X233832819Y-58287428D02*
X233166152Y-57763619D01*
X233166152Y-58287428D02*
X233832819Y-57763619D01*
X232832819Y-57192190D02*
X232832819Y-57096952D01*
X232832819Y-57096952D02*
X232880438Y-57001714D01*
X232880438Y-57001714D02*
X232928057Y-56954095D01*
X232928057Y-56954095D02*
X233023295Y-56906476D01*
X233023295Y-56906476D02*
X233213771Y-56858857D01*
X233213771Y-56858857D02*
X233451866Y-56858857D01*
X233451866Y-56858857D02*
X233642342Y-56906476D01*
X233642342Y-56906476D02*
X233737580Y-56954095D01*
X233737580Y-56954095D02*
X233785200Y-57001714D01*
X233785200Y-57001714D02*
X233832819Y-57096952D01*
X233832819Y-57096952D02*
X233832819Y-57192190D01*
X233832819Y-57192190D02*
X233785200Y-57287428D01*
X233785200Y-57287428D02*
X233737580Y-57335047D01*
X233737580Y-57335047D02*
X233642342Y-57382666D01*
X233642342Y-57382666D02*
X233451866Y-57430285D01*
X233451866Y-57430285D02*
X233213771Y-57430285D01*
X233213771Y-57430285D02*
X233023295Y-57382666D01*
X233023295Y-57382666D02*
X232928057Y-57335047D01*
X232928057Y-57335047D02*
X232880438Y-57287428D01*
X232880438Y-57287428D02*
X232832819Y-57192190D01*
X233166152Y-56001714D02*
X233832819Y-56001714D01*
X232785200Y-56239809D02*
X233499485Y-56477904D01*
X233499485Y-56477904D02*
X233499485Y-55858857D01*
X233928057Y-55716000D02*
X233928057Y-54954095D01*
X233309009Y-54382666D02*
X233309009Y-54715999D01*
X233832819Y-54715999D02*
X232832819Y-54715999D01*
X232832819Y-54715999D02*
X232832819Y-54239809D01*
X233785200Y-53477904D02*
X233832819Y-53573142D01*
X233832819Y-53573142D02*
X233832819Y-53763618D01*
X233832819Y-53763618D02*
X233785200Y-53858856D01*
X233785200Y-53858856D02*
X233689961Y-53906475D01*
X233689961Y-53906475D02*
X233309009Y-53906475D01*
X233309009Y-53906475D02*
X233213771Y-53858856D01*
X233213771Y-53858856D02*
X233166152Y-53763618D01*
X233166152Y-53763618D02*
X233166152Y-53573142D01*
X233166152Y-53573142D02*
X233213771Y-53477904D01*
X233213771Y-53477904D02*
X233309009Y-53430285D01*
X233309009Y-53430285D02*
X233404247Y-53430285D01*
X233404247Y-53430285D02*
X233499485Y-53906475D01*
X233832819Y-53001713D02*
X233166152Y-53001713D01*
X233261390Y-53001713D02*
X233213771Y-52954094D01*
X233213771Y-52954094D02*
X233166152Y-52858856D01*
X233166152Y-52858856D02*
X233166152Y-52715999D01*
X233166152Y-52715999D02*
X233213771Y-52620761D01*
X233213771Y-52620761D02*
X233309009Y-52573142D01*
X233309009Y-52573142D02*
X233832819Y-52573142D01*
X233309009Y-52573142D02*
X233213771Y-52525523D01*
X233213771Y-52525523D02*
X233166152Y-52430285D01*
X233166152Y-52430285D02*
X233166152Y-52287428D01*
X233166152Y-52287428D02*
X233213771Y-52192189D01*
X233213771Y-52192189D02*
X233309009Y-52144570D01*
X233309009Y-52144570D02*
X233832819Y-52144570D01*
X233832819Y-51239809D02*
X233309009Y-51239809D01*
X233309009Y-51239809D02*
X233213771Y-51287428D01*
X233213771Y-51287428D02*
X233166152Y-51382666D01*
X233166152Y-51382666D02*
X233166152Y-51573142D01*
X233166152Y-51573142D02*
X233213771Y-51668380D01*
X233785200Y-51239809D02*
X233832819Y-51335047D01*
X233832819Y-51335047D02*
X233832819Y-51573142D01*
X233832819Y-51573142D02*
X233785200Y-51668380D01*
X233785200Y-51668380D02*
X233689961Y-51715999D01*
X233689961Y-51715999D02*
X233594723Y-51715999D01*
X233594723Y-51715999D02*
X233499485Y-51668380D01*
X233499485Y-51668380D02*
X233451866Y-51573142D01*
X233451866Y-51573142D02*
X233451866Y-51335047D01*
X233451866Y-51335047D02*
X233404247Y-51239809D01*
X233832819Y-50620761D02*
X233785200Y-50715999D01*
X233785200Y-50715999D02*
X233689961Y-50763618D01*
X233689961Y-50763618D02*
X232832819Y-50763618D01*
X233785200Y-49858856D02*
X233832819Y-49954094D01*
X233832819Y-49954094D02*
X233832819Y-50144570D01*
X233832819Y-50144570D02*
X233785200Y-50239808D01*
X233785200Y-50239808D02*
X233689961Y-50287427D01*
X233689961Y-50287427D02*
X233309009Y-50287427D01*
X233309009Y-50287427D02*
X233213771Y-50239808D01*
X233213771Y-50239808D02*
X233166152Y-50144570D01*
X233166152Y-50144570D02*
X233166152Y-49954094D01*
X233166152Y-49954094D02*
X233213771Y-49858856D01*
X233213771Y-49858856D02*
X233309009Y-49811237D01*
X233309009Y-49811237D02*
X233404247Y-49811237D01*
X233404247Y-49811237D02*
X233499485Y-50287427D01*
X239148476Y-56670819D02*
X239148476Y-57385104D01*
X239148476Y-57385104D02*
X239100857Y-57527961D01*
X239100857Y-57527961D02*
X239005619Y-57623200D01*
X239005619Y-57623200D02*
X238862762Y-57670819D01*
X238862762Y-57670819D02*
X238767524Y-57670819D01*
X240148476Y-57670819D02*
X239577048Y-57670819D01*
X239862762Y-57670819D02*
X239862762Y-56670819D01*
X239862762Y-56670819D02*
X239767524Y-56813676D01*
X239767524Y-56813676D02*
X239672286Y-56908914D01*
X239672286Y-56908914D02*
X239577048Y-56956533D01*
X240529429Y-56766057D02*
X240577048Y-56718438D01*
X240577048Y-56718438D02*
X240672286Y-56670819D01*
X240672286Y-56670819D02*
X240910381Y-56670819D01*
X240910381Y-56670819D02*
X241005619Y-56718438D01*
X241005619Y-56718438D02*
X241053238Y-56766057D01*
X241053238Y-56766057D02*
X241100857Y-56861295D01*
X241100857Y-56861295D02*
X241100857Y-56956533D01*
X241100857Y-56956533D02*
X241053238Y-57099390D01*
X241053238Y-57099390D02*
X240481810Y-57670819D01*
X240481810Y-57670819D02*
X241100857Y-57670819D01*
X203590447Y-64203561D02*
X203354744Y-64439263D01*
X203725134Y-64809653D02*
X203018027Y-64102546D01*
X203018027Y-64102546D02*
X203354744Y-63765828D01*
X204566927Y-63900515D02*
X204533256Y-64001531D01*
X204533256Y-64001531D02*
X204398569Y-64136218D01*
X204398569Y-64136218D02*
X204297553Y-64169889D01*
X204297553Y-64169889D02*
X204196538Y-64136218D01*
X204196538Y-64136218D02*
X203927164Y-63866844D01*
X203927164Y-63866844D02*
X203893492Y-63765828D01*
X203893492Y-63765828D02*
X203927164Y-63664813D01*
X203927164Y-63664813D02*
X204061851Y-63530126D01*
X204061851Y-63530126D02*
X204162866Y-63496454D01*
X204162866Y-63496454D02*
X204263882Y-63530126D01*
X204263882Y-63530126D02*
X204331225Y-63597470D01*
X204331225Y-63597470D02*
X204061851Y-64001531D01*
X204937317Y-63597469D02*
X204465912Y-63126065D01*
X204533256Y-63193408D02*
X204533256Y-63126065D01*
X204533256Y-63126065D02*
X204566928Y-63025050D01*
X204566928Y-63025050D02*
X204667943Y-62924034D01*
X204667943Y-62924034D02*
X204768958Y-62890363D01*
X204768958Y-62890363D02*
X204869973Y-62924034D01*
X204869973Y-62924034D02*
X205240363Y-63294424D01*
X204869973Y-62924034D02*
X204836302Y-62823019D01*
X204836302Y-62823019D02*
X204869973Y-62722004D01*
X204869973Y-62722004D02*
X204970989Y-62620989D01*
X204970989Y-62620989D02*
X205072004Y-62587317D01*
X205072004Y-62587317D02*
X205173019Y-62620989D01*
X205173019Y-62620989D02*
X205543408Y-62991378D01*
X206183171Y-62351615D02*
X205812782Y-61981226D01*
X205812782Y-61981226D02*
X205711767Y-61947554D01*
X205711767Y-61947554D02*
X205610752Y-61981226D01*
X205610752Y-61981226D02*
X205476065Y-62115913D01*
X205476065Y-62115913D02*
X205442393Y-62216928D01*
X206149500Y-62317943D02*
X206115828Y-62418958D01*
X206115828Y-62418958D02*
X205947469Y-62587317D01*
X205947469Y-62587317D02*
X205846454Y-62620989D01*
X205846454Y-62620989D02*
X205745439Y-62587317D01*
X205745439Y-62587317D02*
X205678095Y-62519974D01*
X205678095Y-62519974D02*
X205644423Y-62418958D01*
X205644423Y-62418958D02*
X205678095Y-62317943D01*
X205678095Y-62317943D02*
X205846454Y-62149584D01*
X205846454Y-62149584D02*
X205880126Y-62048569D01*
X206620904Y-61913882D02*
X206519889Y-61947554D01*
X206519889Y-61947554D02*
X206418874Y-61913882D01*
X206418874Y-61913882D02*
X205812782Y-61307791D01*
X207125981Y-61341462D02*
X207092309Y-61442477D01*
X207092309Y-61442477D02*
X206957622Y-61577164D01*
X206957622Y-61577164D02*
X206856607Y-61610836D01*
X206856607Y-61610836D02*
X206755592Y-61577164D01*
X206755592Y-61577164D02*
X206486218Y-61307790D01*
X206486218Y-61307790D02*
X206452546Y-61206775D01*
X206452546Y-61206775D02*
X206486218Y-61105760D01*
X206486218Y-61105760D02*
X206620905Y-60971073D01*
X206620905Y-60971073D02*
X206721920Y-60937401D01*
X206721920Y-60937401D02*
X206822935Y-60971073D01*
X206822935Y-60971073D02*
X206890279Y-61038416D01*
X206890279Y-61038416D02*
X206620905Y-61442477D01*
X200281107Y-57160105D02*
X199776031Y-57665181D01*
X199776031Y-57665181D02*
X199641344Y-57732525D01*
X199641344Y-57732525D02*
X199506657Y-57732525D01*
X199506657Y-57732525D02*
X199371970Y-57665181D01*
X199371970Y-57665181D02*
X199304626Y-57597838D01*
X200281107Y-58574319D02*
X199877046Y-58170258D01*
X200079077Y-58372288D02*
X200786184Y-57665181D01*
X200786184Y-57665181D02*
X200617825Y-57698853D01*
X200617825Y-57698853D02*
X200483138Y-57698853D01*
X200483138Y-57698853D02*
X200382123Y-57665181D01*
X201425947Y-58304945D02*
X201493290Y-58372288D01*
X201493290Y-58372288D02*
X201526962Y-58473303D01*
X201526962Y-58473303D02*
X201526962Y-58540647D01*
X201526962Y-58540647D02*
X201493290Y-58641662D01*
X201493290Y-58641662D02*
X201392275Y-58810021D01*
X201392275Y-58810021D02*
X201223916Y-58978380D01*
X201223916Y-58978380D02*
X201055558Y-59079395D01*
X201055558Y-59079395D02*
X200954542Y-59113067D01*
X200954542Y-59113067D02*
X200887199Y-59113067D01*
X200887199Y-59113067D02*
X200786184Y-59079395D01*
X200786184Y-59079395D02*
X200718840Y-59012051D01*
X200718840Y-59012051D02*
X200685168Y-58911036D01*
X200685168Y-58911036D02*
X200685168Y-58843693D01*
X200685168Y-58843693D02*
X200718840Y-58742677D01*
X200718840Y-58742677D02*
X200819855Y-58574319D01*
X200819855Y-58574319D02*
X200988214Y-58405960D01*
X200988214Y-58405960D02*
X201156573Y-58304945D01*
X201156573Y-58304945D02*
X201257588Y-58271273D01*
X201257588Y-58271273D02*
X201324932Y-58271273D01*
X201324932Y-58271273D02*
X201425947Y-58304945D01*
X203688014Y-98908871D02*
X203452312Y-98673168D01*
X203081922Y-99043558D02*
X203789029Y-98336451D01*
X203789029Y-98336451D02*
X204125747Y-98673168D01*
X203991060Y-99885351D02*
X203890044Y-99851680D01*
X203890044Y-99851680D02*
X203755357Y-99716993D01*
X203755357Y-99716993D02*
X203721686Y-99615977D01*
X203721686Y-99615977D02*
X203755357Y-99514962D01*
X203755357Y-99514962D02*
X204024731Y-99245588D01*
X204024731Y-99245588D02*
X204125747Y-99211916D01*
X204125747Y-99211916D02*
X204226762Y-99245588D01*
X204226762Y-99245588D02*
X204361449Y-99380275D01*
X204361449Y-99380275D02*
X204395121Y-99481290D01*
X204395121Y-99481290D02*
X204361449Y-99582306D01*
X204361449Y-99582306D02*
X204294105Y-99649649D01*
X204294105Y-99649649D02*
X203890044Y-99380275D01*
X204294106Y-100255741D02*
X204765510Y-99784336D01*
X204698167Y-99851680D02*
X204765510Y-99851680D01*
X204765510Y-99851680D02*
X204866525Y-99885352D01*
X204866525Y-99885352D02*
X204967541Y-99986367D01*
X204967541Y-99986367D02*
X205001212Y-100087382D01*
X205001212Y-100087382D02*
X204967541Y-100188397D01*
X204967541Y-100188397D02*
X204597151Y-100558787D01*
X204967541Y-100188397D02*
X205068556Y-100154726D01*
X205068556Y-100154726D02*
X205169571Y-100188397D01*
X205169571Y-100188397D02*
X205270586Y-100289413D01*
X205270586Y-100289413D02*
X205304258Y-100390428D01*
X205304258Y-100390428D02*
X205270586Y-100491443D01*
X205270586Y-100491443D02*
X204900197Y-100861832D01*
X205539960Y-101501595D02*
X205910349Y-101131206D01*
X205910349Y-101131206D02*
X205944021Y-101030191D01*
X205944021Y-101030191D02*
X205910349Y-100929176D01*
X205910349Y-100929176D02*
X205775662Y-100794489D01*
X205775662Y-100794489D02*
X205674647Y-100760817D01*
X205573632Y-101467924D02*
X205472617Y-101434252D01*
X205472617Y-101434252D02*
X205304258Y-101265893D01*
X205304258Y-101265893D02*
X205270586Y-101164878D01*
X205270586Y-101164878D02*
X205304258Y-101063863D01*
X205304258Y-101063863D02*
X205371601Y-100996519D01*
X205371601Y-100996519D02*
X205472617Y-100962847D01*
X205472617Y-100962847D02*
X205573632Y-100996519D01*
X205573632Y-100996519D02*
X205741991Y-101164878D01*
X205741991Y-101164878D02*
X205843006Y-101198550D01*
X205977693Y-101939328D02*
X205944021Y-101838313D01*
X205944021Y-101838313D02*
X205977693Y-101737298D01*
X205977693Y-101737298D02*
X206583784Y-101131206D01*
X206550113Y-102444405D02*
X206449098Y-102410733D01*
X206449098Y-102410733D02*
X206314411Y-102276046D01*
X206314411Y-102276046D02*
X206280739Y-102175031D01*
X206280739Y-102175031D02*
X206314411Y-102074016D01*
X206314411Y-102074016D02*
X206583785Y-101804642D01*
X206583785Y-101804642D02*
X206684800Y-101770970D01*
X206684800Y-101770970D02*
X206785815Y-101804642D01*
X206785815Y-101804642D02*
X206920502Y-101939329D01*
X206920502Y-101939329D02*
X206954174Y-102040344D01*
X206954174Y-102040344D02*
X206920502Y-102141359D01*
X206920502Y-102141359D02*
X206853159Y-102208703D01*
X206853159Y-102208703D02*
X206449098Y-101939329D01*
X199510105Y-105278892D02*
X200015181Y-105783968D01*
X200015181Y-105783968D02*
X200082525Y-105918655D01*
X200082525Y-105918655D02*
X200082525Y-106053342D01*
X200082525Y-106053342D02*
X200015181Y-106188029D01*
X200015181Y-106188029D02*
X199947838Y-106255373D01*
X200924319Y-105278892D02*
X200520258Y-105682953D01*
X200722288Y-105480922D02*
X200015181Y-104773815D01*
X200015181Y-104773815D02*
X200048853Y-104942174D01*
X200048853Y-104942174D02*
X200048853Y-105076861D01*
X200048853Y-105076861D02*
X200015181Y-105177876D01*
X200452914Y-104336083D02*
X200890647Y-103898350D01*
X200890647Y-103898350D02*
X200924319Y-104403426D01*
X200924319Y-104403426D02*
X201025334Y-104302411D01*
X201025334Y-104302411D02*
X201126349Y-104268739D01*
X201126349Y-104268739D02*
X201193693Y-104268739D01*
X201193693Y-104268739D02*
X201294708Y-104302411D01*
X201294708Y-104302411D02*
X201463067Y-104470770D01*
X201463067Y-104470770D02*
X201496738Y-104571785D01*
X201496738Y-104571785D02*
X201496738Y-104639128D01*
X201496738Y-104639128D02*
X201463067Y-104740144D01*
X201463067Y-104740144D02*
X201261036Y-104942174D01*
X201261036Y-104942174D02*
X201160021Y-104975846D01*
X201160021Y-104975846D02*
X201092677Y-104975846D01*
X178128571Y-85504819D02*
X178128571Y-84504819D01*
X178128571Y-84504819D02*
X178461904Y-85219104D01*
X178461904Y-85219104D02*
X178795237Y-84504819D01*
X178795237Y-84504819D02*
X178795237Y-85504819D01*
X179414285Y-85504819D02*
X179319047Y-85457200D01*
X179319047Y-85457200D02*
X179271428Y-85409580D01*
X179271428Y-85409580D02*
X179223809Y-85314342D01*
X179223809Y-85314342D02*
X179223809Y-85028628D01*
X179223809Y-85028628D02*
X179271428Y-84933390D01*
X179271428Y-84933390D02*
X179319047Y-84885771D01*
X179319047Y-84885771D02*
X179414285Y-84838152D01*
X179414285Y-84838152D02*
X179557142Y-84838152D01*
X179557142Y-84838152D02*
X179652380Y-84885771D01*
X179652380Y-84885771D02*
X179699999Y-84933390D01*
X179699999Y-84933390D02*
X179747618Y-85028628D01*
X179747618Y-85028628D02*
X179747618Y-85314342D01*
X179747618Y-85314342D02*
X179699999Y-85409580D01*
X179699999Y-85409580D02*
X179652380Y-85457200D01*
X179652380Y-85457200D02*
X179557142Y-85504819D01*
X179557142Y-85504819D02*
X179414285Y-85504819D01*
X180604761Y-84838152D02*
X180604761Y-85504819D01*
X180176190Y-84838152D02*
X180176190Y-85361961D01*
X180176190Y-85361961D02*
X180223809Y-85457200D01*
X180223809Y-85457200D02*
X180319047Y-85504819D01*
X180319047Y-85504819D02*
X180461904Y-85504819D01*
X180461904Y-85504819D02*
X180557142Y-85457200D01*
X180557142Y-85457200D02*
X180604761Y-85409580D01*
X181080952Y-84838152D02*
X181080952Y-85504819D01*
X181080952Y-84933390D02*
X181128571Y-84885771D01*
X181128571Y-84885771D02*
X181223809Y-84838152D01*
X181223809Y-84838152D02*
X181366666Y-84838152D01*
X181366666Y-84838152D02*
X181461904Y-84885771D01*
X181461904Y-84885771D02*
X181509523Y-84981009D01*
X181509523Y-84981009D02*
X181509523Y-85504819D01*
X181842857Y-84838152D02*
X182223809Y-84838152D01*
X181985714Y-84504819D02*
X181985714Y-85361961D01*
X181985714Y-85361961D02*
X182033333Y-85457200D01*
X182033333Y-85457200D02*
X182128571Y-85504819D01*
X182128571Y-85504819D02*
X182223809Y-85504819D01*
X182557143Y-85504819D02*
X182557143Y-84838152D01*
X182557143Y-84504819D02*
X182509524Y-84552438D01*
X182509524Y-84552438D02*
X182557143Y-84600057D01*
X182557143Y-84600057D02*
X182604762Y-84552438D01*
X182604762Y-84552438D02*
X182557143Y-84504819D01*
X182557143Y-84504819D02*
X182557143Y-84600057D01*
X183033333Y-84838152D02*
X183033333Y-85504819D01*
X183033333Y-84933390D02*
X183080952Y-84885771D01*
X183080952Y-84885771D02*
X183176190Y-84838152D01*
X183176190Y-84838152D02*
X183319047Y-84838152D01*
X183319047Y-84838152D02*
X183414285Y-84885771D01*
X183414285Y-84885771D02*
X183461904Y-84981009D01*
X183461904Y-84981009D02*
X183461904Y-85504819D01*
X184366666Y-84838152D02*
X184366666Y-85647676D01*
X184366666Y-85647676D02*
X184319047Y-85742914D01*
X184319047Y-85742914D02*
X184271428Y-85790533D01*
X184271428Y-85790533D02*
X184176190Y-85838152D01*
X184176190Y-85838152D02*
X184033333Y-85838152D01*
X184033333Y-85838152D02*
X183938095Y-85790533D01*
X184366666Y-85457200D02*
X184271428Y-85504819D01*
X184271428Y-85504819D02*
X184080952Y-85504819D01*
X184080952Y-85504819D02*
X183985714Y-85457200D01*
X183985714Y-85457200D02*
X183938095Y-85409580D01*
X183938095Y-85409580D02*
X183890476Y-85314342D01*
X183890476Y-85314342D02*
X183890476Y-85028628D01*
X183890476Y-85028628D02*
X183938095Y-84933390D01*
X183938095Y-84933390D02*
X183985714Y-84885771D01*
X183985714Y-84885771D02*
X184080952Y-84838152D01*
X184080952Y-84838152D02*
X184271428Y-84838152D01*
X184271428Y-84838152D02*
X184366666Y-84885771D01*
X184842857Y-85504819D02*
X184842857Y-84504819D01*
X184842857Y-84981009D02*
X185414285Y-84981009D01*
X185414285Y-85504819D02*
X185414285Y-84504819D01*
X186033333Y-85504819D02*
X185938095Y-85457200D01*
X185938095Y-85457200D02*
X185890476Y-85409580D01*
X185890476Y-85409580D02*
X185842857Y-85314342D01*
X185842857Y-85314342D02*
X185842857Y-85028628D01*
X185842857Y-85028628D02*
X185890476Y-84933390D01*
X185890476Y-84933390D02*
X185938095Y-84885771D01*
X185938095Y-84885771D02*
X186033333Y-84838152D01*
X186033333Y-84838152D02*
X186176190Y-84838152D01*
X186176190Y-84838152D02*
X186271428Y-84885771D01*
X186271428Y-84885771D02*
X186319047Y-84933390D01*
X186319047Y-84933390D02*
X186366666Y-85028628D01*
X186366666Y-85028628D02*
X186366666Y-85314342D01*
X186366666Y-85314342D02*
X186319047Y-85409580D01*
X186319047Y-85409580D02*
X186271428Y-85457200D01*
X186271428Y-85457200D02*
X186176190Y-85504819D01*
X186176190Y-85504819D02*
X186033333Y-85504819D01*
X186938095Y-85504819D02*
X186842857Y-85457200D01*
X186842857Y-85457200D02*
X186795238Y-85361961D01*
X186795238Y-85361961D02*
X186795238Y-84504819D01*
X187700000Y-85457200D02*
X187604762Y-85504819D01*
X187604762Y-85504819D02*
X187414286Y-85504819D01*
X187414286Y-85504819D02*
X187319048Y-85457200D01*
X187319048Y-85457200D02*
X187271429Y-85361961D01*
X187271429Y-85361961D02*
X187271429Y-84981009D01*
X187271429Y-84981009D02*
X187319048Y-84885771D01*
X187319048Y-84885771D02*
X187414286Y-84838152D01*
X187414286Y-84838152D02*
X187604762Y-84838152D01*
X187604762Y-84838152D02*
X187700000Y-84885771D01*
X187700000Y-84885771D02*
X187747619Y-84981009D01*
X187747619Y-84981009D02*
X187747619Y-85076247D01*
X187747619Y-85076247D02*
X187271429Y-85171485D01*
X187938096Y-85600057D02*
X188700000Y-85600057D01*
X188938096Y-85504819D02*
X188938096Y-84504819D01*
X188938096Y-84504819D02*
X189319048Y-84504819D01*
X189319048Y-84504819D02*
X189414286Y-84552438D01*
X189414286Y-84552438D02*
X189461905Y-84600057D01*
X189461905Y-84600057D02*
X189509524Y-84695295D01*
X189509524Y-84695295D02*
X189509524Y-84838152D01*
X189509524Y-84838152D02*
X189461905Y-84933390D01*
X189461905Y-84933390D02*
X189414286Y-84981009D01*
X189414286Y-84981009D02*
X189319048Y-85028628D01*
X189319048Y-85028628D02*
X188938096Y-85028628D01*
X190366667Y-85504819D02*
X190366667Y-84981009D01*
X190366667Y-84981009D02*
X190319048Y-84885771D01*
X190319048Y-84885771D02*
X190223810Y-84838152D01*
X190223810Y-84838152D02*
X190033334Y-84838152D01*
X190033334Y-84838152D02*
X189938096Y-84885771D01*
X190366667Y-85457200D02*
X190271429Y-85504819D01*
X190271429Y-85504819D02*
X190033334Y-85504819D01*
X190033334Y-85504819D02*
X189938096Y-85457200D01*
X189938096Y-85457200D02*
X189890477Y-85361961D01*
X189890477Y-85361961D02*
X189890477Y-85266723D01*
X189890477Y-85266723D02*
X189938096Y-85171485D01*
X189938096Y-85171485D02*
X190033334Y-85123866D01*
X190033334Y-85123866D02*
X190271429Y-85123866D01*
X190271429Y-85123866D02*
X190366667Y-85076247D01*
X191271429Y-85504819D02*
X191271429Y-84504819D01*
X191271429Y-85457200D02*
X191176191Y-85504819D01*
X191176191Y-85504819D02*
X190985715Y-85504819D01*
X190985715Y-85504819D02*
X190890477Y-85457200D01*
X190890477Y-85457200D02*
X190842858Y-85409580D01*
X190842858Y-85409580D02*
X190795239Y-85314342D01*
X190795239Y-85314342D02*
X190795239Y-85028628D01*
X190795239Y-85028628D02*
X190842858Y-84933390D01*
X190842858Y-84933390D02*
X190890477Y-84885771D01*
X190890477Y-84885771D02*
X190985715Y-84838152D01*
X190985715Y-84838152D02*
X191176191Y-84838152D01*
X191176191Y-84838152D02*
X191271429Y-84885771D01*
X183938095Y-82054819D02*
X183938095Y-81054819D01*
X183938095Y-81531009D02*
X184509523Y-81531009D01*
X184509523Y-82054819D02*
X184509523Y-81054819D01*
X185509523Y-82054819D02*
X184938095Y-82054819D01*
X185223809Y-82054819D02*
X185223809Y-81054819D01*
X185223809Y-81054819D02*
X185128571Y-81197676D01*
X185128571Y-81197676D02*
X185033333Y-81292914D01*
X185033333Y-81292914D02*
X184938095Y-81340533D01*
X202828571Y-104504819D02*
X202828571Y-103504819D01*
X202828571Y-103504819D02*
X203161904Y-104219104D01*
X203161904Y-104219104D02*
X203495237Y-103504819D01*
X203495237Y-103504819D02*
X203495237Y-104504819D01*
X204114285Y-104504819D02*
X204019047Y-104457200D01*
X204019047Y-104457200D02*
X203971428Y-104409580D01*
X203971428Y-104409580D02*
X203923809Y-104314342D01*
X203923809Y-104314342D02*
X203923809Y-104028628D01*
X203923809Y-104028628D02*
X203971428Y-103933390D01*
X203971428Y-103933390D02*
X204019047Y-103885771D01*
X204019047Y-103885771D02*
X204114285Y-103838152D01*
X204114285Y-103838152D02*
X204257142Y-103838152D01*
X204257142Y-103838152D02*
X204352380Y-103885771D01*
X204352380Y-103885771D02*
X204399999Y-103933390D01*
X204399999Y-103933390D02*
X204447618Y-104028628D01*
X204447618Y-104028628D02*
X204447618Y-104314342D01*
X204447618Y-104314342D02*
X204399999Y-104409580D01*
X204399999Y-104409580D02*
X204352380Y-104457200D01*
X204352380Y-104457200D02*
X204257142Y-104504819D01*
X204257142Y-104504819D02*
X204114285Y-104504819D01*
X205304761Y-103838152D02*
X205304761Y-104504819D01*
X204876190Y-103838152D02*
X204876190Y-104361961D01*
X204876190Y-104361961D02*
X204923809Y-104457200D01*
X204923809Y-104457200D02*
X205019047Y-104504819D01*
X205019047Y-104504819D02*
X205161904Y-104504819D01*
X205161904Y-104504819D02*
X205257142Y-104457200D01*
X205257142Y-104457200D02*
X205304761Y-104409580D01*
X205780952Y-103838152D02*
X205780952Y-104504819D01*
X205780952Y-103933390D02*
X205828571Y-103885771D01*
X205828571Y-103885771D02*
X205923809Y-103838152D01*
X205923809Y-103838152D02*
X206066666Y-103838152D01*
X206066666Y-103838152D02*
X206161904Y-103885771D01*
X206161904Y-103885771D02*
X206209523Y-103981009D01*
X206209523Y-103981009D02*
X206209523Y-104504819D01*
X206542857Y-103838152D02*
X206923809Y-103838152D01*
X206685714Y-103504819D02*
X206685714Y-104361961D01*
X206685714Y-104361961D02*
X206733333Y-104457200D01*
X206733333Y-104457200D02*
X206828571Y-104504819D01*
X206828571Y-104504819D02*
X206923809Y-104504819D01*
X207257143Y-104504819D02*
X207257143Y-103838152D01*
X207257143Y-103504819D02*
X207209524Y-103552438D01*
X207209524Y-103552438D02*
X207257143Y-103600057D01*
X207257143Y-103600057D02*
X207304762Y-103552438D01*
X207304762Y-103552438D02*
X207257143Y-103504819D01*
X207257143Y-103504819D02*
X207257143Y-103600057D01*
X207733333Y-103838152D02*
X207733333Y-104504819D01*
X207733333Y-103933390D02*
X207780952Y-103885771D01*
X207780952Y-103885771D02*
X207876190Y-103838152D01*
X207876190Y-103838152D02*
X208019047Y-103838152D01*
X208019047Y-103838152D02*
X208114285Y-103885771D01*
X208114285Y-103885771D02*
X208161904Y-103981009D01*
X208161904Y-103981009D02*
X208161904Y-104504819D01*
X209066666Y-103838152D02*
X209066666Y-104647676D01*
X209066666Y-104647676D02*
X209019047Y-104742914D01*
X209019047Y-104742914D02*
X208971428Y-104790533D01*
X208971428Y-104790533D02*
X208876190Y-104838152D01*
X208876190Y-104838152D02*
X208733333Y-104838152D01*
X208733333Y-104838152D02*
X208638095Y-104790533D01*
X209066666Y-104457200D02*
X208971428Y-104504819D01*
X208971428Y-104504819D02*
X208780952Y-104504819D01*
X208780952Y-104504819D02*
X208685714Y-104457200D01*
X208685714Y-104457200D02*
X208638095Y-104409580D01*
X208638095Y-104409580D02*
X208590476Y-104314342D01*
X208590476Y-104314342D02*
X208590476Y-104028628D01*
X208590476Y-104028628D02*
X208638095Y-103933390D01*
X208638095Y-103933390D02*
X208685714Y-103885771D01*
X208685714Y-103885771D02*
X208780952Y-103838152D01*
X208780952Y-103838152D02*
X208971428Y-103838152D01*
X208971428Y-103838152D02*
X209066666Y-103885771D01*
X209542857Y-104504819D02*
X209542857Y-103504819D01*
X209542857Y-103981009D02*
X210114285Y-103981009D01*
X210114285Y-104504819D02*
X210114285Y-103504819D01*
X210733333Y-104504819D02*
X210638095Y-104457200D01*
X210638095Y-104457200D02*
X210590476Y-104409580D01*
X210590476Y-104409580D02*
X210542857Y-104314342D01*
X210542857Y-104314342D02*
X210542857Y-104028628D01*
X210542857Y-104028628D02*
X210590476Y-103933390D01*
X210590476Y-103933390D02*
X210638095Y-103885771D01*
X210638095Y-103885771D02*
X210733333Y-103838152D01*
X210733333Y-103838152D02*
X210876190Y-103838152D01*
X210876190Y-103838152D02*
X210971428Y-103885771D01*
X210971428Y-103885771D02*
X211019047Y-103933390D01*
X211019047Y-103933390D02*
X211066666Y-104028628D01*
X211066666Y-104028628D02*
X211066666Y-104314342D01*
X211066666Y-104314342D02*
X211019047Y-104409580D01*
X211019047Y-104409580D02*
X210971428Y-104457200D01*
X210971428Y-104457200D02*
X210876190Y-104504819D01*
X210876190Y-104504819D02*
X210733333Y-104504819D01*
X211638095Y-104504819D02*
X211542857Y-104457200D01*
X211542857Y-104457200D02*
X211495238Y-104361961D01*
X211495238Y-104361961D02*
X211495238Y-103504819D01*
X212400000Y-104457200D02*
X212304762Y-104504819D01*
X212304762Y-104504819D02*
X212114286Y-104504819D01*
X212114286Y-104504819D02*
X212019048Y-104457200D01*
X212019048Y-104457200D02*
X211971429Y-104361961D01*
X211971429Y-104361961D02*
X211971429Y-103981009D01*
X211971429Y-103981009D02*
X212019048Y-103885771D01*
X212019048Y-103885771D02*
X212114286Y-103838152D01*
X212114286Y-103838152D02*
X212304762Y-103838152D01*
X212304762Y-103838152D02*
X212400000Y-103885771D01*
X212400000Y-103885771D02*
X212447619Y-103981009D01*
X212447619Y-103981009D02*
X212447619Y-104076247D01*
X212447619Y-104076247D02*
X211971429Y-104171485D01*
X212638096Y-104600057D02*
X213400000Y-104600057D01*
X213638096Y-104504819D02*
X213638096Y-103504819D01*
X213638096Y-103504819D02*
X214019048Y-103504819D01*
X214019048Y-103504819D02*
X214114286Y-103552438D01*
X214114286Y-103552438D02*
X214161905Y-103600057D01*
X214161905Y-103600057D02*
X214209524Y-103695295D01*
X214209524Y-103695295D02*
X214209524Y-103838152D01*
X214209524Y-103838152D02*
X214161905Y-103933390D01*
X214161905Y-103933390D02*
X214114286Y-103981009D01*
X214114286Y-103981009D02*
X214019048Y-104028628D01*
X214019048Y-104028628D02*
X213638096Y-104028628D01*
X215066667Y-104504819D02*
X215066667Y-103981009D01*
X215066667Y-103981009D02*
X215019048Y-103885771D01*
X215019048Y-103885771D02*
X214923810Y-103838152D01*
X214923810Y-103838152D02*
X214733334Y-103838152D01*
X214733334Y-103838152D02*
X214638096Y-103885771D01*
X215066667Y-104457200D02*
X214971429Y-104504819D01*
X214971429Y-104504819D02*
X214733334Y-104504819D01*
X214733334Y-104504819D02*
X214638096Y-104457200D01*
X214638096Y-104457200D02*
X214590477Y-104361961D01*
X214590477Y-104361961D02*
X214590477Y-104266723D01*
X214590477Y-104266723D02*
X214638096Y-104171485D01*
X214638096Y-104171485D02*
X214733334Y-104123866D01*
X214733334Y-104123866D02*
X214971429Y-104123866D01*
X214971429Y-104123866D02*
X215066667Y-104076247D01*
X215971429Y-104504819D02*
X215971429Y-103504819D01*
X215971429Y-104457200D02*
X215876191Y-104504819D01*
X215876191Y-104504819D02*
X215685715Y-104504819D01*
X215685715Y-104504819D02*
X215590477Y-104457200D01*
X215590477Y-104457200D02*
X215542858Y-104409580D01*
X215542858Y-104409580D02*
X215495239Y-104314342D01*
X215495239Y-104314342D02*
X215495239Y-104028628D01*
X215495239Y-104028628D02*
X215542858Y-103933390D01*
X215542858Y-103933390D02*
X215590477Y-103885771D01*
X215590477Y-103885771D02*
X215685715Y-103838152D01*
X215685715Y-103838152D02*
X215876191Y-103838152D01*
X215876191Y-103838152D02*
X215971429Y-103885771D01*
X208161905Y-100054819D02*
X208161905Y-99054819D01*
X208161905Y-99531009D02*
X208733333Y-99531009D01*
X208733333Y-100054819D02*
X208733333Y-99054819D01*
X209733333Y-100054819D02*
X209161905Y-100054819D01*
X209447619Y-100054819D02*
X209447619Y-99054819D01*
X209447619Y-99054819D02*
X209352381Y-99197676D01*
X209352381Y-99197676D02*
X209257143Y-99292914D01*
X209257143Y-99292914D02*
X209161905Y-99340533D01*
X210638095Y-99054819D02*
X210161905Y-99054819D01*
X210161905Y-99054819D02*
X210114286Y-99531009D01*
X210114286Y-99531009D02*
X210161905Y-99483390D01*
X210161905Y-99483390D02*
X210257143Y-99435771D01*
X210257143Y-99435771D02*
X210495238Y-99435771D01*
X210495238Y-99435771D02*
X210590476Y-99483390D01*
X210590476Y-99483390D02*
X210638095Y-99531009D01*
X210638095Y-99531009D02*
X210685714Y-99626247D01*
X210685714Y-99626247D02*
X210685714Y-99864342D01*
X210685714Y-99864342D02*
X210638095Y-99959580D01*
X210638095Y-99959580D02*
X210590476Y-100007200D01*
X210590476Y-100007200D02*
X210495238Y-100054819D01*
X210495238Y-100054819D02*
X210257143Y-100054819D01*
X210257143Y-100054819D02*
X210161905Y-100007200D01*
X210161905Y-100007200D02*
X210114286Y-99959580D01*
X235304762Y-119087200D02*
X235447619Y-119134819D01*
X235447619Y-119134819D02*
X235685714Y-119134819D01*
X235685714Y-119134819D02*
X235780952Y-119087200D01*
X235780952Y-119087200D02*
X235828571Y-119039580D01*
X235828571Y-119039580D02*
X235876190Y-118944342D01*
X235876190Y-118944342D02*
X235876190Y-118849104D01*
X235876190Y-118849104D02*
X235828571Y-118753866D01*
X235828571Y-118753866D02*
X235780952Y-118706247D01*
X235780952Y-118706247D02*
X235685714Y-118658628D01*
X235685714Y-118658628D02*
X235495238Y-118611009D01*
X235495238Y-118611009D02*
X235400000Y-118563390D01*
X235400000Y-118563390D02*
X235352381Y-118515771D01*
X235352381Y-118515771D02*
X235304762Y-118420533D01*
X235304762Y-118420533D02*
X235304762Y-118325295D01*
X235304762Y-118325295D02*
X235352381Y-118230057D01*
X235352381Y-118230057D02*
X235400000Y-118182438D01*
X235400000Y-118182438D02*
X235495238Y-118134819D01*
X235495238Y-118134819D02*
X235733333Y-118134819D01*
X235733333Y-118134819D02*
X235876190Y-118182438D01*
X236209524Y-118134819D02*
X236447619Y-119134819D01*
X236447619Y-119134819D02*
X236638095Y-118420533D01*
X236638095Y-118420533D02*
X236828571Y-119134819D01*
X236828571Y-119134819D02*
X237066667Y-118134819D01*
X237209524Y-119230057D02*
X237971428Y-119230057D01*
X238161905Y-119087200D02*
X238304762Y-119134819D01*
X238304762Y-119134819D02*
X238542857Y-119134819D01*
X238542857Y-119134819D02*
X238638095Y-119087200D01*
X238638095Y-119087200D02*
X238685714Y-119039580D01*
X238685714Y-119039580D02*
X238733333Y-118944342D01*
X238733333Y-118944342D02*
X238733333Y-118849104D01*
X238733333Y-118849104D02*
X238685714Y-118753866D01*
X238685714Y-118753866D02*
X238638095Y-118706247D01*
X238638095Y-118706247D02*
X238542857Y-118658628D01*
X238542857Y-118658628D02*
X238352381Y-118611009D01*
X238352381Y-118611009D02*
X238257143Y-118563390D01*
X238257143Y-118563390D02*
X238209524Y-118515771D01*
X238209524Y-118515771D02*
X238161905Y-118420533D01*
X238161905Y-118420533D02*
X238161905Y-118325295D01*
X238161905Y-118325295D02*
X238209524Y-118230057D01*
X238209524Y-118230057D02*
X238257143Y-118182438D01*
X238257143Y-118182438D02*
X238352381Y-118134819D01*
X238352381Y-118134819D02*
X238590476Y-118134819D01*
X238590476Y-118134819D02*
X238733333Y-118182438D01*
X239161905Y-119134819D02*
X239161905Y-118134819D01*
X239161905Y-118134819D02*
X239542857Y-118134819D01*
X239542857Y-118134819D02*
X239638095Y-118182438D01*
X239638095Y-118182438D02*
X239685714Y-118230057D01*
X239685714Y-118230057D02*
X239733333Y-118325295D01*
X239733333Y-118325295D02*
X239733333Y-118468152D01*
X239733333Y-118468152D02*
X239685714Y-118563390D01*
X239685714Y-118563390D02*
X239638095Y-118611009D01*
X239638095Y-118611009D02*
X239542857Y-118658628D01*
X239542857Y-118658628D02*
X239161905Y-118658628D01*
X240161905Y-119134819D02*
X240161905Y-118134819D01*
X240161905Y-118134819D02*
X240400000Y-118134819D01*
X240400000Y-118134819D02*
X240542857Y-118182438D01*
X240542857Y-118182438D02*
X240638095Y-118277676D01*
X240638095Y-118277676D02*
X240685714Y-118372914D01*
X240685714Y-118372914D02*
X240733333Y-118563390D01*
X240733333Y-118563390D02*
X240733333Y-118706247D01*
X240733333Y-118706247D02*
X240685714Y-118896723D01*
X240685714Y-118896723D02*
X240638095Y-118991961D01*
X240638095Y-118991961D02*
X240542857Y-119087200D01*
X240542857Y-119087200D02*
X240400000Y-119134819D01*
X240400000Y-119134819D02*
X240161905Y-119134819D01*
X241019048Y-118134819D02*
X241590476Y-118134819D01*
X241304762Y-119134819D02*
X241304762Y-118134819D01*
X237114286Y-119134819D02*
X237114286Y-118134819D01*
X237114286Y-118134819D02*
X237447619Y-118849104D01*
X237447619Y-118849104D02*
X237780952Y-118134819D01*
X237780952Y-118134819D02*
X237780952Y-119134819D01*
X238161905Y-118134819D02*
X238828571Y-119134819D01*
X238828571Y-118134819D02*
X238161905Y-119134819D01*
X239638095Y-118134819D02*
X239447619Y-118134819D01*
X239447619Y-118134819D02*
X239352381Y-118182438D01*
X239352381Y-118182438D02*
X239304762Y-118230057D01*
X239304762Y-118230057D02*
X239209524Y-118372914D01*
X239209524Y-118372914D02*
X239161905Y-118563390D01*
X239161905Y-118563390D02*
X239161905Y-118944342D01*
X239161905Y-118944342D02*
X239209524Y-119039580D01*
X239209524Y-119039580D02*
X239257143Y-119087200D01*
X239257143Y-119087200D02*
X239352381Y-119134819D01*
X239352381Y-119134819D02*
X239542857Y-119134819D01*
X239542857Y-119134819D02*
X239638095Y-119087200D01*
X239638095Y-119087200D02*
X239685714Y-119039580D01*
X239685714Y-119039580D02*
X239733333Y-118944342D01*
X239733333Y-118944342D02*
X239733333Y-118706247D01*
X239733333Y-118706247D02*
X239685714Y-118611009D01*
X239685714Y-118611009D02*
X239638095Y-118563390D01*
X239638095Y-118563390D02*
X239542857Y-118515771D01*
X239542857Y-118515771D02*
X239352381Y-118515771D01*
X239352381Y-118515771D02*
X239257143Y-118563390D01*
X239257143Y-118563390D02*
X239209524Y-118611009D01*
X239209524Y-118611009D02*
X239161905Y-118706247D01*
X235885400Y-113054819D02*
X235885400Y-113292914D01*
X235647305Y-113197676D02*
X235885400Y-113292914D01*
X235885400Y-113292914D02*
X236123495Y-113197676D01*
X235742543Y-113483390D02*
X235885400Y-113292914D01*
X235885400Y-113292914D02*
X236028257Y-113483390D01*
X235885400Y-113054819D02*
X235885400Y-113292914D01*
X235647305Y-113197676D02*
X235885400Y-113292914D01*
X235885400Y-113292914D02*
X236123495Y-113197676D01*
X235742543Y-113483390D02*
X235885400Y-113292914D01*
X235885400Y-113292914D02*
X236028257Y-113483390D01*
D11*
X235504400Y-38119200D02*
X235504400Y-50920800D01*
X235504400Y-50920800D02*
X241295600Y-50920800D01*
X236952200Y-43923100D02*
X239847800Y-43923100D01*
X236952200Y-45116900D02*
X236952200Y-43923100D01*
X239847800Y-43923100D02*
X239847800Y-45116900D01*
X239847800Y-45116900D02*
X236952200Y-45116900D01*
X241295600Y-38119200D02*
X235504400Y-38119200D01*
X241295600Y-50920800D02*
X241295600Y-38119200D01*
D12*
G36*
X239847800Y-44520000D02*
G01*
X236952200Y-44520000D01*
X236952200Y-43923100D01*
X239847800Y-43923100D01*
X239847800Y-44520000D01*
G37*
D11*
X217504400Y-30119200D02*
X217504400Y-42920800D01*
X217504400Y-42920800D02*
X223295600Y-42920800D01*
X218952200Y-35923100D02*
X221847800Y-35923100D01*
X218952200Y-37116900D02*
X218952200Y-35923100D01*
X221847800Y-35923100D02*
X221847800Y-37116900D01*
X221847800Y-37116900D02*
X218952200Y-37116900D01*
X223295600Y-30119200D02*
X217504400Y-30119200D01*
X223295600Y-42920800D02*
X223295600Y-30119200D01*
D12*
G36*
X221847800Y-36520000D02*
G01*
X218952200Y-36520000D01*
X218952200Y-35923100D01*
X221847800Y-35923100D01*
X221847800Y-36520000D01*
G37*
D13*
X234878000Y-104714000D02*
X245038000Y-104714000D01*
X234878000Y-107254000D02*
X234878000Y-104714000D01*
X244403000Y-107254000D02*
X234878000Y-107254000D01*
X245038000Y-104714000D02*
X245038000Y-106619000D01*
X245038000Y-106619000D02*
X244403000Y-107254000D01*
D11*
X217504400Y-120279200D02*
X217504400Y-133080800D01*
X217504400Y-133080800D02*
X223295600Y-133080800D01*
X218952200Y-126083100D02*
X221847800Y-126083100D01*
X218952200Y-127276900D02*
X218952200Y-126083100D01*
X221847800Y-126083100D02*
X221847800Y-127276900D01*
X221847800Y-127276900D02*
X218952200Y-127276900D01*
X223295600Y-120279200D02*
X217504400Y-120279200D01*
X223295600Y-133080800D02*
X223295600Y-120279200D01*
D12*
G36*
X221847800Y-127276900D02*
G01*
X218952200Y-127276900D01*
X218952200Y-126680000D01*
X221847800Y-126680000D01*
X221847800Y-127276900D01*
G37*
D13*
X234878000Y-55946000D02*
X245038000Y-55946000D01*
X234878000Y-58486000D02*
X234878000Y-55946000D01*
X244403000Y-58486000D02*
X234878000Y-58486000D01*
X245038000Y-55946000D02*
X245038000Y-57851000D01*
X245038000Y-57851000D02*
X244403000Y-58486000D01*
X195977898Y-55423949D02*
X197324936Y-54076911D01*
X197324936Y-54076911D02*
X198222962Y-54076911D01*
X198222962Y-54076911D02*
X204958154Y-60812103D01*
X203162103Y-62608154D02*
X195977898Y-55423949D01*
X204958154Y-60812103D02*
X203162103Y-62608154D01*
X196426911Y-107337038D02*
X203162103Y-100601846D01*
X196426911Y-108235064D02*
X196426911Y-107337038D01*
X197773949Y-109582102D02*
X196426911Y-108235064D01*
X203162103Y-100601846D02*
X204958154Y-102397897D01*
X204958154Y-102397897D02*
X197773949Y-109582102D01*
D11*
X235504400Y-112279200D02*
X235504400Y-125080800D01*
X235504400Y-125080800D02*
X241295600Y-125080800D01*
X236952200Y-118083100D02*
X239847800Y-118083100D01*
X236952200Y-119276900D02*
X236952200Y-118083100D01*
X239847800Y-118083100D02*
X239847800Y-119276900D01*
X239847800Y-119276900D02*
X236952200Y-119276900D01*
X241295600Y-112279200D02*
X235504400Y-112279200D01*
X241295600Y-125080800D02*
X241295600Y-112279200D01*
D12*
G36*
X239847800Y-119276900D02*
G01*
X236952200Y-119276900D01*
X236952200Y-118680000D01*
X239847800Y-118680000D01*
X239847800Y-119276900D01*
G37*
M02*
