M48
; DRILL file {KiCad 9.0.2} date 2025-09-26T14:38:01-0400
; FORMAT={-:-/ absolute / metric / decimal}
; #@! TF.CreationDate,2025-09-26T14:38:01-04:00
; #@! TF.GenerationSoftware,Kicad,Pcbnew,9.0.2
; #@! TF.FileFunction,Plated,1,2,PTH
FMAT,2
METRIC
; #@! TA.AperFunction,Plated,PTH,ViaDrill
T1C0.400
; #@! TA.AperFunction,Plated,PTH,ComponentDrill
T2C1.000
; #@! TA.AperFunction,Plated,PTH,ComponentDrill
T3C1.194
; #@! TA.AperFunction,Plated,PTH,ComponentDrill
T4C2.500
; #@! TA.AperFunction,Plated,PTH,ComponentDrill
T5C3.500
%
G90
G05
T1
X172.766Y-100.822
X176.302Y-97.286
X176.302Y-104.357
X179.837Y-100.822
X179.837Y-107.893
X183.373Y-104.357
X186.908Y-79.609
X190.444Y-83.144
X193.979Y-86.68
X197.515Y-83.144
X201.05Y-86.68
X204.586Y-83.144
X208.121Y-58.395
X208.121Y-79.609
X211.657Y-61.931
X211.657Y-69.002
X211.657Y-76.073
X215.192Y-65.466
X215.192Y-72.537
X222.263Y-114.964
X225.799Y-47.789
X225.799Y-111.428
X225.799Y-118.499
X229.335Y-44.253
X229.335Y-51.324
X229.335Y-114.964
X229.335Y-122.035
X232.87Y-47.789
X232.87Y-54.86
X232.87Y-118.499
X236.406Y-51.324
X239.941Y-97.286
X243.477Y-93.751
X243.477Y-100.822
X247.012Y-97.286
X247.012Y-104.357
X250.548Y-100.822
T2
X182.798Y-91.318
X185.338Y-91.318
X187.878Y-91.318
X190.418Y-91.318
X211.207Y-117.179
X213.003Y-118.975
X214.799Y-120.771
X216.595Y-122.567
X219.824Y-54.293
X219.824Y-56.833
X219.824Y-59.373
X219.824Y-61.913
X245.691Y-82.694
X247.487Y-84.49
X249.283Y-86.286
X251.079Y-88.082
T3
X181.845Y-124.269
X185.437Y-120.677
X189.029Y-117.085
X200.23Y-131.34
X203.822Y-127.748
X207.414Y-124.156
X245.598Y-60.517
X249.19Y-56.925
X252.669Y-78.901
X252.782Y-53.332
X256.261Y-75.309
X259.853Y-71.717
T4
X192.07Y-63.557
T5
X196.808Y-93.751
X222.263Y-68.295
M30
