G04 #@! TF.GenerationSoftware,KiCad,Pcbnew,9.0.2*
G04 #@! TF.CreationDate,2026-05-03T18:11:30-04:00*
G04 #@! TF.ProjectId,Trackball,54726163-6b62-4616-9c6c-2e6b69636164,rev?*
G04 #@! TF.SameCoordinates,Original*
G04 #@! TF.FileFunction,Soldermask,Top*
G04 #@! TF.FilePolarity,Negative*
%FSLAX46Y46*%
G04 Gerber Fmt 4.6, Leading zero omitted, Abs format (unit mm)*
G04 Created by KiCad (PCBNEW 9.0.2) date 2026-05-03 18:11:30*
%MOMM*%
%LPD*%
G01*
G04 APERTURE LIST*
G04 APERTURE END LIST*
G36*
X241477380Y-131927048D02*
G01*
X241493925Y-131938104D01*
X241504981Y-131954649D01*
X241508863Y-131974166D01*
X241508863Y-133674166D01*
X241504981Y-133693683D01*
X241493925Y-133710228D01*
X241477380Y-133721284D01*
X241457863Y-133725166D01*
X239757863Y-133725166D01*
X239738346Y-133721284D01*
X239721801Y-133710228D01*
X239710745Y-133693683D01*
X239706863Y-133674166D01*
X239706863Y-131974166D01*
X239710745Y-131954649D01*
X239721801Y-131938104D01*
X239738346Y-131927048D01*
X239757863Y-131923166D01*
X241457863Y-131923166D01*
X241477380Y-131927048D01*
G37*
G36*
X240869409Y-129421963D02*
G01*
X241032591Y-129489555D01*
X241179451Y-129587684D01*
X241304345Y-129712578D01*
X241402474Y-129859438D01*
X241470066Y-130022620D01*
X241504524Y-130195853D01*
X241504524Y-130372479D01*
X241470066Y-130545712D01*
X241402474Y-130708894D01*
X241304345Y-130855754D01*
X241179451Y-130980648D01*
X241032591Y-131078777D01*
X240869409Y-131146369D01*
X240696176Y-131180827D01*
X240519550Y-131180827D01*
X240346317Y-131146369D01*
X240183135Y-131078777D01*
X240036275Y-130980648D01*
X239911381Y-130855754D01*
X239813252Y-130708894D01*
X239745660Y-130545712D01*
X239711202Y-130372479D01*
X239711202Y-130195853D01*
X239745660Y-130022620D01*
X239813252Y-129859438D01*
X239911381Y-129712578D01*
X240036275Y-129587684D01*
X240183135Y-129489555D01*
X240346317Y-129421963D01*
X240519550Y-129387505D01*
X240696176Y-129387505D01*
X240869409Y-129421963D01*
G37*
G36*
X268163993Y-127257355D02*
G01*
X268327338Y-127325014D01*
X268474344Y-127423241D01*
X268599363Y-127548260D01*
X268697590Y-127695266D01*
X268765249Y-127858611D01*
X268799742Y-128032017D01*
X268799742Y-128208821D01*
X268765249Y-128382227D01*
X268697590Y-128545572D01*
X268599363Y-128692578D01*
X268474344Y-128817597D01*
X268327338Y-128915824D01*
X268163993Y-128983483D01*
X267990587Y-129017976D01*
X267813783Y-129017976D01*
X267640377Y-128983483D01*
X267477032Y-128915824D01*
X267330026Y-128817597D01*
X267205007Y-128692578D01*
X267106780Y-128545572D01*
X267039121Y-128382227D01*
X267004628Y-128208821D01*
X267004628Y-128032017D01*
X267039121Y-127858611D01*
X267106780Y-127695266D01*
X267205007Y-127548260D01*
X267330026Y-127423241D01*
X267477032Y-127325014D01*
X267640377Y-127257355D01*
X267813783Y-127222862D01*
X267990587Y-127222862D01*
X268163993Y-127257355D01*
G37*
G36*
X240869409Y-126881964D02*
G01*
X241032591Y-126949556D01*
X241179451Y-127047685D01*
X241304345Y-127172579D01*
X241402474Y-127319439D01*
X241470066Y-127482621D01*
X241504524Y-127655854D01*
X241504524Y-127832480D01*
X241470066Y-128005713D01*
X241402474Y-128168895D01*
X241304345Y-128315755D01*
X241179451Y-128440649D01*
X241032591Y-128538778D01*
X240869409Y-128606370D01*
X240696176Y-128640828D01*
X240519550Y-128640828D01*
X240346317Y-128606370D01*
X240183135Y-128538778D01*
X240036275Y-128440649D01*
X239911381Y-128315755D01*
X239813252Y-128168895D01*
X239745660Y-128005713D01*
X239711202Y-127832480D01*
X239711202Y-127655854D01*
X239745660Y-127482621D01*
X239813252Y-127319439D01*
X239911381Y-127172579D01*
X240036275Y-127047685D01*
X240183135Y-126949556D01*
X240346317Y-126881964D01*
X240519550Y-126847506D01*
X240696176Y-126847506D01*
X240869409Y-126881964D01*
G37*
G36*
X240869409Y-124341963D02*
G01*
X241032591Y-124409555D01*
X241179451Y-124507684D01*
X241304345Y-124632578D01*
X241402474Y-124779438D01*
X241470066Y-124942620D01*
X241504524Y-125115853D01*
X241504524Y-125292479D01*
X241470066Y-125465712D01*
X241402474Y-125628894D01*
X241304345Y-125775754D01*
X241179451Y-125900648D01*
X241032591Y-125998777D01*
X240869409Y-126066369D01*
X240696176Y-126100827D01*
X240519550Y-126100827D01*
X240346317Y-126066369D01*
X240183135Y-125998777D01*
X240036275Y-125900648D01*
X239911381Y-125775754D01*
X239813252Y-125628894D01*
X239745660Y-125465712D01*
X239711202Y-125292479D01*
X239711202Y-125115853D01*
X239745660Y-124942620D01*
X239813252Y-124779438D01*
X239911381Y-124632578D01*
X240036275Y-124507684D01*
X240183135Y-124409555D01*
X240346317Y-124341963D01*
X240519550Y-124307505D01*
X240696176Y-124307505D01*
X240869409Y-124341963D01*
G37*
G36*
X213274159Y-121037552D02*
G01*
X213553058Y-121101209D01*
X213823076Y-121195692D01*
X214080818Y-121319814D01*
X214323041Y-121472013D01*
X214546701Y-121650376D01*
X214748984Y-121852659D01*
X214927347Y-122076319D01*
X215079546Y-122318542D01*
X215203668Y-122576284D01*
X215298151Y-122846302D01*
X215361808Y-123125201D01*
X215393838Y-123409473D01*
X215393838Y-123695545D01*
X215361808Y-123979817D01*
X215298151Y-124258716D01*
X215203668Y-124528734D01*
X215079546Y-124786476D01*
X214927347Y-125028699D01*
X214748984Y-125252359D01*
X214546701Y-125454642D01*
X214323041Y-125633005D01*
X214080818Y-125785204D01*
X213823076Y-125909326D01*
X213553058Y-126003809D01*
X213274159Y-126067466D01*
X212989887Y-126099496D01*
X212703815Y-126099496D01*
X212419543Y-126067466D01*
X212140644Y-126003809D01*
X211870626Y-125909326D01*
X211612884Y-125785204D01*
X211370661Y-125633005D01*
X211147001Y-125454642D01*
X210944718Y-125252359D01*
X210766355Y-125028699D01*
X210614156Y-124786476D01*
X210490034Y-124528734D01*
X210395551Y-124258716D01*
X210331894Y-123979817D01*
X210299864Y-123695545D01*
X210299864Y-123409473D01*
X210331894Y-123125201D01*
X210395551Y-122846302D01*
X210490034Y-122576284D01*
X210614156Y-122318542D01*
X210766355Y-122076319D01*
X210944718Y-121852659D01*
X211147001Y-121650376D01*
X211370661Y-121472013D01*
X211612884Y-121319814D01*
X211870626Y-121195692D01*
X212140644Y-121101209D01*
X212419543Y-121037552D01*
X212703815Y-121005522D01*
X212989887Y-121005522D01*
X213274159Y-121037552D01*
G37*
G36*
X264571890Y-123665252D02*
G01*
X264735235Y-123732911D01*
X264882241Y-123831138D01*
X265007260Y-123956157D01*
X265105487Y-124103163D01*
X265173146Y-124266508D01*
X265207639Y-124439914D01*
X265207639Y-124616718D01*
X265173146Y-124790124D01*
X265105487Y-124953469D01*
X265007260Y-125100475D01*
X264882241Y-125225494D01*
X264735235Y-125323721D01*
X264571890Y-125391380D01*
X264398484Y-125425873D01*
X264221680Y-125425873D01*
X264048274Y-125391380D01*
X263884929Y-125323721D01*
X263737923Y-125225494D01*
X263612904Y-125100475D01*
X263514677Y-124953469D01*
X263447018Y-124790124D01*
X263412525Y-124616718D01*
X263412525Y-124439914D01*
X263447018Y-124266508D01*
X263514677Y-124103163D01*
X263612904Y-123956157D01*
X263737923Y-123831138D01*
X263884929Y-123732911D01*
X264048274Y-123665252D01*
X264221680Y-123630759D01*
X264398484Y-123630759D01*
X264571890Y-123665252D01*
G37*
G36*
X243561351Y-115302328D02*
G01*
X243903134Y-115370313D01*
X244236607Y-115471471D01*
X244558559Y-115604828D01*
X244865890Y-115769100D01*
X245155639Y-115962704D01*
X245425017Y-116183777D01*
X245671428Y-116430188D01*
X245892501Y-116699566D01*
X246086105Y-116989315D01*
X246250377Y-117296646D01*
X246383734Y-117618598D01*
X246484892Y-117952071D01*
X246552877Y-118293854D01*
X246587034Y-118640655D01*
X246587034Y-118989133D01*
X246552877Y-119335934D01*
X246484892Y-119677717D01*
X246383734Y-120011190D01*
X246250377Y-120333142D01*
X246086105Y-120640473D01*
X245892501Y-120930222D01*
X245671428Y-121199600D01*
X245425017Y-121446011D01*
X245155639Y-121667084D01*
X244865890Y-121860688D01*
X244558559Y-122024960D01*
X244236607Y-122158317D01*
X243903134Y-122259475D01*
X243561351Y-122327460D01*
X243214550Y-122361617D01*
X242866072Y-122361617D01*
X242519271Y-122327460D01*
X242177488Y-122259475D01*
X241844015Y-122158317D01*
X241522063Y-122024960D01*
X241214732Y-121860688D01*
X240924983Y-121667084D01*
X240655605Y-121446011D01*
X240409194Y-121199600D01*
X240188121Y-120930222D01*
X239994517Y-120640473D01*
X239830245Y-120333142D01*
X239696888Y-120011190D01*
X239595730Y-119677717D01*
X239527745Y-119335934D01*
X239493588Y-118989133D01*
X239493588Y-118640655D01*
X239527745Y-118293854D01*
X239595730Y-117952071D01*
X239696888Y-117618598D01*
X239830245Y-117296646D01*
X239994517Y-116989315D01*
X240188121Y-116699566D01*
X240409194Y-116430188D01*
X240655605Y-116183777D01*
X240924983Y-115962704D01*
X241214732Y-115769100D01*
X241522063Y-115604828D01*
X241844015Y-115471471D01*
X242177488Y-115370313D01*
X242519271Y-115302328D01*
X242866072Y-115268171D01*
X243214550Y-115268171D01*
X243561351Y-115302328D01*
G37*
G36*
X260737497Y-119685742D02*
G01*
X260754042Y-119696797D01*
X261957397Y-120900152D01*
X261968452Y-120916697D01*
X261972334Y-120936214D01*
X261968452Y-120955731D01*
X261957397Y-120972276D01*
X260754042Y-122175631D01*
X260737497Y-122186686D01*
X260717980Y-122190568D01*
X260698463Y-122186686D01*
X260681918Y-122175631D01*
X259478563Y-120972276D01*
X259467508Y-120955731D01*
X259463626Y-120936214D01*
X259467508Y-120916697D01*
X259478563Y-120900152D01*
X260681918Y-119696797D01*
X260698463Y-119685742D01*
X260717980Y-119681860D01*
X260737497Y-119685742D01*
G37*
G36*
X280891915Y-114529433D02*
G01*
X281055260Y-114597092D01*
X281202266Y-114695319D01*
X281327285Y-114820338D01*
X281425512Y-114967344D01*
X281493171Y-115130689D01*
X281527664Y-115304095D01*
X281527664Y-115480899D01*
X281493171Y-115654305D01*
X281425512Y-115817650D01*
X281327285Y-115964656D01*
X281202266Y-116089675D01*
X281055260Y-116187902D01*
X280891915Y-116255561D01*
X280718509Y-116290054D01*
X280541705Y-116290054D01*
X280368299Y-116255561D01*
X280204954Y-116187902D01*
X280057948Y-116089675D01*
X279932929Y-115964656D01*
X279834702Y-115817650D01*
X279767043Y-115654305D01*
X279732550Y-115480899D01*
X279732550Y-115304095D01*
X279767043Y-115130689D01*
X279834702Y-114967344D01*
X279932929Y-114820338D01*
X280057948Y-114695319D01*
X280204954Y-114597092D01*
X280368299Y-114529433D01*
X280541705Y-114494940D01*
X280718509Y-114494940D01*
X280891915Y-114529433D01*
G37*
G36*
X277299812Y-110937330D02*
G01*
X277463157Y-111004989D01*
X277610163Y-111103216D01*
X277735182Y-111228235D01*
X277833409Y-111375241D01*
X277901068Y-111538586D01*
X277935561Y-111711992D01*
X277935561Y-111888796D01*
X277901068Y-112062202D01*
X277833409Y-112225547D01*
X277735182Y-112372553D01*
X277610163Y-112497572D01*
X277463157Y-112595799D01*
X277299812Y-112663458D01*
X277126406Y-112697951D01*
X276949602Y-112697951D01*
X276776196Y-112663458D01*
X276612851Y-112595799D01*
X276465845Y-112497572D01*
X276340826Y-112372553D01*
X276242599Y-112225547D01*
X276174940Y-112062202D01*
X276140447Y-111888796D01*
X276140447Y-111711992D01*
X276174940Y-111538586D01*
X276242599Y-111375241D01*
X276340826Y-111228235D01*
X276465845Y-111103216D01*
X276612851Y-111004989D01*
X276776196Y-110937330D01*
X276949602Y-110902837D01*
X277126406Y-110902837D01*
X277299812Y-110937330D01*
G37*
G36*
X273465419Y-106957820D02*
G01*
X273481964Y-106968875D01*
X274685319Y-108172230D01*
X274696374Y-108188775D01*
X274700256Y-108208292D01*
X274696374Y-108227809D01*
X274685319Y-108244354D01*
X273481964Y-109447709D01*
X273465419Y-109458764D01*
X273445902Y-109462646D01*
X273426385Y-109458764D01*
X273409840Y-109447709D01*
X272206485Y-108244354D01*
X272195430Y-108227809D01*
X272191548Y-108208292D01*
X272195430Y-108188775D01*
X272206485Y-108172230D01*
X273409840Y-106968875D01*
X273426385Y-106957820D01*
X273445902Y-106953938D01*
X273465419Y-106957820D01*
G37*
G36*
X266729718Y-103553169D02*
G01*
X266892900Y-103620761D01*
X267039760Y-103718890D01*
X267164654Y-103843784D01*
X267262783Y-103990644D01*
X267330375Y-104153826D01*
X267364833Y-104327059D01*
X267364833Y-104503685D01*
X267330375Y-104676918D01*
X267262783Y-104840100D01*
X267164654Y-104986960D01*
X267039760Y-105111854D01*
X266892900Y-105209983D01*
X266729718Y-105277575D01*
X266556485Y-105312033D01*
X266379859Y-105312033D01*
X266206626Y-105277575D01*
X266043444Y-105209983D01*
X265896584Y-105111854D01*
X265771690Y-104986960D01*
X265673561Y-104840100D01*
X265605969Y-104676918D01*
X265571511Y-104503685D01*
X265571511Y-104327059D01*
X265605969Y-104153826D01*
X265673561Y-103990644D01*
X265771690Y-103843784D01*
X265896584Y-103718890D01*
X266043444Y-103620761D01*
X266206626Y-103553169D01*
X266379859Y-103518711D01*
X266556485Y-103518711D01*
X266729718Y-103553169D01*
G37*
G36*
X268525770Y-101757117D02*
G01*
X268688952Y-101824709D01*
X268835812Y-101922838D01*
X268960706Y-102047732D01*
X269058835Y-102194592D01*
X269126427Y-102357774D01*
X269160885Y-102531007D01*
X269160885Y-102707633D01*
X269126427Y-102880866D01*
X269058835Y-103044048D01*
X268960706Y-103190908D01*
X268835812Y-103315802D01*
X268688952Y-103413931D01*
X268525770Y-103481523D01*
X268352537Y-103515981D01*
X268175911Y-103515981D01*
X268002678Y-103481523D01*
X267839496Y-103413931D01*
X267692636Y-103315802D01*
X267567742Y-103190908D01*
X267469613Y-103044048D01*
X267402021Y-102880866D01*
X267367563Y-102707633D01*
X267367563Y-102531007D01*
X267402021Y-102357774D01*
X267469613Y-102194592D01*
X267567742Y-102047732D01*
X267692636Y-101922838D01*
X267839496Y-101824709D01*
X268002678Y-101757117D01*
X268175911Y-101722659D01*
X268352537Y-101722659D01*
X268525770Y-101757117D01*
G37*
G36*
X270321821Y-99961066D02*
G01*
X270485003Y-100028658D01*
X270631863Y-100126787D01*
X270756757Y-100251681D01*
X270854886Y-100398541D01*
X270922478Y-100561723D01*
X270956936Y-100734956D01*
X270956936Y-100911582D01*
X270922478Y-101084815D01*
X270854886Y-101247997D01*
X270756757Y-101394857D01*
X270631863Y-101519751D01*
X270485003Y-101617880D01*
X270321821Y-101685472D01*
X270148588Y-101719930D01*
X269971962Y-101719930D01*
X269798729Y-101685472D01*
X269635547Y-101617880D01*
X269488687Y-101519751D01*
X269363793Y-101394857D01*
X269265664Y-101247997D01*
X269198072Y-101084815D01*
X269163614Y-100911582D01*
X269163614Y-100734956D01*
X269198072Y-100561723D01*
X269265664Y-100398541D01*
X269363793Y-100251681D01*
X269488687Y-100126787D01*
X269635547Y-100028658D01*
X269798729Y-99961066D01*
X269971962Y-99926608D01*
X270148588Y-99926608D01*
X270321821Y-99961066D01*
G37*
G36*
X271875843Y-97778018D02*
G01*
X271892388Y-97789074D01*
X273094470Y-98991156D01*
X273105526Y-99007701D01*
X273109407Y-99027218D01*
X273105526Y-99046735D01*
X273094470Y-99063280D01*
X271892388Y-100265362D01*
X271875843Y-100276418D01*
X271856326Y-100280299D01*
X271836809Y-100276418D01*
X271820264Y-100265362D01*
X270618182Y-99063280D01*
X270607126Y-99046735D01*
X270603245Y-99027218D01*
X270607126Y-99007701D01*
X270618182Y-98991156D01*
X271219223Y-98390115D01*
X271811559Y-97797778D01*
X271811562Y-97797775D01*
X271820264Y-97789074D01*
X271836809Y-97778018D01*
X271856326Y-97774137D01*
X271875843Y-97778018D01*
G37*
G36*
X218105506Y-89846484D02*
G01*
X218447289Y-89914469D01*
X218780762Y-90015627D01*
X219102714Y-90148984D01*
X219410045Y-90313256D01*
X219699794Y-90506860D01*
X219969172Y-90727933D01*
X220215583Y-90974344D01*
X220436656Y-91243722D01*
X220630260Y-91533471D01*
X220794532Y-91840802D01*
X220927889Y-92162754D01*
X221029047Y-92496227D01*
X221097032Y-92838010D01*
X221131189Y-93184811D01*
X221131189Y-93533289D01*
X221097032Y-93880090D01*
X221029047Y-94221873D01*
X220927889Y-94555346D01*
X220794532Y-94877298D01*
X220630260Y-95184629D01*
X220436656Y-95474378D01*
X220215583Y-95743756D01*
X219969172Y-95990167D01*
X219699794Y-96211240D01*
X219410045Y-96404844D01*
X219102714Y-96569116D01*
X218780762Y-96702473D01*
X218447289Y-96803631D01*
X218105506Y-96871616D01*
X217758705Y-96905773D01*
X217410227Y-96905773D01*
X217063426Y-96871616D01*
X216721643Y-96803631D01*
X216388170Y-96702473D01*
X216066218Y-96569116D01*
X215758887Y-96404844D01*
X215469138Y-96211240D01*
X215199760Y-95990167D01*
X214953349Y-95743756D01*
X214732276Y-95474378D01*
X214538672Y-95184629D01*
X214374400Y-94877298D01*
X214241043Y-94555346D01*
X214139885Y-94221873D01*
X214071900Y-93880090D01*
X214037743Y-93533289D01*
X214037743Y-93184811D01*
X214071900Y-92838010D01*
X214139885Y-92496227D01*
X214241043Y-92162754D01*
X214374400Y-91840802D01*
X214538672Y-91533471D01*
X214732276Y-91243722D01*
X214953349Y-90974344D01*
X215199760Y-90727933D01*
X215469138Y-90506860D01*
X215758887Y-90313256D01*
X216066218Y-90148984D01*
X216388170Y-90015627D01*
X216721643Y-89914469D01*
X217063426Y-89846484D01*
X217410227Y-89812327D01*
X217758705Y-89812327D01*
X218105506Y-89846484D01*
G37*
G36*
X204451783Y-94901450D02*
G01*
X204468328Y-94912506D01*
X204479384Y-94929051D01*
X204483266Y-94948568D01*
X204483266Y-96648568D01*
X204479384Y-96668085D01*
X204468328Y-96684630D01*
X204451783Y-96695686D01*
X204432266Y-96699568D01*
X202732266Y-96699568D01*
X202712749Y-96695686D01*
X202696204Y-96684630D01*
X202685148Y-96668085D01*
X202681266Y-96648568D01*
X202681266Y-94948568D01*
X202685148Y-94929051D01*
X202696204Y-94912506D01*
X202712749Y-94901450D01*
X202732266Y-94897568D01*
X204432266Y-94897568D01*
X204451783Y-94901450D01*
G37*
G36*
X206383812Y-94936365D02*
G01*
X206546994Y-95003957D01*
X206693854Y-95102086D01*
X206818748Y-95226980D01*
X206916877Y-95373840D01*
X206984469Y-95537022D01*
X207018927Y-95710255D01*
X207018927Y-95886881D01*
X206984469Y-96060114D01*
X206916877Y-96223296D01*
X206818748Y-96370156D01*
X206693854Y-96495050D01*
X206546994Y-96593179D01*
X206383812Y-96660771D01*
X206210579Y-96695229D01*
X206033953Y-96695229D01*
X205860720Y-96660771D01*
X205697538Y-96593179D01*
X205550678Y-96495050D01*
X205425784Y-96370156D01*
X205327655Y-96223296D01*
X205260063Y-96060114D01*
X205225605Y-95886881D01*
X205225605Y-95710255D01*
X205260063Y-95537022D01*
X205327655Y-95373840D01*
X205425784Y-95226980D01*
X205550678Y-95102086D01*
X205697538Y-95003957D01*
X205860720Y-94936365D01*
X206033953Y-94901907D01*
X206210579Y-94901907D01*
X206383812Y-94936365D01*
G37*
G36*
X208923811Y-94936365D02*
G01*
X209086993Y-95003957D01*
X209233853Y-95102086D01*
X209358747Y-95226980D01*
X209456876Y-95373840D01*
X209524468Y-95537022D01*
X209558926Y-95710255D01*
X209558926Y-95886881D01*
X209524468Y-96060114D01*
X209456876Y-96223296D01*
X209358747Y-96370156D01*
X209233853Y-96495050D01*
X209086993Y-96593179D01*
X208923811Y-96660771D01*
X208750578Y-96695229D01*
X208573952Y-96695229D01*
X208400719Y-96660771D01*
X208237537Y-96593179D01*
X208090677Y-96495050D01*
X207965783Y-96370156D01*
X207867654Y-96223296D01*
X207800062Y-96060114D01*
X207765604Y-95886881D01*
X207765604Y-95710255D01*
X207800062Y-95537022D01*
X207867654Y-95373840D01*
X207965783Y-95226980D01*
X208090677Y-95102086D01*
X208237537Y-95003957D01*
X208400719Y-94936365D01*
X208573952Y-94901907D01*
X208750578Y-94901907D01*
X208923811Y-94936365D01*
G37*
G36*
X211463812Y-94936365D02*
G01*
X211626994Y-95003957D01*
X211773854Y-95102086D01*
X211898748Y-95226980D01*
X211996877Y-95373840D01*
X212064469Y-95537022D01*
X212098927Y-95710255D01*
X212098927Y-95886881D01*
X212064469Y-96060114D01*
X211996877Y-96223296D01*
X211898748Y-96370156D01*
X211773854Y-96495050D01*
X211626994Y-96593179D01*
X211463812Y-96660771D01*
X211290579Y-96695229D01*
X211113953Y-96695229D01*
X210940720Y-96660771D01*
X210777538Y-96593179D01*
X210630678Y-96495050D01*
X210505784Y-96370156D01*
X210407655Y-96223296D01*
X210340063Y-96060114D01*
X210305605Y-95886881D01*
X210305605Y-95710255D01*
X210340063Y-95537022D01*
X210407655Y-95373840D01*
X210505784Y-95226980D01*
X210630678Y-95102086D01*
X210777538Y-95003957D01*
X210940720Y-94936365D01*
X211113953Y-94901907D01*
X211290579Y-94901907D01*
X211463812Y-94936365D01*
G37*
G36*
X215482663Y-74430908D02*
G01*
X215499208Y-74441963D01*
X216702563Y-75645318D01*
X216713618Y-75661863D01*
X216717500Y-75681380D01*
X216713618Y-75700897D01*
X216702563Y-75717442D01*
X215499208Y-76920797D01*
X215482663Y-76931852D01*
X215463146Y-76935734D01*
X215443629Y-76931852D01*
X215427084Y-76920797D01*
X214223729Y-75717442D01*
X214212674Y-75700897D01*
X214208792Y-75681380D01*
X214212674Y-75661863D01*
X214223729Y-75645318D01*
X215427084Y-74441963D01*
X215443629Y-74430908D01*
X215463146Y-74427026D01*
X215482663Y-74430908D01*
G37*
G36*
X212132852Y-71226214D02*
G01*
X212296197Y-71293873D01*
X212443203Y-71392100D01*
X212568222Y-71517119D01*
X212666449Y-71664125D01*
X212734108Y-71827470D01*
X212768601Y-72000876D01*
X212768601Y-72177680D01*
X212734108Y-72351086D01*
X212666449Y-72514431D01*
X212568222Y-72661437D01*
X212443203Y-72786456D01*
X212296197Y-72884683D01*
X212132852Y-72952342D01*
X211959446Y-72986835D01*
X211782642Y-72986835D01*
X211609236Y-72952342D01*
X211445891Y-72884683D01*
X211298885Y-72786456D01*
X211173866Y-72661437D01*
X211075639Y-72514431D01*
X211007980Y-72351086D01*
X210973487Y-72177680D01*
X210973487Y-72000876D01*
X211007980Y-71827470D01*
X211075639Y-71664125D01*
X211173866Y-71517119D01*
X211298885Y-71392100D01*
X211445891Y-71293873D01*
X211609236Y-71226214D01*
X211782642Y-71191721D01*
X211959446Y-71191721D01*
X212132852Y-71226214D01*
G37*
G36*
X232245535Y-69068985D02*
G01*
X232408717Y-69136577D01*
X232555577Y-69234706D01*
X232680471Y-69359600D01*
X232778600Y-69506460D01*
X232846192Y-69669642D01*
X232880650Y-69842875D01*
X232880650Y-70019501D01*
X232846192Y-70192734D01*
X232778600Y-70355916D01*
X232680471Y-70502776D01*
X232555577Y-70627670D01*
X232408717Y-70725799D01*
X232245535Y-70793391D01*
X232072302Y-70827849D01*
X231895676Y-70827849D01*
X231722443Y-70793391D01*
X231559261Y-70725799D01*
X231412401Y-70627670D01*
X231287507Y-70502776D01*
X231189378Y-70355916D01*
X231121786Y-70192734D01*
X231087328Y-70019501D01*
X231087328Y-69842875D01*
X231121786Y-69669642D01*
X231189378Y-69506460D01*
X231287507Y-69359600D01*
X231412401Y-69234706D01*
X231559261Y-69136577D01*
X231722443Y-69068985D01*
X231895676Y-69034527D01*
X232072302Y-69034527D01*
X232245535Y-69068985D01*
G37*
G36*
X208540749Y-67634111D02*
G01*
X208704094Y-67701770D01*
X208851100Y-67799997D01*
X208976119Y-67925016D01*
X209074346Y-68072022D01*
X209142005Y-68235367D01*
X209176498Y-68408773D01*
X209176498Y-68585577D01*
X209142005Y-68758983D01*
X209074346Y-68922328D01*
X208976119Y-69069334D01*
X208851100Y-69194353D01*
X208704094Y-69292580D01*
X208540749Y-69360239D01*
X208367343Y-69394732D01*
X208190539Y-69394732D01*
X208017133Y-69360239D01*
X207853788Y-69292580D01*
X207706782Y-69194353D01*
X207581763Y-69069334D01*
X207483536Y-68922328D01*
X207415877Y-68758983D01*
X207381384Y-68585577D01*
X207381384Y-68408773D01*
X207415877Y-68235367D01*
X207483536Y-68072022D01*
X207581763Y-67925016D01*
X207706782Y-67799997D01*
X207853788Y-67701770D01*
X208017133Y-67634111D01*
X208190539Y-67599618D01*
X208367343Y-67599618D01*
X208540749Y-67634111D01*
G37*
G36*
X234041587Y-67272933D02*
G01*
X234204769Y-67340525D01*
X234351629Y-67438654D01*
X234476523Y-67563548D01*
X234574652Y-67710408D01*
X234642244Y-67873590D01*
X234676702Y-68046823D01*
X234676702Y-68223449D01*
X234642244Y-68396682D01*
X234574652Y-68559864D01*
X234476523Y-68706724D01*
X234351629Y-68831618D01*
X234204769Y-68929747D01*
X234041587Y-68997339D01*
X233868354Y-69031797D01*
X233691728Y-69031797D01*
X233518495Y-68997339D01*
X233355313Y-68929747D01*
X233208453Y-68831618D01*
X233083559Y-68706724D01*
X232985430Y-68559864D01*
X232917838Y-68396682D01*
X232883380Y-68223449D01*
X232883380Y-68046823D01*
X232917838Y-67873590D01*
X232985430Y-67710408D01*
X233083559Y-67563548D01*
X233208453Y-67438654D01*
X233355313Y-67340525D01*
X233518495Y-67272933D01*
X233691728Y-67238475D01*
X233868354Y-67238475D01*
X234041587Y-67272933D01*
G37*
G36*
X235837638Y-65476882D02*
G01*
X236000820Y-65544474D01*
X236147680Y-65642603D01*
X236272574Y-65767497D01*
X236370703Y-65914357D01*
X236438295Y-66077539D01*
X236472753Y-66250772D01*
X236472753Y-66427398D01*
X236438295Y-66600631D01*
X236370703Y-66763813D01*
X236272574Y-66910673D01*
X236147680Y-67035567D01*
X236000820Y-67133696D01*
X235837638Y-67201288D01*
X235664405Y-67235746D01*
X235487779Y-67235746D01*
X235314546Y-67201288D01*
X235151364Y-67133696D01*
X235004504Y-67035567D01*
X234879610Y-66910673D01*
X234781481Y-66763813D01*
X234713889Y-66600631D01*
X234679431Y-66427398D01*
X234679431Y-66250772D01*
X234713889Y-66077539D01*
X234781481Y-65914357D01*
X234879610Y-65767497D01*
X235004504Y-65642603D01*
X235151364Y-65544474D01*
X235314546Y-65476882D01*
X235487779Y-65442424D01*
X235664405Y-65442424D01*
X235837638Y-65476882D01*
G37*
G36*
X237391660Y-63293834D02*
G01*
X237408205Y-63304890D01*
X238610287Y-64506972D01*
X238621343Y-64523517D01*
X238625224Y-64543034D01*
X238621343Y-64562551D01*
X238610287Y-64579096D01*
X237408205Y-65781178D01*
X237391660Y-65792234D01*
X237372143Y-65796115D01*
X237352626Y-65792234D01*
X237336081Y-65781178D01*
X236133999Y-64579096D01*
X236122943Y-64562551D01*
X236119062Y-64543034D01*
X236122943Y-64523517D01*
X236133999Y-64506972D01*
X236735040Y-63905931D01*
X237327376Y-63313594D01*
X237327379Y-63313591D01*
X237336081Y-63304890D01*
X237352626Y-63293834D01*
X237372143Y-63289953D01*
X237391660Y-63293834D01*
G37*
G36*
X228210585Y-61702986D02*
G01*
X228227130Y-61714041D01*
X229430485Y-62917396D01*
X229441540Y-62933941D01*
X229445422Y-62953458D01*
X229441540Y-62972975D01*
X229430485Y-62989520D01*
X228227130Y-64192875D01*
X228210585Y-64203930D01*
X228191068Y-64207812D01*
X228171551Y-64203930D01*
X228155006Y-64192875D01*
X226951651Y-62989520D01*
X226940596Y-62972975D01*
X226936714Y-62953458D01*
X226940596Y-62933941D01*
X226951651Y-62917396D01*
X228155006Y-61714041D01*
X228171551Y-61702986D01*
X228191068Y-61699104D01*
X228210585Y-61702986D01*
G37*
G36*
X224860774Y-58498292D02*
G01*
X225024119Y-58565951D01*
X225171125Y-58664178D01*
X225296144Y-58789197D01*
X225394371Y-58936203D01*
X225462030Y-59099548D01*
X225496523Y-59272954D01*
X225496523Y-59449758D01*
X225462030Y-59623164D01*
X225394371Y-59786509D01*
X225296144Y-59933515D01*
X225171125Y-60058534D01*
X225024119Y-60156761D01*
X224860774Y-60224420D01*
X224687368Y-60258913D01*
X224510564Y-60258913D01*
X224337158Y-60224420D01*
X224173813Y-60156761D01*
X224026807Y-60058534D01*
X223901788Y-59933515D01*
X223803561Y-59786509D01*
X223735902Y-59623164D01*
X223701409Y-59449758D01*
X223701409Y-59272954D01*
X223735902Y-59099548D01*
X223803561Y-58936203D01*
X223901788Y-58789197D01*
X224026807Y-58664178D01*
X224173813Y-58565951D01*
X224337158Y-58498292D01*
X224510564Y-58463799D01*
X224687368Y-58463799D01*
X224860774Y-58498292D01*
G37*
G36*
X221268671Y-54906189D02*
G01*
X221432016Y-54973848D01*
X221579022Y-55072075D01*
X221704041Y-55197094D01*
X221802268Y-55344100D01*
X221869927Y-55507445D01*
X221904420Y-55680851D01*
X221904420Y-55857655D01*
X221869927Y-56031061D01*
X221802268Y-56194406D01*
X221704041Y-56341412D01*
X221579022Y-56466431D01*
X221432016Y-56564658D01*
X221268671Y-56632317D01*
X221095265Y-56666810D01*
X220918461Y-56666810D01*
X220745055Y-56632317D01*
X220581710Y-56564658D01*
X220434704Y-56466431D01*
X220309685Y-56341412D01*
X220211458Y-56194406D01*
X220143799Y-56031061D01*
X220109306Y-55857655D01*
X220109306Y-55680851D01*
X220143799Y-55507445D01*
X220211458Y-55344100D01*
X220309685Y-55197094D01*
X220434704Y-55072075D01*
X220581710Y-54973848D01*
X220745055Y-54906189D01*
X220918461Y-54871696D01*
X221095265Y-54871696D01*
X221268671Y-54906189D01*
G37*
M02*
