G04 #@! TF.GenerationSoftware,KiCad,Pcbnew,9.0.2*
G04 #@! TF.CreationDate,2026-05-03T18:11:30-04:00*
G04 #@! TF.ProjectId,Trackball,54726163-6b62-4616-9c6c-2e6b69636164,rev?*
G04 #@! TF.SameCoordinates,Original*
G04 #@! TF.FileFunction,Other,User*
%FSLAX46Y46*%
G04 Gerber Fmt 4.6, Leading zero omitted, Abs format (unit mm)*
G04 Created by KiCad (PCBNEW 9.0.2) date 2026-05-03 18:11:30*
%MOMM*%
%LPD*%
G01*
G04 APERTURE LIST*
%ADD10C,0.152400*%
%ADD11C,0.050000*%
G04 APERTURE END LIST*
D10*
X204938286Y-69610727D02*
X214349594Y-79022035D01*
X214349594Y-79022035D02*
X218803801Y-74567828D01*
X209392493Y-65156520D02*
X204938286Y-69610727D01*
X218803801Y-74567828D02*
X209392493Y-65156520D01*
X217666208Y-56882805D02*
X227077516Y-66294113D01*
X227077516Y-66294113D02*
X231531723Y-61839906D01*
X222120415Y-52428598D02*
X217666208Y-56882805D01*
X231531723Y-61839906D02*
X222120415Y-52428598D01*
D11*
X229452547Y-69917046D02*
X237372143Y-61997450D01*
X231962776Y-72427275D02*
X229452547Y-69917046D01*
X237372143Y-61997450D02*
X239882372Y-64507679D01*
X239882372Y-64507679D02*
X231962776Y-72427275D01*
X263936730Y-104401230D02*
X271856326Y-96481634D01*
X266446959Y-106911459D02*
X263936730Y-104401230D01*
X271856326Y-96481634D02*
X274366555Y-98991863D01*
X274366555Y-98991863D02*
X266446959Y-106911459D01*
X201782266Y-97598568D02*
X201782266Y-94048568D01*
X201782266Y-94048568D02*
X212982266Y-94048568D01*
X212982266Y-97598568D02*
X201782266Y-97598568D01*
X212982266Y-94048568D02*
X212982266Y-97598568D01*
X238857863Y-134624166D02*
X238857863Y-123424166D01*
X242407863Y-134624166D02*
X238857863Y-134624166D01*
X238857863Y-123424166D02*
X242407863Y-123424166D01*
X242407863Y-123424166D02*
X242407863Y-134624166D01*
X221334465Y-93359050D02*
G75*
G02*
X213834467Y-93359050I-3749999J0D01*
G01*
X213834467Y-93359050D02*
G75*
G02*
X221334465Y-93359050I3749999J0D01*
G01*
D10*
X257377325Y-122049766D02*
X266788633Y-131461074D01*
X266788633Y-131461074D02*
X271242840Y-127006867D01*
X261831532Y-117595559D02*
X257377325Y-122049766D01*
X271242840Y-127006867D02*
X261831532Y-117595559D01*
D11*
X215596851Y-123552509D02*
G75*
G02*
X210096851Y-123552509I-2750000J0D01*
G01*
X210096851Y-123552509D02*
G75*
G02*
X215596851Y-123552509I2750000J0D01*
G01*
D10*
X270105247Y-109321844D02*
X279516555Y-118733152D01*
X279516555Y-118733152D02*
X283970762Y-114278945D01*
X274559454Y-104867637D02*
X270105247Y-109321844D01*
X283970762Y-114278945D02*
X274559454Y-104867637D01*
D11*
X246790310Y-118814894D02*
G75*
G02*
X239290312Y-118814894I-3749999J0D01*
G01*
X239290312Y-118814894D02*
G75*
G02*
X246790310Y-118814894I3749999J0D01*
G01*
M02*
