M48
; DRILL file {KiCad 9.0.2} date 2025-08-20T20:27:41-0400
; FORMAT={-:-/ absolute / metric / decimal}
; #@! TF.CreationDate,2025-08-20T20:27:41-04:00
; #@! TF.GenerationSoftware,Kicad,Pcbnew,9.0.2
; #@! TF.FileFunction,Plated,1,2,PTH
FMAT,2
METRIC
; #@! TA.AperFunction,Plated,PTH,ViaDrill
T1C0.400
; #@! TA.AperFunction,Plated,PTH,ComponentDrill
T2C0.750
; #@! TA.AperFunction,Plated,PTH,ComponentDrill
T3C1.000
%
G90
G05
T1
X94.4Y-162.6
X102.4Y-164.899
X102.65Y-179.6
X103.9Y-162.6
X104.972Y-169.72
X106.145Y-179.113
X106.163Y-178.113
X106.9Y-168.6
X107.65Y-173.1
X109.65Y-178.6
X115.9Y-162.6
X115.9Y-166.35
X122.399Y-180.2
X125.9Y-162.6
X126.9Y-171.35
X126.9Y-174.6
X126.9Y-179.85
X134.65Y-162.6
T2
X111.532Y-167.8
X112.422Y-178.5
X113.312Y-167.8
X114.202Y-178.5
X115.092Y-167.8
X115.982Y-178.5
X116.872Y-167.8
X117.762Y-178.5
X118.652Y-167.8
X119.542Y-178.5
X120.432Y-167.8
X121.322Y-178.5
X122.212Y-167.8
X123.102Y-178.5
X123.992Y-167.8
X124.882Y-178.5
T3
X94.65Y-165.35
X97.19Y-165.35
X99.73Y-165.35
X129.57Y-165.35
X132.11Y-165.35
X134.65Y-165.35
M30
