G04 #@! TF.GenerationSoftware,KiCad,Pcbnew,9.0.2*
G04 #@! TF.CreationDate,2025-08-20T20:27:39-04:00*
G04 #@! TF.ProjectId,Trackball,54726163-6b62-4616-9c6c-2e6b69636164,rev?*
G04 #@! TF.SameCoordinates,Original*
G04 #@! TF.FileFunction,Copper,L2,Bot*
G04 #@! TF.FilePolarity,Positive*
%FSLAX46Y46*%
G04 Gerber Fmt 4.6, Leading zero omitted, Abs format (unit mm)*
G04 Created by KiCad (PCBNEW 9.0.2) date 2025-08-20 20:27:39*
%MOMM*%
%LPD*%
G01*
G04 APERTURE LIST*
G04 Aperture macros list*
%AMRoundRect*
0 Rectangle with rounded corners*
0 $1 Rounding radius*
0 $2 $3 $4 $5 $6 $7 $8 $9 X,Y pos of 4 corners*
0 Add a 4 corners polygon primitive as box body*
4,1,4,$2,$3,$4,$5,$6,$7,$8,$9,$2,$3,0*
0 Add four circle primitives for the rounded corners*
1,1,$1+$1,$2,$3*
1,1,$1+$1,$4,$5*
1,1,$1+$1,$6,$7*
1,1,$1+$1,$8,$9*
0 Add four rect primitives between the rounded corners*
20,1,$1+$1,$2,$3,$4,$5,0*
20,1,$1+$1,$4,$5,$6,$7,0*
20,1,$1+$1,$6,$7,$8,$9,0*
20,1,$1+$1,$8,$9,$2,$3,0*%
G04 Aperture macros list end*
G04 #@! TA.AperFunction,ComponentPad*
%ADD10RoundRect,0.187500X-0.437500X-0.437500X0.437500X-0.437500X0.437500X0.437500X-0.437500X0.437500X0*%
G04 #@! TD*
G04 #@! TA.AperFunction,ComponentPad*
%ADD11O,1.250000X1.250000*%
G04 #@! TD*
G04 #@! TA.AperFunction,ComponentPad*
%ADD12R,1.700000X1.700000*%
G04 #@! TD*
G04 #@! TA.AperFunction,ComponentPad*
%ADD13C,1.700000*%
G04 #@! TD*
G04 #@! TA.AperFunction,ViaPad*
%ADD14C,0.800000*%
G04 #@! TD*
G04 #@! TA.AperFunction,Conductor*
%ADD15C,0.500000*%
G04 #@! TD*
G04 #@! TA.AperFunction,Conductor*
%ADD16C,0.250000*%
G04 #@! TD*
G04 APERTURE END LIST*
D10*
X111532000Y-167800000D03*
D11*
X113312000Y-167800000D03*
X115092000Y-167800000D03*
X116872000Y-167800000D03*
X118652000Y-167800000D03*
X120432000Y-167800000D03*
X122212000Y-167800000D03*
X123992000Y-167800000D03*
X124882000Y-178500000D03*
X123102000Y-178500000D03*
X121322000Y-178500000D03*
X119542000Y-178500000D03*
X117762000Y-178500000D03*
X115982000Y-178500000D03*
X114202000Y-178500000D03*
X112422000Y-178500000D03*
D12*
X94650000Y-165350000D03*
D13*
X97190000Y-165350000D03*
X99730000Y-165350000D03*
D12*
X134650000Y-165350000D03*
D13*
X132110000Y-165350000D03*
X129570000Y-165350000D03*
D14*
X109650000Y-178600000D03*
X102400000Y-164899000D03*
X126900000Y-179850000D03*
X107650000Y-173100000D03*
X134650000Y-162600000D03*
X115900000Y-162600000D03*
X126900000Y-174600000D03*
X94400000Y-162600000D03*
X102650000Y-179600000D03*
X104972000Y-169720437D03*
X115900000Y-166350000D03*
X106900000Y-168600000D03*
X126900000Y-171350000D03*
X125900000Y-162600000D03*
X103900000Y-162600000D03*
X122399047Y-180200000D03*
X106145495Y-179112508D03*
X106162653Y-178112653D03*
D15*
X106900000Y-168600000D02*
X106092437Y-168600000D01*
X106092437Y-168600000D02*
X104972000Y-169720437D01*
X102400000Y-164899000D02*
X102400000Y-169600000D01*
D16*
X122399047Y-180200000D02*
X123182000Y-180200000D01*
X123182000Y-180200000D02*
X124882000Y-178500000D01*
X118140000Y-179902000D02*
X119542000Y-178500000D01*
X106158003Y-179100000D02*
X106158003Y-179358003D01*
X106702000Y-179902000D02*
X118140000Y-179902000D01*
X106158003Y-179358003D02*
X106702000Y-179902000D01*
X106145495Y-179112508D02*
X106158003Y-179100000D01*
X116811000Y-179451000D02*
X107501000Y-179451000D01*
X106446215Y-178386508D02*
X106436508Y-178386508D01*
X107501000Y-179451000D02*
X106871495Y-178821495D01*
X117762000Y-178500000D02*
X116811000Y-179451000D01*
X106436508Y-178386508D02*
X106162653Y-178112653D01*
X106871495Y-178811788D02*
X106446215Y-178386508D01*
X106871495Y-178821495D02*
X106871495Y-178811788D01*
X106359267Y-180353000D02*
X104150000Y-178143733D01*
X122273000Y-178877000D02*
X122273000Y-178893918D01*
X122273000Y-178893918D02*
X121715918Y-179451000D01*
X120797000Y-180353000D02*
X106359267Y-180353000D01*
X121699000Y-179451000D02*
X120797000Y-180353000D01*
X104150000Y-169350000D02*
X105700000Y-167800000D01*
X123102000Y-178500000D02*
X122650000Y-178500000D01*
X121715918Y-179451000D02*
X121699000Y-179451000D01*
X104150000Y-178143733D02*
X104150000Y-169350000D01*
X105700000Y-167800000D02*
X111532000Y-167800000D01*
X122650000Y-178500000D02*
X122273000Y-178877000D01*
X129570000Y-165350000D02*
X126442000Y-165350000D01*
X126442000Y-165350000D02*
X123992000Y-167800000D01*
X97190000Y-165350000D02*
X98366000Y-164174000D01*
X98366000Y-164174000D02*
X103774000Y-164174000D01*
X112350000Y-166700000D02*
X113312000Y-167662000D01*
X113312000Y-167662000D02*
X113312000Y-167800000D01*
X103774000Y-164174000D02*
X106300000Y-166700000D01*
X106300000Y-166700000D02*
X112350000Y-166700000D01*
X106437810Y-166200000D02*
X113492000Y-166200000D01*
X96277000Y-163723000D02*
X103960810Y-163723000D01*
X113492000Y-166200000D02*
X115092000Y-167800000D01*
X94650000Y-165350000D02*
X96277000Y-163723000D01*
X103960810Y-163723000D02*
X106437810Y-166200000D01*
X112422000Y-178500000D02*
X114202000Y-178500000D01*
X124550000Y-166550000D02*
X119902000Y-166550000D01*
X130934000Y-164174000D02*
X126926000Y-164174000D01*
X126926000Y-164174000D02*
X124550000Y-166550000D01*
X119902000Y-166550000D02*
X118652000Y-167800000D01*
X132110000Y-165350000D02*
X130934000Y-164174000D01*
G04 #@! TA.AperFunction,Conductor*
G36*
X135405394Y-161125971D02*
G01*
X135558410Y-161139359D01*
X135579695Y-161143111D01*
X135722826Y-161181463D01*
X135743123Y-161188851D01*
X135877430Y-161251479D01*
X135896133Y-161262278D01*
X136017514Y-161347271D01*
X136034071Y-161361164D01*
X136138835Y-161465928D01*
X136152728Y-161482485D01*
X136237721Y-161603866D01*
X136248522Y-161622573D01*
X136311146Y-161756870D01*
X136318536Y-161777175D01*
X136356887Y-161920303D01*
X136360640Y-161941590D01*
X136374017Y-162094490D01*
X136374489Y-162105512D01*
X136367438Y-166165934D01*
X136367438Y-166165975D01*
X136367399Y-166184598D01*
X136367393Y-166184608D01*
X136367393Y-166187734D01*
X136367379Y-166187778D01*
X136366921Y-166198285D01*
X136353534Y-166351305D01*
X136349781Y-166372591D01*
X136311432Y-166515716D01*
X136304039Y-166536027D01*
X136241424Y-166670307D01*
X136230617Y-166689027D01*
X136145625Y-166810407D01*
X136131731Y-166826964D01*
X136026964Y-166931731D01*
X136010407Y-166945625D01*
X135889027Y-167030617D01*
X135870307Y-167041424D01*
X135736027Y-167104039D01*
X135715716Y-167111432D01*
X135572591Y-167149781D01*
X135551305Y-167153534D01*
X135402703Y-167166534D01*
X135402692Y-167166535D01*
X135392893Y-167167393D01*
X135384608Y-167167393D01*
X135381008Y-167170008D01*
X135362700Y-167172940D01*
X135357295Y-167172250D01*
X135343095Y-167174500D01*
X127799204Y-167174500D01*
X127789454Y-167174494D01*
X127789453Y-167174494D01*
X127789435Y-167174501D01*
X127783146Y-167180789D01*
X127783122Y-167180814D01*
X127781150Y-167182787D01*
X127774507Y-167189423D01*
X127774506Y-167189431D01*
X127774500Y-167189438D01*
X127774500Y-167200726D01*
X127773655Y-168564859D01*
X127766719Y-179763575D01*
X127766717Y-179764170D01*
X127766613Y-179783203D01*
X127766589Y-179783238D01*
X127766596Y-179786481D01*
X127766593Y-179787044D01*
X127766550Y-179787187D01*
X127766146Y-179796919D01*
X127753061Y-179950195D01*
X127749344Y-179971519D01*
X127711209Y-180114908D01*
X127703842Y-180135260D01*
X127641352Y-180269839D01*
X127630557Y-180288601D01*
X127545616Y-180410263D01*
X127531724Y-180426861D01*
X127426919Y-180531902D01*
X127410351Y-180545832D01*
X127288879Y-180631046D01*
X127270144Y-180641881D01*
X127259895Y-180646669D01*
X127135709Y-180704672D01*
X127115374Y-180712084D01*
X126972061Y-180750544D01*
X126950744Y-180754309D01*
X126797747Y-180767714D01*
X126786972Y-180768187D01*
X126784406Y-180768187D01*
X126784358Y-180768188D01*
X126783823Y-180768188D01*
X126783822Y-180768188D01*
X126776969Y-180768189D01*
X123258798Y-180768783D01*
X123191755Y-180749110D01*
X123145991Y-180696313D01*
X123136036Y-180627157D01*
X123165050Y-180563596D01*
X123223822Y-180525812D01*
X123226597Y-180525032D01*
X123307639Y-180503318D01*
X123381862Y-180460465D01*
X124517564Y-179324761D01*
X124578885Y-179291278D01*
X124635047Y-179293539D01*
X124635237Y-179292588D01*
X124800692Y-179325500D01*
X124800695Y-179325500D01*
X124963307Y-179325500D01*
X125077770Y-179302731D01*
X125122789Y-179293776D01*
X125225726Y-179251138D01*
X125273019Y-179231549D01*
X125273023Y-179231547D01*
X125368990Y-179167424D01*
X125408225Y-179141208D01*
X125523208Y-179026225D01*
X125613548Y-178891021D01*
X125675776Y-178740789D01*
X125695461Y-178641830D01*
X125707500Y-178581307D01*
X125707500Y-178418692D01*
X125675777Y-178259216D01*
X125675776Y-178259215D01*
X125675776Y-178259211D01*
X125675774Y-178259206D01*
X125613549Y-178108980D01*
X125613547Y-178108976D01*
X125523211Y-177973779D01*
X125523205Y-177973771D01*
X125408228Y-177858794D01*
X125408220Y-177858788D01*
X125273024Y-177768453D01*
X125262420Y-177764061D01*
X125208017Y-177720219D01*
X125185953Y-177653925D01*
X125203233Y-177586226D01*
X125254370Y-177538616D01*
X125309874Y-177525500D01*
X125962562Y-177525500D01*
X125977500Y-177510562D01*
X125977500Y-168789438D01*
X125962562Y-168774500D01*
X124419874Y-168774500D01*
X124352835Y-168754815D01*
X124307080Y-168702011D01*
X124297136Y-168632853D01*
X124326161Y-168569297D01*
X124372420Y-168535939D01*
X124383021Y-168531548D01*
X124518225Y-168441208D01*
X124633208Y-168326225D01*
X124695084Y-168233621D01*
X124723547Y-168191023D01*
X124723549Y-168191019D01*
X124785774Y-168040793D01*
X124785776Y-168040789D01*
X124817500Y-167881305D01*
X124817500Y-167718695D01*
X124817500Y-167718692D01*
X124784588Y-167553237D01*
X124785732Y-167553009D01*
X124785155Y-167489390D01*
X124816761Y-167435564D01*
X126540508Y-165711819D01*
X126601831Y-165678334D01*
X126628189Y-165675500D01*
X128484919Y-165675500D01*
X128551958Y-165695185D01*
X128597713Y-165747989D01*
X128599480Y-165752047D01*
X128639057Y-165847596D01*
X128754024Y-166019657D01*
X128900342Y-166165975D01*
X128900345Y-166165977D01*
X129072402Y-166280941D01*
X129263580Y-166360130D01*
X129408052Y-166388867D01*
X129466530Y-166400499D01*
X129466534Y-166400500D01*
X129466535Y-166400500D01*
X129673466Y-166400500D01*
X129673467Y-166400499D01*
X129876420Y-166360130D01*
X130067598Y-166280941D01*
X130239655Y-166165977D01*
X130385977Y-166019655D01*
X130500941Y-165847598D01*
X130580130Y-165656420D01*
X130620500Y-165453465D01*
X130620500Y-165246535D01*
X130580130Y-165043580D01*
X130500941Y-164852402D01*
X130500940Y-164852400D01*
X130500940Y-164852399D01*
X130394026Y-164692390D01*
X130373148Y-164625713D01*
X130391633Y-164558333D01*
X130443612Y-164511643D01*
X130497128Y-164499500D01*
X130747811Y-164499500D01*
X130814850Y-164519185D01*
X130835492Y-164535819D01*
X131112568Y-164812895D01*
X131146053Y-164874218D01*
X131141069Y-164943910D01*
X131139448Y-164948028D01*
X131099871Y-165043575D01*
X131099868Y-165043587D01*
X131059500Y-165246530D01*
X131059500Y-165453469D01*
X131099868Y-165656412D01*
X131099870Y-165656420D01*
X131165939Y-165815925D01*
X131179059Y-165847598D01*
X131197034Y-165874500D01*
X131294024Y-166019657D01*
X131440342Y-166165975D01*
X131440345Y-166165977D01*
X131612402Y-166280941D01*
X131803580Y-166360130D01*
X131948052Y-166388867D01*
X132006530Y-166400499D01*
X132006534Y-166400500D01*
X132006535Y-166400500D01*
X132213466Y-166400500D01*
X132213467Y-166400499D01*
X132416420Y-166360130D01*
X132607598Y-166280941D01*
X132779655Y-166165977D01*
X132925977Y-166019655D01*
X133040941Y-165847598D01*
X133061439Y-165798112D01*
X133105279Y-165743708D01*
X133171573Y-165721643D01*
X133239273Y-165738922D01*
X133286884Y-165790059D01*
X133300000Y-165845564D01*
X133300000Y-166247844D01*
X133306401Y-166307372D01*
X133306403Y-166307379D01*
X133356645Y-166442086D01*
X133356649Y-166442093D01*
X133442809Y-166557187D01*
X133442812Y-166557190D01*
X133557906Y-166643350D01*
X133557913Y-166643354D01*
X133692620Y-166693596D01*
X133692627Y-166693598D01*
X133752155Y-166699999D01*
X133752172Y-166700000D01*
X134400000Y-166700000D01*
X134400000Y-165783012D01*
X134457007Y-165815925D01*
X134584174Y-165850000D01*
X134715826Y-165850000D01*
X134842993Y-165815925D01*
X134900000Y-165783012D01*
X134900000Y-166700000D01*
X135547828Y-166700000D01*
X135547844Y-166699999D01*
X135607372Y-166693598D01*
X135607379Y-166693596D01*
X135742086Y-166643354D01*
X135742093Y-166643350D01*
X135857187Y-166557190D01*
X135857190Y-166557187D01*
X135943350Y-166442093D01*
X135943354Y-166442086D01*
X135993596Y-166307379D01*
X135993598Y-166307372D01*
X135999999Y-166247844D01*
X136000000Y-166247827D01*
X136000000Y-165600000D01*
X135083012Y-165600000D01*
X135115925Y-165542993D01*
X135150000Y-165415826D01*
X135150000Y-165284174D01*
X135115925Y-165157007D01*
X135083012Y-165100000D01*
X136000000Y-165100000D01*
X136000000Y-164452172D01*
X135999999Y-164452155D01*
X135993598Y-164392627D01*
X135993596Y-164392620D01*
X135943354Y-164257913D01*
X135943350Y-164257906D01*
X135857190Y-164142812D01*
X135857187Y-164142809D01*
X135742093Y-164056649D01*
X135742086Y-164056645D01*
X135607379Y-164006403D01*
X135607372Y-164006401D01*
X135547844Y-164000000D01*
X134900000Y-164000000D01*
X134900000Y-164916988D01*
X134842993Y-164884075D01*
X134715826Y-164850000D01*
X134584174Y-164850000D01*
X134457007Y-164884075D01*
X134400000Y-164916988D01*
X134400000Y-164000000D01*
X133752155Y-164000000D01*
X133692627Y-164006401D01*
X133692620Y-164006403D01*
X133557913Y-164056645D01*
X133557906Y-164056649D01*
X133442812Y-164142809D01*
X133442809Y-164142812D01*
X133356649Y-164257906D01*
X133356645Y-164257913D01*
X133306403Y-164392620D01*
X133306401Y-164392627D01*
X133300000Y-164452155D01*
X133300000Y-164854435D01*
X133280315Y-164921474D01*
X133227511Y-164967229D01*
X133158353Y-164977173D01*
X133094797Y-164948148D01*
X133061439Y-164901888D01*
X133051776Y-164878560D01*
X133040941Y-164852402D01*
X132925977Y-164680345D01*
X132925975Y-164680342D01*
X132779657Y-164534024D01*
X132611655Y-164421770D01*
X132607598Y-164419059D01*
X132588516Y-164411155D01*
X132416420Y-164339870D01*
X132416412Y-164339868D01*
X132213469Y-164299500D01*
X132213465Y-164299500D01*
X132006535Y-164299500D01*
X132006530Y-164299500D01*
X131803587Y-164339868D01*
X131803575Y-164339871D01*
X131708028Y-164379448D01*
X131638559Y-164386917D01*
X131576080Y-164355641D01*
X131572895Y-164352568D01*
X131133864Y-163913537D01*
X131133862Y-163913535D01*
X131080770Y-163882882D01*
X131059640Y-163870682D01*
X131018246Y-163859591D01*
X130976853Y-163848500D01*
X126883147Y-163848500D01*
X126800362Y-163870682D01*
X126800359Y-163870683D01*
X126779231Y-163882882D01*
X126752684Y-163898208D01*
X126726139Y-163913534D01*
X126726136Y-163913536D01*
X124451492Y-166188181D01*
X124390169Y-166221666D01*
X124363811Y-166224500D01*
X119859147Y-166224500D01*
X119776359Y-166246682D01*
X119702138Y-166289535D01*
X119702135Y-166289537D01*
X119016436Y-166975235D01*
X118955113Y-167008720D01*
X118898951Y-167006465D01*
X118898763Y-167007412D01*
X118733307Y-166974500D01*
X118733305Y-166974500D01*
X118570695Y-166974500D01*
X118570693Y-166974500D01*
X118411216Y-167006222D01*
X118411206Y-167006225D01*
X118260980Y-167068450D01*
X118260976Y-167068452D01*
X118125779Y-167158788D01*
X118125771Y-167158794D01*
X118010794Y-167273771D01*
X118010788Y-167273779D01*
X117920452Y-167408976D01*
X117876561Y-167514941D01*
X117832720Y-167569344D01*
X117766426Y-167591409D01*
X117698727Y-167574130D01*
X117651116Y-167522993D01*
X117647439Y-167514941D01*
X117603547Y-167408976D01*
X117513211Y-167273779D01*
X117513205Y-167273771D01*
X117398228Y-167158794D01*
X117398220Y-167158788D01*
X117263023Y-167068452D01*
X117263019Y-167068450D01*
X117112793Y-167006225D01*
X117112783Y-167006222D01*
X116953307Y-166974500D01*
X116953305Y-166974500D01*
X116790695Y-166974500D01*
X116790693Y-166974500D01*
X116631216Y-167006222D01*
X116631206Y-167006225D01*
X116480980Y-167068450D01*
X116480976Y-167068452D01*
X116345779Y-167158788D01*
X116345771Y-167158794D01*
X116230794Y-167273771D01*
X116230788Y-167273779D01*
X116140452Y-167408976D01*
X116096561Y-167514941D01*
X116052720Y-167569344D01*
X115986426Y-167591409D01*
X115918727Y-167574130D01*
X115871116Y-167522993D01*
X115867439Y-167514941D01*
X115823547Y-167408976D01*
X115733211Y-167273779D01*
X115733205Y-167273771D01*
X115618228Y-167158794D01*
X115618220Y-167158788D01*
X115483023Y-167068452D01*
X115483019Y-167068450D01*
X115332793Y-167006225D01*
X115332783Y-167006222D01*
X115173307Y-166974500D01*
X115173305Y-166974500D01*
X115010695Y-166974500D01*
X115010693Y-166974500D01*
X114845237Y-167007412D01*
X114845011Y-167006276D01*
X114781346Y-167006831D01*
X114727561Y-166975235D01*
X114211652Y-166459326D01*
X113691862Y-165939535D01*
X113654750Y-165918108D01*
X113617640Y-165896682D01*
X113576246Y-165885591D01*
X113534853Y-165874500D01*
X113534852Y-165874500D01*
X106623999Y-165874500D01*
X106556960Y-165854815D01*
X106536318Y-165838181D01*
X104197129Y-163498992D01*
X107374500Y-163498992D01*
X107374500Y-163701007D01*
X107413907Y-163899119D01*
X107413909Y-163899127D01*
X107491212Y-164085752D01*
X107491217Y-164085762D01*
X107603441Y-164253718D01*
X107746281Y-164396558D01*
X107914237Y-164508782D01*
X107914241Y-164508784D01*
X107914244Y-164508786D01*
X108100873Y-164586091D01*
X108298992Y-164625499D01*
X108298996Y-164625500D01*
X108298997Y-164625500D01*
X108501004Y-164625500D01*
X108501005Y-164625499D01*
X108699127Y-164586091D01*
X108885756Y-164508786D01*
X109053718Y-164396558D01*
X109196558Y-164253718D01*
X109308786Y-164085756D01*
X109386091Y-163899127D01*
X109425500Y-163701003D01*
X109425500Y-163498997D01*
X109425499Y-163498992D01*
X123124500Y-163498992D01*
X123124500Y-163701007D01*
X123163907Y-163899119D01*
X123163909Y-163899127D01*
X123241212Y-164085752D01*
X123241217Y-164085762D01*
X123353441Y-164253718D01*
X123496281Y-164396558D01*
X123664237Y-164508782D01*
X123664241Y-164508784D01*
X123664244Y-164508786D01*
X123850873Y-164586091D01*
X124048992Y-164625499D01*
X124048996Y-164625500D01*
X124048997Y-164625500D01*
X124251004Y-164625500D01*
X124251005Y-164625499D01*
X124449127Y-164586091D01*
X124635756Y-164508786D01*
X124803718Y-164396558D01*
X124946558Y-164253718D01*
X125058786Y-164085756D01*
X125136091Y-163899127D01*
X125175500Y-163701003D01*
X125175500Y-163498997D01*
X125136091Y-163300873D01*
X125058786Y-163114244D01*
X125058784Y-163114241D01*
X125058782Y-163114237D01*
X124946558Y-162946281D01*
X124803718Y-162803441D01*
X124635762Y-162691217D01*
X124635752Y-162691212D01*
X124449127Y-162613909D01*
X124449119Y-162613907D01*
X124251007Y-162574500D01*
X124251003Y-162574500D01*
X124048997Y-162574500D01*
X124048992Y-162574500D01*
X123850880Y-162613907D01*
X123850872Y-162613909D01*
X123664247Y-162691212D01*
X123664237Y-162691217D01*
X123496281Y-162803441D01*
X123353441Y-162946281D01*
X123241217Y-163114237D01*
X123241212Y-163114247D01*
X123163909Y-163300872D01*
X123163907Y-163300880D01*
X123124500Y-163498992D01*
X109425499Y-163498992D01*
X109386091Y-163300873D01*
X109308786Y-163114244D01*
X109308784Y-163114241D01*
X109308782Y-163114237D01*
X109196558Y-162946281D01*
X109053718Y-162803441D01*
X108885762Y-162691217D01*
X108885752Y-162691212D01*
X108699127Y-162613909D01*
X108699119Y-162613907D01*
X108501007Y-162574500D01*
X108501003Y-162574500D01*
X108298997Y-162574500D01*
X108298992Y-162574500D01*
X108100880Y-162613907D01*
X108100872Y-162613909D01*
X107914247Y-162691212D01*
X107914237Y-162691217D01*
X107746281Y-162803441D01*
X107603441Y-162946281D01*
X107491217Y-163114237D01*
X107491212Y-163114247D01*
X107413909Y-163300872D01*
X107413907Y-163300880D01*
X107374500Y-163498992D01*
X104197129Y-163498992D01*
X104160674Y-163462537D01*
X104160672Y-163462535D01*
X104123560Y-163441108D01*
X104086450Y-163419682D01*
X104045056Y-163408591D01*
X104003663Y-163397500D01*
X96234147Y-163397500D01*
X96151362Y-163419682D01*
X96151355Y-163419685D01*
X96077144Y-163462530D01*
X96077136Y-163462536D01*
X95276492Y-164263181D01*
X95215169Y-164296666D01*
X95188811Y-164299500D01*
X93780247Y-164299500D01*
X93721770Y-164311131D01*
X93721769Y-164311132D01*
X93655447Y-164355447D01*
X93611132Y-164421769D01*
X93611131Y-164421770D01*
X93599500Y-164480247D01*
X93599500Y-166219752D01*
X93611131Y-166278229D01*
X93611132Y-166278230D01*
X93655447Y-166344552D01*
X93721769Y-166388867D01*
X93721770Y-166388868D01*
X93780247Y-166400499D01*
X93780250Y-166400500D01*
X93780252Y-166400500D01*
X95519750Y-166400500D01*
X95519751Y-166400499D01*
X95534568Y-166397552D01*
X95578229Y-166388868D01*
X95578229Y-166388867D01*
X95578231Y-166388867D01*
X95644552Y-166344552D01*
X95688867Y-166278231D01*
X95688867Y-166278229D01*
X95688868Y-166278229D01*
X95700499Y-166219752D01*
X95700500Y-166219750D01*
X95700500Y-164811189D01*
X95720185Y-164744150D01*
X95736819Y-164723508D01*
X96375508Y-164084819D01*
X96436831Y-164051334D01*
X96463189Y-164048500D01*
X97731810Y-164048500D01*
X97798849Y-164068185D01*
X97844604Y-164120989D01*
X97854548Y-164190147D01*
X97825523Y-164253703D01*
X97819498Y-164260173D01*
X97768541Y-164311131D01*
X97727103Y-164352569D01*
X97665779Y-164386053D01*
X97596088Y-164381069D01*
X97591981Y-164379452D01*
X97496420Y-164339870D01*
X97496412Y-164339868D01*
X97293469Y-164299500D01*
X97293465Y-164299500D01*
X97086535Y-164299500D01*
X97086530Y-164299500D01*
X96883587Y-164339868D01*
X96883579Y-164339870D01*
X96692403Y-164419058D01*
X96520342Y-164534024D01*
X96374024Y-164680342D01*
X96259058Y-164852403D01*
X96179870Y-165043579D01*
X96179868Y-165043587D01*
X96139500Y-165246530D01*
X96139500Y-165453469D01*
X96179868Y-165656412D01*
X96179870Y-165656420D01*
X96245939Y-165815925D01*
X96259059Y-165847598D01*
X96277034Y-165874500D01*
X96374024Y-166019657D01*
X96520342Y-166165975D01*
X96520345Y-166165977D01*
X96692402Y-166280941D01*
X96883580Y-166360130D01*
X97028052Y-166388867D01*
X97086530Y-166400499D01*
X97086534Y-166400500D01*
X97086535Y-166400500D01*
X97293466Y-166400500D01*
X97293467Y-166400499D01*
X97496420Y-166360130D01*
X97687598Y-166280941D01*
X97859655Y-166165977D01*
X98005977Y-166019655D01*
X98120941Y-165847598D01*
X98200130Y-165656420D01*
X98240500Y-165453465D01*
X98240500Y-165246535D01*
X98200130Y-165043580D01*
X98160550Y-164948028D01*
X98153082Y-164878560D01*
X98184357Y-164816080D01*
X98187431Y-164812895D01*
X98319982Y-164680345D01*
X98464508Y-164535819D01*
X98525831Y-164502334D01*
X98552189Y-164499500D01*
X98802872Y-164499500D01*
X98869911Y-164519185D01*
X98915666Y-164571989D01*
X98925610Y-164641147D01*
X98905974Y-164692390D01*
X98799059Y-164852399D01*
X98799059Y-164852400D01*
X98719870Y-165043579D01*
X98719868Y-165043587D01*
X98679500Y-165246530D01*
X98679500Y-165453469D01*
X98719868Y-165656412D01*
X98719870Y-165656420D01*
X98785939Y-165815925D01*
X98799059Y-165847598D01*
X98817034Y-165874500D01*
X98914024Y-166019657D01*
X99060342Y-166165975D01*
X99060345Y-166165977D01*
X99232402Y-166280941D01*
X99423580Y-166360130D01*
X99568052Y-166388867D01*
X99626530Y-166400499D01*
X99626534Y-166400500D01*
X99626535Y-166400500D01*
X99833466Y-166400500D01*
X99833467Y-166400499D01*
X100036420Y-166360130D01*
X100227598Y-166280941D01*
X100399655Y-166165977D01*
X100545977Y-166019655D01*
X100660941Y-165847598D01*
X100740130Y-165656420D01*
X100780500Y-165453465D01*
X100780500Y-165246535D01*
X100740130Y-165043580D01*
X100660941Y-164852402D01*
X100660940Y-164852400D01*
X100660940Y-164852399D01*
X100554026Y-164692390D01*
X100533148Y-164625713D01*
X100551633Y-164558333D01*
X100603612Y-164511643D01*
X100657128Y-164499500D01*
X103587811Y-164499500D01*
X103654850Y-164519185D01*
X103675492Y-164535819D01*
X106039534Y-166899861D01*
X106039535Y-166899862D01*
X106100138Y-166960465D01*
X106100140Y-166960466D01*
X106100144Y-166960469D01*
X106163883Y-166997268D01*
X106174362Y-167003318D01*
X106257147Y-167025500D01*
X110628399Y-167025500D01*
X110695438Y-167045185D01*
X110741193Y-167097989D01*
X110751137Y-167167147D01*
X110749287Y-167177105D01*
X110745864Y-167192094D01*
X110720891Y-167241107D01*
X110706500Y-167331967D01*
X110706500Y-167364476D01*
X110703388Y-167378105D01*
X110692878Y-167396888D01*
X110686815Y-167417539D01*
X110676158Y-167426772D01*
X110669273Y-167439080D01*
X110650275Y-167449200D01*
X110634011Y-167463294D01*
X110616787Y-167467040D01*
X110607608Y-167471931D01*
X110597945Y-167471139D01*
X110582500Y-167474500D01*
X105657147Y-167474500D01*
X105574359Y-167496682D01*
X105500138Y-167539535D01*
X105500135Y-167539537D01*
X103889537Y-169150135D01*
X103889533Y-169150141D01*
X103846681Y-169224361D01*
X103846682Y-169224362D01*
X103824500Y-169307147D01*
X103824500Y-178186585D01*
X103846682Y-178269373D01*
X103846897Y-178269745D01*
X103889535Y-178343595D01*
X103889537Y-178343597D01*
X106105960Y-180560020D01*
X106139445Y-180621343D01*
X106134461Y-180691035D01*
X106092589Y-180746968D01*
X106027125Y-180771385D01*
X106018300Y-180771701D01*
X102505412Y-180772296D01*
X102494598Y-180771825D01*
X102341809Y-180758476D01*
X102320552Y-180754733D01*
X102177610Y-180716487D01*
X102157325Y-180709116D01*
X102115585Y-180689684D01*
X102023183Y-180646665D01*
X102004488Y-180635889D01*
X101972405Y-180613465D01*
X101883217Y-180551127D01*
X101866669Y-180537270D01*
X101761924Y-180432755D01*
X101748030Y-180416237D01*
X101729171Y-180389380D01*
X101662999Y-180295147D01*
X101652184Y-180276479D01*
X101589438Y-180142475D01*
X101582021Y-180122205D01*
X101543463Y-179979351D01*
X101539674Y-179958104D01*
X101539397Y-179955011D01*
X101525997Y-179805457D01*
X101525504Y-179794436D01*
X101525500Y-167089438D01*
X101510562Y-167074500D01*
X93862519Y-167074500D01*
X93851712Y-167074028D01*
X93698694Y-167060641D01*
X93677409Y-167056888D01*
X93534283Y-167018539D01*
X93513971Y-167011146D01*
X93508768Y-167008720D01*
X93436279Y-166974918D01*
X93379687Y-166948529D01*
X93360968Y-166937722D01*
X93239591Y-166852734D01*
X93223033Y-166838840D01*
X93118262Y-166734069D01*
X93104375Y-166717520D01*
X93019379Y-166596135D01*
X93008575Y-166577421D01*
X92984511Y-166525816D01*
X92945952Y-166443127D01*
X92938562Y-166422822D01*
X92900212Y-166279696D01*
X92896459Y-166258410D01*
X92890449Y-166189720D01*
X92883079Y-166105474D01*
X92882607Y-166094667D01*
X92882607Y-162105412D01*
X92883079Y-162094605D01*
X92890456Y-162010281D01*
X92896466Y-161941587D01*
X92900219Y-161920304D01*
X92923460Y-161833567D01*
X92938571Y-161777172D01*
X92945957Y-161756878D01*
X93008580Y-161622582D01*
X93019386Y-161603867D01*
X93019387Y-161603866D01*
X93104379Y-161482485D01*
X93118262Y-161465940D01*
X93223047Y-161361156D01*
X93239587Y-161347277D01*
X93360984Y-161262274D01*
X93379673Y-161251484D01*
X93513990Y-161188852D01*
X93534277Y-161181469D01*
X93677417Y-161143116D01*
X93698687Y-161139366D01*
X93782855Y-161132002D01*
X93851797Y-161125972D01*
X93862603Y-161125500D01*
X93865392Y-161125500D01*
X135391715Y-161125500D01*
X135394588Y-161125500D01*
X135405394Y-161125971D01*
G37*
G04 #@! TD.AperFunction*
G04 #@! TA.AperFunction,Conductor*
G36*
X120947000Y-178549370D02*
G01*
X120972556Y-178644745D01*
X121021925Y-178730255D01*
X121091745Y-178800075D01*
X121177255Y-178849444D01*
X121272630Y-178875000D01*
X121300554Y-178875000D01*
X120721364Y-179454189D01*
X120732368Y-179462185D01*
X120890146Y-179542577D01*
X120891620Y-179543056D01*
X120892109Y-179543390D01*
X120894650Y-179544443D01*
X120894429Y-179544976D01*
X120949301Y-179582486D01*
X120976507Y-179646841D01*
X120964601Y-179715689D01*
X120940999Y-179748673D01*
X120879111Y-179810562D01*
X120698490Y-179991182D01*
X120637170Y-180024666D01*
X120610811Y-180027500D01*
X118774189Y-180027500D01*
X118707150Y-180007815D01*
X118661395Y-179955011D01*
X118651451Y-179885853D01*
X118680476Y-179822297D01*
X118686508Y-179815819D01*
X119048137Y-179454189D01*
X119177564Y-179324761D01*
X119238885Y-179291278D01*
X119295047Y-179293539D01*
X119295237Y-179292588D01*
X119460692Y-179325500D01*
X119460695Y-179325500D01*
X119623307Y-179325500D01*
X119737770Y-179302731D01*
X119782789Y-179293776D01*
X119885726Y-179251138D01*
X119933019Y-179231549D01*
X119933023Y-179231547D01*
X120028990Y-179167424D01*
X120068225Y-179141208D01*
X120158118Y-179051314D01*
X120219439Y-179017831D01*
X120289131Y-179022815D01*
X120345065Y-179064686D01*
X120356282Y-179082701D01*
X120359807Y-179089620D01*
X120359816Y-179089635D01*
X120367809Y-179100634D01*
X120367811Y-179100635D01*
X120947000Y-178521446D01*
X120947000Y-178549370D01*
G37*
G04 #@! TD.AperFunction*
G04 #@! TA.AperFunction,Conductor*
G36*
X110649540Y-168145185D02*
G01*
X110695295Y-168197989D01*
X110706501Y-168249500D01*
X110706501Y-168268037D01*
X110720889Y-168358888D01*
X110720889Y-168358889D01*
X110720890Y-168358892D01*
X110720891Y-168358893D01*
X110762832Y-168441208D01*
X110776690Y-168468404D01*
X110776693Y-168468408D01*
X110870497Y-168562212D01*
X110867849Y-168564859D01*
X110899189Y-168605477D01*
X110905190Y-168675088D01*
X110872603Y-168736893D01*
X110811774Y-168771269D01*
X110783652Y-168774500D01*
X108741437Y-168774500D01*
X108726500Y-168789437D01*
X108726500Y-177510562D01*
X108741438Y-177525500D01*
X111994126Y-177525500D01*
X112061165Y-177545185D01*
X112106920Y-177597989D01*
X112116864Y-177667147D01*
X112087839Y-177730703D01*
X112041580Y-177764061D01*
X112030975Y-177768453D01*
X111895779Y-177858788D01*
X111895771Y-177858794D01*
X111780794Y-177973771D01*
X111780788Y-177973779D01*
X111690452Y-178108976D01*
X111690450Y-178108980D01*
X111628225Y-178259206D01*
X111628222Y-178259216D01*
X111596500Y-178418692D01*
X111596500Y-178418695D01*
X111596500Y-178581305D01*
X111596500Y-178581307D01*
X111596499Y-178581307D01*
X111628222Y-178740783D01*
X111628225Y-178740793D01*
X111690450Y-178891019D01*
X111690452Y-178891022D01*
X111718240Y-178932610D01*
X111739118Y-178999287D01*
X111720633Y-179066667D01*
X111668654Y-179113357D01*
X111615138Y-179125500D01*
X107687188Y-179125500D01*
X107620149Y-179105815D01*
X107599507Y-179089181D01*
X107156763Y-178646437D01*
X107152385Y-178641830D01*
X107143609Y-178632105D01*
X107131960Y-178611926D01*
X107071357Y-178551323D01*
X107071354Y-178551321D01*
X106799472Y-178279439D01*
X106765987Y-178218116D01*
X106763153Y-178191758D01*
X106763153Y-178033598D01*
X106763153Y-178033596D01*
X106722230Y-177880869D01*
X106709482Y-177858788D01*
X106643177Y-177743943D01*
X106643171Y-177743935D01*
X106531370Y-177632134D01*
X106531362Y-177632128D01*
X106394443Y-177553079D01*
X106394439Y-177553077D01*
X106394437Y-177553076D01*
X106241710Y-177512153D01*
X106083596Y-177512153D01*
X105930869Y-177553076D01*
X105930862Y-177553079D01*
X105793943Y-177632128D01*
X105793935Y-177632134D01*
X105682134Y-177743935D01*
X105682128Y-177743943D01*
X105603079Y-177880862D01*
X105603076Y-177880869D01*
X105562153Y-178033596D01*
X105562153Y-178191710D01*
X105602851Y-178343595D01*
X105603076Y-178344436D01*
X105603079Y-178344443D01*
X105682128Y-178481362D01*
X105682134Y-178481370D01*
X105717084Y-178516320D01*
X105750569Y-178577643D01*
X105745585Y-178647335D01*
X105717085Y-178691681D01*
X105664976Y-178743790D01*
X105664970Y-178743798D01*
X105581854Y-178887762D01*
X105580027Y-178886707D01*
X105543196Y-178932400D01*
X105476898Y-178954456D01*
X105409202Y-178937167D01*
X105384809Y-178918215D01*
X104511819Y-178045225D01*
X104478334Y-177983902D01*
X104475500Y-177957544D01*
X104475500Y-169536189D01*
X104495185Y-169469150D01*
X104511819Y-169448508D01*
X105798508Y-168161819D01*
X105859831Y-168128334D01*
X105886189Y-168125500D01*
X110582501Y-168125500D01*
X110649540Y-168145185D01*
G37*
G04 #@! TD.AperFunction*
G04 #@! TA.AperFunction,Conductor*
G36*
X120716730Y-177545185D02*
G01*
X120737372Y-177561819D01*
X121300554Y-178125000D01*
X121272630Y-178125000D01*
X121177255Y-178150556D01*
X121091745Y-178199925D01*
X121021925Y-178269745D01*
X120972556Y-178355255D01*
X120947000Y-178450630D01*
X120947000Y-178478553D01*
X120367810Y-177899363D01*
X120367809Y-177899364D01*
X120359812Y-177910370D01*
X120356278Y-177917306D01*
X120308300Y-177968098D01*
X120240477Y-177984888D01*
X120174344Y-177962345D01*
X120158117Y-177948683D01*
X120068228Y-177858794D01*
X120068220Y-177858788D01*
X119933024Y-177768453D01*
X119922420Y-177764061D01*
X119868017Y-177720219D01*
X119845953Y-177653925D01*
X119863233Y-177586226D01*
X119914370Y-177538616D01*
X119969874Y-177525500D01*
X120649691Y-177525500D01*
X120716730Y-177545185D01*
G37*
G04 #@! TD.AperFunction*
G04 #@! TA.AperFunction,Conductor*
G36*
X122741165Y-177545185D02*
G01*
X122786920Y-177597989D01*
X122796864Y-177667147D01*
X122767839Y-177730703D01*
X122721580Y-177764061D01*
X122710975Y-177768453D01*
X122575779Y-177858788D01*
X122575776Y-177858790D01*
X122485881Y-177948685D01*
X122424557Y-177982169D01*
X122354866Y-177977185D01*
X122298932Y-177935313D01*
X122287712Y-177917291D01*
X122284185Y-177910369D01*
X122276189Y-177899364D01*
X121697000Y-178478553D01*
X121697000Y-178450630D01*
X121671444Y-178355255D01*
X121622075Y-178269745D01*
X121552255Y-178199925D01*
X121466745Y-178150556D01*
X121371370Y-178125000D01*
X121343447Y-178125000D01*
X121906627Y-177561819D01*
X121967950Y-177528334D01*
X121994308Y-177525500D01*
X122674126Y-177525500D01*
X122741165Y-177545185D01*
G37*
G04 #@! TD.AperFunction*
M02*
