G04 #@! TF.GenerationSoftware,KiCad,Pcbnew,9.0.2*
G04 #@! TF.CreationDate,2025-08-20T20:27:39-04:00*
G04 #@! TF.ProjectId,Trackball,54726163-6b62-4616-9c6c-2e6b69636164,rev?*
G04 #@! TF.SameCoordinates,Original*
G04 #@! TF.FileFunction,Profile,NP*
%FSLAX46Y46*%
G04 Gerber Fmt 4.6, Leading zero omitted, Abs format (unit mm)*
G04 Created by KiCad (PCBNEW 9.0.2) date 2025-08-20 20:27:39*
%MOMM*%
%LPD*%
G01*
G04 APERTURE LIST*
G04 #@! TA.AperFunction,Profile*
%ADD10C,0.050000*%
G04 #@! TD*
G04 #@! TA.AperFunction,Profile*
%ADD11C,0.100000*%
G04 #@! TD*
G04 APERTURE END LIST*
D10*
X93857107Y-161100000D02*
X135400000Y-161100000D01*
X127800000Y-167200000D02*
X127792203Y-179791466D01*
X101500000Y-167100000D02*
X101500006Y-179800000D01*
X101499944Y-167100000D02*
X93857107Y-167100000D01*
X92857107Y-162100000D02*
G75*
G02*
X93857107Y-161100007I999993J0D01*
G01*
X127800000Y-167200000D02*
X135392893Y-167200000D01*
X135400000Y-161100000D02*
G75*
G02*
X136400000Y-162100000I0J-1000000D01*
G01*
X125150000Y-163600000D02*
G75*
G02*
X123150000Y-163600000I-1000000J0D01*
G01*
X123150000Y-163600000D02*
G75*
G02*
X125150000Y-163600000I1000000J0D01*
G01*
X93857107Y-167100000D02*
G75*
G02*
X92857100Y-166100000I-7J1000000D01*
G01*
X127792107Y-179791466D02*
G75*
G02*
X126792109Y-180793709I-1000007J-2234D01*
G01*
X109400000Y-163600000D02*
G75*
G02*
X107400000Y-163600000I-1000000J0D01*
G01*
X107400000Y-163600000D02*
G75*
G02*
X109400000Y-163600000I1000000J0D01*
G01*
X136392893Y-166192893D02*
G75*
G02*
X135392893Y-167192893I-999993J-7D01*
G01*
X102499998Y-180797797D02*
G75*
G02*
X101500005Y-179800000I2J999997D01*
G01*
X92857107Y-166100000D02*
X92857107Y-162100000D01*
X126785620Y-180793688D02*
X102499998Y-180797797D01*
X136392892Y-166192893D02*
X136400000Y-162100000D01*
D11*
X125952000Y-168800000D02*
X108752000Y-168800000D01*
X108752000Y-177500000D01*
X125952000Y-177500000D01*
X125952000Y-168800000D01*
M02*
