G04 #@! TF.GenerationSoftware,KiCad,Pcbnew,9.0.2*
G04 #@! TF.CreationDate,2025-08-20T20:27:39-04:00*
G04 #@! TF.ProjectId,Trackball,54726163-6b62-4616-9c6c-2e6b69636164,rev?*
G04 #@! TF.SameCoordinates,Original*
G04 #@! TF.FileFunction,Soldermask,Top*
G04 #@! TF.FilePolarity,Negative*
%FSLAX46Y46*%
G04 Gerber Fmt 4.6, Leading zero omitted, Abs format (unit mm)*
G04 Created by KiCad (PCBNEW 9.0.2) date 2025-08-20 20:27:39*
%MOMM*%
%LPD*%
G01*
G04 APERTURE LIST*
G04 APERTURE END LIST*
G36*
X112618232Y-177853108D02*
G01*
X112740664Y-177903821D01*
X112850850Y-177977445D01*
X112944555Y-178071150D01*
X113018179Y-178181336D01*
X113068892Y-178303768D01*
X113094745Y-178433740D01*
X113094745Y-178566260D01*
X113068892Y-178696232D01*
X113018179Y-178818664D01*
X112944555Y-178928850D01*
X112850850Y-179022555D01*
X112740664Y-179096179D01*
X112618232Y-179146892D01*
X112488260Y-179172745D01*
X112355740Y-179172745D01*
X112225768Y-179146892D01*
X112103336Y-179096179D01*
X111993150Y-179022555D01*
X111899445Y-178928850D01*
X111825821Y-178818664D01*
X111775108Y-178696232D01*
X111749255Y-178566260D01*
X111749255Y-178433740D01*
X111775108Y-178303768D01*
X111825821Y-178181336D01*
X111899445Y-178071150D01*
X111993150Y-177977445D01*
X112103336Y-177903821D01*
X112225768Y-177853108D01*
X112355740Y-177827255D01*
X112488260Y-177827255D01*
X112618232Y-177853108D01*
G37*
G36*
X114398232Y-177853108D02*
G01*
X114520664Y-177903821D01*
X114630850Y-177977445D01*
X114724555Y-178071150D01*
X114798179Y-178181336D01*
X114848892Y-178303768D01*
X114874745Y-178433740D01*
X114874745Y-178566260D01*
X114848892Y-178696232D01*
X114798179Y-178818664D01*
X114724555Y-178928850D01*
X114630850Y-179022555D01*
X114520664Y-179096179D01*
X114398232Y-179146892D01*
X114268260Y-179172745D01*
X114135740Y-179172745D01*
X114005768Y-179146892D01*
X113883336Y-179096179D01*
X113773150Y-179022555D01*
X113679445Y-178928850D01*
X113605821Y-178818664D01*
X113555108Y-178696232D01*
X113529255Y-178566260D01*
X113529255Y-178433740D01*
X113555108Y-178303768D01*
X113605821Y-178181336D01*
X113679445Y-178071150D01*
X113773150Y-177977445D01*
X113883336Y-177903821D01*
X114005768Y-177853108D01*
X114135740Y-177827255D01*
X114268260Y-177827255D01*
X114398232Y-177853108D01*
G37*
G36*
X116178232Y-177853108D02*
G01*
X116300664Y-177903821D01*
X116410850Y-177977445D01*
X116504555Y-178071150D01*
X116578179Y-178181336D01*
X116628892Y-178303768D01*
X116654745Y-178433740D01*
X116654745Y-178566260D01*
X116628892Y-178696232D01*
X116578179Y-178818664D01*
X116504555Y-178928850D01*
X116410850Y-179022555D01*
X116300664Y-179096179D01*
X116178232Y-179146892D01*
X116048260Y-179172745D01*
X115915740Y-179172745D01*
X115785768Y-179146892D01*
X115663336Y-179096179D01*
X115553150Y-179022555D01*
X115459445Y-178928850D01*
X115385821Y-178818664D01*
X115335108Y-178696232D01*
X115309255Y-178566260D01*
X115309255Y-178433740D01*
X115335108Y-178303768D01*
X115385821Y-178181336D01*
X115459445Y-178071150D01*
X115553150Y-177977445D01*
X115663336Y-177903821D01*
X115785768Y-177853108D01*
X115915740Y-177827255D01*
X116048260Y-177827255D01*
X116178232Y-177853108D01*
G37*
G36*
X117958232Y-177853108D02*
G01*
X118080664Y-177903821D01*
X118190850Y-177977445D01*
X118284555Y-178071150D01*
X118358179Y-178181336D01*
X118408892Y-178303768D01*
X118434745Y-178433740D01*
X118434745Y-178566260D01*
X118408892Y-178696232D01*
X118358179Y-178818664D01*
X118284555Y-178928850D01*
X118190850Y-179022555D01*
X118080664Y-179096179D01*
X117958232Y-179146892D01*
X117828260Y-179172745D01*
X117695740Y-179172745D01*
X117565768Y-179146892D01*
X117443336Y-179096179D01*
X117333150Y-179022555D01*
X117239445Y-178928850D01*
X117165821Y-178818664D01*
X117115108Y-178696232D01*
X117089255Y-178566260D01*
X117089255Y-178433740D01*
X117115108Y-178303768D01*
X117165821Y-178181336D01*
X117239445Y-178071150D01*
X117333150Y-177977445D01*
X117443336Y-177903821D01*
X117565768Y-177853108D01*
X117695740Y-177827255D01*
X117828260Y-177827255D01*
X117958232Y-177853108D01*
G37*
G36*
X119738232Y-177853108D02*
G01*
X119860664Y-177903821D01*
X119970850Y-177977445D01*
X120064555Y-178071150D01*
X120138179Y-178181336D01*
X120188892Y-178303768D01*
X120214745Y-178433740D01*
X120214745Y-178566260D01*
X120188892Y-178696232D01*
X120138179Y-178818664D01*
X120064555Y-178928850D01*
X119970850Y-179022555D01*
X119860664Y-179096179D01*
X119738232Y-179146892D01*
X119608260Y-179172745D01*
X119475740Y-179172745D01*
X119345768Y-179146892D01*
X119223336Y-179096179D01*
X119113150Y-179022555D01*
X119019445Y-178928850D01*
X118945821Y-178818664D01*
X118895108Y-178696232D01*
X118869255Y-178566260D01*
X118869255Y-178433740D01*
X118895108Y-178303768D01*
X118945821Y-178181336D01*
X119019445Y-178071150D01*
X119113150Y-177977445D01*
X119223336Y-177903821D01*
X119345768Y-177853108D01*
X119475740Y-177827255D01*
X119608260Y-177827255D01*
X119738232Y-177853108D01*
G37*
G36*
X121518232Y-177853108D02*
G01*
X121640664Y-177903821D01*
X121750850Y-177977445D01*
X121844555Y-178071150D01*
X121918179Y-178181336D01*
X121968892Y-178303768D01*
X121994745Y-178433740D01*
X121994745Y-178566260D01*
X121968892Y-178696232D01*
X121918179Y-178818664D01*
X121844555Y-178928850D01*
X121750850Y-179022555D01*
X121640664Y-179096179D01*
X121518232Y-179146892D01*
X121388260Y-179172745D01*
X121255740Y-179172745D01*
X121125768Y-179146892D01*
X121003336Y-179096179D01*
X120893150Y-179022555D01*
X120799445Y-178928850D01*
X120725821Y-178818664D01*
X120675108Y-178696232D01*
X120649255Y-178566260D01*
X120649255Y-178433740D01*
X120675108Y-178303768D01*
X120725821Y-178181336D01*
X120799445Y-178071150D01*
X120893150Y-177977445D01*
X121003336Y-177903821D01*
X121125768Y-177853108D01*
X121255740Y-177827255D01*
X121388260Y-177827255D01*
X121518232Y-177853108D01*
G37*
G36*
X123298232Y-177853108D02*
G01*
X123420664Y-177903821D01*
X123530850Y-177977445D01*
X123624555Y-178071150D01*
X123698179Y-178181336D01*
X123748892Y-178303768D01*
X123774745Y-178433740D01*
X123774745Y-178566260D01*
X123748892Y-178696232D01*
X123698179Y-178818664D01*
X123624555Y-178928850D01*
X123530850Y-179022555D01*
X123420664Y-179096179D01*
X123298232Y-179146892D01*
X123168260Y-179172745D01*
X123035740Y-179172745D01*
X122905768Y-179146892D01*
X122783336Y-179096179D01*
X122673150Y-179022555D01*
X122579445Y-178928850D01*
X122505821Y-178818664D01*
X122455108Y-178696232D01*
X122429255Y-178566260D01*
X122429255Y-178433740D01*
X122455108Y-178303768D01*
X122505821Y-178181336D01*
X122579445Y-178071150D01*
X122673150Y-177977445D01*
X122783336Y-177903821D01*
X122905768Y-177853108D01*
X123035740Y-177827255D01*
X123168260Y-177827255D01*
X123298232Y-177853108D01*
G37*
G36*
X125078232Y-177853108D02*
G01*
X125200664Y-177903821D01*
X125310850Y-177977445D01*
X125404555Y-178071150D01*
X125478179Y-178181336D01*
X125528892Y-178303768D01*
X125554745Y-178433740D01*
X125554745Y-178566260D01*
X125528892Y-178696232D01*
X125478179Y-178818664D01*
X125404555Y-178928850D01*
X125310850Y-179022555D01*
X125200664Y-179096179D01*
X125078232Y-179146892D01*
X124948260Y-179172745D01*
X124815740Y-179172745D01*
X124685768Y-179146892D01*
X124563336Y-179096179D01*
X124453150Y-179022555D01*
X124359445Y-178928850D01*
X124285821Y-178818664D01*
X124235108Y-178696232D01*
X124209255Y-178566260D01*
X124209255Y-178433740D01*
X124235108Y-178303768D01*
X124285821Y-178181336D01*
X124359445Y-178071150D01*
X124453150Y-177977445D01*
X124563336Y-177903821D01*
X124685768Y-177853108D01*
X124815740Y-177827255D01*
X124948260Y-177827255D01*
X125078232Y-177853108D01*
G37*
G36*
X104806038Y-177742190D02*
G01*
X104836399Y-177746187D01*
X104844036Y-177749748D01*
X104863093Y-177753539D01*
X104888332Y-177770404D01*
X104898444Y-177775119D01*
X104904596Y-177781271D01*
X104925057Y-177794943D01*
X104938728Y-177815403D01*
X104944880Y-177821555D01*
X104949594Y-177831664D01*
X104966461Y-177856907D01*
X104970251Y-177875965D01*
X104973812Y-177883600D01*
X104977807Y-177913950D01*
X104981000Y-177930000D01*
X104981000Y-178270000D01*
X104977806Y-178286052D01*
X104973812Y-178316399D01*
X104970252Y-178324032D01*
X104966461Y-178343093D01*
X104949592Y-178368337D01*
X104944880Y-178378444D01*
X104938730Y-178384593D01*
X104925057Y-178405057D01*
X104904593Y-178418730D01*
X104898444Y-178424880D01*
X104888337Y-178429592D01*
X104863093Y-178446461D01*
X104844032Y-178450252D01*
X104836399Y-178453812D01*
X104806051Y-178457807D01*
X104790000Y-178461000D01*
X104510000Y-178461000D01*
X104493948Y-178457807D01*
X104463600Y-178453812D01*
X104455965Y-178450251D01*
X104436907Y-178446461D01*
X104411664Y-178429594D01*
X104401555Y-178424880D01*
X104395403Y-178418728D01*
X104374943Y-178405057D01*
X104361271Y-178384596D01*
X104355119Y-178378444D01*
X104350404Y-178368332D01*
X104333539Y-178343093D01*
X104329748Y-178324036D01*
X104326187Y-178316399D01*
X104322189Y-178286037D01*
X104319000Y-178270000D01*
X104319000Y-177930000D01*
X104322189Y-177913963D01*
X104326187Y-177883600D01*
X104329748Y-177875961D01*
X104333539Y-177856907D01*
X104350402Y-177831669D01*
X104355119Y-177821555D01*
X104361273Y-177815400D01*
X104374943Y-177794943D01*
X104395400Y-177781273D01*
X104401555Y-177775119D01*
X104411669Y-177770402D01*
X104436907Y-177753539D01*
X104455961Y-177749748D01*
X104463600Y-177746187D01*
X104493964Y-177742189D01*
X104510000Y-177739000D01*
X104790000Y-177739000D01*
X104806038Y-177742190D01*
G37*
G36*
X105766038Y-177742190D02*
G01*
X105796399Y-177746187D01*
X105804036Y-177749748D01*
X105823093Y-177753539D01*
X105848332Y-177770404D01*
X105858444Y-177775119D01*
X105864596Y-177781271D01*
X105885057Y-177794943D01*
X105898728Y-177815403D01*
X105904880Y-177821555D01*
X105909594Y-177831664D01*
X105926461Y-177856907D01*
X105930251Y-177875965D01*
X105933812Y-177883600D01*
X105937807Y-177913950D01*
X105941000Y-177930000D01*
X105941000Y-178270000D01*
X105937806Y-178286052D01*
X105933812Y-178316399D01*
X105930252Y-178324032D01*
X105926461Y-178343093D01*
X105909592Y-178368337D01*
X105904880Y-178378444D01*
X105898730Y-178384593D01*
X105885057Y-178405057D01*
X105864593Y-178418730D01*
X105858444Y-178424880D01*
X105848337Y-178429592D01*
X105823093Y-178446461D01*
X105804032Y-178450252D01*
X105796399Y-178453812D01*
X105766051Y-178457807D01*
X105750000Y-178461000D01*
X105470000Y-178461000D01*
X105453948Y-178457807D01*
X105423600Y-178453812D01*
X105415965Y-178450251D01*
X105396907Y-178446461D01*
X105371664Y-178429594D01*
X105361555Y-178424880D01*
X105355403Y-178418728D01*
X105334943Y-178405057D01*
X105321271Y-178384596D01*
X105315119Y-178378444D01*
X105310404Y-178368332D01*
X105293539Y-178343093D01*
X105289748Y-178324036D01*
X105286187Y-178316399D01*
X105282189Y-178286037D01*
X105279000Y-178270000D01*
X105279000Y-177930000D01*
X105282189Y-177913963D01*
X105286187Y-177883600D01*
X105289748Y-177875961D01*
X105293539Y-177856907D01*
X105310402Y-177831669D01*
X105315119Y-177821555D01*
X105321273Y-177815400D01*
X105334943Y-177794943D01*
X105355400Y-177781273D01*
X105361555Y-177775119D01*
X105371669Y-177770402D01*
X105396907Y-177753539D01*
X105415961Y-177749748D01*
X105423600Y-177746187D01*
X105453964Y-177742189D01*
X105470000Y-177739000D01*
X105750000Y-177739000D01*
X105766038Y-177742190D01*
G37*
G36*
X104806038Y-176742190D02*
G01*
X104836399Y-176746187D01*
X104844036Y-176749748D01*
X104863093Y-176753539D01*
X104888332Y-176770404D01*
X104898444Y-176775119D01*
X104904596Y-176781271D01*
X104925057Y-176794943D01*
X104938728Y-176815403D01*
X104944880Y-176821555D01*
X104949594Y-176831664D01*
X104966461Y-176856907D01*
X104970251Y-176875965D01*
X104973812Y-176883600D01*
X104977807Y-176913950D01*
X104981000Y-176930000D01*
X104981000Y-177270000D01*
X104977806Y-177286052D01*
X104973812Y-177316399D01*
X104970252Y-177324032D01*
X104966461Y-177343093D01*
X104949592Y-177368337D01*
X104944880Y-177378444D01*
X104938730Y-177384593D01*
X104925057Y-177405057D01*
X104904593Y-177418730D01*
X104898444Y-177424880D01*
X104888337Y-177429592D01*
X104863093Y-177446461D01*
X104844032Y-177450252D01*
X104836399Y-177453812D01*
X104806051Y-177457807D01*
X104790000Y-177461000D01*
X104510000Y-177461000D01*
X104493948Y-177457807D01*
X104463600Y-177453812D01*
X104455965Y-177450251D01*
X104436907Y-177446461D01*
X104411664Y-177429594D01*
X104401555Y-177424880D01*
X104395403Y-177418728D01*
X104374943Y-177405057D01*
X104361271Y-177384596D01*
X104355119Y-177378444D01*
X104350404Y-177368332D01*
X104333539Y-177343093D01*
X104329748Y-177324036D01*
X104326187Y-177316399D01*
X104322189Y-177286037D01*
X104319000Y-177270000D01*
X104319000Y-176930000D01*
X104322189Y-176913963D01*
X104326187Y-176883600D01*
X104329748Y-176875961D01*
X104333539Y-176856907D01*
X104350402Y-176831669D01*
X104355119Y-176821555D01*
X104361273Y-176815400D01*
X104374943Y-176794943D01*
X104395400Y-176781273D01*
X104401555Y-176775119D01*
X104411669Y-176770402D01*
X104436907Y-176753539D01*
X104455961Y-176749748D01*
X104463600Y-176746187D01*
X104493964Y-176742189D01*
X104510000Y-176739000D01*
X104790000Y-176739000D01*
X104806038Y-176742190D01*
G37*
G36*
X105766038Y-176742190D02*
G01*
X105796399Y-176746187D01*
X105804036Y-176749748D01*
X105823093Y-176753539D01*
X105848332Y-176770404D01*
X105858444Y-176775119D01*
X105864596Y-176781271D01*
X105885057Y-176794943D01*
X105898728Y-176815403D01*
X105904880Y-176821555D01*
X105909594Y-176831664D01*
X105926461Y-176856907D01*
X105930251Y-176875965D01*
X105933812Y-176883600D01*
X105937807Y-176913950D01*
X105941000Y-176930000D01*
X105941000Y-177270000D01*
X105937806Y-177286052D01*
X105933812Y-177316399D01*
X105930252Y-177324032D01*
X105926461Y-177343093D01*
X105909592Y-177368337D01*
X105904880Y-177378444D01*
X105898730Y-177384593D01*
X105885057Y-177405057D01*
X105864593Y-177418730D01*
X105858444Y-177424880D01*
X105848337Y-177429592D01*
X105823093Y-177446461D01*
X105804032Y-177450252D01*
X105796399Y-177453812D01*
X105766051Y-177457807D01*
X105750000Y-177461000D01*
X105470000Y-177461000D01*
X105453948Y-177457807D01*
X105423600Y-177453812D01*
X105415965Y-177450251D01*
X105396907Y-177446461D01*
X105371664Y-177429594D01*
X105361555Y-177424880D01*
X105355403Y-177418728D01*
X105334943Y-177405057D01*
X105321271Y-177384596D01*
X105315119Y-177378444D01*
X105310404Y-177368332D01*
X105293539Y-177343093D01*
X105289748Y-177324036D01*
X105286187Y-177316399D01*
X105282189Y-177286037D01*
X105279000Y-177270000D01*
X105279000Y-176930000D01*
X105282189Y-176913963D01*
X105286187Y-176883600D01*
X105289748Y-176875961D01*
X105293539Y-176856907D01*
X105310402Y-176831669D01*
X105315119Y-176821555D01*
X105321273Y-176815400D01*
X105334943Y-176794943D01*
X105355400Y-176781273D01*
X105361555Y-176775119D01*
X105371669Y-176770402D01*
X105396907Y-176753539D01*
X105415961Y-176749748D01*
X105423600Y-176746187D01*
X105453964Y-176742189D01*
X105470000Y-176739000D01*
X105750000Y-176739000D01*
X105766038Y-176742190D01*
G37*
G36*
X104806038Y-175742190D02*
G01*
X104836399Y-175746187D01*
X104844036Y-175749748D01*
X104863093Y-175753539D01*
X104888332Y-175770404D01*
X104898444Y-175775119D01*
X104904596Y-175781271D01*
X104925057Y-175794943D01*
X104938728Y-175815403D01*
X104944880Y-175821555D01*
X104949594Y-175831664D01*
X104966461Y-175856907D01*
X104970251Y-175875965D01*
X104973812Y-175883600D01*
X104977807Y-175913950D01*
X104981000Y-175930000D01*
X104981000Y-176270000D01*
X104977806Y-176286052D01*
X104973812Y-176316399D01*
X104970252Y-176324032D01*
X104966461Y-176343093D01*
X104949592Y-176368337D01*
X104944880Y-176378444D01*
X104938730Y-176384593D01*
X104925057Y-176405057D01*
X104904593Y-176418730D01*
X104898444Y-176424880D01*
X104888337Y-176429592D01*
X104863093Y-176446461D01*
X104844032Y-176450252D01*
X104836399Y-176453812D01*
X104806051Y-176457807D01*
X104790000Y-176461000D01*
X104510000Y-176461000D01*
X104493948Y-176457807D01*
X104463600Y-176453812D01*
X104455965Y-176450251D01*
X104436907Y-176446461D01*
X104411664Y-176429594D01*
X104401555Y-176424880D01*
X104395403Y-176418728D01*
X104374943Y-176405057D01*
X104361271Y-176384596D01*
X104355119Y-176378444D01*
X104350404Y-176368332D01*
X104333539Y-176343093D01*
X104329748Y-176324036D01*
X104326187Y-176316399D01*
X104322189Y-176286037D01*
X104319000Y-176270000D01*
X104319000Y-175930000D01*
X104322189Y-175913963D01*
X104326187Y-175883600D01*
X104329748Y-175875961D01*
X104333539Y-175856907D01*
X104350402Y-175831669D01*
X104355119Y-175821555D01*
X104361273Y-175815400D01*
X104374943Y-175794943D01*
X104395400Y-175781273D01*
X104401555Y-175775119D01*
X104411669Y-175770402D01*
X104436907Y-175753539D01*
X104455961Y-175749748D01*
X104463600Y-175746187D01*
X104493964Y-175742189D01*
X104510000Y-175739000D01*
X104790000Y-175739000D01*
X104806038Y-175742190D01*
G37*
G36*
X105766038Y-175742190D02*
G01*
X105796399Y-175746187D01*
X105804036Y-175749748D01*
X105823093Y-175753539D01*
X105848332Y-175770404D01*
X105858444Y-175775119D01*
X105864596Y-175781271D01*
X105885057Y-175794943D01*
X105898728Y-175815403D01*
X105904880Y-175821555D01*
X105909594Y-175831664D01*
X105926461Y-175856907D01*
X105930251Y-175875965D01*
X105933812Y-175883600D01*
X105937807Y-175913950D01*
X105941000Y-175930000D01*
X105941000Y-176270000D01*
X105937806Y-176286052D01*
X105933812Y-176316399D01*
X105930252Y-176324032D01*
X105926461Y-176343093D01*
X105909592Y-176368337D01*
X105904880Y-176378444D01*
X105898730Y-176384593D01*
X105885057Y-176405057D01*
X105864593Y-176418730D01*
X105858444Y-176424880D01*
X105848337Y-176429592D01*
X105823093Y-176446461D01*
X105804032Y-176450252D01*
X105796399Y-176453812D01*
X105766051Y-176457807D01*
X105750000Y-176461000D01*
X105470000Y-176461000D01*
X105453948Y-176457807D01*
X105423600Y-176453812D01*
X105415965Y-176450251D01*
X105396907Y-176446461D01*
X105371664Y-176429594D01*
X105361555Y-176424880D01*
X105355403Y-176418728D01*
X105334943Y-176405057D01*
X105321271Y-176384596D01*
X105315119Y-176378444D01*
X105310404Y-176368332D01*
X105293539Y-176343093D01*
X105289748Y-176324036D01*
X105286187Y-176316399D01*
X105282189Y-176286037D01*
X105279000Y-176270000D01*
X105279000Y-175930000D01*
X105282189Y-175913963D01*
X105286187Y-175883600D01*
X105289748Y-175875961D01*
X105293539Y-175856907D01*
X105310402Y-175831669D01*
X105315119Y-175821555D01*
X105321273Y-175815400D01*
X105334943Y-175794943D01*
X105355400Y-175781273D01*
X105361555Y-175775119D01*
X105371669Y-175770402D01*
X105396907Y-175753539D01*
X105415961Y-175749748D01*
X105423600Y-175746187D01*
X105453964Y-175742189D01*
X105470000Y-175739000D01*
X105750000Y-175739000D01*
X105766038Y-175742190D01*
G37*
G36*
X104806038Y-174742190D02*
G01*
X104836399Y-174746187D01*
X104844036Y-174749748D01*
X104863093Y-174753539D01*
X104888332Y-174770404D01*
X104898444Y-174775119D01*
X104904596Y-174781271D01*
X104925057Y-174794943D01*
X104938728Y-174815403D01*
X104944880Y-174821555D01*
X104949594Y-174831664D01*
X104966461Y-174856907D01*
X104970251Y-174875965D01*
X104973812Y-174883600D01*
X104977807Y-174913950D01*
X104981000Y-174930000D01*
X104981000Y-175270000D01*
X104977806Y-175286052D01*
X104973812Y-175316399D01*
X104970252Y-175324032D01*
X104966461Y-175343093D01*
X104949592Y-175368337D01*
X104944880Y-175378444D01*
X104938730Y-175384593D01*
X104925057Y-175405057D01*
X104904593Y-175418730D01*
X104898444Y-175424880D01*
X104888337Y-175429592D01*
X104863093Y-175446461D01*
X104844032Y-175450252D01*
X104836399Y-175453812D01*
X104806051Y-175457807D01*
X104790000Y-175461000D01*
X104510000Y-175461000D01*
X104493948Y-175457807D01*
X104463600Y-175453812D01*
X104455965Y-175450251D01*
X104436907Y-175446461D01*
X104411664Y-175429594D01*
X104401555Y-175424880D01*
X104395403Y-175418728D01*
X104374943Y-175405057D01*
X104361271Y-175384596D01*
X104355119Y-175378444D01*
X104350404Y-175368332D01*
X104333539Y-175343093D01*
X104329748Y-175324036D01*
X104326187Y-175316399D01*
X104322189Y-175286037D01*
X104319000Y-175270000D01*
X104319000Y-174930000D01*
X104322189Y-174913963D01*
X104326187Y-174883600D01*
X104329748Y-174875961D01*
X104333539Y-174856907D01*
X104350402Y-174831669D01*
X104355119Y-174821555D01*
X104361273Y-174815400D01*
X104374943Y-174794943D01*
X104395400Y-174781273D01*
X104401555Y-174775119D01*
X104411669Y-174770402D01*
X104436907Y-174753539D01*
X104455961Y-174749748D01*
X104463600Y-174746187D01*
X104493964Y-174742189D01*
X104510000Y-174739000D01*
X104790000Y-174739000D01*
X104806038Y-174742190D01*
G37*
G36*
X105766038Y-174742190D02*
G01*
X105796399Y-174746187D01*
X105804036Y-174749748D01*
X105823093Y-174753539D01*
X105848332Y-174770404D01*
X105858444Y-174775119D01*
X105864596Y-174781271D01*
X105885057Y-174794943D01*
X105898728Y-174815403D01*
X105904880Y-174821555D01*
X105909594Y-174831664D01*
X105926461Y-174856907D01*
X105930251Y-174875965D01*
X105933812Y-174883600D01*
X105937807Y-174913950D01*
X105941000Y-174930000D01*
X105941000Y-175270000D01*
X105937806Y-175286052D01*
X105933812Y-175316399D01*
X105930252Y-175324032D01*
X105926461Y-175343093D01*
X105909592Y-175368337D01*
X105904880Y-175378444D01*
X105898730Y-175384593D01*
X105885057Y-175405057D01*
X105864593Y-175418730D01*
X105858444Y-175424880D01*
X105848337Y-175429592D01*
X105823093Y-175446461D01*
X105804032Y-175450252D01*
X105796399Y-175453812D01*
X105766051Y-175457807D01*
X105750000Y-175461000D01*
X105470000Y-175461000D01*
X105453948Y-175457807D01*
X105423600Y-175453812D01*
X105415965Y-175450251D01*
X105396907Y-175446461D01*
X105371664Y-175429594D01*
X105361555Y-175424880D01*
X105355403Y-175418728D01*
X105334943Y-175405057D01*
X105321271Y-175384596D01*
X105315119Y-175378444D01*
X105310404Y-175368332D01*
X105293539Y-175343093D01*
X105289748Y-175324036D01*
X105286187Y-175316399D01*
X105282189Y-175286037D01*
X105279000Y-175270000D01*
X105279000Y-174930000D01*
X105282189Y-174913963D01*
X105286187Y-174883600D01*
X105289748Y-174875961D01*
X105293539Y-174856907D01*
X105310402Y-174831669D01*
X105315119Y-174821555D01*
X105321273Y-174815400D01*
X105334943Y-174794943D01*
X105355400Y-174781273D01*
X105361555Y-174775119D01*
X105371669Y-174770402D01*
X105396907Y-174753539D01*
X105415961Y-174749748D01*
X105423600Y-174746187D01*
X105453964Y-174742189D01*
X105470000Y-174739000D01*
X105750000Y-174739000D01*
X105766038Y-174742190D01*
G37*
G36*
X104018914Y-172831995D02*
G01*
X104034726Y-172838976D01*
X104042531Y-172840213D01*
X104075039Y-172856776D01*
X104120106Y-172876676D01*
X104198324Y-172954894D01*
X104218226Y-172999967D01*
X104234786Y-173032468D01*
X104236021Y-173040270D01*
X104243005Y-173056086D01*
X104251000Y-173125000D01*
X104251000Y-174075000D01*
X104243005Y-174143914D01*
X104236021Y-174159729D01*
X104234786Y-174167531D01*
X104218229Y-174200024D01*
X104198324Y-174245106D01*
X104120106Y-174323324D01*
X104075024Y-174343229D01*
X104042531Y-174359786D01*
X104034729Y-174361021D01*
X104018914Y-174368005D01*
X103950000Y-174376000D01*
X103450000Y-174376000D01*
X103381086Y-174368005D01*
X103365270Y-174361021D01*
X103357468Y-174359786D01*
X103324967Y-174343226D01*
X103279894Y-174323324D01*
X103201676Y-174245106D01*
X103181776Y-174200039D01*
X103165213Y-174167531D01*
X103163976Y-174159726D01*
X103156995Y-174143914D01*
X103149000Y-174075000D01*
X103149000Y-173125000D01*
X103156995Y-173056086D01*
X103163976Y-173040274D01*
X103165213Y-173032468D01*
X103181780Y-172999953D01*
X103201676Y-172954894D01*
X103279894Y-172876676D01*
X103324953Y-172856780D01*
X103357468Y-172840213D01*
X103365274Y-172838976D01*
X103381086Y-172831995D01*
X103450000Y-172824000D01*
X103950000Y-172824000D01*
X104018914Y-172831995D01*
G37*
G36*
X105918914Y-172831995D02*
G01*
X105934726Y-172838976D01*
X105942531Y-172840213D01*
X105975039Y-172856776D01*
X106020106Y-172876676D01*
X106098324Y-172954894D01*
X106118226Y-172999967D01*
X106134786Y-173032468D01*
X106136021Y-173040270D01*
X106143005Y-173056086D01*
X106151000Y-173125000D01*
X106151000Y-174075000D01*
X106143005Y-174143914D01*
X106136021Y-174159729D01*
X106134786Y-174167531D01*
X106118229Y-174200024D01*
X106098324Y-174245106D01*
X106020106Y-174323324D01*
X105975024Y-174343229D01*
X105942531Y-174359786D01*
X105934729Y-174361021D01*
X105918914Y-174368005D01*
X105850000Y-174376000D01*
X105350000Y-174376000D01*
X105281086Y-174368005D01*
X105265270Y-174361021D01*
X105257468Y-174359786D01*
X105224967Y-174343226D01*
X105179894Y-174323324D01*
X105101676Y-174245106D01*
X105081776Y-174200039D01*
X105065213Y-174167531D01*
X105063976Y-174159726D01*
X105056995Y-174143914D01*
X105049000Y-174075000D01*
X105049000Y-173125000D01*
X105056995Y-173056086D01*
X105063976Y-173040274D01*
X105065213Y-173032468D01*
X105081780Y-172999953D01*
X105101676Y-172954894D01*
X105179894Y-172876676D01*
X105224953Y-172856780D01*
X105257468Y-172840213D01*
X105265274Y-172838976D01*
X105281086Y-172831995D01*
X105350000Y-172824000D01*
X105850000Y-172824000D01*
X105918914Y-172831995D01*
G37*
G36*
X105076038Y-170992190D02*
G01*
X105106399Y-170996187D01*
X105114036Y-170999748D01*
X105133093Y-171003539D01*
X105158332Y-171020404D01*
X105168444Y-171025119D01*
X105174596Y-171031271D01*
X105195057Y-171044943D01*
X105208728Y-171065403D01*
X105214880Y-171071555D01*
X105219594Y-171081664D01*
X105236461Y-171106907D01*
X105240251Y-171125965D01*
X105243812Y-171133600D01*
X105247807Y-171163950D01*
X105251000Y-171180000D01*
X105251000Y-171520000D01*
X105247806Y-171536052D01*
X105243812Y-171566399D01*
X105240252Y-171574032D01*
X105236461Y-171593093D01*
X105219592Y-171618337D01*
X105214880Y-171628444D01*
X105208730Y-171634593D01*
X105195057Y-171655057D01*
X105174593Y-171668730D01*
X105168444Y-171674880D01*
X105158337Y-171679592D01*
X105133093Y-171696461D01*
X105114032Y-171700252D01*
X105106399Y-171703812D01*
X105076051Y-171707807D01*
X105060000Y-171711000D01*
X104780000Y-171711000D01*
X104763948Y-171707807D01*
X104733600Y-171703812D01*
X104725965Y-171700251D01*
X104706907Y-171696461D01*
X104681664Y-171679594D01*
X104671555Y-171674880D01*
X104665403Y-171668728D01*
X104644943Y-171655057D01*
X104631271Y-171634596D01*
X104625119Y-171628444D01*
X104620404Y-171618332D01*
X104603539Y-171593093D01*
X104599748Y-171574036D01*
X104596187Y-171566399D01*
X104592189Y-171536037D01*
X104589000Y-171520000D01*
X104589000Y-171180000D01*
X104592189Y-171163963D01*
X104596187Y-171133600D01*
X104599748Y-171125961D01*
X104603539Y-171106907D01*
X104620402Y-171081669D01*
X104625119Y-171071555D01*
X104631273Y-171065400D01*
X104644943Y-171044943D01*
X104665400Y-171031273D01*
X104671555Y-171025119D01*
X104681669Y-171020402D01*
X104706907Y-171003539D01*
X104725961Y-170999748D01*
X104733600Y-170996187D01*
X104763964Y-170992189D01*
X104780000Y-170989000D01*
X105060000Y-170989000D01*
X105076038Y-170992190D01*
G37*
G36*
X106036038Y-170992190D02*
G01*
X106066399Y-170996187D01*
X106074036Y-170999748D01*
X106093093Y-171003539D01*
X106118332Y-171020404D01*
X106128444Y-171025119D01*
X106134596Y-171031271D01*
X106155057Y-171044943D01*
X106168728Y-171065403D01*
X106174880Y-171071555D01*
X106179594Y-171081664D01*
X106196461Y-171106907D01*
X106200251Y-171125965D01*
X106203812Y-171133600D01*
X106207807Y-171163950D01*
X106211000Y-171180000D01*
X106211000Y-171520000D01*
X106207806Y-171536052D01*
X106203812Y-171566399D01*
X106200252Y-171574032D01*
X106196461Y-171593093D01*
X106179592Y-171618337D01*
X106174880Y-171628444D01*
X106168730Y-171634593D01*
X106155057Y-171655057D01*
X106134593Y-171668730D01*
X106128444Y-171674880D01*
X106118337Y-171679592D01*
X106093093Y-171696461D01*
X106074032Y-171700252D01*
X106066399Y-171703812D01*
X106036051Y-171707807D01*
X106020000Y-171711000D01*
X105740000Y-171711000D01*
X105723948Y-171707807D01*
X105693600Y-171703812D01*
X105685965Y-171700251D01*
X105666907Y-171696461D01*
X105641664Y-171679594D01*
X105631555Y-171674880D01*
X105625403Y-171668728D01*
X105604943Y-171655057D01*
X105591271Y-171634596D01*
X105585119Y-171628444D01*
X105580404Y-171618332D01*
X105563539Y-171593093D01*
X105559748Y-171574036D01*
X105556187Y-171566399D01*
X105552189Y-171536037D01*
X105549000Y-171520000D01*
X105549000Y-171180000D01*
X105552189Y-171163963D01*
X105556187Y-171133600D01*
X105559748Y-171125961D01*
X105563539Y-171106907D01*
X105580402Y-171081669D01*
X105585119Y-171071555D01*
X105591273Y-171065400D01*
X105604943Y-171044943D01*
X105625400Y-171031273D01*
X105631555Y-171025119D01*
X105641669Y-171020402D01*
X105666907Y-171003539D01*
X105685961Y-170999748D01*
X105693600Y-170996187D01*
X105723964Y-170992189D01*
X105740000Y-170989000D01*
X106020000Y-170989000D01*
X106036038Y-170992190D01*
G37*
G36*
X104138040Y-169039690D02*
G01*
X104170987Y-169044028D01*
X104179274Y-169047892D01*
X104198919Y-169051800D01*
X104224938Y-169069186D01*
X104236180Y-169074428D01*
X104243019Y-169081267D01*
X104264128Y-169095372D01*
X104278232Y-169116480D01*
X104285071Y-169123319D01*
X104290312Y-169134558D01*
X104307700Y-169160581D01*
X104311607Y-169180227D01*
X104315471Y-169188512D01*
X104319806Y-169221446D01*
X104323000Y-169237500D01*
X104323000Y-170262500D01*
X104319806Y-170278554D01*
X104315471Y-170311487D01*
X104311608Y-170319770D01*
X104307700Y-170339419D01*
X104290310Y-170365443D01*
X104285071Y-170376680D01*
X104278234Y-170383516D01*
X104264128Y-170404628D01*
X104243016Y-170418734D01*
X104236180Y-170425571D01*
X104224943Y-170430810D01*
X104198919Y-170448200D01*
X104179270Y-170452108D01*
X104170987Y-170455971D01*
X104138054Y-170460306D01*
X104122000Y-170463500D01*
X103822000Y-170463500D01*
X103805946Y-170460306D01*
X103773012Y-170455971D01*
X103764727Y-170452107D01*
X103745081Y-170448200D01*
X103719058Y-170430812D01*
X103707819Y-170425571D01*
X103700980Y-170418732D01*
X103679872Y-170404628D01*
X103665767Y-170383519D01*
X103658928Y-170376680D01*
X103653686Y-170365438D01*
X103636300Y-170339419D01*
X103632392Y-170319774D01*
X103628528Y-170311487D01*
X103624190Y-170278540D01*
X103621000Y-170262500D01*
X103621000Y-169237500D01*
X103624190Y-169221461D01*
X103628528Y-169188512D01*
X103632392Y-169180223D01*
X103636300Y-169160581D01*
X103653684Y-169134563D01*
X103658928Y-169123319D01*
X103665769Y-169116477D01*
X103679872Y-169095372D01*
X103700977Y-169081269D01*
X103707819Y-169074428D01*
X103719063Y-169069184D01*
X103745081Y-169051800D01*
X103764723Y-169047892D01*
X103773012Y-169044028D01*
X103805961Y-169039690D01*
X103822000Y-169036500D01*
X104122000Y-169036500D01*
X104138040Y-169039690D01*
G37*
G36*
X106038040Y-169039690D02*
G01*
X106070987Y-169044028D01*
X106079274Y-169047892D01*
X106098919Y-169051800D01*
X106124938Y-169069186D01*
X106136180Y-169074428D01*
X106143019Y-169081267D01*
X106164128Y-169095372D01*
X106178232Y-169116480D01*
X106185071Y-169123319D01*
X106190312Y-169134558D01*
X106207700Y-169160581D01*
X106211607Y-169180227D01*
X106215471Y-169188512D01*
X106219806Y-169221446D01*
X106223000Y-169237500D01*
X106223000Y-170262500D01*
X106219806Y-170278554D01*
X106215471Y-170311487D01*
X106211608Y-170319770D01*
X106207700Y-170339419D01*
X106190310Y-170365443D01*
X106185071Y-170376680D01*
X106178234Y-170383516D01*
X106164128Y-170404628D01*
X106143016Y-170418734D01*
X106136180Y-170425571D01*
X106124943Y-170430810D01*
X106098919Y-170448200D01*
X106079270Y-170452108D01*
X106070987Y-170455971D01*
X106038054Y-170460306D01*
X106022000Y-170463500D01*
X105722000Y-170463500D01*
X105705946Y-170460306D01*
X105673012Y-170455971D01*
X105664727Y-170452107D01*
X105645081Y-170448200D01*
X105619058Y-170430812D01*
X105607819Y-170425571D01*
X105600980Y-170418732D01*
X105579872Y-170404628D01*
X105565767Y-170383519D01*
X105558928Y-170376680D01*
X105553686Y-170365438D01*
X105536300Y-170339419D01*
X105532392Y-170319774D01*
X105528528Y-170311487D01*
X105524190Y-170278540D01*
X105521000Y-170262500D01*
X105521000Y-169237500D01*
X105524190Y-169221461D01*
X105528528Y-169188512D01*
X105532392Y-169180223D01*
X105536300Y-169160581D01*
X105553684Y-169134563D01*
X105558928Y-169123319D01*
X105565769Y-169116477D01*
X105579872Y-169095372D01*
X105600977Y-169081269D01*
X105607819Y-169074428D01*
X105619063Y-169069184D01*
X105645081Y-169051800D01*
X105664723Y-169047892D01*
X105673012Y-169044028D01*
X105705961Y-169039690D01*
X105722000Y-169036500D01*
X106022000Y-169036500D01*
X106038040Y-169039690D01*
G37*
G36*
X111994296Y-167128932D02*
G01*
X112035868Y-167134989D01*
X112043498Y-167138719D01*
X112060770Y-167142155D01*
X112088699Y-167160816D01*
X112107081Y-167169803D01*
X112117013Y-167179735D01*
X112138145Y-167193855D01*
X112152264Y-167214986D01*
X112162196Y-167224918D01*
X112171181Y-167243297D01*
X112189845Y-167271230D01*
X112193280Y-167288502D01*
X112197010Y-167296131D01*
X112203064Y-167337688D01*
X112208000Y-167362500D01*
X112208000Y-168237500D01*
X112203063Y-168262315D01*
X112197010Y-168303868D01*
X112193281Y-168311495D01*
X112189845Y-168328770D01*
X112171179Y-168356705D01*
X112162196Y-168375081D01*
X112152266Y-168385010D01*
X112138145Y-168406145D01*
X112117010Y-168420266D01*
X112107081Y-168430196D01*
X112088705Y-168439179D01*
X112060770Y-168457845D01*
X112043495Y-168461281D01*
X112035868Y-168465010D01*
X111994314Y-168471064D01*
X111969500Y-168476000D01*
X111094500Y-168476000D01*
X111069687Y-168471064D01*
X111028131Y-168465010D01*
X111020502Y-168461280D01*
X111003230Y-168457845D01*
X110975297Y-168439181D01*
X110956918Y-168430196D01*
X110946986Y-168420264D01*
X110925855Y-168406145D01*
X110911735Y-168385013D01*
X110901803Y-168375081D01*
X110892816Y-168356699D01*
X110874155Y-168328770D01*
X110870719Y-168311498D01*
X110866989Y-168303868D01*
X110860932Y-168262295D01*
X110856000Y-168237500D01*
X110856000Y-167362500D01*
X110860931Y-167337705D01*
X110866989Y-167296131D01*
X110870719Y-167288499D01*
X110874155Y-167271230D01*
X110892815Y-167243303D01*
X110901803Y-167224918D01*
X110911737Y-167214983D01*
X110925855Y-167193855D01*
X110946983Y-167179737D01*
X110956918Y-167169803D01*
X110975303Y-167160815D01*
X111003230Y-167142155D01*
X111020499Y-167138719D01*
X111028131Y-167134989D01*
X111069707Y-167128931D01*
X111094500Y-167124000D01*
X111969500Y-167124000D01*
X111994296Y-167128932D01*
G37*
G36*
X113508232Y-167153108D02*
G01*
X113630664Y-167203821D01*
X113740850Y-167277445D01*
X113834555Y-167371150D01*
X113908179Y-167481336D01*
X113958892Y-167603768D01*
X113984745Y-167733740D01*
X113984745Y-167866260D01*
X113958892Y-167996232D01*
X113908179Y-168118664D01*
X113834555Y-168228850D01*
X113740850Y-168322555D01*
X113630664Y-168396179D01*
X113508232Y-168446892D01*
X113378260Y-168472745D01*
X113245740Y-168472745D01*
X113115768Y-168446892D01*
X112993336Y-168396179D01*
X112883150Y-168322555D01*
X112789445Y-168228850D01*
X112715821Y-168118664D01*
X112665108Y-167996232D01*
X112639255Y-167866260D01*
X112639255Y-167733740D01*
X112665108Y-167603768D01*
X112715821Y-167481336D01*
X112789445Y-167371150D01*
X112883150Y-167277445D01*
X112993336Y-167203821D01*
X113115768Y-167153108D01*
X113245740Y-167127255D01*
X113378260Y-167127255D01*
X113508232Y-167153108D01*
G37*
G36*
X115288232Y-167153108D02*
G01*
X115410664Y-167203821D01*
X115520850Y-167277445D01*
X115614555Y-167371150D01*
X115688179Y-167481336D01*
X115738892Y-167603768D01*
X115764745Y-167733740D01*
X115764745Y-167866260D01*
X115738892Y-167996232D01*
X115688179Y-168118664D01*
X115614555Y-168228850D01*
X115520850Y-168322555D01*
X115410664Y-168396179D01*
X115288232Y-168446892D01*
X115158260Y-168472745D01*
X115025740Y-168472745D01*
X114895768Y-168446892D01*
X114773336Y-168396179D01*
X114663150Y-168322555D01*
X114569445Y-168228850D01*
X114495821Y-168118664D01*
X114445108Y-167996232D01*
X114419255Y-167866260D01*
X114419255Y-167733740D01*
X114445108Y-167603768D01*
X114495821Y-167481336D01*
X114569445Y-167371150D01*
X114663150Y-167277445D01*
X114773336Y-167203821D01*
X114895768Y-167153108D01*
X115025740Y-167127255D01*
X115158260Y-167127255D01*
X115288232Y-167153108D01*
G37*
G36*
X117068232Y-167153108D02*
G01*
X117190664Y-167203821D01*
X117300850Y-167277445D01*
X117394555Y-167371150D01*
X117468179Y-167481336D01*
X117518892Y-167603768D01*
X117544745Y-167733740D01*
X117544745Y-167866260D01*
X117518892Y-167996232D01*
X117468179Y-168118664D01*
X117394555Y-168228850D01*
X117300850Y-168322555D01*
X117190664Y-168396179D01*
X117068232Y-168446892D01*
X116938260Y-168472745D01*
X116805740Y-168472745D01*
X116675768Y-168446892D01*
X116553336Y-168396179D01*
X116443150Y-168322555D01*
X116349445Y-168228850D01*
X116275821Y-168118664D01*
X116225108Y-167996232D01*
X116199255Y-167866260D01*
X116199255Y-167733740D01*
X116225108Y-167603768D01*
X116275821Y-167481336D01*
X116349445Y-167371150D01*
X116443150Y-167277445D01*
X116553336Y-167203821D01*
X116675768Y-167153108D01*
X116805740Y-167127255D01*
X116938260Y-167127255D01*
X117068232Y-167153108D01*
G37*
G36*
X118848232Y-167153108D02*
G01*
X118970664Y-167203821D01*
X119080850Y-167277445D01*
X119174555Y-167371150D01*
X119248179Y-167481336D01*
X119298892Y-167603768D01*
X119324745Y-167733740D01*
X119324745Y-167866260D01*
X119298892Y-167996232D01*
X119248179Y-168118664D01*
X119174555Y-168228850D01*
X119080850Y-168322555D01*
X118970664Y-168396179D01*
X118848232Y-168446892D01*
X118718260Y-168472745D01*
X118585740Y-168472745D01*
X118455768Y-168446892D01*
X118333336Y-168396179D01*
X118223150Y-168322555D01*
X118129445Y-168228850D01*
X118055821Y-168118664D01*
X118005108Y-167996232D01*
X117979255Y-167866260D01*
X117979255Y-167733740D01*
X118005108Y-167603768D01*
X118055821Y-167481336D01*
X118129445Y-167371150D01*
X118223150Y-167277445D01*
X118333336Y-167203821D01*
X118455768Y-167153108D01*
X118585740Y-167127255D01*
X118718260Y-167127255D01*
X118848232Y-167153108D01*
G37*
G36*
X120628232Y-167153108D02*
G01*
X120750664Y-167203821D01*
X120860850Y-167277445D01*
X120954555Y-167371150D01*
X121028179Y-167481336D01*
X121078892Y-167603768D01*
X121104745Y-167733740D01*
X121104745Y-167866260D01*
X121078892Y-167996232D01*
X121028179Y-168118664D01*
X120954555Y-168228850D01*
X120860850Y-168322555D01*
X120750664Y-168396179D01*
X120628232Y-168446892D01*
X120498260Y-168472745D01*
X120365740Y-168472745D01*
X120235768Y-168446892D01*
X120113336Y-168396179D01*
X120003150Y-168322555D01*
X119909445Y-168228850D01*
X119835821Y-168118664D01*
X119785108Y-167996232D01*
X119759255Y-167866260D01*
X119759255Y-167733740D01*
X119785108Y-167603768D01*
X119835821Y-167481336D01*
X119909445Y-167371150D01*
X120003150Y-167277445D01*
X120113336Y-167203821D01*
X120235768Y-167153108D01*
X120365740Y-167127255D01*
X120498260Y-167127255D01*
X120628232Y-167153108D01*
G37*
G36*
X122408232Y-167153108D02*
G01*
X122530664Y-167203821D01*
X122640850Y-167277445D01*
X122734555Y-167371150D01*
X122808179Y-167481336D01*
X122858892Y-167603768D01*
X122884745Y-167733740D01*
X122884745Y-167866260D01*
X122858892Y-167996232D01*
X122808179Y-168118664D01*
X122734555Y-168228850D01*
X122640850Y-168322555D01*
X122530664Y-168396179D01*
X122408232Y-168446892D01*
X122278260Y-168472745D01*
X122145740Y-168472745D01*
X122015768Y-168446892D01*
X121893336Y-168396179D01*
X121783150Y-168322555D01*
X121689445Y-168228850D01*
X121615821Y-168118664D01*
X121565108Y-167996232D01*
X121539255Y-167866260D01*
X121539255Y-167733740D01*
X121565108Y-167603768D01*
X121615821Y-167481336D01*
X121689445Y-167371150D01*
X121783150Y-167277445D01*
X121893336Y-167203821D01*
X122015768Y-167153108D01*
X122145740Y-167127255D01*
X122278260Y-167127255D01*
X122408232Y-167153108D01*
G37*
G36*
X124188232Y-167153108D02*
G01*
X124310664Y-167203821D01*
X124420850Y-167277445D01*
X124514555Y-167371150D01*
X124588179Y-167481336D01*
X124638892Y-167603768D01*
X124664745Y-167733740D01*
X124664745Y-167866260D01*
X124638892Y-167996232D01*
X124588179Y-168118664D01*
X124514555Y-168228850D01*
X124420850Y-168322555D01*
X124310664Y-168396179D01*
X124188232Y-168446892D01*
X124058260Y-168472745D01*
X123925740Y-168472745D01*
X123795768Y-168446892D01*
X123673336Y-168396179D01*
X123563150Y-168322555D01*
X123469445Y-168228850D01*
X123395821Y-168118664D01*
X123345108Y-167996232D01*
X123319255Y-167866260D01*
X123319255Y-167733740D01*
X123345108Y-167603768D01*
X123395821Y-167481336D01*
X123469445Y-167371150D01*
X123563150Y-167277445D01*
X123673336Y-167203821D01*
X123795768Y-167153108D01*
X123925740Y-167127255D01*
X124058260Y-167127255D01*
X124188232Y-167153108D01*
G37*
G36*
X104138040Y-166764690D02*
G01*
X104170987Y-166769028D01*
X104179274Y-166772892D01*
X104198919Y-166776800D01*
X104224938Y-166794186D01*
X104236180Y-166799428D01*
X104243019Y-166806267D01*
X104264128Y-166820372D01*
X104278232Y-166841480D01*
X104285071Y-166848319D01*
X104290312Y-166859558D01*
X104307700Y-166885581D01*
X104311607Y-166905227D01*
X104315471Y-166913512D01*
X104319805Y-166946439D01*
X104323000Y-166962500D01*
X104323000Y-166970708D01*
X104337375Y-167079913D01*
X104556619Y-167079915D01*
X104571000Y-166970684D01*
X104571000Y-166962500D01*
X104574186Y-166946478D01*
X104578527Y-166913513D01*
X104582393Y-166905222D01*
X104586300Y-166885581D01*
X104603684Y-166859564D01*
X104608928Y-166848319D01*
X104615769Y-166841477D01*
X104629872Y-166820372D01*
X104650977Y-166806269D01*
X104657819Y-166799428D01*
X104669063Y-166794184D01*
X104695081Y-166776800D01*
X104714723Y-166772892D01*
X104723012Y-166769028D01*
X104755961Y-166764690D01*
X104772000Y-166761500D01*
X105072000Y-166761500D01*
X105088040Y-166764690D01*
X105120987Y-166769028D01*
X105129274Y-166772892D01*
X105148919Y-166776800D01*
X105174938Y-166794186D01*
X105186180Y-166799428D01*
X105193019Y-166806267D01*
X105214128Y-166820372D01*
X105228232Y-166841480D01*
X105235071Y-166848319D01*
X105240312Y-166859558D01*
X105257700Y-166885581D01*
X105261607Y-166905227D01*
X105265471Y-166913512D01*
X105269805Y-166946439D01*
X105273000Y-166962500D01*
X105273000Y-166970708D01*
X105287375Y-167079913D01*
X105506619Y-167079915D01*
X105521000Y-166970684D01*
X105521000Y-166962500D01*
X105524186Y-166946478D01*
X105528527Y-166913513D01*
X105532393Y-166905222D01*
X105536300Y-166885581D01*
X105553684Y-166859564D01*
X105558928Y-166848319D01*
X105565769Y-166841477D01*
X105579872Y-166820372D01*
X105600977Y-166806269D01*
X105607819Y-166799428D01*
X105619063Y-166794184D01*
X105645081Y-166776800D01*
X105664723Y-166772892D01*
X105673012Y-166769028D01*
X105705961Y-166764690D01*
X105722000Y-166761500D01*
X106022000Y-166761500D01*
X106038040Y-166764690D01*
X106070987Y-166769028D01*
X106079274Y-166772892D01*
X106098919Y-166776800D01*
X106124938Y-166794186D01*
X106136180Y-166799428D01*
X106143019Y-166806267D01*
X106164128Y-166820372D01*
X106178232Y-166841480D01*
X106185071Y-166848319D01*
X106190312Y-166859558D01*
X106207700Y-166885581D01*
X106211607Y-166905227D01*
X106215471Y-166913512D01*
X106219806Y-166946446D01*
X106223000Y-166962500D01*
X106223000Y-167987500D01*
X106219806Y-168003554D01*
X106215471Y-168036487D01*
X106211608Y-168044770D01*
X106207700Y-168064419D01*
X106190310Y-168090443D01*
X106185071Y-168101680D01*
X106178234Y-168108516D01*
X106164128Y-168129628D01*
X106143016Y-168143734D01*
X106136180Y-168150571D01*
X106124943Y-168155810D01*
X106098919Y-168173200D01*
X106079270Y-168177108D01*
X106070987Y-168180971D01*
X106038054Y-168185306D01*
X106022000Y-168188500D01*
X105722000Y-168188500D01*
X105705946Y-168185306D01*
X105673012Y-168180971D01*
X105664727Y-168177107D01*
X105645081Y-168173200D01*
X105619058Y-168155812D01*
X105607819Y-168150571D01*
X105600980Y-168143732D01*
X105579872Y-168129628D01*
X105565767Y-168108519D01*
X105558928Y-168101680D01*
X105553686Y-168090438D01*
X105536300Y-168064419D01*
X105532392Y-168044774D01*
X105528528Y-168036487D01*
X105524191Y-168003542D01*
X105521000Y-167987500D01*
X105521000Y-167979302D01*
X105506622Y-167870085D01*
X105287378Y-167870085D01*
X105273000Y-167979297D01*
X105273000Y-167987500D01*
X105269806Y-168003554D01*
X105265471Y-168036487D01*
X105261608Y-168044770D01*
X105257700Y-168064419D01*
X105240310Y-168090443D01*
X105235071Y-168101680D01*
X105228234Y-168108516D01*
X105214128Y-168129628D01*
X105193016Y-168143734D01*
X105186180Y-168150571D01*
X105174943Y-168155810D01*
X105148919Y-168173200D01*
X105129270Y-168177108D01*
X105120987Y-168180971D01*
X105088054Y-168185306D01*
X105072000Y-168188500D01*
X104772000Y-168188500D01*
X104755946Y-168185306D01*
X104723012Y-168180971D01*
X104714727Y-168177107D01*
X104695081Y-168173200D01*
X104669058Y-168155812D01*
X104657819Y-168150571D01*
X104650980Y-168143732D01*
X104629872Y-168129628D01*
X104615767Y-168108519D01*
X104608928Y-168101680D01*
X104603686Y-168090438D01*
X104586300Y-168064419D01*
X104582392Y-168044774D01*
X104578528Y-168036487D01*
X104574191Y-168003542D01*
X104571000Y-167987500D01*
X104571000Y-167979302D01*
X104556622Y-167870085D01*
X104337378Y-167870085D01*
X104323000Y-167979297D01*
X104323000Y-167987500D01*
X104319806Y-168003554D01*
X104315471Y-168036487D01*
X104311608Y-168044770D01*
X104307700Y-168064419D01*
X104290310Y-168090443D01*
X104285071Y-168101680D01*
X104278234Y-168108516D01*
X104264128Y-168129628D01*
X104243016Y-168143734D01*
X104236180Y-168150571D01*
X104224943Y-168155810D01*
X104198919Y-168173200D01*
X104179270Y-168177108D01*
X104170987Y-168180971D01*
X104138054Y-168185306D01*
X104122000Y-168188500D01*
X103822000Y-168188500D01*
X103805946Y-168185306D01*
X103773012Y-168180971D01*
X103764727Y-168177107D01*
X103745081Y-168173200D01*
X103719058Y-168155812D01*
X103707819Y-168150571D01*
X103700980Y-168143732D01*
X103679872Y-168129628D01*
X103665767Y-168108519D01*
X103658928Y-168101680D01*
X103653686Y-168090438D01*
X103636300Y-168064419D01*
X103632392Y-168044774D01*
X103628528Y-168036487D01*
X103624190Y-168003540D01*
X103621000Y-167987500D01*
X103621000Y-166962500D01*
X103624190Y-166946461D01*
X103628528Y-166913512D01*
X103632392Y-166905223D01*
X103636300Y-166885581D01*
X103653684Y-166859563D01*
X103658928Y-166848319D01*
X103665769Y-166841477D01*
X103679872Y-166820372D01*
X103700977Y-166806269D01*
X103707819Y-166799428D01*
X103719063Y-166794184D01*
X103745081Y-166776800D01*
X103764723Y-166772892D01*
X103773012Y-166769028D01*
X103805961Y-166764690D01*
X103822000Y-166761500D01*
X104122000Y-166761500D01*
X104138040Y-166764690D01*
G37*
G36*
X95519517Y-164452882D02*
G01*
X95536062Y-164463938D01*
X95547118Y-164480483D01*
X95551000Y-164500000D01*
X95551000Y-166200000D01*
X95547118Y-166219517D01*
X95536062Y-166236062D01*
X95519517Y-166247118D01*
X95500000Y-166251000D01*
X93800000Y-166251000D01*
X93780483Y-166247118D01*
X93763938Y-166236062D01*
X93752882Y-166219517D01*
X93749000Y-166200000D01*
X93749000Y-164500000D01*
X93752882Y-164480483D01*
X93763938Y-164463938D01*
X93780483Y-164452882D01*
X93800000Y-164449000D01*
X95500000Y-164449000D01*
X95519517Y-164452882D01*
G37*
G36*
X135519517Y-164452882D02*
G01*
X135536062Y-164463938D01*
X135547118Y-164480483D01*
X135551000Y-164500000D01*
X135551000Y-166200000D01*
X135547118Y-166219517D01*
X135536062Y-166236062D01*
X135519517Y-166247118D01*
X135500000Y-166251000D01*
X133800000Y-166251000D01*
X133780483Y-166247118D01*
X133763938Y-166236062D01*
X133752882Y-166219517D01*
X133749000Y-166200000D01*
X133749000Y-164500000D01*
X133752882Y-164480483D01*
X133763938Y-164463938D01*
X133780483Y-164452882D01*
X133800000Y-164449000D01*
X135500000Y-164449000D01*
X135519517Y-164452882D01*
G37*
G36*
X97451546Y-164487797D02*
G01*
X97614728Y-164555389D01*
X97761588Y-164653518D01*
X97886482Y-164778412D01*
X97984611Y-164925272D01*
X98052203Y-165088454D01*
X98086661Y-165261687D01*
X98086661Y-165438313D01*
X98052203Y-165611546D01*
X97984611Y-165774728D01*
X97886482Y-165921588D01*
X97761588Y-166046482D01*
X97614728Y-166144611D01*
X97451546Y-166212203D01*
X97278313Y-166246661D01*
X97101687Y-166246661D01*
X96928454Y-166212203D01*
X96765272Y-166144611D01*
X96618412Y-166046482D01*
X96493518Y-165921588D01*
X96395389Y-165774728D01*
X96327797Y-165611546D01*
X96293339Y-165438313D01*
X96293339Y-165261687D01*
X96327797Y-165088454D01*
X96395389Y-164925272D01*
X96493518Y-164778412D01*
X96618412Y-164653518D01*
X96765272Y-164555389D01*
X96928454Y-164487797D01*
X97101687Y-164453339D01*
X97278313Y-164453339D01*
X97451546Y-164487797D01*
G37*
G36*
X99991546Y-164487797D02*
G01*
X100154728Y-164555389D01*
X100301588Y-164653518D01*
X100426482Y-164778412D01*
X100524611Y-164925272D01*
X100592203Y-165088454D01*
X100626661Y-165261687D01*
X100626661Y-165438313D01*
X100592203Y-165611546D01*
X100524611Y-165774728D01*
X100426482Y-165921588D01*
X100301588Y-166046482D01*
X100154728Y-166144611D01*
X99991546Y-166212203D01*
X99818313Y-166246661D01*
X99641687Y-166246661D01*
X99468454Y-166212203D01*
X99305272Y-166144611D01*
X99158412Y-166046482D01*
X99033518Y-165921588D01*
X98935389Y-165774728D01*
X98867797Y-165611546D01*
X98833339Y-165438313D01*
X98833339Y-165261687D01*
X98867797Y-165088454D01*
X98935389Y-164925272D01*
X99033518Y-164778412D01*
X99158412Y-164653518D01*
X99305272Y-164555389D01*
X99468454Y-164487797D01*
X99641687Y-164453339D01*
X99818313Y-164453339D01*
X99991546Y-164487797D01*
G37*
G36*
X129831546Y-164487797D02*
G01*
X129994728Y-164555389D01*
X130141588Y-164653518D01*
X130266482Y-164778412D01*
X130364611Y-164925272D01*
X130432203Y-165088454D01*
X130466661Y-165261687D01*
X130466661Y-165438313D01*
X130432203Y-165611546D01*
X130364611Y-165774728D01*
X130266482Y-165921588D01*
X130141588Y-166046482D01*
X129994728Y-166144611D01*
X129831546Y-166212203D01*
X129658313Y-166246661D01*
X129481687Y-166246661D01*
X129308454Y-166212203D01*
X129145272Y-166144611D01*
X128998412Y-166046482D01*
X128873518Y-165921588D01*
X128775389Y-165774728D01*
X128707797Y-165611546D01*
X128673339Y-165438313D01*
X128673339Y-165261687D01*
X128707797Y-165088454D01*
X128775389Y-164925272D01*
X128873518Y-164778412D01*
X128998412Y-164653518D01*
X129145272Y-164555389D01*
X129308454Y-164487797D01*
X129481687Y-164453339D01*
X129658313Y-164453339D01*
X129831546Y-164487797D01*
G37*
G36*
X132371546Y-164487797D02*
G01*
X132534728Y-164555389D01*
X132681588Y-164653518D01*
X132806482Y-164778412D01*
X132904611Y-164925272D01*
X132972203Y-165088454D01*
X133006661Y-165261687D01*
X133006661Y-165438313D01*
X132972203Y-165611546D01*
X132904611Y-165774728D01*
X132806482Y-165921588D01*
X132681588Y-166046482D01*
X132534728Y-166144611D01*
X132371546Y-166212203D01*
X132198313Y-166246661D01*
X132021687Y-166246661D01*
X131848454Y-166212203D01*
X131685272Y-166144611D01*
X131538412Y-166046482D01*
X131413518Y-165921588D01*
X131315389Y-165774728D01*
X131247797Y-165611546D01*
X131213339Y-165438313D01*
X131213339Y-165261687D01*
X131247797Y-165088454D01*
X131315389Y-164925272D01*
X131413518Y-164778412D01*
X131538412Y-164653518D01*
X131685272Y-164555389D01*
X131848454Y-164487797D01*
X132021687Y-164453339D01*
X132198313Y-164453339D01*
X132371546Y-164487797D01*
G37*
G36*
X111596038Y-165492190D02*
G01*
X111626399Y-165496187D01*
X111634036Y-165499748D01*
X111653093Y-165503539D01*
X111678332Y-165520404D01*
X111688444Y-165525119D01*
X111694596Y-165531271D01*
X111715057Y-165544943D01*
X111728728Y-165565403D01*
X111734880Y-165571555D01*
X111739594Y-165581664D01*
X111756461Y-165606907D01*
X111760251Y-165625965D01*
X111763812Y-165633600D01*
X111767807Y-165663950D01*
X111771000Y-165680000D01*
X111771000Y-166020000D01*
X111767806Y-166036052D01*
X111763812Y-166066399D01*
X111760252Y-166074032D01*
X111756461Y-166093093D01*
X111739592Y-166118337D01*
X111734880Y-166128444D01*
X111728730Y-166134593D01*
X111715057Y-166155057D01*
X111694593Y-166168730D01*
X111688444Y-166174880D01*
X111678337Y-166179592D01*
X111653093Y-166196461D01*
X111634032Y-166200252D01*
X111626399Y-166203812D01*
X111596051Y-166207807D01*
X111580000Y-166211000D01*
X111300000Y-166211000D01*
X111283948Y-166207807D01*
X111253600Y-166203812D01*
X111245965Y-166200251D01*
X111226907Y-166196461D01*
X111201664Y-166179594D01*
X111191555Y-166174880D01*
X111185403Y-166168728D01*
X111164943Y-166155057D01*
X111151271Y-166134596D01*
X111145119Y-166128444D01*
X111140404Y-166118332D01*
X111123539Y-166093093D01*
X111119748Y-166074036D01*
X111116187Y-166066399D01*
X111112189Y-166036037D01*
X111109000Y-166020000D01*
X111109000Y-165680000D01*
X111112189Y-165663963D01*
X111116187Y-165633600D01*
X111119748Y-165625961D01*
X111123539Y-165606907D01*
X111140402Y-165581669D01*
X111145119Y-165571555D01*
X111151273Y-165565400D01*
X111164943Y-165544943D01*
X111185400Y-165531273D01*
X111191555Y-165525119D01*
X111201669Y-165520402D01*
X111226907Y-165503539D01*
X111245961Y-165499748D01*
X111253600Y-165496187D01*
X111283964Y-165492189D01*
X111300000Y-165489000D01*
X111580000Y-165489000D01*
X111596038Y-165492190D01*
G37*
G36*
X112556038Y-165492190D02*
G01*
X112586399Y-165496187D01*
X112594036Y-165499748D01*
X112613093Y-165503539D01*
X112638332Y-165520404D01*
X112648444Y-165525119D01*
X112654596Y-165531271D01*
X112675057Y-165544943D01*
X112688728Y-165565403D01*
X112694880Y-165571555D01*
X112699594Y-165581664D01*
X112716461Y-165606907D01*
X112720251Y-165625965D01*
X112723812Y-165633600D01*
X112727807Y-165663950D01*
X112731000Y-165680000D01*
X112731000Y-166020000D01*
X112727806Y-166036052D01*
X112723812Y-166066399D01*
X112720252Y-166074032D01*
X112716461Y-166093093D01*
X112699592Y-166118337D01*
X112694880Y-166128444D01*
X112688730Y-166134593D01*
X112675057Y-166155057D01*
X112654593Y-166168730D01*
X112648444Y-166174880D01*
X112638337Y-166179592D01*
X112613093Y-166196461D01*
X112594032Y-166200252D01*
X112586399Y-166203812D01*
X112556051Y-166207807D01*
X112540000Y-166211000D01*
X112260000Y-166211000D01*
X112243948Y-166207807D01*
X112213600Y-166203812D01*
X112205965Y-166200251D01*
X112186907Y-166196461D01*
X112161664Y-166179594D01*
X112151555Y-166174880D01*
X112145403Y-166168728D01*
X112124943Y-166155057D01*
X112111271Y-166134596D01*
X112105119Y-166128444D01*
X112100404Y-166118332D01*
X112083539Y-166093093D01*
X112079748Y-166074036D01*
X112076187Y-166066399D01*
X112072189Y-166036037D01*
X112069000Y-166020000D01*
X112069000Y-165680000D01*
X112072189Y-165663963D01*
X112076187Y-165633600D01*
X112079748Y-165625961D01*
X112083539Y-165606907D01*
X112100402Y-165581669D01*
X112105119Y-165571555D01*
X112111273Y-165565400D01*
X112124943Y-165544943D01*
X112145400Y-165531273D01*
X112151555Y-165525119D01*
X112161669Y-165520402D01*
X112186907Y-165503539D01*
X112205961Y-165499748D01*
X112213600Y-165496187D01*
X112243964Y-165492189D01*
X112260000Y-165489000D01*
X112540000Y-165489000D01*
X112556038Y-165492190D01*
G37*
G36*
X103956038Y-165442190D02*
G01*
X103986399Y-165446187D01*
X103994036Y-165449748D01*
X104013093Y-165453539D01*
X104038332Y-165470404D01*
X104048444Y-165475119D01*
X104054596Y-165481271D01*
X104075057Y-165494943D01*
X104088728Y-165515403D01*
X104094880Y-165521555D01*
X104099594Y-165531664D01*
X104116461Y-165556907D01*
X104120251Y-165575965D01*
X104123812Y-165583600D01*
X104127807Y-165613950D01*
X104131000Y-165630000D01*
X104131000Y-165970000D01*
X104127806Y-165986052D01*
X104123812Y-166016399D01*
X104120252Y-166024032D01*
X104116461Y-166043093D01*
X104099592Y-166068337D01*
X104094880Y-166078444D01*
X104088730Y-166084593D01*
X104075057Y-166105057D01*
X104054593Y-166118730D01*
X104048444Y-166124880D01*
X104038337Y-166129592D01*
X104013093Y-166146461D01*
X103994032Y-166150252D01*
X103986399Y-166153812D01*
X103956051Y-166157807D01*
X103940000Y-166161000D01*
X103660000Y-166161000D01*
X103643948Y-166157807D01*
X103613600Y-166153812D01*
X103605965Y-166150251D01*
X103586907Y-166146461D01*
X103561664Y-166129594D01*
X103551555Y-166124880D01*
X103545403Y-166118728D01*
X103524943Y-166105057D01*
X103511271Y-166084596D01*
X103505119Y-166078444D01*
X103500404Y-166068332D01*
X103483539Y-166043093D01*
X103479748Y-166024036D01*
X103476187Y-166016399D01*
X103472189Y-165986037D01*
X103469000Y-165970000D01*
X103469000Y-165630000D01*
X103472189Y-165613963D01*
X103476187Y-165583600D01*
X103479748Y-165575961D01*
X103483539Y-165556907D01*
X103500402Y-165531669D01*
X103505119Y-165521555D01*
X103511273Y-165515400D01*
X103524943Y-165494943D01*
X103545400Y-165481273D01*
X103551555Y-165475119D01*
X103561669Y-165470402D01*
X103586907Y-165453539D01*
X103605961Y-165449748D01*
X103613600Y-165446187D01*
X103643964Y-165442189D01*
X103660000Y-165439000D01*
X103940000Y-165439000D01*
X103956038Y-165442190D01*
G37*
G36*
X104916038Y-165442190D02*
G01*
X104946399Y-165446187D01*
X104954036Y-165449748D01*
X104973093Y-165453539D01*
X104998332Y-165470404D01*
X105008444Y-165475119D01*
X105014596Y-165481271D01*
X105035057Y-165494943D01*
X105048728Y-165515403D01*
X105054880Y-165521555D01*
X105059594Y-165531664D01*
X105076461Y-165556907D01*
X105080251Y-165575965D01*
X105083812Y-165583600D01*
X105087807Y-165613950D01*
X105091000Y-165630000D01*
X105091000Y-165970000D01*
X105087806Y-165986052D01*
X105083812Y-166016399D01*
X105080252Y-166024032D01*
X105076461Y-166043093D01*
X105059592Y-166068337D01*
X105054880Y-166078444D01*
X105048730Y-166084593D01*
X105035057Y-166105057D01*
X105014593Y-166118730D01*
X105008444Y-166124880D01*
X104998337Y-166129592D01*
X104973093Y-166146461D01*
X104954032Y-166150252D01*
X104946399Y-166153812D01*
X104916051Y-166157807D01*
X104900000Y-166161000D01*
X104620000Y-166161000D01*
X104603948Y-166157807D01*
X104573600Y-166153812D01*
X104565965Y-166150251D01*
X104546907Y-166146461D01*
X104521664Y-166129594D01*
X104511555Y-166124880D01*
X104505403Y-166118728D01*
X104484943Y-166105057D01*
X104471271Y-166084596D01*
X104465119Y-166078444D01*
X104460404Y-166068332D01*
X104443539Y-166043093D01*
X104439748Y-166024036D01*
X104436187Y-166016399D01*
X104432189Y-165986037D01*
X104429000Y-165970000D01*
X104429000Y-165630000D01*
X104432189Y-165613963D01*
X104436187Y-165583600D01*
X104439748Y-165575961D01*
X104443539Y-165556907D01*
X104460402Y-165531669D01*
X104465119Y-165521555D01*
X104471273Y-165515400D01*
X104484943Y-165494943D01*
X104505400Y-165481273D01*
X104511555Y-165475119D01*
X104521669Y-165470402D01*
X104546907Y-165453539D01*
X104565961Y-165449748D01*
X104573600Y-165446187D01*
X104603964Y-165442189D01*
X104620000Y-165439000D01*
X104900000Y-165439000D01*
X104916038Y-165442190D01*
G37*
G36*
X120624793Y-165078931D02*
G01*
X120669933Y-165085508D01*
X120678217Y-165089558D01*
X120696054Y-165093106D01*
X120724897Y-165112378D01*
X120744844Y-165122130D01*
X120755622Y-165132908D01*
X120777484Y-165147516D01*
X120792091Y-165169377D01*
X120802869Y-165180155D01*
X120812619Y-165200099D01*
X120831894Y-165228946D01*
X120835442Y-165246783D01*
X120839491Y-165255066D01*
X120846065Y-165300190D01*
X120851000Y-165325000D01*
X120851000Y-165875000D01*
X120846064Y-165899812D01*
X120839491Y-165944933D01*
X120835442Y-165953214D01*
X120831894Y-165971054D01*
X120812617Y-165999903D01*
X120802869Y-166019844D01*
X120792093Y-166030619D01*
X120777484Y-166052484D01*
X120755619Y-166067093D01*
X120744844Y-166077869D01*
X120724903Y-166087617D01*
X120696054Y-166106894D01*
X120678214Y-166110442D01*
X120669933Y-166114491D01*
X120624812Y-166121064D01*
X120600000Y-166126000D01*
X120200000Y-166126000D01*
X120175190Y-166121065D01*
X120130066Y-166114491D01*
X120121783Y-166110442D01*
X120103946Y-166106894D01*
X120075099Y-166087619D01*
X120055155Y-166077869D01*
X120044377Y-166067091D01*
X120022516Y-166052484D01*
X120007908Y-166030622D01*
X119997130Y-166019844D01*
X119987378Y-165999897D01*
X119968106Y-165971054D01*
X119964558Y-165953217D01*
X119960508Y-165944933D01*
X119953931Y-165899793D01*
X119949000Y-165875000D01*
X119949000Y-165325000D01*
X119953931Y-165300209D01*
X119960508Y-165255066D01*
X119964558Y-165246780D01*
X119968106Y-165228946D01*
X119987376Y-165200105D01*
X119997130Y-165180155D01*
X120007910Y-165169374D01*
X120022516Y-165147516D01*
X120044374Y-165132910D01*
X120055155Y-165122130D01*
X120075105Y-165112376D01*
X120103946Y-165093106D01*
X120121780Y-165089558D01*
X120130066Y-165085508D01*
X120175209Y-165078931D01*
X120200000Y-165074000D01*
X120600000Y-165074000D01*
X120624793Y-165078931D01*
G37*
G36*
X122274793Y-165078931D02*
G01*
X122319933Y-165085508D01*
X122328217Y-165089558D01*
X122346054Y-165093106D01*
X122374897Y-165112378D01*
X122394844Y-165122130D01*
X122405622Y-165132908D01*
X122427484Y-165147516D01*
X122442091Y-165169377D01*
X122452869Y-165180155D01*
X122462619Y-165200099D01*
X122481894Y-165228946D01*
X122485442Y-165246783D01*
X122489491Y-165255066D01*
X122496065Y-165300190D01*
X122501000Y-165325000D01*
X122501000Y-165875000D01*
X122496064Y-165899812D01*
X122489491Y-165944933D01*
X122485442Y-165953214D01*
X122481894Y-165971054D01*
X122462617Y-165999903D01*
X122452869Y-166019844D01*
X122442093Y-166030619D01*
X122427484Y-166052484D01*
X122405619Y-166067093D01*
X122394844Y-166077869D01*
X122374903Y-166087617D01*
X122346054Y-166106894D01*
X122328214Y-166110442D01*
X122319933Y-166114491D01*
X122274812Y-166121064D01*
X122250000Y-166126000D01*
X121850000Y-166126000D01*
X121825190Y-166121065D01*
X121780066Y-166114491D01*
X121771783Y-166110442D01*
X121753946Y-166106894D01*
X121725099Y-166087619D01*
X121705155Y-166077869D01*
X121694377Y-166067091D01*
X121672516Y-166052484D01*
X121657908Y-166030622D01*
X121647130Y-166019844D01*
X121637378Y-165999897D01*
X121618106Y-165971054D01*
X121614558Y-165953217D01*
X121610508Y-165944933D01*
X121603931Y-165899793D01*
X121599000Y-165875000D01*
X121599000Y-165325000D01*
X121603931Y-165300209D01*
X121610508Y-165255066D01*
X121614558Y-165246780D01*
X121618106Y-165228946D01*
X121637376Y-165200105D01*
X121647130Y-165180155D01*
X121657910Y-165169374D01*
X121672516Y-165147516D01*
X121694374Y-165132910D01*
X121705155Y-165122130D01*
X121725105Y-165112376D01*
X121753946Y-165093106D01*
X121771780Y-165089558D01*
X121780066Y-165085508D01*
X121825209Y-165078931D01*
X121850000Y-165074000D01*
X122250000Y-165074000D01*
X122274793Y-165078931D01*
G37*
G36*
X119086038Y-165272190D02*
G01*
X119116399Y-165276187D01*
X119124036Y-165279748D01*
X119143093Y-165283539D01*
X119168332Y-165300404D01*
X119178444Y-165305119D01*
X119184596Y-165311271D01*
X119205057Y-165324943D01*
X119218728Y-165345403D01*
X119224880Y-165351555D01*
X119229594Y-165361664D01*
X119246461Y-165386907D01*
X119250251Y-165405965D01*
X119253812Y-165413600D01*
X119257807Y-165443950D01*
X119261000Y-165460000D01*
X119261000Y-165740000D01*
X119257806Y-165756052D01*
X119253812Y-165786399D01*
X119250252Y-165794032D01*
X119246461Y-165813093D01*
X119229592Y-165838337D01*
X119224880Y-165848444D01*
X119218730Y-165854593D01*
X119205057Y-165875057D01*
X119184593Y-165888730D01*
X119178444Y-165894880D01*
X119168337Y-165899592D01*
X119143093Y-165916461D01*
X119124032Y-165920252D01*
X119116399Y-165923812D01*
X119086051Y-165927807D01*
X119070000Y-165931000D01*
X118730000Y-165931000D01*
X118713948Y-165927807D01*
X118683600Y-165923812D01*
X118675965Y-165920251D01*
X118656907Y-165916461D01*
X118631664Y-165899594D01*
X118621555Y-165894880D01*
X118615403Y-165888728D01*
X118594943Y-165875057D01*
X118581271Y-165854596D01*
X118575119Y-165848444D01*
X118570404Y-165838332D01*
X118553539Y-165813093D01*
X118549748Y-165794036D01*
X118546187Y-165786399D01*
X118542189Y-165756037D01*
X118539000Y-165740000D01*
X118539000Y-165460000D01*
X118542189Y-165443963D01*
X118546187Y-165413600D01*
X118549748Y-165405961D01*
X118553539Y-165386907D01*
X118570402Y-165361669D01*
X118575119Y-165351555D01*
X118581273Y-165345400D01*
X118594943Y-165324943D01*
X118615400Y-165311273D01*
X118621555Y-165305119D01*
X118631669Y-165300402D01*
X118656907Y-165283539D01*
X118675961Y-165279748D01*
X118683600Y-165276187D01*
X118713964Y-165272189D01*
X118730000Y-165269000D01*
X119070000Y-165269000D01*
X119086038Y-165272190D01*
G37*
G36*
X119086038Y-164312190D02*
G01*
X119116399Y-164316187D01*
X119124036Y-164319748D01*
X119143093Y-164323539D01*
X119168332Y-164340404D01*
X119178444Y-164345119D01*
X119184596Y-164351271D01*
X119205057Y-164364943D01*
X119218728Y-164385403D01*
X119224880Y-164391555D01*
X119229594Y-164401664D01*
X119246461Y-164426907D01*
X119250251Y-164445965D01*
X119253812Y-164453600D01*
X119257807Y-164483950D01*
X119261000Y-164500000D01*
X119261000Y-164780000D01*
X119257806Y-164796052D01*
X119253812Y-164826399D01*
X119250252Y-164834032D01*
X119246461Y-164853093D01*
X119229592Y-164878337D01*
X119224880Y-164888444D01*
X119218730Y-164894593D01*
X119205057Y-164915057D01*
X119184593Y-164928730D01*
X119178444Y-164934880D01*
X119168337Y-164939592D01*
X119143093Y-164956461D01*
X119124032Y-164960252D01*
X119116399Y-164963812D01*
X119086051Y-164967807D01*
X119070000Y-164971000D01*
X118730000Y-164971000D01*
X118713948Y-164967807D01*
X118683600Y-164963812D01*
X118675965Y-164960251D01*
X118656907Y-164956461D01*
X118631664Y-164939594D01*
X118621555Y-164934880D01*
X118615403Y-164928728D01*
X118594943Y-164915057D01*
X118581271Y-164894596D01*
X118575119Y-164888444D01*
X118570404Y-164878332D01*
X118553539Y-164853093D01*
X118549748Y-164834036D01*
X118546187Y-164826399D01*
X118542189Y-164796037D01*
X118539000Y-164780000D01*
X118539000Y-164500000D01*
X118542189Y-164483963D01*
X118546187Y-164453600D01*
X118549748Y-164445961D01*
X118553539Y-164426907D01*
X118570402Y-164401669D01*
X118575119Y-164391555D01*
X118581273Y-164385400D01*
X118594943Y-164364943D01*
X118615400Y-164351273D01*
X118621555Y-164345119D01*
X118631669Y-164340402D01*
X118656907Y-164323539D01*
X118675961Y-164319748D01*
X118683600Y-164316187D01*
X118713964Y-164312189D01*
X118730000Y-164309000D01*
X119070000Y-164309000D01*
X119086038Y-164312190D01*
G37*
M02*
