G04 #@! TF.GenerationSoftware,KiCad,Pcbnew,9.0.2*
G04 #@! TF.CreationDate,2025-08-20T20:27:39-04:00*
G04 #@! TF.ProjectId,Trackball,54726163-6b62-4616-9c6c-2e6b69636164,rev?*
G04 #@! TF.SameCoordinates,Original*
G04 #@! TF.FileFunction,Copper,L1,Top*
G04 #@! TF.FilePolarity,Positive*
%FSLAX46Y46*%
G04 Gerber Fmt 4.6, Leading zero omitted, Abs format (unit mm)*
G04 Created by KiCad (PCBNEW 9.0.2) date 2025-08-20 20:27:39*
%MOMM*%
%LPD*%
G01*
G04 APERTURE LIST*
G04 Aperture macros list*
%AMRoundRect*
0 Rectangle with rounded corners*
0 $1 Rounding radius*
0 $2 $3 $4 $5 $6 $7 $8 $9 X,Y pos of 4 corners*
0 Add a 4 corners polygon primitive as box body*
4,1,4,$2,$3,$4,$5,$6,$7,$8,$9,$2,$3,0*
0 Add four circle primitives for the rounded corners*
1,1,$1+$1,$2,$3*
1,1,$1+$1,$4,$5*
1,1,$1+$1,$6,$7*
1,1,$1+$1,$8,$9*
0 Add four rect primitives between the rounded corners*
20,1,$1+$1,$2,$3,$4,$5,0*
20,1,$1+$1,$4,$5,$6,$7,0*
20,1,$1+$1,$6,$7,$8,$9,0*
20,1,$1+$1,$8,$9,$2,$3,0*%
G04 Aperture macros list end*
G04 #@! TA.AperFunction,SMDPad,CuDef*
%ADD10RoundRect,0.140000X0.170000X-0.140000X0.170000X0.140000X-0.170000X0.140000X-0.170000X-0.140000X0*%
G04 #@! TD*
G04 #@! TA.AperFunction,SMDPad,CuDef*
%ADD11RoundRect,0.140000X-0.140000X-0.170000X0.140000X-0.170000X0.140000X0.170000X-0.140000X0.170000X0*%
G04 #@! TD*
G04 #@! TA.AperFunction,SMDPad,CuDef*
%ADD12RoundRect,0.140000X0.140000X0.170000X-0.140000X0.170000X-0.140000X-0.170000X0.140000X-0.170000X0*%
G04 #@! TD*
G04 #@! TA.AperFunction,SMDPad,CuDef*
%ADD13RoundRect,0.150000X-0.150000X0.512500X-0.150000X-0.512500X0.150000X-0.512500X0.150000X0.512500X0*%
G04 #@! TD*
G04 #@! TA.AperFunction,SMDPad,CuDef*
%ADD14RoundRect,0.200000X-0.200000X-0.275000X0.200000X-0.275000X0.200000X0.275000X-0.200000X0.275000X0*%
G04 #@! TD*
G04 #@! TA.AperFunction,SMDPad,CuDef*
%ADD15RoundRect,0.250000X0.250000X0.475000X-0.250000X0.475000X-0.250000X-0.475000X0.250000X-0.475000X0*%
G04 #@! TD*
G04 #@! TA.AperFunction,ComponentPad*
%ADD16RoundRect,0.187500X-0.437500X-0.437500X0.437500X-0.437500X0.437500X0.437500X-0.437500X0.437500X0*%
G04 #@! TD*
G04 #@! TA.AperFunction,ComponentPad*
%ADD17O,1.250000X1.250000*%
G04 #@! TD*
G04 #@! TA.AperFunction,ComponentPad*
%ADD18R,1.700000X1.700000*%
G04 #@! TD*
G04 #@! TA.AperFunction,ComponentPad*
%ADD19C,1.700000*%
G04 #@! TD*
G04 #@! TA.AperFunction,ViaPad*
%ADD20C,0.800000*%
G04 #@! TD*
G04 #@! TA.AperFunction,Conductor*
%ADD21C,0.250000*%
G04 #@! TD*
G04 #@! TA.AperFunction,Conductor*
%ADD22C,0.500000*%
G04 #@! TD*
G04 APERTURE END LIST*
D10*
X118900000Y-165600000D03*
X118900000Y-164640000D03*
D11*
X104650000Y-178100000D03*
X105610000Y-178100000D03*
D12*
X105880000Y-171350000D03*
X104920000Y-171350000D03*
D11*
X103800000Y-165800000D03*
X104760000Y-165800000D03*
D12*
X105610000Y-175100000D03*
X104650000Y-175100000D03*
D13*
X105872000Y-167475000D03*
X104922000Y-167475000D03*
X103972000Y-167475000D03*
X103972000Y-169750000D03*
X105872000Y-169750000D03*
D11*
X111440000Y-165850000D03*
X112400000Y-165850000D03*
D14*
X120400000Y-165600000D03*
X122050000Y-165600000D03*
D12*
X105610000Y-176100000D03*
X104650000Y-176100000D03*
D15*
X105600000Y-173600000D03*
X103700000Y-173600000D03*
D12*
X105610000Y-177100000D03*
X104650000Y-177100000D03*
D16*
X111532000Y-167800000D03*
D17*
X113312000Y-167800000D03*
X115092000Y-167800000D03*
X116872000Y-167800000D03*
X118652000Y-167800000D03*
X120432000Y-167800000D03*
X122212000Y-167800000D03*
X123992000Y-167800000D03*
X124882000Y-178500000D03*
X123102000Y-178500000D03*
X121322000Y-178500000D03*
X119542000Y-178500000D03*
X117762000Y-178500000D03*
X115982000Y-178500000D03*
X114202000Y-178500000D03*
X112422000Y-178500000D03*
D18*
X94650000Y-165350000D03*
D19*
X97190000Y-165350000D03*
X99730000Y-165350000D03*
D18*
X134650000Y-165350000D03*
D19*
X132110000Y-165350000D03*
X129570000Y-165350000D03*
D20*
X109650000Y-178600000D03*
X102400000Y-164899000D03*
X126900000Y-179850000D03*
X107650000Y-173100000D03*
X134650000Y-162600000D03*
X115900000Y-162600000D03*
X126900000Y-174600000D03*
X94400000Y-162600000D03*
X102650000Y-179600000D03*
X104972000Y-169720437D03*
X115900000Y-166350000D03*
X106900000Y-168600000D03*
X126900000Y-171350000D03*
X125900000Y-162600000D03*
X103900000Y-162600000D03*
X122399047Y-180200000D03*
X106145495Y-179112508D03*
X106162653Y-178112653D03*
D21*
X121322000Y-178500000D02*
X122273000Y-179451000D01*
X122273000Y-179451000D02*
X126501000Y-179451000D01*
X126501000Y-179451000D02*
X126900000Y-179850000D01*
X121477303Y-178500000D02*
X121322000Y-178500000D01*
D22*
X104922000Y-167475000D02*
X104922000Y-165962000D01*
X109461677Y-178600000D02*
X109650000Y-178600000D01*
X103900000Y-163399000D02*
X102400000Y-164899000D01*
X104922000Y-165962000D02*
X104760000Y-165800000D01*
X103900000Y-162600000D02*
X103900000Y-163399000D01*
D21*
X106900000Y-176350000D02*
X106617706Y-176067706D01*
X122399047Y-180200000D02*
X107685413Y-180200000D01*
X106900000Y-179414587D02*
X106900000Y-176350000D01*
X107685413Y-180200000D02*
X106900000Y-179414587D01*
X105610000Y-177067706D02*
X105610000Y-176083853D01*
X106617706Y-176067706D02*
X105650000Y-176067706D01*
D22*
X107476000Y-175926000D02*
X107476000Y-179175999D01*
X105630000Y-175100000D02*
X106650000Y-175100000D01*
X114906000Y-179576000D02*
X115982000Y-178500000D01*
X107876000Y-179576000D02*
X114906000Y-179576000D01*
X105600000Y-173600000D02*
X105900000Y-173900000D01*
X105872000Y-169750000D02*
X105872000Y-171342000D01*
X107476000Y-179175999D02*
X107876000Y-179576000D01*
D21*
X105872000Y-171342000D02*
X105880000Y-171350000D01*
X105872000Y-171342000D02*
X106100000Y-171570000D01*
D22*
X106650000Y-175100000D02*
X107476000Y-175926000D01*
X105650000Y-173900000D02*
X105650000Y-175100000D01*
D21*
X105872000Y-173328000D02*
X105600000Y-173600000D01*
D22*
X105872000Y-171342000D02*
X105872000Y-173328000D01*
D21*
X105880000Y-173320000D02*
X105600000Y-173600000D01*
D22*
X103972000Y-167475000D02*
X103972000Y-168041600D01*
X105872000Y-167475000D02*
X105997000Y-167350000D01*
X105872000Y-168072000D02*
X105872000Y-167475000D01*
X103972000Y-168041600D02*
X104518900Y-168588500D01*
X110926000Y-165074000D02*
X118064001Y-165074000D01*
X118900000Y-165600000D02*
X120400000Y-165600000D01*
X100180000Y-165800000D02*
X103800000Y-165800000D01*
D21*
X99730000Y-165350000D02*
X99730000Y-165020000D01*
D22*
X120400000Y-167768000D02*
X120432000Y-167800000D01*
X99730000Y-165350000D02*
X100180000Y-165800000D01*
X103800000Y-167303000D02*
X103972000Y-167475000D01*
X118064001Y-165074000D02*
X118590001Y-165600000D01*
X105997000Y-167350000D02*
X108650000Y-167350000D01*
X120400000Y-165600000D02*
X120400000Y-167768000D01*
X108650000Y-167350000D02*
X110926000Y-165074000D01*
X104518900Y-168588500D02*
X105355500Y-168588500D01*
D21*
X99730000Y-165020000D02*
X99900000Y-164850000D01*
D22*
X118590001Y-165600000D02*
X118900000Y-165600000D01*
X105355500Y-168588500D02*
X105872000Y-168072000D01*
X103800000Y-165800000D02*
X103800000Y-167303000D01*
D21*
X105387204Y-179112508D02*
X104650000Y-178375304D01*
X106145495Y-179112508D02*
X105387204Y-179112508D01*
X104650000Y-178375304D02*
X104650000Y-178100000D01*
X106150000Y-178100000D02*
X106162653Y-178112653D01*
X105675306Y-178100000D02*
X106150000Y-178100000D01*
X111500000Y-167768000D02*
X111532000Y-167800000D01*
X111500000Y-165650000D02*
X111500000Y-167768000D01*
X122050000Y-165600000D02*
X122050000Y-167638000D01*
X122050000Y-167638000D02*
X122212000Y-167800000D01*
G04 #@! TA.AperFunction,Conductor*
G36*
X135405394Y-161125971D02*
G01*
X135558410Y-161139359D01*
X135579695Y-161143111D01*
X135722826Y-161181463D01*
X135743123Y-161188851D01*
X135877430Y-161251479D01*
X135896133Y-161262278D01*
X136017514Y-161347271D01*
X136034071Y-161361164D01*
X136138835Y-161465928D01*
X136152728Y-161482485D01*
X136237721Y-161603866D01*
X136248522Y-161622573D01*
X136311146Y-161756870D01*
X136318536Y-161777175D01*
X136356887Y-161920303D01*
X136360640Y-161941590D01*
X136374017Y-162094490D01*
X136374489Y-162105512D01*
X136367438Y-166165934D01*
X136367438Y-166165975D01*
X136367399Y-166184598D01*
X136367393Y-166184608D01*
X136367393Y-166187734D01*
X136367379Y-166187778D01*
X136366921Y-166198285D01*
X136353534Y-166351305D01*
X136349781Y-166372591D01*
X136311432Y-166515716D01*
X136304039Y-166536027D01*
X136241424Y-166670307D01*
X136230617Y-166689027D01*
X136145625Y-166810407D01*
X136131731Y-166826964D01*
X136026964Y-166931731D01*
X136010407Y-166945625D01*
X135889027Y-167030617D01*
X135870307Y-167041424D01*
X135736027Y-167104039D01*
X135715716Y-167111432D01*
X135572591Y-167149781D01*
X135551305Y-167153534D01*
X135402703Y-167166534D01*
X135402692Y-167166535D01*
X135392893Y-167167393D01*
X135384608Y-167167393D01*
X135381008Y-167170008D01*
X135362700Y-167172940D01*
X135357295Y-167172250D01*
X135343095Y-167174500D01*
X127799204Y-167174500D01*
X127789454Y-167174494D01*
X127789453Y-167174494D01*
X127789435Y-167174501D01*
X127783146Y-167180789D01*
X127783122Y-167180814D01*
X127781150Y-167182787D01*
X127774507Y-167189423D01*
X127774506Y-167189431D01*
X127774500Y-167189438D01*
X127774500Y-167200726D01*
X127772414Y-170568984D01*
X127766719Y-179763575D01*
X127766717Y-179764170D01*
X127766613Y-179783203D01*
X127766589Y-179783238D01*
X127766596Y-179786481D01*
X127766593Y-179787044D01*
X127766550Y-179787187D01*
X127766146Y-179796919D01*
X127753061Y-179950195D01*
X127749344Y-179971519D01*
X127711209Y-180114908D01*
X127703842Y-180135260D01*
X127641352Y-180269839D01*
X127630557Y-180288601D01*
X127545616Y-180410263D01*
X127531724Y-180426861D01*
X127426919Y-180531902D01*
X127410351Y-180545832D01*
X127288879Y-180631046D01*
X127270144Y-180641881D01*
X127259895Y-180646669D01*
X127135709Y-180704672D01*
X127115374Y-180712084D01*
X126972061Y-180750544D01*
X126950744Y-180754309D01*
X126797747Y-180767714D01*
X126786972Y-180768187D01*
X126784406Y-180768187D01*
X126784358Y-180768188D01*
X126783823Y-180768188D01*
X126783822Y-180768188D01*
X126770108Y-180768190D01*
X122977480Y-180768831D01*
X122910437Y-180749158D01*
X122864673Y-180696362D01*
X122854718Y-180627205D01*
X122876215Y-180576165D01*
X122875504Y-180575755D01*
X122878771Y-180570094D01*
X122879094Y-180569330D01*
X122879555Y-180568727D01*
X122879567Y-180568716D01*
X122958624Y-180431784D01*
X122999547Y-180279057D01*
X122999547Y-180120943D01*
X122958624Y-179968216D01*
X122948220Y-179950195D01*
X122879571Y-179831290D01*
X122879565Y-179831282D01*
X122767764Y-179719481D01*
X122767756Y-179719475D01*
X122630837Y-179640426D01*
X122630833Y-179640424D01*
X122630831Y-179640423D01*
X122478104Y-179599500D01*
X122319990Y-179599500D01*
X122167263Y-179640423D01*
X122167256Y-179640426D01*
X122030337Y-179719475D01*
X122030329Y-179719481D01*
X121912780Y-179837031D01*
X121910534Y-179834785D01*
X121866192Y-179867179D01*
X121824217Y-179874500D01*
X115543965Y-179874500D01*
X115476926Y-179854815D01*
X115431171Y-179802011D01*
X115421227Y-179732853D01*
X115450252Y-179669297D01*
X115456284Y-179662819D01*
X115602277Y-179516826D01*
X115764505Y-179354597D01*
X115825826Y-179321114D01*
X115876376Y-179320663D01*
X115900692Y-179325500D01*
X115900695Y-179325500D01*
X116063307Y-179325500D01*
X116170598Y-179304157D01*
X116222789Y-179293776D01*
X116373021Y-179231548D01*
X116373023Y-179231547D01*
X116440169Y-179186680D01*
X116508225Y-179141208D01*
X116623208Y-179026225D01*
X116713548Y-178891021D01*
X116757439Y-178785059D01*
X116801280Y-178730655D01*
X116867574Y-178708590D01*
X116935273Y-178725869D01*
X116982884Y-178777006D01*
X116986561Y-178785059D01*
X117030450Y-178891019D01*
X117030452Y-178891023D01*
X117120788Y-179026220D01*
X117120794Y-179026228D01*
X117235771Y-179141205D01*
X117235779Y-179141211D01*
X117370976Y-179231547D01*
X117370980Y-179231549D01*
X117517807Y-179292366D01*
X117521211Y-179293776D01*
X117521215Y-179293776D01*
X117521216Y-179293777D01*
X117680692Y-179325500D01*
X117680695Y-179325500D01*
X117843307Y-179325500D01*
X117950598Y-179304157D01*
X118002789Y-179293776D01*
X118153021Y-179231548D01*
X118153023Y-179231547D01*
X118220169Y-179186680D01*
X118288225Y-179141208D01*
X118403208Y-179026225D01*
X118493548Y-178891021D01*
X118537439Y-178785059D01*
X118581280Y-178730655D01*
X118647574Y-178708590D01*
X118715273Y-178725869D01*
X118762884Y-178777006D01*
X118766561Y-178785059D01*
X118810450Y-178891019D01*
X118810452Y-178891023D01*
X118900788Y-179026220D01*
X118900794Y-179026228D01*
X119015771Y-179141205D01*
X119015779Y-179141211D01*
X119150976Y-179231547D01*
X119150980Y-179231549D01*
X119297807Y-179292366D01*
X119301211Y-179293776D01*
X119301215Y-179293776D01*
X119301216Y-179293777D01*
X119460692Y-179325500D01*
X119460695Y-179325500D01*
X119623307Y-179325500D01*
X119730598Y-179304157D01*
X119782789Y-179293776D01*
X119933021Y-179231548D01*
X119933023Y-179231547D01*
X120000169Y-179186680D01*
X120068225Y-179141208D01*
X120158118Y-179051314D01*
X120219439Y-179017831D01*
X120289131Y-179022815D01*
X120345065Y-179064686D01*
X120356282Y-179082701D01*
X120359807Y-179089620D01*
X120359816Y-179089635D01*
X120367809Y-179100634D01*
X120367811Y-179100635D01*
X120947000Y-178521446D01*
X120947000Y-178549370D01*
X120972556Y-178644745D01*
X121021925Y-178730255D01*
X121091745Y-178800075D01*
X121177255Y-178849444D01*
X121272630Y-178875000D01*
X121300554Y-178875000D01*
X120721364Y-179454189D01*
X120732368Y-179462185D01*
X120890149Y-179542579D01*
X120890152Y-179542580D01*
X121058560Y-179597298D01*
X121233456Y-179625000D01*
X121410544Y-179625000D01*
X121585439Y-179597298D01*
X121753847Y-179542580D01*
X121753850Y-179542578D01*
X121911633Y-179462184D01*
X121922634Y-179454189D01*
X121922635Y-179454188D01*
X121343447Y-178875000D01*
X121371370Y-178875000D01*
X121466745Y-178849444D01*
X121552255Y-178800075D01*
X121622075Y-178730255D01*
X121671444Y-178644745D01*
X121697000Y-178549370D01*
X121697000Y-178521446D01*
X122276189Y-179100635D01*
X122276189Y-179100634D01*
X122284185Y-179089631D01*
X122287715Y-179082705D01*
X122335688Y-179031908D01*
X122403508Y-179015111D01*
X122469644Y-179037647D01*
X122485882Y-179051316D01*
X122575771Y-179141205D01*
X122575779Y-179141211D01*
X122710976Y-179231547D01*
X122710980Y-179231549D01*
X122857807Y-179292366D01*
X122861211Y-179293776D01*
X122861215Y-179293776D01*
X122861216Y-179293777D01*
X123020692Y-179325500D01*
X123020695Y-179325500D01*
X123183307Y-179325500D01*
X123290598Y-179304157D01*
X123342789Y-179293776D01*
X123493021Y-179231548D01*
X123493023Y-179231547D01*
X123560169Y-179186680D01*
X123628225Y-179141208D01*
X123743208Y-179026225D01*
X123833548Y-178891021D01*
X123877439Y-178785059D01*
X123921280Y-178730655D01*
X123987574Y-178708590D01*
X124055273Y-178725869D01*
X124102884Y-178777006D01*
X124106561Y-178785059D01*
X124150450Y-178891019D01*
X124150452Y-178891023D01*
X124240788Y-179026220D01*
X124240794Y-179026228D01*
X124355771Y-179141205D01*
X124355779Y-179141211D01*
X124490976Y-179231547D01*
X124490980Y-179231549D01*
X124637807Y-179292366D01*
X124641211Y-179293776D01*
X124641215Y-179293776D01*
X124641216Y-179293777D01*
X124800692Y-179325500D01*
X124800695Y-179325500D01*
X124963307Y-179325500D01*
X125070598Y-179304157D01*
X125122789Y-179293776D01*
X125273021Y-179231548D01*
X125273023Y-179231547D01*
X125340169Y-179186680D01*
X125408225Y-179141208D01*
X125523208Y-179026225D01*
X125613548Y-178891021D01*
X125675776Y-178740789D01*
X125694881Y-178644745D01*
X125707500Y-178581307D01*
X125707500Y-178418692D01*
X125675777Y-178259216D01*
X125675776Y-178259215D01*
X125675776Y-178259211D01*
X125630770Y-178150556D01*
X125613549Y-178108980D01*
X125613547Y-178108976D01*
X125523211Y-177973779D01*
X125523205Y-177973771D01*
X125408228Y-177858794D01*
X125408220Y-177858788D01*
X125273024Y-177768453D01*
X125262420Y-177764061D01*
X125208017Y-177720219D01*
X125185953Y-177653925D01*
X125203233Y-177586226D01*
X125254370Y-177538616D01*
X125309874Y-177525500D01*
X125962562Y-177525500D01*
X125977500Y-177510562D01*
X125977500Y-168789438D01*
X125962562Y-168774500D01*
X124419874Y-168774500D01*
X124352835Y-168754815D01*
X124307080Y-168702011D01*
X124297136Y-168632853D01*
X124326161Y-168569297D01*
X124372420Y-168535939D01*
X124383021Y-168531548D01*
X124518225Y-168441208D01*
X124633208Y-168326225D01*
X124701083Y-168224643D01*
X124723547Y-168191023D01*
X124723549Y-168191019D01*
X124765851Y-168088893D01*
X124785776Y-168040789D01*
X124808908Y-167924500D01*
X124817500Y-167881307D01*
X124817500Y-167718692D01*
X124785777Y-167559216D01*
X124785776Y-167559215D01*
X124785776Y-167559211D01*
X124767439Y-167514941D01*
X124723549Y-167408980D01*
X124723547Y-167408976D01*
X124633211Y-167273779D01*
X124633205Y-167273771D01*
X124518228Y-167158794D01*
X124518220Y-167158788D01*
X124383023Y-167068452D01*
X124383019Y-167068450D01*
X124232793Y-167006225D01*
X124232783Y-167006222D01*
X124073307Y-166974500D01*
X124073305Y-166974500D01*
X123910695Y-166974500D01*
X123910693Y-166974500D01*
X123751216Y-167006222D01*
X123751206Y-167006225D01*
X123600980Y-167068450D01*
X123600976Y-167068452D01*
X123465779Y-167158788D01*
X123465771Y-167158794D01*
X123350794Y-167273771D01*
X123350788Y-167273779D01*
X123260452Y-167408976D01*
X123216561Y-167514941D01*
X123172720Y-167569344D01*
X123106426Y-167591409D01*
X123038727Y-167574130D01*
X122991116Y-167522993D01*
X122987439Y-167514941D01*
X122943547Y-167408976D01*
X122853211Y-167273779D01*
X122853205Y-167273771D01*
X122738228Y-167158794D01*
X122738220Y-167158788D01*
X122603022Y-167068452D01*
X122452047Y-167005916D01*
X122397644Y-166962075D01*
X122375579Y-166895781D01*
X122375500Y-166891355D01*
X122375500Y-166336533D01*
X122395185Y-166269494D01*
X122443203Y-166226049D01*
X122488342Y-166203050D01*
X122578050Y-166113342D01*
X122635646Y-166000304D01*
X122635646Y-166000302D01*
X122635647Y-166000301D01*
X122650499Y-165906524D01*
X122650500Y-165906519D01*
X122650499Y-165293482D01*
X122649868Y-165289500D01*
X122645171Y-165259839D01*
X122643063Y-165246530D01*
X128519500Y-165246530D01*
X128519500Y-165453469D01*
X128559868Y-165656412D01*
X128559870Y-165656420D01*
X128625939Y-165815925D01*
X128639059Y-165847598D01*
X128678432Y-165906524D01*
X128754024Y-166019657D01*
X128900342Y-166165975D01*
X128900345Y-166165977D01*
X129072402Y-166280941D01*
X129263580Y-166360130D01*
X129408052Y-166388867D01*
X129466530Y-166400499D01*
X129466534Y-166400500D01*
X129466535Y-166400500D01*
X129673466Y-166400500D01*
X129673467Y-166400499D01*
X129876420Y-166360130D01*
X130067598Y-166280941D01*
X130239655Y-166165977D01*
X130385977Y-166019655D01*
X130500941Y-165847598D01*
X130580130Y-165656420D01*
X130620500Y-165453465D01*
X130620500Y-165246535D01*
X130620499Y-165246530D01*
X131059500Y-165246530D01*
X131059500Y-165453469D01*
X131099868Y-165656412D01*
X131099870Y-165656420D01*
X131165939Y-165815925D01*
X131179059Y-165847598D01*
X131218432Y-165906524D01*
X131294024Y-166019657D01*
X131440342Y-166165975D01*
X131440345Y-166165977D01*
X131612402Y-166280941D01*
X131803580Y-166360130D01*
X131948052Y-166388867D01*
X132006530Y-166400499D01*
X132006534Y-166400500D01*
X132006535Y-166400500D01*
X132213466Y-166400500D01*
X132213467Y-166400499D01*
X132416420Y-166360130D01*
X132607598Y-166280941D01*
X132779655Y-166165977D01*
X132925977Y-166019655D01*
X133040941Y-165847598D01*
X133061439Y-165798112D01*
X133105279Y-165743708D01*
X133171573Y-165721643D01*
X133239273Y-165738922D01*
X133286884Y-165790059D01*
X133300000Y-165845564D01*
X133300000Y-166247844D01*
X133306401Y-166307372D01*
X133306403Y-166307379D01*
X133356645Y-166442086D01*
X133356649Y-166442093D01*
X133442809Y-166557187D01*
X133442812Y-166557190D01*
X133557906Y-166643350D01*
X133557913Y-166643354D01*
X133692620Y-166693596D01*
X133692627Y-166693598D01*
X133752155Y-166699999D01*
X133752172Y-166700000D01*
X134400000Y-166700000D01*
X134400000Y-165783012D01*
X134457007Y-165815925D01*
X134584174Y-165850000D01*
X134715826Y-165850000D01*
X134842993Y-165815925D01*
X134900000Y-165783012D01*
X134900000Y-166700000D01*
X135547828Y-166700000D01*
X135547844Y-166699999D01*
X135607372Y-166693598D01*
X135607379Y-166693596D01*
X135742086Y-166643354D01*
X135742093Y-166643350D01*
X135857187Y-166557190D01*
X135857190Y-166557187D01*
X135943350Y-166442093D01*
X135943354Y-166442086D01*
X135993596Y-166307379D01*
X135993598Y-166307372D01*
X135999999Y-166247844D01*
X136000000Y-166247827D01*
X136000000Y-165600000D01*
X135083012Y-165600000D01*
X135115925Y-165542993D01*
X135150000Y-165415826D01*
X135150000Y-165284174D01*
X135115925Y-165157007D01*
X135083012Y-165100000D01*
X136000000Y-165100000D01*
X136000000Y-164452172D01*
X135999999Y-164452155D01*
X135993598Y-164392627D01*
X135993596Y-164392620D01*
X135943354Y-164257913D01*
X135943350Y-164257906D01*
X135857190Y-164142812D01*
X135857187Y-164142809D01*
X135742093Y-164056649D01*
X135742086Y-164056645D01*
X135607379Y-164006403D01*
X135607372Y-164006401D01*
X135547844Y-164000000D01*
X134900000Y-164000000D01*
X134900000Y-164916988D01*
X134842993Y-164884075D01*
X134715826Y-164850000D01*
X134584174Y-164850000D01*
X134457007Y-164884075D01*
X134400000Y-164916988D01*
X134400000Y-164000000D01*
X133752155Y-164000000D01*
X133692627Y-164006401D01*
X133692620Y-164006403D01*
X133557913Y-164056645D01*
X133557906Y-164056649D01*
X133442812Y-164142809D01*
X133442809Y-164142812D01*
X133356649Y-164257906D01*
X133356645Y-164257913D01*
X133306403Y-164392620D01*
X133306401Y-164392627D01*
X133300000Y-164452155D01*
X133300000Y-164854435D01*
X133280315Y-164921474D01*
X133227511Y-164967229D01*
X133158353Y-164977173D01*
X133094797Y-164948148D01*
X133061439Y-164901888D01*
X133040941Y-164852403D01*
X133040941Y-164852402D01*
X132925977Y-164680345D01*
X132925975Y-164680342D01*
X132779657Y-164534024D01*
X132657130Y-164452155D01*
X132607598Y-164419059D01*
X132559386Y-164399089D01*
X132416420Y-164339870D01*
X132416412Y-164339868D01*
X132213469Y-164299500D01*
X132213465Y-164299500D01*
X132006535Y-164299500D01*
X132006530Y-164299500D01*
X131803587Y-164339868D01*
X131803579Y-164339870D01*
X131612403Y-164419058D01*
X131440342Y-164534024D01*
X131294024Y-164680342D01*
X131179058Y-164852403D01*
X131099870Y-165043579D01*
X131099868Y-165043587D01*
X131059500Y-165246530D01*
X130620499Y-165246530D01*
X130580130Y-165043580D01*
X130500941Y-164852402D01*
X130385977Y-164680345D01*
X130385975Y-164680342D01*
X130239657Y-164534024D01*
X130117130Y-164452155D01*
X130067598Y-164419059D01*
X130019386Y-164399089D01*
X129876420Y-164339870D01*
X129876412Y-164339868D01*
X129673469Y-164299500D01*
X129673465Y-164299500D01*
X129466535Y-164299500D01*
X129466530Y-164299500D01*
X129263587Y-164339868D01*
X129263579Y-164339870D01*
X129072403Y-164419058D01*
X128900342Y-164534024D01*
X128754024Y-164680342D01*
X128639058Y-164852403D01*
X128559870Y-165043579D01*
X128559868Y-165043587D01*
X128519500Y-165246530D01*
X122643063Y-165246530D01*
X122635646Y-165199696D01*
X122578050Y-165086658D01*
X122578046Y-165086654D01*
X122578045Y-165086652D01*
X122488347Y-164996954D01*
X122488344Y-164996952D01*
X122488342Y-164996950D01*
X122396004Y-164949901D01*
X122375301Y-164939352D01*
X122281524Y-164924500D01*
X121818482Y-164924500D01*
X121737519Y-164937323D01*
X121724696Y-164939354D01*
X121611658Y-164996950D01*
X121611657Y-164996951D01*
X121611652Y-164996954D01*
X121521954Y-165086652D01*
X121521951Y-165086657D01*
X121464352Y-165199698D01*
X121449500Y-165293475D01*
X121449500Y-165906517D01*
X121460188Y-165974000D01*
X121464354Y-166000304D01*
X121521950Y-166113342D01*
X121521952Y-166113344D01*
X121521954Y-166113347D01*
X121611652Y-166203045D01*
X121611654Y-166203046D01*
X121611658Y-166203050D01*
X121656796Y-166226049D01*
X121707591Y-166274023D01*
X121724500Y-166336533D01*
X121724500Y-167068704D01*
X121704815Y-167135743D01*
X121688181Y-167156385D01*
X121570794Y-167273771D01*
X121570788Y-167273779D01*
X121480452Y-167408976D01*
X121436561Y-167514941D01*
X121392720Y-167569344D01*
X121326426Y-167591409D01*
X121258727Y-167574130D01*
X121211116Y-167522993D01*
X121207439Y-167514941D01*
X121163547Y-167408976D01*
X121073211Y-167273779D01*
X121073205Y-167273771D01*
X120958228Y-167158794D01*
X120905608Y-167123634D01*
X120860804Y-167070021D01*
X120850500Y-167020532D01*
X120850500Y-166242254D01*
X120870185Y-166175215D01*
X120886820Y-166154572D01*
X120928046Y-166113346D01*
X120928050Y-166113342D01*
X120985646Y-166000304D01*
X120985646Y-166000302D01*
X120985647Y-166000301D01*
X121000499Y-165906524D01*
X121000500Y-165906519D01*
X121000499Y-165293482D01*
X120985646Y-165199696D01*
X120928050Y-165086658D01*
X120928046Y-165086654D01*
X120928045Y-165086652D01*
X120838347Y-164996954D01*
X120838344Y-164996952D01*
X120838342Y-164996950D01*
X120746004Y-164949901D01*
X120725301Y-164939352D01*
X120631524Y-164924500D01*
X120168482Y-164924500D01*
X120087519Y-164937323D01*
X120074696Y-164939354D01*
X119961658Y-164996950D01*
X119961657Y-164996951D01*
X119961655Y-164996951D01*
X119896901Y-165061706D01*
X119835577Y-165095190D01*
X119765886Y-165090205D01*
X119709952Y-165048334D01*
X119685536Y-164982869D01*
X119690144Y-164939429D01*
X119704505Y-164890000D01*
X119024000Y-164890000D01*
X118956961Y-164870315D01*
X118911206Y-164817511D01*
X118900000Y-164766000D01*
X118900000Y-164640000D01*
X118774000Y-164640000D01*
X118706961Y-164620315D01*
X118661206Y-164567511D01*
X118650000Y-164516000D01*
X118650000Y-164390000D01*
X119150000Y-164390000D01*
X119704504Y-164390000D01*
X119662031Y-164243804D01*
X119579721Y-164104625D01*
X119579714Y-164104616D01*
X119465383Y-163990285D01*
X119465374Y-163990278D01*
X119326195Y-163907968D01*
X119326190Y-163907966D01*
X119170918Y-163862855D01*
X119170912Y-163862854D01*
X119150000Y-163861209D01*
X119150000Y-164390000D01*
X118650000Y-164390000D01*
X118650000Y-163861210D01*
X118649999Y-163861209D01*
X118629087Y-163862854D01*
X118629081Y-163862855D01*
X118473809Y-163907966D01*
X118473804Y-163907968D01*
X118334625Y-163990278D01*
X118334616Y-163990285D01*
X118220285Y-164104616D01*
X118220278Y-164104625D01*
X118137969Y-164243803D01*
X118092854Y-164399089D01*
X118092854Y-164399092D01*
X118090000Y-164435355D01*
X118090000Y-164499500D01*
X118070315Y-164566539D01*
X118017511Y-164612294D01*
X117966000Y-164623500D01*
X110866691Y-164623500D01*
X110776325Y-164647713D01*
X110776324Y-164647712D01*
X110752116Y-164654199D01*
X110752113Y-164654200D01*
X110649386Y-164713511D01*
X110649383Y-164713513D01*
X108499716Y-166863181D01*
X108438393Y-166896666D01*
X108412035Y-166899500D01*
X106458747Y-166899500D01*
X106391708Y-166879815D01*
X106347346Y-166829960D01*
X106346344Y-166827910D01*
X106311198Y-166756017D01*
X106311196Y-166756015D01*
X106311196Y-166756014D01*
X106228485Y-166673303D01*
X106123391Y-166621926D01*
X106055261Y-166612000D01*
X106055260Y-166612000D01*
X105690033Y-166612000D01*
X105660143Y-166603223D01*
X105629752Y-166596361D01*
X105626101Y-166593227D01*
X105622994Y-166592315D01*
X105601664Y-166574989D01*
X105471245Y-166442501D01*
X105454923Y-166412041D01*
X105438448Y-166381870D01*
X105438484Y-166381364D01*
X105438244Y-166380916D01*
X105440972Y-166346562D01*
X105443432Y-166312178D01*
X105443758Y-166311493D01*
X105443777Y-166311265D01*
X105444021Y-166310943D01*
X105452883Y-166292389D01*
X105492032Y-166226193D01*
X105492033Y-166226190D01*
X105537144Y-166070918D01*
X105537145Y-166070912D01*
X105538790Y-166050000D01*
X105010000Y-166050000D01*
X105010000Y-166182500D01*
X105048000Y-166182500D01*
X105115039Y-166202185D01*
X105160794Y-166254989D01*
X105172000Y-166306500D01*
X105172000Y-167351000D01*
X105152315Y-167418039D01*
X105099511Y-167463794D01*
X105048000Y-167475000D01*
X104796000Y-167475000D01*
X104728961Y-167455315D01*
X104683206Y-167402511D01*
X104672000Y-167351000D01*
X104672000Y-166740000D01*
X104634000Y-166740000D01*
X104566961Y-166720315D01*
X104521206Y-166667511D01*
X104510000Y-166616000D01*
X104510000Y-164995494D01*
X105010000Y-164995494D01*
X105010000Y-165550000D01*
X105538790Y-165550000D01*
X105537145Y-165529089D01*
X105492031Y-165373804D01*
X105409721Y-165234625D01*
X105409714Y-165234616D01*
X105295383Y-165120285D01*
X105295374Y-165120278D01*
X105156193Y-165037967D01*
X105156190Y-165037965D01*
X105010001Y-164995493D01*
X105010000Y-164995494D01*
X104510000Y-164995494D01*
X104509998Y-164995493D01*
X104363809Y-165037965D01*
X104363806Y-165037967D01*
X104224625Y-165120278D01*
X104224620Y-165120282D01*
X104110282Y-165234621D01*
X104105499Y-165240788D01*
X104103544Y-165239272D01*
X104061362Y-165278644D01*
X103992618Y-165291135D01*
X103989537Y-165290768D01*
X103979904Y-165289500D01*
X103620105Y-165289500D01*
X103607686Y-165291135D01*
X103570513Y-165296028D01*
X103570511Y-165296029D01*
X103570509Y-165296029D01*
X103480757Y-165337882D01*
X103428352Y-165349500D01*
X100902745Y-165349500D01*
X100835706Y-165329815D01*
X100789951Y-165277011D01*
X100781128Y-165249691D01*
X100755231Y-165119500D01*
X100740130Y-165043580D01*
X100660941Y-164852402D01*
X100545977Y-164680345D01*
X100545975Y-164680342D01*
X100399657Y-164534024D01*
X100277130Y-164452155D01*
X100227598Y-164419059D01*
X100179386Y-164399089D01*
X100036420Y-164339870D01*
X100036412Y-164339868D01*
X99833469Y-164299500D01*
X99833465Y-164299500D01*
X99626535Y-164299500D01*
X99626530Y-164299500D01*
X99423587Y-164339868D01*
X99423579Y-164339870D01*
X99232403Y-164419058D01*
X99060342Y-164534024D01*
X98914024Y-164680342D01*
X98799058Y-164852403D01*
X98719870Y-165043579D01*
X98719868Y-165043587D01*
X98679500Y-165246530D01*
X98679500Y-165453469D01*
X98719868Y-165656412D01*
X98719870Y-165656420D01*
X98785939Y-165815925D01*
X98799059Y-165847598D01*
X98838432Y-165906524D01*
X98914024Y-166019657D01*
X99060342Y-166165975D01*
X99060345Y-166165977D01*
X99232402Y-166280941D01*
X99423580Y-166360130D01*
X99568052Y-166388867D01*
X99626530Y-166400499D01*
X99626534Y-166400500D01*
X99626535Y-166400500D01*
X99833466Y-166400500D01*
X99833467Y-166400499D01*
X100036420Y-166360130D01*
X100227598Y-166280941D01*
X100241882Y-166271396D01*
X100308559Y-166250520D01*
X100310771Y-166250500D01*
X103225500Y-166250500D01*
X103292539Y-166270185D01*
X103338294Y-166322989D01*
X103349500Y-166374500D01*
X103349500Y-167362308D01*
X103370986Y-167442499D01*
X103380200Y-167476885D01*
X103380200Y-167476886D01*
X103380201Y-167476887D01*
X103439511Y-167579614D01*
X103439514Y-167579617D01*
X103444458Y-167586060D01*
X103442067Y-167587894D01*
X103468666Y-167636607D01*
X103471500Y-167662965D01*
X103471500Y-168020760D01*
X103481426Y-168088891D01*
X103532803Y-168193985D01*
X103537781Y-168198963D01*
X103557487Y-168224643D01*
X103611511Y-168318214D01*
X103611513Y-168318216D01*
X103968616Y-168675319D01*
X104002101Y-168736642D01*
X103997117Y-168806334D01*
X103955245Y-168862267D01*
X103889781Y-168886684D01*
X103880935Y-168887000D01*
X103788739Y-168887000D01*
X103720608Y-168896926D01*
X103615514Y-168948303D01*
X103532803Y-169031014D01*
X103481426Y-169136108D01*
X103471500Y-169204239D01*
X103471500Y-170295760D01*
X103481426Y-170363891D01*
X103532803Y-170468985D01*
X103615514Y-170551696D01*
X103615515Y-170551696D01*
X103615517Y-170551698D01*
X103720607Y-170603073D01*
X103754673Y-170608036D01*
X103788739Y-170613000D01*
X104154383Y-170613000D01*
X104221422Y-170632685D01*
X104267177Y-170685489D01*
X104277121Y-170754647D01*
X104261115Y-170800121D01*
X104187968Y-170923804D01*
X104187966Y-170923809D01*
X104142855Y-171079081D01*
X104142854Y-171079087D01*
X104141209Y-171099999D01*
X104141210Y-171100000D01*
X104670000Y-171100000D01*
X104670000Y-170545494D01*
X104669998Y-170545493D01*
X104593804Y-170567630D01*
X104523934Y-170567431D01*
X104465264Y-170529489D01*
X104436421Y-170465850D01*
X104446562Y-170396721D01*
X104447809Y-170394093D01*
X104462573Y-170363892D01*
X104472500Y-170295760D01*
X104472500Y-169204240D01*
X104469096Y-169180879D01*
X104478908Y-169111702D01*
X104524563Y-169058812D01*
X104591566Y-169039000D01*
X105252200Y-169039000D01*
X105319239Y-169058685D01*
X105364994Y-169111489D01*
X105374938Y-169180647D01*
X105374904Y-169180879D01*
X105371500Y-169204240D01*
X105371500Y-170295760D01*
X105381426Y-170363892D01*
X105381426Y-170363893D01*
X105396853Y-170395449D01*
X105408611Y-170464322D01*
X105381268Y-170528619D01*
X105323503Y-170567925D01*
X105253657Y-170569762D01*
X105250857Y-170568984D01*
X105170001Y-170545493D01*
X105170000Y-170545494D01*
X105170000Y-172154503D01*
X105262906Y-172127513D01*
X105332775Y-172127713D01*
X105391445Y-172165656D01*
X105420288Y-172229294D01*
X105421500Y-172246590D01*
X105421500Y-172550500D01*
X105401815Y-172617539D01*
X105349011Y-172663294D01*
X105298624Y-172674255D01*
X105298630Y-172674364D01*
X105297986Y-172674394D01*
X105297500Y-172674500D01*
X105295730Y-172674500D01*
X105265300Y-172677353D01*
X105265298Y-172677353D01*
X105137119Y-172722206D01*
X105137117Y-172722207D01*
X105027850Y-172802850D01*
X104947207Y-172912117D01*
X104924842Y-172976033D01*
X104884120Y-173032808D01*
X104819167Y-173058555D01*
X104750605Y-173045098D01*
X104700203Y-172996711D01*
X104690095Y-172974081D01*
X104634358Y-172805880D01*
X104634356Y-172805875D01*
X104542315Y-172656654D01*
X104418345Y-172532684D01*
X104269124Y-172440643D01*
X104269119Y-172440641D01*
X104102697Y-172385494D01*
X104102690Y-172385493D01*
X103999986Y-172375000D01*
X103950000Y-172375000D01*
X103950000Y-174850000D01*
X104526000Y-174850000D01*
X104593039Y-174869685D01*
X104638794Y-174922489D01*
X104650000Y-174974000D01*
X104650000Y-175100000D01*
X104776000Y-175100000D01*
X104843039Y-175119685D01*
X104888794Y-175172489D01*
X104900000Y-175224000D01*
X104900000Y-176976000D01*
X104880315Y-177043039D01*
X104827511Y-177088794D01*
X104776000Y-177100000D01*
X104650000Y-177100000D01*
X104650000Y-177226000D01*
X104630315Y-177293039D01*
X104577511Y-177338794D01*
X104526000Y-177350000D01*
X103871210Y-177350000D01*
X103872854Y-177370910D01*
X103917968Y-177526195D01*
X104000278Y-177665374D01*
X104000285Y-177665383D01*
X104114616Y-177779714D01*
X104120785Y-177784499D01*
X104118836Y-177787010D01*
X104156512Y-177827377D01*
X104168410Y-177886040D01*
X104169500Y-177886040D01*
X104169500Y-178309894D01*
X104169501Y-178309900D01*
X104176028Y-178359487D01*
X104226776Y-178468316D01*
X104311684Y-178553224D01*
X104396628Y-178592834D01*
X104431904Y-178617535D01*
X105187342Y-179372973D01*
X105261565Y-179415826D01*
X105344351Y-179438008D01*
X105570665Y-179438008D01*
X105637704Y-179457693D01*
X105658174Y-179476530D01*
X105659228Y-179475477D01*
X105664975Y-179481224D01*
X105776779Y-179593028D01*
X105776781Y-179593029D01*
X105776785Y-179593032D01*
X105908882Y-179669297D01*
X105913711Y-179672085D01*
X106066438Y-179713008D01*
X106066440Y-179713008D01*
X106224550Y-179713008D01*
X106224552Y-179713008D01*
X106377279Y-179672085D01*
X106497682Y-179602571D01*
X106565583Y-179586098D01*
X106631609Y-179608951D01*
X106647363Y-179622277D01*
X107424946Y-180399859D01*
X107424948Y-180399862D01*
X107485551Y-180460465D01*
X107522663Y-180481891D01*
X107531783Y-180487157D01*
X107531786Y-180487159D01*
X107559771Y-180503317D01*
X107559773Y-180503317D01*
X107559774Y-180503318D01*
X107642560Y-180525501D01*
X107642562Y-180525501D01*
X107650410Y-180527604D01*
X107649500Y-180530996D01*
X107698586Y-180552584D01*
X107737184Y-180610824D01*
X107738167Y-180680687D01*
X107701224Y-180739991D01*
X107638083Y-180769907D01*
X107618731Y-180771430D01*
X102505412Y-180772296D01*
X102494598Y-180771825D01*
X102341809Y-180758476D01*
X102320552Y-180754733D01*
X102177610Y-180716487D01*
X102157325Y-180709116D01*
X102096260Y-180680687D01*
X102023183Y-180646665D01*
X102004488Y-180635889D01*
X101919039Y-180576165D01*
X101883217Y-180551127D01*
X101866669Y-180537270D01*
X101761924Y-180432755D01*
X101748030Y-180416237D01*
X101729171Y-180389380D01*
X101662999Y-180295147D01*
X101652184Y-180276479D01*
X101589438Y-180142475D01*
X101582021Y-180122205D01*
X101543463Y-179979351D01*
X101539674Y-179958104D01*
X101525997Y-179805457D01*
X101525504Y-179794436D01*
X101525503Y-176849999D01*
X103871209Y-176849999D01*
X103871210Y-176850000D01*
X104400000Y-176850000D01*
X104400000Y-176350000D01*
X103871210Y-176350000D01*
X103872854Y-176370910D01*
X103917968Y-176526195D01*
X103917968Y-176526196D01*
X103924288Y-176536882D01*
X103941468Y-176604607D01*
X103924288Y-176663118D01*
X103917968Y-176673803D01*
X103917966Y-176673809D01*
X103872855Y-176829081D01*
X103872854Y-176829087D01*
X103871209Y-176849999D01*
X101525503Y-176849999D01*
X101525503Y-175849999D01*
X103871209Y-175849999D01*
X103871210Y-175850000D01*
X104400000Y-175850000D01*
X104400000Y-175350000D01*
X103871210Y-175350000D01*
X103872854Y-175370910D01*
X103917968Y-175526195D01*
X103917968Y-175526196D01*
X103924288Y-175536882D01*
X103941468Y-175604607D01*
X103924288Y-175663118D01*
X103917968Y-175673803D01*
X103917966Y-175673809D01*
X103872855Y-175829081D01*
X103872854Y-175829087D01*
X103871209Y-175849999D01*
X101525503Y-175849999D01*
X101525502Y-174124986D01*
X102700001Y-174124986D01*
X102710494Y-174227697D01*
X102765641Y-174394119D01*
X102765643Y-174394124D01*
X102857684Y-174543345D01*
X102981654Y-174667315D01*
X103130875Y-174759356D01*
X103130880Y-174759358D01*
X103297302Y-174814505D01*
X103297309Y-174814506D01*
X103400019Y-174824999D01*
X103449999Y-174824998D01*
X103450000Y-174824998D01*
X103450000Y-173850000D01*
X102700001Y-173850000D01*
X102700001Y-174124986D01*
X101525502Y-174124986D01*
X101525502Y-173075013D01*
X102700000Y-173075013D01*
X102700000Y-173350000D01*
X103450000Y-173350000D01*
X103450000Y-172375000D01*
X103449999Y-172374999D01*
X103400029Y-172375000D01*
X103400011Y-172375001D01*
X103297302Y-172385494D01*
X103130880Y-172440641D01*
X103130875Y-172440643D01*
X102981654Y-172532684D01*
X102857684Y-172656654D01*
X102765643Y-172805875D01*
X102765641Y-172805880D01*
X102710494Y-172972302D01*
X102710493Y-172972309D01*
X102700000Y-173075013D01*
X101525502Y-173075013D01*
X101525502Y-171600000D01*
X104141210Y-171600000D01*
X104142854Y-171620910D01*
X104187968Y-171776195D01*
X104270278Y-171915374D01*
X104270285Y-171915383D01*
X104384616Y-172029714D01*
X104384625Y-172029721D01*
X104523804Y-172112031D01*
X104670000Y-172154504D01*
X104670000Y-171600000D01*
X104141210Y-171600000D01*
X101525502Y-171600000D01*
X101525500Y-167089438D01*
X101510562Y-167074500D01*
X93862519Y-167074500D01*
X93851712Y-167074028D01*
X93698694Y-167060641D01*
X93677409Y-167056888D01*
X93534283Y-167018539D01*
X93513971Y-167011146D01*
X93379687Y-166948529D01*
X93360968Y-166937722D01*
X93239591Y-166852734D01*
X93223033Y-166838840D01*
X93118262Y-166734069D01*
X93104375Y-166717520D01*
X93019379Y-166596135D01*
X93008575Y-166577421D01*
X92953506Y-166459326D01*
X92945952Y-166443127D01*
X92938562Y-166422822D01*
X92936566Y-166415374D01*
X92908671Y-166311265D01*
X92900212Y-166279696D01*
X92896459Y-166258410D01*
X92893640Y-166226193D01*
X92883079Y-166105474D01*
X92882607Y-166094667D01*
X92882607Y-164480247D01*
X93599500Y-164480247D01*
X93599500Y-166219752D01*
X93611131Y-166278229D01*
X93611132Y-166278230D01*
X93655447Y-166344552D01*
X93721769Y-166388867D01*
X93721770Y-166388868D01*
X93780247Y-166400499D01*
X93780250Y-166400500D01*
X93780252Y-166400500D01*
X95519750Y-166400500D01*
X95519751Y-166400499D01*
X95534568Y-166397552D01*
X95578229Y-166388868D01*
X95578229Y-166388867D01*
X95578231Y-166388867D01*
X95644552Y-166344552D01*
X95688867Y-166278231D01*
X95688867Y-166278229D01*
X95688868Y-166278229D01*
X95699218Y-166226193D01*
X95700500Y-166219748D01*
X95700500Y-165246530D01*
X96139500Y-165246530D01*
X96139500Y-165453469D01*
X96179868Y-165656412D01*
X96179870Y-165656420D01*
X96245939Y-165815925D01*
X96259059Y-165847598D01*
X96298432Y-165906524D01*
X96374024Y-166019657D01*
X96520342Y-166165975D01*
X96520345Y-166165977D01*
X96692402Y-166280941D01*
X96883580Y-166360130D01*
X97028052Y-166388867D01*
X97086530Y-166400499D01*
X97086534Y-166400500D01*
X97086535Y-166400500D01*
X97293466Y-166400500D01*
X97293467Y-166400499D01*
X97496420Y-166360130D01*
X97687598Y-166280941D01*
X97859655Y-166165977D01*
X98005977Y-166019655D01*
X98120941Y-165847598D01*
X98200130Y-165656420D01*
X98240500Y-165453465D01*
X98240500Y-165246535D01*
X98200130Y-165043580D01*
X98120941Y-164852402D01*
X98005977Y-164680345D01*
X98005975Y-164680342D01*
X97859657Y-164534024D01*
X97737130Y-164452155D01*
X97687598Y-164419059D01*
X97639386Y-164399089D01*
X97496420Y-164339870D01*
X97496412Y-164339868D01*
X97293469Y-164299500D01*
X97293465Y-164299500D01*
X97086535Y-164299500D01*
X97086530Y-164299500D01*
X96883587Y-164339868D01*
X96883579Y-164339870D01*
X96692403Y-164419058D01*
X96520342Y-164534024D01*
X96374024Y-164680342D01*
X96259058Y-164852403D01*
X96179870Y-165043579D01*
X96179868Y-165043587D01*
X96139500Y-165246530D01*
X95700500Y-165246530D01*
X95700500Y-164480252D01*
X95700500Y-164480249D01*
X95700499Y-164480247D01*
X95688868Y-164421770D01*
X95688867Y-164421769D01*
X95644552Y-164355447D01*
X95578230Y-164311132D01*
X95578229Y-164311131D01*
X95519752Y-164299500D01*
X95519748Y-164299500D01*
X93780252Y-164299500D01*
X93780247Y-164299500D01*
X93721770Y-164311131D01*
X93721769Y-164311132D01*
X93655447Y-164355447D01*
X93611132Y-164421769D01*
X93611131Y-164421770D01*
X93599500Y-164480247D01*
X92882607Y-164480247D01*
X92882607Y-163498992D01*
X107374500Y-163498992D01*
X107374500Y-163701007D01*
X107413907Y-163899119D01*
X107413909Y-163899127D01*
X107491212Y-164085752D01*
X107491217Y-164085762D01*
X107603441Y-164253718D01*
X107746281Y-164396558D01*
X107914237Y-164508782D01*
X107914241Y-164508784D01*
X107914244Y-164508786D01*
X108100873Y-164586091D01*
X108272930Y-164620315D01*
X108298992Y-164625499D01*
X108298996Y-164625500D01*
X108298997Y-164625500D01*
X108501004Y-164625500D01*
X108501005Y-164625499D01*
X108699127Y-164586091D01*
X108885756Y-164508786D01*
X109053718Y-164396558D01*
X109196558Y-164253718D01*
X109308786Y-164085756D01*
X109386091Y-163899127D01*
X109425500Y-163701003D01*
X109425500Y-163498997D01*
X109425499Y-163498992D01*
X123124500Y-163498992D01*
X123124500Y-163701007D01*
X123163907Y-163899119D01*
X123163909Y-163899127D01*
X123241212Y-164085752D01*
X123241217Y-164085762D01*
X123353441Y-164253718D01*
X123496281Y-164396558D01*
X123664237Y-164508782D01*
X123664241Y-164508784D01*
X123664244Y-164508786D01*
X123850873Y-164586091D01*
X124022930Y-164620315D01*
X124048992Y-164625499D01*
X124048996Y-164625500D01*
X124048997Y-164625500D01*
X124251004Y-164625500D01*
X124251005Y-164625499D01*
X124449127Y-164586091D01*
X124635756Y-164508786D01*
X124803718Y-164396558D01*
X124946558Y-164253718D01*
X125058786Y-164085756D01*
X125136091Y-163899127D01*
X125175500Y-163701003D01*
X125175500Y-163498997D01*
X125136091Y-163300873D01*
X125058786Y-163114244D01*
X125058784Y-163114241D01*
X125058782Y-163114237D01*
X124946558Y-162946281D01*
X124803718Y-162803441D01*
X124635762Y-162691217D01*
X124635752Y-162691212D01*
X124449127Y-162613909D01*
X124449119Y-162613907D01*
X124251007Y-162574500D01*
X124251003Y-162574500D01*
X124048997Y-162574500D01*
X124048992Y-162574500D01*
X123850880Y-162613907D01*
X123850872Y-162613909D01*
X123664247Y-162691212D01*
X123664237Y-162691217D01*
X123496281Y-162803441D01*
X123353441Y-162946281D01*
X123241217Y-163114237D01*
X123241212Y-163114247D01*
X123163909Y-163300872D01*
X123163907Y-163300880D01*
X123124500Y-163498992D01*
X109425499Y-163498992D01*
X109386091Y-163300873D01*
X109308786Y-163114244D01*
X109308784Y-163114241D01*
X109308782Y-163114237D01*
X109196558Y-162946281D01*
X109053718Y-162803441D01*
X108885762Y-162691217D01*
X108885752Y-162691212D01*
X108699127Y-162613909D01*
X108699119Y-162613907D01*
X108501007Y-162574500D01*
X108501003Y-162574500D01*
X108298997Y-162574500D01*
X108298992Y-162574500D01*
X108100880Y-162613907D01*
X108100872Y-162613909D01*
X107914247Y-162691212D01*
X107914237Y-162691217D01*
X107746281Y-162803441D01*
X107603441Y-162946281D01*
X107491217Y-163114237D01*
X107491212Y-163114247D01*
X107413909Y-163300872D01*
X107413907Y-163300880D01*
X107374500Y-163498992D01*
X92882607Y-163498992D01*
X92882607Y-162105412D01*
X92883079Y-162094605D01*
X92890456Y-162010281D01*
X92896466Y-161941587D01*
X92900219Y-161920304D01*
X92923460Y-161833567D01*
X92938571Y-161777172D01*
X92945957Y-161756878D01*
X93008580Y-161622582D01*
X93019386Y-161603867D01*
X93019387Y-161603866D01*
X93104379Y-161482485D01*
X93118262Y-161465940D01*
X93223047Y-161361156D01*
X93239587Y-161347277D01*
X93360984Y-161262274D01*
X93379673Y-161251484D01*
X93513990Y-161188852D01*
X93534277Y-161181469D01*
X93677417Y-161143116D01*
X93698687Y-161139366D01*
X93782855Y-161132002D01*
X93851797Y-161125972D01*
X93862603Y-161125500D01*
X93865392Y-161125500D01*
X135391715Y-161125500D01*
X135394588Y-161125500D01*
X135405394Y-161125971D01*
G37*
G04 #@! TD.AperFunction*
G04 #@! TA.AperFunction,Conductor*
G36*
X110878833Y-165860781D02*
G01*
X110934767Y-165902653D01*
X110959184Y-165968117D01*
X110959500Y-165976962D01*
X110959500Y-166059894D01*
X110959501Y-166059900D01*
X110966028Y-166109487D01*
X110966029Y-166109489D01*
X110966029Y-166109490D01*
X111002536Y-166187778D01*
X111016776Y-166218316D01*
X111101684Y-166303224D01*
X111102900Y-166303791D01*
X111104479Y-166305181D01*
X111110570Y-166309446D01*
X111110094Y-166310124D01*
X111155341Y-166349960D01*
X111174500Y-166416175D01*
X111174500Y-166851177D01*
X111154815Y-166918216D01*
X111102011Y-166963971D01*
X111068603Y-166972626D01*
X111068780Y-166973738D01*
X110973111Y-166988889D01*
X110973110Y-166988889D01*
X110863595Y-167044690D01*
X110863591Y-167044693D01*
X110776693Y-167131591D01*
X110776690Y-167131595D01*
X110720889Y-167241111D01*
X110706500Y-167331966D01*
X110706500Y-168268037D01*
X110720889Y-168358888D01*
X110720889Y-168358889D01*
X110720890Y-168358892D01*
X110720891Y-168358893D01*
X110762832Y-168441208D01*
X110776690Y-168468404D01*
X110776693Y-168468408D01*
X110870497Y-168562212D01*
X110867849Y-168564859D01*
X110899189Y-168605477D01*
X110905190Y-168675088D01*
X110872603Y-168736893D01*
X110811774Y-168771269D01*
X110783652Y-168774500D01*
X108741437Y-168774500D01*
X108726500Y-168789437D01*
X108726500Y-177510562D01*
X108741438Y-177525500D01*
X111994126Y-177525500D01*
X112061165Y-177545185D01*
X112106920Y-177597989D01*
X112116864Y-177667147D01*
X112087839Y-177730703D01*
X112041580Y-177764061D01*
X112030975Y-177768453D01*
X111895779Y-177858788D01*
X111895771Y-177858794D01*
X111780794Y-177973771D01*
X111780788Y-177973779D01*
X111690452Y-178108976D01*
X111690450Y-178108980D01*
X111628225Y-178259206D01*
X111628222Y-178259216D01*
X111596500Y-178418692D01*
X111596500Y-178418695D01*
X111596500Y-178581305D01*
X111596500Y-178581307D01*
X111596499Y-178581307D01*
X111628222Y-178740783D01*
X111628225Y-178740793D01*
X111690450Y-178891019D01*
X111690452Y-178891022D01*
X111718240Y-178932610D01*
X111739118Y-178999287D01*
X111720633Y-179066667D01*
X111668654Y-179113357D01*
X111615138Y-179125500D01*
X108113966Y-179125500D01*
X108084528Y-179116855D01*
X108054538Y-179110332D01*
X108049521Y-179106576D01*
X108046927Y-179105815D01*
X108026284Y-179089181D01*
X107962818Y-179025714D01*
X107929334Y-178964390D01*
X107926500Y-178938033D01*
X107926500Y-175866693D01*
X107926500Y-175866691D01*
X107895799Y-175752114D01*
X107895797Y-175752110D01*
X107870731Y-175708694D01*
X107836493Y-175649392D01*
X107836487Y-175649384D01*
X106926616Y-174739513D01*
X106926614Y-174739511D01*
X106875250Y-174709856D01*
X106823888Y-174680201D01*
X106811780Y-174676957D01*
X106799673Y-174673713D01*
X106799670Y-174673712D01*
X106761478Y-174663478D01*
X106709309Y-174649500D01*
X106709308Y-174649500D01*
X106224500Y-174649500D01*
X106215814Y-174646949D01*
X106206853Y-174648238D01*
X106182812Y-174637259D01*
X106157461Y-174629815D01*
X106151533Y-174622974D01*
X106143297Y-174619213D01*
X106129007Y-174596978D01*
X106111706Y-174577011D01*
X106109418Y-174566496D01*
X106105523Y-174560435D01*
X106100500Y-174525500D01*
X106100500Y-174512628D01*
X106120185Y-174445589D01*
X106150866Y-174412857D01*
X106172150Y-174397150D01*
X106252793Y-174287882D01*
X106275219Y-174223790D01*
X106297646Y-174159701D01*
X106297646Y-174159699D01*
X106300429Y-174130024D01*
X106316502Y-174079596D01*
X106319799Y-174073887D01*
X106350499Y-173959309D01*
X106350499Y-173840691D01*
X106338587Y-173796233D01*
X106319800Y-173726114D01*
X106317111Y-173721457D01*
X106312961Y-173705969D01*
X106305523Y-173694395D01*
X106300500Y-173659460D01*
X106300500Y-173485738D01*
X106304725Y-173453645D01*
X106322500Y-173387309D01*
X106322500Y-171859189D01*
X106342185Y-171792150D01*
X106358819Y-171771508D01*
X106360465Y-171769862D01*
X106403318Y-171695639D01*
X106425501Y-171612853D01*
X106425501Y-171527147D01*
X106403318Y-171444361D01*
X106391612Y-171424087D01*
X106377112Y-171398971D01*
X106360499Y-171336971D01*
X106360499Y-171140105D01*
X106360499Y-171140100D01*
X106353972Y-171090513D01*
X106348644Y-171079087D01*
X106334118Y-171047934D01*
X106322500Y-170995530D01*
X106322500Y-170474552D01*
X106335099Y-170420092D01*
X106347809Y-170394093D01*
X106362573Y-170363893D01*
X106372500Y-170295760D01*
X106372500Y-169204240D01*
X106369062Y-169180647D01*
X106362573Y-169136108D01*
X106324786Y-169058812D01*
X106311198Y-169031017D01*
X106311196Y-169031015D01*
X106311196Y-169031014D01*
X106228485Y-168948303D01*
X106123391Y-168896926D01*
X106055261Y-168887000D01*
X106055260Y-168887000D01*
X105993465Y-168887000D01*
X105926426Y-168867315D01*
X105880671Y-168814511D01*
X105870727Y-168745353D01*
X105899752Y-168681797D01*
X105905784Y-168675319D01*
X106049557Y-168531546D01*
X106232489Y-168348614D01*
X106268721Y-168285858D01*
X106291799Y-168245886D01*
X106299303Y-168217878D01*
X106303660Y-168208380D01*
X106307712Y-168203718D01*
X106306684Y-168203216D01*
X106312647Y-168191019D01*
X106362573Y-168088893D01*
X106372500Y-168020760D01*
X106372500Y-167924500D01*
X106392185Y-167857461D01*
X106444989Y-167811706D01*
X106496500Y-167800500D01*
X108709308Y-167800500D01*
X108709309Y-167800500D01*
X108799673Y-167776286D01*
X108823887Y-167769799D01*
X108926614Y-167710489D01*
X110747821Y-165889280D01*
X110809142Y-165855797D01*
X110878833Y-165860781D01*
G37*
G04 #@! TD.AperFunction*
G04 #@! TA.AperFunction,Conductor*
G36*
X120716730Y-177545185D02*
G01*
X120737372Y-177561819D01*
X121300554Y-178125000D01*
X121272630Y-178125000D01*
X121177255Y-178150556D01*
X121091745Y-178199925D01*
X121021925Y-178269745D01*
X120972556Y-178355255D01*
X120947000Y-178450630D01*
X120947000Y-178478553D01*
X120367810Y-177899363D01*
X120367809Y-177899364D01*
X120359812Y-177910370D01*
X120356278Y-177917306D01*
X120308300Y-177968098D01*
X120240477Y-177984888D01*
X120174344Y-177962345D01*
X120158117Y-177948683D01*
X120068228Y-177858794D01*
X120068220Y-177858788D01*
X119933024Y-177768453D01*
X119922420Y-177764061D01*
X119868017Y-177720219D01*
X119845953Y-177653925D01*
X119863233Y-177586226D01*
X119914370Y-177538616D01*
X119969874Y-177525500D01*
X120649691Y-177525500D01*
X120716730Y-177545185D01*
G37*
G04 #@! TD.AperFunction*
G04 #@! TA.AperFunction,Conductor*
G36*
X122741165Y-177545185D02*
G01*
X122786920Y-177597989D01*
X122796864Y-177667147D01*
X122767839Y-177730703D01*
X122721580Y-177764061D01*
X122710975Y-177768453D01*
X122575779Y-177858788D01*
X122575776Y-177858790D01*
X122485881Y-177948685D01*
X122424557Y-177982169D01*
X122354866Y-177977185D01*
X122298932Y-177935313D01*
X122287712Y-177917291D01*
X122284185Y-177910369D01*
X122276189Y-177899364D01*
X121697000Y-178478553D01*
X121697000Y-178450630D01*
X121671444Y-178355255D01*
X121622075Y-178269745D01*
X121552255Y-178199925D01*
X121466745Y-178150556D01*
X121371370Y-178125000D01*
X121343447Y-178125000D01*
X121906627Y-177561819D01*
X121967950Y-177528334D01*
X121994308Y-177525500D01*
X122674126Y-177525500D01*
X122741165Y-177545185D01*
G37*
G04 #@! TD.AperFunction*
G04 #@! TA.AperFunction,Conductor*
G36*
X117893075Y-165544185D02*
G01*
X117913717Y-165560819D01*
X118313387Y-165960489D01*
X118313388Y-165960490D01*
X118313390Y-165960491D01*
X118372694Y-165994729D01*
X118372697Y-165994732D01*
X118406938Y-166014500D01*
X118416115Y-166019799D01*
X118530692Y-166050500D01*
X118562687Y-166050500D01*
X118615091Y-166062117D01*
X118640513Y-166073972D01*
X118690099Y-166080500D01*
X119109900Y-166080499D01*
X119159487Y-166073972D01*
X119184908Y-166062117D01*
X119237313Y-166050500D01*
X119763943Y-166050500D01*
X119830982Y-166070185D01*
X119855721Y-166091116D01*
X119866887Y-166103406D01*
X119871950Y-166113342D01*
X119915291Y-166156683D01*
X119917278Y-166158870D01*
X119931292Y-166187741D01*
X119946666Y-166215895D01*
X119947151Y-166220413D01*
X119947789Y-166221726D01*
X119947527Y-166223907D01*
X119949500Y-166242254D01*
X119949500Y-167064259D01*
X119929815Y-167131298D01*
X119909603Y-167154005D01*
X119910082Y-167154484D01*
X119790794Y-167273771D01*
X119790788Y-167273779D01*
X119700452Y-167408976D01*
X119656561Y-167514941D01*
X119612720Y-167569344D01*
X119546426Y-167591409D01*
X119478727Y-167574130D01*
X119431116Y-167522993D01*
X119427439Y-167514941D01*
X119383547Y-167408976D01*
X119293211Y-167273779D01*
X119293205Y-167273771D01*
X119178228Y-167158794D01*
X119178220Y-167158788D01*
X119043023Y-167068452D01*
X119043019Y-167068450D01*
X118892793Y-167006225D01*
X118892783Y-167006222D01*
X118733307Y-166974500D01*
X118733305Y-166974500D01*
X118570695Y-166974500D01*
X118570693Y-166974500D01*
X118411216Y-167006222D01*
X118411206Y-167006225D01*
X118260980Y-167068450D01*
X118260976Y-167068452D01*
X118125779Y-167158788D01*
X118125771Y-167158794D01*
X118010794Y-167273771D01*
X118010788Y-167273779D01*
X117920452Y-167408976D01*
X117876561Y-167514941D01*
X117832720Y-167569344D01*
X117766426Y-167591409D01*
X117698727Y-167574130D01*
X117651116Y-167522993D01*
X117647439Y-167514941D01*
X117603547Y-167408976D01*
X117513211Y-167273779D01*
X117513205Y-167273771D01*
X117398228Y-167158794D01*
X117398220Y-167158788D01*
X117263023Y-167068452D01*
X117263019Y-167068450D01*
X117112793Y-167006225D01*
X117112783Y-167006222D01*
X116953307Y-166974500D01*
X116953305Y-166974500D01*
X116790695Y-166974500D01*
X116790693Y-166974500D01*
X116631216Y-167006222D01*
X116631206Y-167006225D01*
X116480980Y-167068450D01*
X116480976Y-167068452D01*
X116345779Y-167158788D01*
X116345771Y-167158794D01*
X116230794Y-167273771D01*
X116230788Y-167273779D01*
X116140452Y-167408976D01*
X116096561Y-167514941D01*
X116052720Y-167569344D01*
X115986426Y-167591409D01*
X115918727Y-167574130D01*
X115871116Y-167522993D01*
X115867439Y-167514941D01*
X115823547Y-167408976D01*
X115733211Y-167273779D01*
X115733205Y-167273771D01*
X115618228Y-167158794D01*
X115618220Y-167158788D01*
X115483023Y-167068452D01*
X115483019Y-167068450D01*
X115332793Y-167006225D01*
X115332783Y-167006222D01*
X115173307Y-166974500D01*
X115173305Y-166974500D01*
X115010695Y-166974500D01*
X115010693Y-166974500D01*
X114851216Y-167006222D01*
X114851206Y-167006225D01*
X114700980Y-167068450D01*
X114700976Y-167068452D01*
X114565779Y-167158788D01*
X114565771Y-167158794D01*
X114450794Y-167273771D01*
X114450788Y-167273779D01*
X114360452Y-167408976D01*
X114316561Y-167514941D01*
X114272720Y-167569344D01*
X114206426Y-167591409D01*
X114138727Y-167574130D01*
X114091116Y-167522993D01*
X114087439Y-167514941D01*
X114043547Y-167408976D01*
X113953211Y-167273779D01*
X113953205Y-167273771D01*
X113838228Y-167158794D01*
X113838220Y-167158788D01*
X113703023Y-167068452D01*
X113703019Y-167068450D01*
X113552793Y-167006225D01*
X113552783Y-167006222D01*
X113393307Y-166974500D01*
X113393305Y-166974500D01*
X113230695Y-166974500D01*
X113230693Y-166974500D01*
X113071216Y-167006222D01*
X113071206Y-167006225D01*
X112920980Y-167068450D01*
X112920976Y-167068452D01*
X112785779Y-167158788D01*
X112785771Y-167158794D01*
X112670791Y-167273774D01*
X112584601Y-167402769D01*
X112530989Y-167447574D01*
X112461664Y-167456281D01*
X112398637Y-167426127D01*
X112361917Y-167366684D01*
X112357894Y-167336817D01*
X112357881Y-167336819D01*
X112357861Y-167336567D01*
X112357499Y-167333878D01*
X112357499Y-167331962D01*
X112343110Y-167241111D01*
X112343110Y-167241110D01*
X112343109Y-167241108D01*
X112343109Y-167241107D01*
X112287311Y-167131597D01*
X112287309Y-167131595D01*
X112287306Y-167131591D01*
X112200408Y-167044693D01*
X112200404Y-167044690D01*
X112200403Y-167044689D01*
X112090893Y-166988891D01*
X112090891Y-166988890D01*
X112090888Y-166988889D01*
X112000033Y-166974500D01*
X111949500Y-166974500D01*
X111940814Y-166971949D01*
X111931853Y-166973238D01*
X111907812Y-166962259D01*
X111882461Y-166954815D01*
X111876533Y-166947974D01*
X111868297Y-166944213D01*
X111854007Y-166921978D01*
X111836706Y-166902011D01*
X111834418Y-166891496D01*
X111830523Y-166885435D01*
X111825500Y-166850500D01*
X111825500Y-166723644D01*
X111845185Y-166656605D01*
X111897989Y-166610850D01*
X111967147Y-166600906D01*
X111998749Y-166609844D01*
X112003801Y-166612030D01*
X112150000Y-166654504D01*
X112150000Y-166654503D01*
X112650000Y-166654503D01*
X112796195Y-166612031D01*
X112935374Y-166529721D01*
X112935383Y-166529714D01*
X113049714Y-166415383D01*
X113049721Y-166415374D01*
X113132031Y-166276195D01*
X113132033Y-166276190D01*
X113177144Y-166120918D01*
X113177145Y-166120912D01*
X113178790Y-166100000D01*
X112650000Y-166100000D01*
X112650000Y-166654503D01*
X112150000Y-166654503D01*
X112150000Y-165974000D01*
X112169685Y-165906961D01*
X112222489Y-165861206D01*
X112274000Y-165850000D01*
X112400000Y-165850000D01*
X112400000Y-165724000D01*
X112419685Y-165656961D01*
X112472489Y-165611206D01*
X112524000Y-165600000D01*
X113178790Y-165600000D01*
X113211768Y-165564326D01*
X113271730Y-165528461D01*
X113302822Y-165524500D01*
X117826036Y-165524500D01*
X117893075Y-165544185D01*
G37*
G04 #@! TD.AperFunction*
M02*
