G04 #@! TF.GenerationSoftware,KiCad,Pcbnew,9.0.2*
G04 #@! TF.CreationDate,2025-10-10T20:35:13-04:00*
G04 #@! TF.ProjectId,Trackball,54726163-6b62-4616-9c6c-2e6b69636164,rev?*
G04 #@! TF.SameCoordinates,Original*
G04 #@! TF.FileFunction,Copper,L2,Bot*
G04 #@! TF.FilePolarity,Positive*
%FSLAX46Y46*%
G04 Gerber Fmt 4.6, Leading zero omitted, Abs format (unit mm)*
G04 Created by KiCad (PCBNEW 9.0.2) date 2025-10-10 20:35:13*
%MOMM*%
%LPD*%
G01*
G04 APERTURE LIST*
G04 #@! TA.AperFunction,ComponentPad*
%ADD10C,5.000000*%
G04 #@! TD*
G04 #@! TA.AperFunction,ViaPad*
%ADD11C,0.800000*%
G04 #@! TD*
G04 APERTURE END LIST*
D10*
X-17860000Y-81600000D03*
D11*
X-460000Y-70000000D03*
X-260000Y-94000000D03*
X-17460000Y-93800000D03*
X-17460000Y-70200000D03*
X-35160000Y-70200000D03*
X-35260000Y-93800000D03*
G04 #@! TA.AperFunction,Conductor*
G36*
X-15099050Y-38997183D02*
G01*
X-14695789Y-39013738D01*
X-14685617Y-39014579D01*
X-14287700Y-39064061D01*
X-14277599Y-39065743D01*
X-13885116Y-39147926D01*
X-13875215Y-39150431D01*
X-13490853Y-39264752D01*
X-13481193Y-39268065D01*
X-13107601Y-39413738D01*
X-13098230Y-39417845D01*
X-12737936Y-39593883D01*
X-12728961Y-39598737D01*
X-12384440Y-39803930D01*
X-12375862Y-39809532D01*
X-12049483Y-40042468D01*
X-12041411Y-40048748D01*
X-11735373Y-40307858D01*
X-11727851Y-40314780D01*
X-11444259Y-40598282D01*
X-11437342Y-40605794D01*
X-11178134Y-40911753D01*
X-11171855Y-40919818D01*
X-10938806Y-41246137D01*
X-10933215Y-41254692D01*
X-10727924Y-41599130D01*
X-10723045Y-41608140D01*
X-10646510Y-41764662D01*
X-10546903Y-41968363D01*
X-10542787Y-41977744D01*
X-10396995Y-42351295D01*
X-10393683Y-42360940D01*
X-10340835Y-42538415D01*
X-10279243Y-42745254D01*
X-10276728Y-42755181D01*
X-10194421Y-43147639D01*
X-10192739Y-43157725D01*
X-10143132Y-43555612D01*
X-10142285Y-43565828D01*
X-10125606Y-43969017D01*
X-10125500Y-43974142D01*
X-10125500Y-72891874D01*
X-10126561Y-72908059D01*
X-10139537Y-73006623D01*
X-10147915Y-73037890D01*
X-10163145Y-73074659D01*
X-10182823Y-73122167D01*
X-10199005Y-73150197D01*
X-10222910Y-73181350D01*
X-10254541Y-73222571D01*
X-10277428Y-73245458D01*
X-10314536Y-73273933D01*
X-10349800Y-73300992D01*
X-10377834Y-73317177D01*
X-10462109Y-73352084D01*
X-10493375Y-73360462D01*
X-10580208Y-73371894D01*
X-10591941Y-73373439D01*
X-10608126Y-73374500D01*
X-11591715Y-73374500D01*
X-11600000Y-73374500D01*
X-11695027Y-73374500D01*
X-11881844Y-73409423D01*
X-11946427Y-73434442D01*
X-12059057Y-73478075D01*
X-12059061Y-73478077D01*
X-12059063Y-73478078D01*
X-12220649Y-73578128D01*
X-12361100Y-73706166D01*
X-12475633Y-73857831D01*
X-12518339Y-73943597D01*
X-12560341Y-74027948D01*
X-12560347Y-74027960D01*
X-12612357Y-74210758D01*
X-12629893Y-74400000D01*
X-12612357Y-74589242D01*
X-12560347Y-74772040D01*
X-12475633Y-74942169D01*
X-12361100Y-75093834D01*
X-12220649Y-75221872D01*
X-12059063Y-75321922D01*
X-11881844Y-75390577D01*
X-11695027Y-75425500D01*
X-11610562Y-75425500D01*
X-10608285Y-75425500D01*
X-10608126Y-75425500D01*
X-10591940Y-75426561D01*
X-10493375Y-75439537D01*
X-10462107Y-75447915D01*
X-10377828Y-75482825D01*
X-10349805Y-75499003D01*
X-10277433Y-75554537D01*
X-10277428Y-75554541D01*
X-10254543Y-75577426D01*
X-10199003Y-75649805D01*
X-10182825Y-75677828D01*
X-10163146Y-75725338D01*
X-10147915Y-75762109D01*
X-10139537Y-75793376D01*
X-10126561Y-75891940D01*
X-10125500Y-75908125D01*
X-10125500Y-76391874D01*
X-10126561Y-76408059D01*
X-10139537Y-76506623D01*
X-10147915Y-76537890D01*
X-10147915Y-76537891D01*
X-10182823Y-76622167D01*
X-10199005Y-76650197D01*
X-10222910Y-76681350D01*
X-10254541Y-76722571D01*
X-10277428Y-76745458D01*
X-10295628Y-76759424D01*
X-10349800Y-76800992D01*
X-10377834Y-76817177D01*
X-10462109Y-76852084D01*
X-10493375Y-76860462D01*
X-10580208Y-76871894D01*
X-10591941Y-76873439D01*
X-10608126Y-76874500D01*
X-14649722Y-76874500D01*
X-14826432Y-76905658D01*
X-14995054Y-76967032D01*
X-14995055Y-76967033D01*
X-15150443Y-77056746D01*
X-15150446Y-77056749D01*
X-15150450Y-77056751D01*
X-15287908Y-77172092D01*
X-15403249Y-77309550D01*
X-15403251Y-77309553D01*
X-15403253Y-77309556D01*
X-15421210Y-77340659D01*
X-15492969Y-77464949D01*
X-15554341Y-77633567D01*
X-15585500Y-77810280D01*
X-15585500Y-77891715D01*
X-15585500Y-77900000D01*
X-15585500Y-77989720D01*
X-15554341Y-78166433D01*
X-15492969Y-78335051D01*
X-15403249Y-78490450D01*
X-15287908Y-78627908D01*
X-15150450Y-78743249D01*
X-14995051Y-78832969D01*
X-14826433Y-78894341D01*
X-14649720Y-78925500D01*
X-14649718Y-78925500D01*
X-3734190Y-78925500D01*
X-3734188Y-78925500D01*
X-3557475Y-78894341D01*
X-3388857Y-78832969D01*
X-3388854Y-78832967D01*
X-3388853Y-78832967D01*
X-3388852Y-78832966D01*
X-3233464Y-78743253D01*
X-3233461Y-78743251D01*
X-3233458Y-78743249D01*
X-3232397Y-78742359D01*
X-1979699Y-78742359D01*
X-1545517Y-79176540D01*
X-483443Y-78114466D01*
X-1545518Y-77052391D01*
X-1866168Y-77373041D01*
X-1859929Y-77396332D01*
X-1858644Y-77401585D01*
X-1851564Y-77433525D01*
X-1850509Y-77438828D01*
X-1811789Y-77658424D01*
X-1810966Y-77663770D01*
X-1806695Y-77696210D01*
X-1806106Y-77701584D01*
X-1802308Y-77744977D01*
X-1801954Y-77750380D01*
X-1800526Y-77783087D01*
X-1800408Y-77788496D01*
X-1800408Y-78011504D01*
X-1800526Y-78016913D01*
X-1801954Y-78049620D01*
X-1802308Y-78055023D01*
X-1806106Y-78098416D01*
X-1806695Y-78103790D01*
X-1810966Y-78136230D01*
X-1811789Y-78141576D01*
X-1850509Y-78361172D01*
X-1851564Y-78366475D01*
X-1858644Y-78398415D01*
X-1859929Y-78403668D01*
X-1871201Y-78445743D01*
X-1872716Y-78450941D01*
X-1882563Y-78482173D01*
X-1884302Y-78487298D01*
X-1960574Y-78696850D01*
X-1962534Y-78701889D01*
X-1975054Y-78732117D01*
X-1977232Y-78737068D01*
X-1979699Y-78742359D01*
X-3232397Y-78742359D01*
X-3096000Y-78627908D01*
X-2980659Y-78490450D01*
X-2980657Y-78490446D01*
X-2980654Y-78490443D01*
X-2890941Y-78335055D01*
X-2890940Y-78335054D01*
X-2829566Y-78166432D01*
X-2798408Y-77989722D01*
X-2798408Y-77810277D01*
X-2829566Y-77633567D01*
X-2890940Y-77464945D01*
X-2890941Y-77464944D01*
X-2980654Y-77309556D01*
X-3096000Y-77172092D01*
X-3233464Y-77056746D01*
X-3388852Y-76967033D01*
X-3388853Y-76967032D01*
X-3557475Y-76905658D01*
X-3734185Y-76874500D01*
X-3734188Y-76874500D01*
X-3813346Y-76874500D01*
X-7455783Y-76874500D01*
X-7471967Y-76873439D01*
X-7482153Y-76872098D01*
X-7570533Y-76860462D01*
X-7601799Y-76852084D01*
X-7686074Y-76817177D01*
X-7714110Y-76800991D01*
X-7786480Y-76745458D01*
X-7809367Y-76722571D01*
X-7864900Y-76650201D01*
X-7881086Y-76622165D01*
X-7915993Y-76537890D01*
X-7924371Y-76506624D01*
X-7937348Y-76408060D01*
X-7938409Y-76391874D01*
X-7938409Y-75908125D01*
X-7937348Y-75891939D01*
X-7935315Y-75876500D01*
X-3905161Y-75876500D01*
X-3712404Y-75876500D01*
X-3706995Y-75876618D01*
X-3674288Y-75878046D01*
X-3668885Y-75878400D01*
X-3625492Y-75882198D01*
X-3620118Y-75882787D01*
X-3587678Y-75887058D01*
X-3582332Y-75887881D01*
X-3362736Y-75926601D01*
X-3357433Y-75927656D01*
X-3325493Y-75934736D01*
X-3320240Y-75936021D01*
X-3278165Y-75947293D01*
X-3272967Y-75948808D01*
X-3241735Y-75958655D01*
X-3236610Y-75960394D01*
X-3027058Y-76036666D01*
X-3022019Y-76038626D01*
X-2991791Y-76051146D01*
X-2986840Y-76053324D01*
X-2947363Y-76071731D01*
X-2942510Y-76074124D01*
X-2913467Y-76089242D01*
X-2908721Y-76091846D01*
X-2715585Y-76203354D01*
X-2710956Y-76206163D01*
X-2683332Y-76223763D01*
X-2678832Y-76226770D01*
X-2643154Y-76251755D01*
X-2638792Y-76254954D01*
X-2612846Y-76274865D01*
X-2608632Y-76278247D01*
X-2437815Y-76421578D01*
X-2433745Y-76425148D01*
X-2409614Y-76447261D01*
X-2405708Y-76451000D01*
X-2380609Y-76476098D01*
X-2251210Y-76346699D01*
X-839826Y-76346699D01*
X222248Y-77408773D01*
X1284323Y-76346699D01*
X222248Y-75284624D01*
X-839826Y-76346699D01*
X-2251210Y-76346699D01*
X-3313285Y-75284624D01*
X-3905161Y-75876500D01*
X-7935315Y-75876500D01*
X-7924371Y-75793375D01*
X-7915993Y-75762109D01*
X-7881086Y-75677834D01*
X-7864900Y-75649798D01*
X-7864897Y-75649795D01*
X-7840996Y-75618646D01*
X-7809367Y-75577428D01*
X-7786480Y-75554541D01*
X-7749365Y-75526061D01*
X-7714106Y-75499005D01*
X-7686077Y-75482823D01*
X-7646558Y-75466454D01*
X-7601799Y-75447915D01*
X-7570532Y-75439537D01*
X-7471968Y-75426561D01*
X-7455783Y-75425500D01*
X-6368884Y-75425500D01*
X-6368882Y-75425500D01*
X-6182065Y-75390577D01*
X-6004846Y-75321922D01*
X-5843260Y-75221872D01*
X-5702809Y-75093834D01*
X-5588276Y-74942169D01*
X-5537490Y-74840177D01*
X-5503562Y-74772042D01*
X-5451551Y-74589239D01*
X-5450596Y-74578932D01*
X-2607593Y-74578932D01*
X-1545518Y-75641007D01*
X-483443Y-74578932D01*
X927941Y-74578932D01*
X1990015Y-75641006D01*
X3052090Y-74578932D01*
X1990015Y-73516857D01*
X927941Y-74578932D01*
X-483443Y-74578932D01*
X-1545518Y-73516857D01*
X-2607593Y-74578932D01*
X-5450596Y-74578932D01*
X-5434016Y-74400000D01*
X-5434016Y-74399999D01*
X-5451551Y-74210760D01*
X-5503562Y-74027957D01*
X-5588276Y-73857830D01*
X-5702810Y-73706164D01*
X-5843258Y-73578129D01*
X-6004847Y-73478077D01*
X-6004851Y-73478075D01*
X-6134731Y-73427760D01*
X-6182065Y-73409423D01*
X-6368882Y-73374500D01*
X-6368884Y-73374500D01*
X-7455783Y-73374500D01*
X-7471967Y-73373439D01*
X-7482153Y-73372098D01*
X-7570533Y-73360462D01*
X-7601799Y-73352084D01*
X-7686074Y-73317177D01*
X-7714110Y-73300991D01*
X-7786480Y-73245458D01*
X-7809367Y-73222571D01*
X-7864900Y-73150201D01*
X-7881086Y-73122165D01*
X-7915993Y-73037890D01*
X-7924371Y-73006624D01*
X-7937347Y-72908067D01*
X-7938408Y-72891881D01*
X-7938408Y-72811165D01*
X-4375360Y-72811165D01*
X-3313285Y-73873240D01*
X-2251210Y-72811165D01*
X-839826Y-72811165D01*
X222248Y-73873239D01*
X1284323Y-72811165D01*
X2695708Y-72811165D01*
X3757782Y-73873239D01*
X4336412Y-73294608D01*
X4346801Y-73279445D01*
X4350143Y-73274800D01*
X4492467Y-73086333D01*
X4496023Y-73081844D01*
X4518160Y-73055185D01*
X4521920Y-73050864D01*
X4552991Y-73016780D01*
X4556948Y-73012636D01*
X4581457Y-72988127D01*
X4585600Y-72984171D01*
X4760134Y-72825062D01*
X4764454Y-72821302D01*
X4791111Y-72799166D01*
X4795600Y-72795610D01*
X4800557Y-72791865D01*
X3757782Y-71749090D01*
X2695708Y-72811165D01*
X1284323Y-72811165D01*
X222248Y-71749090D01*
X-839826Y-72811165D01*
X-2251210Y-72811165D01*
X-3313285Y-71749090D01*
X-4375360Y-72811165D01*
X-7938408Y-72811165D01*
X-7938408Y-71043398D01*
X-6143127Y-71043398D01*
X-5081052Y-72105473D01*
X-4018977Y-71043398D01*
X-2607593Y-71043398D01*
X-1545518Y-72105473D01*
X-736720Y-71296675D01*
X-760399Y-71292925D01*
X-779319Y-71288383D01*
X-958958Y-71230015D01*
X-976935Y-71222569D01*
X-1145232Y-71136817D01*
X-1161822Y-71126650D01*
X-1276409Y-71043398D01*
X927941Y-71043398D01*
X1990015Y-72105472D01*
X3052090Y-71043398D01*
X4463474Y-71043398D01*
X5525549Y-72105472D01*
X6512592Y-71118430D01*
X6512592Y-70968366D01*
X5525549Y-69981323D01*
X4463474Y-71043398D01*
X3052090Y-71043398D01*
X1990015Y-69981323D01*
X927941Y-71043398D01*
X-1276409Y-71043398D01*
X-1314633Y-71015627D01*
X-1329429Y-71002990D01*
X-1462990Y-70869429D01*
X-1475627Y-70854633D01*
X-1586650Y-70701822D01*
X-1596817Y-70685232D01*
X-1682569Y-70516935D01*
X-1690015Y-70498958D01*
X-1748383Y-70319319D01*
X-1752925Y-70300399D01*
X-1768193Y-70203998D01*
X-2607593Y-71043398D01*
X-4018977Y-71043398D01*
X-5081052Y-69981323D01*
X-6143127Y-71043398D01*
X-7938408Y-71043398D01*
X-7938408Y-68305145D01*
X-6940408Y-68305145D01*
X-6940408Y-70246117D01*
X-6848819Y-70337706D01*
X-5786744Y-69275631D01*
X-4375360Y-69275631D01*
X-3313285Y-70337706D01*
X-2251210Y-69275631D01*
X-2835035Y-68691806D01*
X-256001Y-68691806D01*
X-159601Y-68707075D01*
X-140681Y-68711617D01*
X38958Y-68769985D01*
X56935Y-68777431D01*
X225232Y-68863183D01*
X241822Y-68873350D01*
X394633Y-68984373D01*
X409429Y-68997010D01*
X542990Y-69130571D01*
X555627Y-69145367D01*
X666650Y-69298178D01*
X676817Y-69314768D01*
X762569Y-69483065D01*
X770015Y-69501042D01*
X828383Y-69680681D01*
X832925Y-69699601D01*
X836675Y-69723278D01*
X1284322Y-69275631D01*
X2695708Y-69275631D01*
X3757782Y-70337705D01*
X4819857Y-69275631D01*
X3757782Y-68213556D01*
X2695708Y-69275631D01*
X1284322Y-69275631D01*
X1284323Y-69275630D01*
X222248Y-68213556D01*
X-256001Y-68691806D01*
X-2835035Y-68691806D01*
X-3313285Y-68213556D01*
X-4375360Y-69275631D01*
X-5786744Y-69275631D01*
X-6848819Y-68213556D01*
X-6940408Y-68305145D01*
X-7938408Y-68305145D01*
X-7938408Y-67507864D01*
X-6143127Y-67507864D01*
X-5081052Y-68569939D01*
X-4018977Y-67507864D01*
X-2607593Y-67507864D01*
X-1545518Y-68569939D01*
X-483443Y-67507864D01*
X927941Y-67507864D01*
X1990015Y-68569938D01*
X3052090Y-67507864D01*
X4463474Y-67507864D01*
X5525549Y-68569938D01*
X6512592Y-67582896D01*
X6512592Y-67432832D01*
X5525549Y-66445789D01*
X4463474Y-67507864D01*
X3052090Y-67507864D01*
X1990015Y-66445789D01*
X927941Y-67507864D01*
X-483443Y-67507864D01*
X-1545518Y-66445789D01*
X-2607593Y-67507864D01*
X-4018977Y-67507864D01*
X-5081052Y-66445789D01*
X-6143127Y-67507864D01*
X-7938408Y-67507864D01*
X-7938408Y-64769611D01*
X-6940408Y-64769611D01*
X-6940408Y-66710583D01*
X-6848819Y-66802172D01*
X-5786744Y-65740097D01*
X-4375360Y-65740097D01*
X-3313285Y-66802172D01*
X-2251210Y-65740097D01*
X-839826Y-65740097D01*
X222248Y-66802171D01*
X1284323Y-65740097D01*
X2695708Y-65740097D01*
X3757782Y-66802171D01*
X4819857Y-65740097D01*
X3757782Y-64678022D01*
X2695708Y-65740097D01*
X1284323Y-65740097D01*
X222248Y-64678022D01*
X-839826Y-65740097D01*
X-2251210Y-65740097D01*
X-3313285Y-64678022D01*
X-4375360Y-65740097D01*
X-5786744Y-65740097D01*
X-6848819Y-64678022D01*
X-6940408Y-64769611D01*
X-7938408Y-64769611D01*
X-7938408Y-63972330D01*
X-6143127Y-63972330D01*
X-5081052Y-65034405D01*
X-4018977Y-63972330D01*
X-2607593Y-63972330D01*
X-1545518Y-65034405D01*
X-483443Y-63972330D01*
X927941Y-63972330D01*
X1990015Y-65034404D01*
X3052090Y-63972330D01*
X4463474Y-63972330D01*
X5525549Y-65034404D01*
X6512592Y-64047362D01*
X6512592Y-63897298D01*
X5525549Y-62910255D01*
X4463474Y-63972330D01*
X3052090Y-63972330D01*
X1990015Y-62910255D01*
X927941Y-63972330D01*
X-483443Y-63972330D01*
X-1545518Y-62910255D01*
X-2607593Y-63972330D01*
X-4018977Y-63972330D01*
X-5081052Y-62910255D01*
X-6143127Y-63972330D01*
X-7938408Y-63972330D01*
X-7938408Y-61234077D01*
X-6940408Y-61234077D01*
X-6940408Y-63175049D01*
X-6848819Y-63266638D01*
X-5786744Y-62204563D01*
X-4375360Y-62204563D01*
X-3313285Y-63266638D01*
X-2251210Y-62204563D01*
X-839826Y-62204563D01*
X222248Y-63266637D01*
X1284323Y-62204563D01*
X2695708Y-62204563D01*
X3757782Y-63266637D01*
X4819857Y-62204563D01*
X3757782Y-61142488D01*
X2695708Y-62204563D01*
X1284323Y-62204563D01*
X222248Y-61142488D01*
X-839826Y-62204563D01*
X-2251210Y-62204563D01*
X-3313285Y-61142488D01*
X-4375360Y-62204563D01*
X-5786744Y-62204563D01*
X-6848819Y-61142488D01*
X-6940408Y-61234077D01*
X-7938408Y-61234077D01*
X-7938408Y-60436796D01*
X-6143127Y-60436796D01*
X-5081052Y-61498871D01*
X-4018977Y-60436796D01*
X-2607593Y-60436796D01*
X-1545518Y-61498871D01*
X-483443Y-60436796D01*
X927941Y-60436796D01*
X1990015Y-61498870D01*
X3052090Y-60436796D01*
X4463474Y-60436796D01*
X5525549Y-61498870D01*
X6512592Y-60511828D01*
X6512592Y-60361764D01*
X5525549Y-59374721D01*
X4463474Y-60436796D01*
X3052090Y-60436796D01*
X1990015Y-59374721D01*
X927941Y-60436796D01*
X-483443Y-60436796D01*
X-1545518Y-59374721D01*
X-2607593Y-60436796D01*
X-4018977Y-60436796D01*
X-5081052Y-59374721D01*
X-6143127Y-60436796D01*
X-7938408Y-60436796D01*
X-7938408Y-57698543D01*
X-6940408Y-57698543D01*
X-6940408Y-59639515D01*
X-6848819Y-59731104D01*
X-5786744Y-58669029D01*
X-4375360Y-58669029D01*
X-3313285Y-59731104D01*
X-2251210Y-58669029D01*
X-839826Y-58669029D01*
X222248Y-59731103D01*
X1284323Y-58669029D01*
X2695708Y-58669029D01*
X3757782Y-59731103D01*
X4819857Y-58669029D01*
X3757782Y-57606954D01*
X2695708Y-58669029D01*
X1284323Y-58669029D01*
X222248Y-57606954D01*
X-839826Y-58669029D01*
X-2251210Y-58669029D01*
X-3313285Y-57606954D01*
X-4375360Y-58669029D01*
X-5786744Y-58669029D01*
X-6848819Y-57606954D01*
X-6940408Y-57698543D01*
X-7938408Y-57698543D01*
X-7938408Y-56901262D01*
X-6143126Y-56901262D01*
X-5081052Y-57963337D01*
X-4018977Y-56901262D01*
X-2607592Y-56901262D01*
X-1545518Y-57963337D01*
X-483443Y-56901262D01*
X927941Y-56901262D01*
X1990015Y-57963336D01*
X3052090Y-56901262D01*
X4463474Y-56901262D01*
X5525549Y-57963336D01*
X6512592Y-56976294D01*
X6512592Y-56826230D01*
X5525549Y-55839187D01*
X4463474Y-56901262D01*
X3052090Y-56901262D01*
X1990015Y-55839187D01*
X927941Y-56901262D01*
X-483443Y-56901262D01*
X-1545518Y-55839187D01*
X-2607592Y-56901262D01*
X-4018977Y-56901262D01*
X-5081052Y-55839187D01*
X-6143126Y-56901262D01*
X-7938408Y-56901262D01*
X-7938408Y-54163009D01*
X-6940408Y-54163009D01*
X-6940408Y-56103981D01*
X-6848819Y-56195570D01*
X-5786744Y-55133495D01*
X-4375359Y-55133495D01*
X-3313285Y-56195570D01*
X-2251210Y-55133495D01*
X-839825Y-55133495D01*
X222248Y-56195569D01*
X1284323Y-55133495D01*
X2695708Y-55133495D01*
X3757782Y-56195569D01*
X4819857Y-55133495D01*
X3757782Y-54071420D01*
X2695708Y-55133495D01*
X1284323Y-55133495D01*
X222248Y-54071420D01*
X-839825Y-55133495D01*
X-2251210Y-55133495D01*
X-3313285Y-54071420D01*
X-4375359Y-55133495D01*
X-5786744Y-55133495D01*
X-6848819Y-54071420D01*
X-6940408Y-54163009D01*
X-7938408Y-54163009D01*
X-7938408Y-53365728D01*
X-6143126Y-53365728D01*
X-5081052Y-54427803D01*
X-4018977Y-53365728D01*
X-2607592Y-53365728D01*
X-1545518Y-54427803D01*
X-483443Y-53365728D01*
X927941Y-53365728D01*
X1990015Y-54427802D01*
X3052090Y-53365728D01*
X4463474Y-53365728D01*
X5525549Y-54427802D01*
X6512592Y-53440760D01*
X6512592Y-53290696D01*
X5525549Y-52303653D01*
X4463474Y-53365728D01*
X3052090Y-53365728D01*
X1990015Y-52303653D01*
X927941Y-53365728D01*
X-483443Y-53365728D01*
X-1545518Y-52303653D01*
X-2607592Y-53365728D01*
X-4018977Y-53365728D01*
X-5081052Y-52303653D01*
X-6143126Y-53365728D01*
X-7938408Y-53365728D01*
X-7938408Y-51993927D01*
X-6940408Y-51993927D01*
X-6940408Y-52568447D01*
X-6848818Y-52660036D01*
X-5786743Y-51597961D01*
X-4375359Y-51597961D01*
X-3313285Y-52660036D01*
X-2251210Y-51597961D01*
X-839825Y-51597961D01*
X222248Y-52660036D01*
X1284323Y-51597961D01*
X2695708Y-51597961D01*
X3757782Y-52660036D01*
X4819857Y-51597961D01*
X3757782Y-50535887D01*
X2695708Y-51597961D01*
X1284323Y-51597961D01*
X222248Y-50535887D01*
X-839825Y-51597961D01*
X-2251210Y-51597961D01*
X-3313285Y-50535887D01*
X-4375359Y-51597961D01*
X-5786743Y-51597961D01*
X-6717997Y-50666708D01*
X-6724232Y-50682691D01*
X-6817946Y-50997538D01*
X-6885353Y-51319082D01*
X-6925980Y-51645084D01*
X-6940408Y-51993927D01*
X-7938408Y-51993927D01*
X-7938408Y-51975877D01*
X-7938302Y-51970753D01*
X-7921635Y-51567731D01*
X-7920789Y-51557520D01*
X-7871223Y-51159795D01*
X-7869537Y-51149688D01*
X-7787301Y-50757407D01*
X-7784786Y-50747474D01*
X-7670446Y-50363330D01*
X-7667120Y-50353639D01*
X-7521452Y-49980242D01*
X-7517337Y-49970858D01*
X-7448587Y-49830194D01*
X-6143126Y-49830194D01*
X-5081052Y-50892269D01*
X-4018977Y-49830194D01*
X-2607592Y-49830194D01*
X-1545518Y-50892269D01*
X-483443Y-49830194D01*
X927941Y-49830194D01*
X1990015Y-50892269D01*
X3052090Y-49830194D01*
X4463474Y-49830194D01*
X5525549Y-50892269D01*
X6133000Y-50284817D01*
X6032372Y-50079026D01*
X5864108Y-49796711D01*
X5673107Y-49529268D01*
X5460668Y-49278513D01*
X5237877Y-49055791D01*
X4463474Y-49830194D01*
X3052090Y-49830194D01*
X1990015Y-48768120D01*
X927941Y-49830194D01*
X-483443Y-49830194D01*
X-1545518Y-48768120D01*
X-2607592Y-49830194D01*
X-4018977Y-49830194D01*
X-5081052Y-48768120D01*
X-6143126Y-49830194D01*
X-7448587Y-49830194D01*
X-7341337Y-49610759D01*
X-7336460Y-49601747D01*
X-7131329Y-49257410D01*
X-7125726Y-49248831D01*
X-6892876Y-48922617D01*
X-6886584Y-48914530D01*
X-6627578Y-48608635D01*
X-6620639Y-48601096D01*
X-6337281Y-48317648D01*
X-6329744Y-48310707D01*
X-6206402Y-48206205D01*
X-4231581Y-48206205D01*
X-3313284Y-49124502D01*
X-2251210Y-48062428D01*
X-839826Y-48062428D01*
X222248Y-49124502D01*
X1284323Y-48062428D01*
X1284322Y-48062427D01*
X2695707Y-48062427D01*
X3757782Y-49124502D01*
X4414136Y-48468148D01*
X4132233Y-48330414D01*
X3826041Y-48211021D01*
X3511039Y-48117330D01*
X3189334Y-48049968D01*
X2863230Y-48009414D01*
X2753236Y-48004898D01*
X2695707Y-48062427D01*
X1284322Y-48062427D01*
X1217389Y-47995494D01*
X-773520Y-47996122D01*
X-839826Y-48062428D01*
X-2251210Y-48062428D01*
X-2251209Y-48062427D01*
X-2317026Y-47996610D01*
X-2647029Y-47996714D01*
X-2647356Y-47996750D01*
X-2944629Y-47996811D01*
X-3293402Y-48011346D01*
X-3619375Y-48052074D01*
X-3940896Y-48119582D01*
X-4231581Y-48206205D01*
X-6206402Y-48206205D01*
X-6023937Y-48051610D01*
X-6015852Y-48045315D01*
X-5689713Y-47812362D01*
X-5681136Y-47806755D01*
X-5336849Y-47601508D01*
X-5327838Y-47596630D01*
X-5326809Y-47596127D01*
X-4967807Y-47420521D01*
X-4958426Y-47416404D01*
X-4585068Y-47270615D01*
X-4575400Y-47267293D01*
X-4191265Y-47152823D01*
X-4181350Y-47150309D01*
X-3789067Y-47067944D01*
X-3778997Y-47066261D01*
X-3381259Y-47016565D01*
X-3371066Y-47015717D01*
X-2968040Y-46998923D01*
X-2962995Y-46998816D01*
X-2958212Y-46998815D01*
X-2958196Y-46998815D01*
X-2958195Y-46998814D01*
X2531995Y-46997080D01*
X2537041Y-46997183D01*
X2940300Y-47013738D01*
X2950475Y-47014579D01*
X3348398Y-47064063D01*
X3358481Y-47065742D01*
X3750957Y-47147923D01*
X3760894Y-47150437D01*
X3876213Y-47184736D01*
X4145229Y-47264750D01*
X4154904Y-47268069D01*
X4525072Y-47412406D01*
X4528481Y-47413736D01*
X4537869Y-47417851D01*
X4898145Y-47593879D01*
X4907140Y-47598744D01*
X4993500Y-47650179D01*
X5251650Y-47803931D01*
X5260232Y-47809536D01*
X5586597Y-48042461D01*
X5594688Y-48048756D01*
X5900718Y-48307859D01*
X5908238Y-48314780D01*
X6007905Y-48414415D01*
X6191817Y-48598269D01*
X6198761Y-48605810D01*
X6457946Y-48911742D01*
X6464243Y-48919830D01*
X6697274Y-49246124D01*
X6702882Y-49254705D01*
X6908165Y-49599131D01*
X6913045Y-49608145D01*
X7089186Y-49968364D01*
X7093304Y-49977751D01*
X7157744Y-50142858D01*
X7213149Y-50284817D01*
X7239086Y-50351271D01*
X7242415Y-50360967D01*
X7356846Y-50745255D01*
X7359363Y-50755191D01*
X7441665Y-51147627D01*
X7443352Y-51157738D01*
X7492957Y-51555612D01*
X7493804Y-51565828D01*
X7510486Y-51969069D01*
X7510592Y-51974194D01*
X7510592Y-72891874D01*
X7509531Y-72908059D01*
X7496555Y-73006622D01*
X7488177Y-73037889D01*
X7468111Y-73086333D01*
X7453268Y-73122167D01*
X7437082Y-73150200D01*
X7381552Y-73222567D01*
X7358663Y-73245456D01*
X7286295Y-73300985D01*
X7258260Y-73317171D01*
X7173981Y-73352079D01*
X7142714Y-73360456D01*
X7053510Y-73372199D01*
X7044090Y-73373439D01*
X7027908Y-73374500D01*
X6044377Y-73374500D01*
X6036092Y-73374500D01*
X5941065Y-73374500D01*
X5754248Y-73409422D01*
X5754245Y-73409422D01*
X5754245Y-73409423D01*
X5577030Y-73478075D01*
X5577029Y-73478076D01*
X5415440Y-73578128D01*
X5274992Y-73706162D01*
X5160459Y-73857828D01*
X5160454Y-73857836D01*
X5075748Y-74027948D01*
X5075743Y-74027961D01*
X5023732Y-74210758D01*
X5006197Y-74399999D01*
X5006197Y-74400000D01*
X5023732Y-74589241D01*
X5023733Y-74589243D01*
X5075744Y-74772041D01*
X5075744Y-74772042D01*
X5075748Y-74772051D01*
X5160454Y-74942163D01*
X5160459Y-74942171D01*
X5274992Y-75093837D01*
X5395817Y-75203982D01*
X5415442Y-75221873D01*
X5577028Y-75321923D01*
X5577029Y-75321923D01*
X5577030Y-75321924D01*
X5614573Y-75336468D01*
X5754248Y-75390578D01*
X5941065Y-75425500D01*
X6025530Y-75425500D01*
X7027807Y-75425500D01*
X7027968Y-75425500D01*
X7044151Y-75426560D01*
X7142718Y-75439536D01*
X7173984Y-75447913D01*
X7258264Y-75482821D01*
X7286298Y-75499006D01*
X7358669Y-75554538D01*
X7381553Y-75577421D01*
X7437089Y-75649795D01*
X7453274Y-75677829D01*
X7488183Y-75762107D01*
X7496561Y-75793373D01*
X7507226Y-75874373D01*
X7509209Y-75889438D01*
X7509531Y-75891879D01*
X7510592Y-75908066D01*
X7510592Y-76391874D01*
X7509531Y-76408059D01*
X7496555Y-76506622D01*
X7488177Y-76537891D01*
X7453268Y-76622167D01*
X7437082Y-76650200D01*
X7381552Y-76722567D01*
X7358663Y-76745456D01*
X7286295Y-76800985D01*
X7258260Y-76817171D01*
X7173981Y-76852079D01*
X7142714Y-76860456D01*
X7053510Y-76872199D01*
X7044090Y-76873439D01*
X7027908Y-76874500D01*
X3127463Y-76874500D01*
X3127432Y-76874491D01*
X2986374Y-76874492D01*
X2986371Y-76874493D01*
X2809663Y-76905653D01*
X2809661Y-76905653D01*
X2809659Y-76905654D01*
X2755134Y-76925500D01*
X2641037Y-76967028D01*
X2641036Y-76967029D01*
X2485645Y-77056744D01*
X2485639Y-77056749D01*
X2348183Y-77172089D01*
X2232844Y-77309547D01*
X2232842Y-77309550D01*
X2143125Y-77464943D01*
X2143122Y-77464950D01*
X2081750Y-77633567D01*
X2050592Y-77810277D01*
X2050592Y-85435209D01*
X2050600Y-85435243D01*
X2050600Y-85489721D01*
X2081758Y-85666431D01*
X2143130Y-85835046D01*
X2143133Y-85835053D01*
X2173268Y-85887248D01*
X2232849Y-85990447D01*
X2263015Y-86026397D01*
X2348192Y-86127907D01*
X2370360Y-86146508D01*
X2485647Y-86243247D01*
X2485648Y-86243248D01*
X2485650Y-86243249D01*
X2641039Y-86332963D01*
X2641042Y-86332964D01*
X2641045Y-86332966D01*
X2809661Y-86394339D01*
X2986374Y-86425499D01*
X3040864Y-86425499D01*
X3040868Y-86425500D01*
X3065531Y-86425500D01*
X3076093Y-86425500D01*
X3084378Y-86425500D01*
X7027807Y-86425500D01*
X7027968Y-86425500D01*
X7044151Y-86426560D01*
X7142718Y-86439536D01*
X7173984Y-86447913D01*
X7258264Y-86482821D01*
X7286298Y-86499006D01*
X7358669Y-86554538D01*
X7381553Y-86577421D01*
X7437089Y-86649795D01*
X7453274Y-86677829D01*
X7488183Y-86762107D01*
X7496561Y-86793373D01*
X7503318Y-86844690D01*
X7509209Y-86889438D01*
X7509531Y-86891879D01*
X7510592Y-86908066D01*
X7510592Y-87391874D01*
X7509531Y-87408059D01*
X7496555Y-87506622D01*
X7488177Y-87537891D01*
X7453268Y-87622167D01*
X7437082Y-87650200D01*
X7381552Y-87722567D01*
X7358663Y-87745456D01*
X7286295Y-87800985D01*
X7258260Y-87817171D01*
X7173981Y-87852079D01*
X7142714Y-87860456D01*
X7053510Y-87872199D01*
X7044090Y-87873439D01*
X7027908Y-87874500D01*
X6044377Y-87874500D01*
X6036092Y-87874500D01*
X5941065Y-87874500D01*
X5754248Y-87909422D01*
X5754245Y-87909422D01*
X5754245Y-87909423D01*
X5577030Y-87978075D01*
X5577029Y-87978076D01*
X5415440Y-88078128D01*
X5274992Y-88206162D01*
X5160459Y-88357828D01*
X5160454Y-88357836D01*
X5075748Y-88527948D01*
X5075743Y-88527961D01*
X5023732Y-88710758D01*
X5006197Y-88899999D01*
X5006197Y-88900000D01*
X5023732Y-89089241D01*
X5023733Y-89089243D01*
X5075744Y-89272041D01*
X5075744Y-89272042D01*
X5075748Y-89272051D01*
X5160454Y-89442163D01*
X5160459Y-89442171D01*
X5274992Y-89593837D01*
X5395817Y-89703982D01*
X5415442Y-89721873D01*
X5577028Y-89821923D01*
X5577029Y-89821923D01*
X5577030Y-89821924D01*
X5614573Y-89836468D01*
X5754248Y-89890578D01*
X5941065Y-89925500D01*
X6025530Y-89925500D01*
X7027807Y-89925500D01*
X7027968Y-89925500D01*
X7044151Y-89926560D01*
X7142718Y-89939536D01*
X7173984Y-89947913D01*
X7258264Y-89982821D01*
X7286298Y-89999006D01*
X7358669Y-90054538D01*
X7381553Y-90077421D01*
X7437089Y-90149795D01*
X7453274Y-90177829D01*
X7488183Y-90262107D01*
X7496561Y-90293373D01*
X7507226Y-90374373D01*
X7509209Y-90389438D01*
X7509531Y-90391879D01*
X7510592Y-90408066D01*
X7510592Y-111325857D01*
X7510486Y-111330983D01*
X7493806Y-111734172D01*
X7492959Y-111744387D01*
X7443354Y-112142261D01*
X7441667Y-112152372D01*
X7359364Y-112544811D01*
X7356847Y-112554748D01*
X7242417Y-112939031D01*
X7239088Y-112948726D01*
X7093306Y-113322249D01*
X7089188Y-113331636D01*
X6913047Y-113691855D01*
X6908167Y-113700869D01*
X6702884Y-114045294D01*
X6697276Y-114053875D01*
X6464245Y-114380169D01*
X6457948Y-114388257D01*
X6198762Y-114694190D01*
X6191818Y-114701731D01*
X5908250Y-114985210D01*
X5900708Y-114992151D01*
X5594689Y-115251244D01*
X5586598Y-115257539D01*
X5260233Y-115490464D01*
X5251651Y-115496069D01*
X4907151Y-115701250D01*
X4898134Y-115706127D01*
X4537870Y-115882149D01*
X4528482Y-115886264D01*
X4154915Y-116031927D01*
X4145219Y-116035253D01*
X3760894Y-116149563D01*
X3750957Y-116152077D01*
X3358498Y-116234255D01*
X3348386Y-116235939D01*
X2950496Y-116285419D01*
X2940280Y-116286263D01*
X2537105Y-116302814D01*
X2531980Y-116302918D01*
X-2939778Y-116301189D01*
X-2958204Y-116301184D01*
X-2958246Y-116301183D01*
X-2962943Y-116301182D01*
X-2968054Y-116301074D01*
X-3371057Y-116284281D01*
X-3381268Y-116283432D01*
X-3778979Y-116233740D01*
X-3789085Y-116232051D01*
X-4181340Y-116149691D01*
X-4191272Y-116147173D01*
X-4575388Y-116032709D01*
X-4585079Y-116029379D01*
X-4958426Y-115883594D01*
X-4967808Y-115879476D01*
X-5327847Y-115703365D01*
X-5336858Y-115698486D01*
X-5681126Y-115493249D01*
X-5689703Y-115487643D01*
X-6015844Y-115254688D01*
X-6023928Y-115248394D01*
X-6206402Y-115093792D01*
X-4231580Y-115093792D01*
X-3940901Y-115180412D01*
X-3619374Y-115247922D01*
X-3293401Y-115288650D01*
X-2944544Y-115303187D01*
X-2317023Y-115303385D01*
X-2251210Y-115237572D01*
X-2251211Y-115237571D01*
X-839825Y-115237571D01*
X-773523Y-115303873D01*
X1217392Y-115304501D01*
X1284321Y-115237572D01*
X2695708Y-115237572D01*
X2753235Y-115295099D01*
X2863230Y-115290584D01*
X3189334Y-115250030D01*
X3511039Y-115182668D01*
X3826038Y-115088978D01*
X4132243Y-114969581D01*
X4414135Y-114831850D01*
X3757782Y-114175497D01*
X2695708Y-115237572D01*
X1284321Y-115237572D01*
X1284322Y-115237571D01*
X222248Y-114175497D01*
X-839825Y-115237571D01*
X-2251211Y-115237571D01*
X-3313285Y-114175497D01*
X-4231580Y-115093792D01*
X-6206402Y-115093792D01*
X-6329749Y-114989286D01*
X-6337287Y-114982344D01*
X-6620638Y-114698903D01*
X-6627577Y-114691364D01*
X-6886583Y-114385468D01*
X-6892875Y-114377381D01*
X-7125725Y-114051167D01*
X-7131329Y-114042588D01*
X-7336465Y-113698241D01*
X-7341340Y-113689229D01*
X-7448585Y-113469805D01*
X-6143127Y-113469805D01*
X-5081052Y-114531880D01*
X-4018977Y-113469805D01*
X-2607593Y-113469805D01*
X-1545518Y-114531880D01*
X-483443Y-113469805D01*
X927941Y-113469805D01*
X1990015Y-114531879D01*
X3052090Y-113469805D01*
X3052089Y-113469804D01*
X4463474Y-113469804D01*
X5237877Y-114244207D01*
X5460669Y-114021485D01*
X5673109Y-113770729D01*
X5864113Y-113503283D01*
X6032372Y-113220976D01*
X6133001Y-113015182D01*
X5525549Y-112407730D01*
X4463474Y-113469804D01*
X3052089Y-113469804D01*
X1990015Y-112407730D01*
X927941Y-113469805D01*
X-483443Y-113469805D01*
X-1545518Y-112407730D01*
X-2607593Y-113469805D01*
X-4018977Y-113469805D01*
X-5081052Y-112407730D01*
X-6143127Y-113469805D01*
X-7448585Y-113469805D01*
X-7517331Y-113329151D01*
X-7521447Y-113319767D01*
X-7667119Y-112946360D01*
X-7670445Y-112936669D01*
X-7784785Y-112552525D01*
X-7787300Y-112542592D01*
X-7869536Y-112150310D01*
X-7871222Y-112140203D01*
X-7920788Y-111742478D01*
X-7921634Y-111732267D01*
X-7938302Y-111329212D01*
X-7938408Y-111324088D01*
X-7938408Y-110731552D01*
X-6940408Y-110731552D01*
X-6940408Y-111306014D01*
X-6925978Y-111654924D01*
X-6885352Y-111980917D01*
X-6817945Y-112302457D01*
X-6724231Y-112617306D01*
X-6717996Y-112633290D01*
X-5786744Y-111702038D01*
X-4375360Y-111702038D01*
X-3313285Y-112764113D01*
X-2251210Y-111702038D01*
X-839826Y-111702038D01*
X222248Y-112764112D01*
X1284323Y-111702038D01*
X2695708Y-111702038D01*
X3757782Y-112764112D01*
X4819857Y-111702038D01*
X3757782Y-110639963D01*
X2695708Y-111702038D01*
X1284323Y-111702038D01*
X222248Y-110639963D01*
X-839826Y-111702038D01*
X-2251210Y-111702038D01*
X-3313285Y-110639963D01*
X-4375360Y-111702038D01*
X-5786744Y-111702038D01*
X-6848819Y-110639963D01*
X-6940408Y-110731552D01*
X-7938408Y-110731552D01*
X-7938408Y-109934271D01*
X-6143127Y-109934271D01*
X-5081052Y-110996346D01*
X-4018977Y-109934271D01*
X-2607593Y-109934271D01*
X-1545518Y-110996346D01*
X-483443Y-109934271D01*
X927941Y-109934271D01*
X1990015Y-110996345D01*
X3052090Y-109934271D01*
X4463474Y-109934271D01*
X5525549Y-110996345D01*
X6512592Y-110009303D01*
X6512592Y-109859239D01*
X5525549Y-108872196D01*
X4463474Y-109934271D01*
X3052090Y-109934271D01*
X1990015Y-108872196D01*
X927941Y-109934271D01*
X-483443Y-109934271D01*
X-1545518Y-108872196D01*
X-2607593Y-109934271D01*
X-4018977Y-109934271D01*
X-5081052Y-108872196D01*
X-6143127Y-109934271D01*
X-7938408Y-109934271D01*
X-7938408Y-107196018D01*
X-6940408Y-107196018D01*
X-6940408Y-109136990D01*
X-6848819Y-109228579D01*
X-5786744Y-108166504D01*
X-4375360Y-108166504D01*
X-3313285Y-109228579D01*
X-2251210Y-108166504D01*
X-839826Y-108166504D01*
X222248Y-109228578D01*
X1284323Y-108166504D01*
X2695708Y-108166504D01*
X3757782Y-109228578D01*
X4819857Y-108166504D01*
X3757782Y-107104429D01*
X2695708Y-108166504D01*
X1284323Y-108166504D01*
X222248Y-107104429D01*
X-839826Y-108166504D01*
X-2251210Y-108166504D01*
X-3313285Y-107104429D01*
X-4375360Y-108166504D01*
X-5786744Y-108166504D01*
X-6848819Y-107104429D01*
X-6940408Y-107196018D01*
X-7938408Y-107196018D01*
X-7938408Y-106398737D01*
X-6143127Y-106398737D01*
X-5081052Y-107460812D01*
X-4018977Y-106398737D01*
X-2607593Y-106398737D01*
X-1545518Y-107460812D01*
X-483443Y-106398737D01*
X927941Y-106398737D01*
X1990015Y-107460811D01*
X3052090Y-106398737D01*
X4463474Y-106398737D01*
X5525549Y-107460811D01*
X6512592Y-106473769D01*
X6512592Y-106323705D01*
X5525549Y-105336662D01*
X4463474Y-106398737D01*
X3052090Y-106398737D01*
X1990015Y-105336662D01*
X927941Y-106398737D01*
X-483443Y-106398737D01*
X-1545518Y-105336662D01*
X-2607593Y-106398737D01*
X-4018977Y-106398737D01*
X-5081052Y-105336662D01*
X-6143127Y-106398737D01*
X-7938408Y-106398737D01*
X-7938408Y-103660484D01*
X-6940408Y-103660484D01*
X-6940408Y-105601456D01*
X-6848819Y-105693045D01*
X-5786744Y-104630970D01*
X-4375360Y-104630970D01*
X-3313285Y-105693045D01*
X-2251210Y-104630970D01*
X-839826Y-104630970D01*
X222248Y-105693044D01*
X1284323Y-104630970D01*
X2695708Y-104630970D01*
X3757782Y-105693044D01*
X4819857Y-104630970D01*
X3757782Y-103568895D01*
X2695708Y-104630970D01*
X1284323Y-104630970D01*
X222248Y-103568895D01*
X-839826Y-104630970D01*
X-2251210Y-104630970D01*
X-3313285Y-103568895D01*
X-4375360Y-104630970D01*
X-5786744Y-104630970D01*
X-6848819Y-103568895D01*
X-6940408Y-103660484D01*
X-7938408Y-103660484D01*
X-7938408Y-102863203D01*
X-6143127Y-102863203D01*
X-5081052Y-103925278D01*
X-4018977Y-102863203D01*
X-2607593Y-102863203D01*
X-1545518Y-103925278D01*
X-483443Y-102863203D01*
X927941Y-102863203D01*
X1990015Y-103925277D01*
X3052090Y-102863203D01*
X4463474Y-102863203D01*
X5525549Y-103925277D01*
X6512592Y-102938235D01*
X6512592Y-102788171D01*
X5525549Y-101801128D01*
X4463474Y-102863203D01*
X3052090Y-102863203D01*
X1990015Y-101801128D01*
X927941Y-102863203D01*
X-483443Y-102863203D01*
X-1545518Y-101801128D01*
X-2607593Y-102863203D01*
X-4018977Y-102863203D01*
X-5081052Y-101801128D01*
X-6143127Y-102863203D01*
X-7938408Y-102863203D01*
X-7938408Y-100124950D01*
X-6940408Y-100124950D01*
X-6940408Y-102065922D01*
X-6848819Y-102157511D01*
X-5786744Y-101095436D01*
X-4375360Y-101095436D01*
X-3313285Y-102157511D01*
X-2251210Y-101095436D01*
X-839826Y-101095436D01*
X222248Y-102157510D01*
X1284323Y-101095436D01*
X2695708Y-101095436D01*
X3757782Y-102157510D01*
X4819857Y-101095436D01*
X3757782Y-100033361D01*
X2695708Y-101095436D01*
X1284323Y-101095436D01*
X222248Y-100033361D01*
X-839826Y-101095436D01*
X-2251210Y-101095436D01*
X-3313285Y-100033361D01*
X-4375360Y-101095436D01*
X-5786744Y-101095436D01*
X-6848819Y-100033361D01*
X-6940408Y-100124950D01*
X-7938408Y-100124950D01*
X-7938408Y-99327669D01*
X-6143127Y-99327669D01*
X-5081052Y-100389744D01*
X-4018977Y-99327669D01*
X-2607593Y-99327669D01*
X-1545518Y-100389744D01*
X-483443Y-99327669D01*
X927941Y-99327669D01*
X1990015Y-100389743D01*
X3052090Y-99327669D01*
X4463474Y-99327669D01*
X5525549Y-100389743D01*
X6512592Y-99402701D01*
X6512592Y-99252637D01*
X5525549Y-98265594D01*
X4463474Y-99327669D01*
X3052090Y-99327669D01*
X1990015Y-98265594D01*
X927941Y-99327669D01*
X-483443Y-99327669D01*
X-1545518Y-98265594D01*
X-2607593Y-99327669D01*
X-4018977Y-99327669D01*
X-5081052Y-98265594D01*
X-6143127Y-99327669D01*
X-7938408Y-99327669D01*
X-7938408Y-96589416D01*
X-6940408Y-96589416D01*
X-6940408Y-98530388D01*
X-6848819Y-98621977D01*
X-5786744Y-97559902D01*
X-4375360Y-97559902D01*
X-3313285Y-98621977D01*
X-2251210Y-97559902D01*
X-839826Y-97559902D01*
X222248Y-98621976D01*
X1284323Y-97559902D01*
X2695708Y-97559902D01*
X3757782Y-98621976D01*
X4819857Y-97559902D01*
X3757782Y-96497827D01*
X2695708Y-97559902D01*
X1284323Y-97559902D01*
X222248Y-96497827D01*
X-839826Y-97559902D01*
X-2251210Y-97559902D01*
X-3313285Y-96497827D01*
X-4375360Y-97559902D01*
X-5786744Y-97559902D01*
X-6848819Y-96497827D01*
X-6940408Y-96589416D01*
X-7938408Y-96589416D01*
X-7938408Y-95792135D01*
X-6143127Y-95792135D01*
X-5081052Y-96854210D01*
X-4018977Y-95792135D01*
X-2607593Y-95792135D01*
X-1545518Y-96854210D01*
X-483443Y-95792135D01*
X927941Y-95792135D01*
X1990015Y-96854209D01*
X3052090Y-95792135D01*
X4463474Y-95792135D01*
X5525549Y-96854209D01*
X6512592Y-95867167D01*
X6512592Y-95717103D01*
X5525549Y-94730060D01*
X4463474Y-95792135D01*
X3052090Y-95792135D01*
X1990015Y-94730060D01*
X927941Y-95792135D01*
X-483443Y-95792135D01*
X-1545518Y-94730060D01*
X-2607593Y-95792135D01*
X-4018977Y-95792135D01*
X-5081052Y-94730060D01*
X-6143127Y-95792135D01*
X-7938408Y-95792135D01*
X-7938408Y-93053882D01*
X-6940408Y-93053882D01*
X-6940408Y-94994854D01*
X-6848819Y-95086443D01*
X-5786744Y-94024368D01*
X-4375359Y-94024368D01*
X-3313285Y-95086443D01*
X-2251210Y-94024368D01*
X2695708Y-94024368D01*
X3757782Y-95086442D01*
X4819857Y-94024368D01*
X3757782Y-92962293D01*
X2695708Y-94024368D01*
X-2251210Y-94024368D01*
X-3313285Y-92962293D01*
X-4375359Y-94024368D01*
X-5786744Y-94024368D01*
X-6848819Y-92962293D01*
X-6940408Y-93053882D01*
X-7938408Y-93053882D01*
X-7938408Y-92256601D01*
X-6143126Y-92256601D01*
X-5081052Y-93318676D01*
X-4018977Y-92256601D01*
X-2607592Y-92256601D01*
X-1545518Y-93318676D01*
X-483443Y-92256601D01*
X927941Y-92256601D01*
X1990015Y-93318675D01*
X3052090Y-92256601D01*
X4463474Y-92256601D01*
X5525549Y-93318675D01*
X6512592Y-92331633D01*
X6512592Y-92181569D01*
X5525549Y-91194526D01*
X4463474Y-92256601D01*
X3052090Y-92256601D01*
X1990015Y-91194526D01*
X927941Y-92256601D01*
X-483443Y-92256601D01*
X-1545518Y-91194526D01*
X-2607592Y-92256601D01*
X-4018977Y-92256601D01*
X-5081052Y-91194526D01*
X-6143126Y-92256601D01*
X-7938408Y-92256601D01*
X-7938408Y-90488834D01*
X-4375359Y-90488834D01*
X-3313285Y-91550909D01*
X-2251210Y-90488834D01*
X-839825Y-90488834D01*
X222248Y-91550909D01*
X1284323Y-90488834D01*
X2695708Y-90488834D01*
X3757782Y-91550908D01*
X4800557Y-90508133D01*
X4795600Y-90504390D01*
X4791111Y-90500834D01*
X4764454Y-90478698D01*
X4760134Y-90474938D01*
X4585600Y-90315829D01*
X4581457Y-90311873D01*
X4556948Y-90287364D01*
X4552991Y-90283220D01*
X4521920Y-90249136D01*
X4518160Y-90244815D01*
X4496023Y-90218156D01*
X4492467Y-90213667D01*
X4350143Y-90025200D01*
X4346800Y-90020553D01*
X4336413Y-90005391D01*
X3757782Y-89426760D01*
X2695708Y-90488834D01*
X1284323Y-90488834D01*
X222248Y-89426760D01*
X-839825Y-90488834D01*
X-2251210Y-90488834D01*
X-3313285Y-89426760D01*
X-4375359Y-90488834D01*
X-7938408Y-90488834D01*
X-7938408Y-90408123D01*
X-7937347Y-90391938D01*
X-7924371Y-90293376D01*
X-7915993Y-90262109D01*
X-7881086Y-90177834D01*
X-7864900Y-90149798D01*
X-7864897Y-90149795D01*
X-7840996Y-90118646D01*
X-7809367Y-90077428D01*
X-7786480Y-90054541D01*
X-7722428Y-90005391D01*
X-7714106Y-89999005D01*
X-7686077Y-89982823D01*
X-7646558Y-89966454D01*
X-7601799Y-89947915D01*
X-7570532Y-89939537D01*
X-7471968Y-89926561D01*
X-7455783Y-89925500D01*
X-6368884Y-89925500D01*
X-6368882Y-89925500D01*
X-6182065Y-89890577D01*
X-6004846Y-89821922D01*
X-5843260Y-89721872D01*
X-5702809Y-89593834D01*
X-5588276Y-89442169D01*
X-5580603Y-89426759D01*
X-5503562Y-89272042D01*
X-5451551Y-89089239D01*
X-5434016Y-88900000D01*
X-5434016Y-88899999D01*
X-5450596Y-88721067D01*
X-2607592Y-88721067D01*
X-1545518Y-89783142D01*
X-483443Y-88721067D01*
X927941Y-88721067D01*
X1990015Y-89783142D01*
X3052090Y-88721067D01*
X1990015Y-87658993D01*
X927941Y-88721067D01*
X-483443Y-88721067D01*
X-1545518Y-87658993D01*
X-2607592Y-88721067D01*
X-5450596Y-88721067D01*
X-5451551Y-88710760D01*
X-5503562Y-88527957D01*
X-5588276Y-88357830D01*
X-5702810Y-88206164D01*
X-5843258Y-88078129D01*
X-6004847Y-87978077D01*
X-6004851Y-87978075D01*
X-6134731Y-87927760D01*
X-6182065Y-87909423D01*
X-6368882Y-87874500D01*
X-6368884Y-87874500D01*
X-7455783Y-87874500D01*
X-7471967Y-87873439D01*
X-7482153Y-87872098D01*
X-7570533Y-87860462D01*
X-7601799Y-87852084D01*
X-7686074Y-87817177D01*
X-7714110Y-87800991D01*
X-7786480Y-87745458D01*
X-7809367Y-87722571D01*
X-7864900Y-87650201D01*
X-7881086Y-87622165D01*
X-7915993Y-87537890D01*
X-7924371Y-87506624D01*
X-7935315Y-87423500D01*
X-3905161Y-87423500D01*
X-3313285Y-88015375D01*
X-2251209Y-86953300D01*
X-839825Y-86953300D01*
X222248Y-88015375D01*
X1284323Y-86953300D01*
X222248Y-85891226D01*
X-839825Y-86953300D01*
X-2251209Y-86953300D01*
X-2380608Y-86823901D01*
X-2405707Y-86849000D01*
X-2409613Y-86852739D01*
X-2433744Y-86874852D01*
X-2437814Y-86878422D01*
X-2608631Y-87021753D01*
X-2612845Y-87025135D01*
X-2638791Y-87045046D01*
X-2643153Y-87048245D01*
X-2678831Y-87073230D01*
X-2683331Y-87076237D01*
X-2710955Y-87093837D01*
X-2715584Y-87096646D01*
X-2908720Y-87208154D01*
X-2913466Y-87210758D01*
X-2942509Y-87225876D01*
X-2947362Y-87228269D01*
X-2986839Y-87246676D01*
X-2991790Y-87248854D01*
X-3022018Y-87261374D01*
X-3027057Y-87263334D01*
X-3236609Y-87339606D01*
X-3241734Y-87341345D01*
X-3272966Y-87351192D01*
X-3278164Y-87352707D01*
X-3320239Y-87363979D01*
X-3325492Y-87365264D01*
X-3357432Y-87372344D01*
X-3362735Y-87373399D01*
X-3582331Y-87412119D01*
X-3587677Y-87412942D01*
X-3620117Y-87417213D01*
X-3625491Y-87417802D01*
X-3668884Y-87421600D01*
X-3674287Y-87421954D01*
X-3706994Y-87423382D01*
X-3712403Y-87423500D01*
X-3905161Y-87423500D01*
X-7935315Y-87423500D01*
X-7937348Y-87408060D01*
X-7938409Y-87391874D01*
X-7938409Y-86908125D01*
X-7937348Y-86891939D01*
X-7924371Y-86793375D01*
X-7915993Y-86762109D01*
X-7881086Y-86677834D01*
X-7864900Y-86649798D01*
X-7864897Y-86649795D01*
X-7823854Y-86596307D01*
X-7809367Y-86577428D01*
X-7786480Y-86554541D01*
X-7749365Y-86526061D01*
X-7714106Y-86499005D01*
X-7686077Y-86482823D01*
X-7646558Y-86466454D01*
X-7601799Y-86447915D01*
X-7570532Y-86439537D01*
X-7471968Y-86426561D01*
X-7455783Y-86425500D01*
X-3734189Y-86425500D01*
X-3734187Y-86425500D01*
X-3557474Y-86394341D01*
X-3388856Y-86332969D01*
X-3388853Y-86332967D01*
X-3388852Y-86332967D01*
X-3388851Y-86332966D01*
X-3233463Y-86243253D01*
X-3233460Y-86243251D01*
X-3233457Y-86243249D01*
X-3095999Y-86127908D01*
X-2980658Y-85990450D01*
X-2980656Y-85990446D01*
X-2980653Y-85990443D01*
X-2890940Y-85835055D01*
X-2890939Y-85835054D01*
X-2829565Y-85666432D01*
X-2798407Y-85489722D01*
X-2798407Y-85310277D01*
X-2829565Y-85133567D01*
X-2890939Y-84964945D01*
X-2890940Y-84964944D01*
X-2980653Y-84809556D01*
X-3095999Y-84672092D01*
X-3232399Y-84557639D01*
X-1979698Y-84557639D01*
X-1977231Y-84562932D01*
X-1975053Y-84567883D01*
X-1962533Y-84598111D01*
X-1960573Y-84603150D01*
X-1884301Y-84812702D01*
X-1882562Y-84817827D01*
X-1872715Y-84849059D01*
X-1871200Y-84854257D01*
X-1859928Y-84896332D01*
X-1858643Y-84901585D01*
X-1851563Y-84933525D01*
X-1850508Y-84938828D01*
X-1811788Y-85158424D01*
X-1810965Y-85163770D01*
X-1806694Y-85196210D01*
X-1806105Y-85201584D01*
X-1802307Y-85244977D01*
X-1801953Y-85250380D01*
X-1800525Y-85283087D01*
X-1800407Y-85288496D01*
X-1800407Y-85511504D01*
X-1800525Y-85516913D01*
X-1801953Y-85549620D01*
X-1802307Y-85555023D01*
X-1806105Y-85598416D01*
X-1806694Y-85603790D01*
X-1810965Y-85636230D01*
X-1811788Y-85641576D01*
X-1850508Y-85861172D01*
X-1851563Y-85866475D01*
X-1858643Y-85898415D01*
X-1859928Y-85903668D01*
X-1866167Y-85926958D01*
X-1545517Y-86247608D01*
X-483443Y-85185534D01*
X-1545518Y-84123459D01*
X-1979698Y-84557639D01*
X-3232399Y-84557639D01*
X-3233463Y-84556746D01*
X-3388851Y-84467033D01*
X-3388852Y-84467032D01*
X-3557474Y-84405658D01*
X-3734184Y-84374500D01*
X-3734187Y-84374500D01*
X-3813345Y-84374500D01*
X-14551714Y-84374500D01*
X-14559999Y-84374500D01*
X-14649719Y-84374500D01*
X-14649721Y-84374500D01*
X-14826431Y-84405658D01*
X-14995053Y-84467032D01*
X-14995054Y-84467033D01*
X-15150442Y-84556746D01*
X-15150445Y-84556749D01*
X-15150449Y-84556751D01*
X-15287907Y-84672092D01*
X-15403248Y-84809550D01*
X-15403250Y-84809553D01*
X-15403252Y-84809556D01*
X-15405068Y-84812702D01*
X-15492968Y-84964949D01*
X-15554340Y-85133567D01*
X-15585499Y-85310280D01*
X-15585499Y-85391715D01*
X-15585499Y-85400000D01*
X-15585499Y-85489720D01*
X-15554340Y-85666433D01*
X-15492968Y-85835051D01*
X-15403248Y-85990450D01*
X-15287907Y-86127908D01*
X-15150449Y-86243249D01*
X-14995050Y-86332969D01*
X-14826432Y-86394341D01*
X-14649719Y-86425500D01*
X-14570561Y-86425500D01*
X-10608285Y-86425500D01*
X-10608126Y-86425500D01*
X-10591940Y-86426561D01*
X-10493375Y-86439537D01*
X-10462107Y-86447915D01*
X-10377828Y-86482825D01*
X-10349805Y-86499003D01*
X-10289763Y-86545076D01*
X-10277428Y-86554541D01*
X-10254543Y-86577426D01*
X-10199003Y-86649805D01*
X-10182825Y-86677828D01*
X-10163146Y-86725338D01*
X-10147915Y-86762109D01*
X-10139537Y-86793375D01*
X-10132214Y-86849000D01*
X-10126561Y-86891940D01*
X-10125500Y-86908125D01*
X-10125500Y-87391874D01*
X-10126561Y-87408059D01*
X-10139537Y-87506623D01*
X-10147915Y-87537890D01*
X-10147915Y-87537891D01*
X-10182823Y-87622167D01*
X-10199005Y-87650197D01*
X-10205755Y-87658993D01*
X-10254541Y-87722571D01*
X-10277428Y-87745458D01*
X-10314536Y-87773933D01*
X-10349800Y-87800992D01*
X-10377834Y-87817177D01*
X-10462109Y-87852084D01*
X-10493375Y-87860462D01*
X-10580208Y-87871894D01*
X-10591941Y-87873439D01*
X-10608126Y-87874500D01*
X-11591715Y-87874500D01*
X-11600000Y-87874500D01*
X-11695027Y-87874500D01*
X-11881844Y-87909423D01*
X-11946427Y-87934442D01*
X-12059057Y-87978075D01*
X-12059061Y-87978077D01*
X-12059063Y-87978078D01*
X-12220649Y-88078128D01*
X-12361100Y-88206166D01*
X-12475633Y-88357831D01*
X-12476014Y-88358597D01*
X-12560341Y-88527948D01*
X-12560347Y-88527960D01*
X-12612357Y-88710758D01*
X-12629893Y-88900000D01*
X-12612357Y-89089242D01*
X-12560347Y-89272040D01*
X-12475633Y-89442169D01*
X-12361100Y-89593834D01*
X-12220649Y-89721872D01*
X-12059063Y-89821922D01*
X-11881844Y-89890577D01*
X-11695027Y-89925500D01*
X-11610562Y-89925500D01*
X-10608285Y-89925500D01*
X-10608126Y-89925500D01*
X-10591940Y-89926561D01*
X-10493375Y-89939537D01*
X-10462107Y-89947915D01*
X-10377828Y-89982825D01*
X-10349805Y-89999003D01*
X-10277433Y-90054537D01*
X-10277428Y-90054541D01*
X-10254543Y-90077426D01*
X-10199003Y-90149805D01*
X-10182825Y-90177828D01*
X-10163146Y-90225338D01*
X-10147915Y-90262109D01*
X-10139537Y-90293376D01*
X-10126561Y-90391940D01*
X-10125500Y-90408125D01*
X-10125500Y-119325857D01*
X-10125606Y-119330982D01*
X-10142285Y-119734171D01*
X-10143131Y-119744384D01*
X-10192480Y-120140203D01*
X-10192737Y-120142261D01*
X-10194422Y-120152364D01*
X-10276731Y-120544829D01*
X-10279238Y-120554724D01*
X-10393681Y-120939051D01*
X-10396998Y-120948712D01*
X-10477393Y-121154702D01*
X-10542785Y-121322249D01*
X-10546903Y-121331636D01*
X-10723044Y-121691855D01*
X-10727924Y-121700869D01*
X-10933207Y-122045294D01*
X-10938815Y-122053875D01*
X-11171846Y-122380169D01*
X-11178143Y-122388257D01*
X-11437329Y-122694190D01*
X-11444271Y-122701729D01*
X-11727851Y-122985219D01*
X-11735373Y-122992142D01*
X-11849747Y-123088978D01*
X-12041402Y-123251244D01*
X-12049493Y-123257539D01*
X-12375858Y-123490464D01*
X-12384440Y-123496069D01*
X-12637876Y-123647013D01*
X-12728708Y-123701112D01*
X-12728940Y-123701250D01*
X-12737957Y-123706127D01*
X-13098221Y-123882149D01*
X-13107609Y-123886264D01*
X-13481176Y-124031927D01*
X-13490872Y-124035253D01*
X-13875197Y-124149563D01*
X-13885134Y-124152077D01*
X-14277593Y-124234255D01*
X-14287705Y-124235939D01*
X-14685595Y-124285419D01*
X-14695811Y-124286263D01*
X-15098985Y-124302814D01*
X-15104110Y-124302918D01*
X-20575900Y-124301189D01*
X-20594296Y-124301184D01*
X-20594338Y-124301183D01*
X-20599035Y-124301182D01*
X-20604146Y-124301074D01*
X-21007149Y-124284281D01*
X-21017360Y-124283432D01*
X-21415071Y-124233740D01*
X-21425177Y-124232051D01*
X-21817432Y-124149691D01*
X-21827364Y-124147173D01*
X-22211480Y-124032709D01*
X-22221171Y-124029379D01*
X-22594518Y-123883594D01*
X-22603900Y-123879476D01*
X-22963939Y-123703365D01*
X-22972950Y-123698486D01*
X-23317218Y-123493249D01*
X-23325795Y-123487643D01*
X-23651936Y-123254688D01*
X-23660020Y-123248394D01*
X-23965841Y-122989286D01*
X-23973379Y-122982344D01*
X-24256730Y-122698903D01*
X-24263669Y-122691364D01*
X-24522675Y-122385468D01*
X-24528967Y-122377381D01*
X-24578035Y-122308639D01*
X-22053029Y-122308639D01*
X-21093511Y-123268157D01*
X-20929505Y-123288649D01*
X-20909713Y-123289473D01*
X-19928880Y-122308640D01*
X-19928881Y-122308639D01*
X-18517495Y-122308639D01*
X-17521981Y-123304153D01*
X-17388901Y-123304195D01*
X-16393346Y-122308640D01*
X-16393347Y-122308639D01*
X-14981961Y-122308639D01*
X-14111856Y-123178744D01*
X-13810051Y-123088978D01*
X-13528279Y-122979107D01*
X-12857812Y-122308640D01*
X-13919887Y-121246565D01*
X-14981961Y-122308639D01*
X-16393347Y-122308639D01*
X-17455421Y-121246565D01*
X-18517495Y-122308639D01*
X-19928881Y-122308639D01*
X-20990955Y-121246565D01*
X-22053029Y-122308639D01*
X-24578035Y-122308639D01*
X-24761817Y-122051167D01*
X-24767421Y-122042588D01*
X-24972557Y-121698241D01*
X-24977432Y-121689229D01*
X-25153423Y-121329151D01*
X-25157539Y-121319767D01*
X-25303211Y-120946360D01*
X-25306537Y-120936669D01*
X-25420877Y-120552525D01*
X-25423392Y-120542592D01*
X-25423752Y-120540873D01*
X-23820797Y-120540873D01*
X-22758722Y-121602948D01*
X-21696647Y-120540873D01*
X-20285263Y-120540873D01*
X-19223188Y-121602948D01*
X-18161113Y-120540873D01*
X-16749729Y-120540873D01*
X-15687654Y-121602948D01*
X-14625579Y-120540873D01*
X-13214195Y-120540873D01*
X-12152120Y-121602948D01*
X-11449385Y-120900213D01*
X-11339847Y-120619554D01*
X-11264476Y-120366440D01*
X-12152119Y-119478797D01*
X-13214195Y-120540873D01*
X-14625579Y-120540873D01*
X-15687654Y-119478798D01*
X-16749729Y-120540873D01*
X-18161113Y-120540873D01*
X-19223188Y-119478798D01*
X-20285263Y-120540873D01*
X-21696647Y-120540873D01*
X-22758722Y-119478798D01*
X-23820797Y-120540873D01*
X-25423752Y-120540873D01*
X-25505628Y-120150310D01*
X-25507314Y-120140203D01*
X-25556880Y-119742478D01*
X-25557726Y-119732267D01*
X-25574394Y-119329212D01*
X-25574500Y-119324088D01*
X-25574500Y-117761042D01*
X-24576500Y-117761042D01*
X-24576500Y-119306014D01*
X-24562070Y-119654924D01*
X-24541473Y-119820194D01*
X-24526488Y-119835180D01*
X-23464414Y-118773106D01*
X-22053030Y-118773106D01*
X-20990955Y-119835181D01*
X-19928880Y-118773106D01*
X-18517496Y-118773106D01*
X-17455421Y-119835181D01*
X-16393346Y-118773106D01*
X-14981962Y-118773106D01*
X-13919887Y-119835181D01*
X-12857812Y-118773106D01*
X-13919887Y-117711031D01*
X-14981962Y-118773106D01*
X-16393346Y-118773106D01*
X-17455421Y-117711031D01*
X-18517496Y-118773106D01*
X-19928880Y-118773106D01*
X-20990955Y-117711031D01*
X-22053030Y-118773106D01*
X-23464414Y-118773106D01*
X-24526489Y-117711031D01*
X-24576500Y-117761042D01*
X-25574500Y-117761042D01*
X-25574500Y-117005339D01*
X-23820797Y-117005339D01*
X-22758722Y-118067414D01*
X-21696647Y-117005339D01*
X-20285263Y-117005339D01*
X-19223188Y-118067414D01*
X-18161113Y-117005339D01*
X-16749729Y-117005339D01*
X-15687654Y-118067414D01*
X-14625579Y-117005339D01*
X-13214195Y-117005339D01*
X-12152120Y-118067414D01*
X-11123500Y-117038794D01*
X-11123500Y-116971884D01*
X-12152120Y-115943264D01*
X-13214195Y-117005339D01*
X-14625579Y-117005339D01*
X-15687654Y-115943264D01*
X-16749729Y-117005339D01*
X-18161113Y-117005339D01*
X-19223188Y-115943264D01*
X-20285263Y-117005339D01*
X-21696647Y-117005339D01*
X-22758722Y-115943264D01*
X-23820797Y-117005339D01*
X-25574500Y-117005339D01*
X-25574500Y-114225508D01*
X-24576500Y-114225508D01*
X-24576500Y-116249636D01*
X-24526489Y-116299647D01*
X-23464414Y-115237572D01*
X-22053030Y-115237572D01*
X-20990955Y-116299647D01*
X-19928880Y-115237572D01*
X-18517496Y-115237572D01*
X-17455421Y-116299647D01*
X-16393346Y-115237572D01*
X-14981962Y-115237572D01*
X-13919887Y-116299647D01*
X-12857812Y-115237572D01*
X-13919887Y-114175497D01*
X-14981962Y-115237572D01*
X-16393346Y-115237572D01*
X-17455421Y-114175497D01*
X-18517496Y-115237572D01*
X-19928880Y-115237572D01*
X-20990955Y-114175497D01*
X-22053030Y-115237572D01*
X-23464414Y-115237572D01*
X-24526489Y-114175497D01*
X-24576500Y-114225508D01*
X-25574500Y-114225508D01*
X-25574500Y-113469805D01*
X-23820797Y-113469805D01*
X-22758722Y-114531880D01*
X-21696647Y-113469805D01*
X-20285263Y-113469805D01*
X-19223188Y-114531880D01*
X-18161113Y-113469805D01*
X-16749729Y-113469805D01*
X-15687654Y-114531880D01*
X-14625579Y-113469805D01*
X-13214195Y-113469805D01*
X-12152120Y-114531880D01*
X-11123500Y-113503260D01*
X-11123500Y-113436350D01*
X-12152120Y-112407730D01*
X-13214195Y-113469805D01*
X-14625579Y-113469805D01*
X-15687654Y-112407730D01*
X-16749729Y-113469805D01*
X-18161113Y-113469805D01*
X-19223188Y-112407730D01*
X-20285263Y-113469805D01*
X-21696647Y-113469805D01*
X-22758722Y-112407730D01*
X-23820797Y-113469805D01*
X-25574500Y-113469805D01*
X-25574500Y-110689974D01*
X-24576500Y-110689974D01*
X-24576500Y-112714102D01*
X-24526489Y-112764113D01*
X-23464414Y-111702038D01*
X-22053030Y-111702038D01*
X-20990955Y-112764113D01*
X-19928880Y-111702038D01*
X-18517496Y-111702038D01*
X-17455421Y-112764113D01*
X-16393346Y-111702038D01*
X-14981962Y-111702038D01*
X-13919887Y-112764113D01*
X-12857812Y-111702038D01*
X-13919887Y-110639963D01*
X-14981962Y-111702038D01*
X-16393346Y-111702038D01*
X-17455421Y-110639963D01*
X-18517496Y-111702038D01*
X-19928880Y-111702038D01*
X-20990955Y-110639963D01*
X-22053030Y-111702038D01*
X-23464414Y-111702038D01*
X-24526489Y-110639963D01*
X-24576500Y-110689974D01*
X-25574500Y-110689974D01*
X-25574500Y-109934271D01*
X-23820797Y-109934271D01*
X-22758722Y-110996346D01*
X-21696647Y-109934271D01*
X-20285263Y-109934271D01*
X-19223188Y-110996346D01*
X-18161113Y-109934271D01*
X-16749729Y-109934271D01*
X-15687654Y-110996346D01*
X-14625579Y-109934271D01*
X-13214195Y-109934271D01*
X-12152120Y-110996346D01*
X-11123500Y-109967726D01*
X-11123500Y-109900816D01*
X-12152120Y-108872196D01*
X-13214195Y-109934271D01*
X-14625579Y-109934271D01*
X-15687654Y-108872196D01*
X-16749729Y-109934271D01*
X-18161113Y-109934271D01*
X-19223188Y-108872196D01*
X-20285263Y-109934271D01*
X-21696647Y-109934271D01*
X-22758722Y-108872196D01*
X-23820797Y-109934271D01*
X-25574500Y-109934271D01*
X-25574500Y-107154440D01*
X-24576500Y-107154440D01*
X-24576500Y-109178568D01*
X-24526489Y-109228579D01*
X-23464414Y-108166504D01*
X-22053030Y-108166504D01*
X-20990955Y-109228579D01*
X-19928880Y-108166504D01*
X-18517496Y-108166504D01*
X-17455421Y-109228579D01*
X-16393346Y-108166504D01*
X-14981962Y-108166504D01*
X-13919887Y-109228579D01*
X-12857812Y-108166504D01*
X-13919887Y-107104429D01*
X-14981962Y-108166504D01*
X-16393346Y-108166504D01*
X-17455421Y-107104429D01*
X-18517496Y-108166504D01*
X-19928880Y-108166504D01*
X-20990955Y-107104429D01*
X-22053030Y-108166504D01*
X-23464414Y-108166504D01*
X-24526489Y-107104429D01*
X-24576500Y-107154440D01*
X-25574500Y-107154440D01*
X-25574500Y-106398737D01*
X-23820797Y-106398737D01*
X-22758722Y-107460812D01*
X-21696647Y-106398737D01*
X-20285263Y-106398737D01*
X-19223188Y-107460812D01*
X-18161113Y-106398737D01*
X-16749729Y-106398737D01*
X-15687654Y-107460812D01*
X-14625579Y-106398737D01*
X-13214195Y-106398737D01*
X-12152120Y-107460812D01*
X-11123500Y-106432192D01*
X-11123500Y-106365282D01*
X-12152120Y-105336662D01*
X-13214195Y-106398737D01*
X-14625579Y-106398737D01*
X-15687654Y-105336662D01*
X-16749729Y-106398737D01*
X-18161113Y-106398737D01*
X-19223188Y-105336662D01*
X-20285263Y-106398737D01*
X-21696647Y-106398737D01*
X-22758722Y-105336662D01*
X-23820797Y-106398737D01*
X-25574500Y-106398737D01*
X-25574500Y-103618906D01*
X-24576500Y-103618906D01*
X-24576500Y-105643034D01*
X-24526489Y-105693045D01*
X-23464414Y-104630970D01*
X-22053030Y-104630970D01*
X-20990955Y-105693045D01*
X-19928880Y-104630970D01*
X-18517496Y-104630970D01*
X-17455421Y-105693045D01*
X-16393346Y-104630970D01*
X-14981962Y-104630970D01*
X-13919887Y-105693045D01*
X-12857812Y-104630970D01*
X-13919887Y-103568895D01*
X-14981962Y-104630970D01*
X-16393346Y-104630970D01*
X-17455421Y-103568895D01*
X-18517496Y-104630970D01*
X-19928880Y-104630970D01*
X-20990955Y-103568895D01*
X-22053030Y-104630970D01*
X-23464414Y-104630970D01*
X-24526489Y-103568895D01*
X-24576500Y-103618906D01*
X-25574500Y-103618906D01*
X-25574500Y-102863203D01*
X-23820797Y-102863203D01*
X-22758722Y-103925278D01*
X-21696647Y-102863203D01*
X-20285263Y-102863203D01*
X-19223188Y-103925278D01*
X-18161113Y-102863203D01*
X-16749729Y-102863203D01*
X-15687654Y-103925278D01*
X-14625579Y-102863203D01*
X-13214195Y-102863203D01*
X-12152120Y-103925278D01*
X-11123500Y-102896658D01*
X-11123500Y-102829748D01*
X-12152120Y-101801128D01*
X-13214195Y-102863203D01*
X-14625579Y-102863203D01*
X-15687654Y-101801128D01*
X-16749729Y-102863203D01*
X-18161113Y-102863203D01*
X-19223188Y-101801128D01*
X-20285263Y-102863203D01*
X-21696647Y-102863203D01*
X-22758722Y-101801128D01*
X-23820797Y-102863203D01*
X-25574500Y-102863203D01*
X-25574500Y-100083372D01*
X-24576500Y-100083372D01*
X-24576500Y-102107500D01*
X-24526489Y-102157511D01*
X-23464414Y-101095436D01*
X-22053030Y-101095436D01*
X-20990955Y-102157511D01*
X-19928880Y-101095436D01*
X-18517496Y-101095436D01*
X-17455421Y-102157511D01*
X-16393346Y-101095436D01*
X-14981962Y-101095436D01*
X-13919887Y-102157511D01*
X-12857812Y-101095436D01*
X-13919887Y-100033361D01*
X-14981962Y-101095436D01*
X-16393346Y-101095436D01*
X-17455421Y-100033361D01*
X-18517496Y-101095436D01*
X-19928880Y-101095436D01*
X-20990955Y-100033361D01*
X-22053030Y-101095436D01*
X-23464414Y-101095436D01*
X-24526489Y-100033361D01*
X-24576500Y-100083372D01*
X-25574500Y-100083372D01*
X-25574500Y-99327669D01*
X-23820797Y-99327669D01*
X-22758722Y-100389744D01*
X-21696647Y-99327669D01*
X-20285263Y-99327669D01*
X-19223188Y-100389744D01*
X-18161113Y-99327669D01*
X-16749729Y-99327669D01*
X-15687654Y-100389744D01*
X-14625579Y-99327669D01*
X-13214195Y-99327669D01*
X-12152120Y-100389744D01*
X-11123500Y-99361124D01*
X-11123500Y-99294214D01*
X-12152120Y-98265594D01*
X-13214195Y-99327669D01*
X-14625579Y-99327669D01*
X-15687654Y-98265594D01*
X-16749729Y-99327669D01*
X-18161113Y-99327669D01*
X-19223188Y-98265594D01*
X-20285263Y-99327669D01*
X-21696647Y-99327669D01*
X-22758722Y-98265594D01*
X-23820797Y-99327669D01*
X-25574500Y-99327669D01*
X-25574500Y-96547838D01*
X-24576500Y-96547838D01*
X-24576500Y-98571966D01*
X-24526489Y-98621977D01*
X-23464414Y-97559902D01*
X-22053030Y-97559902D01*
X-20990955Y-98621977D01*
X-19928880Y-97559902D01*
X-18517496Y-97559902D01*
X-17455421Y-98621977D01*
X-16393346Y-97559902D01*
X-14981962Y-97559902D01*
X-13919887Y-98621977D01*
X-12857812Y-97559902D01*
X-13919887Y-96497827D01*
X-14981962Y-97559902D01*
X-16393346Y-97559902D01*
X-17455421Y-96497827D01*
X-18517496Y-97559902D01*
X-19928880Y-97559902D01*
X-20990955Y-96497827D01*
X-22053030Y-97559902D01*
X-23464414Y-97559902D01*
X-24526489Y-96497827D01*
X-24576500Y-96547838D01*
X-25574500Y-96547838D01*
X-25574500Y-95792135D01*
X-23820797Y-95792135D01*
X-22758722Y-96854210D01*
X-21696647Y-95792135D01*
X-20285263Y-95792135D01*
X-19223188Y-96854210D01*
X-18161113Y-95792135D01*
X-16749729Y-95792135D01*
X-15687654Y-96854210D01*
X-14625579Y-95792135D01*
X-13214195Y-95792135D01*
X-12152120Y-96854210D01*
X-11123500Y-95825590D01*
X-11123500Y-95758680D01*
X-12152120Y-94730060D01*
X-13214195Y-95792135D01*
X-14625579Y-95792135D01*
X-15687654Y-94730060D01*
X-16749729Y-95792135D01*
X-18161113Y-95792135D01*
X-19223188Y-94730060D01*
X-20285263Y-95792135D01*
X-21696647Y-95792135D01*
X-22758722Y-94730060D01*
X-23820797Y-95792135D01*
X-25574500Y-95792135D01*
X-25574500Y-93012304D01*
X-24576500Y-93012304D01*
X-24576500Y-95036432D01*
X-24526489Y-95086443D01*
X-23464414Y-94024368D01*
X-22053029Y-94024368D01*
X-20990955Y-95086443D01*
X-19928880Y-94024368D01*
X-14981961Y-94024368D01*
X-13919887Y-95086443D01*
X-12857812Y-94024368D01*
X-13919887Y-92962293D01*
X-14981961Y-94024368D01*
X-19928880Y-94024368D01*
X-20990955Y-92962293D01*
X-22053029Y-94024368D01*
X-23464414Y-94024368D01*
X-24526489Y-92962293D01*
X-24576500Y-93012304D01*
X-25574500Y-93012304D01*
X-25574500Y-92256601D01*
X-23820796Y-92256601D01*
X-22758722Y-93318676D01*
X-21696647Y-92256601D01*
X-20285262Y-92256601D01*
X-19223188Y-93318676D01*
X-18161113Y-92256601D01*
X-16749728Y-92256601D01*
X-15687654Y-93318676D01*
X-14625579Y-92256601D01*
X-13214194Y-92256601D01*
X-12152120Y-93318676D01*
X-11123500Y-92290056D01*
X-11123500Y-92223146D01*
X-12152119Y-91194526D01*
X-13214194Y-92256601D01*
X-14625579Y-92256601D01*
X-15687654Y-91194526D01*
X-16749728Y-92256601D01*
X-18161113Y-92256601D01*
X-19223188Y-91194526D01*
X-20285262Y-92256601D01*
X-21696647Y-92256601D01*
X-22758722Y-91194526D01*
X-23820796Y-92256601D01*
X-25574500Y-92256601D01*
X-25574500Y-90488834D01*
X-22053029Y-90488834D01*
X-20990955Y-91550909D01*
X-19928880Y-90488834D01*
X-18517495Y-90488834D01*
X-17455421Y-91550909D01*
X-16393346Y-90488834D01*
X-14981961Y-90488834D01*
X-13919887Y-91550909D01*
X-12858544Y-90489567D01*
X-12871635Y-90478698D01*
X-12875957Y-90474937D01*
X-13050491Y-90315828D01*
X-13054634Y-90311872D01*
X-13079143Y-90287363D01*
X-13083100Y-90283219D01*
X-13114171Y-90249135D01*
X-13117930Y-90244816D01*
X-13140066Y-90218159D01*
X-13143624Y-90213667D01*
X-13176455Y-90170190D01*
X-13919886Y-89426759D01*
X-14981961Y-90488834D01*
X-16393346Y-90488834D01*
X-17455421Y-89426760D01*
X-18517495Y-90488834D01*
X-19928880Y-90488834D01*
X-20990955Y-89426760D01*
X-22053029Y-90488834D01*
X-25574500Y-90488834D01*
X-25574500Y-90408123D01*
X-25573439Y-90391938D01*
X-25560463Y-90293376D01*
X-25552085Y-90262109D01*
X-25517178Y-90177834D01*
X-25500992Y-90149798D01*
X-25500989Y-90149795D01*
X-25477088Y-90118646D01*
X-25445459Y-90077428D01*
X-25422572Y-90054541D01*
X-25358520Y-90005391D01*
X-25350198Y-89999005D01*
X-25322169Y-89982823D01*
X-25282650Y-89966454D01*
X-25237891Y-89947915D01*
X-25206624Y-89939537D01*
X-25108060Y-89926561D01*
X-25091875Y-89925500D01*
X-24004976Y-89925500D01*
X-24004974Y-89925500D01*
X-23818157Y-89890577D01*
X-23640938Y-89821922D01*
X-23479352Y-89721872D01*
X-23338901Y-89593834D01*
X-23224368Y-89442169D01*
X-23216695Y-89426759D01*
X-23139654Y-89272042D01*
X-23087643Y-89089239D01*
X-23070108Y-88900000D01*
X-23070108Y-88899999D01*
X-23086688Y-88721067D01*
X-20285262Y-88721067D01*
X-19223188Y-89783142D01*
X-18161113Y-88721067D01*
X-16749728Y-88721067D01*
X-15687654Y-89783142D01*
X-14625579Y-88721067D01*
X-15687654Y-87658993D01*
X-16749728Y-88721067D01*
X-18161113Y-88721067D01*
X-19223188Y-87658993D01*
X-20285262Y-88721067D01*
X-23086688Y-88721067D01*
X-23087643Y-88710760D01*
X-23139654Y-88527957D01*
X-23224368Y-88357830D01*
X-23338902Y-88206164D01*
X-23479350Y-88078129D01*
X-23640939Y-87978077D01*
X-23640943Y-87978075D01*
X-23770823Y-87927760D01*
X-23818157Y-87909423D01*
X-24004974Y-87874500D01*
X-24004976Y-87874500D01*
X-25091875Y-87874500D01*
X-25108059Y-87873439D01*
X-25118245Y-87872098D01*
X-25206625Y-87860462D01*
X-25237891Y-87852084D01*
X-25322166Y-87817177D01*
X-25350202Y-87800991D01*
X-25422572Y-87745458D01*
X-25445459Y-87722571D01*
X-25500992Y-87650201D01*
X-25517178Y-87622165D01*
X-25552085Y-87537890D01*
X-25560463Y-87506624D01*
X-25571407Y-87423500D01*
X-21582831Y-87423500D01*
X-20990955Y-88015375D01*
X-19928879Y-86953300D01*
X-18517495Y-86953300D01*
X-17455421Y-88015375D01*
X-16393346Y-86953300D01*
X-17455421Y-85891226D01*
X-18517495Y-86953300D01*
X-19928879Y-86953300D01*
X-20037489Y-86844690D01*
X-20041799Y-86849000D01*
X-20045705Y-86852739D01*
X-20069836Y-86874852D01*
X-20073906Y-86878422D01*
X-20244723Y-87021753D01*
X-20248937Y-87025135D01*
X-20274883Y-87045046D01*
X-20279245Y-87048245D01*
X-20314923Y-87073230D01*
X-20319423Y-87076237D01*
X-20347047Y-87093837D01*
X-20351676Y-87096646D01*
X-20544812Y-87208154D01*
X-20549558Y-87210758D01*
X-20578601Y-87225876D01*
X-20583454Y-87228269D01*
X-20622931Y-87246676D01*
X-20627882Y-87248854D01*
X-20658110Y-87261374D01*
X-20663149Y-87263334D01*
X-20872701Y-87339606D01*
X-20877826Y-87341345D01*
X-20909058Y-87351192D01*
X-20914256Y-87352707D01*
X-20956331Y-87363979D01*
X-20961584Y-87365264D01*
X-20993524Y-87372344D01*
X-20998827Y-87373399D01*
X-21218423Y-87412119D01*
X-21223769Y-87412942D01*
X-21256209Y-87417213D01*
X-21261583Y-87417802D01*
X-21304976Y-87421600D01*
X-21310379Y-87421954D01*
X-21343086Y-87423382D01*
X-21348495Y-87423500D01*
X-21582831Y-87423500D01*
X-25571407Y-87423500D01*
X-25573440Y-87408060D01*
X-25574501Y-87391874D01*
X-25574501Y-86908125D01*
X-25573440Y-86891939D01*
X-25560463Y-86793375D01*
X-25552085Y-86762109D01*
X-25517178Y-86677834D01*
X-25500992Y-86649798D01*
X-25500989Y-86649795D01*
X-25459946Y-86596307D01*
X-25445459Y-86577428D01*
X-25422572Y-86554541D01*
X-25385457Y-86526061D01*
X-25350198Y-86499005D01*
X-25322169Y-86482823D01*
X-25282650Y-86466454D01*
X-25237891Y-86447915D01*
X-25206624Y-86439537D01*
X-25108060Y-86426561D01*
X-25091875Y-86425500D01*
X-21370281Y-86425500D01*
X-21370279Y-86425500D01*
X-21193566Y-86394341D01*
X-21024948Y-86332969D01*
X-21024945Y-86332967D01*
X-21024944Y-86332967D01*
X-21024943Y-86332966D01*
X-20869555Y-86243253D01*
X-20869552Y-86243251D01*
X-20869549Y-86243249D01*
X-20732091Y-86127908D01*
X-20616750Y-85990450D01*
X-20616748Y-85990446D01*
X-20616745Y-85990443D01*
X-20527032Y-85835055D01*
X-20527031Y-85835054D01*
X-20465657Y-85666432D01*
X-20434499Y-85489722D01*
X-20434499Y-85310277D01*
X-20465657Y-85133567D01*
X-20527031Y-84964945D01*
X-20527032Y-84964944D01*
X-20616745Y-84809556D01*
X-20732091Y-84672092D01*
X-20869555Y-84556746D01*
X-20917122Y-84529283D01*
X-19629012Y-84529283D01*
X-19613323Y-84562932D01*
X-19611145Y-84567883D01*
X-19598625Y-84598111D01*
X-19596665Y-84603150D01*
X-19520393Y-84812702D01*
X-19518654Y-84817827D01*
X-19508807Y-84849059D01*
X-19507292Y-84854257D01*
X-19496020Y-84896332D01*
X-19494735Y-84901585D01*
X-19487655Y-84933525D01*
X-19486600Y-84938828D01*
X-19447880Y-85158424D01*
X-19447057Y-85163770D01*
X-19442786Y-85196210D01*
X-19442197Y-85201584D01*
X-19438399Y-85244977D01*
X-19438045Y-85250380D01*
X-19436617Y-85283087D01*
X-19436499Y-85288496D01*
X-19436499Y-85511504D01*
X-19436617Y-85516913D01*
X-19438045Y-85549620D01*
X-19438399Y-85555023D01*
X-19442197Y-85598416D01*
X-19442786Y-85603790D01*
X-19447057Y-85636230D01*
X-19447880Y-85641576D01*
X-19486600Y-85861172D01*
X-19487655Y-85866475D01*
X-19494735Y-85898415D01*
X-19496020Y-85903668D01*
X-19507292Y-85945743D01*
X-19508807Y-85950941D01*
X-19511455Y-85959340D01*
X-19223187Y-86247608D01*
X-18161113Y-85185534D01*
X-19223188Y-84123459D01*
X-19629012Y-84529283D01*
X-20917122Y-84529283D01*
X-21024943Y-84467033D01*
X-21024944Y-84467032D01*
X-21193566Y-84405658D01*
X-21370276Y-84374500D01*
X-21370279Y-84374500D01*
X-21449437Y-84374500D01*
X-33551714Y-84374500D01*
X-33559999Y-84374500D01*
X-33649719Y-84374500D01*
X-33649721Y-84374500D01*
X-33826431Y-84405658D01*
X-33995053Y-84467032D01*
X-33995054Y-84467033D01*
X-34150442Y-84556746D01*
X-34150445Y-84556749D01*
X-34150449Y-84556751D01*
X-34287907Y-84672092D01*
X-34403248Y-84809550D01*
X-34403250Y-84809553D01*
X-34403252Y-84809556D01*
X-34405068Y-84812702D01*
X-34492968Y-84964949D01*
X-34554340Y-85133567D01*
X-34585499Y-85310280D01*
X-34585499Y-85391715D01*
X-34585499Y-85400000D01*
X-34585499Y-85489720D01*
X-34554340Y-85666433D01*
X-34492968Y-85835051D01*
X-34403248Y-85990450D01*
X-34287907Y-86127908D01*
X-34150449Y-86243249D01*
X-33995050Y-86332969D01*
X-33826432Y-86394341D01*
X-33649719Y-86425500D01*
X-33570561Y-86425500D01*
X-28193119Y-86425500D01*
X-28176933Y-86426560D01*
X-28078374Y-86439537D01*
X-28047107Y-86447915D01*
X-27962828Y-86482825D01*
X-27934805Y-86499003D01*
X-27874763Y-86545076D01*
X-27862428Y-86554541D01*
X-27839543Y-86577426D01*
X-27784003Y-86649805D01*
X-27767825Y-86677828D01*
X-27748146Y-86725338D01*
X-27732915Y-86762109D01*
X-27724537Y-86793375D01*
X-27717214Y-86849000D01*
X-27711561Y-86891940D01*
X-27710500Y-86908125D01*
X-27710500Y-87391874D01*
X-27711561Y-87408059D01*
X-27724537Y-87506623D01*
X-27732915Y-87537890D01*
X-27732915Y-87537891D01*
X-27767823Y-87622167D01*
X-27784005Y-87650197D01*
X-27790755Y-87658993D01*
X-27839541Y-87722571D01*
X-27862428Y-87745458D01*
X-27899536Y-87773933D01*
X-27934800Y-87800992D01*
X-27962834Y-87817177D01*
X-28047109Y-87852084D01*
X-28078375Y-87860462D01*
X-28165208Y-87871894D01*
X-28176941Y-87873439D01*
X-28193126Y-87874500D01*
X-29176715Y-87874500D01*
X-29185000Y-87874500D01*
X-29280027Y-87874500D01*
X-29466844Y-87909423D01*
X-29531427Y-87934442D01*
X-29644057Y-87978075D01*
X-29644061Y-87978077D01*
X-29644063Y-87978078D01*
X-29805649Y-88078128D01*
X-29946100Y-88206166D01*
X-30060633Y-88357831D01*
X-30061014Y-88358597D01*
X-30145341Y-88527948D01*
X-30145347Y-88527960D01*
X-30197357Y-88710758D01*
X-30214893Y-88900000D01*
X-30197357Y-89089242D01*
X-30145347Y-89272040D01*
X-30060633Y-89442169D01*
X-29946100Y-89593834D01*
X-29805649Y-89721872D01*
X-29644063Y-89821922D01*
X-29466844Y-89890577D01*
X-29280027Y-89925500D01*
X-29195562Y-89925500D01*
X-28193285Y-89925500D01*
X-28193126Y-89925500D01*
X-28176940Y-89926561D01*
X-28078375Y-89939537D01*
X-28047107Y-89947915D01*
X-27962828Y-89982825D01*
X-27934805Y-89999003D01*
X-27862433Y-90054537D01*
X-27862428Y-90054541D01*
X-27839543Y-90077426D01*
X-27784003Y-90149805D01*
X-27767825Y-90177828D01*
X-27748146Y-90225338D01*
X-27732915Y-90262109D01*
X-27724537Y-90293376D01*
X-27711561Y-90391940D01*
X-27710500Y-90408125D01*
X-27710500Y-90408285D01*
X-27709519Y-90411304D01*
X-27703447Y-90449677D01*
X-27710487Y-108800615D01*
X-27710500Y-108800682D01*
X-27710500Y-108827438D01*
X-27710606Y-108832562D01*
X-27727278Y-109235682D01*
X-27728121Y-109245855D01*
X-27753836Y-109452149D01*
X-27777712Y-109643690D01*
X-27779399Y-109653798D01*
X-27861665Y-110046146D01*
X-27864181Y-110056082D01*
X-27978573Y-110440319D01*
X-27981892Y-110449987D01*
X-28086632Y-110718409D01*
X-28127623Y-110823459D01*
X-28131732Y-110832830D01*
X-28307808Y-111192998D01*
X-28312677Y-111201994D01*
X-28517891Y-111546390D01*
X-28523497Y-111554971D01*
X-28756439Y-111881224D01*
X-28762733Y-111889311D01*
X-29021831Y-112195229D01*
X-29028773Y-112202769D01*
X-29312230Y-112486226D01*
X-29319770Y-112493168D01*
X-29625688Y-112752266D01*
X-29633775Y-112758560D01*
X-29960028Y-112991502D01*
X-29968609Y-112997108D01*
X-30313005Y-113202322D01*
X-30322010Y-113207195D01*
X-30682155Y-113383260D01*
X-30691540Y-113387376D01*
X-31065000Y-113533102D01*
X-31074693Y-113536430D01*
X-31458917Y-113650818D01*
X-31468853Y-113653334D01*
X-31861201Y-113735600D01*
X-31871309Y-113737287D01*
X-32269123Y-113786876D01*
X-32279337Y-113787722D01*
X-32682437Y-113804394D01*
X-32687561Y-113804500D01*
X-39457439Y-113804500D01*
X-39462563Y-113804394D01*
X-39865662Y-113787722D01*
X-39875876Y-113786876D01*
X-40273690Y-113737287D01*
X-40283798Y-113735600D01*
X-40676146Y-113653334D01*
X-40686082Y-113650818D01*
X-41070306Y-113536430D01*
X-41079999Y-113533102D01*
X-41453459Y-113387376D01*
X-41462844Y-113383260D01*
X-41822981Y-113207200D01*
X-41831994Y-113202322D01*
X-42176390Y-112997108D01*
X-42184971Y-112991502D01*
X-42511224Y-112758560D01*
X-42519311Y-112752266D01*
X-42825229Y-112493168D01*
X-42832769Y-112486226D01*
X-43116226Y-112202769D01*
X-43123168Y-112195229D01*
X-43382266Y-111889311D01*
X-43388560Y-111881224D01*
X-43621502Y-111554971D01*
X-43627108Y-111546390D01*
X-43832322Y-111201994D01*
X-43837200Y-111192981D01*
X-43866719Y-111132599D01*
X-42696794Y-111132599D01*
X-42597343Y-111271888D01*
X-42384966Y-111522643D01*
X-42152643Y-111754966D01*
X-41901888Y-111967343D01*
X-41634475Y-112158274D01*
X-41611819Y-112171774D01*
X-41142083Y-111702038D01*
X-39730699Y-111702038D01*
X-38668624Y-112764113D01*
X-37606549Y-111702038D01*
X-36195165Y-111702038D01*
X-35133090Y-112764112D01*
X-34071015Y-111702038D01*
X-34071016Y-111702037D01*
X-32659631Y-111702037D01*
X-31684871Y-112676797D01*
X-31436212Y-112602768D01*
X-30535482Y-111702038D01*
X-31597556Y-110639963D01*
X-32659631Y-111702037D01*
X-34071016Y-111702037D01*
X-35133090Y-110639963D01*
X-36195165Y-111702038D01*
X-37606549Y-111702038D01*
X-38668624Y-110639963D01*
X-39730699Y-111702038D01*
X-41142083Y-111702038D01*
X-42204158Y-110639963D01*
X-42696794Y-111132599D01*
X-43866719Y-111132599D01*
X-44013260Y-110832844D01*
X-44017376Y-110823459D01*
X-44163102Y-110449999D01*
X-44166430Y-110440306D01*
X-44280818Y-110056082D01*
X-44283334Y-110046146D01*
X-44306792Y-109934271D01*
X-41498466Y-109934271D01*
X-40436391Y-110996346D01*
X-39374316Y-109934271D01*
X-37962932Y-109934271D01*
X-36900857Y-110996345D01*
X-35838782Y-109934271D01*
X-34427398Y-109934271D01*
X-33365323Y-110996345D01*
X-32303248Y-109934271D01*
X-30891864Y-109934271D01*
X-29829789Y-110996345D01*
X-28912228Y-110078784D01*
X-28845921Y-109856063D01*
X-29829789Y-108872195D01*
X-30891864Y-109934271D01*
X-32303248Y-109934271D01*
X-33365323Y-108872196D01*
X-34427398Y-109934271D01*
X-35838782Y-109934271D01*
X-36900857Y-108872196D01*
X-37962932Y-109934271D01*
X-39374316Y-109934271D01*
X-40436391Y-108872196D01*
X-41498466Y-109934271D01*
X-44306792Y-109934271D01*
X-44365600Y-109653798D01*
X-44367287Y-109643690D01*
X-44416876Y-109245876D01*
X-44417722Y-109235662D01*
X-44434394Y-108832562D01*
X-44434500Y-108827438D01*
X-44434500Y-108166504D01*
X-43266233Y-108166504D01*
X-42204158Y-109228579D01*
X-41142083Y-108166504D01*
X-39730699Y-108166504D01*
X-38668624Y-109228579D01*
X-37606549Y-108166504D01*
X-36195165Y-108166504D01*
X-35133090Y-109228578D01*
X-34071015Y-108166504D01*
X-32659631Y-108166504D01*
X-31597556Y-109228578D01*
X-30535482Y-108166504D01*
X-31597556Y-107104429D01*
X-32659631Y-108166504D01*
X-34071015Y-108166504D01*
X-35133090Y-107104429D01*
X-36195165Y-108166504D01*
X-37606549Y-108166504D01*
X-38668624Y-107104429D01*
X-39730699Y-108166504D01*
X-41142083Y-108166504D01*
X-42204158Y-107104429D01*
X-43266233Y-108166504D01*
X-44434500Y-108166504D01*
X-44434500Y-106398737D01*
X-41498466Y-106398737D01*
X-40436391Y-107460812D01*
X-39374316Y-106398737D01*
X-37962932Y-106398737D01*
X-36900857Y-107460811D01*
X-35838782Y-106398737D01*
X-34427398Y-106398737D01*
X-33365323Y-107460811D01*
X-32303248Y-106398737D01*
X-30891864Y-106398737D01*
X-29829789Y-107460811D01*
X-28767715Y-106398737D01*
X-29829789Y-105336662D01*
X-30891864Y-106398737D01*
X-32303248Y-106398737D01*
X-33365323Y-105336662D01*
X-34427398Y-106398737D01*
X-35838782Y-106398737D01*
X-36900857Y-105336662D01*
X-37962932Y-106398737D01*
X-39374316Y-106398737D01*
X-40436391Y-105336662D01*
X-41498466Y-106398737D01*
X-44434500Y-106398737D01*
X-44434500Y-104630970D01*
X-43266233Y-104630970D01*
X-42204158Y-105693045D01*
X-41142083Y-104630970D01*
X-39730699Y-104630970D01*
X-38668624Y-105693045D01*
X-37606549Y-104630970D01*
X-36195165Y-104630970D01*
X-35133090Y-105693044D01*
X-34071015Y-104630970D01*
X-32659631Y-104630970D01*
X-31597556Y-105693044D01*
X-30535482Y-104630970D01*
X-31597556Y-103568895D01*
X-32659631Y-104630970D01*
X-34071015Y-104630970D01*
X-35133090Y-103568895D01*
X-36195165Y-104630970D01*
X-37606549Y-104630970D01*
X-38668624Y-103568895D01*
X-39730699Y-104630970D01*
X-41142083Y-104630970D01*
X-42204158Y-103568895D01*
X-43266233Y-104630970D01*
X-44434500Y-104630970D01*
X-44434500Y-102863203D01*
X-41498466Y-102863203D01*
X-40436391Y-103925278D01*
X-39374316Y-102863203D01*
X-37962932Y-102863203D01*
X-36900857Y-103925277D01*
X-35838782Y-102863203D01*
X-34427398Y-102863203D01*
X-33365323Y-103925277D01*
X-32303248Y-102863203D01*
X-30891864Y-102863203D01*
X-29829789Y-103925277D01*
X-28767715Y-102863203D01*
X-29829789Y-101801128D01*
X-30891864Y-102863203D01*
X-32303248Y-102863203D01*
X-33365323Y-101801128D01*
X-34427398Y-102863203D01*
X-35838782Y-102863203D01*
X-36900857Y-101801128D01*
X-37962932Y-102863203D01*
X-39374316Y-102863203D01*
X-40436391Y-101801128D01*
X-41498466Y-102863203D01*
X-44434500Y-102863203D01*
X-44434500Y-101095436D01*
X-43266233Y-101095436D01*
X-42204158Y-102157511D01*
X-41142083Y-101095436D01*
X-39730699Y-101095436D01*
X-38668624Y-102157511D01*
X-37606549Y-101095436D01*
X-36195165Y-101095436D01*
X-35133090Y-102157510D01*
X-34071015Y-101095436D01*
X-32659631Y-101095436D01*
X-31597556Y-102157510D01*
X-30535482Y-101095436D01*
X-31597556Y-100033361D01*
X-32659631Y-101095436D01*
X-34071015Y-101095436D01*
X-35133090Y-100033361D01*
X-36195165Y-101095436D01*
X-37606549Y-101095436D01*
X-38668624Y-100033361D01*
X-39730699Y-101095436D01*
X-41142083Y-101095436D01*
X-42204158Y-100033361D01*
X-43266233Y-101095436D01*
X-44434500Y-101095436D01*
X-44434500Y-99327669D01*
X-41498466Y-99327669D01*
X-40436391Y-100389744D01*
X-39374316Y-99327669D01*
X-37962932Y-99327669D01*
X-36900857Y-100389743D01*
X-35838782Y-99327669D01*
X-34427398Y-99327669D01*
X-33365323Y-100389743D01*
X-32303248Y-99327669D01*
X-30891864Y-99327669D01*
X-29829789Y-100389743D01*
X-28767715Y-99327669D01*
X-29829789Y-98265594D01*
X-30891864Y-99327669D01*
X-32303248Y-99327669D01*
X-33365323Y-98265594D01*
X-34427398Y-99327669D01*
X-35838782Y-99327669D01*
X-36900857Y-98265594D01*
X-37962932Y-99327669D01*
X-39374316Y-99327669D01*
X-40436391Y-98265594D01*
X-41498466Y-99327669D01*
X-44434500Y-99327669D01*
X-44434500Y-97559902D01*
X-43266233Y-97559902D01*
X-42204158Y-98621977D01*
X-41142083Y-97559902D01*
X-39730699Y-97559902D01*
X-38668624Y-98621977D01*
X-37606549Y-97559902D01*
X-36195165Y-97559902D01*
X-35133090Y-98621976D01*
X-34071015Y-97559902D01*
X-32659631Y-97559902D01*
X-31597556Y-98621976D01*
X-30535482Y-97559902D01*
X-31597556Y-96497827D01*
X-32659631Y-97559902D01*
X-34071015Y-97559902D01*
X-35133090Y-96497827D01*
X-36195165Y-97559902D01*
X-37606549Y-97559902D01*
X-38668624Y-96497827D01*
X-39730699Y-97559902D01*
X-41142083Y-97559902D01*
X-42204158Y-96497827D01*
X-43266233Y-97559902D01*
X-44434500Y-97559902D01*
X-44434500Y-95792135D01*
X-41498466Y-95792135D01*
X-40436391Y-96854210D01*
X-39374316Y-95792135D01*
X-37962932Y-95792135D01*
X-36900857Y-96854209D01*
X-35838782Y-95792135D01*
X-34427398Y-95792135D01*
X-33365323Y-96854209D01*
X-32303248Y-95792135D01*
X-30891864Y-95792135D01*
X-29829789Y-96854209D01*
X-28767715Y-95792135D01*
X-29829789Y-94730060D01*
X-30891864Y-95792135D01*
X-32303248Y-95792135D01*
X-33365323Y-94730060D01*
X-34427398Y-95792135D01*
X-35838782Y-95792135D01*
X-36900857Y-94730060D01*
X-37962932Y-95792135D01*
X-39374316Y-95792135D01*
X-40436391Y-94730060D01*
X-41498466Y-95792135D01*
X-44434500Y-95792135D01*
X-44434500Y-94024368D01*
X-43266232Y-94024368D01*
X-42204158Y-95086443D01*
X-41142083Y-94024368D01*
X-39730698Y-94024368D01*
X-38668624Y-95086443D01*
X-37606549Y-94024368D01*
X-32659631Y-94024368D01*
X-31597556Y-95086442D01*
X-30535482Y-94024368D01*
X-31597556Y-92962293D01*
X-32659631Y-94024368D01*
X-37606549Y-94024368D01*
X-38668624Y-92962293D01*
X-39730698Y-94024368D01*
X-41142083Y-94024368D01*
X-42204158Y-92962293D01*
X-43266232Y-94024368D01*
X-44434500Y-94024368D01*
X-44434500Y-92256601D01*
X-41498465Y-92256601D01*
X-40436391Y-93318676D01*
X-39374316Y-92256601D01*
X-37962931Y-92256601D01*
X-36900857Y-93318675D01*
X-35838782Y-92256601D01*
X-34427397Y-92256601D01*
X-33365323Y-93318675D01*
X-32303248Y-92256601D01*
X-30891864Y-92256601D01*
X-29829789Y-93318675D01*
X-28767715Y-92256601D01*
X-29829789Y-91194526D01*
X-30891864Y-92256601D01*
X-32303248Y-92256601D01*
X-33365323Y-91194526D01*
X-34427397Y-92256601D01*
X-35838782Y-92256601D01*
X-36900857Y-91194526D01*
X-37962931Y-92256601D01*
X-39374316Y-92256601D01*
X-40436391Y-91194526D01*
X-41498465Y-92256601D01*
X-44434500Y-92256601D01*
X-44434500Y-90923169D01*
X-42831897Y-90923169D01*
X-42204158Y-91550909D01*
X-41142082Y-90488834D01*
X-39730698Y-90488834D01*
X-38668624Y-91550909D01*
X-37606549Y-90488834D01*
X-36195164Y-90488834D01*
X-35133090Y-91550909D01*
X-34071015Y-90488834D01*
X-32659631Y-90488834D01*
X-31597556Y-91550909D01*
X-30535482Y-90488834D01*
X-31597556Y-89426760D01*
X-32659631Y-90488834D01*
X-34071015Y-90488834D01*
X-35133090Y-89426760D01*
X-36195164Y-90488834D01*
X-37606549Y-90488834D01*
X-38668624Y-89426760D01*
X-39730698Y-90488834D01*
X-41142082Y-90488834D01*
X-41416762Y-90214154D01*
X-41419934Y-90218159D01*
X-41442070Y-90244816D01*
X-41445829Y-90249135D01*
X-41476900Y-90283219D01*
X-41480857Y-90287363D01*
X-41505366Y-90311872D01*
X-41509509Y-90315828D01*
X-41684043Y-90474937D01*
X-41688363Y-90478697D01*
X-41715020Y-90500833D01*
X-41719509Y-90504389D01*
X-41756314Y-90532184D01*
X-41760967Y-90535531D01*
X-41789564Y-90555120D01*
X-41794362Y-90558247D01*
X-41995157Y-90682574D01*
X-42000091Y-90685473D01*
X-42030350Y-90702329D01*
X-42035418Y-90705001D01*
X-42076704Y-90725561D01*
X-42081893Y-90727997D01*
X-42113615Y-90742004D01*
X-42118908Y-90744197D01*
X-42339135Y-90829513D01*
X-42344520Y-90831457D01*
X-42377361Y-90842465D01*
X-42382831Y-90844159D01*
X-42427189Y-90856782D01*
X-42432735Y-90858223D01*
X-42466486Y-90866162D01*
X-42472094Y-90867345D01*
X-42704255Y-90910744D01*
X-42709909Y-90911666D01*
X-42744233Y-90916454D01*
X-42749922Y-90917114D01*
X-42795848Y-90921370D01*
X-42801562Y-90921767D01*
X-42831897Y-90923169D01*
X-44434500Y-90923169D01*
X-44434500Y-90408125D01*
X-44433439Y-90391939D01*
X-44420462Y-90293375D01*
X-44412084Y-90262109D01*
X-44377177Y-90177834D01*
X-44360991Y-90149798D01*
X-44360988Y-90149795D01*
X-44337087Y-90118646D01*
X-44305458Y-90077428D01*
X-44282571Y-90054541D01*
X-44218519Y-90005391D01*
X-44210197Y-89999005D01*
X-44182168Y-89982823D01*
X-44142649Y-89966454D01*
X-44097890Y-89947915D01*
X-44066623Y-89939537D01*
X-43968059Y-89926561D01*
X-43951874Y-89925500D01*
X-42864975Y-89925500D01*
X-42864973Y-89925500D01*
X-42678156Y-89890577D01*
X-42500937Y-89821922D01*
X-42339351Y-89721872D01*
X-42198900Y-89593834D01*
X-42084367Y-89442169D01*
X-42076694Y-89426759D01*
X-41999653Y-89272042D01*
X-41947642Y-89089239D01*
X-41930107Y-88900000D01*
X-41930107Y-88899999D01*
X-41947642Y-88710760D01*
X-41999653Y-88527957D01*
X-42084367Y-88357830D01*
X-42157725Y-88260689D01*
X-41038087Y-88260689D01*
X-40981430Y-88459823D01*
X-40979991Y-88465366D01*
X-40972059Y-88499091D01*
X-40970877Y-88504692D01*
X-40962401Y-88550027D01*
X-40961478Y-88555685D01*
X-40956689Y-88590017D01*
X-40956029Y-88595707D01*
X-40934237Y-88830878D01*
X-40933840Y-88836591D01*
X-40932239Y-88871211D01*
X-40932107Y-88876939D01*
X-40932107Y-88923061D01*
X-40932239Y-88928789D01*
X-40933840Y-88963409D01*
X-40934237Y-88969122D01*
X-40956029Y-89204293D01*
X-40956689Y-89209983D01*
X-40961478Y-89244315D01*
X-40962401Y-89249973D01*
X-40963528Y-89256004D01*
X-40436390Y-89783142D01*
X-39374316Y-88721067D01*
X-37962931Y-88721067D01*
X-36900857Y-89783142D01*
X-35838782Y-88721067D01*
X-34427397Y-88721067D01*
X-33365323Y-89783142D01*
X-32303248Y-88721067D01*
X-33365323Y-87658993D01*
X-34427397Y-88721067D01*
X-35838782Y-88721067D01*
X-36900857Y-87658993D01*
X-37962931Y-88721067D01*
X-39374316Y-88721067D01*
X-40436391Y-87658993D01*
X-41038087Y-88260689D01*
X-42157725Y-88260689D01*
X-42198901Y-88206164D01*
X-42339349Y-88078129D01*
X-42500938Y-87978077D01*
X-42500942Y-87978075D01*
X-42630822Y-87927760D01*
X-42678156Y-87909423D01*
X-42864973Y-87874500D01*
X-42864975Y-87874500D01*
X-43951874Y-87874500D01*
X-43968058Y-87873439D01*
X-43978244Y-87872098D01*
X-44066624Y-87860462D01*
X-44097890Y-87852084D01*
X-44182165Y-87817177D01*
X-44210201Y-87800991D01*
X-44282571Y-87745458D01*
X-44305458Y-87722571D01*
X-44360991Y-87650201D01*
X-44377177Y-87622165D01*
X-44412084Y-87537890D01*
X-44420462Y-87506624D01*
X-44433439Y-87408060D01*
X-44434023Y-87399146D01*
X-39284853Y-87399146D01*
X-38668624Y-88015375D01*
X-37606548Y-86953300D01*
X-36195164Y-86953300D01*
X-35133090Y-88015375D01*
X-34374051Y-87256336D01*
X-34392116Y-87248854D01*
X-34397067Y-87246676D01*
X-34436544Y-87228269D01*
X-34441397Y-87225876D01*
X-34470440Y-87210758D01*
X-34475186Y-87208154D01*
X-34668322Y-87096646D01*
X-34672951Y-87093837D01*
X-34700575Y-87076237D01*
X-34705075Y-87073230D01*
X-34740753Y-87048245D01*
X-34745115Y-87045046D01*
X-34771061Y-87025135D01*
X-34775275Y-87021753D01*
X-34946092Y-86878422D01*
X-34950162Y-86874852D01*
X-34974293Y-86852739D01*
X-34978199Y-86849000D01*
X-35008999Y-86818200D01*
X-35012738Y-86814294D01*
X-35034851Y-86790163D01*
X-35038421Y-86786093D01*
X-35181752Y-86615276D01*
X-35185134Y-86611062D01*
X-35205045Y-86585116D01*
X-35208244Y-86580754D01*
X-35233229Y-86545076D01*
X-35236236Y-86540576D01*
X-35253836Y-86512952D01*
X-35256645Y-86508323D01*
X-35368153Y-86315187D01*
X-35370757Y-86310441D01*
X-35385875Y-86281398D01*
X-35388268Y-86276545D01*
X-35406675Y-86237068D01*
X-35408853Y-86232117D01*
X-35421373Y-86201889D01*
X-35423333Y-86196850D01*
X-35427437Y-86185573D01*
X-36195164Y-86953300D01*
X-37606548Y-86953300D01*
X-37963542Y-86596307D01*
X-37974865Y-86611062D01*
X-37978247Y-86615276D01*
X-38121578Y-86786093D01*
X-38125148Y-86790163D01*
X-38147261Y-86814294D01*
X-38151000Y-86818200D01*
X-38181800Y-86849000D01*
X-38185706Y-86852739D01*
X-38209837Y-86874852D01*
X-38213907Y-86878422D01*
X-38384724Y-87021753D01*
X-38388938Y-87025135D01*
X-38414884Y-87045046D01*
X-38419246Y-87048245D01*
X-38454924Y-87073230D01*
X-38459424Y-87076237D01*
X-38487048Y-87093837D01*
X-38491677Y-87096646D01*
X-38684813Y-87208154D01*
X-38689559Y-87210758D01*
X-38718602Y-87225876D01*
X-38723455Y-87228269D01*
X-38762932Y-87246676D01*
X-38767883Y-87248854D01*
X-38798111Y-87261374D01*
X-38803150Y-87263334D01*
X-39012702Y-87339606D01*
X-39017827Y-87341345D01*
X-39049059Y-87351192D01*
X-39054257Y-87352707D01*
X-39096332Y-87363979D01*
X-39101585Y-87365264D01*
X-39133525Y-87372344D01*
X-39138828Y-87373399D01*
X-39284853Y-87399146D01*
X-44434023Y-87399146D01*
X-44434500Y-87391874D01*
X-44434500Y-86908125D01*
X-44433439Y-86891939D01*
X-44420462Y-86793375D01*
X-44412084Y-86762109D01*
X-44377177Y-86677834D01*
X-44360991Y-86649798D01*
X-44360988Y-86649795D01*
X-44319945Y-86596307D01*
X-44305458Y-86577428D01*
X-44282571Y-86554541D01*
X-44245456Y-86526061D01*
X-44210197Y-86499005D01*
X-44182168Y-86482823D01*
X-44142649Y-86466454D01*
X-44097890Y-86447915D01*
X-44066623Y-86439537D01*
X-43968059Y-86426561D01*
X-43951874Y-86425500D01*
X-39510282Y-86425500D01*
X-39510280Y-86425500D01*
X-39333567Y-86394341D01*
X-39164949Y-86332969D01*
X-39164946Y-86332967D01*
X-39164945Y-86332967D01*
X-39164944Y-86332966D01*
X-39009556Y-86243253D01*
X-39009553Y-86243251D01*
X-39009550Y-86243249D01*
X-38872092Y-86127908D01*
X-38756751Y-85990450D01*
X-38756749Y-85990446D01*
X-38756746Y-85990443D01*
X-38667033Y-85835055D01*
X-38667032Y-85835054D01*
X-38605658Y-85666432D01*
X-38588453Y-85568854D01*
X-37579610Y-85568854D01*
X-36900856Y-86247608D01*
X-35838782Y-85185534D01*
X-36900857Y-84123459D01*
X-37576500Y-84799102D01*
X-37576500Y-85511504D01*
X-37576618Y-85516913D01*
X-37578046Y-85549620D01*
X-37578400Y-85555023D01*
X-37579610Y-85568854D01*
X-38588453Y-85568854D01*
X-38574500Y-85489722D01*
X-38574500Y-83417766D01*
X-36195164Y-83417766D01*
X-35280294Y-84332636D01*
X-35256645Y-84291676D01*
X-35253836Y-84287048D01*
X-35236236Y-84259424D01*
X-35233229Y-84254924D01*
X-35208244Y-84219246D01*
X-35205045Y-84214884D01*
X-35185134Y-84188938D01*
X-35181752Y-84184724D01*
X-35038421Y-84013907D01*
X-35034851Y-84009837D01*
X-35012738Y-83985706D01*
X-35008999Y-83981800D01*
X-34978199Y-83951000D01*
X-34974293Y-83947261D01*
X-34950162Y-83925148D01*
X-34946092Y-83921578D01*
X-34775275Y-83778247D01*
X-34771061Y-83774865D01*
X-34745115Y-83754954D01*
X-34740753Y-83751755D01*
X-34705075Y-83726770D01*
X-34700575Y-83723763D01*
X-34672951Y-83706163D01*
X-34668322Y-83703354D01*
X-34475186Y-83591846D01*
X-34470440Y-83589242D01*
X-34441397Y-83574124D01*
X-34436544Y-83571731D01*
X-34397067Y-83553324D01*
X-34392116Y-83551146D01*
X-34361888Y-83538626D01*
X-34356849Y-83536666D01*
X-34147297Y-83460394D01*
X-34142172Y-83458655D01*
X-34110940Y-83448808D01*
X-34105743Y-83447293D01*
X-34098638Y-83445389D01*
X-34071015Y-83417766D01*
X-34112281Y-83376500D01*
X-32618364Y-83376500D01*
X-30576749Y-83376500D01*
X-29082831Y-83376500D01*
X-27041215Y-83376500D01*
X-25547297Y-83376500D01*
X-23505681Y-83376500D01*
X-22011763Y-83376500D01*
X-21348495Y-83376500D01*
X-21343086Y-83376618D01*
X-21310379Y-83378046D01*
X-21304976Y-83378400D01*
X-21261583Y-83382198D01*
X-21256209Y-83382787D01*
X-21223769Y-83387058D01*
X-21218423Y-83387881D01*
X-20998827Y-83426601D01*
X-20993524Y-83427656D01*
X-20961584Y-83434736D01*
X-20956331Y-83436021D01*
X-20914256Y-83447293D01*
X-20909058Y-83448808D01*
X-20877826Y-83458655D01*
X-20872701Y-83460394D01*
X-20663149Y-83536666D01*
X-20658110Y-83538626D01*
X-20627882Y-83551146D01*
X-20622931Y-83553324D01*
X-20583454Y-83571731D01*
X-20578601Y-83574124D01*
X-20549558Y-83589242D01*
X-20544812Y-83591846D01*
X-20351676Y-83703354D01*
X-20347047Y-83706163D01*
X-20319423Y-83723763D01*
X-20314923Y-83726770D01*
X-20279245Y-83751755D01*
X-20274883Y-83754954D01*
X-20269894Y-83758781D01*
X-19928880Y-83417767D01*
X-19928881Y-83417766D01*
X-14981961Y-83417766D01*
X-14980327Y-83419399D01*
X-14801575Y-83387881D01*
X-14796229Y-83387058D01*
X-14763789Y-83382787D01*
X-14758415Y-83382198D01*
X-14715022Y-83378400D01*
X-14709619Y-83378046D01*
X-14676912Y-83376618D01*
X-14671503Y-83376500D01*
X-12899079Y-83376500D01*
X-11405161Y-83376500D01*
X-9363545Y-83376500D01*
X-7869627Y-83376500D01*
X-5828011Y-83376500D01*
X-4334093Y-83376500D01*
X-3712403Y-83376500D01*
X-3706994Y-83376618D01*
X-3674287Y-83378046D01*
X-3668884Y-83378400D01*
X-3625491Y-83382198D01*
X-3620117Y-83382787D01*
X-3587677Y-83387058D01*
X-3582331Y-83387881D01*
X-3362735Y-83426601D01*
X-3357432Y-83427656D01*
X-3325492Y-83434736D01*
X-3320239Y-83436021D01*
X-3278164Y-83447293D01*
X-3272966Y-83448808D01*
X-3241734Y-83458655D01*
X-3236609Y-83460394D01*
X-3027057Y-83536666D01*
X-3022018Y-83538626D01*
X-2991790Y-83551146D01*
X-2986839Y-83553324D01*
X-2947362Y-83571731D01*
X-2942509Y-83574124D01*
X-2913466Y-83589242D01*
X-2908720Y-83591846D01*
X-2715584Y-83703354D01*
X-2710955Y-83706163D01*
X-2683331Y-83723763D01*
X-2678831Y-83726770D01*
X-2643153Y-83751755D01*
X-2638791Y-83754954D01*
X-2612845Y-83774865D01*
X-2610327Y-83776884D01*
X-2251210Y-83417767D01*
X-839826Y-83417767D01*
X222248Y-84479841D01*
X1052592Y-83649497D01*
X1052592Y-83186035D01*
X222248Y-82355692D01*
X-839826Y-83417767D01*
X-2251210Y-83417767D01*
X-3313285Y-82355692D01*
X-4334093Y-83376500D01*
X-5828011Y-83376500D01*
X-6848819Y-82355692D01*
X-7869627Y-83376500D01*
X-9363545Y-83376500D01*
X-10384353Y-82355692D01*
X-11405161Y-83376500D01*
X-12899079Y-83376500D01*
X-13919887Y-82355692D01*
X-14981961Y-83417766D01*
X-19928881Y-83417766D01*
X-20970723Y-82375924D01*
X-15351503Y-82375924D01*
X-14625579Y-81650000D01*
X-13214195Y-81650000D01*
X-12152120Y-82712075D01*
X-11090045Y-81650000D01*
X-9678661Y-81650000D01*
X-8616586Y-82712075D01*
X-7554511Y-81650000D01*
X-6143127Y-81650000D01*
X-5081052Y-82712075D01*
X-4018977Y-81650000D01*
X-2607593Y-81650000D01*
X-1545518Y-82712075D01*
X-483443Y-81650000D01*
X-1545518Y-80587925D01*
X-2607593Y-81650000D01*
X-4018977Y-81650000D01*
X-5081052Y-80587925D01*
X-6143127Y-81650000D01*
X-7554511Y-81650000D01*
X-8616586Y-80587925D01*
X-9678661Y-81650000D01*
X-11090045Y-81650000D01*
X-12152120Y-80587925D01*
X-13214195Y-81650000D01*
X-14625579Y-81650000D01*
X-14625578Y-81649999D01*
X-15314304Y-80961273D01*
X-15270548Y-81152982D01*
X-15268219Y-81166691D01*
X-15236780Y-81445719D01*
X-15236000Y-81459603D01*
X-15236000Y-81740397D01*
X-15236780Y-81754281D01*
X-15268219Y-82033309D01*
X-15270548Y-82047018D01*
X-15333031Y-82320772D01*
X-15336880Y-82334133D01*
X-15351503Y-82375924D01*
X-20970723Y-82375924D01*
X-20990955Y-82355692D01*
X-22011763Y-83376500D01*
X-23505681Y-83376500D01*
X-24526489Y-82355692D01*
X-25547297Y-83376500D01*
X-27041215Y-83376500D01*
X-28062023Y-82355692D01*
X-29082831Y-83376500D01*
X-30576749Y-83376500D01*
X-31597556Y-82355692D01*
X-32618364Y-83376500D01*
X-34112281Y-83376500D01*
X-35133090Y-82355692D01*
X-36195164Y-83417766D01*
X-38574500Y-83417766D01*
X-38574500Y-81263568D01*
X-37576500Y-81263568D01*
X-37576500Y-82036432D01*
X-36900857Y-82712074D01*
X-35838782Y-81650000D01*
X-34427398Y-81650000D01*
X-33365323Y-82712074D01*
X-32303248Y-81650000D01*
X-30891864Y-81650000D01*
X-29829789Y-82712074D01*
X-28767715Y-81650000D01*
X-27356331Y-81650000D01*
X-26294256Y-82712075D01*
X-25232181Y-81650000D01*
X-23820797Y-81650000D01*
X-22758722Y-82712075D01*
X-21696647Y-81650000D01*
X-22758722Y-80587925D01*
X-23820797Y-81650000D01*
X-25232181Y-81650000D01*
X-26294256Y-80587925D01*
X-27356331Y-81650000D01*
X-28767715Y-81650000D01*
X-29829789Y-80587925D01*
X-30891864Y-81650000D01*
X-32303248Y-81650000D01*
X-33365323Y-80587925D01*
X-34427398Y-81650000D01*
X-35838782Y-81650000D01*
X-36900857Y-80587925D01*
X-37576500Y-81263568D01*
X-38574500Y-81263568D01*
X-38574500Y-79882233D01*
X-36195165Y-79882233D01*
X-35133090Y-80944307D01*
X-34112283Y-79923500D01*
X-32618364Y-79923500D01*
X-31597556Y-80944307D01*
X-30576749Y-79923500D01*
X-29082831Y-79923500D01*
X-28062023Y-80944308D01*
X-27041215Y-79923500D01*
X-25547297Y-79923500D01*
X-24526489Y-80944308D01*
X-23505681Y-79923500D01*
X-22011763Y-79923500D01*
X-20990955Y-80944308D01*
X-19928880Y-79882233D01*
X-14981962Y-79882233D01*
X-13919887Y-80944308D01*
X-12899079Y-79923500D01*
X-11405161Y-79923500D01*
X-10384353Y-80944308D01*
X-9363545Y-79923500D01*
X-7869627Y-79923500D01*
X-6848819Y-80944308D01*
X-5828011Y-79923500D01*
X-4334093Y-79923500D01*
X-3313285Y-80944308D01*
X-2251210Y-79882233D01*
X-839826Y-79882233D01*
X222248Y-80944307D01*
X1052592Y-80113963D01*
X1052592Y-79650501D01*
X222249Y-78820158D01*
X-839826Y-79882233D01*
X-2251210Y-79882233D01*
X-2251209Y-79882232D01*
X-2610328Y-79523114D01*
X-2612846Y-79525135D01*
X-2638792Y-79545046D01*
X-2643154Y-79548245D01*
X-2678832Y-79573230D01*
X-2683332Y-79576237D01*
X-2710956Y-79593837D01*
X-2715585Y-79596646D01*
X-2908721Y-79708154D01*
X-2913467Y-79710758D01*
X-2942510Y-79725876D01*
X-2947363Y-79728269D01*
X-2986840Y-79746676D01*
X-2991791Y-79748854D01*
X-3022019Y-79761374D01*
X-3027058Y-79763334D01*
X-3236610Y-79839606D01*
X-3241735Y-79841345D01*
X-3272967Y-79851192D01*
X-3278165Y-79852707D01*
X-3320240Y-79863979D01*
X-3325493Y-79865264D01*
X-3357433Y-79872344D01*
X-3362736Y-79873399D01*
X-3582332Y-79912119D01*
X-3587678Y-79912942D01*
X-3620118Y-79917213D01*
X-3625492Y-79917802D01*
X-3668885Y-79921600D01*
X-3674288Y-79921954D01*
X-3706995Y-79923382D01*
X-3712404Y-79923500D01*
X-4334093Y-79923500D01*
X-5828011Y-79923500D01*
X-7869627Y-79923500D01*
X-9363545Y-79923500D01*
X-11405161Y-79923500D01*
X-12899079Y-79923500D01*
X-14671504Y-79923500D01*
X-14676913Y-79923382D01*
X-14709620Y-79921954D01*
X-14715023Y-79921600D01*
X-14758416Y-79917802D01*
X-14763790Y-79917213D01*
X-14796230Y-79912942D01*
X-14801576Y-79912119D01*
X-14980329Y-79880600D01*
X-14981962Y-79882233D01*
X-19928880Y-79882233D01*
X-19928879Y-79882232D01*
X-20269894Y-79541217D01*
X-20274884Y-79545046D01*
X-20279246Y-79548245D01*
X-20314924Y-79573230D01*
X-20319424Y-79576237D01*
X-20347048Y-79593837D01*
X-20351677Y-79596646D01*
X-20544813Y-79708154D01*
X-20549559Y-79710758D01*
X-20578602Y-79725876D01*
X-20583455Y-79728269D01*
X-20622932Y-79746676D01*
X-20627883Y-79748854D01*
X-20658111Y-79761374D01*
X-20663150Y-79763334D01*
X-20872702Y-79839606D01*
X-20877827Y-79841345D01*
X-20909059Y-79851192D01*
X-20914257Y-79852707D01*
X-20956332Y-79863979D01*
X-20961585Y-79865264D01*
X-20993525Y-79872344D01*
X-20998828Y-79873399D01*
X-21218424Y-79912119D01*
X-21223770Y-79912942D01*
X-21256210Y-79917213D01*
X-21261584Y-79917802D01*
X-21304977Y-79921600D01*
X-21310380Y-79921954D01*
X-21343087Y-79923382D01*
X-21348496Y-79923500D01*
X-22011763Y-79923500D01*
X-23505681Y-79923500D01*
X-25547297Y-79923500D01*
X-27041215Y-79923500D01*
X-29082831Y-79923500D01*
X-30576749Y-79923500D01*
X-32618364Y-79923500D01*
X-34112283Y-79923500D01*
X-34071016Y-79882233D01*
X-34098639Y-79854609D01*
X-34105742Y-79852707D01*
X-34110941Y-79851192D01*
X-34142173Y-79841345D01*
X-34147298Y-79839606D01*
X-34356850Y-79763334D01*
X-34361889Y-79761374D01*
X-34392117Y-79748854D01*
X-34397068Y-79746676D01*
X-34436545Y-79728269D01*
X-34441398Y-79725876D01*
X-34470441Y-79710758D01*
X-34475187Y-79708154D01*
X-34668323Y-79596646D01*
X-34672952Y-79593837D01*
X-34700576Y-79576237D01*
X-34705076Y-79573230D01*
X-34740754Y-79548245D01*
X-34745116Y-79545046D01*
X-34771062Y-79525135D01*
X-34775276Y-79521753D01*
X-34946093Y-79378422D01*
X-34950163Y-79374852D01*
X-34974294Y-79352739D01*
X-34978200Y-79349000D01*
X-35009000Y-79318200D01*
X-35012739Y-79314294D01*
X-35034852Y-79290163D01*
X-35038422Y-79286093D01*
X-35181753Y-79115276D01*
X-35185135Y-79111062D01*
X-35205046Y-79085116D01*
X-35208245Y-79080754D01*
X-35233230Y-79045076D01*
X-35236237Y-79040576D01*
X-35253837Y-79012952D01*
X-35256646Y-79008323D01*
X-35280294Y-78967362D01*
X-36195165Y-79882233D01*
X-38574500Y-79882233D01*
X-38574500Y-77810277D01*
X-38588453Y-77731144D01*
X-37579610Y-77731144D01*
X-37578400Y-77744977D01*
X-37578046Y-77750380D01*
X-37576618Y-77783087D01*
X-37576500Y-77788496D01*
X-37576500Y-78500898D01*
X-36900857Y-79176540D01*
X-35838782Y-78114466D01*
X-36900857Y-77052391D01*
X-37579610Y-77731144D01*
X-38588453Y-77731144D01*
X-38605658Y-77633567D01*
X-38667032Y-77464945D01*
X-38667033Y-77464944D01*
X-38756746Y-77309556D01*
X-38872092Y-77172092D01*
X-39009556Y-77056746D01*
X-39164944Y-76967033D01*
X-39164945Y-76967032D01*
X-39333567Y-76905658D01*
X-39510277Y-76874500D01*
X-39510280Y-76874500D01*
X-39589438Y-76874500D01*
X-43951874Y-76874500D01*
X-43968058Y-76873439D01*
X-43978244Y-76872098D01*
X-44066624Y-76860462D01*
X-44097890Y-76852084D01*
X-44182165Y-76817177D01*
X-44210201Y-76800991D01*
X-44282571Y-76745458D01*
X-44305458Y-76722571D01*
X-44360991Y-76650201D01*
X-44377177Y-76622165D01*
X-44412084Y-76537890D01*
X-44420462Y-76506624D01*
X-44433439Y-76408060D01*
X-44434500Y-76391874D01*
X-44434500Y-75908125D01*
X-44434023Y-75900853D01*
X-39284853Y-75900853D01*
X-39138828Y-75926601D01*
X-39133525Y-75927656D01*
X-39101585Y-75934736D01*
X-39096332Y-75936021D01*
X-39054257Y-75947293D01*
X-39049059Y-75948808D01*
X-39017827Y-75958655D01*
X-39012702Y-75960394D01*
X-38803150Y-76036666D01*
X-38798111Y-76038626D01*
X-38767883Y-76051146D01*
X-38762932Y-76053324D01*
X-38723455Y-76071731D01*
X-38718602Y-76074124D01*
X-38689559Y-76089242D01*
X-38684813Y-76091846D01*
X-38491677Y-76203354D01*
X-38487048Y-76206163D01*
X-38459424Y-76223763D01*
X-38454924Y-76226770D01*
X-38419246Y-76251755D01*
X-38414884Y-76254954D01*
X-38388938Y-76274865D01*
X-38384724Y-76278247D01*
X-38213907Y-76421578D01*
X-38209837Y-76425148D01*
X-38185706Y-76447261D01*
X-38181800Y-76451000D01*
X-38151000Y-76481800D01*
X-38147261Y-76485706D01*
X-38125148Y-76509837D01*
X-38121578Y-76513907D01*
X-37978247Y-76684724D01*
X-37974865Y-76688938D01*
X-37963542Y-76703692D01*
X-37606549Y-76346699D01*
X-37606550Y-76346698D01*
X-36195164Y-76346698D01*
X-35427437Y-77114425D01*
X-35423334Y-77103150D01*
X-35421374Y-77098111D01*
X-35408854Y-77067883D01*
X-35406676Y-77062932D01*
X-35388269Y-77023455D01*
X-35385876Y-77018602D01*
X-35370758Y-76989559D01*
X-35368154Y-76984813D01*
X-35256646Y-76791677D01*
X-35253837Y-76787048D01*
X-35236237Y-76759424D01*
X-35233230Y-76754924D01*
X-35208245Y-76719246D01*
X-35205046Y-76714884D01*
X-35185135Y-76688938D01*
X-35181753Y-76684724D01*
X-35038422Y-76513907D01*
X-35034852Y-76509837D01*
X-35012739Y-76485706D01*
X-35009000Y-76481800D01*
X-34978200Y-76451000D01*
X-34974294Y-76447261D01*
X-34950163Y-76425148D01*
X-34946093Y-76421578D01*
X-34775276Y-76278247D01*
X-34771062Y-76274865D01*
X-34745116Y-76254954D01*
X-34740754Y-76251755D01*
X-34705076Y-76226770D01*
X-34700576Y-76223763D01*
X-34672952Y-76206163D01*
X-34668323Y-76203354D01*
X-34475187Y-76091846D01*
X-34470441Y-76089242D01*
X-34441398Y-76074124D01*
X-34436545Y-76071731D01*
X-34397068Y-76053324D01*
X-34392117Y-76051146D01*
X-34374050Y-76043663D01*
X-35133090Y-75284624D01*
X-36195164Y-76346698D01*
X-37606550Y-76346698D01*
X-38668624Y-75284624D01*
X-39284853Y-75900853D01*
X-44434023Y-75900853D01*
X-44433439Y-75891939D01*
X-44420462Y-75793375D01*
X-44412084Y-75762109D01*
X-44377177Y-75677834D01*
X-44360991Y-75649798D01*
X-44360988Y-75649795D01*
X-44337087Y-75618646D01*
X-44305458Y-75577428D01*
X-44282571Y-75554541D01*
X-44245456Y-75526061D01*
X-44210197Y-75499005D01*
X-44182168Y-75482823D01*
X-44142649Y-75466454D01*
X-44097890Y-75447915D01*
X-44066623Y-75439537D01*
X-43968059Y-75426561D01*
X-43951874Y-75425500D01*
X-42864975Y-75425500D01*
X-42864973Y-75425500D01*
X-42678156Y-75390577D01*
X-42500937Y-75321922D01*
X-42339351Y-75221872D01*
X-42198900Y-75093834D01*
X-42157725Y-75039310D01*
X-41038086Y-75039310D01*
X-40436390Y-75641006D01*
X-39374316Y-74578932D01*
X-37962932Y-74578932D01*
X-36900857Y-75641006D01*
X-35838782Y-74578932D01*
X-34427398Y-74578932D01*
X-33365323Y-75641006D01*
X-32303248Y-74578932D01*
X-33365323Y-73516857D01*
X-34427398Y-74578932D01*
X-35838782Y-74578932D01*
X-36900857Y-73516857D01*
X-37962932Y-74578932D01*
X-39374316Y-74578932D01*
X-40436391Y-73516857D01*
X-40963528Y-74043994D01*
X-40962401Y-74050027D01*
X-40961478Y-74055685D01*
X-40956689Y-74090017D01*
X-40956029Y-74095707D01*
X-40934237Y-74330878D01*
X-40933840Y-74336591D01*
X-40932239Y-74371211D01*
X-40932107Y-74376939D01*
X-40932107Y-74423061D01*
X-40932239Y-74428789D01*
X-40933840Y-74463409D01*
X-40934237Y-74469122D01*
X-40956029Y-74704293D01*
X-40956689Y-74709983D01*
X-40961478Y-74744315D01*
X-40962401Y-74749973D01*
X-40970877Y-74795308D01*
X-40972059Y-74800909D01*
X-40979991Y-74834634D01*
X-40981430Y-74840177D01*
X-41038086Y-75039310D01*
X-42157725Y-75039310D01*
X-42084367Y-74942169D01*
X-42033581Y-74840177D01*
X-41999653Y-74772042D01*
X-41947642Y-74589239D01*
X-41930107Y-74400000D01*
X-41930107Y-74399999D01*
X-41947642Y-74210760D01*
X-41999653Y-74027957D01*
X-42084367Y-73857830D01*
X-42198901Y-73706164D01*
X-42339349Y-73578129D01*
X-42500938Y-73478077D01*
X-42500942Y-73478075D01*
X-42630822Y-73427760D01*
X-42678156Y-73409423D01*
X-42864973Y-73374500D01*
X-42864975Y-73374500D01*
X-43951874Y-73374500D01*
X-43968058Y-73373439D01*
X-43978244Y-73372098D01*
X-44066624Y-73360462D01*
X-44097890Y-73352084D01*
X-44182165Y-73317177D01*
X-44210201Y-73300991D01*
X-44282571Y-73245458D01*
X-44305458Y-73222571D01*
X-44360991Y-73150201D01*
X-44377177Y-73122165D01*
X-44412084Y-73037890D01*
X-44420462Y-73006624D01*
X-44433439Y-72908060D01*
X-44434500Y-72891874D01*
X-44434500Y-72376830D01*
X-42831898Y-72376830D01*
X-42801562Y-72378233D01*
X-42795848Y-72378630D01*
X-42749922Y-72382886D01*
X-42744233Y-72383546D01*
X-42709909Y-72388334D01*
X-42704255Y-72389256D01*
X-42472094Y-72432655D01*
X-42466486Y-72433838D01*
X-42432735Y-72441777D01*
X-42427189Y-72443218D01*
X-42382831Y-72455841D01*
X-42377361Y-72457535D01*
X-42344520Y-72468543D01*
X-42339135Y-72470487D01*
X-42118908Y-72555803D01*
X-42113615Y-72557996D01*
X-42081893Y-72572003D01*
X-42076704Y-72574439D01*
X-42035418Y-72594999D01*
X-42030350Y-72597671D01*
X-42000091Y-72614527D01*
X-41995157Y-72617426D01*
X-41794362Y-72741753D01*
X-41789564Y-72744880D01*
X-41760967Y-72764469D01*
X-41756314Y-72767816D01*
X-41719509Y-72795611D01*
X-41715020Y-72799167D01*
X-41688363Y-72821303D01*
X-41684043Y-72825063D01*
X-41509509Y-72984172D01*
X-41505366Y-72988128D01*
X-41480857Y-73012637D01*
X-41476900Y-73016781D01*
X-41445829Y-73050865D01*
X-41442070Y-73055184D01*
X-41419934Y-73081841D01*
X-41416762Y-73085844D01*
X-41142083Y-72811165D01*
X-39730699Y-72811165D01*
X-38668624Y-73873240D01*
X-37606549Y-72811165D01*
X-36195165Y-72811165D01*
X-35133090Y-73873239D01*
X-34071015Y-72811165D01*
X-32659631Y-72811165D01*
X-31597556Y-73873239D01*
X-30535482Y-72811165D01*
X-31597556Y-71749090D01*
X-32659631Y-72811165D01*
X-34071015Y-72811165D01*
X-35133090Y-71749090D01*
X-36195165Y-72811165D01*
X-37606549Y-72811165D01*
X-38668624Y-71749090D01*
X-39730699Y-72811165D01*
X-41142083Y-72811165D01*
X-42204158Y-71749090D01*
X-42831898Y-72376830D01*
X-44434500Y-72376830D01*
X-44434500Y-71043398D01*
X-41498466Y-71043398D01*
X-40436391Y-72105473D01*
X-39374316Y-71043398D01*
X-37962932Y-71043398D01*
X-36900857Y-72105472D01*
X-36012535Y-71217150D01*
X-36014633Y-71215627D01*
X-36029429Y-71202990D01*
X-36040812Y-71191607D01*
X-34279188Y-71191607D01*
X-33365322Y-72105472D01*
X-32303248Y-71043398D01*
X-30891864Y-71043398D01*
X-29829789Y-72105472D01*
X-28767715Y-71043398D01*
X-29829789Y-69981323D01*
X-30891864Y-71043398D01*
X-32303248Y-71043398D01*
X-33365323Y-69981323D01*
X-33863814Y-70479814D01*
X-33867075Y-70500399D01*
X-33871617Y-70519319D01*
X-33929985Y-70698958D01*
X-33937431Y-70716935D01*
X-34023183Y-70885232D01*
X-34033350Y-70901822D01*
X-34144373Y-71054633D01*
X-34157010Y-71069429D01*
X-34279188Y-71191607D01*
X-36040812Y-71191607D01*
X-36162990Y-71069429D01*
X-36175627Y-71054633D01*
X-36286650Y-70901822D01*
X-36296817Y-70885232D01*
X-36382569Y-70716935D01*
X-36390015Y-70698958D01*
X-36448383Y-70519319D01*
X-36452925Y-70500399D01*
X-36466313Y-70415866D01*
X-36900857Y-69981323D01*
X-37962932Y-71043398D01*
X-39374316Y-71043398D01*
X-40436391Y-69981323D01*
X-41498466Y-71043398D01*
X-44434500Y-71043398D01*
X-44434500Y-69275631D01*
X-43266233Y-69275631D01*
X-42204158Y-70337706D01*
X-41142083Y-69275631D01*
X-39730699Y-69275631D01*
X-38668624Y-70337706D01*
X-37606549Y-69275631D01*
X-37606550Y-69275630D01*
X-36195164Y-69275630D01*
X-36151607Y-69319188D01*
X-36029429Y-69197010D01*
X-36014633Y-69184373D01*
X-35861822Y-69073350D01*
X-35845232Y-69063183D01*
X-35676935Y-68977431D01*
X-35658958Y-68969985D01*
X-35479319Y-68911617D01*
X-35460399Y-68907075D01*
X-35273840Y-68877527D01*
X-35254442Y-68876000D01*
X-35065558Y-68876000D01*
X-35046160Y-68877527D01*
X-34859601Y-68907075D01*
X-34840681Y-68911617D01*
X-34661042Y-68969985D01*
X-34643065Y-68977431D01*
X-34474768Y-69063183D01*
X-34458178Y-69073350D01*
X-34305367Y-69184373D01*
X-34290571Y-69197010D01*
X-34157010Y-69330571D01*
X-34144373Y-69345366D01*
X-34142848Y-69347463D01*
X-34071016Y-69275631D01*
X-32659631Y-69275631D01*
X-31597556Y-70337705D01*
X-30535482Y-69275631D01*
X-31597556Y-68213556D01*
X-32659631Y-69275631D01*
X-34071016Y-69275631D01*
X-34071015Y-69275630D01*
X-35133090Y-68213556D01*
X-36195164Y-69275630D01*
X-37606550Y-69275630D01*
X-38668624Y-68213556D01*
X-39730699Y-69275631D01*
X-41142083Y-69275631D01*
X-42204158Y-68213556D01*
X-43266233Y-69275631D01*
X-44434500Y-69275631D01*
X-44434500Y-67507864D01*
X-41498466Y-67507864D01*
X-40436391Y-68569939D01*
X-39374316Y-67507864D01*
X-37962932Y-67507864D01*
X-36900857Y-68569938D01*
X-35838782Y-67507864D01*
X-34427398Y-67507864D01*
X-33365323Y-68569938D01*
X-32303248Y-67507864D01*
X-30891864Y-67507864D01*
X-29829789Y-68569938D01*
X-28767715Y-67507864D01*
X-29829789Y-66445789D01*
X-30891864Y-67507864D01*
X-32303248Y-67507864D01*
X-33365323Y-66445789D01*
X-34427398Y-67507864D01*
X-35838782Y-67507864D01*
X-36900857Y-66445789D01*
X-37962932Y-67507864D01*
X-39374316Y-67507864D01*
X-40436391Y-66445789D01*
X-41498466Y-67507864D01*
X-44434500Y-67507864D01*
X-44434500Y-65740097D01*
X-43266233Y-65740097D01*
X-42204158Y-66802172D01*
X-41142083Y-65740097D01*
X-39730699Y-65740097D01*
X-38668624Y-66802172D01*
X-37606549Y-65740097D01*
X-36195165Y-65740097D01*
X-35133090Y-66802171D01*
X-34071015Y-65740097D01*
X-32659631Y-65740097D01*
X-31597556Y-66802171D01*
X-30535482Y-65740097D01*
X-31597556Y-64678022D01*
X-32659631Y-65740097D01*
X-34071015Y-65740097D01*
X-35133090Y-64678022D01*
X-36195165Y-65740097D01*
X-37606549Y-65740097D01*
X-38668624Y-64678022D01*
X-39730699Y-65740097D01*
X-41142083Y-65740097D01*
X-42204158Y-64678022D01*
X-43266233Y-65740097D01*
X-44434500Y-65740097D01*
X-44434500Y-63972330D01*
X-41498466Y-63972330D01*
X-40436391Y-65034405D01*
X-39374316Y-63972330D01*
X-37962932Y-63972330D01*
X-36900857Y-65034404D01*
X-35838782Y-63972330D01*
X-34427398Y-63972330D01*
X-33365323Y-65034404D01*
X-32303248Y-63972330D01*
X-30891864Y-63972330D01*
X-29829789Y-65034404D01*
X-28767715Y-63972330D01*
X-29829789Y-62910255D01*
X-30891864Y-63972330D01*
X-32303248Y-63972330D01*
X-33365323Y-62910255D01*
X-34427398Y-63972330D01*
X-35838782Y-63972330D01*
X-36900857Y-62910255D01*
X-37962932Y-63972330D01*
X-39374316Y-63972330D01*
X-40436391Y-62910255D01*
X-41498466Y-63972330D01*
X-44434500Y-63972330D01*
X-44434500Y-62204563D01*
X-43266233Y-62204563D01*
X-42204158Y-63266638D01*
X-41142083Y-62204563D01*
X-39730699Y-62204563D01*
X-38668624Y-63266638D01*
X-37606549Y-62204563D01*
X-36195165Y-62204563D01*
X-35133090Y-63266637D01*
X-34071015Y-62204563D01*
X-32659631Y-62204563D01*
X-31597556Y-63266637D01*
X-30535482Y-62204563D01*
X-31597556Y-61142488D01*
X-32659631Y-62204563D01*
X-34071015Y-62204563D01*
X-35133090Y-61142488D01*
X-36195165Y-62204563D01*
X-37606549Y-62204563D01*
X-38668624Y-61142488D01*
X-39730699Y-62204563D01*
X-41142083Y-62204563D01*
X-42204158Y-61142488D01*
X-43266233Y-62204563D01*
X-44434500Y-62204563D01*
X-44434500Y-60436796D01*
X-41498466Y-60436796D01*
X-40436391Y-61498871D01*
X-39374316Y-60436796D01*
X-37962932Y-60436796D01*
X-36900857Y-61498870D01*
X-35838782Y-60436796D01*
X-34427398Y-60436796D01*
X-33365323Y-61498870D01*
X-32303248Y-60436796D01*
X-30891864Y-60436796D01*
X-29829789Y-61498870D01*
X-28767715Y-60436796D01*
X-29829789Y-59374721D01*
X-30891864Y-60436796D01*
X-32303248Y-60436796D01*
X-33365323Y-59374721D01*
X-34427398Y-60436796D01*
X-35838782Y-60436796D01*
X-36900857Y-59374721D01*
X-37962932Y-60436796D01*
X-39374316Y-60436796D01*
X-40436391Y-59374721D01*
X-41498466Y-60436796D01*
X-44434500Y-60436796D01*
X-44434500Y-58669029D01*
X-43266233Y-58669029D01*
X-42204158Y-59731104D01*
X-41142083Y-58669029D01*
X-39730699Y-58669029D01*
X-38668624Y-59731104D01*
X-37606549Y-58669029D01*
X-36195165Y-58669029D01*
X-35133090Y-59731103D01*
X-34071015Y-58669029D01*
X-32659631Y-58669029D01*
X-31597556Y-59731103D01*
X-30535482Y-58669029D01*
X-31597556Y-57606954D01*
X-32659631Y-58669029D01*
X-34071015Y-58669029D01*
X-35133090Y-57606954D01*
X-36195165Y-58669029D01*
X-37606549Y-58669029D01*
X-38668624Y-57606954D01*
X-39730699Y-58669029D01*
X-41142083Y-58669029D01*
X-42204158Y-57606954D01*
X-43266233Y-58669029D01*
X-44434500Y-58669029D01*
X-44434500Y-56901262D01*
X-41498465Y-56901262D01*
X-40436391Y-57963337D01*
X-39374316Y-56901262D01*
X-37962931Y-56901262D01*
X-36900857Y-57963336D01*
X-35838782Y-56901262D01*
X-34427397Y-56901262D01*
X-33365323Y-57963336D01*
X-32303248Y-56901262D01*
X-30891864Y-56901262D01*
X-29829789Y-57963336D01*
X-28767715Y-56901262D01*
X-29829789Y-55839187D01*
X-30891864Y-56901262D01*
X-32303248Y-56901262D01*
X-33365323Y-55839187D01*
X-34427397Y-56901262D01*
X-35838782Y-56901262D01*
X-36900857Y-55839187D01*
X-37962931Y-56901262D01*
X-39374316Y-56901262D01*
X-40436391Y-55839187D01*
X-41498465Y-56901262D01*
X-44434500Y-56901262D01*
X-44434500Y-55133495D01*
X-43266232Y-55133495D01*
X-42204158Y-56195570D01*
X-41142083Y-55133495D01*
X-39730698Y-55133495D01*
X-38668624Y-56195570D01*
X-37606549Y-55133495D01*
X-36195164Y-55133495D01*
X-35133090Y-56195569D01*
X-34071015Y-55133495D01*
X-32659631Y-55133495D01*
X-31597556Y-56195569D01*
X-30535482Y-55133495D01*
X-31597556Y-54071420D01*
X-32659631Y-55133495D01*
X-34071015Y-55133495D01*
X-35133090Y-54071420D01*
X-36195164Y-55133495D01*
X-37606549Y-55133495D01*
X-38668624Y-54071420D01*
X-39730698Y-55133495D01*
X-41142083Y-55133495D01*
X-42204158Y-54071420D01*
X-43266232Y-55133495D01*
X-44434500Y-55133495D01*
X-44434500Y-54472561D01*
X-44434394Y-54467437D01*
X-44417722Y-54064337D01*
X-44416876Y-54054123D01*
X-44367287Y-53656309D01*
X-44365600Y-53646201D01*
X-44306792Y-53365728D01*
X-41498465Y-53365728D01*
X-40436391Y-54427803D01*
X-39374316Y-53365728D01*
X-37962931Y-53365728D01*
X-36900857Y-54427802D01*
X-35838782Y-53365728D01*
X-34427397Y-53365728D01*
X-33365323Y-54427802D01*
X-32303248Y-53365728D01*
X-30891864Y-53365728D01*
X-29829789Y-54427802D01*
X-28845921Y-53443934D01*
X-28912227Y-53221214D01*
X-29829789Y-52303653D01*
X-30891864Y-53365728D01*
X-32303248Y-53365728D01*
X-33365323Y-52303653D01*
X-34427397Y-53365728D01*
X-35838782Y-53365728D01*
X-36900857Y-52303653D01*
X-37962931Y-53365728D01*
X-39374316Y-53365728D01*
X-40436391Y-52303653D01*
X-41498465Y-53365728D01*
X-44306792Y-53365728D01*
X-44283334Y-53253853D01*
X-44280818Y-53243917D01*
X-44166430Y-52859693D01*
X-44163102Y-52850000D01*
X-44017376Y-52476540D01*
X-44013260Y-52467155D01*
X-43866718Y-52167398D01*
X-42696795Y-52167398D01*
X-42204157Y-52660036D01*
X-41142082Y-51597961D01*
X-39730698Y-51597961D01*
X-38668624Y-52660036D01*
X-37606549Y-51597961D01*
X-36195164Y-51597961D01*
X-35133090Y-52660036D01*
X-34071016Y-51597962D01*
X-32659631Y-51597962D01*
X-31597556Y-52660036D01*
X-30535481Y-51597961D01*
X-31436215Y-50697227D01*
X-31684869Y-50623200D01*
X-32659631Y-51597962D01*
X-34071016Y-51597962D01*
X-34071015Y-51597961D01*
X-35133090Y-50535887D01*
X-36195164Y-51597961D01*
X-37606549Y-51597961D01*
X-38668624Y-50535887D01*
X-39730698Y-51597961D01*
X-41142082Y-51597961D01*
X-41611820Y-51128223D01*
X-41634475Y-51141723D01*
X-41901888Y-51332654D01*
X-42152643Y-51545031D01*
X-42384966Y-51777354D01*
X-42597343Y-52028109D01*
X-42696795Y-52167398D01*
X-43866718Y-52167398D01*
X-43837200Y-52107018D01*
X-43832322Y-52098005D01*
X-43627108Y-51753609D01*
X-43621502Y-51745028D01*
X-43388560Y-51418775D01*
X-43382266Y-51410688D01*
X-43123168Y-51104770D01*
X-43116226Y-51097230D01*
X-42832769Y-50813773D01*
X-42825229Y-50806831D01*
X-42519311Y-50547733D01*
X-42511224Y-50541439D01*
X-42258459Y-50360967D01*
X-42184965Y-50308493D01*
X-42176390Y-50302891D01*
X-41831994Y-50097677D01*
X-41822998Y-50092808D01*
X-41462830Y-49916732D01*
X-41453459Y-49912623D01*
X-41327951Y-49863649D01*
X-41079987Y-49766892D01*
X-41070319Y-49763573D01*
X-40686082Y-49649181D01*
X-40676146Y-49646665D01*
X-40283798Y-49564399D01*
X-40273690Y-49562712D01*
X-39875855Y-49513121D01*
X-39865682Y-49512278D01*
X-39462562Y-49495605D01*
X-39457439Y-49495500D01*
X-39451715Y-49495500D01*
X-32693285Y-49495500D01*
X-32687561Y-49495500D01*
X-32682437Y-49495605D01*
X-32279315Y-49512278D01*
X-32269146Y-49513121D01*
X-31871305Y-49562712D01*
X-31861205Y-49564398D01*
X-31468848Y-49646666D01*
X-31458922Y-49649179D01*
X-31074672Y-49763575D01*
X-31065020Y-49766890D01*
X-30691540Y-49912623D01*
X-30682178Y-49916728D01*
X-30321991Y-50092813D01*
X-30313005Y-50097677D01*
X-29968602Y-50302895D01*
X-29960045Y-50308485D01*
X-29633769Y-50541443D01*
X-29625694Y-50547728D01*
X-29319757Y-50806842D01*
X-29312242Y-50813761D01*
X-29028761Y-51097242D01*
X-29021842Y-51104757D01*
X-28814720Y-51349307D01*
X-28762733Y-51410688D01*
X-28756443Y-51418769D01*
X-28523485Y-51745045D01*
X-28517895Y-51753602D01*
X-28433449Y-51895322D01*
X-28312677Y-52098005D01*
X-28307813Y-52106991D01*
X-28131728Y-52467178D01*
X-28127624Y-52476536D01*
X-27981890Y-52850020D01*
X-27978575Y-52859672D01*
X-27926433Y-53034817D01*
X-27864181Y-53243917D01*
X-27861666Y-53253848D01*
X-27831193Y-53399183D01*
X-27779399Y-53646201D01*
X-27777712Y-53656305D01*
X-27728121Y-54054146D01*
X-27727278Y-54064315D01*
X-27712245Y-54427802D01*
X-27710606Y-54467437D01*
X-27710500Y-54472561D01*
X-27710500Y-72891874D01*
X-27711561Y-72908059D01*
X-27724537Y-73006623D01*
X-27732915Y-73037890D01*
X-27748145Y-73074659D01*
X-27767823Y-73122167D01*
X-27784005Y-73150197D01*
X-27807910Y-73181350D01*
X-27839541Y-73222571D01*
X-27862428Y-73245458D01*
X-27899536Y-73273933D01*
X-27934800Y-73300992D01*
X-27962834Y-73317177D01*
X-28047109Y-73352084D01*
X-28078375Y-73360462D01*
X-28165208Y-73371894D01*
X-28176941Y-73373439D01*
X-28193126Y-73374500D01*
X-29176715Y-73374500D01*
X-29185000Y-73374500D01*
X-29280027Y-73374500D01*
X-29466844Y-73409423D01*
X-29531427Y-73434442D01*
X-29644057Y-73478075D01*
X-29644061Y-73478077D01*
X-29644063Y-73478078D01*
X-29805649Y-73578128D01*
X-29946100Y-73706166D01*
X-30060633Y-73857831D01*
X-30103339Y-73943597D01*
X-30145341Y-74027948D01*
X-30145347Y-74027960D01*
X-30197357Y-74210758D01*
X-30214893Y-74400000D01*
X-30197357Y-74589242D01*
X-30145347Y-74772040D01*
X-30060633Y-74942169D01*
X-29946100Y-75093834D01*
X-29805649Y-75221872D01*
X-29644063Y-75321922D01*
X-29466844Y-75390577D01*
X-29280027Y-75425500D01*
X-29195562Y-75425500D01*
X-28193285Y-75425500D01*
X-28193126Y-75425500D01*
X-28176940Y-75426561D01*
X-28078375Y-75439537D01*
X-28047107Y-75447915D01*
X-27962828Y-75482825D01*
X-27934805Y-75499003D01*
X-27862433Y-75554537D01*
X-27862428Y-75554541D01*
X-27839543Y-75577426D01*
X-27784003Y-75649805D01*
X-27767825Y-75677828D01*
X-27748146Y-75725338D01*
X-27732915Y-75762109D01*
X-27724537Y-75793376D01*
X-27711561Y-75891940D01*
X-27710500Y-75908125D01*
X-27710500Y-76391874D01*
X-27711561Y-76408059D01*
X-27724537Y-76506623D01*
X-27732915Y-76537890D01*
X-27732915Y-76537891D01*
X-27767823Y-76622167D01*
X-27784005Y-76650197D01*
X-27807910Y-76681350D01*
X-27839541Y-76722571D01*
X-27862428Y-76745458D01*
X-27880628Y-76759424D01*
X-27934800Y-76800992D01*
X-27962834Y-76817177D01*
X-28047109Y-76852084D01*
X-28078375Y-76860462D01*
X-28153652Y-76870373D01*
X-28176934Y-76873438D01*
X-28193117Y-76874499D01*
X-33570562Y-76874500D01*
X-33649722Y-76874500D01*
X-33826432Y-76905658D01*
X-33995054Y-76967032D01*
X-33995055Y-76967033D01*
X-34150443Y-77056746D01*
X-34150446Y-77056749D01*
X-34150450Y-77056751D01*
X-34287908Y-77172092D01*
X-34403249Y-77309550D01*
X-34403251Y-77309553D01*
X-34403253Y-77309556D01*
X-34421210Y-77340659D01*
X-34492969Y-77464949D01*
X-34554341Y-77633567D01*
X-34585500Y-77810280D01*
X-34585500Y-77891715D01*
X-34585500Y-77900000D01*
X-34585500Y-77989720D01*
X-34554341Y-78166433D01*
X-34492969Y-78335051D01*
X-34403249Y-78490450D01*
X-34287908Y-78627908D01*
X-34150450Y-78743249D01*
X-33995051Y-78832969D01*
X-33826433Y-78894341D01*
X-33649720Y-78925500D01*
X-33649718Y-78925500D01*
X-21370282Y-78925500D01*
X-21370280Y-78925500D01*
X-21193567Y-78894341D01*
X-21024949Y-78832969D01*
X-21024946Y-78832967D01*
X-21024945Y-78832967D01*
X-21024944Y-78832966D01*
X-20917122Y-78770715D01*
X-19629012Y-78770715D01*
X-19223187Y-79176540D01*
X-18161113Y-78114466D01*
X-19223188Y-77052391D01*
X-19511456Y-77340659D01*
X-19508808Y-77349059D01*
X-19507293Y-77354257D01*
X-19496021Y-77396332D01*
X-19494736Y-77401585D01*
X-19487656Y-77433525D01*
X-19486601Y-77438828D01*
X-19447881Y-77658424D01*
X-19447058Y-77663770D01*
X-19442787Y-77696210D01*
X-19442198Y-77701584D01*
X-19438400Y-77744977D01*
X-19438046Y-77750380D01*
X-19436618Y-77783087D01*
X-19436500Y-77788496D01*
X-19436500Y-78011504D01*
X-19436618Y-78016913D01*
X-19438046Y-78049620D01*
X-19438400Y-78055023D01*
X-19442198Y-78098416D01*
X-19442787Y-78103790D01*
X-19447058Y-78136230D01*
X-19447881Y-78141576D01*
X-19486601Y-78361172D01*
X-19487656Y-78366475D01*
X-19494736Y-78398415D01*
X-19496021Y-78403668D01*
X-19507293Y-78445743D01*
X-19508808Y-78450941D01*
X-19518655Y-78482173D01*
X-19520394Y-78487298D01*
X-19596666Y-78696850D01*
X-19598626Y-78701889D01*
X-19611146Y-78732117D01*
X-19613324Y-78737068D01*
X-19629012Y-78770715D01*
X-20917122Y-78770715D01*
X-20869556Y-78743253D01*
X-20869553Y-78743251D01*
X-20869550Y-78743249D01*
X-20732092Y-78627908D01*
X-20616751Y-78490450D01*
X-20616749Y-78490446D01*
X-20616746Y-78490443D01*
X-20527033Y-78335055D01*
X-20527032Y-78335054D01*
X-20465658Y-78166432D01*
X-20434500Y-77989722D01*
X-20434500Y-77810277D01*
X-20465658Y-77633567D01*
X-20527032Y-77464945D01*
X-20527033Y-77464944D01*
X-20616746Y-77309556D01*
X-20732092Y-77172092D01*
X-20869556Y-77056746D01*
X-21024944Y-76967033D01*
X-21024945Y-76967032D01*
X-21193567Y-76905658D01*
X-21370277Y-76874500D01*
X-21370280Y-76874500D01*
X-21449438Y-76874500D01*
X-25091875Y-76874500D01*
X-25108059Y-76873439D01*
X-25118245Y-76872098D01*
X-25206625Y-76860462D01*
X-25237891Y-76852084D01*
X-25322166Y-76817177D01*
X-25350202Y-76800991D01*
X-25422572Y-76745458D01*
X-25445459Y-76722571D01*
X-25500992Y-76650201D01*
X-25517178Y-76622165D01*
X-25552085Y-76537890D01*
X-25560463Y-76506624D01*
X-25573440Y-76408060D01*
X-25574501Y-76391874D01*
X-25574501Y-75908125D01*
X-25573440Y-75891939D01*
X-25571407Y-75876500D01*
X-21582831Y-75876500D01*
X-21348496Y-75876500D01*
X-21343087Y-75876618D01*
X-21310380Y-75878046D01*
X-21304977Y-75878400D01*
X-21261584Y-75882198D01*
X-21256210Y-75882787D01*
X-21223770Y-75887058D01*
X-21218424Y-75887881D01*
X-20998828Y-75926601D01*
X-20993525Y-75927656D01*
X-20961585Y-75934736D01*
X-20956332Y-75936021D01*
X-20914257Y-75947293D01*
X-20909059Y-75948808D01*
X-20877827Y-75958655D01*
X-20872702Y-75960394D01*
X-20663150Y-76036666D01*
X-20658111Y-76038626D01*
X-20627883Y-76051146D01*
X-20622932Y-76053324D01*
X-20583455Y-76071731D01*
X-20578602Y-76074124D01*
X-20549559Y-76089242D01*
X-20544813Y-76091846D01*
X-20351677Y-76203354D01*
X-20347048Y-76206163D01*
X-20319424Y-76223763D01*
X-20314924Y-76226770D01*
X-20279246Y-76251755D01*
X-20274884Y-76254954D01*
X-20248938Y-76274865D01*
X-20244724Y-76278247D01*
X-20073907Y-76421578D01*
X-20069837Y-76425148D01*
X-20045706Y-76447261D01*
X-20041800Y-76451000D01*
X-20037490Y-76455309D01*
X-19928880Y-76346699D01*
X-18517496Y-76346699D01*
X-17455421Y-77408774D01*
X-16393346Y-76346699D01*
X-17455421Y-75284624D01*
X-18517496Y-76346699D01*
X-19928880Y-76346699D01*
X-20990955Y-75284624D01*
X-21582831Y-75876500D01*
X-25571407Y-75876500D01*
X-25560463Y-75793375D01*
X-25552085Y-75762109D01*
X-25517178Y-75677834D01*
X-25500992Y-75649798D01*
X-25500989Y-75649795D01*
X-25477088Y-75618646D01*
X-25445459Y-75577428D01*
X-25422572Y-75554541D01*
X-25385457Y-75526061D01*
X-25350198Y-75499005D01*
X-25322169Y-75482823D01*
X-25282650Y-75466454D01*
X-25237891Y-75447915D01*
X-25206624Y-75439537D01*
X-25108060Y-75426561D01*
X-25091875Y-75425500D01*
X-24004976Y-75425500D01*
X-24004974Y-75425500D01*
X-23818157Y-75390577D01*
X-23640938Y-75321922D01*
X-23479352Y-75221872D01*
X-23338901Y-75093834D01*
X-23224368Y-74942169D01*
X-23173582Y-74840177D01*
X-23139654Y-74772042D01*
X-23087643Y-74589239D01*
X-23086688Y-74578932D01*
X-20285263Y-74578932D01*
X-19223188Y-75641007D01*
X-18161113Y-74578932D01*
X-16749729Y-74578932D01*
X-15687654Y-75641007D01*
X-14625579Y-74578932D01*
X-15687654Y-73516857D01*
X-16749729Y-74578932D01*
X-18161113Y-74578932D01*
X-19223188Y-73516857D01*
X-20285263Y-74578932D01*
X-23086688Y-74578932D01*
X-23070108Y-74400000D01*
X-23070108Y-74399999D01*
X-23087643Y-74210760D01*
X-23139654Y-74027957D01*
X-23224368Y-73857830D01*
X-23338902Y-73706164D01*
X-23479350Y-73578129D01*
X-23640939Y-73478077D01*
X-23640943Y-73478075D01*
X-23770823Y-73427760D01*
X-23818157Y-73409423D01*
X-24004974Y-73374500D01*
X-24004976Y-73374500D01*
X-25091875Y-73374500D01*
X-25108059Y-73373439D01*
X-25118245Y-73372098D01*
X-25206625Y-73360462D01*
X-25237891Y-73352084D01*
X-25322166Y-73317177D01*
X-25350202Y-73300991D01*
X-25422572Y-73245458D01*
X-25445459Y-73222571D01*
X-25500992Y-73150201D01*
X-25517178Y-73122165D01*
X-25552085Y-73037890D01*
X-25560463Y-73006624D01*
X-25573439Y-72908067D01*
X-25574500Y-72891881D01*
X-25574500Y-72811165D01*
X-22053030Y-72811165D01*
X-20990955Y-73873240D01*
X-19928880Y-72811165D01*
X-18517496Y-72811165D01*
X-17455421Y-73873240D01*
X-16393346Y-72811165D01*
X-14981962Y-72811165D01*
X-13919887Y-73873240D01*
X-13176454Y-73129807D01*
X-13143623Y-73086332D01*
X-13140066Y-73081841D01*
X-13117930Y-73055184D01*
X-13114171Y-73050865D01*
X-13083100Y-73016781D01*
X-13079143Y-73012637D01*
X-13054634Y-72988128D01*
X-13050491Y-72984172D01*
X-12875957Y-72825063D01*
X-12871637Y-72821303D01*
X-12858545Y-72810431D01*
X-13919887Y-71749090D01*
X-14981962Y-72811165D01*
X-16393346Y-72811165D01*
X-17455421Y-71749090D01*
X-18517496Y-72811165D01*
X-19928880Y-72811165D01*
X-20990955Y-71749090D01*
X-22053030Y-72811165D01*
X-25574500Y-72811165D01*
X-25574500Y-71043398D01*
X-23820797Y-71043398D01*
X-22758722Y-72105473D01*
X-21696647Y-71043398D01*
X-20285263Y-71043398D01*
X-19223188Y-72105473D01*
X-18324723Y-71207008D01*
X-18329429Y-71202990D01*
X-18329647Y-71202772D01*
X-16590353Y-71202772D01*
X-15687653Y-72105472D01*
X-14625579Y-71043398D01*
X-13214195Y-71043398D01*
X-12152120Y-72105473D01*
X-11123500Y-71076853D01*
X-11123500Y-71009943D01*
X-12152120Y-69981323D01*
X-13214195Y-71043398D01*
X-14625579Y-71043398D01*
X-15687654Y-69981323D01*
X-16159611Y-70453280D01*
X-16167075Y-70500400D01*
X-16171617Y-70519319D01*
X-16229985Y-70698958D01*
X-16237431Y-70716935D01*
X-16323183Y-70885232D01*
X-16333350Y-70901822D01*
X-16444373Y-71054633D01*
X-16457010Y-71069429D01*
X-16590353Y-71202772D01*
X-18329647Y-71202772D01*
X-18462990Y-71069429D01*
X-18475627Y-71054633D01*
X-18586650Y-70901822D01*
X-18596817Y-70885232D01*
X-18682569Y-70716935D01*
X-18690015Y-70698958D01*
X-18748383Y-70519319D01*
X-18752926Y-70500398D01*
X-18762111Y-70442398D01*
X-19223187Y-69981322D01*
X-20285263Y-71043398D01*
X-21696647Y-71043398D01*
X-22758722Y-69981323D01*
X-23820797Y-71043398D01*
X-25574500Y-71043398D01*
X-25574500Y-68263567D01*
X-24576500Y-68263567D01*
X-24576500Y-70287695D01*
X-24526489Y-70337706D01*
X-23464414Y-69275631D01*
X-22053030Y-69275631D01*
X-20990955Y-70337706D01*
X-19928880Y-69275631D01*
X-19928881Y-69275630D01*
X-18517495Y-69275630D01*
X-18462772Y-69330353D01*
X-18329429Y-69197010D01*
X-18314633Y-69184373D01*
X-18161822Y-69073350D01*
X-18145232Y-69063183D01*
X-17976935Y-68977431D01*
X-17958958Y-68969985D01*
X-17779319Y-68911617D01*
X-17760399Y-68907075D01*
X-17573840Y-68877527D01*
X-17554442Y-68876000D01*
X-17365558Y-68876000D01*
X-17346160Y-68877527D01*
X-17159601Y-68907075D01*
X-17140681Y-68911617D01*
X-16961042Y-68969985D01*
X-16943065Y-68977431D01*
X-16774768Y-69063183D01*
X-16758178Y-69073350D01*
X-16605367Y-69184373D01*
X-16590571Y-69197010D01*
X-16457010Y-69330571D01*
X-16452991Y-69335276D01*
X-16393346Y-69275631D01*
X-14981962Y-69275631D01*
X-13919887Y-70337706D01*
X-12857812Y-69275631D01*
X-13919887Y-68213556D01*
X-14981962Y-69275631D01*
X-16393346Y-69275631D01*
X-17455421Y-68213556D01*
X-18517495Y-69275630D01*
X-19928881Y-69275630D01*
X-20990955Y-68213556D01*
X-22053030Y-69275631D01*
X-23464414Y-69275631D01*
X-24526489Y-68213556D01*
X-24576500Y-68263567D01*
X-25574500Y-68263567D01*
X-25574500Y-67507864D01*
X-23820797Y-67507864D01*
X-22758722Y-68569939D01*
X-21696647Y-67507864D01*
X-20285263Y-67507864D01*
X-19223188Y-68569939D01*
X-18161113Y-67507864D01*
X-16749729Y-67507864D01*
X-15687654Y-68569939D01*
X-14625579Y-67507864D01*
X-13214195Y-67507864D01*
X-12152120Y-68569939D01*
X-11123500Y-67541319D01*
X-11123500Y-67474409D01*
X-12152120Y-66445789D01*
X-13214195Y-67507864D01*
X-14625579Y-67507864D01*
X-15687654Y-66445789D01*
X-16749729Y-67507864D01*
X-18161113Y-67507864D01*
X-19223188Y-66445789D01*
X-20285263Y-67507864D01*
X-21696647Y-67507864D01*
X-22758722Y-66445789D01*
X-23820797Y-67507864D01*
X-25574500Y-67507864D01*
X-25574500Y-64728033D01*
X-24576500Y-64728033D01*
X-24576500Y-66752161D01*
X-24526489Y-66802172D01*
X-23464414Y-65740097D01*
X-22053030Y-65740097D01*
X-20990955Y-66802172D01*
X-19928880Y-65740097D01*
X-18517496Y-65740097D01*
X-17455421Y-66802172D01*
X-16393346Y-65740097D01*
X-14981962Y-65740097D01*
X-13919887Y-66802172D01*
X-12857812Y-65740097D01*
X-13919887Y-64678022D01*
X-14981962Y-65740097D01*
X-16393346Y-65740097D01*
X-17455421Y-64678022D01*
X-18517496Y-65740097D01*
X-19928880Y-65740097D01*
X-20990955Y-64678022D01*
X-22053030Y-65740097D01*
X-23464414Y-65740097D01*
X-24526489Y-64678022D01*
X-24576500Y-64728033D01*
X-25574500Y-64728033D01*
X-25574500Y-63972330D01*
X-23820797Y-63972330D01*
X-22758722Y-65034405D01*
X-21696647Y-63972330D01*
X-20285263Y-63972330D01*
X-19223188Y-65034405D01*
X-18161113Y-63972330D01*
X-16749729Y-63972330D01*
X-15687654Y-65034405D01*
X-14625579Y-63972330D01*
X-13214195Y-63972330D01*
X-12152120Y-65034405D01*
X-11123500Y-64005785D01*
X-11123500Y-63938875D01*
X-12152120Y-62910255D01*
X-13214195Y-63972330D01*
X-14625579Y-63972330D01*
X-15687654Y-62910255D01*
X-16749729Y-63972330D01*
X-18161113Y-63972330D01*
X-19223188Y-62910255D01*
X-20285263Y-63972330D01*
X-21696647Y-63972330D01*
X-22758722Y-62910255D01*
X-23820797Y-63972330D01*
X-25574500Y-63972330D01*
X-25574500Y-61192499D01*
X-24576500Y-61192499D01*
X-24576500Y-63216627D01*
X-24526489Y-63266638D01*
X-23464414Y-62204563D01*
X-22053030Y-62204563D01*
X-20990955Y-63266638D01*
X-19928880Y-62204563D01*
X-18517496Y-62204563D01*
X-17455421Y-63266638D01*
X-16393346Y-62204563D01*
X-14981962Y-62204563D01*
X-13919887Y-63266638D01*
X-12857812Y-62204563D01*
X-13919887Y-61142488D01*
X-14981962Y-62204563D01*
X-16393346Y-62204563D01*
X-17455421Y-61142488D01*
X-18517496Y-62204563D01*
X-19928880Y-62204563D01*
X-20990955Y-61142488D01*
X-22053030Y-62204563D01*
X-23464414Y-62204563D01*
X-24526489Y-61142488D01*
X-24576500Y-61192499D01*
X-25574500Y-61192499D01*
X-25574500Y-60436796D01*
X-23820797Y-60436796D01*
X-22758722Y-61498871D01*
X-21696647Y-60436796D01*
X-20285263Y-60436796D01*
X-19223188Y-61498871D01*
X-18161113Y-60436796D01*
X-16749729Y-60436796D01*
X-15687654Y-61498871D01*
X-14625579Y-60436796D01*
X-13214195Y-60436796D01*
X-12152120Y-61498871D01*
X-11123500Y-60470251D01*
X-11123500Y-60403341D01*
X-12152120Y-59374721D01*
X-13214195Y-60436796D01*
X-14625579Y-60436796D01*
X-15687654Y-59374721D01*
X-16749729Y-60436796D01*
X-18161113Y-60436796D01*
X-19223188Y-59374721D01*
X-20285263Y-60436796D01*
X-21696647Y-60436796D01*
X-22758722Y-59374721D01*
X-23820797Y-60436796D01*
X-25574500Y-60436796D01*
X-25574500Y-57656965D01*
X-24576500Y-57656965D01*
X-24576500Y-59681093D01*
X-24526489Y-59731104D01*
X-23464414Y-58669029D01*
X-22053030Y-58669029D01*
X-20990955Y-59731104D01*
X-19928880Y-58669029D01*
X-18517496Y-58669029D01*
X-17455421Y-59731104D01*
X-16393346Y-58669029D01*
X-14981962Y-58669029D01*
X-13919887Y-59731104D01*
X-12857812Y-58669029D01*
X-13919887Y-57606954D01*
X-14981962Y-58669029D01*
X-16393346Y-58669029D01*
X-17455421Y-57606954D01*
X-18517496Y-58669029D01*
X-19928880Y-58669029D01*
X-20990955Y-57606954D01*
X-22053030Y-58669029D01*
X-23464414Y-58669029D01*
X-24526489Y-57606954D01*
X-24576500Y-57656965D01*
X-25574500Y-57656965D01*
X-25574500Y-56901262D01*
X-23820796Y-56901262D01*
X-22758722Y-57963337D01*
X-21696647Y-56901262D01*
X-20285262Y-56901262D01*
X-19223188Y-57963337D01*
X-18161113Y-56901262D01*
X-16749728Y-56901262D01*
X-15687654Y-57963337D01*
X-14625579Y-56901262D01*
X-13214194Y-56901262D01*
X-12152120Y-57963337D01*
X-11123500Y-56934717D01*
X-11123500Y-56867807D01*
X-12152119Y-55839187D01*
X-13214194Y-56901262D01*
X-14625579Y-56901262D01*
X-15687654Y-55839187D01*
X-16749728Y-56901262D01*
X-18161113Y-56901262D01*
X-19223188Y-55839187D01*
X-20285262Y-56901262D01*
X-21696647Y-56901262D01*
X-22758722Y-55839187D01*
X-23820796Y-56901262D01*
X-25574500Y-56901262D01*
X-25574500Y-54121431D01*
X-24576500Y-54121431D01*
X-24576500Y-56145559D01*
X-24526489Y-56195570D01*
X-23464414Y-55133495D01*
X-22053029Y-55133495D01*
X-20990955Y-56195570D01*
X-19928880Y-55133495D01*
X-18517495Y-55133495D01*
X-17455421Y-56195570D01*
X-16393346Y-55133495D01*
X-14981961Y-55133495D01*
X-13919887Y-56195570D01*
X-12857812Y-55133495D01*
X-13919887Y-54071420D01*
X-14981961Y-55133495D01*
X-16393346Y-55133495D01*
X-17455421Y-54071420D01*
X-18517495Y-55133495D01*
X-19928880Y-55133495D01*
X-20990955Y-54071420D01*
X-22053029Y-55133495D01*
X-23464414Y-55133495D01*
X-24526489Y-54071420D01*
X-24576500Y-54121431D01*
X-25574500Y-54121431D01*
X-25574500Y-53365728D01*
X-23820796Y-53365728D01*
X-22758722Y-54427803D01*
X-21696647Y-53365728D01*
X-20285262Y-53365728D01*
X-19223188Y-54427803D01*
X-18161113Y-53365728D01*
X-16749728Y-53365728D01*
X-15687654Y-54427803D01*
X-14625579Y-53365728D01*
X-13214194Y-53365728D01*
X-12152120Y-54427803D01*
X-11123500Y-53399183D01*
X-11123500Y-53332273D01*
X-12152119Y-52303653D01*
X-13214194Y-53365728D01*
X-14625579Y-53365728D01*
X-15687654Y-52303653D01*
X-16749728Y-53365728D01*
X-18161113Y-53365728D01*
X-19223188Y-52303653D01*
X-20285262Y-53365728D01*
X-21696647Y-53365728D01*
X-22758722Y-52303653D01*
X-23820796Y-53365728D01*
X-25574500Y-53365728D01*
X-25574500Y-50585898D01*
X-24576500Y-50585898D01*
X-24576500Y-52610025D01*
X-24526488Y-52660036D01*
X-23464414Y-51597961D01*
X-22053029Y-51597961D01*
X-20990955Y-52660036D01*
X-19928880Y-51597961D01*
X-18517495Y-51597961D01*
X-17455421Y-52660036D01*
X-16393346Y-51597961D01*
X-14981961Y-51597961D01*
X-13919887Y-52660036D01*
X-12857812Y-51597961D01*
X-13919887Y-50535887D01*
X-14981961Y-51597961D01*
X-16393346Y-51597961D01*
X-17455421Y-50535887D01*
X-18517495Y-51597961D01*
X-19928880Y-51597961D01*
X-20990955Y-50535887D01*
X-22053029Y-51597961D01*
X-23464414Y-51597961D01*
X-24526489Y-50535887D01*
X-24576500Y-50585898D01*
X-25574500Y-50585898D01*
X-25574500Y-49830194D01*
X-23820796Y-49830194D01*
X-22758722Y-50892269D01*
X-21696647Y-49830194D01*
X-20285262Y-49830194D01*
X-19223188Y-50892269D01*
X-18161113Y-49830194D01*
X-16749728Y-49830194D01*
X-15687654Y-50892269D01*
X-14625579Y-49830194D01*
X-13214194Y-49830194D01*
X-12152120Y-50892269D01*
X-11123500Y-49863649D01*
X-11123500Y-49796740D01*
X-12152120Y-48768120D01*
X-13214194Y-49830194D01*
X-14625579Y-49830194D01*
X-15687654Y-48768120D01*
X-16749728Y-49830194D01*
X-18161113Y-49830194D01*
X-19223188Y-48768120D01*
X-20285262Y-49830194D01*
X-21696647Y-49830194D01*
X-22758722Y-48768120D01*
X-23820796Y-49830194D01*
X-25574500Y-49830194D01*
X-25574500Y-47050364D01*
X-24576500Y-47050364D01*
X-24576500Y-49074492D01*
X-24526489Y-49124503D01*
X-23464414Y-48062428D01*
X-22053030Y-48062428D01*
X-20990955Y-49124503D01*
X-19928880Y-48062428D01*
X-18517496Y-48062428D01*
X-17455421Y-49124503D01*
X-16393346Y-48062428D01*
X-14981962Y-48062428D01*
X-13919887Y-49124503D01*
X-12857812Y-48062428D01*
X-13919887Y-47000353D01*
X-14981962Y-48062428D01*
X-16393346Y-48062428D01*
X-17455421Y-47000353D01*
X-18517496Y-48062428D01*
X-19928880Y-48062428D01*
X-20990955Y-47000353D01*
X-22053030Y-48062428D01*
X-23464414Y-48062428D01*
X-24526489Y-47000353D01*
X-24576500Y-47050364D01*
X-25574500Y-47050364D01*
X-25574500Y-46294661D01*
X-23820797Y-46294661D01*
X-22758722Y-47356736D01*
X-21696647Y-46294661D01*
X-20285263Y-46294661D01*
X-19223188Y-47356736D01*
X-18161113Y-46294661D01*
X-16749729Y-46294661D01*
X-15687654Y-47356736D01*
X-14625579Y-46294661D01*
X-13214195Y-46294661D01*
X-12152120Y-47356736D01*
X-11123500Y-46328116D01*
X-11123500Y-46261206D01*
X-12152120Y-45232586D01*
X-13214195Y-46294661D01*
X-14625579Y-46294661D01*
X-15687654Y-45232586D01*
X-16749729Y-46294661D01*
X-18161113Y-46294661D01*
X-19223188Y-45232586D01*
X-20285263Y-46294661D01*
X-21696647Y-46294661D01*
X-22758722Y-45232586D01*
X-23820797Y-46294661D01*
X-25574500Y-46294661D01*
X-25574500Y-43993927D01*
X-24576500Y-43993927D01*
X-24576500Y-45538958D01*
X-24526489Y-45588969D01*
X-23464414Y-44526894D01*
X-22053030Y-44526894D01*
X-20990955Y-45588969D01*
X-19928880Y-44526894D01*
X-18517496Y-44526894D01*
X-17455421Y-45588969D01*
X-16393346Y-44526894D01*
X-14981962Y-44526894D01*
X-13919887Y-45588969D01*
X-12857812Y-44526894D01*
X-13919887Y-43464819D01*
X-14981962Y-44526894D01*
X-16393346Y-44526894D01*
X-17455421Y-43464819D01*
X-18517496Y-44526894D01*
X-19928880Y-44526894D01*
X-20990955Y-43464819D01*
X-22053030Y-44526894D01*
X-23464414Y-44526894D01*
X-24526489Y-43464819D01*
X-24541474Y-43479804D01*
X-24562072Y-43645084D01*
X-24576500Y-43993927D01*
X-25574500Y-43993927D01*
X-25574500Y-43975877D01*
X-25574394Y-43970753D01*
X-25557727Y-43567731D01*
X-25556881Y-43557520D01*
X-25507315Y-43159795D01*
X-25505629Y-43149688D01*
X-25423754Y-42759127D01*
X-23820797Y-42759127D01*
X-22758722Y-43821202D01*
X-21696647Y-42759127D01*
X-20285263Y-42759127D01*
X-19223188Y-43821202D01*
X-18161113Y-42759127D01*
X-16749729Y-42759127D01*
X-15687654Y-43821202D01*
X-14625579Y-42759127D01*
X-13214195Y-42759127D01*
X-12152120Y-43821202D01*
X-11264476Y-42933558D01*
X-11339849Y-42680438D01*
X-11449385Y-42399785D01*
X-12152119Y-41697051D01*
X-13214195Y-42759127D01*
X-14625579Y-42759127D01*
X-15687654Y-41697052D01*
X-16749729Y-42759127D01*
X-18161113Y-42759127D01*
X-19223188Y-41697052D01*
X-20285263Y-42759127D01*
X-21696647Y-42759127D01*
X-22758722Y-41697052D01*
X-23820797Y-42759127D01*
X-25423754Y-42759127D01*
X-25423393Y-42757407D01*
X-25420878Y-42747474D01*
X-25306538Y-42363330D01*
X-25303212Y-42353639D01*
X-25157544Y-41980242D01*
X-25153429Y-41970858D01*
X-25019605Y-41697052D01*
X-24977426Y-41610753D01*
X-24972552Y-41601747D01*
X-24767421Y-41257410D01*
X-24761818Y-41248831D01*
X-24578036Y-40991360D01*
X-22053030Y-40991360D01*
X-20990955Y-42053435D01*
X-19928880Y-40991360D01*
X-18517496Y-40991360D01*
X-17455421Y-42053435D01*
X-16393346Y-40991360D01*
X-14981962Y-40991360D01*
X-13919887Y-42053435D01*
X-12857811Y-40991359D01*
X-13528283Y-40320887D01*
X-13810047Y-40211021D01*
X-14111855Y-40121253D01*
X-14981962Y-40991360D01*
X-16393346Y-40991360D01*
X-16393345Y-40991359D01*
X-17388904Y-39995800D01*
X-17521978Y-39995842D01*
X-18517496Y-40991360D01*
X-19928880Y-40991360D01*
X-19928879Y-40991359D01*
X-20909716Y-40010522D01*
X-20929495Y-40011346D01*
X-21093508Y-40031838D01*
X-22053030Y-40991360D01*
X-24578036Y-40991360D01*
X-24528968Y-40922617D01*
X-24522676Y-40914530D01*
X-24263670Y-40608635D01*
X-24256731Y-40601096D01*
X-23973373Y-40317648D01*
X-23965836Y-40310707D01*
X-23660029Y-40051610D01*
X-23651944Y-40045315D01*
X-23325805Y-39812362D01*
X-23317228Y-39806755D01*
X-22972941Y-39601508D01*
X-22963930Y-39596630D01*
X-22962899Y-39596126D01*
X-22603899Y-39420521D01*
X-22594518Y-39416404D01*
X-22587683Y-39413735D01*
X-22221160Y-39270615D01*
X-22211492Y-39267293D01*
X-21827357Y-39152823D01*
X-21817442Y-39150309D01*
X-21425159Y-39067944D01*
X-21415089Y-39066261D01*
X-21017351Y-39016565D01*
X-21007158Y-39015717D01*
X-20604132Y-38998923D01*
X-20599087Y-38998816D01*
X-20594304Y-38998815D01*
X-20594288Y-38998815D01*
X-20594287Y-38998814D01*
X-15104094Y-38997080D01*
X-15099050Y-38997183D01*
G37*
G04 #@! TD.AperFunction*
M02*
