G04 #@! TF.GenerationSoftware,KiCad,Pcbnew,9.0.2*
G04 #@! TF.CreationDate,2025-10-23T20:16:51-04:00*
G04 #@! TF.ProjectId,Trackball,54726163-6b62-4616-9c6c-2e6b69636164,rev?*
G04 #@! TF.SameCoordinates,Original*
G04 #@! TF.FileFunction,Soldermask,Bot*
G04 #@! TF.FilePolarity,Negative*
%FSLAX46Y46*%
G04 Gerber Fmt 4.6, Leading zero omitted, Abs format (unit mm)*
G04 Created by KiCad (PCBNEW 9.0.2) date 2025-10-23 20:16:51*
%MOMM*%
%LPD*%
G01*
G04 APERTURE LIST*
G04 APERTURE END LIST*
G36*
X-33830866Y-91828806D02*
G01*
X-33824653Y-91835018D01*
X-33823583Y-91835462D01*
X-33810462Y-91848583D01*
X-33810018Y-91849653D01*
X-33803806Y-91855866D01*
X-33800000Y-91875000D01*
X-33800000Y-103325000D01*
X-33803806Y-103344134D01*
X-33810019Y-103350347D01*
X-33810462Y-103351416D01*
X-33823583Y-103364537D01*
X-33824651Y-103364979D01*
X-33830866Y-103371194D01*
X-33850000Y-103375000D01*
X-33856143Y-103375000D01*
X-38193857Y-103375000D01*
X-38200000Y-103375000D01*
X-38219134Y-103371194D01*
X-38225349Y-103364978D01*
X-38226416Y-103364537D01*
X-38239537Y-103351416D01*
X-38239978Y-103350349D01*
X-38246194Y-103344134D01*
X-38250000Y-103325000D01*
X-38250000Y-91875000D01*
X-38246194Y-91855866D01*
X-38239979Y-91849651D01*
X-38239537Y-91848583D01*
X-38226416Y-91835462D01*
X-38225347Y-91835019D01*
X-38219134Y-91828806D01*
X-38200000Y-91825000D01*
X-33850000Y-91825000D01*
X-33830866Y-91828806D01*
G37*
G36*
X-15580866Y-91828806D02*
G01*
X-15574653Y-91835018D01*
X-15573583Y-91835462D01*
X-15560462Y-91848583D01*
X-15560018Y-91849653D01*
X-15553806Y-91855866D01*
X-15550000Y-91875000D01*
X-15550000Y-103325000D01*
X-15553806Y-103344134D01*
X-15560019Y-103350347D01*
X-15560462Y-103351416D01*
X-15573583Y-103364537D01*
X-15574651Y-103364979D01*
X-15580866Y-103371194D01*
X-15600000Y-103375000D01*
X-15606143Y-103375000D01*
X-19943857Y-103375000D01*
X-19950000Y-103375000D01*
X-19969134Y-103371194D01*
X-19975349Y-103364978D01*
X-19976416Y-103364537D01*
X-19989537Y-103351416D01*
X-19989978Y-103350349D01*
X-19996194Y-103344134D01*
X-20000000Y-103325000D01*
X-20000000Y-91875000D01*
X-19996194Y-91855866D01*
X-19989979Y-91849651D01*
X-19989537Y-91848583D01*
X-19976416Y-91835462D01*
X-19975347Y-91835019D01*
X-19969134Y-91828806D01*
X-19950000Y-91825000D01*
X-15600000Y-91825000D01*
X-15580866Y-91828806D01*
G37*
G36*
X1669134Y-91828806D02*
G01*
X1675347Y-91835019D01*
X1676416Y-91835462D01*
X1689537Y-91848583D01*
X1689979Y-91849651D01*
X1696194Y-91855866D01*
X1700000Y-91875000D01*
X1700000Y-103325000D01*
X1696194Y-103344134D01*
X1689978Y-103350349D01*
X1689537Y-103351416D01*
X1676416Y-103364537D01*
X1675349Y-103364978D01*
X1669134Y-103371194D01*
X1650000Y-103375000D01*
X1643857Y-103375000D01*
X-2693857Y-103375000D01*
X-2700000Y-103375000D01*
X-2719134Y-103371194D01*
X-2725349Y-103364978D01*
X-2726416Y-103364537D01*
X-2739537Y-103351416D01*
X-2739978Y-103350349D01*
X-2746194Y-103344134D01*
X-2750000Y-103325000D01*
X-2750000Y-91875000D01*
X-2746194Y-91855866D01*
X-2739979Y-91849651D01*
X-2739537Y-91848583D01*
X-2726416Y-91835462D01*
X-2725347Y-91835019D01*
X-2719134Y-91828806D01*
X-2700000Y-91825000D01*
X1650000Y-91825000D01*
X1669134Y-91828806D01*
G37*
G36*
X-17432692Y-79085043D02*
G01*
X-17153793Y-79148700D01*
X-16883775Y-79243183D01*
X-16626033Y-79367305D01*
X-16383810Y-79519504D01*
X-16160150Y-79697867D01*
X-15957867Y-79900150D01*
X-15779504Y-80123810D01*
X-15627305Y-80366033D01*
X-15503183Y-80623775D01*
X-15408700Y-80893793D01*
X-15345043Y-81172692D01*
X-15313013Y-81456964D01*
X-15313013Y-81743036D01*
X-15345043Y-82027308D01*
X-15408700Y-82306207D01*
X-15503183Y-82576225D01*
X-15627305Y-82833967D01*
X-15779504Y-83076190D01*
X-15957867Y-83299850D01*
X-16160150Y-83502133D01*
X-16383810Y-83680496D01*
X-16626033Y-83832695D01*
X-16883775Y-83956817D01*
X-17153793Y-84051300D01*
X-17432692Y-84114957D01*
X-17716964Y-84146987D01*
X-18003036Y-84146987D01*
X-18287308Y-84114957D01*
X-18566207Y-84051300D01*
X-18836225Y-83956817D01*
X-19093967Y-83832695D01*
X-19336190Y-83680496D01*
X-19559850Y-83502133D01*
X-19762133Y-83299850D01*
X-19940496Y-83076190D01*
X-20092695Y-82833967D01*
X-20216817Y-82576225D01*
X-20311300Y-82306207D01*
X-20374957Y-82027308D01*
X-20406987Y-81743036D01*
X-20406987Y-81456964D01*
X-20374957Y-81172692D01*
X-20311300Y-80893793D01*
X-20216817Y-80623775D01*
X-20092695Y-80366033D01*
X-19940496Y-80123810D01*
X-19762133Y-79900150D01*
X-19559850Y-79697867D01*
X-19336190Y-79519504D01*
X-19093967Y-79367305D01*
X-18836225Y-79243183D01*
X-18566207Y-79148700D01*
X-18287308Y-79085043D01*
X-18003036Y-79053013D01*
X-17716964Y-79053013D01*
X-17432692Y-79085043D01*
G37*
G36*
X-33580866Y-60003806D02*
G01*
X-33574653Y-60010018D01*
X-33573583Y-60010462D01*
X-33560462Y-60023583D01*
X-33560018Y-60024653D01*
X-33553806Y-60030866D01*
X-33550000Y-60050000D01*
X-33550000Y-71500000D01*
X-33553806Y-71519134D01*
X-33560019Y-71525347D01*
X-33560462Y-71526416D01*
X-33573583Y-71539537D01*
X-33574651Y-71539979D01*
X-33580866Y-71546194D01*
X-33600000Y-71550000D01*
X-33606143Y-71550000D01*
X-37943857Y-71550000D01*
X-37950000Y-71550000D01*
X-37969134Y-71546194D01*
X-37975349Y-71539978D01*
X-37976416Y-71539537D01*
X-37989537Y-71526416D01*
X-37989978Y-71525349D01*
X-37996194Y-71519134D01*
X-38000000Y-71500000D01*
X-38000000Y-60050000D01*
X-37996194Y-60030866D01*
X-37989979Y-60024651D01*
X-37989537Y-60023583D01*
X-37976416Y-60010462D01*
X-37975347Y-60010019D01*
X-37969134Y-60003806D01*
X-37950000Y-60000000D01*
X-33600000Y-60000000D01*
X-33580866Y-60003806D01*
G37*
G36*
X-15830866Y-60003806D02*
G01*
X-15824653Y-60010018D01*
X-15823583Y-60010462D01*
X-15810462Y-60023583D01*
X-15810018Y-60024653D01*
X-15803806Y-60030866D01*
X-15800000Y-60050000D01*
X-15800000Y-71500000D01*
X-15803806Y-71519134D01*
X-15810019Y-71525347D01*
X-15810462Y-71526416D01*
X-15823583Y-71539537D01*
X-15824651Y-71539979D01*
X-15830866Y-71546194D01*
X-15850000Y-71550000D01*
X-15856143Y-71550000D01*
X-20193857Y-71550000D01*
X-20200000Y-71550000D01*
X-20219134Y-71546194D01*
X-20225349Y-71539978D01*
X-20226416Y-71539537D01*
X-20239537Y-71526416D01*
X-20239978Y-71525349D01*
X-20246194Y-71519134D01*
X-20250000Y-71500000D01*
X-20250000Y-60050000D01*
X-20246194Y-60030866D01*
X-20239979Y-60024651D01*
X-20239537Y-60023583D01*
X-20226416Y-60010462D01*
X-20225347Y-60010019D01*
X-20219134Y-60003806D01*
X-20200000Y-60000000D01*
X-15850000Y-60000000D01*
X-15830866Y-60003806D01*
G37*
G36*
X1669134Y-60003806D02*
G01*
X1675347Y-60010019D01*
X1676416Y-60010462D01*
X1689537Y-60023583D01*
X1689979Y-60024651D01*
X1696194Y-60030866D01*
X1700000Y-60050000D01*
X1700000Y-71500000D01*
X1696194Y-71519134D01*
X1689978Y-71525349D01*
X1689537Y-71526416D01*
X1676416Y-71539537D01*
X1675349Y-71539978D01*
X1669134Y-71546194D01*
X1650000Y-71550000D01*
X1643857Y-71550000D01*
X-2693857Y-71550000D01*
X-2700000Y-71550000D01*
X-2719134Y-71546194D01*
X-2725349Y-71539978D01*
X-2726416Y-71539537D01*
X-2739537Y-71526416D01*
X-2739978Y-71525349D01*
X-2746194Y-71519134D01*
X-2750000Y-71500000D01*
X-2750000Y-60050000D01*
X-2746194Y-60030866D01*
X-2739979Y-60024651D01*
X-2739537Y-60023583D01*
X-2726416Y-60010462D01*
X-2725347Y-60010019D01*
X-2719134Y-60003806D01*
X-2700000Y-60000000D01*
X1650000Y-60000000D01*
X1669134Y-60003806D01*
G37*
M02*
