G04 #@! TF.GenerationSoftware,KiCad,Pcbnew,9.0.2*
G04 #@! TF.CreationDate,2025-10-23T20:16:50-04:00*
G04 #@! TF.ProjectId,Trackball,54726163-6b62-4616-9c6c-2e6b69636164,rev?*
G04 #@! TF.SameCoordinates,Original*
G04 #@! TF.FileFunction,Copper,L1,Top*
G04 #@! TF.FilePolarity,Positive*
%FSLAX46Y46*%
G04 Gerber Fmt 4.6, Leading zero omitted, Abs format (unit mm)*
G04 Created by KiCad (PCBNEW 9.0.2) date 2025-10-23 20:16:50*
%MOMM*%
%LPD*%
G01*
G04 APERTURE LIST*
G04 #@! TA.AperFunction,ComponentPad*
%ADD10C,5.000000*%
G04 #@! TD*
G04 #@! TA.AperFunction,ViaPad*
%ADD11C,0.800000*%
G04 #@! TD*
G04 APERTURE END LIST*
D10*
X-17860000Y-81600000D03*
D11*
X-460000Y-70000000D03*
X-260000Y-94000000D03*
X-17460000Y-93800000D03*
X-17460000Y-70200000D03*
X-35160000Y-70200000D03*
X-35260000Y-93800000D03*
G04 #@! TA.AperFunction,Conductor*
G36*
X-15099050Y-44997183D02*
G01*
X-14695789Y-45013738D01*
X-14685617Y-45014579D01*
X-14287700Y-45064061D01*
X-14277599Y-45065743D01*
X-13885116Y-45147926D01*
X-13875215Y-45150431D01*
X-13490853Y-45264752D01*
X-13481193Y-45268065D01*
X-13107601Y-45413738D01*
X-13098230Y-45417845D01*
X-12737936Y-45593883D01*
X-12728961Y-45598737D01*
X-12384440Y-45803930D01*
X-12375862Y-45809532D01*
X-12049483Y-46042468D01*
X-12041411Y-46048748D01*
X-11735373Y-46307858D01*
X-11727851Y-46314780D01*
X-11444259Y-46598282D01*
X-11437342Y-46605794D01*
X-11178134Y-46911753D01*
X-11171855Y-46919818D01*
X-10938806Y-47246137D01*
X-10933215Y-47254692D01*
X-10727924Y-47599130D01*
X-10723045Y-47608140D01*
X-10646510Y-47764662D01*
X-10546903Y-47968363D01*
X-10542787Y-47977744D01*
X-10396995Y-48351295D01*
X-10393683Y-48360940D01*
X-10279243Y-48745254D01*
X-10276728Y-48755181D01*
X-10194421Y-49147639D01*
X-10192739Y-49157725D01*
X-10144174Y-49547253D01*
X-10143132Y-49555612D01*
X-10142285Y-49565824D01*
X-10131349Y-49830194D01*
X-10125606Y-49969017D01*
X-10125500Y-49974142D01*
X-10125500Y-72891874D01*
X-10126561Y-72908059D01*
X-10139537Y-73006623D01*
X-10147915Y-73037890D01*
X-10163145Y-73074659D01*
X-10182823Y-73122167D01*
X-10199005Y-73150197D01*
X-10222910Y-73181350D01*
X-10254541Y-73222571D01*
X-10277428Y-73245458D01*
X-10314536Y-73273933D01*
X-10349800Y-73300992D01*
X-10377834Y-73317177D01*
X-10462109Y-73352084D01*
X-10493375Y-73360462D01*
X-10580208Y-73371894D01*
X-10591941Y-73373439D01*
X-10608126Y-73374500D01*
X-11591715Y-73374500D01*
X-11600000Y-73374500D01*
X-11695027Y-73374500D01*
X-11881844Y-73409423D01*
X-11946427Y-73434442D01*
X-12059057Y-73478075D01*
X-12059061Y-73478077D01*
X-12059063Y-73478078D01*
X-12220649Y-73578128D01*
X-12361100Y-73706166D01*
X-12475633Y-73857831D01*
X-12518339Y-73943597D01*
X-12560341Y-74027948D01*
X-12560347Y-74027960D01*
X-12612357Y-74210758D01*
X-12629893Y-74400000D01*
X-12612357Y-74589242D01*
X-12560347Y-74772040D01*
X-12475633Y-74942169D01*
X-12361100Y-75093834D01*
X-12220649Y-75221872D01*
X-12059063Y-75321922D01*
X-11881844Y-75390577D01*
X-11695027Y-75425500D01*
X-11610562Y-75425500D01*
X-10608285Y-75425500D01*
X-10608126Y-75425500D01*
X-10591940Y-75426561D01*
X-10493375Y-75439537D01*
X-10462109Y-75447915D01*
X-10451696Y-75452228D01*
X-10377828Y-75482825D01*
X-10349805Y-75499003D01*
X-10277433Y-75554537D01*
X-10277428Y-75554541D01*
X-10254543Y-75577426D01*
X-10199003Y-75649805D01*
X-10182825Y-75677828D01*
X-10163146Y-75725338D01*
X-10147915Y-75762109D01*
X-10139537Y-75793376D01*
X-10126561Y-75891940D01*
X-10125500Y-75908125D01*
X-10125500Y-76391874D01*
X-10126561Y-76408059D01*
X-10139537Y-76506623D01*
X-10147915Y-76537890D01*
X-10157580Y-76561224D01*
X-10182823Y-76622167D01*
X-10199005Y-76650197D01*
X-10221863Y-76679985D01*
X-10254541Y-76722571D01*
X-10277428Y-76745458D01*
X-10314536Y-76773933D01*
X-10349800Y-76800992D01*
X-10377834Y-76817177D01*
X-10462109Y-76852084D01*
X-10493375Y-76860462D01*
X-10574987Y-76871207D01*
X-10591941Y-76873439D01*
X-10608126Y-76874500D01*
X-14460193Y-76874500D01*
X-14527232Y-76854815D01*
X-14561434Y-76817540D01*
X-14563529Y-76818941D01*
X-14567124Y-76813563D01*
X-14567126Y-76813559D01*
X-14619300Y-76735519D01*
X-14659256Y-76675753D01*
X-14777838Y-76559934D01*
X-14777842Y-76559930D01*
X-14917767Y-76471080D01*
X-14917781Y-76471073D01*
X-15073028Y-76413012D01*
X-15073034Y-76413011D01*
X-15236935Y-76388238D01*
X-15236936Y-76388238D01*
X-15402422Y-76397823D01*
X-15562364Y-76441353D01*
X-15562365Y-76441353D01*
X-15562366Y-76441354D01*
X-15709884Y-76516957D01*
X-15709885Y-76516958D01*
X-15838624Y-76621375D01*
X-15886161Y-76679985D01*
X-15943043Y-76750116D01*
X-16018646Y-76897634D01*
X-16062177Y-77057578D01*
X-16071762Y-77223064D01*
X-16046989Y-77386965D01*
X-16046987Y-77386969D01*
X-16046987Y-77386971D01*
X-16038833Y-77408773D01*
X-15988924Y-77542225D01*
X-15900067Y-77682160D01*
X-15794881Y-77789854D01*
X-15786614Y-77798319D01*
X-15784244Y-77800745D01*
X-15646441Y-77892874D01*
X-15646436Y-77892875D01*
X-15641059Y-77896471D01*
X-15642595Y-77898769D01*
X-15601179Y-77938915D01*
X-15587014Y-77984490D01*
X-15586440Y-77984389D01*
X-15585645Y-77988897D01*
X-15585542Y-77989229D01*
X-15585500Y-77989707D01*
X-15585500Y-77989720D01*
X-15554341Y-78166433D01*
X-15492969Y-78335051D01*
X-15403249Y-78490450D01*
X-15287908Y-78627908D01*
X-15150450Y-78743249D01*
X-14995051Y-78832969D01*
X-14826433Y-78894341D01*
X-14649720Y-78925500D01*
X-14649718Y-78925500D01*
X-3734190Y-78925500D01*
X-3734188Y-78925500D01*
X-3557475Y-78894341D01*
X-3388857Y-78832969D01*
X-3388854Y-78832967D01*
X-3388853Y-78832967D01*
X-3388852Y-78832966D01*
X-3233464Y-78743253D01*
X-3233461Y-78743251D01*
X-3233458Y-78743249D01*
X-3232397Y-78742359D01*
X-1979699Y-78742359D01*
X-1545517Y-79176540D01*
X-483442Y-78114465D01*
X-1311218Y-77286689D01*
X-1311668Y-77295977D01*
X-1312148Y-77302419D01*
X-1316068Y-77341316D01*
X-1316883Y-77347727D01*
X-1350107Y-77563803D01*
X-1351255Y-77570161D01*
X-1359201Y-77608439D01*
X-1360679Y-77614729D01*
X-1373892Y-77665047D01*
X-1375695Y-77671252D01*
X-1387578Y-77708489D01*
X-1389702Y-77714589D01*
X-1466919Y-77919112D01*
X-1469357Y-77925094D01*
X-1485053Y-77960903D01*
X-1487801Y-77966754D01*
X-1511141Y-78013249D01*
X-1514188Y-78018944D01*
X-1533516Y-78052911D01*
X-1536856Y-78058440D01*
X-1654724Y-78242561D01*
X-1658350Y-78247913D01*
X-1681125Y-78279709D01*
X-1685024Y-78284862D01*
X-1717482Y-78325522D01*
X-1721642Y-78330464D01*
X-1747575Y-78359689D01*
X-1751986Y-78364406D01*
X-1890900Y-78505426D01*
X-1960574Y-78696850D01*
X-1962534Y-78701889D01*
X-1975054Y-78732117D01*
X-1977232Y-78737068D01*
X-1979699Y-78742359D01*
X-3232397Y-78742359D01*
X-3096000Y-78627908D01*
X-2980659Y-78490450D01*
X-2980657Y-78490446D01*
X-2980654Y-78490443D01*
X-2890941Y-78335055D01*
X-2890940Y-78335054D01*
X-2829566Y-78166432D01*
X-2797468Y-77984389D01*
X-2796377Y-77984581D01*
X-2772956Y-77924716D01*
X-2741402Y-77898344D01*
X-2742462Y-77896744D01*
X-2737056Y-77893167D01*
X-2737055Y-77893167D01*
X-2598123Y-77801248D01*
X-2481218Y-77682570D01*
X-2480955Y-77682160D01*
X-2437788Y-77614729D01*
X-2391402Y-77542270D01*
X-2391398Y-77542260D01*
X-2332562Y-77386422D01*
X-2307244Y-77221764D01*
X-2316547Y-77055443D01*
X-2351590Y-76925963D01*
X-2360068Y-76894639D01*
X-2360068Y-76894638D01*
X-2360069Y-76894636D01*
X-2435918Y-76746326D01*
X-2436297Y-76745859D01*
X-2540822Y-76616914D01*
X-2670231Y-76512012D01*
X-2670232Y-76512011D01*
X-2670234Y-76512010D01*
X-2818544Y-76436161D01*
X-2818546Y-76436160D01*
X-2818547Y-76436160D01*
X-2898948Y-76414400D01*
X-2979352Y-76392639D01*
X-2979350Y-76392639D01*
X-3145672Y-76383336D01*
X-3310330Y-76408654D01*
X-3466168Y-76467490D01*
X-3466169Y-76467490D01*
X-3466178Y-76467494D01*
X-3552586Y-76522810D01*
X-3606474Y-76557307D01*
X-3606475Y-76557308D01*
X-3606478Y-76557310D01*
X-3725156Y-76674215D01*
X-3817042Y-76813097D01*
X-3820652Y-76818554D01*
X-3823095Y-76816937D01*
X-3862673Y-76858126D01*
X-3924258Y-76874500D01*
X-7455783Y-76874500D01*
X-7471967Y-76873439D01*
X-7488922Y-76871207D01*
X-7570533Y-76860462D01*
X-7601799Y-76852084D01*
X-7686074Y-76817177D01*
X-7714110Y-76800991D01*
X-7786480Y-76745458D01*
X-7809367Y-76722571D01*
X-7864900Y-76650201D01*
X-7881086Y-76622165D01*
X-7915993Y-76537890D01*
X-7924371Y-76506624D01*
X-7936374Y-76415455D01*
X-7937348Y-76408058D01*
X-7938409Y-76391874D01*
X-7938409Y-76346699D01*
X-839826Y-76346699D01*
X222248Y-77408773D01*
X597846Y-77033175D01*
X623002Y-76848191D01*
X624087Y-76841559D01*
X631740Y-76801628D01*
X633184Y-76795065D01*
X646231Y-76742560D01*
X648026Y-76736088D01*
X659948Y-76697235D01*
X662092Y-76690869D01*
X739759Y-76479351D01*
X742245Y-76473108D01*
X758305Y-76435760D01*
X761125Y-76429663D01*
X785157Y-76381192D01*
X788303Y-76375256D01*
X808304Y-76339871D01*
X811767Y-76334114D01*
X933107Y-76144244D01*
X936879Y-76138681D01*
X960598Y-76105657D01*
X964664Y-76100308D01*
X997313Y-76059689D01*
X222248Y-75284624D01*
X-839826Y-76346699D01*
X-7938409Y-76346699D01*
X-7938409Y-75908125D01*
X-7937348Y-75891939D01*
X-7924371Y-75793375D01*
X-7915993Y-75762109D01*
X-7881086Y-75677834D01*
X-7864900Y-75649798D01*
X-7864897Y-75649795D01*
X-7840996Y-75618646D01*
X-7809367Y-75577428D01*
X-7786480Y-75554541D01*
X-7749365Y-75526061D01*
X-7714106Y-75499005D01*
X-7686077Y-75482823D01*
X-7646558Y-75466454D01*
X-7601799Y-75447915D01*
X-7570532Y-75439537D01*
X-7471968Y-75426561D01*
X-7455783Y-75425500D01*
X-6368884Y-75425500D01*
X-6368882Y-75425500D01*
X-6182065Y-75390577D01*
X-6004846Y-75321922D01*
X-5843260Y-75221872D01*
X-5702809Y-75093834D01*
X-5588276Y-74942169D01*
X-5537490Y-74840177D01*
X-5503562Y-74772042D01*
X-5451551Y-74589239D01*
X-5450596Y-74578932D01*
X-2607593Y-74578932D01*
X-1545518Y-75641007D01*
X-483443Y-74578932D01*
X927941Y-74578932D01*
X1843590Y-75494581D01*
X1866962Y-75486000D01*
X1873327Y-75483856D01*
X1912180Y-75471934D01*
X1918652Y-75470139D01*
X1971157Y-75457092D01*
X1977720Y-75455648D01*
X2017651Y-75447995D01*
X2024283Y-75446910D01*
X2209267Y-75421754D01*
X3052090Y-74578931D01*
X1990015Y-73516857D01*
X927941Y-74578932D01*
X-483443Y-74578932D01*
X-1545518Y-73516857D01*
X-2607593Y-74578932D01*
X-5450596Y-74578932D01*
X-5434016Y-74400000D01*
X-5434016Y-74399999D01*
X-5451551Y-74210760D01*
X-5503562Y-74027957D01*
X-5588276Y-73857830D01*
X-5702810Y-73706164D01*
X-5843258Y-73578129D01*
X-6004847Y-73478077D01*
X-6004851Y-73478075D01*
X-6134731Y-73427760D01*
X-6182065Y-73409423D01*
X-6368882Y-73374500D01*
X-6368884Y-73374500D01*
X-7455783Y-73374500D01*
X-7471967Y-73373439D01*
X-7482153Y-73372098D01*
X-7570533Y-73360462D01*
X-7601799Y-73352084D01*
X-7686074Y-73317177D01*
X-7714110Y-73300991D01*
X-7786480Y-73245458D01*
X-7809367Y-73222571D01*
X-7864900Y-73150201D01*
X-7881086Y-73122165D01*
X-7915993Y-73037890D01*
X-7924371Y-73006624D01*
X-7937347Y-72908067D01*
X-7938408Y-72891881D01*
X-7938408Y-72811165D01*
X-4375360Y-72811165D01*
X-3313285Y-73873240D01*
X-2251210Y-72811165D01*
X-839826Y-72811165D01*
X222248Y-73873239D01*
X1284323Y-72811165D01*
X2695708Y-72811165D01*
X3757782Y-73873239D01*
X4336412Y-73294608D01*
X4346801Y-73279445D01*
X4350143Y-73274800D01*
X4492467Y-73086333D01*
X4496023Y-73081844D01*
X4518160Y-73055185D01*
X4521920Y-73050864D01*
X4552991Y-73016780D01*
X4556948Y-73012636D01*
X4581457Y-72988127D01*
X4585600Y-72984171D01*
X4760134Y-72825062D01*
X4764454Y-72821302D01*
X4791111Y-72799166D01*
X4795600Y-72795610D01*
X4800557Y-72791865D01*
X3757782Y-71749090D01*
X2695708Y-72811165D01*
X1284323Y-72811165D01*
X222248Y-71749090D01*
X-839826Y-72811165D01*
X-2251210Y-72811165D01*
X-3313285Y-71749090D01*
X-4375360Y-72811165D01*
X-7938408Y-72811165D01*
X-7938408Y-71043398D01*
X-6143127Y-71043398D01*
X-5081052Y-72105473D01*
X-4018977Y-71043398D01*
X-2607593Y-71043398D01*
X-1545518Y-72105473D01*
X-736720Y-71296675D01*
X-760399Y-71292925D01*
X-779319Y-71288383D01*
X-958958Y-71230015D01*
X-976935Y-71222569D01*
X-1145232Y-71136817D01*
X-1161822Y-71126650D01*
X-1276409Y-71043398D01*
X927941Y-71043398D01*
X1990015Y-72105472D01*
X3052090Y-71043398D01*
X4463474Y-71043398D01*
X5525549Y-72105472D01*
X6512592Y-71118430D01*
X6512592Y-70968366D01*
X5525549Y-69981323D01*
X4463474Y-71043398D01*
X3052090Y-71043398D01*
X1990015Y-69981323D01*
X927941Y-71043398D01*
X-1276409Y-71043398D01*
X-1314633Y-71015627D01*
X-1329429Y-71002990D01*
X-1462990Y-70869429D01*
X-1475627Y-70854633D01*
X-1586650Y-70701822D01*
X-1596817Y-70685232D01*
X-1682569Y-70516935D01*
X-1690015Y-70498958D01*
X-1748383Y-70319319D01*
X-1752925Y-70300399D01*
X-1768193Y-70203998D01*
X-2607593Y-71043398D01*
X-4018977Y-71043398D01*
X-5081052Y-69981323D01*
X-6143127Y-71043398D01*
X-7938408Y-71043398D01*
X-7938408Y-68305145D01*
X-6940408Y-68305145D01*
X-6940408Y-70246117D01*
X-6848819Y-70337706D01*
X-5786744Y-69275631D01*
X-4375360Y-69275631D01*
X-3313285Y-70337706D01*
X-2251210Y-69275631D01*
X-2835035Y-68691806D01*
X-256001Y-68691806D01*
X-159601Y-68707075D01*
X-140681Y-68711617D01*
X38958Y-68769985D01*
X56935Y-68777431D01*
X225232Y-68863183D01*
X241822Y-68873350D01*
X394633Y-68984373D01*
X409429Y-68997010D01*
X542990Y-69130571D01*
X555627Y-69145367D01*
X666650Y-69298178D01*
X676817Y-69314768D01*
X762569Y-69483065D01*
X770015Y-69501042D01*
X828383Y-69680681D01*
X832925Y-69699601D01*
X836675Y-69723278D01*
X1284322Y-69275631D01*
X2695708Y-69275631D01*
X3757782Y-70337705D01*
X4819857Y-69275631D01*
X3757782Y-68213556D01*
X2695708Y-69275631D01*
X1284322Y-69275631D01*
X1284323Y-69275630D01*
X222248Y-68213556D01*
X-256001Y-68691806D01*
X-2835035Y-68691806D01*
X-3313285Y-68213556D01*
X-4375360Y-69275631D01*
X-5786744Y-69275631D01*
X-6848819Y-68213556D01*
X-6940408Y-68305145D01*
X-7938408Y-68305145D01*
X-7938408Y-67507864D01*
X-6143127Y-67507864D01*
X-5081052Y-68569939D01*
X-4018977Y-67507864D01*
X-2607593Y-67507864D01*
X-1545518Y-68569939D01*
X-483443Y-67507864D01*
X927941Y-67507864D01*
X1990015Y-68569938D01*
X3052090Y-67507864D01*
X4463474Y-67507864D01*
X5525549Y-68569938D01*
X6512592Y-67582896D01*
X6512592Y-67432832D01*
X5525549Y-66445789D01*
X4463474Y-67507864D01*
X3052090Y-67507864D01*
X1990015Y-66445789D01*
X927941Y-67507864D01*
X-483443Y-67507864D01*
X-1545518Y-66445789D01*
X-2607593Y-67507864D01*
X-4018977Y-67507864D01*
X-5081052Y-66445789D01*
X-6143127Y-67507864D01*
X-7938408Y-67507864D01*
X-7938408Y-64769611D01*
X-6940408Y-64769611D01*
X-6940408Y-66710583D01*
X-6848819Y-66802172D01*
X-5786744Y-65740097D01*
X-4375360Y-65740097D01*
X-3313285Y-66802172D01*
X-2251210Y-65740097D01*
X-839826Y-65740097D01*
X222248Y-66802171D01*
X1284323Y-65740097D01*
X2695708Y-65740097D01*
X3757782Y-66802171D01*
X4819857Y-65740097D01*
X3757782Y-64678022D01*
X2695708Y-65740097D01*
X1284323Y-65740097D01*
X222248Y-64678022D01*
X-839826Y-65740097D01*
X-2251210Y-65740097D01*
X-3313285Y-64678022D01*
X-4375360Y-65740097D01*
X-5786744Y-65740097D01*
X-6848819Y-64678022D01*
X-6940408Y-64769611D01*
X-7938408Y-64769611D01*
X-7938408Y-63972330D01*
X-6143127Y-63972330D01*
X-5081052Y-65034405D01*
X-4018977Y-63972330D01*
X-2607593Y-63972330D01*
X-1545518Y-65034405D01*
X-483443Y-63972330D01*
X927941Y-63972330D01*
X1990015Y-65034404D01*
X3052090Y-63972330D01*
X4463474Y-63972330D01*
X5525549Y-65034404D01*
X6512592Y-64047362D01*
X6512592Y-63897298D01*
X5525549Y-62910255D01*
X4463474Y-63972330D01*
X3052090Y-63972330D01*
X1990015Y-62910255D01*
X927941Y-63972330D01*
X-483443Y-63972330D01*
X-1545518Y-62910255D01*
X-2607593Y-63972330D01*
X-4018977Y-63972330D01*
X-5081052Y-62910255D01*
X-6143127Y-63972330D01*
X-7938408Y-63972330D01*
X-7938408Y-61234077D01*
X-6940408Y-61234077D01*
X-6940408Y-63175049D01*
X-6848819Y-63266638D01*
X-5786744Y-62204563D01*
X-4375360Y-62204563D01*
X-3313285Y-63266638D01*
X-2251210Y-62204563D01*
X-839826Y-62204563D01*
X222248Y-63266637D01*
X1284323Y-62204563D01*
X2695708Y-62204563D01*
X3757782Y-63266637D01*
X4819857Y-62204563D01*
X3757782Y-61142488D01*
X2695708Y-62204563D01*
X1284323Y-62204563D01*
X222248Y-61142488D01*
X-839826Y-62204563D01*
X-2251210Y-62204563D01*
X-3313285Y-61142488D01*
X-4375360Y-62204563D01*
X-5786744Y-62204563D01*
X-6848819Y-61142488D01*
X-6940408Y-61234077D01*
X-7938408Y-61234077D01*
X-7938408Y-60436796D01*
X-6143127Y-60436796D01*
X-5081052Y-61498871D01*
X-4018977Y-60436796D01*
X-2607593Y-60436796D01*
X-1545518Y-61498871D01*
X-483443Y-60436796D01*
X927941Y-60436796D01*
X1990015Y-61498870D01*
X3052090Y-60436796D01*
X4463474Y-60436796D01*
X5525549Y-61498870D01*
X6512592Y-60511828D01*
X6512592Y-60361764D01*
X5525549Y-59374721D01*
X4463474Y-60436796D01*
X3052090Y-60436796D01*
X1990015Y-59374721D01*
X927941Y-60436796D01*
X-483443Y-60436796D01*
X-1545518Y-59374721D01*
X-2607593Y-60436796D01*
X-4018977Y-60436796D01*
X-5081052Y-59374721D01*
X-6143127Y-60436796D01*
X-7938408Y-60436796D01*
X-7938408Y-57698543D01*
X-6940408Y-57698543D01*
X-6940408Y-59639515D01*
X-6848819Y-59731104D01*
X-5786744Y-58669029D01*
X-4375360Y-58669029D01*
X-3313285Y-59731104D01*
X-2251210Y-58669029D01*
X-839826Y-58669029D01*
X222248Y-59731103D01*
X1284323Y-58669029D01*
X2695708Y-58669029D01*
X3757782Y-59731103D01*
X4819857Y-58669029D01*
X3757782Y-57606954D01*
X2695708Y-58669029D01*
X1284323Y-58669029D01*
X222248Y-57606954D01*
X-839826Y-58669029D01*
X-2251210Y-58669029D01*
X-3313285Y-57606954D01*
X-4375360Y-58669029D01*
X-5786744Y-58669029D01*
X-6848819Y-57606954D01*
X-6940408Y-57698543D01*
X-7938408Y-57698543D01*
X-7938408Y-56901262D01*
X-6143126Y-56901262D01*
X-5081052Y-57963337D01*
X-4018977Y-56901262D01*
X-2607592Y-56901262D01*
X-1545518Y-57963337D01*
X-483443Y-56901262D01*
X927941Y-56901262D01*
X1990015Y-57963336D01*
X3052090Y-56901262D01*
X4463474Y-56901262D01*
X5525549Y-57963336D01*
X6512592Y-56976294D01*
X6512592Y-56826230D01*
X5525549Y-55839187D01*
X4463474Y-56901262D01*
X3052090Y-56901262D01*
X1990015Y-55839187D01*
X927941Y-56901262D01*
X-483443Y-56901262D01*
X-1545518Y-55839187D01*
X-2607592Y-56901262D01*
X-4018977Y-56901262D01*
X-5081052Y-55839187D01*
X-6143126Y-56901262D01*
X-7938408Y-56901262D01*
X-7938408Y-54163009D01*
X-6940408Y-54163009D01*
X-6940408Y-56103981D01*
X-6848819Y-56195570D01*
X-5786744Y-55133495D01*
X-4375359Y-55133495D01*
X-3313285Y-56195570D01*
X-2251210Y-55133495D01*
X-839825Y-55133495D01*
X222248Y-56195569D01*
X1284323Y-55133495D01*
X2695708Y-55133495D01*
X3757782Y-56195569D01*
X4819857Y-55133495D01*
X3757782Y-54071420D01*
X2695708Y-55133495D01*
X1284323Y-55133495D01*
X222248Y-54071420D01*
X-839825Y-55133495D01*
X-2251210Y-55133495D01*
X-3313285Y-54071420D01*
X-4375359Y-55133495D01*
X-5786744Y-55133495D01*
X-6848819Y-54071420D01*
X-6940408Y-54163009D01*
X-7938408Y-54163009D01*
X-7938408Y-53975877D01*
X-7938302Y-53970753D01*
X-7921635Y-53567731D01*
X-7920789Y-53557520D01*
X-7896887Y-53365728D01*
X-6143126Y-53365728D01*
X-5081052Y-54427803D01*
X-4018977Y-53365728D01*
X-2607592Y-53365728D01*
X-1545518Y-54427803D01*
X-483443Y-53365728D01*
X927941Y-53365728D01*
X1990015Y-54427802D01*
X3052090Y-53365728D01*
X4463474Y-53365728D01*
X5525548Y-54427802D01*
X6477310Y-53476040D01*
X6457493Y-53317091D01*
X6435866Y-53213970D01*
X5525549Y-52303653D01*
X4463474Y-53365728D01*
X3052090Y-53365728D01*
X1990015Y-52303653D01*
X927941Y-53365728D01*
X-483443Y-53365728D01*
X-1545518Y-52303653D01*
X-2607592Y-53365728D01*
X-4018977Y-53365728D01*
X-5081052Y-52303653D01*
X-6143126Y-53365728D01*
X-7896887Y-53365728D01*
X-7871223Y-53159795D01*
X-7869537Y-53149688D01*
X-7787301Y-52757407D01*
X-7784786Y-52747474D01*
X-7670446Y-52363330D01*
X-7667120Y-52353639D01*
X-7521452Y-51980242D01*
X-7517337Y-51970858D01*
X-7341337Y-51610759D01*
X-7336460Y-51601747D01*
X-7334205Y-51597961D01*
X-4375359Y-51597961D01*
X-3313285Y-52660036D01*
X-2251210Y-51597961D01*
X-839825Y-51597961D01*
X222248Y-52660036D01*
X1284323Y-51597961D01*
X2695708Y-51597961D01*
X3757782Y-52660036D01*
X4819857Y-51597961D01*
X3757782Y-50535887D01*
X2695708Y-51597961D01*
X1284323Y-51597961D01*
X222248Y-50535887D01*
X-839825Y-51597961D01*
X-2251210Y-51597961D01*
X-3313285Y-50535887D01*
X-4375359Y-51597961D01*
X-7334205Y-51597961D01*
X-7131329Y-51257410D01*
X-7125726Y-51248831D01*
X-6892876Y-50922617D01*
X-6886584Y-50914530D01*
X-6627578Y-50608635D01*
X-6620639Y-50601096D01*
X-6337281Y-50317648D01*
X-6329744Y-50310707D01*
X-6327135Y-50308497D01*
X-6176840Y-50181158D01*
X-6023937Y-50051610D01*
X-6015852Y-50045315D01*
X-5947719Y-49996649D01*
X-2441137Y-49996649D01*
X-1545517Y-50892269D01*
X-649331Y-49996083D01*
X-2441137Y-49996649D01*
X-5947719Y-49996649D01*
X-5946157Y-49995533D01*
X1093279Y-49995533D01*
X1990015Y-50892268D01*
X2871803Y-50010480D01*
X2863230Y-50009414D01*
X2514184Y-49995084D01*
X1093279Y-49995533D01*
X-5946157Y-49995533D01*
X-5689713Y-49812362D01*
X-5681136Y-49806755D01*
X-5336849Y-49601508D01*
X-5327838Y-49596630D01*
X-5326809Y-49596127D01*
X-4967807Y-49420521D01*
X-4958426Y-49416404D01*
X-4585068Y-49270615D01*
X-4575400Y-49267293D01*
X-4191265Y-49152823D01*
X-4181350Y-49150309D01*
X-3789067Y-49067944D01*
X-3778997Y-49066261D01*
X-3381259Y-49016565D01*
X-3371066Y-49015717D01*
X-2968040Y-48998923D01*
X-2962995Y-48998816D01*
X-2958212Y-48998815D01*
X-2958196Y-48998815D01*
X-2958195Y-48998814D01*
X2531995Y-48997080D01*
X2537041Y-48997183D01*
X2940300Y-49013738D01*
X2950475Y-49014579D01*
X3348398Y-49064063D01*
X3358481Y-49065742D01*
X3749543Y-49147627D01*
X3750957Y-49147923D01*
X3760894Y-49150437D01*
X3775244Y-49154705D01*
X4145229Y-49264750D01*
X4154904Y-49268069D01*
X4368342Y-49351294D01*
X4528481Y-49413736D01*
X4537869Y-49417851D01*
X4898145Y-49593879D01*
X4907140Y-49598744D01*
X4992031Y-49649304D01*
X5251650Y-49803931D01*
X5260232Y-49809536D01*
X5586597Y-50042461D01*
X5594688Y-50048756D01*
X5900718Y-50307859D01*
X5908238Y-50314780D01*
X5969984Y-50376506D01*
X6191817Y-50598269D01*
X6198761Y-50605810D01*
X6457946Y-50911742D01*
X6464243Y-50919830D01*
X6697274Y-51246124D01*
X6702882Y-51254705D01*
X6908165Y-51599131D01*
X6913045Y-51608145D01*
X7089186Y-51968364D01*
X7093304Y-51977751D01*
X7239086Y-52351271D01*
X7242415Y-52360967D01*
X7356846Y-52745255D01*
X7359363Y-52755191D01*
X7441665Y-53147627D01*
X7443352Y-53157738D01*
X7492957Y-53555612D01*
X7493804Y-53565828D01*
X7510486Y-53969069D01*
X7510592Y-53974194D01*
X7510592Y-72891874D01*
X7509531Y-72908059D01*
X7496555Y-73006622D01*
X7488177Y-73037889D01*
X7468111Y-73086333D01*
X7453268Y-73122167D01*
X7437082Y-73150200D01*
X7381552Y-73222567D01*
X7358663Y-73245456D01*
X7286295Y-73300985D01*
X7258260Y-73317171D01*
X7173981Y-73352079D01*
X7142714Y-73360456D01*
X7053510Y-73372199D01*
X7044090Y-73373439D01*
X7027908Y-73374500D01*
X6044377Y-73374500D01*
X6036092Y-73374500D01*
X5941065Y-73374500D01*
X5754248Y-73409422D01*
X5754245Y-73409422D01*
X5754245Y-73409423D01*
X5577030Y-73478075D01*
X5577029Y-73478076D01*
X5415440Y-73578128D01*
X5274992Y-73706162D01*
X5160459Y-73857828D01*
X5160454Y-73857836D01*
X5075748Y-74027948D01*
X5075743Y-74027961D01*
X5023732Y-74210758D01*
X5006197Y-74399999D01*
X5006197Y-74400000D01*
X5023732Y-74589241D01*
X5023733Y-74589243D01*
X5075744Y-74772041D01*
X5075744Y-74772042D01*
X5075748Y-74772051D01*
X5160454Y-74942163D01*
X5160459Y-74942171D01*
X5274992Y-75093837D01*
X5395817Y-75203982D01*
X5415442Y-75221873D01*
X5577028Y-75321923D01*
X5577029Y-75321923D01*
X5577030Y-75321924D01*
X5614573Y-75336468D01*
X5754248Y-75390578D01*
X5941065Y-75425500D01*
X6025530Y-75425500D01*
X7027807Y-75425500D01*
X7027968Y-75425500D01*
X7044151Y-75426560D01*
X7142718Y-75439536D01*
X7173984Y-75447913D01*
X7258264Y-75482821D01*
X7286298Y-75499006D01*
X7358669Y-75554538D01*
X7381553Y-75577421D01*
X7437089Y-75649795D01*
X7453274Y-75677829D01*
X7488183Y-75762107D01*
X7496561Y-75793373D01*
X7507226Y-75874373D01*
X7509209Y-75889438D01*
X7509531Y-75891879D01*
X7510592Y-75908066D01*
X7510592Y-76391874D01*
X7509531Y-76408059D01*
X7496555Y-76506622D01*
X7488177Y-76537889D01*
X7475998Y-76567292D01*
X7453268Y-76622167D01*
X7437082Y-76650200D01*
X7381552Y-76722567D01*
X7358663Y-76745456D01*
X7286295Y-76800985D01*
X7258260Y-76817171D01*
X7173981Y-76852079D01*
X7142714Y-76860456D01*
X7061047Y-76871207D01*
X7044090Y-76873439D01*
X7027908Y-76874500D01*
X3173836Y-76874500D01*
X3106797Y-76854815D01*
X3070365Y-76816235D01*
X3069668Y-76816736D01*
X3065971Y-76811582D01*
X3065854Y-76811458D01*
X3065749Y-76811273D01*
X3065749Y-76811272D01*
X2965950Y-76672136D01*
X2842670Y-76561405D01*
X2838563Y-76557716D01*
X2704436Y-76481796D01*
X2689554Y-76473372D01*
X2689553Y-76473371D01*
X2689552Y-76473371D01*
X2553310Y-76431475D01*
X2525891Y-76423044D01*
X2355234Y-76409090D01*
X2185570Y-76432162D01*
X2024840Y-76491180D01*
X2024835Y-76491183D01*
X1880553Y-76583389D01*
X1759481Y-76704461D01*
X1667275Y-76848743D01*
X1667272Y-76848748D01*
X1608254Y-77009478D01*
X1597034Y-77091988D01*
X1585182Y-77179142D01*
X1599136Y-77349799D01*
X1599137Y-77349802D01*
X1619690Y-77416641D01*
X1649464Y-77513462D01*
X1665773Y-77542275D01*
X1733808Y-77662471D01*
X1751906Y-77682620D01*
X1848228Y-77789858D01*
X1939892Y-77855606D01*
X1987058Y-77889438D01*
X1987364Y-77889657D01*
X1987368Y-77889658D01*
X1987536Y-77889754D01*
X1987623Y-77889843D01*
X1992828Y-77893577D01*
X1992159Y-77894508D01*
X2036245Y-77939846D01*
X2050592Y-77997744D01*
X2050592Y-85300709D01*
X2030907Y-85367748D01*
X1991092Y-85404813D01*
X1991660Y-85405628D01*
X1843626Y-85508738D01*
X1843626Y-85508739D01*
X1726035Y-85636514D01*
X1638930Y-85786743D01*
X1638930Y-85786744D01*
X1586458Y-85952272D01*
X1586458Y-85952273D01*
X1571110Y-86125246D01*
X1593618Y-86297434D01*
X1634787Y-86410760D01*
X1652910Y-86460647D01*
X1746167Y-86607132D01*
X1868957Y-86729922D01*
X1919512Y-86762107D01*
X2014444Y-86822545D01*
X2015442Y-86823180D01*
X2147132Y-86871019D01*
X2176878Y-86881825D01*
X2178657Y-86882471D01*
X2350843Y-86904979D01*
X2523815Y-86889631D01*
X2689348Y-86837159D01*
X2839574Y-86750056D01*
X2967350Y-86632463D01*
X3066602Y-86489972D01*
X3066603Y-86489968D01*
X3070460Y-86484432D01*
X3071480Y-86485143D01*
X3115941Y-86440674D01*
X3175379Y-86425500D01*
X7027807Y-86425500D01*
X7027968Y-86425500D01*
X7044151Y-86426560D01*
X7142718Y-86439536D01*
X7173983Y-86447912D01*
X7204368Y-86460498D01*
X7258264Y-86482821D01*
X7286298Y-86499006D01*
X7358669Y-86554538D01*
X7381553Y-86577421D01*
X7437089Y-86649795D01*
X7453274Y-86677829D01*
X7488183Y-86762107D01*
X7496561Y-86793373D01*
X7505973Y-86864857D01*
X7509209Y-86889438D01*
X7509531Y-86891879D01*
X7510592Y-86908066D01*
X7510592Y-87391874D01*
X7509531Y-87408059D01*
X7496555Y-87506622D01*
X7488177Y-87537891D01*
X7453268Y-87622167D01*
X7437082Y-87650200D01*
X7381552Y-87722567D01*
X7358663Y-87745456D01*
X7286295Y-87800985D01*
X7258260Y-87817171D01*
X7173981Y-87852079D01*
X7142714Y-87860456D01*
X7053510Y-87872199D01*
X7044090Y-87873439D01*
X7027908Y-87874500D01*
X6044377Y-87874500D01*
X6036092Y-87874500D01*
X5941065Y-87874500D01*
X5754248Y-87909422D01*
X5754245Y-87909422D01*
X5754245Y-87909423D01*
X5577030Y-87978075D01*
X5577029Y-87978076D01*
X5415440Y-88078128D01*
X5274992Y-88206162D01*
X5160459Y-88357828D01*
X5160454Y-88357836D01*
X5075748Y-88527948D01*
X5075743Y-88527961D01*
X5023732Y-88710758D01*
X5006197Y-88899999D01*
X5006197Y-88900000D01*
X5023732Y-89089241D01*
X5023733Y-89089243D01*
X5075744Y-89272041D01*
X5075744Y-89272042D01*
X5075748Y-89272051D01*
X5160454Y-89442163D01*
X5160459Y-89442171D01*
X5274992Y-89593837D01*
X5395817Y-89703982D01*
X5415442Y-89721873D01*
X5577028Y-89821923D01*
X5577029Y-89821923D01*
X5577030Y-89821924D01*
X5614573Y-89836468D01*
X5754248Y-89890578D01*
X5941065Y-89925500D01*
X6025530Y-89925500D01*
X7027807Y-89925500D01*
X7027968Y-89925500D01*
X7044151Y-89926560D01*
X7142718Y-89939536D01*
X7173984Y-89947913D01*
X7258264Y-89982821D01*
X7286298Y-89999006D01*
X7358669Y-90054538D01*
X7381553Y-90077421D01*
X7437089Y-90149795D01*
X7453274Y-90177829D01*
X7488183Y-90262107D01*
X7496561Y-90293373D01*
X7507226Y-90374373D01*
X7509209Y-90389438D01*
X7509531Y-90391879D01*
X7510592Y-90408066D01*
X7510592Y-109325857D01*
X7510486Y-109330983D01*
X7493806Y-109734172D01*
X7492959Y-109744387D01*
X7443354Y-110142261D01*
X7441667Y-110152372D01*
X7359364Y-110544811D01*
X7356847Y-110554748D01*
X7242417Y-110939031D01*
X7239088Y-110948726D01*
X7093306Y-111322249D01*
X7089188Y-111331636D01*
X6913047Y-111691855D01*
X6908167Y-111700869D01*
X6702884Y-112045294D01*
X6697276Y-112053875D01*
X6464245Y-112380169D01*
X6457948Y-112388257D01*
X6198762Y-112694190D01*
X6191818Y-112701731D01*
X5908250Y-112985210D01*
X5900708Y-112992151D01*
X5594689Y-113251244D01*
X5586598Y-113257539D01*
X5260233Y-113490464D01*
X5251651Y-113496069D01*
X4907151Y-113701250D01*
X4898134Y-113706127D01*
X4537870Y-113882149D01*
X4528482Y-113886264D01*
X4154915Y-114031927D01*
X4145219Y-114035253D01*
X3760894Y-114149563D01*
X3750957Y-114152077D01*
X3358498Y-114234255D01*
X3348386Y-114235939D01*
X2950496Y-114285419D01*
X2940280Y-114286263D01*
X2537105Y-114302814D01*
X2531980Y-114302918D01*
X-2939778Y-114301189D01*
X-2958204Y-114301184D01*
X-2958246Y-114301183D01*
X-2962943Y-114301182D01*
X-2968054Y-114301074D01*
X-3371057Y-114284281D01*
X-3381268Y-114283432D01*
X-3778979Y-114233740D01*
X-3789085Y-114232051D01*
X-4181340Y-114149691D01*
X-4191272Y-114147173D01*
X-4575388Y-114032709D01*
X-4585079Y-114029379D01*
X-4958426Y-113883594D01*
X-4967808Y-113879476D01*
X-5327847Y-113703365D01*
X-5336858Y-113698486D01*
X-5681126Y-113493249D01*
X-5689703Y-113487643D01*
X-5946160Y-113304462D01*
X1093282Y-113304462D01*
X2514213Y-113304912D01*
X2863230Y-113290584D01*
X2871803Y-113289518D01*
X1990015Y-112407730D01*
X1093282Y-113304462D01*
X-5946160Y-113304462D01*
X-5947722Y-113303346D01*
X-2441134Y-113303346D01*
X-649334Y-113303912D01*
X-1545517Y-112407729D01*
X-2441134Y-113303346D01*
X-5947722Y-113303346D01*
X-6015844Y-113254688D01*
X-6023928Y-113248394D01*
X-6329749Y-112989286D01*
X-6337287Y-112982344D01*
X-6620638Y-112698903D01*
X-6627577Y-112691364D01*
X-6886583Y-112385468D01*
X-6892875Y-112377381D01*
X-7125725Y-112051167D01*
X-7131329Y-112042588D01*
X-7334203Y-111702038D01*
X-4375360Y-111702038D01*
X-3313285Y-112764113D01*
X-2251210Y-111702038D01*
X-839826Y-111702038D01*
X222248Y-112764112D01*
X1284323Y-111702038D01*
X2695708Y-111702038D01*
X3757782Y-112764112D01*
X4819857Y-111702038D01*
X3757782Y-110639963D01*
X2695708Y-111702038D01*
X1284323Y-111702038D01*
X222248Y-110639963D01*
X-839826Y-111702038D01*
X-2251210Y-111702038D01*
X-3313285Y-110639963D01*
X-4375360Y-111702038D01*
X-7334203Y-111702038D01*
X-7336465Y-111698241D01*
X-7341340Y-111689229D01*
X-7517331Y-111329151D01*
X-7521447Y-111319767D01*
X-7667119Y-110946360D01*
X-7670445Y-110936669D01*
X-7784785Y-110552525D01*
X-7787300Y-110542592D01*
X-7869536Y-110150310D01*
X-7871222Y-110140203D01*
X-7896886Y-109934271D01*
X-6143127Y-109934271D01*
X-5081052Y-110996346D01*
X-4018977Y-109934271D01*
X-2607593Y-109934271D01*
X-1545518Y-110996346D01*
X-483443Y-109934271D01*
X927941Y-109934271D01*
X1990015Y-110996345D01*
X3052090Y-109934271D01*
X4463474Y-109934271D01*
X5525548Y-110996345D01*
X6435868Y-110086025D01*
X6457495Y-109982906D01*
X6477312Y-109823959D01*
X5525549Y-108872196D01*
X4463474Y-109934271D01*
X3052090Y-109934271D01*
X1990015Y-108872196D01*
X927941Y-109934271D01*
X-483443Y-109934271D01*
X-1545518Y-108872196D01*
X-2607593Y-109934271D01*
X-4018977Y-109934271D01*
X-5081052Y-108872196D01*
X-6143127Y-109934271D01*
X-7896886Y-109934271D01*
X-7920788Y-109742478D01*
X-7921634Y-109732267D01*
X-7938302Y-109329212D01*
X-7938408Y-109324088D01*
X-7938408Y-107196018D01*
X-6940408Y-107196018D01*
X-6940408Y-109136990D01*
X-6848819Y-109228579D01*
X-5786744Y-108166504D01*
X-4375360Y-108166504D01*
X-3313285Y-109228579D01*
X-2251210Y-108166504D01*
X-839826Y-108166504D01*
X222248Y-109228578D01*
X1284323Y-108166504D01*
X2695708Y-108166504D01*
X3757782Y-109228578D01*
X4819857Y-108166504D01*
X3757782Y-107104429D01*
X2695708Y-108166504D01*
X1284323Y-108166504D01*
X222248Y-107104429D01*
X-839826Y-108166504D01*
X-2251210Y-108166504D01*
X-3313285Y-107104429D01*
X-4375360Y-108166504D01*
X-5786744Y-108166504D01*
X-6848819Y-107104429D01*
X-6940408Y-107196018D01*
X-7938408Y-107196018D01*
X-7938408Y-106398737D01*
X-6143127Y-106398737D01*
X-5081052Y-107460812D01*
X-4018977Y-106398737D01*
X-2607593Y-106398737D01*
X-1545518Y-107460812D01*
X-483443Y-106398737D01*
X927941Y-106398737D01*
X1990015Y-107460811D01*
X3052090Y-106398737D01*
X4463474Y-106398737D01*
X5525549Y-107460811D01*
X6512592Y-106473769D01*
X6512592Y-106323705D01*
X5525549Y-105336662D01*
X4463474Y-106398737D01*
X3052090Y-106398737D01*
X1990015Y-105336662D01*
X927941Y-106398737D01*
X-483443Y-106398737D01*
X-1545518Y-105336662D01*
X-2607593Y-106398737D01*
X-4018977Y-106398737D01*
X-5081052Y-105336662D01*
X-6143127Y-106398737D01*
X-7938408Y-106398737D01*
X-7938408Y-103660484D01*
X-6940408Y-103660484D01*
X-6940408Y-105601456D01*
X-6848819Y-105693045D01*
X-5786744Y-104630970D01*
X-4375360Y-104630970D01*
X-3313285Y-105693045D01*
X-2251210Y-104630970D01*
X-839826Y-104630970D01*
X222248Y-105693044D01*
X1284323Y-104630970D01*
X2695708Y-104630970D01*
X3757782Y-105693044D01*
X4819857Y-104630970D01*
X3757782Y-103568895D01*
X2695708Y-104630970D01*
X1284323Y-104630970D01*
X222248Y-103568895D01*
X-839826Y-104630970D01*
X-2251210Y-104630970D01*
X-3313285Y-103568895D01*
X-4375360Y-104630970D01*
X-5786744Y-104630970D01*
X-6848819Y-103568895D01*
X-6940408Y-103660484D01*
X-7938408Y-103660484D01*
X-7938408Y-102863203D01*
X-6143127Y-102863203D01*
X-5081052Y-103925278D01*
X-4018977Y-102863203D01*
X-2607593Y-102863203D01*
X-1545518Y-103925278D01*
X-483443Y-102863203D01*
X927941Y-102863203D01*
X1990015Y-103925277D01*
X3052090Y-102863203D01*
X4463474Y-102863203D01*
X5525549Y-103925277D01*
X6512592Y-102938235D01*
X6512592Y-102788171D01*
X5525549Y-101801128D01*
X4463474Y-102863203D01*
X3052090Y-102863203D01*
X1990015Y-101801128D01*
X927941Y-102863203D01*
X-483443Y-102863203D01*
X-1545518Y-101801128D01*
X-2607593Y-102863203D01*
X-4018977Y-102863203D01*
X-5081052Y-101801128D01*
X-6143127Y-102863203D01*
X-7938408Y-102863203D01*
X-7938408Y-100124950D01*
X-6940408Y-100124950D01*
X-6940408Y-102065922D01*
X-6848819Y-102157511D01*
X-5786744Y-101095436D01*
X-4375360Y-101095436D01*
X-3313285Y-102157511D01*
X-2251210Y-101095436D01*
X-839826Y-101095436D01*
X222248Y-102157510D01*
X1284323Y-101095436D01*
X2695708Y-101095436D01*
X3757782Y-102157510D01*
X4819857Y-101095436D01*
X3757782Y-100033361D01*
X2695708Y-101095436D01*
X1284323Y-101095436D01*
X222248Y-100033361D01*
X-839826Y-101095436D01*
X-2251210Y-101095436D01*
X-3313285Y-100033361D01*
X-4375360Y-101095436D01*
X-5786744Y-101095436D01*
X-6848819Y-100033361D01*
X-6940408Y-100124950D01*
X-7938408Y-100124950D01*
X-7938408Y-99327669D01*
X-6143127Y-99327669D01*
X-5081052Y-100389744D01*
X-4018977Y-99327669D01*
X-2607593Y-99327669D01*
X-1545518Y-100389744D01*
X-483443Y-99327669D01*
X927941Y-99327669D01*
X1990015Y-100389743D01*
X3052090Y-99327669D01*
X4463474Y-99327669D01*
X5525549Y-100389743D01*
X6512592Y-99402701D01*
X6512592Y-99252637D01*
X5525549Y-98265594D01*
X4463474Y-99327669D01*
X3052090Y-99327669D01*
X1990015Y-98265594D01*
X927941Y-99327669D01*
X-483443Y-99327669D01*
X-1545518Y-98265594D01*
X-2607593Y-99327669D01*
X-4018977Y-99327669D01*
X-5081052Y-98265594D01*
X-6143127Y-99327669D01*
X-7938408Y-99327669D01*
X-7938408Y-96589416D01*
X-6940408Y-96589416D01*
X-6940408Y-98530388D01*
X-6848819Y-98621977D01*
X-5786744Y-97559902D01*
X-4375360Y-97559902D01*
X-3313285Y-98621977D01*
X-2251210Y-97559902D01*
X-839826Y-97559902D01*
X222248Y-98621976D01*
X1284323Y-97559902D01*
X2695708Y-97559902D01*
X3757782Y-98621976D01*
X4819857Y-97559902D01*
X3757782Y-96497827D01*
X2695708Y-97559902D01*
X1284323Y-97559902D01*
X222248Y-96497827D01*
X-839826Y-97559902D01*
X-2251210Y-97559902D01*
X-3313285Y-96497827D01*
X-4375360Y-97559902D01*
X-5786744Y-97559902D01*
X-6848819Y-96497827D01*
X-6940408Y-96589416D01*
X-7938408Y-96589416D01*
X-7938408Y-95792135D01*
X-6143127Y-95792135D01*
X-5081052Y-96854210D01*
X-4018977Y-95792135D01*
X-2607593Y-95792135D01*
X-1545518Y-96854210D01*
X-483443Y-95792135D01*
X927941Y-95792135D01*
X1990015Y-96854209D01*
X3052090Y-95792135D01*
X4463474Y-95792135D01*
X5525549Y-96854209D01*
X6512592Y-95867167D01*
X6512592Y-95717103D01*
X5525549Y-94730060D01*
X4463474Y-95792135D01*
X3052090Y-95792135D01*
X1990015Y-94730060D01*
X927941Y-95792135D01*
X-483443Y-95792135D01*
X-1545518Y-94730060D01*
X-2607593Y-95792135D01*
X-4018977Y-95792135D01*
X-5081052Y-94730060D01*
X-6143127Y-95792135D01*
X-7938408Y-95792135D01*
X-7938408Y-93053882D01*
X-6940408Y-93053882D01*
X-6940408Y-94994854D01*
X-6848819Y-95086443D01*
X-5786744Y-94024368D01*
X-4375359Y-94024368D01*
X-3313285Y-95086443D01*
X-2251210Y-94024368D01*
X2695708Y-94024368D01*
X3757782Y-95086442D01*
X4819857Y-94024368D01*
X3757782Y-92962293D01*
X2695708Y-94024368D01*
X-2251210Y-94024368D01*
X-3313285Y-92962293D01*
X-4375359Y-94024368D01*
X-5786744Y-94024368D01*
X-6848819Y-92962293D01*
X-6940408Y-93053882D01*
X-7938408Y-93053882D01*
X-7938408Y-92256601D01*
X-6143126Y-92256601D01*
X-5081052Y-93318676D01*
X-4018977Y-92256601D01*
X-2607592Y-92256601D01*
X-1545518Y-93318676D01*
X-483443Y-92256601D01*
X927941Y-92256601D01*
X1990015Y-93318675D01*
X3052090Y-92256601D01*
X4463474Y-92256601D01*
X5525549Y-93318675D01*
X6512592Y-92331633D01*
X6512592Y-92181569D01*
X5525549Y-91194526D01*
X4463474Y-92256601D01*
X3052090Y-92256601D01*
X1990015Y-91194526D01*
X927941Y-92256601D01*
X-483443Y-92256601D01*
X-1545518Y-91194526D01*
X-2607592Y-92256601D01*
X-4018977Y-92256601D01*
X-5081052Y-91194526D01*
X-6143126Y-92256601D01*
X-7938408Y-92256601D01*
X-7938408Y-90488834D01*
X-4375359Y-90488834D01*
X-3313285Y-91550909D01*
X-2251210Y-90488834D01*
X-839825Y-90488834D01*
X222248Y-91550909D01*
X1284323Y-90488834D01*
X2695708Y-90488834D01*
X3757782Y-91550908D01*
X4800557Y-90508133D01*
X4795600Y-90504390D01*
X4791111Y-90500834D01*
X4764454Y-90478698D01*
X4760134Y-90474938D01*
X4585600Y-90315829D01*
X4581457Y-90311873D01*
X4556948Y-90287364D01*
X4552991Y-90283220D01*
X4521920Y-90249136D01*
X4518160Y-90244815D01*
X4496023Y-90218156D01*
X4492467Y-90213667D01*
X4350143Y-90025200D01*
X4346800Y-90020553D01*
X4336413Y-90005391D01*
X3757782Y-89426760D01*
X2695708Y-90488834D01*
X1284323Y-90488834D01*
X222248Y-89426760D01*
X-839825Y-90488834D01*
X-2251210Y-90488834D01*
X-3313285Y-89426760D01*
X-4375359Y-90488834D01*
X-7938408Y-90488834D01*
X-7938408Y-90408123D01*
X-7937347Y-90391938D01*
X-7924371Y-90293376D01*
X-7915993Y-90262109D01*
X-7881086Y-90177834D01*
X-7864900Y-90149798D01*
X-7864897Y-90149795D01*
X-7840996Y-90118646D01*
X-7809367Y-90077428D01*
X-7786480Y-90054541D01*
X-7722428Y-90005391D01*
X-7714106Y-89999005D01*
X-7686077Y-89982823D01*
X-7646558Y-89966454D01*
X-7601799Y-89947915D01*
X-7570532Y-89939537D01*
X-7471968Y-89926561D01*
X-7455783Y-89925500D01*
X-6368884Y-89925500D01*
X-6368882Y-89925500D01*
X-6182065Y-89890577D01*
X-6004846Y-89821922D01*
X-5843260Y-89721872D01*
X-5702809Y-89593834D01*
X-5588276Y-89442169D01*
X-5580603Y-89426759D01*
X-5503562Y-89272042D01*
X-5451551Y-89089239D01*
X-5434016Y-88900000D01*
X-5434016Y-88899999D01*
X-5450596Y-88721067D01*
X-2607592Y-88721067D01*
X-1545518Y-89783142D01*
X-483443Y-88721067D01*
X927940Y-88721067D01*
X1990015Y-89783142D01*
X3052090Y-88721067D01*
X2226199Y-87895176D01*
X2022272Y-87868519D01*
X2015587Y-87867459D01*
X1975330Y-87859943D01*
X1968714Y-87858520D01*
X1915734Y-87845602D01*
X1909195Y-87843817D01*
X1869960Y-87831945D01*
X1863534Y-87829807D01*
X1831014Y-87817993D01*
X927940Y-88721067D01*
X-483443Y-88721067D01*
X-1545518Y-87658993D01*
X-2607592Y-88721067D01*
X-5450596Y-88721067D01*
X-5451551Y-88710760D01*
X-5503562Y-88527957D01*
X-5588276Y-88357830D01*
X-5702810Y-88206164D01*
X-5843258Y-88078129D01*
X-6004847Y-87978077D01*
X-6004851Y-87978075D01*
X-6134731Y-87927760D01*
X-6182065Y-87909423D01*
X-6368882Y-87874500D01*
X-6368884Y-87874500D01*
X-7455783Y-87874500D01*
X-7471967Y-87873439D01*
X-7483172Y-87871964D01*
X-7570533Y-87860462D01*
X-7601799Y-87852084D01*
X-7686074Y-87817177D01*
X-7714110Y-87800991D01*
X-7786480Y-87745458D01*
X-7809367Y-87722571D01*
X-7864900Y-87650201D01*
X-7881086Y-87622165D01*
X-7915993Y-87537890D01*
X-7924371Y-87506624D01*
X-7937348Y-87408060D01*
X-7938409Y-87391874D01*
X-7938409Y-86953300D01*
X-839825Y-86953300D01*
X222248Y-88015374D01*
X984747Y-87252875D01*
X950671Y-87210399D01*
X946582Y-87205008D01*
X922729Y-87171705D01*
X918938Y-87166094D01*
X796396Y-86973610D01*
X792917Y-86967801D01*
X772830Y-86932084D01*
X769671Y-86926090D01*
X745576Y-86877171D01*
X742752Y-86871019D01*
X726682Y-86833333D01*
X724197Y-86827034D01*
X646282Y-86612557D01*
X644144Y-86606129D01*
X632272Y-86566892D01*
X630487Y-86560355D01*
X617569Y-86507374D01*
X616146Y-86500757D01*
X608630Y-86460498D01*
X607570Y-86453813D01*
X580914Y-86249891D01*
X222249Y-85891226D01*
X-839825Y-86953300D01*
X-7938409Y-86953300D01*
X-7938409Y-86908125D01*
X-7937348Y-86891939D01*
X-7936897Y-86888518D01*
X-7931221Y-86845399D01*
X-7924371Y-86793375D01*
X-7915993Y-86762109D01*
X-7881086Y-86677834D01*
X-7864900Y-86649798D01*
X-7864897Y-86649795D01*
X-7836323Y-86612557D01*
X-7809367Y-86577428D01*
X-7786480Y-86554541D01*
X-7723928Y-86506542D01*
X-7714106Y-86499005D01*
X-7686077Y-86482823D01*
X-7632178Y-86460498D01*
X-7601799Y-86447915D01*
X-7570532Y-86439537D01*
X-7471968Y-86426561D01*
X-7455783Y-86425500D01*
X-7455624Y-86425500D01*
X-3923058Y-86425500D01*
X-3856019Y-86445185D01*
X-3819007Y-86484890D01*
X-3818204Y-86484329D01*
X-3814342Y-86489859D01*
X-3814341Y-86489862D01*
X-3715041Y-86632059D01*
X-3587299Y-86749373D01*
X-3437180Y-86836234D01*
X-3320178Y-86873226D01*
X-3271815Y-86888517D01*
X-3271813Y-86888517D01*
X-3271811Y-86888518D01*
X-3271808Y-86888518D01*
X-3271804Y-86888519D01*
X-3099046Y-86903743D01*
X-3099043Y-86903743D01*
X-2927079Y-86881186D01*
X-2882171Y-86864857D01*
X-2764090Y-86821922D01*
X-2764089Y-86821921D01*
X-2764082Y-86821919D01*
X-2617792Y-86728754D01*
X-2617791Y-86728753D01*
X-2617789Y-86728752D01*
X-2495154Y-86606117D01*
X-2462308Y-86554541D01*
X-2401988Y-86459825D01*
X-2401986Y-86459820D01*
X-2401984Y-86459816D01*
X-2342720Y-86296827D01*
X-2320163Y-86124863D01*
X-2320163Y-86124860D01*
X-2335387Y-85952102D01*
X-2335389Y-85952091D01*
X-2387671Y-85786732D01*
X-2387675Y-85786722D01*
X-2474532Y-85636609D01*
X-2591849Y-85508864D01*
X-2734049Y-85409563D01*
X-2734330Y-85409410D01*
X-2734468Y-85409270D01*
X-2739578Y-85405703D01*
X-2738939Y-85404789D01*
X-2783677Y-85359947D01*
X-2797073Y-85315541D01*
X-2797467Y-85315611D01*
X-2798050Y-85312300D01*
X-2798304Y-85311461D01*
X-2798407Y-85310275D01*
X-2829565Y-85133567D01*
X-2890939Y-84964945D01*
X-2890940Y-84964944D01*
X-2980653Y-84809556D01*
X-3095999Y-84672092D01*
X-3232399Y-84557639D01*
X-1979698Y-84557639D01*
X-1977231Y-84562932D01*
X-1975053Y-84567883D01*
X-1962533Y-84598111D01*
X-1960573Y-84603150D01*
X-1888861Y-84800172D01*
X-1879926Y-84808895D01*
X-1875215Y-84813752D01*
X-1721049Y-84981623D01*
X-1716611Y-84986728D01*
X-1690606Y-85018345D01*
X-1686452Y-85023687D01*
X-1654183Y-85067600D01*
X-1650325Y-85073162D01*
X-1627911Y-85107438D01*
X-1624363Y-85113201D01*
X-1510207Y-85310493D01*
X-1506978Y-85316442D01*
X-1488434Y-85352952D01*
X-1485536Y-85359066D01*
X-1463545Y-85408927D01*
X-1460984Y-85415191D01*
X-1446530Y-85453498D01*
X-1444315Y-85459892D01*
X-1375604Y-85677217D01*
X-1373741Y-85683722D01*
X-1363547Y-85723372D01*
X-1362041Y-85729968D01*
X-1351370Y-85783410D01*
X-1350226Y-85790083D01*
X-1344411Y-85830621D01*
X-1343634Y-85837343D01*
X-1326757Y-86028848D01*
X-483443Y-85185534D01*
X-1545518Y-84123459D01*
X-1979698Y-84557639D01*
X-3232399Y-84557639D01*
X-3233463Y-84556746D01*
X-3388851Y-84467033D01*
X-3388852Y-84467032D01*
X-3557474Y-84405658D01*
X-3734184Y-84374500D01*
X-3734187Y-84374500D01*
X-3813345Y-84374500D01*
X-14551714Y-84374500D01*
X-14559999Y-84374500D01*
X-14649719Y-84374500D01*
X-14649721Y-84374500D01*
X-14826431Y-84405658D01*
X-14995053Y-84467032D01*
X-14995054Y-84467033D01*
X-15150442Y-84556746D01*
X-15150445Y-84556749D01*
X-15150449Y-84556751D01*
X-15287907Y-84672092D01*
X-15403248Y-84809550D01*
X-15403250Y-84809553D01*
X-15403252Y-84809556D01*
X-15462831Y-84912750D01*
X-15492968Y-84964949D01*
X-15554340Y-85133567D01*
X-15585499Y-85310280D01*
X-15585499Y-85310290D01*
X-15585542Y-85310772D01*
X-15585621Y-85310975D01*
X-15586439Y-85315611D01*
X-15587370Y-85315446D01*
X-15610994Y-85375841D01*
X-15642100Y-85401971D01*
X-15641060Y-85403528D01*
X-15784237Y-85499250D01*
X-15784244Y-85499255D01*
X-15900067Y-85617839D01*
X-15900068Y-85617841D01*
X-15900069Y-85617842D01*
X-15941902Y-85683722D01*
X-15988924Y-85757774D01*
X-16046990Y-85913035D01*
X-16071763Y-86076936D01*
X-16062178Y-86242422D01*
X-16018647Y-86402367D01*
X-15943044Y-86549886D01*
X-15838625Y-86678626D01*
X-15709885Y-86783045D01*
X-15562366Y-86858648D01*
X-15402421Y-86902179D01*
X-15236935Y-86911764D01*
X-15073034Y-86886991D01*
X-14917773Y-86828925D01*
X-14911037Y-86824648D01*
X-14777841Y-86740070D01*
X-14777840Y-86740069D01*
X-14777838Y-86740068D01*
X-14659254Y-86624245D01*
X-14659251Y-86624241D01*
X-14659250Y-86624240D01*
X-14563526Y-86481059D01*
X-14561115Y-86482670D01*
X-14521288Y-86441596D01*
X-14460191Y-86425500D01*
X-10608285Y-86425500D01*
X-10608126Y-86425500D01*
X-10591940Y-86426561D01*
X-10493375Y-86439537D01*
X-10462107Y-86447915D01*
X-10377828Y-86482825D01*
X-10349805Y-86499003D01*
X-10283493Y-86549887D01*
X-10277428Y-86554541D01*
X-10254543Y-86577426D01*
X-10199003Y-86649805D01*
X-10182825Y-86677828D01*
X-10157044Y-86740070D01*
X-10147915Y-86762109D01*
X-10139537Y-86793375D01*
X-10129409Y-86870306D01*
X-10126561Y-86891940D01*
X-10125500Y-86908125D01*
X-10125500Y-87391874D01*
X-10126561Y-87408059D01*
X-10139537Y-87506623D01*
X-10147915Y-87537890D01*
X-10147915Y-87537891D01*
X-10182823Y-87622167D01*
X-10199005Y-87650197D01*
X-10205755Y-87658993D01*
X-10254541Y-87722571D01*
X-10277428Y-87745458D01*
X-10314536Y-87773933D01*
X-10349800Y-87800992D01*
X-10377834Y-87817177D01*
X-10462109Y-87852084D01*
X-10493375Y-87860462D01*
X-10580208Y-87871894D01*
X-10591941Y-87873439D01*
X-10608126Y-87874500D01*
X-11591715Y-87874500D01*
X-11600000Y-87874500D01*
X-11695027Y-87874500D01*
X-11881844Y-87909423D01*
X-11946427Y-87934442D01*
X-12059057Y-87978075D01*
X-12059061Y-87978077D01*
X-12059063Y-87978078D01*
X-12220649Y-88078128D01*
X-12361100Y-88206166D01*
X-12475633Y-88357831D01*
X-12476014Y-88358597D01*
X-12560341Y-88527948D01*
X-12560347Y-88527960D01*
X-12612357Y-88710758D01*
X-12629893Y-88900000D01*
X-12612357Y-89089242D01*
X-12560347Y-89272040D01*
X-12475633Y-89442169D01*
X-12361100Y-89593834D01*
X-12220649Y-89721872D01*
X-12059063Y-89821922D01*
X-11881844Y-89890577D01*
X-11695027Y-89925500D01*
X-11610562Y-89925500D01*
X-10608285Y-89925500D01*
X-10608126Y-89925500D01*
X-10591940Y-89926561D01*
X-10493375Y-89939537D01*
X-10462107Y-89947915D01*
X-10377828Y-89982825D01*
X-10349805Y-89999003D01*
X-10277433Y-90054537D01*
X-10277428Y-90054541D01*
X-10254543Y-90077426D01*
X-10199003Y-90149805D01*
X-10182825Y-90177828D01*
X-10163146Y-90225338D01*
X-10147915Y-90262109D01*
X-10139537Y-90293376D01*
X-10126561Y-90391940D01*
X-10125500Y-90408125D01*
X-10125500Y-113325857D01*
X-10125606Y-113330982D01*
X-10140917Y-113701112D01*
X-10142285Y-113734171D01*
X-10143131Y-113744384D01*
X-10192480Y-114140203D01*
X-10192737Y-114142261D01*
X-10194422Y-114152364D01*
X-10276731Y-114544829D01*
X-10279238Y-114554724D01*
X-10393681Y-114939051D01*
X-10396998Y-114948712D01*
X-10516931Y-115256007D01*
X-10542785Y-115322249D01*
X-10546903Y-115331636D01*
X-10723044Y-115691855D01*
X-10727924Y-115700869D01*
X-10933207Y-116045294D01*
X-10938815Y-116053875D01*
X-11171846Y-116380169D01*
X-11178143Y-116388257D01*
X-11403727Y-116654528D01*
X-11437329Y-116694190D01*
X-11444271Y-116701729D01*
X-11727851Y-116985219D01*
X-11735373Y-116992142D01*
X-11938678Y-117164272D01*
X-12041402Y-117251244D01*
X-12049493Y-117257539D01*
X-12375858Y-117490464D01*
X-12384440Y-117496069D01*
X-12637876Y-117647013D01*
X-12728708Y-117701112D01*
X-12728940Y-117701250D01*
X-12737957Y-117706127D01*
X-13098221Y-117882149D01*
X-13107609Y-117886264D01*
X-13481176Y-118031927D01*
X-13490872Y-118035253D01*
X-13875197Y-118149563D01*
X-13885134Y-118152077D01*
X-14277593Y-118234255D01*
X-14287705Y-118235939D01*
X-14685595Y-118285419D01*
X-14695811Y-118286263D01*
X-15098985Y-118302814D01*
X-15104110Y-118302918D01*
X-20575900Y-118301189D01*
X-20594296Y-118301184D01*
X-20594338Y-118301183D01*
X-20599035Y-118301182D01*
X-20604146Y-118301074D01*
X-21007149Y-118284281D01*
X-21017360Y-118283432D01*
X-21415071Y-118233740D01*
X-21425177Y-118232051D01*
X-21817432Y-118149691D01*
X-21827364Y-118147173D01*
X-22211480Y-118032709D01*
X-22221171Y-118029379D01*
X-22594518Y-117883594D01*
X-22603900Y-117879476D01*
X-22963939Y-117703365D01*
X-22972950Y-117698486D01*
X-23317218Y-117493249D01*
X-23325795Y-117487643D01*
X-23651936Y-117254688D01*
X-23660020Y-117248394D01*
X-23965841Y-116989286D01*
X-23973379Y-116982344D01*
X-24256730Y-116698903D01*
X-24263669Y-116691364D01*
X-24522675Y-116385468D01*
X-24528967Y-116377381D01*
X-24544891Y-116355072D01*
X-23170530Y-116355072D01*
X-23042459Y-116463581D01*
X-22775130Y-116654528D01*
X-22492947Y-116822753D01*
X-22197853Y-116967096D01*
X-21891827Y-117086594D01*
X-21804057Y-117112749D01*
X-21696647Y-117005339D01*
X-21696648Y-117005338D01*
X-20285262Y-117005338D01*
X-19987225Y-117303375D01*
X-18459631Y-117303857D01*
X-18161113Y-117005339D01*
X-18161114Y-117005338D01*
X-16749728Y-117005338D01*
X-16450574Y-117304492D01*
X-15121877Y-117304912D01*
X-14916729Y-117296489D01*
X-14625579Y-117005339D01*
X-15687654Y-115943264D01*
X-16749728Y-117005338D01*
X-18161114Y-117005338D01*
X-19223188Y-115943264D01*
X-20285262Y-117005338D01*
X-21696648Y-117005338D01*
X-22758722Y-115943264D01*
X-23170530Y-116355072D01*
X-24544891Y-116355072D01*
X-24761817Y-116051167D01*
X-24767421Y-116042588D01*
X-24972557Y-115698241D01*
X-24977432Y-115689229D01*
X-25153423Y-115329151D01*
X-25157539Y-115319767D01*
X-25303211Y-114946360D01*
X-25306537Y-114936669D01*
X-25420877Y-114552525D01*
X-25423392Y-114542592D01*
X-25488191Y-114233490D01*
X-24468495Y-114233490D01*
X-24454037Y-114302457D01*
X-24360322Y-114617310D01*
X-24240914Y-114923394D01*
X-24096670Y-115218515D01*
X-23928523Y-115500773D01*
X-23844845Y-115618003D01*
X-23464414Y-115237572D01*
X-22053030Y-115237572D01*
X-20990955Y-116299647D01*
X-19928880Y-115237572D01*
X-18517496Y-115237572D01*
X-17455421Y-116299647D01*
X-16393346Y-115237572D01*
X-14981962Y-115237572D01*
X-13919887Y-116299647D01*
X-12857812Y-115237572D01*
X-13919887Y-114175497D01*
X-14981962Y-115237572D01*
X-16393346Y-115237572D01*
X-17455421Y-114175497D01*
X-18517496Y-115237572D01*
X-19928880Y-115237572D01*
X-20990955Y-114175497D01*
X-22053030Y-115237572D01*
X-23464414Y-115237572D01*
X-24468495Y-114233490D01*
X-25488191Y-114233490D01*
X-25505628Y-114150310D01*
X-25507314Y-114140203D01*
X-25556880Y-113742478D01*
X-25557726Y-113732267D01*
X-25568580Y-113469805D01*
X-23820797Y-113469805D01*
X-22758722Y-114531880D01*
X-21696647Y-113469805D01*
X-20285263Y-113469805D01*
X-19223188Y-114531880D01*
X-18161113Y-113469805D01*
X-16749729Y-113469805D01*
X-15687654Y-114531880D01*
X-14625579Y-113469805D01*
X-13214195Y-113469805D01*
X-12152120Y-114531880D01*
X-11131934Y-113511694D01*
X-11128606Y-113431242D01*
X-12152119Y-112407729D01*
X-13214195Y-113469805D01*
X-14625579Y-113469805D01*
X-15687654Y-112407730D01*
X-16749729Y-113469805D01*
X-18161113Y-113469805D01*
X-19223188Y-112407730D01*
X-20285263Y-113469805D01*
X-21696647Y-113469805D01*
X-22758722Y-112407730D01*
X-23820797Y-113469805D01*
X-25568580Y-113469805D01*
X-25574394Y-113329212D01*
X-25574500Y-113324088D01*
X-25574500Y-110689974D01*
X-24576500Y-110689974D01*
X-24576500Y-112714102D01*
X-24526489Y-112764113D01*
X-23464414Y-111702038D01*
X-22053030Y-111702038D01*
X-20990955Y-112764113D01*
X-19928880Y-111702038D01*
X-18517496Y-111702038D01*
X-17455421Y-112764113D01*
X-16393346Y-111702038D01*
X-14981962Y-111702038D01*
X-13919887Y-112764113D01*
X-12857812Y-111702038D01*
X-13919887Y-110639963D01*
X-14981962Y-111702038D01*
X-16393346Y-111702038D01*
X-17455421Y-110639963D01*
X-18517496Y-111702038D01*
X-19928880Y-111702038D01*
X-20990955Y-110639963D01*
X-22053030Y-111702038D01*
X-23464414Y-111702038D01*
X-24526489Y-110639963D01*
X-24576500Y-110689974D01*
X-25574500Y-110689974D01*
X-25574500Y-109934271D01*
X-23820797Y-109934271D01*
X-22758722Y-110996346D01*
X-21696647Y-109934271D01*
X-20285263Y-109934271D01*
X-19223188Y-110996346D01*
X-18161113Y-109934271D01*
X-16749729Y-109934271D01*
X-15687654Y-110996346D01*
X-14625579Y-109934271D01*
X-13214195Y-109934271D01*
X-12152120Y-110996346D01*
X-11123500Y-109967726D01*
X-11123500Y-109900816D01*
X-12152120Y-108872196D01*
X-13214195Y-109934271D01*
X-14625579Y-109934271D01*
X-15687654Y-108872196D01*
X-16749729Y-109934271D01*
X-18161113Y-109934271D01*
X-19223188Y-108872196D01*
X-20285263Y-109934271D01*
X-21696647Y-109934271D01*
X-22758722Y-108872196D01*
X-23820797Y-109934271D01*
X-25574500Y-109934271D01*
X-25574500Y-107154440D01*
X-24576500Y-107154440D01*
X-24576500Y-109178568D01*
X-24526489Y-109228579D01*
X-23464414Y-108166504D01*
X-22053030Y-108166504D01*
X-20990955Y-109228579D01*
X-19928880Y-108166504D01*
X-18517496Y-108166504D01*
X-17455421Y-109228579D01*
X-16393346Y-108166504D01*
X-14981962Y-108166504D01*
X-13919887Y-109228579D01*
X-12857812Y-108166504D01*
X-13919887Y-107104429D01*
X-14981962Y-108166504D01*
X-16393346Y-108166504D01*
X-17455421Y-107104429D01*
X-18517496Y-108166504D01*
X-19928880Y-108166504D01*
X-20990955Y-107104429D01*
X-22053030Y-108166504D01*
X-23464414Y-108166504D01*
X-24526489Y-107104429D01*
X-24576500Y-107154440D01*
X-25574500Y-107154440D01*
X-25574500Y-106398737D01*
X-23820797Y-106398737D01*
X-22758722Y-107460812D01*
X-21696647Y-106398737D01*
X-20285263Y-106398737D01*
X-19223188Y-107460812D01*
X-18161113Y-106398737D01*
X-16749729Y-106398737D01*
X-15687654Y-107460812D01*
X-14625579Y-106398737D01*
X-13214195Y-106398737D01*
X-12152120Y-107460812D01*
X-11123500Y-106432192D01*
X-11123500Y-106365282D01*
X-12152120Y-105336662D01*
X-13214195Y-106398737D01*
X-14625579Y-106398737D01*
X-15687654Y-105336662D01*
X-16749729Y-106398737D01*
X-18161113Y-106398737D01*
X-19223188Y-105336662D01*
X-20285263Y-106398737D01*
X-21696647Y-106398737D01*
X-22758722Y-105336662D01*
X-23820797Y-106398737D01*
X-25574500Y-106398737D01*
X-25574500Y-103618906D01*
X-24576500Y-103618906D01*
X-24576500Y-105643034D01*
X-24526489Y-105693045D01*
X-23464414Y-104630970D01*
X-22053030Y-104630970D01*
X-20990955Y-105693045D01*
X-19928880Y-104630970D01*
X-18517496Y-104630970D01*
X-17455421Y-105693045D01*
X-16393346Y-104630970D01*
X-14981962Y-104630970D01*
X-13919887Y-105693045D01*
X-12857812Y-104630970D01*
X-13919887Y-103568895D01*
X-14981962Y-104630970D01*
X-16393346Y-104630970D01*
X-17455421Y-103568895D01*
X-18517496Y-104630970D01*
X-19928880Y-104630970D01*
X-20990955Y-103568895D01*
X-22053030Y-104630970D01*
X-23464414Y-104630970D01*
X-24526489Y-103568895D01*
X-24576500Y-103618906D01*
X-25574500Y-103618906D01*
X-25574500Y-102863203D01*
X-23820797Y-102863203D01*
X-22758722Y-103925278D01*
X-21696647Y-102863203D01*
X-20285263Y-102863203D01*
X-19223188Y-103925278D01*
X-18161113Y-102863203D01*
X-16749729Y-102863203D01*
X-15687654Y-103925278D01*
X-14625579Y-102863203D01*
X-13214195Y-102863203D01*
X-12152120Y-103925278D01*
X-11123500Y-102896658D01*
X-11123500Y-102829748D01*
X-12152120Y-101801128D01*
X-13214195Y-102863203D01*
X-14625579Y-102863203D01*
X-15687654Y-101801128D01*
X-16749729Y-102863203D01*
X-18161113Y-102863203D01*
X-19223188Y-101801128D01*
X-20285263Y-102863203D01*
X-21696647Y-102863203D01*
X-22758722Y-101801128D01*
X-23820797Y-102863203D01*
X-25574500Y-102863203D01*
X-25574500Y-100083372D01*
X-24576500Y-100083372D01*
X-24576500Y-102107500D01*
X-24526489Y-102157511D01*
X-23464414Y-101095436D01*
X-22053030Y-101095436D01*
X-20990955Y-102157511D01*
X-19928880Y-101095436D01*
X-18517496Y-101095436D01*
X-17455421Y-102157511D01*
X-16393346Y-101095436D01*
X-14981962Y-101095436D01*
X-13919887Y-102157511D01*
X-12857812Y-101095436D01*
X-13919887Y-100033361D01*
X-14981962Y-101095436D01*
X-16393346Y-101095436D01*
X-17455421Y-100033361D01*
X-18517496Y-101095436D01*
X-19928880Y-101095436D01*
X-20990955Y-100033361D01*
X-22053030Y-101095436D01*
X-23464414Y-101095436D01*
X-24526489Y-100033361D01*
X-24576500Y-100083372D01*
X-25574500Y-100083372D01*
X-25574500Y-99327669D01*
X-23820797Y-99327669D01*
X-22758722Y-100389744D01*
X-21696647Y-99327669D01*
X-20285263Y-99327669D01*
X-19223188Y-100389744D01*
X-18161113Y-99327669D01*
X-16749729Y-99327669D01*
X-15687654Y-100389744D01*
X-14625579Y-99327669D01*
X-13214195Y-99327669D01*
X-12152120Y-100389744D01*
X-11123500Y-99361124D01*
X-11123500Y-99294214D01*
X-12152120Y-98265594D01*
X-13214195Y-99327669D01*
X-14625579Y-99327669D01*
X-15687654Y-98265594D01*
X-16749729Y-99327669D01*
X-18161113Y-99327669D01*
X-19223188Y-98265594D01*
X-20285263Y-99327669D01*
X-21696647Y-99327669D01*
X-22758722Y-98265594D01*
X-23820797Y-99327669D01*
X-25574500Y-99327669D01*
X-25574500Y-96547838D01*
X-24576500Y-96547838D01*
X-24576500Y-98571966D01*
X-24526489Y-98621977D01*
X-23464414Y-97559902D01*
X-22053030Y-97559902D01*
X-20990955Y-98621977D01*
X-19928880Y-97559902D01*
X-18517496Y-97559902D01*
X-17455421Y-98621977D01*
X-16393346Y-97559902D01*
X-14981962Y-97559902D01*
X-13919887Y-98621977D01*
X-12857812Y-97559902D01*
X-13919887Y-96497827D01*
X-14981962Y-97559902D01*
X-16393346Y-97559902D01*
X-17455421Y-96497827D01*
X-18517496Y-97559902D01*
X-19928880Y-97559902D01*
X-20990955Y-96497827D01*
X-22053030Y-97559902D01*
X-23464414Y-97559902D01*
X-24526489Y-96497827D01*
X-24576500Y-96547838D01*
X-25574500Y-96547838D01*
X-25574500Y-95792135D01*
X-23820797Y-95792135D01*
X-22758722Y-96854210D01*
X-21696647Y-95792135D01*
X-20285263Y-95792135D01*
X-19223188Y-96854210D01*
X-18161113Y-95792135D01*
X-16749729Y-95792135D01*
X-15687654Y-96854210D01*
X-14625579Y-95792135D01*
X-13214195Y-95792135D01*
X-12152120Y-96854210D01*
X-11123500Y-95825590D01*
X-11123500Y-95758680D01*
X-12152120Y-94730060D01*
X-13214195Y-95792135D01*
X-14625579Y-95792135D01*
X-15687654Y-94730060D01*
X-16749729Y-95792135D01*
X-18161113Y-95792135D01*
X-19223188Y-94730060D01*
X-20285263Y-95792135D01*
X-21696647Y-95792135D01*
X-22758722Y-94730060D01*
X-23820797Y-95792135D01*
X-25574500Y-95792135D01*
X-25574500Y-93012304D01*
X-24576500Y-93012304D01*
X-24576500Y-95036432D01*
X-24526489Y-95086443D01*
X-23464414Y-94024368D01*
X-22053029Y-94024368D01*
X-20990955Y-95086443D01*
X-19928880Y-94024368D01*
X-14981961Y-94024368D01*
X-13919887Y-95086443D01*
X-12857812Y-94024368D01*
X-13919887Y-92962293D01*
X-14981961Y-94024368D01*
X-19928880Y-94024368D01*
X-20990955Y-92962293D01*
X-22053029Y-94024368D01*
X-23464414Y-94024368D01*
X-24526489Y-92962293D01*
X-24576500Y-93012304D01*
X-25574500Y-93012304D01*
X-25574500Y-92256601D01*
X-23820796Y-92256601D01*
X-22758722Y-93318676D01*
X-21696647Y-92256601D01*
X-20285262Y-92256601D01*
X-19223188Y-93318676D01*
X-18161113Y-92256601D01*
X-16749728Y-92256601D01*
X-15687654Y-93318676D01*
X-14625579Y-92256601D01*
X-13214194Y-92256601D01*
X-12152120Y-93318676D01*
X-11123500Y-92290056D01*
X-11123500Y-92223146D01*
X-12152119Y-91194526D01*
X-13214194Y-92256601D01*
X-14625579Y-92256601D01*
X-15687654Y-91194526D01*
X-16749728Y-92256601D01*
X-18161113Y-92256601D01*
X-19223188Y-91194526D01*
X-20285262Y-92256601D01*
X-21696647Y-92256601D01*
X-22758722Y-91194526D01*
X-23820796Y-92256601D01*
X-25574500Y-92256601D01*
X-25574500Y-90488834D01*
X-22053029Y-90488834D01*
X-20990955Y-91550909D01*
X-19928880Y-90488834D01*
X-18517495Y-90488834D01*
X-17455421Y-91550909D01*
X-16393346Y-90488834D01*
X-14981961Y-90488834D01*
X-13919887Y-91550909D01*
X-12858544Y-90489567D01*
X-12871635Y-90478698D01*
X-12875957Y-90474937D01*
X-13050491Y-90315828D01*
X-13054634Y-90311872D01*
X-13079143Y-90287363D01*
X-13083100Y-90283219D01*
X-13114171Y-90249135D01*
X-13117930Y-90244816D01*
X-13140066Y-90218159D01*
X-13143624Y-90213667D01*
X-13176455Y-90170190D01*
X-13919886Y-89426759D01*
X-14981961Y-90488834D01*
X-16393346Y-90488834D01*
X-17455421Y-89426760D01*
X-18517495Y-90488834D01*
X-19928880Y-90488834D01*
X-20990955Y-89426760D01*
X-22053029Y-90488834D01*
X-25574500Y-90488834D01*
X-25574500Y-90408123D01*
X-25573439Y-90391938D01*
X-25560463Y-90293376D01*
X-25552085Y-90262109D01*
X-25517178Y-90177834D01*
X-25500992Y-90149798D01*
X-25500989Y-90149795D01*
X-25477088Y-90118646D01*
X-25445459Y-90077428D01*
X-25422572Y-90054541D01*
X-25358520Y-90005391D01*
X-25350198Y-89999005D01*
X-25322169Y-89982823D01*
X-25282650Y-89966454D01*
X-25237891Y-89947915D01*
X-25206624Y-89939537D01*
X-25108060Y-89926561D01*
X-25091875Y-89925500D01*
X-24004976Y-89925500D01*
X-24004974Y-89925500D01*
X-23818157Y-89890577D01*
X-23640938Y-89821922D01*
X-23479352Y-89721872D01*
X-23338901Y-89593834D01*
X-23224368Y-89442169D01*
X-23216695Y-89426759D01*
X-23139654Y-89272042D01*
X-23087643Y-89089239D01*
X-23070108Y-88900000D01*
X-23070108Y-88899999D01*
X-23086688Y-88721067D01*
X-20285262Y-88721067D01*
X-19223188Y-89783142D01*
X-18161113Y-88721067D01*
X-16749728Y-88721067D01*
X-15687654Y-89783142D01*
X-14625578Y-88721067D01*
X-15447399Y-87899246D01*
X-15486024Y-87897010D01*
X-15492445Y-87896470D01*
X-15531199Y-87892197D01*
X-15537584Y-87891325D01*
X-15588792Y-87882967D01*
X-15595123Y-87881764D01*
X-15633219Y-87873494D01*
X-15639477Y-87871964D01*
X-15844755Y-87816094D01*
X-16749728Y-88721067D01*
X-18161113Y-88721067D01*
X-19223188Y-87658993D01*
X-20285262Y-88721067D01*
X-23086688Y-88721067D01*
X-23087643Y-88710760D01*
X-23139654Y-88527957D01*
X-23224368Y-88357830D01*
X-23338902Y-88206164D01*
X-23479350Y-88078129D01*
X-23640939Y-87978077D01*
X-23640943Y-87978075D01*
X-23770823Y-87927760D01*
X-23818157Y-87909423D01*
X-24004974Y-87874500D01*
X-24004976Y-87874500D01*
X-25091875Y-87874500D01*
X-25108059Y-87873439D01*
X-25119264Y-87871964D01*
X-25206625Y-87860462D01*
X-25237891Y-87852084D01*
X-25322166Y-87817177D01*
X-25350202Y-87800991D01*
X-25422572Y-87745458D01*
X-25445459Y-87722571D01*
X-25500992Y-87650201D01*
X-25517178Y-87622165D01*
X-25552085Y-87537890D01*
X-25560463Y-87506624D01*
X-25573440Y-87408060D01*
X-25574501Y-87391874D01*
X-25574501Y-86953300D01*
X-18517495Y-86953300D01*
X-17455420Y-88015375D01*
X-16673563Y-87233518D01*
X-16734487Y-87158405D01*
X-16738416Y-87153296D01*
X-16761371Y-87121778D01*
X-16765027Y-87116473D01*
X-16793352Y-87073005D01*
X-16796728Y-87067518D01*
X-16816282Y-87033802D01*
X-16819368Y-87028147D01*
X-16918637Y-86834452D01*
X-16921427Y-86828640D01*
X-16937386Y-86793056D01*
X-16939869Y-86787110D01*
X-16958613Y-86738730D01*
X-16960784Y-86732665D01*
X-16972956Y-86695646D01*
X-16974808Y-86689478D01*
X-17031963Y-86479478D01*
X-17033493Y-86473220D01*
X-17041763Y-86435124D01*
X-17042966Y-86428793D01*
X-17051324Y-86377585D01*
X-17052196Y-86371200D01*
X-17056469Y-86332446D01*
X-17057009Y-86326025D01*
X-17059245Y-86287400D01*
X-17455420Y-85891225D01*
X-18517495Y-86953300D01*
X-25574501Y-86953300D01*
X-25574501Y-86908125D01*
X-25573440Y-86891939D01*
X-25572989Y-86888518D01*
X-25567313Y-86845399D01*
X-25560463Y-86793375D01*
X-25552085Y-86762109D01*
X-25517178Y-86677834D01*
X-25500992Y-86649798D01*
X-25500989Y-86649795D01*
X-25472415Y-86612557D01*
X-25445459Y-86577428D01*
X-25422572Y-86554541D01*
X-25360020Y-86506542D01*
X-25350198Y-86499005D01*
X-25322169Y-86482823D01*
X-25268270Y-86460498D01*
X-25237891Y-86447915D01*
X-25206624Y-86439537D01*
X-25108060Y-86426561D01*
X-25091875Y-86425500D01*
X-25091716Y-86425500D01*
X-21561021Y-86425500D01*
X-21493982Y-86445185D01*
X-21459284Y-86483368D01*
X-21457081Y-86481929D01*
X-21441613Y-86505613D01*
X-21361877Y-86627703D01*
X-21243085Y-86745954D01*
X-21102331Y-86836965D01*
X-20945748Y-86896771D01*
X-20780161Y-86922765D01*
X-20780155Y-86922764D01*
X-20780154Y-86922765D01*
X-20682525Y-86917544D01*
X-20612785Y-86913815D01*
X-20549359Y-86896768D01*
X-20450917Y-86870310D01*
X-20450915Y-86870309D01*
X-20450914Y-86870309D01*
X-20413519Y-86851234D01*
X-20301607Y-86794148D01*
X-20301604Y-86794146D01*
X-20301602Y-86794145D01*
X-20280671Y-86777190D01*
X-20171356Y-86688642D01*
X-20065857Y-86558401D01*
X-20065850Y-86558391D01*
X-19989692Y-86409090D01*
X-19989688Y-86409081D01*
X-19946185Y-86247220D01*
X-19946183Y-86247208D01*
X-19937233Y-86079844D01*
X-19937234Y-86079838D01*
X-19937690Y-86076931D01*
X-19963228Y-85914251D01*
X-19963228Y-85914249D01*
X-19963229Y-85914247D01*
X-19963230Y-85914243D01*
X-20023032Y-85757671D01*
X-20023032Y-85757670D01*
X-20114046Y-85616912D01*
X-20232295Y-85498122D01*
X-20232297Y-85498120D01*
X-20378070Y-85402918D01*
X-20376552Y-85400594D01*
X-20418362Y-85360810D01*
X-20432690Y-85315457D01*
X-20433559Y-85315611D01*
X-20465657Y-85133567D01*
X-20527031Y-84964945D01*
X-20527032Y-84964944D01*
X-20616745Y-84809556D01*
X-20732091Y-84672092D01*
X-20869555Y-84556746D01*
X-20917122Y-84529283D01*
X-19629012Y-84529283D01*
X-19613323Y-84562932D01*
X-19611145Y-84567883D01*
X-19598625Y-84598111D01*
X-19596665Y-84603150D01*
X-19528446Y-84790574D01*
X-19388327Y-84931335D01*
X-19383874Y-84936049D01*
X-19357687Y-84965263D01*
X-19353487Y-84970202D01*
X-19320724Y-85010840D01*
X-19316789Y-85015990D01*
X-19293807Y-85047760D01*
X-19290148Y-85053108D01*
X-19170798Y-85237688D01*
X-19167422Y-85243221D01*
X-19147880Y-85277217D01*
X-19144798Y-85282919D01*
X-19121184Y-85329472D01*
X-19118403Y-85335328D01*
X-19102509Y-85371194D01*
X-19100038Y-85377189D01*
X-19021600Y-85582553D01*
X-19019445Y-85588672D01*
X-19007378Y-85626018D01*
X-19005545Y-85632240D01*
X-18992115Y-85682682D01*
X-18990613Y-85688982D01*
X-18982520Y-85727334D01*
X-18981348Y-85733707D01*
X-18947262Y-85950841D01*
X-18946425Y-85957265D01*
X-18945147Y-85969568D01*
X-18161113Y-85185534D01*
X-19223188Y-84123459D01*
X-19629012Y-84529283D01*
X-20917122Y-84529283D01*
X-21024943Y-84467033D01*
X-21024944Y-84467032D01*
X-21193566Y-84405658D01*
X-21370276Y-84374500D01*
X-21370279Y-84374500D01*
X-21449437Y-84374500D01*
X-33551714Y-84374500D01*
X-33559999Y-84374500D01*
X-33649719Y-84374500D01*
X-33649721Y-84374500D01*
X-33826431Y-84405658D01*
X-33995053Y-84467032D01*
X-33995054Y-84467033D01*
X-34150442Y-84556746D01*
X-34150445Y-84556749D01*
X-34150449Y-84556751D01*
X-34287907Y-84672092D01*
X-34403248Y-84809550D01*
X-34403250Y-84809553D01*
X-34403252Y-84809556D01*
X-34462831Y-84912750D01*
X-34492968Y-84964949D01*
X-34546927Y-85113201D01*
X-34554340Y-85133567D01*
X-34586439Y-85315611D01*
X-34587818Y-85315367D01*
X-34610855Y-85374263D01*
X-34643236Y-85401085D01*
X-34642145Y-85402766D01*
X-34677158Y-85425500D01*
X-34788565Y-85497837D01*
X-34907423Y-85616680D01*
X-34998973Y-85757638D01*
X-35059215Y-85914551D01*
X-35085515Y-86080560D01*
X-35076723Y-86248409D01*
X-35033225Y-86410762D01*
X-34956920Y-86560523D01*
X-34851145Y-86691146D01*
X-34720522Y-86796921D01*
X-34570761Y-86873226D01*
X-34408408Y-86916724D01*
X-34240559Y-86925516D01*
X-34074550Y-86899216D01*
X-33917637Y-86838974D01*
X-33776679Y-86747424D01*
X-33657836Y-86628566D01*
X-33643919Y-86607132D01*
X-33562765Y-86482146D01*
X-33560243Y-86483783D01*
X-33521260Y-86442452D01*
X-33458677Y-86425500D01*
X-28193119Y-86425500D01*
X-28176933Y-86426560D01*
X-28078374Y-86439537D01*
X-28047107Y-86447915D01*
X-27962828Y-86482825D01*
X-27934805Y-86499003D01*
X-27868493Y-86549887D01*
X-27862428Y-86554541D01*
X-27839543Y-86577426D01*
X-27784003Y-86649805D01*
X-27767825Y-86677828D01*
X-27742044Y-86740070D01*
X-27732915Y-86762109D01*
X-27724537Y-86793375D01*
X-27714409Y-86870306D01*
X-27711561Y-86891940D01*
X-27710500Y-86908125D01*
X-27710500Y-87391874D01*
X-27711561Y-87408059D01*
X-27724537Y-87506623D01*
X-27732915Y-87537890D01*
X-27732915Y-87537891D01*
X-27767823Y-87622167D01*
X-27784005Y-87650197D01*
X-27790755Y-87658993D01*
X-27839541Y-87722571D01*
X-27862428Y-87745458D01*
X-27899536Y-87773933D01*
X-27934800Y-87800992D01*
X-27962834Y-87817177D01*
X-28047109Y-87852084D01*
X-28078375Y-87860462D01*
X-28165208Y-87871894D01*
X-28176941Y-87873439D01*
X-28193126Y-87874500D01*
X-29176715Y-87874500D01*
X-29185000Y-87874500D01*
X-29280027Y-87874500D01*
X-29466844Y-87909423D01*
X-29531427Y-87934442D01*
X-29644057Y-87978075D01*
X-29644061Y-87978077D01*
X-29644063Y-87978078D01*
X-29805649Y-88078128D01*
X-29946100Y-88206166D01*
X-30060633Y-88357831D01*
X-30061014Y-88358597D01*
X-30145341Y-88527948D01*
X-30145347Y-88527960D01*
X-30197357Y-88710758D01*
X-30214893Y-88900000D01*
X-30197357Y-89089242D01*
X-30145347Y-89272040D01*
X-30060633Y-89442169D01*
X-29946100Y-89593834D01*
X-29805649Y-89721872D01*
X-29644063Y-89821922D01*
X-29466844Y-89890577D01*
X-29280027Y-89925500D01*
X-29195562Y-89925500D01*
X-28193285Y-89925500D01*
X-28193126Y-89925500D01*
X-28176940Y-89926561D01*
X-28078375Y-89939537D01*
X-28047107Y-89947915D01*
X-27962828Y-89982825D01*
X-27934805Y-89999003D01*
X-27862433Y-90054537D01*
X-27862428Y-90054541D01*
X-27839543Y-90077426D01*
X-27784003Y-90149805D01*
X-27767825Y-90177828D01*
X-27748146Y-90225338D01*
X-27732915Y-90262109D01*
X-27724537Y-90293376D01*
X-27711561Y-90391940D01*
X-27710500Y-90408125D01*
X-27710500Y-90408285D01*
X-27709519Y-90411304D01*
X-27703447Y-90449677D01*
X-27710487Y-108800615D01*
X-27710500Y-108800682D01*
X-27710500Y-108827438D01*
X-27710606Y-108832562D01*
X-27727278Y-109235682D01*
X-27728121Y-109245855D01*
X-27753836Y-109452149D01*
X-27777712Y-109643690D01*
X-27779399Y-109653798D01*
X-27861665Y-110046146D01*
X-27864181Y-110056082D01*
X-27978573Y-110440319D01*
X-27981892Y-110449987D01*
X-28086632Y-110718409D01*
X-28127623Y-110823459D01*
X-28131732Y-110832830D01*
X-28307808Y-111192998D01*
X-28312677Y-111201994D01*
X-28517891Y-111546390D01*
X-28523497Y-111554971D01*
X-28756439Y-111881224D01*
X-28762733Y-111889311D01*
X-29021831Y-112195229D01*
X-29028773Y-112202769D01*
X-29312230Y-112486226D01*
X-29319770Y-112493168D01*
X-29625688Y-112752266D01*
X-29633775Y-112758560D01*
X-29960028Y-112991502D01*
X-29968609Y-112997108D01*
X-30313005Y-113202322D01*
X-30322010Y-113207195D01*
X-30682155Y-113383260D01*
X-30691540Y-113387376D01*
X-31065000Y-113533102D01*
X-31074693Y-113536430D01*
X-31458917Y-113650818D01*
X-31468853Y-113653334D01*
X-31861201Y-113735600D01*
X-31871309Y-113737287D01*
X-32269123Y-113786876D01*
X-32279337Y-113787722D01*
X-32682437Y-113804394D01*
X-32687561Y-113804500D01*
X-39457439Y-113804500D01*
X-39462563Y-113804394D01*
X-39865662Y-113787722D01*
X-39875876Y-113786876D01*
X-40273690Y-113737287D01*
X-40283798Y-113735600D01*
X-40676146Y-113653334D01*
X-40686082Y-113650818D01*
X-41070306Y-113536430D01*
X-41079999Y-113533102D01*
X-41453459Y-113387376D01*
X-41462844Y-113383260D01*
X-41822981Y-113207200D01*
X-41831994Y-113202322D01*
X-42176390Y-112997108D01*
X-42184971Y-112991502D01*
X-42511224Y-112758560D01*
X-42519311Y-112752266D01*
X-42825229Y-112493168D01*
X-42832769Y-112486226D01*
X-43116226Y-112202769D01*
X-43123168Y-112195229D01*
X-43382266Y-111889311D01*
X-43388560Y-111881224D01*
X-43621502Y-111554971D01*
X-43627108Y-111546390D01*
X-43832322Y-111201994D01*
X-43837200Y-111192981D01*
X-43866719Y-111132599D01*
X-42696794Y-111132599D01*
X-42597343Y-111271888D01*
X-42384966Y-111522643D01*
X-42152643Y-111754966D01*
X-41901888Y-111967343D01*
X-41634475Y-112158274D01*
X-41611819Y-112171774D01*
X-41142083Y-111702038D01*
X-39730699Y-111702038D01*
X-38668624Y-112764113D01*
X-37606549Y-111702038D01*
X-36195165Y-111702038D01*
X-35133090Y-112764112D01*
X-34071015Y-111702038D01*
X-34071016Y-111702037D01*
X-32659631Y-111702037D01*
X-31684871Y-112676797D01*
X-31436212Y-112602768D01*
X-30535482Y-111702038D01*
X-31597556Y-110639963D01*
X-32659631Y-111702037D01*
X-34071016Y-111702037D01*
X-35133090Y-110639963D01*
X-36195165Y-111702038D01*
X-37606549Y-111702038D01*
X-38668624Y-110639963D01*
X-39730699Y-111702038D01*
X-41142083Y-111702038D01*
X-42204158Y-110639963D01*
X-42696794Y-111132599D01*
X-43866719Y-111132599D01*
X-44013260Y-110832844D01*
X-44017376Y-110823459D01*
X-44163102Y-110449999D01*
X-44166430Y-110440306D01*
X-44280818Y-110056082D01*
X-44283334Y-110046146D01*
X-44306792Y-109934271D01*
X-41498466Y-109934271D01*
X-40436391Y-110996346D01*
X-39374316Y-109934271D01*
X-37962932Y-109934271D01*
X-36900857Y-110996345D01*
X-35838782Y-109934271D01*
X-34427398Y-109934271D01*
X-33365323Y-110996345D01*
X-32303248Y-109934271D01*
X-30891864Y-109934271D01*
X-29829789Y-110996345D01*
X-28912228Y-110078784D01*
X-28845921Y-109856063D01*
X-29829789Y-108872195D01*
X-30891864Y-109934271D01*
X-32303248Y-109934271D01*
X-33365323Y-108872196D01*
X-34427398Y-109934271D01*
X-35838782Y-109934271D01*
X-36900857Y-108872196D01*
X-37962932Y-109934271D01*
X-39374316Y-109934271D01*
X-40436391Y-108872196D01*
X-41498466Y-109934271D01*
X-44306792Y-109934271D01*
X-44365600Y-109653798D01*
X-44367287Y-109643690D01*
X-44416876Y-109245876D01*
X-44417722Y-109235662D01*
X-44434394Y-108832562D01*
X-44434500Y-108827438D01*
X-44434500Y-108166504D01*
X-43266233Y-108166504D01*
X-42204158Y-109228579D01*
X-41142083Y-108166504D01*
X-39730699Y-108166504D01*
X-38668624Y-109228579D01*
X-37606549Y-108166504D01*
X-36195165Y-108166504D01*
X-35133090Y-109228578D01*
X-34071015Y-108166504D01*
X-32659631Y-108166504D01*
X-31597556Y-109228578D01*
X-30535482Y-108166504D01*
X-31597556Y-107104429D01*
X-32659631Y-108166504D01*
X-34071015Y-108166504D01*
X-35133090Y-107104429D01*
X-36195165Y-108166504D01*
X-37606549Y-108166504D01*
X-38668624Y-107104429D01*
X-39730699Y-108166504D01*
X-41142083Y-108166504D01*
X-42204158Y-107104429D01*
X-43266233Y-108166504D01*
X-44434500Y-108166504D01*
X-44434500Y-106398737D01*
X-41498466Y-106398737D01*
X-40436391Y-107460812D01*
X-39374316Y-106398737D01*
X-37962932Y-106398737D01*
X-36900857Y-107460811D01*
X-35838782Y-106398737D01*
X-34427398Y-106398737D01*
X-33365323Y-107460811D01*
X-32303248Y-106398737D01*
X-30891864Y-106398737D01*
X-29829789Y-107460811D01*
X-28767715Y-106398737D01*
X-29829789Y-105336662D01*
X-30891864Y-106398737D01*
X-32303248Y-106398737D01*
X-33365323Y-105336662D01*
X-34427398Y-106398737D01*
X-35838782Y-106398737D01*
X-36900857Y-105336662D01*
X-37962932Y-106398737D01*
X-39374316Y-106398737D01*
X-40436391Y-105336662D01*
X-41498466Y-106398737D01*
X-44434500Y-106398737D01*
X-44434500Y-104630970D01*
X-43266233Y-104630970D01*
X-42204158Y-105693045D01*
X-41142083Y-104630970D01*
X-39730699Y-104630970D01*
X-38668624Y-105693045D01*
X-37606549Y-104630970D01*
X-36195165Y-104630970D01*
X-35133090Y-105693044D01*
X-34071015Y-104630970D01*
X-32659631Y-104630970D01*
X-31597556Y-105693044D01*
X-30535482Y-104630970D01*
X-31597556Y-103568895D01*
X-32659631Y-104630970D01*
X-34071015Y-104630970D01*
X-35133090Y-103568895D01*
X-36195165Y-104630970D01*
X-37606549Y-104630970D01*
X-38668624Y-103568895D01*
X-39730699Y-104630970D01*
X-41142083Y-104630970D01*
X-42204158Y-103568895D01*
X-43266233Y-104630970D01*
X-44434500Y-104630970D01*
X-44434500Y-102863203D01*
X-41498466Y-102863203D01*
X-40436391Y-103925278D01*
X-39374316Y-102863203D01*
X-37962932Y-102863203D01*
X-36900857Y-103925277D01*
X-35838782Y-102863203D01*
X-34427398Y-102863203D01*
X-33365323Y-103925277D01*
X-32303248Y-102863203D01*
X-30891864Y-102863203D01*
X-29829789Y-103925277D01*
X-28767715Y-102863203D01*
X-29829789Y-101801128D01*
X-30891864Y-102863203D01*
X-32303248Y-102863203D01*
X-33365323Y-101801128D01*
X-34427398Y-102863203D01*
X-35838782Y-102863203D01*
X-36900857Y-101801128D01*
X-37962932Y-102863203D01*
X-39374316Y-102863203D01*
X-40436391Y-101801128D01*
X-41498466Y-102863203D01*
X-44434500Y-102863203D01*
X-44434500Y-101095436D01*
X-43266233Y-101095436D01*
X-42204158Y-102157511D01*
X-41142083Y-101095436D01*
X-39730699Y-101095436D01*
X-38668624Y-102157511D01*
X-37606549Y-101095436D01*
X-36195165Y-101095436D01*
X-35133090Y-102157510D01*
X-34071015Y-101095436D01*
X-32659631Y-101095436D01*
X-31597556Y-102157510D01*
X-30535482Y-101095436D01*
X-31597556Y-100033361D01*
X-32659631Y-101095436D01*
X-34071015Y-101095436D01*
X-35133090Y-100033361D01*
X-36195165Y-101095436D01*
X-37606549Y-101095436D01*
X-38668624Y-100033361D01*
X-39730699Y-101095436D01*
X-41142083Y-101095436D01*
X-42204158Y-100033361D01*
X-43266233Y-101095436D01*
X-44434500Y-101095436D01*
X-44434500Y-99327669D01*
X-41498466Y-99327669D01*
X-40436391Y-100389744D01*
X-39374316Y-99327669D01*
X-37962932Y-99327669D01*
X-36900857Y-100389743D01*
X-35838782Y-99327669D01*
X-34427398Y-99327669D01*
X-33365323Y-100389743D01*
X-32303248Y-99327669D01*
X-30891864Y-99327669D01*
X-29829789Y-100389743D01*
X-28767715Y-99327669D01*
X-29829789Y-98265594D01*
X-30891864Y-99327669D01*
X-32303248Y-99327669D01*
X-33365323Y-98265594D01*
X-34427398Y-99327669D01*
X-35838782Y-99327669D01*
X-36900857Y-98265594D01*
X-37962932Y-99327669D01*
X-39374316Y-99327669D01*
X-40436391Y-98265594D01*
X-41498466Y-99327669D01*
X-44434500Y-99327669D01*
X-44434500Y-97559902D01*
X-43266233Y-97559902D01*
X-42204158Y-98621977D01*
X-41142083Y-97559902D01*
X-39730699Y-97559902D01*
X-38668624Y-98621977D01*
X-37606549Y-97559902D01*
X-36195165Y-97559902D01*
X-35133090Y-98621976D01*
X-34071015Y-97559902D01*
X-32659631Y-97559902D01*
X-31597556Y-98621976D01*
X-30535482Y-97559902D01*
X-31597556Y-96497827D01*
X-32659631Y-97559902D01*
X-34071015Y-97559902D01*
X-35133090Y-96497827D01*
X-36195165Y-97559902D01*
X-37606549Y-97559902D01*
X-38668624Y-96497827D01*
X-39730699Y-97559902D01*
X-41142083Y-97559902D01*
X-42204158Y-96497827D01*
X-43266233Y-97559902D01*
X-44434500Y-97559902D01*
X-44434500Y-95792135D01*
X-41498466Y-95792135D01*
X-40436391Y-96854210D01*
X-39374316Y-95792135D01*
X-37962932Y-95792135D01*
X-36900857Y-96854209D01*
X-35838782Y-95792135D01*
X-34427398Y-95792135D01*
X-33365323Y-96854209D01*
X-32303248Y-95792135D01*
X-30891864Y-95792135D01*
X-29829789Y-96854209D01*
X-28767715Y-95792135D01*
X-29829789Y-94730060D01*
X-30891864Y-95792135D01*
X-32303248Y-95792135D01*
X-33365323Y-94730060D01*
X-34427398Y-95792135D01*
X-35838782Y-95792135D01*
X-36900857Y-94730060D01*
X-37962932Y-95792135D01*
X-39374316Y-95792135D01*
X-40436391Y-94730060D01*
X-41498466Y-95792135D01*
X-44434500Y-95792135D01*
X-44434500Y-94024368D01*
X-43266232Y-94024368D01*
X-42204158Y-95086443D01*
X-41142083Y-94024368D01*
X-39730698Y-94024368D01*
X-38668624Y-95086443D01*
X-37606549Y-94024368D01*
X-32659631Y-94024368D01*
X-31597556Y-95086442D01*
X-30535482Y-94024368D01*
X-31597556Y-92962293D01*
X-32659631Y-94024368D01*
X-37606549Y-94024368D01*
X-38668624Y-92962293D01*
X-39730698Y-94024368D01*
X-41142083Y-94024368D01*
X-42204158Y-92962293D01*
X-43266232Y-94024368D01*
X-44434500Y-94024368D01*
X-44434500Y-92256601D01*
X-41498465Y-92256601D01*
X-40436391Y-93318676D01*
X-39374316Y-92256601D01*
X-37962931Y-92256601D01*
X-36900857Y-93318675D01*
X-35838782Y-92256601D01*
X-34427397Y-92256601D01*
X-33365323Y-93318675D01*
X-32303248Y-92256601D01*
X-30891864Y-92256601D01*
X-29829789Y-93318675D01*
X-28767715Y-92256601D01*
X-29829789Y-91194526D01*
X-30891864Y-92256601D01*
X-32303248Y-92256601D01*
X-33365323Y-91194526D01*
X-34427397Y-92256601D01*
X-35838782Y-92256601D01*
X-36900857Y-91194526D01*
X-37962931Y-92256601D01*
X-39374316Y-92256601D01*
X-40436391Y-91194526D01*
X-41498465Y-92256601D01*
X-44434500Y-92256601D01*
X-44434500Y-90923169D01*
X-42831897Y-90923169D01*
X-42204158Y-91550909D01*
X-41142082Y-90488834D01*
X-39730698Y-90488834D01*
X-38668624Y-91550909D01*
X-37606549Y-90488834D01*
X-36195164Y-90488834D01*
X-35133090Y-91550909D01*
X-34071015Y-90488834D01*
X-32659631Y-90488834D01*
X-31597556Y-91550909D01*
X-30535482Y-90488834D01*
X-31597556Y-89426760D01*
X-32659631Y-90488834D01*
X-34071015Y-90488834D01*
X-35133090Y-89426760D01*
X-36195164Y-90488834D01*
X-37606549Y-90488834D01*
X-38668624Y-89426760D01*
X-39730698Y-90488834D01*
X-41142082Y-90488834D01*
X-41416762Y-90214154D01*
X-41419934Y-90218159D01*
X-41442070Y-90244816D01*
X-41445829Y-90249135D01*
X-41476900Y-90283219D01*
X-41480857Y-90287363D01*
X-41505366Y-90311872D01*
X-41509509Y-90315828D01*
X-41684043Y-90474937D01*
X-41688363Y-90478697D01*
X-41715020Y-90500833D01*
X-41719509Y-90504389D01*
X-41756314Y-90532184D01*
X-41760967Y-90535531D01*
X-41789564Y-90555120D01*
X-41794362Y-90558247D01*
X-41995157Y-90682574D01*
X-42000091Y-90685473D01*
X-42030350Y-90702329D01*
X-42035418Y-90705001D01*
X-42076704Y-90725561D01*
X-42081893Y-90727997D01*
X-42113615Y-90742004D01*
X-42118908Y-90744197D01*
X-42339135Y-90829513D01*
X-42344520Y-90831457D01*
X-42377361Y-90842465D01*
X-42382831Y-90844159D01*
X-42427189Y-90856782D01*
X-42432735Y-90858223D01*
X-42466486Y-90866162D01*
X-42472094Y-90867345D01*
X-42704255Y-90910744D01*
X-42709909Y-90911666D01*
X-42744233Y-90916454D01*
X-42749922Y-90917114D01*
X-42795848Y-90921370D01*
X-42801562Y-90921767D01*
X-42831897Y-90923169D01*
X-44434500Y-90923169D01*
X-44434500Y-90408125D01*
X-44433439Y-90391939D01*
X-44420462Y-90293375D01*
X-44412084Y-90262109D01*
X-44377177Y-90177834D01*
X-44360991Y-90149798D01*
X-44360988Y-90149795D01*
X-44337087Y-90118646D01*
X-44305458Y-90077428D01*
X-44282571Y-90054541D01*
X-44218519Y-90005391D01*
X-44210197Y-89999005D01*
X-44182168Y-89982823D01*
X-44142649Y-89966454D01*
X-44097890Y-89947915D01*
X-44066623Y-89939537D01*
X-43968059Y-89926561D01*
X-43951874Y-89925500D01*
X-42864975Y-89925500D01*
X-42864973Y-89925500D01*
X-42678156Y-89890577D01*
X-42500937Y-89821922D01*
X-42339351Y-89721872D01*
X-42198900Y-89593834D01*
X-42084367Y-89442169D01*
X-42076694Y-89426759D01*
X-41999653Y-89272042D01*
X-41947642Y-89089239D01*
X-41930107Y-88900000D01*
X-41930107Y-88899999D01*
X-41947642Y-88710760D01*
X-41999653Y-88527957D01*
X-42084367Y-88357830D01*
X-42157725Y-88260689D01*
X-41038087Y-88260689D01*
X-40981430Y-88459823D01*
X-40979991Y-88465366D01*
X-40972059Y-88499091D01*
X-40970877Y-88504692D01*
X-40962401Y-88550027D01*
X-40961478Y-88555685D01*
X-40956689Y-88590017D01*
X-40956029Y-88595707D01*
X-40934237Y-88830878D01*
X-40933840Y-88836591D01*
X-40932239Y-88871211D01*
X-40932107Y-88876939D01*
X-40932107Y-88923061D01*
X-40932239Y-88928789D01*
X-40933840Y-88963409D01*
X-40934237Y-88969122D01*
X-40956029Y-89204293D01*
X-40956689Y-89209983D01*
X-40961478Y-89244315D01*
X-40962401Y-89249973D01*
X-40963528Y-89256004D01*
X-40436390Y-89783142D01*
X-39374316Y-88721067D01*
X-37962931Y-88721067D01*
X-36900857Y-89783142D01*
X-35838782Y-88721067D01*
X-34427397Y-88721067D01*
X-33365323Y-89783142D01*
X-32303248Y-88721067D01*
X-33358483Y-87665831D01*
X-33395959Y-87690172D01*
X-33397362Y-87691032D01*
X-34427397Y-88721067D01*
X-35838782Y-88721067D01*
X-36900857Y-87658993D01*
X-37962931Y-88721067D01*
X-39374316Y-88721067D01*
X-40436391Y-87658993D01*
X-41038087Y-88260689D01*
X-42157725Y-88260689D01*
X-42198901Y-88206164D01*
X-42339349Y-88078129D01*
X-42500938Y-87978077D01*
X-42500942Y-87978075D01*
X-42630822Y-87927760D01*
X-42678156Y-87909423D01*
X-42864973Y-87874500D01*
X-42864975Y-87874500D01*
X-43951874Y-87874500D01*
X-43968058Y-87873439D01*
X-43979263Y-87871964D01*
X-44066624Y-87860462D01*
X-44097890Y-87852084D01*
X-44182165Y-87817177D01*
X-44210201Y-87800991D01*
X-44282571Y-87745458D01*
X-44305458Y-87722571D01*
X-44360991Y-87650201D01*
X-44377177Y-87622165D01*
X-44412084Y-87537890D01*
X-44420462Y-87506624D01*
X-44433439Y-87408060D01*
X-44434500Y-87391874D01*
X-44434500Y-86908125D01*
X-44433439Y-86891939D01*
X-44432988Y-86888518D01*
X-44427312Y-86845399D01*
X-44420462Y-86793375D01*
X-44412084Y-86762109D01*
X-44377177Y-86677834D01*
X-44360991Y-86649798D01*
X-44360988Y-86649795D01*
X-44332414Y-86612557D01*
X-44305458Y-86577428D01*
X-44282571Y-86554541D01*
X-44220019Y-86506542D01*
X-44210197Y-86499005D01*
X-44182168Y-86482823D01*
X-44128269Y-86460498D01*
X-44097890Y-86447915D01*
X-44066623Y-86439537D01*
X-43968059Y-86426561D01*
X-43951874Y-86425500D01*
X-43951715Y-86425500D01*
X-39699217Y-86425500D01*
X-39632178Y-86445185D01*
X-39595143Y-86484944D01*
X-39594332Y-86484379D01*
X-39590472Y-86489913D01*
X-39590471Y-86489916D01*
X-39491195Y-86632259D01*
X-39363436Y-86749712D01*
X-39213265Y-86836693D01*
X-39047814Y-86889070D01*
X-38874945Y-86904356D01*
X-38816996Y-86896768D01*
X-38702876Y-86881825D01*
X-38702871Y-86881824D01*
X-38673141Y-86871019D01*
X-38539766Y-86822545D01*
X-38393380Y-86729334D01*
X-38270666Y-86606620D01*
X-38177455Y-86460234D01*
X-38174545Y-86452228D01*
X-38118175Y-86297128D01*
X-38118174Y-86297123D01*
X-38095644Y-86125061D01*
X-38095644Y-86125049D01*
X-38110929Y-85952187D01*
X-38163306Y-85786737D01*
X-38192022Y-85737160D01*
X-38250288Y-85636564D01*
X-38267500Y-85617842D01*
X-38367740Y-85508805D01*
X-38487185Y-85425500D01*
X-38510084Y-85409529D01*
X-38510086Y-85409528D01*
X-38515621Y-85405668D01*
X-38514910Y-85404649D01*
X-38559358Y-85360162D01*
X-38574500Y-85300783D01*
X-38574500Y-84799102D01*
X-37576500Y-84799102D01*
X-37576500Y-84894866D01*
X-37497141Y-84981190D01*
X-37492700Y-84986294D01*
X-37466671Y-85017907D01*
X-37462512Y-85023249D01*
X-37430209Y-85067163D01*
X-37426347Y-85072725D01*
X-37403907Y-85107005D01*
X-37400354Y-85112770D01*
X-37286051Y-85310114D01*
X-37282821Y-85316059D01*
X-37264260Y-85352561D01*
X-37261357Y-85358677D01*
X-37239337Y-85408546D01*
X-37236773Y-85414811D01*
X-37222293Y-85453139D01*
X-37220073Y-85459538D01*
X-37151242Y-85676966D01*
X-37149376Y-85683474D01*
X-37139164Y-85723139D01*
X-37137656Y-85729736D01*
X-37126965Y-85783189D01*
X-37125819Y-85789862D01*
X-37119990Y-85830405D01*
X-37119210Y-85837129D01*
X-37100573Y-86047891D01*
X-36900856Y-86247608D01*
X-35838782Y-85185533D01*
X-36900857Y-84123459D01*
X-37576500Y-84799102D01*
X-38574500Y-84799102D01*
X-38574500Y-83417766D01*
X-36195164Y-83417766D01*
X-35280294Y-84332636D01*
X-35256645Y-84291676D01*
X-35253836Y-84287048D01*
X-35236236Y-84259424D01*
X-35233229Y-84254924D01*
X-35208244Y-84219246D01*
X-35205045Y-84214884D01*
X-35185134Y-84188938D01*
X-35181752Y-84184724D01*
X-35038421Y-84013907D01*
X-35034851Y-84009837D01*
X-35012738Y-83985706D01*
X-35008999Y-83981800D01*
X-34978199Y-83951000D01*
X-34974293Y-83947261D01*
X-34950162Y-83925148D01*
X-34946092Y-83921578D01*
X-34775275Y-83778247D01*
X-34771061Y-83774865D01*
X-34745115Y-83754954D01*
X-34740753Y-83751755D01*
X-34705075Y-83726770D01*
X-34700575Y-83723763D01*
X-34672951Y-83706163D01*
X-34668322Y-83703354D01*
X-34475186Y-83591846D01*
X-34470440Y-83589242D01*
X-34441397Y-83574124D01*
X-34436544Y-83571731D01*
X-34397067Y-83553324D01*
X-34392116Y-83551146D01*
X-34361888Y-83538626D01*
X-34356849Y-83536666D01*
X-34147297Y-83460394D01*
X-34142172Y-83458655D01*
X-34110940Y-83448808D01*
X-34105743Y-83447293D01*
X-34098638Y-83445389D01*
X-34071015Y-83417766D01*
X-34112281Y-83376500D01*
X-32618364Y-83376500D01*
X-30576749Y-83376500D01*
X-29082831Y-83376500D01*
X-27041215Y-83376500D01*
X-25547297Y-83376500D01*
X-23505681Y-83376500D01*
X-22011763Y-83376500D01*
X-21348495Y-83376500D01*
X-21343086Y-83376618D01*
X-21310379Y-83378046D01*
X-21304976Y-83378400D01*
X-21261583Y-83382198D01*
X-21256209Y-83382787D01*
X-21223769Y-83387058D01*
X-21218423Y-83387881D01*
X-20998827Y-83426601D01*
X-20993524Y-83427656D01*
X-20961584Y-83434736D01*
X-20956331Y-83436021D01*
X-20914256Y-83447293D01*
X-20909058Y-83448808D01*
X-20877826Y-83458655D01*
X-20872701Y-83460394D01*
X-20663149Y-83536666D01*
X-20658110Y-83538626D01*
X-20627882Y-83551146D01*
X-20622931Y-83553324D01*
X-20583454Y-83571731D01*
X-20578601Y-83574124D01*
X-20549558Y-83589242D01*
X-20544812Y-83591846D01*
X-20351676Y-83703354D01*
X-20347047Y-83706163D01*
X-20319423Y-83723763D01*
X-20314923Y-83726770D01*
X-20279245Y-83751755D01*
X-20274883Y-83754954D01*
X-20269894Y-83758781D01*
X-19928880Y-83417767D01*
X-19928881Y-83417766D01*
X-14981961Y-83417766D01*
X-14980327Y-83419399D01*
X-14801575Y-83387881D01*
X-14796229Y-83387058D01*
X-14763789Y-83382787D01*
X-14758415Y-83382198D01*
X-14715022Y-83378400D01*
X-14709619Y-83378046D01*
X-14676912Y-83376618D01*
X-14671503Y-83376500D01*
X-12899079Y-83376500D01*
X-11405161Y-83376500D01*
X-9363545Y-83376500D01*
X-7869627Y-83376500D01*
X-5828011Y-83376500D01*
X-4334093Y-83376500D01*
X-3712403Y-83376500D01*
X-3706994Y-83376618D01*
X-3674287Y-83378046D01*
X-3668884Y-83378400D01*
X-3625491Y-83382198D01*
X-3620117Y-83382787D01*
X-3587677Y-83387058D01*
X-3582331Y-83387881D01*
X-3362735Y-83426601D01*
X-3357432Y-83427656D01*
X-3325492Y-83434736D01*
X-3320239Y-83436021D01*
X-3278164Y-83447293D01*
X-3272966Y-83448808D01*
X-3241734Y-83458655D01*
X-3236609Y-83460394D01*
X-3027057Y-83536666D01*
X-3022018Y-83538626D01*
X-2991790Y-83551146D01*
X-2986839Y-83553324D01*
X-2947362Y-83571731D01*
X-2942509Y-83574124D01*
X-2913466Y-83589242D01*
X-2908720Y-83591846D01*
X-2715584Y-83703354D01*
X-2710955Y-83706163D01*
X-2683331Y-83723763D01*
X-2678831Y-83726770D01*
X-2643153Y-83751755D01*
X-2638791Y-83754954D01*
X-2612845Y-83774865D01*
X-2610327Y-83776884D01*
X-2251210Y-83417767D01*
X-839826Y-83417767D01*
X222248Y-84479841D01*
X1052592Y-83649498D01*
X1052592Y-83186035D01*
X222249Y-82355692D01*
X-839826Y-83417767D01*
X-2251210Y-83417767D01*
X-3313285Y-82355692D01*
X-4334093Y-83376500D01*
X-5828011Y-83376500D01*
X-6848819Y-82355692D01*
X-7869627Y-83376500D01*
X-9363545Y-83376500D01*
X-10384353Y-82355692D01*
X-11405161Y-83376500D01*
X-12899079Y-83376500D01*
X-13919887Y-82355692D01*
X-14981961Y-83417766D01*
X-19928881Y-83417766D01*
X-20970723Y-82375924D01*
X-15351503Y-82375924D01*
X-14625579Y-81650000D01*
X-13214195Y-81650000D01*
X-12152120Y-82712075D01*
X-11090045Y-81650000D01*
X-9678661Y-81650000D01*
X-8616586Y-82712075D01*
X-7554511Y-81650000D01*
X-6143127Y-81650000D01*
X-5081052Y-82712075D01*
X-4018977Y-81650000D01*
X-2607593Y-81650000D01*
X-1545518Y-82712075D01*
X-483443Y-81650000D01*
X-1545518Y-80587925D01*
X-2607593Y-81650000D01*
X-4018977Y-81650000D01*
X-5081052Y-80587925D01*
X-6143127Y-81650000D01*
X-7554511Y-81650000D01*
X-8616586Y-80587925D01*
X-9678661Y-81650000D01*
X-11090045Y-81650000D01*
X-12152120Y-80587925D01*
X-13214195Y-81650000D01*
X-14625579Y-81650000D01*
X-14625578Y-81649999D01*
X-15314304Y-80961273D01*
X-15270548Y-81152982D01*
X-15268219Y-81166691D01*
X-15236780Y-81445719D01*
X-15236000Y-81459603D01*
X-15236000Y-81740397D01*
X-15236780Y-81754281D01*
X-15268219Y-82033309D01*
X-15270548Y-82047018D01*
X-15333031Y-82320772D01*
X-15336880Y-82334133D01*
X-15351503Y-82375924D01*
X-20970723Y-82375924D01*
X-20990955Y-82355692D01*
X-22011763Y-83376500D01*
X-23505681Y-83376500D01*
X-24526489Y-82355692D01*
X-25547297Y-83376500D01*
X-27041215Y-83376500D01*
X-28062023Y-82355692D01*
X-29082831Y-83376500D01*
X-30576749Y-83376500D01*
X-31597556Y-82355692D01*
X-32618364Y-83376500D01*
X-34112281Y-83376500D01*
X-35133090Y-82355692D01*
X-36195164Y-83417766D01*
X-38574500Y-83417766D01*
X-38574500Y-81263568D01*
X-37576500Y-81263568D01*
X-37576500Y-82036432D01*
X-36900857Y-82712074D01*
X-35838782Y-81650000D01*
X-34427398Y-81650000D01*
X-33365323Y-82712074D01*
X-32303248Y-81650000D01*
X-30891864Y-81650000D01*
X-29829789Y-82712074D01*
X-28767715Y-81650000D01*
X-27356331Y-81650000D01*
X-26294256Y-82712075D01*
X-25232181Y-81650000D01*
X-23820797Y-81650000D01*
X-22758722Y-82712075D01*
X-21696647Y-81650000D01*
X-22758722Y-80587925D01*
X-23820797Y-81650000D01*
X-25232181Y-81650000D01*
X-26294256Y-80587925D01*
X-27356331Y-81650000D01*
X-28767715Y-81650000D01*
X-29829789Y-80587925D01*
X-30891864Y-81650000D01*
X-32303248Y-81650000D01*
X-33365323Y-80587925D01*
X-34427398Y-81650000D01*
X-35838782Y-81650000D01*
X-36900857Y-80587925D01*
X-37576500Y-81263568D01*
X-38574500Y-81263568D01*
X-38574500Y-79882233D01*
X-36195165Y-79882233D01*
X-35133090Y-80944307D01*
X-34112283Y-79923500D01*
X-32618364Y-79923500D01*
X-31597556Y-80944307D01*
X-30576749Y-79923500D01*
X-29082831Y-79923500D01*
X-28062023Y-80944308D01*
X-27041215Y-79923500D01*
X-25547297Y-79923500D01*
X-24526489Y-80944308D01*
X-23505681Y-79923500D01*
X-22011763Y-79923500D01*
X-20990955Y-80944308D01*
X-19928880Y-79882233D01*
X-14981962Y-79882233D01*
X-13919887Y-80944308D01*
X-12899079Y-79923500D01*
X-11405161Y-79923500D01*
X-10384353Y-80944308D01*
X-9363545Y-79923500D01*
X-7869627Y-79923500D01*
X-6848819Y-80944308D01*
X-5828011Y-79923500D01*
X-4334093Y-79923500D01*
X-3313285Y-80944308D01*
X-2251210Y-79882233D01*
X-839826Y-79882233D01*
X222248Y-80944307D01*
X1052592Y-80113964D01*
X1052592Y-79650501D01*
X222249Y-78820158D01*
X-839826Y-79882233D01*
X-2251210Y-79882233D01*
X-2251209Y-79882232D01*
X-2610328Y-79523114D01*
X-2612846Y-79525135D01*
X-2638792Y-79545046D01*
X-2643154Y-79548245D01*
X-2678832Y-79573230D01*
X-2683332Y-79576237D01*
X-2710956Y-79593837D01*
X-2715585Y-79596646D01*
X-2908721Y-79708154D01*
X-2913467Y-79710758D01*
X-2942510Y-79725876D01*
X-2947363Y-79728269D01*
X-2986840Y-79746676D01*
X-2991791Y-79748854D01*
X-3022019Y-79761374D01*
X-3027058Y-79763334D01*
X-3236610Y-79839606D01*
X-3241735Y-79841345D01*
X-3272967Y-79851192D01*
X-3278165Y-79852707D01*
X-3320240Y-79863979D01*
X-3325493Y-79865264D01*
X-3357433Y-79872344D01*
X-3362736Y-79873399D01*
X-3582332Y-79912119D01*
X-3587678Y-79912942D01*
X-3620118Y-79917213D01*
X-3625492Y-79917802D01*
X-3668885Y-79921600D01*
X-3674288Y-79921954D01*
X-3706995Y-79923382D01*
X-3712404Y-79923500D01*
X-4334093Y-79923500D01*
X-5828011Y-79923500D01*
X-7869627Y-79923500D01*
X-9363545Y-79923500D01*
X-11405161Y-79923500D01*
X-12899079Y-79923500D01*
X-14671504Y-79923500D01*
X-14676913Y-79923382D01*
X-14709620Y-79921954D01*
X-14715023Y-79921600D01*
X-14758416Y-79917802D01*
X-14763790Y-79917213D01*
X-14796230Y-79912942D01*
X-14801576Y-79912119D01*
X-14980329Y-79880600D01*
X-14981962Y-79882233D01*
X-19928880Y-79882233D01*
X-19928879Y-79882232D01*
X-20269894Y-79541217D01*
X-20274884Y-79545046D01*
X-20279246Y-79548245D01*
X-20314924Y-79573230D01*
X-20319424Y-79576237D01*
X-20347048Y-79593837D01*
X-20351677Y-79596646D01*
X-20544813Y-79708154D01*
X-20549559Y-79710758D01*
X-20578602Y-79725876D01*
X-20583455Y-79728269D01*
X-20622932Y-79746676D01*
X-20627883Y-79748854D01*
X-20658111Y-79761374D01*
X-20663150Y-79763334D01*
X-20872702Y-79839606D01*
X-20877827Y-79841345D01*
X-20909059Y-79851192D01*
X-20914257Y-79852707D01*
X-20956332Y-79863979D01*
X-20961585Y-79865264D01*
X-20993525Y-79872344D01*
X-20998828Y-79873399D01*
X-21218424Y-79912119D01*
X-21223770Y-79912942D01*
X-21256210Y-79917213D01*
X-21261584Y-79917802D01*
X-21304977Y-79921600D01*
X-21310380Y-79921954D01*
X-21343087Y-79923382D01*
X-21348496Y-79923500D01*
X-22011763Y-79923500D01*
X-23505681Y-79923500D01*
X-25547297Y-79923500D01*
X-27041215Y-79923500D01*
X-29082831Y-79923500D01*
X-30576749Y-79923500D01*
X-32618364Y-79923500D01*
X-34112283Y-79923500D01*
X-34071016Y-79882233D01*
X-34098639Y-79854609D01*
X-34105742Y-79852707D01*
X-34110941Y-79851192D01*
X-34142173Y-79841345D01*
X-34147298Y-79839606D01*
X-34356850Y-79763334D01*
X-34361889Y-79761374D01*
X-34392117Y-79748854D01*
X-34397068Y-79746676D01*
X-34436545Y-79728269D01*
X-34441398Y-79725876D01*
X-34470441Y-79710758D01*
X-34475187Y-79708154D01*
X-34668323Y-79596646D01*
X-34672952Y-79593837D01*
X-34700576Y-79576237D01*
X-34705076Y-79573230D01*
X-34740754Y-79548245D01*
X-34745116Y-79545046D01*
X-34771062Y-79525135D01*
X-34775276Y-79521753D01*
X-34946093Y-79378422D01*
X-34950163Y-79374852D01*
X-34974294Y-79352739D01*
X-34978200Y-79349000D01*
X-35009000Y-79318200D01*
X-35012739Y-79314294D01*
X-35034852Y-79290163D01*
X-35038422Y-79286093D01*
X-35181753Y-79115276D01*
X-35185135Y-79111062D01*
X-35205046Y-79085116D01*
X-35208245Y-79080754D01*
X-35233230Y-79045076D01*
X-35236237Y-79040576D01*
X-35253837Y-79012952D01*
X-35256646Y-79008323D01*
X-35280294Y-78967362D01*
X-36195165Y-79882233D01*
X-38574500Y-79882233D01*
X-38574500Y-78413906D01*
X-37576500Y-78413906D01*
X-37576500Y-78500898D01*
X-36900857Y-79176540D01*
X-35838782Y-78114466D01*
X-36900857Y-77052391D01*
X-37084510Y-77236044D01*
X-37084505Y-77237667D01*
X-37084651Y-77244129D01*
X-37087181Y-77296112D01*
X-37087663Y-77302557D01*
X-37091596Y-77341460D01*
X-37092413Y-77347870D01*
X-37125723Y-77564058D01*
X-37126874Y-77570420D01*
X-37134839Y-77608724D01*
X-37136321Y-77615021D01*
X-37149559Y-77665351D01*
X-37151363Y-77671549D01*
X-37163258Y-77708777D01*
X-37165384Y-77714879D01*
X-37242715Y-77919471D01*
X-37245158Y-77925456D01*
X-37260869Y-77961259D01*
X-37263617Y-77967104D01*
X-37286982Y-78013606D01*
X-37290034Y-78019305D01*
X-37309390Y-78053288D01*
X-37312735Y-78058820D01*
X-37430749Y-78242984D01*
X-37434375Y-78248331D01*
X-37457156Y-78280107D01*
X-37461058Y-78285260D01*
X-37493544Y-78325918D01*
X-37497708Y-78330860D01*
X-37523678Y-78360099D01*
X-37528096Y-78364819D01*
X-37576500Y-78413906D01*
X-38574500Y-78413906D01*
X-38574500Y-78000415D01*
X-38554815Y-77933376D01*
X-38517072Y-77898946D01*
X-38518507Y-77896776D01*
X-38513099Y-77893202D01*
X-38513097Y-77893202D01*
X-38374026Y-77801310D01*
X-38256989Y-77682620D01*
X-38256954Y-77682566D01*
X-38167056Y-77542278D01*
X-38118673Y-77414273D01*
X-38108120Y-77386353D01*
X-38108119Y-77386352D01*
X-38108119Y-77386350D01*
X-38108119Y-77386349D01*
X-38082735Y-77221607D01*
X-38090793Y-77076931D01*
X-38092005Y-77055179D01*
X-38135523Y-76894272D01*
X-38135524Y-76894269D01*
X-38135525Y-76894267D01*
X-38211404Y-76745859D01*
X-38316366Y-76616366D01*
X-38445859Y-76511404D01*
X-38594267Y-76435525D01*
X-38594269Y-76435524D01*
X-38594272Y-76435523D01*
X-38755179Y-76392005D01*
X-38776931Y-76390793D01*
X-38921607Y-76382735D01*
X-39086349Y-76408119D01*
X-39086350Y-76408119D01*
X-39086352Y-76408119D01*
X-39086353Y-76408120D01*
X-39105756Y-76415454D01*
X-39242278Y-76467056D01*
X-39382616Y-76556986D01*
X-39382618Y-76556988D01*
X-39382620Y-76556989D01*
X-39501310Y-76674026D01*
X-39565668Y-76771427D01*
X-39596776Y-76818506D01*
X-39599200Y-76816903D01*
X-39638900Y-76858165D01*
X-39700416Y-76874500D01*
X-43951874Y-76874500D01*
X-43968058Y-76873439D01*
X-43985013Y-76871207D01*
X-44066624Y-76860462D01*
X-44097890Y-76852084D01*
X-44182165Y-76817177D01*
X-44210201Y-76800991D01*
X-44282571Y-76745458D01*
X-44305458Y-76722571D01*
X-44360991Y-76650201D01*
X-44377177Y-76622165D01*
X-44412084Y-76537890D01*
X-44420462Y-76506624D01*
X-44432465Y-76415455D01*
X-44433439Y-76408058D01*
X-44434500Y-76391874D01*
X-44434500Y-75908125D01*
X-44433439Y-75891939D01*
X-44420462Y-75793375D01*
X-44412084Y-75762109D01*
X-44377177Y-75677834D01*
X-44360991Y-75649798D01*
X-44360988Y-75649795D01*
X-44337087Y-75618646D01*
X-44305458Y-75577428D01*
X-44282571Y-75554541D01*
X-44245456Y-75526061D01*
X-44210197Y-75499005D01*
X-44182168Y-75482823D01*
X-44142649Y-75466454D01*
X-44097890Y-75447915D01*
X-44066623Y-75439537D01*
X-43968059Y-75426561D01*
X-43951874Y-75425500D01*
X-42864975Y-75425500D01*
X-42864973Y-75425500D01*
X-42678156Y-75390577D01*
X-42500937Y-75321922D01*
X-42339351Y-75221872D01*
X-42198900Y-75093834D01*
X-42157725Y-75039310D01*
X-41038086Y-75039310D01*
X-40436390Y-75641006D01*
X-39374316Y-74578932D01*
X-37962932Y-74578932D01*
X-36900857Y-75641006D01*
X-35838782Y-74578932D01*
X-35838783Y-74578931D01*
X-34427397Y-74578931D01*
X-33368973Y-75637355D01*
X-33364507Y-75640191D01*
X-32303248Y-74578932D01*
X-33365323Y-73516857D01*
X-34427397Y-74578931D01*
X-35838783Y-74578931D01*
X-36900857Y-73516857D01*
X-37962932Y-74578932D01*
X-39374316Y-74578932D01*
X-40436391Y-73516857D01*
X-40963528Y-74043994D01*
X-40962401Y-74050027D01*
X-40961478Y-74055685D01*
X-40956689Y-74090017D01*
X-40956029Y-74095707D01*
X-40934237Y-74330878D01*
X-40933840Y-74336591D01*
X-40932239Y-74371211D01*
X-40932107Y-74376939D01*
X-40932107Y-74423061D01*
X-40932239Y-74428789D01*
X-40933840Y-74463409D01*
X-40934237Y-74469122D01*
X-40956029Y-74704293D01*
X-40956689Y-74709983D01*
X-40961478Y-74744315D01*
X-40962401Y-74749973D01*
X-40970877Y-74795308D01*
X-40972059Y-74800909D01*
X-40979991Y-74834634D01*
X-40981430Y-74840177D01*
X-41038086Y-75039310D01*
X-42157725Y-75039310D01*
X-42084367Y-74942169D01*
X-42033581Y-74840177D01*
X-41999653Y-74772042D01*
X-41947642Y-74589239D01*
X-41930107Y-74400000D01*
X-41930107Y-74399999D01*
X-41947642Y-74210760D01*
X-41999653Y-74027957D01*
X-42084367Y-73857830D01*
X-42198901Y-73706164D01*
X-42339349Y-73578129D01*
X-42500938Y-73478077D01*
X-42500942Y-73478075D01*
X-42630822Y-73427760D01*
X-42678156Y-73409423D01*
X-42864973Y-73374500D01*
X-42864975Y-73374500D01*
X-43951874Y-73374500D01*
X-43968058Y-73373439D01*
X-43978244Y-73372098D01*
X-44066624Y-73360462D01*
X-44097890Y-73352084D01*
X-44182165Y-73317177D01*
X-44210201Y-73300991D01*
X-44282571Y-73245458D01*
X-44305458Y-73222571D01*
X-44360991Y-73150201D01*
X-44377177Y-73122165D01*
X-44412084Y-73037890D01*
X-44420462Y-73006624D01*
X-44433439Y-72908060D01*
X-44434500Y-72891874D01*
X-44434500Y-72376830D01*
X-42831898Y-72376830D01*
X-42801562Y-72378233D01*
X-42795848Y-72378630D01*
X-42749922Y-72382886D01*
X-42744233Y-72383546D01*
X-42709909Y-72388334D01*
X-42704255Y-72389256D01*
X-42472094Y-72432655D01*
X-42466486Y-72433838D01*
X-42432735Y-72441777D01*
X-42427189Y-72443218D01*
X-42382831Y-72455841D01*
X-42377361Y-72457535D01*
X-42344520Y-72468543D01*
X-42339135Y-72470487D01*
X-42118908Y-72555803D01*
X-42113615Y-72557996D01*
X-42081893Y-72572003D01*
X-42076704Y-72574439D01*
X-42035418Y-72594999D01*
X-42030350Y-72597671D01*
X-42000091Y-72614527D01*
X-41995157Y-72617426D01*
X-41794362Y-72741753D01*
X-41789564Y-72744880D01*
X-41760967Y-72764469D01*
X-41756314Y-72767816D01*
X-41719509Y-72795611D01*
X-41715020Y-72799167D01*
X-41688363Y-72821303D01*
X-41684043Y-72825063D01*
X-41509509Y-72984172D01*
X-41505366Y-72988128D01*
X-41480857Y-73012637D01*
X-41476900Y-73016781D01*
X-41445829Y-73050865D01*
X-41442070Y-73055184D01*
X-41419934Y-73081841D01*
X-41416762Y-73085844D01*
X-41142083Y-72811165D01*
X-39730699Y-72811165D01*
X-38668624Y-73873240D01*
X-37606549Y-72811165D01*
X-36195165Y-72811165D01*
X-35133090Y-73873239D01*
X-34071015Y-72811165D01*
X-32659631Y-72811165D01*
X-31597556Y-73873239D01*
X-30535482Y-72811165D01*
X-31597556Y-71749090D01*
X-32659631Y-72811165D01*
X-34071015Y-72811165D01*
X-35133090Y-71749090D01*
X-36195165Y-72811165D01*
X-37606549Y-72811165D01*
X-38668624Y-71749090D01*
X-39730699Y-72811165D01*
X-41142083Y-72811165D01*
X-42204158Y-71749090D01*
X-42831898Y-72376830D01*
X-44434500Y-72376830D01*
X-44434500Y-71043398D01*
X-41498466Y-71043398D01*
X-40436391Y-72105473D01*
X-39374316Y-71043398D01*
X-37962932Y-71043398D01*
X-36900857Y-72105472D01*
X-36012535Y-71217150D01*
X-36014633Y-71215627D01*
X-36029429Y-71202990D01*
X-36040812Y-71191607D01*
X-34279188Y-71191607D01*
X-33365322Y-72105472D01*
X-32303248Y-71043398D01*
X-30891864Y-71043398D01*
X-29829789Y-72105472D01*
X-28767715Y-71043398D01*
X-29829789Y-69981323D01*
X-30891864Y-71043398D01*
X-32303248Y-71043398D01*
X-33365323Y-69981323D01*
X-33863814Y-70479814D01*
X-33867075Y-70500399D01*
X-33871617Y-70519319D01*
X-33929985Y-70698958D01*
X-33937431Y-70716935D01*
X-34023183Y-70885232D01*
X-34033350Y-70901822D01*
X-34144373Y-71054633D01*
X-34157010Y-71069429D01*
X-34279188Y-71191607D01*
X-36040812Y-71191607D01*
X-36162990Y-71069429D01*
X-36175627Y-71054633D01*
X-36286650Y-70901822D01*
X-36296817Y-70885232D01*
X-36382569Y-70716935D01*
X-36390015Y-70698958D01*
X-36448383Y-70519319D01*
X-36452925Y-70500399D01*
X-36466313Y-70415866D01*
X-36900857Y-69981323D01*
X-37962932Y-71043398D01*
X-39374316Y-71043398D01*
X-40436391Y-69981323D01*
X-41498466Y-71043398D01*
X-44434500Y-71043398D01*
X-44434500Y-69275631D01*
X-43266233Y-69275631D01*
X-42204158Y-70337706D01*
X-41142083Y-69275631D01*
X-39730699Y-69275631D01*
X-38668624Y-70337706D01*
X-37606549Y-69275631D01*
X-37606550Y-69275630D01*
X-36195164Y-69275630D01*
X-36151607Y-69319188D01*
X-36029429Y-69197010D01*
X-36014633Y-69184373D01*
X-35861822Y-69073350D01*
X-35845232Y-69063183D01*
X-35676935Y-68977431D01*
X-35658958Y-68969985D01*
X-35479319Y-68911617D01*
X-35460399Y-68907075D01*
X-35273840Y-68877527D01*
X-35254442Y-68876000D01*
X-35065558Y-68876000D01*
X-35046160Y-68877527D01*
X-34859601Y-68907075D01*
X-34840681Y-68911617D01*
X-34661042Y-68969985D01*
X-34643065Y-68977431D01*
X-34474768Y-69063183D01*
X-34458178Y-69073350D01*
X-34305367Y-69184373D01*
X-34290571Y-69197010D01*
X-34157010Y-69330571D01*
X-34144373Y-69345366D01*
X-34142848Y-69347463D01*
X-34071016Y-69275631D01*
X-32659631Y-69275631D01*
X-31597556Y-70337705D01*
X-30535482Y-69275631D01*
X-31597556Y-68213556D01*
X-32659631Y-69275631D01*
X-34071016Y-69275631D01*
X-34071015Y-69275630D01*
X-35133090Y-68213556D01*
X-36195164Y-69275630D01*
X-37606550Y-69275630D01*
X-38668624Y-68213556D01*
X-39730699Y-69275631D01*
X-41142083Y-69275631D01*
X-42204158Y-68213556D01*
X-43266233Y-69275631D01*
X-44434500Y-69275631D01*
X-44434500Y-67507864D01*
X-41498466Y-67507864D01*
X-40436391Y-68569939D01*
X-39374316Y-67507864D01*
X-37962932Y-67507864D01*
X-36900857Y-68569938D01*
X-35838782Y-67507864D01*
X-34427398Y-67507864D01*
X-33365323Y-68569938D01*
X-32303248Y-67507864D01*
X-30891864Y-67507864D01*
X-29829789Y-68569938D01*
X-28767715Y-67507864D01*
X-29829789Y-66445789D01*
X-30891864Y-67507864D01*
X-32303248Y-67507864D01*
X-33365323Y-66445789D01*
X-34427398Y-67507864D01*
X-35838782Y-67507864D01*
X-36900857Y-66445789D01*
X-37962932Y-67507864D01*
X-39374316Y-67507864D01*
X-40436391Y-66445789D01*
X-41498466Y-67507864D01*
X-44434500Y-67507864D01*
X-44434500Y-65740097D01*
X-43266233Y-65740097D01*
X-42204158Y-66802172D01*
X-41142083Y-65740097D01*
X-39730699Y-65740097D01*
X-38668624Y-66802172D01*
X-37606549Y-65740097D01*
X-36195165Y-65740097D01*
X-35133090Y-66802171D01*
X-34071015Y-65740097D01*
X-32659631Y-65740097D01*
X-31597556Y-66802171D01*
X-30535482Y-65740097D01*
X-31597556Y-64678022D01*
X-32659631Y-65740097D01*
X-34071015Y-65740097D01*
X-35133090Y-64678022D01*
X-36195165Y-65740097D01*
X-37606549Y-65740097D01*
X-38668624Y-64678022D01*
X-39730699Y-65740097D01*
X-41142083Y-65740097D01*
X-42204158Y-64678022D01*
X-43266233Y-65740097D01*
X-44434500Y-65740097D01*
X-44434500Y-63972330D01*
X-41498466Y-63972330D01*
X-40436391Y-65034405D01*
X-39374316Y-63972330D01*
X-37962932Y-63972330D01*
X-36900857Y-65034404D01*
X-35838782Y-63972330D01*
X-34427398Y-63972330D01*
X-33365323Y-65034404D01*
X-32303248Y-63972330D01*
X-30891864Y-63972330D01*
X-29829789Y-65034404D01*
X-28767715Y-63972330D01*
X-29829789Y-62910255D01*
X-30891864Y-63972330D01*
X-32303248Y-63972330D01*
X-33365323Y-62910255D01*
X-34427398Y-63972330D01*
X-35838782Y-63972330D01*
X-36900857Y-62910255D01*
X-37962932Y-63972330D01*
X-39374316Y-63972330D01*
X-40436391Y-62910255D01*
X-41498466Y-63972330D01*
X-44434500Y-63972330D01*
X-44434500Y-62204563D01*
X-43266233Y-62204563D01*
X-42204158Y-63266638D01*
X-41142083Y-62204563D01*
X-39730699Y-62204563D01*
X-38668624Y-63266638D01*
X-37606549Y-62204563D01*
X-36195165Y-62204563D01*
X-35133090Y-63266637D01*
X-34071015Y-62204563D01*
X-32659631Y-62204563D01*
X-31597556Y-63266637D01*
X-30535482Y-62204563D01*
X-31597556Y-61142488D01*
X-32659631Y-62204563D01*
X-34071015Y-62204563D01*
X-35133090Y-61142488D01*
X-36195165Y-62204563D01*
X-37606549Y-62204563D01*
X-38668624Y-61142488D01*
X-39730699Y-62204563D01*
X-41142083Y-62204563D01*
X-42204158Y-61142488D01*
X-43266233Y-62204563D01*
X-44434500Y-62204563D01*
X-44434500Y-60436796D01*
X-41498466Y-60436796D01*
X-40436391Y-61498871D01*
X-39374316Y-60436796D01*
X-37962932Y-60436796D01*
X-36900857Y-61498870D01*
X-35838782Y-60436796D01*
X-34427398Y-60436796D01*
X-33365323Y-61498870D01*
X-32303248Y-60436796D01*
X-30891864Y-60436796D01*
X-29829789Y-61498870D01*
X-28767715Y-60436796D01*
X-29829789Y-59374721D01*
X-30891864Y-60436796D01*
X-32303248Y-60436796D01*
X-33365323Y-59374721D01*
X-34427398Y-60436796D01*
X-35838782Y-60436796D01*
X-36900857Y-59374721D01*
X-37962932Y-60436796D01*
X-39374316Y-60436796D01*
X-40436391Y-59374721D01*
X-41498466Y-60436796D01*
X-44434500Y-60436796D01*
X-44434500Y-58669029D01*
X-43266233Y-58669029D01*
X-42204158Y-59731104D01*
X-41142083Y-58669029D01*
X-39730699Y-58669029D01*
X-38668624Y-59731104D01*
X-37606549Y-58669029D01*
X-36195165Y-58669029D01*
X-35133090Y-59731103D01*
X-34071015Y-58669029D01*
X-32659631Y-58669029D01*
X-31597556Y-59731103D01*
X-30535482Y-58669029D01*
X-31597556Y-57606954D01*
X-32659631Y-58669029D01*
X-34071015Y-58669029D01*
X-35133090Y-57606954D01*
X-36195165Y-58669029D01*
X-37606549Y-58669029D01*
X-38668624Y-57606954D01*
X-39730699Y-58669029D01*
X-41142083Y-58669029D01*
X-42204158Y-57606954D01*
X-43266233Y-58669029D01*
X-44434500Y-58669029D01*
X-44434500Y-56901262D01*
X-41498465Y-56901262D01*
X-40436391Y-57963337D01*
X-39374316Y-56901262D01*
X-37962931Y-56901262D01*
X-36900857Y-57963336D01*
X-35838782Y-56901262D01*
X-34427397Y-56901262D01*
X-33365323Y-57963336D01*
X-32303248Y-56901262D01*
X-30891864Y-56901262D01*
X-29829789Y-57963336D01*
X-28767715Y-56901262D01*
X-29829789Y-55839187D01*
X-30891864Y-56901262D01*
X-32303248Y-56901262D01*
X-33365323Y-55839187D01*
X-34427397Y-56901262D01*
X-35838782Y-56901262D01*
X-36900857Y-55839187D01*
X-37962931Y-56901262D01*
X-39374316Y-56901262D01*
X-40436391Y-55839187D01*
X-41498465Y-56901262D01*
X-44434500Y-56901262D01*
X-44434500Y-55133495D01*
X-43266232Y-55133495D01*
X-42204158Y-56195570D01*
X-41142083Y-55133495D01*
X-39730698Y-55133495D01*
X-38668624Y-56195570D01*
X-37606549Y-55133495D01*
X-36195164Y-55133495D01*
X-35133090Y-56195569D01*
X-34071015Y-55133495D01*
X-32659631Y-55133495D01*
X-31597556Y-56195569D01*
X-30535482Y-55133495D01*
X-31597556Y-54071420D01*
X-32659631Y-55133495D01*
X-34071015Y-55133495D01*
X-35133090Y-54071420D01*
X-36195164Y-55133495D01*
X-37606549Y-55133495D01*
X-38668624Y-54071420D01*
X-39730698Y-55133495D01*
X-41142083Y-55133495D01*
X-42204158Y-54071420D01*
X-43266232Y-55133495D01*
X-44434500Y-55133495D01*
X-44434500Y-54472561D01*
X-44434394Y-54467437D01*
X-44417722Y-54064337D01*
X-44416876Y-54054123D01*
X-44367287Y-53656309D01*
X-44365600Y-53646201D01*
X-44306792Y-53365728D01*
X-41498465Y-53365728D01*
X-40436391Y-54427803D01*
X-39374316Y-53365728D01*
X-37962931Y-53365728D01*
X-36900857Y-54427802D01*
X-35838782Y-53365728D01*
X-34427397Y-53365728D01*
X-33365323Y-54427802D01*
X-32303248Y-53365728D01*
X-30891864Y-53365728D01*
X-29829789Y-54427802D01*
X-28845921Y-53443934D01*
X-28912227Y-53221214D01*
X-29829789Y-52303653D01*
X-30891864Y-53365728D01*
X-32303248Y-53365728D01*
X-33365323Y-52303653D01*
X-34427397Y-53365728D01*
X-35838782Y-53365728D01*
X-36900857Y-52303653D01*
X-37962931Y-53365728D01*
X-39374316Y-53365728D01*
X-40436391Y-52303653D01*
X-41498465Y-53365728D01*
X-44306792Y-53365728D01*
X-44283334Y-53253853D01*
X-44280818Y-53243917D01*
X-44166430Y-52859693D01*
X-44163102Y-52850000D01*
X-44017376Y-52476540D01*
X-44013260Y-52467155D01*
X-43866718Y-52167398D01*
X-42696795Y-52167398D01*
X-42204157Y-52660036D01*
X-41142082Y-51597961D01*
X-39730698Y-51597961D01*
X-38668624Y-52660036D01*
X-37606549Y-51597961D01*
X-36195164Y-51597961D01*
X-35133090Y-52660036D01*
X-34071016Y-51597962D01*
X-32659631Y-51597962D01*
X-31597556Y-52660036D01*
X-30535481Y-51597961D01*
X-31436215Y-50697227D01*
X-31684869Y-50623200D01*
X-32659631Y-51597962D01*
X-34071016Y-51597962D01*
X-34071015Y-51597961D01*
X-35133090Y-50535887D01*
X-36195164Y-51597961D01*
X-37606549Y-51597961D01*
X-38668624Y-50535887D01*
X-39730698Y-51597961D01*
X-41142082Y-51597961D01*
X-41611820Y-51128223D01*
X-41634475Y-51141723D01*
X-41901888Y-51332654D01*
X-42152643Y-51545031D01*
X-42384966Y-51777354D01*
X-42597343Y-52028109D01*
X-42696795Y-52167398D01*
X-43866718Y-52167398D01*
X-43837200Y-52107018D01*
X-43832322Y-52098005D01*
X-43627108Y-51753609D01*
X-43621502Y-51745028D01*
X-43388560Y-51418775D01*
X-43382266Y-51410688D01*
X-43123168Y-51104770D01*
X-43116226Y-51097230D01*
X-42832769Y-50813773D01*
X-42825229Y-50806831D01*
X-42519311Y-50547733D01*
X-42511224Y-50541439D01*
X-42280223Y-50376506D01*
X-42184965Y-50308493D01*
X-42176390Y-50302891D01*
X-41831994Y-50097677D01*
X-41822998Y-50092808D01*
X-41462830Y-49916732D01*
X-41453459Y-49912623D01*
X-41341039Y-49868756D01*
X-41079987Y-49766892D01*
X-41070319Y-49763573D01*
X-40686082Y-49649181D01*
X-40676146Y-49646665D01*
X-40283798Y-49564399D01*
X-40273690Y-49562712D01*
X-40257605Y-49560707D01*
X-39875855Y-49513121D01*
X-39865682Y-49512278D01*
X-39462562Y-49495605D01*
X-39457439Y-49495500D01*
X-39451715Y-49495500D01*
X-32693285Y-49495500D01*
X-32687561Y-49495500D01*
X-32682437Y-49495605D01*
X-32279315Y-49512278D01*
X-32269146Y-49513121D01*
X-31871305Y-49562712D01*
X-31861205Y-49564398D01*
X-31468848Y-49646666D01*
X-31458922Y-49649179D01*
X-31074672Y-49763575D01*
X-31065020Y-49766890D01*
X-30691540Y-49912623D01*
X-30682178Y-49916728D01*
X-30321991Y-50092813D01*
X-30313005Y-50097677D01*
X-29968602Y-50302895D01*
X-29960045Y-50308485D01*
X-29633769Y-50541443D01*
X-29625694Y-50547728D01*
X-29319757Y-50806842D01*
X-29312242Y-50813761D01*
X-29028761Y-51097242D01*
X-29021842Y-51104757D01*
X-28774804Y-51396436D01*
X-28762733Y-51410688D01*
X-28756443Y-51418769D01*
X-28523485Y-51745045D01*
X-28517895Y-51753602D01*
X-28433449Y-51895322D01*
X-28312677Y-52098005D01*
X-28307813Y-52106991D01*
X-28131728Y-52467178D01*
X-28127624Y-52476536D01*
X-27981890Y-52850020D01*
X-27978575Y-52859672D01*
X-27873097Y-53213970D01*
X-27864181Y-53243917D01*
X-27861666Y-53253848D01*
X-27795852Y-53567731D01*
X-27779399Y-53646201D01*
X-27777712Y-53656305D01*
X-27728121Y-54054146D01*
X-27727278Y-54064315D01*
X-27712245Y-54427802D01*
X-27710606Y-54467437D01*
X-27710500Y-54472561D01*
X-27710500Y-72891874D01*
X-27711561Y-72908059D01*
X-27724537Y-73006623D01*
X-27732915Y-73037890D01*
X-27748145Y-73074659D01*
X-27767823Y-73122167D01*
X-27784005Y-73150197D01*
X-27807910Y-73181350D01*
X-27839541Y-73222571D01*
X-27862428Y-73245458D01*
X-27899536Y-73273933D01*
X-27934800Y-73300992D01*
X-27962834Y-73317177D01*
X-28047109Y-73352084D01*
X-28078375Y-73360462D01*
X-28165208Y-73371894D01*
X-28176941Y-73373439D01*
X-28193126Y-73374500D01*
X-29176715Y-73374500D01*
X-29185000Y-73374500D01*
X-29280027Y-73374500D01*
X-29466844Y-73409423D01*
X-29531427Y-73434442D01*
X-29644057Y-73478075D01*
X-29644061Y-73478077D01*
X-29644063Y-73478078D01*
X-29805649Y-73578128D01*
X-29946100Y-73706166D01*
X-30060633Y-73857831D01*
X-30103339Y-73943597D01*
X-30145341Y-74027948D01*
X-30145347Y-74027960D01*
X-30197357Y-74210758D01*
X-30214893Y-74400000D01*
X-30197357Y-74589242D01*
X-30145347Y-74772040D01*
X-30060633Y-74942169D01*
X-29946100Y-75093834D01*
X-29805649Y-75221872D01*
X-29644063Y-75321922D01*
X-29466844Y-75390577D01*
X-29280027Y-75425500D01*
X-29195562Y-75425500D01*
X-28193285Y-75425500D01*
X-28193126Y-75425500D01*
X-28176940Y-75426561D01*
X-28078375Y-75439537D01*
X-28047109Y-75447915D01*
X-28036696Y-75452228D01*
X-27962828Y-75482825D01*
X-27934805Y-75499003D01*
X-27862433Y-75554537D01*
X-27862428Y-75554541D01*
X-27839543Y-75577426D01*
X-27784003Y-75649805D01*
X-27767825Y-75677828D01*
X-27748146Y-75725338D01*
X-27732915Y-75762109D01*
X-27724537Y-75793376D01*
X-27711561Y-75891940D01*
X-27710500Y-75908125D01*
X-27710500Y-76391874D01*
X-27711561Y-76408059D01*
X-27724537Y-76506623D01*
X-27732915Y-76537890D01*
X-27742580Y-76561224D01*
X-27767823Y-76622167D01*
X-27784005Y-76650197D01*
X-27806863Y-76679985D01*
X-27839541Y-76722571D01*
X-27862428Y-76745458D01*
X-27899536Y-76773933D01*
X-27934800Y-76800992D01*
X-27962834Y-76817177D01*
X-28047109Y-76852084D01*
X-28078375Y-76860462D01*
X-28164949Y-76871860D01*
X-28176933Y-76873438D01*
X-28193118Y-76874499D01*
X-33460193Y-76874499D01*
X-33527232Y-76854814D01*
X-33561433Y-76817539D01*
X-33563528Y-76818940D01*
X-33659252Y-76675758D01*
X-33659255Y-76675755D01*
X-33777838Y-76559934D01*
X-33777842Y-76559930D01*
X-33917767Y-76471080D01*
X-33917781Y-76471073D01*
X-34073028Y-76413012D01*
X-34073034Y-76413011D01*
X-34236935Y-76388238D01*
X-34236936Y-76388238D01*
X-34402422Y-76397823D01*
X-34562364Y-76441353D01*
X-34562365Y-76441353D01*
X-34562366Y-76441354D01*
X-34709884Y-76516957D01*
X-34709885Y-76516958D01*
X-34838624Y-76621375D01*
X-34886161Y-76679985D01*
X-34943043Y-76750116D01*
X-35018646Y-76897634D01*
X-35062177Y-77057578D01*
X-35071762Y-77223064D01*
X-35046989Y-77386965D01*
X-35046987Y-77386969D01*
X-35046987Y-77386971D01*
X-35038833Y-77408773D01*
X-34988924Y-77542225D01*
X-34900067Y-77682160D01*
X-34794881Y-77789854D01*
X-34786614Y-77798319D01*
X-34784244Y-77800745D01*
X-34646441Y-77892874D01*
X-34646436Y-77892875D01*
X-34641059Y-77896471D01*
X-34642595Y-77898769D01*
X-34601179Y-77938915D01*
X-34587014Y-77984490D01*
X-34586440Y-77984389D01*
X-34585645Y-77988897D01*
X-34585542Y-77989229D01*
X-34585500Y-77989707D01*
X-34585500Y-77989720D01*
X-34554341Y-78166433D01*
X-34492969Y-78335051D01*
X-34403249Y-78490450D01*
X-34287908Y-78627908D01*
X-34150450Y-78743249D01*
X-33995051Y-78832969D01*
X-33826433Y-78894341D01*
X-33649720Y-78925500D01*
X-33649718Y-78925500D01*
X-21370282Y-78925500D01*
X-21370280Y-78925500D01*
X-21193567Y-78894341D01*
X-21024949Y-78832969D01*
X-21024946Y-78832967D01*
X-21024945Y-78832967D01*
X-21024944Y-78832966D01*
X-20917122Y-78770715D01*
X-19629012Y-78770715D01*
X-19223187Y-79176540D01*
X-18161112Y-78114465D01*
X-18957299Y-77318278D01*
X-18959360Y-77339523D01*
X-18960147Y-77345906D01*
X-18992283Y-77560620D01*
X-18993400Y-77566957D01*
X-19001152Y-77605108D01*
X-19002597Y-77611380D01*
X-19015533Y-77661544D01*
X-19017300Y-77667727D01*
X-19028959Y-77704859D01*
X-19031044Y-77710945D01*
X-19106737Y-77914431D01*
X-19109136Y-77920401D01*
X-19124586Y-77956142D01*
X-19127293Y-77961983D01*
X-19150288Y-78008402D01*
X-19153290Y-78014087D01*
X-19172345Y-78048010D01*
X-19175639Y-78053534D01*
X-19291635Y-78237053D01*
X-19295214Y-78242402D01*
X-19317698Y-78274193D01*
X-19321550Y-78279349D01*
X-19353618Y-78320036D01*
X-19357728Y-78324982D01*
X-19383365Y-78354251D01*
X-19387726Y-78358977D01*
X-19525145Y-78500351D01*
X-19596666Y-78696850D01*
X-19598626Y-78701889D01*
X-19611146Y-78732117D01*
X-19613324Y-78737068D01*
X-19629012Y-78770715D01*
X-20917122Y-78770715D01*
X-20869556Y-78743253D01*
X-20869553Y-78743251D01*
X-20869550Y-78743249D01*
X-20732092Y-78627908D01*
X-20616751Y-78490450D01*
X-20616749Y-78490446D01*
X-20616746Y-78490443D01*
X-20527033Y-78335055D01*
X-20527032Y-78335054D01*
X-20465658Y-78166432D01*
X-20434498Y-77989709D01*
X-20434426Y-77988887D01*
X-20434293Y-77988548D01*
X-20433560Y-77984389D01*
X-20432723Y-77984536D01*
X-20408963Y-77923823D01*
X-20378126Y-77897855D01*
X-20379159Y-77896320D01*
X-20373792Y-77892710D01*
X-20373790Y-77892710D01*
X-20236621Y-77800464D01*
X-20121405Y-77681933D01*
X-20033086Y-77542203D01*
X-20033085Y-77542200D01*
X-20033084Y-77542199D01*
X-19975454Y-77387271D01*
X-19950986Y-77223796D01*
X-19950986Y-77223782D01*
X-19960729Y-77058781D01*
X-20004267Y-76899313D01*
X-20004269Y-76899307D01*
X-20079724Y-76752253D01*
X-20079732Y-76752240D01*
X-20183878Y-76623878D01*
X-20312240Y-76519732D01*
X-20312253Y-76519724D01*
X-20459307Y-76444269D01*
X-20459313Y-76444267D01*
X-20618781Y-76400729D01*
X-20783782Y-76390986D01*
X-20783796Y-76390986D01*
X-20947271Y-76415454D01*
X-21102199Y-76473084D01*
X-21102200Y-76473085D01*
X-21102203Y-76473086D01*
X-21241933Y-76561405D01*
X-21360464Y-76676621D01*
X-21452710Y-76813790D01*
X-21452710Y-76813792D01*
X-21456320Y-76819159D01*
X-21458696Y-76817560D01*
X-21498779Y-76858614D01*
X-21559503Y-76874500D01*
X-25091875Y-76874500D01*
X-25108059Y-76873439D01*
X-25125014Y-76871207D01*
X-25206625Y-76860462D01*
X-25237891Y-76852084D01*
X-25322166Y-76817177D01*
X-25350202Y-76800991D01*
X-25422572Y-76745458D01*
X-25445459Y-76722571D01*
X-25500992Y-76650201D01*
X-25517178Y-76622165D01*
X-25552085Y-76537890D01*
X-25560463Y-76506624D01*
X-25572466Y-76415455D01*
X-25573440Y-76408058D01*
X-25574501Y-76391874D01*
X-25574501Y-76346699D01*
X-18517496Y-76346699D01*
X-17455421Y-77408774D01*
X-17059244Y-77012597D01*
X-17057008Y-76973975D01*
X-17056468Y-76967554D01*
X-17052195Y-76928800D01*
X-17051323Y-76922415D01*
X-17042965Y-76871207D01*
X-17041762Y-76864876D01*
X-17033492Y-76826780D01*
X-17031962Y-76820522D01*
X-16974803Y-76610509D01*
X-16972949Y-76604336D01*
X-16960767Y-76567292D01*
X-16958595Y-76561224D01*
X-16939848Y-76512846D01*
X-16937366Y-76506904D01*
X-16921417Y-76471346D01*
X-16918629Y-76465538D01*
X-16819367Y-76271856D01*
X-16816281Y-76266201D01*
X-16796727Y-76232485D01*
X-16793351Y-76226999D01*
X-16765026Y-76183530D01*
X-16761370Y-76178224D01*
X-16738415Y-76146706D01*
X-16734486Y-76141597D01*
X-16673561Y-76066482D01*
X-17455420Y-75284623D01*
X-18517496Y-76346699D01*
X-25574501Y-76346699D01*
X-25574501Y-75908125D01*
X-25573440Y-75891939D01*
X-25560463Y-75793375D01*
X-25552085Y-75762109D01*
X-25517178Y-75677834D01*
X-25500992Y-75649798D01*
X-25500989Y-75649795D01*
X-25477088Y-75618646D01*
X-25445459Y-75577428D01*
X-25422572Y-75554541D01*
X-25385457Y-75526061D01*
X-25350198Y-75499005D01*
X-25322169Y-75482823D01*
X-25282650Y-75466454D01*
X-25237891Y-75447915D01*
X-25206624Y-75439537D01*
X-25108060Y-75426561D01*
X-25091875Y-75425500D01*
X-24004976Y-75425500D01*
X-24004974Y-75425500D01*
X-23818157Y-75390577D01*
X-23640938Y-75321922D01*
X-23479352Y-75221872D01*
X-23338901Y-75093834D01*
X-23224368Y-74942169D01*
X-23173582Y-74840177D01*
X-23139654Y-74772042D01*
X-23087643Y-74589239D01*
X-23086688Y-74578932D01*
X-20285263Y-74578932D01*
X-19223188Y-75641007D01*
X-18161113Y-74578932D01*
X-18161114Y-74578931D01*
X-16749728Y-74578931D01*
X-15844752Y-75483907D01*
X-15639478Y-75428038D01*
X-15633220Y-75426508D01*
X-15595124Y-75418238D01*
X-15588793Y-75417035D01*
X-15537585Y-75408677D01*
X-15531200Y-75407805D01*
X-15492446Y-75403532D01*
X-15486026Y-75402992D01*
X-15447401Y-75400754D01*
X-14625579Y-74578932D01*
X-15687654Y-73516857D01*
X-16749728Y-74578931D01*
X-18161114Y-74578931D01*
X-19223188Y-73516857D01*
X-20285263Y-74578932D01*
X-23086688Y-74578932D01*
X-23070108Y-74400000D01*
X-23070108Y-74399999D01*
X-23087643Y-74210760D01*
X-23139654Y-74027957D01*
X-23224368Y-73857830D01*
X-23338902Y-73706164D01*
X-23479350Y-73578129D01*
X-23640939Y-73478077D01*
X-23640943Y-73478075D01*
X-23770823Y-73427760D01*
X-23818157Y-73409423D01*
X-24004974Y-73374500D01*
X-24004976Y-73374500D01*
X-25091875Y-73374500D01*
X-25108059Y-73373439D01*
X-25118245Y-73372098D01*
X-25206625Y-73360462D01*
X-25237891Y-73352084D01*
X-25322166Y-73317177D01*
X-25350202Y-73300991D01*
X-25422572Y-73245458D01*
X-25445459Y-73222571D01*
X-25500992Y-73150201D01*
X-25517178Y-73122165D01*
X-25552085Y-73037890D01*
X-25560463Y-73006624D01*
X-25573439Y-72908067D01*
X-25574500Y-72891881D01*
X-25574500Y-72811165D01*
X-22053030Y-72811165D01*
X-20990955Y-73873240D01*
X-19928880Y-72811165D01*
X-18517496Y-72811165D01*
X-17455421Y-73873240D01*
X-16393346Y-72811165D01*
X-14981962Y-72811165D01*
X-13919887Y-73873240D01*
X-13176454Y-73129807D01*
X-13143623Y-73086332D01*
X-13140066Y-73081841D01*
X-13117930Y-73055184D01*
X-13114171Y-73050865D01*
X-13083100Y-73016781D01*
X-13079143Y-73012637D01*
X-13054634Y-72988128D01*
X-13050491Y-72984172D01*
X-12875957Y-72825063D01*
X-12871637Y-72821303D01*
X-12858545Y-72810431D01*
X-13919887Y-71749090D01*
X-14981962Y-72811165D01*
X-16393346Y-72811165D01*
X-17455421Y-71749090D01*
X-18517496Y-72811165D01*
X-19928880Y-72811165D01*
X-20990955Y-71749090D01*
X-22053030Y-72811165D01*
X-25574500Y-72811165D01*
X-25574500Y-71043398D01*
X-23820797Y-71043398D01*
X-22758722Y-72105473D01*
X-21696647Y-71043398D01*
X-20285263Y-71043398D01*
X-19223188Y-72105473D01*
X-18324723Y-71207008D01*
X-18329429Y-71202990D01*
X-18329647Y-71202772D01*
X-16590353Y-71202772D01*
X-15687653Y-72105472D01*
X-14625579Y-71043398D01*
X-13214195Y-71043398D01*
X-12152120Y-72105473D01*
X-11123500Y-71076853D01*
X-11123500Y-71009943D01*
X-12152120Y-69981323D01*
X-13214195Y-71043398D01*
X-14625579Y-71043398D01*
X-15687654Y-69981323D01*
X-16159611Y-70453280D01*
X-16167075Y-70500400D01*
X-16171617Y-70519319D01*
X-16229985Y-70698958D01*
X-16237431Y-70716935D01*
X-16323183Y-70885232D01*
X-16333350Y-70901822D01*
X-16444373Y-71054633D01*
X-16457010Y-71069429D01*
X-16590353Y-71202772D01*
X-18329647Y-71202772D01*
X-18462990Y-71069429D01*
X-18475627Y-71054633D01*
X-18586650Y-70901822D01*
X-18596817Y-70885232D01*
X-18682569Y-70716935D01*
X-18690015Y-70698958D01*
X-18748383Y-70519319D01*
X-18752926Y-70500398D01*
X-18762111Y-70442398D01*
X-19223187Y-69981322D01*
X-20285263Y-71043398D01*
X-21696647Y-71043398D01*
X-22758722Y-69981323D01*
X-23820797Y-71043398D01*
X-25574500Y-71043398D01*
X-25574500Y-68263567D01*
X-24576500Y-68263567D01*
X-24576500Y-70287695D01*
X-24526489Y-70337706D01*
X-23464414Y-69275631D01*
X-22053030Y-69275631D01*
X-20990955Y-70337706D01*
X-19928880Y-69275631D01*
X-19928881Y-69275630D01*
X-18517495Y-69275630D01*
X-18462772Y-69330353D01*
X-18329429Y-69197010D01*
X-18314633Y-69184373D01*
X-18161822Y-69073350D01*
X-18145232Y-69063183D01*
X-17976935Y-68977431D01*
X-17958958Y-68969985D01*
X-17779319Y-68911617D01*
X-17760399Y-68907075D01*
X-17573840Y-68877527D01*
X-17554442Y-68876000D01*
X-17365558Y-68876000D01*
X-17346160Y-68877527D01*
X-17159601Y-68907075D01*
X-17140681Y-68911617D01*
X-16961042Y-68969985D01*
X-16943065Y-68977431D01*
X-16774768Y-69063183D01*
X-16758178Y-69073350D01*
X-16605367Y-69184373D01*
X-16590571Y-69197010D01*
X-16457010Y-69330571D01*
X-16452991Y-69335276D01*
X-16393346Y-69275631D01*
X-14981962Y-69275631D01*
X-13919887Y-70337706D01*
X-12857812Y-69275631D01*
X-13919887Y-68213556D01*
X-14981962Y-69275631D01*
X-16393346Y-69275631D01*
X-17455421Y-68213556D01*
X-18517495Y-69275630D01*
X-19928881Y-69275630D01*
X-20990955Y-68213556D01*
X-22053030Y-69275631D01*
X-23464414Y-69275631D01*
X-24526489Y-68213556D01*
X-24576500Y-68263567D01*
X-25574500Y-68263567D01*
X-25574500Y-67507864D01*
X-23820797Y-67507864D01*
X-22758722Y-68569939D01*
X-21696647Y-67507864D01*
X-20285263Y-67507864D01*
X-19223188Y-68569939D01*
X-18161113Y-67507864D01*
X-16749729Y-67507864D01*
X-15687654Y-68569939D01*
X-14625579Y-67507864D01*
X-13214195Y-67507864D01*
X-12152120Y-68569939D01*
X-11123500Y-67541319D01*
X-11123500Y-67474409D01*
X-12152120Y-66445789D01*
X-13214195Y-67507864D01*
X-14625579Y-67507864D01*
X-15687654Y-66445789D01*
X-16749729Y-67507864D01*
X-18161113Y-67507864D01*
X-19223188Y-66445789D01*
X-20285263Y-67507864D01*
X-21696647Y-67507864D01*
X-22758722Y-66445789D01*
X-23820797Y-67507864D01*
X-25574500Y-67507864D01*
X-25574500Y-64728033D01*
X-24576500Y-64728033D01*
X-24576500Y-66752161D01*
X-24526489Y-66802172D01*
X-23464414Y-65740097D01*
X-22053030Y-65740097D01*
X-20990955Y-66802172D01*
X-19928880Y-65740097D01*
X-18517496Y-65740097D01*
X-17455421Y-66802172D01*
X-16393346Y-65740097D01*
X-14981962Y-65740097D01*
X-13919887Y-66802172D01*
X-12857812Y-65740097D01*
X-13919887Y-64678022D01*
X-14981962Y-65740097D01*
X-16393346Y-65740097D01*
X-17455421Y-64678022D01*
X-18517496Y-65740097D01*
X-19928880Y-65740097D01*
X-20990955Y-64678022D01*
X-22053030Y-65740097D01*
X-23464414Y-65740097D01*
X-24526489Y-64678022D01*
X-24576500Y-64728033D01*
X-25574500Y-64728033D01*
X-25574500Y-63972330D01*
X-23820797Y-63972330D01*
X-22758722Y-65034405D01*
X-21696647Y-63972330D01*
X-20285263Y-63972330D01*
X-19223188Y-65034405D01*
X-18161113Y-63972330D01*
X-16749729Y-63972330D01*
X-15687654Y-65034405D01*
X-14625579Y-63972330D01*
X-13214195Y-63972330D01*
X-12152120Y-65034405D01*
X-11123500Y-64005785D01*
X-11123500Y-63938875D01*
X-12152120Y-62910255D01*
X-13214195Y-63972330D01*
X-14625579Y-63972330D01*
X-15687654Y-62910255D01*
X-16749729Y-63972330D01*
X-18161113Y-63972330D01*
X-19223188Y-62910255D01*
X-20285263Y-63972330D01*
X-21696647Y-63972330D01*
X-22758722Y-62910255D01*
X-23820797Y-63972330D01*
X-25574500Y-63972330D01*
X-25574500Y-61192499D01*
X-24576500Y-61192499D01*
X-24576500Y-63216627D01*
X-24526489Y-63266638D01*
X-23464414Y-62204563D01*
X-22053030Y-62204563D01*
X-20990955Y-63266638D01*
X-19928880Y-62204563D01*
X-18517496Y-62204563D01*
X-17455421Y-63266638D01*
X-16393346Y-62204563D01*
X-14981962Y-62204563D01*
X-13919887Y-63266638D01*
X-12857812Y-62204563D01*
X-13919887Y-61142488D01*
X-14981962Y-62204563D01*
X-16393346Y-62204563D01*
X-17455421Y-61142488D01*
X-18517496Y-62204563D01*
X-19928880Y-62204563D01*
X-20990955Y-61142488D01*
X-22053030Y-62204563D01*
X-23464414Y-62204563D01*
X-24526489Y-61142488D01*
X-24576500Y-61192499D01*
X-25574500Y-61192499D01*
X-25574500Y-60436796D01*
X-23820797Y-60436796D01*
X-22758722Y-61498871D01*
X-21696647Y-60436796D01*
X-20285263Y-60436796D01*
X-19223188Y-61498871D01*
X-18161113Y-60436796D01*
X-16749729Y-60436796D01*
X-15687654Y-61498871D01*
X-14625579Y-60436796D01*
X-13214195Y-60436796D01*
X-12152120Y-61498871D01*
X-11123500Y-60470251D01*
X-11123500Y-60403341D01*
X-12152120Y-59374721D01*
X-13214195Y-60436796D01*
X-14625579Y-60436796D01*
X-15687654Y-59374721D01*
X-16749729Y-60436796D01*
X-18161113Y-60436796D01*
X-19223188Y-59374721D01*
X-20285263Y-60436796D01*
X-21696647Y-60436796D01*
X-22758722Y-59374721D01*
X-23820797Y-60436796D01*
X-25574500Y-60436796D01*
X-25574500Y-57656965D01*
X-24576500Y-57656965D01*
X-24576500Y-59681093D01*
X-24526489Y-59731104D01*
X-23464414Y-58669029D01*
X-22053030Y-58669029D01*
X-20990955Y-59731104D01*
X-19928880Y-58669029D01*
X-18517496Y-58669029D01*
X-17455421Y-59731104D01*
X-16393346Y-58669029D01*
X-14981962Y-58669029D01*
X-13919887Y-59731104D01*
X-12857812Y-58669029D01*
X-13919887Y-57606954D01*
X-14981962Y-58669029D01*
X-16393346Y-58669029D01*
X-17455421Y-57606954D01*
X-18517496Y-58669029D01*
X-19928880Y-58669029D01*
X-20990955Y-57606954D01*
X-22053030Y-58669029D01*
X-23464414Y-58669029D01*
X-24526489Y-57606954D01*
X-24576500Y-57656965D01*
X-25574500Y-57656965D01*
X-25574500Y-56901262D01*
X-23820796Y-56901262D01*
X-22758722Y-57963337D01*
X-21696647Y-56901262D01*
X-20285262Y-56901262D01*
X-19223188Y-57963337D01*
X-18161113Y-56901262D01*
X-16749728Y-56901262D01*
X-15687654Y-57963337D01*
X-14625579Y-56901262D01*
X-13214194Y-56901262D01*
X-12152120Y-57963337D01*
X-11123500Y-56934717D01*
X-11123500Y-56867807D01*
X-12152119Y-55839187D01*
X-13214194Y-56901262D01*
X-14625579Y-56901262D01*
X-15687654Y-55839187D01*
X-16749728Y-56901262D01*
X-18161113Y-56901262D01*
X-19223188Y-55839187D01*
X-20285262Y-56901262D01*
X-21696647Y-56901262D01*
X-22758722Y-55839187D01*
X-23820796Y-56901262D01*
X-25574500Y-56901262D01*
X-25574500Y-54121431D01*
X-24576500Y-54121431D01*
X-24576500Y-56145559D01*
X-24526489Y-56195570D01*
X-23464414Y-55133495D01*
X-22053029Y-55133495D01*
X-20990955Y-56195570D01*
X-19928880Y-55133495D01*
X-18517495Y-55133495D01*
X-17455421Y-56195570D01*
X-16393346Y-55133495D01*
X-14981961Y-55133495D01*
X-13919887Y-56195570D01*
X-12857812Y-55133495D01*
X-13919887Y-54071420D01*
X-14981961Y-55133495D01*
X-16393346Y-55133495D01*
X-17455421Y-54071420D01*
X-18517495Y-55133495D01*
X-19928880Y-55133495D01*
X-20990955Y-54071420D01*
X-22053029Y-55133495D01*
X-23464414Y-55133495D01*
X-24526489Y-54071420D01*
X-24576500Y-54121431D01*
X-25574500Y-54121431D01*
X-25574500Y-53365728D01*
X-23820796Y-53365728D01*
X-22758722Y-54427803D01*
X-21696647Y-53365728D01*
X-20285262Y-53365728D01*
X-19223188Y-54427803D01*
X-18161113Y-53365728D01*
X-16749728Y-53365728D01*
X-15687654Y-54427803D01*
X-14625579Y-53365728D01*
X-13214194Y-53365728D01*
X-12152120Y-54427803D01*
X-11123500Y-53399183D01*
X-11123500Y-53332273D01*
X-12152119Y-52303653D01*
X-13214194Y-53365728D01*
X-14625579Y-53365728D01*
X-15687654Y-52303653D01*
X-16749728Y-53365728D01*
X-18161113Y-53365728D01*
X-19223188Y-52303653D01*
X-20285262Y-53365728D01*
X-21696647Y-53365728D01*
X-22758722Y-52303653D01*
X-23820796Y-53365728D01*
X-25574500Y-53365728D01*
X-25574500Y-50585898D01*
X-24576500Y-50585898D01*
X-24576500Y-52610025D01*
X-24526488Y-52660036D01*
X-23464414Y-51597961D01*
X-22053029Y-51597961D01*
X-20990955Y-52660036D01*
X-19928880Y-51597961D01*
X-18517495Y-51597961D01*
X-17455421Y-52660036D01*
X-16393346Y-51597961D01*
X-14981961Y-51597961D01*
X-13919887Y-52660036D01*
X-12857812Y-51597961D01*
X-13919887Y-50535887D01*
X-14981961Y-51597961D01*
X-16393346Y-51597961D01*
X-17455421Y-50535887D01*
X-18517495Y-51597961D01*
X-19928880Y-51597961D01*
X-20990955Y-50535887D01*
X-22053029Y-51597961D01*
X-23464414Y-51597961D01*
X-24526489Y-50535887D01*
X-24576500Y-50585898D01*
X-25574500Y-50585898D01*
X-25574500Y-49975877D01*
X-25574394Y-49970753D01*
X-25573588Y-49951276D01*
X-25568581Y-49830194D01*
X-23820796Y-49830194D01*
X-22758722Y-50892269D01*
X-21696647Y-49830194D01*
X-20285262Y-49830194D01*
X-19223188Y-50892269D01*
X-18161113Y-49830194D01*
X-16749728Y-49830194D01*
X-15687654Y-50892269D01*
X-14625579Y-49830194D01*
X-13214194Y-49830194D01*
X-12152119Y-50892269D01*
X-11128606Y-49868756D01*
X-11131934Y-49788304D01*
X-12152119Y-48768119D01*
X-13214194Y-49830194D01*
X-14625579Y-49830194D01*
X-15687654Y-48768120D01*
X-16749728Y-49830194D01*
X-18161113Y-49830194D01*
X-19223188Y-48768120D01*
X-20285262Y-49830194D01*
X-21696647Y-49830194D01*
X-22758722Y-48768120D01*
X-23820796Y-49830194D01*
X-25568581Y-49830194D01*
X-25567727Y-49809536D01*
X-25557727Y-49567731D01*
X-25556881Y-49557520D01*
X-25507315Y-49159795D01*
X-25505629Y-49149688D01*
X-25488192Y-49066511D01*
X-24468497Y-49066511D01*
X-23464414Y-48062428D01*
X-22053030Y-48062428D01*
X-20990955Y-49124503D01*
X-19928880Y-48062428D01*
X-18517496Y-48062428D01*
X-17455421Y-49124503D01*
X-16393346Y-48062428D01*
X-14981962Y-48062428D01*
X-13919887Y-49124503D01*
X-12857812Y-48062428D01*
X-13919887Y-47000353D01*
X-14981962Y-48062428D01*
X-16393346Y-48062428D01*
X-17455421Y-47000353D01*
X-18517496Y-48062428D01*
X-19928880Y-48062428D01*
X-20990955Y-47000353D01*
X-22053030Y-48062428D01*
X-23464414Y-48062428D01*
X-23464413Y-48062427D01*
X-23844846Y-47681994D01*
X-23928523Y-47799222D01*
X-24096662Y-48081463D01*
X-24240922Y-48376622D01*
X-24360323Y-48682687D01*
X-24454039Y-48997541D01*
X-24468497Y-49066511D01*
X-25488192Y-49066511D01*
X-25423393Y-48757407D01*
X-25420878Y-48747474D01*
X-25306538Y-48363330D01*
X-25303212Y-48353639D01*
X-25157544Y-47980242D01*
X-25153429Y-47970858D01*
X-24977429Y-47610759D01*
X-24972552Y-47601747D01*
X-24767421Y-47257410D01*
X-24761818Y-47248831D01*
X-24544891Y-46944924D01*
X-23170532Y-46944924D01*
X-22758721Y-47356735D01*
X-21696647Y-46294661D01*
X-20285263Y-46294661D01*
X-19223188Y-47356736D01*
X-18161113Y-46294661D01*
X-16749729Y-46294661D01*
X-15687654Y-47356736D01*
X-14625578Y-46294660D01*
X-14916731Y-46003507D01*
X-15121902Y-45995084D01*
X-16450571Y-45995503D01*
X-16749729Y-46294661D01*
X-18161113Y-46294661D01*
X-18161112Y-46294660D01*
X-18459634Y-45996138D01*
X-19987222Y-45996620D01*
X-20285263Y-46294661D01*
X-21696647Y-46294661D01*
X-21696646Y-46294660D01*
X-21804058Y-46187248D01*
X-21891830Y-46213403D01*
X-22197848Y-46332898D01*
X-22492935Y-46477239D01*
X-22775155Y-46645485D01*
X-23042463Y-46836416D01*
X-23170532Y-46944924D01*
X-24544891Y-46944924D01*
X-24528968Y-46922617D01*
X-24522676Y-46914530D01*
X-24263670Y-46608635D01*
X-24256731Y-46601096D01*
X-23973373Y-46317648D01*
X-23965836Y-46310707D01*
X-23660029Y-46051610D01*
X-23651944Y-46045315D01*
X-23325805Y-45812362D01*
X-23317228Y-45806755D01*
X-22972941Y-45601508D01*
X-22963930Y-45596630D01*
X-22962899Y-45596126D01*
X-22603899Y-45420521D01*
X-22594518Y-45416404D01*
X-22587683Y-45413735D01*
X-22221160Y-45270615D01*
X-22211492Y-45267293D01*
X-21827357Y-45152823D01*
X-21817442Y-45150309D01*
X-21425159Y-45067944D01*
X-21415089Y-45066261D01*
X-21017351Y-45016565D01*
X-21007158Y-45015717D01*
X-20604132Y-44998923D01*
X-20599087Y-44998816D01*
X-20594304Y-44998815D01*
X-20594288Y-44998815D01*
X-20594287Y-44998814D01*
X-15104094Y-44997080D01*
X-15099050Y-44997183D01*
G37*
G04 #@! TD.AperFunction*
M02*
