G04 #@! TF.GenerationSoftware,KiCad,Pcbnew,9.0.2*
G04 #@! TF.CreationDate,2025-10-10T20:35:13-04:00*
G04 #@! TF.ProjectId,Trackball,54726163-6b62-4616-9c6c-2e6b69636164,rev?*
G04 #@! TF.SameCoordinates,Original*
G04 #@! TF.FileFunction,Profile,NP*
%FSLAX46Y46*%
G04 Gerber Fmt 4.6, Leading zero omitted, Abs format (unit mm)*
G04 Created by KiCad (PCBNEW 9.0.2) date 2025-10-10 20:35:13*
%MOMM*%
%LPD*%
G01*
G04 APERTURE LIST*
G04 #@! TA.AperFunction,Profile*
%ADD10C,0.050000*%
G04 #@! TD*
G04 APERTURE END LIST*
D10*
X7536092Y-90400000D02*
X7536092Y-91325102D01*
X-2823907Y-85400000D02*
G75*
G02*
X-3823907Y-86400000I-999999J-1D01*
G01*
X-10100000Y-119328420D02*
G75*
G02*
X-15101580Y-124328421I-5000002J1D01*
G01*
X-25600001Y-90400000D02*
X-25600000Y-91325102D01*
X-29185000Y-75400000D02*
X-28185000Y-75400000D01*
X-38600000Y-85400000D02*
G75*
G02*
X-39600000Y-86400000I-999999J-1D01*
G01*
X-25100001Y-89900000D02*
X-24100001Y-89900000D01*
X-25600001Y-86900000D02*
X-25600001Y-87399999D01*
X-10600000Y-89900000D02*
X-11600000Y-89900000D01*
X-10100000Y-90400000D02*
X-10100000Y-91325102D01*
X-25100001Y-87900000D02*
G75*
G02*
X-25600001Y-87400000I1J500001D01*
G01*
X-24100001Y-73400000D02*
G75*
G02*
X-24100001Y-75400000I0J-1000000D01*
G01*
X-6463909Y-73400000D02*
G75*
G02*
X-6463909Y-75400000I0J-1000000D01*
G01*
X-43960000Y-73400000D02*
G75*
G02*
X-44460000Y-72900000I1J500001D01*
G01*
X7536092Y-111328420D02*
X7536092Y-91325102D01*
X-25600000Y-43973318D02*
G75*
G02*
X-20601580Y-38973317I5000002J-1D01*
G01*
X-7963909Y-90400000D02*
X-7963908Y-91325102D01*
X-11600000Y-75400000D02*
X-10600000Y-75400000D01*
X-2965488Y-116326682D02*
X2534512Y-116328420D01*
X-27685000Y-72900000D02*
G75*
G02*
X-28185000Y-73400000I-500001J1D01*
G01*
X-7963909Y-86900000D02*
X-7963909Y-87400000D01*
X-7463909Y-73400000D02*
X-6463909Y-73400000D01*
X-25600000Y-119326682D02*
X-25600000Y-91325102D01*
X-43960000Y-89900000D02*
X-42960000Y-89900000D01*
X-28184999Y-86400001D02*
X-33559999Y-86400000D01*
X-20459999Y-85400000D02*
G75*
G02*
X-21459999Y-86400000I-999999J-1D01*
G01*
X-21460000Y-76900000D02*
G75*
G02*
X-20460000Y-77900000I1J-999999D01*
G01*
X-25100001Y-76900000D02*
G75*
G02*
X-25600001Y-76400000I1J500001D01*
G01*
X-33560000Y-78900000D02*
X-21460000Y-78900000D01*
X-29185000Y-75400000D02*
G75*
G02*
X-29185000Y-73400000I0J1000000D01*
G01*
X-15101580Y-38971580D02*
G75*
G02*
X-10100000Y-43971580I1580J-5000000D01*
G01*
X-21459999Y-86400000D02*
X-25099999Y-86400000D01*
X-7963909Y-86900000D02*
G75*
G02*
X-7463909Y-86400000I500001J-1D01*
G01*
X7536092Y-76400000D02*
G75*
G02*
X7036092Y-76899992I-499992J0D01*
G01*
X7536092Y-86900000D02*
X7536092Y-87400000D01*
X-44460000Y-86900000D02*
G75*
G02*
X-43960000Y-86400000I500001J-1D01*
G01*
X-33559999Y-86400000D02*
G75*
G02*
X-34559999Y-85400000I-1J999999D01*
G01*
X-28185000Y-89900000D02*
G75*
G02*
X-27685000Y-90400000I-1J-500001D01*
G01*
X7536092Y-111328420D02*
G75*
G02*
X2534512Y-116328421I-5000002J1D01*
G01*
X-10600000Y-86400000D02*
X-14559999Y-86400000D01*
X-21460000Y-76900000D02*
X-25100000Y-76900000D01*
X-42960000Y-87900000D02*
G75*
G02*
X-42960000Y-89900000I0J-1000000D01*
G01*
X-20601580Y-38973318D02*
X-15101580Y-38971580D01*
X-28185000Y-89900000D02*
X-29185000Y-89900000D01*
X-3823907Y-84400000D02*
G75*
G02*
X-2823907Y-85400000I1J-999999D01*
G01*
X-28185000Y-73400000D02*
X-29185000Y-73400000D01*
X-28185000Y-86400000D02*
G75*
G02*
X-27685000Y-86900000I-1J-500001D01*
G01*
X-32685000Y-49470000D02*
G75*
G02*
X-27685000Y-54470000I0J-5000000D01*
G01*
X-27685000Y-108830000D02*
G75*
G02*
X-32685000Y-113830000I-5000000J0D01*
G01*
X-14560000Y-78900000D02*
X-3823908Y-78900000D01*
X-28185000Y-76899999D02*
X-33560000Y-76900000D01*
X7036092Y-89900000D02*
X6036092Y-89900000D01*
X-10100000Y-43971580D02*
X-10100000Y-71974898D01*
X7536092Y-51971580D02*
X7536092Y-71974898D01*
X-44460000Y-76400000D02*
X-44460000Y-75900000D01*
X-27685000Y-71400000D02*
X-27685000Y-54470000D01*
X-42960000Y-75400000D02*
X-43960000Y-75400000D01*
X-27685000Y-72900000D02*
X-27685000Y-71400000D01*
X-42960000Y-73400000D02*
G75*
G02*
X-42960000Y-75400000I0J-1000000D01*
G01*
X-43960000Y-73400000D02*
X-42960000Y-73400000D01*
X-7963908Y-111326682D02*
X-7963908Y-91325102D01*
X-38600000Y-77900000D02*
X-38600000Y-85400000D01*
X-27685000Y-76400000D02*
X-27685000Y-75900000D01*
X7036092Y-86400000D02*
G75*
G02*
X7536100Y-86900000I8J-500000D01*
G01*
X-28185000Y-75400000D02*
G75*
G02*
X-27685000Y-75900000I-1J-500001D01*
G01*
X-33559999Y-84400000D02*
X-21459999Y-84400000D01*
X-27685000Y-87400000D02*
G75*
G02*
X-28185000Y-87900000I-500001J1D01*
G01*
X7536092Y-72900000D02*
X7536092Y-71974898D01*
X-10100000Y-72900000D02*
G75*
G02*
X-10600000Y-73400000I-500001J1D01*
G01*
X-7463909Y-89900000D02*
X-6463909Y-89900000D01*
X-39460000Y-113830000D02*
G75*
G02*
X-44460000Y-108830000I0J5000000D01*
G01*
X-39600000Y-76900000D02*
G75*
G02*
X-38600000Y-77900000I1J-999999D01*
G01*
X2534512Y-46971580D02*
G75*
G02*
X7536090Y-51971580I1578J-5000000D01*
G01*
X-10100000Y-76400000D02*
X-10100000Y-75900000D01*
X-24100001Y-87900000D02*
G75*
G02*
X-24100001Y-89900000I0J-1000000D01*
G01*
X-3823908Y-76900000D02*
X-7463908Y-76900000D01*
X-10100000Y-76400000D02*
G75*
G02*
X-10600000Y-76900000I-500001J1D01*
G01*
X-44460000Y-90400000D02*
G75*
G02*
X-43960000Y-89900000I500001J-1D01*
G01*
X-25600001Y-86900000D02*
G75*
G02*
X-25100001Y-86400000I500001J-1D01*
G01*
X-25100001Y-73400000D02*
G75*
G02*
X-25600001Y-72900000I1J500001D01*
G01*
X-33560000Y-78900000D02*
G75*
G02*
X-34560000Y-77900000I-1J999999D01*
G01*
X-11600000Y-87900000D02*
X-10600000Y-87900000D01*
X-7963908Y-51973318D02*
X-7963908Y-71974898D01*
X-7463909Y-73400000D02*
G75*
G02*
X-7963909Y-72900000I1J500001D01*
G01*
X-39460000Y-113830000D02*
X-32685000Y-113830000D01*
X-25600001Y-90400000D02*
G75*
G02*
X-25100001Y-89900000I500001J-1D01*
G01*
X-44460000Y-54470000D02*
G75*
G02*
X-39460000Y-49470000I5000000J0D01*
G01*
X-7463909Y-76900000D02*
G75*
G02*
X-7963909Y-76400000I1J500001D01*
G01*
X-20601580Y-124326682D02*
X-15101580Y-124328420D01*
X6036092Y-75400000D02*
X7036092Y-75400000D01*
X-25600001Y-76400000D02*
X-25600001Y-75900000D01*
X-14559999Y-84400000D02*
X-3823907Y-84400000D01*
X-20601580Y-124326682D02*
G75*
G02*
X-25599999Y-119326682I1582J5000001D01*
G01*
X-24100001Y-75400000D02*
X-25100001Y-75400000D01*
X-20460000Y-77900000D02*
G75*
G02*
X-21460000Y-78900000I-999999J-1D01*
G01*
X-2965488Y-46973318D02*
X2534512Y-46971580D01*
X-2965488Y-116326682D02*
G75*
G02*
X-7963907Y-111326682I1582J5000001D01*
G01*
X-7963909Y-72900000D02*
X-7963908Y-71974898D01*
X-7963909Y-90400000D02*
G75*
G02*
X-7463909Y-89900000I500001J-1D01*
G01*
X3076093Y-86400000D02*
G75*
G02*
X2076100Y-85400000I7J1000000D01*
G01*
X-25600000Y-43973318D02*
X-25600000Y-71974898D01*
X-6463909Y-87900000D02*
G75*
G02*
X-6463909Y-89900000I0J-1000000D01*
G01*
X-10600000Y-73400000D02*
X-11600000Y-73400000D01*
X-10100000Y-119328420D02*
X-10100000Y-91325102D01*
X-14559999Y-86400000D02*
G75*
G02*
X-15559999Y-85400000I-1J999999D01*
G01*
X-10600000Y-75400000D02*
G75*
G02*
X-10100000Y-75900000I-1J-500001D01*
G01*
X-43960000Y-76900000D02*
G75*
G02*
X-44460000Y-76400000I1J500001D01*
G01*
X7036091Y-76900000D02*
X3076092Y-76900000D01*
X7536092Y-87400000D02*
G75*
G02*
X7036092Y-87899992I-499992J0D01*
G01*
X-3823907Y-86400000D02*
X-7463907Y-86400000D01*
X-11600000Y-89900000D02*
G75*
G02*
X-11600000Y-87900000I0J1000000D01*
G01*
X-14560000Y-78900000D02*
G75*
G02*
X-15560000Y-77900000I-1J999999D01*
G01*
X7536092Y-76400000D02*
X7536092Y-75900000D01*
X-10600000Y-89900000D02*
G75*
G02*
X-10100000Y-90400000I-1J-500001D01*
G01*
X-43959999Y-86400000D02*
X-39600000Y-86400000D01*
X-25100001Y-73400000D02*
X-24100001Y-73400000D01*
X-6463909Y-75400000D02*
X-7463909Y-75400000D01*
X-10100000Y-86900000D02*
X-10100000Y-87400000D01*
X-44460000Y-86900000D02*
X-44460000Y-87400000D01*
X6036092Y-87900000D02*
X7036092Y-87900000D01*
X-15560000Y-77900000D02*
G75*
G02*
X-14560000Y-76900000I999999J1D01*
G01*
X-29185000Y-89900000D02*
G75*
G02*
X-29185000Y-87900000I0J1000000D01*
G01*
X7036092Y-75400000D02*
G75*
G02*
X7536100Y-75900000I8J-500000D01*
G01*
X-7963908Y-51973318D02*
G75*
G02*
X-2965488Y-46973317I5000002J-1D01*
G01*
X-27685000Y-76400000D02*
G75*
G02*
X-28185000Y-76900000I-500001J1D01*
G01*
X7036092Y-89900000D02*
G75*
G02*
X7536100Y-90400000I8J-500000D01*
G01*
X-43959999Y-76900000D02*
X-39600000Y-76900000D01*
X-29185000Y-87900000D02*
X-28185000Y-87900000D01*
X-34559999Y-85400000D02*
G75*
G02*
X-33559999Y-84400000I999999J1D01*
G01*
X-7963909Y-76400000D02*
X-7963909Y-75900000D01*
X-15559999Y-85400000D02*
G75*
G02*
X-14559999Y-84400000I999999J1D01*
G01*
X-25600001Y-72900000D02*
X-25600000Y-71974898D01*
X-44460000Y-91901535D02*
X-44460000Y-108830000D01*
X-10100000Y-72900000D02*
X-10100000Y-71974898D01*
X-42960000Y-87900000D02*
X-43960000Y-87900000D01*
X7036092Y-73400000D02*
X6036092Y-73400000D01*
X-34560000Y-77900000D02*
G75*
G02*
X-33560000Y-76900000I999999J1D01*
G01*
X-44460000Y-75900000D02*
G75*
G02*
X-43960000Y-75400000I500001J-1D01*
G01*
X-43960000Y-87900000D02*
G75*
G02*
X-44460000Y-87400000I1J500001D01*
G01*
X-21459999Y-84400000D02*
G75*
G02*
X-20459999Y-85400000I1J-999999D01*
G01*
X-25600001Y-75900000D02*
G75*
G02*
X-25100001Y-75400000I500001J-1D01*
G01*
X-6463909Y-87900000D02*
X-7463909Y-87900000D01*
X-10600000Y-86400000D02*
G75*
G02*
X-10100000Y-86900000I-1J-500001D01*
G01*
X6036092Y-89900000D02*
G75*
G02*
X6036092Y-87900000I-2J1000000D01*
G01*
X-39460000Y-49470000D02*
X-32685000Y-49470000D01*
X7036092Y-86400000D02*
X3076093Y-86400000D01*
X-10600001Y-76900000D02*
X-14560000Y-76900000D01*
X-44460000Y-72900000D02*
X-44460000Y-54470000D01*
X7536092Y-72900000D02*
G75*
G02*
X7036092Y-73399992I-499992J0D01*
G01*
X-24100001Y-87900000D02*
X-25100001Y-87900000D01*
X-44460000Y-90400000D02*
X-44460000Y-91900000D01*
X2076092Y-77900000D02*
X2076093Y-85400000D01*
X-3823908Y-76900000D02*
G75*
G02*
X-2823908Y-77900000I1J-999999D01*
G01*
X2076092Y-77900000D02*
G75*
G02*
X3076092Y-76899992I1000008J0D01*
G01*
X-11600000Y-75400000D02*
G75*
G02*
X-11600000Y-73400000I0J1000000D01*
G01*
X-7963909Y-75900000D02*
G75*
G02*
X-7463909Y-75400000I500001J-1D01*
G01*
X-27677929Y-90400000D02*
X-27685000Y-108830000D01*
X6036092Y-75400000D02*
G75*
G02*
X6036092Y-73400000I-2J1000000D01*
G01*
X-7463909Y-87900000D02*
G75*
G02*
X-7963909Y-87400000I1J500001D01*
G01*
X-27685000Y-86900000D02*
X-27685000Y-87400000D01*
X-10100000Y-87400000D02*
G75*
G02*
X-10600000Y-87900000I-500001J1D01*
G01*
X-2823908Y-77900000D02*
G75*
G02*
X-3823908Y-78900000I-999999J-1D01*
G01*
M02*
